<svg width="25" height="25" viewBox="0 0 25 25" fill="none" xmlns="http://www.w3.org/2000/svg">
<g clip-path="url(#clip0_640_5410)">
<path d="M16.2656 20.6355H5.63332L0.5 11.7423L1.58418 11.1164L6.35486 19.3838H15.5413L20.4951 10.8034H24.4997V12.0553H21.2177L16.2656 20.6355ZM8.56933 21.1137C7.79713 21.1137 7.1737 21.7385 7.1737 22.5088C7.1737 23.2791 7.79713 23.9047 8.56933 23.9047C9.33938 23.9047 9.96497 23.2799 9.96497 22.5088C9.9655 21.7387 9.34019 21.1137 8.56933 21.1137ZM13.7238 21.115C12.9538 21.0802 12.3 21.6763 12.2644 22.4461C12.2288 23.2159 12.8259 23.8688 13.5962 23.9042C14.3652 23.9409 15.0184 23.3426 15.0538 22.5731C15.0902 21.8036 14.4936 21.1517 13.7238 21.115ZM17.4736 0.395996V14.6488H17.0855L15.6968 15.8815V16.3076H11.7358H8.83414H5.14336V2.05511L6.92014 0.396532L17.4736 0.395996ZM17.004 0.891317H7.17718L7.10133 0.966365L6.92041 1.14246L5.99141 2.05457H6.92041H7.44387V8.70897L8.96173 7.43475L10.4799 8.70897V2.05457H15.6984V14.6466V15.5454L16.7097 14.6466L17.0056 14.3832V0.891317H17.004Z" fill="#231F20"/>
</g>
<defs>
<clipPath id="clip0_640_5410">
<rect width="24" height="24" fill="white" transform="translate(0.5 0.150879)"/>
</clipPath>
</defs>
</svg>
