<svg width="17" height="17" viewBox="0 0 17 17" fill="none" xmlns="http://www.w3.org/2000/svg">
<path fill-rule="evenodd" clip-rule="evenodd" d="M14.6171 4.49354L8.49996 7.89212L2.38279 4.49354C2.12637 4.35117 1.80266 4.44396 1.66029 4.70037C1.51791 4.95679 1.61071 5.2805 1.86712 5.42287L8.24212 8.96454C8.40221 9.05308 8.59771 9.05308 8.75779 8.96454L15.1328 5.42287C15.3892 5.2805 15.482 4.95679 15.3396 4.70037C15.1972 4.44396 14.8735 4.35117 14.6171 4.49354Z" fill="#FFA319"/>
<path fill-rule="evenodd" clip-rule="evenodd" d="M7.96875 8.5V15.5833C7.96875 15.8766 8.20675 16.1146 8.5 16.1146C8.79325 16.1146 9.03125 15.8766 9.03125 15.5833V8.5C9.03125 8.20675 8.79325 7.96875 8.5 7.96875C8.20675 7.96875 7.96875 8.20675 7.96875 8.5Z" fill="#FFA319"/>
<path fill-rule="evenodd" clip-rule="evenodd" d="M1.59375 4.95801V12.0413C1.59375 12.234 1.69858 12.4118 1.86717 12.506L8.24217 16.0477C8.40225 16.1362 8.59775 16.1362 8.75783 16.0477L15.1328 12.506C15.3014 12.4118 15.4062 12.234 15.4062 12.0413V4.95801C15.4062 4.66476 15.1683 4.42676 14.875 4.42676C14.5817 4.42676 14.3438 4.66476 14.3438 4.95801V11.729L8.5 14.9753L2.65625 11.729V4.95801C2.65625 4.66476 2.41825 4.42676 2.125 4.42676C1.83175 4.42676 1.59375 4.66476 1.59375 4.95801Z" fill="#FFA319"/>
<path fill-rule="evenodd" clip-rule="evenodd" d="M5.40887 12.3489L6.47137 12.9397C6.72779 13.082 7.0515 12.9893 7.19387 12.7328C7.33625 12.4764 7.24345 12.1534 6.98704 12.0103L5.92454 11.4203C5.66812 11.2779 5.34441 11.3707 5.20204 11.6271C5.05966 11.8828 5.15245 12.2065 5.40887 12.3489Z" fill="#FFA319"/>
<path fill-rule="evenodd" clip-rule="evenodd" d="M2.38279 5.42315L8.49996 2.02457L14.6171 5.42315C14.8735 5.56552 15.1972 5.47273 15.3396 5.21631C15.482 4.9599 15.3892 4.63619 15.1328 4.49381L8.75779 0.952148C8.59771 0.863607 8.40221 0.863607 8.24212 0.952148L1.86712 4.49381C1.61071 4.63619 1.51791 4.9599 1.66029 5.21631C1.80266 5.47273 2.12637 5.56552 2.38279 5.42315Z" fill="#FFA319"/>
<path fill-rule="evenodd" clip-rule="evenodd" d="M5.12542 3.65237L11.1562 7.00278V8.85437C11.1562 9.14762 11.3942 9.38562 11.6874 9.38562C11.9807 9.38562 12.2187 9.14762 12.2187 8.85437V6.6897C12.2187 6.49703 12.1138 6.31924 11.9453 6.22574L5.64109 2.72303C5.38467 2.58066 5.06096 2.67345 4.91859 2.92987C4.77621 3.18628 4.86901 3.50999 5.12542 3.65237Z" fill="#FFA319"/>
</svg>
