<svg width="15" height="15" viewBox="0 0 15 15" fill="none" xmlns="http://www.w3.org/2000/svg">
<g clip-path="url(#clip0_194_3753)">
<path d="M4.43756 9.96875C4.48551 9.89243 4.51639 9.80664 4.52808 9.71727C4.53977 9.6279 4.53199 9.53705 4.50528 9.45097C4.47856 9.36488 4.43354 9.28559 4.37331 9.21854C4.31307 9.15149 4.23904 9.09826 4.15631 9.0625C3.41914 8.75619 2.80127 8.21894 2.39554 7.53145C1.98982 6.84397 1.81814 6.04339 1.90631 5.25C1.98942 4.38305 2.3717 3.57207 2.98754 2.95623C3.60337 2.3404 4.41436 1.95812 5.28131 1.875C5.96883 1.81974 6.65837 1.95358 7.27528 2.26204C7.8922 2.5705 8.413 3.04183 8.78131 3.625C8.86196 3.73538 8.97242 3.82047 9.09973 3.87029C9.22703 3.9201 9.36591 3.93258 9.50006 3.90625C9.59272 3.87819 9.6776 3.82899 9.74801 3.76252C9.81841 3.69605 9.8724 3.61413 9.90573 3.52323C9.93907 3.43232 9.95082 3.33492 9.94007 3.2387C9.92933 3.14247 9.89637 3.05006 9.84381 2.96875C9.35713 2.18329 8.65981 1.55016 7.83115 1.14136C7.00249 0.732554 6.07575 0.56448 5.15631 0.65625C4.05421 0.764929 3.01937 1.23642 2.21418 1.99675C1.40899 2.75708 0.879 3.76321 0.707382 4.85728C0.535764 5.95134 0.732225 7.07143 1.26594 8.04178C1.79965 9.01213 2.64042 9.77784 3.65631 10.2188C3.79478 10.2783 3.95012 10.2858 4.09368 10.2398C4.23725 10.1939 4.35937 10.0976 4.43756 9.96875Z" fill="#AD5504"/>
<path d="M5.15625 3.59375V5.15625H3.59375C3.42799 5.15625 3.26902 5.2221 3.15181 5.33931C3.0346 5.45652 2.96875 5.61549 2.96875 5.78125C2.96875 5.94701 3.0346 6.10598 3.15181 6.22319C3.26902 6.3404 3.42799 6.40625 3.59375 6.40625H6.40625V3.59375C6.40625 3.42799 6.3404 3.26902 6.22319 3.15181C6.10598 3.0346 5.94701 2.96875 5.78125 2.96875C5.61549 2.96875 5.45652 3.0346 5.33931 3.15181C5.2221 3.26902 5.15625 3.42799 5.15625 3.59375Z" fill="#AD5504"/>
<path d="M14.2813 13.4374L9.59379 5.31236C9.53774 5.22192 9.45952 5.14728 9.36655 5.09552C9.27359 5.04377 9.16894 5.0166 9.06254 5.0166C8.95613 5.0166 8.85149 5.04377 8.75852 5.09552C8.66556 5.14728 8.58734 5.22192 8.53129 5.31236L3.84379 13.4374C3.78934 13.5316 3.76046 13.6385 3.76002 13.7474C3.75957 13.8563 3.78757 13.9634 3.84125 14.0581C3.89492 14.1528 3.97241 14.2319 4.06604 14.2874C4.15966 14.343 4.26618 14.3731 4.37504 14.3749H13.75C13.8589 14.3731 13.9654 14.343 14.059 14.2874C14.1527 14.2319 14.2302 14.1528 14.2838 14.0581C14.3375 13.9634 14.3655 13.8563 14.3651 13.7474C14.3646 13.6385 14.3357 13.5316 14.2813 13.4374ZM9.06254 13.1249C8.93893 13.1249 8.81809 13.0882 8.71531 13.0195C8.61253 12.9509 8.53242 12.8532 8.48511 12.739C8.43781 12.6248 8.42543 12.4992 8.44955 12.3779C8.47366 12.2567 8.53319 12.1453 8.6206 12.0579C8.708 11.9705 8.81937 11.911 8.94061 11.8869C9.06184 11.8628 9.18751 11.8751 9.30172 11.9224C9.41592 11.9697 9.51353 12.0498 9.58221 12.1526C9.65088 12.2554 9.68754 12.3762 9.68754 12.4999C9.68754 12.6656 9.62169 12.8246 9.50448 12.9418C9.38727 13.059 9.2283 13.1249 9.06254 13.1249ZM9.68754 10.6249C9.68754 10.7906 9.62169 10.9496 9.50448 11.0668C9.38727 11.184 9.2283 11.2499 9.06254 11.2499C8.89678 11.2499 8.73781 11.184 8.6206 11.0668C8.50339 10.9496 8.43754 10.7906 8.43754 10.6249V8.12486C8.43754 7.9591 8.50339 7.80013 8.6206 7.68292C8.73781 7.56571 8.89678 7.49986 9.06254 7.49986C9.2283 7.49986 9.38727 7.56571 9.50448 7.68292C9.62169 7.80013 9.68754 7.9591 9.68754 8.12486V10.6249Z" fill="#AD5504"/>
</g>
<defs>
<clipPath id="clip0_194_3753">
<rect width="15" height="15" fill="white"/>
</clipPath>
</defs>
</svg>
