<svg width="25" height="25" viewBox="0 0 25 25" fill="none" xmlns="http://www.w3.org/2000/svg">
<g clip-path="url(#clip0_640_5401)">
<path d="M18.0607 10.2115C18.6464 9.62575 18.6464 8.67601 18.0607 8.09021C17.4749 7.50443 16.5251 7.50443 15.9394 8.09021L11 13.0296L9.06066 11.0902C8.47487 10.5044 7.52513 10.5044 6.93934 11.0902C6.35355 11.676 6.35355 12.6258 6.93934 13.2115L9.93934 16.2115C10.5251 16.7973 11.4749 16.7973 12.0607 16.2115L18.0607 10.2115Z" fill="#231F20"/>
<path d="M0.5 12.1509C0.5 5.52346 5.87258 0.150879 12.5 0.150879C19.1275 0.150879 24.5 5.52346 24.5 12.1509C24.5 18.7783 19.1275 24.1509 12.5 24.1509C5.87258 24.1509 0.5 18.7783 0.5 12.1509ZM12.5 3.15088C7.52944 3.15088 3.5 7.18031 3.5 12.1509C3.5 17.1214 7.52944 21.1509 12.5 21.1509C17.4706 21.1509 21.5 17.1214 21.5 12.1509C21.5 7.18031 17.4706 3.15088 12.5 3.15088Z" fill="#231F20"/>
</g>
<defs>
<clipPath id="clip0_640_5401">
<rect width="24" height="24" fill="white" transform="translate(0.5 0.150879)"/>
</clipPath>
</defs>
</svg>
