<svg width="17" height="17" viewBox="0 0 17 17" fill="none" xmlns="http://www.w3.org/2000/svg">
<path d="M8.34166 14.381L8.1371 14.4834L2.12507 11.8114V4.79493L8.00203 7.40692C8.04733 7.42705 8.09634 7.43745 8.14591 7.43745C8.19548 7.43745 8.2445 7.42705 8.2898 7.40692L14.1668 4.79493V7.79161C14.1677 7.88495 14.2054 7.97415 14.2717 8.03983C14.338 8.10552 14.4276 8.14236 14.5209 8.14236C14.6143 8.14236 14.7038 8.10552 14.7701 8.03983C14.8365 7.97415 14.8742 7.88495 14.8751 7.79161V4.24993C14.8751 4.18144 14.8552 4.11441 14.8179 4.05697C14.7806 3.99953 14.7274 3.95414 14.6648 3.9263L8.2898 1.09298C8.24449 1.07288 8.19548 1.0625 8.14591 1.0625C8.09635 1.0625 8.04733 1.07288 8.00203 1.09298L1.62702 3.9263C1.56444 3.95414 1.51126 3.99953 1.47394 4.05697C1.43662 4.11441 1.41676 4.18144 1.41675 4.24993V12.0416C1.41676 12.1101 1.43663 12.1771 1.47395 12.2345C1.51127 12.292 1.56444 12.3373 1.62702 12.3651L8.00203 15.1985C8.04976 15.2197 8.10161 15.2302 8.15385 15.229C8.20609 15.2279 8.25742 15.2152 8.30418 15.1918L8.65835 15.0148C8.70022 14.9941 8.7376 14.9654 8.76833 14.9303C8.79907 14.8951 8.82255 14.8542 8.83743 14.81C8.85232 14.7658 8.85831 14.719 8.85507 14.6724C8.85182 14.6259 8.8394 14.5804 8.81853 14.5386C8.79765 14.4969 8.76872 14.4597 8.73341 14.4291C8.6981 14.3986 8.6571 14.3753 8.61278 14.3607C8.56845 14.3461 8.52166 14.3403 8.47511 14.3439C8.42856 14.3474 8.3833 14.3599 8.34166 14.381ZM8.14576 6.69571L5.64019 5.58204L11.1231 3.14523C11.1294 3.14241 11.1347 3.13829 11.1407 3.13527L13.6489 4.24993L8.14576 6.69571ZM8.14576 1.80413L10.2711 2.74869L4.81452 5.17385C4.80047 5.18068 4.7869 5.18844 4.77388 5.19709L2.64304 4.24993L8.14576 1.80413Z" fill="#00A0B6"/>
<path d="M12.0417 8.14551C11.3412 8.1455 10.6565 8.35321 10.0741 8.74237C9.49162 9.13153 9.03767 9.68466 8.76961 10.3318C8.50154 10.979 8.4314 11.6911 8.56805 12.3781C8.7047 13.0651 9.04201 13.6962 9.53732 14.1915C10.0326 14.6868 10.6637 15.0241 11.3507 15.1608C12.0377 15.2975 12.7499 15.2273 13.397 14.9593C14.0442 14.6912 14.5973 14.2373 14.9865 13.6548C15.3756 13.0724 15.5834 12.3877 15.5834 11.6872C15.5823 10.7482 15.2088 9.84797 14.5449 9.18401C13.8809 8.52004 12.9807 8.14656 12.0417 8.14551ZM12.0417 14.5205C11.4813 14.5205 10.9335 14.3543 10.4676 14.043C10.0017 13.7317 9.63851 13.2892 9.42406 12.7714C9.20962 12.2537 9.15351 11.684 9.26283 11.1344C9.37216 10.5848 9.642 10.08 10.0383 9.68372C10.4345 9.28748 10.9393 9.01763 11.489 8.9083C12.0386 8.79898 12.6083 8.85509 13.126 9.06954C13.6437 9.28398 14.0862 9.64714 14.3975 10.1131C14.7089 10.579 14.875 11.1268 14.875 11.6872C14.8742 12.4384 14.5754 13.1585 14.0442 13.6897C13.5131 14.2209 12.7929 14.5196 12.0417 14.5205Z" fill="#00A0B6"/>
<path d="M13.3545 10.3743C13.3216 10.3414 13.2826 10.3153 13.2396 10.2975C13.1967 10.2797 13.1506 10.2705 13.1041 10.2705C13.0576 10.2705 13.0115 10.2797 12.9686 10.2975C12.9256 10.3153 12.8866 10.3414 12.8537 10.3743L12.0416 11.1863L11.2295 10.3743C11.1629 10.3091 11.0732 10.2729 10.98 10.2734C10.8868 10.2739 10.7975 10.3112 10.7316 10.3771C10.6657 10.443 10.6284 10.5323 10.6279 10.6255C10.6273 10.7187 10.6636 10.8084 10.7287 10.8751L11.5408 11.6872L10.7287 12.4993C10.6952 12.532 10.6685 12.5711 10.6502 12.6142C10.6319 12.6573 10.6223 12.7037 10.6221 12.7505C10.6218 12.7974 10.6308 12.8438 10.6486 12.8871C10.6664 12.9305 10.6927 12.9698 10.7258 13.003C10.7589 13.0361 10.7983 13.0623 10.8416 13.0801C10.885 13.0979 10.9314 13.107 10.9783 13.1067C11.0251 13.1064 11.0714 13.0969 11.1146 13.0786C11.1577 13.0603 11.1968 13.0336 11.2295 13.0001L12.0416 12.188L12.8537 13.0001C12.8864 13.0336 12.9255 13.0603 12.9686 13.0786C13.0117 13.0969 13.0581 13.1064 13.1049 13.1067C13.1518 13.107 13.1982 13.0979 13.2415 13.0801C13.2849 13.0623 13.3242 13.0361 13.3574 13.003C13.3905 12.9698 13.4167 12.9305 13.4345 12.8871C13.4523 12.8438 13.4614 12.7974 13.4611 12.7505C13.4608 12.7037 13.4513 12.6573 13.433 12.6142C13.4147 12.5711 13.388 12.532 13.3545 12.4993L12.5424 11.6872L13.3545 10.8751C13.3874 10.8422 13.4135 10.8032 13.4313 10.7602C13.4491 10.7172 13.4583 10.6712 13.4583 10.6247C13.4583 10.5782 13.4491 10.5321 13.4313 10.4891C13.4135 10.4462 13.3874 10.4071 13.3545 10.3743Z" fill="#00A0B6"/>
</svg>
