<svg width="183" height="183" viewBox="0 0 183 183" fill="none" xmlns="http://www.w3.org/2000/svg">
<g clip-path="url(#clip0_3112_747)">
<path d="M39.4316 15H120.448C126.892 15 132.749 17.6385 137 21.9037C141.25 26.169 143.879 32.0474 143.879 38.5137V90.9547C143.879 97.421 141.25 103.299 137 107.565C132.749 111.83 126.892 114.468 120.448 114.468H79.9329L44.3495 145.159C42.7012 146.581 40.2081 146.39 38.7913 144.722C38.0966 143.902 37.7832 142.89 37.8514 141.892L39.745 114.455H39.4316C32.9879 114.455 27.13 111.816 22.8796 107.551C18.6292 103.299 16 97.421 16 90.9547V38.5137C16 32.0474 18.6292 26.169 22.8796 21.9037C27.1164 17.6385 32.9743 15 39.4316 15ZM155.377 53.2508C159.968 54.1394 164.082 56.4087 167.27 59.6077C171.425 63.7773 174.014 69.5326 174.014 75.8759V128.317C174.014 134.66 171.439 140.416 167.27 144.585C163.115 148.755 157.38 151.352 151.059 151.352H150.228L152.162 179.295C152.217 180.17 151.958 181.072 151.345 181.783C150.105 183.246 147.912 183.41 146.468 182.166L110.748 150.45H63.6943L86.867 126.799H135.964C146.672 126.799 155.445 118.009 155.445 107.25V54.7956C155.432 54.2761 155.418 53.7566 155.377 53.2508ZM50.984 74.7139C48.8043 74.7139 47.0333 72.9367 47.0333 70.7493C47.0333 68.562 48.8043 66.7848 50.984 66.7848H92.3299C94.5096 66.7848 96.2806 68.562 96.2806 70.7493C96.2806 72.9367 94.5096 74.7139 92.3299 74.7139H50.984ZM50.984 55.0827C48.8043 55.0827 47.0333 53.3055 47.0333 51.1181C47.0333 48.9308 48.8043 47.1536 50.984 47.1536H109.59C111.77 47.1536 113.541 48.9308 113.541 51.1181C113.541 53.3055 111.77 55.0827 109.59 55.0827H50.984ZM120.434 22.929H39.4316C35.1676 22.929 31.285 24.6789 28.4651 27.5087C25.6451 30.3386 23.9014 34.2211 23.9014 38.5137V90.9547C23.9014 95.2337 25.6451 99.1298 28.4651 101.96C31.285 104.79 35.1676 106.539 39.4316 106.539H43.9817V106.553L44.2406 106.567C46.4066 106.717 48.055 108.604 47.9052 110.777L46.3658 133.006L75.7098 107.688C76.4182 106.977 77.399 106.539 78.4889 106.539H120.434C124.698 106.539 128.581 104.79 131.401 101.96C134.221 99.1298 135.964 95.2337 135.964 90.9547V38.5137C135.964 34.2348 134.221 30.3386 131.401 27.5087C128.594 24.6789 124.712 22.929 120.434 22.929Z" fill="#231F20"/>
</g>
<g filter="url(#filter0_d_3112_747)">
<line x1="12.1213" y1="9.87868" x2="170.121" y2="167.879" stroke="#D7282F" stroke-width="6"/>
</g>
<defs>
<filter id="filter0_d_3112_747" x="0" y="0.757812" width="182.242" height="182.242" filterUnits="userSpaceOnUse" color-interpolation-filters="sRGB">
<feFlood flood-opacity="0" result="BackgroundImageFix"/>
<feColorMatrix in="SourceAlpha" type="matrix" values="0 0 0 0 0 0 0 0 0 0 0 0 0 0 0 0 0 0 127 0" result="hardAlpha"/>
<feOffset dy="3"/>
<feGaussianBlur stdDeviation="5"/>
<feComposite in2="hardAlpha" operator="out"/>
<feColorMatrix type="matrix" values="0 0 0 0 0 0 0 0 0 0 0 0 0 0 0 0 0 0 0.8 0"/>
<feBlend mode="normal" in2="BackgroundImageFix" result="effect1_dropShadow_3112_747"/>
<feBlend mode="normal" in="SourceGraphic" in2="effect1_dropShadow_3112_747" result="shape"/>
</filter>
<clipPath id="clip0_3112_747">
<rect width="158" height="168" fill="white" transform="translate(16 15)"/>
</clipPath>
</defs>
</svg>
