<svg width="400" height="400" viewBox="0 0 400 400" fill="none" xmlns="http://www.w3.org/2000/svg">
<rect width="400" height="400" fill="#F3F4F6"/>
<path d="M246 230.771C246 235.297 242.513 239 238.251 239H160.749C156.487 239 153 235.298 153 230.771V168.228C153 163.702 156.487 160 160.749 160H238.251C242.513 160 246 163.702 246 168.228V230.771ZM160.749 166.583C159.926 166.583 159.2 167.356 159.2 168.228V230.77C159.2 231.644 159.927 232.415 160.749 232.415H238.251C239.071 232.415 239.802 231.644 239.802 230.77V168.228C239.802 167.356 239.071 166.583 238.251 166.583H160.749ZM174.701 192.916C169.566 192.916 165.398 188.493 165.398 183.042C165.398 177.592 169.566 173.167 174.701 173.167C179.834 173.167 183.998 177.592 183.998 183.042C183.998 188.493 179.834 192.916 174.701 192.916ZM233.599 225.834H165.398V215.957L180.9 199.502L188.649 207.728L213.449 181.398L233.599 202.794V225.834Z" fill="#BABEC9"/>
</svg>
