<svg width="100" height="100" viewBox="0 0 100 100" fill="none" xmlns="http://www.w3.org/2000/svg">
<g clip-path="url(#clip0_2594_617)">
<path d="M-0.000210818 0C33.3401 0 66.6595 0 99.9998 0C99.9998 27.8195 99.9998 55.6182 99.9998 83.4378C95.8662 83.4169 91.7326 83.396 87.599 83.4169C87.3693 83.4169 86.9727 83.7093 86.9309 83.9181C86.7639 84.8162 86.7013 85.7352 86.5969 86.7586C87.8495 86.7586 88.8933 86.7586 89.958 86.7586C89.958 91.2281 89.958 95.5931 89.958 100C77.7451 100 65.5739 100 53.3818 100C53.3818 95.5723 53.3818 91.2072 53.3818 86.6959C54.4883 86.6959 55.553 86.6959 56.6804 86.6959C56.6177 85.9649 56.5969 85.3383 56.4925 84.7327C56.2837 83.3751 56.2628 83.3751 54.8641 83.3751C36.9935 83.3751 19.123 83.3751 1.2524 83.3751C0.834862 83.3751 0.438203 83.3751 -0.0210876 83.3751C-0.000210818 55.4929 -0.000210818 27.736 -0.000210818 0ZM59.7493 62.6149C59.8328 62.594 59.8954 62.594 59.9789 62.5731C59.9789 62.2389 59.9789 61.8839 59.9789 61.5497C59.9789 54.5113 59.9789 47.4729 59.9789 40.4553C59.9789 39.0977 60.2921 37.8864 61.1689 36.8212C62.4841 35.2548 64.6136 34.6282 66.5551 35.2757C68.4967 35.9023 69.9163 37.6358 69.958 39.7034C70.0207 43.9014 69.9998 48.0994 69.9998 52.2974C69.9998 52.6734 69.9998 53.0493 69.9998 53.4043C70.2294 53.467 70.3129 53.5088 70.4173 53.5088C74.3631 53.8429 78.3297 54.1771 82.2754 54.5113C86.1376 54.8246 89.4152 57.7277 89.8537 61.5915C90.1251 64.0142 90.0833 66.4578 89.9998 68.9014C89.8954 72.5773 90.5635 76.3158 89.2691 79.9708C91.7534 79.9708 94.1752 79.9708 96.6386 79.9708C96.6386 58.8555 96.6386 37.8028 96.6386 16.7084C65.5322 16.7084 34.4674 16.7084 3.40271 16.7084C3.40271 37.8237 3.40271 58.8764 3.40271 79.9499C20.5217 79.9499 37.599 79.9499 54.6971 79.9499C54.1543 78.7385 53.5697 77.6525 53.1313 76.5038C51.2315 71.4286 49.3109 66.3325 47.5363 61.2155C47.2023 60.2339 47.1814 59.0017 47.4319 57.9783C47.9121 56.015 49.3526 54.8246 51.3568 54.5113C53.528 54.1771 55.2816 54.9708 56.4299 56.8505C57.5781 58.751 58.6428 60.6934 59.7493 62.6149ZM96.6386 3.40434C65.4904 3.40434 34.4466 3.40434 3.38184 3.40434C3.38184 6.72515 3.38184 9.96241 3.38184 13.2623C34.4883 13.2623 65.5322 13.2623 96.6386 13.2623C96.6386 9.96241 96.6386 6.70426 96.6386 3.40434ZM60.0624 86.675C67.8286 86.675 75.5113 86.675 83.1939 86.675C83.2357 86.5288 83.3192 86.4035 83.2983 86.2782C83.1313 83.6257 84.196 81.4328 85.6365 79.3024C86.242 78.4044 86.5969 77.193 86.6177 76.1069C86.7221 71.7419 86.6804 67.3768 86.6595 63.0117C86.6386 60.046 84.6553 58.0409 81.6908 57.8112C77.4111 57.477 73.1313 57.1011 68.8516 56.7252C66.9935 56.5581 66.6386 56.1195 66.6386 54.2398C66.6386 49.5823 66.6386 44.9248 66.6386 40.2673C66.6386 39.0977 65.9914 38.3668 65.0311 38.325C64.029 38.3041 63.361 39.0769 63.3192 40.2882C63.3192 40.5388 63.3192 40.8104 63.3192 41.061C63.3192 48.1621 63.3192 55.2632 63.3192 62.3642C63.3192 62.8864 63.3401 63.4294 63.194 63.9098C62.7973 65.2882 61.837 66.1236 60.4173 66.3116C58.9768 66.4996 57.8704 65.8939 57.1188 64.6825C55.9288 62.6775 54.7806 60.6307 53.5906 58.6049C53.0687 57.7068 52.1501 57.4561 51.3359 57.9156C50.5635 58.3333 50.2921 59.1896 50.647 60.1086C51.2315 61.6541 51.7952 63.2206 52.3797 64.7661C54.4048 69.9666 55.9288 75.3759 58.6428 80.3049C59.2691 81.4328 59.4779 82.8112 59.791 84.1061C59.958 84.9206 59.9789 85.7769 60.0624 86.675ZM86.6386 90.1211C76.6386 90.1211 66.6804 90.1211 56.743 90.1211C56.743 92.3559 56.743 94.5071 56.743 96.6374C66.7639 96.6374 76.6804 96.6374 86.6386 96.6374C86.6386 94.4236 86.6386 92.2932 86.6386 90.1211Z" fill="#7D7D7D"/>
<path d="M30.0209 43.318C23.2985 43.318 16.7223 43.318 10.0626 43.318C10.0626 36.6973 10.0626 30.0974 10.0626 23.4141C16.6597 23.4141 23.2777 23.4141 30 23.4141C30 24.1242 30 24.8343 30 25.795C30.8768 25.064 31.5658 24.5001 32.3382 23.8527C33.0271 24.6672 33.7161 25.4608 34.4885 26.3798C33.2359 27.445 32.025 28.531 30.7724 29.5335C30.2088 29.993 30 30.4525 30 31.1835C30.0417 34.8593 30.0209 38.5352 30.0209 42.2111C30.0209 42.587 30.0209 42.9212 30.0209 43.318ZM26.5971 33.1467C24.2589 35.1517 22.0668 37.0106 19.833 38.9111C17.8497 36.8435 15.9081 34.8385 14.0501 32.917C14.739 32.2278 15.4697 31.4759 16.3465 30.5987C17.5157 31.8727 18.6848 33.1676 19.8956 34.4834C21.9415 32.729 23.7996 31.0164 25.7829 29.4918C26.8058 28.6981 26.785 27.8209 26.5762 26.7766C22.1503 26.7766 17.787 26.7766 13.4238 26.7766C13.4238 31.2461 13.4238 35.6112 13.4238 39.9972C17.8706 39.9972 22.2129 39.9972 26.6388 39.9972C26.5971 37.7415 26.5971 35.5486 26.5971 33.1467Z" fill="#7D7D7D"/>
<path d="M29.9791 52.5073C30.8977 51.7345 31.5866 51.1497 32.3173 50.5441C33.048 51.4004 33.7369 52.2149 34.4676 53.0712C33.1524 54.199 31.858 55.2433 30.668 56.392C30.3131 56.7262 30.0417 57.311 30.0417 57.7705C30 61.4463 30.0209 65.1222 30.0209 68.798C30.0209 69.1531 30.0209 69.5081 30.0209 69.9467C23.3403 69.9467 16.7223 69.9467 10.0626 69.9467C10.0626 63.3469 10.0626 56.768 10.0626 50.1055C16.6806 50.1055 23.2985 50.1055 30 50.1055C29.9791 50.8156 29.9791 51.5257 29.9791 52.5073ZM13.3612 66.6259C17.787 66.6259 22.1503 66.6259 26.5971 66.6259C26.5971 64.4121 26.5971 62.2191 26.5971 59.8172C24.2797 61.8014 22.0877 63.6602 19.8539 65.5817C17.8706 63.514 15.9499 61.509 13.9875 59.4413C14.6346 58.8147 15.4071 58.0837 16.4092 57.123C17.5783 58.4179 18.7474 59.7546 19.9582 61.0913C21.9415 59.3995 23.7369 57.7287 25.6785 56.2458C26.7223 55.4313 26.785 54.5332 26.5762 53.4263C22.1503 53.4263 17.7453 53.4263 13.3612 53.4263C13.3612 57.854 13.3612 62.1982 13.3612 66.6259Z" fill="#7D7D7D"/>
<path d="M89.9582 30.0977C89.9582 31.1628 89.9582 32.2071 89.9582 33.2931C76.6388 33.2931 63.3612 33.2931 50.0417 33.2931C50.0417 32.228 50.0417 31.1837 50.0417 30.0977C63.3612 30.0977 76.6388 30.0977 89.9582 30.0977Z" fill="#7D7D7D"/>
<path d="M60.0209 26.5887C60.0209 25.4817 60.0209 24.4792 60.0209 23.4141C70 23.4141 79.9374 23.4141 89.9374 23.4141C89.9374 24.4583 89.9374 25.4817 89.9374 26.5887C80 26.5887 70.0418 26.5887 60.0209 26.5887Z" fill="#7D7D7D"/>
<path d="M73.4029 38.3672C78.9979 38.3672 84.4259 38.3672 89.9165 38.3672C89.9165 39.4324 89.9165 40.4766 89.9165 41.6044C84.4259 41.6044 78.9144 41.6044 73.4029 41.6044C73.4029 40.4975 73.4029 39.4532 73.4029 38.3672Z" fill="#7D7D7D"/>
<path d="M89.9582 45.0938C89.9582 46.1589 89.9582 47.1823 89.9582 48.2684C84.4259 48.2684 78.9562 48.2684 73.4029 48.2684C73.4029 47.2241 73.4029 46.2007 73.4029 45.0938C78.9144 45.0938 84.405 45.0938 89.9582 45.0938Z" fill="#7D7D7D"/>
<path d="M56.6179 23.4141C56.6179 24.5001 56.6179 25.5235 56.6179 26.6304C54.4259 26.6304 52.2547 26.6304 50.0626 26.6304C50.0626 25.5653 50.0626 24.521 50.0626 23.4141C52.2129 23.4141 54.3633 23.4141 56.6179 23.4141Z" fill="#7D7D7D"/>
<path d="M56.5971 41.624C54.3841 41.624 52.2547 41.624 50.0626 41.624C50.0626 40.5588 50.0626 39.4937 50.0626 38.3867C52.2338 38.3867 54.3841 38.3867 56.5971 38.3867C56.5971 39.4728 56.5971 40.4962 56.5971 41.624Z" fill="#7D7D7D"/>
<path d="M56.5971 45.0703C56.5971 46.1772 56.5971 47.2006 56.5971 48.2867C54.4259 48.2867 52.2965 48.2867 50.0835 48.2867C50.0835 47.2424 50.0835 46.1981 50.0835 45.0703C52.2129 45.0703 54.3633 45.0703 56.5971 45.0703Z" fill="#7D7D7D"/>
<path d="M6.72234 6.70312C7.78705 6.70312 8.81002 6.70312 9.91649 6.70312C9.91649 7.7474 9.91649 8.81257 9.91649 9.9195C8.87265 9.9195 7.82881 9.9195 6.72234 9.9195C6.72234 8.87522 6.72234 7.85183 6.72234 6.70312Z" fill="#7D7D7D"/>
<path d="M13.3612 9.90117C13.3612 8.836 13.3612 7.81261 13.3612 6.72656C14.4468 6.72656 15.4906 6.72656 16.5971 6.72656C16.5971 7.77084 16.5971 8.79423 16.5971 9.90117C15.5532 9.90117 14.5094 9.90117 13.3612 9.90117Z" fill="#7D7D7D"/>
<path d="M20.0417 6.70312C21.1273 6.70312 22.1503 6.70312 23.2568 6.70312C23.2568 7.76829 23.2568 8.81257 23.2568 9.9195C22.2129 9.9195 21.1691 9.9195 20.0417 9.9195C20.0417 8.85434 20.0417 7.78917 20.0417 6.70312Z" fill="#7D7D7D"/>
</g>
<defs>
<clipPath id="clip0_2594_617">
<rect width="100" height="100" fill="white"/>
</clipPath>
</defs>
</svg>
