<svg width="22" height="22" viewBox="0 0 22 22" fill="none" xmlns="http://www.w3.org/2000/svg">
<path d="M11.3184 1.13779C9.42012 1.13779 7.56451 1.70068 5.9862 2.75528C4.40785 3.80987 3.17771 5.30885 2.45129 7.06258C1.72486 8.81631 1.5348 10.7461 1.90512 12.6079C2.27545 14.4696 3.18954 16.1798 4.53178 17.522C5.87404 18.8643 7.5842 19.7784 9.44595 20.1487C11.3077 20.519 13.2375 20.3289 14.9912 19.6025C16.745 18.8761 18.2439 17.646 19.2985 16.0676C20.3531 14.4893 20.916 12.6337 20.916 10.7354C20.9134 8.1908 19.9014 5.75109 18.102 3.95175C16.3027 2.15241 13.863 1.14039 11.3184 1.13779ZM11.3184 1.9581C12.9693 1.95692 14.587 2.42174 15.9856 3.29907C17.3841 4.17642 18.5066 5.43065 19.224 6.91758C19.9414 8.40448 20.2246 10.0637 20.041 11.7044C19.8574 13.3451 19.2144 14.9006 18.186 16.1922C17.7346 15.1549 17.0535 14.2337 16.1941 13.4982C15.3346 12.7627 14.3193 12.232 13.2248 11.9462C13.8501 11.5359 14.3263 10.9347 14.5827 10.2321C14.8391 9.52942 14.8619 8.76282 14.6477 8.0462C14.4336 7.32954 13.994 6.70111 13.3941 6.25434C12.7943 5.80753 12.0663 5.56619 11.3184 5.56619C10.5704 5.56619 9.84242 5.80753 9.24261 6.25434C8.64276 6.70111 8.20311 7.32954 7.98897 8.0462C7.77484 8.76282 7.79764 9.52942 8.05401 10.2321C8.31037 10.9347 8.78661 11.5359 9.41195 11.9462C8.31743 12.232 7.30211 12.7627 6.44265 13.4982C5.58323 14.2337 4.9021 15.1549 4.4507 16.1922C3.42235 14.9006 2.77939 13.3451 2.59577 11.7044C2.41215 10.0637 2.69532 8.40448 3.41273 6.91758C4.13013 5.43065 5.25264 4.17642 6.65117 3.29907C8.04968 2.42174 9.66743 1.95692 11.3184 1.9581ZM11.3184 11.6968C10.7934 11.6968 10.2801 11.5412 9.84357 11.2495C9.40706 10.9578 9.0668 10.5432 8.86589 10.0582C8.66498 9.57313 8.61241 9.03936 8.71485 8.52444C8.81726 8.00951 9.07008 7.53652 9.44132 7.16528C9.81256 6.79404 10.2856 6.54122 10.8005 6.43878C11.3154 6.33637 11.8492 6.38894 12.3342 6.58985C12.8193 6.79076 13.2339 7.13099 13.5255 7.56753C13.8172 8.00407 13.9729 8.51729 13.9729 9.04232C13.972 9.74608 13.6921 10.4208 13.1944 10.9184C12.6968 11.416 12.0221 11.696 11.3184 11.6968ZM11.3184 19.5128C10.1531 19.5142 8.99927 19.2828 7.92469 18.832C6.85012 18.3812 5.8765 17.7202 5.06102 16.8878C5.53214 15.6074 6.38471 14.5024 7.50364 13.7218C8.62258 12.9412 9.95405 12.5227 11.3184 12.5227C12.6827 12.5227 14.0141 12.9412 15.1331 13.7218C16.252 14.5024 17.1046 15.6074 17.5757 16.8878C16.7602 17.7202 15.7866 18.3812 14.712 18.832C13.6375 19.2828 12.4837 19.5142 11.3184 19.5128Z" fill="#D7282F"/>
</svg>
