<svg width="29" height="21" viewBox="0 0 29 21" fill="none" xmlns="http://www.w3.org/2000/svg">
<path d="M18.3076 0.591797C16.9815 0.591797 15.7098 1.11858 14.7721 2.05626C13.8344 2.99394 13.3076 4.26571 13.3076 5.5918C13.3076 6.91788 13.8344 8.18965 14.7721 9.12733C15.7098 10.065 16.9815 10.5918 18.3076 10.5918C19.6337 10.5918 20.9055 10.065 21.8432 9.12733C22.7808 8.18965 23.3076 6.91788 23.3076 5.5918C23.3076 4.26571 22.7808 2.99394 21.8432 2.05626C20.9055 1.11858 19.6337 0.591797 18.3076 0.591797ZM18.3076 2.9668C19.7576 2.9668 20.9326 4.1418 20.9326 5.5918C20.9326 7.0418 19.7576 8.2168 18.3076 8.2168C17.6114 8.2168 16.9437 7.94024 16.4515 7.44795C15.9592 6.95567 15.6826 6.28799 15.6826 5.5918C15.6826 4.8956 15.9592 4.22792 16.4515 3.73564C16.9437 3.24336 17.6114 2.9668 18.3076 2.9668ZM4.55762 4.3418V8.0918H0.807617V10.5918H4.55762V14.3418H7.05762V10.5918H10.8076V8.0918H7.05762V4.3418H4.55762ZM18.3076 11.8418C14.9701 11.8418 8.30762 13.5043 8.30762 16.8418V20.5918H28.3076V16.8418C28.3076 13.5043 21.6451 11.8418 18.3076 11.8418ZM18.3076 14.2168C22.0201 14.2168 25.9326 16.0418 25.9326 16.8418V18.2168H10.6826V16.8418C10.6826 16.0418 14.5576 14.2168 18.3076 14.2168Z" fill="#006FBF"/>
</svg>
