<svg width="409" height="395" viewBox="0 0 409 395" fill="none" xmlns="http://www.w3.org/2000/svg">
<g clip-path="url(#clip0_4665_7763)">
<path d="M408.8 97.9997C405.8 105.8 399.9 108.4 391.8 108.2C374 107.9 356.1 108.1 338.3 108.1C327.7 108.1 322.9 103.5 322.5 92.9997C322.2 85.5997 316.5 79.7997 308.3 78.8997C306.7 78.6997 305.1 78.7997 303.5 78.7997C237.4 78.7997 171.2 78.7997 105.1 78.8997C101.7 78.8997 98.1001 79.2997 95.0001 80.4997C89.2001 82.7997 86.1001 87.1997 86.1001 93.7997C86.1001 162.6 86.1001 231.4 86.1001 300.2C86.1001 308.3 91.8001 314.2 100.2 315.1C101.3 315.2 102.3 315.2 103.4 315.2C170.6 315.2 237.8 315.2 305 315.2C307 315.2 309 315 310.9 314.5C318.7 312.5 322.5 307.5 322.5 299.5C322.5 244.2 322.5 188.8 322.5 133.5C322.5 131.1 322.6 128.7 323.3 126.4C324.8 121 330 117.3 335.6 117.3C341.1 117.3 346.4 121 347.9 126.3C348.5 128.6 348.7 131 348.7 133.4C348.7 182.5 348.7 231.6 348.7 280.7C348.7 282.3 348.7 283.8 348.7 285.8C351.1 285.8 353 285.8 355 285.8C367.2 285.8 379.5 286 391.7 285.7C399.8 285.5 405.6 288.2 408.7 295.9C408.7 298 408.7 300.2 408.7 302.3C405.4 309.8 399.5 312.3 391.5 312.1C377.9 311.7 364.4 312 350.8 311.9C348.4 311.9 347.1 312.3 346.1 314.9C341.9 325.9 334 333.6 323.1 337.9C320 339.1 319.3 340.6 319.3 343.7C319.5 356.2 319.4 368.7 319.3 381.2C319.2 387.1 315.5 391.7 310.1 393.4C304.8 395 298.8 393.4 296 388.7C294.3 385.9 293.4 382.3 293.3 379C293 368.1 293.2 357.2 293.2 346.3C293.2 344.9 293.2 343.4 293.2 341.8C284.9 341.8 277 341.8 268.4 341.8C268.4 343.2 268.4 344.6 268.4 346C268.4 357.8 268.5 369.7 268.3 381.5C268.2 387.4 264.5 392 259 393.6C253.7 395.1 247.7 393.4 245 388.7C243.4 385.9 242.5 382.2 242.4 378.9C242.1 368.1 242.3 357.3 242.3 346.6C242.3 345.1 242.3 343.7 242.3 341.9C234 341.9 226 341.9 217.4 341.9C217.4 343.4 217.4 345 217.4 346.5C217.4 358.3 217.5 370.2 217.2 382C217.1 387.9 213.1 392.2 207.5 393.7C202.2 395 196.2 393 193.7 388.3C192.3 385.7 191.6 382.5 191.5 379.6C191.3 368.6 191.4 357.5 191.4 346.5C191.4 345.1 191.4 343.6 191.4 341.9C183 341.9 175 341.9 166.5 341.9C166.5 343.7 166.5 345.4 166.5 347.1C166.4 358.9 166.5 370.8 166.2 382.6C166.1 387.9 162.7 391.5 157.9 393.3C153 395.2 148.4 394.1 144.6 390.6C141.5 387.9 140.4 384.3 140.4 380.2C140.4 368.9 140.4 357.6 140.4 346.3C140.4 344.9 140.4 343.4 140.4 341.8C132 341.8 124.1 341.8 115.6 341.8C115.6 343.2 115.6 344.6 115.6 346C115.6 357.3 115.7 368.6 115.6 379.9C115.4 389.8 107.7 395.9 99.0001 393.5C93.3001 391.9 89.5001 387.1 89.5001 380.8C89.4001 368.3 89.4001 355.8 89.5001 343.3C89.5001 340.5 88.6001 339.2 86.0001 338.2C75.0001 333.8 67.0001 326.2 62.7001 315C61.8001 312.7 60.6001 312.1 58.3001 312.1C43.3001 312.2 28.2001 312.2 13.2001 312.1C6.50005 312.1 1.40005 307.6 0.300053 301.3C-0.799947 295.5 2.60005 289.2 8.20005 287.2C10.5001 286.4 13.1001 286.1 15.6001 286.1C28.8001 286 41.9001 286 55.1001 286C56.5001 286 58.0001 286 59.7001 286C59.7001 226.7 59.7001 167.7 59.7001 108.3C58.2001 108.3 56.8001 108.3 55.3001 108.3C41.7001 108.3 28.2001 108.4 14.6001 108.3C4.10005 108.1 -2.29995 99.7997 0.800053 90.7997C2.70005 85.2997 7.40005 82.0997 13.7001 81.9997C28.3001 81.9997 43.0001 81.9997 57.6001 82.0997C60.3001 82.0997 61.8001 81.5997 62.9001 78.6997C67.0001 67.7997 74.9001 60.2997 85.7001 56.0997C88.8001 54.8997 89.5001 53.2997 89.4001 50.2997C89.3001 37.7997 89.3001 25.2997 89.4001 12.7997C89.5001 6.19974 94.0001 1.29974 100.6 0.199736C106.2 -0.700264 112.3 2.59974 114.4 8.09974C115.2 10.3997 115.5 12.9997 115.5 15.4997C115.6 26.2997 115.6 37.0997 115.6 47.7997C115.6 49.1997 115.6 50.6997 115.6 52.2997C123.9 52.2997 131.9 52.2997 140.4 52.2997C140.4 50.8997 140.4 49.4997 140.4 48.0997C140.4 36.0997 140.3 24.0997 140.5 12.1997C140.6 5.69974 145.6 0.899736 152.1 -0.000263721C157.7 -0.700264 163.7 2.89974 165.5 8.49974C166.2 10.6997 166.4 13.1997 166.4 15.5997C166.5 26.1997 166.4 36.8997 166.4 47.4997C166.4 48.9997 166.4 50.3997 166.4 52.1997C174.7 52.1997 182.7 52.1997 191.3 52.1997C191.3 50.6997 191.3 49.0997 191.3 47.5997C191.3 35.7997 191.2 23.8997 191.5 12.0997C191.6 5.59974 196.6 0.799736 203.2 -0.000263721C209 -0.700264 215 3.19974 216.7 8.99974C217.3 10.9997 217.4 13.1997 217.4 15.2997C217.5 26.0997 217.4 36.8997 217.4 47.5997C217.4 48.9997 217.4 50.4997 217.4 52.1997C225.8 52.1997 233.8 52.1997 242.3 52.1997C242.3 50.3997 242.3 48.6997 242.3 46.9997C242.4 35.1997 242.2 23.2997 242.6 11.4997C242.8 4.99974 248.3 0.299736 254.7 -0.100264C260.5 -0.500264 266.3 3.69974 267.8 9.49974C268.3 11.2997 268.3 13.1997 268.3 14.9997C268.3 25.8997 268.3 36.7997 268.3 47.6997C268.3 49.0997 268.3 50.5997 268.3 52.1997C276.6 52.1997 284.6 52.1997 293 52.1997C293.1 50.7997 293.2 49.3997 293.2 47.9997C293.2 36.6997 293.1 25.3997 293.2 14.0997C293.3 4.09974 301.2 -2.20026 310.1 0.499736C315.8 2.19974 319.3 6.99974 319.3 13.4997C319.4 25.6997 319.4 37.9997 319.3 50.1997C319.3 53.2997 320 54.6997 323.1 55.9997C334 60.2997 341.9 67.8997 346.1 78.9997C347.1 81.4997 348.4 81.9997 350.8 81.9997C364.4 81.8997 378 82.2997 391.5 81.7997C399.6 81.4997 405.4 84.0997 408.7 91.5997C408.8 93.7997 408.8 95.8997 408.8 97.9997Z" fill="#231F20"/>
<path d="M408.8 149.099C405.7 156.799 399.9 159.599 391.8 159.199C384.1 158.799 376.4 159.399 368.7 158.799C360.4 158.199 355.3 149.599 358.1 141.799C360 136.599 363.8 133.299 369.4 133.199C378.6 132.899 387.7 132.999 396.9 133.199C403.1 133.299 406.3 137.699 408.9 142.799C408.8 144.899 408.8 146.999 408.8 149.099Z" fill="#231F20"/>
<path d="M408.8 251.299C405.5 258.899 399.7 261.599 391.7 261.099C384.8 260.699 377.9 261.099 371 260.999C363.1 260.899 357.6 255.699 357.4 248.299C357.2 240.999 362.4 235.299 370.3 234.999C378.8 234.699 387.3 234.899 395.8 234.899C402.6 234.999 406.3 239.199 408.8 244.799C408.8 247.099 408.8 249.199 408.8 251.299Z" fill="#231F20"/>
<path d="M408.8 200.2C405.6 207.8 399.8 210.6 391.7 210.1C384.3 209.7 376.8 210.1 369.4 209.8C363.1 209.6 358.4 205 357.5 198.9C356.6 192.5 359.9 186.8 365.9 184.7C367.2 184.2 368.7 184 370.2 183.9C378.7 183.8 387.2 183.9 395.7 183.9C402.5 183.9 406.2 188.1 408.8 193.7C408.8 196 408.8 198.1 408.8 200.2Z" fill="#231F20"/>
<path d="M25.8999 133.101C30.2999 133.101 34.6999 132.901 38.9999 133.101C45.9999 133.401 51.1999 138.801 51.3999 145.701C51.5999 152.601 46.7999 158.501 39.6999 158.801C30.3999 159.201 21.0999 159.201 11.7999 158.801C4.79993 158.501 -0.200067 152.501 -6.71814e-05 145.701C0.0999328 138.701 5.49993 133.301 12.6999 133.001C17.0999 132.901 21.4999 133.101 25.8999 133.101Z" fill="#231F20"/>
<path d="M25.8001 261C21.4001 261 17.0001 261.1 12.7001 261C5.50011 260.7 0.100106 255.2 0.100106 248.2C0.000106238 241.4 5.00011 235.5 12.1001 235.2C21.4001 234.8 30.7001 234.8 40.0001 235.2C47.0001 235.5 51.8001 241.5 51.6001 248.4C51.4001 255.3 46.2001 260.6 39.1001 260.9C34.6001 261.2 30.2001 261 25.8001 261Z" fill="#231F20"/>
<path d="M25.8 209.999C21.6 209.999 17.3 210.099 13.1 209.999C5.6 209.699 0.199999 204.299 0.099999 197.199C-9.87202e-07 190.099 5.4 184.399 12.9 184.199C21.5 183.999 30.2 183.999 38.8 184.199C46.4 184.399 51.6 189.999 51.6 197.199C51.6 204.399 46.3 209.799 38.7 210.099C34.3 210.199 30 209.999 25.8 209.999Z" fill="#231F20"/>
<path d="M105.7 252.199C106.3 249.999 106.8 247.799 107.6 245.799C121.5 210.099 135.5 174.599 149.2 138.799C153.6 127.199 165.7 126.199 171.7 132.899C173.2 134.499 174.3 136.599 175.1 138.699C189 174.499 203 210.399 217 246.299C220.1 254.299 217.2 261.799 210 264.599C203.1 267.299 195.9 263.799 192.7 256.099C191.8 253.999 191 251.899 190.2 249.799C186.2 239.499 186.2 239.499 175.4 239.499C164.4 239.499 153.3 239.599 142.3 239.399C139.2 239.299 137.5 240.099 136.5 243.199C134.8 248.399 132.8 253.499 130.4 258.399C127.7 263.999 121.6 266.499 115.6 264.899C109.8 263.499 105.9 258.399 105.7 252.199ZM162.6 178.899C162.3 178.899 162 178.899 161.7 178.899C157.3 190.299 152.9 201.599 148.4 213.199C157.9 213.199 166.7 213.199 176 213.199C171.4 201.499 167 190.199 162.6 178.899Z" fill="#231F20"/>
<path d="M246.7 239.3C246.7 210.8 246.7 182.9 246.7 154.6C244.6 154.6 242.8 154.7 241 154.6C234.2 154.1 229.1 148.9 228.8 142.2C228.5 135.6 232.9 130.1 239.5 128.9C241.1 128.6 242.7 128.6 244.3 128.6C254.9 128.6 265.6 128.6 276.2 128.6C285.5 128.6 291.5 133.8 291.4 141.8C291.4 149.7 285.6 154.7 276.5 154.8C275.6 154.8 274.7 154.8 273.4 154.8C273.4 183 273.4 210.9 273.4 239.4C275.2 239.4 277 239.3 278.8 239.4C285.7 239.8 290.9 244.9 291.3 251.6C291.7 258.4 287.3 264 280.5 265.3C279.2 265.5 277.9 265.6 276.5 265.6C265.5 265.6 254.4 265.7 243.4 265.6C234.5 265.6 228.6 260.2 228.6 252.4C228.7 244.7 234.4 239.6 243.2 239.4C244.4 239.3 245.4 239.3 246.7 239.3Z" fill="#231F20"/>
</g>
<defs>
<clipPath id="clip0_4665_7763">
<rect width="408.8" height="394.1" fill="white"/>
</clipPath>
</defs>
</svg>
