<svg width="17" height="17" viewBox="0 0 17 17" fill="none" xmlns="http://www.w3.org/2000/svg">
<path d="M9.08261 1.84019C9.08261 2.35248 9.08261 2.86292 9.08261 3.37522C9.08261 3.57681 8.96781 3.68962 8.75734 3.69147C7.4888 3.70442 6.37907 4.12424 5.44344 4.94539C4.52887 5.74989 3.98739 6.75228 3.85155 7.94332C3.68509 9.40437 4.12515 10.686 5.15262 11.7661C5.983 12.639 7.02003 13.1365 8.24074 13.2734C8.42442 13.2937 8.6081 13.3011 8.7937 13.3085C8.96398 13.3159 9.0807 13.425 9.0807 13.5896C9.0807 14.6253 9.0807 15.661 9.0807 16.6967C9.0807 16.8798 8.96972 16.9963 8.76882 16.9981C8.26753 17.0037 7.76815 17.0018 7.26685 16.9981C7.08126 16.9963 6.98942 16.9149 6.9435 16.7411C6.81531 16.2454 6.68711 15.7498 6.56275 15.2523C6.54553 15.1857 6.51491 15.1506 6.44603 15.1247C6.16477 15.0193 5.88542 14.9064 5.60799 14.7899C5.53337 14.7585 5.4798 14.7566 5.40709 14.7992C4.96894 15.0581 4.52887 15.3115 4.0888 15.5685C3.89173 15.6832 3.76545 15.6684 3.60281 15.5112C2.90827 14.8399 2.21373 14.1685 1.51919 13.499C1.36804 13.3529 1.35273 13.2272 1.46179 13.0515C1.74114 12.6094 2.01474 12.1693 2.28644 11.7254C2.30557 11.6958 2.3094 11.6422 2.296 11.6089C2.17738 11.3204 2.04918 11.0356 1.93056 10.7452C1.9076 10.6879 1.87698 10.6638 1.81767 10.6509C1.29724 10.527 0.778728 10.4012 0.258301 10.2755C0.0746202 10.2311 0 10.1386 0 9.95366C0 8.9827 0 8.01175 0 7.0408C0 6.85031 0.0746201 6.75968 0.267867 6.71345C0.788295 6.58769 1.30681 6.46192 1.82724 6.33986C1.88464 6.32691 1.90951 6.30102 1.93247 6.24924C2.04918 5.96258 2.16972 5.67776 2.29409 5.3948C2.31705 5.34302 2.31514 5.30788 2.28644 5.25979C2.0224 4.83812 1.76027 4.4146 1.49814 3.99293C1.48092 3.96334 1.46179 3.9356 1.44457 3.90601C1.36612 3.77285 1.38143 3.64154 1.4924 3.53427C2.01474 3.02752 2.539 2.52263 3.06134 2.01773C3.25841 1.82909 3.45357 1.6386 3.65065 1.44996C3.76927 1.33529 3.90703 1.31865 4.05053 1.40187C4.50974 1.66819 4.96894 1.93266 5.42622 2.20268C5.48936 2.23966 5.53528 2.23782 5.60034 2.21007C5.88351 2.09171 6.1686 1.97705 6.45751 1.86793C6.51874 1.84389 6.54744 1.8143 6.56275 1.75511C6.69094 1.25207 6.82105 0.75087 6.95115 0.249674C6.99516 0.0721279 7.09083 0 7.27833 0C7.77198 0 8.26753 0 8.76117 0C8.97355 0 9.08452 0.107267 9.08452 0.314404C9.08261 0.822998 9.08261 1.33159 9.08261 1.84019ZM2.07597 13.1957C2.08171 13.2087 2.08362 13.2142 2.08745 13.2179C2.68441 13.7949 3.28137 14.3738 3.87642 14.9527C3.9166 14.9915 3.94339 14.9804 3.98357 14.9564C4.41216 14.7067 4.84457 14.4626 5.26933 14.2092C5.41857 14.1204 5.55059 14.1093 5.70748 14.1907C6.0691 14.3794 6.44986 14.5292 6.84592 14.642C6.97794 14.679 7.05256 14.7622 7.08509 14.8916C7.20754 15.3725 7.33191 15.8534 7.4601 16.3342C7.46775 16.3656 7.50219 16.4137 7.52515 16.4137C7.84277 16.4193 8.1623 16.4174 8.48565 16.4174C8.48565 15.5685 8.48565 14.7252 8.48565 13.8763C7.06404 13.7801 5.8395 13.2623 4.83883 12.2839C3.83624 11.3074 3.29859 10.1201 3.2278 8.74782C3.16849 7.56419 3.47653 6.46562 4.1749 5.48912C5.21384 4.03362 6.66607 3.25685 8.48374 3.1126C8.48374 2.26371 8.48374 1.42221 8.48374 0.571475C8.1776 0.571475 7.87721 0.575174 7.57873 0.569626C7.49645 0.567776 7.47158 0.595518 7.45245 0.667646C7.33191 1.14665 7.20371 1.6238 7.08509 2.10281C7.05065 2.23782 6.97029 2.31734 6.83635 2.35618C6.44029 2.46899 6.06145 2.62065 5.69792 2.80744C5.55442 2.88327 5.42431 2.87587 5.28464 2.7945C4.85796 2.54297 4.42555 2.297 3.99887 2.04547C3.93382 2.00664 3.90321 2.02143 3.85537 2.06767C3.43253 2.47824 3.00968 2.88697 2.583 3.29569C2.4108 3.46029 2.23669 3.62119 2.06449 3.78394C2.0951 3.83388 2.11424 3.86902 2.13528 3.90231C2.39167 4.31473 2.64615 4.72715 2.90253 5.13773C2.97333 5.25054 2.98098 5.35966 2.91593 5.47802C2.71503 5.84051 2.5543 6.2178 2.43185 6.61173C2.39167 6.74304 2.30557 6.81886 2.16972 6.8503C1.678 6.96682 1.18627 7.08888 0.694541 7.20355C0.618008 7.22204 0.587394 7.24608 0.587394 7.32931C0.591221 8.10237 0.591221 8.87728 0.587394 9.65035C0.587394 9.73727 0.610354 9.77241 0.700281 9.79276C1.1901 9.90557 1.678 10.0276 2.16781 10.1404C2.31131 10.1737 2.39358 10.2514 2.43568 10.3864C2.55813 10.7804 2.72077 11.1576 2.91975 11.5201C2.98098 11.6311 2.97907 11.7365 2.9121 11.8438C2.78773 12.0417 2.66528 12.2396 2.54282 12.4374C2.38784 12.6927 2.23095 12.946 2.07597 13.1957Z" fill="#231F20"/>
<path d="M5.85864 6.50816C5.85864 6.32507 5.85864 6.15307 5.85864 5.98107C5.85864 5.77024 5.96961 5.66297 6.18773 5.66297C6.3408 5.66297 6.49387 5.66112 6.64693 5.66482C6.71199 5.66667 6.73686 5.64632 6.73495 5.58159C6.73112 5.42439 6.73112 5.26719 6.73495 5.10999C6.73877 4.96758 6.81339 4.86771 6.93967 4.82702C7.0583 4.78819 7.19606 4.81963 7.26303 4.92134C7.30321 4.98238 7.32808 5.06375 7.33191 5.13588C7.34147 5.30788 7.33573 5.47987 7.33573 5.65927C7.72223 5.65927 8.10107 5.65927 8.4933 5.65927C8.4933 5.53721 8.4933 5.41329 8.4933 5.29123C8.4933 5.2228 8.48948 5.15622 8.49522 5.08779C8.5067 4.92874 8.6368 4.80668 8.7937 4.80853C8.95824 4.81038 9.08452 4.93614 9.08452 5.10074C9.08644 5.25794 9.08835 5.41514 9.08452 5.57235C9.08261 5.63708 9.09792 5.66667 9.17445 5.66482C9.50546 5.66112 9.83838 5.66112 10.1694 5.66482C10.2325 5.66482 10.2536 5.64632 10.2517 5.58529C10.2478 5.42254 10.2478 5.25794 10.2517 5.09519C10.2536 4.96573 10.3378 4.85846 10.4583 4.82148C10.5712 4.78634 10.7089 4.81963 10.7759 4.91395C10.8123 4.96388 10.8371 5.03046 10.8391 5.09149C10.8486 5.24869 10.8467 5.4059 10.841 5.5631C10.8371 5.64817 10.8678 5.66852 10.95 5.66482C11.0993 5.65927 11.2504 5.66297 11.3997 5.66297C11.6082 5.66297 11.7249 5.77393 11.7268 5.97552C11.7288 6.14752 11.7268 6.31952 11.7268 6.50076C11.7651 6.50261 11.7957 6.50631 11.8263 6.50631C12.1095 6.50631 12.3946 6.50816 12.6778 6.50631C12.716 6.50631 12.7658 6.49521 12.7887 6.47117C13.0872 6.16047 13.3819 5.84421 13.6784 5.52981C13.688 5.51871 13.6957 5.50577 13.7071 5.49097C13.4909 5.19136 13.4221 4.86771 13.5158 4.51447C13.6517 3.99293 14.1606 3.64893 14.7499 3.68037C15.2742 3.70812 15.7449 4.13533 15.8137 4.64763C15.9304 5.51131 15.1058 6.16416 14.2524 5.8812C14.1931 5.86271 14.1625 5.87935 14.13 5.91449C13.8698 6.19006 13.6115 6.46377 13.3513 6.73934C13.2766 6.81886 13.202 6.89839 13.1274 6.97976C13.0604 7.05004 12.9801 7.07963 12.8806 7.07963C12.5266 7.07778 12.1727 7.07963 11.8187 7.07779C11.767 7.07779 11.7268 7.07779 11.7288 7.14806C11.7326 7.48466 11.7307 7.81941 11.7307 8.15601C11.7307 8.1671 11.7345 8.18005 11.7383 8.20594C11.7728 8.20594 11.8053 8.20594 11.8397 8.20594C12.7543 8.20594 13.6708 8.20409 14.5854 8.20779C14.6619 8.20779 14.6925 8.18745 14.7212 8.11717C15.0427 7.27752 16.0739 7.14436 16.6288 7.66775C16.9904 8.00805 17.0938 8.42232 16.9273 8.87913C16.7627 9.32485 16.4183 9.58007 15.9285 9.62446C15.3775 9.67254 14.9221 9.38403 14.7212 8.87543C14.6925 8.80331 14.66 8.77742 14.5796 8.77927C13.6804 8.78296 12.7811 8.78111 11.8818 8.78111C11.8378 8.78111 11.7938 8.78111 11.7383 8.78111C11.7383 9.15655 11.7383 9.52644 11.7383 9.90742C11.7747 9.90742 11.8091 9.90742 11.8416 9.90742C12.1803 9.90742 12.5171 9.90927 12.8557 9.90557C12.9724 9.90372 13.0624 9.94256 13.1408 10.0276C13.4718 10.3809 13.8066 10.7323 14.1415 11.0818C14.1625 11.104 14.2142 11.1169 14.2429 11.1059C15.0159 10.8488 15.7965 11.3611 15.829 12.1489C15.852 12.7315 15.3584 13.266 14.7576 13.3067C14.1051 13.3511 13.5751 12.9442 13.4852 12.3191C13.4412 12.0195 13.5216 11.7439 13.7129 11.4924C13.5828 11.3537 13.4527 11.215 13.3226 11.0763C13.1504 10.895 12.9801 10.7119 12.806 10.5325C12.783 10.5085 12.7447 10.4807 12.7141 10.4807C12.3984 10.477 12.0827 10.4789 11.767 10.4807C11.7575 10.4807 11.7498 10.4863 11.7268 10.4918C11.7268 10.5381 11.7268 10.5862 11.7268 10.6342C11.7268 10.7545 11.7268 10.8747 11.7268 10.9949C11.7249 11.2224 11.6159 11.3315 11.3805 11.3333C11.2332 11.3352 11.0878 11.337 10.9405 11.3315C10.8582 11.3278 10.8371 11.3555 10.841 11.4314C10.8467 11.583 10.8429 11.7328 10.8429 11.8845C10.8429 12.0546 10.7243 12.1748 10.5559 12.1785C10.3856 12.1822 10.2555 12.062 10.2497 11.89C10.2459 11.7458 10.2497 11.5997 10.2497 11.4554C10.2497 11.4184 10.2497 11.3833 10.2497 11.3389C9.85943 11.3389 9.47867 11.3389 9.08452 11.3389C9.08452 11.5127 9.08452 11.6847 9.08452 11.8567C9.08452 12.0565 8.97164 12.1804 8.78796 12.1785C8.6081 12.1785 8.4933 12.0509 8.49139 11.8512C8.49139 11.6884 8.48948 11.5238 8.48948 11.3611C8.48948 11.3555 8.48565 11.35 8.47991 11.337C8.1049 11.337 7.72797 11.337 7.33956 11.337C7.33765 11.3722 7.33382 11.4036 7.33382 11.4369C7.33382 11.5849 7.33765 11.7328 7.33191 11.8808C7.32425 12.0639 7.19797 12.1804 7.02386 12.1767C6.85166 12.173 6.73686 12.0546 6.73495 11.8715C6.73303 11.718 6.73112 11.5627 6.73495 11.4092C6.73686 11.35 6.71773 11.3278 6.65459 11.3296C6.50535 11.3333 6.35419 11.3315 6.20495 11.3315C5.9677 11.3296 5.86055 11.2242 5.86055 10.9967C5.86055 10.8284 5.86055 10.6583 5.86055 10.477C5.65965 10.477 5.4664 10.4789 5.27316 10.477C5.13157 10.4752 5.01868 10.3883 4.98998 10.2607C4.94598 10.0776 5.07991 9.90927 5.27507 9.90742C5.4664 9.90372 5.65582 9.90742 5.85481 9.90742C5.85481 9.53199 5.85481 9.16395 5.85481 8.77927C5.79358 8.77927 5.73044 8.77927 5.6673 8.77927C5.53911 8.77927 5.41283 8.77927 5.28464 8.77927C5.10478 8.77927 4.9785 8.65905 4.9785 8.4926C4.98042 8.33355 5.10861 8.20964 5.2789 8.20779C5.4377 8.20594 5.59842 8.20779 5.75723 8.20779C5.78784 8.20779 5.81846 8.20409 5.8529 8.20224C5.8529 7.82681 5.8529 7.45877 5.8529 7.07963C5.66539 7.07963 5.48554 7.07039 5.30377 7.08148C5.10478 7.09443 4.9785 6.95017 4.97659 6.79667C4.97468 6.63207 5.11244 6.51001 5.30377 6.50816C5.48554 6.50816 5.66539 6.50816 5.85864 6.50816ZM6.4556 10.7471C8.01497 10.7471 9.56477 10.7471 11.1146 10.7471C11.1146 9.23977 11.1146 7.74173 11.1146 6.24369C9.55712 6.24369 8.00923 6.24369 6.4556 6.24369C6.4556 7.74543 6.4556 9.24162 6.4556 10.7471ZM15.8176 9.05483C16.1371 9.05483 16.4011 8.80516 16.4011 8.5C16.4011 8.1893 16.139 7.93592 15.8176 7.93592C15.5019 7.93592 15.2436 8.18745 15.2416 8.4963C15.2397 8.80516 15.498 9.05298 15.8176 9.05483ZM14.6562 5.37815C14.968 5.37446 15.234 5.11184 15.2302 4.81038C15.2263 4.50522 14.9585 4.25185 14.6447 4.2537C14.3309 4.2574 14.0669 4.51447 14.0669 4.81593C14.0688 5.12293 14.3385 5.38 14.6562 5.37815ZM14.6466 11.6163C14.329 11.6163 14.0669 11.8697 14.0669 12.1748C14.0669 12.4855 14.329 12.7352 14.6542 12.7334C14.9661 12.7334 15.234 12.4726 15.2302 12.1711C15.2282 11.8697 14.9623 11.6163 14.6466 11.6163Z" fill="#231F20"/>
<path d="M9.38109 9.60226C9.38109 9.76686 9.28351 9.88153 9.13427 9.91112C8.99651 9.93886 8.86258 9.86673 8.80518 9.73172C8.76117 9.62631 8.72482 9.51719 8.67698 9.41362C8.66359 9.38588 8.61958 9.35444 8.59088 9.35444C8.33258 9.34889 8.07428 9.34889 7.81598 9.35444C7.78537 9.35444 7.74328 9.38773 7.72988 9.41547C7.68396 9.51719 7.64952 9.62261 7.60552 9.72618C7.53855 9.88523 7.374 9.95735 7.21711 9.89817C7.06213 9.84084 6.98942 9.67439 7.05065 9.51534C7.33573 8.77741 7.62656 8.04134 7.90782 7.30157C8.00349 7.05004 8.27327 7.02045 8.4072 7.15546C8.45504 7.2054 8.48756 7.27382 8.51435 7.33855C8.7516 7.94517 8.98694 8.55363 9.22229 9.1621C9.26438 9.27121 9.30839 9.38033 9.34857 9.4913C9.36387 9.53383 9.37535 9.58007 9.38109 9.60226ZM8.21396 8.21519C8.2063 8.21519 8.19865 8.21519 8.19291 8.21519C8.12212 8.39828 8.05132 8.57953 7.98053 8.76632C8.13551 8.76632 8.2771 8.76632 8.42825 8.76632C8.35363 8.57583 8.28475 8.39458 8.21396 8.21519Z" fill="#231F20"/>
<path d="M9.66618 8.4926C9.66618 8.12272 9.66618 7.75283 9.66618 7.38294C9.66618 7.19985 9.78289 7.07594 9.95892 7.07409C10.1311 7.07224 10.2574 7.198 10.2574 7.37924C10.2574 8.12272 10.2574 8.86434 10.2574 9.60781C10.2574 9.78906 10.133 9.91667 9.96083 9.91852C9.78672 9.92037 9.66427 9.78906 9.66427 9.60226C9.66618 9.23238 9.66618 8.86249 9.66618 8.4926Z" fill="#231F20"/>
</svg>
