<svg width="24" height="21" viewBox="0 0 24 21" fill="none" xmlns="http://www.w3.org/2000/svg">
<path d="M9.69651 0.591797C8.51777 0.591797 7.3873 1.06005 6.55381 1.89354C5.72031 2.72704 5.25206 3.8575 5.25206 5.03624C5.25206 6.21498 5.72031 7.34544 6.55381 8.17894C7.3873 9.01243 8.51777 9.48069 9.69651 9.48069C10.8752 9.48069 12.0057 9.01243 12.8392 8.17894C13.6727 7.34544 14.1409 6.21498 14.1409 5.03624C14.1409 3.8575 13.6727 2.72704 12.8392 1.89354C12.0057 1.06005 10.8752 0.591797 9.69651 0.591797ZM9.69651 2.81402C10.2859 2.81402 10.8511 3.04815 11.2679 3.46489C11.6846 3.88164 11.9187 4.44687 11.9187 5.03624C11.9187 5.62561 11.6846 6.19084 11.2679 6.60759C10.8511 7.02434 10.2859 7.25846 9.69651 7.25846C9.10714 7.25846 8.5419 7.02434 8.12516 6.60759C7.70841 6.19084 7.47428 5.62561 7.47428 5.03624C7.47428 4.44687 7.70841 3.88164 8.12516 3.46489C8.5419 3.04815 9.10714 2.81402 9.69651 2.81402ZM9.69651 10.5918C6.72984 10.5918 0.807617 12.0696 0.807617 15.0362V18.3696H11.3632C11.0835 17.6963 10.9075 16.9845 10.841 16.2585H2.91873V15.0362C2.91873 14.3251 6.39651 12.7029 9.69651 12.7029C10.2521 12.7029 10.8076 12.7585 11.3632 12.8474C11.6483 12.1457 12.042 11.4933 12.5298 10.914C11.4854 10.7029 10.4854 10.5918 9.69651 10.5918ZM18.0298 10.5918C15.2521 10.5918 13.0298 12.814 13.0298 15.5918C13.0298 18.3696 15.2521 20.5918 18.0298 20.5918C20.8076 20.5918 23.0298 18.3696 23.0298 15.5918C23.0298 12.814 20.8076 10.5918 18.0298 10.5918ZM18.0298 12.2585C19.8743 12.2585 21.3632 13.7474 21.3632 15.5918C21.3632 16.214 21.1965 16.7918 20.8965 17.2585L16.3632 12.7251C16.8298 12.4251 17.4076 12.2585 18.0298 12.2585ZM15.1632 13.9251L19.6965 18.4585C19.2298 18.7585 18.6521 18.9251 18.0298 18.9251C16.1854 18.9251 14.6965 17.4362 14.6965 15.5918C14.6965 14.9696 14.8632 14.3918 15.1632 13.9251Z" fill="#D7282F"/>
</svg>
