<svg width="37" height="36" viewBox="0 0 37 36" fill="none" xmlns="http://www.w3.org/2000/svg">
<rect x="0.5" width="36" height="36" rx="18" fill="#D7282F"/>
<path fill-rule="evenodd" clip-rule="evenodd" d="M18.2346 10.154C18.369 9.98361 18.6278 9.98361 18.7621 10.154L20.9242 12.896C21.0979 13.1155 20.9406 13.4398 20.6622 13.4398H19.8104V18.629C19.8104 19.353 19.224 19.9394 18.5 19.9394C17.776 19.9394 17.1896 19.353 17.1896 18.629V13.4431H16.3378C16.0594 13.4431 15.9021 13.1187 16.0758 12.8993L18.2346 10.154ZM24.0659 16.1525L26.3428 19.671C26.4476 19.8315 26.5 20.0149 26.5 20.2049V25.1059C26.5 25.5841 26.1102 25.974 25.6319 25.974H18.5H11.3681C10.8898 25.974 10.5 25.5841 10.5 25.1059V20.2049C10.5 20.0149 10.5557 19.8282 10.6572 19.671L12.9308 16.1525C13.1077 15.8806 13.4058 15.7168 13.7301 15.7168H14.7359C14.88 15.7168 14.9685 15.8773 14.8898 16.0018L12.4328 19.802C12.4034 19.8511 12.4361 19.9167 12.4951 19.9167H13.6941H14.4476H15.2895C15.3911 19.9167 15.4697 19.9953 15.4762 20.0968C15.5713 21.6824 16.8849 22.9404 18.4967 22.9404C20.1085 22.9404 21.4222 21.6824 21.5172 20.0968C21.5238 19.9986 21.6024 19.9167 21.7039 19.9167H22.5459H23.4238H24.5016C24.5606 19.9167 24.5966 19.8511 24.5639 19.802L22.1069 16.0018C22.025 15.8806 22.1134 15.7168 22.2609 15.7168H23.2666C23.5909 15.7168 23.889 15.8806 24.0659 16.1525Z" fill="white"/>
</svg>
