<svg width="14" height="14" viewBox="0 0 14 14" fill="none" xmlns="http://www.w3.org/2000/svg">
<g clip-path="url(#clip0_4093_11271)">
<path d="M11.6663 1.75H2.33301C1.36651 1.75 0.583008 2.5335 0.583008 3.5V11.6667C0.583008 12.6332 1.36651 13.4167 2.33301 13.4167H11.6663C12.6328 13.4167 13.4163 12.6332 13.4163 11.6667V3.5C13.4163 2.5335 12.6328 1.75 11.6663 1.75Z" stroke="#8A8A8A" stroke-linecap="round" stroke-linejoin="round"/>
<path d="M0.583008 5.25H13.4163" stroke="#8A8A8A" stroke-linecap="round" stroke-linejoin="round"/>
<path d="M7 2.91671V0.583374" stroke="#8A8A8A" stroke-linecap="round" stroke-linejoin="round"/>
<path d="M3.5 2.91671V0.583374" stroke="#8A8A8A" stroke-linecap="round" stroke-linejoin="round"/>
<path d="M10.5 2.91671V0.583374" stroke="#8A8A8A" stroke-linecap="round" stroke-linejoin="round"/>
<path d="M2.91602 8.16675H4.08268" stroke="#8A8A8A" stroke-linecap="round" stroke-linejoin="round"/>
<path d="M6.41602 8.16675H7.58268" stroke="#8A8A8A" stroke-linecap="round" stroke-linejoin="round"/>
<path d="M9.91602 8.16675H11.0827" stroke="#8A8A8A" stroke-linecap="round" stroke-linejoin="round"/>
<path d="M2.91602 10.5H4.08268" stroke="#8A8A8A" stroke-linecap="round" stroke-linejoin="round"/>
<path d="M6.41602 10.5H7.58268" stroke="#8A8A8A" stroke-linecap="round" stroke-linejoin="round"/>
<path d="M9.91602 10.5H11.0827" stroke="#8A8A8A" stroke-linecap="round" stroke-linejoin="round"/>
</g>
<defs>
<clipPath id="clip0_4093_11271">
<rect width="14" height="14" fill="white"/>
</clipPath>
</defs>
</svg>
