<svg width="14" height="14" viewBox="0 0 14 14" fill="none" xmlns="http://www.w3.org/2000/svg">
<path d="M3.49922 6.3H4.89922V7.7H3.49922V6.3ZM11.8992 1.4H11.1992V0H9.79922V1.4H4.19922V0H2.79922V1.4H2.09922C1.32222 1.4 0.706219 2.03 0.706219 2.8L0.699219 12.6C0.699219 13.37 1.32222 14 2.09922 14H11.8992C12.6692 14 13.2992 13.37 13.2992 12.6V2.8C13.2992 2.03 12.6692 1.4 11.8992 1.4ZM11.8992 12.6H2.09922V5.6H11.8992V12.6ZM11.8992 4.2H2.09922V2.8H11.8992V4.2ZM9.09922 6.3H10.4992V7.7H9.09922V6.3ZM6.29922 6.3H7.69922V7.7H6.29922V6.3Z" fill="white"/>
</svg>
