<svg width="17" height="18" viewBox="0 0 17 18" fill="none" xmlns="http://www.w3.org/2000/svg">
<path d="M15.5835 12.9274V15.0524C15.5843 15.2497 15.5439 15.4449 15.4649 15.6257C15.3858 15.8064 15.2699 15.9687 15.1246 16.102C14.9792 16.2354 14.8076 16.3369 14.6207 16.4001C14.4338 16.4633 14.2358 16.4868 14.0393 16.469C11.8597 16.2322 9.76597 15.4874 7.92643 14.2945C6.21497 13.2069 4.76396 11.7559 3.67643 10.0445C2.47933 8.19657 1.73435 6.09267 1.50184 3.90321C1.48414 3.70734 1.50742 3.50992 1.5702 3.32353C1.63297 3.13714 1.73387 2.96587 1.86647 2.82061C1.99907 2.67536 2.16045 2.5593 2.34036 2.47983C2.52027 2.40037 2.71475 2.35923 2.91143 2.35905H5.03643C5.38019 2.35566 5.71345 2.47739 5.97409 2.70155C6.23474 2.9257 6.40498 3.23699 6.45309 3.57738C6.54278 4.25743 6.70912 4.92515 6.94893 5.5678C7.04423 5.82133 7.06485 6.09686 7.00836 6.36175C6.95187 6.62665 6.82062 6.86979 6.63018 7.06238L5.73059 7.96196C6.73895 9.73531 8.20725 11.2036 9.98059 12.212L10.8802 11.3124C11.0728 11.1219 11.3159 10.9907 11.5808 10.9342C11.8457 10.8777 12.1212 10.8983 12.3748 10.9936C13.0174 11.2334 13.6851 11.3998 14.3652 11.4895C14.7093 11.538 15.0235 11.7113 15.2481 11.9764C15.4728 12.2416 15.5921 12.58 15.5835 12.9274Z" stroke="#231F20" stroke-linecap="round" stroke-linejoin="round"/>
<path d="M10.6602 4.48372C11.352 4.61871 11.9878 4.95707 12.4863 5.45551C12.9847 5.95395 13.3231 6.58979 13.4581 7.28164M10.6602 1.65039C12.0976 1.81007 13.4379 2.45376 14.4612 3.47577C15.4845 4.49778 16.1299 5.83736 16.2914 7.27456" stroke="#D7282F" stroke-linecap="round" stroke-linejoin="round"/>
</svg>
