<svg width="19" height="20" viewBox="0 0 19 20" fill="none" xmlns="http://www.w3.org/2000/svg">
<rect x="0.818359" y="0.908585" width="18.182" height="18.1828" rx="2" fill="#D7282F"/>
<path d="M6.90946 6.082L9.90946 9.082L12.9095 6.09109C13.0289 5.96954 13.1937 5.90363 13.364 5.90927C13.7059 5.93136 13.9783 6.20372 14.0004 6.54563C14.002 6.70981 13.9363 6.86754 13.8185 6.982L10.8095 10.0002L13.8185 13.0184C13.9363 13.1328 14.002 13.2905 14.0004 13.4547C13.9783 13.7966 13.7059 14.069 13.364 14.0911C13.1937 14.0967 13.0289 14.0308 12.9095 13.9093L9.90946 10.9184L6.91855 13.9093C6.79909 14.0308 6.63428 14.0967 6.464 14.0911C6.11537 14.0729 5.83673 13.7943 5.81855 13.4456C5.81691 13.2814 5.88264 13.1237 6.00037 13.0093L9.00946 10.0002L5.99128 6.982C5.87682 6.866 5.81446 6.70854 5.81855 6.54563C5.84064 6.20372 6.113 5.93136 6.45491 5.90927C6.62382 5.90127 6.78846 5.96381 6.90946 6.082Z" fill="white"/>
</svg>
