<svg width="15" height="20" viewBox="0 0 15 20" fill="none" xmlns="http://www.w3.org/2000/svg">
<g clip-path="url(#clip0_97_4728)">
<path d="M13.1809 2.03452e-05C13.3813 0.0625203 13.5869 0.104187 13.7767 0.18752C15.0473 0.75002 15.4111 2.38023 14.4726 3.39585C13.8821 4.03648 13.2442 4.63023 12.6273 5.2396C12.5588 5.30731 12.4797 5.36981 12.3321 5.49481C12.4639 5.58856 12.5746 5.65106 12.6642 5.7344C12.8804 5.93752 13.086 6.14065 13.2916 6.35419C13.4603 6.53127 13.4762 6.7344 13.318 6.89585C12.9226 7.3021 12.5166 7.70315 12.1053 8.09898C11.9261 8.26565 11.7205 8.2396 11.5306 8.0521C11.2459 7.77606 10.9665 7.4896 10.6712 7.19794C10.6027 7.26044 10.5447 7.31252 10.492 7.36981C8.69409 9.15106 6.8962 10.9323 5.08776 12.7084C4.96123 12.8334 4.78724 12.9115 4.62907 12.9948C4.54471 13.0417 4.44453 13.0625 4.34963 13.0886C3.94893 13.1927 3.61149 13.375 3.30569 13.6667C2.731 14.224 1.82414 14.1875 1.25472 13.6459C0.685305 13.1042 0.595674 12.1927 1.144 11.6354C1.52362 11.25 1.70815 10.8073 1.85051 10.3177C1.91378 10.1042 2.0245 9.93752 2.18267 9.78127C3.97001 8.01565 5.75209 6.25002 7.53943 4.47919C7.59743 4.4219 7.6607 4.37502 7.73979 4.30731C7.49726 4.06773 7.27581 3.84898 7.05437 3.63023C6.57458 3.15627 6.57458 3.08856 7.05437 2.6146C7.34963 2.31773 7.65016 2.02606 7.94541 1.72919C8.1774 1.50002 8.37775 1.50002 8.60973 1.72398C8.88917 2.00002 9.16334 2.27606 9.45332 2.56252C9.51659 2.50523 9.56931 2.45835 9.62204 2.41148C10.1124 1.9271 10.608 1.45315 11.0825 0.958354C11.5254 0.494812 11.9999 0.104187 12.6589 -0.00518799C12.8382 2.03452e-05 13.0069 2.03452e-05 13.1809 2.03452e-05ZM4.15982 8.97919C4.19146 8.97919 4.21255 8.9844 4.23891 8.9844C5.35666 8.9844 6.47441 8.9896 7.59216 8.97919C7.67652 8.97919 7.77669 8.9219 7.83996 8.8646C8.55174 8.1719 9.25824 7.46877 9.96474 6.77085C10.0069 6.72919 10.0386 6.68752 10.0596 6.66669C9.45332 6.06773 8.86281 5.4844 8.27757 4.90627C6.91729 6.25002 5.54119 7.6094 4.15982 8.97919ZM10.0702 3.1146C10.6607 3.70315 11.2565 4.29169 11.8523 4.88023C11.847 4.88023 11.8628 4.88023 11.8681 4.87502C12.5482 4.20315 13.2389 3.5469 13.898 2.85419C14.3461 2.39065 14.2934 1.6094 13.8294 1.15627C13.3549 0.68752 12.5799 0.630229 12.1001 1.08856C11.4041 1.74481 10.7451 2.44273 10.0702 3.1146ZM7.69761 3.10419C9.08952 4.47919 10.4709 5.84898 11.8259 7.18752C12.0104 7.00002 12.2108 6.8021 12.3795 6.64065C11.0192 5.29169 9.63785 3.9219 8.25648 2.5521C8.07722 2.72919 7.88214 2.9219 7.69761 3.10419Z" fill="#231F20"/>
<path d="M1.69241 20C1.40243 19.875 1.08608 19.7865 0.822463 19.6198C0.231953 19.2448 -0.237291 18.3542 0.13705 17.3906C0.511391 16.4219 1.05972 15.5521 1.65023 14.7031C1.81368 14.4636 2.12475 14.4531 2.28292 14.6875C2.89452 15.5677 3.46394 16.4688 3.83828 17.4792C4.21789 18.5 3.51666 19.7448 2.33564 19.9583C2.30401 19.9636 2.27765 19.9792 2.24601 19.9948C2.06148 20 1.87694 20 1.69241 20ZM2.03512 15.6458C2.00348 15.6511 1.97712 15.6563 1.94549 15.6615C1.51842 16.3646 1.05445 17.0573 0.81719 17.8646C0.780283 17.9844 0.785556 18.125 0.806645 18.25C0.938456 18.9479 1.62387 19.3646 2.29874 19.1719C2.88925 19.0052 3.36904 18.3177 3.04742 17.6406C2.73635 16.9636 2.37782 16.3073 2.03512 15.6458Z" fill="#231F20"/>
</g>
<defs>
<clipPath id="clip0_97_4728">
<rect width="15" height="20" fill="white"/>
</clipPath>
</defs>
</svg>
