<svg width="15" height="16" viewBox="0 0 15 16" fill="none" xmlns="http://www.w3.org/2000/svg">
<path d="M8.5 5.16666H9.20833C9.39619 5.16666 9.57636 5.09203 9.7092 4.95919C9.84204 4.82635 9.91667 4.64618 9.91667 4.45832C9.91667 4.27046 9.84204 4.09029 9.7092 3.95746C9.57636 3.82462 9.39619 3.74999 9.20833 3.74999H8.5C8.31214 3.74999 8.13197 3.82462 7.99913 3.95746C7.86629 4.09029 7.79167 4.27046 7.79167 4.45832C7.79167 4.64618 7.86629 4.82635 7.99913 4.95919C8.13197 5.09203 8.31214 5.16666 8.5 5.16666ZM8.5 7.99999H9.20833C9.39619 7.99999 9.57636 7.92536 9.7092 7.79252C9.84204 7.65968 9.91667 7.47952 9.91667 7.29166C9.91667 7.10379 9.84204 6.92363 9.7092 6.79079C9.57636 6.65795 9.39619 6.58332 9.20833 6.58332H8.5C8.31214 6.58332 8.13197 6.65795 7.99913 6.79079C7.86629 6.92363 7.79167 7.10379 7.79167 7.29166C7.79167 7.47952 7.86629 7.65968 7.99913 7.79252C8.13197 7.92536 8.31214 7.99999 8.5 7.99999ZM4.95833 5.16666H5.66667C5.85453 5.16666 6.03469 5.09203 6.16753 4.95919C6.30037 4.82635 6.375 4.64618 6.375 4.45832C6.375 4.27046 6.30037 4.09029 6.16753 3.95746C6.03469 3.82462 5.85453 3.74999 5.66667 3.74999H4.95833C4.77047 3.74999 4.5903 3.82462 4.45747 3.95746C4.32463 4.09029 4.25 4.27046 4.25 4.45832C4.25 4.64618 4.32463 4.82635 4.45747 4.95919C4.5903 5.09203 4.77047 5.16666 4.95833 5.16666ZM4.95833 7.99999H5.66667C5.85453 7.99999 6.03469 7.92536 6.16753 7.79252C6.30037 7.65968 6.375 7.47952 6.375 7.29166C6.375 7.10379 6.30037 6.92363 6.16753 6.79079C6.03469 6.65795 5.85453 6.58332 5.66667 6.58332H4.95833C4.77047 6.58332 4.5903 6.65795 4.45747 6.79079C4.32463 6.92363 4.25 7.10379 4.25 7.29166C4.25 7.47952 4.32463 7.65968 4.45747 7.79252C4.5903 7.92536 4.77047 7.99999 4.95833 7.99999ZM13.4583 13.6667H12.75V1.62499C12.75 1.43713 12.6754 1.25696 12.5425 1.12412C12.4097 0.991284 12.2295 0.916656 12.0417 0.916656H2.125C1.93714 0.916656 1.75697 0.991284 1.62413 1.12412C1.49129 1.25696 1.41667 1.43713 1.41667 1.62499V13.6667H0.708333C0.520472 13.6667 0.340304 13.7413 0.207466 13.8741C0.0746277 14.007 0 14.1871 0 14.375C0 14.5628 0.0746277 14.743 0.207466 14.8759C0.340304 15.0087 0.520472 15.0833 0.708333 15.0833H13.4583C13.6462 15.0833 13.8264 15.0087 13.9592 14.8759C14.092 14.743 14.1667 14.5628 14.1667 14.375C14.1667 14.1871 14.092 14.007 13.9592 13.8741C13.8264 13.7413 13.6462 13.6667 13.4583 13.6667ZM7.79167 13.6667H6.375V10.8333H7.79167V13.6667ZM11.3333 13.6667H9.20833V10.125C9.20833 9.93713 9.1337 9.75696 9.00087 9.62412C8.86803 9.49128 8.68786 9.41666 8.5 9.41666H5.66667C5.4788 9.41666 5.29864 9.49128 5.1658 9.62412C5.03296 9.75696 4.95833 9.93713 4.95833 10.125V13.6667H2.83333V2.33332H11.3333V13.6667Z" fill="#D7282F"/>
</svg>
