<svg width="68" height="66" viewBox="0 0 68 66" fill="none" xmlns="http://www.w3.org/2000/svg">
<path fill-rule="evenodd" clip-rule="evenodd" d="M13.7198 13.9633C13.7198 14.5252 13.2643 14.9809 12.7022 14.9809C12.1402 14.9809 11.6847 14.5254 11.6846 13.9633V1.01759C11.6846 0.455618 12.1402 0 12.7022 0H53.9053C54.4673 0 54.9229 0.455618 54.9229 1.01759V15.336C54.9229 15.898 54.4673 16.3536 53.9053 16.3536C53.3434 16.3536 52.8877 15.8981 52.8877 15.336V2.03518H13.7198V13.9633ZM52.8877 56.8295C52.8877 56.2675 53.3433 55.8117 53.9053 55.8117C54.4672 55.8117 54.9229 56.2676 54.9229 56.8296V58.9386C54.9229 62.8323 51.755 66.0001 47.8613 66.0001H7.27722C7.18724 66.0001 7.10161 65.9845 7.01824 65.9626C6.93487 65.9845 6.84909 66.0001 6.75881 66.0001C3.46283 66.0001 0.78125 63.3185 0.78125 60.0224V52.3592C0.78125 51.7972 1.23687 51.3416 1.79884 51.3416H8.31164C8.87361 51.3416 9.32923 51.7972 9.32923 52.3592C9.32923 52.9212 8.87361 53.3768 8.31164 53.3768H2.81658V60.0223C2.81658 62.1961 4.58513 63.9646 6.75896 63.9646C6.84955 63.9646 6.93577 63.9803 7.01944 64.0025L7.0273 64.0003C7.03467 63.9983 7.04198 63.996 7.04929 63.9938L7.04934 63.9938L7.04939 63.9938L7.04942 63.9938L7.04946 63.9938C7.06802 63.9881 7.08656 63.9825 7.10612 63.9792C7.29029 63.9465 11.6844 63.1243 11.6844 59.2105V49.2587C11.6844 48.6965 12.14 48.2411 12.702 48.2411C13.2639 48.2411 13.7196 48.6965 13.7196 49.2587V59.2105C13.7196 61.3404 12.8055 62.8868 11.6124 63.9646H47.8615C50.6329 63.9646 52.8877 61.7098 52.8877 58.9384V56.8295ZM31.7632 8.52363C31.2011 8.52363 30.7456 8.97924 30.7456 9.54122C30.7456 10.1033 31.2013 10.5588 31.7632 10.5588H48.174C48.7362 10.5588 49.1916 10.1032 49.1916 9.54122C49.1916 8.97924 48.7362 8.52363 48.174 8.52363H31.7632ZM17.207 9.54122C17.207 8.97924 17.6626 8.52363 18.2246 8.52363H25.4988C26.0608 8.52363 26.5164 8.97924 26.5164 9.54122C26.5164 10.1032 26.0608 10.5588 25.4988 10.5588H18.2246C17.6626 10.5588 17.207 10.1033 17.207 9.54122ZM48.1737 59.6881C48.7359 59.6881 49.1913 59.2324 49.1913 58.6705C49.1913 58.1086 48.7359 57.6529 48.1737 57.6529H41.1069C40.5448 57.6529 40.0893 58.1086 40.0893 58.6705C40.0893 59.2324 40.5448 59.6881 41.1069 59.6881H48.1737ZM18.2246 59.6881C17.6626 59.6881 17.207 59.2324 17.207 58.6705C17.207 58.1085 17.6626 57.6527 18.2246 57.6529H34.1969C34.7589 57.6529 35.2145 58.1086 35.2145 58.6705C35.2145 59.2324 34.7589 59.6881 34.1969 59.6881H18.2246ZM26.204 50.4521H18.2246C17.6626 50.4521 17.207 50.9076 17.207 51.4695C17.207 52.0317 17.6626 52.4871 18.2246 52.4871H26.204C26.7661 52.4871 27.2216 52.0317 27.2216 51.4695C27.2217 50.9076 26.7661 50.4521 26.204 50.4521ZM32.5449 35.8968H48.9973C49.5594 35.8968 50.0149 36.3523 50.0146 36.9143C50.0146 37.4764 49.5591 37.932 48.997 37.932H33.2213C33.1056 38.1929 32.9844 38.4513 32.8551 38.7046C32.6753 39.0567 32.3182 39.2595 31.948 39.2595C31.7924 39.2595 31.6342 39.2236 31.486 39.1477C30.9856 38.8921 30.7871 38.2792 31.0428 37.7786C31.2476 37.378 31.4338 36.9629 31.5964 36.5452C31.5972 36.5431 31.5983 36.5413 31.5993 36.5394C31.6004 36.5376 31.6014 36.5358 31.6022 36.5337C31.618 36.4948 31.6387 36.4591 31.6589 36.4227C31.6637 36.4142 31.6682 36.4053 31.6727 36.3965C31.6801 36.3819 31.6875 36.3673 31.6964 36.3539C31.7107 36.332 31.7275 36.3123 31.7442 36.2925L31.7513 36.2842L31.7625 36.2707C31.769 36.2629 31.7752 36.2548 31.7814 36.2468C31.794 36.2306 31.8066 36.2144 31.821 36.1998C31.8395 36.1811 31.86 36.1648 31.8806 36.1486L31.9021 36.1315C31.9072 36.1273 31.9122 36.1229 31.9172 36.1186C31.9198 36.1163 31.9224 36.114 31.9251 36.1117L31.9251 36.1117L31.9251 36.1117L31.9251 36.1116L31.9251 36.1116L31.9252 36.1116C31.9396 36.0989 31.954 36.0862 31.9698 36.0754C31.9981 36.0561 32.0287 36.0404 32.0595 36.0246L32.0595 36.0246L32.0792 36.0144C32.0872 36.0102 32.095 36.0057 32.1028 36.0012C32.1148 35.9942 32.1268 35.9872 32.1396 35.9815C32.1674 35.9696 32.1968 35.961 32.2262 35.9523L32.2498 35.9453L32.2625 35.9412L32.2762 35.9366L32.2763 35.9366C32.2935 35.9307 32.3106 35.9249 32.3284 35.921C32.3493 35.9165 32.3709 35.9144 32.3925 35.9123L32.4044 35.9111L32.42 35.9094L32.442 35.9065C32.4714 35.9026 32.5006 35.8987 32.5306 35.8983C32.5329 35.8982 32.5351 35.8979 32.5373 35.8976L32.5386 35.8974L32.5422 35.8969L32.5449 35.8968ZM37.2882 31.5716H39.9647C40.5268 31.5716 40.9824 31.1159 40.9824 30.554V27.7803C40.9824 27.5067 41.2048 27.2843 41.4783 27.2843H44.8269C45.0065 27.2843 45.1245 27.3761 45.179 27.4309C45.2332 27.4857 45.3244 27.6045 45.3229 27.7844L45.3004 30.6107C45.2981 30.882 45.4043 31.143 45.5955 31.3354C45.7866 31.5281 46.0467 31.6364 46.3181 31.6364H49.0945C49.6566 31.6364 50.1121 31.1808 50.1121 30.6189C50.1121 30.0569 49.6566 29.6013 49.0945 29.6013H47.3438L47.3582 27.8006C47.3638 27.1205 47.103 26.4801 46.6238 25.9975C46.1449 25.5148 45.5069 25.2491 44.827 25.2491H41.4785C40.0829 25.2491 38.9473 26.3848 38.9473 27.7804V29.5364H37.2882C36.7262 29.5364 36.2706 29.992 36.2706 30.554C36.2705 31.1159 36.7261 31.5716 37.2882 31.5716ZM22.5466 46.7724C21.3985 47.0391 20.2136 47.1741 19.0246 47.1741C10.4664 47.1741 3.50367 40.2116 3.50352 31.6534C3.50352 23.095 10.4662 16.1325 19.0244 16.1325C21.0574 16.1325 23.0342 16.5197 24.9001 17.2835C25.4202 17.4965 25.6693 18.0907 25.4564 18.6108C25.2435 19.1307 24.6494 19.3801 24.1291 19.1671C22.5092 18.5039 20.7918 18.1677 19.0246 18.1677C11.5887 18.1677 5.539 24.2173 5.539 31.6534C5.539 39.0893 11.5887 45.139 19.0246 45.139C20.059 45.139 21.089 45.0215 22.0867 44.7901C22.6347 44.6623 23.1809 45.0038 23.3078 45.5513C23.4349 46.0989 23.0942 46.6454 22.5466 46.7724ZM19.0247 27.9298C19.1848 27.9298 19.3454 27.94 19.5022 27.96C20.0608 28.0323 20.5694 27.6372 20.6408 27.0799C20.7121 26.5224 20.3181 26.0127 19.7606 25.9413C19.5185 25.9104 19.2709 25.8946 19.0247 25.8946C15.8496 25.8946 13.2663 28.4778 13.2663 31.653C13.2663 34.8282 15.8495 37.4113 19.0247 37.4113C19.5867 37.4113 20.0423 36.9558 20.0423 36.3938C20.0423 35.8317 19.5867 35.3762 19.0247 35.3762C16.9716 35.3762 15.3016 33.7061 15.3016 31.6532C15.3016 29.6001 16.9716 27.9298 19.0247 27.9298ZM58.914 46.3597L66.0651 53.5109C67.5991 55.0453 67.5991 57.5413 66.0649 59.0752C65.2977 59.8424 64.2901 60.2258 63.2825 60.2258C62.2749 60.2258 61.2673 59.8424 60.5003 59.0752L50.7941 49.3694C47.7878 51.3377 44.199 52.487 40.3453 52.487C29.7962 52.487 21.2138 43.9046 21.2138 33.3557C21.2138 22.8068 29.7961 14.2244 40.3453 14.2244C50.8942 14.2244 59.4766 22.8067 59.4766 33.3557C59.4766 39.3129 56.7388 44.6418 52.4563 48.1532L61.9394 57.6364C62.6802 58.3773 63.8852 58.3767 64.626 57.6364C65.3664 56.8955 65.3664 55.6906 64.6258 54.95L57.4747 47.7989C57.0772 47.4016 57.0772 46.7572 57.4747 46.3597C57.8721 45.9624 58.5165 45.9624 58.914 46.3597ZM23.249 33.3557C23.249 42.7825 30.9183 50.452 40.3453 50.452C49.772 50.452 57.4414 42.7825 57.4414 33.3557C57.4414 23.929 49.772 16.2596 40.3453 16.2596C30.9183 16.2596 23.249 23.929 23.249 33.3557ZM40.3454 19.3601C32.628 19.3601 26.3495 25.6386 26.3495 33.356C26.3495 41.0734 32.628 47.3519 40.3454 47.3519C48.0627 47.3519 54.3411 41.0734 54.3411 33.356C54.3411 25.6387 48.0627 19.3601 40.3454 19.3601ZM40.3454 45.3165C33.7504 45.3165 28.3847 39.9511 28.3847 33.356C28.3847 26.7609 33.7503 21.3955 40.3454 21.3955C46.9405 21.3955 52.3058 26.7609 52.3058 33.356C52.3058 39.9511 46.9404 45.3165 40.3454 45.3165ZM32.3197 29.3914C32.3092 29.326 32.2987 29.2606 32.2859 29.1945C32.2039 28.7488 32.1004 28.3075 31.9738 27.8727C31.8166 27.3331 32.1265 26.7683 32.666 26.611C33.2059 26.4534 33.7702 26.7637 33.9277 27.3032C34.0687 27.7876 34.1844 28.2789 34.2774 28.7751C34.2777 28.7767 34.2782 28.7782 34.2787 28.7797C34.2793 28.7812 34.2798 28.7827 34.2801 28.7843C34.2825 28.7958 34.2837 28.8071 34.286 28.8188C34.3074 28.9354 34.3265 29.0526 34.3454 29.1697C34.4202 29.6174 34.4728 30.0623 34.5044 30.5183C34.5054 30.5325 34.5062 30.5467 34.5072 30.5609C34.5078 30.5704 34.5085 30.58 34.5092 30.5896C34.5186 30.7386 34.5278 30.8898 34.5331 31.0434C34.541 31.2464 34.5458 31.4498 34.5458 31.6533C34.5458 31.9318 34.5356 32.2114 34.5207 32.49C34.5199 32.5065 34.5197 32.523 34.5194 32.5395C34.5191 32.5587 34.5188 32.578 34.5176 32.5972C34.5168 32.6092 34.5132 32.6201 34.5122 32.632C34.5099 32.6684 34.5079 32.7049 34.5059 32.7413C34.5023 32.8076 34.4987 32.8738 34.4933 32.9395C34.4494 33.4711 34.0043 33.8737 33.4802 33.8737C33.4522 33.8737 33.424 33.8727 33.3956 33.8703C32.8356 33.8242 32.4187 33.3328 32.4648 32.7726C32.4747 32.6521 32.4811 32.5301 32.4875 32.4083L32.489 32.3796C32.5018 32.1378 32.5107 31.8941 32.5107 31.6533C32.5107 31.4714 32.5057 31.298 32.4998 31.1257C32.4944 30.9884 32.4875 30.8513 32.4781 30.7143C32.4774 30.7056 32.4768 30.6968 32.4762 30.688C32.476 30.6843 32.4757 30.6807 32.4755 30.677C32.4468 30.2767 32.3987 29.8788 32.3349 29.4841C32.3297 29.4532 32.3247 29.4223 32.3197 29.3914Z" fill="#9A9A9A"/>
</svg>
