<svg width="22" height="22" viewBox="0 0 22 22" fill="none" xmlns="http://www.w3.org/2000/svg">
<path d="M18.9547 9.7809H21.8184V11.69H18.9547V9.7809ZM0.818359 9.7809H3.682V11.69H0.818359V9.7809ZM12.2729 0.235443V3.09908H10.3638V0.235443H12.2729ZM4.56018 2.62181L6.59336 4.66453L5.23791 6.01044L3.20472 3.98681L4.56018 2.62181ZM16.0434 4.65499L18.067 2.62181L19.432 3.98681L17.3988 6.01044L16.0434 4.65499ZM11.3184 5.00817C12.8373 5.00817 14.2941 5.61158 15.3682 6.68565C16.4422 7.75972 17.0456 9.21648 17.0456 10.7354C17.0456 12.8545 15.8906 14.7064 14.182 15.6991V17.4173C14.182 17.6704 14.0814 17.9132 13.9024 18.0922C13.7234 18.2712 13.4806 18.3718 13.2275 18.3718H9.40927C9.15611 18.3718 8.91331 18.2712 8.7343 18.0922C8.55529 17.9132 8.45472 17.6704 8.45472 17.4173V15.6991C6.74609 14.7064 5.59109 12.8545 5.59109 10.7354C5.59109 9.21648 6.19449 7.75972 7.26857 6.68565C8.34264 5.61158 9.79939 5.00817 11.3184 5.00817ZM13.2275 19.3264V20.2809C13.2275 20.5341 13.1269 20.7769 12.9479 20.9559C12.7689 21.1349 12.5261 21.2354 12.2729 21.2354H10.3638C10.1107 21.2354 9.86786 21.1349 9.68885 20.9559C9.50984 20.7769 9.40927 20.5341 9.40927 20.2809V19.3264H13.2275ZM10.3638 16.4627H12.2729V14.4295C13.9243 14.0095 15.1365 12.5109 15.1365 10.7354C15.1365 9.7228 14.7343 8.75163 14.0182 8.03558C13.3022 7.31953 12.331 6.91726 11.3184 6.91726C10.3057 6.91726 9.33455 7.31953 8.6185 8.03558C7.90245 8.75163 7.50018 9.7228 7.50018 10.7354C7.50018 12.5109 8.71245 14.0095 10.3638 14.4295V16.4627Z" fill="#D7282F"/>
<path d="M18.9547 9.7809H21.8184V11.69H18.9547V9.7809ZM0.818359 9.7809H3.682V11.69H0.818359V9.7809ZM12.2729 0.235443V3.09908H10.3638V0.235443H12.2729ZM4.56018 2.62181L6.59336 4.66453L5.23791 6.01044L3.20472 3.98681L4.56018 2.62181ZM16.0434 4.65499L18.067 2.62181L19.432 3.98681L17.3988 6.01044L16.0434 4.65499ZM11.3184 5.00817C12.8373 5.00817 14.2941 5.61158 15.3682 6.68565C16.4422 7.75972 17.0456 9.21648 17.0456 10.7354C17.0456 12.8545 15.8906 14.7064 14.182 15.6991V17.4173C14.182 17.6704 14.0814 17.9132 13.9024 18.0922C13.7234 18.2712 13.4806 18.3718 13.2275 18.3718H9.40927C9.15611 18.3718 8.91331 18.2712 8.7343 18.0922C8.55529 17.9132 8.45472 17.6704 8.45472 17.4173V15.6991C6.74609 14.7064 5.59109 12.8545 5.59109 10.7354C5.59109 9.21648 6.19449 7.75972 7.26857 6.68565C8.34264 5.61158 9.79939 5.00817 11.3184 5.00817ZM13.2275 19.3264V20.2809C13.2275 20.5341 13.1269 20.7769 12.9479 20.9559C12.7689 21.1349 12.5261 21.2354 12.2729 21.2354H10.3638C10.1107 21.2354 9.86786 21.1349 9.68885 20.9559C9.50984 20.7769 9.40927 20.5341 9.40927 20.2809V19.3264H13.2275ZM10.3638 16.4627H12.2729V14.4295C13.9243 14.0095 15.1365 12.5109 15.1365 10.7354C15.1365 9.7228 14.7343 8.75163 14.0182 8.03558C13.3022 7.31953 12.331 6.91726 11.3184 6.91726C10.3057 6.91726 9.33455 7.31953 8.6185 8.03558C7.90245 8.75163 7.50018 9.7228 7.50018 10.7354C7.50018 12.5109 8.71245 14.0095 10.3638 14.4295V16.4627Z" fill="#D7282F" fill-opacity="0.2"/>
</svg>
