<svg width="19" height="17" viewBox="0 0 19 17" fill="none" xmlns="http://www.w3.org/2000/svg">
<path fill-rule="evenodd" clip-rule="evenodd" d="M12.9785 16.4746C12.9785 8.14258 12.9785 11.1309 12.9785 0.935547H0.638672C0.638672 11.1309 0.638672 8.14258 0.638672 16.4746H12.9785Z" stroke="#8A8A8A" stroke-linecap="round" stroke-linejoin="round"/>
<path fill-rule="evenodd" clip-rule="evenodd" d="M16.3184 12.2559L15.334 14.6816L14.3145 12.2559V3.67773C14.3145 2.37695 16.3184 2.37695 16.3184 3.67773V12.2559Z" stroke="#8A8A8A" stroke-linecap="round" stroke-linejoin="round"/>
<path fill-rule="evenodd" clip-rule="evenodd" d="M14.3145 12.0098V5.40039H16.3184V12.0098H14.3145Z" stroke="#8A8A8A" stroke-linecap="round" stroke-linejoin="round"/>
<path d="M16.3184 5.40039H18.0059V8.49414" stroke="#8A8A8A" stroke-linecap="round" stroke-linejoin="round"/>
<path d="M2.4668 3.18555H11.1152" stroke="#8A8A8A" stroke-linecap="round" stroke-linejoin="round"/>
<path d="M2.4668 5.40039H11.1152" stroke="#8A8A8A" stroke-linecap="round" stroke-linejoin="round"/>
<path d="M2.4668 7.61523H11.1152" stroke="#8A8A8A" stroke-linecap="round" stroke-linejoin="round"/>
<path d="M2.4668 9.79492H11.1152" stroke="#8A8A8A" stroke-linecap="round" stroke-linejoin="round"/>
<path d="M2.4668 12.0098H11.1152" stroke="#8A8A8A" stroke-linecap="round" stroke-linejoin="round"/>
<path d="M2.4668 14.2246H11.1152" stroke="#8A8A8A" stroke-linecap="round" stroke-linejoin="round"/>
</svg>
