<svg width="64" height="64" viewBox="0 0 64 64" fill="none" xmlns="http://www.w3.org/2000/svg">
<path d="M59 4H5C4.20435 4 3.44129 4.31607 2.87868 4.87868C2.31607 5.44129 2 6.20435 2 7V39C2 39.7956 2.31607 40.5587 2.87868 41.1213C3.44129 41.6839 4.20435 42 5 42H8V51C8 51.7956 8.31607 52.5587 8.87868 53.1213C9.44129 53.6839 10.2044 54 11 54H43C43.7956 54 44.5587 53.6839 45.1213 53.1213C45.6839 52.5587 46 51.7956 46 51V50H52C52.7956 50 53.5587 49.6839 54.1213 49.1213C54.6839 48.5587 55 47.7956 55 47V42H59C59.7956 42 60.5587 41.6839 61.1213 41.1213C61.6839 40.5587 62 39.7956 62 39V7C62 6.20435 61.6839 5.44129 61.1213 4.87868C60.5587 4.31607 59.7956 4 59 4ZM8 40H5C4.73478 40 4.48043 39.8946 4.29289 39.7071C4.10536 39.5196 4 39.2652 4 39V36H8V40ZM44 51C44 51.2652 43.8946 51.5196 43.7071 51.7071C43.5196 51.8946 43.2652 52 43 52H11C10.7348 52 10.4804 51.8946 10.2929 51.7071C10.1054 51.5196 10 51.2652 10 51V33C10 32.7348 10.1054 32.4804 10.2929 32.2929C10.4804 32.1054 10.7348 32 11 32H35V47C35 47.7956 35.3161 48.5587 35.8787 49.1213C36.4413 49.6839 37.2044 50 38 50H44V51ZM53 47C53 47.2652 52.8946 47.5196 52.7071 47.7071C52.5196 47.8946 52.2652 48 52 48H38C37.7348 48 37.4804 47.8946 37.2929 47.7071C37.1054 47.5196 37 47.2652 37 47V19C37 18.7348 37.1054 18.4804 37.2929 18.2929C37.4804 18.1054 37.7348 18 38 18H39C39 18.7956 39.3161 19.5587 39.8787 20.1213C40.4413 20.6839 41.2044 21 42 21H48C48.7956 21 49.5587 20.6839 50.1213 20.1213C50.6839 19.5587 51 18.7956 51 18H52C52.2652 18 52.5196 18.1054 52.7071 18.2929C52.8946 18.4804 53 18.7348 53 19V47ZM41 18H49C49 18.2652 48.8946 18.5196 48.7071 18.7071C48.5196 18.8946 48.2652 19 48 19H42C41.7348 19 41.4804 18.8946 41.2929 18.7071C41.1054 18.5196 41 18.2652 41 18ZM60 39C60 39.2652 59.8946 39.5196 59.7071 39.7071C59.5196 39.8946 59.2652 40 59 40H55V36H60V39ZM60 34H55V19C55 18.2044 54.6839 17.4413 54.1213 16.8787C53.5587 16.3161 52.7956 16 52 16H38C37.2044 16 36.4413 16.3161 35.8787 16.8787C35.3161 17.4413 35 18.2044 35 19V30H11C10.2044 30 9.44129 30.3161 8.87868 30.8787C8.31607 31.4413 8 32.2044 8 33V34H4V7C4 6.73478 4.10536 6.48043 4.29289 6.29289C4.48043 6.10536 4.73478 6 5 6H59C59.2652 6 59.5196 6.10536 59.7071 6.29289C59.8946 6.48043 60 6.73478 60 7V34Z" fill="#231F20"/>
<path d="M46.875 55H30C29.7348 55 29.4804 55.1054 29.2929 55.2929C29.1054 55.4804 29 55.7348 29 56H25C25 55.7348 24.8946 55.4804 24.7071 55.2929C24.5196 55.1054 24.2652 55 24 55H7.125C6.96976 55 6.81664 55.0361 6.67779 55.1056C6.53893 55.175 6.41815 55.2758 6.325 55.4C6.23185 55.5242 6.1689 55.6684 6.14113 55.8211C6.11336 55.9739 6.12153 56.131 6.165 56.28L6.62 57.84C6.8039 58.4619 7.18342 59.0079 7.70223 59.397C8.22105 59.7861 8.85149 59.9976 9.5 60H44.5C45.1485 59.9976 45.779 59.7861 46.2978 59.397C46.8166 59.0079 47.1961 58.4619 47.38 57.84L47.835 56.28C47.8785 56.131 47.8866 55.9739 47.8589 55.8211C47.8311 55.6684 47.7681 55.5242 47.675 55.4C47.5819 55.2758 47.4611 55.175 47.3222 55.1056C47.1834 55.0361 47.0302 55 46.875 55ZM9.5 58C9.28387 57.999 9.0738 57.9285 8.90089 57.7988C8.72799 57.6691 8.60144 57.4872 8.54 57.28L8.458 57H23C23 57.2652 23.1054 57.5196 23.2929 57.7071C23.4804 57.8946 23.7348 58 24 58H9.5ZM45.46 57.28C45.3986 57.4872 45.272 57.6691 45.0991 57.7988C44.9262 57.9285 44.7161 57.999 44.5 58H30C30.2652 58 30.5196 57.8946 30.7071 57.7071C30.8946 57.5196 31 57.2652 31 57H45.542L45.46 57.28Z" fill="#231F20"/>
</svg>
