<svg width="15" height="16" viewBox="0 0 15 16" fill="none" xmlns="http://www.w3.org/2000/svg">
<path d="M9.29337 8.51923C9.11105 8.30786 8.89218 8.15227 8.63623 8.05205C8.41655 7.96627 8.13796 7.88009 7.79991 7.79364V5.90255C8.17423 5.91946 8.53873 5.98982 8.89355 6.11241C8.94632 6.13341 8.98859 6.14405 9.02037 6.14405C9.11528 6.14405 9.19191 6.10982 9.25 6.04096C9.30782 5.9725 9.337 5.896 9.337 5.81118C9.337 5.65287 9.26309 5.54759 9.11541 5.49455C8.71668 5.347 8.27828 5.26164 7.80005 5.23941V4.27996C7.80005 4.09709 7.65168 3.94873 7.46868 3.94873C7.28568 3.94873 7.13732 4.09709 7.13732 4.27996V5.25632C6.87237 5.28796 6.6355 5.35314 6.42728 5.45105C6.11855 5.596 5.88496 5.79155 5.72664 6.03673C5.56832 6.28232 5.48923 6.55546 5.48923 6.85614C5.48923 7.19923 5.58414 7.47387 5.77423 7.67964C5.96418 7.88541 6.19137 8.03964 6.45523 8.14273C6.64178 8.21568 6.86896 8.29041 7.13732 8.36691V10.2236C6.70587 10.1887 6.2965 10.0848 5.90896 9.91218C5.86137 9.89118 5.81091 9.88055 5.75828 9.88055C5.6635 9.88055 5.58523 9.91327 5.52496 9.97968C5.46428 10.0454 5.43359 10.1233 5.43359 10.213C5.43359 10.282 5.45459 10.3464 5.497 10.407C5.53941 10.4677 5.59191 10.5114 5.65573 10.5377C6.12278 10.7398 6.61641 10.861 7.13732 10.9023V11.7898C7.13732 11.9728 7.28568 12.1211 7.46868 12.1211C7.65168 12.1211 7.80005 11.9728 7.80005 11.7898V10.9076C8.09568 10.8853 8.36255 10.8223 8.60064 10.7196C8.9065 10.5877 9.14446 10.4045 9.31341 10.1696C9.48196 9.93482 9.56664 9.66932 9.56664 9.37382C9.5665 9.01505 9.47514 8.73005 9.29337 8.51923ZM7.13732 7.62727C7.03341 7.59809 6.94178 7.56905 6.86268 7.5415C6.67518 7.47523 6.51959 7.38277 6.3955 7.26427C6.27141 7.14537 6.20964 6.99114 6.20964 6.80118C6.20964 6.51591 6.34041 6.29432 6.60168 6.136C6.75373 6.04396 6.93223 5.9785 7.13732 5.94018V7.62727ZM7.79991 10.2221V8.54705C7.97705 8.59709 8.12268 8.64168 8.23641 8.6815C8.41055 8.74218 8.55714 8.82509 8.67564 8.93064C8.79455 9.03632 8.85387 9.16805 8.85387 9.32636C8.85387 9.85586 8.50232 10.1548 7.79991 10.2221Z" fill="#4A4A4A"/>
<path d="M7.50055 0.535156C3.36518 0.535156 0 3.90034 0 8.0357C0 12.1712 3.36518 15.5352 7.50055 15.5352C11.6359 15.5352 15 12.1712 15 8.0357C15 3.90034 11.6359 0.535156 7.50055 0.535156ZM7.50055 14.6581C3.84859 14.6581 0.878182 11.6863 0.878182 8.0357C0.878182 4.38375 3.84859 1.41334 7.50055 1.41334C11.1525 1.41334 14.1229 4.38375 14.1229 8.0357C14.1229 11.6863 11.1525 14.6581 7.50055 14.6581Z" fill="#4A4A4A"/>
</svg>
