<svg width="14" height="14" viewBox="0 0 14 14" fill="none" xmlns="http://www.w3.org/2000/svg">
<path d="M1.4359 11.6666V1.61534H6.46154V6.64098H11.4872V7.35893C11.9897 7.35893 12.4708 7.45226 12.9231 7.61021V4.48714L8.61539 0.179443H1.4359C0.638974 0.179443 0 0.818418 0 1.61534V11.6666C0 12.4564 0.638974 13.1025 1.4359 13.1025H7.43077C7.27282 12.6502 7.17949 12.1692 7.17949 11.6666H1.4359ZM7.89744 1.25637L11.8462 5.20508H7.89744V1.25637ZM14 10.4102L10.5897 13.8205L8.61539 11.6666L9.4482 10.8338L10.5897 11.9753L13.1672 9.39791L14 10.4102Z" fill="white"/>
</svg>
