<svg width="12" height="12" viewBox="0 0 12 12" fill="none" xmlns="http://www.w3.org/2000/svg">
<path d="M3.32312 0.00375366H0.463125C0.320125 0.00375366 0.203125 0.120754 0.203125 0.263754V11.4438C0.203125 11.5868 0.320125 11.7038 0.463125 11.7038H3.32312C3.46612 11.7038 3.58312 11.5868 3.58312 11.4438V0.263754C3.58312 0.120754 3.46612 0.00375366 3.32312 0.00375366ZM3.06312 11.1838H0.723125V0.523754H3.06312V11.1838ZM11.6431 0.00375366H8.78312C8.64012 0.00375366 8.52312 0.120754 8.52312 0.263754V11.4438C8.52312 11.5868 8.64012 11.7038 8.78312 11.7038H11.6431C11.7861 11.7038 11.9031 11.5868 11.9031 11.4438V0.263754C11.9031 0.120754 11.7861 0.00375366 11.6431 0.00375366ZM11.3831 11.1838H9.04312V0.523754H11.3831V11.1838ZM7.48312 0.00375366H4.62312C4.48012 0.00375366 4.36312 0.120754 4.36312 0.263754V11.4438C4.36312 11.5868 4.48012 11.7038 4.62312 11.7038H7.48312C7.62612 11.7038 7.74312 11.5868 7.74312 11.4438V0.263754C7.74312 0.120754 7.62612 0.00375366 7.48312 0.00375366ZM7.22312 11.1838H4.88312V0.523754H7.22312V11.1838Z" fill="#D7282F"/>
</svg>
