<svg width="16" height="13" viewBox="0 0 16 13" fill="none" xmlns="http://www.w3.org/2000/svg">
<path d="M1.00408 12.7051H6.45863C6.63946 12.7051 6.81288 12.6352 6.94075 12.5108C7.06861 12.3863 7.14045 12.2176 7.14045 12.0416C7.14045 11.8657 7.06861 11.6969 6.94075 11.5725C6.81288 11.4481 6.63946 11.3782 6.45863 11.3782H1.73431C1.89976 10.2735 2.46804 9.26351 3.33539 8.53271C4.20274 7.8019 5.31129 7.39902 6.45863 7.39764C7.26145 7.40441 8.04142 7.13767 8.66334 6.64363C9.28526 6.1496 9.70995 5.45941 9.86381 4.69269C10.0177 3.92597 9.89098 3.13103 9.50572 2.44564C9.12046 1.76026 8.50091 1.22763 7.75443 0.940055C7.00795 0.652484 6.18159 0.628099 5.41858 0.871126C4.65556 1.11415 4.00397 1.60927 3.57674 2.27068C3.1495 2.93209 2.97355 3.7181 3.07937 4.49249C3.18519 5.26687 3.56612 5.98083 4.15613 6.51063C3.02445 6.95733 2.05529 7.72211 1.37241 8.70729C0.689523 9.69246 0.323913 10.8533 0.322266 12.0416C0.322266 12.2176 0.3941 12.3863 0.521966 12.5108C0.649831 12.6352 0.823254 12.7051 1.00408 12.7051ZM6.45863 2.09019C6.86318 2.09019 7.25865 2.20692 7.59502 2.42562C7.9314 2.64432 8.19357 2.95516 8.34838 3.31883C8.5032 3.68251 8.5437 4.08269 8.46478 4.46877C8.38586 4.85485 8.19105 5.20949 7.90498 5.48783C7.61892 5.76618 7.25446 5.95574 6.85768 6.03253C6.4609 6.10933 6.04963 6.06991 5.67587 5.91927C5.30211 5.76863 4.98265 5.51353 4.7579 5.18623C4.53314 4.85893 4.41317 4.47413 4.41317 4.08049C4.41317 3.55263 4.62868 3.04639 5.01227 2.67314C5.39587 2.29989 5.91614 2.09019 6.45863 2.09019ZM15.3223 9.38793C15.3223 9.56388 15.2504 9.73263 15.1226 9.85704C14.9947 9.98146 14.8213 10.0514 14.6404 10.0514H12.595V12.0416C12.595 12.2176 12.5232 12.3863 12.3953 12.5108C12.2674 12.6352 12.094 12.7051 11.9132 12.7051C11.7323 12.7051 11.5589 12.6352 11.4311 12.5108C11.3032 12.3863 11.2314 12.2176 11.2314 12.0416V10.0514H9.1859C9.00507 10.0514 8.83165 9.98146 8.70378 9.85704C8.57592 9.73263 8.50408 9.56388 8.50408 9.38793C8.50408 9.21197 8.57592 9.04323 8.70378 8.91881C8.83165 8.79439 9.00507 8.7245 9.1859 8.7245H11.2314V6.73421C11.2314 6.55825 11.3032 6.38951 11.4311 6.26509C11.5589 6.14067 11.7323 6.07078 11.9132 6.07078C12.094 6.07078 12.2674 6.14067 12.3953 6.26509C12.5232 6.38951 12.595 6.55825 12.595 6.73421V8.7245H14.6404C14.8213 8.7245 14.9947 8.79439 15.1226 8.91881C15.2504 9.04323 15.3223 9.21197 15.3223 9.38793Z" fill="#8A8A8A"/>
</svg>
