<svg width="14" height="15" viewBox="0 0 14 15" fill="none" xmlns="http://www.w3.org/2000/svg">
<path fill-rule="evenodd" clip-rule="evenodd" d="M6.98893 1.33838C3.30893 1.33838 0.322266 4.32505 0.322266 8.00505C0.322266 11.685 3.30893 14.6717 6.98893 14.6717H10.3223V13.3384H6.98893C4.0956 13.3384 1.6556 10.8984 1.6556 8.00505C1.6556 5.11171 4.0956 2.67171 6.98893 2.67171C9.88227 2.67171 12.3223 5.11171 12.3223 8.00505V8.95838C12.3223 9.48505 11.8489 10.005 11.3223 10.005C10.7956 10.005 10.3223 9.48505 10.3223 8.95838V8.00505C10.3223 6.16505 8.82893 4.67171 6.98893 4.67171C5.14893 4.67171 3.6556 6.16505 3.6556 8.00505C3.6556 9.84505 5.14893 11.3384 6.98893 11.3384C7.90893 11.3384 8.74893 10.965 9.34893 10.3584C9.78227 10.9517 10.5289 11.3384 11.3223 11.3384C12.6356 11.3384 13.6556 10.2717 13.6556 8.95838V8.00505C13.6556 4.32505 10.6689 1.33838 6.98893 1.33838ZM6.98893 10.005C5.88227 10.005 4.98893 9.11171 4.98893 8.00505C4.98893 6.89838 5.88227 6.00505 6.98893 6.00505C8.0956 6.00505 8.98893 6.89838 8.98893 8.00505C8.98893 9.11171 8.0956 10.005 6.98893 10.005Z" fill="#8A8A8A"/>
</svg>
