<svg width="15" height="15" viewBox="0 0 15 15" fill="none" xmlns="http://www.w3.org/2000/svg">
<path d="M8.48926 5.37177H9.07259C9.2273 5.37177 9.37567 5.31031 9.48507 5.20091C9.59447 5.09151 9.65592 4.94314 9.65592 4.78843C9.65592 4.63372 9.59447 4.48535 9.48507 4.37595C9.37567 4.26656 9.2273 4.2051 9.07259 4.2051H8.48926C8.33455 4.2051 8.18617 4.26656 8.07678 4.37595C7.96738 4.48535 7.90592 4.63372 7.90592 4.78843C7.90592 4.94314 7.96738 5.09151 8.07678 5.20091C8.18617 5.31031 8.33455 5.37177 8.48926 5.37177ZM8.48926 7.7051H9.07259C9.2273 7.7051 9.37567 7.64364 9.48507 7.53424C9.59447 7.42485 9.65592 7.27647 9.65592 7.12177C9.65592 6.96706 9.59447 6.81868 9.48507 6.70929C9.37567 6.59989 9.2273 6.53843 9.07259 6.53843H8.48926C8.33455 6.53843 8.18617 6.59989 8.07678 6.70929C7.96738 6.81868 7.90592 6.96706 7.90592 7.12177C7.90592 7.27647 7.96738 7.42485 8.07678 7.53424C8.18617 7.64364 8.33455 7.7051 8.48926 7.7051ZM5.57259 5.37177H6.15592C6.31063 5.37177 6.45901 5.31031 6.5684 5.20091C6.6778 5.09151 6.73926 4.94314 6.73926 4.78843C6.73926 4.63372 6.6778 4.48535 6.5684 4.37595C6.45901 4.26656 6.31063 4.2051 6.15592 4.2051H5.57259C5.41788 4.2051 5.26951 4.26656 5.16011 4.37595C5.05072 4.48535 4.98926 4.63372 4.98926 4.78843C4.98926 4.94314 5.05072 5.09151 5.16011 5.20091C5.26951 5.31031 5.41788 5.37177 5.57259 5.37177ZM5.57259 7.7051H6.15592C6.31063 7.7051 6.45901 7.64364 6.5684 7.53424C6.6778 7.42485 6.73926 7.27647 6.73926 7.12177C6.73926 6.96706 6.6778 6.81868 6.5684 6.70929C6.45901 6.59989 6.31063 6.53843 6.15592 6.53843H5.57259C5.41788 6.53843 5.26951 6.59989 5.16011 6.70929C5.05072 6.81868 4.98926 6.96706 4.98926 7.12177C4.98926 7.27647 5.05072 7.42485 5.16011 7.53424C5.26951 7.64364 5.41788 7.7051 5.57259 7.7051ZM12.5726 12.3718H11.9893V2.4551C11.9893 2.30039 11.9278 2.15202 11.8184 2.04262C11.709 1.93322 11.5606 1.87177 11.4059 1.87177H3.23926C3.08455 1.87177 2.93618 1.93322 2.82678 2.04262C2.71738 2.15202 2.65592 2.30039 2.65592 2.4551V12.3718H2.07259C1.91788 12.3718 1.76951 12.4332 1.66011 12.5426C1.55072 12.652 1.48926 12.8004 1.48926 12.9551C1.48926 13.1098 1.55072 13.2582 1.66011 13.3676C1.76951 13.477 1.91788 13.5384 2.07259 13.5384H12.5726C12.7273 13.5384 12.8757 13.477 12.9851 13.3676C13.0945 13.2582 13.1559 13.1098 13.1559 12.9551C13.1559 12.8004 13.0945 12.652 12.9851 12.5426C12.8757 12.4332 12.7273 12.3718 12.5726 12.3718ZM7.90592 12.3718H6.73926V10.0384H7.90592V12.3718ZM10.8226 12.3718H9.07259V9.4551C9.07259 9.30039 9.01113 9.15202 8.90174 9.04262C8.79234 8.93322 8.64397 8.87177 8.48926 8.87177H6.15592C6.00121 8.87177 5.85284 8.93322 5.74345 9.04262C5.63405 9.15202 5.57259 9.30039 5.57259 9.4551V12.3718H3.82259V3.03843H10.8226V12.3718Z" fill="#8A8A8A"/>
</svg>
