<svg width="15" height="15" viewBox="0 0 15 15" fill="none" xmlns="http://www.w3.org/2000/svg">
<path d="M6.15527 8.28843C6.40579 8.62334 6.7254 8.90045 7.09243 9.10098C7.45946 9.3015 7.86532 9.42075 8.28249 9.45063C8.69965 9.4805 9.11837 9.42031 9.51023 9.27414C9.90208 9.12796 10.2579 8.89922 10.5536 8.60343L12.3036 6.85343C12.8349 6.30334 13.1289 5.56659 13.1222 4.80184C13.1156 4.0371 12.8089 3.30557 12.2681 2.76479C11.7273 2.22402 10.9958 1.91728 10.231 1.91063C9.46629 1.90399 8.72953 2.19797 8.17944 2.72927L7.17611 3.72677" stroke="#8A8A8A" stroke-linecap="round" stroke-linejoin="round"/>
<path d="M8.48856 7.12173C8.23805 6.78683 7.91843 6.50971 7.55141 6.30919C7.18438 6.10866 6.77851 5.98942 6.36135 5.95954C5.94418 5.92966 5.52547 5.98985 5.13361 6.13603C4.74175 6.2822 4.38591 6.51094 4.09023 6.80673L2.34023 8.55673C1.80893 9.10682 1.51495 9.84358 1.52159 10.6083C1.52824 11.3731 1.83498 12.1046 2.37576 12.6454C2.91653 13.1861 3.64807 13.4929 4.41281 13.4995C5.17755 13.5062 5.9143 13.2122 6.46439 12.6809L7.46189 11.6834" stroke="#8A8A8A" stroke-linecap="round" stroke-linejoin="round"/>
</svg>
