<svg width="18" height="16" viewBox="0 0 18 16" fill="none" xmlns="http://www.w3.org/2000/svg">
<path d="M12.5549 13.9233L13.9762 15.3209C14.371 15.7157 14.9237 15.3999 14.9237 14.934V11.5545L17.1346 8.86983C17.5294 8.31711 17.1346 7.60646 16.5029 7.60646H10.9757C10.3441 7.60646 9.94925 8.39607 10.3441 8.86983L12.5549 11.5545V13.9233ZM10.9757 13.1337H0.710938V10.7649C0.710938 8.63295 4.89581 7.60646 7.02773 7.60646C7.50149 7.60646 8.05421 7.68542 8.68589 7.76438C8.52797 8.23815 8.60693 8.79087 8.76485 9.26464C8.21213 9.18567 7.58045 9.10671 7.02773 9.10671C4.65894 9.10671 2.21118 10.2911 2.21118 10.7649V11.6335H10.5809L10.9757 12.1072V13.1337ZM7.02773 0.5C5.29061 0.5 3.86934 1.92129 3.86934 3.65843C3.86934 5.39556 5.29061 6.81685 7.02773 6.81685C8.76485 6.81685 10.1861 5.39556 10.1861 3.65843C10.1861 1.92129 8.76485 0.5 7.02773 0.5ZM7.02773 5.23764C6.15917 5.23764 5.44853 4.52699 5.44853 3.65843C5.44853 2.78986 6.15917 2.07921 7.02773 2.07921C7.89629 2.07921 8.60693 2.78986 8.60693 3.65843C8.60693 4.52699 7.89629 5.23764 7.02773 5.23764Z" fill="white"/>
</svg>
