<svg width="12" height="14" viewBox="0 0 12 14" fill="none" xmlns="http://www.w3.org/2000/svg">
<path d="M9.84986 1.04804H7.35355C7.27593 0.748047 7.10086 0.48233 6.85583 0.292632C6.61081 0.102933 6.30971 0 5.99983 0C5.68995 0 5.38886 0.102933 5.14383 0.292632C4.8988 0.48233 4.72373 0.748047 4.64611 1.04804H2.1487C1.6845 1.04804 1.23932 1.23245 0.911078 1.56069C0.58284 1.88892 0.398438 2.33411 0.398438 2.79831V12.2497C0.398438 12.7139 0.58284 13.1591 0.911078 13.4874C1.23932 13.8156 1.6845 14 2.1487 14H9.84986C10.3141 14 10.7593 13.8156 11.0875 13.4874C11.4157 13.1591 11.6001 12.7139 11.6001 12.2497V2.79831C11.6001 2.33411 11.4157 1.88892 11.0875 1.56069C10.7593 1.23245 10.3141 1.04804 9.84986 1.04804ZM10.9 11.1996C10.8997 11.478 10.789 11.745 10.5921 11.9418C10.3952 12.1387 10.1283 12.2494 9.84986 12.2497H2.1487C1.94212 12.2495 1.74017 12.1885 1.56805 12.0743C1.39593 11.96 1.26127 11.7976 1.18086 11.6073C1.46746 11.7984 1.80427 11.9001 2.1487 11.8997H7.40332L10.9 8.39915V11.1996ZM7.74955 10.5574V9.09926C7.74984 8.82083 7.86057 8.55389 8.05745 8.35701C8.25433 8.16013 8.52128 8.04939 8.79971 8.0491H10.2516L7.74955 10.5574ZM5.99928 0.697992C6.13775 0.697992 6.27311 0.739052 6.38824 0.815981C6.50337 0.892909 6.59311 1.00225 6.6461 1.13018C6.69909 1.25811 6.71295 1.39887 6.68594 1.53468C6.65892 1.67049 6.59224 1.79524 6.49433 1.89315C6.39642 1.99106 6.27168 2.05774 6.13587 2.08475C6.00006 2.11176 5.85929 2.0979 5.73136 2.04491C5.60344 1.99192 5.4941 1.90219 5.41717 1.78706C5.34024 1.67192 5.29918 1.53657 5.29918 1.3981C5.2994 1.21248 5.37323 1.03454 5.50447 0.903288C5.63572 0.77204 5.81367 0.698209 5.99928 0.697992ZM1.09854 2.79831C1.09883 2.51988 1.20957 2.25293 1.40645 2.05605C1.60333 1.85917 1.87027 1.74844 2.1487 1.74815H4.64502C4.72264 2.04815 4.89771 2.31386 5.14274 2.50356C5.38776 2.69326 5.68886 2.79619 5.99874 2.79619C6.30861 2.79619 6.60971 2.69326 6.85474 2.50356C7.09977 2.31386 7.27484 2.04815 7.35246 1.74815H9.84986C10.1283 1.74844 10.3952 1.85917 10.5921 2.05605C10.789 2.25293 10.8997 2.51988 10.9 2.79831V7.349H8.79971C8.33551 7.349 7.89032 7.5334 7.56208 7.86164C7.23384 8.18987 7.04944 8.63506 7.04944 9.09926V11.1996H2.1487C1.87027 11.1993 1.60333 11.0886 1.40645 10.8917C1.20957 10.6948 1.09883 10.4278 1.09854 10.1494V2.79831ZM9.84986 13.2999H2.1487C1.94212 13.2997 1.74017 13.2387 1.56805 13.1244C1.39593 13.0102 1.26127 12.8478 1.18086 12.6575C1.46746 12.8485 1.80427 12.9503 2.1487 12.9498H9.84986C10.1943 12.9503 10.5311 12.8485 10.8177 12.6575C10.7373 12.8478 10.6026 13.0102 10.4305 13.1244C10.2584 13.2387 10.0564 13.2997 9.84986 13.2999Z" fill="white"/>
</svg>
