<svg width="18" height="18" viewBox="0 0 18 18" fill="none" xmlns="http://www.w3.org/2000/svg">
<path d="M13.1193 12.9434C13.3928 12.7463 13.5967 12.4676 13.7018 12.1473C13.8069 11.827 13.8077 11.4816 13.7042 11.1608C13.6006 10.84 13.398 10.5603 13.1255 10.3619C12.853 10.1635 12.5246 10.0566 12.1875 10.0566C11.8504 10.0566 11.522 10.1635 11.2495 10.3619C10.977 10.5603 10.7744 10.84 10.6708 11.1608C10.5673 11.4816 10.5681 11.827 10.6732 12.1473C10.7783 12.4676 10.9822 12.7463 11.2557 12.9434C10.8989 13.1167 10.598 13.3867 10.387 13.7227C10.1761 14.0586 10.0637 14.447 10.0625 14.8436C10.0625 15.1254 10.1744 15.3957 10.3737 15.5949C10.573 15.7942 10.8432 15.9061 11.125 15.9061H13.25C13.5318 15.9061 13.802 15.7942 14.0013 15.5949C14.2006 15.3957 14.3125 15.1254 14.3125 14.8436C14.3113 14.447 14.1989 14.0586 13.988 13.7227C13.777 13.3867 13.4761 13.1167 13.1193 12.9434ZM12.1875 11.1249C12.2926 11.1249 12.3953 11.156 12.4826 11.2144C12.57 11.2728 12.6381 11.3558 12.6783 11.4528C12.7185 11.5499 12.729 11.6567 12.7085 11.7598C12.688 11.8628 12.6374 11.9575 12.5632 12.0318C12.4889 12.1061 12.3942 12.1567 12.2911 12.1772C12.1881 12.1977 12.0813 12.1872 11.9842 12.147C11.8871 12.1067 11.8042 12.0386 11.7458 11.9513C11.6874 11.8639 11.6562 11.7612 11.6562 11.6561C11.6562 11.5152 11.7122 11.3801 11.8118 11.2805C11.9115 11.1809 12.0466 11.1249 12.1875 11.1249ZM11.125 14.8436C11.125 14.5618 11.2369 14.2916 11.4362 14.0923C11.6355 13.8931 11.9057 13.7811 12.1875 13.7811C12.4693 13.7811 12.7395 13.8931 12.9388 14.0923C13.1381 14.2916 13.25 14.5618 13.25 14.8436H11.125Z" fill="white"/>
<path d="M6.74431 12.9434C7.01779 12.7463 7.22173 12.4676 7.32682 12.1473C7.43191 11.827 7.43274 11.4816 7.32919 11.1608C7.22564 10.84 7.02304 10.5603 6.75052 10.3619C6.478 10.1635 6.14959 10.0566 5.8125 10.0566C5.47541 10.0566 5.147 10.1635 4.87448 10.3619C4.60196 10.5603 4.39936 10.84 4.29581 11.1608C4.19226 11.4816 4.19309 11.827 4.29818 12.1473C4.40327 12.4676 4.60721 12.7463 4.88069 12.9434C4.52392 13.1167 4.22296 13.3867 4.01203 13.7227C3.8011 14.0586 3.68866 14.447 3.6875 14.8436C3.6875 15.1254 3.79944 15.3957 3.9987 15.5949C4.19796 15.7942 4.46821 15.9061 4.75 15.9061H6.875C7.15679 15.9061 7.42704 15.7942 7.6263 15.5949C7.82556 15.3957 7.9375 15.1254 7.9375 14.8436C7.93634 14.447 7.8239 14.0586 7.61297 13.7227C7.40204 13.3867 7.10108 13.1167 6.74431 12.9434ZM5.8125 11.1249C5.91757 11.1249 6.02028 11.156 6.10765 11.2144C6.19501 11.2728 6.2631 11.3558 6.30331 11.4528C6.34352 11.5499 6.35404 11.6567 6.33354 11.7598C6.31304 11.8628 6.26245 11.9575 6.18815 12.0318C6.11385 12.1061 6.01919 12.1567 5.91614 12.1772C5.81309 12.1977 5.70627 12.1872 5.6092 12.147C5.51213 12.1067 5.42916 12.0386 5.37078 11.9513C5.31241 11.8639 5.28125 11.7612 5.28125 11.6561C5.28125 11.5152 5.33722 11.3801 5.43685 11.2805C5.53648 11.1809 5.6716 11.1249 5.8125 11.1249ZM4.75 14.8436C4.75 14.5618 4.86194 14.2916 5.0612 14.0923C5.26046 13.8931 5.53071 13.7811 5.8125 13.7811C6.09429 13.7811 6.36454 13.8931 6.5638 14.0923C6.76306 14.2916 6.875 14.5618 6.875 14.8436H4.75Z" fill="white"/>
<path d="M14.3138 7.30626V6.87489C14.3165 6.4774 14.2056 6.08741 13.9943 5.75078C13.7829 5.41415 13.4798 5.14487 13.1206 4.97461C13.3941 4.77752 13.598 4.4988 13.7031 4.17851C13.8082 3.85822 13.809 3.51286 13.7055 3.19206C13.6019 2.87127 13.3993 2.59157 13.1268 2.39317C12.8543 2.19477 12.5259 2.08789 12.1888 2.08789C11.8517 2.08789 11.5233 2.19477 11.2508 2.39317C10.9783 2.59157 10.7757 2.87127 10.6721 3.19206C10.5686 3.51286 10.5694 3.85822 10.6745 4.17851C10.7796 4.4988 10.9835 4.77752 11.257 4.97461C10.9003 5.14803 10.5993 5.41805 10.3884 5.75397C10.1775 6.08989 10.065 6.47824 10.0638 6.87489H7.9388C7.9415 6.4774 7.83064 6.08741 7.61927 5.75078C7.4079 5.41415 7.1048 5.14487 6.74561 4.97461C7.01909 4.77752 7.22303 4.4988 7.32812 4.17851C7.43321 3.85822 7.43404 3.51286 7.33049 3.19206C7.22694 2.87127 7.02434 2.59157 6.75182 2.39317C6.4793 2.19477 6.15089 2.08789 5.8138 2.08789C5.47671 2.08789 5.1483 2.19477 4.87578 2.39317C4.60326 2.59157 4.40066 2.87127 4.29711 3.19206C4.19356 3.51286 4.19439 3.85822 4.29948 4.17851C4.40457 4.4988 4.60851 4.77752 4.88199 4.97461C4.52526 5.14803 4.22434 5.41805 4.01341 5.75397C3.80249 6.08989 3.69002 6.47824 3.6888 6.87489V7.30414C3.44653 7.44294 3.22316 7.61239 3.02421 7.8083C2.48277 8.35005 2.15513 9.06907 2.10154 9.83313C2.04796 10.5972 2.27203 11.3549 2.73255 11.9669C2.77472 12.0227 2.82748 12.0697 2.8878 12.1051C2.94812 12.1405 3.01482 12.1637 3.08411 12.1734C3.1534 12.183 3.2239 12.1789 3.2916 12.1613C3.35931 12.1437 3.42288 12.113 3.47869 12.0708C3.5345 12.0286 3.58146 11.9759 3.61689 11.9155C3.65231 11.8552 3.67551 11.7885 3.68515 11.7192C3.6948 11.6499 3.6907 11.5794 3.67309 11.5117C3.65549 11.444 3.62472 11.3805 3.58255 11.3246C3.30778 10.9611 3.15862 10.5181 3.15755 10.0624C3.15643 9.78302 3.21062 9.50618 3.31702 9.24786C3.42341 8.98953 3.57989 8.75483 3.77744 8.55728C3.97499 8.35973 4.20969 8.20325 4.46802 8.09686C4.72634 7.99046 5.00318 7.93626 5.28255 7.93739H12.72C13.2836 7.93739 13.8241 8.16127 14.2227 8.55979C14.6212 8.9583 14.845 9.4988 14.845 10.0624C14.8477 10.5226 14.6983 10.9708 14.4201 11.3374C14.3355 11.4501 14.2992 11.5918 14.3191 11.7313C14.3391 11.8707 14.4136 11.9966 14.5263 12.0811C14.639 12.1657 14.7807 12.202 14.9202 12.182C15.0597 12.1621 15.1855 12.0876 15.2701 11.9749C15.6871 11.4249 15.9112 10.7527 15.9075 10.0624C15.9068 9.5036 15.7591 8.95483 15.4794 8.4711C15.1997 7.98736 14.7977 7.58566 14.3138 7.30626ZM5.8138 3.15614C5.91887 3.15614 6.02158 3.1873 6.10895 3.24567C6.19631 3.30405 6.2644 3.38702 6.30461 3.48409C6.34482 3.58116 6.35534 3.68798 6.33484 3.79103C6.31434 3.89408 6.26375 3.98874 6.18945 4.06304C6.11515 4.13734 6.02049 4.18793 5.91744 4.20843C5.81439 4.22893 5.70757 4.21841 5.6105 4.1782C5.51343 4.13799 5.43046 4.0699 5.37208 3.98254C5.31371 3.89517 5.28255 3.79246 5.28255 3.68739C5.28255 3.54649 5.33852 3.41137 5.43815 3.31174C5.53778 3.21211 5.6729 3.15614 5.8138 3.15614ZM4.7513 6.92217V6.87489C4.7513 6.5931 4.86324 6.32285 5.0625 6.12359C5.26176 5.92433 5.53201 5.81239 5.8138 5.81239C6.09559 5.81239 6.36584 5.92433 6.5651 6.12359C6.76436 6.32285 6.8763 6.5931 6.8763 6.87489H5.28255C5.10446 6.87587 4.92676 6.89169 4.7513 6.92217ZM12.1888 3.15614C12.2939 3.15614 12.3966 3.1873 12.4839 3.24567C12.5713 3.30405 12.6394 3.38702 12.6796 3.48409C12.7198 3.58116 12.7303 3.68798 12.7098 3.79103C12.6893 3.89408 12.6387 3.98874 12.5645 4.06304C12.4902 4.13734 12.3955 4.18793 12.2924 4.20843C12.1894 4.22893 12.0826 4.21841 11.9855 4.1782C11.8884 4.13799 11.8055 4.0699 11.7471 3.98254C11.6887 3.89517 11.6575 3.79246 11.6575 3.68739C11.6575 3.54649 11.7135 3.41137 11.8131 3.31174C11.9128 3.21211 12.0479 3.15614 12.1888 3.15614ZM11.1263 6.87489C11.1263 6.5931 11.2382 6.32285 11.4375 6.12359C11.6368 5.92433 11.907 5.81239 12.1888 5.81239C12.4706 5.81239 12.7408 5.92433 12.9401 6.12359C13.1394 6.32285 13.2513 6.5931 13.2513 6.87489V6.9227C13.0759 6.89195 12.8982 6.87596 12.72 6.87489H11.1263Z" fill="white"/>
<path d="M9.53125 12.1875H8.46875C8.32785 12.1875 8.19273 12.2435 8.0931 12.3431C7.99347 12.4427 7.9375 12.5779 7.9375 12.7188C7.9375 12.8596 7.99347 12.9948 8.0931 13.0944C8.19273 13.194 8.32785 13.25 8.46875 13.25H9.53125C9.67215 13.25 9.80727 13.194 9.9069 13.0944C10.0065 12.9948 10.0625 12.8596 10.0625 12.7188C10.0625 12.5779 10.0065 12.4427 9.9069 12.3431C9.80727 12.2435 9.67215 12.1875 9.53125 12.1875Z" fill="white"/>
</svg>
