<svg width="17" height="16" viewBox="0 0 17 16" fill="none" xmlns="http://www.w3.org/2000/svg">
<path d="M12.1663 14.1284L13.5875 15.526C13.9823 15.9208 14.5351 15.605 14.5351 15.1391V11.7596L16.7459 9.07491C17.1407 8.52219 16.7459 7.81154 16.1143 7.81154H10.5871C9.95538 7.81154 9.56058 8.60115 9.95538 9.07491L12.1663 11.7596V14.1284ZM10.5871 13.3388H0.322266V10.97C0.322266 8.83803 4.50714 7.81154 6.63906 7.81154C7.11282 7.81154 7.66554 7.8905 8.29722 7.96946C8.1393 8.44322 8.21826 8.99595 8.37618 9.46971C7.82346 9.39075 7.19178 9.31179 6.63906 9.31179C4.27026 9.31179 1.8225 10.4962 1.8225 10.97V11.8385H10.1923L10.5871 12.3123V13.3388ZM6.63906 0.705078C4.90194 0.705078 3.48066 2.12637 3.48066 3.86351C3.48066 5.60064 4.90194 7.02193 6.63906 7.02193C8.37618 7.02193 9.79746 5.60064 9.79746 3.86351C9.79746 2.12637 8.37618 0.705078 6.63906 0.705078ZM6.63906 5.44272C5.7705 5.44272 5.05986 4.73207 5.05986 3.86351C5.05986 2.99494 5.7705 2.28429 6.63906 2.28429C7.50762 2.28429 8.21826 2.99494 8.21826 3.86351C8.21826 4.73207 7.50762 5.44272 6.63906 5.44272Z" fill="#DBDBDB"/>
</svg>
