<svg width="23" height="22" viewBox="0 0 23 22" fill="none" xmlns="http://www.w3.org/2000/svg">
<g clip-path="url(#clip0_2142_69802)">
<path d="M19.5005 7.81033C19.4331 7.80192 19.3648 7.80703 19.2995 7.82536C19.2342 7.84369 19.1732 7.87488 19.12 7.91709L15.0062 11.1101L14.1212 10.4207L10.8995 7.92086C10.8456 7.87872 10.7838 7.84765 10.7178 7.82941C10.6519 7.81118 10.5829 7.80615 10.515 7.81461C10.447 7.82307 10.3814 7.84485 10.3219 7.87871C10.2624 7.91257 10.2102 7.95784 10.1682 8.01192C10.1262 8.06601 10.0953 8.12784 10.0773 8.19389C10.0593 8.25993 10.0544 8.32888 10.0631 8.3968C10.0718 8.46471 10.0937 8.53025 10.1278 8.58965C10.1618 8.64905 10.2072 8.70116 10.2614 8.74297L12.988 10.8612L10.2405 13.2821C10.1879 13.3263 10.1447 13.3806 10.1135 13.4418C10.0823 13.503 10.0637 13.5699 10.0589 13.6384C10.0541 13.7069 10.063 13.7757 10.0853 13.8407C10.1076 13.9057 10.1427 13.9655 10.1886 14.0167L10.1891 14.0172C10.2381 14.0722 10.2981 14.1163 10.3652 14.1467C10.4323 14.1771 10.505 14.193 10.5786 14.1935C10.7068 14.1946 10.8307 14.1471 10.9251 14.0604L13.8226 11.507L14.6837 12.1748C14.7755 12.2471 14.8891 12.286 15.006 12.2851C15.1221 12.2853 15.235 12.2469 15.3268 12.1759L16.219 11.4847L19.0862 14.0559C19.1807 14.143 19.3048 14.1908 19.4333 14.1896C19.5068 14.1897 19.5795 14.1744 19.6467 14.1446C19.7139 14.1148 19.7741 14.0712 19.8234 14.0167C19.9148 13.9135 19.9619 13.7784 19.9543 13.6408C19.9468 13.5031 19.8852 13.374 19.783 13.2815L17.0571 10.8356L19.758 8.73926C19.8128 8.69717 19.8586 8.64454 19.8928 8.58448C19.9269 8.52442 19.9487 8.45814 19.9569 8.38953C19.9653 8.32222 19.9602 8.25391 19.9419 8.1886C19.9236 8.12329 19.8924 8.06229 19.8502 8.00917C19.8081 7.95438 19.7555 7.90856 19.6954 7.87441C19.6354 7.84026 19.5691 7.81848 19.5005 7.81033Z" fill="#2D3E50"/>
<path d="M6.08419 10.5005H3.11182C2.97934 10.5005 2.85229 10.5531 2.75861 10.6468C2.66493 10.7405 2.6123 10.8675 2.6123 11C2.6123 11.1325 2.66493 11.2595 2.75861 11.3532C2.85229 11.4469 2.97934 11.4995 3.11182 11.4995H6.08419C6.21667 11.4995 6.34372 11.4469 6.4374 11.3532C6.53108 11.2595 6.58371 11.1325 6.58371 11C6.58371 10.8675 6.53108 10.7405 6.4374 10.6468C6.34372 10.5531 6.21667 10.5005 6.08419 10.5005Z" fill="#231F20"/>
<path d="M6.08417 8.16516H1.60498C1.53921 8.1653 1.47412 8.17841 1.41342 8.20372C1.35271 8.22903 1.2976 8.26605 1.25121 8.31267C1.20482 8.35929 1.16807 8.41459 1.14307 8.47542C1.11806 8.53625 1.10529 8.60141 1.10547 8.66717C1.1078 8.79869 1.16125 8.92414 1.2545 9.01692C1.34774 9.10971 1.47345 9.16254 1.60498 9.16422H6.08417C6.21665 9.16422 6.34371 9.11159 6.43739 9.01791C6.53107 8.92423 6.5837 8.79717 6.5837 8.66469C6.5837 8.53221 6.53107 8.40515 6.43739 8.31147C6.34371 8.21779 6.21665 8.16516 6.08417 8.16516Z" fill="#231F20"/>
<path d="M6.08328 12.8358H4.12648C3.994 12.8358 3.86694 12.8884 3.77326 12.9821C3.67958 13.0758 3.62695 13.2029 3.62695 13.3353C3.62695 13.4678 3.67958 13.5949 3.77326 13.6886C3.86694 13.7822 3.994 13.8349 4.12648 13.8349H6.08328C6.21576 13.8349 6.34282 13.7822 6.4365 13.6886C6.53018 13.5949 6.5828 13.4678 6.5828 13.3353C6.5828 13.2029 6.53018 13.0758 6.4365 12.9821C6.34282 12.8884 6.21577 12.8358 6.08328 12.8358Z" fill="#231F20"/>
<path d="M21.022 5.46606H8.99587C8.60135 5.46651 8.22312 5.62343 7.94415 5.9024C7.66518 6.18137 7.50826 6.5596 7.50781 6.95412V15.046C7.50826 15.4405 7.66519 15.8187 7.94415 16.0977C8.22312 16.3766 8.60135 16.5336 8.99587 16.534H21.022C21.4165 16.5336 21.7947 16.3766 22.0737 16.0977C22.3527 15.8187 22.5096 15.4405 22.51 15.046V6.95412C22.5096 6.55961 22.3527 6.18137 22.0737 5.90241C21.7947 5.62344 21.4165 5.46652 21.022 5.46606ZM21.6844 15.046C21.6842 15.2216 21.6143 15.39 21.4901 15.5141C21.366 15.6383 21.1976 15.7082 21.022 15.7084H8.99587C8.82025 15.7082 8.65188 15.6383 8.5277 15.5141C8.40351 15.39 8.33366 15.2216 8.33346 15.046V6.95412C8.33366 6.7785 8.40351 6.61013 8.52769 6.48594C8.65188 6.36176 8.82025 6.29191 8.99587 6.29172H21.022C21.1976 6.29191 21.366 6.36177 21.4902 6.48595C21.6143 6.61013 21.6842 6.7785 21.6844 6.95412V15.046Z" fill="#2D3E50"/>
</g>
<defs>
<clipPath id="clip0_2142_69802">
<rect width="22" height="22" fill="white" transform="translate(0.807617)"/>
</clipPath>
</defs>
</svg>
