<svg width="24" height="24" viewBox="0 0 24 24" fill="none" xmlns="http://www.w3.org/2000/svg">
<path d="M1 12V6C1 5.20435 1.31607 4.44129 1.87868 3.87868C2.44129 3.31607 3.20435 3 4 3H20C20.7956 3 21.5587 3.31607 22.1213 3.87868C22.6839 4.44129 23 5.20435 23 6V18C23 18.7956 22.6839 19.5587 22.1213 20.1213C21.5587 20.6839 20.7956 21 20 21H13" stroke="#6E7B87" stroke-width="2" stroke-linecap="round" stroke-linejoin="round"/>
<path d="M22 4L12 13L2 4" stroke="#6E7B87" stroke-width="2" stroke-linecap="round" stroke-linejoin="round"/>
<path d="M19 15L15 11" stroke="#6E7B87" stroke-width="2" stroke-linecap="round" stroke-linejoin="round"/>
<path d="M4.63757 16.4999L1.01644 19.5134L4.67045 22.4998" stroke="#D7282F" stroke-width="2" stroke-linecap="round" stroke-linejoin="round"/>
<path d="M1.01367 19.5134L9.50133 19.4818" stroke="#D7282F" stroke-width="2" stroke-linecap="round" stroke-linejoin="round"/>
</svg>
