<svg width="24" height="22" viewBox="0 0 24 22" fill="none" xmlns="http://www.w3.org/2000/svg">
<path d="M23 10V4C23 3.20435 22.6839 2.44129 22.1213 1.87868C21.5587 1.31607 20.7956 1 20 1H4C3.20435 1 2.44129 1.31607 1.87868 1.87868C1.31607 2.44129 1 3.20435 1 4V16C1 16.7956 1.31607 17.5587 1.87868 18.1213C2.44129 18.6839 3.20435 19 4 19H11" stroke="#6E7B87" stroke-width="2" stroke-linecap="round" stroke-linejoin="round"/>
<path d="M2 2L12 11L22 2" stroke="#6E7B87" stroke-width="2" stroke-linecap="round" stroke-linejoin="round"/>
<path d="M5 13L9 9" stroke="#6E7B87" stroke-width="2" stroke-linecap="round" stroke-linejoin="round"/>
<path d="M19.3624 14.4999L22.9836 17.5134L19.3295 20.4998" stroke="#5BB943" stroke-width="2" stroke-linecap="round" stroke-linejoin="round"/>
<path d="M22.9863 17.5135L14.4987 17.4818" stroke="#5BB943" stroke-width="2" stroke-linecap="round" stroke-linejoin="round"/>
</svg>
