<svg width="22" height="22" viewBox="0 0 22 22" fill="none" xmlns="http://www.w3.org/2000/svg">
<g id="2232677461581068809 1" clip-path="url(#clip0_3884_4119)">
<path id="Vector" d="M5.55078 11.6562C7.27236 11.6562 8.66797 10.2606 8.66797 8.53906C8.66797 6.81749 7.27236 5.42188 5.55078 5.42188C3.82921 5.42188 2.43359 6.81749 2.43359 8.53906C2.43359 10.2606 3.82921 11.6562 5.55078 11.6562Z" stroke="#D7282F" stroke-width="1.5" stroke-miterlimit="10"/>
<path id="Vector_2" d="M1.12186 16.5781C1.11056 15.943 1.2245 15.3118 1.45717 14.7206C1.68984 14.1295 2.03669 13.59 2.47791 13.133C2.91912 12.6759 3.44605 12.3102 4.02861 12.0569C4.61117 11.8035 5.23793 11.6674 5.87311 11.6562M10.3094 16.5781C10.3207 15.943 10.2067 15.3118 9.97405 14.7206C9.74138 14.1295 9.39453 13.59 8.95331 13.133C8.5121 12.6759 7.98516 12.3102 7.40261 12.0569C6.82005 11.8035 6.19329 11.6674 5.55811 11.6562" stroke="#D7282F" stroke-width="1.5" stroke-miterlimit="10"/>
<path id="Vector_3" d="M12.2773 5.42188H21.4648" stroke="#D7282F" stroke-width="1.5" stroke-miterlimit="10"/>
<path id="Vector_4" d="M12.2773 10.6719H21.4648" stroke="#D7282F" stroke-width="1.5" stroke-miterlimit="10"/>
<path id="Vector_5" d="M12.2773 15.9219H21.4648" stroke="#D7282F" stroke-width="1.5" stroke-miterlimit="10"/>
</g>
<defs>
<clipPath id="clip0_3884_4119">
<rect width="21" height="21" fill="white" transform="translate(0.792969 0.5)"/>
</clipPath>
</defs>
</svg>
