<svg width="22" height="22" viewBox="0 0 22 22" fill="none" xmlns="http://www.w3.org/2000/svg">
<g id="Vector">
<path d="M18.7223 10.0455H21.5859V11.9545H18.7223V10.0455ZM0.585938 10.0455H3.44957V11.9545H0.585938V10.0455ZM12.0405 0.5V3.36364H10.1314V0.5H12.0405ZM4.32776 2.88636L6.36094 4.92909L5.00548 6.275L2.9723 4.25136L4.32776 2.88636ZM15.8109 4.91955L17.8346 2.88636L19.1996 4.25136L17.1664 6.275L15.8109 4.91955ZM11.0859 5.27273C12.6049 5.27273 14.0617 5.87613 15.1357 6.95021C16.2098 8.02428 16.8132 9.48103 16.8132 11C16.8132 13.1191 15.6582 14.9709 13.9496 15.9636V17.6818C13.9496 17.935 13.849 18.1778 13.67 18.3568C13.491 18.5358 13.2482 18.6364 12.995 18.6364H9.17685C8.92369 18.6364 8.68089 18.5358 8.50188 18.3568C8.32287 18.1778 8.2223 17.935 8.2223 17.6818V15.9636C6.51366 14.9709 5.35866 13.1191 5.35866 11C5.35866 9.48103 5.96207 8.02428 7.03614 6.95021C8.11022 5.87613 9.56697 5.27273 11.0859 5.27273ZM12.995 19.5909V20.5455C12.995 20.7986 12.8945 21.0414 12.7154 21.2204C12.5364 21.3994 12.2936 21.5 12.0405 21.5H10.1314C9.87823 21.5 9.63544 21.3994 9.45643 21.2204C9.27741 21.0414 9.17685 20.7986 9.17685 20.5455V19.5909H12.995ZM10.1314 16.7273H12.0405V14.6941C13.6918 14.2741 14.9041 12.7755 14.9041 11C14.9041 9.98736 14.5018 9.01619 13.7858 8.30014C13.0698 7.58409 12.0986 7.18182 11.0859 7.18182C10.0733 7.18182 9.10212 7.58409 8.38608 8.30014C7.67003 9.01619 7.26776 9.98736 7.26776 11C7.26776 12.7755 8.48003 14.2741 10.1314 14.6941V16.7273Z" fill="#A386C7"/>
<path d="M18.7223 10.0455H21.5859V11.9545H18.7223V10.0455ZM0.585938 10.0455H3.44957V11.9545H0.585938V10.0455ZM12.0405 0.5V3.36364H10.1314V0.5H12.0405ZM4.32776 2.88636L6.36094 4.92909L5.00548 6.275L2.9723 4.25136L4.32776 2.88636ZM15.8109 4.91955L17.8346 2.88636L19.1996 4.25136L17.1664 6.275L15.8109 4.91955ZM11.0859 5.27273C12.6049 5.27273 14.0617 5.87613 15.1357 6.95021C16.2098 8.02428 16.8132 9.48103 16.8132 11C16.8132 13.1191 15.6582 14.9709 13.9496 15.9636V17.6818C13.9496 17.935 13.849 18.1778 13.67 18.3568C13.491 18.5358 13.2482 18.6364 12.995 18.6364H9.17685C8.92369 18.6364 8.68089 18.5358 8.50188 18.3568C8.32287 18.1778 8.2223 17.935 8.2223 17.6818V15.9636C6.51366 14.9709 5.35866 13.1191 5.35866 11C5.35866 9.48103 5.96207 8.02428 7.03614 6.95021C8.11022 5.87613 9.56697 5.27273 11.0859 5.27273ZM12.995 19.5909V20.5455C12.995 20.7986 12.8945 21.0414 12.7154 21.2204C12.5364 21.3994 12.2936 21.5 12.0405 21.5H10.1314C9.87823 21.5 9.63544 21.3994 9.45643 21.2204C9.27741 21.0414 9.17685 20.7986 9.17685 20.5455V19.5909H12.995ZM10.1314 16.7273H12.0405V14.6941C13.6918 14.2741 14.9041 12.7755 14.9041 11C14.9041 9.98736 14.5018 9.01619 13.7858 8.30014C13.0698 7.58409 12.0986 7.18182 11.0859 7.18182C10.0733 7.18182 9.10212 7.58409 8.38608 8.30014C7.67003 9.01619 7.26776 9.98736 7.26776 11C7.26776 12.7755 8.48003 14.2741 10.1314 14.6941V16.7273Z" fill="#A386C7" fill-opacity="0.2"/>
</g>
</svg>
