<svg width="21" height="22" viewBox="0 0 21 22" fill="none" xmlns="http://www.w3.org/2000/svg">
<g id="company 1">
<path id="Vector" d="M4.52098 12.4414H2.84375V14.1186H4.52098V12.4414Z" fill="#4476CF"/>
<path id="Vector_2" d="M7.48193 12.4414H5.80469V14.1186H7.48193V12.4414Z" fill="#4476CF"/>
<path id="Vector_3" d="M4.52098 15.4668H2.84375V17.144H4.52098V15.4668Z" fill="#4476CF"/>
<path id="Vector_4" d="M7.48193 15.4668H5.80469V17.144H7.48193V15.4668Z" fill="#4476CF"/>
<path id="Vector_5" d="M17.4389 15.4668H15.7617V17.144H17.4389V15.4668Z" fill="#4476CF"/>
<path id="Vector_6" d="M17.4389 12.4414H15.7617V14.1186H17.4389V12.4414Z" fill="#4476CF"/>
<path id="Vector_7" d="M8.29834 6.55273H6.62109V8.22998H8.29834V6.55273Z" fill="#4476CF"/>
<path id="Vector_8" d="M11.2593 6.55273H9.58203V8.22998H11.2593V6.55273Z" fill="#4476CF"/>
<path id="Vector_9" d="M13.672 8.80109V7.58826H13.6695V1.21582L4.19724 4.81471V8.80105L0.332031 8.8009V20.783L20.6693 20.7833V8.80109H13.672ZM8.85422 19.6434L1.47174 19.6433V9.94067L5.33696 9.94083V9.94066L8.85422 9.9408L8.85422 19.6434ZM12.5298 7.58826H12.5011V19.6435L9.61405 19.6434V9.18099L5.33697 9.18085V5.60089L12.5298 2.86807L12.5298 7.58826ZM19.5295 19.6435L13.672 19.6435V9.9408H19.5295L19.5295 19.6435Z" fill="#4476CF"/>
</g>
</svg>
