<svg width="19" height="18" viewBox="0 0 19 18" fill="none" xmlns="http://www.w3.org/2000/svg">
<path d="M15.4425 2.95312H12.3825C12.2706 2.95313 12.1633 2.99757 12.0842 3.07669C12.005 3.15581 11.9606 3.26311 11.9606 3.375C11.9606 3.48689 12.005 3.59419 12.0842 3.67331C12.1633 3.75243 12.2706 3.79688 12.3825 3.79688H14.4244L11.1675 7.05375C11.126 7.09237 11.0928 7.13895 11.0697 7.1907C11.0467 7.24245 11.0343 7.29831 11.0333 7.35496C11.0323 7.4116 11.0427 7.46787 11.0639 7.5204C11.0851 7.57293 11.1167 7.62065 11.1568 7.66071C11.1968 7.70077 11.2445 7.73235 11.2971 7.75357C11.3496 7.77479 11.4059 7.78521 11.4625 7.78421C11.5192 7.78321 11.575 7.77081 11.6268 7.74775C11.6785 7.72469 11.7251 7.69145 11.7637 7.65L15.0206 4.39313V6.435C15.0206 6.54689 15.065 6.65419 15.1442 6.73331C15.2233 6.81243 15.3306 6.85688 15.4425 6.85688C15.5544 6.85688 15.6617 6.81243 15.7408 6.73331C15.8199 6.65419 15.8644 6.54689 15.8644 6.435V3.375C15.8644 3.26311 15.8199 3.15581 15.7408 3.07669C15.6617 2.99757 15.5544 2.95313 15.4425 2.95312Z" fill="#231F20"/>
<path d="M5.21148 3.79688H7.25336C7.36525 3.79688 7.47255 3.75243 7.55167 3.67331C7.63079 3.59419 7.67523 3.48689 7.67523 3.375C7.67523 3.26311 7.63079 3.15581 7.55167 3.07669C7.47255 2.99757 7.36525 2.95313 7.25336 2.95312H4.19336C4.08147 2.95313 3.97417 2.99757 3.89505 3.07669C3.81593 3.15581 3.77148 3.26311 3.77148 3.375V6.435C3.77148 6.54689 3.81593 6.65419 3.89505 6.73331C3.97417 6.81243 4.08147 6.85688 4.19336 6.85688C4.30525 6.85688 4.41255 6.81243 4.49167 6.73331C4.57079 6.65419 4.61523 6.54689 4.61523 6.435V4.39313L7.87211 7.65C7.91073 7.69145 7.95731 7.72469 8.00906 7.74775C8.06081 7.77081 8.11667 7.78321 8.17332 7.78421C8.22996 7.78521 8.28623 7.77479 8.33876 7.75357C8.39129 7.73235 8.43901 7.70077 8.47907 7.66071C8.51913 7.62065 8.55071 7.57293 8.57193 7.5204C8.59315 7.46787 8.60357 7.4116 8.60257 7.35496C8.60157 7.29831 8.58917 7.24245 8.56611 7.1907C8.54305 7.13895 8.50981 7.09237 8.46836 7.05375L5.21148 3.79688Z" fill="#231F20"/>
<path d="M7.87211 10.35L4.61523 13.6069V11.565C4.61523 11.4531 4.57079 11.3458 4.49167 11.2667C4.41255 11.1876 4.30525 11.1431 4.19336 11.1431C4.08147 11.1431 3.97417 11.1876 3.89505 11.2667C3.81593 11.3458 3.77148 11.4531 3.77148 11.565V14.625C3.77148 14.7369 3.81593 14.8442 3.89505 14.9233C3.97417 15.0024 4.08147 15.0469 4.19336 15.0469H7.25336C7.36525 15.0469 7.47255 15.0024 7.55167 14.9233C7.63079 14.8442 7.67523 14.7369 7.67523 14.625C7.67523 14.5131 7.63079 14.4058 7.55167 14.3267C7.47255 14.2476 7.36525 14.2031 7.25336 14.2031H5.21148L8.46836 10.9462C8.54288 10.8663 8.58345 10.7605 8.58152 10.6512C8.57959 10.5419 8.53532 10.4376 8.45802 10.3603C8.38073 10.283 8.27645 10.2388 8.16715 10.2368C8.05786 10.2349 7.95208 10.2755 7.87211 10.35Z" fill="#231F20"/>
<path d="M15.4429 11.1431C15.331 11.1431 15.2237 11.1876 15.1446 11.2667C15.0655 11.3458 15.021 11.4531 15.021 11.565V13.6069L11.7642 10.35C11.6842 10.2755 11.5784 10.2349 11.4691 10.2368C11.3598 10.2388 11.2555 10.283 11.1783 10.3603C11.101 10.4376 11.0567 10.5419 11.0548 10.6512C11.0528 10.7605 11.0934 10.8663 11.1679 10.9462L14.4248 14.2031H12.3829C12.271 14.2031 12.1637 14.2476 12.0846 14.3267C12.0055 14.4058 11.961 14.5131 11.961 14.625C11.961 14.7369 12.0055 14.8442 12.0846 14.9233C12.1637 15.0024 12.271 15.0469 12.3829 15.0469H15.4429C15.5548 15.0469 15.6621 15.0024 15.7412 14.9233C15.8203 14.8442 15.8648 14.7369 15.8648 14.625V11.565C15.8648 11.4531 15.8203 11.3458 15.7412 11.2667C15.6621 11.1876 15.5548 11.1431 15.4429 11.1431Z" fill="#231F20"/>
</svg>
