<svg width="339" height="328" viewBox="0 0 339 328" fill="none" xmlns="http://www.w3.org/2000/svg">
<path d="M312.324 185.258C307.03 171.88 304.976 158.671 308.925 141.88C312.137 128.226 317.155 114.872 318.07 100.874C323.404 19.3258 274.501 -5.39656 216.709 14.0665C198.189 20.303 157.214 32.7453 137.286 34.2528C100.643 37.0245 76.8546 25.4798 55.7963 25.1718C18.3207 24.625 -13.9561 75.5089 6.1995 109.122C12.7448 120.038 17.1424 132.947 25.5674 142.486C43.4018 162.678 49.9644 189.3 43.1465 215.549C38.8788 231.98 31.9775 247.806 29.8644 264.652C25.5404 299.125 50.3872 327.184 84.838 327.98C117.803 328.742 145.876 308.614 175.291 296.812C189.854 290.969 205.075 286.894 220.889 288.292C239.791 289.961 256.801 299.588 276.035 300.591C300.356 301.86 325.467 289.559 334.318 265.861C342.338 244.39 332.339 224.394 322.228 205.699C318.357 198.541 314.944 191.878 312.324 185.258Z" fill="#C6C5F0"/>
<path opacity="0.38" d="M312.324 185.257C308.515 175.63 306.399 166.084 306.974 155.234C303.16 161.733 301.366 169.131 302.151 177.005C303.276 188.287 309.221 198.165 314.332 208.018C319.252 217.502 323.471 227.606 322.696 238.516C321.984 248.528 317.887 258.248 310.714 265.319C298.641 277.219 281.406 280.902 266.457 287.754C261.763 289.906 256.916 292.481 253.164 296.133C260.603 298.307 268.131 300.176 276.035 300.588C300.356 301.857 325.467 289.556 334.318 265.858C342.337 244.387 332.34 224.392 322.228 205.696C318.357 198.539 314.944 191.877 312.324 185.257Z" fill="#8C9EF2"/>
<path d="M72.2098 37.5537C93.8356 37.5537 111.367 31.279 111.367 23.5386C111.367 15.7982 93.8356 9.52344 72.2098 9.52344C50.5839 9.52344 33.0527 15.7982 33.0527 23.5386C33.0527 31.279 50.5839 37.5537 72.2098 37.5537Z" fill="#E5EBFC"/>
<path d="M111.343 23.2003C92.8515 39.6055 40.5107 29.5135 43.4935 14.0156" stroke="white" stroke-miterlimit="10"/>
<path d="M298.977 65.7256C320.603 65.7256 338.134 59.4508 338.134 51.7105C338.134 43.9701 320.603 37.6953 298.977 37.6953C277.352 37.6953 259.82 43.9701 259.82 51.7105C259.82 59.4508 277.352 65.7256 298.977 65.7256Z" fill="#E5EBFC"/>
<path d="M338.111 51.3722C319.619 67.7774 267.278 57.6854 270.261 42.1875" stroke="white" stroke-miterlimit="10"/>
<path d="M227.216 28.0303C248.841 28.0303 266.373 21.7555 266.373 14.0152C266.373 6.2748 248.841 0 227.216 0C205.59 0 188.059 6.2748 188.059 14.0152C188.059 21.7555 205.59 28.0303 227.216 28.0303Z" fill="#E5EBFC"/>
<path d="M266.35 13.6783C252.129 5.20191 233.211 2.14034 198.5 4.4936C198.5 4.4936 235.364 1.08126 257.274 23.6201" stroke="white" stroke-miterlimit="10"/>
<path d="M277.102 210.887L277.062 46.0607C277.061 42.3675 274.067 39.3742 270.374 39.375L259.154 39.378L253.743 39.3795L36.8285 39.4291L31.0521 39.4306L17.5905 39.4343C13.8981 39.4351 10.9055 42.4298 10.9063 46.1238L10.946 210.95C10.9468 214.644 13.9409 217.637 17.6341 217.636L270.418 217.578C274.11 217.575 277.103 214.581 277.102 210.887Z" fill="#CCD7F2"/>
<path d="M274.12 214.646L21.3357 214.705C17.6432 214.706 14.6492 211.713 14.6484 208.019L14.6094 43.1934C14.6086 39.5001 17.6012 36.5054 21.2936 36.5039L274.077 36.4453C277.77 36.4446 280.764 39.4378 280.765 43.131L280.805 207.958C280.806 211.65 277.813 214.646 274.12 214.646Z" fill="white"/>
<path d="M277.102 68.4453H20.7949V69.2911H277.102V68.4453Z" fill="#737072"/>
<path d="M230.162 81.1953H271.813" stroke="#E5EBFC" stroke-width="2" stroke-miterlimit="10"/>
<path d="M230.162 98.3203H271.813" stroke="#E5EBFC" stroke-width="2" stroke-miterlimit="10"/>
<path d="M230.162 115.445H271.813" stroke="#E5EBFC" stroke-width="2" stroke-miterlimit="10"/>
<path d="M230.162 132.57H271.813" stroke="#E5EBFC" stroke-width="2" stroke-miterlimit="10"/>
<path d="M230.162 149.695H271.813" stroke="#E5EBFC" stroke-width="2" stroke-miterlimit="10"/>
<path d="M230.162 166.828H271.813" stroke="#E5EBFC" stroke-width="2" stroke-miterlimit="10"/>
<path d="M230.162 183.953H271.813" stroke="#E5EBFC" stroke-width="2" stroke-miterlimit="10"/>
<path d="M230.162 201.078H271.813" stroke="#E5EBFC" stroke-width="2" stroke-miterlimit="10"/>
<path d="M128.629 108.859H110.035V126.328H128.629V108.859Z" fill="#E5EBFC"/>
<path d="M128.635 128.102H110.041V145.57H128.635V128.102Z" fill="#E5EBFC"/>
<path d="M128.639 147.336H110.045V164.805H128.639V147.336Z" fill="#E5EBFC"/>
<path d="M98.8847 108.867H80.291V126.336H98.8847V108.867Z" fill="#E5EBFC"/>
<path d="M98.8886 128.109H80.2949V145.578H98.8886V128.109Z" fill="#E5EBFC"/>
<path d="M98.8944 147.344H80.3008V164.813H98.8944V147.344Z" fill="#E5EBFC"/>
<path d="M69.1405 108.875H50.5469V126.344H69.1405V108.875Z" fill="#E5EBFC"/>
<path d="M128.623 89.6172H110.029V107.086H128.623V89.6172Z" fill="#E5EBFC"/>
<path d="M98.8788 89.625H80.2852V107.094H98.8788V89.625Z" fill="#E5EBFC"/>
<path d="M69.1347 89.6328H50.541V107.102H69.1347V89.6328Z" fill="#E5EBFC"/>
<path d="M69.1444 128.109H50.5508V145.578H69.1444V128.109Z" fill="#E5EBFC"/>
<path d="M69.1503 147.352H50.5566V164.82H69.1503V147.352Z" fill="#E5EBFC"/>
<path d="M69.1542 166.586H50.5605V184.055H69.1542V166.586Z" fill="#E5EBFC"/>
<path d="M39.3964 108.883H20.8027V126.352H39.3964V108.883Z" fill="#E5EBFC"/>
<path d="M39.3905 89.6406H20.7969V107.109H39.3905V89.6406Z" fill="#E5EBFC"/>
<path d="M39.4003 128.117H20.8066V145.586H39.4003V128.117Z" fill="#E5EBFC"/>
<path d="M39.4061 147.359H20.8125V164.828H39.4061V147.359Z" fill="#E5EBFC"/>
<path d="M39.4101 166.602H20.8164V184.07H39.4101V166.602Z" fill="#E5EBFC"/>
<path d="M158.369 89.6094H139.775V107.078H158.369V89.6094Z" fill="#E5EBFC"/>
<path d="M158.373 108.852H139.779V126.32H158.373V108.852Z" fill="#E5EBFC"/>
<path d="M158.379 128.086H139.785V145.555H158.379V128.086Z" fill="#E5EBFC"/>
<path d="M158.383 147.328H139.789V164.797H158.383V147.328Z" fill="#E5EBFC"/>
<path d="M188.113 89.6016H169.52V107.07H188.113V89.6016Z" fill="#F68A73"/>
<path d="M188.119 108.844H169.525V126.313H188.119V108.844Z" fill="#E5EBFC"/>
<path d="M188.123 128.078H169.529V145.547H188.123V128.078Z" fill="#E5EBFC"/>
<path d="M188.129 147.32H169.535V164.789H188.129V147.32Z" fill="#E5EBFC"/>
<path d="M217.857 89.5938H199.264V107.063H217.857V89.5938Z" fill="#E5EBFC"/>
<path d="M217.863 108.836H199.27V126.305H217.863V108.836Z" fill="#E5EBFC"/>
<path d="M217.867 128.07H199.273V145.539H217.867V128.07Z" fill="#E5EBFC"/>
<path d="M217.873 147.312H199.279V164.781H217.873V147.312Z" fill="#E5EBFC"/>
<path d="M29.1894 75.8854C29.049 76.0003 28.9791 76.1543 28.9791 76.3435C28.9791 76.5336 29.0647 76.6838 29.236 76.7972C29.4079 76.9091 29.8037 77.0421 30.4232 77.1946C31.0443 77.347 31.5256 77.5769 31.8688 77.8811C32.2105 78.1875 32.3825 78.6322 32.3825 79.2188C32.3825 79.8039 32.1632 80.2794 31.7246 80.6452C31.2846 81.0102 30.7063 81.192 29.9899 81.192C28.9551 81.192 28.0232 80.8089 27.1934 80.0428L28.0637 78.9762C28.7689 79.5929 29.4199 79.9023 30.0185 79.9016C30.2858 79.9016 30.4968 79.843 30.65 79.7281C30.8025 79.6132 30.8783 79.4562 30.8783 79.2609C30.8783 79.0633 30.7972 78.9086 30.635 78.7937C30.4735 78.6773 30.1521 78.5608 29.6715 78.4429C28.9115 78.2626 28.3543 78.0268 28.0021 77.7369C27.6499 77.4469 27.4735 76.9918 27.4735 76.3721C27.4735 75.7509 27.6972 75.2724 28.1418 74.9352C28.5879 74.5994 29.1436 74.4304 29.8112 74.4297C30.2475 74.4297 30.6853 74.504 31.1209 74.6535C31.5572 74.8045 31.9379 75.0163 32.2623 75.2897L31.5234 76.3563C30.9556 75.9267 30.3706 75.7111 29.7661 75.7111C29.5213 75.7118 29.3298 75.7704 29.1894 75.8854Z" fill="#F68A73"/>
<path d="M62.7541 76.9942L60.9871 80.5688H60.1182L58.3602 76.9949L58.361 81.1111L56.9019 81.1118L56.9004 74.5733L58.8731 74.5726L60.5568 78.1637L62.2494 74.5711L64.2132 74.5703L64.2147 81.1088L62.7563 81.1096L62.7541 76.9942Z" fill="#737072"/>
<path d="M90.2426 75.8259L90.2441 81.101L88.7858 81.1017L88.7843 75.8266L86.9324 75.8274L86.9316 74.564L92.0937 74.5625V75.8259H90.2426Z" fill="#737072"/>
<path d="M118.244 78.3178L119.402 74.5569L120.926 74.5562L122.079 78.3163L123.377 74.5554L124.959 74.5547L122.678 81.0939H121.593L120.162 76.5482L118.742 81.0947H117.656L115.373 74.5569L116.955 74.5562L118.244 78.3178Z" fill="#737072"/>
<path d="M149.914 75.8103L149.915 81.0854L148.457 81.0861L148.455 75.811L146.604 75.8118V74.5484L151.766 74.5469V75.8103H149.914Z" fill="#737072"/>
<path d="M181.526 74.5391V75.8205L178.496 75.8212L178.497 77.2341L181.378 77.2333V78.5147L178.497 78.5155L178.498 81.0783L177.039 81.0791L177.037 74.5406L181.526 74.5391Z" fill="#737072"/>
<path d="M208.191 75.837C208.051 75.9519 207.981 76.1059 207.981 76.2959C207.981 76.4859 208.066 76.6362 208.238 76.7496C208.41 76.8615 208.805 76.9945 209.425 77.1469C210.046 77.2994 210.527 77.5293 210.871 77.8335C211.212 78.1392 211.384 78.5846 211.385 79.1712C211.385 79.7563 211.166 80.2318 210.727 80.5976C210.287 80.9626 209.709 81.1444 208.993 81.1444C207.958 81.1444 207.026 80.7613 206.195 79.9952L207.066 78.9286C207.771 79.5453 208.422 79.8547 209.02 79.854C209.288 79.854 209.499 79.7954 209.652 79.6805C209.804 79.5655 209.88 79.4086 209.88 79.2133C209.88 79.0157 209.799 78.861 209.637 78.7461C209.475 78.6297 209.155 78.5132 208.674 78.3953C207.914 78.215 207.357 77.9792 207.005 77.6892C206.652 77.3993 206.476 76.9441 206.475 76.3245C206.475 75.7033 206.699 75.2248 207.144 74.8876C207.591 74.5518 208.146 74.3828 208.813 74.3828C209.249 74.3828 209.687 74.4572 210.123 74.6066C210.559 74.7576 210.94 74.9694 211.264 75.2428L210.525 76.3094C209.958 75.8798 209.372 75.6642 208.767 75.6642C208.523 75.6635 208.332 75.7221 208.191 75.837Z" fill="#737072"/>
<path d="M30.7632 56.2611L30.7658 66.3492L29.5836 66.3495L24.0843 58.4302L23.9858 58.4302L23.9879 66.3509L22.7663 66.3512L22.7636 56.2632L23.9458 56.2629L29.4648 64.2018L29.5633 64.2018L29.5613 56.2614L30.7632 56.2611ZM41.7207 61.3023C41.721 62.3663 41.5291 63.2858 41.1451 64.0609C40.7611 64.836 40.2342 65.4338 39.5644 65.8543C38.8946 66.2748 38.1295 66.4852 37.2691 66.4854C36.4088 66.4856 35.6436 66.2757 34.9735 65.8555C34.3035 65.4353 33.7763 64.8378 33.3919 64.0629C33.0075 63.288 32.8151 62.3686 32.8148 61.3046C32.8146 60.2406 33.0064 59.3211 33.3904 58.546C33.7745 57.7709 34.3014 57.1731 34.9712 56.7526C35.641 56.3321 36.4061 56.1217 37.2664 56.1215C38.1268 56.1213 38.892 56.3312 39.562 56.7514C40.2321 57.1715 40.7593 57.7691 41.1437 58.544C41.5281 59.3189 41.7204 60.2383 41.7207 61.3023ZM40.5385 61.3026C40.5383 60.4291 40.392 59.6919 40.0996 59.091C39.8104 58.4901 39.4179 58.0354 38.9219 57.7269C38.4293 57.4183 37.8775 57.2641 37.2667 57.2643C36.6559 57.2644 36.1026 57.4189 35.6069 57.7277C35.1144 58.0365 34.722 58.4915 34.4299 59.0925C34.1411 59.6935 33.9968 60.4308 33.997 61.3043C33.9973 62.1778 34.1419 62.915 34.4311 63.5159C34.7235 64.1167 35.116 64.5715 35.6087 64.88C36.1047 65.1886 36.658 65.3428 37.2688 65.3426C37.8796 65.3424 38.4313 65.188 38.9238 64.8791C39.4196 64.5703 39.8119 64.1154 40.1007 63.5144C40.3928 62.9134 40.5388 62.1761 40.5385 61.3026ZM43.7131 56.2577L46.7102 64.7491L46.8285 64.749L49.8211 56.2561L51.1019 56.2558L47.4003 66.3448L46.1393 66.3452L42.4324 56.2581L43.7131 56.2577ZM52.6758 66.3435L52.6732 56.2554L58.7615 56.2538L58.7618 57.3375L53.8951 57.3388L53.896 60.7474L58.4474 60.7462L58.4477 61.8299L53.8962 61.8311L53.8971 65.2595L58.8427 65.2582L58.8429 66.3419L52.6758 66.3435ZM60.9633 56.2532L62.4214 56.2529L65.8519 64.6259L65.9702 64.6258L69.3963 56.251L70.8544 56.2507L70.857 66.3387L69.7142 66.339L69.7122 58.6745L69.6137 58.6745L66.4632 66.3399L65.3598 66.3402L62.2053 58.6764L62.1068 58.6764L62.1088 66.341L60.966 66.3413L60.9633 56.2532ZM22.7707 83.3512L22.7681 73.2632L26.2949 73.2623C26.9977 73.2621 27.5773 73.3834 28.0338 73.6263C28.4904 73.8659 28.8303 74.1893 29.0537 74.5964C29.2772 75.0003 29.3889 75.4485 29.389 75.9411C29.3892 76.3746 29.3121 76.7325 29.1578 77.015C29.0068 77.2974 28.8066 77.5208 28.557 77.6851C28.3108 77.8493 28.0432 77.9709 27.7542 78.0498L27.7543 78.1483C28.0629 78.1679 28.3733 78.2762 28.6853 78.4731C28.9973 78.6701 29.2585 78.9524 29.4687 79.3202C29.679 79.6879 29.7842 80.1378 29.7843 80.6698C29.7845 81.1755 29.6697 81.6303 29.4399 82.0343C29.2101 82.4383 28.8473 82.7586 28.3515 82.9951C27.8557 83.2317 27.2105 83.3501 26.4158 83.3503L22.7707 83.3512ZM23.992 82.2672L26.4155 82.2666C27.2135 82.2664 27.7799 82.1119 28.1148 81.8031C28.4529 81.4911 28.622 81.1134 28.6219 80.6701C28.6218 80.3286 28.5347 80.0133 28.3605 79.7244C28.1864 79.4322 27.9384 79.1991 27.6166 79.0251C27.2947 78.8479 26.9137 78.7593 26.4737 78.7594L23.9911 78.7601L23.992 82.2672ZM23.9908 77.6961L26.2567 77.6955C26.6245 77.6954 26.9561 77.6231 27.2516 77.4785C27.5504 77.3339 27.7868 77.1303 27.9608 76.8675C28.1381 76.6048 28.2266 76.2961 28.2266 75.9414C28.2264 75.4981 28.072 75.1221 27.7632 74.8135C27.4545 74.5016 26.9651 74.3458 26.2952 74.3459L23.9899 74.3465L23.9908 77.6961ZM31.7923 83.3489L31.7897 73.2608L37.878 73.2592L37.8783 74.3429L33.0116 74.3442L33.0125 77.7529L37.5639 77.7517L37.5642 78.8353L33.0127 78.8365L33.0136 82.2649L37.9592 82.2636L37.9594 83.3473L31.7923 83.3489ZM40.0825 83.3467L40.0798 73.2587L43.4885 73.2578C44.2766 73.2576 44.9236 73.392 45.4294 73.6612C45.9352 73.9271 46.3096 74.2931 46.5528 74.7594C46.7959 75.2256 46.9175 75.7559 46.9177 76.3503C46.9178 76.9447 46.7965 77.4718 46.5536 77.9316C46.3107 78.3914 45.9381 78.7527 45.4357 79.0156C44.9333 79.2751 44.2914 79.405 43.5098 79.4052L40.7513 79.4059L40.7511 78.3025L43.4701 78.3018C44.0087 78.3017 44.4421 78.2228 44.7705 78.065C45.1021 77.9073 45.3418 77.684 45.4895 77.3949C45.6404 77.1026 45.7159 76.7545 45.7158 76.3506C45.7157 75.9467 45.64 75.5937 45.4889 75.2916C45.3378 74.9895 45.0964 74.7565 44.7646 74.5923C44.4329 74.425 43.9945 74.3413 43.4494 74.3415L41.3017 74.342L41.3041 83.3464L40.0825 83.3467ZM44.8298 78.8138L47.3136 83.3449L45.8949 83.3452L43.4505 78.8141L44.8298 78.8138Z" fill="#D15332"/>
<path d="M27.1254 94.5234L30.3403 94.54L30.299 102.481L28.5951 102.472L28.6281 96.043L27.1172 96.0354L27.1254 94.5234Z" fill="#F68A73"/>
<path d="M60.6931 97.7873C60.8951 97.5049 60.9973 97.2307 60.9988 96.9663C61.0003 96.7004 60.9139 96.4788 60.7412 96.3C60.567 96.1213 60.3447 96.0304 60.0713 96.0297C59.5712 96.0274 59.0958 96.3812 58.6468 97.0895L57.2305 96.2415C57.6044 95.6676 58.013 95.235 58.4583 94.9413C58.9028 94.6483 59.4668 94.5041 60.1524 94.5079C60.8366 94.5116 61.4381 94.7317 61.9547 95.1704C62.4706 95.6075 62.7275 96.2017 62.7237 96.9513C62.7215 97.3614 62.6141 97.7527 62.4045 98.126C62.195 98.5001 61.8075 98.9763 61.2451 99.5569L59.8055 101.039L62.94 101.055L62.9317 102.645L57.3334 102.615L57.3401 101.297L59.6808 98.9237C60.1539 98.449 60.4919 98.0712 60.6931 97.7873Z" fill="#737072"/>
<path d="M87.1962 96.3472L87.2037 94.8359L92.0646 94.8615L92.0586 96.0888L90.4253 97.9313C91.0599 98.0402 91.551 98.3099 91.8979 98.7395C92.2426 99.1707 92.4153 99.6641 92.4131 100.225C92.4086 101.058 92.1217 101.709 91.557 102.18C90.9893 102.651 90.2669 102.883 89.3897 102.879C88.5111 102.874 87.6235 102.56 86.7246 101.934L87.459 100.529C88.2055 101.063 88.8746 101.332 89.4656 101.335C89.82 101.337 90.1144 101.251 90.3472 101.079C90.5785 100.905 90.6957 100.654 90.6972 100.325C90.6987 99.9954 90.568 99.734 90.3037 99.5394C90.0408 99.3449 89.6729 99.2465 89.2035 99.2443C88.9542 99.2428 88.6005 99.3126 88.1462 99.4538L88.1529 98.1476L89.6849 96.3607L87.1962 96.3472Z" fill="#737072"/>
<path d="M119.577 99.5112L119.584 98.1247L121.288 98.1337L121.281 99.5202L122.177 99.5248L122.17 101.059L121.273 101.054L121.263 102.951L119.56 102.942L119.569 101.045L116.377 101.028L116.384 99.6765L119.237 95L121.167 95.0098L118.452 99.506L119.577 99.5112Z" fill="#737072"/>
<path d="M151.413 95.1654L151.405 96.6992L148.271 96.6834L148.264 98.0122C148.499 97.9468 148.768 97.9138 149.07 97.9153C149.836 97.919 150.493 98.1526 151.044 98.6168C151.594 99.0833 151.866 99.7067 151.862 100.49C151.859 101.274 151.57 101.919 150.996 102.429C150.42 102.937 149.714 103.188 148.874 103.184C147.798 103.178 146.903 102.776 146.188 101.977L147.125 100.686C147.193 100.755 147.285 100.839 147.397 100.939C147.511 101.038 147.717 101.169 148.02 101.334C148.322 101.497 148.624 101.58 148.927 101.581C149.23 101.583 149.499 101.494 149.734 101.314C149.972 101.132 150.089 100.864 150.092 100.508C150.093 100.154 149.967 99.8779 149.715 99.6834C149.462 99.4881 149.136 99.3897 148.734 99.3875C148.333 99.3852 147.867 99.5272 147.335 99.8126L146.602 99.0149L146.622 95.1406L151.413 95.1654Z" fill="#737072"/>
<path d="M179.384 96.6476C178.891 96.6453 178.51 96.8076 178.24 97.1358C177.97 97.464 177.802 97.9117 177.739 98.4796C178.233 98.1626 178.757 98.0064 179.309 98.0094C180.051 98.0131 180.669 98.2602 181.162 98.7462C181.655 99.2344 181.899 99.8797 181.896 100.687C181.891 101.493 181.622 102.138 181.085 102.619C180.548 103.102 179.876 103.34 179.066 103.336C178.505 103.333 178.019 103.224 177.608 103.005C177.196 102.788 176.879 102.485 176.653 102.098C176.203 101.346 175.981 100.405 175.986 99.2765C175.99 98.5494 176.081 97.9125 176.262 97.3641C176.443 96.8158 176.69 96.3839 177.002 96.0662C177.611 95.4338 178.362 95.1198 179.255 95.1251C179.626 95.1273 179.979 95.1836 180.317 95.2956C180.652 95.4067 180.911 95.5201 181.093 95.6336C181.273 95.7485 181.473 95.8935 181.692 96.0685L180.846 97.3138C180.8 97.268 180.735 97.2079 180.648 97.1298C180.561 97.0554 180.389 96.9548 180.133 96.8316C179.875 96.7107 179.626 96.6483 179.384 96.6476ZM179.136 99.5078C178.784 99.5063 178.489 99.61 178.248 99.8166C178.008 100.023 177.889 100.294 177.886 100.627C177.885 100.961 177.997 101.247 178.223 101.487C178.45 101.726 178.732 101.848 179.074 101.849C179.414 101.851 179.698 101.745 179.927 101.536C180.156 101.325 180.27 101.051 180.271 100.713C180.273 100.376 180.172 100.091 179.969 99.8601C179.766 99.6273 179.488 99.5101 179.136 99.5078Z" fill="#737072"/>
<path d="M205.473 97.9894L205.485 95.4453L211.22 95.4754L211.214 96.8161L207.965 103.4L206.036 103.39L209.135 96.9866L207.136 96.9761L207.131 97.9991L205.473 97.9894Z" fill="#737072"/>
<path d="M28.6885 113.904C29.2164 113.489 29.875 113.285 30.6613 113.289C31.4498 113.293 32.1031 113.504 32.6235 113.924C33.1432 114.342 33.4023 114.857 33.3993 115.466C33.3963 116.076 33.159 116.599 32.6874 117.036C33.3437 117.546 33.6696 118.215 33.6651 119.04C33.6613 119.737 33.3782 120.323 32.815 120.797C32.2533 121.271 31.5204 121.506 30.6192 121.5C29.7181 121.496 28.9897 121.255 28.4309 120.774C27.8737 120.294 27.5966 119.705 27.5996 119.009C27.6041 118.183 27.9368 117.519 28.5984 117.015C28.1246 116.566 27.888 116.038 27.8918 115.433C27.8948 114.827 28.1598 114.317 28.6885 113.904ZM29.7654 119.753C30.029 119.933 30.3158 120.022 30.626 120.024C30.9361 120.025 31.2245 119.94 31.4911 119.762C31.7562 119.586 31.8906 119.327 31.8928 118.985C31.8943 118.645 31.7667 118.383 31.5114 118.199C31.2538 118.017 30.9639 117.925 30.6372 117.923C30.3121 117.921 30.0207 118.01 29.7616 118.189C29.5041 118.371 29.3734 118.631 29.3719 118.971C29.3704 119.314 29.5011 119.574 29.7654 119.753ZM29.8908 116.283C30.1063 116.466 30.3571 116.557 30.6448 116.559C30.9324 116.56 31.1854 116.471 31.4017 116.291C31.6195 116.11 31.7276 115.887 31.7291 115.618C31.7306 115.349 31.6263 115.123 31.4152 114.939C31.2042 114.757 30.9504 114.665 30.6553 114.664C30.3594 114.662 30.1056 114.752 29.8938 114.932C29.6805 115.113 29.5724 115.338 29.5709 115.607C29.5694 115.874 29.6768 116.099 29.8908 116.283Z" fill="#F68A73"/>
<path d="M59.7405 120.134C60.2331 120.136 60.6139 119.974 60.8842 119.646C61.1546 119.318 61.322 118.87 61.3851 118.302C60.8992 118.626 60.3758 118.785 59.8156 118.782C59.0729 118.778 58.4556 118.531 57.9622 118.041C57.4689 117.55 57.2248 116.903 57.2286 116.1C57.2331 115.297 57.5034 114.652 58.0388 114.166C58.5758 113.68 59.2494 113.441 60.0597 113.445C60.6191 113.448 61.1057 113.557 61.5165 113.777C61.928 113.994 62.2502 114.297 62.483 114.684C62.9253 115.436 63.1453 116.377 63.1393 117.504C63.1356 118.232 63.0432 118.868 62.8622 119.417C62.6812 119.965 62.4387 120.398 62.1345 120.714C61.5113 121.347 60.755 121.661 59.8689 121.657C59.4979 121.654 59.142 121.598 58.8026 121.486C58.4616 121.375 58.2056 121.264 58.0328 121.153C57.8586 121.042 57.6589 120.899 57.4328 120.724L58.325 119.48C58.3768 119.524 58.4474 119.584 58.5337 119.656C58.6208 119.729 58.789 119.826 59.0384 119.948C59.2869 120.071 59.5205 120.133 59.7405 120.134ZM60.0003 117.272C60.3518 117.275 60.6462 117.175 60.882 116.971C61.1178 116.768 61.2364 116.499 61.2379 116.167C61.2394 115.833 61.1283 115.544 60.9022 115.301C60.6762 115.058 60.3923 114.935 60.0522 114.933C59.7105 114.932 59.4326 115.039 59.2148 115.253C58.9986 115.468 58.8889 115.742 58.8874 116.075C58.8859 116.409 58.982 116.692 59.1788 116.922C59.374 117.154 59.6481 117.27 60.0003 117.272Z" fill="#737072"/>
<path d="M83.3696 113.75L86.5844 113.767L86.5431 121.707L84.8392 121.698L84.8723 115.269L83.3613 115.261L83.3696 113.75Z" fill="#737072"/>
<path d="M91.4717 121.821C90.3738 121.815 89.5545 121.439 89.0123 120.69C88.4716 119.941 88.205 118.944 88.211 117.699C88.2178 116.453 88.4941 115.458 89.0431 114.714C89.5928 113.972 90.4158 113.603 91.5137 113.609C92.6116 113.615 93.4309 113.992 93.9731 114.74C94.5138 115.489 94.7819 116.487 94.7759 117.732C94.7699 118.978 94.4913 119.972 93.9423 120.715C93.3926 121.459 92.5696 121.827 91.4717 121.821ZM90.3332 115.796C90.0802 116.278 89.9518 116.917 89.948 117.714C89.9442 118.507 90.0651 119.15 90.3137 119.635C90.5608 120.122 90.9498 120.366 91.4792 120.368C92.0094 120.371 92.4006 120.131 92.6529 119.647C92.906 119.164 93.0344 118.523 93.0382 117.729C93.0419 116.934 92.921 116.293 92.6725 115.808C92.4254 115.321 92.0364 115.077 91.5062 115.074C90.9768 115.072 90.5856 115.311 90.3332 115.796Z" fill="#737072"/>
<path d="M115.206 113.688L118.42 113.704L118.379 121.645L116.675 121.636L116.708 115.206L115.197 115.199L115.206 113.688Z" fill="#737072"/>
<path d="M119.782 113.711L122.997 113.727L122.955 121.668L121.251 121.659L121.284 115.23L119.773 115.222L119.782 113.711Z" fill="#737072"/>
<path d="M142.559 114.047L145.774 114.063L145.733 122.004L144.029 121.995L144.062 115.566L142.551 115.558L142.559 114.047Z" fill="#737072"/>
<path d="M150.761 117.185C150.963 116.903 151.065 116.628 151.066 116.364C151.068 116.098 150.982 115.877 150.809 115.698C150.635 115.519 150.412 115.429 150.139 115.427C149.639 115.425 149.163 115.778 148.714 116.487L147.299 115.64C147.673 115.065 148.081 114.633 148.527 114.34C148.97 114.047 149.535 113.903 150.221 113.906C150.905 113.91 151.506 114.13 152.023 114.569C152.539 115.007 152.796 115.6 152.792 116.35C152.79 116.759 152.682 117.151 152.473 117.524C152.263 117.898 151.877 118.374 151.313 118.955L149.873 120.436L153.008 120.452L152.999 122.042L147.401 122.014L147.408 120.696L149.748 118.322C150.221 117.847 150.559 117.469 150.761 117.185Z" fill="#737072"/>
<path d="M172.194 114.203L175.409 114.22L175.367 122.16L173.663 122.151L173.696 115.722L172.186 115.714L172.194 114.203Z" fill="#737072"/>
<path d="M177.263 115.738L177.271 114.227L182.132 114.252L182.126 115.479L180.492 117.322C181.127 117.431 181.618 117.7 181.965 118.13C182.31 118.561 182.483 119.055 182.48 119.616C182.475 120.449 182.188 121.101 181.623 121.571C181.056 122.042 180.333 122.274 179.456 122.27C178.578 122.265 177.69 121.95 176.791 121.325L177.525 119.92C178.273 120.454 178.942 120.723 179.533 120.726C179.887 120.728 180.182 120.642 180.414 120.469C180.646 120.295 180.763 120.045 180.764 119.716C180.766 119.386 180.635 119.124 180.371 118.929C180.108 118.736 179.74 118.636 179.271 118.634C179.022 118.633 178.668 118.702 178.213 118.844L178.22 117.537L179.752 115.751L177.263 115.738Z" fill="#737072"/>
<path d="M201.842 114.359L205.057 114.376L205.016 122.317L203.312 122.308L203.345 115.878L201.834 115.871L201.842 114.359Z" fill="#737072"/>
<path d="M209.645 118.91L209.652 117.523L211.356 117.532L211.349 118.919L212.246 118.923L212.238 120.457L211.342 120.452L211.332 122.35L209.628 122.341L209.638 120.443L206.445 120.427L206.452 119.075L209.305 114.398L211.236 114.408L208.521 118.904L209.645 118.91Z" fill="#737072"/>
<path d="M24.1001 132.961L27.3149 132.977L27.2736 140.918L25.5697 140.909L25.6027 134.48L24.0918 134.472L24.1001 132.961Z" fill="#F68A73"/>
<path d="M34.0728 133.01L34.0653 134.544L30.9308 134.527L30.924 135.856C31.1591 135.791 31.4279 135.758 31.7306 135.759C32.4965 135.763 33.1521 135.996 33.7041 136.461C34.2538 136.927 34.5264 137.55 34.5226 138.334C34.5189 139.117 34.2305 139.763 33.656 140.272C33.08 140.78 32.3741 141.032 31.5338 141.027C30.4577 141.022 29.5633 140.619 28.8477 139.821L29.7848 138.53C29.8532 138.599 29.9448 138.682 30.0567 138.782C30.1701 138.881 30.3773 139.012 30.6792 139.177C30.9811 139.34 31.2838 139.424 31.5864 139.425C31.889 139.427 32.1579 139.337 32.3937 139.158C32.6302 138.976 32.7489 138.708 32.7511 138.352C32.7534 137.997 32.6265 137.722 32.3741 137.527C32.1211 137.332 31.7952 137.233 31.3934 137.231C30.9924 137.229 30.526 137.371 29.9944 137.656L29.2607 136.859L29.281 132.984L34.0728 133.01Z" fill="#F68A73"/>
<path d="M53.8012 133.117L57.0161 133.134L56.9748 141.075L55.2708 141.066L55.3039 134.637L53.793 134.629L53.8012 133.117Z" fill="#737072"/>
<path d="M62.04 134.499C61.5474 134.497 61.1666 134.659 60.8963 134.987C60.6259 135.316 60.4585 135.763 60.3954 136.331C60.8895 136.014 61.4129 135.858 61.9649 135.861C62.7068 135.865 63.3249 136.112 63.8183 136.598C64.3116 137.086 64.5557 137.731 64.5519 138.539C64.5474 139.345 64.2786 139.989 63.7417 140.471C63.2047 140.954 62.5311 141.192 61.7223 141.188C61.1614 141.185 60.6755 141.075 60.264 140.857C59.8525 140.64 59.5348 140.336 59.3095 139.949C58.8589 139.197 58.6374 138.256 58.6427 137.128C58.6464 136.401 58.7373 135.765 58.9183 135.216C59.0992 134.667 59.3463 134.235 59.658 133.918C60.267 133.285 61.0179 132.971 61.9116 132.977C62.2825 132.979 62.6355 133.035 62.9734 133.147C63.3084 133.258 63.5674 133.372 63.7492 133.485C63.9301 133.601 64.1291 133.745 64.3484 133.92L63.5021 135.165C63.4563 135.12 63.3917 135.059 63.3046 134.981C63.2175 134.907 63.0455 134.806 62.7894 134.683C62.5304 134.563 62.2818 134.501 62.04 134.499ZM61.7914 137.36C61.44 137.359 61.1441 137.462 60.9038 137.669C60.6635 137.875 60.5441 138.147 60.5418 138.479C60.5403 138.814 60.653 139.099 60.879 139.339C61.105 139.578 61.3874 139.7 61.7291 139.701C62.0685 139.703 62.3531 139.598 62.5829 139.388C62.8112 139.177 62.9254 138.903 62.9269 138.566C62.9284 138.229 62.8277 137.944 62.6242 137.712C62.4222 137.48 62.1436 137.362 61.7914 137.36Z" fill="#737072"/>
<path d="M83.3813 133.266L86.5962 133.282L86.5548 141.222L84.8509 141.213L84.884 134.784L83.373 134.776L83.3813 133.266Z" fill="#737072"/>
<path d="M88.1289 135.833L88.1424 133.289L93.8775 133.318L93.8707 134.659L90.6221 141.243L88.6921 141.233L91.7921 134.83L89.793 134.819L89.7878 135.842L88.1289 135.833Z" fill="#737072"/>
<path d="M113.127 133.422L116.342 133.438L116.301 141.379L114.597 141.37L114.63 134.941L113.119 134.934L113.127 133.422Z" fill="#737072"/>
<path d="M119.026 133.896C119.553 133.482 120.211 133.278 120.998 133.281C121.787 133.285 122.44 133.497 122.961 133.917C123.481 134.335 123.739 134.85 123.736 135.459C123.733 136.069 123.496 136.591 123.025 137.029C123.682 137.539 124.008 138.208 124.003 139.033C123.999 139.73 123.716 140.316 123.152 140.79C122.59 141.265 121.858 141.499 120.956 141.494C120.055 141.49 119.327 141.248 118.768 140.767C118.211 140.288 117.934 139.698 117.938 139.002C117.942 138.177 118.275 137.512 118.936 137.008C118.462 136.558 118.226 136.032 118.229 135.426C118.231 134.82 118.496 134.309 119.026 133.896ZM120.103 139.746C120.365 139.926 120.654 140.015 120.963 140.017C121.273 140.018 121.562 139.932 121.828 139.755C122.093 139.579 122.228 139.32 122.23 138.978C122.232 138.638 122.104 138.376 121.848 138.192C121.591 138.01 121.3 137.917 120.974 137.916C120.648 137.914 120.357 138.003 120.098 138.183C119.84 138.364 119.71 138.625 119.708 138.965C119.707 139.306 119.837 139.567 120.103 139.746ZM120.227 136.276C120.443 136.459 120.694 136.55 120.981 136.552C121.27 136.553 121.522 136.464 121.738 136.284C121.956 136.103 122.063 135.879 122.065 135.61C122.066 135.341 121.962 135.115 121.751 134.931C121.54 134.749 121.286 134.657 120.991 134.655C120.696 134.654 120.441 134.743 120.229 134.923C120.016 135.104 119.908 135.33 119.907 135.598C119.906 135.868 120.013 136.093 120.227 136.276Z" fill="#737072"/>
<path d="M142.762 133.578L145.977 133.595L145.936 141.535L144.232 141.526L144.265 135.098L142.754 135.09L142.762 133.578Z" fill="#737072"/>
<path d="M150.076 140.126C150.568 140.129 150.949 139.966 151.219 139.638C151.49 139.31 151.656 138.862 151.72 138.294C151.235 138.619 150.712 138.777 150.151 138.775C149.409 138.771 148.792 138.524 148.298 138.034C147.805 137.542 147.561 136.896 147.564 136.092C147.568 135.289 147.839 134.645 148.374 134.159C148.911 133.673 149.585 133.433 150.395 133.438C150.954 133.441 151.441 133.55 151.852 133.769C152.264 133.987 152.586 134.289 152.818 134.676C153.261 135.428 153.481 136.369 153.475 137.497C153.471 138.225 153.378 138.861 153.197 139.41C153.016 139.958 152.774 140.39 152.47 140.706C151.846 141.34 151.09 141.654 150.205 141.649C149.834 141.647 149.478 141.59 149.138 141.478C148.798 141.366 148.541 141.255 148.369 141.145C148.195 141.034 147.995 140.892 147.769 140.716L148.661 139.472C148.713 139.517 148.783 139.576 148.869 139.649C148.956 139.722 149.125 139.819 149.374 139.941C149.621 140.063 149.856 140.126 150.076 140.126ZM150.336 137.264C150.688 137.266 150.981 137.166 151.217 136.963C151.453 136.759 151.572 136.491 151.573 136.158C151.575 135.824 151.463 135.535 151.237 135.292C151.011 135.049 150.727 134.926 150.387 134.924C150.046 134.923 149.768 135.029 149.55 135.243C149.334 135.459 149.224 135.733 149.223 136.066C149.221 136.4 149.317 136.682 149.513 136.913C149.71 137.147 149.984 137.262 150.336 137.264Z" fill="#737072"/>
<path d="M176.414 136.842C176.616 136.56 176.718 136.285 176.719 136.021C176.721 135.755 176.635 135.534 176.461 135.355C176.287 135.176 176.065 135.085 175.792 135.084C175.292 135.081 174.817 135.436 174.367 136.144L172.951 135.296C173.325 134.722 173.734 134.29 174.18 133.996C174.624 133.703 175.188 133.559 175.874 133.563C176.558 133.566 177.16 133.786 177.677 134.225C178.193 134.662 178.449 135.256 178.445 136.006C178.443 136.416 178.336 136.807 178.126 137.181C177.916 137.555 177.53 138.031 176.967 138.612L175.527 140.094L178.661 140.11L178.653 141.7L173.055 141.671L173.062 140.353L175.402 137.979C175.875 137.504 176.213 137.126 176.414 136.842Z" fill="#737072"/>
<path d="M183.186 141.814C182.087 141.808 181.269 141.431 180.726 140.682C180.186 139.934 179.919 138.936 179.926 137.691C179.933 136.445 180.209 135.451 180.757 134.707C181.307 133.964 182.13 133.596 183.229 133.602C184.327 133.608 185.146 133.984 185.688 134.732C186.229 135.482 186.497 136.479 186.49 137.725C186.483 138.97 186.205 139.964 185.657 140.707C185.107 141.451 184.284 141.82 183.186 141.814ZM182.047 135.788C181.794 136.271 181.666 136.91 181.662 137.706C181.658 138.5 181.779 139.142 182.028 139.627C182.275 140.114 182.664 140.358 183.193 140.361C183.723 140.364 184.115 140.124 184.366 139.64C184.62 139.157 184.748 138.517 184.752 137.722C184.755 136.926 184.634 136.286 184.386 135.801C184.139 135.314 183.75 135.07 183.22 135.068C182.691 135.064 182.3 135.304 182.047 135.788Z" fill="#737072"/>
<path d="M205.66 136.998C205.862 136.716 205.964 136.442 205.966 136.177C205.967 135.911 205.881 135.69 205.708 135.511C205.534 135.332 205.311 135.241 205.038 135.241C204.538 135.238 204.063 135.592 203.614 136.3L202.197 135.452C202.571 134.879 202.981 134.446 203.426 134.152C203.87 133.859 204.434 133.715 205.12 133.719C205.804 133.723 206.406 133.942 206.923 134.381C207.439 134.818 207.695 135.413 207.691 136.162C207.689 136.572 207.582 136.963 207.372 137.336C207.163 137.71 206.776 138.186 206.213 138.767L204.773 140.249L207.908 140.266L207.899 141.856L202.301 141.826L202.308 140.508L204.649 138.135C205.121 137.66 205.458 137.281 205.66 136.998Z" fill="#737072"/>
<path d="M208.907 133.922L212.122 133.938L212.08 141.879L210.376 141.87L210.409 135.441L208.898 135.434L208.907 133.922Z" fill="#737072"/>
<path d="M27.1997 155.139C27.4017 154.856 27.5039 154.582 27.5054 154.318C27.5069 154.052 27.4205 153.83 27.247 153.652C27.0728 153.473 26.8505 153.382 26.5772 153.381C26.0771 153.378 25.6017 153.733 25.1526 154.441L23.7363 153.593C24.1103 153.019 24.5196 152.587 24.9649 152.294C25.4087 152.001 25.9734 151.856 26.659 151.859C27.3432 151.863 27.9447 152.083 28.4621 152.522C28.978 152.96 29.2341 153.553 29.2303 154.303C29.2281 154.712 29.1207 155.104 28.9112 155.477C28.7009 155.851 28.3149 156.327 27.7517 156.908L26.3121 158.39L29.4466 158.406L29.4383 159.996L23.84 159.967L23.8467 158.649L26.1874 156.275C26.6605 155.801 26.9977 155.423 27.1997 155.139Z" fill="#F68A73"/>
<path d="M34.0713 155.178C34.2733 154.895 34.3754 154.621 34.3769 154.357C34.3784 154.091 34.2921 153.869 34.1193 153.691C33.9451 153.512 33.7228 153.421 33.4502 153.42C32.9501 153.418 32.4747 153.772 32.0257 154.48L30.6094 153.632C30.9834 153.058 31.3919 152.626 31.8372 152.333C32.281 152.04 32.8457 151.895 33.5321 151.898C34.2162 151.902 34.8177 152.122 35.3344 152.561C35.8503 152.999 36.1071 153.592 36.1034 154.342C36.1011 154.751 35.9937 155.143 35.7842 155.516C35.5747 155.89 35.1879 156.366 34.6247 156.947L33.1852 158.429L36.3196 158.445L36.3114 160.035L30.713 160.006L30.7198 158.688L33.0605 156.314C33.5321 155.84 33.87 155.461 34.0713 155.178Z" fill="#F68A73"/>
<path d="M57.5569 155.162C57.7589 154.88 57.861 154.606 57.8625 154.341C57.864 154.075 57.7776 153.854 57.6049 153.675C57.4307 153.496 57.2084 153.405 56.9358 153.405C56.4357 153.402 55.9603 153.756 55.5112 154.464L54.0957 153.616C54.4697 153.043 54.8782 152.61 55.3235 152.317C55.7673 152.024 56.332 151.88 57.0177 151.883C57.7018 151.887 58.3033 152.107 58.8207 152.545C59.3366 152.983 59.5927 153.577 59.5889 154.326C59.5867 154.736 59.4793 155.127 59.2698 155.5C59.0603 155.874 58.6735 156.351 58.1111 156.931L56.6707 158.413L59.8052 158.43L59.797 160.02L54.1986 159.99L54.2053 158.672L56.5461 156.299C57.0177 155.824 57.3548 155.446 57.5569 155.162Z" fill="#737072"/>
<path d="M61.2966 153.597L61.3041 152.086L66.165 152.111L66.159 153.338L64.5257 155.181C65.1602 155.289 65.6521 155.559 65.9983 155.989C66.343 156.419 66.5157 156.913 66.5127 157.474C66.5082 158.307 66.2221 158.959 65.6566 159.43C65.0889 159.901 64.3665 160.133 63.4894 160.128C62.6107 160.124 61.7231 159.809 60.8242 159.184L61.5587 157.779C62.3051 158.313 62.975 158.582 63.566 158.585C63.9204 158.586 64.2148 158.501 64.4476 158.328C64.6789 158.153 64.796 157.903 64.7975 157.574C64.799 157.244 64.6684 156.982 64.4033 156.788C64.1404 156.593 63.7725 156.495 63.3039 156.493C63.0546 156.491 62.7009 156.56 62.2458 156.702L62.2525 155.396L63.7845 153.609L61.2966 153.597Z" fill="#737072"/>
<path d="M87.2068 155.318C87.4088 155.035 87.5109 154.761 87.5124 154.497C87.5139 154.231 87.4268 154.009 87.2541 153.831C87.0799 153.652 86.8584 153.562 86.585 153.56C86.0849 153.558 85.6095 153.912 85.1604 154.62L83.7441 153.773C84.1181 153.199 84.5274 152.766 84.9727 152.473C85.4165 152.18 85.9812 152.036 86.6669 152.039C87.351 152.043 87.9525 152.262 88.4699 152.702C88.9858 153.14 89.2419 153.733 89.2381 154.482C89.2359 154.892 89.1285 155.283 88.919 155.656C88.7087 156.031 88.3227 156.507 87.7595 157.087L86.3199 158.569L89.4544 158.586L89.4461 160.176L83.8478 160.147L83.8545 158.828L86.1953 156.455C86.6676 155.98 87.0048 155.602 87.2068 155.318Z" fill="#737072"/>
<path d="M93.6783 156.769L93.6858 155.382L95.3898 155.391L95.3823 156.778L96.2789 156.783L96.2714 158.316L95.3747 158.312L95.365 160.209L93.6611 160.2L93.6708 158.303L90.4785 158.286L90.4853 156.934L93.3382 152.258L95.2696 152.268L92.5541 156.764L93.6783 156.769Z" fill="#737072"/>
<path d="M116.875 155.474C117.077 155.192 117.179 154.917 117.18 154.653C117.182 154.387 117.096 154.166 116.923 153.987C116.749 153.808 116.526 153.717 116.253 153.716C115.753 153.714 115.277 154.068 114.828 154.776L113.412 153.929C113.786 153.355 114.195 152.922 114.64 152.63C115.084 152.337 115.648 152.192 116.334 152.195C117.018 152.199 117.62 152.418 118.137 152.858C118.653 153.296 118.91 153.889 118.906 154.639C118.904 155.048 118.796 155.439 118.587 155.813C118.377 156.188 117.99 156.663 117.427 157.244L115.988 158.726L119.122 158.742L119.114 160.332L113.516 160.303L113.523 158.985L115.863 156.611C116.336 156.136 116.674 155.758 116.875 155.474Z" fill="#737072"/>
<path d="M125.517 152.425L125.509 153.959L122.374 153.942L122.367 155.271C122.602 155.205 122.871 155.172 123.174 155.174C123.94 155.178 124.596 155.411 125.147 155.876C125.697 156.342 125.97 156.965 125.966 157.749C125.962 158.534 125.674 159.179 125.099 159.688C124.524 160.196 123.817 160.447 122.977 160.443C121.901 160.438 121.007 160.035 120.291 159.237L121.228 157.945C121.297 158.014 121.387 158.098 121.5 158.198C121.614 158.296 121.821 158.428 122.123 158.593C122.424 158.756 122.727 158.839 123.03 158.841C123.332 158.842 123.601 158.753 123.837 158.573C124.074 158.392 124.192 158.124 124.194 157.767C124.196 157.413 124.07 157.137 123.817 156.943C123.564 156.747 123.239 156.649 122.837 156.647C122.436 156.645 121.969 156.786 121.438 157.071L120.704 156.273L120.724 152.398L125.517 152.425Z" fill="#737072"/>
<path d="M146.577 155.623C146.779 155.341 146.881 155.067 146.883 154.802C146.884 154.536 146.798 154.315 146.625 154.136C146.451 153.956 146.229 153.866 145.955 153.866C145.455 153.863 144.98 154.217 144.531 154.925L143.115 154.077C143.489 153.504 143.898 153.071 144.343 152.778C144.787 152.485 145.352 152.34 146.037 152.344C146.721 152.348 147.323 152.568 147.839 153.006C148.355 153.444 148.612 154.038 148.608 154.787C148.606 155.197 148.499 155.588 148.289 155.961C148.08 156.336 147.693 156.811 147.131 157.392L145.69 158.874L148.825 158.891L148.816 160.481L143.218 160.451L143.225 159.133L145.566 156.76C146.037 156.285 146.375 155.906 146.577 155.623Z" fill="#737072"/>
<path d="M153.485 153.906C152.993 153.904 152.612 154.066 152.342 154.394C152.071 154.723 151.904 155.17 151.841 155.738C152.335 155.421 152.858 155.266 153.41 155.268C154.153 155.272 154.77 155.519 155.264 156.005C155.756 156.493 156.001 157.138 155.997 157.946C155.993 158.752 155.724 159.396 155.187 159.878C154.65 160.36 153.976 160.599 153.168 160.594C152.607 160.591 152.121 160.482 151.709 160.263C151.298 160.046 150.98 159.742 150.755 159.356C150.304 158.604 150.083 157.662 150.088 156.534C150.092 155.807 150.183 155.17 150.364 154.622C150.545 154.074 150.792 153.642 151.103 153.324C151.712 152.692 152.463 152.378 153.357 152.383C153.728 152.385 154.081 152.441 154.419 152.553C154.754 152.665 155.013 152.778 155.194 152.891C155.375 153.007 155.574 153.152 155.794 153.326L154.947 154.572C154.902 154.526 154.837 154.466 154.749 154.388C154.662 154.314 154.49 154.213 154.234 154.09C153.976 153.97 153.727 153.908 153.485 153.906ZM153.237 156.767C152.886 156.766 152.59 156.869 152.35 157.076C152.11 157.282 151.989 157.554 151.988 157.886C151.986 158.221 152.099 158.506 152.325 158.746C152.551 158.985 152.834 159.107 153.175 159.108C153.515 159.11 153.799 159.005 154.029 158.795C154.257 158.584 154.371 158.31 154.373 157.973C154.374 157.636 154.274 157.351 154.07 157.119C153.868 156.886 153.589 156.769 153.237 156.767Z" fill="#737072"/>
<path d="M176.159 155.779C176.361 155.497 176.463 155.223 176.465 154.958C176.466 154.693 176.38 154.471 176.207 154.292C176.033 154.113 175.811 154.023 175.538 154.022C175.038 154.02 174.563 154.373 174.114 155.082L172.697 154.234C173.071 153.66 173.48 153.227 173.925 152.934C174.369 152.641 174.934 152.497 175.619 152.5C176.303 152.504 176.905 152.724 177.422 153.163C177.938 153.6 178.195 154.194 178.19 154.943C178.188 155.353 178.081 155.744 177.871 156.117C177.662 156.492 177.275 156.968 176.712 157.548L175.272 159.03L178.407 159.047L178.399 160.636L172.8 160.607L172.807 159.289L175.148 156.915C175.619 156.441 175.957 156.063 176.159 155.779Z" fill="#737072"/>
<path d="M179.576 155.247L179.59 152.703L185.325 152.733L185.318 154.074L182.069 160.657L180.139 160.648L183.239 154.245L181.239 154.235L181.234 155.258L179.576 155.247Z" fill="#737072"/>
<path d="M205.904 155.936C206.106 155.653 206.208 155.379 206.21 155.115C206.211 154.849 206.124 154.627 205.951 154.448C205.777 154.27 205.556 154.179 205.282 154.178C204.782 154.176 204.307 154.53 203.858 155.238L202.441 154.39C202.815 153.816 203.225 153.383 203.67 153.09C204.114 152.798 204.679 152.653 205.364 152.656C206.048 152.66 206.65 152.88 207.167 153.319C207.683 153.757 207.939 154.35 207.935 155.1C207.933 155.509 207.826 155.9 207.616 156.274C207.407 156.648 207.02 157.124 206.457 157.705L205.016 159.187L208.151 159.202L208.143 160.792L202.544 160.763L202.551 159.445L204.893 157.071C205.365 156.597 205.702 156.219 205.904 155.936Z" fill="#737072"/>
<path d="M210.474 153.311C211.001 152.896 211.659 152.692 212.446 152.695C213.235 152.699 213.888 152.911 214.408 153.331C214.928 153.749 215.187 154.264 215.184 154.873C215.181 155.483 214.943 156.006 214.473 156.443C215.129 156.953 215.455 157.622 215.45 158.447C215.447 159.144 215.163 159.73 214.599 160.204C214.037 160.679 213.305 160.913 212.404 160.907C211.502 160.903 210.774 160.662 210.215 160.181C209.658 159.702 209.381 159.112 209.385 158.416C209.389 157.59 209.722 156.926 210.384 156.421C209.909 155.972 209.673 155.445 209.676 154.839C209.679 154.234 209.944 153.724 210.474 153.311ZM211.551 159.161C211.813 159.341 212.102 159.429 212.412 159.431C212.722 159.433 213.01 159.347 213.277 159.17C213.542 158.994 213.677 158.734 213.679 158.393C213.68 158.053 213.553 157.791 213.297 157.607C213.039 157.424 212.748 157.333 212.422 157.331C212.097 157.329 211.806 157.418 211.547 157.597C211.289 157.779 211.159 158.039 211.157 158.379C211.155 158.721 211.285 158.981 211.551 159.161ZM211.675 155.691C211.891 155.873 212.142 155.965 212.429 155.966C212.717 155.968 212.97 155.879 213.186 155.699C213.404 155.517 213.512 155.294 213.514 155.025C213.515 154.756 213.411 154.53 213.2 154.346C212.989 154.165 212.735 154.072 212.44 154.071C212.145 154.069 211.89 154.159 211.678 154.338C211.465 154.52 211.357 154.744 211.355 155.013C211.354 155.282 211.461 155.507 211.675 155.691Z" fill="#737072"/>
<path d="M26.6338 173.959C26.8358 173.677 26.9379 173.403 26.9394 173.138C26.9409 172.872 26.8546 172.651 26.6811 172.472C26.5069 172.293 26.2846 172.203 26.012 172.202C25.5118 172.199 25.0365 172.553 24.5874 173.261L23.1719 172.413C23.5459 171.839 23.9544 171.407 24.3997 171.113C24.8435 170.82 25.4082 170.676 26.0938 170.68C26.778 170.684 27.3795 170.904 27.8961 171.342C28.412 171.779 28.6689 172.374 28.6651 173.123C28.6629 173.533 28.5555 173.925 28.346 174.297C28.1364 174.672 27.7497 175.147 27.1865 175.728L25.7469 177.209L28.8814 177.226L28.8731 178.816L23.2748 178.787L23.2815 177.468L25.6222 175.095C26.0946 174.622 26.4318 174.244 26.6338 173.959Z" fill="#F68A73"/>
<path d="M32.6175 177.407C33.1101 177.409 33.4908 177.247 33.7612 176.919C34.0315 176.59 34.1982 176.143 34.262 175.575C33.7769 175.899 33.2535 176.058 32.6918 176.056C31.9499 176.052 31.3326 175.805 30.8392 175.314C30.3458 174.824 30.1018 174.176 30.1055 173.373C30.11 172.57 30.3804 171.926 30.915 171.44C31.452 170.955 32.1256 170.714 32.9359 170.719C33.4953 170.722 33.9819 170.831 34.3935 171.05C34.805 171.267 35.1271 171.571 35.3592 171.957C35.8023 172.709 36.0215 173.65 36.0155 174.779C36.0118 175.506 35.9194 176.143 35.7384 176.691C35.5574 177.239 35.3149 177.671 35.0107 177.987C34.3867 178.621 33.6312 178.935 32.7459 178.93C32.3749 178.928 32.0189 178.871 31.6795 178.76C31.3386 178.648 31.0825 178.536 30.9098 178.426C30.7356 178.315 30.5358 178.174 30.3098 177.996L31.2019 176.753C31.2537 176.798 31.3243 176.857 31.4099 176.929C31.497 177.002 31.666 177.1 31.9146 177.221C32.1639 177.343 32.3982 177.405 32.6175 177.407ZM32.8773 174.544C33.2295 174.546 33.5239 174.447 33.7589 174.243C33.994 174.04 34.1134 173.771 34.1149 173.439C34.1164 173.104 34.0052 172.816 33.7792 172.573C33.5531 172.329 33.2693 172.206 32.9291 172.205C32.5874 172.203 32.3096 172.31 32.0918 172.524C31.8755 172.739 31.7659 173.013 31.7644 173.346C31.7629 173.68 31.859 173.963 32.055 174.194C32.2517 174.426 32.5251 174.542 32.8773 174.544Z" fill="#F68A73"/>
<path d="M53.2204 172.519L53.2279 171.008L58.0881 171.033L58.0821 172.261L56.4488 174.103C57.0833 174.211 57.5752 174.482 57.9214 174.911C58.2661 175.343 58.4388 175.836 58.4365 176.397C58.432 177.23 58.1452 177.882 57.5804 178.352C57.0127 178.822 56.2903 179.055 55.4132 179.051C54.5346 179.046 53.6477 178.732 52.748 178.106L53.4825 176.701C54.2289 177.235 54.898 177.504 55.489 177.507C55.8435 177.509 56.1379 177.422 56.3707 177.25C56.602 177.075 56.7183 176.825 56.7206 176.495C56.7221 176.166 56.5914 175.904 56.3271 175.71C56.0643 175.515 55.6963 175.417 55.2277 175.415C54.9784 175.413 54.6247 175.483 54.1696 175.624L54.1764 174.318L55.7083 172.531L53.2204 172.519Z" fill="#737072"/>
<path d="M62.9639 179.087C61.866 179.081 61.0467 178.705 60.5045 177.955C59.9638 177.207 59.6972 176.21 59.7032 174.964C59.71 173.719 59.9863 172.724 60.5353 171.98C61.0857 171.238 61.908 170.869 63.0059 170.875C64.1038 170.881 64.9231 171.258 65.4653 172.006C66.006 172.755 66.2741 173.753 66.2681 174.998C66.2613 176.243 65.9835 177.238 65.4345 177.981C64.8848 178.724 64.0625 179.092 62.9639 179.087ZM61.8254 173.061C61.5724 173.544 61.4439 174.182 61.4402 174.978C61.4357 175.773 61.5573 176.415 61.8059 176.9C62.053 177.387 62.442 177.631 62.9721 177.634C63.5016 177.637 63.8936 177.396 64.1459 176.912C64.3989 176.429 64.5274 175.789 64.5311 174.994C64.5356 174.199 64.414 173.558 64.1654 173.073C63.9183 172.586 63.5293 172.342 62.9999 172.339C62.469 172.337 62.0777 172.577 61.8254 173.061Z" fill="#737072"/>
<path d="M40.7326 41.0536C40.7326 42.9081 39.2292 44.4118 37.3751 44.4118C35.521 44.4118 34.0176 42.9081 34.0176 41.0536C34.0176 39.1991 35.521 37.6953 37.3751 37.6953C39.2292 37.6961 40.7326 39.1991 40.7326 41.0536Z" fill="#F68A73"/>
<path d="M37.5494 42.4312H37.2055C36.3847 42.4312 35.7186 41.7657 35.7186 40.9447L35.7148 27.3232C35.7148 26.5022 36.3802 25.8359 37.201 25.8359H37.5449C38.3657 25.8359 39.0318 26.5014 39.0318 27.3224L39.0356 40.944C39.0356 41.7649 38.3702 42.4304 37.5494 42.4312Z" fill="#737072"/>
<path d="M65.2502 41.0536C65.2502 42.9081 63.7468 44.4118 61.8927 44.4118C60.0386 44.4118 58.5352 42.9081 58.5352 41.0536C58.5352 39.1991 60.0386 37.6953 61.8927 37.6953C63.7468 37.6953 65.2502 39.1991 65.2502 41.0536Z" fill="#F68A73"/>
<path d="M62.067 42.4312H61.7231C60.9023 42.4312 60.2362 41.7657 60.2362 40.9447L60.2324 27.3232C60.2324 26.5022 60.8978 25.8359 61.7186 25.8359H62.0625C62.8833 25.8359 63.5494 26.5014 63.5494 27.3224L63.5531 40.944C63.5531 41.7649 62.8878 42.4304 62.067 42.4312Z" fill="#737072"/>
<path d="M89.7697 41.0536C89.7697 42.9081 88.2663 44.4118 86.4122 44.4118C84.5581 44.4118 83.0547 42.9081 83.0547 41.0536C83.0547 39.1991 84.5581 37.6953 86.4122 37.6953C88.2671 37.6961 89.7697 39.1991 89.7697 41.0536Z" fill="#F68A73"/>
<path d="M86.5865 42.4312H86.2426C85.4218 42.4312 84.7557 41.7657 84.7557 40.9447L84.752 27.3232C84.752 26.5022 85.4173 25.8359 86.2381 25.8359H86.582C87.4028 25.8359 88.0689 26.5014 88.0689 27.3224L88.0727 40.944C88.0734 41.7649 87.4081 42.4304 86.5865 42.4312Z" fill="#737072"/>
<path d="M114.287 41.0536C114.287 42.9081 112.784 44.4118 110.93 44.4118C109.076 44.4118 107.572 42.9081 107.572 41.0536C107.572 39.1991 109.076 37.6953 110.93 37.6953C112.785 37.6961 114.287 39.1991 114.287 41.0536Z" fill="#F68A73"/>
<path d="M111.106 42.4312H110.762C109.941 42.4312 109.275 41.7657 109.275 40.9447L109.271 27.3232C109.271 26.5022 109.937 25.8359 110.758 25.8359H111.102C111.922 25.8359 112.588 26.5014 112.588 27.3224L112.592 40.944C112.592 41.7649 111.927 42.4304 111.106 42.4312Z" fill="#737072"/>
<path d="M138.805 41.0536C138.805 42.9081 137.301 44.4118 135.447 44.4118C133.593 44.4118 132.09 42.9081 132.09 41.0536C132.09 39.1991 133.593 37.6953 135.447 37.6953C137.301 37.6961 138.805 39.1991 138.805 41.0536Z" fill="#F68A73"/>
<path d="M135.622 42.4312H135.278C134.457 42.4312 133.791 41.7657 133.791 40.9447L133.787 27.3232C133.787 26.5022 134.452 25.8359 135.273 25.8359H135.617C136.438 25.8359 137.104 26.5014 137.104 27.3224L137.108 40.944C137.108 41.7649 136.442 42.4304 135.622 42.4312Z" fill="#737072"/>
<path d="M163.324 41.0536C163.324 42.9081 161.822 44.4118 159.967 44.4118C158.112 44.4118 156.609 42.9081 156.609 41.0536C156.609 39.1991 158.113 37.6953 159.967 37.6953C161.821 37.6953 163.324 39.1991 163.324 41.0536Z" fill="#F68A73"/>
<path d="M160.141 42.4312H159.797C158.976 42.4312 158.31 41.7657 158.31 40.9447L158.307 27.3232C158.307 26.5022 158.972 25.8359 159.793 25.8359H160.137C160.958 25.8359 161.624 26.5014 161.624 27.3224L161.627 40.944C161.627 41.7649 160.962 42.4304 160.141 42.4312Z" fill="#737072"/>
<path d="M187.84 41.0536C187.84 42.9081 186.337 44.4118 184.483 44.4118C182.628 44.4118 181.125 42.9081 181.125 41.0536C181.125 39.1991 182.628 37.6953 184.483 37.6953C186.337 37.6961 187.84 39.1991 187.84 41.0536Z" fill="#F68A73"/>
<path d="M184.657 42.4312H184.313C183.492 42.4312 182.826 41.7657 182.826 40.9447L182.822 27.3232C182.822 26.5022 183.488 25.8359 184.308 25.8359H184.652C185.473 25.8359 186.139 26.5014 186.139 27.3224L186.143 40.944C186.144 41.7649 185.478 42.4304 184.657 42.4312Z" fill="#737072"/>
<path d="M212.36 41.0536C212.36 42.9081 210.856 44.4118 209.002 44.4118C207.148 44.4118 205.645 42.9081 205.645 41.0536C205.645 39.1991 207.148 37.6953 209.002 37.6953C210.857 37.6961 212.36 39.1991 212.36 41.0536Z" fill="#F68A73"/>
<path d="M209.176 42.4312H208.832C208.012 42.4312 207.346 41.7657 207.346 40.9447L207.342 27.3232C207.342 26.5022 208.007 25.8359 208.828 25.8359H209.172C209.993 25.8359 210.659 26.5014 210.659 27.3224L210.663 40.944C210.663 41.7649 209.998 42.4304 209.176 42.4312Z" fill="#737072"/>
<path d="M236.877 41.0536C236.877 42.9081 235.374 44.4118 233.52 44.4118C231.666 44.4118 230.162 42.9081 230.162 41.0536C230.162 39.1991 231.666 37.6953 233.52 37.6953C235.374 37.6961 236.877 39.1991 236.877 41.0536Z" fill="#F68A73"/>
<path d="M233.694 42.4312H233.35C232.529 42.4312 231.863 41.7657 231.863 40.9447L231.859 27.3232C231.859 26.5022 232.525 25.8359 233.346 25.8359H233.689C234.51 25.8359 235.176 26.5014 235.176 27.3224L235.18 40.944C235.18 41.7649 234.515 42.4304 233.694 42.4312Z" fill="#737072"/>
<path d="M261.397 41.0536C261.397 42.9081 259.893 44.4118 258.039 44.4118C256.185 44.4118 254.682 42.9081 254.682 41.0536C254.682 39.1991 256.184 37.6953 258.039 37.6953C259.893 37.6961 261.397 39.1991 261.397 41.0536Z" fill="#F68A73"/>
<path d="M258.213 42.4312H257.87C257.049 42.4312 256.383 41.7657 256.383 40.9447L256.379 27.3232C256.379 26.5022 257.044 25.8359 257.865 25.8359H258.209C259.03 25.8359 259.696 26.5014 259.696 27.3224L259.7 40.944C259.7 41.7649 259.034 42.4304 258.213 42.4312Z" fill="#737072"/>
<mask id="mask0_4974_7360" style="mask-type:luminance" maskUnits="userSpaceOnUse" x="0" y="7" width="338" height="321">
<path d="M312.324 185.258C307.03 171.88 304.976 158.671 308.925 141.88C312.137 128.226 317.155 114.872 318.07 100.874C323.404 19.3258 274.501 -5.39656 216.709 14.0665C198.189 20.303 157.214 32.7453 137.286 34.2528C100.643 37.0245 76.8546 25.4798 55.7963 25.1718C18.3207 24.625 -13.9561 75.5089 6.1995 109.122C12.7448 120.038 17.1424 132.947 25.5674 142.486C43.4018 162.678 32.519 191.386 25.7018 217.635C21.4341 234.067 11.7265 251.68 21.175 276.442C23.497 282.526 30.7993 286.683 32.938 292.391C40.6796 313.048 60.3284 327.414 84.838 327.981C117.803 328.742 145.876 308.615 175.291 296.813C189.854 290.97 205.075 286.895 220.889 288.292C239.791 289.962 256.801 299.588 276.035 300.592C300.356 301.861 325.467 289.56 334.318 265.862C342.338 244.391 332.339 224.395 322.228 205.7C318.357 198.541 314.944 191.878 312.324 185.258Z" fill="white"/>
</mask>
<g mask="url(#mask0_4974_7360)">
<path d="M123.775 164.269C125.574 168.707 100.878 169.513 103.686 163.897C106.493 158.281 106.532 148.453 106.532 148.453H122.598C122.598 148.453 121.976 159.83 123.775 164.269Z" fill="#FFC4C2"/>
<path d="M109.887 148.453C110.34 153.392 113.641 156.353 118.902 158.174C120.137 158.602 121.446 158.937 122.75 159.12C122.285 154.201 122.599 148.453 122.599 148.453H109.887Z" fill="#FFADAA"/>
<path d="M130.856 133.389C130.761 132.486 130.028 128.694 129.582 126.429C129.487 125.887 129.382 125.37 129.272 124.864C129.254 124.768 129.239 124.7 129.239 124.7L129.237 124.708C127.116 115.111 122.432 111.805 115.686 111.805C106.895 111.805 99.7695 121.798 99.7695 134.124C99.7695 146.451 110.219 152.393 118.878 153.907C128.617 155.611 130.561 154.379 131.09 148.577C131.09 148.576 131.092 148.574 131.093 148.573C131.956 146.15 131.683 141.518 133.198 140.347C134.713 139.176 130.993 134.698 130.856 133.389Z" fill="#FFC4C2"/>
<path d="M136.28 113.837C135.518 111.364 132.88 112.758 130.939 114.218C130.897 114.04 136.624 110.541 134.891 109.328C132.172 107.425 129.378 111.055 129.196 110.901C130.87 109.112 130.466 108.894 129.112 108.49C128.599 108.336 126.887 108.472 124.951 109.561C123.159 110.569 121.153 111.145 119.098 111.052C117.14 110.963 114.381 110.755 109.325 110.52C97.7217 109.98 96.2829 120.866 96.2829 120.866C96.2829 120.866 91.5158 124.464 92.1451 132.021C92.7744 139.579 106.177 151.274 106.177 151.274C106.177 151.274 111.934 153.703 117.87 148.485C123.806 143.267 120.748 139.669 123.329 136.87C125.91 134.071 123.356 132.921 122.816 128.243C122.276 123.565 128.623 122.344 128.623 122.344C135.756 117.407 136.688 115.16 136.28 113.837Z" fill="#232323"/>
<path d="M123.48 136.099C124.575 138.239 124.05 140.697 122.307 141.589C120.564 142.482 118.263 141.471 117.168 139.331C116.072 137.191 116.597 134.732 118.34 133.84C120.083 132.948 122.384 133.959 123.48 136.099Z" fill="#FFC4C2"/>
<path d="M138.857 326.185H88.824L81.8281 274.312H145.854L138.857 326.185Z" fill="#D15332"/>
<path d="M107.01 287.516C107.01 287.516 107.756 293.92 113.11 300.702L113.198 326.188" stroke="#A34127" stroke-width="3.2902" stroke-miterlimit="10"/>
<path d="M173.897 110.016C173.897 110.016 171.331 111.815 171.19 114.38C171.076 116.459 171.773 120.612 172.993 121.832C174.213 123.052 174.702 122.209 174.702 122.209L173.897 110.016Z" fill="#FFC4C2"/>
<path d="M182.606 128.57C182.606 128.57 183.742 124.606 184.591 115.259C184.714 113.9 185.381 111.176 183.932 110.221C183.621 110.016 182.517 109.267 182.023 110.778C182.292 108.912 179.871 108.309 179.52 110.146C179.481 108.157 177.013 108.22 176.716 109.931C176.807 107.617 176.716 106.614 176.716 104.143C176.716 101.673 176.504 100.262 175.728 100.191C174.952 100.12 174.028 99.4691 172.885 111.979C172.624 114.831 172.353 117.656 172.45 119.465C172.618 122.643 173.051 124.83 174.264 125.652C177.768 129.04 182.606 128.57 182.606 128.57Z" fill="#FFC4C2"/>
<path d="M69.8594 243.579L76.9566 242.698C78.2573 242.648 79.4708 243.444 80.0941 244.755L81.7034 247.568L69.8594 243.579Z" fill="#FFADAA"/>
<path d="M70.0856 243.039C70.0856 243.039 84.16 246.743 84.0474 248.353C83.8664 250.954 81.6804 256.267 80.828 257.687C80.4067 258.387 79.7053 258.987 77.2024 258.539C75.4309 258.223 72.6058 257.316 70.7697 255.973C67.4378 253.536 66.8145 250.856 66.8145 250.856L70.0856 243.039Z" fill="#FFC4C2"/>
<path d="M83.0802 252.356C83.5811 250.87 83.9761 249.394 84.049 248.353C84.1609 246.743 70.0865 243.039 70.0865 243.039L69.4023 244.673C73.827 247.352 78.3868 250.07 83.0802 252.356Z" fill="#FFADAA"/>
<path d="M83.4993 251.016C83.2725 251.016 83.0412 250.967 82.8219 250.864L78.6511 248.894C77.8581 248.519 77.5179 247.572 77.8926 246.778C78.2674 245.984 79.2143 245.645 80.0081 246.02L84.1796 247.989C84.9727 248.364 85.3128 249.311 84.9381 250.105C84.6663 250.68 84.0948 251.016 83.4993 251.016Z" fill="#FFADAA"/>
<path d="M82.4102 253.977C82.1834 253.977 81.9521 253.928 81.7328 253.825L77.5613 251.855C76.7683 251.48 76.4281 250.533 76.8028 249.739C77.1775 248.945 78.1245 248.606 78.9182 248.981L83.0898 250.95C83.8828 251.325 84.223 252.272 83.8483 253.066C83.5772 253.641 83.0064 253.977 82.4102 253.977Z" fill="#FFC4C2"/>
<path d="M83.9985 252.434C84.0165 251.822 83.6793 251.227 83.0898 250.949L78.919 248.979C78.2837 248.679 77.5553 248.843 77.0957 249.325C79.323 250.485 81.6578 251.563 83.9985 252.434Z" fill="#FFADAA"/>
<path d="M81.3235 256.93C81.0959 256.93 80.8654 256.881 80.6461 256.778L76.4753 254.808C75.6823 254.434 75.3421 253.486 75.7169 252.692C76.0916 251.899 77.0385 251.559 77.8323 251.934L82.0039 253.903C82.7969 254.278 83.137 255.225 82.7623 256.019C82.4905 256.594 81.919 256.93 81.3235 256.93Z" fill="#FFC4C2"/>
<path d="M80.2356 259.891C80.0081 259.891 79.7775 259.842 79.5582 259.739L75.3874 257.769C74.5944 257.394 74.2542 256.447 74.629 255.653C75.0037 254.859 75.9507 254.52 76.7444 254.895L80.9152 256.864C81.7082 257.239 82.0484 258.186 81.6737 258.98C81.4018 259.555 80.8311 259.891 80.2356 259.891Z" fill="#FFC4C2"/>
<path d="M96.8009 165.435C96.4637 165.268 103.463 158.922 103.463 158.922C103.463 158.922 107.434 160.082 124.756 159.958L131.759 166.074C131.759 166.074 117.961 175.877 96.8009 165.435Z" fill="#6D80D9"/>
<path d="M172.317 123.023L172.428 126.749C172.049 136.39 164.462 159.614 164.462 159.614L147.563 165.735C133.318 163.431 123.776 164.276 123.776 164.276L103.687 163.905C103.687 163.905 78.2767 170.597 73.5517 174.96C68.8266 179.322 35.6142 216.316 35.4324 221.405C35.2507 226.495 66.8148 250.855 66.8148 250.855L70.086 243.039C70.086 243.039 65.3625 230.396 56.2902 220.266L78.1513 207.075C79.2386 220.769 79.3145 226.242 80.3268 239.133C82.0675 261.304 79.2469 282.259 79.2469 282.259C116.535 294.621 151.586 281.443 151.586 281.443C151.586 281.443 147.178 259.933 146.102 238.419C145.027 216.905 152.804 196.525 152.804 196.525C152.804 196.525 179.543 176.166 180.172 169.562C180.8 162.958 183.497 133.197 183.497 133.197L184.061 126.684L172.317 123.023Z" fill="#6D80D9"/>
<path d="M174.107 169.531C171.905 173.964 150.927 190.038 148.509 191.293C142.521 194.403 141.735 199.492 141.908 205.803C142.05 211.008 142.874 216.165 143.032 221.37C143.326 231.085 143.678 241.246 147.007 250.359C146.623 246.473 146.304 242.447 146.103 238.42C145.028 216.907 152.805 196.527 152.805 196.527C152.805 196.527 179.544 176.168 180.173 169.564C180.801 162.96 183.499 133.198 183.499 133.198L184.062 126.686L182.814 126.297C182.194 129.77 175.875 165.97 174.107 169.531Z" fill="#5868B0"/>
<path d="M92.8349 285.729C88.5455 278.566 87.3875 270.936 86.6989 262.252C85.7024 249.678 85.6753 237.081 84.9559 224.497C84.6443 219.048 84.25 213.813 84.4941 208.351C84.6705 204.41 84.9108 200.385 84.1344 196.523C78.9107 201.047 72.3038 203.88 66.5628 207.654C61.6876 210.86 53.4661 213.393 50.7739 218.959C48.0322 224.627 56.0486 231.698 59.5143 235.191C62.7141 238.416 66.3104 241.464 69.2752 244.974L70.0862 243.036C70.0862 243.036 65.3627 230.393 56.2904 220.263L78.1523 207.071C79.2396 220.766 79.3155 226.239 80.3278 239.13C82.0685 261.301 79.2479 282.256 79.2479 282.256C83.8317 283.777 88.381 284.909 92.8349 285.729Z" fill="#5868B0"/>
<path d="M131.761 267.408C131.761 267.408 104.128 271.819 89.7109 258.695C89.7109 258.695 100.902 281.828 131.761 267.408Z" fill="#5868B0"/>
<path d="M125.16 167.859C123.377 169.226 121.244 170.098 119.059 170.652C116.866 171.209 114.578 171.445 112.307 171.317C110.046 171.145 107.778 170.793 105.666 169.971C104.585 169.647 103.588 169.093 102.58 168.614C101.596 168.079 100.667 167.44 99.7695 166.789C100.871 167.044 101.889 167.435 102.947 167.703C104.009 167.955 105.031 168.288 106.093 168.468L107.662 168.79L109.244 169.016C109.767 169.109 110.296 169.153 110.824 169.199C111.352 169.238 111.877 169.323 112.408 169.311L113.996 169.381C114.525 169.369 115.054 169.345 115.585 169.345C116.647 169.32 117.706 169.221 118.769 169.112C120.898 168.864 123.018 168.469 125.16 167.859Z" fill="#5868B0"/>
<path d="M71.7314 309.491C72.2083 307.04 75.095 298.677 74.8299 296.209C74.4965 293.101 73.391 290.137 71.6338 287.553C65.4009 278.389 62.5052 280.02 60.5002 273.537C52.519 247.736 38.6316 258.521 26.6989 247.75C26.6989 247.75 24.9988 263.089 26.9775 265.641C28.4456 267.534 30.5791 268.718 32.9093 269.273C34.0786 269.552 35.0413 270.208 35.6263 271.425C36.803 273.874 35.9221 275.617 34.1581 276.904C31.4217 278.901 30.0662 282.33 30.9681 285.597C32.9897 292.914 38.0616 296.849 44.7203 297.11C53.6079 297.458 37.4428 337.652 77.5656 326.436C77.5656 326.436 89.8024 316.418 79.6608 300.841C79.6841 302.307 71.2839 311.789 71.7314 309.491ZM60.7682 307.136C60.389 308.046 59.2205 308.405 58.3562 308.01C57.3048 307.529 56.3278 307.234 55.2735 306.913C54.301 306.616 53.6672 305.868 53.8159 304.801C53.9406 303.906 55.0159 303.065 55.9276 303.343C57.2643 303.751 58.6198 304.141 59.8941 304.723C60.8163 305.145 61.1437 306.235 60.7682 307.136ZM52.5475 271.512C52.6091 273.839 48.9918 274.138 48.9302 271.798C48.8919 270.34 48.8784 268.861 48.4098 267.466C47.6648 265.252 51.0757 264.015 51.8206 266.23C52.3981 267.948 52.4995 269.717 52.5475 271.512Z" fill="#8C9EF2"/>
<path d="M26.6816 247.914C26.5066 249.561 25.1181 263.243 26.9782 265.641C28.4463 267.533 30.5798 268.718 32.91 269.273C34.0793 269.552 35.042 270.207 35.627 271.425C36.8037 273.874 35.9228 275.617 34.1589 276.904C31.4224 278.901 30.0669 282.33 30.9688 285.596C32.9904 292.914 38.0623 296.849 44.721 297.109C53.6086 297.457 37.4435 337.651 77.5663 326.435C77.5663 326.435 53.9525 274.23 26.6816 247.914ZM60.7682 307.135C60.389 308.045 59.2205 308.404 58.3561 308.009C57.3048 307.528 56.3278 307.233 55.2735 306.912C54.301 306.615 53.6672 305.867 53.8159 304.799C53.9405 303.905 55.0159 303.064 55.9275 303.341C57.2642 303.749 58.6197 304.14 59.8941 304.722C60.8163 305.143 61.1437 306.234 60.7682 307.135Z" fill="#6D80D9"/>
<path d="M92.1316 361.827C91.823 360.975 72.5392 302.423 41.8867 265.438" stroke="white" stroke-width="0.9663" stroke-miterlimit="10" stroke-linecap="round" stroke-linejoin="round"/>
<path d="M53.7668 281.566C53.7668 281.566 44.259 282.881 38.2656 280.836" stroke="white" stroke-width="0.9663" stroke-miterlimit="10" stroke-linecap="round" stroke-linejoin="round"/>
<path d="M63.8945 283.742C63.8945 283.742 62.928 288.277 59.6914 290.979" stroke="white" stroke-width="0.9663" stroke-miterlimit="10" stroke-linecap="round" stroke-linejoin="round"/>
<path d="M59.7129 314.633C59.7129 314.633 65.9556 318.39 73.5703 316.844" stroke="white" stroke-width="0.9663" stroke-miterlimit="10" stroke-linecap="round" stroke-linejoin="round"/>
<path d="M79.1389 310.203C79.1389 310.203 79.8869 315.665 75.7559 321.438" stroke="white" stroke-width="0.9663" stroke-miterlimit="10" stroke-linecap="round" stroke-linejoin="round"/>
<path d="M253.236 268.68C259.123 242.76 273.952 229.213 266.103 223.76C258.1 218.201 233.094 238.561 231.821 256.714C231.211 260.958 232.258 266.586 230.743 264.711C225.945 258.771 226.227 254.695 224.732 246.35C224.385 244.41 223.061 242.708 221.174 242.137C219.109 241.511 216.835 242.243 214.367 245.065C207.626 252.775 208.904 266.215 213.174 286.333C212.294 284.973 211.12 283.723 209.535 283.025C206.949 281.887 202.158 279.8 200.045 282.829C198.195 285.482 199.423 290.19 199.918 293.063C201.599 302.823 209.784 308.341 216.407 314.918C217.996 316.497 219.497 318.137 220.795 319.911C223.154 323.134 224.324 328.472 229.062 328.861C232.212 329.119 235.446 328.865 238.57 328.458C243.09 327.869 246.702 325.514 247.605 320.814C247.988 318.818 259.141 311.872 261.754 310.395C279.803 300.186 262.028 291.406 250.56 301.672C259.59 286.183 265.206 282.826 269.586 277.71C294.725 256.479 275.978 243.369 253.236 268.68ZM252.04 246.686C253.446 244.374 255.155 242.354 257.202 240.585C257.974 239.918 259.28 240.277 259.818 241.043C260.443 241.932 260.126 242.997 259.36 243.659C257.835 244.977 256.476 246.583 255.429 248.306C254.9 249.175 253.918 249.666 252.925 249.191C252.075 248.784 251.513 247.553 252.04 246.686ZM218.904 277.191C216.988 273.485 215.657 269.603 215.49 265.406C215.394 262.995 219.135 262.678 219.232 265.095C219.386 268.973 220.662 272.476 222.43 275.896C223.54 278.044 219.998 279.307 218.904 277.191ZM257.053 288.548C255.863 289.41 254.697 290.309 253.731 291.423C252.145 293.25 249.277 290.825 250.864 288.997C252.034 287.649 253.454 286.518 254.895 285.474C256.859 284.051 259.008 287.133 257.053 288.548Z" fill="#8C9EF2"/>
<path d="M265.509 223.431C256.943 219.162 233.064 238.984 231.821 256.715C231.211 260.96 232.258 266.587 230.743 264.712C225.945 258.773 226.227 254.697 224.732 246.352C224.385 244.411 223.061 242.71 221.174 242.138C219.109 241.513 216.835 242.245 214.367 245.067C207.626 252.776 208.904 266.216 213.174 286.335C212.294 284.975 211.12 283.725 209.535 283.027C206.949 281.888 202.158 279.802 200.045 282.831C198.195 285.483 199.423 290.192 199.918 293.065C201.599 302.824 209.784 308.343 216.407 314.92C217.996 316.498 219.497 318.138 220.795 319.913C223.154 323.136 224.324 328.474 229.062 328.863C229.678 328.913 230.296 328.943 230.915 328.957C229.599 323.509 232.875 251.238 265.509 223.431ZM218.904 277.194C216.988 273.487 215.657 269.605 215.49 265.409C215.394 262.997 219.135 262.68 219.232 265.097C219.386 268.975 220.662 272.478 222.43 275.898C223.54 278.046 219.998 279.31 218.904 277.194Z" fill="#6D80D9"/>
<path d="M260.523 229.813C258.928 231.01 257.49 232.577 256.205 234.184L255.234 235.4C254.91 235.804 254.634 236.247 254.332 236.669L253.443 237.949L252.999 238.589L252.595 239.257L250.985 241.931C250.448 242.821 250.008 243.769 249.514 244.685C249.044 245.614 248.525 246.519 248.096 247.469L246.816 250.321C246.405 251.279 245.93 252.209 245.569 253.188L244.448 256.109L243.326 259.031L242.352 262.005L241.384 264.982C241.058 265.973 240.728 266.963 240.474 267.976L238.827 274.019L238.416 275.53L238.073 277.058L237.388 280.115C236.945 282.156 236.445 284.185 236.048 286.235L234.938 292.403C234.587 294.462 234.148 296.506 233.898 298.582L233.032 304.79L232.599 307.894L232.384 309.446L232.224 311.005L230.949 323.479L230.947 323.497C230.918 323.785 230.66 323.995 230.372 323.966C230.083 323.936 229.874 323.679 229.903 323.39V323.389L231.221 310.886L231.386 309.324L231.607 307.768L232.051 304.656L232.939 298.432C233.197 296.351 233.643 294.3 234.002 292.236L235.135 286.051C235.54 283.995 236.048 281.959 236.5 279.912L237.197 276.845L237.546 275.312L237.965 273.795L239.637 267.73C239.896 266.714 240.23 265.719 240.561 264.723L241.544 261.734L242.533 258.747L243.671 255.81L244.809 252.874C245.175 251.89 245.656 250.953 246.074 249.99L247.373 247.12C247.81 246.165 248.336 245.252 248.813 244.316C249.315 243.393 249.761 242.44 250.308 241.541L251.944 238.842L252.354 238.168L252.807 237.521L253.712 236.226C254.02 235.798 254.301 235.352 254.632 234.941L255.623 233.707C256.956 232.063 258.367 230.507 260.126 229.198C260.288 229.077 260.517 229.11 260.638 229.273C260.759 229.435 260.725 229.664 260.563 229.785L260.523 229.813Z" fill="white"/>
<path d="M220.414 261.852C220.414 261.852 230.24 273.896 234.016 294.632" stroke="white" stroke-width="1.3978" stroke-miterlimit="10" stroke-linecap="round" stroke-linejoin="round"/>
<path d="M272.558 262.102C272.558 262.102 249.803 271.388 232.605 303.858" stroke="white" stroke-width="1.3978" stroke-miterlimit="10" stroke-linecap="round" stroke-linejoin="round"/>
<path d="M260.807 304.789C260.807 304.789 246.38 305.972 231.334 319.23" stroke="white" stroke-width="1.3978" stroke-miterlimit="10" stroke-linecap="round" stroke-linejoin="round"/>
<path d="M207.551 289.961C207.551 289.961 220.376 298.744 230.3 321.576" stroke="white" stroke-width="1.3978" stroke-miterlimit="10" stroke-linecap="round" stroke-linejoin="round"/>
<path d="M156.696 294.464C155.589 291.178 150.076 280.193 149.987 276.746C149.875 272.406 150.852 268.12 152.796 264.239C159.693 250.474 163.981 252.186 165.549 242.89C171.795 205.895 192.901 218.19 207.351 201.164C207.351 201.164 212.513 221.973 210.257 225.851C208.584 228.728 205.864 230.751 202.758 231.944C201.199 232.543 199.993 233.623 199.412 235.408C198.242 238.996 199.776 241.234 202.441 242.681C206.576 244.928 209.074 249.401 208.432 254.064C206.994 264.513 200.733 270.864 191.612 272.447C179.437 274.561 209.088 326.934 151.777 318.871C151.777 318.871 133.085 307.328 144.185 284.013C144.424 286.035 157.735 297.546 156.696 294.464ZM171.36 289.204C172.05 290.388 173.725 290.668 174.842 289.965C176.202 289.11 177.493 288.523 178.886 287.886C180.17 287.299 180.905 286.152 180.505 284.71C180.169 283.5 178.533 282.54 177.329 283.09C175.563 283.898 173.768 284.685 172.121 285.721C170.928 286.472 170.678 288.033 171.36 289.204ZM176.129 238.639C176.472 241.855 181.508 241.6 181.163 238.367C180.948 236.353 180.694 234.313 181.084 232.306C181.702 229.121 176.778 228.044 176.16 231.231C175.68 233.702 175.864 236.157 176.129 238.639Z" fill="#8C9EF2"/>
<path d="M152.178 318.923C153.548 301.917 181.621 235.18 205.05 203.586C190.749 217.044 171.471 207.816 165.549 242.891C163.979 252.187 159.693 250.475 152.795 264.24C150.85 268.121 149.873 272.407 149.986 276.747C150.075 280.194 155.588 291.18 156.696 294.465C157.734 297.547 144.423 286.036 144.185 284.014C133.085 307.329 151.777 318.872 151.777 318.872C151.914 318.892 152.042 318.905 152.178 318.923ZM176.159 231.232C176.777 228.045 181.702 229.123 181.083 232.308C180.693 234.315 180.948 236.354 181.162 238.369C181.507 241.602 176.471 241.856 176.128 238.641C175.864 236.158 175.679 233.704 176.159 231.232Z" fill="#6D80D9"/>
<path d="M138.23 370.291C138.499 369.062 154.285 284.887 189.693 228.32" stroke="white" stroke-width="1.3424" stroke-miterlimit="10" stroke-linecap="round" stroke-linejoin="round"/>
<path d="M176.299 252.709C176.299 252.709 189.634 252.77 197.51 248.852" stroke="white" stroke-width="1.3424" stroke-miterlimit="10" stroke-linecap="round" stroke-linejoin="round"/>
<path d="M162.752 257.562C162.752 257.562 164.916 263.629 169.87 266.755" stroke="white" stroke-width="1.3424" stroke-miterlimit="10" stroke-linecap="round" stroke-linejoin="round"/>
<path d="M174.19 299.328C174.19 299.328 166.285 305.65 155.516 304.922" stroke="white" stroke-width="1.3424" stroke-miterlimit="10" stroke-linecap="round" stroke-linejoin="round"/>
<path d="M146.627 296.805C146.627 296.805 146.601 304.464 153.351 311.654" stroke="white" stroke-width="1.3424" stroke-miterlimit="10" stroke-linecap="round" stroke-linejoin="round"/>
</g>
<path d="M303.783 147.706C282.004 147.873 262.169 148.026 244.028 148.166C241.821 124.721 241.821 101.312 244.028 77.8672C262.169 78.0069 282.004 78.1601 303.783 78.3276C301.285 101.464 301.285 124.569 303.783 147.706Z" fill="#E5EBFC"/>
<path d="M306.787 144.698C285.008 144.865 265.173 145.019 247.032 145.158C244.825 121.714 244.825 98.3041 247.032 74.8594C265.173 74.9991 285.008 75.1523 306.787 75.3198C304.289 98.4566 304.289 121.561 306.787 144.698Z" fill="#E5EBFC"/>
<path d="M268.181 83.3601C262.452 83.3263 256.874 83.294 251.441 83.2617C251.475 82.7945 251.51 82.3273 251.546 81.8594C256.98 81.8932 262.559 81.9277 268.289 81.963C268.253 82.4287 268.216 82.8944 268.181 83.3601Z" fill="#737072"/>
<path d="M298.841 92.7842C281.656 92.7189 265.712 92.6573 250.881 92.601C250.903 92.1353 250.926 91.6688 250.95 91.2031C265.784 91.264 281.729 91.3301 298.917 91.4014C298.892 91.8619 298.866 92.323 298.841 92.7842Z" fill="#737072"/>
<path d="M298.485 101.996C281.311 101.965 265.379 101.937 250.559 101.911C250.569 101.446 250.58 100.981 250.592 100.516C265.413 100.546 281.347 100.579 298.521 100.616C298.509 101.076 298.496 101.536 298.485 101.996Z" fill="#737072"/>
<path d="M298.388 111.21C281.217 111.215 265.289 111.219 250.471 111.223C250.469 110.758 250.469 110.293 250.469 109.828C265.287 109.829 281.215 109.83 298.386 109.83C298.386 110.29 298.386 110.75 298.388 111.21Z" fill="#737072"/>
<path d="M298.552 120.413C281.376 120.452 265.442 120.489 250.62 120.523C250.606 120.058 250.594 119.592 250.582 119.127C265.404 119.098 281.337 119.066 298.511 119.031C298.524 119.492 298.537 119.952 298.552 120.413Z" fill="#737072"/>
<path d="M298.978 129.641C281.788 129.716 265.84 129.785 251.004 129.849C250.979 129.383 250.955 128.917 250.932 128.452C265.765 128.392 281.71 128.327 298.897 128.258C298.923 128.718 298.95 129.179 298.978 129.641Z" fill="#737072"/>
<path d="M299.667 138.88C282.454 138.991 266.484 139.093 251.628 139.188C251.592 138.72 251.555 138.253 251.52 137.785C266.372 137.695 282.337 137.597 299.547 137.492C299.586 137.955 299.626 138.418 299.667 138.88Z" fill="#737072"/>
<path d="M316.792 222.319C296.065 229.01 277.188 235.105 259.923 240.678C250.791 218.974 243.773 196.642 238.852 173.613C256.199 168.306 275.169 162.504 295.995 156.133C300.548 178.954 307.473 200.996 316.792 222.319Z" fill="#E5EBFC"/>
<path d="M318.757 218.554C298.029 225.245 279.153 231.339 261.888 236.913C252.756 215.208 245.738 192.875 240.816 169.847C258.164 164.541 277.133 158.738 297.96 152.367C302.513 175.188 309.438 197.23 318.757 218.554Z" fill="#E5EBFC"/>
<path d="M263.54 171.608C258.064 173.294 252.733 174.935 247.541 176.534C247.434 176.078 247.327 175.621 247.221 175.164C252.414 173.567 257.748 171.927 263.225 170.242C263.329 170.698 263.435 171.153 263.54 171.608Z" fill="#737072"/>
<path d="M295.615 171.405C279.201 176.497 263.972 181.22 249.806 185.613C249.687 185.162 249.57 184.711 249.453 184.259C263.623 179.868 278.855 175.15 295.273 170.062C295.386 170.511 295.5 170.959 295.615 171.405Z" fill="#737072"/>
<path d="M298.037 180.305C281.644 185.426 266.437 190.177 252.29 194.596C252.16 194.149 252.032 193.702 251.904 193.255C266.053 188.84 281.264 184.092 297.659 178.977C297.783 179.42 297.909 179.863 298.037 180.305Z" fill="#737072"/>
<path d="M300.705 189.12C284.326 194.273 269.131 199.054 254.996 203.502C254.855 203.058 254.715 202.615 254.576 202.172C268.712 197.729 283.908 192.953 300.289 187.805C300.426 188.243 300.565 188.681 300.705 189.12Z" fill="#737072"/>
<path d="M303.621 197.852C287.247 203.041 272.057 207.854 257.926 212.332C257.774 211.892 257.623 211.452 257.473 211.011C271.603 206.538 286.794 201.73 303.168 196.547C303.318 196.983 303.469 197.417 303.621 197.852Z" fill="#737072"/>
<path d="M306.792 206.523C290.416 211.749 275.222 216.598 261.088 221.108C260.925 220.671 260.762 220.234 260.6 219.796C274.733 215.291 289.924 210.448 306.3 205.227C306.463 205.66 306.627 206.092 306.792 206.523Z" fill="#737072"/>
<path d="M310.22 215.139C293.831 220.406 278.627 225.293 264.483 229.838C264.307 229.404 264.133 228.968 263.959 228.533C278.101 223.992 293.303 219.112 309.689 213.852C309.866 214.28 310.042 214.71 310.22 215.139Z" fill="#737072"/>
</svg>
