<svg width="17" height="18" viewBox="0 0 17 18" fill="none" xmlns="http://www.w3.org/2000/svg">
<g clip-path="url(#clip0_2138_39224)">
<path d="M5.07922 13.6484L5.00777 13.6372L3.9021 13.465C3.9034 13.4167 3.90364 13.3681 3.90066 13.3189L3.65456 10.709C3.62807 10.2704 3.42842 9.86025 3.09952 9.56881C2.77062 9.27738 2.33943 9.12853 1.90078 9.15502C1.46214 9.18151 1.05199 9.38117 0.760556 9.71007C0.469121 10.039 0.320276 10.4702 0.346766 10.9088L0.592867 13.5187C0.612328 13.8399 0.724905 14.1484 0.916846 14.4067C1.10879 14.6649 1.37178 14.8617 1.67371 14.9729C1.82391 15.0508 1.99243 15.0865 2.16131 15.0761L4.3402 15.1657V17.1483C4.3402 17.3173 4.40734 17.4794 4.52685 17.5989C4.64636 17.7184 4.80845 17.7855 4.97746 17.7855C5.14647 17.7855 5.30857 17.7184 5.42807 17.5989C5.54758 17.4794 5.61472 17.3173 5.61472 17.1483V14.2738C5.61472 14.1228 5.56076 13.9768 5.46256 13.8621C5.36436 13.7474 5.2284 13.6716 5.07922 13.6484Z" fill="#D7282F"/>
<path d="M2.12388 8.60046C2.99161 8.60046 3.69504 7.89703 3.69504 7.02931C3.69504 6.16159 2.99161 5.45816 2.12388 5.45816C1.25616 5.45816 0.552734 6.16159 0.552734 7.02931C0.552734 7.89703 1.25616 8.60046 2.12388 8.60046Z" fill="#D7282F"/>
<path d="M15.0987 9.15505C14.66 9.12858 14.2288 9.27743 13.9 9.56886C13.5711 9.86029 13.3714 10.2704 13.3449 10.7091L13.0988 13.319C13.0959 13.3681 13.0961 13.4167 13.0974 13.465L11.9917 13.6373L11.9203 13.6484C11.7711 13.6716 11.6351 13.7474 11.5369 13.8621C11.4387 13.9768 11.3848 14.1228 11.3848 14.2738V17.1483C11.3848 17.3173 11.4519 17.4794 11.5714 17.5989C11.6909 17.7184 11.853 17.7855 12.022 17.7855C12.191 17.7855 12.3531 17.7184 12.4726 17.5989C12.5921 17.4794 12.6593 17.3173 12.6593 17.1483V15.1657L14.8382 15.0761C15.0071 15.0865 15.1756 15.0508 15.3258 14.9729C15.6277 14.8617 15.8907 14.6649 16.0826 14.4067C16.2746 14.1485 16.3872 13.8399 16.4066 13.5187L16.6527 10.9088C16.6658 10.6916 16.636 10.474 16.565 10.2683C16.494 10.0626 16.3832 9.87292 16.2389 9.71007C16.0946 9.54722 15.9196 9.41438 15.724 9.31915C15.5283 9.22392 15.3158 9.16816 15.0987 9.15505Z" fill="#D7282F"/>
<path d="M14.8758 8.60046C15.7436 8.60046 16.447 7.89703 16.447 7.02931C16.447 6.16159 15.7436 5.45816 14.8758 5.45816C14.0081 5.45816 13.3047 6.16159 13.3047 7.02931C13.3047 7.89703 14.0081 8.60046 14.8758 8.60046Z" fill="#D7282F"/>
<path d="M12.0553 12.3842C12.0553 12.3004 12.0388 12.2175 12.0068 12.1402C11.9747 12.0628 11.9278 11.9926 11.8686 11.9333C11.8094 11.8741 11.7391 11.8272 11.6617 11.7951C11.5844 11.7631 11.5015 11.7466 11.4177 11.7466H5.58195C5.41302 11.7469 5.25109 11.8141 5.13172 11.9337C5.01236 12.0532 4.94531 12.2152 4.94531 12.3842C4.94531 12.5531 5.01236 12.7151 5.13172 12.8347C5.25109 12.9542 5.41302 13.0215 5.58195 13.0217H6.27344V17.7855H10.7262V13.0217H11.4177C11.5015 13.0217 11.5844 13.0052 11.6617 12.9732C11.7391 12.9412 11.8094 12.8942 11.8686 12.835C11.9278 12.7758 11.9747 12.7055 12.0068 12.6282C12.0388 12.5508 12.0553 12.4679 12.0553 12.3842Z" fill="#D7282F"/>
<path d="M8.12667 3.01679C7.58624 2.89028 7.01816 2.96679 6.53045 3.23177C6.04275 3.49675 5.66943 3.93172 5.48148 4.45398C5.44852 4.54611 4.67928 6.51712 4.4257 7.16667C4.41814 7.18606 4.41607 7.20715 4.41973 7.22763C4.42339 7.24811 4.43263 7.26719 4.44644 7.28275C4.46025 7.29832 4.47808 7.30977 4.49798 7.31584C4.51788 7.32192 4.53907 7.32239 4.55922 7.31719L6.11864 6.91567C6.37675 7.14204 6.68305 7.30662 7.01428 7.39693C7.34551 7.48724 7.69297 7.50089 8.03026 7.43685C8.36756 7.37282 8.68583 7.23278 8.96091 7.02736C9.236 6.82194 9.46067 6.55655 9.61787 6.25134C9.77506 5.94612 9.86065 5.6091 9.86814 5.26586C9.87563 4.92262 9.80481 4.58219 9.66108 4.27041C9.51734 3.95863 9.30445 3.68369 9.03859 3.46647C8.77272 3.24926 8.46086 3.09547 8.12667 3.01679Z" fill="#231F20"/>
<path d="M12.5728 6.59737L11.7086 4.78235C11.8606 4.48241 11.9514 4.15526 11.9757 3.81992C12.0001 3.48459 11.9576 3.14775 11.8506 2.82899C11.7436 2.51024 11.5744 2.21593 11.3526 1.96317C11.1309 1.71042 10.8612 1.50426 10.5591 1.35669C10.257 1.20911 9.92853 1.12307 9.59287 1.10355C9.25722 1.08403 8.92103 1.13144 8.60385 1.24301C8.28668 1.35457 7.99485 1.52808 7.74533 1.75344C7.49581 1.97879 7.29358 2.2515 7.15039 2.55571C7.36646 2.51827 7.58629 2.50739 7.805 2.52331C8.09363 2.09799 8.53615 1.8014 9.03925 1.69607C9.54234 1.59075 10.0667 1.68492 10.5017 1.95874C10.9367 2.23255 11.2483 2.6646 11.3709 3.16377C11.4935 3.66294 11.4174 4.19021 11.1587 4.63437L11.0849 4.76087L11.7024 6.05794C11.2981 5.9843 10.7394 5.8831 10.2468 5.79384C10.2071 5.97662 10.1484 6.15473 10.0716 6.32528C10.5716 6.41564 11.9215 6.66101 12.4507 6.75722C12.4712 6.76094 12.4923 6.75893 12.5117 6.75141C12.5311 6.7439 12.548 6.73118 12.5607 6.71464C12.5733 6.69811 12.5811 6.67841 12.5833 6.65772C12.5854 6.63702 12.5818 6.61614 12.5728 6.59737Z" fill="#231F20"/>
</g>
<defs>
<clipPath id="clip0_2138_39224">
<rect width="17" height="17" fill="white" transform="translate(0 0.942383)"/>
</clipPath>
</defs>
</svg>
