<svg width="18" height="18" viewBox="0 0 18 18" fill="none" xmlns="http://www.w3.org/2000/svg">
<g clip-path="url(#clip0_2410_20201)">
<path d="M5.41125 13.206L5.3398 13.1949L4.23414 13.0226C4.23543 12.9743 4.23567 12.9257 4.2327 12.8766L3.98659 10.2667C3.9601 9.82802 3.76045 9.41787 3.43155 9.12643C3.10266 8.835 2.67146 8.68615 2.23282 8.71264C1.79418 8.73913 1.38402 8.93879 1.09259 9.26768C0.801152 9.59658 0.652307 10.0278 0.678797 10.4664L0.924899 13.0763C0.944359 13.3975 1.05694 13.706 1.24888 13.9643C1.44082 14.2225 1.70381 14.4193 2.00574 14.5305C2.15594 14.6084 2.32446 14.6441 2.49334 14.6337L4.67223 14.7233V16.7059C4.67223 16.8749 4.73937 17.037 4.85888 17.1565C4.97839 17.276 5.14048 17.3431 5.30949 17.3431C5.47851 17.3431 5.6406 17.276 5.76011 17.1565C5.87962 17.037 5.94676 16.8749 5.94676 16.7059V13.8314C5.94676 13.6804 5.89279 13.5344 5.79459 13.4197C5.69639 13.3051 5.56043 13.2292 5.41125 13.206Z" fill="#4472C4"/>
<path d="M2.45787 8.15808C3.32559 8.15808 4.02902 7.45465 4.02902 6.58693C4.02902 5.71921 3.32559 5.01578 2.45787 5.01578C1.59015 5.01578 0.886719 5.71921 0.886719 6.58693C0.886719 7.45465 1.59015 8.15808 2.45787 8.15808Z" fill="#4A4A4A"/>
<path d="M15.4287 8.71267C14.9901 8.68619 14.5589 8.83504 14.23 9.12648C13.9011 9.41791 13.7015 9.82805 13.675 10.2667L13.4289 12.8766C13.4259 12.9257 13.4262 12.9743 13.4275 13.0226L12.3218 13.1949L12.2504 13.206C12.1012 13.2293 11.9652 13.3051 11.867 13.4198C11.7688 13.5344 11.7148 13.6805 11.7148 13.8314V16.7059C11.7148 16.8749 11.782 17.037 11.9015 17.1565C12.021 17.276 12.1831 17.3432 12.3521 17.3432C12.5211 17.3432 12.6832 17.276 12.8027 17.1565C12.9222 17.037 12.9894 16.8749 12.9894 16.7059V14.7233L15.1683 14.6337C15.3371 14.6441 15.5057 14.6084 15.6559 14.5305C15.9578 14.4193 16.2208 14.2226 16.4127 13.9643C16.6047 13.7061 16.7172 13.3975 16.7367 13.0763L16.9828 10.4664C16.9959 10.2492 16.9661 10.0316 16.8951 9.82591C16.8241 9.62022 16.7133 9.43054 16.569 9.26769C16.4247 9.10483 16.2497 8.972 16.0541 8.87677C15.8584 8.78154 15.6459 8.72578 15.4287 8.71267Z" fill="#4472C4"/>
<path d="M15.2079 8.15808C16.0756 8.15808 16.779 7.45465 16.779 6.58693C16.779 5.71921 16.0756 5.01578 15.2079 5.01578C14.3401 5.01578 13.6367 5.71921 13.6367 6.58693C13.6367 7.45465 14.3401 8.15808 15.2079 8.15808Z" fill="#4A4A4A"/>
<path d="M12.3873 11.9418C12.3873 11.8581 12.3708 11.7752 12.3388 11.6978C12.3068 11.6205 12.2598 11.5502 12.2006 11.491C12.1414 11.4318 12.0711 11.3848 11.9937 11.3528C11.9164 11.3207 11.8335 11.3042 11.7498 11.3042H5.91398C5.74505 11.3045 5.58312 11.3718 5.46376 11.4913C5.34439 11.6108 5.27734 11.7729 5.27734 11.9418C5.27734 12.1107 5.34439 12.2727 5.46376 12.3923C5.58312 12.5118 5.74505 12.5791 5.91398 12.5793H6.60547V17.3431H11.0583V12.5793H11.7498C11.8335 12.5793 11.9164 12.5629 11.9937 12.5308C12.0711 12.4988 12.1414 12.4518 12.2006 12.3926C12.2598 12.3334 12.3068 12.2631 12.3388 12.1858C12.3708 12.1084 12.3873 12.0255 12.3873 11.9418Z" fill="#4A4A4A"/>
<path d="M8.45871 2.57441C7.91827 2.44789 7.35019 2.5244 6.86248 2.78938C6.37478 3.05437 6.00146 3.48934 5.81351 4.0116C5.78055 4.10372 5.01131 6.07474 4.75773 6.72429C4.75017 6.74367 4.7481 6.76477 4.75176 6.78525C4.75542 6.80573 4.76467 6.8248 4.77847 6.84037C4.79228 6.85593 4.81011 6.86738 4.83001 6.87346C4.84991 6.87954 4.8711 6.88 4.89125 6.87481L6.45067 6.47328C6.70878 6.69965 7.01509 6.86424 7.34632 6.95455C7.67754 7.04485 8.025 7.05851 8.36229 6.99447C8.69959 6.93044 9.01786 6.79039 9.29294 6.58498C9.56803 6.37956 9.7927 6.11417 9.9499 5.80895C10.1071 5.50374 10.1927 5.16671 10.2002 4.82348C10.2077 4.48024 10.1368 4.13981 9.99311 3.82802C9.84937 3.51624 9.63649 3.24131 9.37062 3.02409C9.10475 2.80688 8.79289 2.65309 8.45871 2.57441Z" fill="#4A4A4A"/>
<path d="M12.9029 6.15498L12.0387 4.33997C12.1906 4.04003 12.2814 3.71288 12.3058 3.37754C12.3302 3.0422 12.2876 2.70537 12.1807 2.38661C12.0737 2.06786 11.9044 1.77355 11.6827 1.52079C11.461 1.26804 11.1912 1.06188 10.8891 0.914305C10.587 0.76673 10.2586 0.680684 9.92295 0.661168C9.58729 0.641652 9.25111 0.689056 8.93393 0.800624C8.61676 0.912192 8.32493 1.0857 8.07541 1.31105C7.82589 1.53641 7.62366 1.80912 7.48047 2.11333C7.69654 2.07589 7.91637 2.065 8.13508 2.08092C8.42371 1.65561 8.86623 1.35902 9.36932 1.25369C9.87242 1.14836 10.3968 1.24254 10.8317 1.51635C11.2667 1.79017 11.5784 2.22222 11.701 2.72139C11.8236 3.22056 11.7475 3.74782 11.4888 4.19199L11.415 4.31848L12.0325 5.61556C11.6282 5.54192 11.0695 5.44072 10.5769 5.35146C10.5372 5.53423 10.4785 5.71235 10.4017 5.8829C10.9017 5.97326 12.2516 6.21863 12.7808 6.31484C12.8013 6.31855 12.8224 6.31654 12.8418 6.30903C12.8612 6.30152 12.8781 6.28879 12.8907 6.27226C12.9034 6.25573 12.9112 6.23603 12.9133 6.21533C12.9155 6.19464 12.9119 6.17376 12.9029 6.15498Z" fill="#4A4A4A"/>
</g>
<defs>
<clipPath id="clip0_2410_20201">
<rect width="17" height="17" fill="white" transform="translate(0.332031 0.5)"/>
</clipPath>
</defs>
</svg>
