<svg width="54" height="54" viewBox="0 0 54 54" fill="none" xmlns="http://www.w3.org/2000/svg">
<path d="M27 6.75V20.25M27 6.75C26.1472 6.75 25.4587 7.5375 24.0862 9.108L20.25 13.5M27 6.75C27.855 6.75 28.539 7.5375 29.9138 9.108L33.75 13.5M6.75 27H20.25M6.75 27C6.75 27.8528 7.5375 28.5413 9.108 29.9138L13.5 33.75M6.75 27C6.75 26.145 7.5375 25.461 9.108 24.0862L13.5 20.25M47.25 27H33.75M47.25 27C47.25 26.1472 46.4625 25.4587 44.892 24.0862L40.5 20.25M47.25 27C47.25 27.855 46.4625 28.539 44.892 29.9138L40.5 33.75M27 47.25V32.625M27 47.25C27.8528 47.25 28.5413 46.4625 29.9138 44.892L33.75 40.5M27 47.25C26.145 47.25 25.461 46.4625 24.0862 44.892L20.25 40.5" stroke="black" stroke-width="1.5" stroke-linecap="round" stroke-linejoin="round"/>
</svg>
