<svg width="50" height="51" viewBox="0 0 50 51" fill="none" xmlns="http://www.w3.org/2000/svg">
<path d="M10.416 8.83073H33.3327M10.416 8.83073L14.5827 12.9974M10.416 8.83073L14.5827 4.66406M33.3327 8.83073L29.166 4.66406M33.3327 8.83073L29.166 12.9974M22.916 45.2891C17.9931 43.4484 13.8879 37.1484 11.8327 33.4589C10.9452 31.8651 11.4129 29.9089 12.8368 28.7693C13.6035 28.1562 14.5693 27.8474 15.5494 27.9018C16.5295 27.9561 17.4552 28.37 18.1493 29.0641L19.791 30.7057V18.7266C19.791 18.0359 20.0654 17.3735 20.5538 16.8851C21.0421 16.3968 21.7045 16.1224 22.3952 16.1224C23.0859 16.1224 23.7482 16.3968 24.2366 16.8851C24.725 17.3735 24.9994 18.0359 24.9994 18.7266V24.9766C24.9994 24.2859 25.2737 23.6235 25.7621 23.1351C26.2505 22.6468 26.9128 22.3724 27.6035 22.3724C28.2942 22.3724 28.9566 22.6468 29.4449 23.1351C29.9333 23.6235 30.2077 24.2859 30.2077 24.9766V27.0599C30.2077 26.3692 30.4821 25.7068 30.9704 25.2185C31.4588 24.7301 32.1212 24.4557 32.8119 24.4557C33.5025 24.4557 34.1649 24.7301 34.6533 25.2185C35.1417 25.7068 35.416 26.3692 35.416 27.0599V29.1432C35.416 28.4526 35.6904 27.7902 36.1788 27.3018C36.6671 26.8134 37.3295 26.5391 38.0202 26.5391C38.7109 26.5391 39.3732 26.8134 39.8616 27.3018C40.35 27.7902 40.6244 28.4526 40.6244 29.1432V37.3391C40.6244 38.4536 40.3483 39.5557 39.7056 40.4672C38.64 41.9766 36.7244 44.2828 34.3744 45.2891C30.7285 46.8516 27.4681 46.9911 22.916 45.2891Z" stroke="black" stroke-width="2" stroke-linecap="round" stroke-linejoin="round"/>
</svg>
