<svg width="502" height="277" viewBox="0 0 502 277" fill="none" xmlns="http://www.w3.org/2000/svg">
<g clip-path="url(#clip0_5065_7789)">
<path d="M432.961 99.0949C437.138 96.2953 438.252 90.6433 435.45 86.4709C432.647 82.2985 426.989 81.1857 422.813 83.9854C418.636 86.7851 417.522 92.4371 420.324 96.6094C423.127 100.782 428.785 101.895 432.961 99.0949Z" fill="#E0E0E0"/>
<path d="M400.785 101.262C406.142 101.262 410.485 96.9236 410.485 91.5723C410.485 86.2209 406.142 81.8828 400.785 81.8828C395.428 81.8828 391.086 86.2209 391.086 91.5723C391.086 96.9236 395.428 101.262 400.785 101.262Z" fill="#E0E0E0"/>
<path d="M380.053 84.6952C385.737 84.6952 390.345 80.0921 390.345 74.414C390.345 68.7359 385.737 64.1328 380.053 64.1328C374.369 64.1328 369.762 68.7359 369.762 74.414C369.762 80.0921 374.369 84.6952 380.053 84.6952Z" fill="#E0E0E0"/>
<path d="M375.834 58.8015C381.763 58.8015 386.57 53.9998 386.57 48.0765C386.57 42.1533 381.763 37.3516 375.834 37.3516C369.904 37.3516 365.098 42.1533 365.098 48.0765C365.098 53.9998 369.904 58.8015 375.834 58.8015Z" fill="#E0E0E0"/>
<path d="M389.012 36.0958C395.146 36.0958 400.119 31.1285 400.119 25.001C400.119 18.8736 395.146 13.9062 389.012 13.9062C382.879 13.9062 377.906 18.8736 377.906 25.001C377.906 31.1285 382.879 36.0958 389.012 36.0958Z" fill="#E0E0E0"/>
<path d="M414.262 28.0341C420.968 28.0341 426.405 22.6031 426.405 15.9037C426.405 9.20436 420.968 3.77344 414.262 3.77344C407.556 3.77344 402.119 9.20436 402.119 15.9037C402.119 22.6031 407.556 28.0341 414.262 28.0341Z" fill="#E0E0E0"/>
<path d="M456.495 76.2212C457.608 71.4889 454.669 66.7517 449.932 65.6405C445.195 64.5292 440.453 67.4647 439.34 72.197C438.228 76.9293 441.166 81.6665 445.904 82.7777C450.641 83.889 455.383 80.9535 456.495 76.2212Z" fill="#E0E0E0"/>
<path d="M452.615 55.9208C457.113 55.9208 460.76 52.2781 460.76 47.7846C460.76 43.2911 457.113 39.6484 452.615 39.6484C448.117 39.6484 444.471 43.2911 444.471 47.7846C444.471 52.2781 448.117 55.9208 452.615 55.9208Z" fill="#E0E0E0"/>
<path d="M439.064 32.1754C443.194 32.1754 446.542 28.8307 446.542 24.7049C446.542 20.579 443.194 17.2344 439.064 17.2344C434.934 17.2344 431.586 20.579 431.586 24.7049C431.586 28.8307 434.934 32.1754 439.064 32.1754Z" fill="#E0E0E0"/>
<path d="M126.612 18.4912C126.612 18.4912 127.5 18.2693 129.129 18.3432C130.758 18.4912 133.202 19.1568 135.275 21.2279C136.311 22.2634 137.274 23.5948 137.792 25.296C138.31 26.9232 138.533 28.8463 138.088 30.7694C137.866 31.7309 137.57 32.6925 137.052 33.5801C136.533 34.4677 135.941 35.3552 135.127 36.0949C133.646 37.5742 131.499 38.6097 129.277 38.9056C127.056 39.2014 124.761 38.7576 122.91 37.7221C121.947 37.2044 121.133 36.5387 120.392 35.799C119.652 35.0594 119.06 34.2458 118.615 33.3582C117.653 31.657 117.357 29.7339 117.431 28.0327C117.505 26.3315 118.097 24.7042 118.838 23.4468C120.318 20.858 122.54 19.6006 124.02 19.0089C125.723 18.4172 126.612 18.4912 126.612 18.4912C126.612 18.5651 125.723 18.6391 124.243 19.2308C122.762 19.8225 120.763 21.1539 119.356 23.6687C118.689 24.9261 118.171 26.4054 118.097 28.0327C118.023 29.6599 118.319 31.509 119.208 33.1363C119.652 33.9499 120.17 34.7635 120.911 35.4292C121.577 36.0949 122.392 36.7606 123.28 37.2044C125.057 38.1659 127.204 38.6097 129.351 38.3138C131.499 38.018 133.424 37.0564 134.904 35.6511C135.645 34.9854 136.237 34.1718 136.681 33.2842C137.126 32.4706 137.496 31.509 137.718 30.6215C138.162 28.8463 137.94 26.9972 137.496 25.4439C136.978 23.8906 136.089 22.5592 135.127 21.5237C133.127 19.5267 130.758 18.787 129.203 18.5651C127.5 18.3432 126.612 18.5651 126.612 18.4912Z" fill="#E0E0E0"/>
<path d="M130.462 5.47343C130.462 5.47343 130.387 5.39947 130.313 5.17757C130.239 4.95567 130.091 4.58585 129.943 4.14206C129.573 3.18051 129.055 1.84913 128.388 0.147931L128.462 0.221896C126.093 0.591722 122.909 1.03551 119.059 1.55327L119.207 1.40534C119.059 3.10654 118.911 5.02964 118.763 7.10067V7.17463L118.689 7.2486C116.912 7.98825 115.135 9.02376 113.432 10.3551H113.284L113.21 10.2812C111.581 9.54152 109.804 8.7279 108.027 7.91429L108.249 7.84032C106.472 10.2072 104.547 12.722 102.548 15.3848V15.0889C103.659 16.4203 104.917 17.8996 106.25 19.4529L106.324 19.6008L106.25 19.7487C105.51 21.5239 104.991 23.521 104.695 25.666V25.8139L104.547 25.8878C102.918 26.4796 101.067 27.2192 99.2161 27.8849L99.3642 27.5891C99.7344 30.5477 100.179 33.7282 100.623 36.9826L100.401 36.7607C102.178 36.9087 104.103 37.0566 106.102 37.2785H106.25L106.324 37.4264C107.064 39.2016 108.101 41.0507 109.434 42.678L109.508 42.8259L109.434 42.9738C108.693 44.6011 107.879 46.3762 107.064 48.1514L106.99 47.7816C109.36 49.5567 111.951 51.5538 114.543 53.4769H114.172C115.579 52.2935 117.06 51.036 118.541 49.7786L118.689 49.6307L118.837 49.7047C120.614 50.4443 122.613 51.036 124.686 51.2579C124.76 51.3319 124.464 51.036 124.908 51.4798V51.5538V51.6278L124.982 51.7757L125.131 52.1455L125.353 52.8112L125.871 54.1426C126.241 55.0302 126.537 55.9178 126.833 56.8053L126.537 56.5834C129.721 56.1397 132.831 55.6959 135.941 55.326L135.718 55.6219C135.867 53.6988 136.089 51.7757 136.237 49.9266V49.7786L136.385 49.7047C138.31 48.8911 140.087 47.8555 141.642 46.6721L141.79 46.5981L141.938 46.6721C143.715 47.4857 145.418 48.2993 147.121 49.039L146.751 49.113C148.676 46.5242 150.601 44.0093 152.452 41.5685V41.9383C151.193 40.459 150.008 38.9797 148.75 37.5744L148.676 37.4264L148.75 37.2785C149.564 35.3554 150.082 33.3583 150.305 31.3613V31.2134L150.453 31.1394C152.304 30.4737 154.081 29.808 155.784 29.1423L155.636 29.4382C155.191 26.1097 154.747 23.0032 154.377 20.0446L154.599 20.2665C152.6 20.1186 150.749 19.8967 148.898 19.7487H148.75L148.676 19.6008C147.861 17.6037 146.751 15.8286 145.64 14.3493L145.566 14.2753L145.64 14.2013C146.528 12.2782 147.269 10.651 148.009 9.02376L148.083 9.24566C145.196 7.0267 142.678 5.1036 140.605 3.47637H140.753C138.976 4.95567 137.569 6.13912 136.311 7.10067H136.237H136.163C134.238 6.28705 132.757 5.91722 131.72 5.69533C131.202 5.62136 130.832 5.5474 130.61 5.47343H130.462C130.462 5.47343 130.61 5.47343 130.832 5.47343C131.054 5.47343 131.498 5.5474 131.942 5.62136C132.979 5.76929 134.46 6.13912 136.459 6.87877H136.385C137.569 5.84326 138.976 4.65981 140.753 3.18051L140.827 3.10654L140.901 3.18051C143.049 4.80774 145.566 6.65688 148.454 8.87583L148.528 8.9498L148.454 9.09773C147.713 10.725 146.973 12.4262 146.084 14.2753V14.0534C147.269 15.6067 148.38 17.3818 149.268 19.3789L149.12 19.231C150.897 19.3789 152.822 19.5268 154.821 19.7487H154.969V19.8967C155.413 22.8553 155.784 25.9618 156.228 29.2903V29.5121L156.08 29.5861C154.377 30.2518 152.6 30.9175 150.749 31.5832L150.897 31.3613C150.675 33.3583 150.156 35.4294 149.342 37.3525L149.268 37.0566C150.453 38.4619 151.711 39.9413 152.97 41.4206L153.118 41.5685L152.97 41.7164C151.119 44.1573 149.194 46.6721 147.269 49.2609L147.121 49.4088L146.899 49.3348C145.196 48.5212 143.419 47.7816 141.716 46.968H142.012C140.383 48.2254 138.606 49.3349 136.607 50.1485L136.755 49.9266C136.607 51.7757 136.459 53.6988 136.237 55.6219V55.8438H136.015C132.905 56.2876 129.795 56.6574 126.611 57.1012H126.389L126.315 56.8793C126.019 55.9917 125.649 55.1041 125.353 54.2166L124.834 52.8852L124.612 52.2195L124.464 51.8497L124.39 51.7017V51.6278V51.5538C124.834 51.9236 124.538 51.6278 124.612 51.7757C122.465 51.4798 120.392 50.9621 118.615 50.1485L118.911 50.0745C117.43 51.3319 115.875 52.5893 114.543 53.7728L114.395 53.9207L114.246 53.7728C111.655 51.7757 109.138 49.8526 106.694 48.0774L106.546 47.9295L106.62 47.7076C107.435 45.9324 108.249 44.1573 108.99 42.53V42.8259C107.657 41.1247 106.62 39.2756 105.88 37.4264L106.102 37.5744C104.103 37.4264 102.178 37.2045 100.401 37.0566H100.179V36.8347C99.7344 33.5802 99.2901 30.3997 98.9199 27.4411V27.2192L99.142 27.1453C100.993 26.4796 102.844 25.7399 104.473 25.1482L104.325 25.3701C104.621 23.2251 105.213 21.1541 105.954 19.3789L106.028 19.6008C104.769 18.0475 103.51 16.5682 102.326 15.2368L102.178 15.0889L102.326 14.941C104.325 12.2782 106.25 9.76342 108.101 7.39653L108.175 7.2486L108.323 7.32256C110.174 8.13618 111.877 8.9498 113.506 9.68945H113.284C115.061 8.35808 116.838 7.32256 118.689 6.58291L118.615 6.73084C118.837 4.65981 118.985 2.73672 119.133 1.03551V0.887583H119.281C122.909 0.739653 126.019 0.295861 128.462 0H128.536V0.0739653C129.129 1.77517 129.647 3.10654 129.943 4.06809C130.091 4.51188 130.239 4.88171 130.313 5.1036C130.462 5.3255 130.462 5.47343 130.462 5.47343Z" fill="#E0E0E0"/>
<path fill-rule="evenodd" clip-rule="evenodd" d="M85.1476 60.0601C88.1093 60.4299 90.9228 61.1696 93.5883 62.279L99.8078 57.1015L110.47 65.1637L107.138 72.4863C108.915 74.7792 110.396 77.294 111.506 80.0307L119.577 80.7704L121.354 94.0102L113.802 96.8208C113.431 99.7794 112.691 102.59 111.58 105.253L116.763 111.466L108.693 122.117L101.363 118.789C99.0674 120.564 96.55 122.043 93.8104 123.152L93.07 131.215L79.8166 132.99L77.0031 125.445C74.0414 125.076 71.2278 124.336 68.5624 123.226L62.3429 128.404L51.6809 120.342L55.0128 113.019C53.2358 110.726 51.755 108.211 50.6444 105.475L42.5739 104.735L40.7969 91.4953L48.3491 88.6847C48.7193 85.726 49.4597 82.9154 50.5703 80.2526L45.3874 74.0395L53.4579 63.3885L60.788 66.717C63.0833 64.9418 65.6007 63.4625 68.3402 62.353L69.0807 54.2908L82.334 52.5156L85.1476 60.0601ZM79.7426 78.4774C71.8942 79.513 66.4152 86.7616 67.4517 94.6019C68.4883 102.442 75.7444 107.916 83.5928 106.88C91.4411 105.845 96.9202 98.596 95.8836 90.7557C94.847 82.9154 87.591 77.4419 79.7426 78.4774Z" fill="#E0E0E0"/>
<path d="M502 276.777C502 276.851 389.605 276.998 251 276.998C112.321 276.998 0 276.925 0 276.777C0 276.629 112.395 276.555 251 276.555C389.605 276.555 502 276.629 502 276.777Z" fill="#263238"/>
<path d="M411.744 271.9H109.507C103.584 271.9 98.6973 267.092 98.6973 261.101V68.7911C98.6973 62.8739 103.51 57.9922 109.507 57.9922H411.744C417.667 57.9922 422.554 62.7999 422.554 68.7911V261.101C422.554 267.092 417.667 271.9 411.744 271.9Z" fill="#455A64"/>
<path d="M423.738 276.784H99.2887C92.0327 276.784 86.1094 270.866 86.1094 263.618V258.07H436.917V263.618C436.917 270.94 430.994 276.784 423.738 276.784Z" fill="#455A64"/>
<path d="M412.928 66.5H107.434V247.123H412.928V66.5Z" fill="#263238"/>
<path d="M228.713 256.07L233.081 263.023H294.313L298.386 256.07H228.713Z" fill="#263238"/>
<path d="M404.857 246.533H116.17C114.837 246.533 113.727 245.424 113.727 244.092V75.0815C113.727 73.7501 114.837 72.6406 116.17 72.6406H404.857C406.19 72.6406 407.3 73.7501 407.3 75.0815V244.166C407.3 245.498 406.19 246.533 404.857 246.533Z" fill="#EBEBEB"/>
<path d="M406.929 246.827H113.43L113.726 85.6562H406.929V246.827Z" fill="#FAFAFA"/>
<path d="M137.789 79.3747C137.789 80.6321 136.753 81.7416 135.42 81.7416C134.161 81.7416 133.051 80.7061 133.051 79.3747C133.051 78.1173 134.087 77.0078 135.42 77.0078C136.753 77.0078 137.789 78.0433 137.789 79.3747Z" fill="#263238"/>
<path d="M123.573 79.3747C123.573 80.6321 122.536 81.7416 121.203 81.7416C119.945 81.7416 118.834 80.7061 118.834 79.3747C118.834 78.1173 119.871 77.0078 121.203 77.0078C122.536 77.0078 123.573 78.0433 123.573 79.3747Z" fill="#263238"/>
<path d="M130.385 79.3747C130.385 80.6321 129.349 81.7416 128.016 81.7416C126.757 81.7416 125.646 80.7061 125.646 79.3747C125.646 78.1173 126.683 77.0078 128.016 77.0078C129.349 77.0078 130.385 78.0433 130.385 79.3747Z" fill="#263238"/>
<path d="M419.74 256.073C419.74 256.221 347.846 256.295 259.219 256.295C170.591 256.295 98.6973 256.221 98.6973 256.073C98.6973 255.926 170.517 255.852 259.219 255.852C347.92 255.852 419.74 256 419.74 256.073Z" fill="#263238"/>
<path d="M199.912 276.4L227.752 276.104L225.53 266.193L200.727 264.344L199.912 276.4Z" fill="#B78876"/>
<path d="M213.979 264.049L226.863 264.862C226.863 264.862 232.045 252.066 234.415 251.992L233.674 276.992L213.535 276.475L213.979 264.049Z" fill="#E8505B"/>
<path d="M225.53 272.556C225.678 273.074 226.196 273.37 226.64 273.296C227.159 273.222 227.529 272.63 227.381 272.186C227.307 271.668 226.64 271.225 226.196 271.373C225.752 271.521 225.308 272.186 225.53 272.63" fill="#E0E0E0"/>
<path d="M233.675 276.994L231.676 276.846L233.157 252.881C233.157 252.881 233.675 251.772 234.489 251.92L233.675 276.994Z" fill="#E0E0E0"/>
<path d="M226.714 264.422C226.862 264.422 226.862 265.014 227.232 265.679C227.602 266.271 228.12 266.641 228.046 266.715C228.046 266.863 227.306 266.641 226.862 265.901C226.492 265.162 226.64 264.422 226.714 264.422Z" fill="#263238"/>
<path d="M227.899 261.828C228.047 261.828 228.195 262.346 228.713 262.79C229.232 263.233 229.75 263.381 229.75 263.455C229.75 263.603 229.084 263.603 228.417 263.086C227.825 262.568 227.825 261.828 227.899 261.828Z" fill="#263238"/>
<path d="M231.083 260.428C231.083 260.576 230.491 260.724 229.824 260.354C229.158 260.058 228.936 259.466 229.01 259.392C229.084 259.318 229.454 259.688 229.972 259.984C230.565 260.28 231.083 260.354 231.083 260.428Z" fill="#263238"/>
<path d="M223.753 264.569C223.827 264.643 223.679 265.16 223.679 265.9C223.679 266.566 223.901 267.157 223.827 267.231C223.753 267.305 223.309 266.788 223.309 265.974C223.309 265.086 223.679 264.495 223.753 264.569Z" fill="#263238"/>
<path d="M221.161 264.491C221.235 264.491 221.309 265.009 221.087 265.749C221.013 266.119 220.865 266.562 220.643 267.08C220.495 267.302 220.42 267.524 220.272 267.82C220.198 267.968 220.124 268.042 219.976 268.19C219.828 268.338 219.532 268.412 219.31 268.19C219.088 268.042 219.014 267.82 219.014 267.672C219.014 267.524 219.088 267.376 219.088 267.228C219.162 266.932 219.236 266.71 219.384 266.488C219.606 266.045 219.902 265.601 220.198 265.379C220.717 264.787 221.235 264.639 221.235 264.639C221.309 264.713 220.865 264.935 220.42 265.527C220.198 265.823 219.976 266.193 219.754 266.636C219.68 266.858 219.606 267.08 219.532 267.376C219.458 267.672 219.458 267.894 219.532 267.968C219.606 267.968 219.606 267.968 219.68 267.968C219.754 267.894 219.828 267.82 219.902 267.672C220.05 267.45 220.198 267.228 220.272 267.006C220.495 266.562 220.643 266.193 220.791 265.823C221.087 264.935 221.087 264.417 221.161 264.491Z" fill="#263238"/>
<path d="M221.383 264.644C221.383 264.718 220.939 264.94 220.199 264.94C219.828 264.94 219.31 264.866 218.866 264.718C218.644 264.644 218.348 264.496 218.126 264.348C217.903 264.2 217.533 263.978 217.533 263.534C217.533 263.313 217.755 263.091 217.903 263.017C218.051 262.943 218.2 262.943 218.348 262.869C218.644 262.795 218.94 262.869 219.162 262.869C219.68 262.943 220.125 263.165 220.421 263.461C221.087 263.978 221.161 264.496 221.161 264.496C221.087 264.57 220.865 264.126 220.273 263.682C219.977 263.461 219.606 263.313 219.088 263.239C218.866 263.239 218.644 263.239 218.348 263.239C218.051 263.239 217.829 263.387 217.903 263.461C217.903 263.608 218.126 263.83 218.274 263.904C218.496 264.052 218.718 264.126 218.94 264.2C219.384 264.348 219.828 264.422 220.199 264.496C220.865 264.644 221.309 264.57 221.383 264.644Z" fill="#263238"/>
<path d="M27.0256 268.641L24.8784 276.777L1.03711 276.555C1.03711 276.555 4.29493 274.114 16.2896 274.262L17.4743 268.641H27.0256Z" fill="#B78876"/>
<path d="M51.4602 158.43C50.7938 157.099 50.1274 155.693 49.7572 154.214C49.387 152.735 49.313 151.181 49.7572 149.776C50.2755 148.371 51.3861 147.113 52.867 146.743C53.7555 146.522 54.792 146.595 55.6065 146.226C56.569 145.782 57.2354 144.82 57.9758 144.081C59.1605 142.897 60.7153 142.084 62.4183 141.788C63.3068 141.64 64.1953 141.64 65.0097 142.01C65.8242 142.379 66.4906 143.119 66.6386 144.007C67.6752 143.637 68.7118 143.193 69.7484 143.119C70.859 142.971 71.9696 143.193 72.8581 143.859C73.7466 144.524 74.1908 145.782 73.7466 146.743C74.6351 146.152 75.8938 146.522 76.4861 147.335C77.0785 148.149 77.0044 149.406 76.4861 150.22C75.9678 151.107 74.5611 151.921 73.5985 152.069C72.5619 152.291 71.3773 152.439 70.4147 152.143" fill="#263238"/>
<path d="M63.2312 190.533C67.5256 190.015 70.5613 186.095 70.043 181.879C69.7468 179.512 69.5247 177.515 69.5247 177.515C69.5247 177.515 75.522 176.257 75.2999 170.192C75.0778 164.127 73.3008 150.222 73.3008 150.222C66.1188 147.559 58.0483 148.964 52.199 153.994L51.3105 154.733L54.4203 183.654C54.9386 187.944 58.8628 191.124 63.2312 190.533Z" fill="#B78876"/>
<path d="M69.5256 177.443C69.5256 177.443 65.6754 177.961 61.4551 175.594C61.4551 175.594 63.5282 179.884 69.5996 178.996L69.5256 177.443Z" fill="#AA6550"/>
<path d="M52.4218 160.945C52.3477 160.871 48.2014 159.909 48.4976 164.051C48.8678 168.193 52.94 167.01 52.94 166.862C53.0141 166.788 52.4218 160.945 52.4218 160.945Z" fill="#B78876"/>
<path d="M51.6065 165.38C51.6065 165.38 51.5324 165.454 51.3843 165.528C51.2363 165.602 51.0882 165.676 50.866 165.602C50.4218 165.454 49.9776 164.788 49.9035 164.049C49.8295 163.679 49.9035 163.309 50.0516 163.013C50.1256 162.717 50.3478 162.495 50.5699 162.421C50.792 162.347 50.9401 162.495 51.0141 162.569C51.0882 162.717 51.0882 162.791 51.0882 162.791C51.0882 162.791 51.1622 162.717 51.0882 162.569C51.0882 162.495 51.0141 162.421 50.9401 162.347C50.8661 162.273 50.718 162.273 50.4958 162.273C50.1997 162.347 49.9035 162.643 49.8295 163.013C49.6814 163.383 49.6073 163.753 49.6814 164.197C49.7554 165.01 50.2737 165.75 50.866 165.898C51.1622 165.972 51.3843 165.824 51.5324 165.75C51.6065 165.528 51.6065 165.454 51.6065 165.38Z" fill="#AA6550"/>
<path d="M71.8958 160.208C71.9698 160.652 71.5996 161.096 71.0813 161.096C70.6371 161.17 70.1929 160.8 70.1188 160.356C70.0448 159.913 70.415 159.469 70.9333 159.469C71.4516 159.469 71.8958 159.765 71.8958 160.208Z" fill="#263238"/>
<path d="M72.6357 158.802C72.5617 158.95 71.8213 158.432 70.9328 158.506C69.9702 158.506 69.3038 159.024 69.2298 158.95C69.1558 158.876 69.3038 158.728 69.6 158.432C69.8962 158.21 70.3404 157.988 70.9328 157.914C71.5251 157.914 72.0434 158.062 72.3395 158.284C72.5617 158.58 72.6357 158.728 72.6357 158.802Z" fill="#263238"/>
<path d="M63.0091 160.646C63.0831 161.09 62.7129 161.533 62.1946 161.533C61.7504 161.607 61.3061 161.238 61.2321 160.794C61.158 160.35 61.5283 159.906 62.0465 159.906C62.5648 159.906 63.0091 160.202 63.0091 160.646Z" fill="#263238"/>
<path d="M63.4541 159.466C63.38 159.614 62.6396 159.096 61.7511 159.17C60.7886 159.17 60.1222 159.688 60.0482 159.614C59.9741 159.54 60.1222 159.392 60.4184 159.096C60.7145 158.874 61.1588 158.652 61.7511 158.578C62.3434 158.578 62.8617 158.726 63.1579 158.948C63.38 159.17 63.4541 159.392 63.4541 159.466Z" fill="#263238"/>
<path d="M67.1568 166.198C67.1568 166.124 67.7492 166.05 68.6377 165.828C68.8598 165.828 69.0819 165.754 69.156 165.532C69.23 165.384 69.0819 165.088 68.9338 164.867C68.7117 164.275 68.4155 163.683 68.1194 163.091C67.0088 160.577 66.1943 158.506 66.2683 158.432C66.3424 158.358 67.379 160.429 68.4896 162.943C68.7857 163.535 69.0079 164.201 69.23 164.719C69.304 165.015 69.5262 165.31 69.3781 165.68C69.304 165.828 69.156 165.976 69.0079 166.05C68.8598 166.124 68.7117 166.124 68.6377 166.124C67.7492 166.198 67.1568 166.272 67.1568 166.198Z" fill="#263238"/>
<path d="M64.4909 167.011C64.639 167.011 64.713 167.973 65.6015 168.713C66.49 169.378 67.6007 169.23 67.6007 169.378C67.6007 169.452 67.3785 169.6 66.9343 169.6C66.49 169.674 65.8237 169.526 65.3054 169.082C64.7871 168.639 64.4909 168.121 64.4169 167.677C64.2688 167.233 64.4169 166.937 64.4909 167.011Z" fill="#263238"/>
<path d="M72.1911 157.177C72.043 157.399 71.3767 157.177 70.6363 157.251C69.8958 157.251 69.2295 157.473 69.0814 157.251C69.0074 157.177 69.0814 156.955 69.3776 156.733C69.6737 156.511 70.118 156.363 70.6363 156.289C71.1545 156.289 71.6728 156.437 71.895 156.659C72.1171 156.881 72.2652 157.103 72.1911 157.177Z" fill="#263238"/>
<path d="M62.0471 156.137C61.9731 156.285 61.6769 156.211 61.3808 156.211C61.0846 156.137 60.6403 156.137 60.1961 156.137C59.7519 156.137 59.3816 156.211 59.0114 156.285C58.7153 156.359 58.4931 156.359 58.3451 156.285C58.271 156.211 58.3451 155.915 58.6412 155.619C58.9374 155.323 59.5297 155.102 60.1221 155.102C60.7884 155.102 61.3067 155.323 61.6769 155.619C62.0471 155.767 62.1212 155.989 62.0471 156.137Z" fill="#263238"/>
<path d="M73.7457 152.068C73.7457 152.068 69.7474 153.621 64.8607 152.068C61.6769 151.033 58.0489 150.811 57.3825 151.55C56.7162 152.29 57.0123 155.323 54.1988 156.728C54.1988 156.728 55.3094 162.571 52.9401 162.719C50.5707 162.867 50.6448 153.548 50.6448 153.548L55.9017 149.923L61.9731 147.778L67.8224 146.891L73.5236 147.704L73.7457 152.068Z" fill="#263238"/>
<path d="M82.6291 189.87L100.843 206.956L129.645 187.281L138.678 197.636L110.913 219.826C108.099 222.341 104.545 223.746 100.843 223.894C95.7344 224.116 90.8477 221.897 87.5899 217.977L77.8164 209.767L82.6291 189.87Z" fill="#E8505B"/>
<path d="M65.6744 182.547L82.6298 189.869L82.0375 194.529L89.8859 225.743L98.4747 232.03L91.3667 242.459C89.7378 244.826 87.6646 246.749 85.2213 248.228L68.3399 258.287C65.082 259.471 61.38 257.917 59.9732 254.737L45.0168 220.861L29.9865 267.385C29.0239 270.418 25.9882 272.267 22.8785 271.823L16.9552 270.935C14.9561 270.64 13.6233 268.642 14.1416 266.645L30.949 201.408C31.8375 198.006 33.3183 194.751 35.2434 191.866C38.8714 186.393 45.0168 183.065 51.6065 182.917L65.6744 182.547Z" fill="#E8505B"/>
<path d="M71.6723 183.062L71.0799 179.66L53.0879 178.477V182.988C53.236 184.246 55.3091 183.876 57.2342 184.69L66.0451 186.465C68.1923 186.613 72.7088 185.799 71.6723 183.062Z" fill="#E8505B"/>
<path d="M90.1075 225.963C90.1075 225.963 89.8854 225.519 89.6633 224.779C89.3671 224.04 88.9969 222.856 88.5527 221.451C87.6642 218.64 86.4795 214.794 85.3689 210.43C84.2583 206.066 83.3698 202.146 82.8515 199.261C82.5553 197.856 82.3332 196.673 82.2592 195.859C82.1111 195.045 82.037 194.602 82.1111 194.602C82.1111 194.602 82.2592 195.045 82.4072 195.859C82.6294 196.747 82.8515 197.856 83.1477 199.261C83.74 202.146 84.7025 206.066 85.8131 210.43C86.9238 214.794 88.0344 218.64 88.8488 221.451C89.219 222.782 89.5893 223.966 89.8114 224.779C90.0335 225.519 90.1816 225.963 90.1075 225.963Z" fill="#263238"/>
<path d="M50.495 205.398C50.5691 205.398 50.2729 206.286 49.7546 207.765C49.2363 209.319 48.57 211.168 47.8296 213.313C47.0891 215.458 46.4228 217.307 45.9045 218.86C45.3862 220.265 45.09 221.153 45.016 221.153C44.9419 221.153 45.1641 220.265 45.6083 218.786C46.0526 217.307 46.7189 215.384 47.4593 213.165C48.1998 211.02 48.9402 209.023 49.5325 207.617C50.1248 206.286 50.495 205.398 50.495 205.398Z" fill="#263238"/>
<g opacity="0.2">
<path d="M45.0176 220.932C46.4244 224.186 47.9052 227.441 49.312 230.769C49.5341 231.287 49.7562 231.805 50.2005 232.249C50.5707 232.692 51.163 232.914 51.7553 232.84C52.7919 232.618 53.0881 231.213 53.1621 230.104C53.3842 222.929 53.1621 215.606 50.6447 208.95C50.4966 208.432 50.1264 207.914 49.6081 207.914C49.1639 207.988 48.9418 208.506 48.7937 208.95C47.609 213.166 46.4244 217.308 45.3137 221.524" fill="black"/>
</g>
<g opacity="0.2">
<path d="M91.6637 221.597C92.2561 221.301 92.5522 220.561 92.5522 219.896C92.5522 219.23 92.2561 218.564 92.0339 217.973C90.1089 213.387 87.4434 209.171 84.1855 205.398L87.7395 217.973L91.6637 221.597Z" fill="black"/>
</g>
<path d="M35.6141 215.974C35.5401 215.974 35.7622 211.684 35.9843 206.432C36.2805 201.181 36.5026 196.891 36.5026 196.891C36.5767 196.891 36.3545 201.181 36.1324 206.432C35.9103 211.684 35.6141 215.974 35.6141 215.974Z" fill="#E0E0E0"/>
<path d="M38.9462 201.109C38.9462 201.109 38.9462 201.257 39.0202 201.479C39.0202 201.701 39.0202 202.071 39.0202 202.441C38.9462 203.254 38.7981 204.364 38.3539 205.547C37.9096 206.731 37.3173 207.692 36.873 208.358C36.6509 208.654 36.4288 208.95 36.2807 209.098C36.1326 209.246 36.0586 209.32 36.0586 209.32C36.0586 209.32 36.3548 208.95 36.873 208.284C37.3173 207.618 37.9096 206.657 38.2798 205.473C38.7241 204.29 38.8722 203.18 38.9462 202.367C38.9462 201.627 38.8722 201.109 38.9462 201.109Z" fill="#E0E0E0"/>
<path d="M32.875 201.695C32.875 201.695 32.949 202.139 33.0971 202.805C33.2452 203.47 33.4673 204.432 33.9116 205.468C34.3558 206.429 34.8741 207.317 35.3184 207.834C35.7626 208.426 36.0588 208.722 36.0588 208.722C36.0588 208.722 35.9847 208.648 35.8367 208.5C35.6886 208.352 35.4664 208.13 35.2443 207.834C34.8001 207.317 34.2077 206.429 33.7635 205.468C33.3192 204.432 33.0971 203.47 32.949 202.805C32.875 202.435 32.875 202.139 32.875 201.991C32.875 201.843 32.875 201.695 32.875 201.695Z" fill="#E0E0E0"/>
<path d="M38.1321 198.594C38.1321 198.594 38.1321 198.668 38.1321 198.89C38.1321 199.038 38.1321 199.333 38.1321 199.629C38.0581 200.295 37.984 201.109 37.6879 202.07C37.3917 203.032 37.0215 203.845 36.7253 204.363C36.5772 204.659 36.4292 204.881 36.3551 205.029C36.2811 205.177 36.207 205.251 36.207 205.251C36.207 205.251 36.3551 204.881 36.6513 204.363C36.9474 203.771 37.3177 202.958 37.5398 202.07C37.8359 201.109 37.984 200.295 38.0581 199.629C38.1321 199.038 38.1321 198.594 38.1321 198.594Z" fill="#E0E0E0"/>
<path d="M34.2811 199.109C34.2811 199.109 34.2811 199.553 34.2811 200.293C34.2811 201.032 34.3551 201.994 34.6513 203.103C34.8734 204.213 35.2436 205.101 35.6138 205.766C35.91 206.432 36.1321 206.802 36.1321 206.802C36.1321 206.802 36.0581 206.728 35.91 206.506C35.7619 206.358 35.6138 206.062 35.4657 205.766C35.0955 205.101 34.7253 204.139 34.5032 203.103C34.2811 201.994 34.207 200.958 34.207 200.293C34.207 199.923 34.207 199.627 34.2811 199.405C34.207 199.257 34.207 199.109 34.2811 199.109Z" fill="#E0E0E0"/>
<path d="M35.4661 197.703C35.4661 197.703 35.392 197.999 35.318 198.369C35.2439 198.813 35.2439 199.404 35.392 200.07C35.6882 201.327 36.1324 202.363 36.1324 202.363C36.1324 202.363 35.9844 202.141 35.8363 201.697C35.6882 201.327 35.4661 200.736 35.318 200.07C35.1699 199.404 35.1699 198.813 35.2439 198.369C35.318 197.925 35.4661 197.703 35.4661 197.703Z" fill="#E0E0E0"/>
<path d="M33.1719 207.391C33.2459 207.391 33.6161 208.204 34.3565 209.092C35.097 209.979 35.7633 210.571 35.7633 210.645C35.7633 210.645 35.5412 210.497 35.245 210.275C34.9489 210.053 34.5787 209.684 34.2085 209.166C33.8382 208.722 33.5421 208.278 33.394 207.908C33.2459 207.613 33.1719 207.391 33.1719 207.391Z" fill="#E0E0E0"/>
<path d="M39.0213 208.428C39.0213 208.428 38.8732 208.65 38.6511 209.02C38.429 209.39 37.9847 209.834 37.5405 210.278C37.0962 210.721 36.652 211.165 36.2818 211.387C35.9116 211.683 35.6895 211.831 35.6895 211.757C35.6895 211.757 35.8375 211.535 36.2077 211.313C36.5039 211.017 36.9482 210.647 37.3924 210.13C37.8367 209.686 38.2069 209.242 38.503 208.872C38.7992 208.576 38.9473 208.354 39.0213 208.428Z" fill="#E0E0E0"/>
<path d="M23.0262 263.755C22.9522 263.755 23.1743 259.465 23.3964 254.213C23.6926 248.962 23.9147 244.672 23.9147 244.672C23.9888 244.672 23.7667 248.962 23.5445 254.213C23.3224 259.539 23.0262 263.755 23.0262 263.755Z" fill="#E0E0E0"/>
<path d="M26.3583 248.961C26.3583 248.961 26.3583 249.109 26.4324 249.331C26.4324 249.553 26.4324 249.922 26.4324 250.292C26.3583 251.106 26.2102 252.215 25.766 253.399C25.3217 254.582 24.7294 255.544 24.2852 256.21C24.063 256.505 23.8409 256.801 23.6928 256.949C23.5447 257.097 23.4707 257.171 23.4707 257.171C23.4707 257.171 23.7669 256.801 24.2852 256.136C24.7294 255.47 25.3217 254.508 25.6919 253.325C26.1362 252.141 26.2843 251.032 26.3583 250.218C26.3583 249.479 26.3583 248.961 26.3583 248.961Z" fill="#E0E0E0"/>
<path d="M20.2871 249.555C20.2871 249.555 20.3612 249.998 20.5092 250.664C20.6573 251.33 20.8794 252.291 21.3237 253.327C21.7679 254.288 22.2862 255.176 22.7305 255.694C23.1747 256.286 23.4709 256.581 23.4709 256.581C23.4709 256.581 23.3968 256.507 23.2488 256.36C23.1007 256.212 22.8786 255.99 22.6564 255.694C22.2122 255.176 21.6199 254.288 21.1756 253.327C20.7314 252.291 20.5092 251.33 20.3612 250.664C20.2871 250.294 20.2871 249.998 20.2871 249.851C20.2871 249.629 20.2871 249.555 20.2871 249.555Z" fill="#E0E0E0"/>
<path d="M25.6184 246.445C25.6184 246.445 25.6184 246.519 25.6184 246.741C25.6184 246.889 25.6184 247.185 25.6184 247.481C25.5444 248.147 25.4704 248.96 25.1742 249.922C24.878 250.883 24.5078 251.697 24.2116 252.215C24.0636 252.51 23.9155 252.732 23.8414 252.88C23.7674 253.028 23.6934 253.102 23.6934 253.102C23.6934 253.102 23.8414 252.732 24.1376 252.215C24.4338 251.623 24.804 250.809 25.0261 249.922C25.3223 248.96 25.4704 248.147 25.5444 247.481C25.5444 246.815 25.5444 246.445 25.6184 246.445Z" fill="#E0E0E0"/>
<path d="M21.6932 246.961C21.6932 246.961 21.6932 247.405 21.6932 248.144C21.6932 248.884 21.7672 249.846 22.0634 250.955C22.2855 252.065 22.6557 252.952 23.0259 253.618C23.3221 254.284 23.5442 254.653 23.5442 254.653C23.5442 254.653 23.4702 254.579 23.3221 254.357C23.174 254.21 23.0259 253.914 22.8778 253.618C22.5076 252.952 22.1374 251.991 21.9153 250.955C21.6932 249.846 21.6191 248.81 21.6191 248.144C21.6191 247.775 21.6191 247.479 21.6932 247.257C21.6191 247.035 21.6932 246.961 21.6932 246.961Z" fill="#E0E0E0"/>
<path d="M22.9524 245.562C22.9524 245.562 22.8784 245.858 22.8043 246.228C22.7303 246.672 22.7303 247.264 22.8784 247.929C23.1745 249.187 23.6188 250.222 23.6188 250.222C23.6188 250.222 23.4707 250 23.3226 249.557C23.1745 249.187 22.9524 248.595 22.8043 247.929C22.6562 247.264 22.6562 246.672 22.7303 246.228C22.8043 245.784 22.8784 245.562 22.9524 245.562Z" fill="#E0E0E0"/>
<path d="M20.6564 255.25C20.7305 255.25 21.1007 256.064 21.8411 256.951C22.5815 257.839 23.2479 258.431 23.2479 258.504C23.2479 258.504 23.0257 258.357 22.7296 258.135C22.4334 257.913 22.0632 257.543 21.693 257.025C21.3228 256.581 21.0266 256.138 20.8785 255.768C20.7305 255.472 20.5824 255.25 20.6564 255.25Z" fill="#E0E0E0"/>
<path d="M26.4334 256.211C26.4334 256.211 26.2853 256.433 26.0632 256.803C25.8411 257.172 25.3968 257.616 24.9526 258.06C24.5083 258.504 24.0641 258.948 23.6939 259.17C23.3237 259.465 23.1016 259.613 23.1016 259.539C23.1016 259.539 23.2496 259.317 23.6199 259.096C23.916 258.8 24.3603 258.43 24.8045 257.912C25.2488 257.468 25.619 257.025 25.9151 256.655C26.2113 256.433 26.4334 256.211 26.4334 256.211Z" fill="#E0E0E0"/>
<path d="M50.4208 202.442C50.3467 202.442 50.5689 198.152 50.791 192.901C51.0871 187.649 51.3093 183.359 51.3093 183.359C51.3833 183.359 51.1612 187.649 50.9391 192.901C50.7169 198.152 50.4208 202.442 50.4208 202.442Z" fill="#E0E0E0"/>
<path d="M53.7528 187.648C53.7528 187.648 53.7528 187.796 53.8269 188.018C53.8269 188.24 53.8269 188.61 53.8269 188.98C53.7528 189.793 53.6048 190.903 53.1605 192.086C52.7163 193.27 52.1239 194.231 51.6797 194.897C51.4576 195.193 51.2354 195.489 51.0874 195.637C50.9393 195.785 50.8652 195.859 50.8652 195.859C50.8652 195.859 51.1614 195.489 51.6797 194.823C52.1239 194.157 52.7163 193.196 53.0865 192.012C53.5307 190.829 53.6788 189.719 53.7528 188.906C53.7528 188.092 53.7528 187.648 53.7528 187.648Z" fill="#E0E0E0"/>
<path d="M47.6816 188.242C47.6816 188.242 47.7557 188.686 47.9038 189.352C48.0518 190.017 48.274 190.979 48.7182 192.014C49.1625 192.976 49.6808 193.864 50.125 194.381C50.5692 194.973 50.8654 195.269 50.8654 195.269C50.8654 195.269 50.7914 195.195 50.6433 195.047C50.4952 194.899 50.2731 194.677 50.051 194.381C49.6067 193.864 49.0144 192.976 48.5701 192.014C48.1259 190.979 47.9038 190.017 47.7557 189.352C47.6816 188.982 47.6816 188.686 47.6816 188.538C47.6816 188.316 47.6816 188.242 47.6816 188.242Z" fill="#E0E0E0"/>
<path d="M53.013 185.062C53.013 185.062 53.013 185.136 53.013 185.358C53.013 185.506 53.013 185.802 53.013 186.098C52.9389 186.764 52.8649 187.577 52.5687 188.539C52.2726 189.5 51.9023 190.314 51.6062 190.832C51.4581 191.128 51.31 191.35 51.236 191.497C51.1619 191.645 51.0879 191.719 51.0879 191.719C51.0879 191.719 51.236 191.35 51.5321 190.832C51.8283 190.24 52.1985 189.426 52.4206 188.539C52.7168 187.577 52.8649 186.764 52.9389 186.098C52.9389 185.506 52.9389 185.062 53.013 185.062Z" fill="#E0E0E0"/>
<path d="M49.0877 185.578C49.0877 185.578 49.0877 186.022 49.0877 186.762C49.0877 187.501 49.1618 188.463 49.4579 189.572C49.68 190.682 50.0503 191.569 50.4205 192.235C50.7166 192.901 50.9388 193.271 50.9388 193.271C50.9388 193.271 50.8647 193.197 50.7166 192.975C50.5685 192.827 50.4205 192.531 50.2724 192.235C49.9022 191.569 49.532 190.608 49.3098 189.572C49.0877 188.463 49.0137 187.427 49.0137 186.762C49.0137 186.392 49.0137 186.096 49.0877 185.874C49.0137 185.726 49.0877 185.578 49.0877 185.578Z" fill="#E0E0E0"/>
<path d="M50.3469 184.172C50.3469 184.172 50.2729 184.468 50.1989 184.838C50.1248 185.281 50.1248 185.873 50.2729 186.539C50.5691 187.796 51.0133 188.832 51.0133 188.832C51.0133 188.832 50.8652 188.61 50.7171 188.166C50.5691 187.796 50.3469 187.204 50.1989 186.539C50.0508 185.873 50.0508 185.281 50.1248 184.838C50.1988 184.468 50.2729 184.172 50.3469 184.172Z" fill="#E0E0E0"/>
<path d="M48.0509 193.859C48.125 193.859 48.4952 194.673 49.2356 195.561C49.976 196.448 50.6424 197.04 50.6424 197.114C50.6424 197.114 50.4203 196.966 50.1241 196.744C49.8279 196.522 49.4577 196.152 49.0875 195.635C48.7173 195.191 48.4211 194.747 48.2731 194.377C48.125 194.081 47.9769 193.859 48.0509 193.859Z" fill="#E0E0E0"/>
<path d="M53.828 194.897C53.828 194.897 53.6799 195.119 53.4577 195.489C53.2356 195.859 52.7914 196.302 52.3471 196.746C51.9029 197.19 51.4586 197.634 51.0884 197.856C50.7182 198.152 50.4961 198.3 50.4961 198.226C50.4961 198.226 50.6442 198.004 51.0144 197.782C51.3106 197.486 51.7548 197.116 52.199 196.598C52.6433 196.155 53.0135 195.711 53.3097 195.341C53.6058 195.045 53.828 194.823 53.828 194.897Z" fill="#E0E0E0"/>
<path d="M66.4891 199.036C66.4151 199.036 66.6372 194.746 66.8593 189.495C67.1555 184.243 67.3776 179.953 67.3776 179.953C67.4517 179.953 67.2295 184.243 67.0074 189.495C66.7853 194.746 66.4891 199.036 66.4891 199.036Z" fill="#E0E0E0"/>
<path d="M69.8212 184.172C69.8212 184.172 69.8212 184.32 69.8952 184.542C69.8952 184.764 69.8952 185.133 69.8952 185.503C69.8212 186.317 69.6731 187.426 69.2289 188.61C68.7846 189.793 68.1923 190.755 67.748 191.42C67.5259 191.716 67.3038 192.012 67.1557 192.16C67.0076 192.308 66.9336 192.382 66.9336 192.382C66.9336 192.382 67.2298 192.012 67.748 191.347C68.1923 190.681 68.7846 189.719 69.1548 188.536C69.5991 187.352 69.7472 186.243 69.8212 185.429C69.8212 184.69 69.7472 184.172 69.8212 184.172Z" fill="#E0E0E0"/>
<path d="M63.75 184.758C63.75 184.758 63.824 185.202 63.9721 185.867C64.1202 186.533 64.3423 187.495 64.7866 188.53C65.2308 189.492 65.7491 190.379 66.1934 190.897C66.6376 191.489 66.9338 191.785 66.9338 191.785C66.9338 191.785 66.8597 191.711 66.7117 191.563C66.5636 191.415 66.3414 191.193 66.1193 190.897C65.6751 190.379 65.0827 189.492 64.6385 188.53C64.1943 187.495 63.9721 186.533 63.824 185.867C63.75 185.497 63.75 185.202 63.75 185.054C63.75 184.906 63.75 184.758 63.75 184.758Z" fill="#E0E0E0"/>
<path d="M69.0071 181.656C69.0071 181.656 69.0071 181.73 69.0071 181.952C69.0071 182.1 69.0071 182.396 69.0071 182.692C68.9331 183.357 68.859 184.171 68.5629 185.133C68.2667 186.094 67.8965 186.908 67.6003 187.426C67.4522 187.721 67.3042 187.943 67.2301 188.091C67.1561 188.239 67.082 188.313 67.082 188.313C67.082 188.313 67.2301 187.943 67.5263 187.426C67.8224 186.834 68.1927 186.02 68.4148 185.133C68.7109 184.171 68.859 183.357 68.9331 182.692C69.0071 182.026 69.0071 181.656 69.0071 181.656Z" fill="#E0E0E0"/>
<path d="M65.1561 182.172C65.1561 182.172 65.1561 182.616 65.1561 183.355C65.1561 184.095 65.2301 185.057 65.5263 186.166C65.7484 187.275 66.1186 188.163 66.4888 188.829C66.785 189.494 67.0071 189.864 67.0071 189.864C67.0071 189.864 66.9331 189.79 66.785 189.568C66.6369 189.42 66.4888 189.125 66.3407 188.829C65.9705 188.163 65.6003 187.202 65.3782 186.166C65.1561 185.057 65.082 184.021 65.082 183.355C65.082 182.985 65.082 182.69 65.1561 182.468C65.082 182.246 65.082 182.172 65.1561 182.172Z" fill="#E0E0E0"/>
<path d="M66.3411 180.766C66.3411 180.766 66.267 181.061 66.193 181.431C66.1189 181.875 66.1189 182.467 66.267 183.133C66.5632 184.39 67.0074 185.425 67.0074 185.425C67.0074 185.425 66.8594 185.204 66.7113 184.76C66.5632 184.39 66.3411 183.798 66.193 183.133C66.0449 182.467 66.0449 181.875 66.1189 181.431C66.193 180.988 66.3411 180.766 66.3411 180.766Z" fill="#E0E0E0"/>
<path d="M64.0469 190.453C64.1209 190.453 64.4911 191.267 65.2315 192.154C65.9719 193.042 66.6383 193.634 66.6383 193.708C66.6383 193.708 66.4162 193.56 66.12 193.338C65.8239 193.116 65.4537 192.746 65.0835 192.228C64.7132 191.784 64.4171 191.341 64.269 190.971C64.1209 190.675 64.0469 190.453 64.0469 190.453Z" fill="#E0E0E0"/>
<path d="M69.8963 191.414C69.8963 191.414 69.7482 191.636 69.5261 192.006C69.304 192.376 68.8597 192.819 68.4155 193.263C67.9712 193.707 67.527 194.151 67.1568 194.373C66.7866 194.669 66.5645 194.816 66.5645 194.743C66.5645 194.743 66.7125 194.521 67.0827 194.299C67.3789 194.003 67.8232 193.633 68.2674 193.115C68.7116 192.671 69.0819 192.228 69.378 191.858C69.6742 191.636 69.8223 191.414 69.8963 191.414Z" fill="#E0E0E0"/>
<path d="M73.079 213.981C73.0049 213.981 73.2271 209.691 73.4492 204.44C73.7453 199.188 73.9675 194.898 73.9675 194.898C74.0415 194.898 73.8194 199.188 73.5973 204.44C73.3751 209.691 73.079 213.981 73.079 213.981Z" fill="#E0E0E0"/>
<path d="M76.411 199.188C76.411 199.188 76.411 199.335 76.4851 199.557C76.4851 199.779 76.4851 200.149 76.4851 200.519C76.411 201.333 76.263 202.442 75.8187 203.625C75.3745 204.809 74.7821 205.77 74.3379 206.436C74.1158 206.732 73.8936 207.028 73.7456 207.176C73.5975 207.324 73.5234 207.398 73.5234 207.398C73.5234 207.398 73.8196 207.028 74.3379 206.362C74.7821 205.696 75.3745 204.735 75.7447 203.551C76.1889 202.368 76.337 201.259 76.411 200.445C76.411 199.631 76.337 199.188 76.411 199.188Z" fill="#E0E0E0"/>
<path d="M70.3398 199.781C70.3398 199.781 70.4139 200.225 70.562 200.891C70.7101 201.556 70.9322 202.518 71.3764 203.553C71.8207 204.515 72.339 205.403 72.7832 205.92C73.2275 206.512 73.5236 206.808 73.5236 206.808C73.5236 206.808 73.4496 206.734 73.3015 206.586C73.1534 206.438 72.9313 206.216 72.7092 205.92C72.2649 205.403 71.6726 204.515 71.2283 203.553C70.7841 202.518 70.562 201.556 70.4139 200.891C70.3398 200.521 70.3398 200.225 70.3398 200.077C70.3398 199.855 70.3398 199.781 70.3398 199.781Z" fill="#E0E0E0"/>
<path d="M75.5969 196.602C75.5969 196.602 75.5969 196.676 75.5969 196.897C75.5969 197.045 75.5969 197.341 75.5969 197.637C75.5229 198.303 75.4489 199.116 75.1527 200.078C74.8565 201.039 74.4863 201.853 74.1902 202.371C74.0421 202.667 73.894 202.889 73.82 203.037C73.7459 203.184 73.6719 203.258 73.6719 203.258C73.6719 203.258 73.82 202.889 74.1161 202.371C74.4123 201.779 74.7825 200.966 75.0046 200.078C75.3008 199.116 75.4489 198.303 75.5229 197.637C75.5969 197.045 75.5969 196.602 75.5969 196.602Z" fill="#E0E0E0"/>
<path d="M71.7459 197.117C71.7459 197.117 71.7459 197.561 71.7459 198.301C71.7459 199.04 71.82 200.002 72.1161 201.111C72.3382 202.221 72.7084 203.108 73.0787 203.774C73.3748 204.44 73.5969 204.81 73.5969 204.81C73.5969 204.81 73.5229 204.736 73.3748 204.514C73.2267 204.366 73.0787 204.07 72.9306 203.774C72.5604 203.108 72.1902 202.147 71.968 201.111C71.7459 200.002 71.6719 198.966 71.6719 198.301C71.6719 197.931 71.6719 197.635 71.7459 197.413C71.6719 197.265 71.7459 197.117 71.7459 197.117Z" fill="#E0E0E0"/>
<path d="M72.9309 195.711C72.9309 195.711 72.8569 196.007 72.7828 196.377C72.7088 196.82 72.7088 197.412 72.8569 198.078C73.153 199.335 73.5973 200.371 73.5973 200.371C73.5973 200.371 73.4492 200.149 73.3011 199.705C73.153 199.335 72.9309 198.744 72.7828 198.078C72.6348 197.412 72.6347 196.82 72.7088 196.377C72.7828 196.007 72.9309 195.711 72.9309 195.711Z" fill="#E0E0E0"/>
<path d="M70.7094 205.398C70.7834 205.398 71.1537 206.212 71.8941 207.1C72.6345 207.987 73.3009 208.579 73.3009 208.653C73.3009 208.653 73.0787 208.505 72.7826 208.283C72.4864 208.061 72.1162 207.691 71.746 207.174C71.3758 206.73 71.0796 206.286 70.9315 205.916C70.7094 205.62 70.6354 205.398 70.7094 205.398Z" fill="#E0E0E0"/>
<path d="M76.4862 206.436C76.4862 206.436 76.3381 206.658 76.1159 207.028C75.8938 207.398 75.4496 207.842 75.0053 208.285C74.5611 208.729 74.1168 209.173 73.7466 209.395C73.3764 209.691 73.1543 209.839 73.1543 209.765C73.1543 209.765 73.3024 209.543 73.6726 209.321C73.9687 209.025 74.413 208.655 74.8572 208.137C75.3015 207.694 75.6717 207.25 75.9679 206.88C76.264 206.584 76.4862 206.362 76.4862 206.436Z" fill="#E0E0E0"/>
<path d="M95.9565 219.899C95.8825 219.899 94.5497 215.83 92.9208 210.801C91.2919 205.771 90.0332 201.703 90.0332 201.703C90.1072 201.703 91.44 205.771 93.0689 210.801C94.6978 215.83 96.0306 219.899 95.9565 219.899Z" fill="#E0E0E0"/>
<path d="M93.8086 204.883C93.8086 204.883 93.8826 204.957 93.9567 205.179C94.0307 205.401 94.1788 205.696 94.3269 206.066C94.549 206.88 94.8452 207.989 94.8452 209.247C94.8452 210.504 94.6971 211.614 94.475 212.427C94.4009 212.797 94.2528 213.167 94.1788 213.315C94.1048 213.537 94.0307 213.611 94.0307 213.611C94.0307 213.611 94.1788 213.093 94.4009 212.353C94.6231 211.54 94.7711 210.43 94.7711 209.247C94.7711 207.989 94.549 206.88 94.3269 206.14C93.9567 205.327 93.8086 204.883 93.8086 204.883Z" fill="#E0E0E0"/>
<path d="M88.3301 207.547C88.3301 207.547 88.5522 207.917 88.9224 208.508C89.2926 209.1 89.8849 209.914 90.6254 210.653C91.3658 211.393 92.1802 211.985 92.7726 212.355C93.3649 212.724 93.8091 212.946 93.7351 212.946C93.7351 212.946 93.661 212.946 93.4389 212.872C93.2168 212.798 92.9947 212.65 92.6985 212.503C92.1062 212.133 91.2177 211.541 90.4773 210.801C89.6628 209.988 89.1445 209.174 88.7743 208.582C88.6262 208.287 88.4782 207.991 88.4041 207.843C88.4041 207.695 88.3301 207.621 88.3301 207.547Z" fill="#E0E0E0"/>
<path d="M92.1797 202.812C92.1797 202.812 92.2537 202.886 92.3278 203.034C92.4018 203.182 92.4759 203.478 92.5499 203.774C92.698 204.366 92.9201 205.253 92.9941 206.215C93.0682 207.176 92.9941 208.064 92.9201 208.73C92.8461 209.026 92.8461 209.321 92.772 209.469C92.698 209.617 92.698 209.765 92.698 209.765C92.698 209.765 92.772 209.395 92.772 208.73C92.8461 208.064 92.8461 207.25 92.772 206.289C92.698 205.327 92.5499 204.44 92.4018 203.848C92.2537 203.182 92.1797 202.812 92.1797 202.812Z" fill="#E0E0E0"/>
<path d="M88.7012 204.664C88.7012 204.664 88.8493 205.108 89.1454 205.774C89.4416 206.439 89.8858 207.327 90.4782 208.288C91.0705 209.176 91.8109 209.99 92.3292 210.433C92.8475 210.951 93.2177 211.247 93.2177 211.247C93.2177 211.247 93.1436 211.173 92.9215 211.099C92.7734 210.951 92.5513 210.803 92.2552 210.507C91.7369 209.99 90.9964 209.25 90.4041 208.362C89.8118 207.401 89.3675 206.513 89.0714 205.847C88.9233 205.478 88.8493 205.256 88.7752 205.034C88.7012 204.738 88.7012 204.664 88.7012 204.664Z" fill="#E0E0E0"/>
<path d="M89.3669 202.883C89.3669 202.883 89.3669 203.179 89.515 203.549C89.589 203.992 89.8111 204.51 90.1814 205.102C90.9218 206.211 91.7362 206.951 91.6622 207.025C91.6622 207.025 91.44 206.877 91.1439 206.581C90.8477 206.285 90.4035 205.841 90.0333 205.25C89.6631 204.658 89.4409 204.066 89.3669 203.696C89.2929 203.179 89.3669 202.883 89.3669 202.883Z" fill="#E0E0E0"/>
<path d="M90.6992 212.797C90.6992 212.797 91.4396 213.389 92.4022 213.98C93.3647 214.572 94.2532 214.868 94.2532 214.942C94.2532 214.942 94.0311 214.942 93.6609 214.794C93.2907 214.646 92.8464 214.424 92.3281 214.128C91.8098 213.832 91.4396 213.537 91.1435 213.241C90.8473 212.945 90.6992 212.797 90.6992 212.797Z" fill="#E0E0E0"/>
<path d="M96.4741 211.617C96.4741 211.617 96.4741 211.913 96.326 212.283C96.1779 212.727 96.0298 213.244 95.7337 213.836C95.5115 214.428 95.2154 214.946 94.9933 215.315C94.7711 215.685 94.623 215.907 94.623 215.907C94.623 215.907 94.6971 215.685 94.9192 215.315C95.1413 214.946 95.3635 214.428 95.6596 213.836C95.8817 213.244 96.1039 212.727 96.252 212.283C96.326 211.839 96.4 211.617 96.4741 211.617Z" fill="#E0E0E0"/>
<path d="M120.391 199.04C120.391 199.04 117.726 202.443 114.394 206.511C111.062 210.579 108.322 213.907 108.322 213.907C108.322 213.907 110.988 210.579 114.32 206.437C117.651 202.295 120.391 198.966 120.391 199.04Z" fill="#E0E0E0"/>
<path d="M108.914 208.948C108.914 208.948 108.988 208.8 109.062 208.652C109.21 208.43 109.358 208.208 109.654 207.838C110.173 207.173 110.987 206.359 112.024 205.693C113.06 205.028 114.097 204.51 114.911 204.288C115.282 204.14 115.652 204.066 115.874 204.066C116.096 203.992 116.244 203.992 116.244 203.992C116.244 203.992 115.726 204.14 114.985 204.362C114.245 204.658 113.208 205.102 112.172 205.767C111.135 206.433 110.321 207.247 109.803 207.838C109.21 208.578 108.988 209.022 108.914 208.948Z" fill="#E0E0E0"/>
<path d="M114.17 212.056C114.17 212.056 114.392 211.686 114.688 211.02C114.984 210.355 115.355 209.467 115.577 208.358C115.799 207.322 115.873 206.287 115.873 205.621C115.873 204.881 115.799 204.438 115.799 204.438C115.799 204.438 115.799 204.511 115.873 204.733C115.873 204.955 115.947 205.251 115.947 205.547C116.021 206.287 115.947 207.248 115.725 208.358C115.503 209.467 115.132 210.355 114.762 211.02C114.614 211.316 114.466 211.612 114.318 211.76C114.244 211.982 114.17 212.13 114.17 212.056Z" fill="#E0E0E0"/>
<path d="M108.025 211.47C108.025 211.47 108.099 211.396 108.173 211.248C108.248 211.1 108.47 210.878 108.618 210.657C109.062 210.139 109.654 209.547 110.469 208.955C111.283 208.364 112.024 207.92 112.616 207.698C112.912 207.55 113.134 207.476 113.282 207.402C113.43 207.328 113.578 207.328 113.578 207.328C113.578 207.328 113.208 207.476 112.69 207.772C112.098 208.068 111.357 208.512 110.617 209.103C109.876 209.695 109.21 210.287 108.766 210.731C108.322 211.174 108.099 211.47 108.025 211.47Z" fill="#E0E0E0"/>
<path d="M111.506 213.393C111.506 213.393 111.802 213.023 112.172 212.431C112.616 211.84 113.135 210.952 113.579 209.99C114.023 208.955 114.245 207.993 114.393 207.254C114.542 206.514 114.616 206.07 114.616 206.07C114.616 206.07 114.616 206.218 114.616 206.366C114.616 206.588 114.542 206.884 114.542 207.254C114.393 207.993 114.171 208.955 113.727 209.99C113.283 211.026 112.765 211.914 112.32 212.505C112.098 212.801 111.876 213.023 111.802 213.171C111.58 213.319 111.506 213.393 111.506 213.393Z" fill="#E0E0E0"/>
<path d="M109.654 213.763C109.654 213.763 109.876 213.615 110.173 213.245C110.469 212.949 110.839 212.432 111.061 211.84C111.579 210.656 111.801 209.547 111.876 209.547C111.876 209.547 111.876 209.843 111.727 210.213C111.653 210.656 111.505 211.248 111.209 211.84C110.913 212.432 110.543 212.949 110.247 213.245C109.95 213.689 109.654 213.763 109.654 213.763Z" fill="#E0E0E0"/>
<path d="M117.281 207.322C117.207 207.322 117.355 206.36 117.355 205.251C117.281 204.141 117.133 203.18 117.133 203.18C117.133 203.18 117.207 203.402 117.281 203.771C117.355 204.141 117.429 204.659 117.429 205.251C117.429 205.842 117.429 206.36 117.355 206.73C117.355 207.1 117.281 207.322 117.281 207.322Z" fill="#E0E0E0"/>
<path d="M113.209 203.107C113.209 203.107 113.431 202.959 113.875 202.885C114.32 202.737 114.838 202.589 115.504 202.515C116.171 202.441 116.763 202.367 117.133 202.367C117.577 202.367 117.8 202.367 117.8 202.367C117.8 202.367 117.503 202.441 117.133 202.441C116.689 202.515 116.097 202.589 115.504 202.663C114.838 202.737 114.32 202.885 113.875 202.959C113.431 203.033 113.209 203.107 113.209 203.107Z" fill="#E0E0E0"/>
<path d="M70.7096 251.333C70.6356 251.333 70.4875 247.043 70.4135 241.792C70.2654 236.54 70.1913 232.25 70.2654 232.25C70.3394 232.25 70.4875 236.54 70.5615 241.792C70.6356 247.043 70.7096 251.333 70.7096 251.333Z" fill="#E0E0E0"/>
<path d="M72.856 236.32C72.856 236.32 72.856 236.468 72.93 236.69C72.93 236.912 73.0041 237.282 73.0041 237.652C73.0041 238.465 72.93 239.575 72.6339 240.832C72.2637 242.016 71.8194 243.051 71.3752 243.791C71.1531 244.161 70.9309 244.383 70.8569 244.604C70.7088 244.752 70.6348 244.9 70.6348 244.9C70.6348 244.9 70.9309 244.456 71.3011 243.791C71.7454 243.125 72.1896 242.09 72.5598 240.906C72.856 239.723 73.0041 238.613 73.0041 237.8C72.93 236.838 72.856 236.32 72.856 236.32Z" fill="#E0E0E0"/>
<path d="M66.8594 237.352C66.8594 237.352 66.9334 237.795 67.1555 238.461C67.3777 239.127 67.6738 240.088 68.1921 241.05C68.7104 242.011 69.3027 242.825 69.821 243.343C70.2653 243.861 70.6355 244.156 70.6355 244.156C70.6355 244.156 70.5614 244.082 70.4134 243.934C70.2653 243.787 70.0432 243.639 69.821 243.343C69.3027 242.825 68.7104 242.011 68.1921 241.05C67.6738 240.088 67.3777 239.127 67.1555 238.461C67.0815 238.091 67.0075 237.795 67.0075 237.647C66.8594 237.426 66.8594 237.352 66.8594 237.352Z" fill="#E0E0E0"/>
<path d="M71.9689 233.805C71.9689 233.805 71.9689 233.879 72.043 234.101C72.043 234.248 72.043 234.544 72.043 234.84C72.043 235.506 71.9689 236.393 71.7468 237.355C71.5247 238.317 71.2285 239.13 70.9324 239.722C70.7843 240.018 70.7102 240.24 70.5621 240.388C70.4881 240.536 70.4141 240.609 70.4141 240.609C70.4141 240.609 70.5621 240.24 70.7843 239.648C71.0064 239.056 71.3026 238.243 71.5247 237.281C71.7468 236.319 71.8208 235.432 71.8208 234.84C71.8949 234.248 71.8949 233.805 71.9689 233.805Z" fill="#E0E0E0"/>
<path d="M68.0447 234.617C68.0447 234.617 68.0447 235.061 68.1188 235.801C68.1928 236.54 68.3409 237.502 68.7111 238.611C69.0813 239.647 69.4515 240.608 69.8217 241.2C70.1919 241.866 70.4141 242.236 70.4141 242.236C70.4141 242.236 70.34 242.162 70.1919 242.014C70.0439 241.866 69.8958 241.57 69.6736 241.274C69.3034 240.682 68.8592 239.721 68.489 238.685C68.1188 237.65 67.9707 236.614 67.9707 235.875C67.9707 235.505 67.9707 235.209 67.9707 234.987C68.0447 234.765 68.0447 234.617 68.0447 234.617Z" fill="#E0E0E0"/>
<path d="M69.2295 233.141C69.2295 233.141 69.1554 233.436 69.1554 233.806C69.1554 234.25 69.1554 234.842 69.3776 235.434C69.7478 236.691 70.3401 237.652 70.2661 237.652C70.2661 237.652 70.118 237.431 69.8958 237.061C69.6737 236.691 69.4516 236.099 69.2295 235.508C69.0073 234.842 69.0074 234.25 69.0814 233.806C69.0814 233.363 69.1554 233.141 69.2295 233.141Z" fill="#E0E0E0"/>
<path d="M67.6738 242.977C67.7479 242.977 68.1921 243.716 69.0066 244.604C69.747 245.417 70.5614 246.009 70.4874 246.009C70.4874 246.009 70.2653 245.935 69.9691 245.713C69.6729 245.491 69.3027 245.122 68.8585 244.752C68.4883 244.308 68.1181 243.938 67.97 243.568C67.7479 243.198 67.6738 242.977 67.6738 242.977Z" fill="#E0E0E0"/>
<path d="M73.5222 243.492C73.5222 243.492 73.4482 243.714 73.152 244.084C72.9299 244.454 72.5597 244.898 72.1895 245.415C71.7452 245.933 71.375 246.377 71.0788 246.599C70.7827 246.895 70.5605 247.043 70.5605 247.043C70.5605 247.043 70.7086 246.821 71.0048 246.525C71.301 246.229 71.6712 245.785 72.1154 245.267C72.5597 244.75 72.8558 244.306 73.152 243.936C73.3001 243.714 73.5222 243.492 73.5222 243.492Z" fill="#E0E0E0"/>
<path d="M86.9975 236.172C86.9235 236.172 85.5907 232.104 83.9618 227.074C82.3329 222.045 81.0742 217.977 81.0742 217.977C81.1483 217.977 82.481 222.045 84.1099 227.074C85.7388 232.104 86.9975 236.172 86.9975 236.172Z" fill="#E0E0E0"/>
<path d="M84.7754 221.156C84.7754 221.156 84.8494 221.23 84.9235 221.452C84.9975 221.674 85.1456 221.97 85.2937 222.34C85.5158 223.153 85.812 224.263 85.812 225.52C85.812 226.778 85.6639 227.887 85.4418 228.701C85.3677 229.071 85.2196 229.44 85.1456 229.588C85.0716 229.81 84.9975 229.884 84.9975 229.884C84.9975 229.884 85.1456 229.366 85.3677 228.627C85.5898 227.813 85.7379 226.704 85.7379 225.52C85.7379 224.263 85.5158 223.153 85.2937 222.414C84.9975 221.6 84.7754 221.156 84.7754 221.156Z" fill="#E0E0E0"/>
<path d="M79.3711 223.891C79.3711 223.891 79.5932 224.26 79.9634 224.852C80.3336 225.444 80.926 226.258 81.6664 226.997C82.4068 227.737 83.2212 228.329 83.8136 228.698C84.4059 229.068 84.8502 229.29 84.7761 229.29C84.7761 229.29 84.7021 229.29 84.4799 229.216C84.2578 229.142 84.0357 228.994 83.7395 228.846C83.1472 228.476 82.2587 227.885 81.5183 227.145C80.7038 226.331 80.1856 225.518 79.8153 224.926C79.6673 224.63 79.5192 224.334 79.4451 224.186C79.3711 223.965 79.3711 223.891 79.3711 223.891Z" fill="#E0E0E0"/>
<path d="M83.2209 219.086C83.2209 219.086 83.2949 219.16 83.3689 219.308C83.443 219.456 83.517 219.752 83.5911 220.047C83.7392 220.639 83.9613 221.527 84.0353 222.488C84.1094 223.45 84.0353 224.337 83.9613 225.003C83.8872 225.299 83.8872 225.595 83.8132 225.743C83.7392 225.891 83.7392 226.039 83.7392 226.039C83.7392 226.039 83.8132 225.669 83.8132 225.003C83.8872 224.337 83.8872 223.524 83.8132 222.562C83.7392 221.601 83.5911 220.713 83.443 220.121C83.2949 219.456 83.1468 219.086 83.2209 219.086Z" fill="#E0E0E0"/>
<path d="M79.7422 220.938C79.7422 220.938 79.8903 221.381 80.1864 222.047C80.4826 222.713 80.9268 223.6 81.5192 224.562C82.1115 225.449 82.8519 226.263 83.3702 226.707C83.8885 227.225 84.2587 227.52 84.2587 227.52C84.2587 227.52 84.1847 227.446 83.9625 227.372C83.8145 227.225 83.5923 227.077 83.2962 226.781C82.7779 226.263 82.0375 225.523 81.4451 224.636C80.8528 223.674 80.4086 222.787 80.1124 222.121C79.9643 221.751 79.8903 221.529 79.8162 221.307C79.7422 221.011 79.7422 220.938 79.7422 220.938Z" fill="#E0E0E0"/>
<path d="M80.4071 219.156C80.4071 219.156 80.4071 219.452 80.5552 219.822C80.6292 220.266 80.8513 220.783 81.2215 221.375C81.962 222.485 82.7764 223.224 82.7024 223.298C82.7024 223.298 82.4803 223.15 82.1841 222.855C81.8879 222.559 81.4437 222.115 81.0735 221.523C80.7033 220.931 80.4811 220.34 80.4071 219.97C80.3331 219.452 80.3331 219.156 80.4071 219.156Z" fill="#E0E0E0"/>
<path d="M81.666 229.07C81.666 229.07 82.4064 229.662 83.369 230.254C84.3315 230.845 85.22 231.141 85.22 231.215C85.22 231.215 84.9979 231.215 84.6277 231.067C84.2575 230.919 83.8132 230.698 83.2949 230.402C82.7766 230.106 82.4064 229.81 82.1103 229.514C81.8141 229.218 81.666 229.07 81.666 229.07Z" fill="#E0E0E0"/>
<path d="M87.4409 227.891C87.4409 227.891 87.4409 228.186 87.2928 228.556C87.1447 229 86.9966 229.518 86.7005 230.11C86.4783 230.701 86.1822 231.219 85.9601 231.589C85.7379 231.959 85.5898 232.181 85.5898 232.181C85.5898 232.181 85.6639 231.959 85.886 231.589C86.1081 231.219 86.3303 230.701 86.6264 230.11C86.8485 229.518 87.0707 229 87.2188 228.556C87.3668 228.186 87.4409 227.891 87.4409 227.891Z" fill="#E0E0E0"/>
<path d="M36.4292 242.164C36.3551 242.164 35.0224 238.096 33.3935 233.066C31.7646 228.037 30.5059 223.969 30.5059 223.969C30.5799 223.969 31.9126 228.037 33.5416 233.066C35.1705 238.022 36.4292 242.164 36.4292 242.164Z" fill="#E0E0E0"/>
<path d="M34.207 227.078C34.207 227.078 34.2811 227.152 34.3551 227.374C34.4292 227.596 34.5772 227.892 34.7253 228.262C34.9474 229.075 35.2436 230.185 35.2436 231.442C35.2436 232.699 35.0955 233.809 34.8734 234.623C34.7994 234.992 34.6513 235.362 34.5772 235.51C34.5032 235.732 34.4292 235.806 34.4292 235.806C34.4292 235.806 34.5772 235.288 34.7994 234.549C35.0215 233.735 35.1696 232.626 35.1696 231.442C35.1696 230.185 34.9474 229.075 34.7253 228.336C34.4292 227.596 34.207 227.078 34.207 227.078Z" fill="#E0E0E0"/>
<path d="M28.8027 229.812C28.8027 229.812 29.0249 230.182 29.3951 230.774C29.7653 231.366 30.3576 232.179 31.098 232.919C31.8384 233.659 32.6529 234.25 33.2452 234.62C33.8375 234.99 34.2818 235.212 34.2077 235.212C34.2077 235.212 34.1337 235.212 33.9116 235.138C33.6895 235.064 33.4673 234.916 33.1712 234.768C32.5788 234.398 31.6903 233.807 30.9499 233.067C30.1355 232.253 29.6172 231.44 29.247 230.848C29.0989 230.552 28.9508 230.256 28.8768 230.108C28.8027 229.886 28.8027 229.812 28.8027 229.812Z" fill="#E0E0E0"/>
<path d="M32.6525 225.008C32.6525 225.008 32.7265 225.082 32.8006 225.23C32.8746 225.378 32.9487 225.673 33.0227 225.969C33.1708 226.561 33.3929 227.449 33.467 228.41C33.541 229.372 33.467 230.259 33.3929 230.925C33.3189 231.221 33.3189 231.517 33.2448 231.665C33.1708 231.813 33.1708 231.961 33.1708 231.961C33.1708 231.961 33.2448 231.591 33.2448 230.925C33.3189 230.259 33.3189 229.446 33.2448 228.484C33.1708 227.523 33.0227 226.635 32.8746 226.043C32.7265 225.378 32.5785 225.008 32.6525 225.008Z" fill="#E0E0E0"/>
<path d="M29.1738 226.852C29.1738 226.852 29.3219 227.295 29.6181 227.961C29.9142 228.627 30.3585 229.514 30.9508 230.476C31.5431 231.363 32.2836 232.177 32.8019 232.621C33.3201 233.139 33.6903 233.434 33.6903 233.434C33.6903 233.434 33.6163 233.36 33.3942 233.287C33.2461 233.139 33.024 232.991 32.7278 232.695C32.2095 232.177 31.4691 231.437 30.8768 230.55C30.2844 229.588 29.8402 228.701 29.544 228.035C29.396 227.665 29.3219 227.443 29.2479 227.221C29.1738 226.999 29.1738 226.852 29.1738 226.852Z" fill="#E0E0E0"/>
<path d="M29.8387 225.148C29.8387 225.148 29.8387 225.444 29.9868 225.814C30.0609 226.258 30.283 226.776 30.6532 227.367C31.3936 228.477 32.2081 229.217 32.134 229.29C32.134 229.29 31.9119 229.143 31.6157 228.847C31.3196 228.551 30.8753 228.107 30.5051 227.515C30.1349 226.924 29.9128 226.332 29.8387 225.962C29.7647 225.37 29.7647 225.148 29.8387 225.148Z" fill="#E0E0E0"/>
<path d="M31.0977 234.992C31.0977 234.992 31.8381 235.584 32.8006 236.176C33.7631 236.767 34.6516 237.063 34.6516 237.137C34.6516 237.137 34.4295 237.137 34.0593 236.989C33.6891 236.841 33.2449 236.619 32.7266 236.324C32.2083 236.028 31.8381 235.732 31.5419 235.436C31.2457 235.214 31.0977 234.992 31.0977 234.992Z" fill="#E0E0E0"/>
<path d="M36.8725 233.883C36.8725 233.883 36.8725 234.179 36.7244 234.548C36.5764 234.992 36.4283 235.51 36.1321 236.102C35.91 236.693 35.6138 237.211 35.3917 237.581C35.1696 237.951 35.0215 238.173 35.0215 238.173C35.0215 238.173 35.0955 237.951 35.3177 237.581C35.5398 237.211 35.7619 236.693 36.0581 236.102C36.2802 235.51 36.5023 234.992 36.6504 234.548C36.7985 234.105 36.8725 233.883 36.8725 233.883Z" fill="#E0E0E0"/>
<path d="M57.8993 227.513C57.8252 227.513 58.0474 223.223 58.2695 217.971C58.5657 212.72 58.7878 208.43 58.7878 208.43C58.8618 208.43 58.6397 212.72 58.4176 217.971C58.1955 223.223 57.9733 227.513 57.8993 227.513Z" fill="#E0E0E0"/>
<path d="M61.2314 212.719C61.2314 212.719 61.2314 212.867 61.3054 213.089C61.3054 213.31 61.3054 213.68 61.3054 214.05C61.2314 214.864 61.0833 215.973 60.639 217.157C60.1948 218.34 59.6025 219.302 59.1582 219.967C58.9361 220.263 58.714 220.559 58.5659 220.707C58.4178 220.855 58.3438 220.929 58.3438 220.929C58.3438 220.929 58.6399 220.559 59.1582 219.893C59.6025 219.228 60.1948 218.266 60.565 217.083C61.0092 215.899 61.1573 214.79 61.2314 213.976C61.2314 213.163 61.2314 212.719 61.2314 212.719Z" fill="#E0E0E0"/>
<path d="M55.1602 213.312C55.1602 213.312 55.2342 213.756 55.3823 214.422C55.5304 215.088 55.7525 216.049 56.1967 217.085C56.641 218.046 57.1593 218.934 57.6035 219.452C58.0478 220.043 58.3439 220.339 58.3439 220.339C58.3439 220.339 58.2699 220.265 58.1218 220.117C57.9737 219.969 57.7516 219.747 57.5295 219.452C57.0852 218.934 56.4929 218.046 56.0486 217.085C55.6044 216.049 55.3823 215.088 55.2342 214.422C55.1602 214.052 55.1602 213.756 55.1602 213.608C55.1602 213.386 55.1602 213.312 55.1602 213.312Z" fill="#E0E0E0"/>
<path d="M60.4915 210.133C60.4915 210.133 60.4915 210.207 60.4915 210.429C60.4915 210.577 60.4915 210.872 60.4915 211.168C60.4174 211.834 60.3434 212.648 60.0472 213.609C59.7511 214.571 59.3809 215.384 59.0847 215.902C58.9366 216.198 58.7885 216.42 58.7145 216.568C58.6405 216.716 58.5664 216.79 58.5664 216.79C58.5664 216.79 58.7145 216.42 59.0107 215.902C59.3068 215.31 59.677 214.497 59.8992 213.609C60.1953 212.648 60.3434 211.834 60.4174 211.168C60.4174 210.577 60.4915 210.133 60.4915 210.133Z" fill="#E0E0E0"/>
<path d="M56.5662 210.648C56.5662 210.648 56.5662 211.092 56.5662 211.832C56.5662 212.572 56.6403 213.533 56.9364 214.643C57.1586 215.752 57.5288 216.64 57.899 217.305C58.1951 217.971 58.4173 218.341 58.4173 218.341C58.4173 218.341 58.3432 218.267 58.1951 218.045C58.0471 217.897 57.899 217.601 57.7509 217.305C57.3807 216.64 57.0105 215.678 56.7883 214.643C56.5662 213.533 56.4922 212.498 56.4922 211.832C56.4922 211.462 56.4922 211.166 56.5662 210.944C56.5662 210.796 56.5662 210.648 56.5662 210.648Z" fill="#E0E0E0"/>
<path d="M57.8254 209.242C57.8254 209.242 57.7514 209.538 57.6774 209.908C57.6033 210.352 57.6033 210.943 57.7514 211.609C58.0476 212.866 58.4918 213.902 58.4918 213.902C58.4918 213.902 58.3437 213.68 58.1956 213.236C58.0476 212.866 57.8254 212.275 57.6774 211.609C57.5293 210.943 57.5293 210.352 57.6033 209.908C57.6774 209.538 57.8254 209.242 57.8254 209.242Z" fill="#E0E0E0"/>
<path d="M55.5312 218.93C55.6053 218.93 55.9755 219.743 56.7159 220.631C57.4563 221.518 58.1227 222.11 58.1227 222.184C58.1227 222.184 57.9006 222.036 57.6044 221.814C57.3082 221.592 56.938 221.223 56.5678 220.705C56.1976 220.261 55.9015 219.817 55.7534 219.447C55.6053 219.152 55.5312 218.93 55.5312 218.93Z" fill="#E0E0E0"/>
<path d="M61.3065 219.967C61.3065 219.967 61.1584 220.189 60.9363 220.559C60.7141 220.929 60.2699 221.373 59.8256 221.817C59.3814 222.26 58.9371 222.704 58.5669 222.926C58.1967 223.222 57.9746 223.37 57.9746 223.296C57.9746 223.296 58.1227 223.074 58.4929 222.852C58.7891 222.556 59.2333 222.186 59.6776 221.669C60.1218 221.225 60.492 220.781 60.7882 220.411C61.1584 220.115 61.3065 219.893 61.3065 219.967Z" fill="#E0E0E0"/>
<g opacity="0.3">
<path d="M53.6055 183.359C56.4931 185.652 59.8249 187.427 63.3789 188.463C64.8597 188.907 66.4887 189.277 68.0435 188.981C69.5984 188.685 71.0792 187.649 71.5235 186.17C71.5975 185.8 71.5975 185.282 71.3013 185.135C70.9311 184.987 70.5609 185.282 70.1907 185.578C69.1541 186.392 65.9704 186.54 64.6376 186.392C60.3432 185.874 57.5297 184.839 53.6055 183.359Z" fill="black"/>
</g>
<path d="M81.4452 213.391C81.4452 213.391 81.5192 213.539 81.5932 213.76C81.6673 213.982 81.7413 214.352 81.8894 214.796C82.1115 215.758 82.3337 217.089 82.4077 218.79C82.5558 222.192 81.8894 227 79.372 231.586C76.8546 236.172 73.0785 239.278 70.1168 240.98C68.636 241.793 67.3773 242.385 66.4888 242.681C66.0446 242.829 65.6744 242.977 65.4522 243.051C65.2301 243.125 65.082 243.125 65.082 243.125C65.082 243.125 65.6003 242.903 66.4148 242.533C67.3033 242.163 68.562 241.571 69.9688 240.758C72.8564 239.057 76.4844 235.95 79.0018 231.438C81.5192 226.926 82.1856 222.192 82.1115 218.864C82.1115 217.163 81.8894 215.831 81.7413 214.87C81.5192 213.908 81.3711 213.391 81.4452 213.391Z" fill="#263238"/>
<g opacity="0.2">
<path d="M82.0379 218.195C82.186 221.376 80.7052 224.63 78.2618 226.627C76.6329 227.959 74.7078 228.772 73.153 230.104C71.6721 231.361 70.5615 232.988 69.9692 234.764C69.673 235.725 69.5249 236.835 70.1913 237.574C70.9317 238.388 72.2645 238.166 73.301 237.722C76.6329 236.317 79.0022 233.21 80.335 229.808C81.5937 226.405 81.8898 222.781 82.112 219.157" fill="black"/>
</g>
<path d="M100.77 215.455C100.696 215.529 99.8819 213.532 99.9559 210.944C99.9559 208.355 100.844 206.358 100.918 206.432C101.067 206.432 100.4 208.429 100.326 210.944C100.252 213.458 100.918 215.455 100.77 215.455Z" fill="#263238"/>
<path d="M102.991 214.573C102.917 214.647 101.733 213.02 101.14 210.653C100.622 208.286 100.992 206.289 101.066 206.289C101.214 206.289 100.992 208.212 101.511 210.579C102.103 212.872 103.14 214.499 102.991 214.573Z" fill="#263238"/>
<path d="M139.643 193.71C139.643 193.71 139.42 193.562 138.976 193.34C138.606 193.118 137.94 192.97 137.199 193.192L136.903 193.266L137.051 192.97C137.273 192.6 137.421 192.083 137.495 191.565C137.643 190.455 137.421 189.42 137.051 188.754C136.755 188.089 136.385 187.793 136.459 187.719C136.459 187.719 136.903 187.941 137.273 188.68C137.643 189.346 138.014 190.455 137.792 191.639C137.718 192.231 137.495 192.674 137.273 193.118L137.125 192.896C137.94 192.674 138.68 192.896 139.05 193.192C139.494 193.414 139.643 193.71 139.643 193.71Z" fill="#AA6550"/>
<path d="M144.604 190.451C145.27 188.75 152.23 185.791 151.267 184.756C150.083 183.35 144.233 188.158 143.641 188.528C143.123 188.898 142.604 188.158 143.049 187.862C143.789 187.419 151.119 182.611 149.935 181.205C149.268 180.466 148.083 181.723 148.083 181.723C148.083 181.723 141.568 186.753 141.05 186.087C140.531 185.421 144.233 182.315 145.566 181.353C146.899 180.392 146.973 179.43 146.084 179.134C145.492 178.986 141.346 181.797 140.013 182.759C138.68 183.72 135.2 186.457 135.867 183.646C136.533 180.836 136.015 178.469 135.496 177.951C134.904 177.433 133.942 178.025 134.09 178.913C134.238 179.652 134.09 180.836 133.942 181.797C133.794 182.537 133.497 183.276 133.201 184.016C132.905 184.756 132.017 186.531 129.943 188.084L137.273 196.664L138.236 195.999C141.864 193.558 145.196 192.596 147.195 191.487C150.823 189.416 150.675 189.046 150.379 188.676C149.638 187.64 143.937 192.152 144.604 190.451Z" fill="#B78876"/>
<path d="M134.682 176.916L137.051 192.226L146.306 192.079L146.75 189.194C146.75 189.194 152.007 189.194 152.378 184.756C152.748 180.318 148.305 180.244 148.305 180.244L148.972 176.25L134.682 176.916ZM146.972 187.641L148.083 181.945C148.083 181.945 151.267 181.871 150.971 184.46C150.749 186.975 146.972 187.641 146.972 187.641Z" fill="#455A64"/>
<path d="M141.641 156.281C141.641 156.281 141.715 156.355 141.789 156.429C141.863 156.503 142.011 156.725 142.159 156.947C142.381 157.465 142.529 158.278 142.381 159.24C142.233 160.201 141.715 161.237 141.197 162.346C140.9 162.938 140.678 163.53 140.53 164.122C140.382 164.787 140.456 165.453 140.678 166.119C141.197 167.45 142.159 168.412 143.048 169.373C143.862 170.335 144.528 171.296 144.751 172.258C144.973 173.219 144.751 174.033 144.454 174.477C144.306 174.699 144.158 174.847 144.084 174.994C143.936 175.068 143.936 175.142 143.936 175.142C143.936 175.142 144.158 174.92 144.38 174.477C144.602 174.033 144.751 173.219 144.528 172.332C144.306 171.444 143.64 170.483 142.825 169.595C142.011 168.707 140.9 167.672 140.382 166.267C140.086 165.527 140.086 164.787 140.234 164.122C140.382 163.456 140.604 162.79 140.9 162.198C141.493 161.089 142.011 160.053 142.159 159.166C142.381 158.278 142.233 157.465 142.085 157.021C141.789 156.503 141.567 156.281 141.641 156.281Z" fill="#263238"/>
<path d="M139.197 156.352C139.197 156.352 139.271 156.426 139.345 156.5C139.42 156.573 139.568 156.795 139.716 157.017C139.938 157.535 140.086 158.349 139.938 159.31C139.79 160.272 139.271 161.307 138.753 162.417C138.457 163.008 138.235 163.6 138.087 164.192C137.939 164.858 138.013 165.523 138.235 166.189C138.753 167.52 139.716 168.482 140.604 169.443C141.419 170.405 142.085 171.367 142.307 172.328C142.529 173.29 142.307 174.103 142.011 174.547C141.863 174.769 141.715 174.917 141.641 175.065C141.493 175.139 141.493 175.213 141.493 175.213C141.493 175.213 141.715 174.991 141.937 174.547C142.159 174.103 142.307 173.29 142.085 172.402C141.863 171.514 141.197 170.553 140.382 169.665C139.568 168.778 138.457 167.742 137.939 166.337C137.643 165.597 137.643 164.858 137.791 164.192C137.939 163.526 138.161 162.861 138.457 162.269C139.049 161.159 139.568 160.124 139.716 159.236C139.938 158.349 139.79 157.535 139.642 157.091C139.345 156.573 139.123 156.352 139.197 156.352Z" fill="#263238"/>
<path d="M135.645 183.203C135.645 183.203 135.645 182.981 135.941 182.759C136.237 182.537 136.755 182.315 137.422 182.537C138.088 182.685 138.68 183.203 139.273 183.795C139.865 184.312 140.605 184.978 141.494 184.83C142.382 184.682 143.123 184.09 143.863 183.795C144.233 183.647 144.678 183.499 145.048 183.499C145.418 183.499 145.788 183.573 146.084 183.721C146.677 184.017 147.047 184.386 147.195 184.756C147.343 185.052 147.417 185.274 147.343 185.274C147.343 185.274 147.269 185.126 147.047 184.83C146.825 184.534 146.455 184.238 145.936 184.017C145.64 183.943 145.344 183.869 144.974 183.869C144.604 183.869 144.307 184.017 143.937 184.164C143.197 184.46 142.53 185.126 141.42 185.274C140.901 185.348 140.383 185.2 139.939 184.978C139.495 184.756 139.199 184.46 138.902 184.164C138.31 183.573 137.792 183.055 137.199 182.907C136.607 182.759 136.163 182.833 135.867 183.055C135.719 183.055 135.645 183.203 135.645 183.203Z" fill="#FAFAFA"/>
<path d="M135.273 181.205C135.273 181.205 135.273 180.983 135.644 180.688C135.94 180.466 136.532 180.244 137.199 180.392C137.865 180.54 138.531 181.131 139.198 181.723C139.79 182.315 140.604 182.98 141.567 182.833C142.529 182.685 143.27 182.093 144.084 181.723C144.529 181.501 144.899 181.427 145.343 181.353C145.787 181.353 146.158 181.427 146.454 181.575C147.12 181.871 147.49 182.315 147.638 182.611C147.86 182.98 147.86 183.128 147.86 183.202C147.86 183.202 147.786 183.054 147.564 182.759C147.342 182.463 146.972 182.093 146.38 181.871C146.083 181.723 145.713 181.723 145.343 181.723C144.973 181.723 144.603 181.871 144.232 182.093C143.492 182.463 142.678 183.128 141.567 183.276C141.049 183.35 140.456 183.202 140.012 182.906C139.568 182.685 139.198 182.315 138.901 182.019C138.309 181.427 137.717 180.909 137.124 180.688C136.532 180.466 136.014 180.614 135.718 180.835C135.422 181.057 135.347 181.205 135.273 181.205Z" fill="#FAFAFA"/>
<path d="M66.0449 258.727L78.8541 276.701L218.866 276.627L218.792 260.724L148.009 253.994L89.1458 245.266L66.0449 258.727Z" fill="#263238"/>
<path d="M88.627 245.787L98.5485 232.103L126.536 197.561C130.46 193.345 136.161 191.2 141.863 191.792C148.897 192.532 154.82 197.266 157.189 203.922L175.7 260.284L151.192 256.438L138.753 221.526L119.132 248.893L88.627 245.787Z" fill="#263238"/>
<path d="M175.625 256.66C175.625 256.66 175.551 256.66 175.403 256.66C175.255 256.66 175.033 256.66 174.737 256.66C174.144 256.586 173.33 256.586 172.293 256.512C170.146 256.364 167.036 256.068 163.26 255.773C155.634 255.107 145.12 254.219 133.57 253.258C127.795 252.74 122.242 252.296 117.207 251.852C114.689 251.63 112.32 251.409 110.099 251.187C107.878 250.965 105.804 250.595 103.953 250.151C102.102 249.707 100.399 249.19 99.0666 248.45C97.7338 247.71 96.6973 246.897 95.9569 246.083C95.2164 245.269 94.8462 244.53 94.5501 244.012C94.3279 243.494 94.2539 243.198 94.2539 243.198C94.3279 243.124 94.6241 244.382 96.0309 245.935C96.7713 246.675 97.8079 247.562 99.0666 248.228C100.399 248.968 102.028 249.485 103.879 249.855C105.73 250.299 107.803 250.595 110.025 250.817C112.246 251.039 114.615 251.187 117.133 251.409C122.167 251.852 127.721 252.296 133.496 252.814C145.046 253.849 155.56 254.737 163.186 255.403C166.962 255.773 169.998 256.068 172.219 256.216C173.256 256.29 174.07 256.438 174.663 256.438C174.959 256.438 175.107 256.512 175.329 256.512C175.625 256.586 175.625 256.66 175.625 256.66Z" fill="#455A64"/>
<path d="M140.678 208.951C140.752 208.951 140.456 209.617 140.086 210.726C139.716 211.836 139.346 213.389 139.049 215.164C138.753 216.939 138.753 218.492 138.753 219.676C138.753 220.859 138.827 221.599 138.753 221.599C138.679 221.599 138.531 220.859 138.457 219.75C138.383 218.566 138.383 216.939 138.679 215.164C138.975 213.389 139.42 211.836 139.864 210.726C140.234 209.543 140.604 208.877 140.678 208.951Z" fill="#455A64"/>
<path d="M135.273 213.609C135.421 213.609 135.643 215.606 136.606 217.825C137.568 220.118 138.827 221.672 138.753 221.746C138.679 221.82 137.272 220.34 136.309 217.973C135.273 215.68 135.199 213.609 135.273 213.609Z" fill="#455A64"/>
<path d="M215.237 265.461C215.385 265.535 214.349 267.902 214.053 271.008C213.756 274.115 214.423 276.63 214.275 276.704C214.201 276.704 214.053 276.112 213.831 275.076C213.682 274.041 213.534 272.562 213.682 271.008C213.831 269.381 214.201 267.976 214.497 267.014C214.867 266.053 215.163 265.461 215.237 265.461Z" fill="#455A64"/>
<path d="M71.6719 184.688C71.6719 184.688 71.6719 184.762 71.5238 184.836C71.4498 184.91 71.3017 185.058 71.0796 185.206C70.7094 185.502 70.043 185.872 69.1545 186.168C67.3775 186.686 64.8601 186.538 62.1946 186.168C59.5291 185.724 57.1598 184.984 55.5309 184.245C54.7164 183.875 54.0501 183.579 53.6058 183.357C53.1616 183.135 52.9395 182.987 52.9395 182.913C52.9395 182.839 53.976 183.357 55.6049 183.949C57.2338 184.541 59.6032 185.28 62.2687 185.724C64.9341 186.168 67.3775 186.316 69.0805 185.872C70.8574 185.502 71.6719 184.615 71.6719 184.688Z" fill="#263238"/>
<path d="M465.35 217.976C468.459 216.349 472.087 216.201 475.567 216.719C477.418 217.015 479.343 217.607 480.602 218.938C481.861 220.343 482.083 222.784 480.676 223.968C479.788 224.707 478.603 224.781 477.492 224.781C474.827 224.781 471.791 224.264 469.644 225.891C468.385 226.852 467.571 228.332 466.09 228.775C464.683 229.219 463.054 228.406 462.24 227.074C461.499 225.743 461.425 224.19 461.796 222.71C461.87 222.784 462.24 219.53 465.35 217.976Z" fill="#E8505B"/>
<path d="M458.24 204.217C460.165 206.954 463.793 205.992 465.57 204.365C467.273 202.738 468.013 200.297 468.68 198.004C470.161 192.752 471.715 187.279 470.605 181.953C470.235 180.4 469.642 178.773 468.532 177.589C467.421 176.406 465.718 175.74 464.089 176.11C462.238 176.628 461.053 178.403 460.239 180.178C457.796 185.282 456.463 190.903 456.463 196.598C456.463 199.261 456.759 202.072 458.24 204.217Z" fill="#E8505B"/>
<path d="M453.058 208.137C455.131 205.696 455.501 202.145 454.613 199.039C453.724 196.006 451.651 193.344 449.208 191.273C446.394 188.758 443.136 186.835 439.582 185.577C438.176 185.059 436.695 184.69 435.288 184.838C433.807 184.985 432.326 185.725 431.66 187.057C430.623 188.98 431.586 191.346 432.697 193.27C434.548 196.672 436.695 199.853 438.99 202.885C440.915 205.326 443.062 207.767 445.95 208.802C448.838 209.912 451.873 209.764 453.354 207.767" fill="#E8505B"/>
<path d="M458.093 245.12C458.093 245.12 458.167 244.676 458.241 243.862C458.316 242.975 458.464 241.865 458.538 240.534C458.686 239.128 458.908 237.427 459.278 235.578C459.648 233.729 460.315 231.806 461.055 229.735C461.87 227.738 462.832 225.889 464.017 224.483C465.201 223.004 466.534 221.968 467.793 221.377C469.051 220.785 470.162 220.489 470.977 220.415C471.791 220.341 472.235 220.267 472.235 220.267C472.235 220.267 471.791 220.193 470.977 220.267C470.162 220.341 468.977 220.489 467.645 221.155C466.312 221.747 464.905 222.782 463.647 224.335C462.462 225.815 461.425 227.664 460.537 229.735C459.722 231.806 459.13 233.803 458.76 235.652C458.39 237.501 458.241 239.202 458.093 240.608C458.019 242.013 457.945 243.196 457.945 244.01C458.093 244.676 458.093 245.12 458.093 245.12Z" fill="#263238"/>
<path d="M458.316 242.529C458.316 242.529 458.316 242.307 458.316 241.937C458.316 241.493 458.316 240.975 458.316 240.31C458.316 238.904 458.316 236.833 458.39 234.319C458.538 229.289 458.982 223.815 459.797 216.123C460.611 208.874 461.648 200.516 462.832 195.043C463.054 193.786 463.351 192.676 463.573 191.715C463.795 190.753 463.943 189.865 464.165 189.2C464.313 188.534 464.461 188.016 464.535 187.646C464.609 187.277 464.683 187.055 464.609 187.055C464.609 187.055 464.535 187.203 464.387 187.572C464.239 188.016 464.091 188.534 463.943 189.126C463.721 189.791 463.499 190.679 463.276 191.641C463.054 192.602 462.758 193.712 462.462 194.969C461.351 199.925 460.167 206.877 459.278 214.57C458.464 222.262 458.02 229.289 458.02 234.392C458.02 236.907 458.02 238.978 458.094 240.384C458.168 241.049 458.168 241.567 458.168 242.011C458.316 242.307 458.316 242.529 458.316 242.529Z" fill="#263238"/>
<path d="M458.388 228.993C458.388 228.993 458.388 228.401 458.388 227.292C458.314 226.182 458.166 224.629 457.87 222.706C457.574 220.783 457.056 218.49 456.389 215.975C456.093 214.866 455.353 212.129 453.576 207.987C451.206 202.44 448.097 197.928 445.283 195.117C444.617 194.377 443.876 193.86 443.358 193.342C443.062 193.12 442.766 192.824 442.544 192.602C442.247 192.38 442.025 192.232 441.803 192.084C440.915 191.493 440.396 191.123 440.396 191.197C440.322 191.271 442.47 192.528 445.135 195.413C447.801 198.224 450.91 202.735 453.206 208.209C454.464 211.168 455.427 213.83 456.019 216.123C456.76 218.564 457.278 220.857 457.648 222.78C458.018 224.703 458.24 226.256 458.314 227.366C458.24 228.401 458.314 228.993 458.388 228.993Z" fill="#263238"/>
<path d="M445.283 252.812L446.69 271.378H470.531L471.864 252.812H445.283Z" fill="#263238"/>
<path d="M474.752 245.492H442.988V252.815H474.752V245.492Z" fill="#263238"/>
<path d="M442.988 270.711V272.708H444.469H474.234V270.711H442.988Z" fill="#455A64"/>
<path d="M445.95 276.335L444.469 272.711H473.049L471.346 276.335H445.95Z" fill="#455A64"/>
<path d="M471.421 258.877C471.421 258.877 471.421 258.951 471.273 259.025C471.199 259.173 471.051 259.321 470.903 259.469C470.532 259.913 470.088 260.505 469.496 261.244L469.422 261.318L469.348 261.244C468.459 260.061 467.275 258.434 465.942 256.51H466.164C465.127 257.916 464.017 259.543 462.832 261.244L462.758 261.392L462.61 261.244C461.351 259.765 460.019 258.138 458.612 256.51H458.834C458.76 256.584 458.686 256.658 458.612 256.806C457.353 258.36 456.168 259.839 455.058 261.244L454.91 261.392L454.836 261.244C453.651 259.543 452.466 257.916 451.504 256.51H451.726C450.097 258.434 448.69 259.987 447.58 261.244L447.506 261.318L447.431 261.244C446.913 260.357 446.469 259.617 446.099 259.099C445.951 258.877 445.877 258.655 445.803 258.508C445.728 258.36 445.729 258.286 445.729 258.286C445.729 258.286 445.803 258.36 445.877 258.434C445.951 258.581 446.099 258.729 446.247 259.025C446.543 259.543 447.061 260.283 447.58 261.17H447.431C448.468 259.913 449.875 258.286 451.504 256.363L451.578 256.215L451.652 256.363C452.688 257.768 453.799 259.395 455.058 261.096H454.836C455.946 259.691 457.131 258.138 458.39 256.584C458.464 256.51 458.538 256.363 458.612 256.289L458.76 256.141L458.908 256.289C460.315 257.99 461.647 259.543 462.906 261.022H462.684C463.943 259.321 465.053 257.694 466.09 256.289L466.164 256.141L466.238 256.289C467.571 258.212 468.755 259.839 469.57 261.096H469.422C470.014 260.357 470.532 259.765 470.903 259.395C471.051 259.247 471.199 259.099 471.273 258.951C471.421 258.951 471.421 258.877 471.421 258.877Z" fill="#E0E0E0"/>
<path d="M472.235 252.742C472.235 252.816 466.238 252.89 458.908 252.89C451.503 252.89 445.58 252.816 445.58 252.742C445.58 252.668 451.577 252.594 458.908 252.594C466.238 252.594 472.235 252.668 472.235 252.742Z" fill="#455A64"/>
<path d="M473.419 272.929C473.419 273.003 466.903 273.077 458.907 273.077C450.91 273.077 444.395 273.003 444.395 272.929C444.395 272.855 450.91 272.781 458.907 272.781C466.903 272.781 473.419 272.855 473.419 272.929Z" fill="#263238"/>
<g clip-path="url(#clip1_5065_7789)">
<path d="M287.72 174.72L284.134 125.949L273.482 119.523H244.164L248.172 174.72H287.72Z" fill="white"/>
<path d="M287.72 175.25H248.172C247.855 175.25 247.644 175.039 247.644 174.829L243.637 119.527C243.637 119.421 243.637 119.211 243.742 119.105C243.953 119.105 244.059 119 244.164 119H273.482C273.588 119 273.693 119 273.799 119.105L284.45 125.531C284.556 125.636 284.661 125.742 284.661 125.952L288.141 174.723C288.141 174.829 288.141 175.039 288.036 175.145C287.931 175.145 287.825 175.25 287.72 175.25ZM248.699 174.197H287.192L283.712 126.268L273.377 120.053H244.691L248.699 174.197Z" fill="#E8505B"/>
<path d="M284.134 125.949L273.482 119.523L277.384 127.95L284.134 125.949Z" fill="#EBEBEB"/>
<path d="M277.385 128.48C277.174 128.48 276.963 128.375 276.963 128.164L273.061 119.632C272.956 119.421 273.061 119.211 273.167 119C273.378 119 273.589 119 273.799 119.105L284.451 125.531C284.662 125.636 284.767 125.847 284.662 126.058C284.662 126.268 284.451 126.374 284.346 126.479L277.596 128.586C277.491 128.48 277.491 128.48 277.385 128.48ZM274.643 120.791L277.702 127.427L282.975 125.847L274.643 120.791Z" fill="#E8505B"/>
<path d="M260.723 144.384C260.828 145.648 259.879 146.596 258.613 146.596C257.348 146.596 256.293 145.648 256.188 144.384C256.082 143.12 257.031 142.172 258.297 142.172C259.562 142.172 260.617 143.12 260.723 144.384Z" fill="#E8505B"/>
<path d="M275.17 144.384C275.275 145.648 274.326 146.596 273.061 146.596C271.795 146.596 270.74 145.648 270.635 144.384C270.529 143.12 271.479 142.172 272.744 142.172C274.01 142.172 275.17 143.12 275.17 144.384Z" fill="#E8505B"/>
<path d="M279.283 158.818C278.967 158.818 278.756 158.607 278.756 158.397C278.545 154.815 272.85 151.866 266.206 151.866C261.776 151.866 257.874 153.13 255.871 155.237C255.027 156.185 254.605 157.238 254.71 158.291C254.71 158.607 254.5 158.818 254.289 158.818C253.972 158.818 253.761 158.607 253.761 158.397C253.656 157.027 254.183 155.763 255.238 154.605C257.347 152.287 261.671 150.812 266.311 150.812C273.588 150.812 279.599 154.078 279.916 158.291C279.81 158.607 279.599 158.818 279.283 158.818Z" fill="#E8505B"/>
<path d="M252.496 139.853C252.391 139.853 252.285 139.853 252.18 139.748C251.969 139.537 251.969 139.221 252.18 139.01L254.394 136.588C254.605 136.377 254.922 136.377 255.133 136.588C255.344 136.798 255.344 137.114 255.133 137.325L252.918 139.748C252.812 139.853 252.602 139.853 252.496 139.853Z" fill="#E8505B"/>
<path d="M278.228 139.853C278.123 139.853 278.017 139.853 277.912 139.748L275.275 137.325C275.064 137.114 275.064 136.798 275.275 136.588C275.486 136.377 275.803 136.377 276.014 136.588L278.65 139.01C278.861 139.221 278.861 139.537 278.65 139.748C278.545 139.853 278.439 139.853 278.228 139.853Z" fill="#E8505B"/>
<path d="M241 185.57H243.426L246.906 190.1L246.589 185.57H249.015L249.648 193.787H247.117L243.742 189.257L244.058 193.787H241.633L241 185.57Z" fill="#E8505B"/>
<path d="M250.598 189.788C250.492 188.418 250.809 187.365 251.547 186.627C252.285 185.89 253.234 185.469 254.605 185.469C255.976 185.469 257.031 185.785 257.875 186.522C258.718 187.259 259.14 188.313 259.246 189.577C259.351 190.525 259.246 191.368 258.929 192C258.613 192.632 258.191 193.053 257.664 193.474C257.031 193.79 256.293 194.001 255.449 194.001C254.5 194.001 253.762 193.896 253.129 193.58C252.496 193.264 251.969 192.842 251.547 192.21C250.914 191.473 250.598 190.736 250.598 189.788ZM253.129 189.788C253.234 190.63 253.34 191.262 253.762 191.578C254.078 191.894 254.5 192.105 255.027 192.105C255.555 192.105 255.976 191.894 256.293 191.578C256.609 191.262 256.715 190.63 256.609 189.682C256.504 188.945 256.398 188.313 255.976 187.997C255.66 187.681 255.238 187.47 254.711 187.47C254.184 187.47 253.762 187.681 253.551 187.997C253.129 188.313 253.024 188.945 253.129 189.788Z" fill="#E8505B"/>
<path d="M264.096 185.57H267.892C268.631 185.57 269.263 185.676 269.685 185.886C270.212 186.097 270.529 186.413 270.845 186.729C271.162 187.15 271.373 187.572 271.583 188.098C271.794 188.625 271.9 189.152 271.9 189.678C272.005 190.521 271.9 191.259 271.794 191.68C271.583 192.207 271.373 192.523 271.056 192.944C270.74 193.26 270.318 193.471 270.002 193.576C269.474 193.681 268.947 193.787 268.525 193.787H264.728L264.096 185.57ZM266.732 187.466L267.049 191.996H267.681C268.209 191.996 268.631 191.891 268.841 191.785C269.052 191.68 269.263 191.469 269.369 191.153C269.474 190.837 269.474 190.416 269.474 189.678C269.369 188.836 269.263 188.204 268.947 187.888C268.525 187.677 268.103 187.466 267.365 187.466H266.732Z" fill="#E8505B"/>
<path d="M278.123 192.527H275.275L274.959 193.896H272.322L274.853 185.68H277.595L281.286 193.896H278.65L278.123 192.527ZM277.49 190.736L276.33 187.786L275.592 190.736H277.49Z" fill="#E8505B"/>
<path d="M280.127 185.57H287.931L288.037 187.572H285.4L285.822 193.787H283.291L282.869 187.572H280.232L280.127 185.57Z" fill="#E8505B"/>
<path d="M293.836 192.527H290.988L290.672 193.896H288.035L290.566 185.68H293.308L296.999 193.896H294.363L293.836 192.527ZM293.203 190.736L292.043 187.786L291.304 190.736H293.203Z" fill="#E8505B"/>
</g>
</g>
<defs>
<clipPath id="clip0_5065_7789">
<rect width="502" height="277" fill="white"/>
</clipPath>
<clipPath id="clip1_5065_7789">
<rect width="56" height="75" fill="white" transform="translate(241 119)"/>
</clipPath>
</defs>
</svg>
