<svg width="578" height="447" viewBox="0 0 578 447" fill="none" xmlns="http://www.w3.org/2000/svg">
<g clip-path="url(#clip0_4344_8198)">
<path d="M573.101 132.16H564.36V123.416H558.162V132.16H549.422V138.361H558.162V147.106H564.36V138.361H573.101V132.16Z" fill="#CAD2F9"/>
<path d="M526.934 270.534H519.214V262.823H513.731V270.534H506.023V276.019H513.731V283.744H519.214V276.019H526.934V270.534Z" fill="#CAD2F9"/>
<path d="M197.191 48.3727H189.471V40.6484H183.988V48.3727H176.28V53.8578H183.988V61.5821H189.471V53.8578H197.191V48.3727Z" fill="#CAD2F9"/>
<path d="M558.745 171.524H553.156V165.933H549.183V171.524H543.581V175.499H549.183V181.103H553.156V175.499H558.745V171.524Z" fill="#CAD2F9"/>
<path d="M172.003 82.2509H166.415V76.6465H162.442V82.2509H156.84V86.2256H162.442V91.83H166.415V86.2256H172.003V82.2509Z" fill="#CAD2F9"/>
<path d="M25.2421 149.808H17.5213V142.084H12.0386V149.808H4.33105V155.28H12.0386V163.004H17.5213V155.28H25.2421V149.808Z" fill="#CAD2F9"/>
<path d="M28.0629 390.678H22.461V385.073H18.488V390.678H12.8994V394.652H18.488V400.257H22.461V394.652H28.0629V390.678Z" fill="#CAD2F9"/>
<path d="M12.8988 283.492C15.7586 283.492 18.0769 281.173 18.0769 278.312C18.0769 275.451 15.7586 273.131 12.8988 273.131C10.039 273.131 7.7207 275.451 7.7207 278.312C7.7207 281.173 10.039 283.492 12.8988 283.492Z" fill="#E2E6FF"/>
<path d="M562.995 220.413C562.998 220.956 562.839 221.487 562.54 221.94C562.24 222.393 561.813 222.747 561.312 222.956C560.812 223.166 560.26 223.222 559.727 223.118C559.195 223.013 558.705 222.753 558.32 222.37C557.936 221.987 557.673 221.498 557.566 220.966C557.459 220.434 557.513 219.882 557.72 219.38C557.927 218.878 558.279 218.449 558.73 218.147C559.181 217.845 559.711 217.684 560.254 217.684C560.979 217.684 561.674 217.971 562.188 218.482C562.701 218.994 562.992 219.688 562.995 220.413Z" fill="#E2E6FF"/>
<path d="M560.89 392.665C560.89 393.69 560.587 394.691 560.018 395.543C559.449 396.395 558.64 397.059 557.694 397.451C556.748 397.843 555.707 397.946 554.702 397.746C553.698 397.546 552.775 397.053 552.051 396.328C551.327 395.604 550.833 394.681 550.634 393.676C550.434 392.671 550.536 391.629 550.928 390.683C551.32 389.736 551.984 388.927 552.835 388.358C553.687 387.789 554.688 387.485 555.712 387.485C557.086 387.485 558.403 388.031 559.374 389.002C560.345 389.974 560.89 391.291 560.89 392.665Z" fill="#E2E6FF"/>
<path d="M196.636 2.72933C196.639 3.27231 196.48 3.80386 196.18 4.25661C195.881 4.70937 195.454 5.06295 194.953 5.27256C194.452 5.48217 193.901 5.53838 193.368 5.43406C192.835 5.32974 192.346 5.06958 191.961 4.68656C191.576 4.30354 191.314 3.81488 191.207 3.28252C191.1 2.75015 191.154 2.19803 191.361 1.69612C191.568 1.19421 191.919 0.765091 192.37 0.463143C192.821 0.161195 193.352 6.33635e-06 193.895 1.86988e-10C194.619 -8.46081e-06 195.315 0.287121 195.828 0.798592C196.342 1.31006 196.632 2.00425 196.636 2.72933Z" fill="#E2E6FF"/>
<path d="M139.478 6.0813C139.478 7.10589 139.175 8.10747 138.606 8.95939C138.037 9.8113 137.228 10.4753 136.282 10.8674C135.336 11.2595 134.294 11.3621 133.29 11.1622C132.286 10.9623 131.363 10.4689 130.639 9.74441C129.915 9.01991 129.421 8.09685 129.222 7.09195C129.022 6.08705 129.124 5.04544 129.516 4.09884C129.908 3.15224 130.572 2.34317 131.423 1.77394C132.275 1.20471 133.276 0.900879 134.3 0.900879C135.673 0.900879 136.991 1.44667 137.962 2.41819C138.933 3.38971 139.478 4.70737 139.478 6.0813Z" fill="#E2E6FF"/>
<path d="M233.849 24.5107C236.709 24.5107 239.027 22.1914 239.027 19.3303C239.027 16.4693 236.709 14.1499 233.849 14.1499C230.989 14.1499 228.671 16.4693 228.671 19.3303C228.671 22.1914 230.989 24.5107 233.849 24.5107Z" fill="#E2E6FF"/>
<path d="M5.46996 197.916C5.47259 198.459 5.31404 198.99 5.01442 199.443C4.71479 199.896 4.28757 200.249 3.7869 200.459C3.28622 200.669 2.73461 200.725 2.20197 200.621C1.66933 200.516 1.17964 200.256 0.794926 199.873C0.410216 199.49 0.14781 199.001 0.0409573 198.469C-0.0658959 197.937 -0.012387 197.385 0.194704 196.883C0.401795 196.381 0.753147 195.952 1.20424 195.65C1.65534 195.348 2.18587 195.187 2.72862 195.187C3.45338 195.187 4.14865 195.474 4.66238 195.985C5.1761 196.497 5.46646 197.191 5.46996 197.916Z" fill="#E2E6FF"/>
<path d="M57.0657 288.328C57.0657 288.87 56.9055 289.399 56.6055 289.849C56.3054 290.3 55.8788 290.651 55.3794 290.859C54.8801 291.068 54.3302 291.124 53.7992 291.02C53.2682 290.916 52.7797 290.658 52.3953 290.277C52.0109 289.896 51.7477 289.41 51.639 288.879C51.5302 288.349 51.5807 287.799 51.7842 287.297C51.9876 286.795 52.3348 286.365 52.7821 286.061C53.2295 285.756 53.7568 285.591 54.2979 285.586C54.6606 285.58 55.0207 285.648 55.3572 285.783C55.6936 285.919 55.9997 286.12 56.2574 286.376C56.5151 286.631 56.7194 286.935 56.8581 287.27C56.9969 287.606 57.0675 287.965 57.0657 288.328Z" fill="#E2E6FF"/>
<path d="M549.594 76.9645C549.589 77.5047 549.424 78.0312 549.121 78.4781C548.818 78.9251 548.389 79.2725 547.889 79.4768C547.39 79.681 546.841 79.7331 546.311 79.6265C545.782 79.5198 545.296 79.2591 544.914 78.8772C544.532 78.4952 544.272 78.009 544.165 77.4795C544.059 76.9499 544.111 76.4007 544.315 75.9007C544.519 75.4006 544.866 74.972 545.313 74.6687C545.76 74.3653 546.286 74.2007 546.826 74.1954C547.191 74.1919 547.552 74.2611 547.889 74.399C548.227 74.5369 548.533 74.7408 548.791 74.9986C549.049 75.2564 549.253 75.5631 549.39 75.9007C549.528 76.2382 549.597 76.5999 549.594 76.9645Z" fill="#E2E6FF"/>
<path d="M447.7 27.0682C447.703 27.6118 447.544 28.1438 447.244 28.5969C446.944 29.0499 446.516 29.4035 446.014 29.6127C445.513 29.8219 444.961 29.8774 444.428 29.772C443.895 29.6666 443.405 29.4051 443.021 29.0207C442.637 28.6364 442.375 28.1465 442.27 27.6132C442.164 27.08 442.22 26.5275 442.429 26.0258C442.638 25.5241 442.992 25.0959 443.444 24.7956C443.897 24.4952 444.429 24.3363 444.972 24.3389C445.695 24.3424 446.387 24.6311 446.898 25.1421C447.408 25.6532 447.697 26.3454 447.7 27.0682Z" fill="#E2E6FF"/>
<path d="M489.059 16.3228C491.919 16.3228 494.237 14.0034 494.237 11.1423C494.237 8.28127 491.919 5.96191 489.059 5.96191C486.199 5.96191 483.881 8.28127 483.881 11.1423C483.881 14.0034 486.199 16.3228 489.059 16.3228Z" fill="#E2E6FF"/>
<path d="M571.856 366.578C571.856 367.121 571.695 367.651 571.393 368.103C571.091 368.554 570.662 368.905 570.16 369.113C569.659 369.32 569.107 369.373 568.575 369.266C568.043 369.16 567.554 368.897 567.171 368.512C566.788 368.127 566.528 367.637 566.424 367.104C566.32 366.572 566.376 366.02 566.586 365.519C566.795 365.018 567.148 364.591 567.601 364.291C568.054 363.991 568.585 363.832 569.128 363.835C569.487 363.835 569.843 363.906 570.175 364.044C570.507 364.182 570.808 364.384 571.061 364.639C571.315 364.894 571.516 365.196 571.652 365.529C571.788 365.862 571.857 366.218 571.856 366.578Z" fill="#E2E6FF"/>
<path d="M82.3069 11.2616C82.3069 11.804 82.1461 12.3343 81.8449 12.7853C81.5437 13.2363 81.1155 13.5878 80.6146 13.7954C80.1137 14.003 79.5625 14.0573 79.0308 13.9515C78.499 13.8457 78.0105 13.5845 77.6271 13.2009C77.2438 12.8174 76.9827 12.3287 76.8769 11.7967C76.7711 11.2647 76.8254 10.7132 77.0329 10.2121C77.2404 9.71094 77.5917 9.28261 78.0426 8.98125C78.4934 8.67989 79.0234 8.51904 79.5656 8.51904C80.2926 8.51904 80.9899 8.80799 81.504 9.32232C82.0181 9.83666 82.3069 10.5342 82.3069 11.2616Z" fill="#E2E6FF"/>
<path d="M282.293 447C435.807 447 560.255 436.073 560.255 422.595C560.255 409.116 435.807 398.19 282.293 398.19C128.779 398.19 4.33105 409.116 4.33105 422.595C4.33105 436.073 128.779 447 282.293 447Z" fill="#EDF0FC"/>
<path d="M476.346 411.505C476.346 411.505 435.054 327.625 561.102 291.057C561.049 291.057 569.817 418.17 476.346 411.505Z" fill="#EB725F"/>
<mask id="mask0_4344_8198" style="mask-type:luminance" maskUnits="userSpaceOnUse" x="469" y="291" width="93" height="121">
<path d="M476.346 411.505C476.346 411.505 435.054 327.625 561.102 291.057C561.049 291.057 569.817 418.17 476.346 411.505Z" fill="white"/>
</mask>
<g mask="url(#mask0_4344_8198)">
<path d="M577.934 310.586L577.219 309.381C560.42 319.439 542.073 326.647 522.922 330.712C529.16 323.345 535.318 316.588 540.893 310.732C554.331 307.783 566.977 301.976 577.974 293.707L577.127 292.581C566.825 300.282 555.085 305.841 542.602 308.93C554.706 296.344 563.645 288.368 563.91 288.129L562.983 287.082C562.705 287.321 553.567 295.469 541.251 308.281C542.443 292.303 550.283 276.655 550.362 276.483L549.038 275.86C548.958 276.019 540.43 293.084 539.675 309.858C534.099 315.727 527.928 322.511 521.677 329.904C522.128 308.996 531.08 284.499 531.173 284.247L529.848 283.757C529.756 284.022 520.221 310.096 520.247 331.613C514.221 338.82 508.156 346.584 502.488 354.64C501.389 324.525 510.288 293.455 510.434 293.137L509.11 292.753C509.017 293.084 499.68 325.637 501.243 356.561C497.058 362.629 493.098 368.869 489.589 375.11C483.351 342.729 491.39 313.342 491.47 313.051L490.145 312.667C490.053 312.971 481.643 343.669 488.556 377.044C485.167 383.193 482.224 389.578 479.749 396.149C471.803 373.507 470.227 341.073 470.572 339.178L469.181 338.926C468.81 340.953 470.241 374.792 478.994 398.203C476.899 404.053 475.438 410.112 474.637 416.275L476.028 416.434C476.799 410.49 478.202 404.645 480.213 398.998C485.019 399.864 489.898 400.25 494.78 400.151H496.78C507.375 399.978 525.107 398.375 549.978 391.645L549.607 390.32C507.229 401.78 484.954 398.508 480.743 397.686C483.245 390.874 486.26 384.262 489.761 377.905C490.9 378.011 493.853 378.25 498.157 378.25C511.705 378.25 538.351 375.852 561.513 359.357L560.705 358.204C531.636 378.899 497.032 377.11 490.516 376.554C494.105 370.062 498.184 363.61 502.514 357.329C506.871 356.892 545.568 352.454 571.379 332.341L570.505 331.242C546.667 349.857 511.454 354.878 503.6 355.806C509.335 347.618 515.519 339.735 521.611 332.434C541.506 328.461 560.563 321.07 577.934 310.586Z" fill="#F9AB43"/>
</g>
<path opacity="0.1" d="M561.049 291.057C553.593 293.217 546.747 295.549 540.416 298.026C543.227 306.472 544.654 315.318 544.641 324.22C544.641 366.074 513.89 400.005 475.962 400.005C474.756 400.005 473.551 400.005 472.359 399.899C473.317 403.884 474.647 407.77 476.332 411.505C569.816 418.17 561.049 291.057 561.049 291.057Z" fill="#407BFF"/>
<path d="M101.735 402.642C101.735 402.642 28.5527 420.104 22.1562 314.879C22.1562 314.879 123.52 330.593 101.735 402.642Z" fill="#F9AB43"/>
<mask id="mask1_4344_8198" style="mask-type:luminance" maskUnits="userSpaceOnUse" x="22" y="314" width="83" height="90">
<path d="M101.735 402.642C101.735 402.642 28.5527 420.104 22.1562 314.879C22.1562 314.879 123.52 330.593 101.735 402.642Z" fill="white"/>
</mask>
<g mask="url(#mask1_4344_8198)">
<path d="M40.485 305.115L39.3991 305.459C44.3364 320.413 46.7488 336.084 46.5371 351.831C41.8623 345.631 37.651 339.615 34.0356 334.21C34.1057 323.136 31.7885 312.177 27.2418 302.081L26.2088 302.544C30.432 311.997 32.7152 322.202 32.9231 332.554C25.1891 320.828 20.5142 312.415 20.3686 312.163L19.3753 312.706C19.521 312.958 24.3018 321.57 32.1948 333.494C19.8653 329.665 8.96616 320.735 8.84697 320.629L8.13184 321.504C8.25102 321.597 20.0507 331.295 33.1747 334.872C36.7901 340.291 41.028 346.333 45.7161 352.547C29.3872 348.453 11.734 337.125 11.5486 337.005L10.9394 337.959C11.1248 338.079 29.9037 350.188 46.802 353.978C51.3974 359.979 56.4166 366.114 61.7536 371.996C37.9158 367.505 15.0845 355.011 14.8594 354.878L14.3032 355.872C14.5416 356.005 38.4588 369.121 63.0117 373.374C66.9847 377.746 71.2357 381.946 75.553 385.815C58.7306 385.019 42.253 380.761 27.1491 373.308L26.6061 374.315C26.8313 374.434 49.4507 386.478 76.9303 386.994C81.1448 390.726 85.619 394.153 90.3192 397.249C71.1298 399.475 45.385 394.931 43.968 394.321L43.5177 395.368C45.0407 396.017 71.8714 400.906 91.8024 398.203C96.0237 400.887 100.521 403.108 105.218 404.828L105.589 403.755C101.057 402.098 96.7148 399.962 92.6368 397.382C94.1662 393.775 95.333 390.024 96.1197 386.186C96.2389 385.683 96.3449 385.166 96.4641 384.623C98.1989 376.329 100.093 362.099 99.2186 341.431H98.0797C99.5762 376.687 93.0606 393.553 91.6568 396.733C86.7552 393.552 82.0983 390.009 77.7249 386.133C78.0163 385.259 78.7314 382.993 79.4863 379.615C81.8833 369.015 84.7173 347.697 75.8709 326.618L74.8246 327.055C85.9225 353.554 78.3871 380.304 76.7979 385.352C72.3349 381.377 67.9912 377.044 63.8328 372.526C64.2566 369.042 67.6336 337.933 56.4033 314.151L55.3836 314.628C65.7795 336.648 63.4885 365.107 62.8131 371.427C57.4098 365.478 52.3112 359.251 47.6628 353.156C48.0641 336.848 45.6355 320.593 40.485 305.115Z" fill="#EB725F"/>
</g>
<path opacity="0.1" d="M22.1562 314.879C22.5403 321.106 23.1495 326.883 23.9706 332.276C31.1029 331.576 38.3011 332.024 45.2921 333.6C78.1353 341.06 99.3244 371.188 92.6234 400.906C92.4115 401.847 92.1731 402.788 91.9082 403.702C95.2099 403.66 98.5001 403.305 101.735 402.642C123.52 330.593 22.1562 314.879 22.1562 314.879Z" fill="#407BFF"/>
<path d="M480.702 106.139H83.8827C78.0314 106.139 73.2881 110.884 73.2881 116.738V355.965C73.2881 361.819 78.0314 366.564 83.8827 366.564H480.702C486.553 366.564 491.297 361.819 491.297 355.965V116.738C491.297 110.884 486.553 106.139 480.702 106.139Z" fill="#407BFF"/>
<path d="M479.51 118.924H85.0879V353.805H479.51V118.924Z" fill="#D0DBF7"/>
<path d="M347.185 366.577H217.401V399.091H347.185V366.577Z" fill="#6695FF"/>
<path d="M409.295 417.759C385.564 398.587 337.597 385.55 282.293 385.55C226.989 385.55 178.996 398.654 155.277 417.825L409.295 417.759Z" fill="#407BFF"/>
<path d="M155.277 421.071H398.952C402.263 421.071 405.574 421.151 408.884 421.071H409.308C413.572 421.071 413.586 414.446 409.308 414.446H165.633C162.322 414.446 159.011 414.367 155.701 414.446H155.264C151.013 414.446 150.999 421.071 155.264 421.071H155.277Z" fill="#8397ED"/>
<path d="M457.951 135.26H106.622V338.476H457.951V135.26Z" fill="white"/>
<path d="M457.951 135.26H106.622V154.843H457.951V135.26Z" fill="#E2E6FF"/>
<path d="M123.705 145.502C123.708 146.39 123.448 147.258 122.957 147.998C122.467 148.738 121.768 149.315 120.949 149.658C120.131 150.001 119.229 150.093 118.358 149.924C117.487 149.754 116.686 149.33 116.056 148.705C115.425 148.08 114.994 147.282 114.817 146.412C114.64 145.542 114.724 144.64 115.059 143.818C115.395 142.996 115.966 142.292 116.701 141.794C117.436 141.297 118.302 141.029 119.19 141.024C119.781 141.018 120.367 141.13 120.915 141.353C121.462 141.576 121.961 141.905 122.38 142.321C122.8 142.737 123.134 143.233 123.361 143.779C123.588 144.325 123.705 144.91 123.705 145.502Z" fill="#EB725F"/>
<path d="M138.789 145.502C138.792 146.391 138.531 147.261 138.039 148.001C137.548 148.741 136.847 149.319 136.027 149.661C135.207 150.003 134.304 150.094 133.432 149.922C132.561 149.75 131.759 149.324 131.13 148.696C130.501 148.068 130.072 147.268 129.898 146.397C129.723 145.525 129.812 144.621 130.151 143.8C130.49 142.978 131.066 142.276 131.804 141.782C132.543 141.288 133.411 141.024 134.3 141.024C134.889 141.022 135.472 141.137 136.017 141.361C136.562 141.585 137.057 141.915 137.474 142.331C137.891 142.747 138.222 143.241 138.447 143.785C138.673 144.33 138.789 144.913 138.789 145.502Z" fill="#F9AB43"/>
<path d="M153.873 145.502C153.876 146.391 153.615 147.261 153.123 148.001C152.632 148.741 151.931 149.319 151.111 149.661C150.291 150.003 149.388 150.094 148.516 149.922C147.645 149.75 146.843 149.324 146.214 148.696C145.585 148.068 145.156 147.268 144.982 146.397C144.807 145.525 144.896 144.621 145.235 143.8C145.574 142.978 146.15 142.276 146.888 141.782C147.627 141.288 148.495 141.024 149.384 141.024C149.973 141.022 150.556 141.137 151.101 141.361C151.646 141.585 152.141 141.915 152.558 142.331C152.975 142.747 153.306 143.241 153.531 143.785C153.757 144.33 153.873 144.913 153.873 145.502Z" fill="#6E7FDD"/>
<path d="M406.435 240.79C406.435 252.913 396.026 262.81 383.312 262.81H187.842C175.129 262.81 164.72 252.913 164.72 240.79C164.72 228.667 175.129 218.77 187.842 218.77H383.312C395.973 218.77 406.435 228.68 406.435 240.79Z" fill="#E2E6FF"/>
<path d="M213.071 251.177L205.125 243.705C206.543 241.693 207.144 239.217 206.807 236.778C206.471 234.34 205.22 232.12 203.31 230.568C201.4 229.017 198.971 228.249 196.517 228.42C194.062 228.591 191.764 229.689 190.087 231.49C188.41 233.292 187.48 235.664 187.484 238.126C187.489 240.588 188.428 242.956 190.111 244.752C191.794 246.547 194.096 247.636 196.552 247.799C199.007 247.961 201.432 247.184 203.337 245.626L211.363 253.098L213.071 251.177ZM192.385 243.307C191.672 242.688 191.09 241.932 190.675 241.083C190.26 240.235 190.021 239.311 189.97 238.368C189.919 237.425 190.059 236.481 190.381 235.593C190.703 234.705 191.201 233.891 191.844 233.199C192.487 232.508 193.263 231.953 194.125 231.568C194.987 231.183 195.918 230.975 196.862 230.958C197.806 230.94 198.744 231.113 199.62 231.466C200.496 231.819 201.292 232.345 201.96 233.012C202.673 233.631 203.255 234.388 203.67 235.236C204.085 236.085 204.325 237.008 204.375 237.951C204.426 238.895 204.286 239.839 203.964 240.727C203.642 241.615 203.144 242.429 202.501 243.12C201.858 243.812 201.082 244.367 200.22 244.752C199.358 245.137 198.427 245.344 197.483 245.362C196.539 245.379 195.601 245.206 194.725 244.853C193.849 244.5 193.053 243.974 192.385 243.307Z" fill="#6E7FDD"/>
<path d="M247.86 242.685C249.111 242.685 250.125 241.67 250.125 240.419C250.125 239.168 249.111 238.153 247.86 238.153C246.61 238.153 245.596 239.168 245.596 240.419C245.596 241.67 246.61 242.685 247.86 242.685Z" fill="#B6C3F2"/>
<path d="M274.347 242.685C275.597 242.685 276.611 241.67 276.611 240.419C276.611 239.168 275.597 238.153 274.347 238.153C273.096 238.153 272.082 239.168 272.082 240.419C272.082 241.67 273.096 242.685 274.347 242.685Z" fill="#B6C3F2"/>
<path d="M300.833 242.685C302.084 242.685 303.098 241.67 303.098 240.419C303.098 239.168 302.084 238.153 300.833 238.153C299.582 238.153 298.568 239.168 298.568 240.419C298.568 241.67 299.582 242.685 300.833 242.685Z" fill="#B6C3F2"/>
<path d="M327.319 242.685C328.57 242.685 329.584 241.67 329.584 240.419C329.584 239.168 328.57 238.153 327.319 238.153C326.069 238.153 325.055 239.168 325.055 240.419C325.055 241.67 326.069 242.685 327.319 242.685Z" fill="#B6C3F2"/>
<path d="M536.178 55.9375H361.302V248.421H536.178V55.9375Z" fill="#F5F9FF"/>
<path d="M536.178 55.9375H361.302V77.6396H536.178V55.9375Z" fill="#E2E6FF"/>
<path d="M380.226 67.2792C380.218 68.2601 379.92 69.2168 379.37 70.0286C378.82 70.8404 378.041 71.471 377.133 71.841C376.225 72.2109 375.228 72.3037 374.267 72.1075C373.306 71.9113 372.425 71.435 371.735 70.7386C371.044 70.0422 370.575 69.1569 370.387 68.1942C370.198 67.2315 370.299 66.2346 370.676 65.329C371.053 64.4235 371.689 63.6499 372.505 63.1056C373.321 62.5614 374.279 62.271 375.26 62.271C375.915 62.271 376.565 62.4008 377.17 62.653C377.775 62.9051 378.324 63.2747 378.786 63.7402C379.247 64.2058 379.612 64.7582 379.86 65.3656C380.107 65.973 380.231 66.6234 380.226 67.2792Z" fill="#EB725F"/>
<path d="M396.939 67.2788C396.931 68.2608 396.633 69.2185 396.081 70.0309C395.529 70.8432 394.749 71.4738 393.84 71.843C392.93 72.2122 391.932 72.3033 390.97 72.105C390.009 71.9067 389.128 71.4277 388.438 70.7287C387.749 70.0296 387.282 69.1418 387.096 68.1774C386.911 67.213 387.015 66.2153 387.396 65.3102C387.777 64.4051 388.418 63.6333 389.237 63.0923C390.057 62.5513 391.018 62.2654 391.999 62.2706C392.653 62.274 393.299 62.4064 393.901 62.6602C394.503 62.9139 395.049 63.284 395.508 63.7492C395.967 64.2144 396.329 64.7657 396.575 65.3713C396.821 65.977 396.944 66.6252 396.939 67.2788Z" fill="#F9AB43"/>
<path d="M413.652 67.2792C413.644 68.2601 413.346 69.2168 412.796 70.0286C412.245 70.8404 411.467 71.471 410.559 71.841C409.651 72.2109 408.653 72.3037 407.693 72.1075C406.732 71.9113 405.851 71.435 405.16 70.7386C404.47 70.0422 404.001 69.1569 403.812 68.1942C403.624 67.2315 403.725 66.2346 404.102 65.329C404.479 64.4235 405.115 63.6499 405.931 63.1056C406.747 62.5614 407.705 62.271 408.686 62.271C409.341 62.271 409.99 62.4008 410.595 62.653C411.201 62.9051 411.75 63.2747 412.212 63.7402C412.673 64.2058 413.038 64.7582 413.285 65.3656C413.533 65.973 413.657 66.6234 413.652 67.2792Z" fill="#6E7FDD"/>
<path d="M484.825 176.601L477.605 183.824L542.341 248.589L549.561 241.365L484.825 176.601Z" fill="#EB725F"/>
<path d="M487.069 172.464L473.481 186.058L492.426 205.01L506.013 191.416L487.069 172.464Z" fill="#6E7FDD"/>
<g opacity="0.2">
<path d="M481.219 180.189C475.147 186.265 467.409 190.403 458.985 192.079C450.562 193.756 441.83 192.896 433.895 189.608C425.96 186.32 419.178 180.751 414.406 173.607C409.635 166.463 407.088 158.063 407.088 149.47C407.088 140.878 409.635 132.478 414.406 125.334C419.178 118.189 425.96 112.621 433.895 109.333C441.83 106.045 450.562 105.185 458.985 106.861C467.409 108.538 475.147 112.676 481.219 118.752C489.353 126.905 493.92 137.952 493.92 149.47C493.92 160.989 489.353 172.036 481.219 180.189Z" fill="#F5F9FF"/>
</g>
<path d="M485.338 184.335C478.449 191.225 469.674 195.917 460.12 197.818C450.566 199.718 440.664 198.742 431.665 195.012C422.666 191.282 414.975 184.967 409.563 176.864C404.152 168.761 401.264 159.235 401.264 149.49C401.264 139.745 404.152 130.219 409.563 122.116C414.975 114.013 422.666 107.698 431.665 103.968C440.664 100.238 450.566 99.262 460.12 101.162C469.674 103.063 478.449 107.755 485.338 114.645C494.56 123.894 499.739 136.425 499.739 149.49C499.739 162.554 494.56 175.086 485.338 184.335ZM422.909 121.892C417.443 127.352 413.719 134.312 412.208 141.89C410.697 149.468 411.467 157.324 414.42 164.465C417.373 171.605 422.377 177.709 428.799 182.003C435.22 186.297 442.771 188.59 450.495 188.59C458.219 188.59 465.769 186.297 472.191 182.003C478.612 177.709 483.616 171.605 486.57 164.465C489.523 157.324 490.292 149.468 488.781 141.89C487.27 134.312 483.546 127.352 478.08 121.892C470.757 114.586 460.837 110.483 450.495 110.483C440.153 110.483 430.233 114.586 422.909 121.892Z" fill="#EB725F"/>
<path d="M472.108 134.24L465.751 127.881L450.508 143.117L435.278 127.881L428.908 134.24L444.151 149.49L428.908 164.727L435.278 171.086L450.508 155.85L465.751 171.086L472.108 164.727L456.878 149.49L472.108 134.24Z" fill="#FFB663"/>
<path d="M171.844 278.312H92.7295V421.283H214.752V319.437L171.844 278.312Z" fill="#FFB663"/>
<path d="M171.845 278.312L214.753 319.437H171.845V278.312Z" fill="#FFCC93"/>
<path d="M140.723 333.256C140.723 337.548 138.233 341.033 135.161 341.033C132.088 341.033 129.599 337.548 129.599 333.256C129.599 328.963 132.088 325.492 135.161 325.492C138.233 325.492 140.723 328.963 140.723 333.256Z" fill="white"/>
<path d="M172.163 341.02C175.235 341.02 177.725 337.544 177.725 333.256C177.725 328.968 175.235 325.492 172.163 325.492C169.091 325.492 166.601 328.968 166.601 333.256C166.601 337.544 169.091 341.02 172.163 341.02Z" fill="white"/>
<path d="M138.181 356.588C140.604 354.028 143.599 352.08 146.921 350.904C155.039 347.976 162.813 351.023 169.064 356.588C170.706 358.072 173.169 355.634 171.501 354.137C164.654 347.976 155.768 344.359 146.656 347.34C142.51 348.661 138.758 350.997 135.744 354.137C134.247 355.78 136.684 358.231 138.181 356.588Z" fill="white"/>
<path d="M130.154 37.2432H41.1733C38.6173 37.2536 36.1691 38.275 34.3629 40.0845C32.5568 41.8939 31.5392 44.3446 31.5322 46.9018V109.345C31.5392 111.902 32.5568 114.353 34.3629 116.162C36.1691 117.972 38.6173 118.993 41.1733 119.004H72.4405L85.6837 135.115L98.9269 119.004H130.154C132.713 118.997 135.164 117.977 136.973 116.167C138.782 114.357 139.802 111.905 139.809 109.345V46.9018C139.802 44.3423 138.782 41.8897 136.973 40.0798C135.164 38.27 132.713 37.2502 130.154 37.2432Z" fill="#FFB663"/>
<path d="M85.6712 48.8496C79.8434 48.8496 74.1464 50.5785 69.3007 53.8178C64.455 57.057 60.6783 61.6611 58.4481 67.0477C56.2178 72.4344 55.6343 78.3617 56.7713 84.0801C57.9082 89.7986 60.7146 95.0513 64.8355 99.174C68.9564 103.297 74.2068 106.104 79.9227 107.242C85.6385 108.379 91.5632 107.796 96.9474 105.564C102.332 103.333 106.934 99.5547 110.171 94.7068C113.409 89.859 115.137 84.1594 115.137 78.329C115.13 70.5127 112.024 63.0186 106.499 57.4917C100.975 51.9647 93.484 48.8566 85.6712 48.8496ZM85.6712 54.401C91.0587 54.4157 96.2822 56.2558 100.49 59.6212L66.9188 93.1548C64.1042 89.6378 62.3429 85.3952 61.8388 80.9181C61.3348 76.4411 62.1088 71.9127 64.071 67.8576C66.0333 63.8024 69.1035 60.3862 72.9263 58.0047C76.7491 55.6232 81.168 54.3737 85.6712 54.401ZM85.6712 102.244C80.2902 102.244 75.0673 100.423 70.8521 97.0765L104.41 63.5032C107.22 67.0194 108.978 71.2595 109.48 75.7333C109.983 80.207 109.209 84.7316 107.249 88.784C105.289 92.8363 102.222 96.2508 98.4038 98.6326C94.5854 101.015 90.171 102.266 85.6712 102.244Z" fill="white"/>
<path d="M462.281 288.328L388.49 287.838L387.603 421.217L501.441 421.972L502.064 326.949L462.281 288.328Z" fill="#D0DBF7"/>
<path d="M462.281 288.328L502.063 326.949L462.029 326.684L462.281 288.328Z" fill="#E3EBFC"/>
<path d="M469.101 338.039L462.069 330.911L445.012 347.764L428.166 330.699L421.042 337.721L437.887 354.799L420.816 371.652L427.849 378.767L444.919 361.927L461.751 378.992L468.876 371.97L452.031 354.892L469.101 338.039Z" fill="#EEF4FF"/>
<path d="M90.187 185.435L46.0209 163.295L6.02637 243.122L74.1495 277.278L102.636 220.413L90.187 185.435Z" fill="#D0DBF7"/>
<path d="M90.1871 185.435L102.636 220.413L78.6787 208.396L90.1871 185.435Z" fill="#E3EBFC"/>
<path d="M79.5659 217.312L77.4602 210.953L62.2305 216.014L57.1584 200.777L50.8016 202.884L55.8738 218.121L40.6309 223.195L42.7498 229.555L57.9795 224.493L63.0384 239.73L69.3951 237.61L64.3362 222.373L79.5659 217.312Z" fill="#EEF4FF"/>
<path d="M255.396 37.2695L220.05 48.7698L240.828 112.657L295.351 94.9166L280.545 49.3925L255.396 37.2695Z" fill="#D0DBF7"/>
<path d="M255.396 37.2695L280.544 49.3925L261.368 55.6461L255.396 37.2695Z" fill="#E3EBFC"/>
<path d="M266.56 59.939L262.07 57.6602L256.588 68.4185L245.821 62.9466L243.543 67.438L254.296 72.9099L248.827 83.6815L253.316 85.9736L258.786 75.202L269.553 80.6872L271.844 76.1957L261.077 70.7106L266.56 59.939Z" fill="#EEF4FF"/>
<path d="M123.431 371.461H125.828L128.214 375.189V371.461H130.817V379.479H128.42L126.034 375.739V379.479H123.431V371.461ZM135.748 379.651C134.93 379.651 134.188 379.475 133.523 379.123C132.865 378.771 132.345 378.282 131.963 377.655C131.581 377.02 131.389 376.294 131.389 375.475C131.389 374.657 131.581 373.931 131.963 373.296C132.345 372.662 132.865 372.168 133.523 371.817C134.188 371.465 134.93 371.289 135.748 371.289C136.559 371.289 137.293 371.465 137.95 371.817C138.616 372.168 139.139 372.662 139.522 373.296C139.904 373.931 140.095 374.657 140.095 375.475C140.095 376.294 139.904 377.02 139.522 377.655C139.139 378.282 138.616 378.771 137.95 379.123C137.293 379.475 136.559 379.651 135.748 379.651ZM135.748 377.093C136.207 377.093 136.585 376.947 136.884 376.657C137.182 376.366 137.331 375.973 137.331 375.475C137.331 374.978 137.182 374.585 136.884 374.294C136.585 374.004 136.207 373.858 135.748 373.858C135.282 373.858 134.899 374.004 134.601 374.294C134.303 374.585 134.154 374.978 134.154 375.475C134.154 375.973 134.303 376.366 134.601 376.657C134.907 376.947 135.289 377.093 135.748 377.093ZM144.108 371.461H147.182C148.069 371.461 148.845 371.622 149.51 371.943C150.183 372.264 150.703 372.723 151.07 373.319C151.437 373.916 151.621 374.619 151.621 375.43C151.621 376.76 151.223 377.769 150.428 378.458C149.64 379.138 148.558 379.479 147.182 379.479H144.108V371.461ZM147.366 376.955C148.36 376.955 148.857 376.447 148.857 375.43C148.857 374.963 148.727 374.608 148.467 374.363C148.207 374.111 147.84 373.984 147.366 373.984H146.827V376.955H147.366ZM154.427 371.461H156.996L160.208 379.479H157.421L156.905 378.079H154.519L154.003 379.479H151.215L154.427 371.461ZM156.308 376.083L155.712 374.237L155.115 376.083H156.308ZM161.005 373.744H158.951V371.461H165.776V373.744H163.723V379.479H161.005V373.744ZM167.723 371.461H170.292L173.504 379.479H170.717L170.2 378.079H167.815L167.298 379.479H164.511L167.723 371.461ZM169.604 376.083L169.008 374.237L168.411 376.083H169.604Z" fill="white"/>
</g>
<defs>
<clipPath id="clip0_4344_8198">
<rect width="578" height="447" fill="white"/>
</clipPath>
</defs>
</svg>
