<svg width="715" height="445" viewBox="0 0 715 445" fill="none" xmlns="http://www.w3.org/2000/svg">
<g clip-path="url(#clip0_599_6198)">
<path d="M128.1 57.1001H3.5V93.9001H128.1V57.1001Z" fill="white"/>
<path d="M128.5 94.4001H3V56.6001H128.6V94.4001H128.5ZM4 93.4001H127.6V57.6001H4V93.4001Z" fill="#E0E0E0"/>
<path d="M22.8 87.6999C29.0961 87.6999 34.2 82.5959 34.2 76.2999C34.2 70.0038 29.0961 64.8999 22.8 64.8999C16.504 64.8999 11.4 70.0038 11.4 76.2999C11.4 82.5959 16.504 87.6999 22.8 87.6999Z" fill="#EBEBEB"/>
<path d="M23.7 76.5C24.6 76.1 25.3 75.1 25.2 74.1C25.3 72.8 24.3 71.6 23 71.4C21.7 71.3 20.5 72.3 20.3 73.6C20.3 73.7 20.3 73.9 20.3 74C20.3 75.1 20.9 76 21.8 76.4C18.2 77.1 18.4 81.1 18.4 81.1H27.3C27.3 81.1 27.5 77 23.7 76.5Z" fill="white"/>
<path d="M113.7 75.9001C113.7 76.1001 97.7 76.2001 77.9 76.2001C58.1 76.2001 42.1 76.1001 42.1 75.9001C42.1 75.7001 58.1 75.6001 77.9 75.6001C97.7 75.6001 113.7 75.7001 113.7 75.9001Z" fill="#E0E0E0"/>
<path d="M216.9 0.600098H92.3V37.4001H216.9V0.600098Z" fill="white"/>
<path d="M217.4 37.9001H91.8V0.100098H217.4V37.9001ZM92.8 36.9001H216.4V1.1001H92.8V36.9001Z" fill="#E0E0E0"/>
<path d="M111.7 31.1999C117.996 31.1999 123.1 26.0959 123.1 19.7999C123.1 13.5039 117.996 8.3999 111.7 8.3999C105.404 8.3999 100.3 13.5039 100.3 19.7999C100.3 26.0959 105.404 31.1999 111.7 31.1999Z" fill="#EBEBEB"/>
<path d="M112.6 20C113.6 19.6 114.2 18.6 114.2 17.6C114.3 16.3 113.3 15.1 112 14.9C110.7 14.8 109.5 15.8 109.3 17.1C109.3 17.2 109.3 17.4 109.3 17.5C109.3 18.6 109.9 19.5 110.9 19.9C107.1 20.5 107.3 24.5 107.3 24.5H116.2C116.1 24.6 116.3 20.5 112.6 20Z" fill="white"/>
<path d="M202.6 19.4001C202.6 19.5001 186.6 19.7001 166.8 19.7001C147 19.7001 131 19.6001 131 19.4001C131 19.2001 147 19.1001 166.8 19.1001C186.6 19.1001 202.6 19.2001 202.6 19.4001Z" fill="#E0E0E0"/>
<path d="M598.1 204.9C575.6 186.6 572.4 155.5 575.3 128C575.8 123.4 575.6 118.5 578.1 114.6C580.6 110.7 585.9 108.3 589.9 110.6C593.2 112.5 594.4 116.5 596.1 120C598.3 124.6 601.8 128.4 606.2 131.1C609 132.8 612.6 134 615.6 132.6C619.7 130.7 620.6 125.2 620.9 120.6L622.6 94.9001C622.9 90.3001 623.2 85.6001 625 81.4001C626.8 77.2001 630.2 73.3001 634.6 72.4001C639 71.5001 644.3 74.4001 644.9 79.0001C645.2 80.9001 644.6 82.8001 644.6 84.7001C644.6 86.6001 645.3 88.8001 647.1 89.4001C648.9 90.0001 650.8 88.9001 652.3 87.7001C657.4 83.4001 661 77.7001 664.4 72.0001C667.8 66.3001 671.2 60.5001 675.9 55.7001C680.6 50.9001 686.8 47.4001 693.4 47.5001C700 47.6001 706.7 52.2001 707.9 58.7001C709.1 65.2001 704.9 71.6001 700.4 76.5001C693.8 83.8001 686.1 90.2001 677.6 95.3001C676.1 96.2001 674.4 97.2001 673.8 98.9001C672.6 101.9 675.3 105.1 678.2 106.3C681.5 107.7 685.3 107.6 688.8 108.3C692.3 109 696.1 110.8 697.2 114.3C698.7 119.1 694.5 123.7 690.4 126.7C682.2 132.6 673.1 137 663.4 139.8C659.9 140.8 656.3 141.6 653.4 143.8C650.5 146 648.6 150 650 153.3C651.4 156.6 655.5 158 659.1 157.6C662.7 157.2 666 155.5 669.4 154.5C675.9 152.6 684 153.6 687.6 159.3C690 163.1 689.9 168.1 688.2 172.2C686.5 176.3 683.6 179.8 680.4 183C669.4 194.1 655.8 202.7 640.9 206.8C626 210.9 612.3 211.2 598.1 204.9Z" fill="#F5F5F5"/>
<path d="M606.5 188C611.6 174.4 618.4 159.9 626 144.9L631.7 133.9C633.6 130.3 635.4 126.7 637.5 123.3C641.4 116.8 645.7 110.5 650.3 104.5C654.7 98.7003 659 93.4003 663.1 88.4003C667.2 83.4003 671.1 78.9003 674.9 74.9003C680.8 68.6003 687.2 62.7003 694 57.4003C696.4 55.5003 698.3 54.1003 699.6 53.2003L701.1 52.1003C701.3 52.0003 701.4 51.9003 701.6 51.8003C701.4 51.9003 701.3 52.1003 701.1 52.2003L699.6 53.3003C698.3 54.3003 696.4 55.7003 694.1 57.6003C687.4 63.0003 681.1 68.9003 675.2 75.3003C671.5 79.3003 667.6 83.9003 663.5 88.8003C659.4 93.7003 655.1 99.1003 650.7 104.9C646.1 110.9 641.9 117.2 638 123.7C636 127.1 634.1 130.6 632.3 134.3L626.6 145.3C619.3 159.3 612.8 173.6 607.1 188.3" fill="#E0E0E0"/>
<path d="M637.7 123.3C637.5 122.6 637.4 122 637.4 121.3C637.2 120 637.1 118.2 636.9 115.8C636.6 111.2 636.4 104.8 636.1 97.7999C635.8 90.7999 635.6 84.3999 635.2 79.7999C635 77.4999 634.8 75.5999 634.7 74.3999C634.6 73.6999 634.6 73.0999 634.6 72.3999C634.8 72.9999 635 73.6999 635 74.3999C635.2 75.6999 635.5 77.4999 635.8 79.7999C636.3 84.3999 636.8 90.7999 637 97.7999C637.2 104.8 637.4 111 637.5 115.8C637.6 118 637.6 119.8 637.7 121.3C637.8 122 637.7 122.7 637.7 123.3Z" fill="#E0E0E0"/>
<path d="M697.4 116.5C696.6 116.6 695.8 116.7 695 116.6C693.5 116.6 691.3 116.6 688.5 116.8C683.1 117 675.5 117.5 667.3 118.5C659.1 119.5 651.6 120.6 646.3 121.7C643.6 122.2 641.5 122.6 640 123C639.2 123.2 638.4 123.3 637.7 123.4C638.4 123.1 639.2 122.8 640 122.7C641.5 122.3 643.6 121.7 646.3 121.2C651.6 120 659.1 118.7 667.4 117.8C674.5 117 681.6 116.5 688.7 116.4C691.4 116.4 693.6 116.4 695.2 116.5C695.9 116.3 696.6 116.4 697.4 116.5Z" fill="#E0E0E0"/>
<path d="M607.3 187C607.1 186.8 607 186.5 607 186.2L606.1 184C605.4 182.1 604.4 179.3 603.2 175.8C600.8 168.8 597.9 159.1 594.8 148.4C591.7 137.7 588.8 127.9 586.6 120.9L583.9 112.6L583.2 110.3C583.1 110 583 109.8 583 109.5C583.2 109.7 583.3 110 583.4 110.3L584.2 112.5C584.9 114.4 585.9 117.2 587.1 120.7C589.5 127.7 592.4 137.4 595.5 148.1C598.6 158.8 601.5 168.6 603.7 175.6C604.8 179 605.7 181.8 606.3 183.9L607 186.2C607.2 186.4 607.3 186.7 607.3 187Z" fill="#E0E0E0"/>
<path d="M687.4 167.4C687.1 167.5 686.9 167.6 686.6 167.7L684.3 168.3L675.7 170.4C668.4 172.2 658.5 174.8 647.4 177.7C636.3 180.6 626.4 183.1 619.1 184.7C615.5 185.5 612.5 186.1 610.4 186.6L608 187C607.7 187.1 607.4 187.1 607.2 187.1C607.5 187 607.7 186.9 608 186.8L610.3 186.2L618.9 184.1C626.2 182.3 636.1 179.7 647.2 176.8C658.3 173.9 668.2 171.4 675.5 169.8C679.2 169 682.1 168.4 684.2 167.9L686.6 167.5C686.9 167.4 687.2 167.4 687.4 167.4Z" fill="#E0E0E0"/>
<path d="M24.8 353.8C20.2 351.4 14.7 351.1 9.6 351.9C6.8 352.4 4 353.2 2.1 355.3C0.200002 357.4 -0.0999978 361 2 362.8C3.4 363.7 5.1 364.2 6.7 364C10.7 364 15.2 363.2 18.4 365.7C20.2 367.1 21.4 369.4 23.6 370C25.8 370.5 28.2 369.5 29.3 367.5C30.3 365.5 30.6 363.2 29.9 361C29.5 357.8 27.6 355.2 24.8 353.8Z" fill="#EBEBEB"/>
<path d="M35.4 333.3C32.6 337.3 27.1 336 24.5 333.5C21.9 331 20.9 327.5 19.9 324.1C17.7 316.3 15.4 308.2 17.1 300.2C17.5 297.8 18.5 295.6 20.1 293.7C21.7 291.9 24.2 291 26.7 291.5C29.5 292.2 31.2 294.9 32.4 297.5C36.1 305.1 38 313.4 38 321.9C38 325.9 37.6 330.1 35.4 333.3Z" fill="#EBEBEB"/>
<path d="M43.1 339.1C40 335.5 39.4 330.1 40.8 325.6C42.2 321.1 45.2 317.2 48.8 314C53 310.3 57.8 307.4 63.1 305.5C65.1 304.7 67.3 304.3 69.5 304.4C71.7 304.5 73.7 305.8 74.9 307.7C76.4 310.6 75 314.1 73.4 316.9C70.6 321.9 67.5 326.7 64 331.2C61.2 334.8 58 338.4 53.7 340.1C49.4 341.8 44.9 341.6 42.7 338.6" fill="#EBEBEB"/>
<path d="M35.6 394.2C35.5 393.6 35.4 393 35.3 392.4C35.2 391.1 35 389.4 34.8 387.4C34.6 384.9 34.2 382.5 33.7 380.1C33 377.1 32.2 374.3 31 371.4C29.9 368.6 28.4 366 26.6 363.6C25.1 361.7 23.2 360.1 21 358.9C19.5 358.2 17.9 357.7 16.3 357.4C15.7 357.4 15.1 357.3 14.5 357.1C15.1 357 15.7 357 16.4 357.1C18.1 357.2 19.8 357.7 21.3 358.4C23.6 359.5 25.6 361.1 27.2 363.1C29.1 365.5 30.7 368.2 31.8 371.1C32.9 374 33.8 376.9 34.5 379.9C35 382.4 35.3 384.8 35.5 387.3C35.7 389.4 35.7 391.1 35.8 392.3C35.7 392.9 35.7 393.6 35.6 394.2Z" fill="#E0E0E0"/>
<path d="M35.2 390.3C35.2 390 35.2 389.7 35.2 389.4V387C35.2 384.9 35.2 381.8 35.1 378.1C34.9 370.6 34.3 362.4 33 351C31.8 340.2 30.2 327.7 28.5 319.6C28.1 317.7 27.8 316.1 27.4 314.6C27 313.1 26.7 311.9 26.5 310.9L25.9 308.5C25.8 308.2 25.8 307.9 25.7 307.7C25.8 307.9 25.9 308.2 26 308.5C26.2 309.1 26.4 309.9 26.7 310.8C27 311.7 27.3 313.1 27.7 314.5C28.1 315.9 28.5 317.6 28.9 319.5C31 329.1 32.6 338.9 33.6 348.7C35 360.1 35.6 370.6 35.6 378.1C35.6 381.9 35.6 384.9 35.5 387.1C35.4 388.1 35.4 388.9 35.3 389.5C35.3 389.8 35.3 390.1 35.2 390.3Z" fill="#E0E0E0"/>
<path d="M35.2 370.2C35.1 369.4 35.1 368.5 35.2 367.7C35.3 366.1 35.5 363.7 36 360.8C36.6 357.4 37.3 354.1 38.2 350.8C39.3 346.7 40.7 342.7 42.4 338.9C45.3 331.8 49.5 325.3 54.7 319.7C55.6 318.7 56.6 317.8 57.6 317C58 316.6 58.4 316.2 58.8 316L59.9 315.2C60.6 314.7 61.3 314.2 62 313.8C62.1 314 59 315.8 55 320.1C49.9 325.7 45.9 332.2 43 339.2C41.3 343 39.9 346.9 38.7 350.9C37.8 354.2 37 357.5 36.4 360.8C35.9 363.7 35.6 366 35.4 367.6C35.5 368.5 35.4 369.4 35.2 370.2Z" fill="#E0E0E0"/>
<path d="M54.6 405.7L52.6 433.4H17.1L15.1 405.7H54.6Z" fill="#E0E0E0"/>
<path d="M58.1 394.8H10.9V405.7H58.1V394.8Z" fill="#E0E0E0"/>
<path d="M58.1 432.3V435.3H55.9H11.6V432.3H58.1Z" fill="#EBEBEB"/>
<path d="M53.7 440.6L55.9 435.3H13.3L15.9 440.6H53.7Z" fill="#E0E0E0"/>
<path d="M15.8 414.7C15.8 414.7 15.8 414.8 16 415L16.5 415.7C17 416.3 17.7 417.2 18.6 418.3L18.7 418.4L18.8 418.3L23.9 411.3H23.6C25.1 413.4 26.8 415.8 28.6 418.4L28.8 418.6L29 418.4L34.9 411.3H34.6L34.9 411.7L40.2 418.4L40.4 418.6L40.6 418.4L45.6 411.3H45.3L51.5 418.3L51.6 418.4L51.7 418.3L53.6 415L54.1 414.1L53.5 414.9L51.5 418.1H51.7L45.6 411L45.4 410.8L45.3 411L40.2 418H40.5L35.2 411.3L34.9 410.9L34.7 410.7L34.5 410.9L28.6 418H28.9L23.9 411L23.7 410.8L23.5 411L18.5 418.1H18.7C17.8 417 17.1 416.1 16.5 415.5L15.9 414.8L15.8 414.7Z" fill="#F5F5F5"/>
<path d="M14.6 405.5C14.6 405.6 23.5 405.7 34.5 405.7C45.5 405.7 54.4 405.6 54.4 405.5C54.4 405.4 45.5 405.3 34.5 405.3C23.5 405.3 14.6 405.4 14.6 405.5Z" fill="#F5F5F5"/>
<path d="M12.8 435.6C12.8 435.7 22.5 435.8 34.4 435.8C46.3 435.8 56 435.7 56 435.6C56 435.5 46.3 435.4 34.4 435.4C22.5 435.4 12.8 435.5 12.8 435.6Z" fill="#F5F5F5"/>
<path d="M321 350.9H196.4V387.7H321V350.9Z" fill="white"/>
<path d="M321.5 388.2H195.8V350.4H321.4V388.2H321.5ZM196.9 387.2H320.5V351.4H196.8L196.9 387.2Z" fill="#E0E0E0"/>
<path d="M215.7 381.5C221.996 381.5 227.1 376.396 227.1 370.1C227.1 363.804 221.996 358.7 215.7 358.7C209.404 358.7 204.3 363.804 204.3 370.1C204.3 376.396 209.404 381.5 215.7 381.5Z" fill="#EBEBEB"/>
<path d="M216.7 370.2C217.6 369.8 218.3 368.8 218.3 367.8C218.4 366.5 217.4 365.3 216.1 365.1C214.8 365 213.6 366 213.4 367.3C213.4 367.4 213.4 367.6 213.4 367.7C213.4 368.7 214 369.7 215 370.1C211.2 370.7 211.4 374.7 211.4 374.7H220.3C220.2 374.9 220.4 370.9 216.7 370.2Z" fill="white"/>
<path d="M306.6 369.6C306.6 369.7 290.6 369.9 270.8 369.9C251 369.9 235 369.8 235 369.6C235 369.4 251 369.3 270.8 369.3C290.6 369.3 306.6 369.5 306.6 369.6Z" fill="#E0E0E0"/>
<path d="M417.3 313.7H292.7V350.5H417.3V313.7Z" fill="white"/>
<path d="M417.8 351H292.2V313.2H417.8V351ZM293.2 350H416.8V314.2H293.2V350Z" fill="#E0E0E0"/>
<path d="M312 344.3C318.296 344.3 323.4 339.196 323.4 332.9C323.4 326.604 318.296 321.5 312 321.5C305.704 321.5 300.6 326.604 300.6 332.9C300.6 339.196 305.704 344.3 312 344.3Z" fill="#EBEBEB"/>
<path d="M313 333.1C314 332.7 314.6 331.7 314.5 330.7C314.6 329.4 313.6 328.2 312.3 328C311 327.9 309.8 328.9 309.6 330.2C309.6 330.3 309.6 330.5 309.6 330.6C309.6 331.7 310.2 332.6 311.2 333C307.4 333.6 307.6 337.6 307.6 337.6H316.5C316.5 337.7 316.7 333.6 313 333.1Z" fill="white"/>
<path d="M402.9 332.4C402.9 332.5 386.9 332.7 367.1 332.7C347.3 332.7 331.3 332.6 331.3 332.4C331.3 332.2 347.3 332.1 367.1 332.1C386.9 332.1 402.9 332.3 402.9 332.4Z" fill="#E0E0E0"/>
<path d="M457.6 377.5L455.9 408.7C455.8 409.8 454.9 410.7 453.8 410.7L397.7 411.1C396.5 411.1 395.6 410.2 395.6 409L395.4 384.7C395.4 383.5 396.3 382.6 397.5 382.6H432C432.6 382.6 433.1 382.4 433.5 382L439.5 376C439.9 375.6 440.4 375.4 441 375.4L455.5 375.3C456.7 375.4 457.7 376.3 457.6 377.5Z" fill="#D7282F"/>
<g opacity="0.3">
<path d="M457.6 377.5L455.9 408.7C455.8 409.8 454.9 410.7 453.8 410.7L397.7 411.1C396.5 411.1 395.6 410.2 395.6 409L395.4 384.7C395.4 383.5 396.3 382.6 397.5 382.6H432C432.6 382.6 433.1 382.4 433.5 382L439.5 376C439.9 375.6 440.4 375.4 441 375.4L455.5 375.3C456.7 375.4 457.7 376.3 457.6 377.5Z" fill="black"/>
</g>
<path d="M456.677 378.486L395.377 378.936L395.645 415.536L456.945 415.086L456.677 378.486Z" fill="#F5F5F5"/>
<path d="M461.6 381.8L457.2 420C457.1 420.7 456.5 421.2 455.9 421.2L396.1 421.6C395.4 421.6 394.8 421.1 394.7 420.4L391.4 382.2C391.3 381.5 391.9 380.8 392.6 380.7H392.7L460.1 380.2C460.9 380.2 461.5 380.8 461.5 381.6C461.6 381.7 461.6 381.7 461.6 381.8Z" fill="#FAFAFA"/>
<path d="M474.2 371.6L472.5 402.8C472.4 403.9 471.5 404.8 470.4 404.8L414.3 405.2C413.1 405.2 412.2 404.3 412.2 403.1L412 378.8C412 377.6 412.9 376.7 414.1 376.7H448.6C449.2 376.7 449.7 376.5 450.1 376.1L456.1 370.1C456.5 369.7 457 369.5 457.6 369.5L472.1 369.4C473.3 369.4 474.2 370.3 474.2 371.5V371.6Z" fill="#E0E0E0"/>
<path d="M473.277 372.586L411.977 373.035L412.246 409.635L473.546 409.186L473.277 372.586Z" fill="#F5F5F5"/>
<path d="M478.1 375.9L473.7 414.1C473.6 414.8 473 415.3 472.4 415.3L412.6 415.7C411.9 415.7 411.3 415.2 411.2 414.5L407.9 376.3C407.8 375.6 408.4 374.9 409.1 374.8H409.2L476.6 374.3C477.4 374.3 478 374.9 478 375.7C478.1 375.7 478.1 375.8 478.1 375.9Z" fill="#E0E0E0"/>
<path d="M492.8 378.9L491.1 410.1C491 411.2 490.1 412.1 489 412.1L432.9 412.5C431.7 412.5 430.8 411.6 430.8 410.4L430.6 386.1C430.6 384.9 431.5 384 432.7 384H467.2C467.8 384 468.3 383.8 468.7 383.4L474.7 377.4C475.1 377 475.6 376.8 476.2 376.8L490.7 376.7C491.8 376.8 492.8 377.7 492.8 378.9Z" fill="#F5F5F5"/>
<path d="M491.878 379.986L430.578 380.435L430.847 417.035L492.147 416.586L491.878 379.986Z" fill="#F5F5F5"/>
<path d="M496.7 383.2L492.3 421.4C492.2 422.1 491.7 422.6 491 422.6L431.2 423C430.5 423 429.9 422.5 429.8 421.8L426.5 383.6C426.4 382.9 427 382.2 427.7 382.1H427.8L495.2 381.6C495.9 381.6 496.6 382.2 496.6 382.9C496.7 383.1 496.7 383.1 496.7 383.2Z" fill="#F5F5F5"/>
<path d="M426.6 388.4V441.4H503.1V388.4H426.6ZM451.6 397.9C451.6 395.7 453.4 394 455.5 394H474.2C476.4 393.9 478.2 395.6 478.3 397.7C478.4 399.9 476.7 401.7 474.6 401.8C474.5 401.8 474.3 401.8 474.2 401.8H455.4C453.3 401.8 451.6 400.1 451.6 397.9Z" fill="#EBEBEB"/>
<path d="M385.3 388.4V441.4H426.6V388.4H385.3Z" fill="#E0E0E0"/>
<path d="M623.2 283.5H143.9L144.9 11.8999H624.2L623.2 283.5Z" fill="white"/>
<path d="M153.2 21.2999C154.415 21.2999 155.4 20.3149 155.4 19.0999C155.4 17.8849 154.415 16.8999 153.2 16.8999C151.985 16.8999 151 17.8849 151 19.0999C151 20.3149 151.985 21.2999 153.2 21.2999Z" fill="#263238"/>
<path d="M162.4 21.2999C163.615 21.2999 164.6 20.3149 164.6 19.0999C164.6 17.8849 163.615 16.8999 162.4 16.8999C161.185 16.8999 160.2 17.8849 160.2 19.0999C160.2 20.3149 161.185 21.2999 162.4 21.2999Z" fill="#263238"/>
<path d="M256.6 30.2002H212.5V54.0002H256.6V30.2002Z" fill="#D7282F"/>
<path d="M171.6 21.2999C172.815 21.2999 173.8 20.3149 173.8 19.0999C173.8 17.8849 172.815 16.8999 171.6 16.8999C170.385 16.8999 169.4 17.8849 169.4 19.0999C169.4 20.3149 170.385 21.2999 171.6 21.2999Z" fill="#263238"/>
<path d="M623.2 30.1999C623.2 30.3999 516.1 30.4999 384 30.4999C251.9 30.4999 144.8 30.3999 144.8 30.1999C144.8 29.9999 251.9 29.8999 384 29.8999C516.1 29.8999 623.2 29.9999 623.2 30.1999Z" fill="#263238"/>
<path d="M178.1 51H143.9V283.8H178.1V51Z" fill="#F5F5F5"/>
<path d="M212.6 50.7002H177.5V283.5H212.6V50.7002Z" fill="#EBEBEB"/>
<path d="M246.7 50.7002H212.5V283.5H246.7V50.7002Z" fill="#F5F5F5"/>
<path d="M281 50.7002H246V283.5H281V50.7002Z" fill="#EBEBEB"/>
<path d="M315.3 50.7002H281.1V283.5H315.3V50.7002Z" fill="#F5F5F5"/>
<path d="M349.6 50.7002H314.6V283.5H349.6V50.7002Z" fill="#EBEBEB"/>
<path d="M383.9 50.7002H349.7V283.5H383.9V50.7002Z" fill="#F5F5F5"/>
<path d="M418.2 50.7002H383.2V283.5H418.2V50.7002Z" fill="#EBEBEB"/>
<path d="M452.5 50.7002H418.3V283.5H452.5V50.7002Z" fill="#F5F5F5"/>
<path d="M486.8 50.7002H451.8V283.5H486.8V50.7002Z" fill="#EBEBEB"/>
<path d="M521.1 50.7002H486.9V283.5H521.1V50.7002Z" fill="#F5F5F5"/>
<path d="M555.4 50.7002H520.4V283.5H555.4V50.7002Z" fill="#EBEBEB"/>
<path d="M589.7 50.7002H555.5V283.5H589.7V50.7002Z" fill="#F5F5F5"/>
<path d="M623.2 50.7002H589V283.5H623.2V50.7002Z" fill="#EBEBEB"/>
<path d="M217.8 282.9C217.7 282.9 217.5 230.9 217.5 166.8C217.5 102.7 217.6 50.7002 217.8 50.7002C218 50.7002 218.1 102.7 218.1 166.8C218.1 230.9 218 282.9 217.8 282.9Z" fill="#D7282F"/>
<path d="M262.1 84.2998H162.8V113.4H262.1V84.2998Z" fill="#D7282F"/>
<path d="M178.4 108.5C183.426 108.5 187.5 104.471 187.5 99.5C187.5 94.5294 183.426 90.5 178.4 90.5C173.374 90.5 169.3 94.5294 169.3 99.5C169.3 104.471 173.374 108.5 178.4 108.5Z" fill="white"/>
<path d="M179.2 99.5998C180 99.2998 180.5 98.4998 180.5 97.6998C180.7 96.5998 180 95.5998 178.9 95.3998C177.8 95.1998 176.8 95.8998 176.6 96.9998C176.6 97.1998 176.6 97.4998 176.6 97.6998C176.6 98.4998 177.1 99.2998 177.9 99.5998C174.9 99.9998 175 103.3 175 103.3H182.1C182 103.3 182.2 99.9998 179.2 99.5998Z" fill="#D7282F"/>
<path d="M250.5 99.0998C250.5 99.1998 237.8 99.3998 222.2 99.3998C206.6 99.3998 193.9 99.2998 193.9 99.0998C193.9 98.8998 206.6 98.7998 222.2 98.7998C237.8 98.7998 250.5 98.9998 250.5 99.0998Z" fill="white"/>
<path d="M464 204.3H444.1C423.8 204.3 407.3 188.1 407.3 168.2V131.7C407.3 112.3 391.3 96.6001 371.5 96.6001L262 97.1001V96.1001L371.5 95.6001C391.8 95.6001 408.3 111.8 408.3 131.7V168.2C408.3 187.6 424.3 203.3 444.1 203.3H464V204.3Z" fill="#D7282F"/>
<path d="M527.7 191H451.2V220.1H527.7V191Z" fill="white"/>
<path d="M528.2 220.6H450.7V190.5H528.2V220.6ZM451.7 219.6H527.2V191.5H451.7V219.6Z" fill="#D7282F"/>
<path d="M466.8 215.2C471.826 215.2 475.9 211.171 475.9 206.2C475.9 201.23 471.826 197.2 466.8 197.2C461.774 197.2 457.7 201.23 457.7 206.2C457.7 211.171 461.774 215.2 466.8 215.2Z" fill="#D7282F"/>
<path d="M467.6 206.4C468.4 206.1 468.9 205.3 468.9 204.5C469.1 203.4 468.4 202.4 467.3 202.2C466.2 202 465.2 202.7 465 203.8C465 204 465 204.3 465 204.5C465 205.3 465.5 206.1 466.3 206.4C463.3 206.8 463.4 210.1 463.4 210.1H470.5C470.4 210 470.6 206.9 467.6 206.4Z" fill="white"/>
<path d="M508.5 205.9C508.2 206 507.8 206 507.5 206C506.8 206 505.9 206.1 504.7 206.1C502.3 206.2 499 206.2 495.4 206.2C491.8 206.2 488.5 206.2 486.1 206.1C484.9 206.1 484 206 483.3 206C483 206 482.6 206 482.3 205.9C482.6 205.8 483 205.8 483.3 205.8L486.1 205.7C488.5 205.7 491.7 205.6 495.4 205.6C499.1 205.6 502.3 205.6 504.7 205.7L507.5 205.8C507.9 205.7 508.2 205.8 508.5 205.9Z" fill="#D7282F"/>
<path d="M528.167 161.253L528.07 190.353L592.97 190.568L593.067 161.468L528.167 161.253Z" fill="white"/>
<path d="M593.5 191L527.6 190.8L527.7 160.7L593.6 160.9L593.5 191ZM528.6 189.9L592.5 190.1L592.6 162L528.7 161.8L528.6 189.9Z" fill="#263238"/>
<path d="M552.3 176.5C552.3 181.4 548.2 185.4 543.3 185.4C538.4 185.4 534.4 181.3 534.4 176.4C534.4 171.5 538.4 167.5 543.4 167.5C548.3 167.5 552.3 171.5 552.3 176.5Z" fill="#263238"/>
<path d="M544.1 176.6C544.9 176.3 545.3 175.5 545.3 174.7C545.3 173.6 544.4 172.8 543.4 172.8C542.3 172.8 541.5 173.7 541.5 174.7C541.5 175.5 542 176.3 542.7 176.6C539.7 177 539.9 180.3 539.9 180.3H546.9C546.8 180.3 547 177 544.1 176.6Z" fill="white"/>
<path d="M585.8 176.2C585.4 176.3 585.1 176.3 584.7 176.3C584 176.3 583 176.3 581.8 176.4C579.3 176.4 575.9 176.5 572.1 176.4C568.3 176.3 564.9 176.3 562.4 176.3L559.5 176.2C559.1 176.2 558.8 176.2 558.4 176.1C558.8 176 559.1 176 559.5 176C560.2 176 561.2 175.9 562.4 175.9C564.9 175.9 568.3 175.8 572.1 175.9C575.9 176 579.3 176 581.8 176C583 176 584 176.1 584.7 176.1C585.1 176.1 585.5 176.2 585.8 176.2Z" fill="#263238"/>
<path d="M374.6 133.5H262.3V162.6H374.6V133.5Z" fill="white"/>
<path d="M375.1 163.2H261.8V133.1H375.1V163.2ZM262.8 162.2H374.1V134.1H262.8V162.2Z" fill="#455A64"/>
<path d="M362 148.4C362 148.5 348.2 148.7 331.3 148.7C314.4 148.7 300.6 148.6 300.6 148.4C300.6 148.2 314.4 148.1 331.3 148.1C348.2 148.1 362 148.2 362 148.4Z" fill="#455A64"/>
<path d="M279.5 157.4C284.526 157.4 288.6 153.37 288.6 148.4C288.6 143.429 284.526 139.4 279.5 139.4C274.474 139.4 270.4 143.429 270.4 148.4C270.4 153.37 274.474 157.4 279.5 157.4Z" fill="#455A64"/>
<path d="M280.2 148.5C281 148.2 281.4 147.4 281.5 146.6C281.7 145.5 281 144.5 279.9 144.3C278.8 144.1 277.8 144.8 277.6 145.9C277.6 146.1 277.6 146.4 277.6 146.6C277.6 147.4 278.1 148.2 278.9 148.5C275.9 148.9 276 152.2 276 152.2H283.1C283.1 152.2 283.2 149 280.2 148.5Z" fill="white"/>
<path d="M450.4 163.3H351.1V192.4H450.4V163.3Z" fill="white"/>
<path d="M450.9 192.9H350.6V162.8H450.9V192.9ZM351.6 191.9H449.9V163.8H351.6V191.9Z" fill="#263238"/>
<path d="M366.7 187.5C371.726 187.5 375.8 183.471 375.8 178.5C375.8 173.529 371.726 169.5 366.7 169.5C361.674 169.5 357.6 173.529 357.6 178.5C357.6 183.471 361.674 187.5 366.7 187.5Z" fill="#263238"/>
<path d="M367.4 178.6C368.2 178.3 368.7 177.5 368.7 176.7C368.9 175.6 368.2 174.6 367.1 174.4C366 174.2 365 174.9 364.8 176C364.8 176.2 364.8 176.5 364.8 176.7C364.8 177.5 365.3 178.3 366.1 178.6C363.1 179 363.2 182.3 363.2 182.3H370.3C370.2 182.3 370.4 179 367.4 178.6Z" fill="white"/>
<path d="M438.8 178.1C438.8 178.2 426.1 178.4 410.5 178.4C394.9 178.4 382.2 178.3 382.2 178.1C382.2 177.9 394.9 177.8 410.5 177.8C426.1 177.8 438.8 178 438.8 178.1Z" fill="#263238"/>
<path d="M174 46.9002V47.7002H168.1V47.1002L171.6 43.7002C172.5 42.8002 172.7 42.2002 172.7 41.6002C172.7 40.6002 172 40.0002 170.7 40.0002C169.8 39.9002 169 40.3002 168.4 40.9002L167.8 40.4002C168.6 39.6002 169.7 39.1002 170.8 39.2002C172.5 39.2002 173.6 40.1002 173.6 41.5002C173.6 42.5002 173.1 43.5002 172.2 44.1002L169.4 46.9002H174Z" fill="black"/>
<path d="M175 43.4001C175 40.7001 176.4 39.1001 178.4 39.1001C180.4 39.1001 181.8 40.7001 181.8 43.4001C181.8 46.1001 180.4 47.7001 178.4 47.7001C176.4 47.7001 175 46.1001 175 43.4001ZM180.9 43.4001C180.9 41.2001 179.9 39.9001 178.4 39.9001C176.9 39.9001 175.9 41.1001 175.9 43.4001C175.9 45.7001 176.9 46.9001 178.4 46.9001C179.9 46.9001 180.8 45.7001 180.9 43.4001Z" fill="black"/>
<path d="M185.3 39.2002V47.6002H184.4V40.0002H182.4V39.2002H185.3Z" fill="black"/>
<path d="M192.8 45.2001C192.8 46.6001 191.8 47.7001 189.8 47.7001C188.7 47.7001 187.6 47.3001 186.8 46.6001L187.2 45.9001C187.9 46.6001 188.8 46.9001 189.8 46.9001C191.2 46.9001 192 46.2001 192 45.2001C192 44.2001 191.3 43.5001 189.7 43.5001H189.1V42.8001L191.4 39.9001H187.1V39.1001H192.5V39.8001L190.1 42.8001C191.9 42.9001 192.8 43.9001 192.8 45.2001Z" fill="black"/>
<path d="M228.6 46.9002V47.7002H222.7V47.1002L226.2 43.7002C227.1 42.8002 227.3 42.2002 227.3 41.6002C227.3 40.6002 226.6 40.0002 225.3 40.0002C224.4 39.9002 223.6 40.3002 223 40.9002L222.4 40.4002C223.2 39.6002 224.3 39.1002 225.4 39.2002C227.1 39.2002 228.2 40.1002 228.2 41.5002C228.2 42.5002 227.7 43.5002 226.9 44.1002L224 46.9002H228.6Z" fill="white"/>
<path d="M229.6 43.4001C229.6 40.7001 231 39.1001 232.9 39.1001C234.9 39.1001 236.3 40.7001 236.3 43.4001C236.3 46.1001 234.9 47.7001 232.9 47.7001C230.9 47.7001 229.6 46.1001 229.6 43.4001ZM235.4 43.4001C235.4 41.2001 234.4 39.9001 232.9 39.9001C231.4 39.9001 230.4 41.1001 230.4 43.4001C230.4 45.7001 231.4 46.9001 232.9 46.9001C234.4 46.9001 235.4 45.7001 235.4 43.4001Z" fill="white"/>
<path d="M239.8 39.2002V47.6002H238.9V40.0002H236.9V39.2002H239.8Z" fill="white"/>
<path d="M249 45.4002H247.3V47.6002H246.4V45.4002H241.7V44.8002L246.2 39.2002H247.2L242.9 44.6002H246.5V42.7002H247.3V44.6002H249V45.4002Z" fill="white"/>
<path d="M284.1 46.9002V47.7002H278.2V47.1002L281.7 43.7002C282.7 42.8002 282.8 42.2002 282.8 41.6002C282.8 40.6002 282.1 40.0002 280.8 40.0002C279.9 39.9002 279.1 40.3002 278.5 40.9002L277.9 40.4002C278.7 39.6002 279.8 39.1002 280.9 39.2002C282.6 39.2002 283.7 40.1002 283.7 41.5002C283.7 42.5002 283.2 43.5002 282.3 44.1002L279.5 46.9002H284.1Z" fill="black"/>
<path d="M285.1 43.4001C285.1 40.7001 286.5 39.1001 288.5 39.1001C290.5 39.1001 291.9 40.7001 291.9 43.4001C291.9 46.1001 290.5 47.7001 288.5 47.7001C286.5 47.7001 285.1 46.1001 285.1 43.4001ZM290.9 43.4001C290.9 41.2001 289.9 39.9001 288.4 39.9001C286.9 39.9001 285.9 41.1001 285.9 43.4001C285.9 45.7001 286.9 46.9001 288.4 46.9001C289.9 46.9001 290.9 45.7001 290.9 43.4001Z" fill="black"/>
<path d="M295.4 39.2002V47.6002H294.5V40.0002H292.5V39.2002H295.4Z" fill="black"/>
<path d="M303.1 45.1001C303.1 46.5001 302.1 47.6001 300.1 47.6001C299 47.6001 297.9 47.2001 297.1 46.5001L297.5 45.8001C298.2 46.5001 299.1 46.8001 300.1 46.8001C301.5 46.8001 302.3 46.1001 302.3 45.1001C302.3 44.1001 301.6 43.3001 299.5 43.3001H297.6L298 39.1001H302.6V39.9001H298.8L298.5 42.6001H299.6C302.1 42.7001 303.1 43.7001 303.1 45.1001Z" fill="black"/>
<path d="M339.1 46.9002V47.7002H333.2V47.1002L336.7 43.7002C337.7 42.8002 337.8 42.2002 337.8 41.6002C337.8 40.6002 337.1 40.0002 335.8 40.0002C334.9 39.9002 334.1 40.3002 333.5 40.9002L332.9 40.4002C333.7 39.6002 334.8 39.1002 335.9 39.2002C337.6 39.2002 338.7 40.1002 338.7 41.5002C338.7 42.5002 338.2 43.5002 337.3 44.1002L334.5 46.9002H339.1Z" fill="black"/>
<path d="M340.2 43.4001C340.2 40.7001 341.6 39.1001 343.5 39.1001C345.4 39.1001 346.9 40.7001 346.9 43.4001C346.9 46.1001 345.5 47.7001 343.5 47.7001C341.5 47.7001 340.2 46.1001 340.2 43.4001ZM346 43.4001C346 41.2001 345 39.9001 343.5 39.9001C342 39.9001 341 41.1001 341 43.4001C341 45.7001 342 46.9001 343.5 46.9001C345 46.9001 346 45.7001 346 43.4001Z" fill="black"/>
<path d="M350.4 39.2002V47.6002H349.5V40.0002H347.5V39.2002H350.4Z" fill="black"/>
<path d="M358.7 45.1002C358.7 46.5002 357.5 47.7002 356.1 47.7002C356 47.7002 356 47.7002 355.9 47.7002C353.7 47.7002 352.5 46.1002 352.5 43.5002C352.5 40.7002 354.1 39.2002 356.3 39.2002C357 39.2002 357.7 39.3002 358.3 39.7002L357.9 40.4002C357.4 40.1002 356.8 40.0002 356.3 40.0002C354.5 40.0002 353.3 41.2002 353.3 43.4002C353.3 43.6002 353.3 43.8002 353.3 44.1002C353.8 43.1002 354.8 42.6002 355.9 42.7002C357.3 42.5002 358.6 43.5002 358.7 44.9002C358.7 44.9002 358.7 45.0002 358.7 45.1002ZM357.9 45.1002C357.9 44.0002 357.1 43.3002 355.8 43.3002C354.7 43.2002 353.7 44.0002 353.6 45.1002C353.6 46.0002 354.4 46.9002 355.8 46.9002C356.8 47.0002 357.7 46.3002 357.8 45.3002C357.8 45.2002 357.8 45.2002 357.9 45.1002Z" fill="black"/>
<path d="M394.2 46.9002V47.7002H388.3V47.1002L391.8 43.7002C392.8 42.8002 392.9 42.2002 392.9 41.6002C392.9 40.6002 392.2 40.0002 390.9 40.0002C390 39.9002 389.2 40.3002 388.6 40.9002L388 40.4002C388.8 39.6002 389.9 39.1002 391 39.2002C392.7 39.2002 393.8 40.1002 393.8 41.5002C393.8 42.5002 393.2 43.5002 392.4 44.1002L389.5 46.9002H394.2Z" fill="black"/>
<path d="M395.2 43.4001C395.2 40.7001 396.6 39.1001 398.6 39.1001C400.6 39.1001 402 40.7001 402 43.4001C402 46.1001 400.6 47.7001 398.6 47.7001C396.6 47.7001 395.2 46.1001 395.2 43.4001ZM401 43.4001C401 41.2001 400 39.9001 398.5 39.9001C397 39.9001 396 41.1001 396 43.4001C396 45.7001 397 46.9001 398.5 46.9001C400 46.9001 401 45.7001 401 43.4001Z" fill="black"/>
<path d="M405.4 39.2002V47.6002H404.6V40.0002H402.6V39.2002H405.4Z" fill="black"/>
<path d="M413.4 39.2002V39.8002L409.9 47.6002H409L412.5 40.0002H408.2V41.6002H407.3V39.3002H413.4V39.2002Z" fill="black"/>
<path d="M449.2 46.9002V47.7002H443.3V47.1002L446.8 43.7002C447.7 42.8002 447.9 42.2002 447.9 41.6002C447.9 40.6002 447.2 40.0002 445.9 40.0002C445 39.9002 444.2 40.3002 443.6 40.9002L443 40.4002C443.8 39.6002 444.9 39.1002 446 39.2002C447.7 39.2002 448.8 40.1002 448.8 41.5002C448.8 42.5002 448.3 43.5002 447.4 44.1002L444.5 46.9002H449.2Z" fill="black"/>
<path d="M450.2 43.4001C450.2 40.7001 451.6 39.1001 453.6 39.1001C455.6 39.1001 457 40.7001 457 43.4001C457 46.1001 455.6 47.7001 453.6 47.7001C451.6 47.7001 450.2 46.1001 450.2 43.4001ZM456 43.4001C456 41.2001 455 39.9001 453.5 39.9001C452 39.9001 451 41.1001 451 43.4001C451 45.7001 452 46.9001 453.5 46.9001C455 46.9001 456 45.7001 456 43.4001Z" fill="black"/>
<path d="M460.5 39.2002V47.6002H459.6V40.0002H457.6V39.2002H460.5Z" fill="black"/>
<path d="M468.9 45.3002C468.9 46.8002 467.6 47.7002 465.6 47.7002C463.6 47.7002 462.4 46.8002 462.4 45.3002C462.4 44.3002 463.1 43.5002 464 43.2002C463.2 42.9002 462.7 42.2002 462.7 41.4002C462.7 40.0002 463.9 39.2002 465.6 39.2002C467.3 39.2002 468.6 40.0002 468.6 41.4002C468.6 42.2002 468.1 43.0002 467.3 43.2002C468.3 43.4002 468.9 44.3002 468.9 45.3002ZM468 45.3002C468 44.3002 467.1 43.6002 465.6 43.6002C464.1 43.6002 463.2 44.3002 463.2 45.3002C463.2 46.3002 464.1 47.0002 465.6 47.0002C467.1 47.0002 468 46.3002 468 45.3002ZM465.7 42.9002C467 42.9002 467.8 42.3002 467.8 41.4002C467.8 40.5002 467 39.9002 465.7 39.9002C464.4 39.9002 463.6 40.5002 463.6 41.4002C463.6 42.3002 464.4 42.9002 465.7 42.9002Z" fill="black"/>
<path d="M504.2 46.9002V47.7002H498.3V47.1002L501.8 43.7002C502.8 42.8002 502.9 42.2002 502.9 41.6002C502.9 40.6002 502.2 40.0002 500.9 40.0002C500 39.9002 499.2 40.3002 498.6 40.9002L498 40.4002C498.8 39.6002 499.9 39.1002 501 39.2002C502.7 39.2002 503.8 40.1002 503.8 41.5002C503.8 42.5002 503.3 43.5002 502.4 44.1002L499.5 46.9002H504.2Z" fill="black"/>
<path d="M505.3 43.4001C505.3 40.7001 506.7 39.1001 508.6 39.1001C510.5 39.1001 512 40.7001 512 43.4001C512 46.1001 510.6 47.7001 508.6 47.7001C506.6 47.7001 505.3 46.1001 505.3 43.4001ZM511.1 43.4001C511.1 41.2001 510.1 39.9001 508.6 39.9001C507.1 39.9001 506.1 41.1001 506.1 43.4001C506.1 45.7001 507.1 46.9001 508.6 46.9001C510.1 46.9001 511.1 45.7001 511.1 43.4001Z" fill="black"/>
<path d="M515.5 39.2002V47.6002H514.6V40.0002H512.6V39.2002H515.5Z" fill="black"/>
<path d="M523.6 43.3C523.6 46.1 522 47.6 519.8 47.6C519.1 47.6 518.4 47.5 517.8 47.1L518.1 46.4C518.6 46.7 519.2 46.8 519.7 46.8C521.5 46.8 522.7 45.6 522.7 43.4C522.7 43.2 522.7 42.9 522.7 42.7C522.2 43.6 521.2 44.2 520.1 44.1C518.7 44.3 517.4 43.3 517.3 41.9C517.3 41.8 517.3 41.7 517.3 41.6C517.3 40.2 518.5 39 519.9 39C520 39 520.1 39 520.1 39C522.4 39.1 523.6 40.7 523.6 43.3ZM522.4 41.7C522.4 40.8 521.6 39.9 520.2 39.9C519.2 39.8 518.3 40.5 518.2 41.5C518.2 41.6 518.2 41.6 518.2 41.7C518.2 42.8 519 43.5 520.3 43.5C521.3 43.6 522.3 42.8 522.4 41.7Z" fill="black"/>
<path d="M559.3 46.9002V47.7002H553.4V47.1002L556.9 43.7002C557.9 42.8002 558 42.2002 558 41.6002C558 40.6002 557.3 40.0002 556 40.0002C555.1 39.9002 554.3 40.3002 553.7 40.9002L553.1 40.4002C553.9 39.6002 555 39.1002 556.1 39.2002C557.8 39.2002 558.9 40.1002 558.9 41.5002C558.9 42.5002 558.4 43.5002 557.5 44.1002L554.7 46.9002H559.3Z" fill="black"/>
<path d="M560.3 43.4001C560.3 40.7001 561.7 39.1001 563.6 39.1001C565.5 39.1001 567 40.7001 567 43.4001C567 46.1001 565.6 47.7001 563.6 47.7001C561.6 47.7001 560.3 46.1001 560.3 43.4001ZM566.1 43.4001C566.1 41.2001 565.1 39.9001 563.6 39.9001C562.1 39.9001 561.1 41.1001 561.1 43.4001C561.1 45.7001 562.1 46.9001 563.6 46.9001C565.1 46.9001 566.1 45.7001 566.1 43.4001Z" fill="black"/>
<path d="M574 46.9002V47.7002H568.1V47.1002L571.6 43.7002C572.5 42.8002 572.7 42.2002 572.7 41.6002C572.7 40.6002 572 40.0002 570.7 40.0002C569.8 39.9002 569 40.3002 568.4 40.9002L567.8 40.4002C568.6 39.6002 569.7 39.1002 570.8 39.2002C572.5 39.2002 573.6 40.1002 573.6 41.5002C573.6 42.5002 573.1 43.5002 572.2 44.1002L569.4 46.9002H574Z" fill="black"/>
<path d="M575 43.4001C575 40.7001 576.4 39.1001 578.3 39.1001C580.2 39.1001 581.7 40.7001 581.7 43.4001C581.7 46.1001 580.3 47.7001 578.3 47.7001C576.3 47.7001 575 46.1001 575 43.4001ZM580.8 43.4001C580.8 41.2001 579.8 39.9001 578.3 39.9001C576.8 39.9001 575.8 41.1001 575.8 43.4001C575.8 45.7001 576.8 46.8001 578.3 46.8001C579.8 46.8001 580.8 45.7001 580.8 43.4001Z" fill="black"/>
<path d="M623.2 283.9C623.2 282.3 623.5 179 624 11.9L624.2 12.1H144.9L145.2 11.8C144.8 108 144.5 200 144.2 283.8L144 283.6L623.2 283.9L143.9 284.1H143.6V283.8C143.9 200 144.2 108 144.6 11.8V11.5H144.9L624.2 11.6H624.4V11.8C623.7 179 623.2 282.3 623.2 283.9Z" fill="#263238"/>
<path d="M571.3 350.7C557.9 344.3 542.5 332.5 535.7 319.1C550.4 325.9 562.8 336.9 571.3 350.7Z" fill="#D7282F"/>
<path d="M577.5 352C565.8 361.2 548.5 369.9 533.5 370.1C546.1 359.9 561.4 353.7 577.5 352Z" fill="#D7282F"/>
<path d="M592.7 358.8C583 370.1 567.7 381.9 552.9 384.9C563.4 372.5 577.2 363.4 592.7 358.8Z" fill="#D7282F"/>
<path d="M608.6 372.9C599.4 380.2 585.7 387 573.9 387.1C583.8 379.1 595.8 374.1 608.6 372.9Z" fill="#D7282F"/>
<path d="M586 355.7C575.5 345.2 565 328.9 563.1 314C574.6 325.4 582.6 339.9 586 355.7Z" fill="#D7282F"/>
<path d="M621.6 372.7C606.1 364.3 588.6 349 581.8 331.7C598.7 340.3 612.8 354.9 621.6 372.7Z" fill="#D7282F"/>
<path d="M620.6 346.6C605.1 338.2 587.6 322.9 580.8 305.6C597.6 314.3 611.8 328.9 620.6 346.6Z" fill="#D7282F"/>
<path d="M618.3 321.2C602.8 312.8 585.3 297.5 578.5 280.2C595.3 288.9 609.5 303.5 618.3 321.2Z" fill="#D7282F"/>
<path d="M614.9 294.5C600.5 284 585 266.4 580.3 248.2C596 259.1 608.3 275.6 614.9 294.5Z" fill="#D7282F"/>
<path d="M610.5 273.9C600.7 258.3 592.4 235.7 594.3 216.9C605.2 233.8 610.9 253.7 610.5 273.9Z" fill="#D7282F"/>
<path d="M612.7 283.7C616.8 264.2 626.8 240.2 641.2 226.7C637 247.9 627.2 267.6 612.7 283.7Z" fill="#D7282F"/>
<path d="M615.9 305.7C621.8 285.8 634.2 261.7 650.2 248.8C644.2 270.5 632.3 290.1 615.9 305.7Z" fill="#D7282F"/>
<path d="M619.5 332.5C625.4 312.6 637.8 288.5 653.8 275.6C647.7 297.3 635.8 316.9 619.5 332.5Z" fill="#D7282F"/>
<path d="M621.3 365.1C627.2 345.2 639.6 321.1 655.6 308.2C649.5 330 637.6 349.6 621.3 365.1Z" fill="#D7282F"/>
<path d="M610.1 269.9C610.1 269.9 610.1 270 610.2 270.2L610.4 271.1C610.6 272 610.9 273.2 611.2 274.7C611.9 277.8 612.8 282.4 613.8 288.1C614.8 293.8 615.9 300.5 617 308C618.1 315.5 619 323.8 619.8 332.6C620.6 341.4 621.1 349.7 621.5 357.3C621.9 364.9 622 371.7 622 377.5C622 383.3 622 387.9 621.9 391.1C621.9 392.7 621.8 393.9 621.8 394.8C621.8 395.2 621.8 395.5 621.8 395.8C621.8 396.1 621.8 396.1 621.8 396.1C621.8 396 621.8 395.9 621.8 395.8C621.8 395.5 621.8 395.2 621.8 394.8V391.1C621.8 387.9 621.8 383.2 621.7 377.5C621.6 371.8 621.4 364.9 621 357.3C620.6 349.7 620.1 341.4 619.3 332.7C618.5 324 617.5 315.7 616.5 308.2C615.5 300.7 614.4 293.9 613.5 288.3C612.6 282.7 611.7 278.1 611.1 274.9C610.8 273.4 610.6 272.1 610.4 271.3C610.3 270.9 610.3 270.6 610.2 270.3C610.3 270.1 610.2 270 610.1 269.9Z" fill="#263238"/>
<g opacity="0.5">
<path d="M621.6 372.7C606.1 364.3 588.6 349 581.8 331.7C598.7 340.3 612.8 354.9 621.6 372.7Z" fill="#820C11"/>
<path d="M620.6 346.6C605.1 338.2 587.6 322.9 580.8 305.6C597.6 314.3 611.8 328.9 620.6 346.6Z" fill="#820C11"/>
<path d="M618.3 321.2C602.8 312.8 585.3 297.5 578.5 280.2C595.3 288.9 609.5 303.5 618.3 321.2Z" fill="#820C11"/>
<path d="M614.9 294.5C600.5 284 585 266.4 580.3 248.2C596 259.1 608.3 275.6 614.9 294.5Z" fill="#820C11"/>
<path d="M610.5 273.9C600.7 258.3 592.4 235.7 594.3 216.9C605.2 233.8 610.9 253.7 610.5 273.9Z" fill="#820C11"/>
<path d="M612.7 283.7C616.8 264.2 626.8 240.2 641.2 226.7C637 247.9 627.2 267.6 612.7 283.7Z" fill="#820C11"/>
<path d="M615.9 305.7C621.8 285.8 634.2 261.7 650.2 248.8C644.2 270.5 632.3 290.1 615.9 305.7Z" fill="#820C11"/>
<path d="M619.5 332.5C625.4 312.6 637.8 288.5 653.8 275.6C647.7 297.3 635.8 316.9 619.5 332.5Z" fill="#820C11"/>
<path d="M621.3 365.1C627.2 345.2 639.6 321.1 655.6 308.2C649.5 330 637.6 349.6 621.3 365.1Z" fill="#820C11"/>
</g>
<path d="M628.5 379.4C621.3 364.3 616 343 619.6 326.4C627.6 342.8 630.7 361.2 628.5 379.4Z" fill="#D7282F"/>
<path d="M640.5 359.8C633.3 344.7 628 323.4 631.6 306.8C639.6 323.2 642.7 341.6 640.5 359.8Z" fill="#D7282F"/>
<path d="M651.3 339.9C644.1 324.8 638.8 303.5 642.4 286.9C650.4 303.3 653.5 321.7 651.3 339.9Z" fill="#D7282F"/>
<path d="M661.9 318.4C656.5 302.4 653.8 280.5 659.3 264.6C665.4 281.8 666.3 300.5 661.9 318.4Z" fill="#D7282F"/>
<path d="M668.8 300.8C669.3 283.8 674.3 262.4 684.9 249.8C684.7 268 679.1 285.7 668.8 300.8Z" fill="#D7282F"/>
<path d="M665.6 309.2C678.1 297.4 697.2 285.6 714.4 284.1C701 297.1 684 305.8 665.6 309.2Z" fill="#D7282F"/>
<path d="M657.2 327.1C671.2 316 692.1 305.5 710.2 305.5C695 317.8 676.6 325.4 657.2 327.1Z" fill="#D7282F"/>
<path d="M646.6 348.8C660.6 337.7 681.5 327.2 699.6 327.2C684.5 339.5 666 347 646.6 348.8Z" fill="#D7282F"/>
<path d="M631.8 373.7C645.8 362.6 666.7 352.1 684.8 352.1C669.7 364.3 651.3 371.9 631.8 373.7Z" fill="#D7282F"/>
<path d="M670.5 297.7C670.5 297.8 670.5 297.9 670.4 298C670.3 298.2 670.2 298.5 670.1 298.8C669.8 299.6 669.4 300.6 668.9 301.9C667.9 304.6 666.3 308.4 664.3 313.1C660.3 322.5 654.3 335.3 647 349C643.3 355.8 639.6 362.3 636.1 368C632.6 373.7 629.3 378.9 626.5 383.1C623.7 387.3 621.3 390.7 619.7 393.1L617.8 395.8L617.3 396.5C617.2 396.6 617.1 396.7 617.1 396.7C617.1 396.6 617.2 396.5 617.2 396.4L617.7 395.7L619.5 393C621.1 390.6 623.4 387.2 626.2 382.9C629 378.6 632.2 373.5 635.7 367.7C639.2 361.9 642.8 355.5 646.5 348.7C653.9 334.9 659.9 322.2 664 312.9C666.1 308.2 667.7 304.4 668.8 301.8L670.1 298.8L670.4 298C670.4 297.7 670.4 297.7 670.5 297.7Z" fill="#263238"/>
<path d="M541 348.9C541.1 348.9 541.2 348.8 541.3 348.8L542 348.7C542.6 348.6 543.6 348.4 544.8 348.3C548.2 347.9 551.7 347.8 555.1 347.9C560.2 348 565.3 348.7 570.3 349.9C582.6 352.8 594 358.8 603.3 367.3C607.1 370.7 610.5 374.6 613.6 378.7C615.6 381.5 617.5 384.4 619.1 387.5C619.7 388.6 620.1 389.5 620.4 390L620.7 390.7C620.7 390.8 620.8 390.8 620.8 390.9C620.7 390.8 620.7 390.8 620.7 390.7C620.6 390.5 620.5 390.3 620.4 390.1C620.1 389.5 619.7 388.7 619.1 387.6C617.4 384.6 615.6 381.7 613.5 378.9C599.8 360.4 578.4 349.1 555.3 348.2C551.9 348.1 548.4 348.2 545 348.5C543.8 348.6 542.8 348.8 542.2 348.8L541.5 348.9C541.2 348.9 541.1 348.9 541 348.9Z" fill="#263238"/>
<path d="M649.3 441.6H604.5L596.6 383.5L657.6 383L649.3 441.6Z" fill="#263238"/>
<path d="M557.3 348.3C541.7 354.6 520.2 358.4 503.8 353.8C520.7 346.8 539.3 344.9 557.3 348.3Z" fill="#D7282F"/>
<path d="M660.7 383H593.4V391.8H660.7V383Z" fill="#263238"/>
<path d="M660.8 391.9C660.8 392 645.6 392.2 627 392.2C608.4 392.2 593.2 392.1 593.2 391.9C593.2 391.7 608.3 391.6 627 391.6C645.7 391.6 660.8 391.7 660.8 391.9Z" fill="#455A64"/>
<path d="M653.1 406C653.1 406 652.6 405.4 651.4 404.6C649.8 403.4 647.9 402.6 645.9 402.3C643 401.8 640 402 637.1 403C633.7 404.2 630.4 405.9 627.4 407.9C624.4 410 621.2 411.9 617.9 413.6C615.2 415 612.3 415.8 609.2 416.1C607.2 416.3 605.1 416 603.2 415.4C602.7 415.2 602.2 415 601.7 414.8C601.5 414.7 601.4 414.6 601.2 414.5C601.2 414.5 601.9 414.8 603.3 415.2C605.2 415.8 607.2 415.9 609.2 415.7C612.2 415.4 615 414.5 617.7 413.1C620.9 411.4 624.1 409.5 627.1 407.4C630.2 405.3 633.5 403.7 637 402.5C639.9 401.5 643 401.3 646 401.9C648 402.3 649.9 403.2 651.5 404.4C651.8 404.6 652 404.8 652.2 405C652.4 405.2 652.5 405.3 652.7 405.5C653 405.9 653.1 406 653.1 406Z" fill="white"/>
<path d="M651.6 412.1C651.6 412.2 650.9 411.8 649.6 411.4C648.8 411.2 648 411 647.2 411C646.1 410.9 645 411 644 411.2C641.2 411.7 638.6 412.7 636.2 414.2C633.5 415.8 630.7 418 627.5 420C624.5 421.9 621.2 423.1 617.7 423.7C614.9 424.2 612 424.2 609.2 423.7C607.3 423.4 605.4 422.8 603.7 422.1C603.2 421.9 602.7 421.7 602.3 421.4C602.1 421.3 602 421.2 601.8 421.1C601.8 421.1 602.5 421.4 603.8 421.9C605.6 422.6 607.4 423.1 609.3 423.3C615.6 424.3 622 422.9 627.3 419.5C630.4 417.6 633.2 415.4 636 413.8C638.4 412.3 641.2 411.3 644 410.8C645.1 410.6 646.2 410.6 647.3 410.7C648.1 410.8 648.9 411 649.7 411.2C650.2 411.4 650.7 411.6 651.1 411.8C651.3 411.9 651.5 412 651.6 412.1Z" fill="white"/>
<path d="M696.4 441.6C696.4 441.7 541.7 441.9 350.8 441.9C159.9 441.9 5.3 441.8 5.3 441.6C5.3 441.4 160 441.3 350.9 441.3C541.8 441.3 696.4 441.5 696.4 441.6Z" fill="#263238"/>
<path d="M67.4 408.9L66 430.3C66 430.3 87.3 437.4 87.5 441.4L45.8 441.7L46.6 408.2L67.4 408.9Z" fill="#D7282F"/>
<g opacity="0.6">
<path d="M53.1 428.1C52.3 428.3 51.7 429.1 51.8 430C52 430.8 52.8 431.4 53.7 431.2C54.6 431 55.1 430.1 55 429.2C54.7 428.3 53.8 427.9 52.9 428.1" fill="white"/>
</g>
<g opacity="0.6">
<path d="M45.7 441.7L45.8 438.3L86.1 439.4C87 439.8 87.5 440.7 87.7 441.7H45.7Z" fill="white"/>
</g>
<path d="M66.6 430.1C66.6 430.3 65.6 430.4 64.6 431C63.6 431.6 63 432.5 62.8 432.4C62.6 432.3 63 431.1 64.2 430.4C65.5 429.6 66.7 429.9 66.6 430.1Z" fill="#263238"/>
<path d="M70.9 432C70.9 432.2 70.1 432.5 69.3 433.4C68.5 434.3 68.4 435.2 68.1 435.1C67.8 435 67.8 433.9 68.7 432.9C69.6 431.9 70.9 431.9 70.9 432Z" fill="#263238"/>
<path d="M73.3 437.3C73.1 437.3 72.9 436.3 73.4 435.2C73.9 434.1 74.9 433.7 75 433.8C75.1 433.9 74.5 434.6 74 435.5C73.5 436.4 73.5 437.3 73.3 437.3Z" fill="#263238"/>
<path d="M66.4 425.2C66.3 425.4 65.4 425.1 64.2 425.1C63 425.1 62.1 425.5 62 425.3C61.9 425.1 62.8 424.4 64.1 424.4C65.6 424.4 66.5 425 66.4 425.2Z" fill="#263238"/>
<g opacity="0.3">
<path d="M66.3 424.201L66.1 428.201L46 427.4L46.1 424L66.3 424.201Z" fill="black"/>
</g>
<path d="M66.6 420.9C65.9 421.1 65.2 421 64.5 420.8C63.8 420.6 63 420.4 62.3 420.1C61.9 419.9 61.5 419.7 61.1 419.4C60.9 419.3 60.7 419.1 60.5 418.9C60.2 418.6 60.2 418.1 60.4 417.8C60.6 417.5 61 417.4 61.3 417.4C61.6 417.4 61.8 417.5 62.1 417.5C62.5 417.6 63 417.8 63.4 418C64.1 418.3 64.7 418.8 65.3 419.3C66.2 420.2 66.6 421 66.5 421C66.4 421 65.9 420.4 65 419.6C64.4 419.2 63.8 418.8 63.2 418.5C62.8 418.3 62.4 418.2 62 418.1C61.6 418 61.2 418 61.1 418.1C61 418.2 61.1 418.2 61.1 418.3C61.2 418.4 61.4 418.6 61.6 418.7C61.9 418.9 62.3 419.2 62.7 419.4C63.3 419.7 64 420 64.7 420.2C65.3 420.4 66 420.6 66.6 420.9Z" fill="#263238"/>
<path d="M66.3 421.1C65.9 420.5 65.8 419.8 65.8 419.1C65.8 418.3 65.9 417.601 66.1 416.801C66.2 416.401 66.4 415.9 66.7 415.5C67 415 67.5 414.6 68.1 414.5C68.5 414.5 68.8 414.8 69 415.1C69.1 415.3 69.2 415.6 69.2 415.9C69.3 416.4 69.3 416.801 69.2 417.301C69 418.101 68.7 418.8 68.2 419.4C67.4 420.4 66.5 420.7 66.5 420.6C66.5 420.5 67.2 420.1 67.8 419.1C68.2 418.5 68.4 417.8 68.5 417.1C68.6 416.7 68.6 416.3 68.5 415.9C68.4 415.4 68.3 415.1 68.1 415.1C67.9 415.1 67.5 415.401 67.3 415.801C67.1 416.201 66.9 416.5 66.7 416.9C66.4 417.6 66.3 418.3 66.2 419C66.3 420.3 66.5 421.1 66.3 421.1Z" fill="#263238"/>
<path d="M111.6 410L107.9 431.2C107.9 431.2 128.4 440.6 128 444.6L86.5 440.4L91 407.2L111.6 410Z" fill="#D7282F"/>
<g opacity="0.6">
<path d="M95.3 427.601C94.4 427.701 93.8 428.501 93.9 429.401C94 430.301 94.8 430.901 95.6 430.801C96.5 430.701 97.2 429.801 97.1 428.901C96.9 428.001 96 427.401 95.1 427.601" fill="white"/>
</g>
<g opacity="0.6">
<path d="M86.5 440.3L86.9 436.9L126.8 442.4C127.6 442.9 128.1 443.8 128.1 444.8L86.5 440.3Z" fill="white"/>
</g>
<path d="M108.5 431.1C108.5 431.3 107.4 431.2 106.4 431.8C105.4 432.4 104.7 433.1 104.5 433C104.3 432.9 104.8 431.8 106.1 431.2C107.4 430.6 108.6 430.9 108.5 431.1Z" fill="#263238"/>
<path d="M112.6 433.5C112.6 433.7 111.7 433.9 110.9 434.7C110.1 435.5 109.8 436.3 109.6 436.3C109.4 436.3 109.4 435.1 110.5 434.2C111.6 433.3 112.7 433.3 112.6 433.5Z" fill="#263238"/>
<path d="M114.4 439C114.2 439 114.1 438 114.7 436.9C115.3 435.8 116.4 435.6 116.4 435.7C116.4 435.8 115.8 436.4 115.3 437.2C114.8 438 114.6 439 114.4 439Z" fill="#263238"/>
<path d="M108.8 426.2C108.7 426.4 107.8 426 106.7 425.9C105.6 425.8 104.6 426 104.5 425.9C104.4 425.8 105.4 425.1 106.7 425.2C108 425.3 109 426 108.8 426.2Z" fill="#263238"/>
<g opacity="0.3">
<path d="M109.4 422L108.4 427.9L88.5 424.9L89 421.4L109.4 422Z" fill="black"/>
</g>
<path d="M109.5 421.9C108.8 422 108.1 421.9 107.4 421.6C106.7 421.4 106 421 105.3 420.6C104.9 420.4 104.5 420.1 104.2 419.8C104 419.6 103.8 419.4 103.6 419.2C103.4 418.9 103.4 418.4 103.6 418.1C103.9 417.8 104.2 417.7 104.6 417.8C104.9 417.8 105.1 417.9 105.4 418C105.8 418.2 106.2 418.4 106.6 418.6C107.3 419 107.8 419.5 108.3 420.1C109.1 421.1 109.4 421.9 109.3 422C109.2 422.1 108.8 421.4 107.9 420.5C107.4 420 106.8 419.6 106.2 419.2C105.8 419 105.5 418.8 105.1 418.7C104.7 418.5 104.3 418.5 104.2 418.7C104.1 418.9 104.1 418.8 104.2 418.9C104.3 419.1 104.4 419.2 104.6 419.3C104.9 419.6 105.3 419.8 105.6 420.1C106.2 420.5 106.8 420.8 107.5 421.1C108.3 421.3 108.9 421.5 109.5 421.9Z" fill="#263238"/>
<path d="M109.2 422.1C108.9 421.5 108.8 420.7 108.9 420C109 419.2 109.2 418.5 109.5 417.8C109.7 417.4 109.9 417 110.2 416.6C110.5 416.1 111.1 415.7 111.7 415.7C112.1 415.8 112.4 416 112.5 416.4C112.6 416.7 112.6 416.9 112.6 417.2C112.6 417.7 112.5 418.1 112.4 418.6C112.2 419.4 111.8 420 111.2 420.6C110.2 421.6 109.4 421.7 109.4 421.6C109.4 421.5 110.1 421.2 110.9 420.3C111.3 419.8 111.7 419.1 111.8 418.4C111.9 418 111.9 417.6 111.9 417.2C111.9 416.8 111.8 416.4 111.6 416.4C111.4 416.4 111 416.7 110.8 417C110.5 417.3 110.3 417.6 110.1 418C109.8 418.6 109.5 419.3 109.4 420C109.2 421.3 109.3 422.1 109.2 422.1Z" fill="#263238"/>
<path d="M112.6 422.8L127.9 327.8L93.6 325.7L87.6 422.8H112.6Z" fill="#263238"/>
<path d="M80.3 227.2L38.9 232.5L39.3 242.7L43.1 423.9L69.4 424.2L82 270L80.3 227.2Z" fill="#263238"/>
<path d="M101.3 223.1L127.9 327.8L95 333.8L80.7 284.2L68.8 228.9L101.3 223.1Z" fill="#263238"/>
<path d="M70.4 234.7C70.4 235 70.4 235.5 70.4 236.1C70.4 237.4 70.3 239.2 70.2 241.6C70 246.4 69.6 253.4 69.1 261.9C68.1 279.1 66.5 302.8 64.7 329C63.8 342.1 63.1 354.6 62.5 365.9C62.3 368.7 62.2 371.5 62 374.2C61.8 376.9 61.6 379.5 61.4 382C61 387 60.6 391.7 60.3 396C59.6 404.6 59.1 411.5 58.8 416.3C58.6 418.7 58.5 420.6 58.5 421.8C58.5 422.4 58.5 422.9 58.5 423.2C58.5 423.3 58.5 423.4 58.5 423.6C58.5 423.7 58.6 423.6 58.6 423.6H58.5C58.5 423.6 58.5 423.4 58.4 423.2C58.4 422.9 58.4 422.4 58.4 421.8C58.4 420.5 58.5 418.7 58.6 416.3C58.9 411.5 59.3 404.6 60 396C60.3 391.7 60.7 387 61.1 382C61.3 379.5 61.5 376.9 61.7 374.2C61.9 371.5 62 368.7 62.1 365.9C62.7 354.5 63.4 342.1 64.3 329C66 302.8 67.7 279.1 68.8 261.9C69.3 253.3 69.7 246.4 70 241.6C70.1 239.2 70.2 237.4 70.3 236.1C70.3 235.5 70.4 235 70.4 234.7Z" fill="#455A64"/>
<path d="M84.8 239.9C85 239.9 83.8 254.3 82.2 272.1C80.6 289.9 79.2 304.3 79 304.3C78.8 304.3 80 289.9 81.6 272.1C83.2 254.3 84.7 239.9 84.8 239.9Z" fill="#455A64"/>
<path d="M98.2 347C98.1 347 94 333 89.2 315.7C84.4 298.4 80.6 284.3 80.7 284.2C80.8 284.1 84.9 298.2 89.7 315.5C94.5 332.8 98.3 346.9 98.2 347Z" fill="#455A64"/>
<path d="M58.3 233.6C58.4 233.9 58.5 234.3 58.5 234.6C58.6 235.5 58.6 236.4 58.5 237.3C58.3 238.6 57.9 239.9 57.2 241.1C56.4 242.5 55.2 243.8 53.8 244.7C52.4 245.6 50.8 246.1 49.1 246.2C47.8 246.3 46.4 246.2 45.1 245.8C44.2 245.5 43.4 245.1 42.7 244.7C42.4 244.5 42.2 244.3 41.9 244.1C42.9 244.7 44.1 245.2 45.2 245.5C50.6 247.1 56.2 244 57.8 238.6C57.9 238.2 58 237.8 58.1 237.4C58.3 236 58.4 234.8 58.3 233.6Z" fill="#455A64"/>
<path d="M103.8 236.5C103.2 236.6 102.6 236.6 102 236.4C100.5 236.1 99.2 235.4 98 234.4C96.8 233.4 95.9 232.2 95.3 230.8C95 230.2 94.9 229.6 94.8 229C95.1 229.5 95.4 230.1 95.6 230.6C97 233.2 99.3 235.1 102.1 236C102.7 236.1 103.3 236.3 103.8 236.5Z" fill="#455A64"/>
<path d="M104.8 423.9C104.8 423.9 104.8 423.7 104.9 423.4C105 423.1 105 422.6 105.1 422C105.3 420.7 105.6 418.9 106 416.6C106.8 411.9 108.1 405.1 109.5 396.7L121.4 331.2L121.5 330.6V330.7C117.6 309 112.5 287.6 106.2 266.4C103.8 258.3 101.7 251.8 100.2 247.3L98.5 242.1C98.3 241.5 98.2 241.1 98.1 240.8C98 240.6 98 240.5 98 240.3C98 240.3 98.1 240.4 98.2 240.7L98.6 242.1C99 243.3 99.6 245 100.4 247.2C102 251.7 104.1 258.2 106.6 266.2C113 287.3 118.1 308.8 122 330.5V330.6C122 330.8 121.9 331 121.9 331.2C117.2 356.7 113 379.9 109.9 396.6C108.3 405 107.1 411.7 106.2 416.4C105.8 418.7 105.4 420.5 105.2 421.8C105.1 422.4 105 422.9 104.9 423.2C104.8 423.5 104.8 423.9 104.8 423.9Z" fill="#455A64"/>
<path d="M93.7 128.5C98 131.1 100.8 135.6 101.1 140.6C101.3 145.1 102.4 161.1 102.4 161.1L113.9 150.3L125.6 169.3C125.6 169.3 108.6 192.701 106.9 193.9C105.2 195.1 98.1 198.1 95 196.6C91.9 195.1 93.7 128.5 93.7 128.5Z" fill="#D7282F"/>
<path d="M56.2 112.8L52.7 121.8L31.9 134.9L42.4 200.9C42.4 200.9 33.9 215.3 34.1 225.8C34.1 228.3 38.9 232.5 38.9 232.5C38.9 232.5 61.8 234.1 79 232.4C95.6 230.7 101.6 224.7 101.6 224.7L104.7 218.2L101.9 209.8L97.7 142.9C97.7 142.9 96.2 131.6 93.6 128.5L86.2 122.9L82.2 115.8L56.2 112.8Z" fill="#D7282F"/>
<path d="M86.3 122.9C86.3 123.2 86.3 123.5 86.3 123.8C86.3 124.4 86.3 125.2 86.3 126.2C86.3 128.4 86.2 131.4 86.2 135V135.5L85.9 135.1L80.4 129.3L80.8 129.2C80.5 131.7 80.1 134.5 79.7 137.3L79.6 137.7L79.3 137.5L78.1 136.8C71.1 132.6 64.8 128.8 60.2 125.9L54.8 122.6L53.4 121.7C53.2 121.6 53.1 121.5 52.9 121.3C53.1 121.4 53.3 121.5 53.4 121.6L54.9 122.5L60.4 125.7L78.4 136.4L79.6 137.1L79.2 137.3C79.6 134.5 79.9 131.7 80.3 129.2L80.4 128.7L80.7 129.1L86.1 134.9L85.7 135C85.8 131.4 85.9 128.4 86 126.2C86 125.2 86.1 124.4 86.1 123.8C86.2 123.5 86.2 123.2 86.3 122.9Z" fill="#263238"/>
<g opacity="0.3">
<path d="M36.2 214.7C40 215.7 43.9 216.3 47.9 216.6C51.7 216.9 55.5 216.1 58.9 214.3C61.2 212.8 63.4 211.1 65.3 209.2C70.8 204.4 77.1 200.6 83.3 196.8L93.3 190.6C94.2 190.1 95 189.5 95.6 188.7C96.4 187.8 96.4 186.4 95.5 185.6C94.9 185.1 94.1 184.9 93.4 185.1C92.5 185.3 91.7 185.7 90.9 186.2L80 192.6C66.6 200.5 52.8 208.6 37.4 211L36.2 214.7Z" fill="black"/>
</g>
<path d="M50.4 182.3C50.5 182.1 50.6 181.9 50.8 181.7L52.8 180.2C53.1 180 53.3 179.6 53.3 179.1L52.7 169.5V169.4C52.7 168.3 53.1 147.2 50.7 140.3C48.4 133.6 42.8 130.6 32.3 134.4C31.3 135 30.4 135.8 29.5 136.5C27.5 139.8 26.4 143.6 26.3 147.5L25.7 170.1C25.7 170.1 23.7 191 23.4 193.9C22.7 201 25.3 212.4 31.3 213.2C34 213.6 51.5 209.8 55 208.8C56 208.1 56.9 207.1 57.4 205.9L59.5 184.3C59.6 183.3 58.8 182.3 57.8 182.2H57.7L50.4 182.3Z" fill="#D7282F"/>
<path d="M52.3 149.5C52.2 149.5 51.6 148.4 50.4 146.7C47.2 142.3 42.9 138.8 38.1 136.5C36.2 135.6 35 135.2 35 135.1C35.3 135.1 35.6 135.2 35.9 135.3C36.7 135.5 37.5 135.8 38.2 136.1C40.7 137.2 43.1 138.6 45.2 140.4C47.3 142.1 49.2 144.2 50.7 146.5C51.2 147.2 51.6 147.9 52 148.6C52.2 149.1 52.3 149.4 52.3 149.5Z" fill="#263238"/>
<path d="M53.4 151.7C53.5 152.1 53.5 152.6 53.5 153L53.7 156.5C53.8 159.5 53.9 163.6 54 168.1L54.1 174.5C54.3 176.3 53.9 178.1 53.1 179.7C52.5 180.7 51.6 181.6 50.6 182.2C50.2 182.5 49.8 182.6 49.4 182.7C49.4 182.7 49.8 182.5 50.5 182C51.4 181.3 52.2 180.5 52.8 179.5C53.5 177.9 53.8 176.2 53.6 174.5L53.5 168.1C53.4 163.6 53.4 159.5 53.3 156.5V153C53.2 152.6 53.3 152.1 53.4 151.7Z" fill="#263238"/>
<path d="M31.2 213.5C31.4 213.4 31.6 213.4 31.8 213.4L33.6 213.1C35.1 212.9 37.4 212.6 40.1 212.2C42.9 211.7 46.1 211.1 49.7 210.3L52.4 209.6C53.3 209.4 54.3 209.1 55.2 208.8C56.1 208.4 56.8 207.7 57.1 206.8C57.4 205.8 57.5 204.8 57.5 203.7C57.9 199.5 58.3 195.4 58.7 191.8L59.2 186.6C59.3 185.8 59.3 185.1 59.3 184.3C59.2 183.6 58.7 183.1 58.1 182.9C57.5 182.8 56.8 182.8 56.2 182.9L54.4 183L51.6 183.1L49.8 183.2C49.6 183.2 49.4 183.2 49.2 183.2C49.4 183.1 49.6 183.1 49.8 183.1L51.6 182.9L54.4 182.7L56.2 182.6C56.9 182.5 57.5 182.5 58.2 182.6C58.6 182.7 58.9 182.9 59.2 183.2C59.5 183.5 59.7 183.9 59.7 184.3C59.8 185.1 59.8 185.9 59.6 186.7C59.5 188.3 59.3 190.1 59.1 191.9C58.8 195.6 58.4 199.6 58 203.8C58 204.9 57.8 205.9 57.5 207C57.3 207.5 57.1 208 56.7 208.4C56.3 208.8 55.9 209.1 55.4 209.3C54.5 209.7 53.5 210 52.5 210.2L49.7 210.9C46.1 211.7 42.8 212.3 40.1 212.7C37.4 213.1 35.1 213.3 33.5 213.5C32.7 213.6 32.1 213.6 31.7 213.6C31.6 213.5 31.4 213.5 31.2 213.5Z" fill="#263238"/>
<path d="M41.8 192.6C41.8 192 41.9 191.4 42.1 190.8C42.5 189.4 43.2 188 44.1 186.8C45 185.6 46.1 184.6 47.4 183.8C47.9 183.4 48.5 183.2 49.1 183.1C47.3 184.1 45.7 185.5 44.4 187.1C42.4 189.9 41.9 192.7 41.8 192.6Z" fill="#263238"/>
<path d="M37.7 187.6C38 187 38.4 186.5 38.9 186C40 184.9 41.4 184 42.9 183.4C44.4 182.8 46 182.5 47.6 182.5C48.3 182.5 49 182.6 49.6 182.8C48.9 182.9 48.3 182.9 47.6 182.9C44.5 183.1 41.5 184.3 39.1 186.3C38.6 186.7 38.2 187.2 37.7 187.6Z" fill="#263238"/>
<path d="M86 215.6C86.3 215.6 86.5 215.6 86.8 215.6C87.3 215.6 88.1 215.6 89.1 215.5C90.3 215.4 91.5 215.3 92.7 215.1C94.2 214.8 95.7 214.2 97 213.4C98.6 212.3 99.7 210.7 100.1 208.8C100.5 206.6 100.6 204.4 100.4 202.2C100.3 197.5 100.2 192.4 100.1 187C99.9 176.2 99.8 166.5 99.7 159.4C99.7 155.9 99.7 153 99.6 151V148.7C99.6 148.4 99.6 148.2 99.6 147.9C99.6 148.2 99.7 148.4 99.7 148.7C99.7 149.3 99.7 150 99.8 151C99.8 153 99.9 155.9 100 159.4C100.1 166.5 100.3 176.3 100.5 187C100.6 192.4 100.7 197.5 100.7 202.2C100.9 204.4 100.7 206.7 100.3 208.9C99.8 210.8 98.7 212.5 97 213.7C95.6 214.6 94.1 215.1 92.5 215.4C91.3 215.6 90.1 215.7 88.9 215.8C87.9 215.8 87.1 215.8 86.6 215.8C86.5 215.7 86.3 215.7 86 215.6Z" fill="#263238"/>
<path d="M97.3 218.5C96.8 218.7 96.2 218.9 95.7 219.1C94.6 219.4 93.1 219.9 91.2 220.3C81.1 222.7 70.7 223.3 60.4 222.1C58.4 221.9 56.8 221.6 55.7 221.4C55.1 221.3 54.6 221.2 54 221C54.6 221 55.1 221.101 55.7 221.201C56.8 221.301 58.4 221.501 60.4 221.701C70.7 222.701 81 222.1 91.1 219.9C93 219.5 94.6 219.1 95.7 218.9C96.2 218.8 96.7 218.6 97.3 218.5Z" fill="#263238"/>
<path d="M84 213.8C84 213.5 84 213.201 84 212.9C84 212.3 84.1 211.5 84.1 210.5C84.2 208.3 84.3 205.3 84.5 201.5C84.8 193.9 85.2 183.4 84.8 171.8C84.4 160.2 83.5 149.701 82.5 142.201C82 138.401 81.6 135.4 81.2 133.3C81 132.3 80.9 131.5 80.8 130.9C80.7 130.3 80.7 130 80.7 130C80.8 130.3 80.9 130.5 80.9 130.8C81 131.4 81.2 132.201 81.4 133.201C81.8 135.301 82.3 138.3 82.8 142.1C84.2 151.9 85 161.8 85.2 171.8C85.5 183.4 85.1 193.9 84.7 201.6C84.5 205.4 84.3 208.5 84.1 210.6C84 211.6 83.9 212.4 83.9 213C84.1 213.2 84 213.5 84 213.8Z" fill="#263238"/>
<path d="M52.8 162.2C52.8 162.2 52.4 162 51.7 161.7C50.7 161.3 49.6 161.1 48.6 161.2C47 161.3 45.4 161.6 43.9 162.1C43 162.4 42.1 162.6 41.1 162.8C36.4 163.8 31.6 162.3 28.2 159C27.4 158.2 26.8 157.4 26.2 156.4C26 156.1 25.8 155.7 25.7 155.3C26.5 156.5 27.5 157.6 28.5 158.7C31.1 161.1 34.5 162.5 38.1 162.6C40 162.6 42 162.2 43.8 161.6C45.3 161.1 47 160.8 48.6 160.8C49.7 160.8 50.8 161 51.8 161.5C52.3 161.7 52.6 161.9 52.8 162.2Z" fill="white"/>
<path d="M44.6 183.3C44.2 183.5 43.9 183.7 43.6 184C42.8 184.8 42.3 185.8 42.1 186.9C41.9 187.6 41.8 188.4 41.7 189.2C41.5 190.1 41.3 191 41 191.8C39 197.4 34.4 201.7 28.7 203.4C27.6 203.7 26.5 203.9 25.3 204C24.9 204 24.5 204 24 204C25.5 203.8 27 203.5 28.5 203.1C34.1 201.4 38.5 197.2 40.5 191.7C40.8 190.9 41.1 190 41.2 189.1C41.4 188.3 41.5 187.5 41.7 186.8C41.9 185.6 42.5 184.6 43.4 183.8C43.6 183.6 43.9 183.5 44.2 183.4C44.4 183.3 44.5 183.3 44.6 183.3Z" fill="white"/>
<path d="M56.7 204.4C56.7 204.4 56.4 204.3 55.9 204C55.2 203.5 54.7 202.9 54.2 202.2C52.6 200 51.8 197.3 51.9 194.5C52 191.8 52.6 189.1 53.6 186.6C54 185.7 54.3 184.9 54.6 184.4C54.7 184.1 54.8 183.9 55 183.6C54.7 184.7 54.4 185.7 54 186.7C53.1 189.2 52.6 191.8 52.5 194.4C52.4 197 53.2 199.6 54.6 201.8C55.2 202.8 55.9 203.6 56.7 204.4Z" fill="white"/>
<path d="M59.5 126.5C59.6 126.8 59.6 127.1 59.6 127.4C59.6 128.2 59.5 129 59.4 129.7C58.4 134.9 54.5 139.2 49.4 140.6C48.6 140.8 47.9 141 47.1 141.1C46.8 141.2 46.5 141.2 46.2 141.1C46.2 141 47.4 140.9 49.2 140.3C54.1 138.6 57.7 134.6 58.9 129.6C59.5 127.7 59.4 126.5 59.5 126.5Z" fill="white"/>
<path d="M61.5 117.7C60.3 118.2 59.2 118.9 58.2 119.6C57.3 120.5 56.5 121.5 55.7 122.5C56 121.2 56.7 120 57.8 119.2C58.9 118.3 60.2 117.8 61.5 117.7Z" fill="white"/>
<path d="M75.4 126.1C75.9 127.3 75.9 128.6 75.4 129.9C75.1 131.2 74.4 132.3 73.3 133C73.9 132 74.5 130.9 74.9 129.7C75.2 128.6 75.4 127.4 75.4 126.1Z" fill="white"/>
<path d="M85.6 128.3C85 127.4 84.5 126.4 84 125.4C83.4 124.5 82.8 123.5 82.3 122.6C83.2 123.3 83.9 124.1 84.4 125.2C85.1 126.1 85.5 127.2 85.6 128.3Z" fill="white"/>
<path d="M83.3 153.5C83.3 153.5 82.8 153.6 82 153.8C80.8 154.2 79.8 154.9 78.9 155.7C77.6 157 76.4 158.4 75.5 160C74.3 162 72.8 163.7 71.1 165.2C67.8 167.8 63.6 169 59.4 168.7C58.1 168.6 56.9 168.3 55.7 167.9C55.3 167.8 54.8 167.6 54.4 167.3C56 167.8 57.7 168.1 59.4 168.2C61.2 168.3 63.1 168.1 64.8 167.6C67 167 69 166 70.7 164.6C72.4 163.2 73.9 161.5 75.1 159.6C76.1 158 77.3 156.6 78.7 155.3C79.6 154.5 80.8 153.8 82 153.5C82.3 153.4 82.7 153.4 83 153.3C83.1 153.4 83.3 153.5 83.3 153.5Z" fill="white"/>
<path d="M99.6 159.3C99.2 159.9 98.6 160.5 98 160.9C96.5 162 94.8 162.7 93 163.1C91.2 163.5 89.3 163.4 87.5 163C86.8 162.9 86 162.6 85.4 162.2C85.4 162.1 86.2 162.4 87.6 162.7C91.1 163.3 94.8 162.6 97.8 160.6C99 159.9 99.6 159.3 99.6 159.3Z" fill="white"/>
<path d="M100.8 138.1C99.1 136.1 97.1 134.3 94.9 133C92.6 131.8 90 131 87.4 130.6C88.2 130.5 89 130.5 89.7 130.7C91.6 131 93.4 131.6 95.1 132.6C96.8 133.5 98.3 134.8 99.5 136.2C100.1 136.7 100.5 137.4 100.8 138.1Z" fill="white"/>
<path d="M83.1 204.9C82.9 205 82.8 205.1 82.6 205.1C82.1 205.3 81.6 205.5 81.2 205.7C79.5 206.6 78 207.8 76.8 209.3C75.1 211.1 73.4 213.4 71.2 215.8C70 217.1 68.7 218.2 67.3 219.1C66.9 219.3 66.5 219.6 66.1 219.7L64.8 220.2C63.9 220.5 63 220.6 62 220.7C58.2 220.8 54.8 219.5 51.8 218.4C49.2 217.3 46.5 216.5 43.7 216C41.8 215.7 39.9 215.8 38.1 216.4C36.8 216.8 36.2 217.3 36.2 217.2C36.3 217.1 36.5 217 36.6 216.9C37 216.6 37.5 216.4 38 216.2C39.8 215.5 41.8 215.3 43.7 215.6C46.5 216 49.3 216.8 52 217.9C55 219 58.4 220.3 62 220.2C62.9 220.2 63.8 220 64.7 219.7L65.9 219.2C66.3 219 66.7 218.8 67.1 218.6C68.5 217.7 69.9 216.7 71 215.4C73.2 213.1 74.9 210.7 76.7 209C78 207.6 79.6 206.4 81.3 205.5C81.8 205.3 82.3 205.1 82.8 204.9C82.7 204.9 82.9 204.9 83.1 204.9Z" fill="white"/>
<path d="M100 209.501C99.4 208.701 98.8 207.901 98.3 207.101C97 205.101 95.5 203.401 93.8 201.801C92.1 200.301 90 199.201 87.7 198.701C86.7 198.601 85.8 198.501 84.8 198.501C85 198.401 85.3 198.301 85.6 198.301C86.3 198.201 87.1 198.201 87.8 198.401C90.2 198.801 92.4 199.901 94.2 201.501C96 203.101 97.5 205.001 98.7 207.001C99.2 207.701 99.7 208.601 100 209.501Z" fill="white"/>
<path d="M81.8 221.1C81.8 221.1 81.8 221.4 81.8 221.8C81.7 222.5 81.6 223.1 81.4 223.7C81.1 224.6 80.7 225.5 80.2 226.4C79.6 227.4 78.8 228.4 78 229.3C77.1 230.2 76.2 230.9 75.2 231.6C74.4 232.1 73.5 232.5 72.5 232.9C71.9 233.1 71.2 233.3 70.6 233.4C70.4 233.4 70.1 233.4 69.9 233.4C69.9 233.3 70.9 233.1 72.4 232.5C73.3 232.2 74.1 231.7 75 231.2C76 230.6 76.9 229.8 77.7 229C78.5 228.2 79.2 227.2 79.9 226.2C80.4 225.4 80.8 224.5 81.2 223.6C81.5 222.1 81.7 221.1 81.8 221.1Z" fill="white"/>
<path d="M117.6 180.7C117.5 180.7 117.1 179.7 116 178.2C113.2 174.3 108.8 172 104 171.8C102.2 171.7 101.1 171.9 101.1 171.8C101.3 171.7 101.6 171.6 101.9 171.6C102.6 171.5 103.3 171.4 104.1 171.4C109 171.4 113.6 173.9 116.4 178C116.8 178.6 117.1 179.3 117.5 179.9C117.5 180.2 117.6 180.4 117.6 180.7Z" fill="white"/>
<path d="M160.8 127.1C160.6 126.3 159.2 126.1 159.2 126.1L159.5 125.7C159.9 125.1 160 124.4 159.8 123.7C159.8 123.6 159.7 123.5 159.7 123.4C159.3 122.8 158.8 122.4 158.1 122.1C158.1 122.1 159.2 120.7 159 120C158.5 118.8 157.3 117.9 155.9 117.9C153.6 118.3 151.3 118.8 149.1 119.5C148.3 119.7 147.5 119.3 147.3 118.5C147.3 118.4 147.3 118.3 147.2 118.3C146.9 116.1 146.3 114 145.4 112C144.3 109.9 142.8 109.7 142 109.9C141.6 110 141.4 110.3 141.4 110.7V110.8C141.9 112.2 142.4 113.7 142.7 115.2C142.9 116.3 141.6 124.2 141.6 124.2L139.7 128.2L133.7 135L114.6 151.7L124.6 167.9L142.1 145.9L143.3 144.4L147.4 139.9L150 137.4L158.9 134.1C158.9 134.1 160.7 132.1 160.5 131.4C160.4 130.9 160.1 130.5 159.7 130.2L160.9 128.8C161 128.2 161 127.6 160.8 127.1Z" fill="#FFBE9D"/>
<path d="M158.8 122.2C158.7 122.2 158.7 122.3 158.6 122.3L158 122.6L156 123.6L153 125C152.4 125.3 151.9 125.6 151.2 125.8C150.5 126.1 149.7 126 149.1 125.6C148.8 125.4 148.6 125 148.5 124.7C148.4 124.3 148.4 124 148.5 123.6C148.7 122.9 149.1 122.4 149.7 122C150.2 121.7 150.7 121.4 151.3 121.1L152.7 120.4L154.7 119.4L155.3 119.1L155.5 119C155.4 119 155.4 119.1 155.3 119.1L154.8 119.4L152.8 120.5L151.4 121.3C150.9 121.6 150.4 121.9 149.9 122.2C149.4 122.6 149 123.1 148.8 123.7C148.6 124.3 148.8 125.1 149.3 125.5C149.6 125.7 149.9 125.8 150.2 125.8C150.5 125.8 150.9 125.7 151.2 125.6C151.8 125.4 152.4 125.1 153 124.8L156 123.4L158.1 122.5L158.7 122.3L158.8 122.2Z" fill="#EB996E"/>
<path d="M159.3 126.4L158.1 126.9C157.1 127.3 155.7 127.8 154 128.4C153.6 128.5 153.2 128.7 152.8 128.8C152.4 128.9 152.1 128.9 151.7 128.8C151.1 128.6 150.7 128.1 150.6 127.5C150.5 127.1 150.6 126.7 150.9 126.3C151 126.2 151.1 126.1 151.2 125.9L151.1 126C151 126.1 150.9 126.2 150.8 126.3C150.5 126.7 150.4 127.1 150.4 127.6C150.5 128.3 151 128.9 151.6 129.1C152 129.2 152.4 129.2 152.8 129.1C153.2 129 153.6 128.9 154 128.7C155.6 128.2 157 127.6 158 127.2L159.3 126.4C159.6 126.3 159.7 126.2 159.7 126.2C159.6 126.3 159.5 126.4 159.3 126.4Z" fill="#EB996E"/>
<path d="M159.6 130.2L158.4 130.4C157.4 130.6 156 130.9 154.5 131.3C154.1 131.4 153.8 131.5 153.4 131.5C153.1 131.6 152.7 131.5 152.4 131.4C152.1 131.3 151.9 131.1 151.8 130.8C151.7 130.6 151.7 130.3 151.8 130C152 129.6 152.2 129.3 152.6 129.1C152.7 129 152.9 129 153 128.9C152.9 128.9 152.7 129 152.6 129.1C152.2 129.3 151.9 129.6 151.8 130C151.7 130.3 151.7 130.6 151.7 130.9C151.8 131.2 152.1 131.5 152.4 131.6C152.7 131.8 153.1 131.8 153.5 131.7C153.9 131.6 154.3 131.6 154.6 131.5C156.1 131.1 157.5 130.8 158.5 130.6L159.6 130.2C159.7 130.2 159.9 130.2 160 130.1C159.9 130.1 159.7 130.1 159.6 130.2Z" fill="#EB996E"/>
<path d="M158.6 133.5C157.8 133.5 156.7 133.5 155.4 133.4H154.5C154.2 133.4 154 133.4 153.7 133.3C153.5 133.3 153.3 133.1 153.1 132.9C153 132.7 152.9 132.5 153 132.3C153.1 132 153.3 131.8 153.5 131.6C153.7 131.5 153.8 131.5 153.8 131.5C153.7 131.5 153.6 131.5 153.4 131.6C153.1 131.7 152.8 132 152.8 132.3C152.7 132.5 152.8 132.8 152.9 133C153.1 133.2 153.3 133.4 153.6 133.4C153.9 133.5 154.2 133.5 154.5 133.5H158.6C159 133.5 159.5 133.5 159.9 133.4C159.5 133.5 159 133.4 158.6 133.5Z" fill="#EB996E"/>
<path d="M149.6 129.5C150.3 129.7 151.1 129.9 151.8 130.2C151.2 129.7 150.4 129.4 149.7 129.3C148.9 129.1 148.1 129.2 147.4 129.5C148.1 129.4 148.8 129.4 149.6 129.5Z" fill="#EB996E"/>
<path d="M55.5 78.0005L56.9 113.801L80.4 129.101L82.3 116.301V112.101C82.3 112.101 92.5 111.001 93.1 100.901C93.4 96.0005 93.2 85.8005 92.9 76.7005C92.6 66.5005 84.2 58.5005 74 58.6005C63.6 58.7005 55.3 67.1005 55.5 77.5005C55.5 77.6005 55.5 77.8005 55.5 78.0005Z" fill="#FFBE9D"/>
<path d="M82.3 112.1C77.6 112 73.1 110.5 69.3 107.7C69.3 107.7 72.1 115.1 82.2 114.7L82.3 112.1Z" fill="#EB996E"/>
<path d="M89.6 83.9003C89.6 84.7003 88.9 85.3003 88.1 85.3003C87.3 85.3003 86.7 84.7003 86.7 84.0003C86.7 83.2003 87.4 82.6003 88.2 82.6003C88.9 82.5003 89.5 83.1003 89.6 83.9003C89.6 83.8003 89.5 83.8003 89.6 83.9003Z" fill="#263238"/>
<path d="M90.5 81.8005C90.3 82.0005 89.3 81.1005 87.7 81.0005C86.1 80.9005 85 81.7005 84.8 81.4005C84.6 81.1005 84.9 81.0005 85.4 80.6005C86.1 80.2005 86.9 80.0005 87.7 80.0005C88.5 80.0005 89.3 80.3005 89.9 80.8005C90.4 81.4005 90.5 81.7005 90.5 81.8005Z" fill="#263238"/>
<path d="M74.8 83.9006C74.8 84.7006 74.1 85.3005 73.3 85.3005C72.5 85.3005 71.9 84.7006 71.9 84.0006C71.9 83.2006 72.6 82.6006 73.4 82.6006C74.2 82.4006 74.8 83.0006 74.8 83.9006C74.8 83.8006 74.8 83.8006 74.8 83.9006Z" fill="#263238"/>
<path d="M75.2 81.4001C75 81.6001 73.9 80.7001 72.4 80.6001C70.9 80.5001 69.7 81.3001 69.5 81.0001C69.3 80.7001 69.6 80.6001 70.1 80.2001C70.8 79.8001 71.6 79.6001 72.4 79.6001C73.2 79.6001 74 79.9001 74.6 80.4001C75.1 80.9001 75.3 81.3001 75.2 81.4001Z" fill="#263238"/>
<path d="M80.3 93.1001C81.1 92.9001 82 92.8001 82.9 92.8001C83.3 92.8001 83.7 92.7001 83.7 92.4001C83.8 92.0001 83.7 91.6001 83.5 91.2001C83.2 90.2001 82.8 89.2001 82.5 88.1001C81.1 83.7001 80.1 80.1001 80.2 80.1001C80.3 80.1001 81.7 83.5001 83.1 87.9001L84.1 91.0001C84.3 91.5001 84.4 92.0001 84.2 92.6001C84.1 92.9001 83.8 93.1001 83.5 93.2001C83.3 93.2001 83 93.3001 82.8 93.3001C82 93.3001 81.1 93.3001 80.3 93.1001Z" fill="#263238"/>
<path d="M75.7 94.0005C76 94.0005 75.9 95.7005 77.3 96.9005C78.7 98.1005 80.5 98.1005 80.5 98.3005C80.5 98.5005 80.1 98.6005 79.3 98.6005C78.3 98.6005 77.4 98.2005 76.6 97.5005C75.9 96.9005 75.5 96.0005 75.4 95.0005C75.3 94.4005 75.5 94.0005 75.7 94.0005Z" fill="#263238"/>
<path d="M75.8 75.3003C75.6 75.7003 74.1 75.4003 72.2 75.6003C70.3 75.8003 68.9 76.2003 68.6 75.8003C68.5 75.6003 68.8 75.2003 69.4 74.9003C71.1 74.0003 73 73.8003 74.8 74.6003C75.6 74.7003 76 75.1003 75.8 75.3003Z" fill="#263238"/>
<path d="M90.1 77.3002C89.8 77.6002 88.8 77.2002 87.5 77.1002C86.2 77.0002 85.1 77.2002 84.9 76.8002C84.8 76.6002 85 76.3002 85.5 76.0002C86.8 75.2002 88.5 75.4002 89.7 76.3002C90.1 76.7002 90.2 77.1002 90.1 77.3002Z" fill="#263238"/>
<path d="M94 65.5003C96.1 63.9003 97.1 61.1003 96.4 58.5003C95.7 55.9003 93.6 54.0003 91.1 53.3003C88.5 52.7003 85.8 53.2003 83.7 54.8003C83.6 53.6003 82.8 52.5003 81.6 52.2003C80.4 51.9003 79.2 52.1003 78.1 52.7003C76.1 53.6003 74.6 55.2003 73.6 57.1003C71.9 54.4003 68.4 53.6003 65.8 55.3003C64.8 55.9003 64.1 56.8003 63.6 57.8003C63.3 58.6003 63 59.3003 62.7 60.0003C62.2 60.7003 61.3 61.2003 60.4 61.1003C59 61.2003 57.7 61.8003 56.6 62.6003C54.2 64.3003 52.8 67.1003 52.7 70.0003C52.8 77.3003 55 81.0003 55.3 88.0003C55.3 88.5003 55.4 88.9003 55.6 89.3003C56.3 90.3003 57.8 89.8003 58.8 89.0003C61 87.1003 62.1 84.2003 62.7 81.4003C63.3 78.6003 63.3 75.6003 63.9 72.7003V72.5003C64.1 71.3003 64.6 70.2003 65.3 69.2003C66.1 69.8003 67 70.3003 67.9 70.8003C71.4 72.3003 75.4 71.4003 77.8 68.5003C80.1 70.3003 83 71.2003 85.9 71.2003C88.8 71.1003 91.7 70.5003 93.8 68.6003C94.4 68.1003 94.8 67.5003 95 66.8003C95.1 66.3003 94.5 65.7003 94 65.5003Z" fill="#263238"/>
<path d="M58.7 82.9004C58.5 82.8004 51.9 80.5004 51.7 87.4004C51.5 94.3004 58.6 93.0004 58.6 92.8004C58.6 92.6004 58.7 82.9004 58.7 82.9004Z" fill="#FFBE9D"/>
<path d="M56.5 90.2002C56.5 90.2002 56.4 90.3002 56.2 90.4002C55.9 90.5002 55.6 90.5002 55.3 90.4002C54.4 89.8002 53.9 88.8002 54 87.7002C54 87.1002 54.1 86.5002 54.4 86.0002C54.5 85.6002 54.9 85.2002 55.3 85.1002C55.6 85.0002 55.9 85.2002 56 85.4002C56.1 85.6002 56 85.7002 56.1 85.7002C56.2 85.7002 56.3 85.6002 56.2 85.3002C56.2 85.1002 56.1 85.0002 55.9 84.9002C55.7 84.8002 55.5 84.7002 55.2 84.7002C54.6 84.8002 54.1 85.2002 53.9 85.7002C53.6 86.3002 53.5 87.0002 53.5 87.6002C53.4 88.9002 54.1 90.0002 55.2 90.6002C55.6 90.7002 56 90.6002 56.3 90.4002C56.5 90.3002 56.5 90.2002 56.5 90.2002Z" fill="#EB996E"/>
<path d="M53.2 76.4004C53.8 76.1004 54.4 75.8004 55 75.5004C56.5 74.7004 57.8 73.7004 58.9 72.5004C60 71.3004 60.9 69.9004 61.5 68.3004C61.7 67.6004 61.9 67.0004 62.2 66.4004C62.2 67.1004 62.1 67.8004 61.8 68.5004C60.7 71.8004 58.3 74.5004 55.2 75.9004C54.5 76.2004 53.9 76.4004 53.2 76.4004Z" fill="#455A64"/>
<path d="M64.4 68.9005C64.4 69.7005 64.2 70.4005 63.8 71.1005C62.4 74.6005 59.5 77.3005 55.9 78.5005C55.2 78.8005 54.4 78.9005 53.6 78.9005C53.6 78.8005 54.4 78.7005 55.7 78.2005C59.1 76.9005 61.8 74.3005 63.4 71.0005C64.1 69.6005 64.3 68.8005 64.4 68.9005Z" fill="#455A64"/>
<path d="M88.4 65.2002C88.3 65.2002 87.9 64.8002 87.1 64.2002C86 63.5002 84.8 63.1002 83.5 63.2002C82.2 63.3002 81 63.8002 80 64.6002C79.2 65.2002 78.9 65.8002 78.8 65.7002C78.7 65.6002 79 65.0002 79.7 64.3002C80.7 63.3002 82 62.7002 83.4 62.7002C84.8 62.6002 86.2 63.1002 87.3 63.9002C88.1 64.5002 88.4 65.1002 88.4 65.2002Z" fill="#455A64"/>
<path d="M92.8 54.4004C91.9 54.2004 91 54.2004 90.1 54.3004C89.1 54.5004 88.1 54.9004 87.3 55.6004C86.3 56.4004 85.6 57.6004 85.3 58.9004L85.2 59.3004L84.9 59.0004C84 58.0004 82.9 57.3004 81.6 57.1004C80.2 56.8004 78.7 57.1004 77.5 57.9004C76.1 58.8004 75.1 60.3004 74.9 61.9004L74.8 62.4004L74.5 62.0004C73.3 60.7004 71.7 59.9004 70 59.9004C68.6 59.8004 67.2 60.2004 66.1 61.0004C65.4 61.5004 64.7 62.2004 64.2 63.0004C64.1 63.3004 63.9 63.6004 63.7 63.8004C63.8 63.5004 63.9 63.2004 64.1 62.9004C65.3 60.7004 67.5 59.4004 70 59.4004C71.9 59.5004 73.6 60.3004 74.9 61.7004L74.5 61.8004C74.8 60.0004 75.8 58.4004 77.3 57.4004C78.6 56.5004 80.2 56.3004 81.8 56.6004C83.2 56.9004 84.4 57.6004 85.3 58.7004L84.9 58.8004C85.2 57.4004 86 56.2004 87.1 55.3004C88 54.6004 89 54.2004 90.1 54.1004C90.8 54.0004 91.5 54.0004 92.2 54.2004C92.4 54.1004 92.6 54.2004 92.8 54.4004Z" fill="#455A64"/>
<path d="M121.4 155.5L114.5 158.7L111.3 162C111.3 162 118.8 161.1 119 162.4C119.2 163.7 119.2 165.1 118.7 165.5C118.2 166 117.8 166.5 117.5 167.1C117.5 167.1 119.3 169.1 118.6 170.1C118.2 170.8 117.8 171.5 117.5 172.2L116.4 172.1C116.4 172.1 116.5 176 115.7 176.5C115.2 176.9 114.6 177.2 113.9 177.3C112.8 177.5 110.5 177.6 110.5 177.6L109.3 177.5C109.3 177.5 102.8 185.6 100.5 185.4C98.2 185.2 93.9 185.1 93.9 185.1L57.7 206.1L59.4 187.3L59.6 183.9L95.1 171.1L107.7 157.1L113.6 154.2L122.2 152.3C122.8 153.4 122.4 154.7 121.4 155.5Z" fill="#FFBE9D"/>
<path d="M94 185.1C94.1 185.1 94.2 185.1 94.3 185.1H95.3L99 185.2H100.3C100.7 185.2 101.2 185.1 101.6 184.9C102.5 184.4 103.3 183.7 104.1 183C105.9 181.2 107.7 179.3 109.2 177.3L109.3 177.2H109.4L110.6 177.3C111.4 177.3 112.1 177.2 112.9 177.1C113.3 177.1 113.7 177 114.1 176.9C114.5 176.9 114.9 176.7 115.2 176.5L115.7 176.1C115.8 176 115.9 175.8 115.9 175.7C116 175.3 116.1 174.9 116.2 174.5C116.3 173.6 116.3 172.7 116.3 171.9V171.6H116.6L117.7 171.7L117.4 171.9C117.6 171.5 117.8 171 118 170.6C118.2 170.2 118.6 169.7 118.6 169.4C118.6 169 118.5 168.5 118.2 168.1C118 167.7 117.7 167.3 117.4 166.9L117.3 166.8L117.4 166.7C117.7 166.2 118 165.8 118.3 165.4C118.4 165.3 118.5 165.2 118.6 165.1C118.7 165 118.7 165 118.8 164.9C118.9 164.7 118.9 164.4 119 164.2C119 163.7 119 163.2 118.9 162.6L118.8 162.2C118.8 162.1 118.8 162.1 118.7 162.1C118.5 162 118.3 161.9 118 161.9C115.8 161.7 113.5 161.8 111.3 162.1L110.6 162.2L111.1 161.7L111.2 161.6L114.3 158.4L121.2 155.2H121.1C122 154.5 122.4 153.3 122 152.2L122.3 152.3L113.7 154.2H113.8L107.9 157.1H108L98.7 167.3L96.1 170.1L95.4 170.8C95.2 171 95.2 171 95.1 171C95 171 95.2 170.9 95.3 170.7L95.9 169.9C96.5 169.2 97.3 168.3 98.4 167C100.6 164.5 103.7 161 107.6 156.6L113.5 153.7H113.6L122.2 151.8L122.4 151.7L122.5 151.9C122.7 152.5 122.7 153.2 122.6 153.8C122.4 154.4 122 155 121.5 155.4L114.6 158.6L114.7 158.5C113.7 159.6 112.6 160.6 111.6 161.7L111.5 161.8L111.3 161.4C112.5 161.3 113.6 161.2 114.7 161.1C115.8 161 117 161.1 118.1 161.2C118.4 161.2 118.7 161.3 119 161.5C119.2 161.6 119.3 161.8 119.3 162L119.4 162.4C119.5 163 119.5 163.5 119.4 164.1C119.4 164.4 119.3 164.7 119.2 165C119.1 165.2 119 165.3 118.9 165.4C118.8 165.5 118.7 165.6 118.6 165.7C118.3 166.1 118 166.5 117.7 166.9V166.6C118 167 118.3 167.4 118.6 167.9C118.9 168.4 119 168.9 119 169.4C119 169.7 118.8 169.9 118.7 170.2C118.6 170.4 118.5 170.6 118.3 170.8C118.1 171.2 117.9 171.6 117.7 172L117.6 172.2H117.4L116.3 172.1L116.6 171.9C116.6 172.8 116.6 173.7 116.5 174.6C116.5 175 116.4 175.5 116.2 175.9C116.1 176.2 116 176.4 115.8 176.5L115.3 176.8C114.9 177 114.5 177.2 114 177.2C113.6 177.3 113.2 177.3 112.8 177.4C112 177.5 111.2 177.5 110.5 177.6L109.3 177.5L109.5 177.4C107.9 179.4 106.1 181.3 104.3 183.1C103.5 183.8 102.7 184.5 101.7 185C101.5 185.1 101.2 185.2 101 185.3C100.8 185.3 100.5 185.3 100.3 185.3L99 185.2L95.3 185L94.3 184.9L94 185.1Z" fill="#EB996E"/>
<path d="M117.6 166.9C117.2 166.8 116.8 166.6 116.5 166.4C115.6 166.1 114.6 166 113.7 166.1C112.7 166.2 111.8 166.5 110.8 166.8C110.1 167 109.6 167.1 109.6 167.1C109.6 167.1 110 166.8 110.7 166.5C111.6 166.1 112.6 165.8 113.6 165.7C114.6 165.6 115.7 165.7 116.6 166.1C117.3 166.4 117.6 166.9 117.6 166.9Z" fill="#EB996E"/>
<path d="M116.5 172.2C116.5 171.8 116.3 171.5 116 171.3C115.2 171 114.2 170.9 113.4 171C112.1 171.2 110.8 171.6 109.6 172.1C110.6 171.1 111.9 170.6 113.4 170.5C113.9 170.4 114.5 170.4 115 170.5C115.5 170.5 115.9 170.7 116.3 170.9C116.6 171.1 116.7 171.4 116.7 171.8C116.6 172.2 116.5 172.2 116.5 172.2Z" fill="#EB996E"/>
<path d="M113.1 175.1C113.1 175.2 112.8 175.3 112.2 175.4C111.5 175.4 110.9 175.5 110.2 175.7C109.6 175.8 109.2 176.4 109.1 177C109.1 177.5 109.4 177.7 109.3 177.8C109.2 177.9 108.9 177.7 108.7 177.1C108.6 176.7 108.7 176.4 108.9 176C109.1 175.7 109.5 175.4 109.9 175.2C110.6 175 111.3 175 112 175.1C112.7 175 113 175 113.1 175.1Z" fill="#EB996E"/>
<g opacity="0.3">
<path d="M90.8 215.3C77.9 217.4 64.5 216.7 51.7 214.5C50.5 214.3 49 214.2 48.5 215.3C48.2 216.1 48.4 216.9 49 217.5C49.6 218 50.4 218.3 51.1 218.5C56.7 220 62.5 219.9 68.3 219.7C79 219.3 89.6 217.2 99.7 213.6L90.8 215.3Z" fill="black"/>
</g>
<g opacity="0.3">
<path d="M49.1 182.501C44 180.901 38.3 182.101 34.3 185.701C33.8 186.201 33.3 186.801 33.5 187.401C33.7 187.901 34.1 188.201 34.6 188.201C35.1 188.201 35.6 188.101 36 187.901C38.2 186.901 40.4 185.701 42.4 184.401C44.5 183.101 46.9 182.401 49.4 182.601" fill="black"/>
</g>
</g>
<defs>
<clipPath id="clip0_599_6198">
<rect width="713.8" height="444.8" fill="white" transform="translate(0.600006 0.100098)"/>
</clipPath>
</defs>
</svg>
