<svg width="340" height="339" viewBox="0 0 340 339" fill="none" xmlns="http://www.w3.org/2000/svg">
<g clip-path="url(#clip0_4236_2434)">
<path d="M301.478 231.161H178.932C176.741 231.161 174.958 229.378 174.958 227.187V48.6868C174.958 46.4955 176.741 44.7124 178.932 44.7124H301.478C303.67 44.7124 305.453 46.4949 305.453 48.6868V227.186C305.453 229.378 303.67 231.161 301.478 231.161ZM178.932 44.8826C176.834 44.8826 175.128 46.5898 175.128 48.6875V227.187C175.128 229.285 176.835 230.992 178.932 230.992H301.478C303.577 230.992 305.283 229.284 305.283 227.187V48.6868C305.283 46.5891 303.576 44.8819 301.478 44.8819L178.932 44.8826Z" fill="#E0E0E0"/>
<path d="M160.164 231.161H37.618C35.4267 231.161 33.6436 229.378 33.6436 227.187V48.6868C33.6436 46.4955 35.426 44.7124 37.618 44.7124H160.164C162.356 44.7124 164.139 46.4949 164.139 48.6868V227.186C164.139 229.378 162.356 231.161 160.164 231.161ZM37.618 44.8826C35.5203 44.8826 33.8131 46.5898 33.8131 48.6875V227.187C33.8131 229.285 35.5203 230.992 37.618 230.992H160.164C162.263 230.992 163.969 229.284 163.969 227.187V48.6868C163.969 46.5891 162.262 44.8819 160.164 44.8819L37.618 44.8826Z" fill="#E0E0E0"/>
<path d="M339.5 272.566H0.5V272.736H339.5V272.566Z" fill="#E0E0E0"/>
<path d="M103.404 73.0672C102.397 74.6009 101.719 76.285 101.359 78.0227L98.5918 78.2831V83.642L101.359 83.903C101.719 85.64 102.397 87.3242 103.404 88.8585L101.637 90.9935L105.426 94.7829L107.56 93.0153C109.094 94.0222 110.779 94.6995 112.516 95.0602L112.776 97.8278H118.135L118.396 95.0609C120.134 94.7002 121.818 94.0228 123.352 93.016L125.487 94.7836L129.276 90.9942L127.509 88.8592C128.515 87.3256 129.193 85.6414 129.553 83.9037L132.32 83.6427L132.321 78.2837L129.554 78.0227C129.193 76.2857 128.516 74.6015 127.509 73.0679L129.277 70.9329L125.487 67.1435L123.353 68.9111C121.819 67.9042 120.135 67.2262 118.398 66.8656L118.137 64.0986H112.778L112.517 66.8656C110.78 67.2262 109.095 67.9036 107.562 68.9104L105.427 67.1429L101.638 70.9322L103.404 73.0672ZM120.585 75.8328C123.418 78.6655 123.418 83.2589 120.585 86.0923C117.752 88.9256 113.159 88.925 110.326 86.0923C107.493 83.2589 107.493 78.6661 110.326 75.8328C113.159 73.0001 117.752 72.9994 120.585 75.8328Z" fill="#EBEBEB"/>
<path d="M59.1676 144.619L25.7828 148.788C21.7426 149.293 18.6706 145.234 20.2544 141.483L33.3358 110.487L46.4178 79.4898C48.0009 75.7384 53.052 75.1079 55.5091 78.3548L75.8118 105.183L96.1145 132.01C98.5716 135.257 96.5925 139.946 92.5523 140.451L59.1676 144.619Z" fill="#E0E0E0"/>
<path d="M58.5544 139.706L27.4247 143.594C26.0504 143.765 25.0063 142.385 25.5446 141.11L37.7432 112.207L49.7885 83.6648C50.3947 82.2288 52.3283 81.9867 53.2687 83.2302L71.9639 107.933L90.9676 133.044C91.771 134.106 91.1242 135.639 89.8027 135.804L58.5544 139.706Z" fill="#F5F5F5"/>
<path d="M49.6982 104.521L57.1935 103.584L58.2444 122.157L53.2476 122.781L49.6982 104.521ZM54.1147 131.859C53.2862 131.24 52.8096 130.42 52.6821 129.399C52.5547 128.378 52.8109 127.479 53.451 126.704C54.0903 125.928 54.9751 125.47 56.1033 125.329C57.2315 125.188 58.201 125.415 59.0119 126.01C59.8228 126.604 60.292 127.412 60.4188 128.432C60.5462 129.454 60.2852 130.366 59.6357 131.169C58.9855 131.974 58.1102 132.446 57.0091 132.583C55.9074 132.72 54.9426 132.479 54.1147 131.859Z" fill="#E0E0E0"/>
<path d="M29.3633 196.106C29.3633 209.944 39.8947 221.162 52.8865 221.162H57.5098V171.05H52.8865C39.8953 171.05 29.3633 182.268 29.3633 196.106Z" fill="#E0E0E0"/>
<path d="M57.5093 221.162C71.3474 221.162 82.5655 209.944 82.5655 196.106C82.5655 182.268 71.3474 171.05 57.5093 171.05C43.6712 171.05 32.4531 182.268 32.4531 196.106C32.4531 209.944 43.6712 221.162 57.5093 221.162Z" fill="#F5F5F5"/>
<path d="M57.5099 216.167C68.5891 216.167 77.5705 207.185 77.5705 196.106C77.5705 185.027 68.5891 176.045 57.5099 176.045C46.4307 176.045 37.4492 185.027 37.4492 196.106C37.4492 207.185 46.4307 216.167 57.5099 216.167Z" fill="#F0F0F0"/>
<path d="M43.9602 180.845C52.3938 173.368 65.2921 174.143 72.7691 182.578C80.246 191.011 79.4704 203.91 71.0361 211.387C77.8785 203.66 77.8751 192.041 71.0286 184.319C63.5516 175.885 50.6534 175.11 42.2197 182.586C42.7648 181.971 43.3459 181.389 43.9602 180.845Z" fill="#E0E0E0"/>
<path d="M66.2305 197.231C65.5172 196.508 64.4717 196.051 63.0947 195.861C63.8419 195.551 64.4941 195.05 64.987 194.408C65.5972 193.553 65.8657 192.5 65.7389 191.457C65.6379 190.187 64.987 189.024 63.9571 188.274C62.9008 187.482 61.4709 187.177 59.6674 187.358L58.5575 187.469L58.2429 184.324L56.1432 184.534L56.4578 187.678L53.8542 187.939L53.5397 184.794L51.4426 185.004L51.7572 188.148L47.1963 188.604L47.5753 192.396L49.2154 192.232L50.328 203.367L48.6879 203.531L49.0669 207.323L53.6278 206.868L53.9424 210.012L56.0394 209.803L55.7255 206.658L58.329 206.398L58.643 209.542L60.7427 209.332L60.4281 206.188L60.6946 206.161C61.5584 206.034 62.4154 205.863 63.2615 205.647C64.2283 205.423 64.9402 205.146 65.3972 204.815C66.1227 204.3 66.6983 203.602 67.0644 202.792C67.4373 201.95 67.5763 201.022 67.4685 200.107C67.3566 198.915 66.9444 197.957 66.2305 197.231ZM55.053 191.649L57.6077 191.394C58.485 191.306 59.1148 191.398 59.4979 191.669C59.8912 191.957 60.1332 192.407 60.1563 192.894C60.239 193.397 60.0939 193.91 59.7603 194.294C59.4389 194.64 58.8267 194.858 57.9229 194.948L55.4082 195.2L55.053 191.649ZM61.1461 201.53C60.7732 201.924 60.0885 202.171 59.0932 202.271L56.1439 202.566L55.7635 198.762L58.6999 198.469C59.7149 198.367 60.4403 198.465 60.8763 198.76C61.3075 199.046 61.5814 199.515 61.6173 200.031C61.7007 200.576 61.5265 201.13 61.1461 201.53Z" fill="#E0E0E0"/>
<path d="M65.5289 197.301C64.8157 196.578 63.7702 196.121 62.3932 195.931C63.1403 195.62 63.7939 195.119 64.2875 194.477C64.8963 193.622 65.1635 192.57 65.0374 191.527C64.9363 190.256 64.2855 189.093 63.2556 188.343C62.1992 187.552 60.7693 187.247 58.9659 187.427L57.856 187.538L57.5421 184.394L55.445 184.603L55.7596 187.748L53.1541 188.008L52.8395 184.863L50.7424 185.073L51.057 188.217L46.4961 188.673L46.8751 192.466L48.5152 192.302L49.6278 203.436L47.9877 203.6L48.3667 207.393L52.9276 206.937L53.2415 210.082L55.3386 209.872L55.024 206.728L57.6295 206.467L57.9441 209.612L60.0412 209.402L59.7266 206.258L59.993 206.231C60.8568 206.104 61.7138 205.933 62.5599 205.717C63.5254 205.493 64.2373 205.216 64.6956 204.885C65.4218 204.371 65.9974 203.672 66.3628 202.862C66.7357 202.02 66.8754 201.092 66.7669 200.177C66.6551 198.985 66.2422 198.027 65.5289 197.301ZM54.3507 191.719L56.9054 191.464C57.7828 191.376 58.4126 191.468 58.7957 191.739C59.1889 192.027 59.431 192.477 59.454 192.964C59.5367 193.467 59.3917 193.98 59.0581 194.364C58.7353 194.71 58.1231 194.928 57.2207 195.018L54.706 195.27L54.3507 191.719ZM60.4446 201.6C60.0717 201.994 59.3869 202.241 58.3916 202.341L55.4423 202.636L55.0619 198.832L57.9984 198.538C59.012 198.437 59.7374 198.534 60.1747 198.83C60.6066 199.114 60.8805 199.584 60.9158 200.1C60.9985 200.647 60.8249 201.2 60.4446 201.6Z" fill="white"/>
<path d="M183.586 76.4864C180.519 89.7413 188.121 102.821 200.565 105.7L204.994 106.724L216.099 58.7241L211.671 57.6997C199.227 54.8202 186.652 63.2315 183.586 76.4864Z" fill="#E0E0E0"/>
<path d="M211.644 107.344C225.236 106.736 235.761 95.2247 235.153 81.6331C234.545 68.0415 223.033 57.5163 209.442 58.1244C195.85 58.7326 185.325 70.2438 185.933 83.8354C186.541 97.427 198.053 107.952 211.644 107.344Z" fill="#F5F5F5"/>
<path d="M224.491 96.6708C232.193 88.9685 232.193 76.4807 224.491 68.7785C216.789 61.0762 204.301 61.0762 196.598 68.7785C188.896 76.4807 188.896 88.9685 196.598 96.6708C204.301 104.373 216.789 104.373 224.491 96.6708Z" fill="#F0F0F0"/>
<path d="M200.951 65.1027C210.687 59.8095 222.87 63.4117 228.163 73.1471C233.455 82.8825 229.854 95.0655 220.118 100.358C228.385 94.4736 230.957 83.3436 226.11 74.4286C220.817 64.6932 208.635 61.0916 198.898 66.3841C199.556 65.9169 200.242 65.4884 200.951 65.1027Z" fill="#E0E0E0"/>
<path d="M218.65 85.7339C218.127 84.8824 217.227 84.2132 215.949 83.7264C216.734 83.5948 217.47 83.2592 218.084 82.7534C218.858 82.0693 219.348 81.1208 219.458 80.0937C219.642 78.8543 219.277 77.5959 218.457 76.6487C217.62 75.6568 216.318 75.0473 214.551 74.8202L213.463 74.6805L213.859 71.5983L211.801 71.3339L211.405 74.4161L208.854 74.0886L209.25 71.0064L207.195 70.7427L206.799 73.8249L202.33 73.2506L201.852 76.9674L203.46 77.1735L202.058 88.0852L200.451 87.8784L199.974 91.5952L204.443 92.1695L204.047 95.2517L206.102 95.5154L206.498 92.4332L209.049 92.7607L208.653 95.8429L210.711 96.1073L211.107 93.0251L211.368 93.0584C212.224 93.1282 213.082 93.154 213.94 93.1343C214.916 93.1343 215.66 93.0265 216.171 92.8109C216.98 92.4794 217.686 91.9383 218.217 91.2434C218.76 90.5186 219.099 89.6616 219.199 88.7605C219.356 87.5964 219.173 86.5869 218.65 85.7339ZM209.18 77.9091L211.683 78.2305C212.543 78.341 213.126 78.5681 213.433 78.9132C213.746 79.276 213.878 79.7614 213.792 80.2326C213.76 80.7323 213.507 81.1913 213.102 81.4863C212.718 81.7466 212.083 81.8198 211.197 81.7059L208.733 81.3893L209.18 77.9091ZM212.827 88.7246C212.382 89.0195 211.672 89.1049 210.696 88.9795L207.806 88.608L208.285 84.8803L211.162 85.2498C212.157 85.3773 212.83 85.6316 213.182 86.0112C213.532 86.3801 213.69 86.8906 213.611 87.393C213.57 87.934 213.281 88.4263 212.827 88.7246Z" fill="#E0E0E0"/>
<path d="M217.963 85.646C217.441 84.7945 216.54 84.126 215.263 83.6392C216.048 83.507 216.784 83.172 217.4 82.6669C218.173 81.9821 218.662 81.0336 218.772 80.0064C218.957 78.7671 218.591 77.5087 217.771 76.5615C216.934 75.5696 215.632 74.9601 213.865 74.733L212.777 74.5933L213.173 71.5111L211.118 71.2467L210.722 74.3289L208.168 74.0007L208.564 70.9185L206.509 70.6548L206.113 73.737L201.644 73.1627L201.167 76.8795L202.774 77.0863L201.372 87.998L199.764 87.7912L199.287 91.508L203.756 92.0823L203.361 95.1645L205.416 95.4282L205.812 92.346L208.366 92.6742L207.97 95.7564L210.025 96.0201L210.421 92.9379L210.682 92.9712C211.537 93.041 212.396 93.0668 213.254 93.0471C214.228 93.0471 214.971 92.9393 215.484 92.7237C216.293 92.3921 216.999 91.8511 217.529 91.1555C218.073 90.4307 218.412 89.5737 218.512 88.6726C218.668 87.5085 218.486 86.499 217.963 85.646ZM208.494 77.8212L210.997 78.1426C211.857 78.2531 212.44 78.4803 212.747 78.8254C213.059 79.1881 213.192 79.6735 213.105 80.1448C213.074 80.6444 212.821 81.1041 212.416 81.3984C212.03 81.658 211.396 81.7313 210.511 81.618L208.047 81.3014L208.494 77.8212ZM212.141 88.6367C211.696 88.9316 210.986 89.0171 210.01 88.8916L207.119 88.5201L207.598 84.7924L210.475 85.162C211.469 85.2894 212.142 85.5437 212.496 85.9233C212.846 86.2915 213.005 86.8027 212.924 87.3051C212.883 87.8462 212.594 88.3377 212.141 88.6367Z" fill="white"/>
<path d="M145.83 55.3999C147.372 65.0499 155.967 71.6997 165.027 70.2521L168.251 69.7369L162.667 34.79L159.443 35.3053C150.383 36.7535 144.288 45.7499 145.83 55.3999Z" fill="#E0E0E0"/>
<path d="M167.659 69.8198C177.356 68.6031 184.23 59.7562 183.014 50.0597C181.797 40.3632 172.95 33.4889 163.253 34.7056C153.557 35.9224 146.683 44.7693 147.899 54.4658C149.116 64.1623 157.963 71.0366 167.659 69.8198Z" fill="#F5F5F5"/>
<path d="M171.257 65.1859C178.396 61.9834 181.588 53.5998 178.385 46.4607C175.182 39.3217 166.799 36.1305 159.66 39.3331C152.521 42.5356 149.33 50.9192 152.532 58.0583C155.735 65.1973 164.118 68.3885 171.257 65.1859Z" fill="#F0F0F0"/>
<path d="M154.309 43.1306C159.357 36.9764 168.439 36.08 174.593 41.1284C180.747 46.1768 181.643 55.2579 176.595 61.4122C180.506 55.2613 179.209 47.1592 173.574 42.5366C167.42 37.4882 158.338 38.3846 153.29 44.5388C153.601 44.0492 153.941 43.5787 154.309 43.1306Z" fill="#E0E0E0"/>
<path d="M171.666 52.0771C171.088 51.652 170.308 51.45 169.326 51.471C169.812 51.1713 170.212 50.7489 170.484 50.2465C170.814 49.5821 170.884 48.818 170.679 48.1047C170.467 47.2301 169.884 46.4918 169.082 46.0829C168.258 45.649 167.226 45.5954 165.988 45.9222L165.227 46.1229L164.657 43.9648L163.217 44.3452L163.786 46.5033L162 46.9752L161.43 44.8171L159.991 45.1968L160.56 47.3548L157.431 48.1806L158.117 50.7835L159.243 50.4865L161.259 58.1276L160.134 58.4245L160.821 61.0274L163.95 60.2016L164.52 62.3597L165.959 61.98L165.39 59.8219L167.176 59.3507L167.746 61.5088L169.187 61.1284L168.617 58.9703L168.8 58.9222C169.389 58.7371 169.967 58.5222 170.532 58.2774C171.182 58.0137 171.648 57.7411 171.929 57.4591C172.378 57.0197 172.701 56.4685 172.867 55.8631C173.033 55.2339 173.027 54.5715 172.849 53.9457C172.639 53.1253 172.244 52.5029 171.666 52.0771ZM163.249 49.4295L165.002 48.9671C165.604 48.8085 166.053 48.8017 166.35 48.9481C166.657 49.1054 166.876 49.3922 166.946 49.7292C167.06 50.0702 167.016 50.4445 166.826 50.7496C166.641 51.0269 166.237 51.2466 165.617 51.4106L163.891 51.8663L163.249 49.4295ZM168.599 55.6407C168.383 55.9573 167.934 56.2061 167.25 56.3865L165.226 56.9207L164.537 54.3104L166.552 53.7789C167.249 53.5952 167.765 53.5823 168.102 53.7396C168.435 53.8908 168.678 54.1877 168.761 54.543C168.879 54.9139 168.82 55.3193 168.599 55.6407Z" fill="#E0E0E0"/>
<path d="M171.184 52.2036C170.606 51.7785 169.826 51.5764 168.845 51.5974C169.332 51.2971 169.731 50.8754 170.004 50.3723C170.334 49.7079 170.403 48.9438 170.198 48.2312C169.986 47.3566 169.403 46.6182 168.601 46.2094C167.776 45.7755 166.744 45.7219 165.507 46.0487L164.746 46.2494L164.176 44.0913L162.737 44.471L163.306 46.6291L161.518 47.101L160.949 44.9429L159.509 45.3226L160.079 47.4806L156.949 48.3064L157.636 50.9093L158.762 50.6123L160.778 58.2534L159.652 58.5503L160.339 61.1532L163.469 60.3274L164.038 62.4855L165.478 62.1058L164.908 59.9477L166.696 59.4758L167.266 61.6339L168.705 61.2542L168.136 59.0961L168.318 59.048C168.906 58.8636 169.485 58.648 170.051 58.4032C170.699 58.1395 171.165 57.8669 171.448 57.5849C171.896 57.1455 172.22 56.5943 172.385 55.9889C172.551 55.3597 172.545 54.6973 172.367 54.0715C172.157 53.2524 171.763 52.63 171.184 52.2036ZM162.767 49.556L164.52 49.0936C165.122 48.9349 165.571 48.9282 165.868 49.0746C166.175 49.2312 166.394 49.5187 166.464 49.8557C166.577 50.1967 166.533 50.571 166.344 50.8761C166.157 51.1534 165.754 51.3737 165.135 51.5371L163.409 51.9927L162.767 49.556ZM168.118 55.7678C167.902 56.0845 167.452 56.3333 166.769 56.5136L164.745 57.0479L164.056 54.4376L166.071 53.906C166.767 53.7223 167.283 53.7094 167.622 53.8667C167.955 54.0172 168.198 54.3142 168.28 54.6701C168.399 55.041 168.339 55.4465 168.118 55.7678Z" fill="white"/>
<path d="M308.087 91.7266H282.426V100.525H308.087V91.7266Z" fill="#F5F5F5"/>
<path d="M280.278 92.1379V110.744C280.278 111.261 280.697 111.681 281.214 111.681H308.598C309.115 111.681 309.534 111.262 309.534 110.744V93.9699C309.534 93.4532 309.115 93.0335 308.598 93.0335H291.944C291.607 93.0335 291.297 92.8525 291.13 92.5596L290.606 91.6375C290.471 91.4002 290.214 91.2524 289.936 91.2524H281.187C280.686 91.2518 280.278 91.6484 280.278 92.1379Z" fill="#E0E0E0"/>
<path d="M85.1459 242.093L83.9336 242.207V244.554L85.1452 244.668C85.3032 245.429 85.6001 246.167 86.0408 246.839L85.2665 247.774L86.9263 249.433L87.8612 248.659C88.5331 249.1 89.2708 249.397 90.0315 249.555L90.1454 250.766H92.4927L92.6066 249.555C93.3673 249.397 94.1049 249.1 94.7768 248.659L95.7118 249.433L97.3709 247.774L96.5973 246.839C97.038 246.167 97.3349 245.429 97.4929 244.668L98.7052 244.554V242.207L97.4929 242.093C97.3349 241.333 97.0387 240.595 96.5973 239.923L97.3709 238.988L95.7111 237.328L94.7762 238.102C94.1043 237.661 93.3666 237.364 92.6059 237.206L92.492 235.995H90.1447L90.0308 237.207C89.2701 237.365 88.5325 237.661 87.8606 238.103L86.9256 237.328L85.2659 238.988L86.0401 239.923C85.6008 240.595 85.3038 241.333 85.1459 242.093ZM93.5666 241.134C94.8074 242.375 94.8074 244.386 93.5666 245.627C92.3259 246.868 90.3143 246.868 89.0735 245.627C87.8328 244.386 87.8328 242.375 89.0735 241.134C90.3143 239.893 92.3259 239.893 93.5666 241.134Z" fill="#EBEBEB"/>
<path d="M83.8367 58.3463L82.4658 58.4751V61.1295L83.8367 61.2583C84.0151 62.1187 84.3507 62.9533 84.8497 63.7127L83.9744 64.7704L85.8511 66.6478L86.9088 65.7725C87.6688 66.2715 88.5027 66.6071 89.3631 66.7854L89.4919 68.1563H92.1463L92.2751 66.7854C93.1355 66.6064 93.9701 66.2708 94.7295 65.7725L95.7872 66.6478L97.6639 64.7704L96.7886 63.7134C97.2876 62.9533 97.6225 62.1187 97.8015 61.259L99.1724 61.1302V58.4758L97.8015 58.347C97.6232 57.4866 97.2876 56.652 96.7886 55.8926L97.6639 54.835L95.7872 52.9583L94.7302 53.8336C93.9708 53.3352 93.1362 52.9989 92.2758 52.8206L92.147 51.4497H89.4926L89.3638 52.8206C88.5034 52.9989 87.6688 53.3345 86.9088 53.8336L85.8511 52.9583L83.9737 54.8356L84.849 55.8933C84.3507 56.6513 84.0151 57.4859 83.8367 58.3463ZM93.3606 57.2615C94.7641 58.665 94.7641 60.9397 93.3606 62.3431C91.9571 63.7466 89.6818 63.7466 88.279 62.3431C86.8755 60.9397 86.8755 58.6643 88.279 57.2608C89.6818 55.8581 91.9571 55.8581 93.3606 57.2615Z" fill="#EBEBEB"/>
<path d="M254.434 58.3973C253.706 59.5045 253.217 60.7209 252.957 61.9758L250.959 62.1636V66.033L252.957 66.2215C253.217 67.4758 253.706 68.6921 254.434 69.7993L253.158 71.341L255.894 74.0774L257.435 72.8015C258.542 73.5283 259.759 74.0178 261.013 74.2781L261.202 76.2762H265.071L265.259 74.2781C266.514 74.0178 267.73 73.5283 268.837 72.8015L270.379 74.0774L273.115 71.341L271.839 69.7993C272.566 68.6921 273.055 67.4758 273.316 66.2215L275.314 66.033V62.1636L273.316 61.9751C273.056 60.7208 272.566 59.5045 271.839 58.3973L273.115 56.8556L270.379 54.1192L268.838 55.3952C267.73 54.6683 266.514 54.1788 265.26 53.9185L265.072 51.9204H261.202L261.014 53.9185C259.759 54.1788 258.543 54.6677 257.436 55.3952L255.894 54.1192L253.158 56.8556L254.434 58.3973ZM266.84 60.3941C268.886 62.4396 268.886 65.7564 266.84 67.8019C264.794 69.8474 261.477 69.8474 259.432 67.8019C257.386 65.7564 257.386 62.4396 259.432 60.3941C261.478 58.3485 264.795 58.3485 266.84 60.3941Z" fill="#F0F0F0"/>
<path d="M301.126 157.091C300.399 158.198 299.91 159.415 299.649 160.669L297.651 160.857V164.727L299.649 164.915C299.91 166.17 300.399 167.386 301.126 168.493L299.85 170.035L302.587 172.771L304.128 171.495C305.235 172.222 306.451 172.712 307.705 172.972L307.893 174.97H311.763L311.951 172.972C313.205 172.712 314.422 172.222 315.529 171.495L317.071 172.771L319.807 170.035L318.531 168.493C319.258 167.386 319.747 166.17 320.008 164.915L322.006 164.727V160.857L320.008 160.669C319.747 159.415 319.258 158.198 318.531 157.091L319.807 155.549L317.071 152.813L315.53 154.089C314.422 153.362 313.206 152.873 311.952 152.612L311.763 150.614H307.894L307.706 152.612C306.452 152.873 305.235 153.362 304.128 154.089L302.587 152.813L299.85 155.549L301.126 157.091ZM313.533 159.088C315.578 161.133 315.578 164.45 313.533 166.496C311.487 168.541 308.17 168.541 306.124 166.496C304.079 164.45 304.079 161.133 306.124 159.088C308.171 157.042 311.487 157.042 313.533 159.088Z" fill="#F5F5F5"/>
<path d="M315.319 304.181C315.319 306.478 251.916 308.339 173.702 308.339C95.4888 308.339 32.085 306.478 32.085 304.181C32.085 301.885 95.4888 300.024 173.702 300.024C251.916 300.024 315.319 301.885 315.319 304.181Z" fill="#F5F5F5"/>
<path d="M289.048 150.419C296.311 150.419 302.199 144.531 302.199 137.268C302.199 130.005 296.311 124.117 289.048 124.117C281.784 124.117 275.896 130.005 275.896 137.268C275.896 144.531 281.784 150.419 289.048 150.419Z" fill="#407BFF"/>
<path d="M287.07 147.381L284.24 149.241L285.758 153.233L288.851 150.388L287.07 147.381Z" fill="#407BFF"/>
<path d="M291.373 132.7L291.19 146.161H289.069L288.886 132.7H291.373ZM290.13 151.574C289.678 151.574 289.291 151.412 288.968 151.089C288.645 150.766 288.484 150.379 288.484 149.928C288.484 149.477 288.645 149.09 288.968 148.767C289.291 148.444 289.678 148.282 290.13 148.282C290.581 148.282 290.968 148.444 291.291 148.767C291.614 149.09 291.776 149.477 291.776 149.928C291.776 150.227 291.699 150.501 291.547 150.751C291.401 151.001 291.203 151.202 290.953 151.355C290.709 151.501 290.434 151.574 290.13 151.574Z" fill="white"/>
<path d="M296.656 124.506C300.481 126.418 303.213 130.362 303.66 134.614" stroke="#407BFF" stroke-width="0.5" stroke-miterlimit="10" stroke-linecap="round" stroke-linejoin="round"/>
<path d="M303.796 136.571C303.912 137.213 303.893 137.878 303.742 138.513" stroke="#407BFF" stroke-width="0.5" stroke-miterlimit="10" stroke-linecap="round" stroke-linejoin="round"/>
<path d="M195.749 269.232V271.958C195.749 272.298 195.473 272.567 195.133 272.567H118.18C115.335 272.567 113.395 269.693 114.457 267.059L138.843 206.663L178.25 206.932L176.905 214.769L168.213 265.488C167.929 267.123 169.19 268.623 170.853 268.623H195.133C195.472 268.623 195.749 268.893 195.749 269.232Z" fill="#263238"/>
<g opacity="0.6">
<path d="M195.749 269.232V271.958C195.749 272.298 195.473 272.567 195.133 272.567H118.18C115.335 272.567 113.395 269.693 114.457 267.059L129.577 229.619L138.843 206.663L178.25 206.932L176.905 214.769L173.125 236.826L168.213 265.488C167.929 267.123 169.19 268.623 170.853 268.623H195.133C195.472 268.623 195.749 268.893 195.749 269.232Z" fill="white"/>
</g>
<g opacity="0.4">
<path d="M170.853 268.623H120.784C119.531 268.623 118.681 267.349 119.162 266.193L140.541 214.769H176.905L168.213 265.488C167.929 267.123 169.189 268.623 170.853 268.623Z" fill="white"/>
</g>
<g opacity="0.2">
<path d="M178.25 206.932L176.905 214.769L173.125 236.826L129.576 229.619L138.842 206.663L178.25 206.932Z" fill="black"/>
</g>
<path d="M254.88 94.3457H251.013H76.3039H72.4373C69.8588 94.3457 67.7686 96.436 67.7686 99.0144V222.526C67.7686 225.104 69.8588 227.194 72.4373 227.194H76.3039H251.013H254.88C257.459 227.194 259.549 225.104 259.549 222.526V99.0144C259.549 96.436 257.459 94.3457 254.88 94.3457Z" fill="#263238"/>
<g opacity="0.8">
<path d="M254.88 94.3457H251.013H76.3039H72.4373C69.8588 94.3457 67.7686 96.436 67.7686 99.0144V222.526C67.7686 225.104 69.8588 227.194 72.4373 227.194H76.3039H251.013H254.88C257.459 227.194 259.549 225.104 259.549 222.526V99.0144C259.549 96.436 257.459 94.3457 254.88 94.3457Z" fill="white"/>
</g>
<g opacity="0.2">
<path d="M76.3021 227.192H72.4348C69.859 227.192 67.7715 225.103 67.7715 222.528V99.0171C67.7715 96.4339 69.8597 94.3457 72.4348 94.3457H76.3021C73.7264 94.3457 71.6381 96.4339 71.6381 99.0171V222.528C71.6388 225.103 73.727 227.192 76.3021 227.192Z" fill="black"/>
</g>
<path d="M255.345 98.3569H75.8486V217.457H255.345V98.3569Z" fill="#407BFF"/>
<g opacity="0.4">
<path d="M255.345 98.3569H75.8486V217.457H255.345V98.3569Z" fill="white"/>
</g>
<path d="M255.413 98.3569H75.7041V217.598H255.413V98.3569Z" fill="#407BFF"/>
<g opacity="0.5">
<path d="M255.413 98.3569H75.7041V217.598H255.413V98.3569Z" fill="white"/>
</g>
<path d="M255.415 98.3569H75.7041V109.922H255.415V98.3569Z" fill="#407BFF"/>
<g opacity="0.3">
<path d="M252.007 104.139C252.007 105.262 251.096 106.173 249.973 106.173C248.85 106.173 247.939 105.262 247.939 104.139C247.939 103.016 248.85 102.105 249.973 102.105C251.097 102.106 252.007 103.016 252.007 104.139Z" fill="white"/>
</g>
<g opacity="0.3">
<path d="M246.227 104.139C246.227 105.262 245.317 106.173 244.193 106.173C243.07 106.173 242.159 105.262 242.159 104.139C242.159 103.016 243.07 102.105 244.193 102.105C245.317 102.106 246.227 103.016 246.227 104.139Z" fill="white"/>
</g>
<g opacity="0.3">
<path d="M240.447 104.139C240.447 105.262 239.536 106.173 238.413 106.173C237.289 106.173 236.379 105.262 236.379 104.139C236.379 103.016 237.289 102.105 238.413 102.105C239.536 102.105 240.447 103.016 240.447 104.139Z" fill="white"/>
</g>
<g opacity="0.1">
<path d="M255.413 109.921H252.863V217.575H255.413V109.921Z" fill="black"/>
</g>
<path d="M255.413 109.921H252.863V134.327H255.413V109.921Z" fill="white"/>
<path d="M240.052 122.279H220.773V128.889H240.052V122.279Z" fill="white"/>
<path d="M219.16 122.588V136.566C219.16 136.955 219.475 137.27 219.863 137.27H240.437C240.826 137.27 241.14 136.955 241.14 136.566V123.964C241.14 123.575 240.826 123.261 240.437 123.261H227.925C227.672 123.261 227.438 123.124 227.313 122.905L226.92 122.212C226.819 122.034 226.626 121.922 226.416 121.922H219.844C219.466 121.923 219.16 122.221 219.16 122.588Z" fill="#407BFF"/>
<path d="M240.052 149.267H220.773V155.878H240.052V149.267Z" fill="white"/>
<path d="M219.16 149.577V163.555C219.16 163.944 219.475 164.258 219.863 164.258H240.437C240.826 164.258 241.14 163.944 241.14 163.555V150.953C241.14 150.564 240.826 150.25 240.437 150.25H227.925C227.672 150.25 227.438 150.113 227.313 149.894L226.92 149.201C226.819 149.022 226.626 148.911 226.416 148.911H219.844C219.466 148.911 219.16 149.209 219.16 149.577Z" fill="#407BFF"/>
<path d="M240.052 173.768H220.773V180.378H240.052V173.768Z" fill="white"/>
<path d="M219.16 174.077V188.056C219.16 188.444 219.475 188.759 219.863 188.759H240.437C240.826 188.759 241.14 188.444 241.14 188.056V175.453C241.14 175.065 240.826 174.75 240.437 174.75H227.925C227.672 174.75 227.438 174.614 227.313 174.394L226.92 173.701C226.819 173.523 226.626 173.412 226.416 173.412H219.844C219.466 173.412 219.16 173.71 219.16 174.077Z" fill="#407BFF"/>
<path d="M103.907 122.279H84.6279V128.889H103.907V122.279Z" fill="white"/>
<path d="M83.0146 122.588V136.566C83.0146 136.955 83.3292 137.27 83.7177 137.27H104.292C104.68 137.27 104.995 136.955 104.995 136.566V123.964C104.995 123.575 104.68 123.261 104.292 123.261H91.7792C91.5263 123.261 91.2924 123.124 91.1676 122.905L90.7744 122.212C90.6733 122.034 90.4801 121.922 90.2706 121.922H83.6981C83.3204 121.923 83.0146 122.221 83.0146 122.588Z" fill="#407BFF"/>
<path d="M103.907 150.93H84.6279V157.541H103.907V150.93Z" fill="white"/>
<path d="M83.0146 151.239V165.218C83.0146 165.607 83.3292 165.921 83.7177 165.921H104.292C104.68 165.921 104.995 165.607 104.995 165.218V152.616C104.995 152.227 104.68 151.913 104.292 151.913H91.7792C91.5263 151.913 91.2924 151.776 91.1676 151.557L90.7744 150.864C90.6733 150.685 90.4801 150.574 90.2706 150.574H83.6981C83.3204 150.574 83.0146 150.872 83.0146 151.239Z" fill="#407BFF"/>
<path d="M103.907 177.127H84.6279V183.738H103.907V177.127Z" fill="white"/>
<path d="M83.0146 177.437V191.416C83.0146 191.804 83.3292 192.119 83.7177 192.119H104.292C104.68 192.119 104.995 191.804 104.995 191.416V178.813C104.995 178.424 104.68 178.11 104.292 178.11H91.7792C91.5263 178.11 91.2924 177.974 91.1676 177.754L90.7744 177.061C90.6733 176.883 90.4801 176.771 90.2706 176.771H83.6981C83.3204 176.771 83.0146 177.069 83.0146 177.437Z" fill="#407BFF"/>
<path d="M204.155 121.63H125.397V149.328H204.155V121.63Z" fill="white"/>
<path d="M118.805 122.926V181.499C118.805 183.127 120.091 184.446 121.677 184.446H205.723C207.309 184.446 208.596 183.127 208.596 181.499V128.693C208.596 127.065 207.309 125.746 205.723 125.746H154.61C153.576 125.746 152.622 125.176 152.111 124.254L150.505 121.35C150.09 120.602 149.302 120.138 148.447 120.138H121.597C120.055 120.138 118.805 121.386 118.805 122.926Z" fill="#407BFF"/>
<path d="M115.798 145.486C115.611 145.486 115.459 145.334 115.459 145.147V127.386C115.459 127.199 115.611 127.047 115.798 127.047C115.985 127.047 116.137 127.199 116.137 127.386V145.147C116.137 145.335 115.985 145.486 115.798 145.486Z" fill="#407BFF"/>
<path d="M115.798 125.392C115.611 125.392 115.459 125.241 115.459 125.053V122.846C115.459 122.659 115.611 122.507 115.798 122.507C115.985 122.507 116.137 122.659 116.137 122.846V125.053C116.137 125.241 115.985 125.392 115.798 125.392Z" fill="#407BFF"/>
<path d="M178.255 168.801H152.923V160.828C152.923 153.745 158.605 147.983 165.589 147.983C172.573 147.983 178.255 153.745 178.255 160.828V168.801ZM155.743 165.94H175.434V160.828C175.434 155.322 171.017 150.843 165.589 150.843C160.16 150.843 155.743 155.322 155.743 160.828V165.94Z" fill="#E0E0E0"/>
<path d="M178.878 192.493H152.293C150.393 192.493 148.853 190.952 148.853 189.052V168.926C148.853 167.026 150.393 165.485 152.293 165.485H178.878C180.779 165.485 182.319 167.026 182.319 168.926V189.052C182.319 190.952 180.778 192.493 178.878 192.493Z" fill="#407BFF"/>
<g opacity="0.3">
<path d="M178.878 189.352H152.293C150.393 189.352 148.853 187.812 148.853 185.911V168.926C148.853 167.026 150.393 165.485 152.293 165.485H178.878C180.779 165.485 182.319 167.026 182.319 168.926V185.911C182.319 187.812 180.778 189.352 178.878 189.352Z" fill="black"/>
</g>
<path d="M169.416 175.318C169.416 177.543 167.637 179.346 165.443 179.346C163.249 179.346 161.471 177.543 161.471 175.318C161.471 173.094 163.249 171.29 165.443 171.29C167.637 171.29 169.416 173.094 169.416 175.318Z" fill="#263238"/>
<path d="M164.645 176.529L163.046 183.55H168.494L166.346 176.488L164.645 176.529Z" fill="#263238"/>
<path d="M195.556 162.792C191.903 162.792 188.584 160.253 187.708 156.495C187.212 154.37 187.562 152.175 188.694 150.317C189.825 148.458 191.603 147.158 193.699 146.655L202.416 144.564C204.511 144.061 206.676 144.417 208.509 145.565C210.341 146.712 211.624 148.515 212.12 150.641C213.143 155.029 210.455 159.443 206.128 160.481L197.413 162.572C196.79 162.721 196.168 162.792 195.556 162.792ZM204.271 147.682C203.909 147.682 203.54 147.724 203.173 147.812L194.457 149.902C191.895 150.517 190.305 153.13 190.91 155.727C191.515 158.324 194.093 159.939 196.654 159.324L205.37 157.234C207.931 156.619 209.522 154.007 208.916 151.409C208.398 149.184 206.433 147.682 204.271 147.682Z" fill="#E0E0E0"/>
<path d="M173.693 159.102C172.884 159.102 172.178 158.496 172.065 157.66C171.942 156.747 172.572 155.906 173.473 155.781L192.853 153.093C193.754 152.973 194.583 153.608 194.706 154.52C194.828 155.434 194.199 156.275 193.298 156.4L173.918 159.087C173.843 159.097 173.768 159.102 173.693 159.102Z" fill="#E0E0E0"/>
<g opacity="0.3">
<path d="M174.035 155.701L177.009 155.291L176.784 154.821L173.847 155.395L174.035 155.701Z" fill="black"/>
</g>
<g opacity="0.3">
<path d="M175.25 158.904L178.056 158.508L178.136 159.065L175.333 159.392L175.25 158.904Z" fill="black"/>
</g>
<g opacity="0.3">
<path d="M187.871 157.164L191.237 156.69L191.484 157.164L188.105 157.763L187.871 157.164Z" fill="black"/>
</g>
<g opacity="0.3">
<path d="M187.515 153.779L190.962 153.347L191.086 152.916L187.583 153.278L187.515 153.779Z" fill="black"/>
</g>
<path d="M229.751 154.224C226.103 154.415 222.66 152.052 221.594 148.345C220.992 146.248 221.23 144.038 222.266 142.123C223.302 140.207 225.012 138.817 227.08 138.205L235.679 135.664C237.746 135.052 239.926 135.295 241.814 136.345C243.702 137.396 245.074 139.129 245.677 141.227C246.921 145.556 244.46 150.104 240.191 151.366L231.593 153.908C230.98 154.09 230.362 154.193 229.751 154.224ZM237.69 138.681C237.328 138.7 236.963 138.761 236.599 138.868L228 141.41C225.473 142.156 224.017 144.848 224.753 147.411C225.49 149.973 228.145 151.452 230.672 150.704L239.27 148.162C241.797 147.416 243.253 144.724 242.517 142.161C241.887 139.966 239.849 138.568 237.69 138.681Z" fill="#E0E0E0"/>
<path d="M207.73 151.678C206.921 151.72 206.185 151.151 206.031 150.322C205.862 149.416 206.449 148.543 207.341 148.371L226.559 144.678C227.454 144.511 228.313 145.102 228.482 146.007C228.651 146.913 228.065 147.786 227.172 147.958L207.954 151.651C207.879 151.665 207.805 151.674 207.73 151.678Z" fill="#E0E0E0"/>
<g opacity="0.3">
<path d="M207.207 148.443L210.765 147.724L210.47 147.24L206.99 148.195L207.207 148.443Z" fill="black"/>
</g>
<g opacity="0.3">
<path d="M208.812 151.483L212.061 150.862L212.098 151.397L208.812 152.024V151.483Z" fill="black"/>
</g>
<g opacity="0.3">
<path d="M221.792 149.005L225.129 148.356L225.4 148.816L222.056 149.59L221.792 149.005Z" fill="black"/>
</g>
<g opacity="0.3">
<path d="M221.264 145.642L224.686 145.032L224.787 144.594L221.307 145.138L221.264 145.642Z" fill="black"/>
</g>
<path d="M242.354 143.77C241.545 143.812 240.81 143.244 240.655 142.415C240.486 141.509 241.073 140.635 241.966 140.464L261.184 136.771C262.078 136.604 262.938 137.195 263.106 138.1C263.276 139.006 262.689 139.879 261.796 140.05L242.578 143.743C242.503 143.757 242.429 143.766 242.354 143.77Z" fill="#E0E0E0"/>
<g opacity="0.3">
<path d="M241.831 140.535L245.389 139.816L245.094 139.333L241.614 140.288L241.831 140.535Z" fill="black"/>
</g>
<g opacity="0.3">
<path d="M243.436 143.576L246.685 142.955L246.722 143.489L243.436 144.116V143.576Z" fill="black"/>
</g>
<path d="M133.565 162.36L124.849 160.27C120.522 159.232 117.835 154.817 118.858 150.429C119.354 148.304 120.636 146.501 122.469 145.353C124.302 144.206 126.466 143.85 128.562 144.353L137.279 146.443C139.375 146.946 141.153 148.247 142.284 150.105C143.416 151.964 143.766 154.158 143.27 156.284C142.393 160.041 139.075 162.58 135.422 162.58C134.809 162.58 134.187 162.509 133.565 162.36ZM122.061 151.197C121.455 153.794 123.046 156.407 125.607 157.021L134.323 159.112C136.885 159.727 139.462 158.112 140.067 155.515C140.673 152.918 139.082 150.305 136.521 149.69L127.804 147.6C127.436 147.512 127.068 147.47 126.706 147.47C124.544 147.47 122.579 148.972 122.061 151.197Z" fill="#E0E0E0"/>
<path d="M157.284 158.89C158.093 158.89 158.799 158.284 158.912 157.448C159.035 156.535 158.405 155.693 157.504 155.568L138.124 152.881C137.223 152.761 136.394 153.395 136.271 154.308C136.148 155.221 136.778 156.063 137.679 156.187L157.059 158.875C157.135 158.884 157.21 158.89 157.284 158.89Z" fill="#E0E0E0"/>
<g opacity="0.3">
<path d="M157.22 155.526L154.131 155.1L154.415 154.634L157.445 155.226L157.22 155.526Z" fill="black"/>
</g>
<g opacity="0.3">
<path d="M155.998 158.728L153.192 158.351L153.117 158.908L155.919 159.24L155.998 158.728Z" fill="black"/>
</g>
<g opacity="0.3">
<path d="M143.106 156.952L139.74 156.479L139.493 156.952L142.872 157.551L143.106 156.952Z" fill="black"/>
</g>
<g opacity="0.3">
<path d="M143.462 153.567L140.015 153.135L139.891 152.703L143.394 153.065L143.462 153.567Z" fill="black"/>
</g>
<path d="M99.1509 154.52L90.5525 151.978C86.2838 150.715 83.8234 146.167 85.0668 141.838C85.6696 139.741 87.0418 138.008 88.9301 136.957C90.8183 135.907 92.9981 135.664 95.0653 136.275L103.664 138.817C105.732 139.429 107.441 140.82 108.478 142.735C109.514 144.65 109.753 146.86 109.15 148.957C108.084 152.664 104.642 155.026 100.994 154.836C100.381 154.804 99.7638 154.701 99.1509 154.52ZM88.2263 142.773C87.49 145.335 88.9463 148.027 91.4732 148.774L100.072 151.316C102.599 152.064 105.254 150.585 105.99 148.023C106.726 145.461 105.27 142.769 102.743 142.021L94.1446 139.48C93.7818 139.372 93.4164 139.311 93.0537 139.292C90.8949 139.179 88.8568 140.578 88.2263 142.773Z" fill="#E0E0E0"/>
<path d="M123.014 152.289C123.822 152.331 124.558 151.763 124.713 150.934C124.881 150.028 124.295 149.154 123.402 148.983L104.184 145.29C103.29 145.123 102.43 145.714 102.261 146.619C102.093 147.525 102.679 148.398 103.572 148.569L122.79 152.262C122.864 152.276 122.939 152.285 123.014 152.289Z" fill="#E0E0E0"/>
<g opacity="0.3">
<path d="M123.268 148.955L119.71 148.236L120.006 147.752L123.485 148.707L123.268 148.955Z" fill="black"/>
</g>
<g opacity="0.3">
<path d="M121.933 152.095L118.684 151.474L118.646 152.008L121.933 152.636V152.095Z" fill="black"/>
</g>
<g opacity="0.3">
<path d="M108.952 149.615L105.615 148.967L105.344 149.428L108.688 150.201L108.952 149.615Z" fill="black"/>
</g>
<g opacity="0.3">
<path d="M109.48 146.254L106.058 145.643L105.957 145.205L109.437 145.75L109.48 146.254Z" fill="black"/>
</g>
<path d="M89.2424 143.181C90.0411 143.316 90.8357 142.836 91.0818 142.029C91.351 141.149 90.8648 140.214 89.997 139.941L71.3133 134.07C70.4435 133.801 69.5234 134.289 69.2549 135.169C68.9858 136.05 69.4712 136.985 70.3397 137.258L89.0234 143.129C89.0959 143.152 89.1692 143.169 89.2424 143.181Z" fill="#E0E0E0"/>
<g opacity="0.3">
<path d="M90.1228 140.027L86.667 138.905L87.0155 138.458L90.3662 139.806L90.1228 140.027Z" fill="black"/>
</g>
<g opacity="0.3">
<path d="M88.1896 142.865L85.0308 141.875L84.9346 142.402L88.1293 143.402L88.1896 142.865Z" fill="black"/>
</g>
<path d="M191.6 210.413H137.146C133.813 210.413 131.11 207.711 131.11 204.378C131.11 201.045 133.812 198.343 137.146 198.343H191.6C194.933 198.343 197.635 201.045 197.635 204.378C197.636 207.711 194.934 210.413 191.6 210.413Z" fill="#407BFF"/>
<g opacity="0.3">
<path d="M191.6 210.413H137.146C133.813 210.413 131.11 207.711 131.11 204.378C131.11 201.045 133.812 198.343 137.146 198.343H191.6C194.933 198.343 197.635 201.045 197.635 204.378C197.636 207.711 194.934 210.413 191.6 210.413Z" fill="black"/>
</g>
<path d="M193.134 210.413H138.765C135.432 210.413 132.729 207.711 132.729 204.378C132.729 201.045 135.431 198.343 138.765 198.343H193.134C196.467 198.343 199.169 201.045 199.169 204.378C199.169 207.711 196.467 210.413 193.134 210.413Z" fill="#407BFF"/>
<path d="M140.896 207H139.455L135.959 201.302H135.915C135.928 201.494 135.939 201.697 135.949 201.912C135.962 202.127 135.972 202.348 135.979 202.576C135.988 202.804 135.996 203.035 136.003 203.27V207H134.938V199.861H136.369L139.86 205.521H139.895C139.888 205.354 139.88 205.164 139.87 204.949C139.86 204.734 139.851 204.513 139.841 204.285C139.834 204.054 139.829 203.831 139.826 203.616V199.861H140.896V207ZM147.438 204.285C147.438 204.734 147.38 205.133 147.263 205.481C147.146 205.83 146.975 206.124 146.75 206.365C146.525 206.603 146.255 206.785 145.939 206.912C145.624 207.036 145.267 207.098 144.87 207.098C144.499 207.098 144.159 207.036 143.85 206.912C143.54 206.785 143.272 206.603 143.044 206.365C142.819 206.124 142.645 205.83 142.521 205.481C142.398 205.133 142.336 204.734 142.336 204.285C142.336 203.689 142.438 203.185 142.644 202.771C142.852 202.355 143.148 202.037 143.532 201.819C143.916 201.601 144.374 201.492 144.904 201.492C145.402 201.492 145.842 201.601 146.223 201.819C146.604 202.037 146.901 202.355 147.116 202.771C147.331 203.188 147.438 203.693 147.438 204.285ZM143.518 204.285C143.518 204.679 143.565 205.016 143.659 205.296C143.757 205.576 143.907 205.791 144.108 205.94C144.31 206.087 144.571 206.16 144.89 206.16C145.209 206.16 145.469 206.087 145.671 205.94C145.873 205.791 146.021 205.576 146.115 205.296C146.21 205.016 146.257 204.679 146.257 204.285C146.257 203.891 146.21 203.558 146.115 203.284C146.021 203.007 145.873 202.798 145.671 202.654C145.469 202.508 145.207 202.435 144.885 202.435C144.41 202.435 144.063 202.594 143.845 202.913C143.627 203.232 143.518 203.689 143.518 204.285ZM154.514 200.755C154.172 200.755 153.866 200.817 153.596 200.94C153.329 201.064 153.103 201.243 152.917 201.478C152.731 201.709 152.59 201.99 152.492 202.322C152.395 202.651 152.346 203.022 152.346 203.436C152.346 203.989 152.424 204.466 152.58 204.866C152.736 205.263 152.974 205.569 153.293 205.784C153.612 205.996 154.016 206.102 154.504 206.102C154.807 206.102 155.101 206.072 155.388 206.014C155.674 205.955 155.97 205.875 156.276 205.774V206.771C155.987 206.884 155.694 206.967 155.397 207.02C155.101 207.072 154.759 207.098 154.372 207.098C153.643 207.098 153.037 206.946 152.556 206.644C152.077 206.341 151.719 205.914 151.481 205.364C151.247 204.814 151.13 204.17 151.13 203.431C151.13 202.89 151.205 202.396 151.354 201.946C151.504 201.497 151.722 201.11 152.009 200.784C152.295 200.455 152.648 200.203 153.068 200.027C153.492 199.848 153.975 199.759 154.519 199.759C154.877 199.759 155.228 199.799 155.573 199.881C155.922 199.959 156.244 200.071 156.54 200.218L156.13 201.185C155.882 201.067 155.624 200.966 155.354 200.882C155.083 200.797 154.803 200.755 154.514 200.755ZM162.478 204.285C162.478 204.734 162.419 205.133 162.302 205.481C162.185 205.83 162.014 206.124 161.789 206.365C161.564 206.603 161.294 206.785 160.979 206.912C160.663 207.036 160.306 207.098 159.909 207.098C159.538 207.098 159.198 207.036 158.889 206.912C158.579 206.785 158.311 206.603 158.083 206.365C157.858 206.124 157.684 205.83 157.561 205.481C157.437 205.133 157.375 204.734 157.375 204.285C157.375 203.689 157.478 203.185 157.683 202.771C157.891 202.355 158.187 202.037 158.571 201.819C158.955 201.601 159.413 201.492 159.943 201.492C160.441 201.492 160.881 201.601 161.262 201.819C161.643 202.037 161.94 202.355 162.155 202.771C162.37 203.188 162.478 203.693 162.478 204.285ZM158.557 204.285C158.557 204.679 158.604 205.016 158.698 205.296C158.796 205.576 158.946 205.791 159.147 205.94C159.349 206.087 159.61 206.16 159.929 206.16C160.248 206.16 160.508 206.087 160.71 205.94C160.912 205.791 161.06 205.576 161.154 205.296C161.249 205.016 161.296 204.679 161.296 204.285C161.296 203.891 161.249 203.558 161.154 203.284C161.06 203.007 160.912 202.798 160.71 202.654C160.508 202.508 160.246 202.435 159.924 202.435C159.449 202.435 159.102 202.594 158.884 202.913C158.666 203.232 158.557 203.689 158.557 204.285ZM169.904 201.492C170.51 201.492 170.965 201.648 171.271 201.961C171.581 202.273 171.735 202.775 171.735 203.465V207H170.588V203.67C170.588 203.26 170.508 202.951 170.349 202.742C170.189 202.534 169.947 202.43 169.621 202.43C169.165 202.43 168.837 202.576 168.635 202.869C168.436 203.159 168.337 203.58 168.337 204.134V207H167.189V203.67C167.189 203.396 167.154 203.169 167.082 202.986C167.014 202.801 166.908 202.662 166.765 202.571C166.621 202.477 166.441 202.43 166.223 202.43C165.907 202.43 165.655 202.501 165.466 202.645C165.28 202.788 165.147 202.999 165.065 203.279C164.984 203.556 164.943 203.896 164.943 204.3V207H163.796V201.595H164.689L164.851 202.322H164.914C165.025 202.133 165.161 201.979 165.324 201.858C165.49 201.735 165.674 201.644 165.876 201.585C166.078 201.523 166.288 201.492 166.506 201.492C166.91 201.492 167.25 201.564 167.526 201.707C167.803 201.847 168.01 202.062 168.146 202.352H168.234C168.404 202.059 168.64 201.842 168.942 201.702C169.245 201.562 169.566 201.492 169.904 201.492ZM176.11 201.492C176.752 201.492 177.266 201.727 177.653 202.195C178.044 202.664 178.239 203.361 178.239 204.285C178.239 204.897 178.148 205.413 177.966 205.833C177.787 206.25 177.535 206.565 177.209 206.78C176.887 206.992 176.511 207.098 176.081 207.098C175.808 207.098 175.57 207.062 175.368 206.99C175.166 206.919 174.994 206.826 174.851 206.712C174.707 206.595 174.587 206.468 174.489 206.331H174.421C174.437 206.461 174.452 206.606 174.465 206.766C174.481 206.922 174.489 207.065 174.489 207.195V209.397H173.337V201.595H174.274L174.436 202.342H174.489C174.59 202.189 174.712 202.047 174.855 201.917C175.002 201.787 175.178 201.684 175.383 201.609C175.591 201.531 175.834 201.492 176.11 201.492ZM175.803 202.43C175.487 202.43 175.233 202.493 175.041 202.62C174.852 202.744 174.714 202.931 174.626 203.182C174.541 203.432 174.496 203.746 174.489 204.124V204.285C174.489 204.686 174.53 205.026 174.611 205.306C174.696 205.582 174.834 205.794 175.026 205.94C175.222 206.084 175.485 206.155 175.817 206.155C176.097 206.155 176.328 206.079 176.511 205.926C176.696 205.773 176.835 205.555 176.926 205.271C177.017 204.988 177.062 204.655 177.062 204.271C177.062 203.688 176.958 203.235 176.75 202.913C176.545 202.591 176.229 202.43 175.803 202.43ZM181.687 201.492C182.37 201.492 182.886 201.644 183.234 201.946C183.586 202.249 183.762 202.721 183.762 203.362V207H182.946L182.727 206.233H182.688C182.535 206.429 182.377 206.59 182.214 206.717C182.051 206.844 181.862 206.938 181.647 207C181.436 207.065 181.177 207.098 180.871 207.098C180.549 207.098 180.261 207.039 180.007 206.922C179.753 206.801 179.553 206.619 179.406 206.375C179.26 206.131 179.187 205.822 179.187 205.447C179.187 204.891 179.393 204.472 179.807 204.192C180.223 203.912 180.852 203.758 181.691 203.729L182.629 203.694V203.411C182.629 203.037 182.541 202.77 182.365 202.61C182.193 202.451 181.949 202.371 181.633 202.371C181.363 202.371 181.101 202.41 180.847 202.488C180.593 202.566 180.345 202.662 180.104 202.776L179.733 201.966C179.997 201.826 180.297 201.712 180.632 201.624C180.97 201.536 181.322 201.492 181.687 201.492ZM182.624 204.417L181.926 204.441C181.353 204.461 180.951 204.559 180.72 204.734C180.489 204.91 180.373 205.151 180.373 205.457C180.373 205.724 180.453 205.919 180.612 206.043C180.772 206.163 180.982 206.224 181.242 206.224C181.639 206.224 181.968 206.111 182.229 205.887C182.492 205.659 182.624 205.325 182.624 204.886V204.417ZM188.186 201.492C188.794 201.492 189.268 201.65 189.606 201.966C189.948 202.278 190.119 202.781 190.119 203.475V207H188.972V203.689C188.972 203.27 188.885 202.955 188.713 202.747C188.54 202.535 188.273 202.43 187.912 202.43C187.388 202.43 187.023 202.591 186.818 202.913C186.617 203.235 186.516 203.702 186.516 204.314V207H185.368V201.595H186.262L186.423 202.327H186.486C186.604 202.138 186.748 201.984 186.921 201.863C187.097 201.74 187.292 201.647 187.507 201.585C187.725 201.523 187.951 201.492 188.186 201.492ZM190.91 201.595H192.16L193.269 204.681C193.317 204.821 193.361 204.959 193.4 205.096C193.443 205.229 193.479 205.361 193.508 205.491C193.54 205.621 193.566 205.752 193.586 205.882H193.615C193.648 205.713 193.693 205.524 193.752 205.315C193.814 205.104 193.882 204.892 193.957 204.681L195.021 201.595H196.257L193.938 207.742C193.804 208.094 193.64 208.393 193.444 208.641C193.252 208.891 193.024 209.08 192.761 209.207C192.497 209.337 192.196 209.402 191.857 209.402C191.695 209.402 191.553 209.393 191.433 209.373C191.312 209.357 191.21 209.339 191.125 209.319V208.401C191.193 208.418 191.28 208.432 191.384 208.445C191.488 208.458 191.595 208.465 191.706 208.465C191.911 208.465 192.089 208.424 192.238 208.343C192.388 208.261 192.515 208.146 192.619 207.996C192.723 207.85 192.81 207.682 192.878 207.493L193.068 206.985L190.91 201.595Z" fill="white"/>
<path d="M78.6807 267.484C78.6807 267.484 83.1744 260.025 87.2011 262.537C91.2277 265.05 90.465 271.849 86.4133 272.703C82.3615 273.557 79.3471 271.708 79.3471 271.708L78.6807 267.484Z" fill="#407BFF"/>
<path opacity="0.4" d="M78.6807 267.484C78.6807 267.484 83.1744 260.025 87.2011 262.537C91.2277 265.05 90.465 271.849 86.4133 272.703C82.3615 273.557 79.3471 271.708 79.3471 271.708L78.6807 267.484Z" fill="white"/>
<path d="M75.8007 288.049C75.8007 288.049 87.7756 264.743 74.7119 262.467C61.6482 260.191 62.7567 281.584 67.2227 286.883C71.6894 292.182 75.8007 288.049 75.8007 288.049Z" fill="#407BFF"/>
<path opacity="0.5" d="M75.8007 288.049C75.8007 288.049 87.7756 264.743 74.7119 262.467C61.6482 260.191 62.7567 281.584 67.2227 286.883C71.6894 292.182 75.8007 288.049 75.8007 288.049Z" fill="white"/>
<path d="M68.1702 263.87C68.1702 263.87 69.7113 243.719 60.6125 243.567C51.5138 243.415 45.544 262.344 65.2521 268.276C65.2521 268.276 68.0861 265.831 68.1702 263.87Z" fill="#407BFF"/>
<path opacity="0.4" d="M68.1702 263.87C68.1702 263.87 69.7113 243.719 60.6125 243.567C51.5138 243.415 45.544 262.344 65.2521 268.276C65.2521 268.276 68.0861 265.831 68.1702 263.87Z" fill="white"/>
<path d="M56.6484 243.748C56.8762 244.049 57.0735 244.373 57.2363 244.714" stroke="#407BFF" stroke-width="0.5" stroke-miterlimit="10" stroke-linecap="round" stroke-linejoin="round"/>
<path d="M52.8984 245.951C53.4951 246.61 54.167 247.201 54.8972 247.709" stroke="#407BFF" stroke-width="0.5" stroke-miterlimit="10" stroke-linecap="round" stroke-linejoin="round"/>
<path d="M51.7031 249.435C52.2401 249.734 52.7778 250.033 53.3147 250.332" stroke="#407BFF" stroke-width="0.5" stroke-miterlimit="10" stroke-linecap="round" stroke-linejoin="round"/>
<path d="M55.1592 257.67C55.6962 257.969 56.2331 258.269 56.7708 258.568" stroke="#407BFF" stroke-width="0.5" stroke-miterlimit="10" stroke-linecap="round" stroke-linejoin="round"/>
<path d="M52.2363 259.91C52.8309 259.988 53.4554 259.796 53.9035 259.397" stroke="#407BFF" stroke-width="0.5" stroke-miterlimit="10" stroke-linecap="round" stroke-linejoin="round"/>
<path d="M54.3721 263.124C54.7314 262.78 55.0413 262.386 55.2901 261.956" stroke="#407BFF" stroke-width="0.5" stroke-miterlimit="10" stroke-linecap="round" stroke-linejoin="round"/>
<path d="M57.2461 265.522C57.4454 265.056 57.6292 264.584 57.7973 264.106" stroke="#407BFF" stroke-width="0.5" stroke-miterlimit="10" stroke-linecap="round" stroke-linejoin="round"/>
<path d="M59.1377 266.745C59.4848 266.259 59.7757 265.732 60.0015 265.179" stroke="#407BFF" stroke-width="0.5" stroke-miterlimit="10" stroke-linecap="round" stroke-linejoin="round"/>
<path d="M63.4943 268.632C63.1689 268.119 63.0577 267.475 63.1933 266.883" stroke="#407BFF" stroke-width="0.5" stroke-miterlimit="10" stroke-linecap="round" stroke-linejoin="round"/>
<path d="M69.7226 261.49C69.012 261.833 68.2289 262.024 67.4404 262.047" stroke="#407BFF" stroke-width="0.5" stroke-miterlimit="10" stroke-linecap="round" stroke-linejoin="round"/>
<path d="M68.8516 258.716C68.2814 258.926 67.657 258.985 67.0576 258.886" stroke="#407BFF" stroke-width="0.5" stroke-miterlimit="10" stroke-linecap="round" stroke-linejoin="round"/>
<path d="M68.6546 255.566C68.18 255.455 67.706 255.343 67.2314 255.231" stroke="#407BFF" stroke-width="0.5" stroke-miterlimit="10" stroke-linecap="round" stroke-linejoin="round"/>
<path d="M64.5032 254.964C64.0293 254.852 63.5547 254.741 63.0801 254.629" stroke="#407BFF" stroke-width="0.5" stroke-miterlimit="10" stroke-linecap="round" stroke-linejoin="round"/>
<path d="M63.5778 251.201C63.1771 251.478 62.7757 251.755 62.375 252.032" stroke="#407BFF" stroke-width="0.5" stroke-miterlimit="10" stroke-linecap="round" stroke-linejoin="round"/>
<path d="M64.0372 243.918C63.7524 244.313 63.4684 244.709 63.1836 245.104" stroke="#407BFF" stroke-width="0.5" stroke-miterlimit="10" stroke-linecap="round" stroke-linejoin="round"/>
<path d="M68.1591 252.391C67.734 252.458 67.3089 252.525 66.8838 252.592" stroke="#407BFF" stroke-width="0.5" stroke-miterlimit="10" stroke-linecap="round" stroke-linejoin="round"/>
<path d="M67.5236 249.938C67.1188 250.002 66.7134 250.067 66.3086 250.13" stroke="#407BFF" stroke-width="0.5" stroke-miterlimit="10" stroke-linecap="round" stroke-linejoin="round"/>
<path d="M66.1616 247.187C65.5786 247.51 64.9962 247.834 64.4131 248.157" stroke="#407BFF" stroke-width="0.5" stroke-miterlimit="10" stroke-linecap="round" stroke-linejoin="round"/>
<path d="M60.1621 243.381C60.2706 243.945 60.337 244.517 60.3621 245.091" stroke="#407BFF" stroke-width="0.5" stroke-miterlimit="10" stroke-linecap="round" stroke-linejoin="round"/>
<path d="M57.625 248.171C58.0928 248.521 58.5139 248.933 58.8718 249.394" stroke="#407BFF" stroke-width="0.5" stroke-miterlimit="10" stroke-linecap="round" stroke-linejoin="round"/>
<path d="M57.1982 252.277C57.7108 252.38 58.2356 252.424 58.7576 252.408" stroke="#407BFF" stroke-width="0.5" stroke-miterlimit="10" stroke-linecap="round" stroke-linejoin="round"/>
<path d="M58.1592 255.833C58.2012 255.912 58.3219 255.855 58.385 255.791C58.707 255.468 59.0284 255.145 59.3498 254.822" stroke="#407BFF" stroke-width="0.5" stroke-miterlimit="10" stroke-linecap="round" stroke-linejoin="round"/>
<path d="M59.5762 259.387C59.962 259.046 60.3152 258.668 60.6298 258.26" stroke="#407BFF" stroke-width="0.5" stroke-miterlimit="10" stroke-linecap="round" stroke-linejoin="round"/>
<path d="M64.0527 258.432C64.4385 258.091 64.7918 257.713 65.1057 257.305" stroke="#407BFF" stroke-width="0.5" stroke-miterlimit="10" stroke-linecap="round" stroke-linejoin="round"/>
<path d="M62.0186 262.615C62.2023 262.167 62.4721 261.756 62.8098 261.408" stroke="#407BFF" stroke-width="0.5" stroke-miterlimit="10" stroke-linecap="round" stroke-linejoin="round"/>
<path d="M58.2812 262.676C58.465 262.228 58.7348 261.816 59.0718 261.469" stroke="#407BFF" stroke-width="0.5" stroke-miterlimit="10" stroke-linecap="round" stroke-linejoin="round"/>
<path d="M65.0827 264.954C65.1973 264.402 65.1566 263.819 64.9668 263.288" stroke="#407BFF" stroke-width="0.5" stroke-miterlimit="10" stroke-linecap="round" stroke-linejoin="round"/>
<path d="M62.1077 247.525C61.8785 247.994 61.6501 248.463 61.4209 248.932" stroke="#407BFF" stroke-width="0.5" stroke-miterlimit="10" stroke-linecap="round" stroke-linejoin="round"/>
<path d="M52.6436 252.727C52.9961 253.177 53.4355 253.561 53.9297 253.849" stroke="#407BFF" stroke-width="0.5" stroke-miterlimit="10" stroke-linecap="round" stroke-linejoin="round"/>
<path d="M51.3701 257.239C51.8406 257.212 52.3119 257.186 52.7824 257.159" stroke="#407BFF" stroke-width="0.5" stroke-miterlimit="10" stroke-linecap="round" stroke-linejoin="round"/>
<path d="M73.4854 261.129C73.8406 261.746 74.0467 262.448 74.0806 263.16" stroke="#407BFF" stroke-width="0.5" stroke-miterlimit="10" stroke-linecap="round" stroke-linejoin="round"/>
<path d="M77.725 261.962C77.866 262.774 77.6389 263.643 77.1182 264.282" stroke="#407BFF" stroke-width="0.5" stroke-miterlimit="10" stroke-linecap="round" stroke-linejoin="round"/>
<path d="M69.084 263.019C69.3552 263.429 69.6833 263.802 70.0562 264.123" stroke="#407BFF" stroke-width="0.5" stroke-miterlimit="10" stroke-linecap="round" stroke-linejoin="round"/>
<path d="M63.5254 271.081C64.2753 271.196 65.0217 271.339 65.7614 271.508" stroke="#407BFF" stroke-width="0.5" stroke-miterlimit="10" stroke-linecap="round" stroke-linejoin="round"/>
<path d="M62.8594 275.432C63.4825 276.017 64.4757 276.164 65.2419 275.787" stroke="#407BFF" stroke-width="0.5" stroke-miterlimit="10" stroke-linecap="round" stroke-linejoin="round"/>
<path d="M63.8369 280.642C64.3868 280.362 64.9536 280.116 65.5333 279.905" stroke="#407BFF" stroke-width="0.5" stroke-miterlimit="10" stroke-linecap="round" stroke-linejoin="round"/>
<path d="M64.7461 285.135C65.2614 284.769 65.7773 284.402 66.2926 284.036" stroke="#407BFF" stroke-width="0.5" stroke-miterlimit="10" stroke-linecap="round" stroke-linejoin="round"/>
<path d="M79.2125 283.788C78.264 283.708 77.327 283.491 76.4395 283.147" stroke="#407BFF" stroke-width="0.5" stroke-miterlimit="10" stroke-linecap="round" stroke-linejoin="round"/>
<path d="M79.7801 281.434C79.2662 281.295 78.757 281.14 78.2539 280.967" stroke="#407BFF" stroke-width="0.5" stroke-miterlimit="10" stroke-linecap="round" stroke-linejoin="round"/>
<path d="M81.1687 277.573C80.3768 277.556 79.5849 277.541 78.793 277.524" stroke="#407BFF" stroke-width="0.5" stroke-miterlimit="10" stroke-linecap="round" stroke-linejoin="round"/>
<path d="M81.7975 274.544C81.1392 274.455 80.4904 274.296 79.8652 274.072" stroke="#407BFF" stroke-width="0.5" stroke-miterlimit="10" stroke-linecap="round" stroke-linejoin="round"/>
<path d="M79.9766 262.979C80.439 263.527 80.8281 264.138 81.1298 264.789" stroke="#407BFF" stroke-width="0.5" stroke-miterlimit="10" stroke-linecap="round" stroke-linejoin="round"/>
<path d="M83.6699 261.896C83.853 262.449 84.0354 263.003 84.2184 263.556" stroke="#407BFF" stroke-width="0.5" stroke-miterlimit="10" stroke-linecap="round" stroke-linejoin="round"/>
<path d="M89.0608 261.997C88.6615 262.673 88.3239 263.385 88.0547 264.123" stroke="#407BFF" stroke-width="0.5" stroke-miterlimit="10" stroke-linecap="round" stroke-linejoin="round"/>
<path d="M90.682 265.812C90.3152 266.35 89.6935 266.704 89.0439 266.748" stroke="#407BFF" stroke-width="0.5" stroke-miterlimit="10" stroke-linecap="round" stroke-linejoin="round"/>
<path d="M89.8824 272.606C88.961 272.373 88.1088 271.875 87.4531 271.187" stroke="#407BFF" stroke-width="0.5" stroke-miterlimit="10" stroke-linecap="round" stroke-linejoin="round"/>
<path d="M84.6386 274.195C84.5213 273.549 84.4373 272.897 84.3857 272.243" stroke="#407BFF" stroke-width="0.5" stroke-miterlimit="10" stroke-linecap="round" stroke-linejoin="round"/>
<path d="M83.3802 267.918C83.4168 268.312 83.4114 268.708 83.3633 269.1" stroke="#407BFF" stroke-width="0.5" stroke-miterlimit="10" stroke-linecap="round" stroke-linejoin="round"/>
<path d="M86.564 266.419C86.7064 267.024 86.5511 267.691 86.1572 268.17" stroke="#407BFF" stroke-width="0.5" stroke-miterlimit="10" stroke-linecap="round" stroke-linejoin="round"/>
<path d="M80.3205 268.728C79.8222 268.632 79.3157 268.578 78.8086 268.566" stroke="#407BFF" stroke-width="0.5" stroke-miterlimit="10" stroke-linecap="round" stroke-linejoin="round"/>
<path d="M76.0713 272.097C76.1432 271.594 76.173 271.086 76.1608 270.579" stroke="#407BFF" stroke-width="0.5" stroke-miterlimit="10" stroke-linecap="round" stroke-linejoin="round"/>
<path d="M72.4521 265.872C72.9247 266.328 73.341 266.843 73.6888 267.4" stroke="#407BFF" stroke-width="0.5" stroke-miterlimit="10" stroke-linecap="round" stroke-linejoin="round"/>
<path d="M74.3859 269.608C73.9371 270.218 73.2394 270.639 72.4902 270.752" stroke="#407BFF" stroke-width="0.5" stroke-miterlimit="10" stroke-linecap="round" stroke-linejoin="round"/>
<path d="M72.1973 273.437C72.4258 273.927 72.7159 274.389 73.0597 274.807" stroke="#407BFF" stroke-width="0.5" stroke-miterlimit="10" stroke-linecap="round" stroke-linejoin="round"/>
<path d="M74.2951 278.199C73.3581 278.608 72.297 279.023 71.3438 278.652" stroke="#407BFF" stroke-width="0.5" stroke-miterlimit="10" stroke-linecap="round" stroke-linejoin="round"/>
<path d="M71.6475 281.92C71.8461 281.663 72.0746 281.429 72.3268 281.225" stroke="#407BFF" stroke-width="0.5" stroke-miterlimit="10" stroke-linecap="round" stroke-linejoin="round"/>
<path d="M75.4355 281.075C75.6342 280.818 75.8627 280.584 76.1149 280.379" stroke="#407BFF" stroke-width="0.5" stroke-miterlimit="10" stroke-linecap="round" stroke-linejoin="round"/>
<path d="M71.3916 285.177C71.6798 284.687 72.031 284.235 72.4337 283.833" stroke="#407BFF" stroke-width="0.5" stroke-miterlimit="10" stroke-linecap="round" stroke-linejoin="round"/>
<path d="M67.1631 268.62C67.6465 268.985 68.0879 269.405 68.4764 269.869" stroke="#407BFF" stroke-width="0.5" stroke-miterlimit="10" stroke-linecap="round" stroke-linejoin="round"/>
<path d="M66.9102 274.429C67.182 274.455 67.4546 274.481 67.7265 274.507" stroke="#407BFF" stroke-width="0.5" stroke-miterlimit="10" stroke-linecap="round" stroke-linejoin="round"/>
<path d="M66.9365 278.179C67.2809 278.241 67.6261 278.303 67.9705 278.366" stroke="#407BFF" stroke-width="0.5" stroke-miterlimit="10" stroke-linecap="round" stroke-linejoin="round"/>
<path d="M77.1393 275.286C76.9074 275.549 76.6762 275.812 76.4443 276.074" stroke="#407BFF" stroke-width="0.5" stroke-miterlimit="10" stroke-linecap="round" stroke-linejoin="round"/>
<path d="M67.4844 282.372C67.9176 282.245 68.3502 282.117 68.7834 281.99" stroke="#407BFF" stroke-width="0.5" stroke-miterlimit="10" stroke-linecap="round" stroke-linejoin="round"/>
<path d="M82.8335 286.002H60.3389L63.5451 302.613H79.573L82.8335 286.002Z" fill="#263238"/>
<path d="M83.8039 286.002H59.0508V289.995H83.8039V286.002Z" fill="#263238"/>
<path d="M61.1104 289.996L61.566 292.356L81.8185 291.175L82.0504 289.996H61.1104Z" fill="black"/>
<path d="M290.419 219.955C290.419 219.955 288.795 252.511 281.784 258.116H289.283C289.283 258.116 295.97 247.024 296.469 219.955H290.419Z" fill="#263238"/>
<path opacity="0.6" d="M290.419 219.955C290.419 219.955 288.795 252.511 281.784 258.116H289.283C289.283 258.116 295.97 247.024 296.469 219.955H290.419Z" fill="white"/>
<path d="M260.185 255.418H292.983C294.666 255.418 296.03 256.782 296.03 258.464V260.813H257.14V258.464C257.139 256.782 258.503 255.418 260.185 255.418Z" fill="#407BFF"/>
<path opacity="0.3" d="M260.185 255.418H292.983C294.666 255.418 296.03 256.782 296.03 258.464V260.813H257.14V258.464C257.139 256.782 258.503 255.418 260.185 255.418Z" fill="black"/>
<path d="M294.677 292.642L279.685 291.335V271.646H274.414V291.33L259.369 292.642C258.043 292.772 257.033 293.887 257.033 295.219V297.216H276.535H277.512H297.014V295.219C297.014 293.887 296.003 292.773 294.677 292.642Z" fill="#263238"/>
<path d="M261.885 299.693C261.885 301.596 260.343 303.138 258.44 303.138C256.537 303.138 254.994 301.595 254.994 299.693C254.994 297.79 256.537 296.247 258.44 296.247C260.343 296.246 261.885 297.79 261.885 299.693Z" fill="#263238"/>
<path d="M292.159 299.693C292.159 301.596 293.702 303.138 295.605 303.138C297.508 303.138 299.051 301.595 299.051 299.693C299.051 297.79 297.508 296.247 295.605 296.247C293.702 296.246 292.159 297.79 292.159 299.693Z" fill="#263238"/>
<path d="M278.075 275.663H276.025C274.634 275.663 273.507 274.535 273.507 273.145V258.904H280.593V273.145C280.593 274.535 279.465 275.663 278.075 275.663Z" fill="#263238"/>
<path opacity="0.6" d="M278.075 275.663H276.025C274.634 275.663 273.507 274.535 273.507 273.145V258.904H280.593V273.145C280.593 274.535 279.465 275.663 278.075 275.663Z" fill="white"/>
<path d="M256.884 258.116H296.284C296.96 258.116 297.509 258.664 297.509 259.341V259.588C297.509 260.264 296.96 260.813 296.284 260.813H256.884C256.208 260.813 255.659 260.264 255.659 259.588V259.341C255.659 258.664 256.208 258.116 256.884 258.116Z" fill="#263238"/>
<path opacity="0.6" d="M256.884 258.116H296.284C296.96 258.116 297.509 258.664 297.509 259.341V259.588C297.509 260.264 296.96 260.813 296.284 260.813H256.884C256.208 260.813 255.659 260.264 255.659 259.588V259.341C255.659 258.664 256.208 258.116 256.884 258.116Z" fill="white"/>
<path d="M299.961 227.082H287.949C284.43 227.082 281.888 223.92 282.272 220.02L282.784 214.813C283.168 210.912 286.332 207.75 289.851 207.75H301.864C305.383 207.75 307.925 210.912 307.541 214.813L307.028 220.02C306.644 223.92 303.48 227.082 299.961 227.082Z" fill="#407BFF"/>
<path opacity="0.3" d="M299.961 227.082H287.949C284.43 227.082 281.888 223.92 282.272 220.02L282.784 214.813C283.168 210.912 286.332 207.75 289.851 207.75H301.864C305.383 207.75 307.925 210.912 307.541 214.813L307.028 220.02C306.644 223.92 303.48 227.082 299.961 227.082Z" fill="black"/>
<path opacity="0.2" d="M297.401 207.75L293.535 227.082H289.885L292.804 207.75H297.401Z" fill="black"/>
<path opacity="0.2" d="M296.181 227.083L296.014 229.412H289.657L289.885 227.083H296.181Z" fill="black"/>
<path d="M234.648 286.881L230.713 299.693L224.879 299.187L227.13 284.792L234.648 286.881Z" fill="#E9B376"/>
<path d="M229.701 297.964C228.925 298.683 227.924 298.712 227.165 298.118L227.006 297.04C226.868 296.113 226.319 295.522 225.321 295.648C224.832 295.71 224.163 296.252 223.758 297.139C223.033 298.729 221.903 299.418 221.903 299.418C221.903 299.418 217.45 301.632 215.852 302.122C214.899 302.414 213.624 302.855 212.941 303.875C212.746 304.167 212.569 304.513 212.417 304.921C212.291 305.256 212.294 306.012 212.294 306.029L223.58 306.024C223.58 306.024 224.731 305.353 225.22 305.37C226.091 305.401 226.48 306.159 226.48 306.159L230.584 306.187C230.584 306.187 230.663 305.554 230.776 304.633L230.778 304.632C230.828 304.217 230.886 303.743 230.948 303.243C231.213 301.097 231.628 298.393 231.698 297.785C231.82 296.721 229.701 297.964 229.701 297.964Z" fill="#263238"/>
<path d="M219.504 300.508C219.554 300.463 219.632 300.458 219.691 300.495C219.96 300.663 220.184 300.901 220.336 301.197C220.416 301.354 220.171 301.502 220.09 301.344C219.955 301.08 219.758 300.871 219.523 300.723C219.445 300.674 219.432 300.571 219.501 300.51C219.502 300.509 219.504 300.508 219.504 300.508Z" fill="#407BFF"/>
<path d="M220.374 300.039C220.425 299.994 220.503 299.989 220.562 300.026C220.83 300.195 221.055 300.432 221.207 300.728C221.287 300.885 221.042 301.033 220.961 300.875C220.826 300.612 220.63 300.402 220.394 300.254C220.316 300.205 220.303 300.102 220.372 300.041L220.374 300.039Z" fill="#407BFF"/>
<path d="M221.271 299.602C221.322 299.556 221.4 299.552 221.459 299.588C221.728 299.757 221.953 299.994 222.105 300.291C222.185 300.447 221.939 300.596 221.859 300.438C221.724 300.174 221.527 299.965 221.292 299.817C221.213 299.767 221.201 299.665 221.269 299.604L221.271 299.602Z" fill="#407BFF"/>
<path opacity="0.2" d="M212.641 304.435C212.562 304.597 212.486 304.768 212.416 304.955C212.29 305.29 212.293 306.047 212.293 306.064L223.579 306.058C223.579 306.058 224.73 305.387 225.219 305.404C226.09 305.435 226.479 306.193 226.479 306.193L230.583 306.222C230.583 306.222 230.662 305.588 230.775 304.667L230.777 304.666C230.785 304.594 230.796 304.511 230.805 304.435H212.641Z" fill="white"/>
<path d="M221.376 299.733C221.41 299.342 221.444 298.948 221.409 298.556C221.374 298.165 221.266 297.772 221.039 297.452C220.933 297.302 220.778 297.16 220.596 297.172C220.404 297.184 220.264 297.361 220.197 297.542C220.069 297.888 220.123 298.284 220.286 298.616C220.447 298.948 221.089 299.5 221.376 299.733Z" stroke="#407BFF" stroke-width="0.25" stroke-miterlimit="10"/>
<path d="M221.424 299.733C221.578 299.371 221.733 299.008 221.948 298.678C222.163 298.35 222.443 298.054 222.795 297.878C222.958 297.796 223.162 297.743 223.317 297.839C223.481 297.939 223.522 298.163 223.495 298.354C223.445 298.72 223.211 299.044 222.911 299.26C222.612 299.477 221.787 299.662 221.424 299.733Z" stroke="#407BFF" stroke-width="0.25" stroke-miterlimit="10"/>
<path d="M213.063 285.046L205.373 296.023L199.979 293.745L206.554 280.744L213.063 285.046Z" fill="#E9B376"/>
<path d="M203.249 302.162L199.353 300.87C199.353 300.87 199.215 300.029 198.397 299.731C197.937 299.564 196.635 299.849 196.635 299.849L185.896 296.377C185.901 296.362 186.131 295.64 186.353 295.36C186.624 295.019 186.898 294.745 187.174 294.528C188.138 293.767 189.486 293.741 190.484 293.756C192.155 293.783 197.074 293.048 197.074 293.048C197.074 293.048 198.361 292.74 199.541 291.45C200.199 290.731 201.003 290.422 201.487 290.513C202.476 290.7 202.816 291.431 202.662 292.357L202.481 293.431C203.02 294.229 203.982 294.511 204.941 294.065C204.941 294.065 207.34 293.535 206.896 294.51C206.642 295.067 205.414 297.512 204.501 299.472C204.288 299.929 204.088 300.361 203.911 300.74H203.91C203.519 301.584 203.249 302.162 203.249 302.162Z" fill="#263238"/>
<path d="M194.456 293.346C194.518 293.318 194.594 293.338 194.638 293.391C194.842 293.635 194.983 293.93 195.036 294.259C195.064 294.432 194.785 294.498 194.756 294.322C194.709 294.03 194.587 293.77 194.408 293.557C194.349 293.486 194.369 293.385 194.452 293.347C194.454 293.347 194.456 293.346 194.456 293.346Z" fill="#407BFF"/>
<path d="M195.428 293.167C195.491 293.14 195.567 293.159 195.611 293.212C195.814 293.456 195.955 293.75 196.009 294.079C196.037 294.253 195.757 294.319 195.729 294.144C195.681 293.851 195.559 293.591 195.381 293.378C195.321 293.307 195.342 293.206 195.425 293.169C195.427 293.169 195.428 293.167 195.428 293.167Z" fill="#407BFF"/>
<path d="M196.418 293.029C196.48 293.001 196.556 293.021 196.6 293.074C196.804 293.318 196.945 293.612 196.998 293.941C197.026 294.115 196.747 294.181 196.718 294.005C196.671 293.713 196.549 293.452 196.37 293.24C196.311 293.168 196.331 293.067 196.414 293.03C196.416 293.029 196.416 293.029 196.418 293.029Z" fill="#407BFF"/>
<path opacity="0.2" d="M186.73 294.936C186.604 295.066 186.479 295.205 186.354 295.361C186.132 295.641 185.901 296.362 185.896 296.378L196.636 299.85C196.636 299.85 197.938 299.565 198.398 299.732C199.216 300.03 199.354 300.871 199.354 300.871L203.25 302.163C203.25 302.163 203.52 301.584 203.912 300.742H203.913C203.943 300.676 203.979 300.6 204.011 300.531L186.73 294.936Z" fill="white"/>
<path d="M196.477 293.185C196.63 292.823 196.784 292.459 196.871 292.076C196.959 291.693 196.977 291.286 196.859 290.911C196.805 290.737 196.7 290.554 196.523 290.509C196.338 290.461 196.148 290.587 196.03 290.739C195.801 291.029 195.731 291.423 195.783 291.788C195.836 292.152 196.276 292.875 196.477 293.185Z" stroke="#407BFF" stroke-width="0.25" stroke-miterlimit="10"/>
<path d="M196.522 293.2C196.78 292.903 197.04 292.605 197.346 292.358C197.652 292.111 198.009 291.916 198.398 291.857C198.579 291.829 198.789 291.842 198.908 291.982C199.032 292.128 199.002 292.353 198.919 292.526C198.758 292.859 198.436 293.094 198.084 293.208C197.732 293.322 196.889 293.244 196.522 293.2Z" stroke="#407BFF" stroke-width="0.25" stroke-miterlimit="10"/>
<path d="M260.806 237.821C260.806 237.821 227.072 243.273 221.743 247.747C215.953 252.607 198.594 287.737 198.594 287.737L209.695 292.603C209.695 292.603 225.199 264.554 227.938 262.654C230.677 260.754 265.205 252.864 265.205 252.864L260.806 237.821Z" fill="#263238"/>
<path opacity="0.4" d="M260.659 238.377L258.741 241.375L238.541 242.277C243.202 241.06 250.699 239.657 259.117 238.065L260.659 238.377Z" fill="black"/>
<path opacity="0.4" d="M228.551 244.955C228.551 244.955 227.526 247.272 226.857 250.462C226.431 252.496 223.643 268.584 223.784 268.369C223.925 268.153 229.55 261.402 229.55 261.402L232.832 243.646L228.551 244.955Z" fill="black"/>
<path d="M219.922 292.435L225.864 265.213L229.64 247.911C230.289 244.94 232.803 242.742 235.835 242.496L258.95 241.514L261.467 234.333L289.126 238.108C289.126 238.108 288.733 250.206 285.355 254.643C282.711 258.115 245.832 258.565 243.095 259.464L233.443 293.79L219.922 292.435Z" fill="#263238"/>
<path d="M256.67 189.784C254.955 188.951 253.232 188.149 251.591 187.231C255.752 184.566 262.283 181.469 265.96 179.395L264.585 175.825C261.028 176.774 257.556 177.865 254.103 179.172C251.444 180.194 248.806 181.251 246.274 182.727C244.885 183.579 243.464 184.528 242.854 186.273C241.952 189.025 243.937 190.682 245.874 192.125C251.286 196.02 257.255 198.742 263.388 201.227L266.278 194.063C263.093 192.691 259.817 191.25 256.67 189.784Z" fill="#E9B376"/>
<path d="M263.151 177.36L264.155 173.047C264.265 172.571 264.545 172.151 264.941 171.865L269.876 168.298C269.876 168.298 270.334 168.915 269.876 169.576L271.098 169.092C271.098 169.092 271.505 169.885 270.69 170.502C269.876 171.119 268.603 172.529 268.603 172.529L271.403 171.207C271.403 171.207 272.115 171.471 271.403 172.353C270.69 173.234 268.45 174.424 268.45 174.424C268.45 174.424 268.07 178.982 267.255 179.775C266.441 180.568 263.684 180.328 263.684 180.328L263.151 177.36Z" fill="#E9B376"/>
<path opacity="0.2" d="M253.692 188.262L250.281 194.985L251.131 195.481L254.34 188.644L253.692 188.262Z" fill="black"/>
<path d="M311.95 188.531C311.727 185.597 308.953 184.412 306.868 183.211C302.181 180.793 297.37 178.962 292.38 177.36L290.791 180.84C293.77 182.76 298.829 185.673 302.553 188.161C297.97 190.489 292.319 192.836 288.239 194.721L291.238 201.84C296.082 199.852 300.74 197.649 305.298 195.062C306.842 194.178 308.357 193.262 309.952 192.072C310.047 192.003 310.308 191.803 310.4 191.736C311.375 191.087 312.052 189.636 311.95 188.531Z" fill="#E9B376"/>
<path opacity="0.2" d="M302.559 188.162L305.538 187.39L301.677 187.583L302.559 188.162Z" fill="black"/>
<path d="M258.244 237.306L261.361 217.96L264.061 193.114L273.63 193.024L280.995 192.841L288.91 193.26L293.535 205.826C293.535 205.826 290.919 223.395 290.84 224.308C290.743 225.427 289.562 244.613 289.562 244.613C276.466 245.474 257.889 238.255 258.244 237.306Z" fill="#407BFF"/>
<path d="M262.641 206.18C260.316 204.884 254.349 200.66 251.972 199.335C249.787 198.116 249.787 198.116 249.787 198.116L254.711 187.625C254.711 187.625 260.605 189.976 266.086 192.578C266.086 192.578 266.534 192.355 266.81 192.371C267.086 192.388 268.044 193.883 268.044 193.883L262.641 206.18Z" fill="#407BFF"/>
<path opacity="0.2" d="M293.534 205.827L289.739 201.491C289.739 201.491 289.267 206.07 293.149 208.421L293.534 205.827Z" fill="black"/>
<path d="M293.534 205.827L305.597 199.623L300.242 189.171C300.347 189.123 294.601 190.576 288.91 193.26C285.197 195.011 288.604 204.255 293.534 205.827Z" fill="#407BFF"/>
<path opacity="0.2" d="M267.854 224.309C271.256 229.537 276.375 233.628 282.226 235.793" stroke="black" stroke-width="0.5" stroke-miterlimit="10" stroke-linecap="round" stroke-linejoin="round"/>
<path opacity="0.2" d="M262.641 206.18L263.221 197.499L260.816 205.073L262.641 206.18Z" fill="black"/>
<path d="M282.326 192.829C282.326 192.829 281.832 189.283 283.908 183.136C283.908 183.129 283.586 182.97 283.586 182.963C283.873 182.103 284.173 181.31 284.453 180.624C284.46 180.604 284.46 180.598 284.46 180.598L275.716 185.49C275.829 187.49 274.947 191.305 274.45 192.911C274.45 192.911 272.599 196.443 276.507 196.742C279.361 196.96 282.326 192.829 282.326 192.829Z" fill="#E9B376"/>
<path opacity="0.2" d="M275.447 188.282L280.396 187.391C279.884 188.895 278.457 190.643 275.04 190.642C275.04 190.642 275.455 188.951 275.447 188.282Z" fill="black"/>
<path d="M270.469 170.52C269.381 172.446 268.837 176.763 272.014 175.997C275.19 175.23 272.339 167.208 270.469 170.52Z" fill="#263238"/>
<path d="M284.705 176.463C283.895 181.837 283.547 184.884 280.57 187.39C276.092 191.161 269.781 188.171 268.967 182.648C268.234 177.676 269.68 169.724 275.165 168.093C280.569 166.485 285.514 171.089 284.705 176.463Z" fill="#E9B376"/>
<path d="M286.392 169.411C285.914 166.368 282.207 164.386 279.988 165.723C279.657 165.923 281.939 166.94 281.68 166.819L281.457 171.222C281.784 171.179 282.381 171.609 282.619 172.634C282.619 172.634 281.32 178.285 283.455 180.89C289.537 178.71 290.29 171.018 286.392 169.411Z" fill="#263238"/>
<path d="M286.441 181.155C285.886 182.509 284.756 183.473 283.637 183.91C281.954 184.568 280.916 183.1 281.219 181.411C281.492 179.891 282.697 177.716 284.465 177.78C286.207 177.843 287.075 179.608 286.441 181.155Z" fill="#E9B376"/>
<path d="M276.833 177.34C276.784 177.892 276.451 178.312 276.09 178.277C275.728 178.242 275.475 177.764 275.524 177.211C275.572 176.658 275.905 176.239 276.267 176.274C276.628 176.31 276.882 176.787 276.833 177.34Z" fill="#263238"/>
<path d="M271.401 176.969C271.352 177.521 271.019 177.941 270.658 177.906C270.296 177.871 270.043 177.393 270.091 176.84C270.14 176.287 270.473 175.868 270.834 175.903C271.196 175.938 271.45 176.416 271.401 176.969Z" fill="#263238"/>
<path d="M273.192 176.817C273.192 176.817 271.199 179.41 270.539 180.479C271.247 181.243 272.602 181.039 272.602 181.039L273.192 176.817Z" fill="#D58745"/>
<path d="M276.246 174.075C276.336 174.069 276.428 174.11 276.482 174.192C277.127 175.161 278.083 175.17 278.093 175.17C278.236 175.17 278.354 175.286 278.356 175.429C278.357 175.572 278.242 175.688 278.1 175.689C278.049 175.689 276.85 175.678 276.05 174.476C275.97 174.356 276.002 174.196 276.121 174.117C276.16 174.091 276.203 174.078 276.246 174.075Z" fill="#263238"/>
<path d="M271.304 173.23C271.353 173.236 271.401 173.255 271.442 173.289C271.553 173.381 271.569 173.545 271.478 173.656C270.567 174.761 269.38 174.623 269.326 174.624C269.184 174.607 269.082 174.477 269.097 174.335C269.113 174.192 269.24 174.091 269.381 174.107C269.431 174.114 270.346 174.209 271.078 173.322C271.135 173.252 271.221 173.221 271.304 173.23Z" fill="#263238"/>
<path d="M266.735 167.863C266.996 166.479 268.491 165.39 269.851 165.755C269.412 164.853 269.806 163.638 270.69 163.165C271.574 162.693 272.803 163.039 273.31 163.904C273.36 163.064 274.259 162.445 275.098 162.511C275.937 162.577 276.659 163.181 277.084 163.907C277.345 164.353 277.534 164.869 277.952 165.172C278.606 165.647 279.505 165.402 280.312 165.341C281.666 165.238 283.056 165.753 284.016 166.715C284.976 167.675 285.49 169.065 285.385 170.42C286.134 170.623 286.505 171.227 286.991 171.832L282.849 172.494C281.687 170.325 278.553 172.003 276.984 172.599C275.857 173.028 274.744 173.059 273.887 173.028C273.031 172.996 272.641 172.368 272.631 171.511C271.317 172.019 269.776 172.051 268.541 171.376C267.306 170.701 266.473 169.246 266.735 167.863Z" fill="#263238"/>
<path d="M286.146 169.528C286.99 168.951 287.964 168.601 288.72 168.588" stroke="#263238" stroke-width="0.5" stroke-miterlimit="10" stroke-linecap="round" stroke-linejoin="round"/>
<path d="M286.248 169.47C286.839 168.591 287.091 167.49 286.94 166.441" stroke="#263238" stroke-width="0.5" stroke-miterlimit="10" stroke-linecap="round" stroke-linejoin="round"/>
<path d="M273.105 184.519C272.904 183.873 272.928 183.139 273.343 182.605C273.757 182.071 274.446 181.775 275.122 181.794C275.798 181.813 276.451 182.132 276.919 182.619C277.152 182.862 277.351 183.173 277.335 183.51C277.317 183.897 277.011 184.223 276.657 184.38C276.303 184.536 275.905 184.555 275.518 184.568C275.13 184.58 274.734 184.59 274.373 184.731C274.2 184.798 274.033 184.895 273.848 184.906C273.848 184.906 273.24 184.951 273.105 184.519Z" fill="#263238"/>
<path d="M276.359 182.171C276.197 182.207 273.667 182.75 273.546 182.706C273.441 182.668 273.458 182.506 273.466 182.452C273.533 182.38 273.598 182.307 273.674 182.246C273.694 182.23 273.718 182.213 273.739 182.197C274.134 181.908 274.629 181.751 275.121 181.764C275.563 181.777 275.982 181.938 276.359 182.171Z" fill="white"/>
<path d="M274.618 183.895C275.566 183.444 277.236 183.809 277.254 183.813C277.139 184.062 276.912 184.266 276.656 184.379C276.302 184.535 275.904 184.554 275.517 184.567C275.129 184.579 274.733 184.59 274.372 184.73C274.199 184.797 274.032 184.895 273.847 184.906C273.847 184.906 273.701 184.916 273.536 184.876C273.658 184.64 273.954 184.21 274.618 183.895Z" fill="#DE5753"/>
<path opacity="0.2" d="M285.339 179.552C285.15 179.211 284.716 179.053 284.33 179.112C283.944 179.172 283.607 179.414 283.348 179.708C283.038 180.06 282.822 180.494 282.729 180.953" stroke="black" stroke-width="0.5" stroke-miterlimit="10" stroke-linecap="round" stroke-linejoin="round"/>
<path d="M292.601 177.847L290.956 172.377C290.861 172.06 290.659 171.783 290.382 171.592L285.877 168.47C285.877 168.47 285.418 169.109 285.877 169.793L284.655 169.291C284.655 169.291 284.248 170.112 285.062 170.75C285.877 171.389 287.149 172.848 287.149 172.848L284.35 171.48C284.35 171.48 283.637 171.754 284.35 172.666C285.062 173.578 287.303 174.809 287.303 174.809C287.303 174.809 287.81 179.07 288.624 179.891C289.438 180.712 292.068 180.918 292.068 180.918L292.601 177.847Z" fill="#E9B376"/>
<path d="M242.803 217.457C242.916 218.879 242.011 220.034 240.78 220.034H201.766C200.529 220.034 199.436 218.879 199.322 217.457L197.005 188.745C196.98 188.449 196.999 188.167 197.055 187.908C197.275 186.897 198.048 186.168 199.027 186.168H238.042C239.279 186.168 240.372 187.323 240.485 188.746L242.803 217.457Z" fill="#263238"/>
<path opacity="0.7" d="M242.803 217.457C242.916 218.879 242.011 220.034 240.78 220.034H201.766C200.529 220.034 199.436 218.879 199.322 217.457L197.005 188.745C196.98 188.449 196.999 188.167 197.055 187.908C197.275 186.897 198.048 186.168 199.027 186.168H238.042C239.279 186.168 240.372 187.323 240.485 188.746L242.803 217.457Z" fill="white"/>
<path d="M240.642 220.034H201.766C200.529 220.034 199.436 218.879 199.322 217.457L197.005 188.745C196.98 188.449 196.999 188.167 197.055 187.908H235.932C237.162 187.908 238.255 189.063 238.375 190.485L240.692 219.197C240.718 219.493 240.699 219.774 240.642 220.034Z" fill="#263238"/>
<path opacity="0.5" d="M240.642 220.034H201.766C200.529 220.034 199.436 218.879 199.322 217.457L197.005 188.745C196.98 188.449 196.999 188.167 197.055 187.908H235.932C237.162 187.908 238.255 189.063 238.375 190.485L240.692 219.197C240.718 219.493 240.699 219.774 240.642 220.034Z" fill="white"/>
<path d="M214.48 213.339L222.323 213.373L220.805 227.5L228.509 227.62V229.284L207.76 229.334V227.692L212.761 227.597L214.48 213.339Z" fill="#263238"/>
<path opacity="0.3" d="M222.323 213.374C222.301 213.584 224.06 220.034 224.06 220.034H221.607L222.323 213.374Z" fill="black"/>
<path opacity="0.3" d="M213.673 220.034L214.481 213.339L212.454 220.034H213.673Z" fill="black"/>
<path d="M195.038 230.051H192.342V304.205H195.038V230.051Z" fill="#263238"/>
<path opacity="0.3" d="M195.038 230.051H192.342V304.205H195.038V230.051Z" fill="white"/>
<path d="M175.658 230.051H172.962V304.205H175.658V230.051Z" fill="#263238"/>
<path opacity="0.3" d="M175.658 230.051H172.962V304.205H175.658V230.051Z" fill="white"/>
<path opacity="0.2" d="M172.962 234.74V239.526L175.658 238.324V234.333L172.962 234.74Z" fill="black"/>
<path opacity="0.2" d="M192.341 234.74V239.526L195.037 238.324V234.333L192.341 234.74Z" fill="black"/>
<path d="M252.484 230.051H249.787V304.205H252.484V230.051Z" fill="#263238"/>
<path opacity="0.3" d="M252.484 230.051H249.787V304.205H252.484V230.051Z" fill="white"/>
<path opacity="0.2" d="M249.787 234.74V239.526L252.483 238.324V234.333L249.787 234.74Z" fill="black"/>
<path d="M277.235 230.051H274.539V304.205H277.235V230.051Z" fill="#263238"/>
<path opacity="0.3" d="M277.235 230.051H274.539V304.205H277.235V230.051Z" fill="white"/>
<path opacity="0.2" d="M274.539 234.69V239.475L277.235 238.272V234.282L274.539 234.69Z" fill="black"/>
<path d="M280.591 229.252H169.468V234.741H280.591V229.252Z" fill="#263238"/>
<path opacity="0.3" d="M280.592 229.252H254.524V234.741H280.592V229.252Z" fill="black"/>
<path opacity="0.6" d="M214.481 213.339L222.324 213.373L220.806 227.5L228.51 227.62V229.284L207.761 229.334V227.692L212.762 227.597L214.481 213.339Z" fill="white"/>
</g>
<defs>
<clipPath id="clip0_4236_2434">
<rect width="339" height="339" fill="white" transform="translate(0.5)"/>
</clipPath>
</defs>
</svg>
