<svg width="339" height="328" viewBox="0 0 339 328" fill="none" xmlns="http://www.w3.org/2000/svg">
<path d="M312.324 185.256C307.03 171.878 304.976 158.669 308.925 141.878C312.137 128.224 317.155 114.87 318.07 100.872C323.404 19.3239 274.501 -5.39851 216.709 14.0645C198.189 20.3011 157.214 32.7434 137.286 34.2509C100.643 37.0225 76.8546 25.4778 55.7963 25.1698C18.3207 24.623 -13.9561 75.5069 6.1995 109.12C12.7448 120.036 17.1424 132.945 25.5674 142.484C43.4018 162.676 49.9644 189.298 43.1465 215.547C38.8788 231.978 31.9775 247.804 29.8644 264.65C25.5404 299.123 50.3872 327.182 84.838 327.978C117.803 328.74 145.876 308.612 175.291 296.81C189.854 290.967 205.075 286.892 220.889 288.29C239.791 289.959 256.801 299.586 276.035 300.589C300.356 301.858 325.467 289.557 334.318 265.859C342.338 244.388 332.339 224.393 322.228 205.697C318.357 198.539 314.944 191.877 312.324 185.256Z" fill="#C6C5F0"/>
<path opacity="0.38" d="M312.324 185.257C308.515 175.63 306.399 166.084 306.974 155.234C303.16 161.733 301.366 169.131 302.151 177.005C303.276 188.287 309.221 198.165 314.332 208.018C319.252 217.502 323.471 227.606 322.696 238.516C321.984 248.528 317.887 258.248 310.714 265.319C298.641 277.219 281.406 280.902 266.457 287.754C261.763 289.906 256.916 292.481 253.164 296.133C260.603 298.307 268.131 300.176 276.035 300.588C300.356 301.857 325.467 289.556 334.318 265.858C342.337 244.387 332.34 224.392 322.228 205.696C318.357 198.539 314.944 191.877 312.324 185.257Z" fill="#8C9EF2"/>
<path d="M72.2098 37.5547C93.8356 37.5547 111.367 31.2799 111.367 23.5396C111.367 15.7992 93.8356 9.52441 72.2098 9.52441C50.5839 9.52441 33.0527 15.7992 33.0527 23.5396C33.0527 31.2799 50.5839 37.5547 72.2098 37.5547Z" fill="#E5EBFC"/>
<path d="M111.343 23.1993C92.8515 39.6046 40.5107 29.5125 43.4935 14.0146" stroke="white" stroke-miterlimit="10"/>
<path d="M298.977 65.7266C320.603 65.7266 338.134 59.4518 338.134 51.7114C338.134 43.9711 320.603 37.6963 298.977 37.6963C277.352 37.6963 259.82 43.9711 259.82 51.7114C259.82 59.4518 277.352 65.7266 298.977 65.7266Z" fill="#E5EBFC"/>
<path d="M338.111 51.3722C319.619 67.7774 267.278 57.6854 270.261 42.1875" stroke="white" stroke-miterlimit="10"/>
<path d="M227.217 28.0303C248.842 28.0303 266.374 21.7555 266.374 14.0152C266.374 6.2748 248.842 0 227.217 0C205.591 0 188.06 6.2748 188.06 14.0152C188.06 21.7555 205.591 28.0303 227.217 28.0303Z" fill="#E5EBFC"/>
<path d="M266.35 13.6754C252.129 5.19898 233.211 2.13741 198.5 4.49067C198.5 4.49067 235.364 1.07833 257.274 23.6172" stroke="white" stroke-miterlimit="10"/>
<path d="M277.103 210.884L277.063 46.0578C277.062 42.3645 274.068 39.3713 270.375 39.3721L259.155 39.3751L253.744 39.3766L36.8294 39.4262L31.0531 39.4277L17.5915 39.4314C13.899 39.4322 10.9065 42.4269 10.9072 46.1209L10.947 210.948C10.9478 214.641 13.9418 217.634 17.635 217.633L270.419 217.575C274.111 217.572 277.104 214.578 277.103 210.884Z" fill="#CCD7F2"/>
<path d="M274.12 214.648L21.3357 214.707C17.6432 214.708 14.6492 211.714 14.6484 208.021L14.6094 43.1953C14.6086 39.5021 17.6012 36.5074 21.2936 36.5059L274.077 36.4473C277.77 36.4465 280.764 39.4397 280.765 43.133L280.805 207.96C280.806 211.652 277.813 214.648 274.12 214.648Z" fill="white"/>
<path d="M277.103 68.4434H20.7959V69.2891H277.103V68.4434Z" fill="#737072"/>
<path d="M230.163 81.1914H271.814" stroke="#E5EBFC" stroke-width="2" stroke-miterlimit="10"/>
<path d="M230.163 98.3174H271.814" stroke="#E5EBFC" stroke-width="2" stroke-miterlimit="10"/>
<path d="M230.163 115.443H271.814" stroke="#E5EBFC" stroke-width="2" stroke-miterlimit="10"/>
<path d="M230.163 132.568H271.814" stroke="#E5EBFC" stroke-width="2" stroke-miterlimit="10"/>
<path d="M230.163 149.694H271.814" stroke="#E5EBFC" stroke-width="2" stroke-miterlimit="10"/>
<path d="M230.163 166.82H271.814" stroke="#E5EBFC" stroke-width="2" stroke-miterlimit="10"/>
<path d="M230.163 183.946H271.814" stroke="#E5EBFC" stroke-width="2" stroke-miterlimit="10"/>
<path d="M230.163 201.071H271.814" stroke="#E5EBFC" stroke-width="2" stroke-miterlimit="10"/>
<path d="M128.629 108.857H110.035V126.326H128.629V108.857Z" fill="#E5EBFC"/>
<path d="M128.634 128.097H110.04V145.565H128.634V128.097Z" fill="#E5EBFC"/>
<path d="M128.64 147.336H110.046V164.805H128.64V147.336Z" fill="#E5EBFC"/>
<path d="M98.8856 108.864H80.292V126.333H98.8856V108.864Z" fill="#E5EBFC"/>
<path d="M98.8905 128.104H80.2969V145.572H98.8905V128.104Z" fill="#E5EBFC"/>
<path d="M98.8954 147.343H80.3018V164.812H98.8954V147.343Z" fill="#E5EBFC"/>
<path d="M69.1405 108.872H50.5469V126.341H69.1405V108.872Z" fill="#E5EBFC"/>
<path d="M128.625 89.6182H110.031V107.087H128.625V89.6182Z" fill="#E5EBFC"/>
<path d="M98.8798 89.626H80.2861V107.095H98.8798V89.626Z" fill="#E5EBFC"/>
<path d="M69.1356 89.6328H50.542V107.102H69.1356V89.6328Z" fill="#E5EBFC"/>
<path d="M69.1454 128.111H50.5518V145.58H69.1454V128.111Z" fill="#E5EBFC"/>
<path d="M69.1503 147.351H50.5566V164.819H69.1503V147.351Z" fill="#E5EBFC"/>
<path d="M69.1562 166.591H50.5625V184.06H69.1562V166.591Z" fill="#E5EBFC"/>
<path d="M39.3954 108.88H20.8018V126.349H39.3954V108.88Z" fill="#E5EBFC"/>
<path d="M39.3905 89.6406H20.7969V107.109H39.3905V89.6406Z" fill="#E5EBFC"/>
<path d="M39.4013 128.12H20.8076V145.589H39.4013V128.12Z" fill="#E5EBFC"/>
<path d="M39.4052 147.359H20.8115V164.828H39.4052V147.359Z" fill="#E5EBFC"/>
<path d="M39.411 166.598H20.8174V184.066H39.411V166.598Z" fill="#E5EBFC"/>
<path d="M158.37 89.6104H139.776V107.079H158.37V89.6104Z" fill="#E5EBFC"/>
<path d="M158.375 108.85H139.781V126.318H158.375V108.85Z" fill="#E5EBFC"/>
<path d="M158.38 128.089H139.786V145.558H158.38V128.089Z" fill="#E5EBFC"/>
<path d="M158.385 147.328H139.791V164.797H158.385V147.328Z" fill="#E5EBFC"/>
<path d="M188.113 89.6025H169.52V107.071H188.113V89.6025Z" fill="#F68A73"/>
<path d="M188.118 108.842H169.524V126.311H188.118V108.842Z" fill="#E5EBFC"/>
<path d="M188.123 128.082H169.529V145.551H188.123V128.082Z" fill="#E5EBFC"/>
<path d="M188.128 147.321H169.534V164.79H188.128V147.321Z" fill="#E5EBFC"/>
<path d="M217.857 89.5947H199.264V107.064H217.857V89.5947Z" fill="#E5EBFC"/>
<path d="M217.862 108.834H199.269V126.303H217.862V108.834Z" fill="#E5EBFC"/>
<path d="M217.867 128.073H199.273V145.542H217.867V128.073Z" fill="#E5EBFC"/>
<path d="M217.872 147.313H199.278V164.782H217.872V147.313Z" fill="#E5EBFC"/>
<path d="M29.1884 75.8834C29.048 75.9983 28.9782 76.1523 28.9782 76.3416C28.9782 76.5316 29.0638 76.6818 29.235 76.7953C29.4069 76.9072 29.8027 77.0401 30.4222 77.1926C31.0433 77.3451 31.5246 77.5749 31.8678 77.8791C32.2095 78.1856 32.3815 78.6302 32.3815 79.2169C32.3815 79.802 32.1622 80.2775 31.7236 80.6433C31.2836 81.0083 30.7053 81.1901 29.9889 81.1901C28.9541 81.1901 28.0222 80.807 27.1924 80.0409L28.0627 78.9743C28.7679 79.5909 29.419 79.9004 30.0175 79.8996C30.2848 79.8996 30.4958 79.841 30.649 79.7261C30.8015 79.6112 30.8773 79.4542 30.8773 79.2589C30.8773 79.0614 30.7962 78.9067 30.634 78.7917C30.4726 78.6753 30.1511 78.5589 29.6705 78.441C28.9106 78.2607 28.3534 78.0248 28.0012 77.7349C27.649 77.445 27.4725 76.9898 27.4725 76.3701C27.4725 75.749 27.6963 75.2705 28.1408 74.9332C28.5869 74.5975 29.1426 74.4285 29.8102 74.4277C30.2465 74.4277 30.6843 74.5021 31.1199 74.6516C31.5562 74.8025 31.9369 75.0144 32.2613 75.2878L31.5224 76.3543C30.9547 75.9247 30.3697 75.7091 29.7652 75.7091C29.5203 75.7099 29.3288 75.7685 29.1884 75.8834Z" fill="#F68A73"/>
<path d="M62.7541 76.9932L60.9871 80.5678H60.1182L58.3602 76.994L58.361 81.1101L56.9019 81.1108L56.9004 74.5723L58.8731 74.5716L60.5568 78.1627L62.2494 74.5701L64.2132 74.5693L64.2147 81.1078L62.7563 81.1086L62.7541 76.9932Z" fill="#737072"/>
<path d="M90.2426 75.8269L90.2441 81.102L88.7858 81.1027L88.7843 75.8276L86.9324 75.8284L86.9316 74.565L92.0937 74.5635V75.8269H90.2426Z" fill="#737072"/>
<path d="M118.243 78.3168L119.401 74.556L120.925 74.5552L122.078 78.3153L123.377 74.5545L124.958 74.5537L122.677 81.093H121.592L120.161 76.5472L118.741 81.0937H117.655L115.372 74.556L116.954 74.5552L118.243 78.3168Z" fill="#737072"/>
<path d="M149.913 75.8112L149.914 81.0864L148.456 81.0871L148.454 75.812L146.603 75.8127V74.5494L151.765 74.5479V75.8112H149.913Z" fill="#737072"/>
<path d="M181.527 74.54V75.8214L178.497 75.8222L178.498 77.2351L181.379 77.2343V78.5157L178.498 78.5165L178.499 81.0793L177.04 81.08L177.038 74.5415L181.527 74.54Z" fill="#737072"/>
<path d="M208.191 75.8389C208.051 75.9539 207.981 76.1078 207.981 76.2979C207.981 76.4879 208.066 76.6381 208.238 76.7515C208.41 76.8635 208.805 76.9964 209.425 77.1489C210.046 77.3014 210.527 77.5312 210.871 77.8354C211.212 78.1411 211.384 78.5865 211.385 79.1732C211.385 79.7583 211.166 80.2337 210.727 80.5995C210.287 80.9646 209.709 81.1464 208.993 81.1464C207.958 81.1464 207.026 80.7633 206.195 79.9971L207.066 78.9305C207.771 79.5472 208.422 79.8567 209.02 79.8559C209.288 79.8559 209.499 79.7973 209.652 79.6824C209.804 79.5675 209.88 79.4105 209.88 79.2152C209.88 79.0177 209.799 78.8629 209.637 78.748C209.475 78.6316 209.155 78.5152 208.674 78.3972C207.914 78.217 207.357 77.9811 207.005 77.6912C206.652 77.4013 206.476 76.9461 206.475 76.3264C206.475 75.7052 206.699 75.2268 207.144 74.8895C207.591 74.5538 208.146 74.3848 208.813 74.3848C209.249 74.3848 209.687 74.4591 210.123 74.6086C210.559 74.7596 210.94 74.9714 211.264 75.2448L210.525 76.3114C209.958 75.8818 209.372 75.6662 208.767 75.6662C208.523 75.6654 208.332 75.724 208.191 75.8389Z" fill="#737072"/>
<path d="M30.7632 56.2611L30.7658 66.3492L29.5836 66.3495L24.0843 58.4302L23.9858 58.4302L23.9879 66.3509L22.7663 66.3512L22.7636 56.2632L23.9458 56.2629L29.4648 64.2018L29.5633 64.2018L29.5613 56.2614L30.7632 56.2611ZM41.7207 61.3023C41.721 62.3663 41.5291 63.2858 41.1451 64.0609C40.7611 64.836 40.2342 65.4338 39.5644 65.8543C38.8946 66.2748 38.1295 66.4852 37.2691 66.4854C36.4088 66.4856 35.6436 66.2757 34.9735 65.8555C34.3035 65.4353 33.7763 64.8378 33.3919 64.0629C33.0075 63.288 32.8151 62.3686 32.8148 61.3046C32.8146 60.2406 33.0064 59.3211 33.3904 58.546C33.7745 57.7709 34.3014 57.1731 34.9712 56.7526C35.641 56.3321 36.4061 56.1217 37.2664 56.1215C38.1268 56.1213 38.892 56.3312 39.562 56.7514C40.2321 57.1715 40.7593 57.7691 41.1437 58.544C41.5281 59.3189 41.7204 60.2383 41.7207 61.3023ZM40.5385 61.3026C40.5383 60.4291 40.392 59.6919 40.0996 59.091C39.8104 58.4901 39.4179 58.0354 38.9219 57.7269C38.4293 57.4183 37.8775 57.2641 37.2667 57.2643C36.6559 57.2644 36.1026 57.4189 35.6069 57.7277C35.1144 58.0365 34.722 58.4915 34.4299 59.0925C34.1411 59.6935 33.9968 60.4308 33.997 61.3043C33.9973 62.1778 34.1419 62.915 34.4311 63.5159C34.7235 64.1167 35.116 64.5715 35.6087 64.88C36.1047 65.1886 36.658 65.3428 37.2688 65.3426C37.8796 65.3424 38.4313 65.188 38.9238 64.8791C39.4196 64.5703 39.8119 64.1154 40.1007 63.5144C40.3928 62.9134 40.5388 62.1761 40.5385 61.3026ZM43.7131 56.2577L46.7102 64.7491L46.8285 64.749L49.8211 56.2561L51.1019 56.2558L47.4003 66.3448L46.1393 66.3452L42.4324 56.2581L43.7131 56.2577ZM52.6758 66.3435L52.6732 56.2554L58.7615 56.2538L58.7618 57.3375L53.8951 57.3388L53.896 60.7474L58.4474 60.7462L58.4477 61.8299L53.8962 61.8311L53.8971 65.2595L58.8427 65.2582L58.8429 66.3419L52.6758 66.3435ZM60.9633 56.2532L62.4214 56.2529L65.8519 64.6259L65.9702 64.6258L69.3963 56.251L70.8544 56.2507L70.857 66.3387L69.7142 66.339L69.7122 58.6745L69.6137 58.6745L66.4632 66.3399L65.3598 66.3402L62.2053 58.6764L62.1068 58.6764L62.1088 66.341L60.966 66.3413L60.9633 56.2532ZM22.7707 83.3512L22.7681 73.2632L26.2949 73.2623C26.9977 73.2621 27.5773 73.3834 28.0338 73.6263C28.4904 73.8659 28.8303 74.1893 29.0537 74.5964C29.2772 75.0003 29.3889 75.4485 29.389 75.9411C29.3892 76.3746 29.3121 76.7325 29.1578 77.015C29.0068 77.2974 28.8066 77.5208 28.557 77.6851C28.3108 77.8493 28.0432 77.9709 27.7542 78.0498L27.7543 78.1483C28.0629 78.1679 28.3733 78.2762 28.6853 78.4731C28.9973 78.6701 29.2585 78.9524 29.4687 79.3202C29.679 79.6879 29.7842 80.1378 29.7843 80.6698C29.7845 81.1755 29.6697 81.6303 29.4399 82.0343C29.2101 82.4383 28.8473 82.7586 28.3515 82.9951C27.8557 83.2317 27.2105 83.3501 26.4158 83.3503L22.7707 83.3512ZM23.992 82.2672L26.4155 82.2666C27.2135 82.2664 27.7799 82.1119 28.1148 81.8031C28.4529 81.4911 28.622 81.1134 28.6219 80.6701C28.6218 80.3286 28.5347 80.0133 28.3605 79.7244C28.1864 79.4322 27.9384 79.1991 27.6166 79.0251C27.2947 78.8479 26.9137 78.7593 26.4737 78.7594L23.9911 78.7601L23.992 82.2672ZM23.9908 77.6961L26.2567 77.6955C26.6245 77.6954 26.9561 77.6231 27.2516 77.4785C27.5504 77.3339 27.7868 77.1303 27.9608 76.8675C28.1381 76.6048 28.2266 76.2961 28.2266 75.9414C28.2264 75.4981 28.072 75.1221 27.7632 74.8135C27.4545 74.5016 26.9651 74.3458 26.2952 74.3459L23.9899 74.3465L23.9908 77.6961ZM31.7923 83.3489L31.7897 73.2608L37.878 73.2592L37.8783 74.3429L33.0116 74.3442L33.0125 77.7529L37.5639 77.7517L37.5642 78.8353L33.0127 78.8365L33.0136 82.2649L37.9592 82.2636L37.9594 83.3473L31.7923 83.3489ZM40.0825 83.3467L40.0798 73.2587L43.4885 73.2578C44.2766 73.2576 44.9236 73.392 45.4294 73.6612C45.9352 73.9271 46.3096 74.2931 46.5528 74.7594C46.7959 75.2256 46.9175 75.7559 46.9177 76.3503C46.9178 76.9447 46.7965 77.4718 46.5536 77.9316C46.3107 78.3914 45.9381 78.7527 45.4357 79.0156C44.9333 79.2751 44.2914 79.405 43.5098 79.4052L40.7513 79.4059L40.7511 78.3025L43.4701 78.3018C44.0087 78.3017 44.4421 78.2228 44.7705 78.065C45.1021 77.9073 45.3418 77.684 45.4895 77.3949C45.6404 77.1026 45.7159 76.7545 45.7158 76.3506C45.7157 75.9467 45.64 75.5937 45.4889 75.2916C45.3378 74.9895 45.0964 74.7565 44.7646 74.5923C44.4329 74.425 43.9945 74.3413 43.4494 74.3415L41.3017 74.342L41.3041 83.3464L40.0825 83.3467ZM44.8298 78.8138L47.3136 83.3449L45.8949 83.3452L43.4505 78.8141L44.8298 78.8138Z" fill="#D15332"/>
<path d="M27.1264 94.5215L30.3413 94.538L30.3 102.479L28.596 102.47L28.6291 96.041L27.1182 96.0335L27.1264 94.5215Z" fill="#F68A73"/>
<path d="M60.6931 97.7912C60.8951 97.5088 60.9973 97.2346 60.9988 96.9702C61.0003 96.7043 60.9139 96.4827 60.7412 96.304C60.567 96.1252 60.3447 96.0343 60.0713 96.0336C59.5712 96.0313 59.0958 96.3851 58.6468 97.0934L57.2305 96.2454C57.6044 95.6715 58.013 95.2389 58.4583 94.9452C58.9028 94.6522 59.4668 94.508 60.1524 94.5118C60.8366 94.5155 61.4381 94.7356 61.9547 95.1743C62.4706 95.6114 62.7275 96.2056 62.7237 96.9552C62.7215 97.3653 62.6141 97.7566 62.4045 98.1299C62.195 98.504 61.8075 98.9802 61.2451 99.5608L59.8055 101.043L62.94 101.059L62.9317 102.649L57.3334 102.619L57.3401 101.301L59.6808 98.9276C60.1539 98.4529 60.4919 98.0751 60.6931 97.7912Z" fill="#737072"/>
<path d="M87.1952 96.3443L87.2027 94.833L92.0637 94.8585L92.0577 96.0859L90.4243 97.9284C91.0589 98.0373 91.55 98.3069 91.897 98.7366C92.2416 99.1677 92.4144 99.6612 92.4121 100.222C92.4076 101.055 92.1207 101.707 91.556 102.177C90.9883 102.648 90.2659 102.881 89.3888 102.876C88.5102 102.871 87.6225 102.557 86.7236 101.931L87.4581 100.527C88.2045 101.061 88.8736 101.329 89.4646 101.332C89.8191 101.334 90.1134 101.248 90.3462 101.076C90.5775 100.902 90.6947 100.651 90.6962 100.322C90.6977 99.9925 90.567 99.7311 90.3027 99.5365C90.0399 99.342 89.6719 99.2436 89.2025 99.2413C88.9532 99.2398 88.5995 99.3097 88.1452 99.4509L88.1519 98.1447L89.6839 96.3578L87.1952 96.3443Z" fill="#737072"/>
<path d="M119.577 99.5103L119.584 98.1237L121.288 98.1327L121.281 99.5193L122.177 99.5238L122.17 101.058L121.273 101.053L121.263 102.95L119.56 102.941L119.569 101.044L116.377 101.028L116.384 99.6755L119.237 94.999L121.167 95.0088L118.452 99.505L119.577 99.5103Z" fill="#737072"/>
<path d="M151.413 95.1644L151.405 96.6982L148.271 96.6825L148.264 98.0112C148.499 97.9458 148.768 97.9128 149.07 97.9143C149.836 97.918 150.493 98.1516 151.044 98.6158C151.594 99.0823 151.866 99.7057 151.862 100.489C151.859 101.273 151.57 101.919 150.996 102.428C150.42 102.936 149.714 103.187 148.874 103.183C147.798 103.177 146.903 102.775 146.188 101.976L147.125 100.685C147.193 100.754 147.285 100.838 147.397 100.938C147.511 101.037 147.717 101.168 148.02 101.333C148.322 101.496 148.624 101.579 148.927 101.581C149.23 101.582 149.499 101.493 149.734 101.313C149.972 101.131 150.089 100.863 150.092 100.507C150.093 100.153 149.967 99.877 149.715 99.6824C149.462 99.4871 149.136 99.3887 148.734 99.3865C148.333 99.3842 147.867 99.5262 147.335 99.8116L146.602 99.0139L146.622 95.1396L151.413 95.1644Z" fill="#737072"/>
<path d="M179.385 96.6505C178.892 96.6483 178.511 96.8105 178.241 97.1387C177.971 97.467 177.803 97.9146 177.74 98.4825C178.234 98.1655 178.758 98.0093 179.31 98.0123C180.052 98.0161 180.67 98.2632 181.163 98.7491C181.656 99.2374 181.9 99.8826 181.897 100.69C181.892 101.496 181.623 102.14 181.086 102.622C180.549 103.105 179.877 103.343 179.067 103.339C178.506 103.336 178.019 103.227 177.609 103.008C177.197 102.791 176.88 102.487 176.654 102.101C176.204 101.349 175.982 100.408 175.987 99.2794C175.991 98.5523 176.082 97.9154 176.263 97.3671C176.444 96.8188 176.691 96.3869 177.003 96.0691C177.612 95.4367 178.363 95.1227 179.256 95.128C179.627 95.1302 179.98 95.1866 180.318 95.2985C180.653 95.4097 180.912 95.5231 181.094 95.6365C181.274 95.7514 181.474 95.8964 181.693 96.0714L180.847 97.3168C180.801 97.2709 180.736 97.2108 180.649 97.1327C180.562 97.0584 180.39 96.9577 180.134 96.8345C179.876 96.7136 179.627 96.6513 179.385 96.6505ZM179.137 99.5108C178.785 99.5093 178.49 99.6129 178.249 99.8195C178.009 100.026 177.89 100.297 177.887 100.63C177.886 100.964 177.998 101.25 178.224 101.49C178.451 101.729 178.733 101.851 179.075 101.852C179.415 101.854 179.699 101.748 179.928 101.539C180.157 101.328 180.271 101.054 180.272 100.716C180.274 100.379 180.173 100.094 179.97 99.8631C179.767 99.6302 179.489 99.513 179.137 99.5108Z" fill="#737072"/>
<path d="M205.473 97.9894L205.485 95.4453L211.22 95.4754L211.214 96.8161L207.965 103.4L206.036 103.39L209.135 96.9866L207.136 96.9761L207.131 97.9991L205.473 97.9894Z" fill="#737072"/>
<path d="M28.6875 113.906C29.2155 113.491 29.8741 113.287 30.6603 113.291C31.4488 113.295 32.1021 113.506 32.6225 113.926C33.1422 114.344 33.4013 114.859 33.3983 115.468C33.3953 116.078 33.158 116.601 32.6864 117.038C33.3427 117.548 33.6686 118.217 33.6641 119.042C33.6604 119.739 33.3773 120.325 32.814 120.799C32.2523 121.273 31.5194 121.508 30.6183 121.502C29.7171 121.498 28.9887 121.257 28.43 120.776C27.8728 120.296 27.5957 119.707 27.5987 119.011C27.6032 118.185 27.9358 117.521 28.5974 117.017C28.1236 116.567 27.887 116.04 27.8908 115.435C27.8938 114.829 28.1589 114.319 28.6875 113.906ZM29.7644 119.755C30.028 119.935 30.3149 120.024 30.625 120.026C30.9351 120.027 31.2235 119.942 31.4901 119.764C31.7552 119.588 31.8896 119.329 31.8919 118.987C31.8934 118.647 31.7657 118.385 31.5104 118.201C31.2528 118.019 30.9629 117.927 30.6363 117.925C30.3111 117.923 30.0197 118.012 29.7607 118.191C29.5031 118.373 29.3724 118.633 29.3709 118.973C29.3694 119.316 29.5001 119.576 29.7644 119.755ZM29.8898 116.285C30.1053 116.468 30.3562 116.559 30.6438 116.561C30.9314 116.562 31.1845 116.473 31.4007 116.293C31.6185 116.112 31.7267 115.888 31.7282 115.62C31.7297 115.351 31.6253 115.125 31.4143 114.941C31.2032 114.759 30.9494 114.667 30.6543 114.666C30.3584 114.664 30.1046 114.754 29.8928 114.934C29.6796 115.115 29.5714 115.34 29.5699 115.609C29.5684 115.876 29.6758 116.101 29.8898 116.285Z" fill="#F68A73"/>
<path d="M59.7405 120.131C60.2331 120.133 60.6139 119.971 60.8842 119.643C61.1546 119.315 61.322 118.867 61.3851 118.299C60.8992 118.623 60.3758 118.782 59.8156 118.779C59.0729 118.775 58.4556 118.528 57.9622 118.038C57.4689 117.547 57.2248 116.9 57.2286 116.097C57.2331 115.294 57.5034 114.65 58.0388 114.164C58.5758 113.678 59.2494 113.438 60.0597 113.442C60.6191 113.445 61.1057 113.554 61.5165 113.774C61.928 113.991 62.2502 114.294 62.483 114.681C62.9253 115.433 63.1453 116.374 63.1393 117.502C63.1356 118.229 63.0432 118.866 62.8622 119.414C62.6812 119.962 62.4387 120.395 62.1345 120.711C61.5113 121.344 60.755 121.658 59.8689 121.654C59.4979 121.651 59.142 121.595 58.8026 121.483C58.4616 121.372 58.2056 121.261 58.0328 121.15C57.8586 121.039 57.6589 120.897 57.4328 120.721L58.325 119.477C58.3768 119.521 58.4474 119.581 58.5337 119.653C58.6208 119.726 58.789 119.823 59.0384 119.945C59.2869 120.068 59.5205 120.13 59.7405 120.131ZM60.0003 117.269C60.3518 117.272 60.6462 117.172 60.882 116.968C61.1178 116.765 61.2364 116.497 61.2379 116.164C61.2394 115.83 61.1283 115.541 60.9022 115.298C60.6762 115.055 60.3923 114.932 60.0522 114.93C59.7105 114.929 59.4326 115.036 59.2148 115.25C58.9986 115.465 58.8889 115.739 58.8874 116.072C58.8859 116.406 58.982 116.689 59.1788 116.919C59.374 117.151 59.6481 117.267 60.0003 117.269Z" fill="#737072"/>
<path d="M83.3696 113.745L86.5844 113.762L86.5431 121.702L84.8392 121.693L84.8723 115.264L83.3613 115.256L83.3696 113.745Z" fill="#737072"/>
<path d="M91.4717 121.819C90.3738 121.813 89.5545 121.436 89.0123 120.687C88.4716 119.938 88.205 118.941 88.211 117.696C88.2178 116.45 88.4941 115.455 89.0431 114.711C89.5928 113.969 90.4158 113.601 91.5137 113.607C92.6116 113.613 93.4309 113.989 93.9731 114.737C94.5138 115.487 94.7819 116.484 94.7759 117.729C94.7699 118.975 94.4913 119.969 93.9423 120.712C93.3926 121.456 92.5696 121.824 91.4717 121.819ZM90.3332 115.793C90.0802 116.275 89.9518 116.914 89.948 117.711C89.9442 118.505 90.0651 119.147 90.3137 119.632C90.5608 120.119 90.9498 120.363 91.4792 120.365C92.0094 120.368 92.4006 120.128 92.6529 119.644C92.906 119.161 93.0344 118.52 93.0382 117.726C93.0419 116.931 92.921 116.29 92.6725 115.805C92.4254 115.318 92.0364 115.074 91.5062 115.071C90.9768 115.069 90.5856 115.309 90.3332 115.793Z" fill="#737072"/>
<path d="M115.206 113.687L118.42 113.703L118.379 121.644L116.675 121.635L116.708 115.205L115.197 115.198L115.206 113.687Z" fill="#737072"/>
<path d="M119.783 113.71L122.998 113.726L122.956 121.667L121.252 121.658L121.285 115.229L119.774 115.221L119.783 113.71Z" fill="#737072"/>
<path d="M142.559 114.051L145.774 114.067L145.733 122.008L144.029 121.999L144.062 115.57L142.551 115.562L142.559 114.051Z" fill="#737072"/>
<path d="M150.761 117.189C150.963 116.906 151.065 116.632 151.066 116.368C151.068 116.102 150.982 115.88 150.809 115.702C150.635 115.523 150.412 115.433 150.139 115.431C149.639 115.429 149.163 115.782 148.714 116.491L147.299 115.644C147.673 115.069 148.081 114.637 148.527 114.344C148.97 114.051 149.535 113.906 150.221 113.91C150.905 113.914 151.506 114.134 152.023 114.573C152.539 115.011 152.796 115.604 152.792 116.354C152.79 116.763 152.682 117.155 152.473 117.528C152.263 117.902 151.877 118.378 151.313 118.959L149.873 120.44L153.008 120.456L152.999 122.046L147.401 122.018L147.408 120.7L149.748 118.326C150.221 117.851 150.559 117.473 150.761 117.189Z" fill="#737072"/>
<path d="M172.193 114.204L175.408 114.221L175.366 122.161L173.662 122.152L173.695 115.723L172.185 115.715L172.193 114.204Z" fill="#737072"/>
<path d="M177.262 115.742L177.27 114.23L182.131 114.256L182.125 115.483L180.492 117.326C181.126 117.435 181.617 117.704 181.964 118.134C182.309 118.565 182.482 119.059 182.479 119.62C182.474 120.453 182.187 121.105 181.622 121.575C181.055 122.046 180.332 122.278 179.455 122.273C178.577 122.269 177.689 121.954 176.79 121.329L177.524 119.924C178.272 120.458 178.941 120.727 179.532 120.73C179.886 120.731 180.181 120.646 180.413 120.473C180.645 120.299 180.762 120.049 180.763 119.72C180.765 119.39 180.634 119.128 180.37 118.933C180.107 118.739 179.739 118.64 179.27 118.638C179.021 118.637 178.667 118.706 178.212 118.848L178.219 117.541L179.751 115.754L177.262 115.742Z" fill="#737072"/>
<path d="M201.842 114.358L205.057 114.375L205.016 122.316L203.312 122.307L203.345 115.877L201.834 115.87L201.842 114.358Z" fill="#737072"/>
<path d="M209.644 118.909L209.651 117.522L211.355 117.531L211.348 118.918L212.245 118.922L212.237 120.456L211.341 120.451L211.331 122.349L209.627 122.34L209.637 120.442L206.444 120.426L206.451 119.074L209.304 114.397L211.235 114.407L208.52 118.903L209.644 118.909Z" fill="#737072"/>
<path d="M24.0991 132.963L27.3139 132.979L27.2726 140.92L25.5687 140.911L25.6017 134.482L24.0908 134.474L24.0991 132.963Z" fill="#F68A73"/>
<path d="M34.0708 133.015L34.0633 134.549L30.9289 134.532L30.9221 135.861C31.1571 135.795 31.426 135.762 31.7286 135.764C32.4946 135.768 33.1502 136.001 33.7021 136.465C34.2518 136.932 34.5244 137.555 34.5207 138.339C34.5169 139.122 34.2285 139.768 33.6541 140.277C33.0781 140.785 32.3722 141.037 31.5319 141.032C30.4557 141.027 29.5614 140.624 28.8457 139.826L29.7829 138.535C29.8512 138.604 29.9428 138.687 30.0547 138.787C30.1681 138.886 30.3754 139.017 30.6773 139.182C30.9792 139.345 31.2818 139.429 31.5844 139.43C31.8871 139.432 32.1559 139.342 32.3917 139.163C32.6283 138.981 32.7469 138.713 32.7492 138.357C32.7514 138.002 32.6245 137.727 32.3722 137.532C32.1191 137.337 31.7932 137.238 31.3914 137.236C30.9904 137.234 30.5241 137.376 29.9924 137.661L29.2587 136.864L29.279 132.989L34.0708 133.015Z" fill="#F68A73"/>
<path d="M53.8012 133.116L57.0161 133.133L56.9748 141.074L55.2708 141.065L55.3039 134.636L53.793 134.628L53.8012 133.116Z" fill="#737072"/>
<path d="M62.041 134.499C61.5483 134.497 61.1676 134.659 60.8973 134.987C60.6269 135.316 60.4595 135.763 60.3964 136.331C60.8905 136.014 61.4139 135.858 61.9659 135.861C62.7078 135.865 63.3259 136.112 63.8192 136.598C64.3126 137.086 64.5567 137.731 64.5529 138.539C64.5484 139.345 64.2796 139.989 63.7426 140.471C63.2057 140.954 62.5321 141.192 61.7233 141.188C61.1623 141.185 60.6765 141.075 60.265 140.857C59.8534 140.64 59.5358 140.336 59.3105 139.949C58.8599 139.197 58.6384 138.256 58.6436 137.128C58.6474 136.401 58.7383 135.765 58.9192 135.216C59.1002 134.667 59.3473 134.235 59.6589 133.918C60.268 133.285 61.0189 132.971 61.9126 132.977C62.2835 132.979 62.6365 133.035 62.9744 133.147C63.3093 133.258 63.5684 133.372 63.7501 133.485C63.9311 133.601 64.1301 133.745 64.3494 133.92L63.5031 135.165C63.4573 135.12 63.3927 135.059 63.3056 134.981C63.2185 134.907 63.0465 134.806 62.7904 134.683C62.5313 134.563 62.2828 134.501 62.041 134.499ZM61.7924 137.36C61.441 137.359 61.1451 137.462 60.9048 137.669C60.6645 137.875 60.5451 138.147 60.5428 138.479C60.5413 138.814 60.654 139.099 60.88 139.339C61.106 139.578 61.3884 139.7 61.7301 139.701C62.0695 139.703 62.3541 139.598 62.5839 139.388C62.8122 139.177 62.9263 138.903 62.9278 138.566C62.9293 138.229 62.8287 137.944 62.6252 137.712C62.4232 137.48 62.1446 137.362 61.7924 137.36Z" fill="#737072"/>
<path d="M83.3813 133.27L86.5962 133.286L86.5548 141.226L84.8509 141.217L84.884 134.788L83.373 134.78L83.3813 133.27Z" fill="#737072"/>
<path d="M88.1279 135.838L88.1415 133.294L93.8765 133.323L93.8697 134.664L90.6211 141.248L88.6911 141.238L91.7911 134.835L89.792 134.824L89.7868 135.847L88.1279 135.838Z" fill="#737072"/>
<path d="M113.128 133.424L116.343 133.44L116.302 141.381L114.598 141.372L114.631 134.943L113.12 134.936L113.128 133.424Z" fill="#737072"/>
<path d="M119.027 133.898C119.554 133.484 120.212 133.279 120.999 133.283C121.788 133.287 122.441 133.499 122.962 133.919C123.482 134.337 123.74 134.852 123.737 135.461C123.734 136.071 123.497 136.593 123.026 137.031C123.683 137.541 124.008 138.21 124.004 139.035C124 139.732 123.717 140.318 123.153 140.791C122.591 141.267 121.859 141.501 120.957 141.496C120.056 141.492 119.328 141.25 118.769 140.769C118.212 140.29 117.935 139.7 117.939 139.004C117.943 138.179 118.276 137.514 118.937 137.01C118.463 136.56 118.227 136.034 118.23 135.428C118.232 134.822 118.497 134.311 119.027 133.898ZM120.104 139.748C120.366 139.928 120.655 140.017 120.964 140.019C121.274 140.02 121.563 139.934 121.829 139.757C122.094 139.581 122.229 139.322 122.231 138.98C122.232 138.64 122.105 138.378 121.849 138.194C121.592 138.012 121.301 137.919 120.975 137.918C120.649 137.916 120.358 138.005 120.099 138.185C119.841 138.366 119.711 138.627 119.709 138.967C119.708 139.308 119.838 139.569 120.104 139.748ZM120.228 136.278C120.444 136.46 120.695 136.552 120.982 136.554C121.271 136.555 121.523 136.466 121.739 136.285C121.957 136.104 122.064 135.881 122.066 135.612C122.067 135.343 121.963 135.117 121.752 134.933C121.541 134.751 121.287 134.659 120.992 134.657C120.697 134.656 120.442 134.745 120.23 134.924C120.017 135.106 119.909 135.332 119.908 135.6C119.907 135.87 120.014 136.095 120.228 136.278Z" fill="#737072"/>
<path d="M142.763 133.577L145.978 133.594L145.937 141.535L144.233 141.526L144.266 135.097L142.755 135.089L142.763 133.577Z" fill="#737072"/>
<path d="M150.078 140.124C150.57 140.127 150.951 139.964 151.221 139.636C151.492 139.308 151.658 138.86 151.722 138.292C151.237 138.617 150.714 138.775 150.153 138.773C149.411 138.769 148.794 138.522 148.3 138.032C147.807 137.54 147.563 136.894 147.566 136.09C147.57 135.287 147.841 134.643 148.376 134.157C148.913 133.671 149.587 133.431 150.397 133.436C150.956 133.439 151.443 133.548 151.854 133.767C152.266 133.985 152.588 134.287 152.82 134.674C153.263 135.426 153.482 136.367 153.476 137.495C153.473 138.223 153.38 138.859 153.199 139.408C153.018 139.956 152.776 140.388 152.472 140.704C151.848 141.338 151.092 141.652 150.207 141.647C149.836 141.645 149.48 141.588 149.14 141.476C148.8 141.364 148.543 141.253 148.371 141.143C148.196 141.032 147.997 140.89 147.771 140.714L148.663 139.47C148.715 139.515 148.785 139.575 148.871 139.647C148.958 139.72 149.127 139.817 149.375 139.939C149.623 140.061 149.858 140.124 150.078 140.124ZM150.337 137.262C150.69 137.264 150.983 137.164 151.219 136.961C151.455 136.757 151.574 136.489 151.575 136.156C151.577 135.822 151.465 135.533 151.239 135.29C151.013 135.047 150.729 134.924 150.389 134.922C150.048 134.921 149.77 135.027 149.552 135.241C149.336 135.457 149.226 135.731 149.225 136.064C149.223 136.398 149.319 136.68 149.515 136.911C149.712 137.145 149.986 137.26 150.337 137.262Z" fill="#737072"/>
<path d="M176.415 136.846C176.617 136.563 176.719 136.289 176.72 136.025C176.722 135.759 176.636 135.537 176.462 135.359C176.288 135.18 176.066 135.089 175.793 135.088C175.293 135.085 174.818 135.44 174.368 136.148L172.952 135.3C173.326 134.726 173.735 134.294 174.181 134C174.625 133.707 175.189 133.563 175.875 133.566C176.559 133.57 177.161 133.79 177.678 134.229C178.194 134.666 178.45 135.26 178.446 136.01C178.444 136.42 178.336 136.811 178.127 137.185C177.917 137.559 177.531 138.035 176.968 138.616L175.528 140.097L178.662 140.114L178.654 141.704L173.056 141.675L173.063 140.357L175.403 137.983C175.876 137.508 176.214 137.13 176.415 136.846Z" fill="#737072"/>
<path d="M183.187 141.817C182.088 141.811 181.27 141.434 180.727 140.685C180.187 139.937 179.92 138.939 179.927 137.694C179.934 136.448 180.21 135.454 180.758 134.709C181.308 133.967 182.131 133.599 183.23 133.605C184.327 133.611 185.147 133.987 185.689 134.735C186.23 135.485 186.498 136.482 186.491 137.727C186.484 138.973 186.206 139.967 185.658 140.71C185.108 141.454 184.285 141.823 183.187 141.817ZM182.048 135.791C181.795 136.274 181.667 136.913 181.663 137.709C181.659 138.503 181.78 139.145 182.029 139.63C182.276 140.117 182.665 140.361 183.194 140.364C183.724 140.367 184.116 140.127 184.367 139.643C184.621 139.16 184.749 138.52 184.753 137.725C184.756 136.929 184.635 136.289 184.387 135.804C184.14 135.317 183.751 135.073 183.221 135.071C182.692 135.067 182.301 135.307 182.048 135.791Z" fill="#737072"/>
<path d="M205.661 136.998C205.863 136.716 205.965 136.442 205.967 136.177C205.968 135.911 205.882 135.69 205.709 135.511C205.535 135.332 205.312 135.241 205.039 135.241C204.539 135.238 204.064 135.592 203.615 136.3L202.198 135.452C202.572 134.879 202.981 134.446 203.427 134.152C203.871 133.859 204.435 133.715 205.121 133.719C205.805 133.723 206.407 133.942 206.924 134.381C207.44 134.818 207.696 135.413 207.692 136.162C207.69 136.572 207.583 136.963 207.373 137.336C207.164 137.71 206.777 138.186 206.214 138.767L204.774 140.249L207.909 140.266L207.9 141.856L202.302 141.826L202.309 140.508L204.65 138.135C205.122 137.66 205.459 137.281 205.661 136.998Z" fill="#737072"/>
<path d="M208.909 133.919L212.124 133.935L212.082 141.876L210.378 141.867L210.411 135.438L208.9 135.431L208.909 133.919Z" fill="#737072"/>
<path d="M27.1997 155.144C27.4017 154.861 27.5039 154.587 27.5054 154.323C27.5069 154.057 27.4205 153.835 27.247 153.656C27.0728 153.478 26.8505 153.387 26.5772 153.386C26.0771 153.383 25.6017 153.738 25.1526 154.446L23.7363 153.598C24.1103 153.024 24.5196 152.591 24.9649 152.298C25.4087 152.006 25.9734 151.861 26.659 151.864C27.3432 151.868 27.9447 152.087 28.4621 152.527C28.978 152.965 29.2341 153.558 29.2303 154.308C29.2281 154.717 29.1207 155.108 28.9112 155.482C28.7009 155.856 28.3149 156.332 27.7517 156.913L26.3121 158.395L29.4466 158.411L29.4383 160.001L23.84 159.972L23.8467 158.654L26.1874 156.28C26.6605 155.806 26.9977 155.428 27.1997 155.144Z" fill="#F68A73"/>
<path d="M34.0713 155.18C34.2733 154.897 34.3754 154.623 34.3769 154.359C34.3784 154.093 34.2921 153.871 34.1193 153.693C33.9451 153.514 33.7228 153.423 33.4502 153.422C32.9501 153.42 32.4747 153.774 32.0257 154.482L30.6094 153.634C30.9834 153.06 31.3919 152.628 31.8372 152.335C32.281 152.042 32.8457 151.897 33.5321 151.9C34.2162 151.904 34.8177 152.124 35.3344 152.563C35.8503 153.001 36.1071 153.594 36.1034 154.344C36.1011 154.753 35.9937 155.145 35.7842 155.518C35.5747 155.892 35.1879 156.368 34.6247 156.949L33.1852 158.431L36.3196 158.447L36.3114 160.037L30.713 160.008L30.7198 158.69L33.0605 156.316C33.5321 155.842 33.87 155.463 34.0713 155.18Z" fill="#F68A73"/>
<path d="M57.5569 155.166C57.7589 154.884 57.861 154.61 57.8625 154.345C57.864 154.079 57.7776 153.858 57.6049 153.679C57.4307 153.5 57.2084 153.409 56.9358 153.409C56.4357 153.406 55.9603 153.76 55.5112 154.468L54.0957 153.62C54.4697 153.046 54.8782 152.614 55.3235 152.321C55.7673 152.028 56.332 151.884 57.0177 151.887C57.7018 151.891 58.3033 152.111 58.8207 152.549C59.3366 152.987 59.5927 153.581 59.5889 154.33C59.5867 154.74 59.4793 155.131 59.2698 155.504C59.0603 155.878 58.6735 156.354 58.1111 156.935L56.6707 158.417L59.8052 158.434L59.797 160.024L54.1986 159.994L54.2053 158.676L56.5461 156.303C57.0177 155.828 57.3548 155.45 57.5569 155.166Z" fill="#737072"/>
<path d="M61.2956 153.601L61.3031 152.09L66.164 152.115L66.158 153.342L64.5247 155.184C65.1593 155.293 65.6511 155.563 65.9973 155.993C66.342 156.423 66.5147 156.917 66.5117 157.478C66.5072 158.311 66.2211 158.963 65.6556 159.434C65.0879 159.905 64.3655 160.137 63.4884 160.132C62.6098 160.128 61.7221 159.813 60.8232 159.188L61.5577 157.783C62.3041 158.317 62.974 158.586 63.565 158.589C63.9194 158.59 64.2138 158.504 64.4466 158.332C64.6779 158.157 64.795 157.907 64.7965 157.578C64.798 157.248 64.6674 156.986 64.4023 156.792C64.1395 156.597 63.7715 156.499 63.3029 156.497C63.0536 156.495 62.6999 156.564 62.2448 156.706L62.2516 155.4L63.7835 153.613L61.2956 153.601Z" fill="#737072"/>
<path d="M87.2078 155.32C87.4098 155.037 87.5119 154.763 87.5134 154.499C87.5149 154.233 87.4278 154.011 87.2551 153.832C87.0809 153.654 86.8593 153.564 86.586 153.562C86.0858 153.56 85.6105 153.914 85.1614 154.622L83.7451 153.775C84.1191 153.201 84.5284 152.768 84.9737 152.475C85.4175 152.182 85.9822 152.038 86.6678 152.041C87.352 152.045 87.9535 152.264 88.4709 152.704C88.9868 153.141 89.2429 153.735 89.2391 154.484C89.2369 154.894 89.1295 155.285 88.92 155.658C88.7097 156.033 88.3237 156.509 87.7605 157.089L86.3209 158.571L89.4554 158.588L89.4471 160.178L83.8487 160.149L83.8555 158.83L86.1962 156.457C86.6686 155.982 87.0058 155.604 87.2078 155.32Z" fill="#737072"/>
<path d="M93.6803 156.768L93.6878 155.381L95.3917 155.391L95.3842 156.777L96.2808 156.782L96.2733 158.315L95.3767 158.311L95.3669 160.208L93.663 160.199L93.6728 158.302L90.4805 158.285L90.4872 156.933L93.3401 152.257L95.2716 152.267L92.5561 156.763L93.6803 156.768Z" fill="#737072"/>
<path d="M116.874 155.474C117.076 155.192 117.178 154.917 117.179 154.653C117.181 154.387 117.095 154.166 116.922 153.987C116.748 153.808 116.525 153.717 116.252 153.716C115.752 153.714 115.277 154.068 114.827 154.776L113.411 153.929C113.785 153.355 114.194 152.922 114.639 152.63C115.083 152.337 115.647 152.192 116.333 152.195C117.017 152.199 117.619 152.418 118.136 152.858C118.652 153.296 118.909 153.889 118.905 154.639C118.903 155.048 118.795 155.439 118.586 155.813C118.376 156.188 117.989 156.663 117.426 157.244L115.987 158.726L119.121 158.742L119.113 160.332L113.515 160.303L113.522 158.985L115.862 156.611C116.335 156.136 116.673 155.758 116.874 155.474Z" fill="#737072"/>
<path d="M125.516 152.424L125.508 153.958L122.373 153.941L122.366 155.27C122.601 155.204 122.87 155.171 123.173 155.173C123.939 155.177 124.595 155.41 125.146 155.875C125.696 156.341 125.969 156.964 125.965 157.748C125.961 158.533 125.673 159.178 125.098 159.687C124.523 160.195 123.817 160.446 122.976 160.442C121.9 160.437 121.006 160.034 120.29 159.236L121.227 157.944C121.296 158.013 121.386 158.097 121.499 158.197C121.613 158.295 121.82 158.427 122.122 158.592C122.423 158.755 122.726 158.838 123.029 158.84C123.331 158.841 123.6 158.752 123.836 158.572C124.073 158.391 124.191 158.123 124.194 157.766C124.195 157.412 124.069 157.136 123.817 156.942C123.563 156.746 123.238 156.648 122.836 156.646C122.435 156.644 121.968 156.785 121.437 157.07L120.703 156.272L120.723 152.397L125.516 152.424Z" fill="#737072"/>
<path d="M146.577 155.628C146.779 155.346 146.881 155.072 146.883 154.807C146.884 154.541 146.798 154.32 146.625 154.141C146.451 153.961 146.229 153.871 145.955 153.87C145.455 153.867 144.98 154.222 144.531 154.93L143.115 154.082C143.489 153.508 143.898 153.076 144.343 152.783C144.787 152.49 145.352 152.345 146.037 152.349C146.721 152.352 147.323 152.573 147.839 153.011C148.355 153.449 148.612 154.042 148.608 154.792C148.606 155.201 148.499 155.593 148.289 155.966C148.08 156.341 147.693 156.816 147.131 157.397L145.69 158.879L148.825 158.895L148.816 160.486L143.218 160.456L143.225 159.138L145.566 156.765C146.037 156.29 146.375 155.911 146.577 155.628Z" fill="#737072"/>
<path d="M153.486 153.909C152.994 153.907 152.613 154.069 152.343 154.397C152.072 154.726 151.905 155.173 151.842 155.741C152.336 155.424 152.859 155.269 153.411 155.271C154.154 155.275 154.771 155.522 155.265 156.008C155.757 156.496 156.002 157.141 155.998 157.949C155.994 158.755 155.725 159.399 155.188 159.88C154.651 160.363 153.977 160.602 153.169 160.597C152.608 160.594 152.122 160.485 151.71 160.266C151.299 160.049 150.981 159.745 150.756 159.358C150.305 158.607 150.084 157.665 150.089 156.537C150.093 155.81 150.184 155.173 150.365 154.625C150.546 154.077 150.793 153.645 151.104 153.327C151.713 152.695 152.464 152.381 153.358 152.386C153.729 152.388 154.082 152.444 154.42 152.556C154.755 152.668 155.014 152.781 155.195 152.894C155.376 153.01 155.575 153.155 155.795 153.329L154.948 154.575C154.903 154.529 154.838 154.469 154.75 154.391C154.663 154.317 154.491 154.216 154.235 154.093C153.977 153.973 153.728 153.911 153.486 153.909ZM153.238 156.77C152.887 156.769 152.591 156.872 152.351 157.079C152.111 157.285 151.99 157.557 151.989 157.889C151.987 158.224 152.1 158.509 152.326 158.749C152.552 158.988 152.835 159.11 153.176 159.111C153.516 159.113 153.8 159.008 154.03 158.798C154.258 158.587 154.372 158.313 154.374 157.976C154.375 157.639 154.275 157.354 154.071 157.122C153.869 156.889 153.59 156.772 153.238 156.77Z" fill="#737072"/>
<path d="M176.16 155.78C176.362 155.498 176.464 155.224 176.466 154.959C176.467 154.694 176.381 154.472 176.208 154.293C176.034 154.114 175.812 154.024 175.539 154.023C175.039 154.021 174.564 154.374 174.115 155.083L172.698 154.235C173.072 153.661 173.481 153.228 173.926 152.935C174.37 152.642 174.935 152.498 175.62 152.501C176.304 152.505 176.906 152.725 177.423 153.164C177.939 153.601 178.196 154.195 178.191 154.944C178.189 155.354 178.082 155.745 177.872 156.118C177.663 156.493 177.276 156.969 176.713 157.549L175.273 159.031L178.408 159.048L178.399 160.637L172.801 160.608L172.808 159.29L175.149 156.916C175.62 156.442 175.958 156.064 176.16 155.78Z" fill="#737072"/>
<path d="M179.576 155.247L179.59 152.703L185.325 152.733L185.318 154.074L182.069 160.657L180.139 160.648L183.239 154.245L181.239 154.235L181.234 155.258L179.576 155.247Z" fill="#737072"/>
<path d="M205.904 155.935C206.106 155.652 206.208 155.378 206.21 155.114C206.211 154.848 206.124 154.626 205.951 154.447C205.777 154.269 205.556 154.178 205.282 154.177C204.782 154.175 204.307 154.529 203.858 155.237L202.441 154.389C202.815 153.815 203.225 153.382 203.67 153.089C204.114 152.797 204.679 152.652 205.364 152.655C206.048 152.659 206.65 152.879 207.167 153.318C207.683 153.756 207.939 154.349 207.935 155.099C207.933 155.508 207.826 155.899 207.616 156.273C207.407 156.647 207.02 157.123 206.457 157.704L205.016 159.186L208.151 159.201L208.143 160.791L202.544 160.762L202.551 159.444L204.893 157.07C205.365 156.596 205.702 156.218 205.904 155.935Z" fill="#737072"/>
<path d="M210.473 153.307C211 152.892 211.658 152.688 212.445 152.691C213.234 152.695 213.887 152.907 214.407 153.327C214.927 153.745 215.186 154.261 215.183 154.869C215.18 155.479 214.942 156.002 214.472 156.439C215.128 156.95 215.454 157.618 215.449 158.444C215.446 159.14 215.162 159.726 214.598 160.2C214.036 160.675 213.304 160.909 212.403 160.903C211.502 160.899 210.773 160.658 210.214 160.177C209.657 159.698 209.38 159.108 209.384 158.412C209.388 157.587 209.721 156.922 210.383 156.417C209.908 155.968 209.672 155.441 209.675 154.835C209.678 154.231 209.943 153.72 210.473 153.307ZM211.55 159.157C211.812 159.337 212.101 159.425 212.411 159.428C212.721 159.429 213.009 159.343 213.276 159.166C213.541 158.99 213.676 158.73 213.678 158.389C213.679 158.049 213.552 157.787 213.296 157.603C213.038 157.421 212.747 157.329 212.421 157.327C212.096 157.325 211.805 157.414 211.546 157.593C211.288 157.775 211.158 158.035 211.156 158.375C211.154 158.717 211.284 158.978 211.55 159.157ZM211.674 155.687C211.89 155.869 212.141 155.961 212.428 155.963C212.716 155.964 212.969 155.875 213.185 155.695C213.403 155.513 213.511 155.29 213.513 155.021C213.514 154.753 213.41 154.526 213.199 154.342C212.988 154.161 212.734 154.068 212.439 154.067C212.144 154.065 211.889 154.155 211.677 154.334C211.464 154.516 211.356 154.741 211.354 155.009C211.353 155.278 211.46 155.503 211.674 155.687Z" fill="#737072"/>
<path d="M26.6338 173.959C26.8358 173.677 26.9379 173.403 26.9394 173.138C26.9409 172.872 26.8546 172.651 26.6811 172.472C26.5069 172.293 26.2846 172.203 26.012 172.202C25.5118 172.199 25.0365 172.553 24.5874 173.261L23.1719 172.413C23.5459 171.839 23.9544 171.407 24.3997 171.113C24.8435 170.82 25.4082 170.676 26.0938 170.68C26.778 170.684 27.3795 170.904 27.8961 171.342C28.412 171.779 28.6689 172.374 28.6651 173.123C28.6629 173.533 28.5555 173.925 28.346 174.297C28.1364 174.672 27.7497 175.147 27.1865 175.728L25.7469 177.209L28.8814 177.226L28.8731 178.816L23.2748 178.787L23.2815 177.468L25.6222 175.095C26.0946 174.622 26.4318 174.244 26.6338 173.959Z" fill="#F68A73"/>
<path d="M32.6184 177.406C33.1111 177.408 33.4918 177.246 33.7621 176.918C34.0325 176.589 34.1992 176.142 34.263 175.574C33.7779 175.898 33.2545 176.057 32.6928 176.055C31.9508 176.051 31.3335 175.804 30.8402 175.313C30.3468 174.823 30.1027 174.175 30.1065 173.372C30.111 172.569 30.3813 171.925 30.916 171.439C31.4529 170.954 32.1266 170.713 32.9368 170.718C33.4963 170.721 33.9829 170.83 34.3944 171.049C34.806 171.266 35.1281 171.57 35.3602 171.956C35.8032 172.708 36.0225 173.649 36.0165 174.778C36.0127 175.505 35.9204 176.142 35.7394 176.69C35.5584 177.238 35.3159 177.67 35.0117 177.986C34.3877 178.62 33.6322 178.934 32.7468 178.929C32.3759 178.927 32.0199 178.87 31.6805 178.759C31.3396 178.647 31.0835 178.535 30.9108 178.425C30.7365 178.314 30.5368 178.173 30.3107 177.995L31.2029 176.752C31.2547 176.797 31.3253 176.856 31.4109 176.928C31.498 177.001 31.667 177.099 31.9155 177.22C32.1649 177.342 32.3991 177.404 32.6184 177.406ZM32.8783 174.543C33.2305 174.545 33.5248 174.446 33.7599 174.242C33.9949 174.039 34.1143 173.77 34.1158 173.438C34.1173 173.103 34.0062 172.815 33.7802 172.572C33.5541 172.328 33.2703 172.205 32.9301 172.204C32.5884 172.202 32.3105 172.309 32.0928 172.523C31.8765 172.738 31.7668 173.012 31.7653 173.345C31.7638 173.679 31.86 173.962 32.056 174.193C32.2527 174.425 32.5261 174.541 32.8783 174.543Z" fill="#F68A73"/>
<path d="M53.2204 172.513L53.2279 171.002L58.0881 171.027L58.0821 172.255L56.4488 174.097C57.0833 174.205 57.5752 174.476 57.9214 174.906C58.2661 175.337 58.4388 175.83 58.4365 176.391C58.432 177.224 58.1452 177.876 57.5804 178.346C57.0127 178.817 56.2903 179.049 55.4132 179.045C54.5346 179.04 53.6477 178.726 52.748 178.1L53.4825 176.695C54.2289 177.229 54.898 177.498 55.489 177.501C55.8435 177.503 56.1379 177.417 56.3707 177.244C56.602 177.07 56.7183 176.819 56.7206 176.49C56.7221 176.16 56.5914 175.899 56.3271 175.704C56.0643 175.509 55.6963 175.411 55.2277 175.409C54.9784 175.407 54.6247 175.477 54.1696 175.618L54.1764 174.312L55.7083 172.525L53.2204 172.513Z" fill="#737072"/>
<path d="M62.9639 179.084C61.866 179.078 61.0467 178.702 60.5045 177.952C59.9638 177.204 59.6972 176.207 59.7032 174.961C59.71 173.716 59.9863 172.721 60.5353 171.977C61.0857 171.235 61.908 170.866 63.0059 170.872C64.1038 170.878 64.9231 171.255 65.4653 172.003C66.006 172.752 66.2741 173.75 66.2681 174.995C66.2613 176.24 65.9835 177.235 65.4345 177.978C64.8848 178.721 64.0625 179.089 62.9639 179.084ZM61.8254 173.058C61.5724 173.541 61.4439 174.179 61.4402 174.976C61.4357 175.77 61.5573 176.412 61.8059 176.897C62.053 177.384 62.442 177.628 62.9721 177.631C63.5016 177.634 63.8936 177.393 64.1459 176.909C64.3989 176.426 64.5274 175.786 64.5311 174.991C64.5356 174.196 64.414 173.555 64.1654 173.07C63.9183 172.583 63.5293 172.339 62.9999 172.336C62.469 172.334 62.0777 172.574 61.8254 173.058Z" fill="#737072"/>
<path d="M40.7316 41.0516C40.7316 42.9061 39.2282 44.4099 37.3741 44.4099C35.52 44.4099 34.0166 42.9061 34.0166 41.0516C34.0166 39.1971 35.52 37.6934 37.3741 37.6934C39.2282 37.6941 40.7316 39.1971 40.7316 41.0516Z" fill="#F68A73"/>
<path d="M37.5485 42.4292H37.2045C36.3837 42.4292 35.7176 41.7637 35.7176 40.9428L35.7139 27.3212C35.7139 26.5002 36.3792 25.834 37.2 25.834H37.5439C38.3647 25.834 39.0308 26.4995 39.0308 27.3205L39.0346 40.942C39.0346 41.763 38.3692 42.4285 37.5485 42.4292Z" fill="#737072"/>
<path d="M65.2502 41.0516C65.2502 42.9061 63.7468 44.4099 61.8927 44.4099C60.0386 44.4099 58.5352 42.9061 58.5352 41.0516C58.5352 39.1971 60.0386 37.6934 61.8927 37.6934C63.7468 37.6934 65.2502 39.1971 65.2502 41.0516Z" fill="#F68A73"/>
<path d="M62.067 42.4292H61.7231C60.9023 42.4292 60.2362 41.7637 60.2362 40.9428L60.2324 27.3212C60.2324 26.5002 60.8978 25.834 61.7186 25.834H62.0625C62.8833 25.834 63.5494 26.4995 63.5494 27.3205L63.5531 40.942C63.5531 41.763 62.8878 42.4285 62.067 42.4292Z" fill="#737072"/>
<path d="M89.7678 41.0516C89.7678 42.9061 88.2644 44.4099 86.4102 44.4099C84.5561 44.4099 83.0527 42.9061 83.0527 41.0516C83.0527 39.1971 84.5561 37.6934 86.4102 37.6934C88.2651 37.6941 89.7678 39.1971 89.7678 41.0516Z" fill="#F68A73"/>
<path d="M86.5846 42.4292H86.2406C85.4199 42.4292 84.7538 41.7637 84.7538 40.9428L84.75 27.3212C84.75 26.5002 85.4153 25.834 86.2361 25.834H86.5801C87.4009 25.834 88.067 26.4995 88.067 27.3205L88.0707 40.942C88.0715 41.763 87.4061 42.4285 86.5846 42.4292Z" fill="#737072"/>
<path d="M114.285 41.0516C114.285 42.9061 112.782 44.4099 110.928 44.4099C109.074 44.4099 107.57 42.9061 107.57 41.0516C107.57 39.1971 109.074 37.6934 110.928 37.6934C112.783 37.6941 114.285 39.1971 114.285 41.0516Z" fill="#F68A73"/>
<path d="M111.103 42.4292H110.759C109.938 42.4292 109.272 41.7637 109.272 40.9428L109.269 27.3212C109.269 26.5002 109.934 25.834 110.755 25.834H111.099C111.919 25.834 112.586 26.4995 112.586 27.3205L112.589 40.942C112.589 41.763 111.924 42.4285 111.103 42.4292Z" fill="#737072"/>
<path d="M138.804 41.0516C138.804 42.9061 137.3 44.4099 135.446 44.4099C133.592 44.4099 132.089 42.9061 132.089 41.0516C132.089 39.1971 133.592 37.6934 135.446 37.6934C137.3 37.6941 138.804 39.1971 138.804 41.0516Z" fill="#F68A73"/>
<path d="M135.62 42.4292H135.276C134.455 42.4292 133.789 41.7637 133.789 40.9428L133.785 27.3212C133.785 26.5002 134.451 25.834 135.271 25.834H135.615C136.436 25.834 137.102 26.4995 137.102 27.3205L137.106 40.942C137.106 41.763 136.441 42.4285 135.62 42.4292Z" fill="#737072"/>
<path d="M163.322 41.0516C163.322 42.9061 161.82 44.4099 159.965 44.4099C158.11 44.4099 156.607 42.9061 156.607 41.0516C156.607 39.1971 158.111 37.6934 159.965 37.6934C161.819 37.6934 163.322 39.1971 163.322 41.0516Z" fill="#F68A73"/>
<path d="M160.139 42.4292H159.795C158.975 42.4292 158.308 41.7637 158.308 40.9428L158.305 27.3212C158.305 26.5002 158.97 25.834 159.791 25.834H160.135C160.956 25.834 161.622 26.4995 161.622 27.3205L161.625 40.942C161.625 41.763 160.96 42.4285 160.139 42.4292Z" fill="#737072"/>
<path d="M187.84 41.0516C187.84 42.9061 186.337 44.4099 184.483 44.4099C182.628 44.4099 181.125 42.9061 181.125 41.0516C181.125 39.1971 182.628 37.6934 184.483 37.6934C186.337 37.6941 187.84 39.1971 187.84 41.0516Z" fill="#F68A73"/>
<path d="M184.657 42.4292H184.313C183.492 42.4292 182.826 41.7637 182.826 40.9428L182.822 27.3212C182.822 26.5002 183.488 25.834 184.308 25.834H184.652C185.473 25.834 186.139 26.4995 186.139 27.3205L186.143 40.942C186.144 41.763 185.478 42.4285 184.657 42.4292Z" fill="#737072"/>
<path d="M212.358 41.0516C212.358 42.9061 210.854 44.4099 209 44.4099C207.146 44.4099 205.643 42.9061 205.643 41.0516C205.643 39.1971 207.146 37.6934 209 37.6934C210.855 37.6941 212.358 39.1971 212.358 41.0516Z" fill="#F68A73"/>
<path d="M209.174 42.4292H208.83C208.01 42.4292 207.344 41.7637 207.344 40.9428L207.34 27.3212C207.34 26.5002 208.005 25.834 208.826 25.834H209.17C209.991 25.834 210.657 26.4995 210.657 27.3205L210.661 40.942C210.661 41.763 209.996 42.4285 209.174 42.4292Z" fill="#737072"/>
<path d="M236.876 41.0516C236.876 42.9061 235.373 44.4099 233.519 44.4099C231.665 44.4099 230.161 42.9061 230.161 41.0516C230.161 39.1971 231.665 37.6934 233.519 37.6934C235.373 37.6941 236.876 39.1971 236.876 41.0516Z" fill="#F68A73"/>
<path d="M233.694 42.4292H233.35C232.529 42.4292 231.863 41.7637 231.863 40.9428L231.859 27.3212C231.859 26.5002 232.525 25.834 233.346 25.834H233.689C234.51 25.834 235.176 26.4995 235.176 27.3205L235.18 40.942C235.18 41.763 234.515 42.4285 233.694 42.4292Z" fill="#737072"/>
<path d="M261.396 41.0516C261.396 42.9061 259.892 44.4099 258.038 44.4099C256.184 44.4099 254.681 42.9061 254.681 41.0516C254.681 39.1971 256.183 37.6934 258.038 37.6934C259.892 37.6941 261.396 39.1971 261.396 41.0516Z" fill="#F68A73"/>
<path d="M258.213 42.4292H257.869C257.048 42.4292 256.382 41.7637 256.382 40.9428L256.378 27.3212C256.378 26.5002 257.043 25.834 257.864 25.834H258.208C259.029 25.834 259.695 26.4995 259.695 27.3205L259.699 40.942C259.699 41.763 259.033 42.4285 258.213 42.4292Z" fill="#737072"/>
<mask id="mask0_5055_2005" style="mask-type:luminance" maskUnits="userSpaceOnUse" x="0" y="7" width="338" height="321">
<path d="M312.324 185.256C307.03 171.878 304.976 158.669 308.925 141.878C312.137 128.224 317.155 114.87 318.07 100.872C323.404 19.3239 274.501 -5.39851 216.709 14.0645C198.189 20.3011 157.214 32.7434 137.286 34.2509C100.643 37.0225 76.8546 25.4778 55.7963 25.1698C18.3207 24.623 -13.9561 75.5069 6.1995 109.12C12.7448 120.036 17.1424 132.945 25.5674 142.484C43.4018 162.676 32.519 191.384 25.7018 217.633C21.4341 234.065 11.7265 251.678 21.1751 276.44C23.497 282.524 30.7993 286.681 32.938 292.389C40.6796 313.046 60.3284 327.412 84.838 327.979C117.803 328.74 145.876 308.613 175.291 296.811C189.854 290.968 205.075 286.893 220.889 288.29C239.791 289.96 256.801 299.586 276.035 300.59C300.356 301.859 325.467 289.558 334.318 265.86C342.338 244.389 332.339 224.393 322.228 205.698C318.357 198.539 314.944 191.876 312.324 185.256Z" fill="white"/>
</mask>
<g mask="url(#mask0_5055_2005)">
<path d="M123.778 164.274C125.577 168.712 100.881 169.518 103.688 163.902C106.496 158.286 106.535 148.458 106.535 148.458H122.601C122.601 148.458 121.979 159.835 123.778 164.274Z" fill="#FFC4C2"/>
<path d="M109.889 148.458C110.342 153.397 113.643 156.358 118.904 158.179C120.139 158.606 121.448 158.942 122.752 159.125C122.287 154.206 122.601 148.458 122.601 148.458H109.889Z" fill="#FFADAA"/>
<path d="M130.858 133.393C130.763 132.49 130.03 128.698 129.584 126.433C129.489 125.891 129.384 125.374 129.274 124.868C129.255 124.771 129.241 124.704 129.241 124.704L129.239 124.712C127.118 115.115 122.434 111.809 115.688 111.809C106.897 111.809 99.7715 121.801 99.7715 134.128C99.7715 146.455 110.221 152.397 118.88 153.911C128.619 155.615 130.563 154.383 131.092 148.581C131.092 148.58 131.094 148.578 131.095 148.577C131.958 146.154 131.685 141.522 133.2 140.351C134.715 139.18 130.995 134.702 130.858 133.393Z" fill="#FFC4C2"/>
<path d="M136.282 113.838C135.52 111.365 132.882 112.759 130.941 114.219C130.899 114.041 136.626 110.542 134.893 109.329C132.174 107.426 129.38 111.056 129.198 110.902C130.872 109.113 130.468 108.895 129.114 108.491C128.601 108.337 126.889 108.473 124.953 109.562C123.161 110.57 121.155 111.146 119.1 111.053C117.142 110.964 114.383 110.756 109.327 110.521C97.7237 109.981 96.2848 120.867 96.2848 120.867C96.2848 120.867 91.5178 124.465 92.1471 132.022C92.7764 139.579 106.179 151.275 106.179 151.275C106.179 151.275 111.936 153.704 117.872 148.486C123.808 143.268 120.75 139.67 123.33 136.871C125.912 134.072 123.358 132.922 122.818 128.244C122.278 123.566 128.625 122.345 128.625 122.345C135.758 117.408 136.69 115.161 136.282 113.838Z" fill="#232323"/>
<path d="M123.483 136.098C124.577 138.238 124.053 140.696 122.31 141.588C120.567 142.481 118.266 141.47 117.171 139.33C116.075 137.19 116.6 134.732 118.343 133.839C120.086 132.947 122.387 133.958 123.483 136.098Z" fill="#FFC4C2"/>
<path d="M138.857 326.181H88.824L81.8281 274.309H145.854L138.857 326.181Z" fill="#D15332"/>
<path d="M107.011 287.509C107.011 287.509 107.757 293.914 113.111 300.695L113.199 326.181" stroke="#A34127" stroke-width="3.2902" stroke-miterlimit="10"/>
<path d="M173.897 110.012C173.897 110.012 171.331 111.811 171.19 114.376C171.076 116.455 171.773 120.608 172.993 121.828C174.213 123.048 174.702 122.205 174.702 122.205L173.897 110.012Z" fill="#FFC4C2"/>
<path d="M182.607 128.568C182.607 128.568 183.743 124.604 184.592 115.257C184.715 113.898 185.382 111.174 183.933 110.219C183.622 110.014 182.518 109.265 182.024 110.776C182.293 108.91 179.872 108.307 179.521 110.144C179.482 108.155 177.014 108.218 176.717 109.929C176.808 107.615 176.717 106.612 176.717 104.141C176.717 101.671 176.505 100.26 175.729 100.189C174.953 100.118 174.029 99.4671 172.886 111.977C172.625 114.829 172.354 117.654 172.45 119.463C172.619 122.641 173.052 124.828 174.265 125.65C177.769 129.038 182.607 128.568 182.607 128.568Z" fill="#FFC4C2"/>
<path d="M69.8623 243.574L76.9596 242.693C78.2602 242.643 79.4738 243.439 80.0971 244.75L81.7064 247.563L69.8623 243.574Z" fill="#FFADAA"/>
<path d="M70.0876 243.036C70.0876 243.036 84.162 246.74 84.0493 248.35C83.8683 250.951 81.6823 256.264 80.83 257.684C80.4087 258.385 79.7073 258.984 77.2044 258.536C75.4329 258.22 72.6078 257.313 70.7717 255.97C67.4397 253.533 66.8164 250.853 66.8164 250.853L70.0876 243.036Z" fill="#FFC4C2"/>
<path d="M83.0812 252.353C83.5821 250.867 83.9771 249.391 84.0499 248.35C84.1618 246.74 70.0874 243.036 70.0874 243.036L69.4033 244.671C73.8279 247.349 78.3877 250.067 83.0812 252.353Z" fill="#FFADAA"/>
<path d="M83.5003 251.014C83.2735 251.014 83.0422 250.965 82.8229 250.862L78.6521 248.892C77.8591 248.518 77.5189 247.57 77.8936 246.776C78.2683 245.983 79.2153 245.643 80.0091 246.018L84.1806 247.987C84.9736 248.362 85.3138 249.309 84.9391 250.103C84.6672 250.678 84.0958 251.014 83.5003 251.014Z" fill="#FFADAA"/>
<path d="M82.4121 253.972C82.1853 253.972 81.9541 253.923 81.7348 253.82L77.5632 251.85C76.7702 251.476 76.43 250.528 76.8048 249.734C77.1795 248.94 78.1264 248.601 78.9202 248.976L83.0918 250.945C83.8848 251.32 84.2249 252.267 83.8502 253.061C83.5791 253.636 83.0084 253.972 82.4121 253.972Z" fill="#FFC4C2"/>
<path d="M84.0014 252.431C84.0194 251.818 83.6823 251.223 83.0928 250.945L78.922 248.975C78.2866 248.675 77.5582 248.839 77.0986 249.321C79.326 250.481 81.6607 251.559 84.0014 252.431Z" fill="#FFADAA"/>
<path d="M81.3245 256.929C81.0969 256.929 80.8664 256.88 80.6471 256.777L76.4763 254.807C75.6833 254.433 75.3431 253.485 75.7178 252.691C76.0926 251.898 77.0395 251.558 77.8333 251.933L82.0048 253.902C82.7978 254.277 83.138 255.224 82.7633 256.018C82.4914 256.593 81.92 256.929 81.3245 256.929Z" fill="#FFC4C2"/>
<path d="M80.2375 259.887C80.01 259.887 79.7795 259.838 79.5602 259.735L75.3894 257.765C74.5964 257.391 74.2562 256.443 74.6309 255.649C75.0056 254.856 75.9526 254.516 76.7464 254.891L80.9172 256.86C81.7102 257.235 82.0504 258.182 81.6756 258.976C81.4038 259.551 80.8331 259.887 80.2375 259.887Z" fill="#FFC4C2"/>
<path d="M96.8018 165.436C96.4647 165.269 103.464 158.923 103.464 158.923C103.464 158.923 107.435 160.083 124.757 159.959L131.76 166.075C131.76 166.075 117.962 175.878 96.8018 165.436Z" fill="#6D80D9"/>
<path d="M172.318 123.021L172.429 126.746C172.05 136.387 164.462 159.611 164.462 159.611L147.564 165.732C133.319 163.428 123.777 164.274 123.777 164.274L103.688 163.902C103.688 163.902 78.2776 170.594 73.5526 174.957C68.8276 179.319 35.6151 216.313 35.4334 221.402C35.2517 226.492 66.8158 250.852 66.8158 250.852L70.087 243.036C70.087 243.036 65.3635 230.393 56.2912 220.264L78.1522 207.072C79.2396 220.766 79.3155 226.239 80.3277 239.13C82.0685 261.301 79.2479 282.257 79.2479 282.257C116.536 294.618 151.587 281.44 151.587 281.44C151.587 281.44 147.179 259.93 146.103 238.416C145.028 216.902 152.805 196.522 152.805 196.522C152.805 196.522 179.544 176.163 180.172 169.559C180.801 162.955 183.498 133.194 183.498 133.194L184.062 126.681L172.318 123.021Z" fill="#6D80D9"/>
<path d="M174.108 169.527C171.906 173.96 150.928 190.034 148.51 191.289C142.522 194.399 141.736 199.488 141.909 205.799C142.051 211.004 142.875 216.162 143.033 221.366C143.327 231.081 143.679 241.242 147.008 250.355C146.624 246.469 146.305 242.443 146.104 238.416C145.029 216.903 152.806 196.523 152.806 196.523C152.806 196.523 179.545 176.164 180.174 169.56C180.802 162.956 183.499 133.194 183.499 133.194L184.063 126.682L182.815 126.293C182.195 129.766 175.876 165.966 174.108 169.527Z" fill="#5868B0"/>
<path d="M92.8349 285.728C88.5455 278.565 87.3875 270.935 86.6989 262.252C85.7024 249.677 85.6753 237.08 84.9559 224.496C84.6443 219.047 84.25 213.812 84.4941 208.35C84.6705 204.409 84.9108 200.384 84.1343 196.522C78.9107 201.046 72.3038 203.879 66.5628 207.653C61.6876 210.859 53.4661 213.392 50.7739 218.958C48.0322 224.626 56.0486 231.697 59.5143 235.19C62.7141 238.415 66.3104 241.463 69.2752 244.973L70.0862 243.035C70.0862 243.035 65.3627 230.392 56.2904 220.262L78.1523 207.07C79.2396 220.765 79.3155 226.238 80.3278 239.129C82.0685 261.3 79.2479 282.255 79.2479 282.255C83.8317 283.776 88.381 284.908 92.8349 285.728Z" fill="#5868B0"/>
<path d="M131.761 267.403C131.761 267.403 104.128 271.814 89.7109 258.69C89.7109 258.69 100.902 281.823 131.761 267.403Z" fill="#5868B0"/>
<path d="M125.162 167.861C123.379 169.228 121.246 170.1 119.061 170.654C116.868 171.211 114.58 171.446 112.309 171.319C110.048 171.147 107.78 170.795 105.668 169.973C104.587 169.649 103.59 169.095 102.582 168.616C101.598 168.081 100.669 167.441 99.7715 166.791C100.873 167.046 101.891 167.437 102.949 167.705C104.011 167.957 105.033 168.29 106.095 168.47L107.664 168.792L109.246 169.018C109.769 169.111 110.298 169.155 110.826 169.201C111.354 169.24 111.879 169.325 112.41 169.313L113.998 169.383C114.527 169.371 115.056 169.347 115.587 169.347C116.649 169.322 117.708 169.223 118.771 169.113C120.9 168.866 123.02 168.471 125.162 167.861Z" fill="#5868B0"/>
<path d="M71.7324 309.495C72.2093 307.045 75.0959 298.682 74.8309 296.213C74.4974 293.106 73.392 290.142 71.6348 287.558C65.4019 278.394 62.5062 280.025 60.5011 273.542C52.52 247.741 38.6326 258.526 26.6999 247.755C26.6999 247.755 24.9997 263.094 26.9785 265.646C28.4466 267.539 30.5801 268.723 32.9103 269.278C34.0795 269.557 35.0422 270.213 35.6272 271.43C36.804 273.879 35.9231 275.622 34.1591 276.909C31.4226 278.906 30.0672 282.335 30.9691 285.602C32.9906 292.919 38.0626 296.854 44.7213 297.115C53.6089 297.463 37.4438 337.656 77.5666 326.441C77.5666 326.441 89.8034 316.423 79.6618 300.846C79.685 302.312 71.2848 311.794 71.7324 309.495ZM60.7692 307.141C60.39 308.051 59.2215 308.41 58.3572 308.015C57.3058 307.534 56.3288 307.239 55.2745 306.918C54.302 306.621 53.6682 305.873 53.8169 304.805C53.9415 303.911 55.0169 303.07 55.9286 303.348C57.2653 303.755 58.6207 304.146 59.8951 304.728C60.8173 305.149 61.1447 306.24 60.7692 307.141ZM52.5485 271.517C52.6101 273.844 48.9927 274.143 48.9312 271.803C48.8929 270.345 48.8794 268.866 48.4108 267.471C47.6658 265.257 51.0766 264.02 51.8216 266.235C52.3991 267.953 52.5005 269.721 52.5485 271.517Z" fill="#8C9EF2"/>
<path d="M26.6826 247.92C26.5076 249.566 25.1191 263.249 26.9792 265.646C28.4473 267.539 30.5808 268.724 32.911 269.279C34.0802 269.557 35.043 270.213 35.6279 271.431C36.8047 273.879 35.9238 275.623 34.1598 276.909C31.4233 278.907 30.0679 282.336 30.9698 285.602C32.9913 292.92 38.0633 296.855 44.722 297.115C53.6096 297.463 37.4445 337.657 77.5673 326.441C77.5673 326.441 53.9535 274.236 26.6826 247.92ZM60.7692 307.14C60.3899 308.051 59.2215 308.41 58.3571 308.015C57.3058 307.534 56.3288 307.239 55.2744 306.917C54.302 306.621 53.6681 305.873 53.8168 304.805C53.9415 303.911 55.0169 303.069 55.9285 303.347C57.2652 303.755 58.6207 304.146 59.8951 304.728C60.8172 305.149 61.1447 306.24 60.7692 307.14Z" fill="#6D80D9"/>
<path d="M92.1316 361.835C91.823 360.984 72.5392 302.431 41.8867 265.446" stroke="white" stroke-width="0.9663" stroke-miterlimit="10" stroke-linecap="round" stroke-linejoin="round"/>
<path d="M53.7668 281.572C53.7668 281.572 44.259 282.887 38.2656 280.842" stroke="white" stroke-width="0.9663" stroke-miterlimit="10" stroke-linecap="round" stroke-linejoin="round"/>
<path d="M63.8955 283.745C63.8955 283.745 62.929 288.28 59.6924 290.982" stroke="white" stroke-width="0.9663" stroke-miterlimit="10" stroke-linecap="round" stroke-linejoin="round"/>
<path d="M59.7139 314.636C59.7139 314.636 65.9566 318.393 73.5712 316.847" stroke="white" stroke-width="0.9663" stroke-miterlimit="10" stroke-linecap="round" stroke-linejoin="round"/>
<path d="M79.1389 310.208C79.1389 310.208 79.8869 315.67 75.7559 321.443" stroke="white" stroke-width="0.9663" stroke-miterlimit="10" stroke-linecap="round" stroke-linejoin="round"/>
<path d="M253.237 268.686C259.124 242.766 273.953 229.219 266.104 223.766C258.101 218.207 233.095 238.566 231.822 256.72C231.212 260.964 232.259 266.591 230.744 264.717C225.946 258.777 226.228 254.701 224.733 246.356C224.386 244.415 223.062 242.714 221.175 242.143C219.11 241.517 216.836 242.249 214.368 245.071C207.627 252.781 208.905 266.22 213.175 286.339C212.295 284.979 211.121 283.729 209.536 283.031C206.95 281.893 202.159 279.806 200.046 282.835C198.196 285.487 199.424 290.196 199.919 293.069C201.6 302.829 209.785 308.347 216.408 314.924C217.997 316.503 219.498 318.142 220.796 319.917C223.155 323.14 224.325 328.478 229.063 328.867C232.213 329.125 235.447 328.871 238.571 328.464C243.091 327.875 246.703 325.52 247.606 320.819C247.989 318.824 259.142 311.878 261.755 310.401C279.804 300.192 262.029 291.412 250.561 301.678C259.591 286.189 265.207 282.831 269.587 277.716C294.726 256.485 275.979 243.375 253.237 268.686ZM252.041 246.692C253.447 244.38 255.156 242.36 257.203 240.591C257.974 239.924 259.281 240.283 259.819 241.049C260.444 241.938 260.127 243.003 259.361 243.665C257.836 244.983 256.477 246.589 255.429 248.312C254.901 249.181 253.919 249.672 252.926 249.197C252.076 248.79 251.514 247.559 252.041 246.692ZM218.905 277.197C216.989 273.491 215.658 269.609 215.491 265.412C215.395 263 219.136 262.683 219.233 265.101C219.387 268.979 220.663 272.482 222.431 275.902C223.541 278.05 219.999 279.313 218.905 277.197ZM257.054 288.554C255.864 289.416 254.698 290.315 253.732 291.429C252.146 293.256 249.278 290.831 250.865 289.003C252.035 287.655 253.455 286.524 254.896 285.48C256.86 284.057 259.009 287.138 257.054 288.554Z" fill="#8C9EF2"/>
<path d="M265.51 223.435C256.944 219.165 233.065 238.987 231.822 256.719C231.212 260.964 232.259 266.591 230.744 264.716C225.946 258.776 226.228 254.701 224.733 246.356C224.386 244.415 223.062 242.714 221.175 242.142C219.11 241.517 216.836 242.249 214.368 245.071C207.627 252.78 208.905 266.22 213.175 286.339C212.295 284.979 211.121 283.729 209.536 283.031C206.95 281.892 202.159 279.806 200.046 282.835C198.196 285.487 199.424 290.196 199.919 293.069C201.6 302.828 209.785 308.347 216.408 314.923C217.997 316.502 219.498 318.142 220.796 319.917C223.155 323.14 224.325 328.477 229.063 328.867C229.678 328.917 230.297 328.947 230.916 328.96C229.6 323.513 232.876 251.242 265.51 223.435ZM218.905 277.198C216.989 273.491 215.658 269.609 215.491 265.413C215.395 263.001 219.136 262.684 219.233 265.101C219.387 268.979 220.663 272.482 222.431 275.902C223.541 278.05 219.999 279.314 218.905 277.198Z" fill="#6D80D9"/>
<path d="M260.526 229.822C258.931 231.019 257.493 232.586 256.208 234.193L255.237 235.408C254.913 235.813 254.637 236.256 254.335 236.678L253.446 237.958L253.002 238.598L252.598 239.265L250.988 241.939C250.451 242.83 250.011 243.777 249.516 244.694C249.047 245.623 248.528 246.528 248.099 247.477L246.819 250.33C246.408 251.288 245.933 252.218 245.572 253.197L244.451 256.118L243.329 259.039L242.355 262.014L241.387 264.99C241.061 265.982 240.731 266.972 240.476 267.985L238.83 274.028L238.419 275.538L238.076 277.067L237.391 280.124C236.948 282.165 236.448 284.194 236.051 286.243L234.941 292.412C234.59 294.47 234.151 296.515 233.901 298.591L233.035 304.799L232.602 307.903L232.386 309.455L232.227 311.014L230.952 323.488L230.95 323.506C230.921 323.794 230.663 324.004 230.375 323.974C230.086 323.945 229.877 323.687 229.906 323.399V323.398L231.224 310.895L231.389 309.333L231.61 307.777L232.054 304.665L232.942 298.441C233.2 296.36 233.646 294.309 234.005 292.245L235.138 286.06C235.543 284.004 236.051 281.968 236.502 279.92L237.2 276.854L237.549 275.321L237.968 273.804L239.64 267.739C239.899 266.723 240.233 265.727 240.564 264.732L241.547 261.743L242.536 258.755L243.674 255.819L244.812 252.883C245.177 251.899 245.659 250.962 246.077 249.999L247.376 247.129C247.813 246.173 248.339 245.261 248.816 244.325C249.317 243.402 249.764 242.449 250.311 241.549L251.947 238.851L252.357 238.177L252.81 237.529L253.715 236.235C254.023 235.807 254.304 235.361 254.635 234.95L255.626 233.716C256.958 232.072 258.37 230.516 260.129 229.206C260.291 229.085 260.52 229.119 260.641 229.281C260.762 229.444 260.728 229.673 260.566 229.794L260.526 229.822Z" fill="white"/>
<path d="M220.416 261.863C220.416 261.863 230.241 273.907 234.018 294.644" stroke="white" stroke-width="1.3978" stroke-miterlimit="10" stroke-linecap="round" stroke-linejoin="round"/>
<path d="M272.559 262.107C272.559 262.107 249.804 271.394 232.606 303.864" stroke="white" stroke-width="1.3978" stroke-miterlimit="10" stroke-linecap="round" stroke-linejoin="round"/>
<path d="M260.809 304.795C260.809 304.795 246.382 305.978 231.336 319.236" stroke="white" stroke-width="1.3978" stroke-miterlimit="10" stroke-linecap="round" stroke-linejoin="round"/>
<path d="M207.553 289.969C207.553 289.969 220.378 298.752 230.302 321.583" stroke="white" stroke-width="1.3978" stroke-miterlimit="10" stroke-linecap="round" stroke-linejoin="round"/>
<path d="M156.695 294.466C155.588 291.18 150.075 280.195 149.986 276.748C149.874 272.408 150.851 268.122 152.795 264.241C159.692 250.476 163.98 252.188 165.548 242.892C171.794 205.897 192.9 218.192 207.35 201.166C207.35 201.166 212.512 221.975 210.256 225.853C208.583 228.73 205.863 230.753 202.757 231.946C201.198 232.545 199.992 233.625 199.411 235.41C198.241 238.998 199.775 241.236 202.44 242.683C206.575 244.93 209.073 249.403 208.431 254.066C206.993 264.515 200.732 270.865 191.611 272.449C179.436 274.562 209.087 326.936 151.776 318.873C151.776 318.873 133.084 307.33 144.184 284.015C144.423 286.037 157.734 297.548 156.695 294.466ZM171.359 289.206C172.049 290.39 173.724 290.67 174.841 289.966C176.201 289.112 177.492 288.525 178.885 287.888C180.169 287.301 180.904 286.154 180.504 284.712C180.168 283.502 178.532 282.542 177.328 283.092C175.562 283.9 173.768 284.687 172.12 285.723C170.927 286.474 170.677 288.035 171.359 289.206ZM176.128 238.641C176.471 241.856 181.507 241.602 181.162 238.369C180.947 236.355 180.693 234.315 181.083 232.308C181.701 229.123 176.777 228.046 176.159 231.233C175.679 233.704 175.863 236.158 176.128 238.641Z" fill="#8C9EF2"/>
<path d="M152.178 318.923C153.548 301.917 181.621 235.18 205.05 203.586C190.749 217.044 171.471 207.816 165.549 242.891C163.979 252.187 159.693 250.475 152.795 264.24C150.85 268.121 149.873 272.407 149.986 276.747C150.075 280.194 155.588 291.18 156.696 294.465C157.734 297.547 144.423 286.036 144.185 284.014C133.085 307.329 151.777 318.872 151.777 318.872C151.914 318.892 152.042 318.905 152.178 318.923ZM176.159 231.232C176.777 228.045 181.702 229.123 181.083 232.308C180.693 234.315 180.948 236.354 181.162 238.369C181.507 241.602 176.471 241.856 176.128 238.641C175.864 236.158 175.679 233.704 176.159 231.232Z" fill="#6D80D9"/>
<path d="M138.23 370.29C138.499 369.061 154.285 284.886 189.693 228.319" stroke="white" stroke-width="1.3424" stroke-miterlimit="10" stroke-linecap="round" stroke-linejoin="round"/>
<path d="M176.299 252.711C176.299 252.711 189.634 252.772 197.51 248.854" stroke="white" stroke-width="1.3424" stroke-miterlimit="10" stroke-linecap="round" stroke-linejoin="round"/>
<path d="M162.752 257.566C162.752 257.566 164.916 263.632 169.87 266.759" stroke="white" stroke-width="1.3424" stroke-miterlimit="10" stroke-linecap="round" stroke-linejoin="round"/>
<path d="M174.19 299.332C174.19 299.332 166.285 305.654 155.516 304.926" stroke="white" stroke-width="1.3424" stroke-miterlimit="10" stroke-linecap="round" stroke-linejoin="round"/>
<path d="M146.628 296.81C146.628 296.81 146.602 304.469 153.352 311.658" stroke="white" stroke-width="1.3424" stroke-miterlimit="10" stroke-linecap="round" stroke-linejoin="round"/>
</g>
<path d="M303.783 147.704C282.004 147.871 262.169 148.024 244.028 148.164C241.821 124.719 241.821 101.31 244.028 77.8652C262.169 78.0049 282.004 78.1582 303.783 78.3257C301.285 101.462 301.285 124.567 303.783 147.704Z" fill="#E5EBFC"/>
<path d="M306.787 144.699C285.008 144.866 265.173 145.02 247.032 145.159C244.825 121.715 244.825 98.3051 247.032 74.8604C265.173 75.0001 285.008 75.1533 306.787 75.3208C304.289 98.4576 304.289 121.562 306.787 144.699Z" fill="#E5EBFC"/>
<path d="M268.182 83.3611C262.453 83.3273 256.875 83.295 251.442 83.2627C251.476 82.7955 251.511 82.3283 251.547 81.8604C256.981 81.8942 262.56 81.9287 268.29 81.964C268.254 82.4297 268.217 82.8954 268.182 83.3611Z" fill="#737072"/>
<path d="M298.841 92.7833C281.656 92.7179 265.712 92.6563 250.881 92.6C250.903 92.1343 250.926 91.6678 250.95 91.2021C265.784 91.263 281.729 91.3291 298.917 91.4004C298.892 91.8609 298.866 92.3221 298.841 92.7833Z" fill="#737072"/>
<path d="M298.485 102C281.311 101.969 265.379 101.941 250.559 101.915C250.569 101.45 250.58 100.985 250.592 100.52C265.413 100.55 281.347 100.583 298.521 100.619C298.509 101.08 298.496 101.54 298.485 102Z" fill="#737072"/>
<path d="M298.388 111.208C281.217 111.213 265.289 111.217 250.471 111.221C250.469 110.756 250.469 110.291 250.469 109.826C265.287 109.827 281.215 109.828 298.386 109.828C298.386 110.288 298.386 110.748 298.388 111.208Z" fill="#737072"/>
<path d="M298.552 120.416C281.376 120.456 265.442 120.493 250.62 120.527C250.606 120.062 250.594 119.596 250.582 119.131C265.404 119.102 281.337 119.07 298.511 119.035C298.524 119.496 298.537 119.956 298.552 120.416Z" fill="#737072"/>
<path d="M298.979 129.639C281.789 129.714 265.841 129.783 251.005 129.847C250.98 129.381 250.956 128.915 250.933 128.45C265.765 128.39 281.711 128.325 298.898 128.256C298.924 128.716 298.951 129.177 298.979 129.639Z" fill="#737072"/>
<path d="M299.666 138.884C282.453 138.995 266.483 139.097 251.627 139.192C251.591 138.724 251.554 138.257 251.519 137.789C266.371 137.699 282.336 137.601 299.546 137.496C299.585 137.959 299.625 138.421 299.666 138.884Z" fill="#737072"/>
<path d="M316.792 222.319C296.065 229.01 277.188 235.105 259.923 240.678C250.791 218.974 243.773 196.641 238.852 173.613C256.199 168.306 275.169 162.504 295.995 156.133C300.548 178.954 307.473 200.996 316.792 222.319Z" fill="#E5EBFC"/>
<path d="M318.757 218.553C298.029 225.244 279.153 231.338 261.888 236.912C252.756 215.207 245.738 192.874 240.816 169.846C258.164 164.54 277.133 158.737 297.96 152.366C302.513 175.188 309.438 197.229 318.757 218.553Z" fill="#E5EBFC"/>
<path d="M263.541 171.614C258.065 173.3 252.734 174.941 247.542 176.539C247.435 176.084 247.328 175.627 247.222 175.17C252.415 173.573 257.749 171.933 263.226 170.248C263.33 170.704 263.436 171.159 263.541 171.614Z" fill="#737072"/>
<path d="M295.615 171.407C279.201 176.499 263.972 181.222 249.806 185.615C249.687 185.163 249.57 184.713 249.453 184.261C263.623 179.87 278.855 175.152 295.273 170.064C295.386 170.513 295.5 170.961 295.615 171.407Z" fill="#737072"/>
<path d="M298.037 180.308C281.644 185.429 266.437 190.18 252.29 194.599C252.16 194.152 252.032 193.705 251.904 193.258C266.053 188.842 281.264 184.095 297.659 178.979C297.783 179.423 297.909 179.866 298.037 180.308Z" fill="#737072"/>
<path d="M300.705 189.121C284.326 194.274 269.131 199.055 254.996 203.503C254.855 203.059 254.715 202.616 254.576 202.173C268.712 197.73 283.908 192.954 300.289 187.806C300.426 188.244 300.565 188.682 300.705 189.121Z" fill="#737072"/>
<path d="M303.622 197.857C287.248 203.046 272.058 207.859 257.927 212.337C257.775 211.896 257.624 211.457 257.474 211.016C271.604 206.543 286.795 201.734 303.169 196.552C303.319 196.987 303.47 197.422 303.622 197.857Z" fill="#737072"/>
<path d="M306.792 206.527C290.416 211.753 275.222 216.602 261.088 221.112C260.925 220.675 260.762 220.238 260.6 219.8C274.733 215.295 289.924 210.452 306.3 205.23C306.463 205.664 306.627 206.096 306.792 206.527Z" fill="#737072"/>
<path d="M310.221 215.141C293.832 220.408 278.628 225.295 264.484 229.84C264.308 229.405 264.134 228.97 263.96 228.535C278.102 223.994 293.304 219.114 309.69 213.854C309.867 214.282 310.043 214.712 310.221 215.141Z" fill="#737072"/>
</svg>
