<svg width="501" height="501" viewBox="0 0 501 501" fill="none" xmlns="http://www.w3.org/2000/svg">
<g clip-path="url(#clip0_104_1655)">
<path d="M500.5 382.898H0.5V383.148H500.5V382.898Z" fill="#EBEBEB"/>
<path d="M450.401 398.994H417.279V399.244H450.401V398.994Z" fill="#EBEBEB"/>
<path d="M331.72 401.708H323.027V401.958H331.72V401.708Z" fill="#EBEBEB"/>
<path d="M416.278 389.708H397.086V389.958H416.278V389.708Z" fill="#EBEBEB"/>
<path d="M96.152 391.388H52.959V391.638H96.152V391.388Z" fill="#EBEBEB"/>
<path d="M111.389 391.388H105.056V391.638H111.389V391.388Z" fill="#EBEBEB"/>
<path d="M225.647 395.611H131.971V395.861H225.647V395.611Z" fill="#EBEBEB"/>
<path d="M237.514 338.3H44.415C41.268 338.3 38.707 335.739 38.707 332.592V61.1599C38.707 58.0129 41.268 55.4519 44.415 55.4519H237.514C240.66 55.4519 243.221 58.0129 243.221 61.1599V332.592C243.221 335.739 240.66 338.3 237.514 338.3ZM44.415 55.7029C41.405 55.7029 38.957 58.1509 38.957 61.1609V332.593C38.957 335.603 41.405 338.051 44.415 338.051H237.514C240.523 338.051 242.971 335.603 242.971 332.593V61.1599C242.971 58.1509 240.523 55.7019 237.514 55.7019L44.415 55.7029Z" fill="#EBEBEB"/>
<path d="M453.81 338.3H260.712C257.565 338.3 255.005 335.739 255.005 332.592V61.1599C255.005 58.0129 257.566 55.4519 260.712 55.4519H453.81C456.958 55.4519 459.518 58.0129 459.518 61.1599V332.592C459.519 335.739 456.958 338.3 453.81 338.3ZM260.712 55.7029C257.703 55.7029 255.255 58.1509 255.255 61.1609V332.593C255.255 335.603 257.703 338.051 260.712 338.051H453.81C456.82 338.051 459.268 335.603 459.268 332.593V61.1599C459.268 58.1509 456.82 55.7019 453.81 55.7019L260.712 55.7029Z" fill="#EBEBEB"/>
<path d="M388.652 382.284H429.163L420.977 235.808H396.839L388.652 382.284Z" fill="#F0F0F0"/>
<path d="M422.671 232.261H395.143V239.825H422.671V232.261Z" fill="#EBEBEB"/>
<path d="M339.533 382.284H380.044L371.858 235.808H347.72L339.533 382.284Z" fill="#F0F0F0"/>
<path d="M373.553 232.261H346.025V239.825H373.553V232.261Z" fill="#EBEBEB"/>
<path d="M393.421 359.241H349.377V382.284H393.421V359.241Z" fill="#E6E6E6"/>
<path d="M345.346 359.241H301.302V382.284H345.346V359.241Z" fill="#E0E0E0"/>
<path d="M442.935 359.241H398.891V382.284H442.935V359.241Z" fill="#E6E6E6"/>
<path d="M181.308 315.274V304.965L155.841 315.274V304.965L130.375 315.274V304.965L104.908 315.274V304.965L74.183 317.402H73.873V245.412H58.065V382.284H64.03H73.873H206.775V324.911V317.402V304.965L181.308 315.274Z" fill="#F0F0F0"/>
<path d="M227.944 345.098H150.622V382.284H227.944V345.098Z" fill="#E6E6E6"/>
<path d="M139.624 344.337H126.814C124.986 344.337 123.504 345.864 123.504 347.749V373.785C123.504 375.387 124.579 376.721 126.023 377.088V382.284H128.135V377.197H132.162V382.284H134.275V377.197H138.302V382.284H140.415V377.088C141.859 376.721 142.934 375.387 142.934 373.785V347.749C142.934 345.864 141.452 344.337 139.624 344.337Z" fill="#E6E6E6"/>
<path d="M115.978 344.337H103.168C101.34 344.337 99.858 345.864 99.858 347.749V373.785C99.858 375.387 100.933 376.721 102.377 377.088V382.284H104.49V377.197H108.517V382.284H110.63V377.197H114.657V382.284H116.77V377.088C118.214 376.721 119.289 375.387 119.289 373.785V347.749C119.288 345.864 117.806 344.337 115.978 344.337Z" fill="#E6E6E6"/>
<path d="M92.332 344.337H79.522C77.694 344.337 76.212 345.864 76.212 347.749V373.785C76.212 375.387 77.287 376.721 78.731 377.088V382.284H80.844V377.197H84.871V382.284H86.984V377.197H91.011V382.284H93.124V377.088C94.568 376.721 95.643 375.387 95.643 373.785V347.749C95.643 345.864 94.16 344.337 92.332 344.337Z" fill="#E6E6E6"/>
<path d="M77.609 210.211C77.417 206.405 85.477 204.823 87.013 207.987C88.548 211.152 85.478 213.526 85.478 213.526C85.478 213.526 90.084 215.426 86.246 218.333C82.408 221.24 80.872 218.333 80.872 218.333C80.872 218.333 76.458 222.427 75.306 220.844C74.155 219.262 76.458 218.03 76.458 218.03C76.458 218.03 72.748 218.273 73.259 214.515C73.771 210.757 77.609 210.211 77.609 210.211Z" fill="#E0E0E0"/>
<path d="M65.941 227.941C65.845 226.038 69.875 225.247 70.643 226.829C71.411 228.411 69.875 229.598 69.875 229.598C69.875 229.598 72.178 230.548 70.259 232.002C68.34 233.456 67.572 232.002 67.572 232.002C67.572 232.002 65.365 234.049 64.789 233.258C64.213 232.467 65.365 231.851 65.365 231.851C65.365 231.851 63.51 231.972 63.766 230.093C64.022 228.214 65.941 227.941 65.941 227.941Z" fill="#E0E0E0"/>
<path d="M64.379 188.309C64.103 182.846 75.674 180.574 77.878 185.117C80.082 189.66 75.674 193.067 75.674 193.067C75.674 193.067 82.286 195.794 76.776 199.967C71.266 204.14 69.062 199.967 69.062 199.967C69.062 199.967 62.726 205.843 61.073 203.572C59.42 201.301 62.726 199.532 62.726 199.532C62.726 199.532 57.4 199.881 58.135 194.486C58.87 189.091 64.379 188.309 64.379 188.309Z" fill="#E0E0E0"/>
<path d="M364.479 199.39C364.287 195.584 372.347 194.002 373.883 197.166C375.418 200.331 372.348 202.705 372.348 202.705C372.348 202.705 376.954 204.605 373.116 207.512C369.278 210.419 367.742 207.512 367.742 207.512C367.742 207.512 363.328 211.606 362.176 210.023C361.025 208.441 363.328 207.209 363.328 207.209C363.328 207.209 359.618 207.452 360.129 203.694C360.641 199.936 364.479 199.39 364.479 199.39Z" fill="#E0E0E0"/>
<path d="M352.811 217.121C352.715 215.218 356.745 214.427 357.513 216.009C358.281 217.591 356.745 218.778 356.745 218.778C356.745 218.778 359.048 219.728 357.129 221.182C355.21 222.635 354.442 221.182 354.442 221.182C354.442 221.182 352.235 223.229 351.659 222.438C351.083 221.647 352.235 221.031 352.235 221.031C352.235 221.031 350.38 221.153 350.636 219.273C350.892 217.393 352.811 217.121 352.811 217.121Z" fill="#E0E0E0"/>
<path d="M351.249 177.488C350.974 172.025 362.544 169.753 364.748 174.296C366.952 178.839 362.544 182.246 362.544 182.246C362.544 182.246 369.156 184.974 363.646 189.146C358.136 193.319 355.932 189.146 355.932 189.146C355.932 189.146 349.596 195.023 347.943 192.751C346.29 190.479 349.596 188.711 349.596 188.711C349.596 188.711 344.27 189.06 345.005 183.665C345.739 178.271 351.249 177.488 351.249 177.488Z" fill="#E0E0E0"/>
<path d="M417.962 202.368C417.77 198.562 425.83 196.98 427.366 200.144C428.901 203.309 425.831 205.683 425.831 205.683C425.831 205.683 430.437 207.583 426.599 210.49C422.761 213.397 421.225 210.49 421.225 210.49C421.225 210.49 416.811 214.584 415.659 213.001C414.508 211.419 416.81 210.187 416.81 210.187C416.81 210.187 413.1 210.43 413.611 206.672C414.124 202.913 417.962 202.368 417.962 202.368Z" fill="#E0E0E0"/>
<path d="M406.294 220.098C406.198 218.195 410.228 217.404 410.996 218.986C411.764 220.568 410.228 221.755 410.228 221.755C410.228 221.755 412.531 222.705 410.612 224.159C408.693 225.613 407.925 224.159 407.925 224.159C407.925 224.159 405.718 226.206 405.142 225.415C404.566 224.624 405.718 224.008 405.718 224.008C405.718 224.008 403.863 224.129 404.119 222.25C404.375 220.371 406.294 220.098 406.294 220.098Z" fill="#E0E0E0"/>
<path d="M404.732 180.465C404.456 175.002 416.027 172.73 418.231 177.273C420.435 181.816 416.027 185.223 416.027 185.223C416.027 185.223 422.639 187.95 417.129 192.123C411.619 196.296 409.415 192.123 409.415 192.123C409.415 192.123 403.079 197.999 401.426 195.728C399.773 193.457 403.079 191.688 403.079 191.688C403.079 191.688 397.753 192.037 398.488 186.642C399.222 181.249 404.732 180.465 404.732 180.465Z" fill="#E0E0E0"/>
<path d="M340.4 331.744V307.664H334.271V223.936H325.411V213.133L306.494 204.04V193.147H303.874V223.936H300.205V307.664H296.536V263.639H286.578V240.952H283.8V307.664H276.236V282.275H271.258V275.793H259.727V253.646H253.413V237.981H245.652V215.159H242.882V237.981H235.12V253.646H228.806V275.793H217.275V282.275H212.296V307.664H206.391V275.793H194.861V207.191H191.192V199.629H166.56V207.191H161.319V256.887H140.355V261.749H132.493V265.53H140.355V284.976H127.592V285.103H107.359V382.284H344.593V331.744H340.4Z" fill="#E6E6E6"/>
<path d="M114.876 289.896H111.906V292.957H114.876V289.896Z" fill="#F0F0F0"/>
<path d="M114.876 295.027H111.906V298.088H114.876V295.027Z" fill="#F0F0F0"/>
<path d="M167.985 209.86H165.015V212.921H167.985V209.86Z" fill="#F0F0F0"/>
<path d="M167.985 214.992H165.015V218.053H167.985V214.992Z" fill="#F0F0F0"/>
<path d="M167.985 220.123H165.015V223.184H167.985V220.123Z" fill="#F0F0F0"/>
<path d="M167.985 225.255H165.015V228.316H167.985V225.255Z" fill="#F0F0F0"/>
<path d="M167.985 230.387H165.015V233.448H167.985V230.387Z" fill="#F0F0F0"/>
<path d="M167.985 235.518H165.015V238.579H167.985V235.518Z" fill="#F0F0F0"/>
<path d="M167.985 240.65H165.015V243.711H167.985V240.65Z" fill="#F0F0F0"/>
<path d="M167.985 245.782H165.015V248.843H167.985V245.782Z" fill="#F0F0F0"/>
<path d="M167.985 261.177H165.015V264.238H167.985V261.177Z" fill="#F0F0F0"/>
<path d="M167.985 266.308H165.015V269.369H167.985V266.308Z" fill="#F0F0F0"/>
<path d="M172.702 209.86H169.732V212.921H172.702V209.86Z" fill="#F0F0F0"/>
<path d="M172.702 214.992H169.732V218.053H172.702V214.992Z" fill="#F0F0F0"/>
<path d="M172.702 220.123H169.732V223.184H172.702V220.123Z" fill="#F0F0F0"/>
<path d="M172.702 225.255H169.732V228.316H172.702V225.255Z" fill="#F0F0F0"/>
<path d="M172.702 230.387H169.732V233.448H172.702V230.387Z" fill="#F0F0F0"/>
<path d="M172.702 235.518H169.732V238.579H172.702V235.518Z" fill="#F0F0F0"/>
<path d="M172.702 240.65H169.732V243.711H172.702V240.65Z" fill="#F0F0F0"/>
<path d="M172.702 245.782H169.732V248.843H172.702V245.782Z" fill="#F0F0F0"/>
<path d="M172.702 266.308H169.732V269.369H172.702V266.308Z" fill="#F0F0F0"/>
<path d="M177.419 209.86H174.449V212.921H177.419V209.86Z" fill="#F0F0F0"/>
<path d="M177.419 214.992H174.449V218.053H177.419V214.992Z" fill="#F0F0F0"/>
<path d="M177.419 220.123H174.449V223.184H177.419V220.123Z" fill="#F0F0F0"/>
<path d="M177.419 225.255H174.449V228.316H177.419V225.255Z" fill="#F0F0F0"/>
<path d="M177.419 230.387H174.449V233.448H177.419V230.387Z" fill="#F0F0F0"/>
<path d="M177.419 235.518H174.449V238.579H177.419V235.518Z" fill="#F0F0F0"/>
<path d="M177.419 240.65H174.449V243.711H177.419V240.65Z" fill="#F0F0F0"/>
<path d="M177.419 245.782H174.449V248.843H177.419V245.782Z" fill="#F0F0F0"/>
<path d="M182.135 209.86H179.165V212.921H182.135V209.86Z" fill="#F0F0F0"/>
<path d="M182.135 214.992H179.165V218.053H182.135V214.992Z" fill="#F0F0F0"/>
<path d="M182.135 220.123H179.165V223.184H182.135V220.123Z" fill="#F0F0F0"/>
<path d="M182.135 225.255H179.165V228.316H182.135V225.255Z" fill="#F0F0F0"/>
<path d="M182.135 230.387H179.165V233.448H182.135V230.387Z" fill="#F0F0F0"/>
<path d="M182.135 235.518H179.165V238.579H182.135V235.518Z" fill="#F0F0F0"/>
<path d="M182.135 245.782H179.165V248.843H182.135V245.782Z" fill="#F0F0F0"/>
<path d="M182.135 250.913H179.165V253.974H182.135V250.913Z" fill="#F0F0F0"/>
<path d="M182.135 266.308H179.165V269.369H182.135V266.308Z" fill="#F0F0F0"/>
<path d="M182.135 271.44H179.165V274.501H182.135V271.44Z" fill="#F0F0F0"/>
<path d="M182.135 276.572H179.165V279.633H182.135V276.572Z" fill="#F0F0F0"/>
<path d="M182.135 281.703H179.165V284.764H182.135V281.703Z" fill="#F0F0F0"/>
<path d="M182.135 286.835H179.165V289.896H182.135V286.835Z" fill="#F0F0F0"/>
<path d="M182.135 291.966H179.165V295.027H182.135V291.966Z" fill="#F0F0F0"/>
<path d="M182.135 297.098H179.165V300.159H182.135V297.098Z" fill="#F0F0F0"/>
<path d="M186.852 209.86H183.882V212.921H186.852V209.86Z" fill="#F0F0F0"/>
<path d="M186.852 214.992H183.882V218.053H186.852V214.992Z" fill="#F0F0F0"/>
<path d="M186.852 220.123H183.882V223.184H186.852V220.123Z" fill="#F0F0F0"/>
<path d="M186.852 225.255H183.882V228.316H186.852V225.255Z" fill="#F0F0F0"/>
<path d="M186.852 230.387H183.882V233.448H186.852V230.387Z" fill="#F0F0F0"/>
<path d="M186.852 235.518H183.882V238.579H186.852V235.518Z" fill="#F0F0F0"/>
<path d="M186.852 250.913H183.882V253.974H186.852V250.913Z" fill="#F0F0F0"/>
<path d="M186.852 256.045H183.882V259.106H186.852V256.045Z" fill="#F0F0F0"/>
<path d="M186.852 261.177H183.882V264.238H186.852V261.177Z" fill="#F0F0F0"/>
<path d="M186.852 266.308H183.882V269.369H186.852V266.308Z" fill="#F0F0F0"/>
<path d="M186.852 271.44H183.882V274.501H186.852V271.44Z" fill="#F0F0F0"/>
<path d="M186.852 276.572H183.882V279.633H186.852V276.572Z" fill="#F0F0F0"/>
<path d="M186.852 281.703H183.882V284.764H186.852V281.703Z" fill="#F0F0F0"/>
<path d="M186.852 286.835H183.882V289.896H186.852V286.835Z" fill="#F0F0F0"/>
<path d="M186.852 291.966H183.882V295.027H186.852V291.966Z" fill="#F0F0F0"/>
<path d="M186.852 297.098H183.882V300.159H186.852V297.098Z" fill="#F0F0F0"/>
<path d="M186.852 302.23H183.882V305.291H186.852V302.23Z" fill="#F0F0F0"/>
<path d="M186.852 312.493H183.882V315.554H186.852V312.493Z" fill="#F0F0F0"/>
<path d="M191.569 209.86H188.599V212.921H191.569V209.86Z" fill="#F0F0F0"/>
<path d="M191.569 214.992H188.599V218.053H191.569V214.992Z" fill="#F0F0F0"/>
<path d="M191.569 220.123H188.599V223.184H191.569V220.123Z" fill="#F0F0F0"/>
<path d="M191.569 225.255H188.599V228.316H191.569V225.255Z" fill="#F0F0F0"/>
<path d="M191.569 230.387H188.599V233.448H191.569V230.387Z" fill="#F0F0F0"/>
<path d="M191.569 235.518H188.599V238.579H191.569V235.518Z" fill="#F0F0F0"/>
<path d="M191.569 250.913H188.599V253.974H191.569V250.913Z" fill="#F0F0F0"/>
<path d="M191.569 256.045H188.599V259.106H191.569V256.045Z" fill="#F0F0F0"/>
<path d="M191.569 261.177H188.599V264.238H191.569V261.177Z" fill="#F0F0F0"/>
<path d="M191.569 266.308H188.599V269.369H191.569V266.308Z" fill="#F0F0F0"/>
<path d="M191.569 281.703H188.599V284.764H191.569V281.703Z" fill="#F0F0F0"/>
<path d="M191.569 286.835H188.599V289.896H191.569V286.835Z" fill="#F0F0F0"/>
<path d="M191.569 291.966H188.599V295.027H191.569V291.966Z" fill="#F0F0F0"/>
<path d="M191.569 297.098H188.599V300.159H191.569V297.098Z" fill="#F0F0F0"/>
<path d="M191.569 302.23H188.599V305.291H191.569V302.23Z" fill="#F0F0F0"/>
<path d="M191.569 312.493H188.599V315.554H191.569V312.493Z" fill="#F0F0F0"/>
<path d="M191.569 317.625H188.599V320.686H191.569V317.625Z" fill="#F0F0F0"/>
<path d="M234.371 257.576H231.401V260.637H234.371V257.576Z" fill="#F0F0F0"/>
<path d="M234.371 262.707H231.401V265.768H234.371V262.707Z" fill="#F0F0F0"/>
<path d="M234.371 267.839H231.401V270.9H234.371V267.839Z" fill="#F0F0F0"/>
<path d="M234.371 272.97H231.401V276.031H234.371V272.97Z" fill="#F0F0F0"/>
<path d="M234.371 278.102H231.401V281.163H234.371V278.102Z" fill="#F0F0F0"/>
<path d="M234.371 283.234H231.401V286.295H234.371V283.234Z" fill="#F0F0F0"/>
<path d="M234.371 288.365H231.401V291.426H234.371V288.365Z" fill="#F0F0F0"/>
<path d="M234.371 303.76H231.401V306.821H234.371V303.76Z" fill="#F0F0F0"/>
<path d="M234.371 308.892H231.401V311.953H234.371V308.892Z" fill="#F0F0F0"/>
<path d="M234.371 314.024H231.401V317.085H234.371V314.024Z" fill="#F0F0F0"/>
<path d="M239.088 257.576H236.118V260.637H239.088V257.576Z" fill="#F0F0F0"/>
<path d="M239.088 262.707H236.118V265.768H239.088V262.707Z" fill="#F0F0F0"/>
<path d="M239.088 267.839H236.118V270.9H239.088V267.839Z" fill="#F0F0F0"/>
<path d="M239.088 272.97H236.118V276.031H239.088V272.97Z" fill="#F0F0F0"/>
<path d="M239.088 278.102H236.118V281.163H239.088V278.102Z" fill="#F0F0F0"/>
<path d="M239.088 283.234H236.118V286.295H239.088V283.234Z" fill="#F0F0F0"/>
<path d="M239.088 288.365H236.118V291.426H239.088V288.365Z" fill="#F0F0F0"/>
<path d="M243.805 257.576H240.835V260.637H243.805V257.576Z" fill="#F0F0F0"/>
<path d="M243.805 262.707H240.835V265.768H243.805V262.707Z" fill="#F0F0F0"/>
<path d="M243.805 267.839H240.835V270.9H243.805V267.839Z" fill="#F0F0F0"/>
<path d="M243.805 272.97H240.835V276.031H243.805V272.97Z" fill="#F0F0F0"/>
<path d="M243.805 278.102H240.835V281.163H243.805V278.102Z" fill="#F0F0F0"/>
<path d="M243.805 283.234H240.835V286.295H243.805V283.234Z" fill="#F0F0F0"/>
<path d="M243.805 288.365H240.835V291.426H243.805V288.365Z" fill="#F0F0F0"/>
<path d="M248.521 257.576H245.551V260.637H248.521V257.576Z" fill="#F0F0F0"/>
<path d="M248.521 262.707H245.551V265.768H248.521V262.707Z" fill="#F0F0F0"/>
<path d="M248.521 267.839H245.551V270.9H248.521V267.839Z" fill="#F0F0F0"/>
<path d="M248.521 272.97H245.551V276.031H248.521V272.97Z" fill="#F0F0F0"/>
<path d="M248.521 278.102H245.551V281.163H248.521V278.102Z" fill="#F0F0F0"/>
<path d="M248.521 283.234H245.551V286.295H248.521V283.234Z" fill="#F0F0F0"/>
<path d="M248.521 288.365H245.551V291.426H248.521V288.365Z" fill="#F0F0F0"/>
<path d="M248.521 293.497H245.551V296.558H248.521V293.497Z" fill="#F0F0F0"/>
<path d="M248.521 298.629H245.551V301.69H248.521V298.629Z" fill="#F0F0F0"/>
<path d="M248.521 303.76H245.551V306.821H248.521V303.76Z" fill="#F0F0F0"/>
<path d="M248.521 308.892H245.551V311.953H248.521V308.892Z" fill="#F0F0F0"/>
<path d="M253.238 257.576H250.268V260.637H253.238V257.576Z" fill="#F0F0F0"/>
<path d="M253.238 262.707H250.268V265.768H253.238V262.707Z" fill="#F0F0F0"/>
<path d="M253.238 267.839H250.268V270.9H253.238V267.839Z" fill="#F0F0F0"/>
<path d="M253.238 272.97H250.268V276.031H253.238V272.97Z" fill="#F0F0F0"/>
<path d="M253.238 278.102H250.268V281.163H253.238V278.102Z" fill="#F0F0F0"/>
<path d="M253.238 283.234H250.268V286.295H253.238V283.234Z" fill="#F0F0F0"/>
<path d="M253.238 288.365H250.268V291.426H253.238V288.365Z" fill="#F0F0F0"/>
<path d="M253.238 293.497H250.268V296.558H253.238V293.497Z" fill="#F0F0F0"/>
<path d="M253.238 298.629H250.268V301.69H253.238V298.629Z" fill="#F0F0F0"/>
<path d="M253.238 303.76H250.268V306.821H253.238V303.76Z" fill="#F0F0F0"/>
<path d="M253.238 308.892H250.268V311.953H253.238V308.892Z" fill="#F0F0F0"/>
<path d="M253.238 314.024H250.268V317.085H253.238V314.024Z" fill="#F0F0F0"/>
<path d="M253.238 329.419H250.268V332.48H253.238V329.419Z" fill="#F0F0F0"/>
<path d="M253.238 334.55H250.268V337.611H253.238V334.55Z" fill="#F0F0F0"/>
<path d="M257.955 257.576H254.985V260.637H257.955V257.576Z" fill="#F0F0F0"/>
<path d="M257.955 262.707H254.985V265.768H257.955V262.707Z" fill="#F0F0F0"/>
<path d="M257.955 267.839H254.985V270.9H257.955V267.839Z" fill="#F0F0F0"/>
<path d="M257.955 283.234H254.985V286.295H257.955V283.234Z" fill="#F0F0F0"/>
<path d="M257.955 288.365H254.985V291.426H257.955V288.365Z" fill="#F0F0F0"/>
<path d="M257.955 293.497H254.985V296.558H257.955V293.497Z" fill="#F0F0F0"/>
<path d="M257.955 298.629H254.985V301.69H257.955V298.629Z" fill="#F0F0F0"/>
<path d="M257.955 303.76H254.985V306.821H257.955V303.76Z" fill="#F0F0F0"/>
<path d="M257.955 308.892H254.985V311.953H257.955V308.892Z" fill="#F0F0F0"/>
<path d="M257.955 314.024H254.985V317.085H257.955V314.024Z" fill="#F0F0F0"/>
<path d="M257.955 329.419H254.985V332.48H257.955V329.419Z" fill="#F0F0F0"/>
<path d="M257.955 334.55H254.985V337.611H257.955V334.55Z" fill="#F0F0F0"/>
<path d="M257.955 339.682H254.985V342.743H257.955V339.682Z" fill="#F0F0F0"/>
<path d="M307.395 226.786H304.425V229.847H307.395V226.786Z" fill="#F0F0F0"/>
<path d="M307.395 231.917H304.425V234.978H307.395V231.917Z" fill="#F0F0F0"/>
<path d="M307.395 237.049H304.425V240.11H307.395V237.049Z" fill="#F0F0F0"/>
<path d="M307.395 242.18H304.425V245.241H307.395V242.18Z" fill="#F0F0F0"/>
<path d="M307.395 247.312H304.425V250.373H307.395V247.312Z" fill="#F0F0F0"/>
<path d="M307.395 252.444H304.425V255.505H307.395V252.444Z" fill="#F0F0F0"/>
<path d="M307.395 257.576H304.425V260.637H307.395V257.576Z" fill="#F0F0F0"/>
<path d="M307.395 262.707H304.425V265.768H307.395V262.707Z" fill="#F0F0F0"/>
<path d="M307.395 267.839H304.425V270.9H307.395V267.839Z" fill="#F0F0F0"/>
<path d="M307.395 272.97H304.425V276.031H307.395V272.97Z" fill="#F0F0F0"/>
<path d="M307.395 278.102H304.425V281.163H307.395V278.102Z" fill="#F0F0F0"/>
<path d="M307.395 283.234H304.425V286.295H307.395V283.234Z" fill="#F0F0F0"/>
<path d="M307.395 288.365H304.425V291.426H307.395V288.365Z" fill="#F0F0F0"/>
<path d="M307.395 293.497H304.425V296.558H307.395V293.497Z" fill="#F0F0F0"/>
<path d="M307.395 298.629H304.425V301.69H307.395V298.629Z" fill="#F0F0F0"/>
<path d="M307.395 303.76H304.425V306.821H307.395V303.76Z" fill="#F0F0F0"/>
<path d="M307.395 308.892H304.425V311.953H307.395V308.892Z" fill="#F0F0F0"/>
<path d="M307.395 314.024H304.425V317.085H307.395V314.024Z" fill="#F0F0F0"/>
<path d="M307.395 319.155H304.425V322.216H307.395V319.155Z" fill="#F0F0F0"/>
<path d="M307.395 324.287H304.425V327.348H307.395V324.287Z" fill="#F0F0F0"/>
<path d="M307.395 329.419H304.425V332.48H307.395V329.419Z" fill="#F0F0F0"/>
<path d="M307.395 334.55H304.425V337.611H307.395V334.55Z" fill="#F0F0F0"/>
<path d="M307.395 339.682H304.425V342.743H307.395V339.682Z" fill="#F0F0F0"/>
<path d="M312.112 226.786H309.142V229.847H312.112V226.786Z" fill="#F0F0F0"/>
<path d="M312.112 231.917H309.142V234.978H312.112V231.917Z" fill="#F0F0F0"/>
<path d="M312.112 237.049H309.142V240.11H312.112V237.049Z" fill="#F0F0F0"/>
<path d="M312.112 242.18H309.142V245.241H312.112V242.18Z" fill="#F0F0F0"/>
<path d="M312.112 247.312H309.142V250.373H312.112V247.312Z" fill="#F0F0F0"/>
<path d="M312.112 252.444H309.142V255.505H312.112V252.444Z" fill="#F0F0F0"/>
<path d="M312.112 257.576H309.142V260.637H312.112V257.576Z" fill="#F0F0F0"/>
<path d="M312.112 262.707H309.142V265.768H312.112V262.707Z" fill="#F0F0F0"/>
<path d="M312.112 267.839H309.142V270.9H312.112V267.839Z" fill="#F0F0F0"/>
<path d="M312.112 272.97H309.142V276.031H312.112V272.97Z" fill="#F0F0F0"/>
<path d="M312.112 278.102H309.142V281.163H312.112V278.102Z" fill="#F0F0F0"/>
<path d="M312.112 283.234H309.142V286.295H312.112V283.234Z" fill="#F0F0F0"/>
<path d="M312.112 288.365H309.142V291.426H312.112V288.365Z" fill="#F0F0F0"/>
<path d="M312.112 293.497H309.142V296.558H312.112V293.497Z" fill="#F0F0F0"/>
<path d="M312.112 298.629H309.142V301.69H312.112V298.629Z" fill="#F0F0F0"/>
<path d="M312.112 303.76H309.142V306.821H312.112V303.76Z" fill="#F0F0F0"/>
<path d="M312.112 308.892H309.142V311.953H312.112V308.892Z" fill="#F0F0F0"/>
<path d="M312.112 314.024H309.142V317.085H312.112V314.024Z" fill="#F0F0F0"/>
<path d="M312.112 319.155H309.142V322.216H312.112V319.155Z" fill="#F0F0F0"/>
<path d="M316.829 226.786H313.859V229.847H316.829V226.786Z" fill="#F0F0F0"/>
<path d="M316.829 231.917H313.859V234.978H316.829V231.917Z" fill="#F0F0F0"/>
<path d="M316.829 237.049H313.859V240.11H316.829V237.049Z" fill="#F0F0F0"/>
<path d="M316.829 242.18H313.859V245.241H316.829V242.18Z" fill="#F0F0F0"/>
<path d="M316.829 247.312H313.859V250.373H316.829V247.312Z" fill="#F0F0F0"/>
<path d="M316.829 252.444H313.859V255.505H316.829V252.444Z" fill="#F0F0F0"/>
<path d="M316.829 257.576H313.859V260.637H316.829V257.576Z" fill="#F0F0F0"/>
<path d="M316.829 262.707H313.859V265.768H316.829V262.707Z" fill="#F0F0F0"/>
<path d="M316.829 267.839H313.859V270.9H316.829V267.839Z" fill="#F0F0F0"/>
<path d="M316.829 272.97H313.859V276.031H316.829V272.97Z" fill="#F0F0F0"/>
<path d="M316.829 278.102H313.859V281.163H316.829V278.102Z" fill="#F0F0F0"/>
<path d="M316.829 283.234H313.859V286.295H316.829V283.234Z" fill="#F0F0F0"/>
<path d="M316.829 288.365H313.859V291.426H316.829V288.365Z" fill="#F0F0F0"/>
<path d="M316.829 293.497H313.859V296.558H316.829V293.497Z" fill="#F0F0F0"/>
<path d="M316.829 298.629H313.859V301.69H316.829V298.629Z" fill="#F0F0F0"/>
<path d="M316.829 303.76H313.859V306.821H316.829V303.76Z" fill="#F0F0F0"/>
<path d="M316.829 308.892H313.859V311.953H316.829V308.892Z" fill="#F0F0F0"/>
<path d="M316.829 314.024H313.859V317.085H316.829V314.024Z" fill="#F0F0F0"/>
<path d="M316.829 319.155H313.859V322.216H316.829V319.155Z" fill="#F0F0F0"/>
<path d="M321.546 226.786H318.576V229.847H321.546V226.786Z" fill="#F0F0F0"/>
<path d="M321.546 231.917H318.576V234.978H321.546V231.917Z" fill="#F0F0F0"/>
<path d="M321.546 237.049H318.576V240.11H321.546V237.049Z" fill="#F0F0F0"/>
<path d="M321.546 242.18H318.576V245.241H321.546V242.18Z" fill="#F0F0F0"/>
<path d="M321.546 247.312H318.576V250.373H321.546V247.312Z" fill="#F0F0F0"/>
<path d="M321.546 252.444H318.576V255.505H321.546V252.444Z" fill="#F0F0F0"/>
<path d="M321.546 257.576H318.576V260.637H321.546V257.576Z" fill="#F0F0F0"/>
<path d="M321.546 262.707H318.576V265.768H321.546V262.707Z" fill="#F0F0F0"/>
<path d="M321.546 267.839H318.576V270.9H321.546V267.839Z" fill="#F0F0F0"/>
<path d="M321.546 272.97H318.576V276.031H321.546V272.97Z" fill="#F0F0F0"/>
<path d="M321.546 278.102H318.576V281.163H321.546V278.102Z" fill="#F0F0F0"/>
<path d="M321.546 283.234H318.576V286.295H321.546V283.234Z" fill="#F0F0F0"/>
<path d="M321.546 288.365H318.576V291.426H321.546V288.365Z" fill="#F0F0F0"/>
<path d="M321.546 293.497H318.576V296.558H321.546V293.497Z" fill="#F0F0F0"/>
<path d="M321.546 298.629H318.576V301.69H321.546V298.629Z" fill="#F0F0F0"/>
<path d="M326.262 226.786H323.292V229.847H326.262V226.786Z" fill="#F0F0F0"/>
<path d="M326.262 231.917H323.292V234.978H326.262V231.917Z" fill="#F0F0F0"/>
<path d="M326.262 237.049H323.292V240.11H326.262V237.049Z" fill="#F0F0F0"/>
<path d="M326.262 242.18H323.292V245.241H326.262V242.18Z" fill="#F0F0F0"/>
<path d="M326.262 247.312H323.292V250.373H326.262V247.312Z" fill="#F0F0F0"/>
<path d="M326.262 252.444H323.292V255.505H326.262V252.444Z" fill="#F0F0F0"/>
<path d="M326.262 257.576H323.292V260.637H326.262V257.576Z" fill="#F0F0F0"/>
<path d="M326.262 262.707H323.292V265.768H326.262V262.707Z" fill="#F0F0F0"/>
<path d="M326.262 267.839H323.292V270.9H326.262V267.839Z" fill="#F0F0F0"/>
<path d="M326.262 272.97H323.292V276.031H326.262V272.97Z" fill="#F0F0F0"/>
<path d="M326.262 278.102H323.292V281.163H326.262V278.102Z" fill="#F0F0F0"/>
<path d="M326.262 283.234H323.292V286.295H326.262V283.234Z" fill="#F0F0F0"/>
<path d="M326.262 288.365H323.292V291.426H326.262V288.365Z" fill="#F0F0F0"/>
<path d="M330.979 226.786H328.009V229.847H330.979V226.786Z" fill="#F0F0F0"/>
<path d="M330.979 231.917H328.009V234.978H330.979V231.917Z" fill="#F0F0F0"/>
<path d="M330.979 237.049H328.009V240.11H330.979V237.049Z" fill="#F0F0F0"/>
<path d="M330.979 242.18H328.009V245.241H330.979V242.18Z" fill="#F0F0F0"/>
<path d="M330.979 247.312H328.009V250.373H330.979V247.312Z" fill="#F0F0F0"/>
<path d="M330.979 252.444H328.009V255.505H330.979V252.444Z" fill="#F0F0F0"/>
<path d="M330.979 257.576H328.009V260.637H330.979V257.576Z" fill="#F0F0F0"/>
<path d="M330.979 262.707H328.009V265.768H330.979V262.707Z" fill="#F0F0F0"/>
<path d="M330.979 267.839H328.009V270.9H330.979V267.839Z" fill="#F0F0F0"/>
<path d="M330.979 272.97H328.009V276.031H330.979V272.97Z" fill="#F0F0F0"/>
<path d="M330.979 278.102H328.009V281.163H330.979V278.102Z" fill="#F0F0F0"/>
<path d="M330.979 283.234H328.009V286.295H330.979V283.234Z" fill="#F0F0F0"/>
<path d="M147.371 261.177H144.401V264.238H147.371V261.177Z" fill="#F0F0F0"/>
<path d="M147.371 266.308H144.401V269.369H147.371V266.308Z" fill="#F0F0F0"/>
<path d="M147.371 271.44H144.401V274.501H147.371V271.44Z" fill="#F0F0F0"/>
<path d="M147.371 276.572H144.401V279.633H147.371V276.572Z" fill="#F0F0F0"/>
<path d="M147.371 281.703H144.401V284.764H147.371V281.703Z" fill="#F0F0F0"/>
<path d="M147.371 286.835H144.401V289.896H147.371V286.835Z" fill="#F0F0F0"/>
<path d="M147.371 291.966H144.401V295.027H147.371V291.966Z" fill="#F0F0F0"/>
<path d="M147.371 297.098H144.401V300.159H147.371V297.098Z" fill="#F0F0F0"/>
<path d="M147.371 302.23H144.401V305.291H147.371V302.23Z" fill="#F0F0F0"/>
<path d="M147.371 307.362H144.401V310.423H147.371V307.362Z" fill="#F0F0F0"/>
<path d="M147.371 312.493H144.401V315.554H147.371V312.493Z" fill="#F0F0F0"/>
<path d="M147.371 317.625H144.401V320.686H147.371V317.625Z" fill="#F0F0F0"/>
<path d="M147.371 322.757H144.401V325.818H147.371V322.757Z" fill="#F0F0F0"/>
<path d="M147.371 333.02H144.401V336.081H147.371V333.02Z" fill="#F0F0F0"/>
<path d="M147.371 338.151H144.401V341.212H147.371V338.151Z" fill="#F0F0F0"/>
<path d="M147.371 343.283H144.401V346.344H147.371V343.283Z" fill="#F0F0F0"/>
<path d="M147.371 348.415H144.401V351.476H147.371V348.415Z" fill="#F0F0F0"/>
<path d="M147.371 358.678H144.401V361.739H147.371V358.678Z" fill="#F0F0F0"/>
<path d="M147.371 363.81H144.401V366.871H147.371V363.81Z" fill="#F0F0F0"/>
<path d="M147.371 368.941H144.401V372.002H147.371V368.941Z" fill="#F0F0F0"/>
<path d="M152.087 261.177H149.117V264.238H152.087V261.177Z" fill="#F0F0F0"/>
<path d="M152.087 266.308H149.117V269.369H152.087V266.308Z" fill="#F0F0F0"/>
<path d="M152.087 271.44H149.117V274.501H152.087V271.44Z" fill="#F0F0F0"/>
<path d="M152.087 276.572H149.117V279.633H152.087V276.572Z" fill="#F0F0F0"/>
<path d="M152.087 281.703H149.117V284.764H152.087V281.703Z" fill="#F0F0F0"/>
<path d="M152.087 286.835H149.117V289.896H152.087V286.835Z" fill="#F0F0F0"/>
<path d="M152.087 291.966H149.117V295.027H152.087V291.966Z" fill="#F0F0F0"/>
<path d="M152.087 297.098H149.117V300.159H152.087V297.098Z" fill="#F0F0F0"/>
<path d="M152.087 302.23H149.117V305.291H152.087V302.23Z" fill="#F0F0F0"/>
<path d="M152.087 307.362H149.117V310.423H152.087V307.362Z" fill="#F0F0F0"/>
<path d="M152.087 312.493H149.117V315.554H152.087V312.493Z" fill="#F0F0F0"/>
<path d="M152.087 317.625H149.117V320.686H152.087V317.625Z" fill="#F0F0F0"/>
<path d="M152.087 322.757H149.117V325.818H152.087V322.757Z" fill="#F0F0F0"/>
<path d="M152.087 338.151H149.117V341.212H152.087V338.151Z" fill="#F0F0F0"/>
<path d="M152.087 343.283H149.117V346.344H152.087V343.283Z" fill="#F0F0F0"/>
<path d="M152.087 353.546H149.117V356.607H152.087V353.546Z" fill="#F0F0F0"/>
<path d="M152.087 358.678H149.117V361.739H152.087V358.678Z" fill="#F0F0F0"/>
<path d="M152.087 363.81H149.117V366.871H152.087V363.81Z" fill="#F0F0F0"/>
<path d="M152.087 368.941H149.117V372.002H152.087V368.941Z" fill="#F0F0F0"/>
<path d="M156.804 261.177H153.834V264.238H156.804V261.177Z" fill="#F0F0F0"/>
<path d="M156.804 266.308H153.834V269.369H156.804V266.308Z" fill="#F0F0F0"/>
<path d="M156.804 271.44H153.834V274.501H156.804V271.44Z" fill="#F0F0F0"/>
<path d="M156.804 276.572H153.834V279.633H156.804V276.572Z" fill="#F0F0F0"/>
<path d="M156.804 281.703H153.834V284.764H156.804V281.703Z" fill="#F0F0F0"/>
<path d="M156.804 286.835H153.834V289.896H156.804V286.835Z" fill="#F0F0F0"/>
<path d="M156.804 291.966H153.834V295.027H156.804V291.966Z" fill="#F0F0F0"/>
<path d="M156.804 297.098H153.834V300.159H156.804V297.098Z" fill="#F0F0F0"/>
<path d="M156.804 302.23H153.834V305.291H156.804V302.23Z" fill="#F0F0F0"/>
<path d="M156.804 307.362H153.834V310.423H156.804V307.362Z" fill="#F0F0F0"/>
<path d="M156.804 312.493H153.834V315.554H156.804V312.493Z" fill="#F0F0F0"/>
<path d="M156.804 317.625H153.834V320.686H156.804V317.625Z" fill="#F0F0F0"/>
<path d="M156.804 322.757H153.834V325.818H156.804V322.757Z" fill="#F0F0F0"/>
<path d="M156.804 327.888H153.834V330.949H156.804V327.888Z" fill="#F0F0F0"/>
<path d="M156.804 338.151H153.834V341.212H156.804V338.151Z" fill="#F0F0F0"/>
<path d="M156.804 348.415H153.834V351.476H156.804V348.415Z" fill="#F0F0F0"/>
<path d="M156.804 353.546H153.834V356.607H156.804V353.546Z" fill="#F0F0F0"/>
<path d="M156.804 358.678H153.834V361.739H156.804V358.678Z" fill="#F0F0F0"/>
<path d="M156.804 363.81H153.834V366.871H156.804V363.81Z" fill="#F0F0F0"/>
<path d="M156.804 368.941H153.834V372.002H156.804V368.941Z" fill="#F0F0F0"/>
<path d="M128.154 290.436H125.184V293.497H128.154V290.436Z" fill="#F0F0F0"/>
<path d="M128.154 295.568H125.184V298.629H128.154V295.568Z" fill="#F0F0F0"/>
<path d="M128.154 300.699H125.184V303.76H128.154V300.699Z" fill="#F0F0F0"/>
<path d="M128.154 305.831H125.184V308.892H128.154V305.831Z" fill="#F0F0F0"/>
<path d="M128.154 310.963H125.184V314.024H128.154V310.963Z" fill="#F0F0F0"/>
<path d="M128.154 316.094H125.184V319.155H128.154V316.094Z" fill="#F0F0F0"/>
<path d="M128.154 331.489H125.184V334.55H128.154V331.489Z" fill="#F0F0F0"/>
<path d="M128.154 336.621H125.184V339.682H128.154V336.621Z" fill="#F0F0F0"/>
<path d="M128.154 341.753H125.184V344.814H128.154V341.753Z" fill="#F0F0F0"/>
<path d="M128.154 346.884H125.184V349.945H128.154V346.884Z" fill="#F0F0F0"/>
<path d="M128.154 352.016H125.184V355.077H128.154V352.016Z" fill="#F0F0F0"/>
<path d="M128.154 357.147H125.184V360.208H128.154V357.147Z" fill="#F0F0F0"/>
<path d="M128.154 362.279H125.184V365.34H128.154V362.279Z" fill="#F0F0F0"/>
<path d="M132.87 290.436H129.9V293.497H132.87V290.436Z" fill="#F0F0F0"/>
<path d="M132.87 295.568H129.9V298.629H132.87V295.568Z" fill="#F0F0F0"/>
<path d="M132.87 300.699H129.9V303.76H132.87V300.699Z" fill="#F0F0F0"/>
<path d="M132.87 305.831H129.9V308.892H132.87V305.831Z" fill="#F0F0F0"/>
<path d="M132.87 310.963H129.9V314.024H132.87V310.963Z" fill="#F0F0F0"/>
<path d="M132.87 316.094H129.9V319.155H132.87V316.094Z" fill="#F0F0F0"/>
<path d="M132.87 331.489H129.9V334.55H132.87V331.489Z" fill="#F0F0F0"/>
<path d="M132.87 336.621H129.9V339.682H132.87V336.621Z" fill="#F0F0F0"/>
<path d="M132.87 341.753H129.9V344.814H132.87V341.753Z" fill="#F0F0F0"/>
<path d="M132.87 346.884H129.9V349.945H132.87V346.884Z" fill="#F0F0F0"/>
<path d="M132.87 352.016H129.9V355.077H132.87V352.016Z" fill="#F0F0F0"/>
<path d="M132.87 357.147H129.9V360.208H132.87V357.147Z" fill="#F0F0F0"/>
<path d="M132.87 367.411H129.9V370.472H132.87V367.411Z" fill="#F0F0F0"/>
<path d="M289.576 267.839H286.606V270.9H289.576V267.839Z" fill="#F0F0F0"/>
<path d="M289.576 272.97H286.606V276.031H289.576V272.97Z" fill="#F0F0F0"/>
<path d="M289.576 278.102H286.606V281.163H289.576V278.102Z" fill="#F0F0F0"/>
<path d="M289.576 283.234H286.606V286.295H289.576V283.234Z" fill="#F0F0F0"/>
<path d="M289.576 288.365H286.606V291.426H289.576V288.365Z" fill="#F0F0F0"/>
<path d="M289.576 293.497H286.606V296.558H289.576V293.497Z" fill="#F0F0F0"/>
<path d="M289.576 298.629H286.606V301.69H289.576V298.629Z" fill="#F0F0F0"/>
<path d="M289.576 303.76H286.606V306.821H289.576V303.76Z" fill="#F0F0F0"/>
<path d="M289.576 308.892H286.606V311.953H289.576V308.892Z" fill="#F0F0F0"/>
<path d="M289.576 314.024H286.606V317.085H289.576V314.024Z" fill="#F0F0F0"/>
<path d="M289.576 319.155H286.606V322.216H289.576V319.155Z" fill="#F0F0F0"/>
<path d="M289.576 329.419H286.606V332.48H289.576V329.419Z" fill="#F0F0F0"/>
<path d="M289.576 334.55H286.606V337.611H289.576V334.55Z" fill="#F0F0F0"/>
<path d="M289.576 339.682H286.606V342.743H289.576V339.682Z" fill="#F0F0F0"/>
<path d="M289.576 344.814H286.606V347.875H289.576V344.814Z" fill="#F0F0F0"/>
<path d="M289.576 349.945H286.606V353.006H289.576V349.945Z" fill="#F0F0F0"/>
<path d="M289.576 355.077H286.606V358.138H289.576V355.077Z" fill="#F0F0F0"/>
<path d="M289.576 360.208H286.606V363.269H289.576V360.208Z" fill="#F0F0F0"/>
<path d="M289.576 365.34H286.606V368.401H289.576V365.34Z" fill="#F0F0F0"/>
<path d="M294.292 267.839H291.322V270.9H294.292V267.839Z" fill="#F0F0F0"/>
<path d="M294.292 272.97H291.322V276.031H294.292V272.97Z" fill="#F0F0F0"/>
<path d="M294.292 278.102H291.322V281.163H294.292V278.102Z" fill="#F0F0F0"/>
<path d="M294.292 283.234H291.322V286.295H294.292V283.234Z" fill="#F0F0F0"/>
<path d="M294.292 288.365H291.322V291.426H294.292V288.365Z" fill="#F0F0F0"/>
<path d="M294.292 293.497H291.322V296.558H294.292V293.497Z" fill="#F0F0F0"/>
<path d="M294.292 298.629H291.322V301.69H294.292V298.629Z" fill="#F0F0F0"/>
<path d="M294.292 303.76H291.322V306.821H294.292V303.76Z" fill="#F0F0F0"/>
<path d="M294.292 308.892H291.322V311.953H294.292V308.892Z" fill="#F0F0F0"/>
<path d="M294.292 314.024H291.322V317.085H294.292V314.024Z" fill="#F0F0F0"/>
<path d="M294.292 319.155H291.322V322.216H294.292V319.155Z" fill="#F0F0F0"/>
<path d="M294.292 324.287H291.322V327.348H294.292V324.287Z" fill="#F0F0F0"/>
<path d="M294.292 329.419H291.322V332.48H294.292V329.419Z" fill="#F0F0F0"/>
<path d="M294.292 334.55H291.322V337.611H294.292V334.55Z" fill="#F0F0F0"/>
<path d="M294.292 339.682H291.322V342.743H294.292V339.682Z" fill="#F0F0F0"/>
<path d="M294.292 344.814H291.322V347.875H294.292V344.814Z" fill="#F0F0F0"/>
<path d="M294.292 349.945H291.322V353.006H294.292V349.945Z" fill="#F0F0F0"/>
<path d="M294.292 355.077H291.322V358.138H294.292V355.077Z" fill="#F0F0F0"/>
<path d="M294.292 360.208H291.322V363.269H294.292V360.208Z" fill="#F0F0F0"/>
<path d="M294.292 365.34H291.322V368.401H294.292V365.34Z" fill="#F0F0F0"/>
<path d="M266.341 287.825H263.371V290.886H266.341V287.825Z" fill="#F0F0F0"/>
<path d="M266.341 292.957H263.371V296.018H266.341V292.957Z" fill="#F0F0F0"/>
<path d="M266.341 298.088H263.371V301.149H266.341V298.088Z" fill="#F0F0F0"/>
<path d="M266.341 303.22H263.371V306.281H266.341V303.22Z" fill="#F0F0F0"/>
<path d="M266.341 308.352H263.371V311.413H266.341V308.352Z" fill="#F0F0F0"/>
<path d="M266.341 313.483H263.371V316.544H266.341V313.483Z" fill="#F0F0F0"/>
<path d="M266.341 318.615H263.371V321.676H266.341V318.615Z" fill="#F0F0F0"/>
<path d="M266.341 323.747H263.371V326.808H266.341V323.747Z" fill="#F0F0F0"/>
<path d="M266.341 328.878H263.371V331.939H266.341V328.878Z" fill="#F0F0F0"/>
<path d="M266.341 334.01H263.371V337.071H266.341V334.01Z" fill="#F0F0F0"/>
<path d="M271.058 287.825H268.088V290.886H271.058V287.825Z" fill="#F0F0F0"/>
<path d="M271.058 292.957H268.088V296.018H271.058V292.957Z" fill="#F0F0F0"/>
<path d="M271.058 298.088H268.088V301.149H271.058V298.088Z" fill="#F0F0F0"/>
<path d="M271.058 303.22H268.088V306.281H271.058V303.22Z" fill="#F0F0F0"/>
<path d="M271.058 308.352H268.088V311.413H271.058V308.352Z" fill="#F0F0F0"/>
<path d="M271.058 313.483H268.088V316.544H271.058V313.483Z" fill="#F0F0F0"/>
<path d="M271.058 318.615H268.088V321.676H271.058V318.615Z" fill="#F0F0F0"/>
<path d="M271.058 323.747H268.088V326.808H271.058V323.747Z" fill="#F0F0F0"/>
<path d="M271.058 328.878H268.088V331.939H271.058V328.878Z" fill="#F0F0F0"/>
<path d="M124.719 101.672C124.719 98.5649 127.163 96.0469 130.177 96.0469C130.722 96.0469 131.247 96.1319 131.744 96.2849C131.664 95.7209 131.621 95.1449 131.621 94.5579C131.621 87.9789 136.796 82.6459 143.179 82.6459C143.907 82.6459 144.618 82.7189 145.308 82.8509C147.084 79.8549 150.278 77.8479 153.934 77.8479C159.468 77.8479 163.957 82.4309 164.039 88.1149C164.096 88.1139 164.151 88.1059 164.207 88.1059C169.349 88.1059 173.517 92.4019 173.517 97.7019C173.517 103.002 169.349 107.298 164.207 107.298H130.016L130.023 107.29C127.08 107.204 124.719 104.725 124.719 101.672Z" fill="#F5F5F5"/>
<path d="M228.602 156.738C228.602 153.631 231.046 151.113 234.06 151.113C234.605 151.113 235.13 151.198 235.627 151.351C235.547 150.787 235.505 150.211 235.505 149.624C235.505 143.045 240.679 137.712 247.063 137.712C247.79 137.712 248.501 137.785 249.192 137.917C250.968 134.921 254.162 132.914 257.818 132.914C263.352 132.914 267.841 137.497 267.923 143.18C267.98 143.179 268.035 143.171 268.091 143.171C273.233 143.171 277.401 147.467 277.401 152.767C277.401 158.067 273.233 162.363 268.091 162.363H233.9L233.907 162.355C230.964 162.27 228.602 159.791 228.602 156.738Z" fill="#F5F5F5"/>
<path d="M127.974 207.477C127.974 204.37 130.418 201.852 133.432 201.852C133.977 201.852 134.502 201.937 134.999 202.09C134.919 201.526 134.877 200.95 134.877 200.363C134.877 193.784 140.052 188.451 146.435 188.451C147.163 188.451 147.874 188.524 148.564 188.656C150.34 185.66 153.534 183.653 157.19 183.653C162.724 183.653 167.213 188.236 167.295 193.919C167.352 193.918 167.407 193.91 167.463 193.91C172.605 193.91 176.773 198.206 176.773 203.506C176.773 208.806 172.605 213.102 167.463 213.102H133.272L133.279 213.094C130.336 213.01 127.974 210.531 127.974 207.477Z" fill="#F5F5F5"/>
<path d="M383.904 138.944C383.904 137.066 385.381 135.544 387.203 135.544C387.532 135.544 387.85 135.595 388.15 135.688C388.102 135.347 388.076 134.999 388.076 134.644C388.076 130.668 391.204 127.444 395.062 127.444C395.502 127.444 395.931 127.488 396.349 127.568C397.423 125.757 399.353 124.544 401.563 124.544C404.908 124.544 407.621 127.314 407.671 130.749C407.705 130.748 407.739 130.744 407.773 130.744C410.881 130.744 413.4 133.341 413.4 136.544C413.4 139.747 410.881 142.344 407.773 142.344H387.107L387.111 142.339C385.332 142.288 383.904 140.789 383.904 138.944Z" fill="#F5F5F5"/>
<path d="M69.683 143.118C69.683 141.24 71.16 139.718 72.982 139.718C73.311 139.718 73.629 139.769 73.929 139.862C73.881 139.521 73.855 139.173 73.855 138.818C73.855 134.842 76.983 131.618 80.841 131.618C81.281 131.618 81.71 131.662 82.128 131.742C83.202 129.931 85.132 128.718 87.342 128.718C90.687 128.718 93.4 131.488 93.45 134.923C93.484 134.922 93.517 134.918 93.552 134.918C96.66 134.918 99.179 137.515 99.179 140.718C99.179 143.921 96.66 146.518 93.552 146.518H72.885L72.889 146.513C71.11 146.462 69.683 144.964 69.683 143.118Z" fill="#F5F5F5"/>
<path d="M320.693 102.812C320.693 100.934 322.17 99.4119 323.992 99.4119C324.321 99.4119 324.639 99.4629 324.939 99.5559C324.891 99.2149 324.865 98.8669 324.865 98.5119C324.865 94.5359 327.993 91.3119 331.851 91.3119C332.291 91.3119 332.721 91.3559 333.138 91.4359C334.212 89.6249 336.142 88.4119 338.352 88.4119C341.697 88.4119 344.41 91.1819 344.46 94.6169C344.494 94.6159 344.527 94.6119 344.562 94.6119C347.67 94.6119 350.189 97.2089 350.189 100.412C350.189 103.615 347.67 106.212 344.562 106.212H323.897L323.901 106.207C322.121 106.156 320.693 104.657 320.693 102.812Z" fill="#F5F5F5"/>
<path d="M250.5 428.061C357.582 428.061 444.389 422.992 444.389 416.738C444.389 410.485 357.582 405.415 250.5 405.415C143.418 405.415 56.611 410.485 56.611 416.738C56.611 422.992 143.418 428.061 250.5 428.061Z" fill="#F5F5F5"/>
<path d="M91.187 337.647C91.397 339.117 87.41 340.085 84.159 340.627C84.424 343.296 86.2 345.993 88.653 348.513C91.739 346.775 96.143 344.477 96.955 345.038C97.841 345.651 93.331 348.567 90.51 350.282C92.494 352.043 94.728 353.684 96.899 355.122C98.282 353.83 99.901 352.696 100.866 353.309C101.867 353.946 101.596 355.945 101.102 357.729C104.458 359.686 106.972 360.876 106.972 360.876C106.972 360.876 108.381 356.605 109.214 351.346C109.045 351.012 108.876 350.674 108.722 350.317C108.181 349.066 108.708 348.534 109.601 348.358C109.832 346.056 109.898 343.689 109.656 341.493C105.857 340.696 101.238 339.221 102.968 336.943C104.011 335.569 105.922 335.413 107.91 335.758C107.632 335.3 107.324 334.868 106.972 334.48C100.058 326.862 95.235 334.48 95.235 334.48C91.217 331.132 85.573 332.038 84.353 337.27C86.61 336.691 90.928 335.831 91.187 337.647Z" fill="#263238"/>
<path opacity="0.3" d="M91.187 337.647C91.397 339.117 87.41 340.085 84.159 340.627C84.424 343.296 86.2 345.993 88.653 348.513C91.739 346.775 96.143 344.477 96.955 345.038C97.841 345.651 93.331 348.567 90.51 350.282C92.494 352.043 94.728 353.684 96.899 355.122C98.282 353.83 99.901 352.696 100.866 353.309C101.867 353.946 101.596 355.945 101.102 357.729C104.458 359.686 106.972 360.876 106.972 360.876C106.972 360.876 108.381 356.605 109.214 351.346C109.045 351.012 108.876 350.674 108.722 350.317C108.181 349.066 108.708 348.534 109.601 348.358C109.832 346.056 109.898 343.689 109.656 341.493C105.857 340.696 101.238 339.221 102.968 336.943C104.011 335.569 105.922 335.413 107.91 335.758C107.632 335.3 107.324 334.868 106.972 334.48C100.058 326.862 95.235 334.48 95.235 334.48C91.217 331.132 85.573 332.038 84.353 337.27C86.61 336.691 90.928 335.831 91.187 337.647Z" fill="white"/>
<path d="M99.814 393.633L98.817 393.551C98.859 393.036 102.911 342.026 91.463 337.217C90.234 336.7 89.098 336.729 87.993 337.304C83.857 339.455 81.874 348.386 81.855 348.477L80.877 348.264C80.961 347.878 82.979 338.786 87.53 336.417C88.897 335.706 90.35 335.665 91.85 336.295C103.961 341.382 99.989 391.502 99.814 393.633Z" fill="#263238"/>
<path d="M101.257 392.527C101.054 390.232 96.381 336.259 105.119 330.53C107.214 329.157 109.081 328.863 110.668 329.667C114.797 331.749 115.339 340.577 115.36 340.951L114.362 341.008C114.357 340.922 113.833 332.382 110.217 330.559C108.973 329.934 107.442 330.203 105.667 331.367C97.425 336.772 102.204 391.884 102.253 392.44L101.257 392.527Z" fill="#263238"/>
<path d="M102.571 396.891C102.506 395.134 101.067 353.82 109.023 350.203C110.596 349.488 112.189 349.476 113.755 350.165C119.215 352.567 122.587 362.742 122.728 363.174L121.777 363.485C121.744 363.383 118.403 353.302 113.352 351.081C112.039 350.505 110.757 350.514 109.437 351.114C103.336 353.887 103.133 385.072 103.57 396.854L102.571 396.891Z" fill="#263238"/>
<path d="M100.546 395.001L99.553 394.888C100.955 382.592 103.636 349.827 99.256 345.918C98.603 345.334 98.018 345.154 97.465 345.364C94.53 346.49 92.743 357.147 92.302 361.159L91.308 361.05C91.477 359.512 93.076 345.977 97.106 344.431C98.028 344.077 98.975 344.326 99.922 345.172C105.581 350.223 100.754 393.175 100.546 395.001Z" fill="#263238"/>
<path d="M83.858 371.691H119.785L116.785 411.934H86.858L83.858 371.691Z" fill="#407BFF"/>
<path opacity="0.2" d="M94.771 371.691L95.771 411.934H116.785L119.785 371.691H94.771Z" fill="white"/>
<path d="M88.752 356.923C88.378 357.902 85.587 357.132 83.396 356.351C82.644 358.088 82.815 360.36 83.464 362.755C85.963 362.741 89.467 362.834 89.775 363.458C90.111 364.14 86.33 364.392 84.003 364.483C84.623 366.249 85.438 368.027 86.284 369.658C87.58 369.335 88.968 369.191 89.352 369.9C89.751 370.636 88.899 371.776 87.982 372.707C89.381 375.064 90.523 376.66 90.523 376.66C90.523 376.66 92.856 374.509 95.173 371.552C95.183 371.288 95.195 371.022 95.222 370.749C95.317 369.792 95.825 369.644 96.436 369.842C97.368 368.502 98.22 367.065 98.824 365.627C96.754 363.833 94.411 361.34 96.259 360.528C97.374 360.038 98.605 360.597 99.713 361.491C99.699 361.113 99.657 360.742 99.573 360.381C97.921 353.312 92.334 356.357 92.334 356.357C91.004 352.914 87.212 351.538 84.666 354.347C86.257 354.764 89.215 355.714 88.752 356.923Z" fill="#263238"/>
<path opacity="0.3" d="M88.752 356.923C88.378 357.902 85.587 357.132 83.396 356.351C82.644 358.088 82.815 360.36 83.464 362.755C85.963 362.741 89.467 362.834 89.775 363.458C90.111 364.14 86.33 364.392 84.003 364.483C84.623 366.249 85.438 368.027 86.284 369.658C87.58 369.335 88.968 369.191 89.352 369.9C89.751 370.636 88.899 371.776 87.982 372.707C89.381 375.064 90.523 376.66 90.523 376.66C90.523 376.66 92.856 374.509 95.173 371.552C95.183 371.288 95.195 371.022 95.222 370.749C95.317 369.792 95.825 369.644 96.436 369.842C97.368 368.502 98.22 367.065 98.824 365.627C96.754 363.833 94.411 361.34 96.259 360.528C97.374 360.038 98.605 360.597 99.713 361.491C99.699 361.113 99.657 360.742 99.573 360.381C97.921 353.312 92.334 356.357 92.334 356.357C91.004 352.914 87.212 351.538 84.666 354.347C86.257 354.764 89.215 355.714 88.752 356.923Z" fill="white"/>
<path d="M115.428 361.701C114.295 361.785 113.207 362.045 112.145 362.392C111.868 361.633 111.687 360.842 111.661 360.015C111.433 352.769 116.62 355.824 119.361 353.695C120.728 352.633 122.402 351.951 123.946 352.257C123.715 352.656 123.503 353.069 123.326 353.497C123.039 354.191 123.492 354.914 124.203 355.047C124.872 355.172 125.623 355.114 126.238 354.806C126.43 354.71 126.591 354.57 126.761 354.444C127.144 355.09 127.483 355.883 127.756 356.867C128.035 357.874 128.179 358.918 128.225 359.966C127.817 360.057 127.412 360.166 127.013 360.308C126.39 360.529 126.057 361.525 126.559 362.03C127 362.473 127.505 362.825 128.054 363.079C127.875 364.272 127.542 365.404 127.142 366.475C127.019 366.494 126.895 366.508 126.773 366.532C126.509 366.583 126.249 366.652 125.991 366.725C125.843 366.767 125.696 366.817 125.557 366.884C125.198 367.054 124.936 367.361 124.88 367.763C124.824 368.158 124.989 368.567 125.307 368.809C125.476 368.938 125.662 369.039 125.846 369.141C125.02 370.448 124.043 371.484 122.976 372.037C122.976 372.037 121.654 371.46 119.924 370.424C120.14 370.134 120.357 369.844 120.558 369.544C120.796 369.191 120.901 368.828 120.865 368.406C120.831 367.997 120.583 367.64 120.278 367.384C119.984 367.136 119.514 367.028 119.14 367.076C118.774 367.123 118.329 367.348 118.118 367.663C117.878 368.02 117.613 368.36 117.351 368.701C116.027 367.703 114.71 366.498 113.671 365.128C113.711 365.116 113.754 365.104 113.781 365.096C114.45 364.921 115.134 364.808 115.823 364.757C116.684 364.693 117.22 363.827 117.153 363.032C117.081 362.169 116.23 361.641 115.428 361.701Z" fill="#263238"/>
<path opacity="0.5" d="M115.428 361.701C114.295 361.785 113.207 362.045 112.145 362.392C111.868 361.633 111.687 360.842 111.661 360.015C111.433 352.769 116.62 355.824 119.361 353.695C120.728 352.633 122.402 351.951 123.946 352.257C123.715 352.656 123.503 353.069 123.326 353.497C123.039 354.191 123.492 354.914 124.203 355.047C124.872 355.172 125.623 355.114 126.238 354.806C126.43 354.71 126.591 354.57 126.761 354.444C127.144 355.09 127.483 355.883 127.756 356.867C128.035 357.874 128.179 358.918 128.225 359.966C127.817 360.057 127.412 360.166 127.013 360.308C126.39 360.529 126.057 361.525 126.559 362.03C127 362.473 127.505 362.825 128.054 363.079C127.875 364.272 127.542 365.404 127.142 366.475C127.019 366.494 126.895 366.508 126.773 366.532C126.509 366.583 126.249 366.652 125.991 366.725C125.843 366.767 125.696 366.817 125.557 366.884C125.198 367.054 124.936 367.361 124.88 367.763C124.824 368.158 124.989 368.567 125.307 368.809C125.476 368.938 125.662 369.039 125.846 369.141C125.02 370.448 124.043 371.484 122.976 372.037C122.976 372.037 121.654 371.46 119.924 370.424C120.14 370.134 120.357 369.844 120.558 369.544C120.796 369.191 120.901 368.828 120.865 368.406C120.831 367.997 120.583 367.64 120.278 367.384C119.984 367.136 119.514 367.028 119.14 367.076C118.774 367.123 118.329 367.348 118.118 367.663C117.878 368.02 117.613 368.36 117.351 368.701C116.027 367.703 114.71 366.498 113.671 365.128C113.711 365.116 113.754 365.104 113.781 365.096C114.45 364.921 115.134 364.808 115.823 364.757C116.684 364.693 117.22 363.827 117.153 363.032C117.081 362.169 116.23 361.641 115.428 361.701Z" fill="white"/>
<path d="M117.501 336.719C118.133 336.266 118.818 335.925 119.529 335.641C119.341 335.121 119.089 334.626 118.74 334.18C115.68 330.274 114.296 334.155 111.921 334.239C110.737 334.281 109.558 334.657 108.881 335.496C109.178 335.604 109.47 335.728 109.751 335.875C110.206 336.114 110.286 336.692 109.97 337.074C109.674 337.433 109.254 337.733 108.795 337.84C108.652 337.874 108.506 337.871 108.361 337.88C108.444 338.388 108.613 338.952 108.902 339.59C109.197 340.242 109.58 340.853 110.016 341.423C110.27 341.292 110.531 341.172 110.803 341.071C111.228 340.914 111.84 341.291 111.797 341.777C111.76 342.203 111.649 342.61 111.472 342.984C112.09 343.532 112.761 343.981 113.442 344.368C113.515 344.324 113.586 344.277 113.661 344.236C113.822 344.147 113.989 344.069 114.157 343.994C114.253 343.951 114.352 343.913 114.455 343.887C114.718 343.819 114.99 343.865 115.196 344.051C115.399 344.234 115.492 344.521 115.431 344.788C115.399 344.93 115.346 345.064 115.293 345.199C116.301 345.523 117.268 345.639 118.072 345.461C118.072 345.461 118.513 344.578 118.968 343.274C118.727 343.217 118.486 343.159 118.249 343.09C117.969 343.009 117.755 342.865 117.588 342.627C117.426 342.397 117.4 342.101 117.448 341.832C117.494 341.573 117.693 341.31 117.911 341.171C118.124 341.035 118.456 340.958 118.706 341.031C118.989 341.113 119.277 341.175 119.564 341.239C119.821 340.134 119.985 338.923 119.929 337.747C119.903 337.759 119.875 337.771 119.857 337.778C119.429 337.98 119.02 338.22 118.635 338.496C118.155 338.84 117.493 338.62 117.179 338.173C116.839 337.691 117.054 337.04 117.501 336.719Z" fill="#263238"/>
<path opacity="0.3" d="M117.501 336.719C118.133 336.266 118.818 335.925 119.529 335.641C119.341 335.121 119.089 334.626 118.74 334.18C115.68 330.274 114.296 334.155 111.921 334.239C110.737 334.281 109.558 334.657 108.881 335.496C109.178 335.604 109.47 335.728 109.751 335.875C110.206 336.114 110.286 336.692 109.97 337.074C109.674 337.433 109.254 337.733 108.795 337.84C108.652 337.874 108.506 337.871 108.361 337.88C108.444 338.388 108.613 338.952 108.902 339.59C109.197 340.242 109.58 340.853 110.016 341.423C110.27 341.292 110.531 341.172 110.803 341.071C111.228 340.914 111.84 341.291 111.797 341.777C111.76 342.203 111.649 342.61 111.472 342.984C112.09 343.532 112.761 343.981 113.442 344.368C113.515 344.324 113.586 344.277 113.661 344.236C113.822 344.147 113.989 344.069 114.157 343.994C114.253 343.951 114.352 343.913 114.455 343.887C114.718 343.819 114.99 343.865 115.196 344.051C115.399 344.234 115.492 344.521 115.431 344.788C115.399 344.93 115.346 345.064 115.293 345.199C116.301 345.523 117.268 345.639 118.072 345.461C118.072 345.461 118.513 344.578 118.968 343.274C118.727 343.217 118.486 343.159 118.249 343.09C117.969 343.009 117.755 342.865 117.588 342.627C117.426 342.397 117.4 342.101 117.448 341.832C117.494 341.573 117.693 341.31 117.911 341.171C118.124 341.035 118.456 340.958 118.706 341.031C118.989 341.113 119.277 341.175 119.564 341.239C119.821 340.134 119.985 338.923 119.929 337.747C119.903 337.759 119.875 337.771 119.857 337.778C119.429 337.98 119.02 338.22 118.635 338.496C118.155 338.84 117.493 338.62 117.179 338.173C116.839 337.691 117.054 337.04 117.501 336.719Z" fill="white"/>
<path d="M88.229 343.971C88.019 345.441 92.006 346.409 95.257 346.951C94.992 349.62 93.216 352.318 90.763 354.837C87.678 353.099 83.273 350.801 82.461 351.362C81.575 351.975 86.085 354.891 88.905 356.606C86.921 358.367 84.687 360.008 82.516 361.446C81.133 360.154 79.514 359.02 78.549 359.633C77.548 360.27 77.819 362.269 78.313 364.053C74.956 366.01 72.443 367.2 72.443 367.2C72.443 367.2 71.034 362.929 70.201 357.67C70.37 357.336 70.539 356.998 70.693 356.641C71.234 355.39 70.707 354.858 69.814 354.682C69.583 352.38 69.516 350.013 69.759 347.816C73.558 347.019 78.177 345.544 76.447 343.266C75.403 341.892 73.493 341.736 71.505 342.08C71.783 341.622 72.091 341.19 72.443 340.802C79.357 333.184 84.18 340.802 84.18 340.802C88.198 337.453 93.842 338.36 95.062 343.592C92.807 343.015 88.488 342.155 88.229 343.971Z" fill="#263238"/>
<path opacity="0.5" d="M88.229 343.971C88.019 345.441 92.006 346.409 95.257 346.951C94.992 349.62 93.216 352.318 90.763 354.837C87.678 353.099 83.273 350.801 82.461 351.362C81.575 351.975 86.085 354.891 88.905 356.606C86.921 358.367 84.687 360.008 82.516 361.446C81.133 360.154 79.514 359.02 78.549 359.633C77.548 360.27 77.819 362.269 78.313 364.053C74.956 366.01 72.443 367.2 72.443 367.2C72.443 367.2 71.034 362.929 70.201 357.67C70.37 357.336 70.539 356.998 70.693 356.641C71.234 355.39 70.707 354.858 69.814 354.682C69.583 352.38 69.516 350.013 69.759 347.816C73.558 347.019 78.177 345.544 76.447 343.266C75.403 341.892 73.493 341.736 71.505 342.08C71.783 341.622 72.091 341.19 72.443 340.802C79.357 333.184 84.18 340.802 84.18 340.802C88.198 337.453 93.842 338.36 95.062 343.592C92.807 343.015 88.488 342.155 88.229 343.971Z" fill="white"/>
<path d="M289.898 407.109V287.48H284.488V407.109L277.552 409.81V411.932H286.558H287.829H296.835V409.81L289.898 407.109Z" fill="#263238"/>
<path d="M389.961 407.109V287.48H384.551V407.109L377.615 409.81V411.932H386.621H387.892H396.898V409.81L389.961 407.109Z" fill="#263238"/>
<path opacity="0.5" d="M296.837 409.814V411.934H277.547V409.814L284.487 407.104V287.478H289.897V407.104L296.837 409.814Z" fill="white"/>
<path opacity="0.5" d="M396.897 409.814V411.934H377.617V409.814L384.547 407.104V287.478H389.957V407.104L396.897 409.814Z" fill="white"/>
<path opacity="0.2" d="M284.487 287.478H289.897V298.958L284.487 298.348V287.478Z" fill="black"/>
<path opacity="0.2" d="M389.957 287.478V310.178L384.547 309.568V287.478H389.957Z" fill="black"/>
<path d="M406.356 178.02H268.086V294.75H406.356V178.02Z" fill="#263238"/>
<path d="M406.504 280.346H267.941V294.751H406.504V280.346Z" fill="#407BFF"/>
<path d="M406.504 178.02H267.941V192.427H406.504V178.02Z" fill="#407BFF"/>
<path d="M337.317 229.5H333.716L324.976 215.254H324.866C324.898 215.735 324.927 216.243 324.951 216.78C324.984 217.317 325.008 217.871 325.024 218.44C325.049 219.01 325.069 219.588 325.085 220.174V229.5H322.424V211.653H326.001L334.729 225.801H334.814C334.798 225.386 334.778 224.91 334.753 224.373C334.729 223.836 334.705 223.283 334.68 222.713C334.664 222.135 334.652 221.578 334.644 221.041V211.653H337.317V229.5ZM353.674 222.713C353.674 223.836 353.528 224.833 353.235 225.704C352.942 226.574 352.515 227.311 351.953 227.913C351.392 228.507 350.716 228.963 349.927 229.28C349.137 229.59 348.246 229.744 347.253 229.744C346.326 229.744 345.475 229.59 344.702 229.28C343.929 228.963 343.258 228.507 342.688 227.913C342.126 227.311 341.691 226.574 341.382 225.704C341.073 224.833 340.918 223.836 340.918 222.713C340.918 221.224 341.174 219.962 341.687 218.929C342.208 217.887 342.948 217.094 343.909 216.548C344.869 216.003 346.012 215.73 347.339 215.73C348.584 215.73 349.683 216.003 350.635 216.548C351.587 217.094 352.332 217.887 352.869 218.929C353.406 219.97 353.674 221.232 353.674 222.713ZM343.872 222.713C343.872 223.698 343.99 224.54 344.226 225.24C344.47 225.94 344.845 226.477 345.349 226.851C345.854 227.217 346.505 227.4 347.302 227.4C348.1 227.4 348.751 227.217 349.255 226.851C349.76 226.477 350.13 225.94 350.366 225.24C350.602 224.54 350.72 223.698 350.72 222.713C350.72 221.728 350.602 220.894 350.366 220.21C350.13 219.519 349.76 218.994 349.255 218.636C348.751 218.27 348.096 218.086 347.29 218.086C346.102 218.086 345.235 218.485 344.69 219.283C344.145 220.08 343.872 221.224 343.872 222.713Z" fill="white"/>
<path d="M304.072 252.591H305.537C306.973 252.591 308.032 252.352 308.716 251.873C309.399 251.395 309.741 250.643 309.741 249.617C309.741 248.602 309.39 247.879 308.686 247.449C307.993 247.02 306.914 246.805 305.449 246.805H304.072V252.591ZM304.072 256.282V264.5H299.531V243.084H305.771C308.682 243.084 310.835 243.616 312.231 244.681C313.628 245.735 314.326 247.342 314.326 249.5C314.326 250.76 313.979 251.883 313.286 252.869C312.593 253.846 311.611 254.612 310.342 255.169C313.564 259.983 315.664 263.094 316.641 264.5H311.602L306.489 256.282H304.072ZM330.586 264.5L329.985 262.405H329.751C329.272 263.167 328.594 263.758 327.715 264.178C326.836 264.588 325.835 264.793 324.712 264.793C322.788 264.793 321.338 264.28 320.361 263.255C319.385 262.22 318.896 260.735 318.896 258.802V248.123H323.364V257.688C323.364 258.87 323.574 259.759 323.994 260.354C324.414 260.94 325.083 261.233 326.001 261.233C327.251 261.233 328.154 260.818 328.711 259.988C329.268 259.148 329.546 257.762 329.546 255.828V248.123H334.014V264.5H330.586ZM343.169 264.5H338.701V241.707H343.169V264.5ZM354.653 250.994C353.706 250.994 352.964 251.297 352.427 251.902C351.89 252.498 351.582 253.348 351.504 254.451H357.773C357.754 253.348 357.466 252.498 356.909 251.902C356.353 251.297 355.601 250.994 354.653 250.994ZM355.283 264.793C352.646 264.793 350.586 264.065 349.102 262.61C347.617 261.155 346.875 259.095 346.875 256.429C346.875 253.685 347.559 251.565 348.926 250.071C350.303 248.567 352.202 247.815 354.624 247.815C356.938 247.815 358.74 248.475 360.029 249.793C361.318 251.111 361.963 252.933 361.963 255.257V257.425H351.401C351.45 258.694 351.826 259.686 352.529 260.398C353.232 261.111 354.219 261.468 355.488 261.468C356.475 261.468 357.407 261.365 358.286 261.16C359.165 260.955 360.083 260.628 361.04 260.179V263.636C360.259 264.026 359.424 264.314 358.535 264.5C357.646 264.695 356.562 264.793 355.283 264.793ZM377.021 259.637C377.021 261.316 376.436 262.596 375.264 263.475C374.102 264.354 372.358 264.793 370.034 264.793C368.843 264.793 367.827 264.71 366.987 264.544C366.147 264.388 365.361 264.153 364.629 263.841V260.149C365.459 260.54 366.392 260.867 367.427 261.131C368.472 261.395 369.39 261.526 370.181 261.526C371.802 261.526 372.612 261.058 372.612 260.12C372.612 259.769 372.505 259.485 372.29 259.271C372.075 259.046 371.704 258.797 371.177 258.523C370.649 258.24 369.946 257.913 369.067 257.542C367.808 257.015 366.88 256.526 366.284 256.077C365.698 255.628 365.269 255.115 364.995 254.539C364.731 253.953 364.6 253.235 364.6 252.386C364.6 250.931 365.161 249.808 366.284 249.017C367.417 248.216 369.019 247.815 371.089 247.815C373.061 247.815 374.98 248.245 376.846 249.104L375.498 252.327C374.678 251.976 373.911 251.688 373.198 251.463C372.485 251.238 371.758 251.126 371.016 251.126C369.697 251.126 369.038 251.482 369.038 252.195C369.038 252.596 369.248 252.942 369.668 253.235C370.098 253.528 371.03 253.963 372.466 254.539C373.745 255.057 374.683 255.54 375.278 255.989C375.874 256.438 376.313 256.956 376.597 257.542C376.88 258.128 377.021 258.826 377.021 259.637Z" fill="white"/>
<g opacity="0.7">
<path d="M281.966 280.349L271.686 294.75H268.086V289.449L274.586 280.349H281.966Z" fill="white"/>
<path d="M285.926 294.751H278.541L288.827 280.346H296.212L285.926 294.751Z" fill="white"/>
<path d="M300.168 294.751H292.783L303.069 280.346H310.453L300.168 294.751Z" fill="white"/>
<path d="M314.409 294.751H307.025L317.311 280.346H324.695L314.409 294.751Z" fill="white"/>
<path d="M328.651 294.751H321.267L331.552 280.346H338.937L328.651 294.751Z" fill="white"/>
<path d="M342.893 294.751H335.508L345.794 280.346H353.179L342.893 294.751Z" fill="white"/>
<path d="M357.135 294.751H349.75L360.036 280.346H367.421L357.135 294.751Z" fill="white"/>
<path d="M371.376 294.751H363.992L374.278 280.346H381.662L371.376 294.751Z" fill="white"/>
<path d="M385.618 294.751H378.234L388.519 280.346H395.904L385.618 294.751Z" fill="white"/>
<path d="M406.356 280.349V285.65L399.856 294.75H392.477L402.756 280.349H406.356Z" fill="white"/>
</g>
<g opacity="0.7">
<path d="M281.966 178.02L271.686 192.43H268.086V187.12L274.586 178.02H281.966Z" fill="white"/>
<path d="M285.926 192.426H278.541L288.827 178.021H296.212L285.926 192.426Z" fill="white"/>
<path d="M300.168 192.426H292.783L303.069 178.021H310.453L300.168 192.426Z" fill="white"/>
<path d="M314.409 192.426H307.025L317.311 178.021H324.695L314.409 192.426Z" fill="white"/>
<path d="M328.651 192.426H321.267L331.552 178.021H338.937L328.651 192.426Z" fill="white"/>
<path d="M342.893 192.426H335.508L345.794 178.021H353.179L342.893 192.426Z" fill="white"/>
<path d="M357.135 192.426H349.75L360.036 178.021H367.421L357.135 192.426Z" fill="white"/>
<path d="M371.376 192.426H363.992L374.278 178.021H381.662L371.376 192.426Z" fill="white"/>
<path d="M385.618 192.426H378.234L388.519 178.021H395.904L385.618 192.426Z" fill="white"/>
<path d="M406.356 178.02V183.329L399.856 192.43H392.477L402.756 178.02H406.356Z" fill="white"/>
</g>
<path d="M356.254 422.621C388.605 422.621 414.83 420.406 414.83 417.673C414.83 414.94 388.605 412.725 356.254 412.725C323.903 412.725 297.678 414.94 297.678 417.673C297.678 420.406 323.903 422.621 356.254 422.621Z" fill="#263238"/>
<path d="M281.681 410.913L267.84 341.984H262.536L248.694 410.913L238.521 417.139V418.984H291.521V417.139L281.681 410.913Z" fill="#407BFF"/>
<path opacity="0.2" d="M291.521 417.139H238.521V419.46H291.521V417.139Z" fill="white"/>
<path opacity="0.2" d="M267.84 341.984H262.536L248.527 410.71H281.515L267.84 341.984Z" fill="white"/>
<path opacity="0.6" d="M277.076 388.405L273.928 372.581H256.299L253.074 388.405H277.076Z" fill="white"/>
<path d="M166.943 129.738H124.206C119.32 129.738 115.36 133.698 115.36 138.584V153.58C115.36 158.465 119.321 162.426 124.206 162.426H152.606L165.587 176.324L158.556 162.426H166.943C171.828 162.426 175.789 158.466 175.789 153.58V138.584C175.789 133.698 171.829 129.738 166.943 129.738Z" fill="#407BFF"/>
<path opacity="0.7" d="M166.943 129.738H124.206C119.32 129.738 115.36 133.698 115.36 138.584V153.58C115.36 158.465 119.321 162.426 124.206 162.426H152.606L165.587 176.324L158.556 162.426H166.943C171.828 162.426 175.789 158.466 175.789 153.58V138.584C175.789 133.698 171.829 129.738 166.943 129.738Z" fill="white"/>
<path d="M126.297 145.259C126.297 142.466 128.45 140.381 131.38 140.381C134.282 140.381 136.435 142.452 136.435 145.259C136.435 148.066 134.282 150.137 131.38 150.137C128.45 150.137 126.297 148.053 126.297 145.259ZM135.072 145.259C135.072 143.147 133.491 141.594 131.38 141.594C129.24 141.594 127.66 143.147 127.66 145.259C127.66 147.371 129.241 148.925 131.38 148.925C133.492 148.925 135.072 147.371 135.072 145.259Z" fill="#407BFF"/>
<path d="M137.66 146.417C137.66 144.264 139.254 142.738 141.421 142.738C143.588 142.738 145.168 144.264 145.168 146.417C145.168 148.57 143.587 150.109 141.421 150.109C139.254 150.11 137.66 148.57 137.66 146.417ZM143.846 146.417C143.846 144.877 142.811 143.882 141.421 143.882C140.031 143.882 138.982 144.877 138.982 146.417C138.982 147.957 140.031 148.965 141.421 148.965C142.811 148.965 143.846 147.957 143.846 146.417Z" fill="#407BFF"/>
<path d="M154.46 146.417C154.46 148.638 152.92 150.109 150.808 150.109C149.786 150.109 148.887 149.714 148.287 148.938V152.671H146.979V142.806H148.233V143.951C148.819 143.147 149.745 142.738 150.808 142.738C152.92 142.738 154.46 144.21 154.46 146.417ZM153.138 146.417C153.138 144.891 152.089 143.882 150.699 143.882C149.323 143.882 148.274 144.89 148.274 146.417C148.274 147.957 149.323 148.965 150.699 148.965C152.088 148.965 153.138 147.957 153.138 146.417Z" fill="#407BFF"/>
<path d="M155.357 149.265L155.902 148.229C156.515 148.665 157.496 148.978 158.437 148.978C159.649 148.978 160.154 148.61 160.154 147.997C160.154 146.375 155.589 147.779 155.589 144.904C155.589 143.61 156.747 142.737 158.6 142.737C159.54 142.737 160.603 142.982 161.23 143.391L160.671 144.427C160.017 144.004 159.295 143.854 158.586 143.854C157.441 143.854 156.882 144.277 156.882 144.849C156.882 146.552 161.461 145.162 161.461 147.969C161.461 149.277 160.262 150.108 158.34 150.108C157.142 150.11 155.957 149.742 155.357 149.265Z" fill="#407BFF"/>
<path d="M162.796 149.238C162.796 148.748 163.177 148.366 163.695 148.366C164.199 148.366 164.567 148.748 164.567 149.238C164.567 149.715 164.199 150.11 163.695 150.11C163.178 150.11 162.796 149.715 162.796 149.238ZM162.919 140.49H164.459L164.2 147.017H163.164L162.919 140.49Z" fill="#407BFF"/>
<path d="M107.72 411.98L114.136 415.675L123.227 401.115L116.802 397.415L107.72 411.98Z" fill="#FFB573"/>
<path opacity="0.2" d="M116.797 397.423L123.222 401.123L118.531 408.628L112.106 404.929L116.797 397.423Z" fill="black"/>
<path d="M116.02 411.03H107.024C106.721 411.031 106.459 411.243 106.393 411.539L104.933 418.133C104.808 418.723 105.185 419.303 105.776 419.428C105.855 419.445 105.936 419.453 106.016 419.452C108.927 419.405 111.046 419.226 114.701 419.226C116.952 419.226 123.744 419.462 126.853 419.462C129.962 419.462 130.367 416.391 129.095 416.109C123.386 414.866 119.091 413.142 117.263 411.503C116.925 411.19 116.48 411.021 116.02 411.03Z" fill="#263238"/>
<path d="M116.529 412.056C116.459 412.037 116.406 411.978 116.397 411.905C116.385 411.836 116.42 411.767 116.482 411.735C116.746 411.566 119.138 410.096 119.958 410.52C120.146 410.609 120.265 410.801 120.259 411.01C120.308 411.366 120.169 411.723 119.892 411.952C119.475 412.236 118.973 412.369 118.47 412.329C117.815 412.311 117.164 412.219 116.529 412.056ZM117.038 411.812C117.902 412.104 118.845 412.057 119.676 411.68C119.853 411.521 119.941 411.285 119.911 411.049C119.902 410.908 119.845 410.842 119.798 410.842C119.729 410.805 119.65 410.788 119.572 410.795C118.67 410.968 117.81 411.314 117.038 411.812Z" fill="#407BFF"/>
<path d="M116.482 412.094C116.428 412.059 116.396 411.998 116.397 411.934C116.406 411.831 116.585 409.701 117.443 409.005C117.647 408.826 117.918 408.743 118.187 408.779C118.462 408.778 118.698 408.972 118.752 409.241C118.903 410.023 117.424 411.653 116.661 412.067H116.576C116.549 412.085 116.516 412.095 116.482 412.094ZM117.669 409.212C117.148 409.877 116.842 410.686 116.793 411.529C117.556 410.954 118.498 409.72 118.404 409.24C118.395 409.193 118.376 409.061 118.15 409.061H118.065C117.919 409.062 117.778 409.115 117.669 409.212Z" fill="#407BFF"/>
<path d="M211.291 413.7L218.924 412.816L216.717 396.419L209.084 397.304L211.291 413.7Z" fill="#FFB573"/>
<path opacity="0.2" d="M209.084 397.304L216.717 396.419L217.849 404.878L210.216 405.762L209.084 397.304Z" fill="black"/>
<path d="M219.085 411.03H210.089C209.786 411.031 209.524 411.243 209.458 411.539L207.998 418.133C207.873 418.723 208.25 419.303 208.841 419.428C208.92 419.445 209.001 419.453 209.082 419.452C211.993 419.405 214.112 419.226 217.767 419.226C220.018 419.226 226.81 419.462 229.919 419.462C233.028 419.462 233.433 416.391 232.161 416.109C226.452 414.866 222.157 413.142 220.329 411.503C219.99 411.19 219.545 411.021 219.085 411.03Z" fill="#263238"/>
<path d="M219.594 412.056C219.524 412.037 219.471 411.978 219.462 411.905C219.45 411.836 219.485 411.767 219.547 411.735C219.811 411.566 222.203 410.096 223.023 410.52C223.211 410.609 223.33 410.801 223.324 411.01C223.373 411.366 223.234 411.723 222.957 411.952C222.54 412.236 222.038 412.369 221.535 412.329C220.88 412.311 220.229 412.219 219.594 412.056ZM220.103 411.812C220.967 412.104 221.91 412.057 222.741 411.68C222.918 411.521 223.006 411.285 222.976 411.049C222.967 410.908 222.91 410.842 222.863 410.842C222.794 410.805 222.715 410.788 222.637 410.795C221.735 410.968 220.875 411.314 220.103 411.812Z" fill="#407BFF"/>
<path d="M219.547 412.094C219.493 412.059 219.461 411.998 219.462 411.934C219.471 411.831 219.65 409.701 220.508 409.005C220.712 408.826 220.983 408.743 221.252 408.779C221.527 408.778 221.763 408.972 221.817 409.241C221.968 410.023 220.489 411.653 219.726 412.067H219.641C219.613 412.085 219.58 412.095 219.547 412.094ZM220.734 409.212C220.213 409.877 219.907 410.686 219.858 411.529C220.621 410.954 221.563 409.72 221.469 409.24C221.46 409.193 221.441 409.061 221.215 409.061H221.13C220.984 409.062 220.843 409.115 220.734 409.212Z" fill="#407BFF"/>
<path d="M218.822 401.479L206.002 398.419C206.002 398.419 196.712 331.139 174.862 300.649C172.012 296.669 168.952 293.319 165.672 290.829C164.312 307.729 162.712 325.709 161.322 335.279C157.902 358.829 124.772 404.199 124.772 404.199L113.172 399.329C113.172 399.329 139.802 350.029 141.082 326.879C142.482 301.749 143.092 257.669 143.142 252.509H182.452C186.182 272.919 214.281 319.579 218.822 401.479Z" fill="#263238"/>
<path opacity="0.3" d="M218.822 401.479L206.002 398.419C206.002 398.419 196.712 331.139 174.862 300.649C172.012 296.669 168.952 293.319 165.672 290.829C164.312 307.729 162.712 325.709 161.322 335.279C157.902 358.829 124.772 404.199 124.772 404.199L113.172 399.329C113.172 399.329 139.802 350.029 141.082 326.879C142.482 301.749 143.092 257.669 143.142 252.509H182.452C186.182 272.919 214.281 319.579 218.822 401.479Z" fill="white"/>
<path d="M206.136 209.141C206.143 212.155 206.059 215.168 206.018 218.181C205.952 221.194 205.876 224.206 205.765 227.218C205.568 233.243 205.292 239.266 204.979 245.288L204.894 244.298C205.322 246.991 205.707 249.693 206.098 252.393C206.495 255.092 206.839 257.802 207.2 260.508C207.539 263.218 207.871 265.93 208.167 268.649C208.438 271.373 208.742 274.09 208.949 276.826L203.786 277.819C202.963 275.202 202.238 272.566 201.479 269.936C200.746 267.301 200.047 264.66 199.357 262.017C198.688 259.37 198.002 256.726 197.369 254.072C196.73 251.419 196.085 248.768 195.484 246.108L195.409 245.778L195.398 245.118C195.299 239.088 195.236 233.059 195.254 227.031C195.249 224.017 195.281 221.004 195.321 217.99C195.387 214.977 195.409 211.964 195.524 208.952L206.136 209.141Z" fill="#FFB573"/>
<path d="M205.37 206C208.595 208.01 204.836 229.097 205.616 244.933C205.707 246.779 206.366 249.645 206.366 249.645L195.495 250.867C195.495 250.867 194.148 245.722 193.964 243.184C193.429 235.799 193.958 214.933 193.958 214.933L205.37 206Z" fill="#407BFF"/>
<path opacity="0.7" d="M205.62 244.93C205.71 246.78 206.37 249.65 206.37 249.65L195.49 250.87C195.49 250.87 194.15 245.72 193.96 243.18C193.82 241.28 193.75 238.48 193.73 235.38C193.7 230.7 193.76 225.32 193.83 221.26C193.82 221.25 193.83 221.25 193.83 221.25C193.89 217.54 193.96 214.93 193.96 214.93L205.37 206C208.59 208.01 204.84 229.1 205.62 244.93Z" fill="white"/>
<path d="M208.788 275.388L210.861 285.548L201.803 285.918C201.803 285.918 199.356 279.02 203.926 275.074L208.788 275.388Z" fill="#FFB573"/>
<path d="M208.769 292.626L201.952 291.286L201.803 285.918L210.861 285.548L208.769 292.626Z" fill="#FFB573"/>
<path d="M194.551 249.054L206.366 247.175L206.699 250.439L195.342 251.626L194.551 249.054Z" fill="#407BFF"/>
<path opacity="0.6" d="M194.551 249.054L206.366 247.175L206.699 250.439L195.342 251.626L194.551 249.054Z" fill="white"/>
<path opacity="0.1" d="M193.73 235.38C193.7 230.7 193.76 225.32 193.83 221.26C193.82 221.25 193.83 221.25 193.83 221.25C195.04 218.84 196.24 216.93 197.22 216.09C197.22 216.09 199.35 226.02 193.73 235.38Z" fill="black"/>
<path d="M220.482 403.733L204.013 401.283L204.517 396.723L221.648 398.972L220.482 403.733Z" fill="#263238"/>
<path d="M125.711 407.061L110.864 401.161L112.628 396.723L128.149 402.557L125.711 407.061Z" fill="#263238"/>
<path opacity="0.3" d="M174.861 300.649C172.011 296.669 168.951 293.319 165.671 290.829L166.761 276.849C166.761 276.849 173.572 288.009 174.861 300.649Z" fill="black"/>
<path d="M205.37 206C190.55 230.59 183.97 260.72 183.97 260.72L176.73 273.15L171.69 259.11C171.29 259.05 170.88 258.99 170.46 258.93C169.87 258.84 169.27 258.75 168.66 258.66C168.06 258.57 167.44 258.48 166.82 258.38C165.58 258.19 164.31 257.99 163.04 257.78C162.41 257.68 161.77 257.57 161.13 257.46C160.49 257.36 159.86 257.25 159.22 257.13C158.59 257.02 157.96 256.91 157.33 256.79C156.7 256.68 156.08 256.56 155.46 256.44C153.75 256.11 152.08 255.77 150.51 255.42C150.22 255.35 149.95 255.29 149.67 255.23C148.51 254.96 147.4 254.69 146.37 254.41C145.35 254.13 144.41 253.85 143.56 253.57C143.35 253.5 143.14 253.43 142.94 253.36C144.6 241.89 147.19 232.11 150.06 223.97C150.56 222.54 151.07 221.17 151.59 219.84C153.85 214.04 156.21 209.2 158.39 205.29C158.44 205.19 158.5 205.1 158.55 205C163.15 196.76 172.47 193.17 178.07 194.59C182.32 195.68 189.04 198.23 193.65 200.11C199.53 202.52 205.37 206 205.37 206Z" fill="#407BFF"/>
<path opacity="0.7" d="M205.37 206C190.55 230.59 183.97 260.72 183.97 260.72L176.73 273.15L171.69 259.11C171.29 259.05 170.88 258.99 170.46 258.93C169.87 258.84 169.27 258.75 168.66 258.66C168.06 258.57 167.44 258.48 166.82 258.38C165.58 258.19 164.31 257.99 163.04 257.78C162.41 257.68 161.77 257.57 161.13 257.46C160.49 257.36 159.86 257.25 159.22 257.13C158.59 257.02 157.96 256.91 157.33 256.79C156.7 256.68 156.08 256.56 155.46 256.44C153.75 256.11 152.08 255.77 150.51 255.42C150.22 255.35 149.95 255.29 149.67 255.23C148.51 254.96 147.4 254.69 146.37 254.41C145.35 254.14 144.41 253.86 143.56 253.57C143.35 253.5 143.14 253.43 142.94 253.36C144.6 241.89 147.19 232.11 150.06 223.97C150.56 222.54 151.07 221.17 151.59 219.84C153.85 214.04 156.21 209.2 158.39 205.29C158.44 205.19 158.5 205.1 158.55 205C163.15 196.76 172.47 193.17 178.07 194.59C182.32 195.68 189.04 198.23 193.65 200.11C199.53 202.52 205.37 206 205.37 206Z" fill="white"/>
<path opacity="0.1" d="M181.59 223.18C181.59 223.18 181.17 225.42 180.66 228.58C180.15 231.75 178.4 237.15 177.61 238.78C176.81 240.41 173.52 246.91 174.15 249.81C174.78 252.71 171.69 259.11 171.69 259.11C171.29 259.05 170.88 258.99 170.46 258.93C171.22 255.38 173.77 243.89 175.15 242.56C176.78 240.98 179.32 233.99 178.79 231.36C178.27 228.73 181.59 223.18 181.59 223.18Z" fill="black"/>
<path d="M170.764 275.388L172.837 285.548L163.779 285.918C163.779 285.918 161.332 279.02 165.902 275.074L170.764 275.388Z" fill="#FFB573"/>
<path d="M170.745 292.626L163.928 291.286L163.779 285.918L172.837 285.548L170.745 292.626Z" fill="#FFB573"/>
<path d="M176.486 195.086C177.526 197.916 185.486 208.046 185.486 208.046L192.536 200.096C192.536 200.096 191.776 199.486 191.256 198.476C190.726 197.456 190.456 196.006 191.536 194.346C191.856 193.856 192.356 193.476 192.816 193.076C192.896 193.026 192.966 192.956 193.036 192.896L189.516 179.766C187.316 184.836 181.666 194.256 176.486 195.086Z" fill="#FFB573"/>
<path opacity="0.2" d="M191.256 198.476C190.726 197.456 190.456 196.006 191.536 194.346C191.856 193.856 192.356 193.476 192.816 193.076L187.586 183.916C184.296 191.206 188.516 196.286 191.256 198.476Z" fill="black"/>
<path d="M204.16 168.71C204.16 168.71 207.004 178.633 202.134 183.218C197.264 187.804 194.834 168.963 194.834 168.963L204.16 168.71Z" fill="#FFB573"/>
<path opacity="0.4" d="M204.16 168.71C204.16 168.71 207.004 178.633 202.134 183.218C197.264 187.804 194.834 168.963 194.834 168.963L204.16 168.71Z" fill="black"/>
<path d="M187.576 193.273C190.665 196.683 195.043 197.116 198.583 195.472C200.86 194.419 202.787 192.498 203.809 189.964C203.947 189.633 204.064 189.285 204.17 188.93C206.016 182.404 205.038 167.022 198.399 168.266C192.961 169.285 187.411 168.125 185.087 173.155C184.416 174.581 184.105 176.15 184.157 177.729C184.285 185.064 184.015 189.382 187.576 193.273Z" fill="#FFB573"/>
<path d="M199.786 180.715C200.422 182.569 201.311 184.326 202.428 185.937C201.574 186.496 200.516 186.649 199.538 186.355L199.786 180.715Z" fill="#ED893E"/>
<path d="M197.368 175.482C197.24 175.454 197.107 175.496 197.019 175.593C196.445 176.275 195.582 176.646 194.692 176.595C194.502 176.567 194.324 176.698 194.296 176.888C194.268 177.079 194.399 177.256 194.59 177.284H194.592C195.716 177.378 196.815 176.922 197.542 176.06C197.674 175.92 197.666 175.699 197.526 175.567C197.524 175.565 197.522 175.563 197.52 175.561C197.472 175.527 197.421 175.501 197.368 175.482Z" fill="#263238"/>
<path d="M201.789 175.068C201.721 175.049 201.648 175.053 201.582 175.078C201.418 175.179 201.368 175.394 201.47 175.558C201.471 175.56 201.473 175.562 201.474 175.564C202.063 176.53 203.086 177.148 204.215 177.222C204.407 177.223 204.564 177.068 204.566 176.876V176.875C204.562 176.684 204.41 176.529 204.219 176.524C203.33 176.44 202.532 175.94 202.069 175.176C201.996 175.101 201.894 175.062 201.789 175.068Z" fill="#263238"/>
<path d="M185.541 182.825C184.839 183.028 184.796 186.157 185.523 189.002L184.276 189.353C183.202 187.839 182.029 185.691 181.277 182.844C179.705 176.898 179.488 173.052 180.056 170.076L189.907 168.805L190.323 172.035C189.267 172.607 188.635 173.808 189.133 175.078C190.195 177.79 188.681 182.019 186.606 183.715C186.606 183.717 186.533 182.539 185.541 182.825Z" fill="#FFB573"/>
<path opacity="0.4" d="M185.541 182.825C184.839 183.028 184.796 186.157 185.523 189.002L184.276 189.353C183.202 187.839 182.029 185.691 181.277 182.844C179.705 176.898 179.488 173.052 180.056 170.076L189.907 168.805L190.323 172.035C189.267 172.607 188.635 173.808 189.133 175.078C190.195 177.79 188.681 182.019 186.606 183.715C186.606 183.717 186.533 182.539 185.541 182.825Z" fill="black"/>
<path d="M180.708 183.607C181.453 185.298 182.839 186.625 184.561 187.296C186.847 188.169 188.215 186.176 187.774 183.898C187.363 181.877 185.692 178.922 183.3 179.048C180.908 179.175 179.82 181.52 180.708 183.607Z" fill="#FFB573"/>
<path d="M182.007 167.129C182.007 167.129 180.817 165.067 183.417 162.623C186.017 160.179 196.918 159.166 200.183 161.193C203.448 163.22 206.108 161.718 205.941 160.395C205.941 160.395 207.032 161.595 206.12 163.221C206.12 163.221 208.213 163.112 209.232 166.249C209.232 166.249 207.929 165.999 207.074 166.856C207.074 166.856 208.373 168.066 207.931 169.902C207.931 169.902 206.776 168.72 205.545 168.724C205.545 168.724 206.119 170.275 206.759 170.848C206.759 170.848 202.437 171.332 200.197 169.691C200.197 169.691 200.926 170.961 201.921 171.593C201.921 171.593 194.876 172.89 192.583 170.111C192.583 170.111 191.358 171.689 191.885 173.527C191.885 173.527 189.721 173.588 188.721 172.226C188.721 172.226 185.984 174.578 182.779 174.72C182.779 174.72 183.094 174.426 183.757 173.349C183.757 173.349 180.164 175.456 177.804 173.86C177.804 173.86 178.286 173.108 178.402 172.185L177.464 172.654C177.464 172.654 177.399 167.33 182.007 167.129Z" fill="#263238"/>
<path d="M194.837 182.971C194.631 183.029 194.407 183.075 194.161 183.107C194.065 183.119 193.977 183.051 193.965 182.955C193.953 182.859 194.023 182.779 194.117 182.759C196.362 182.477 196.667 180.885 196.679 180.817C196.695 180.722 196.784 180.658 196.881 180.673C196.976 180.689 197.04 180.779 197.025 180.874C197.021 180.892 196.745 182.434 194.837 182.971Z" fill="#ED893E"/>
<path d="M203.525 182.911C203.503 182.917 203.48 182.919 203.457 182.916C202.197 182.763 201.628 181.078 201.604 181.006C201.573 180.914 201.623 180.815 201.715 180.785C201.8 180.755 201.905 180.805 201.936 180.896C201.941 180.911 202.459 182.442 203.499 182.568C203.595 182.579 203.663 182.667 203.652 182.763C203.642 182.835 203.591 182.892 203.525 182.911Z" fill="#ED893E"/>
<path d="M195.195 180.234C195.129 180.824 195.462 181.325 195.859 181.341C196.255 181.357 196.583 180.881 196.611 180.287C196.639 179.693 196.334 179.195 195.947 179.18C195.561 179.165 195.225 179.63 195.195 180.234Z" fill="#263238"/>
<path d="M201.941 180.509C201.875 181.099 202.218 181.601 202.605 181.616C202.992 181.631 203.329 181.156 203.357 180.562C203.385 179.968 203.08 179.47 202.693 179.455C202.307 179.441 201.966 179.943 201.941 180.509Z" fill="#263238"/>
<path d="M194.572 180.26C194.572 180.26 196.304 180.302 197.027 179.766C197.75 179.23 196.424 178.703 195.768 178.703C195.112 178.703 194.131 179.74 194.572 180.26Z" fill="#FFB573"/>
<path d="M201.608 180.14C201.608 180.14 203.236 180.731 204.092 180.453C204.948 180.175 203.859 179.253 203.237 179.044C202.615 178.835 201.356 179.507 201.608 180.14Z" fill="#FFB573"/>
<path d="M200.08 191.03C200.08 191.03 199.2 191.39 198.07 191.76C196.04 192.43 193.18 193.13 193.01 191.91C192.96 191.55 193.05 191.24 193.26 190.97C194.12 189.79 196.99 189.36 198.89 189.16C198.89 189.16 198.99 189.86 199.16 190.1C199.67 190.86 200.08 191.03 200.08 191.03Z" fill="#263238"/>
<path d="M198.07 191.76C196.04 192.43 193.18 193.13 193.01 191.91C192.96 191.55 193.05 191.24 193.26 190.97C194.96 190.85 197.27 190.87 198.07 191.76Z" fill="#A02724"/>
<path d="M190.842 178.703C190.842 178.703 191.88 181.341 190.842 181.341C189.804 181.341 190.842 178.703 190.842 178.703Z" fill="white"/>
<path d="M189.139 180.978C189.139 180.978 190.177 183.616 189.139 183.616C188.1 183.616 189.139 180.978 189.139 180.978Z" fill="white"/>
<path d="M202.701 172.451C202.701 172.451 204.295 174.796 203.282 175.024C202.269 175.253 202.701 172.451 202.701 172.451Z" fill="white"/>
<path d="M203.745 185.184C203.745 185.184 204.658 187.868 203.621 187.819C202.583 187.77 203.745 185.184 203.745 185.184Z" fill="white"/>
<path d="M175.151 193.109C175.151 193.109 180.189 208.142 183.222 213.812L183.881 213.107C183.881 213.107 178.343 197.329 177.486 193.109H175.151Z" fill="#407BFF"/>
<path d="M190.88 200.395C190.88 200.395 190.842 207.054 186.855 213.813V214.934C186.855 214.934 190.816 211.571 192.035 201.582L190.88 200.395Z" fill="#407BFF"/>
<path d="M182.707 213.473L183.697 211.719C185.502 214.018 187.035 212.782 187.035 212.782L187.691 214.184L185.947 218.988H184.15L182.707 213.473Z" fill="#407BFF"/>
<path d="M185.848 216.615C185.848 216.615 185.171 232.835 185.848 242.23C186.282 248.247 186.738 259.043 186.441 261.911L183.731 263.988L181.595 260.716C181.595 260.716 183.276 256.274 182.485 244.999C181.694 233.724 184.587 217.01 184.587 217.01L185.848 216.615Z" fill="#407BFF"/>
<path d="M171.785 194.013L177.176 191.149L184.548 197.988L184.896 206.873L190.163 199.661L193.379 198.023L195.713 201.93L192.766 206.631L190.885 204.199L184.564 209.573L179.902 202.16L176.766 203.857L171.785 194.013Z" fill="#407BFF"/>
<path opacity="0.6" d="M171.785 194.013L177.176 191.149L184.548 197.988L184.896 206.873L190.163 199.661L193.379 198.023L195.713 201.93L192.766 206.631L190.885 204.199L184.564 209.573L179.902 202.16L176.766 203.857L171.785 194.013Z" fill="white"/>
<path opacity="0.1" d="M184.564 209.573L190.333 202.176L192.766 206.631L190.885 204.199L184.564 209.573Z" fill="black"/>
<path opacity="0.1" d="M184.564 209.573L181.929 200.016L176.766 203.857L179.902 202.16L184.564 209.573Z" fill="black"/>
<path opacity="0.1" d="M168.34 252.51L159.14 253.5C159.14 253.5 149.3 238.57 150.06 223.97C150.56 222.54 151.07 221.17 151.59 219.84C153.85 214.04 156.21 209.2 158.39 205.29C159.76 204.04 160.73 203.46 160.73 203.46L170.24 217.64C170.24 217.64 170.85 240.75 168.34 252.51Z" fill="black"/>
<path d="M168.112 209.141C168.119 212.155 168.035 215.168 167.994 218.181C167.928 221.194 167.852 224.206 167.741 227.218C167.544 233.243 167.268 239.266 166.955 245.288L166.87 244.298C167.298 246.991 167.683 249.693 168.074 252.393C168.471 255.092 168.815 257.802 169.176 260.508C169.515 263.218 169.847 265.93 170.143 268.649C170.414 271.373 170.718 274.09 170.925 276.826L165.762 277.819C164.939 275.202 164.214 272.566 163.455 269.936C162.722 267.301 162.023 264.66 161.333 262.017C160.664 259.37 159.978 256.726 159.345 254.072C158.706 251.419 158.062 248.768 157.46 246.108L157.385 245.778L157.374 245.118C157.275 239.088 157.212 233.059 157.23 227.031C157.225 224.017 157.257 221.004 157.297 217.99C157.363 214.977 157.385 211.964 157.5 208.952L168.112 209.141Z" fill="#FFB573"/>
<path d="M163.76 201.153C168.903 203.395 170.46 211.719 170.46 211.719C170.46 211.719 167.85 243.615 167.981 244.933C168.112 246.252 168.343 248.757 168.343 248.757L157.299 250.867C157.299 250.867 156.376 244.933 155.848 232.801C155.32 220.669 155.808 210.559 158.353 206.092C160.898 201.625 163.76 201.153 163.76 201.153Z" fill="#407BFF"/>
<path opacity="0.7" d="M163.76 201.153C168.903 203.395 170.46 211.719 170.46 211.719C170.46 211.719 167.85 243.615 167.981 244.933C168.112 246.252 168.343 248.757 168.343 248.757L157.299 250.867C157.299 250.867 156.376 244.933 155.848 232.801C155.32 220.669 155.808 210.559 158.353 206.092C160.898 201.625 163.76 201.153 163.76 201.153Z" fill="white"/>
<path d="M155.658 249.021L169.167 246.779L168.342 250.208L157.167 252.511L155.658 249.021Z" fill="#407BFF"/>
<path opacity="0.6" d="M155.658 249.021L169.167 246.779L168.342 250.208L157.167 252.511L155.658 249.021Z" fill="white"/>
<path d="M228.827 298.73L226.641 330.489C226.569 331.528 225.613 332.328 224.49 332.263L183.406 330.001C182.295 329.936 181.443 329.031 181.515 327.992L183.701 296.233C183.773 295.182 184.742 294.394 185.853 294.459L226.937 296.721C228.06 296.786 228.9 297.679 228.827 298.73Z" fill="#263238"/>
<path d="M188.567 296.515L186.381 328.274C186.309 329.313 185.34 330.113 184.229 330.048L183.406 330C182.295 329.935 181.443 329.03 181.515 327.991L183.701 296.232C183.773 295.181 184.742 294.393 185.853 294.458L186.676 294.506C187.786 294.571 188.639 295.465 188.567 296.515Z" fill="black"/>
<path d="M207.507 326.132L225.98 322.817C225.98 322.817 235.334 340.834 240.82 345.722L220.311 353.298C220.311 353.298 210.593 341.639 207.507 326.132Z" fill="#407BFF"/>
<path opacity="0.7" d="M207.507 326.132L225.98 322.817C225.98 322.817 235.334 340.834 240.82 345.722L220.311 353.298C220.311 353.298 210.593 341.639 207.507 326.132Z" fill="white"/>
<path d="M207.029 308.805C210.491 310.882 220.776 327.398 220.776 327.398L242.336 315.469C242.336 315.469 231.358 305.145 227.897 303.86C224.436 302.574 207.029 308.805 207.029 308.805Z" fill="#407BFF"/>
<path opacity="0.6" d="M206.733 308.805C210.253 310.882 220.711 327.398 220.711 327.398L242.634 315.469C242.634 315.469 231.472 305.145 227.952 303.86C224.432 302.574 206.733 308.805 206.733 308.805Z" fill="white"/>
<path d="M193.725 303.262C193.725 303.262 197.777 312.64 198.677 321.258L227.039 316.257C227.039 316.257 222.837 305.159 221.036 303.262C219.235 301.364 193.725 303.262 193.725 303.262Z" fill="#407BFF"/>
<path opacity="0.7" d="M193.725 303.262C193.725 303.262 197.777 312.64 198.677 321.258L227.039 316.257C227.039 316.257 222.837 305.159 221.036 303.262C219.235 301.364 193.725 303.262 193.725 303.262Z" fill="white"/>
<path d="M196.704 295.966C196.704 295.966 199.694 286.128 204.331 286.827C208.968 287.526 215.298 291.746 216.484 297.021" stroke="#263238" stroke-width="1.2206" stroke-miterlimit="10"/>
<path d="M187.254 294.56C188.294 294.621 189.319 295.566 189.5 296.518L192.248 310.914C192.403 311.724 193.245 312.422 194.13 312.473L231.153 314.504C232.038 314.555 232.63 313.941 232.476 313.131L229.719 298.688C229.526 297.677 228.474 296.805 227.369 296.741L186.298 294.475L187.254 294.56Z" fill="#263238"/>
<path opacity="0.1" d="M187.254 294.56C188.294 294.621 189.319 295.566 189.5 296.518L192.248 310.914C192.403 311.724 193.245 312.422 194.13 312.473L231.153 314.504C232.038 314.555 232.63 313.941 232.476 313.131L229.719 298.688C229.526 297.677 228.474 296.805 227.369 296.741L186.298 294.475L187.254 294.56Z" fill="white"/>
<path d="M217.805 320.304L214.931 320.137C214.645 320.12 214.352 319.87 214.276 319.579L212.002 310.797L215.912 311.024L218.186 319.806C218.262 320.098 218.092 320.321 217.805 320.304Z" fill="black"/>
<path d="M216.963 317.41C216.946 317.41 216.929 317.41 216.911 317.408L214.161 317.248C213.691 317.221 213.227 316.829 213.104 316.354L212.652 314.609C212.585 314.35 212.631 314.101 212.777 313.923C212.917 313.753 213.14 313.654 213.381 313.679L216.131 313.839C216.601 313.866 217.066 314.258 217.188 314.733L217.64 316.478C217.707 316.736 217.661 316.985 217.515 317.163C217.383 317.323 217.189 317.41 216.963 317.41ZM216.937 316.953C217.007 316.953 217.102 316.946 217.162 316.874C217.215 316.81 217.228 316.708 217.198 316.593L216.746 314.848C216.673 314.564 216.379 314.311 216.105 314.295L213.355 314.135C213.283 314.134 213.189 314.141 213.131 314.213C213.078 314.278 213.065 314.38 213.095 314.495L213.547 316.24C213.62 316.524 213.914 316.777 214.188 316.793L216.937 316.953Z" fill="#263238"/>
<g opacity="0.5">
<path d="M216.963 317.41C216.946 317.41 216.929 317.41 216.911 317.408L214.161 317.248C213.691 317.221 213.227 316.829 213.104 316.354L212.652 314.609C212.585 314.35 212.631 314.101 212.777 313.923C212.917 313.753 213.14 313.654 213.381 313.679L216.131 313.839C216.601 313.866 217.066 314.258 217.188 314.733L217.64 316.478C217.707 316.736 217.661 316.985 217.515 317.163C217.383 317.323 217.189 317.41 216.963 317.41ZM216.937 316.953C217.007 316.953 217.102 316.946 217.162 316.874C217.215 316.81 217.228 316.708 217.198 316.593L216.746 314.848C216.673 314.564 216.379 314.311 216.105 314.295L213.355 314.135C213.283 314.134 213.189 314.141 213.131 314.213C213.078 314.278 213.065 314.38 213.095 314.495L213.547 316.24C213.62 316.524 213.914 316.777 214.188 316.793L216.937 316.953Z" fill="white"/>
</g>
</g>
<defs>
<clipPath id="clip0_104_1655">
<rect width="500" height="500" fill="white" transform="translate(0.5 0.5)"/>
</clipPath>
</defs>
</svg>
