<svg width="31" height="30" viewBox="0 0 31 30" fill="none" xmlns="http://www.w3.org/2000/svg">
<rect x="0.5" width="30" height="30" rx="15" fill="#FFEEEF"/>
<path fill-rule="evenodd" clip-rule="evenodd" d="M16.5475 22.6498H8.73184C8.63836 22.6498 8.5625 22.5694 8.5625 22.4705V7.5293C8.5625 7.43033 8.63836 7.35001 8.73184 7.35001H18.9209C19.0144 7.35001 19.0902 7.43033 19.0902 7.5293V11.3154C19.0902 11.5514 18.7515 11.5514 18.7515 11.3154V7.7086H8.90117V22.2912H16.5475C16.7704 22.2912 16.7704 22.6498 16.5475 22.6498ZM18.921 17.504C18.8275 17.504 18.7516 17.4235 18.7516 17.3247V13.1137C18.7516 12.8777 19.0903 12.8777 19.0903 13.1137V17.3247C19.0903 17.4236 19.0144 17.504 18.921 17.504Z" fill="#D7282F"/>
<path fill-rule="evenodd" clip-rule="evenodd" d="M21.292 22.6502H16.5463C16.4528 22.6502 16.377 22.5697 16.377 22.4709V21.8738C16.377 20.8595 17.0619 19.9943 18.0059 19.8166C18.0767 19.8035 18.1474 19.839 18.1829 19.9048C18.5072 20.51 19.3314 20.5101 19.6558 19.9048C19.6912 19.8389 19.7619 19.8035 19.8328 19.8166C20.7766 19.9944 21.4617 20.8595 21.4617 21.8738V22.4709C21.4614 22.5698 21.3856 22.6502 21.2921 22.6502H21.292ZM16.7158 22.2916H21.1227V21.874C21.1227 21.0732 20.6074 20.3848 19.8823 20.1944C19.4095 20.8921 18.4288 20.8921 17.9563 20.1944C17.2313 20.3847 16.7159 21.0733 16.7159 21.874L16.7157 22.2916H16.7158Z" fill="#D7282F"/>
<path fill-rule="evenodd" clip-rule="evenodd" d="M18.9146 19.6529C18.2617 19.6529 17.7305 19.0904 17.7305 18.3991C17.7305 17.7078 18.2618 17.1453 18.9146 17.1453C19.5675 17.1453 20.0988 17.7078 20.0988 18.3991C20.0988 19.0904 19.5676 19.6529 18.9146 19.6529ZM18.9146 17.5039C18.4484 17.5039 18.0692 17.9055 18.0692 18.399C18.0692 18.8926 18.4485 19.2941 18.9146 19.2941C19.3808 19.2941 19.76 18.8926 19.76 18.399C19.76 17.9055 19.3809 17.5039 18.9146 17.5039Z" fill="#D7282F"/>
<path fill-rule="evenodd" clip-rule="evenodd" d="M15.1576 13.4577H13.0402C12.8173 13.4577 12.8173 13.0991 13.0402 13.0991H15.1576C15.3805 13.0991 15.3806 13.4577 15.1576 13.4577Z" fill="#D7282F"/>
<path fill-rule="evenodd" clip-rule="evenodd" d="M17.3335 15.6694H13.0402C12.8173 15.6694 12.8173 15.3108 13.0402 15.3108H17.3334C17.5563 15.3108 17.5564 15.6694 17.3335 15.6694Z" fill="#D7282F"/>
<path fill-rule="evenodd" clip-rule="evenodd" d="M17.3335 17.8811H13.0402C12.8173 17.8811 12.8173 17.5225 13.0402 17.5225H17.3334C17.5563 17.5225 17.5564 17.8811 17.3335 17.8811Z" fill="#D7282F"/>
<path fill-rule="evenodd" clip-rule="evenodd" d="M10.8171 13.458C10.6921 13.458 10.4184 13.1099 10.2645 12.9471C10.1068 12.7803 10.3463 12.5266 10.504 12.6936L10.8171 13.025L11.8054 11.9788C11.9631 11.8117 12.2025 12.0654 12.0448 12.2323L10.9369 13.4054C10.9038 13.4403 10.8605 13.4579 10.8171 13.4579V13.458Z" fill="#D7282F"/>
<path fill-rule="evenodd" clip-rule="evenodd" d="M10.7525 15.6699C10.6276 15.6699 10.3537 15.3218 10.2001 15.159C10.0422 14.9919 10.2821 14.7383 10.4395 14.9053L10.7525 15.2369L11.7409 14.1905C11.8987 14.0235 12.138 14.2772 11.9804 14.444L10.8723 15.6172C10.8406 15.6509 10.7974 15.6699 10.7526 15.6699H10.7525Z" fill="#D7282F"/>
<path fill-rule="evenodd" clip-rule="evenodd" d="M10.7546 17.882C10.6297 17.882 10.3555 17.5337 10.202 17.3711C10.0442 17.204 10.284 16.9506 10.4415 17.1175L10.7546 17.449L11.7428 16.4026C11.9007 16.2355 12.1398 16.4896 11.9823 16.6563L10.8743 17.8294C10.8412 17.8645 10.7979 17.8819 10.7545 17.8819L10.7546 17.882Z" fill="#D7282F"/>
<path fill-rule="evenodd" clip-rule="evenodd" d="M17.3335 10.9558H13.0402C12.8173 10.9558 12.8173 10.5972 13.0402 10.5972H17.3334C17.5564 10.5972 17.5564 10.9558 17.3335 10.9558Z" fill="#D7282F"/>
<path fill-rule="evenodd" clip-rule="evenodd" d="M10.8171 10.9566C10.6919 10.9566 10.4186 10.6087 10.2645 10.4458C10.1068 10.279 10.3463 10.0253 10.504 10.1923L10.8171 10.5237L11.8054 9.47735C11.963 9.31033 12.2026 9.56404 12.0448 9.73087L10.9369 10.904C10.905 10.9379 10.862 10.9567 10.8171 10.9567V10.9566Z" fill="#D7282F"/>
<path fill-rule="evenodd" clip-rule="evenodd" d="M17.7862 14.4941C17.7412 14.4941 17.6982 14.4752 17.6664 14.4416L16.8172 13.5425C16.751 13.4725 16.751 13.359 16.8172 13.289L21.1237 8.72902C21.4237 8.41149 21.9126 8.41166 22.2125 8.72902C22.5125 9.04673 22.5127 9.56383 22.2126 9.88163L17.906 14.4416C17.8741 14.4753 17.8311 14.4942 17.7862 14.4942V14.4941ZM17.1766 13.4158L17.7863 14.0614L21.9732 9.62837C22.3807 9.19681 21.7564 8.56685 21.3634 8.98273L17.1766 13.4158Z" fill="#D7282F"/>
<path fill-rule="evenodd" clip-rule="evenodd" d="M16.4644 14.9942C16.3487 14.9942 16.2654 14.8721 16.3048 14.7547L16.7768 13.3558C16.852 13.1336 17.1708 13.2541 17.0958 13.4763L16.7442 14.5187L17.7285 14.1463C17.9385 14.0673 18.0526 14.4046 17.8425 14.4839C17.6779 14.546 16.5335 14.9943 16.4644 14.9943V14.9942Z" fill="#D7282F"/>
<path fill-rule="evenodd" clip-rule="evenodd" d="M21.9582 10.0771C21.9149 10.0771 21.8714 10.0595 21.8383 10.0245L20.9891 9.12535C20.8313 8.95843 21.0712 8.70481 21.2287 8.87183L22.078 9.77091C22.1851 9.88423 22.1076 10.077 21.9582 10.077L21.9582 10.0771Z" fill="#D7282F"/>
<path fill-rule="evenodd" clip-rule="evenodd" d="M21.5382 10.5215C21.495 10.5215 21.4515 10.5039 21.4184 10.4689L20.5692 9.56984C20.4114 9.40292 20.6512 9.1493 20.8087 9.31632L21.6579 10.2154C21.7651 10.3287 21.6876 10.5215 21.5382 10.5215Z" fill="#D7282F"/>
</svg>
