<svg width="13" height="14" viewBox="0 0 13 14" fill="none" xmlns="http://www.w3.org/2000/svg">
<path fill-rule="evenodd" clip-rule="evenodd" d="M7.18376 13.4999H0.152345C0.0682507 13.4999 0 13.4316 0 13.3476V0.652345C0 0.568251 0.0682507 0.5 0.152345 0.5H9.31904C9.40313 0.5 9.47138 0.568251 9.47138 0.652345V3.86934C9.47138 4.06983 9.16669 4.06983 9.16669 3.86934V0.804691H0.304691V13.1952H7.18376C7.38433 13.1952 7.38433 13.4999 7.18376 13.4999ZM9.31911 9.12762C9.23502 9.12762 9.16677 9.05929 9.16677 8.97527V5.39729C9.16677 5.1968 9.47146 5.1968 9.47146 5.39729V8.97527C9.47146 9.05937 9.40321 9.12762 9.31911 9.12762Z" fill="#231F20"/>
<path fill-rule="evenodd" clip-rule="evenodd" d="M11.4571 13.5H7.1875C7.10341 13.5 7.03516 13.4317 7.03516 13.3477V12.8403C7.03516 11.9785 7.65139 11.2434 8.50064 11.0924C8.5644 11.0813 8.628 11.1114 8.65992 11.1673C8.95166 11.6815 9.69312 11.6816 9.98502 11.1673C10.0169 11.1113 10.0805 11.0813 10.1442 11.0924C10.9933 11.2435 11.6097 11.9785 11.6097 12.8403V13.3477C11.6095 13.4318 11.5412 13.5 11.4571 13.5H11.4571ZM7.34 13.1953H11.3047V12.8405C11.3047 12.1601 10.8411 11.5752 10.1888 11.4134C9.76343 12.0062 8.88112 12.0063 8.456 11.4134C7.80374 11.5751 7.34008 12.1602 7.34008 12.8405L7.33992 13.1953H7.34Z" fill="#231F20"/>
<path fill-rule="evenodd" clip-rule="evenodd" d="M9.31926 10.9535C8.73181 10.9535 8.25391 10.4756 8.25391 9.8882C8.25391 9.30083 8.73189 8.82285 9.31926 8.82285C9.90662 8.82285 10.3846 9.30083 10.3846 9.8882C10.3846 10.4756 9.9067 10.9535 9.31926 10.9535ZM9.31926 9.12754C8.89977 9.12754 8.55867 9.46879 8.55867 9.88812C8.55867 10.3075 8.89985 10.6487 9.31926 10.6487C9.73866 10.6487 10.0798 10.3075 10.0798 9.88812C10.0798 9.46879 9.73874 9.12754 9.31926 9.12754Z" fill="#231F20"/>
<path fill-rule="evenodd" clip-rule="evenodd" d="M5.93816 5.68955H4.03323C3.83267 5.68955 3.83267 5.38486 4.03323 5.38486H5.93816C6.13865 5.38486 6.1388 5.68955 5.93816 5.68955Z" fill="#231F20"/>
<path fill-rule="evenodd" clip-rule="evenodd" d="M7.89572 7.56897H4.03323C3.83267 7.56897 3.83267 7.26428 4.03323 7.26428H7.89564C8.09613 7.26428 8.09621 7.56897 7.89572 7.56897Z" fill="#231F20"/>
<path fill-rule="evenodd" clip-rule="evenodd" d="M7.89572 9.44834H4.03323C3.83267 9.44834 3.83267 9.14365 4.03323 9.14365H7.89564C8.09613 9.14365 8.09621 9.44834 7.89572 9.44834Z" fill="#231F20"/>
<path fill-rule="evenodd" clip-rule="evenodd" d="M2.03183 5.68954C1.9194 5.68954 1.67321 5.39384 1.53472 5.25551C1.39281 5.11375 1.60831 4.89819 1.75014 5.0401L2.0319 5.32171L2.92099 4.43269C3.0629 4.29078 3.27824 4.50635 3.13641 4.64811L2.13961 5.64491C2.1099 5.67454 2.0709 5.68947 2.03183 5.68947V5.68954Z" fill="#231F20"/>
<path fill-rule="evenodd" clip-rule="evenodd" d="M1.96925 7.56894C1.85682 7.56894 1.61048 7.27316 1.47223 7.13483C1.33024 6.99284 1.54604 6.77743 1.68764 6.91934L1.96925 7.20102L2.85849 6.31194C3.0004 6.17003 3.21574 6.3856 3.07391 6.52735L2.07704 7.52422C2.04847 7.55286 2.00963 7.56894 1.96933 7.56894H1.96925Z" fill="#231F20"/>
<path fill-rule="evenodd" clip-rule="evenodd" d="M1.97325 9.44867C1.86089 9.44867 1.61424 9.15266 1.47614 9.01456C1.33416 8.87258 1.54988 8.65724 1.69156 8.79907L1.97325 9.08076L2.86233 8.19167C3.00439 8.04961 3.21951 8.26556 3.07775 8.40716L2.08095 9.40396C2.05117 9.43374 2.01225 9.44859 1.97317 9.44859L1.97325 9.44867Z" fill="#231F20"/>
<path fill-rule="evenodd" clip-rule="evenodd" d="M7.89572 3.56415H4.03323C3.83267 3.56415 3.83267 3.25946 4.03323 3.25946H7.89564C8.09621 3.25946 8.09621 3.56415 7.89572 3.56415Z" fill="#231F20"/>
<path fill-rule="evenodd" clip-rule="evenodd" d="M2.03183 3.56413C1.91924 3.56413 1.67336 3.2685 1.53472 3.1301C1.39281 2.98834 1.60831 2.77277 1.75014 2.91468L2.0319 3.19629L2.92099 2.30721C3.06275 2.1653 3.27832 2.38087 3.13641 2.52262L2.13961 3.51942C2.11097 3.54821 2.07227 3.56421 2.03183 3.56421V3.56413Z" fill="#231F20"/>
<path fill-rule="evenodd" clip-rule="evenodd" d="M8.30311 6.57041C8.26267 6.57041 8.22397 6.55434 8.19533 6.52577L7.43139 5.76184C7.37183 5.70235 7.37183 5.60591 7.43139 5.54642L11.3058 1.6719C11.5756 1.4021 12.0155 1.40225 12.2853 1.6719C12.5552 1.94186 12.5554 2.38122 12.2854 2.65125L8.4109 6.52577C8.38226 6.55441 8.34356 6.57049 8.30311 6.57049V6.57041ZM7.75467 5.65413L8.30327 6.20272L12.07 2.43606C12.4366 2.06937 11.875 1.5341 11.5214 1.88747L7.75467 5.65413Z" fill="#D7282F"/>
<path fill-rule="evenodd" clip-rule="evenodd" d="M7.10954 6.99508C7.00542 6.99508 6.93046 6.89134 6.96596 6.79155L7.39054 5.60295C7.45819 5.4142 7.74505 5.51657 7.67756 5.70533L7.36122 6.59106L8.2468 6.27464C8.43571 6.20754 8.53839 6.4941 8.34933 6.56151C8.20125 6.6143 7.1717 6.99516 7.10954 6.99516V6.99508Z" fill="#D7282F"/>
<path fill-rule="evenodd" clip-rule="evenodd" d="M12.055 2.817C12.016 2.817 11.977 2.80207 11.9472 2.77236L11.1832 2.00835C11.0412 1.86652 11.257 1.65102 11.3987 1.79293L12.1627 2.55687C12.2591 2.65315 12.1894 2.81692 12.055 2.81692L12.055 2.817Z" fill="#D7282F"/>
<path fill-rule="evenodd" clip-rule="evenodd" d="M11.6721 3.19488C11.6332 3.19488 11.5941 3.17995 11.5644 3.15024L10.8004 2.38631C10.6584 2.24448 10.8742 2.02898 11.0158 2.17089L11.7799 2.93483C11.8762 3.03111 11.8065 3.19488 11.6721 3.19488Z" fill="#D7282F"/>
</svg>
