<svg width="14" height="14" viewBox="0 0 14 14" fill="none" xmlns="http://www.w3.org/2000/svg">
<path d="M12.5833 9.665V11.29C12.5839 11.4409 12.553 11.5902 12.4926 11.7284C12.4321 11.8666 12.3435 11.9907 12.2323 12.0927C12.1212 12.1947 11.9899 12.2723 11.847 12.3206C11.7041 12.369 11.5527 12.3869 11.4024 12.3733C9.73565 12.1922 8.13457 11.6227 6.72786 10.7104C5.4191 9.87878 4.3095 8.76918 3.47786 7.46042C2.56243 6.04732 1.99274 4.43846 1.81494 2.76417C1.80141 2.61438 1.81921 2.46341 1.86721 2.32088C1.91522 2.17835 1.99238 2.04737 2.09378 1.9363C2.19517 1.82522 2.31859 1.73647 2.45616 1.6757C2.59374 1.61493 2.74246 1.58348 2.89286 1.58333H4.51786C4.78073 1.58075 5.03558 1.67384 5.2349 1.84525C5.43421 2.01666 5.5644 2.2547 5.60119 2.515C5.66978 3.03504 5.79698 3.54565 5.98036 4.03708C6.05324 4.23096 6.06901 4.44166 6.02581 4.64423C5.98261 4.84679 5.88224 5.03273 5.73661 5.18L5.04869 5.86792C5.81979 7.224 6.94261 8.34683 8.29869 9.11792L8.98661 8.43C9.13388 8.28437 9.31982 8.184 9.52238 8.1408C9.72495 8.0976 9.93565 8.11337 10.1295 8.18625C10.621 8.36963 11.1316 8.49683 11.6516 8.56542C11.9147 8.60254 12.155 8.73507 12.3268 8.93781C12.4986 9.14055 12.5899 9.39935 12.5833 9.665Z" stroke="#231F20" stroke-width="0.8" stroke-linecap="round" stroke-linejoin="round"/>
<path d="M8.81836 3.20808C9.34742 3.3113 9.83365 3.57005 10.2148 3.95121C10.596 4.33237 10.8547 4.8186 10.9579 5.34766M8.81836 1.04141C9.91755 1.16352 10.9426 1.65576 11.7251 2.43729C12.5076 3.21883 13.0011 4.24321 13.1246 5.34224" stroke="#FFC000" stroke-width="0.8" stroke-linecap="round" stroke-linejoin="round"/>
</svg>
