<svg width="15" height="14" viewBox="0 0 15 14" fill="none" xmlns="http://www.w3.org/2000/svg">
<path fill-rule="evenodd" clip-rule="evenodd" d="M13.2344 5.00774H13.614C14.1031 5.00774 14.5 5.35898 14.5 5.79245V9.87298C14.5 10.3062 14.1032 10.6576 13.614 10.6576H13.2344V13.451C13.2344 13.7536 12.9562 14 12.6145 14H2.38555C2.04349 14 1.76561 13.7536 1.76561 13.451V10.6576H1.38607C0.896758 10.6576 0.5 10.3062 0.5 9.87298V5.79232C0.5 5.35883 0.896758 5.00761 1.38607 5.00761H1.76558V0.549044C1.76558 0.246372 2.04346 0 2.38552 0H9.87618C9.90041 0 9.92432 0.00302469 9.94733 0.00785402C9.95037 0.00855246 9.95324 0.00946383 9.95612 0.0103781C9.95869 0.011194 9.96127 0.0120121 9.96398 0.0126833C9.98516 0.0183006 10.0057 0.0260784 10.0251 0.0354575C10.0321 0.0388634 10.0388 0.0421677 10.0454 0.0461074C10.0678 0.0590449 10.089 0.0739904 10.1071 0.0919606C10.1075 0.0924838 10.108 0.0927927 10.1085 0.0931299C10.1089 0.0933497 10.1092 0.0935814 10.1096 0.0938923L13.1575 3.17734C13.2073 3.22747 13.2304 3.29073 13.231 3.35514C13.2312 3.35658 13.2315 3.35803 13.2317 3.35947C13.233 3.36825 13.2344 3.377 13.2344 3.38569V5.00774ZM9.56622 0.549146H2.38552V5.00791H12.6144V3.63262H9.87618C9.70516 3.63262 9.56622 3.50978 9.56622 3.35811V0.549146ZM9.226 9.5152C9.67307 9.18051 9.99575 8.63939 9.99575 7.8546C9.99575 7.13081 9.6935 6.62609 9.21297 6.30977C8.76636 6.01193 8.19619 5.87193 7.31761 5.87193C6.78877 5.87193 6.28711 5.90236 5.90255 5.95698V9.98352C6.16384 10.0138 6.54835 10.0442 7.09079 10.0442C7.99704 10.0442 8.73892 9.87402 9.226 9.5152ZM1.91196 5.95698V10.0018V10.0019H2.94894V8.53605C3.04466 8.54825 3.1687 8.55442 3.30583 8.55442C3.9241 8.55442 4.45285 8.42052 4.80995 8.12243C5.08487 7.89146 5.23555 7.55089 5.23555 7.14931C5.23555 6.74787 5.03685 6.4072 4.74147 6.20053C4.43253 5.98143 3.97229 5.87193 3.32678 5.87193C2.68808 5.87193 2.23458 5.90858 1.91196 5.95698ZM2.38552 13.3023H12.6144V10.6576H2.38552V13.3023ZM11.7336 6.66262H13.5127V5.90236H10.6833V10.0018H11.7336V8.35352H13.3957V7.59928H11.7336V6.66262ZM4.19888 7.17346C4.19888 6.79647 3.90329 6.57147 3.38166 6.57147C3.16887 6.57147 3.02471 6.58965 2.94911 6.60787V7.81843C3.03848 7.8364 3.14835 7.84255 3.29903 7.84255C3.85556 7.84255 4.19888 7.59323 4.19888 7.17346ZM7.4275 6.58365C7.19373 6.58365 7.043 6.60187 6.95339 6.62012V9.30226C7.04282 9.32079 7.18707 9.32079 7.3176 9.32079C8.26521 9.32666 8.88334 8.86464 8.88334 7.88536C8.89028 7.03354 8.32698 6.58365 7.4275 6.58365Z" fill="#DD484E"/>
</svg>
