<svg width="15" height="15" viewBox="0 0 15 15" fill="none" xmlns="http://www.w3.org/2000/svg">
<g clip-path="url(#clip0_2811_14702)">
<path d="M6.19625 8.80374L0.3125 14.6875" stroke="#D7282F" stroke-linecap="round" stroke-linejoin="round"/>
<path d="M13.3837 5.36624C13.4247 5.40728 13.4734 5.43984 13.5271 5.46206C13.5807 5.48427 13.6382 5.49571 13.6962 5.49571C13.7542 5.49571 13.8117 5.48427 13.8653 5.46206C13.9189 5.43984 13.9677 5.40728 14.0087 5.36624L14.5043 4.87061C14.6215 4.75341 14.6873 4.59447 14.6873 4.42874C14.6873 4.26301 14.6215 4.10407 14.5043 3.98686L11.0131 0.495614C10.8959 0.378444 10.7369 0.312622 10.5712 0.312622C10.4055 0.312622 10.2465 0.378444 10.1293 0.495614L9.63369 0.991239C9.59265 1.03227 9.56009 1.08099 9.53787 1.13461C9.51566 1.18823 9.50423 1.2457 9.50423 1.30374C9.50423 1.36178 9.51566 1.41925 9.53787 1.47287C9.56009 1.52649 9.59265 1.5752 9.63369 1.61624C9.67474 1.65727 9.7073 1.70599 9.72952 1.75961C9.75173 1.81323 9.76316 1.8707 9.76316 1.92874C9.76316 1.98678 9.75173 2.04425 9.72952 2.09787C9.7073 2.15149 9.67474 2.2002 9.63369 2.24124L7.00432 4.87061C6.88714 4.98783 6.72819 5.0537 6.56244 5.05374H4.57994C4.4142 5.05377 4.25525 5.11965 4.13807 5.23686L3.82557 5.54936C3.7084 5.66657 3.64258 5.82551 3.64258 5.99124C3.64258 6.15697 3.7084 6.31591 3.82557 6.43311L8.56682 11.1744C8.68402 11.2915 8.84297 11.3574 9.00869 11.3574C9.17442 11.3574 9.33336 11.2915 9.45057 11.1744L9.76307 10.8619C9.88029 10.7447 9.94616 10.5857 9.94619 10.42V8.43749C9.94623 8.27174 10.0121 8.1128 10.1293 7.99561L12.7587 5.36624C12.7997 5.32519 12.8484 5.29263 12.9021 5.27042C12.9557 5.2482 13.0132 5.23677 13.0712 5.23677C13.1292 5.23677 13.1867 5.2482 13.2403 5.27042C13.2939 5.29263 13.3427 5.32519 13.3837 5.36624Z" stroke="#D7282F" stroke-linecap="round" stroke-linejoin="round"/>
</g>
<defs>
<clipPath id="clip0_2811_14702">
<rect width="15" height="15" fill="white"/>
</clipPath>
</defs>
</svg>
