<svg width="17" height="16" viewBox="0 0 17 16" fill="none" xmlns="http://www.w3.org/2000/svg">
<g clip-path="url(#clip0_8044_13757)">
<path d="M12.8875 11.8261H4.37942C4.3377 11.8208 4.29383 11.8266 4.25288 11.845C4.14284 11.8946 4.09165 12.019 4.13612 12.1286L4.93035 14.0867C4.96489 14.1718 5.0494 14.2278 5.1437 14.2278H12.126C12.1428 14.2278 12.1596 14.226 12.176 14.2224L12.2253 14.2117C12.3022 14.1951 12.3649 14.141 12.3913 14.069L13.1035 12.1236C13.1284 12.0554 13.1178 11.9795 13.0747 11.9204C13.0318 11.8613 12.9619 11.8261 12.8875 11.8261ZM12.0097 13.7822H5.29973L4.6869 12.2717H12.5626L12.0097 13.7822Z" fill="#4A4A4A" stroke="#4A4A4A" stroke-width="0.5"/>
<path d="M14.0507 8.35138C14.0253 8.34262 13.9993 8.33935 13.9738 8.33935V8.33861H3.28548C3.2543 8.33623 3.22205 8.33965 3.19073 8.35064C3.07137 8.39163 3.00902 8.5192 3.05135 8.63504L3.77498 10.6152C3.80829 10.7065 3.89663 10.7634 3.99107 10.7634C3.99795 10.7634 4.00483 10.7606 4.0117 10.76H13.2317C13.2375 10.7604 13.2433 10.763 13.2489 10.763C13.3431 10.763 13.4314 10.7061 13.4649 10.6149L14.1897 8.63623C14.2324 8.51994 14.17 8.39252 14.0507 8.35138ZM13.0883 10.3142H4.15169L3.5925 8.78385H13.649L13.0883 10.3142Z" fill="#4A4A4A" stroke="#4A4A4A" stroke-width="0.5"/>
<path d="M15.2465 4.94587C15.2036 4.88676 15.1337 4.85156 15.0591 4.85156H2.18528C2.11086 4.85156 2.04102 4.88676 1.99807 4.94587C1.95513 5.00498 1.94428 5.08072 1.96934 5.14889L2.69006 7.1225C2.69098 7.12488 2.69236 7.12696 2.69343 7.12933C2.69679 7.13795 2.70107 7.14612 2.7055 7.15414C2.70779 7.1583 2.70978 7.1626 2.71238 7.16646C2.7191 7.17701 2.72674 7.18666 2.73515 7.19602C2.73607 7.19706 2.73683 7.1981 2.73775 7.19914C2.77962 7.24414 2.83968 7.27295 2.90708 7.27295H14.3351H14.3355C14.336 7.27295 14.3364 7.2728 14.3369 7.2728C14.3578 7.27265 14.3778 7.26909 14.3971 7.26374C14.4017 7.26255 14.406 7.26122 14.4104 7.25973C14.43 7.2532 14.4485 7.24473 14.4651 7.23359C14.4665 7.2327 14.4676 7.23151 14.4688 7.23062C14.4845 7.21963 14.4984 7.20641 14.5108 7.19186C14.5136 7.18859 14.5165 7.18562 14.5191 7.18221C14.5314 7.16587 14.5417 7.14805 14.5492 7.12859C14.5496 7.12726 14.5507 7.12622 14.5513 7.12488L15.2751 5.14919C15.3 5.08087 15.2894 5.00513 15.2465 4.94587ZM14.1737 6.82726H3.06861L2.50988 5.29711H14.7342L14.1737 6.82726Z" fill="#4A4A4A" stroke="#4A4A4A" stroke-width="0.5"/>
<path d="M8.33208 3.18596C8.37502 3.2277 8.4334 3.25116 8.49423 3.25116C8.55505 3.25116 8.61328 3.2277 8.65637 3.18596L10.3373 1.5523C10.4269 1.46527 10.4269 1.32418 10.3373 1.2373C10.2477 1.15027 10.1027 1.15027 10.0132 1.2373L8.49438 2.71339L6.97529 1.23715C6.88574 1.15012 6.74071 1.15012 6.65115 1.23715C6.5616 1.32403 6.5616 1.46512 6.65115 1.55215L8.33208 3.18596Z" fill="#4A4A4A" stroke="#4A4A4A" stroke-width="0.5"/>
</g>
<defs>
<clipPath id="clip0_8044_13757">
<rect width="15.4354" height="15" fill="white" transform="translate(0.980469 0.273438)"/>
</clipPath>
</defs>
</svg>
