<svg width="15" height="15" viewBox="0 0 15 15" fill="none" xmlns="http://www.w3.org/2000/svg">
<path d="M2.53645 4.41219C3.30195 4.41219 3.92251 3.79163 3.92251 3.02613C3.92251 2.26063 3.30195 1.64008 2.53645 1.64008C1.77095 1.64008 1.15039 2.26063 1.15039 3.02613C1.15039 3.79163 1.77095 4.41219 2.53645 4.41219Z" stroke="#8A8A8A" stroke-linecap="round" stroke-linejoin="round"/>
<path d="M14.4945 1.64008H5.3252V4.41219H14.4945V1.64008Z" stroke="#8A8A8A" stroke-linecap="round" stroke-linejoin="round"/>
<path d="M2.53645 9.08706C3.30195 9.08706 3.92251 8.4665 3.92251 7.701C3.92251 6.9355 3.30195 6.31494 2.53645 6.31494C1.77095 6.31494 1.15039 6.9355 1.15039 7.701C1.15039 8.4665 1.77095 9.08706 2.53645 9.08706Z" stroke="#8A8A8A" stroke-linecap="round" stroke-linejoin="round"/>
<path d="M2.53645 13.7701C3.30195 13.7701 3.92251 13.1495 3.92251 12.384C3.92251 11.6185 3.30195 10.998 2.53645 10.998C1.77095 10.998 1.15039 11.6185 1.15039 12.384C1.15039 13.1495 1.77095 13.7701 2.53645 13.7701Z" stroke="#8A8A8A" stroke-linecap="round" stroke-linejoin="round"/>
<path fill-rule="evenodd" clip-rule="evenodd" d="M5.3252 6.31494H11.0745V9.08706H5.3252V6.31494Z" stroke="#8A8A8A" stroke-linecap="round" stroke-linejoin="round"/>
<path fill-rule="evenodd" clip-rule="evenodd" d="M5.3252 10.998H9.04049V13.7701H5.3252V10.998Z" stroke="#8A8A8A" stroke-linecap="round" stroke-linejoin="round"/>
<path d="M12.3042 13.7701V10.8914H11.5742L13.0341 9.31671L14.494 10.8914H13.764V13.7701H12.3042Z" stroke="#8A8A8A" stroke-linecap="round" stroke-linejoin="round"/>
<path d="M6.9737 1.64008H5.3252V4.41219H6.9737V1.64008Z" stroke="#8A8A8A" stroke-linecap="round" stroke-linejoin="round"/>
<path d="M6.9737 6.31494H5.3252V9.08706H6.9737V6.31494Z" stroke="#8A8A8A" stroke-linecap="round" stroke-linejoin="round"/>
<path d="M6.9737 10.998H5.3252V13.7701H6.9737V10.998Z" stroke="#8A8A8A" stroke-linecap="round" stroke-linejoin="round"/>
</svg>
