<svg width="16" height="18" viewBox="0 0 16 18" fill="none" xmlns="http://www.w3.org/2000/svg">
<path d="M11.7283 17.5L9.51198 14.6667L10.4469 13.5711L11.7283 15.0728L14.6215 11.6822L15.5564 13.0139M8.34339 17.5H2.05716C1.16259 17.5 0.445312 16.6594 0.445312 15.6111V2.38889C0.445312 1.34056 1.16259 0.5 2.05716 0.5H13.3401C14.2347 0.5 14.952 1.34056 14.952 2.38889V9.75556C14.4604 9.425 13.9204 9.18889 13.3401 9.07555V2.38889H2.05716V15.6111H7.76312C7.85983 16.2911 8.06131 16.9239 8.34339 17.5ZM7.69865 13.7222H3.66902V11.8333H7.69865M9.85853 9.94444H3.66902V8.05556H7.69865H11.7283V9.07555C11.0432 9.20778 10.4146 9.51 9.85853 9.94444ZM11.7283 6.16667H3.66902V4.27778H11.7283" fill="white"/>
</svg>
