<svg width="20" height="20" viewBox="0 0 20 20" fill="none" xmlns="http://www.w3.org/2000/svg">
<path d="M10 2.5H4.16667C3.72464 2.5 3.30072 2.67559 2.98816 2.98816C2.67559 3.30072 2.5 3.72464 2.5 4.16667V15.8333C2.5 16.2754 2.67559 16.6993 2.98816 17.0118C3.30072 17.3244 3.72464 17.5 4.16667 17.5H15.8333C16.2754 17.5 16.6993 17.3244 17.0118 17.0118C17.3244 16.6993 17.5 16.2754 17.5 15.8333V10" stroke="#D7282F" stroke-width="2" stroke-linecap="round" stroke-linejoin="round"/>
<path d="M15.3132 2.18769C15.6447 1.85617 16.0944 1.66992 16.5632 1.66992C17.0321 1.66992 17.4817 1.85617 17.8132 2.18769C18.1448 2.51921 18.331 2.96885 18.331 3.43769C18.331 3.90653 18.1448 4.35617 17.8132 4.68769L10.3024 12.1994C10.1045 12.3971 9.86007 12.5418 9.59156 12.6202L7.1974 13.3202C7.12569 13.3411 7.04968 13.3424 6.97732 13.3238C6.90496 13.3053 6.83892 13.2676 6.7861 13.2148C6.73328 13.162 6.69564 13.096 6.6771 13.0236C6.65856 12.9512 6.65981 12.8752 6.68073 12.8035L7.38073 10.4094C7.4595 10.1411 7.60451 9.8969 7.8024 9.69936L15.3132 2.18769Z" stroke="#D7282F" stroke-width="2" stroke-linecap="round" stroke-linejoin="round"/>
</svg>
