<svg width="15" height="16" viewBox="0 0 15 16" fill="none" xmlns="http://www.w3.org/2000/svg">
<path d="M7.5 3.18292C6.41067 3.18292 5.34579 3.50595 4.44002 4.11115C3.53428 4.71635 2.82832 5.57655 2.41144 6.58298C1.99457 7.58941 1.8855 8.69684 2.09802 9.76526C2.31054 10.8337 2.83512 11.8151 3.60539 12.5854C4.37566 13.3556 5.35706 13.8802 6.42548 14.0927C7.49388 14.3052 8.60133 14.1962 9.60776 13.7793C10.6142 13.3624 11.4744 12.6565 12.0796 11.7507C12.6848 10.845 13.0078 9.78007 13.0078 8.69074C13.0066 7.23035 12.4259 5.83015 11.3933 4.79749C10.3606 3.76486 8.96039 3.18416 7.5 3.18292ZM7.5 13.4954C6.54973 13.4954 5.62078 13.2136 4.83066 12.6857C4.04053 12.1577 3.42471 11.4074 3.06106 10.5294C2.6974 9.65147 2.60224 8.6854 2.78763 7.75338C2.97302 6.82137 3.43062 5.96527 4.10257 5.29331C4.77452 4.62136 5.63063 4.16377 6.56266 3.97837C7.49468 3.79298 8.46073 3.88812 9.33867 4.25177C10.2166 4.61543 10.967 5.23127 11.4949 6.0214C12.0229 6.81152 12.3047 7.74047 12.3047 8.69074C12.3028 9.96445 11.796 11.1855 10.8954 12.0861C9.99474 12.9868 8.77371 13.4936 7.5 13.4954Z" fill="#8A8A8A"/>
<path d="M13.4547 5.17982C12.8605 4.17234 12.0212 3.33142 11.0149 2.73529C10.9751 2.70848 10.9303 2.69009 10.8831 2.68125C10.836 2.67241 10.7875 2.67332 10.7408 2.68391C10.694 2.6945 10.6498 2.71455 10.6111 2.74283C10.5724 2.7711 10.5398 2.80701 10.5155 2.84834C10.4911 2.88967 10.4755 2.93554 10.4695 2.98313C10.4636 3.03073 10.4674 3.07904 10.4808 3.12509C10.4942 3.17115 10.5169 3.21397 10.5475 3.25092C10.5781 3.28788 10.6159 3.31818 10.6586 3.33998C11.5631 3.87648 12.3182 4.63162 12.8547 5.53607C12.8855 5.58892 12.9297 5.63277 12.9827 5.66322C13.0358 5.69364 13.0959 5.7096 13.1571 5.70951C13.2189 5.70937 13.2797 5.69291 13.3332 5.66179C13.3867 5.63066 13.431 5.58597 13.4616 5.53223C13.4923 5.47848 13.5083 5.41759 13.5079 5.35572C13.5075 5.29384 13.4908 5.23316 13.4594 5.17982H13.4547Z" fill="#8A8A8A"/>
<path d="M2.14912 5.53609C2.68562 4.63166 3.44078 3.8765 4.34521 3.33999C4.42541 3.29213 4.4833 3.21438 4.50615 3.12383C4.529 3.03329 4.51494 2.93738 4.46708 2.85719C4.41922 2.777 4.34146 2.71911 4.25092 2.69626C4.16038 2.6734 4.06447 2.68745 3.98427 2.73531C2.97793 3.33144 2.13863 4.17235 1.54443 5.17984C1.51762 5.21961 1.49923 5.26444 1.49039 5.3116C1.48156 5.35873 1.48246 5.4072 1.49305 5.45398C1.50364 5.50077 1.52369 5.54487 1.55197 5.58364C1.58025 5.62238 1.61616 5.65491 1.65748 5.67926C1.69881 5.70362 1.74468 5.71925 1.79228 5.7252C1.83987 5.73116 1.88818 5.72731 1.93424 5.71391C1.98029 5.7005 2.02311 5.67781 2.06007 5.64723C2.09702 5.61664 2.12733 5.57884 2.14912 5.53609Z" fill="#8A8A8A"/>
<path d="M7.74756 8.44242C7.68166 8.37658 7.59229 8.3396 7.49912 8.3396C7.40596 8.3396 7.31662 8.37658 7.25069 8.44242L5.26084 10.4299C5.22412 10.4617 5.19433 10.5008 5.17335 10.5446C5.15235 10.5885 5.14063 10.6362 5.1389 10.6848C5.13716 10.7333 5.14544 10.7817 5.16323 10.827C5.18104 10.8722 5.20794 10.9133 5.24233 10.9477C5.27669 10.982 5.31777 11.009 5.36301 11.0268C5.40824 11.0445 5.45666 11.0528 5.50523 11.0511C5.55381 11.0493 5.60151 11.0376 5.64533 11.0167C5.68919 10.9957 5.72823 10.9659 5.76006 10.9291L7.49912 9.18773L10.0772 11.7659C10.1432 11.8317 10.2325 11.8687 10.3257 11.8687C10.4189 11.8687 10.5082 11.8317 10.5741 11.7659C10.607 11.7334 10.6331 11.6947 10.6509 11.652C10.6687 11.6094 10.6779 11.5636 10.6779 11.5174C10.6779 11.4712 10.6687 11.4255 10.6509 11.3828C10.6331 11.3402 10.607 11.3015 10.5741 11.269L7.74756 8.44242Z" fill="#8A8A8A"/>
</svg>
