<svg width="22" height="22" viewBox="0 0 22 22" fill="none" xmlns="http://www.w3.org/2000/svg">
<path d="M11 19.4424C9.40232 19.4424 7.84049 18.9686 6.51204 18.081C5.18361 17.1933 4.1482 15.9317 3.53678 14.4556C2.92538 12.9795 2.7654 11.3553 3.0771 9.7883C3.3888 8.22128 4.15817 6.78189 5.28791 5.65216C6.41764 4.52243 7.85703 3.75305 9.42405 3.44137C10.991 3.12965 12.6153 3.28963 14.0914 3.90103C15.5674 4.51246 16.8291 5.54783 17.7167 6.87629C18.6044 8.20474 19.0781 9.76654 19.0781 11.3643C19.0754 13.5059 18.2234 15.559 16.7091 17.0733C15.1947 18.5877 13.1416 19.4397 11 19.4424ZM11 4.31738C9.60627 4.31738 8.24381 4.73067 7.08496 5.505C5.92611 6.2793 5.02291 7.37988 4.48955 8.66753C3.95619 9.95519 3.81662 11.3721 4.08853 12.739C4.36044 14.106 5.03157 15.3616 6.0171 16.3471C7.00264 17.3327 8.25825 18.0038 9.62524 18.2757C10.9922 18.5476 12.4091 18.4081 13.6967 17.8747C14.9844 17.3413 16.085 16.4381 16.8593 15.2793C17.6336 14.1204 18.0469 12.758 18.0469 11.3643C18.0451 9.49587 17.302 7.70452 15.9809 6.38338C14.6597 5.06222 12.8684 4.3192 11 4.31738Z" fill="white" stroke="white" stroke-width="0.3"/>
<path d="M19.7319 6.21477C18.8594 4.73785 17.6287 3.50475 16.1534 2.62948C16.0952 2.59354 16.0303 2.56957 15.9627 2.55896C15.895 2.54835 15.826 2.55132 15.7595 2.56769C15.693 2.58406 15.6305 2.61351 15.5755 2.65431C15.5205 2.69512 15.4742 2.74646 15.4393 2.80535C15.4044 2.86424 15.3815 2.92949 15.3721 2.9973C15.3627 3.06511 15.3668 3.13412 15.3843 3.20031C15.4019 3.26649 15.4324 3.32853 15.4742 3.38279C15.5159 3.43705 15.568 3.48245 15.6275 3.51634C16.9551 4.30181 18.063 5.40968 18.8484 6.73727C18.9194 6.85236 19.0328 6.93496 19.164 6.96731C19.2953 6.99962 19.4341 6.9791 19.5503 6.91015C19.6666 6.84119 19.7512 6.7293 19.7858 6.59857C19.8204 6.46788 19.8023 6.32883 19.7353 6.21134L19.7319 6.21477Z" fill="white" stroke="white" stroke-width="0.3"/>
<path d="M5.84566 2.62963C4.37042 3.50491 3.13967 4.73801 2.26723 6.21493C2.20756 6.33194 2.19478 6.46728 2.2315 6.59336C2.26822 6.71948 2.35168 6.8268 2.46483 6.89346C2.57798 6.96014 2.71231 6.98111 2.8404 6.9521C2.96849 6.92312 3.08069 6.84633 3.15411 6.73743C3.93956 5.40983 5.04744 4.30196 6.37503 3.51649C6.49266 3.4463 6.57754 3.33226 6.61108 3.19946C6.6446 3.06666 6.62398 2.92599 6.55378 2.80838C6.48359 2.69077 6.36953 2.60587 6.23674 2.57235C6.10395 2.53883 5.96329 2.55943 5.84566 2.62963Z" fill="white" stroke="white" stroke-width="0.3"/>
<path d="M11.3637 10.9994C11.267 10.9029 11.136 10.8486 10.9993 10.8486C10.8627 10.8486 10.7316 10.9029 10.6349 10.9994L7.7165 13.9179C7.62544 14.0156 7.57583 14.1449 7.57821 14.2785C7.58058 14.4121 7.63468 14.5395 7.72915 14.634C7.82361 14.7285 7.95107 14.7826 8.08465 14.7849C8.21823 14.7873 8.34752 14.7377 8.44525 14.6466L10.9993 12.0926L14.7806 15.8738C14.8298 15.9208 14.8877 15.9575 14.9512 15.9821C15.0146 16.0066 15.0822 16.0185 15.1502 16.0169C15.2182 16.0153 15.2852 16.0003 15.3474 15.9728C15.4096 15.9453 15.4658 15.9058 15.5127 15.8566C15.5597 15.8074 15.5965 15.7494 15.6211 15.686C15.6456 15.6226 15.6574 15.555 15.6558 15.487C15.6542 15.419 15.6392 15.352 15.6117 15.2898C15.5842 15.2276 15.5448 15.1714 15.4956 15.1244L11.3637 10.9994Z" fill="white" stroke="white" stroke-width="0.3"/>
</svg>
