<svg width="14" height="18" viewBox="0 0 14 18" fill="none" xmlns="http://www.w3.org/2000/svg">
<g clip-path="url(#clip0_1364_6539)">
<path d="M12.8333 4.90099H10.6944C11.3556 2.91762 10.2278 0.821985 8.16667 0.18581C6.10556 -0.450365 3.96667 0.634874 3.30556 2.61824C3.07222 3.36668 3.07222 4.15255 3.30556 4.90099H1.16667C0.505556 4.90099 0 5.38747 0 6.02365V6.77209C0 7.296 0.388889 7.78248 0.933333 7.85733L5.05556 13.6203V17.6245C5.05556 17.849 5.21111 17.9987 5.44444 17.9987C5.48333 17.9987 5.52222 17.9987 5.6 17.9613L8.71111 16.8386C8.86667 16.8012 8.94444 16.6515 8.94444 16.5018V13.6203L13.0667 7.85733C13.6111 7.74506 14 7.296 14 6.77209V6.02365C14 5.38747 13.4944 4.90099 12.8333 4.90099ZM3.88889 3.77833C3.88889 2.13176 5.25 0.784562 7 0.784562C8.71111 0.784562 10.1111 2.09433 10.1111 3.77833C10.1111 4.18997 10.0333 4.56419 9.87778 4.93841H8.08889C8.12778 4.82614 8.16667 4.67645 8.16667 4.56419C8.16667 3.92801 7.66111 3.44153 7 3.44153C6.76667 3.44153 6.61111 3.29184 6.61111 3.06731C6.61111 2.84277 6.76667 2.69309 7 2.69309C7.23333 2.69309 7.38889 2.84277 7.38889 3.06731C7.38889 3.29184 7.54444 3.44153 7.77778 3.44153C8.01111 3.44153 8.16667 3.29184 8.16667 3.06731C8.16667 2.58082 7.85556 2.16918 7.38889 2.01949V1.90722C7.38889 1.68269 7.23333 1.533 7 1.533C6.76667 1.533 6.61111 1.68269 6.61111 1.90722V1.98207C5.98889 2.2066 5.67778 2.84277 5.91111 3.40411C6.06667 3.85317 6.53333 4.15255 7 4.15255C7.23333 4.15255 7.38889 4.30223 7.38889 4.52677C7.38889 4.7513 7.23333 4.90099 7 4.90099C6.76667 4.90099 6.61111 4.7513 6.61111 4.52677C6.61111 4.30223 6.45556 4.15255 6.22222 4.15255C5.98889 4.15255 5.83333 4.30223 5.83333 4.52677C5.83333 4.63903 5.87222 4.78872 5.91111 4.90099H4.12222C3.96667 4.52677 3.88889 4.15255 3.88889 3.77833ZM8.16667 16.2399L5.83333 17.1006V13.8823H8.16667V16.2399ZM8.36111 13.1338H5.67778L1.94444 7.89475H12.1333L8.36111 13.1338ZM13.2222 6.77209C13.2222 6.99662 13.0667 7.14631 12.8333 7.14631H1.16667C0.933333 7.14631 0.777778 6.99662 0.777778 6.77209V6.02365C0.777778 5.79912 0.933333 5.64943 1.16667 5.64943H12.8333C13.0667 5.64943 13.2222 5.79912 13.2222 6.02365V6.77209Z" fill="#231F20"/>
</g>
<defs>
<clipPath id="clip0_1364_6539">
<rect width="14" height="18" fill="white"/>
</clipPath>
</defs>
</svg>
