<svg width="21" height="21" viewBox="0 0 21 21" fill="none" xmlns="http://www.w3.org/2000/svg">
<path fill-rule="evenodd" clip-rule="evenodd" d="M10.8076 0.591797C5.28477 0.591797 0.807617 5.06895 0.807617 10.5918C0.807617 12.6054 1.40383 14.4827 2.42937 16.0531L1.34166 18.3934C0.817527 19.3851 1.53492 20.5918 2.66921 20.5918H10.8076C16.3305 20.5918 20.8076 16.1147 20.8076 10.5918C20.8076 5.06896 16.3305 0.591797 10.8076 0.591797ZM2.80762 10.5918C2.80762 6.17352 6.38934 2.5918 10.8076 2.5918C15.2259 2.5918 18.8076 6.17352 18.8076 10.5918C18.8076 15.0101 15.2259 18.5918 10.8076 18.5918H3.4549L4.35981 16.6448C4.59431 16.1401 4.52293 15.5696 4.22684 15.1422L4.22678 15.1421C3.33187 13.8507 2.80762 12.2839 2.80762 10.5918ZM11.5149 6.88387C11.1244 6.49334 10.4912 6.49334 10.1007 6.88387C9.71019 7.27439 9.71019 7.90756 10.1007 8.29808L11.3936 9.59097H7.80782C7.25554 9.59097 6.80782 10.0387 6.80782 10.591C6.80782 11.1433 7.25554 11.591 7.80782 11.591H11.3936L10.1007 12.8839C9.71019 13.2744 9.71019 13.9076 10.1007 14.2981C10.4912 14.6886 11.1244 14.6886 11.5149 14.2981L14.5149 11.2981C14.6108 11.2022 14.6831 11.0917 14.7319 10.9738C14.7808 10.8559 14.8078 10.7266 14.8078 10.591C14.8078 10.4554 14.7808 10.326 14.7319 10.2081C14.6831 10.0902 14.6108 9.97973 14.5149 9.88387L11.5149 6.88387Z" fill="#34A400"/>
</svg>
