<svg width="66" height="42" viewBox="0 0 66 42" fill="none" xmlns="http://www.w3.org/2000/svg">
<path d="M33.3506 2.98594L23.3681 11.2547C21.7078 12.6258 21.3881 15.0938 22.6462 16.8551C23.9766 18.7324 26.565 19.1016 28.3491 17.6777L38.5894 9.53555C39.3113 8.96602 40.3425 9.09258 40.9097 9.83086C41.4769 10.5691 41.3428 11.6238 40.6209 12.2039L38.4656 13.9125L52.8 27.4125V7.5H52.7278L52.3256 7.23633L44.8387 2.33203C43.2609 1.29844 41.415 0.75 39.5381 0.75C37.29 0.75 35.1037 1.54102 33.3506 2.98594ZM35.7019 16.1063L30.3703 20.3461C27.1219 22.9406 22.4091 22.2656 19.9753 18.8484C17.6859 15.6316 18.2634 11.1387 21.285 8.63906L29.865 1.54102C28.6688 1.02422 27.3797 0.760547 26.07 0.760547C24.1313 0.75 22.2441 1.34063 20.625 2.4375L13.2 7.5V31.125H16.1081L25.5338 39.9211C27.555 41.809 30.6797 41.6613 32.5256 39.5941C33.0928 38.9508 33.4744 38.202 33.6703 37.4215L35.4234 39.0668C37.4344 40.9547 40.5694 40.8176 42.4153 38.7609C42.8794 38.2441 43.2197 37.643 43.4362 37.0207C45.4369 38.3918 48.1594 38.107 49.8403 36.2297C51.6862 34.173 51.5522 30.9668 49.5412 29.0789L35.7019 16.1063ZM1.65 7.5C0.7425 7.5 0 8.25938 0 9.1875V31.125C0 32.9918 1.47469 34.5 3.3 34.5H6.6C8.42531 34.5 9.9 32.9918 9.9 31.125V7.5H1.65ZM4.95 27.75C5.38761 27.75 5.80729 27.9278 6.11673 28.2443C6.42616 28.5607 6.6 28.9899 6.6 29.4375C6.6 29.8851 6.42616 30.3143 6.11673 30.6307C5.80729 30.9472 5.38761 31.125 4.95 31.125C4.51239 31.125 4.09271 30.9472 3.78327 30.6307C3.47384 30.3143 3.3 29.8851 3.3 29.4375C3.3 28.9899 3.47384 28.5607 3.78327 28.2443C4.09271 27.9278 4.51239 27.75 4.95 27.75ZM56.1 7.5V31.125C56.1 32.9918 57.5747 34.5 59.4 34.5H62.7C64.5253 34.5 66 32.9918 66 31.125V9.1875C66 8.25938 65.2575 7.5 64.35 7.5H56.1ZM59.4 29.4375C59.4 28.9899 59.5738 28.5607 59.8833 28.2443C60.1927 27.9278 60.6124 27.75 61.05 27.75C61.4876 27.75 61.9073 27.9278 62.2167 28.2443C62.5262 28.5607 62.7 28.9899 62.7 29.4375C62.7 29.8851 62.5262 30.3143 62.2167 30.6307C61.9073 30.9472 61.4876 31.125 61.05 31.125C60.6124 31.125 60.1927 30.9472 59.8833 30.6307C59.5738 30.3143 59.4 29.8851 59.4 29.4375Z" fill="white"/>
</svg>
