<svg width="15" height="15" viewBox="0 0 15 15" fill="none" xmlns="http://www.w3.org/2000/svg">
<path d="M12.1379 13.1371H2.78586C2.61786 13.1371 2.50586 13.0251 2.50586 12.8571V3.47708C2.50586 3.30908 2.61786 3.19708 2.78586 3.19708H9.61786C9.78586 3.19708 9.89786 3.30908 9.89786 3.47708C9.89786 3.64508 9.78586 3.75708 9.61786 3.75708H3.06586V12.5491H11.8579V5.94108C11.8579 5.77308 11.9699 5.66108 12.1379 5.66108C12.3059 5.66108 12.4179 5.77308 12.4179 5.94108V12.8571C12.4179 12.9971 12.2779 13.1371 12.1379 13.1371Z" fill="#8A8A8A"/>
<path d="M11.578 5.15705C10.962 5.15705 10.458 4.65305 10.458 4.03705C10.458 3.42105 10.962 2.91705 11.578 2.91705C12.194 2.91705 12.698 3.42105 12.698 4.03705C12.698 4.65305 12.194 5.15705 11.578 5.15705ZM11.578 3.47705C11.27 3.47705 11.018 3.72905 11.018 4.03705C11.018 4.34505 11.27 4.59705 11.578 4.59705C11.886 4.59705 12.138 4.34505 12.138 4.03705C12.138 3.72905 11.886 3.47705 11.578 3.47705Z" fill="#8A8A8A"/>
<path d="M10.6262 6.30506H4.27023C4.10223 6.30506 3.99023 6.19306 3.99023 6.02506C3.99023 5.85706 4.10223 5.74506 4.27023 5.74506H10.5982C10.7662 5.74506 10.8782 5.85706 10.8782 6.02506C10.8782 6.19306 10.7662 6.30506 10.6262 6.30506Z" fill="#8A8A8A"/>
</svg>
