<svg width="15" height="14" viewBox="0 0 15 14" fill="none" xmlns="http://www.w3.org/2000/svg">
<path d="M1.04022 6.15747C0.949315 6.44412 0.936715 6.74157 0.936715 7.01922C0.936715 7.94847 1.54962 8.14917 2.01087 8.21937C2.38707 8.27697 3.71322 8.31702 4.50252 8.33682C4.45887 8.39127 4.41117 8.44752 4.36257 8.50602C3.95262 8.99427 3.33252 9.73272 3.39687 11.0827C3.43647 11.8981 3.66867 12.4917 4.08807 12.8476C4.49127 13.1914 4.92237 13.1869 5.03262 13.1797C5.84667 13.1703 5.96412 12.3058 6.05052 11.6745C6.10587 11.2641 6.16887 10.7992 6.36597 10.648C7.12062 10.0684 7.93737 9.37227 8.27217 8.61042C8.62767 7.80312 8.99172 7.13442 9.85932 7.13442H10.2945V8.21532H14.8867V0.33357H10.294V1.31367C9.30267 1.28352 8.86707 1.08957 8.48997 0.77097C7.91667 0.285871 7.41672 0.13107 6.43212 0.13107C5.17662 0.13107 3.51252 0.165271 2.71062 0.328171C2.44197 0.382621 2.08467 0.527069 1.91187 0.90057C1.81422 1.11207 1.78722 1.33347 1.77372 1.50267C1.77012 1.54857 1.76922 1.59672 1.76832 1.64307C1.76742 1.69302 1.76562 1.77807 1.75797 1.82712C1.74897 1.83612 1.74042 1.84467 1.73097 1.85547C1.59327 2.00892 1.43667 2.18397 1.36062 2.45757C1.28682 2.71812 1.27692 2.98452 1.27692 3.20817C1.27692 3.39762 1.32462 3.53847 1.36737 3.66222C1.37862 3.69597 1.38942 3.72747 1.39887 3.75897C1.38312 3.79182 1.34621 3.84357 1.32236 3.87822C1.27331 3.94932 1.21707 4.02987 1.18107 4.12212C1.06272 4.42272 1.05327 4.74177 1.05327 5.01807C1.05327 5.14047 1.06137 5.32227 1.12662 5.49822C1.16622 5.60442 1.22112 5.68002 1.27512 5.73807C1.26702 5.74527 1.25937 5.75292 1.25172 5.76102C1.14057 5.87487 1.08432 6.01887 1.04022 6.15747ZM10.9663 1.00092H14.2144V7.54752H10.9663V1.00092ZM1.68102 6.35907C1.70982 6.26862 1.72692 6.23577 1.73367 6.22677C1.74222 6.21777 1.76247 6.20157 1.78047 6.18582C1.87902 6.10212 2.04417 5.96352 2.04822 5.73987C2.05047 5.60982 1.99332 5.48517 1.88622 5.38752C1.86372 5.36637 1.84167 5.34747 1.82052 5.32992C1.76427 5.28267 1.76337 5.27997 1.75797 5.26557C1.72962 5.18997 1.72647 5.08827 1.72647 5.01762C1.72647 4.80207 1.73277 4.55727 1.80837 4.36422C1.81647 4.34397 1.85337 4.29087 1.87677 4.25667C1.97892 4.11042 2.13147 3.89082 2.05902 3.61947C2.04192 3.55512 2.02212 3.49842 2.00502 3.44847C1.97217 3.35172 1.95012 3.28737 1.95012 3.20817C1.95012 3.02862 1.95777 2.82027 2.00862 2.63577C2.04057 2.52192 2.10717 2.44137 2.22057 2.31447C2.24937 2.29242 2.30157 2.24922 2.34207 2.17632C2.43522 2.00892 2.43882 1.81362 2.44197 1.65567C2.44242 1.61742 2.44332 1.58097 2.44557 1.55397C2.45457 1.44057 2.47122 1.29477 2.52432 1.18002C2.54097 1.14357 2.59092 1.03422 2.84832 0.98247C3.42972 0.863669 4.70367 0.798871 6.43392 0.798871C7.34022 0.798871 7.65477 0.94017 8.05617 1.27947C8.53722 1.68537 9.09837 1.94547 10.2958 1.98102V6.46707H9.86067C8.48232 6.46707 7.96617 7.64067 7.65837 8.34222C7.38342 8.96817 6.64317 9.59232 5.95602 10.1202C5.54112 10.4383 5.46147 11.0211 5.38497 11.5849C5.34672 11.8648 5.30757 12.1542 5.22792 12.3391C5.15862 12.5002 5.09787 12.5124 5.01957 12.5124C5.00697 12.5124 4.99482 12.5133 4.98267 12.5142C4.98042 12.5151 4.74867 12.5295 4.52547 12.3409C4.25592 12.1128 4.09842 11.6668 4.06917 11.0517C4.01742 9.96087 4.49577 9.39117 4.88007 8.93262C5.11857 8.64867 5.34447 8.38002 5.37642 8.04702C5.38542 7.95432 5.35527 7.86297 5.29272 7.79367C5.23017 7.72392 5.14242 7.68342 5.04837 7.68162C4.13442 7.66317 2.48652 7.61682 2.11392 7.56057C1.70442 7.49802 1.61037 7.39632 1.61037 7.01967C1.60902 6.79467 1.61802 6.55887 1.68102 6.35907Z" fill="#D7282F"/>
<path d="M9.86638 6.54661H10.5953V1.95655L10.3192 1.65424H9.86638L9.08373 1.47285L8.31916 1.14031L7.51172 0.686845L6.11154 0.505459H3.56429L2.43218 0.838L1.84725 2.25886L1.69409 3.19602V3.83087L1.52649 4.6019L1.69409 5.41688L1.84725 5.86751L1.52649 6.25103V7.24475L1.84725 7.62212L2.43218 7.73533H2.9605L3.56429 7.84854H5.01717L5.20585 8.05609L4.43224 9.32028L4.20582 9.8486L3.99827 10.3014V11.5656L4.20582 12.226L4.73414 12.5845H5.20585L5.41341 12.094L5.50775 11.4524L5.67757 10.792L6.11154 10.1505L6.96063 9.4335L7.6965 8.7731L8.01727 8.05609L8.31916 7.41456L8.84748 6.88624L9.86638 6.54661Z" fill="#D7282F"/>
</svg>
