<svg width="15" height="14" viewBox="0 0 15 14" fill="none" xmlns="http://www.w3.org/2000/svg">
<path d="M14.4598 7.84253C14.5507 7.55588 14.5633 7.25843 14.5633 6.98078C14.5633 6.05153 13.9504 5.85083 13.4891 5.78063C13.1129 5.72303 11.7868 5.68298 10.9975 5.66318C11.0411 5.60873 11.0888 5.55248 11.1374 5.49398C11.5474 5.00573 12.1675 4.26728 12.1031 2.91728C12.0635 2.10188 11.8313 1.50833 11.4119 1.15238C11.0087 0.808578 10.5776 0.813078 10.4674 0.820278C9.65333 0.829728 9.53588 1.69418 9.44948 2.32553C9.39413 2.73593 9.33113 3.20078 9.13403 3.35198C8.37938 3.93158 7.56263 4.62773 7.22783 5.38958C6.87233 6.19688 6.50828 6.86558 5.64068 6.86558H5.20553V5.78468H0.613281V13.6664H5.20598V12.6863C6.19733 12.7165 6.63293 12.9104 7.01003 13.229C7.58333 13.7141 8.08328 13.8689 9.06788 13.8689C10.3234 13.8689 11.9875 13.8347 12.7894 13.6718C13.058 13.6174 13.4153 13.4729 13.5881 13.0994C13.6858 12.8879 13.7128 12.6665 13.7263 12.4973C13.7299 12.4514 13.7308 12.4033 13.7317 12.3569C13.7326 12.307 13.7344 12.2219 13.742 12.1729C13.751 12.1639 13.7596 12.1553 13.769 12.1445C13.9067 11.9911 14.0633 11.816 14.1394 11.5424C14.2132 11.2819 14.2231 11.0155 14.2231 10.7918C14.2231 10.6024 14.1754 10.4615 14.1326 10.3378C14.1214 10.304 14.1106 10.2725 14.1011 10.241C14.1169 10.2082 14.1538 10.1564 14.1776 10.1218C14.2267 10.0507 14.2829 9.97013 14.3189 9.87788C14.4373 9.57728 14.4467 9.25823 14.4467 8.98193C14.4467 8.85953 14.4386 8.67773 14.3734 8.50178C14.3338 8.39558 14.2789 8.31998 14.2249 8.26193C14.233 8.25473 14.2406 8.24708 14.2483 8.23898C14.3594 8.12513 14.4157 7.98113 14.4598 7.84253ZM4.53368 12.9991H1.28558V6.45248H4.53368V12.9991ZM13.819 7.64093C13.7902 7.73138 13.7731 7.76423 13.7663 7.77323C13.7578 7.78223 13.7375 7.79843 13.7195 7.81418C13.621 7.89788 13.4558 8.03648 13.4518 8.26013C13.4495 8.39018 13.5067 8.51483 13.6138 8.61248C13.6363 8.63363 13.6583 8.65253 13.6795 8.67008C13.7357 8.71733 13.7366 8.72003 13.742 8.73443C13.7704 8.81003 13.7735 8.91173 13.7735 8.98238C13.7735 9.19793 13.7672 9.44273 13.6916 9.63578C13.6835 9.65603 13.6466 9.70913 13.6232 9.74333C13.5211 9.88958 13.3685 10.1092 13.441 10.3805C13.4581 10.4449 13.4779 10.5016 13.495 10.5515C13.5278 10.6483 13.5499 10.7126 13.5499 10.7918C13.5499 10.9714 13.5422 11.1797 13.4914 11.3642C13.4594 11.4781 13.3928 11.5586 13.2794 11.6855C13.2506 11.7076 13.1984 11.7508 13.1579 11.8237C13.0648 11.9911 13.0612 12.1864 13.058 12.3443C13.0576 12.3826 13.0567 12.419 13.0544 12.446C13.0454 12.5594 13.0288 12.7052 12.9757 12.82C12.959 12.8564 12.9091 12.9658 12.6517 13.0175C12.0703 13.1363 10.7963 13.2011 9.06608 13.2011C8.15978 13.2011 7.84523 13.0598 7.44383 12.7205C6.96278 12.3146 6.40163 12.0545 5.20418 12.019V7.53293H5.63933C7.01768 7.53293 7.53383 6.35933 7.84163 5.65778C8.11658 5.03183 8.85683 4.40768 9.54398 3.87983C9.95888 3.56168 10.0385 2.97893 10.115 2.41508C10.1533 2.13518 10.1924 1.84583 10.2721 1.66088C10.3414 1.49978 10.4021 1.48763 10.4804 1.48763C10.493 1.48763 10.5052 1.48673 10.5173 1.48583C10.5196 1.48493 10.7513 1.47053 10.9745 1.65908C11.2441 1.88723 11.4016 2.33318 11.4308 2.94833C11.4826 4.03913 11.0042 4.60883 10.6199 5.06738C10.3814 5.35133 10.1555 5.61998 10.1236 5.95298C10.1146 6.04568 10.1447 6.13703 10.2073 6.20633C10.2698 6.27608 10.3576 6.31658 10.4516 6.31838C11.3656 6.33683 13.0135 6.38318 13.3861 6.43943C13.7956 6.50198 13.8896 6.60368 13.8896 6.98033C13.891 7.20533 13.882 7.44113 13.819 7.64093Z" fill="#34A400"/>
<path d="M5.63362 7.45339H4.90472V12.0435L5.18077 12.3458H5.63362L6.41627 12.5271L7.18084 12.8597L7.98828 13.3132L9.38846 13.4945H11.9357L13.0678 13.162L13.6527 11.7411L13.8059 10.804V10.1691L13.9735 9.3981L13.8059 8.58312L13.6527 8.13249L13.9735 7.74897V6.75525L13.6527 6.37788L13.0678 6.26467H12.5395L11.9357 6.15146H10.4828L10.2941 5.94391L11.0678 4.67972L11.2942 4.1514L11.5017 3.69855V2.43436L11.2942 1.77396L10.7659 1.41546H10.2941L10.0866 1.90604L9.99225 2.54757L9.82243 3.20797L9.38846 3.8495L8.53937 4.5665L7.8035 5.2269L7.48273 5.94391L7.18084 6.58544L6.65252 7.11376L5.63362 7.45339Z" fill="#34A400"/>
</svg>
