<svg width="14" height="14" viewBox="0 0 14 14" fill="none" xmlns="http://www.w3.org/2000/svg">
<path d="M13.5856 0.700841C13.5856 0.514966 13.5118 0.336705 13.3803 0.205272C13.2489 0.0738384 13.0706 0 12.8848 0C12.6989 0 12.5206 0.0738384 12.3892 0.205272C12.2578 0.336705 12.1839 0.514966 12.1839 0.700841V1.87265C10.8877 0.674308 9.18697 0.00927574 7.42168 0.0104628C5.65639 0.0116498 3.95656 0.678969 2.66193 1.87905C1.36731 3.07913 0.573242 4.72357 0.438444 6.48371C0.303646 8.24385 0.838044 9.99002 1.93483 11.3732C1.99263 11.445 2.064 11.5047 2.14487 11.5489C2.22575 11.5931 2.31453 11.621 2.40616 11.6309C2.49779 11.6408 2.59048 11.6325 2.67892 11.6066C2.76736 11.5807 2.84983 11.5376 2.92162 11.4798C2.9934 11.422 3.05311 11.3506 3.09731 11.2697C3.14152 11.1889 3.16936 11.1001 3.17925 11.0084C3.18914 10.9168 3.18089 10.8241 3.15496 10.7357C3.12904 10.6472 3.08594 10.5648 3.02814 10.493C2.14748 9.38333 1.71953 7.98142 1.83032 6.5691C1.94111 5.15678 2.58243 3.83875 3.62536 2.87998C4.66828 1.92122 6.03549 1.39279 7.45212 1.40094C8.86876 1.40909 10.2298 1.95321 11.2616 2.92391L9.87676 2.80336C9.69089 2.78664 9.50598 2.84443 9.36272 2.96403C9.21946 3.08364 9.12958 3.25525 9.11285 3.44113C9.09612 3.627 9.15391 3.81191 9.27352 3.95517C9.39312 4.09844 9.56474 4.18832 9.75061 4.20505L12.8343 4.48538H13.0081L13.0754 4.47137L13.1399 4.45174L13.2044 4.42371L13.2632 4.39287L13.3193 4.35362L13.3698 4.31157C13.3866 4.29756 13.4006 4.28074 13.4174 4.26392L13.4454 4.20505L13.4819 4.14898L13.5155 4.08731L13.5408 4.02563C13.5486 4.00455 13.5551 3.98302 13.5604 3.96115C13.5678 3.93745 13.5725 3.91301 13.5744 3.88827C13.5757 3.87615 13.5757 3.86394 13.5744 3.85182V3.81818V3.78734L13.5856 0.700841ZM6.20155 12.503C6.15625 12.4795 6.10823 12.4616 6.05858 12.4497C5.6626 12.3509 5.27895 12.208 4.91481 12.0236C4.7438 11.9395 4.5756 11.8442 4.41301 11.7433L4.35133 11.7068C4.19059 11.6276 4.00558 11.6129 3.83435 11.6659C3.66311 11.7188 3.51867 11.8353 3.43072 11.9915C3.34276 12.1477 3.31798 12.3316 3.36147 12.5055C3.40495 12.6793 3.5134 12.8299 3.66451 12.9263C3.8271 13.03 3.9925 13.1254 4.16631 13.2066H4.53355L4.56439 13.2207C4.92663 13.3809 5.30174 13.5103 5.68573 13.6075C5.85286 13.6483 6.02912 13.6261 6.18098 13.5453C6.33283 13.4645 6.44966 13.3307 6.50923 13.1693C6.56879 13.0079 6.56693 12.8303 6.50399 12.6702C6.44105 12.5101 6.32143 12.3788 6.16791 12.3012L6.20155 12.503Z" fill="white"/>
<path d="M9.20003 12.517C9.05294 12.4422 8.88392 12.4223 8.72346 12.461C8.43244 12.5315 8.13618 12.5784 7.8376 12.6011C7.68479 12.6131 7.54011 12.6748 7.42573 12.7768C7.31134 12.8789 7.23356 13.0156 7.2043 13.166C7.17503 13.3165 7.1959 13.4724 7.2637 13.6099C7.3315 13.7473 7.4425 13.8588 7.57969 13.9271C7.6916 13.983 7.81665 14.0072 7.94132 13.9972C8.31916 13.9694 8.69415 13.9113 9.06267 13.8234C9.24215 13.7795 9.39703 13.6665 9.49363 13.509C9.59023 13.3515 9.62073 13.1623 9.57849 12.9824C9.55433 12.8814 9.50778 12.7872 9.44227 12.7066C9.37676 12.6261 9.29397 12.5613 9.20003 12.517ZM11.4764 11.4602C11.3607 11.4027 11.2315 11.3784 11.1028 11.3897C10.9742 11.4011 10.8513 11.4478 10.7475 11.5247C10.6269 11.6116 10.5008 11.6957 10.3746 11.7742C10.2173 11.8725 10.1051 12.029 10.0626 12.2096C10.0201 12.3902 10.0506 12.5803 10.1476 12.7385C10.2454 12.8964 10.4019 13.0091 10.5827 13.0517C10.7636 13.0942 10.9539 13.0633 11.1119 12.9656C11.2717 12.8675 11.4259 12.7637 11.5773 12.6516C11.6733 12.5801 11.7495 12.4853 11.7987 12.3762C11.8478 12.267 11.8683 12.1471 11.8582 12.0278C11.8481 11.9085 11.8077 11.7938 11.7409 11.6945C11.6741 11.5951 11.583 11.5145 11.4764 11.4602ZM12.9706 10.0557C12.8555 9.97837 12.7201 9.93691 12.5815 9.93653C12.4429 9.93615 12.3073 9.97687 12.1919 10.0536C12.0764 10.1302 11.9863 10.2394 11.9329 10.3674C11.8795 10.4953 11.8652 10.6361 11.8919 10.7721C11.9185 10.9082 11.9849 11.0332 12.0826 11.1315C12.1804 11.2298 12.305 11.2969 12.4409 11.3243C12.5768 11.3518 12.7177 11.3383 12.8459 11.2856C12.9741 11.233 13.0838 11.1435 13.1612 11.0285C13.2642 10.874 13.302 10.685 13.2662 10.5028C13.2305 10.3206 13.1243 10.1599 12.9706 10.0557Z" fill="white"/>
</svg>
