<svg width="17" height="17" viewBox="0 0 17 17" fill="none" xmlns="http://www.w3.org/2000/svg">
<g clip-path="url(#clip0_2431_18631)">
<path d="M8.5 0.730469C6.96333 0.730469 5.46117 1.18614 4.18349 2.03987C2.90578 2.89359 1.90995 4.10704 1.32189 5.52673C0.733834 6.94641 0.579974 8.50861 0.879761 10.0158C1.17955 11.5229 1.91953 12.9073 3.0061 13.9939C4.0927 15.0805 5.47711 15.8205 6.98424 16.1202C8.49139 16.42 10.0536 16.2662 11.4733 15.6781C12.893 15.09 14.1064 14.0942 14.9601 12.8165C15.8139 11.5388 16.2695 10.0367 16.2695 8.5C16.2674 6.44005 15.4482 4.46505 13.9916 3.00844C12.535 1.55183 10.56 0.732578 8.5 0.730469ZM8.5 1.39453C9.83647 1.39358 11.1461 1.76986 12.2782 2.48008C13.4103 3.19032 14.319 4.20564 14.8998 5.40935C15.4806 6.61303 15.7098 7.95621 15.5612 9.28439C15.4125 10.6126 14.892 11.8718 14.0595 12.9173C13.6941 12.0777 13.1428 11.332 12.447 10.7365C11.7513 10.1411 10.9293 9.71149 10.0433 9.48016C10.5495 9.14797 10.935 8.66131 11.1426 8.0925C11.3501 7.5237 11.3686 6.90312 11.1952 6.32299C11.0219 5.74284 10.666 5.23411 10.1804 4.87244C9.69481 4.51074 9.10549 4.31537 8.5 4.31537C7.89453 4.31537 7.30519 4.51074 6.81963 4.87244C6.33404 5.23411 5.97813 5.74284 5.80478 6.32299C5.63144 6.90312 5.6499 7.5237 5.85743 8.0925C6.06496 8.66131 6.45049 9.14797 6.95672 9.48016C6.07067 9.71149 5.24875 10.1411 4.553 10.7365C3.85727 11.332 3.30589 12.0777 2.94047 12.9173C2.10799 11.8718 1.5875 10.6126 1.43885 9.28439C1.29021 7.95621 1.51945 6.61303 2.1002 5.40935C2.68095 4.20564 3.58966 3.19032 4.7218 2.48008C5.85392 1.76986 7.16353 1.39358 8.5 1.39453ZM8.5 9.27828C8.075 9.27828 7.65951 9.15224 7.30612 8.91613C6.95276 8.67999 6.67731 8.3444 6.51467 7.95172C6.35202 7.55908 6.30947 7.12698 6.3924 6.71014C6.4753 6.29329 6.67996 5.9104 6.98049 5.60987C7.28102 5.30934 7.66392 5.10467 8.08076 5.02175C8.49761 4.93885 8.9297 4.9814 9.32235 5.14404C9.71502 5.30668 10.0506 5.58211 10.2868 5.9355C10.5229 6.28888 10.6489 6.70435 10.6489 7.12937C10.6482 7.69909 10.4216 8.24527 10.0187 8.64811C9.61589 9.05096 9.06971 9.27759 8.5 9.27828ZM8.5 15.6055C7.55669 15.6066 6.62264 15.4193 5.75275 15.0543C4.88285 14.6894 4.09469 14.1543 3.43453 13.4805C3.81592 12.444 4.50609 11.5494 5.4119 10.9175C6.31771 10.2856 7.39556 9.94683 8.5 9.94683C9.60444 9.94683 10.6823 10.2856 11.5881 10.9175C12.4939 11.5494 13.1841 12.444 13.5655 13.4805C12.9053 14.1543 12.1171 14.6894 11.2473 15.0543C10.3774 15.4193 9.44334 15.6066 8.5 15.6055Z" fill="#9C9C9C"/>
</g>
<defs>
<clipPath id="clip0_2431_18631">
<rect width="17" height="17" fill="white"/>
</clipPath>
</defs>
</svg>
