<svg width="391" height="326" viewBox="0 0 391 326" fill="none" xmlns="http://www.w3.org/2000/svg">
<rect width="391" height="326" fill="#F3F4F6"/>
<path d="M248 199.521C248 204.734 244.026 209 239.168 209H150.832C145.974 209 142 204.735 142 199.521V127.478C142 122.265 145.974 118 150.832 118H239.168C244.026 118 248 122.265 248 127.478V199.521ZM150.832 125.583C149.894 125.583 149.067 126.474 149.067 127.477V199.52C149.067 200.527 149.895 201.415 150.832 201.415H239.168C240.103 201.415 240.935 200.527 240.935 199.52V127.477C240.935 126.474 240.103 125.583 239.168 125.583H150.832ZM166.735 155.916C160.882 155.916 156.131 150.821 156.131 144.543C156.131 138.264 160.882 133.167 166.735 133.167C172.585 133.167 177.331 138.264 177.331 144.543C177.331 150.821 172.585 155.916 166.735 155.916ZM233.866 193.834H156.131V182.457L173.799 163.502L182.632 172.978L210.899 142.648L233.866 167.294V193.834Z" fill="#BABEC9"/>
</svg>
