<svg width="16" height="17" viewBox="0 0 16 17" fill="none" xmlns="http://www.w3.org/2000/svg">
<path d="M7.45733 16.2608C7.30591 16.2608 7.15506 16.2556 7.00649 16.2373C6.71793 16.2013 6.41108 16.1591 6.11452 16.0796C5.88939 16.0168 5.65282 15.9345 5.37283 15.8214C5.08827 15.7071 4.85857 15.5991 4.65114 15.4819L4.51858 15.4071C4.40487 15.3437 4.29173 15.2797 4.17973 15.2128C3.94088 15.2494 3.74603 15.3071 3.5529 15.3654L2.60493 15.6482C2.43579 15.7008 2.26608 15.7551 2.09295 15.7865C1.80781 15.8396 1.55753 15.8871 1.30726 15.9208C1.22783 15.9311 1.14898 15.9379 1.07012 15.9379C0.980983 15.9379 0.899843 15.9288 0.822132 15.9111C0.600425 15.8614 0.42386 15.6065 0.450144 15.3757C0.468429 15.2139 0.506714 15.062 0.546141 14.9065L0.748991 14.1117C0.790133 13.9506 0.831846 13.7889 0.885558 13.6317L0.952984 13.4449C1.01184 13.2837 1.07069 13.1237 1.10784 12.954L1.2364 12.3826C1.09298 12.1438 0.940413 11.9181 0.834131 11.6735C0.753563 11.4889 0.679279 11.3021 0.604425 11.1147L0.464429 10.7707C0.377004 10.5673 0.285579 10.3575 0.226723 10.1438C0.153583 9.88442 0.103299 9.63928 0.072443 9.39472C0.019302 8.97016 -0.00355448 8.50389 0.000445386 7.9262C0.0015882 7.66563 0.0307301 7.40907 0.0747286 7.10451C0.11187 6.84852 0.142726 6.63995 0.19301 6.43596C0.324434 5.90398 0.46043 5.44171 0.609567 5.02401C0.69185 4.79545 0.776419 4.55831 0.910129 4.33889C1.08155 4.05776 1.23755 3.83205 1.40097 3.62863C1.7621 3.18064 2.16437 2.79837 2.59521 2.49267C2.71807 2.40524 2.84378 2.32125 2.96949 2.23725L3.19976 2.08297C3.41919 1.93212 3.64546 1.79783 3.87574 1.66584L3.98202 1.60527C4.1563 1.50527 4.33115 1.40585 4.51515 1.32414C4.73686 1.227 4.97342 1.12814 5.20427 1.067C5.41569 1.01158 5.63111 0.961863 5.84482 0.914436C6.10309 0.857295 6.38023 0.800154 6.65736 0.772155C6.85278 0.752156 7.04992 0.748728 7.24705 0.745299L7.62533 0.739014C7.81961 0.739014 8.01331 0.746442 8.20816 0.756727C8.47901 0.772155 8.74529 0.787012 9.00357 0.833868C9.27556 0.883009 9.50869 0.92415 9.73897 0.985291C10.2458 1.12014 10.7366 1.29385 11.1961 1.5007C11.608 1.68641 12.0452 1.91155 12.5343 2.19096C12.7343 2.30582 12.9389 2.44353 13.1611 2.61209C13.3994 2.79437 13.6137 2.96008 13.8183 3.1475C13.9977 3.3115 14.1697 3.49092 14.344 3.69663C14.5251 3.90919 14.6999 4.11833 14.8514 4.3406C15.0056 4.56403 15.1405 4.76859 15.2422 4.9943C15.3542 5.24 15.4593 5.48742 15.5531 5.74056C15.7022 6.14626 15.8085 6.60853 15.8873 7.19308L15.9056 7.33022C15.9376 7.55935 15.9702 7.78906 15.9833 8.01876C15.9982 8.26333 16.0119 8.49303 15.9833 8.71531C15.917 9.26558 15.805 9.79471 15.6508 10.289C15.4919 10.7981 15.3039 11.3364 15.0136 11.8204C14.8976 12.0123 14.7754 12.1998 14.6537 12.3866L14.5702 12.5135C14.4228 12.7386 14.2708 12.9626 14.1028 13.1734C13.9303 13.3906 13.7588 13.6009 13.5657 13.7889C13.3823 13.9677 13.1971 14.142 13.0034 14.3077C12.6012 14.6545 12.1423 14.9825 11.64 15.2837L11.5869 15.3157C11.3778 15.4402 11.1692 15.5648 10.9481 15.6688C10.7024 15.7831 10.4304 15.8751 10.163 15.9351C9.55612 16.0722 9.02357 16.1608 8.53501 16.2065C8.28702 16.2299 8.04074 16.2488 7.79332 16.2556C7.65447 16.2585 7.55561 16.2608 7.45733 16.2608ZM4.26544 14.2488C4.37458 14.2488 4.46829 14.286 4.57857 14.3728C4.71743 14.47 4.86314 14.5523 5.00885 14.634L5.06199 14.6637C5.21055 14.7483 5.35969 14.83 5.51569 14.9014C5.76939 15.0054 6.0231 15.0962 6.28195 15.1785C6.54365 15.2631 6.81164 15.3088 7.01506 15.3391C7.23563 15.3591 7.45448 15.3688 7.6739 15.3688C8.01846 15.3688 8.38416 15.3459 8.76015 15.3002C9.34298 15.2105 9.9601 15.0974 10.5401 14.8825C10.7778 14.7682 11.0006 14.6305 11.2155 14.498L11.2943 14.4494C11.5612 14.286 11.8103 14.1043 12.0423 13.9323C12.2823 13.742 12.5206 13.5294 12.7714 13.2814L12.8669 13.1877C12.9617 13.0952 13.0566 13.002 13.1429 12.902C13.2383 12.7877 13.332 12.674 13.4251 12.5586C13.6257 12.2843 13.8091 12.0026 13.9908 11.7186L14.0508 11.6249C14.1194 11.5175 14.188 11.4106 14.2485 11.2992C14.3285 11.1507 14.4028 11.0004 14.4731 10.8472C14.7422 10.1781 14.9314 9.49586 15.0359 8.81874C15.0731 8.43475 15.0611 8.02105 14.9988 7.5125C14.9394 7.0868 14.8714 6.73938 14.7839 6.41596C14.7017 6.12054 14.6017 5.82798 14.4782 5.52171C14.3354 5.20058 14.1577 4.90116 13.9491 4.63088L13.7805 4.41203C13.6343 4.22575 13.4577 4.01033 13.2537 3.81891C13.0714 3.64691 12.8811 3.48406 12.684 3.32978C12.6772 3.32521 12.6646 3.31493 12.6646 3.31493C12.5114 3.20179 12.356 3.09493 12.1949 2.99665C12.096 2.93665 11.9937 2.8818 11.8915 2.82694L11.7486 2.7498C11.4241 2.57267 11.0921 2.40867 10.7618 2.26125C10.3504 2.09497 10.0327 1.98526 9.7304 1.90469C9.40812 1.81841 9.06299 1.74869 8.67558 1.69155C8.35387 1.65841 8.02131 1.64013 7.68418 1.63727L7.62476 1.6367C7.49162 1.6367 7.35791 1.64184 7.22477 1.64755L7.0402 1.65498C6.92478 1.65955 6.80878 1.66355 6.69393 1.67441C6.45451 1.71498 6.22309 1.76984 5.99167 1.82583L5.62368 1.9104C5.50997 1.9344 5.3974 1.9584 5.28655 1.99554C5.15798 2.03726 5.02942 2.0824 4.90199 2.13268C4.73971 2.20582 4.58429 2.28525 4.42944 2.36867L4.30487 2.43724C4.16945 2.50924 4.03345 2.58181 3.90545 2.66466C3.59347 2.86808 3.28262 3.07722 2.98206 3.29778C2.65235 3.57492 2.33865 3.89605 2.04666 4.25718C1.84895 4.5246 1.68839 4.79259 1.56839 5.05601C1.50725 5.21143 1.45811 5.36914 1.40897 5.52571L1.37526 5.6337C1.31354 5.8257 1.25755 6.01826 1.20612 6.21425C1.10098 6.61824 1.01984 7.00394 0.960413 7.3925C0.903843 7.93991 0.913557 8.53703 0.990126 9.22044C1.04441 9.569 1.12212 9.89527 1.22155 10.1941C1.32611 10.509 1.44554 10.8215 1.57068 11.1289C1.64096 11.2844 1.71867 11.4312 1.81067 11.5735C1.90609 11.7226 2.01123 11.8649 2.11637 12.0078L2.16266 12.0701C2.23008 12.1598 2.2358 12.3146 2.20666 12.4209C2.18494 12.4998 2.13409 12.574 2.05523 12.6426L1.99695 12.8283C1.95352 12.9969 1.91009 13.166 1.86495 13.3334C1.84153 13.4232 1.80838 13.5094 1.77581 13.5951L1.72096 13.7449C1.67525 13.8803 1.6421 14.0163 1.61239 14.1546C1.61239 14.1546 1.48497 14.7534 1.4524 14.8957L1.42211 15.0414L1.64782 15.0031C1.75639 14.986 1.8661 14.9677 1.97238 14.9391C2.2238 14.8705 2.47236 14.7905 2.71807 14.7054C2.86263 14.654 3.0112 14.6145 3.15977 14.5745C3.24205 14.5523 3.32433 14.53 3.40604 14.506L3.5569 14.4603C3.69518 14.4174 3.8346 14.3745 3.97574 14.3471C4.09916 14.2786 4.1843 14.2488 4.26544 14.2488ZM7.39848 12.0078C7.14249 12.0078 6.92707 11.7918 6.92707 11.5358C6.92707 11.2798 7.14306 11.0638 7.39848 11.0638C7.6539 11.0638 7.86989 11.2798 7.86989 11.5358C7.86989 11.7918 7.65447 12.0078 7.39848 12.0078ZM7.41048 10.0398C7.30762 10.0398 7.20477 9.99698 7.12934 9.9227C7.05163 9.84499 7.02935 9.76499 7.01278 9.63357C7.00021 9.537 7.00135 9.43814 7.00192 9.33929L6.99849 8.95873C6.99678 8.81531 6.99506 8.70274 7.02535 8.6056C7.08135 8.43075 7.22191 8.29933 7.39162 8.26333C7.46933 8.24676 7.54362 8.24561 7.63276 8.24561H7.63333C7.79618 8.24561 7.91789 8.23704 8.03903 8.22562C8.24016 8.1919 8.41787 8.14676 8.57215 8.09133C8.67386 8.04162 8.76243 7.98391 8.84871 7.92105C8.995 7.79934 9.13556 7.65249 9.29327 7.4565C9.34813 7.3805 9.39955 7.30565 9.44069 7.22451C9.46526 7.15879 9.48298 7.0988 9.49612 7.03708C9.50526 6.91366 9.50355 6.79938 9.49498 6.68338C9.47498 6.57196 9.44469 6.46739 9.40869 6.36682C9.38812 6.32568 9.36812 6.29254 9.34698 6.26054C9.29556 6.20111 9.24527 6.15083 9.19442 6.10112C9.15499 6.06169 9.03442 5.93369 9.03442 5.93369C8.96242 5.85598 8.89271 5.77998 8.81157 5.71084C8.68415 5.61713 8.56072 5.54285 8.43159 5.48057C8.29388 5.428 8.15502 5.38114 8.01446 5.35371C7.97274 5.35086 7.93903 5.34971 7.90475 5.34971C7.83903 5.34971 7.77332 5.35371 7.70818 5.36057C7.48133 5.39943 7.3002 5.44457 7.1362 5.50114C7.01049 5.56285 6.89792 5.63313 6.78821 5.70856C6.6385 5.83084 6.52479 5.94112 6.42708 6.05712C6.3608 6.15197 6.30652 6.24797 6.25795 6.34796C6.18652 6.53482 6.13109 6.72224 6.07567 6.91023L6.04367 7.01766C5.98653 7.20622 5.81282 7.33822 5.62082 7.33822C5.58311 7.33822 5.54426 7.33307 5.50711 7.32222C5.39455 7.29079 5.29626 7.21079 5.23741 7.10337C5.18255 7.00223 5.16998 6.89023 5.20198 6.78852C5.24369 6.65195 5.28998 6.51939 5.33798 6.38568C5.42026 6.15711 5.50483 5.91998 5.63454 5.71199C5.76425 5.50799 5.92196 5.32743 6.08995 5.19143C6.26537 5.04858 6.47165 4.88801 6.7025 4.78802C6.8305 4.73316 6.96992 4.67716 7.12192 4.64288C7.23391 4.61774 7.34591 4.5966 7.45962 4.57945C7.62933 4.55431 7.79161 4.52917 7.95332 4.52917C8.06703 4.52917 8.16874 4.54231 8.26416 4.56803C8.51215 4.63488 8.74529 4.72173 8.95728 4.82516C9.15042 4.91887 9.32184 5.05201 9.44984 5.15772C9.52469 5.21886 9.59155 5.28914 9.65897 5.35943C9.70468 5.40685 9.74983 5.45428 9.79782 5.49885C9.93211 5.6257 10.0812 5.77941 10.1618 5.95655C10.271 6.19711 10.3344 6.45653 10.3509 6.72738C10.3675 6.97309 10.3338 7.21308 10.2572 7.40336C10.2121 7.5165 10.1664 7.63306 10.095 7.73306C10.0184 7.84106 9.93782 7.9462 9.85154 8.04619C9.66983 8.25419 9.50698 8.41018 9.33841 8.5376C9.16356 8.67017 8.97671 8.7736 8.767 8.85359C8.60815 8.91359 8.41844 8.95988 8.20302 8.99073C8.08245 9.00787 7.96132 9.01702 7.84075 9.02616L7.78818 9.03016L7.78589 9.19015C7.78361 9.32901 7.78189 9.41872 7.78818 9.50843C7.82189 9.66099 7.79161 9.79642 7.71275 9.89527C7.63904 9.98841 7.53104 10.0398 7.41048 10.0398Z" fill="#111918"/>
</svg>
