<svg width="16" height="17" viewBox="0 0 16 17" fill="none" xmlns="http://www.w3.org/2000/svg">
<path d="M8.28975 16.1078C7.14992 16.1107 6.02463 15.8519 5.00056 15.3514C3.83229 15.9197 2.53818 16.1801 1.24104 16.1078C1.02592 16.1078 0.795384 16.1032 0.557137 16.0939C0.450862 16.0906 0.347625 16.0577 0.259073 15.9988C0.17052 15.94 0.100174 15.8576 0.0559708 15.7609C0.0100231 15.6651 -0.0081904 15.5583 0.00339212 15.4527C0.0149746 15.3471 0.0558906 15.2469 0.121508 15.1633C0.838479 14.3029 1.38109 13.3112 1.71907 12.2434C1.02206 10.9877 0.699185 9.55867 0.788619 8.12526C0.878053 6.69185 1.37606 5.31402 2.22375 4.15467C3.07145 2.99533 4.23338 2.10295 5.57217 1.58305C6.91097 1.06315 8.37064 0.937471 9.7786 1.22087C9.55443 1.55407 9.37892 1.91754 9.25738 2.3003C8.0638 2.11654 6.84256 2.27627 5.73639 2.76082C4.63021 3.24537 3.68478 4.03473 3.01057 5.03666C2.33636 6.03859 1.96123 7.2117 1.929 8.41892C1.89678 9.62614 2.20879 10.8176 2.82858 11.8541C2.9029 11.9779 2.9282 12.125 2.89951 12.2666C2.67029 13.2265 2.26224 14.1347 1.69671 14.9436C2.7262 14.9779 3.74493 14.7251 4.63894 14.2134C4.73621 14.1449 4.85231 14.1083 4.97126 14.1086C5.06857 14.1088 5.16427 14.1335 5.2496 14.1803C6.2909 14.7461 7.46951 15.0099 8.65267 14.942C9.83583 14.8741 10.9765 14.4772 11.9463 13.796C12.916 13.1147 13.6763 12.1763 14.1414 11.0863C14.6066 9.99627 14.7581 8.79804 14.579 7.62655C14.9618 7.50502 15.3252 7.32951 15.6584 7.10533C15.8776 8.19641 15.8519 9.32252 15.5832 10.4025C15.3145 11.4824 14.8095 12.4893 14.1046 13.3504C13.3997 14.2116 12.5125 14.9056 11.507 15.3825C10.5014 15.8593 9.40262 16.107 8.28975 16.1078ZM10.6028 10.7106H5.20565C5.05228 10.7106 4.9052 10.6497 4.79675 10.5413C4.6883 10.4328 4.62738 10.2857 4.62738 10.1324C4.62738 9.97901 4.6883 9.83193 4.79675 9.72348C4.9052 9.61503 5.05228 9.55411 5.20565 9.55411H10.6028C10.7562 9.55411 10.9033 9.61503 11.0117 9.72348C11.1202 9.83193 11.1811 9.97901 11.1811 10.1324C11.1811 10.2857 11.1202 10.4328 11.0117 10.5413C10.9033 10.6497 10.7562 10.7106 10.6028 10.7106ZM9.06077 7.62655H5.20565C5.05228 7.62655 4.9052 7.56562 4.79675 7.45718C4.6883 7.34873 4.62738 7.20164 4.62738 7.04828C4.62738 6.89491 4.6883 6.74783 4.79675 6.63938C4.9052 6.53093 5.05228 6.47001 5.20565 6.47001H9.06077C9.21414 6.47001 9.36122 6.53093 9.46967 6.63938C9.57812 6.74783 9.63904 6.89491 9.63904 7.04828C9.63904 7.20164 9.57812 7.34873 9.46967 7.45718C9.36122 7.56562 9.21414 7.62655 9.06077 7.62655ZM14.1588 6.1377C13.5074 4.59853 12.2823 3.37345 10.7431 2.72205C10.8688 2.34823 11.0743 2.00622 11.3453 1.71972C13.0434 2.47688 14.4017 3.83511 15.1588 5.53321C14.8723 5.80424 14.5303 6.00972 14.1565 6.13538L14.1588 6.1377Z" fill="#141124"/>
<path d="M13.3014 6.2773C12.7676 6.2773 12.2459 6.11904 11.8021 5.82251C11.3583 5.52599 11.0125 5.10452 10.8082 4.61142C10.604 4.11832 10.5505 3.57572 10.6546 3.05225C10.7588 2.52877 11.0158 2.04793 11.3932 1.67053C11.7706 1.29312 12.2514 1.03611 12.7749 0.931981C13.2984 0.827855 13.841 0.881296 14.3341 1.08555C14.8272 1.2898 15.2486 1.63568 15.5452 2.07946C15.8417 2.52324 16 3.04499 16 3.57872C16 4.29443 15.7156 4.98082 15.2096 5.48691C14.7035 5.99299 14.0171 6.2773 13.3014 6.2773Z" fill="#FF6359"/>
</svg>
