<svg width="16" height="15" viewBox="0 0 16 15" fill="none" xmlns="http://www.w3.org/2000/svg">
<path fill-rule="evenodd" clip-rule="evenodd" d="M14.3334 0.166748H1.66666C0.747345 0.166748 0 0.914749 0 1.83344V13.1668C0 14.0855 0.747345 14.8335 1.66666 14.8335H14.3333C15.2527 14.8335 16 14.0855 16 13.1668V1.83344C16 0.914749 15.2527 0.166748 14.3334 0.166748ZM15.3334 13.1668C15.3334 13.7181 14.8847 14.1668 14.3334 14.1668H1.66666C1.11531 14.1668 0.666658 13.7181 0.666658 13.1668V3.5001H15.3333V13.1668H15.3334ZM15.3333 2.83344H0.666658V1.83344C0.666658 1.28209 1.11531 0.833437 1.66666 0.833437H14.3333C14.8847 0.833437 15.3333 1.28209 15.3333 1.83344V2.83344ZM4 1.83343C4 1.64943 4.14934 1.50008 4.33334 1.50008C4.51734 1.50008 4.66669 1.64943 4.66669 1.83343C4.66669 2.01743 4.51734 2.16677 4.33334 2.16677C4.14934 2.16677 4 2.01743 4 1.83343ZM9.66668 6.16674H14.3333C14.5173 6.16674 14.6667 6.0174 14.6667 5.83339C14.6667 5.64939 14.5174 5.50008 14.3334 5.50008H9.66668C9.48268 5.50008 9.33333 5.64943 9.33333 5.83343C9.33333 6.01743 9.48268 6.16674 9.66668 6.16674ZM9.66668 8.16674H14.3333C14.5173 8.16674 14.6667 8.01739 14.6667 7.83339C14.6667 7.64939 14.5174 7.50008 14.3334 7.50008H9.66668C9.48268 7.50008 9.33333 7.64943 9.33333 7.83343C9.33333 8.01743 9.48268 8.16674 9.66668 8.16674ZM14.3333 10.1667H9.66668C9.48268 10.1667 9.33333 10.0174 9.33333 9.83343C9.33333 9.64942 9.48268 9.50008 9.66668 9.50008H14.3334C14.5174 9.50008 14.6667 9.64939 14.6667 9.83339C14.6667 10.0174 14.5173 10.1667 14.3333 10.1667ZM9.66665 12.1667H12.3333C12.5173 12.1667 12.6667 12.0174 12.6667 11.8334C12.6667 11.6494 12.5173 11.5001 12.3333 11.5001H9.66668C9.48268 11.5001 9.33333 11.6494 9.33333 11.8334C9.33333 12.0174 9.48265 12.1667 9.66665 12.1667ZM1.33333 1.83343C1.33333 1.64943 1.48268 1.50008 1.66668 1.50008C1.85068 1.50008 2.00002 1.64943 2.00002 1.83343C2.00002 2.01743 1.85068 2.16677 1.66668 2.16677C1.48268 2.16677 1.33333 2.01743 1.33333 1.83343ZM1.66671 12.1667L8.33338 12.1661C8.51738 12.1661 8.66672 12.0167 8.66672 11.8327C8.66672 10.9974 8.10007 10.2721 7.29138 10.0694L6.29072 9.81939L6.24872 9.65205C6.50806 9.36539 6.69272 8.99939 6.76938 8.61939C6.94738 8.52739 7.07603 8.35273 7.10272 8.14273L7.17472 7.56273C7.19672 7.38673 7.14272 7.20939 7.02606 7.07608C6.99006 7.03542 6.94872 6.99942 6.90472 6.96942L6.92138 6.61542L6.98203 6.55476C7.15403 6.3721 7.38669 5.9821 7.01869 5.41942C6.84403 5.15207 6.48403 4.83341 5.76269 4.83341C5.55003 4.83341 5.07068 4.83341 4.60534 5.12476C3.23334 5.17342 3.07199 5.91276 3.07199 6.47076C3.07199 6.58076 3.09199 6.78676 3.11065 6.95876C3.06131 6.99011 3.01599 7.02876 2.97665 7.07342C2.85799 7.20808 2.80331 7.38608 2.82599 7.56276L2.89799 8.14277C2.92534 8.36011 3.06334 8.54011 3.26665 8.62877C3.34131 8.99211 3.51599 9.34411 3.75931 9.62342L3.71065 9.81942L2.70999 10.0694C1.89999 10.2721 1.33333 10.9974 1.33333 11.8334C1.33333 11.9221 1.36799 12.0074 1.43068 12.0694C1.4934 12.1314 1.57805 12.1667 1.66671 12.1667ZM2.87271 10.7154L4.06737 10.4168C4.18671 10.3868 4.28003 10.2934 4.31003 10.1741L4.45203 9.60546C4.48137 9.48811 4.44468 9.36411 4.35603 9.28145C4.09668 9.03745 3.92468 8.6808 3.89668 8.32745C3.88268 8.1548 3.73468 8.0588 3.56068 8.0588L3.47468 7.52814C3.57068 7.52814 3.66134 7.48748 3.72468 7.41548C3.78803 7.34414 3.81734 7.24883 3.80534 7.15348C3.77999 6.95214 3.73934 6.58814 3.73934 6.47082C3.73934 6.12548 3.73934 5.79948 4.714 5.78948C4.782 5.78882 4.84865 5.76748 4.90465 5.72748C5.22206 5.50007 5.5874 5.50007 5.76272 5.50007C6.10672 5.50007 6.33537 5.59273 6.46072 5.78407C6.59546 5.99049 6.54121 6.04955 6.50387 6.09019L6.50338 6.09073L6.35872 6.23539C6.30006 6.29404 6.26537 6.37204 6.26137 6.45473L6.22603 7.18007C6.22203 7.27073 6.23269 7.33408 6.29469 7.40008C6.35734 7.46608 6.42134 7.47942 6.51203 7.48008L6.46937 8.02208C6.29537 8.02208 6.15137 8.15542 6.13737 8.32873C6.10803 8.68808 5.92337 9.06073 5.65537 9.30139C5.56403 9.38339 5.52472 9.51005 5.55472 9.63005L5.69072 10.1747C5.72072 10.2941 5.81337 10.3881 5.93337 10.4174L7.12872 10.716C7.53006 10.8167 7.83672 11.1194 7.95138 11.5L2.04871 11.4994C2.1634 11.1194 2.47071 10.8167 2.87271 10.7154ZM2.66667 1.83343C2.66667 1.64943 2.81601 1.50008 3.00001 1.50008C3.18401 1.50008 3.33336 1.64939 3.33336 1.83339C3.33336 2.0174 3.18401 2.16674 3.00001 2.16674C2.81601 2.16674 2.66667 2.01743 2.66667 1.83343Z" fill="black"/>
</svg>
