<svg width="198" height="200" viewBox="0 0 198 200" fill="none" xmlns="http://www.w3.org/2000/svg">
<rect x="34" y="38" width="43" height="36" rx="18" fill="#FFEDEE"/>
<path d="M65.0966 6.42895C73.5558 8.0537 81.4599 11.8119 88.0597 17.3473C94.6595 22.8827 99.7363 30.0119 102.809 38.0591C105.881 46.1063 106.848 54.8049 105.617 63.3303C104.385 71.8556 100.997 79.9253 95.7736 86.7744C90.5498 93.6235 83.6634 99.0251 75.7672 102.467C67.8709 105.909 59.2265 107.277 50.6532 106.442C42.0799 105.607 33.862 102.597 26.7783 97.6958C19.6946 92.7949 13.9799 86.1661 10.1758 78.4377" stroke="#DFE6EC" stroke-width="10" stroke-linecap="round" stroke-linejoin="round"/>
<path d="M10.3105 78.0424C4.76684 66.9293 3.51255 54.1632 6.78731 42.1837C10.0621 30.2042 17.6363 19.8514 28.0624 13.1039C38.4885 6.35644 51.0353 3.68737 63.3051 5.60681C75.5749 7.52626 86.7072 13.8996 94.5745 23.5089" stroke="#D7282F" stroke-width="10" stroke-linecap="round" stroke-linejoin="round"/>
<path d="M44.748 55.3057C45.4365 55.3057 46.042 55.4302 46.5645 55.6792C47.0918 55.9233 47.502 56.2847 47.7949 56.7632C48.0879 57.2368 48.2344 57.8179 48.2344 58.5063C48.2344 59.2583 48.0757 59.9077 47.7583 60.4546C47.4409 60.9966 46.9746 61.4141 46.3594 61.707C45.7441 62 44.9946 62.1465 44.1108 62.1465C43.5493 62.1465 43.0244 62.0977 42.5361 62C42.0527 61.9023 41.6353 61.7559 41.2837 61.5605V60.0078C41.6499 60.2129 42.0894 60.3813 42.6021 60.5132C43.1147 60.6401 43.6055 60.7036 44.0742 60.7036C44.5723 60.7036 44.9995 60.6304 45.356 60.4839C45.7124 60.3374 45.9858 60.1128 46.1763 59.8101C46.3716 59.5073 46.4692 59.124 46.4692 58.6602C46.4692 58.0449 46.2715 57.5713 45.876 57.2393C45.4854 56.9023 44.8726 56.7339 44.0376 56.7339C43.7446 56.7339 43.4321 56.7607 43.1001 56.8145C42.7729 56.8633 42.4995 56.917 42.2798 56.9756L41.5254 56.5288L41.9282 51.292H47.4946V52.8081H43.4443L43.21 55.4741C43.3857 55.4351 43.5957 55.3984 43.8398 55.3643C44.084 55.3252 44.3867 55.3057 44.748 55.3057ZM56.9429 56.6387C56.9429 57.5029 56.8745 58.2769 56.7378 58.9604C56.606 59.6392 56.396 60.2153 56.1079 60.689C55.8198 61.1626 55.4438 61.5239 54.98 61.7729C54.5161 62.022 53.9546 62.1465 53.2954 62.1465C52.4702 62.1465 51.7891 61.9292 51.252 61.4946C50.7148 61.0552 50.3169 60.4253 50.0581 59.605C49.7993 58.7798 49.6699 57.791 49.6699 56.6387C49.6699 55.4863 49.7871 54.5 50.0215 53.6797C50.2607 52.8545 50.6465 52.2222 51.1787 51.7827C51.7109 51.3433 52.4165 51.1235 53.2954 51.1235C54.1255 51.1235 54.8091 51.3433 55.3462 51.7827C55.8882 52.2173 56.2886 52.8472 56.5474 53.6724C56.811 54.4927 56.9429 55.4814 56.9429 56.6387ZM51.4058 56.6387C51.4058 57.542 51.4644 58.2964 51.5815 58.9019C51.7036 59.5073 51.9038 59.9614 52.1821 60.2642C52.4604 60.562 52.8315 60.7109 53.2954 60.7109C53.7593 60.7109 54.1304 60.562 54.4087 60.2642C54.687 59.9663 54.8872 59.5146 55.0093 58.9092C55.1362 58.3037 55.1997 57.5469 55.1997 56.6387C55.1997 55.7402 55.1387 54.9883 55.0166 54.3828C54.8945 53.7773 54.6943 53.3232 54.416 53.0205C54.1377 52.7129 53.7642 52.5591 53.2954 52.5591C52.8267 52.5591 52.4531 52.7129 52.1748 53.0205C51.9014 53.3232 51.7036 53.7773 51.5815 54.3828C51.4644 54.9883 51.4058 55.7402 51.4058 56.6387ZM60.561 51.1382C61.3472 51.1382 61.9429 51.4312 62.3481 52.0171C62.7534 52.5981 62.9561 53.4209 62.9561 54.4854C62.9561 55.5449 62.7607 56.3726 62.3701 56.9683C61.9844 57.564 61.3813 57.8618 60.561 57.8618C59.7944 57.8618 59.2109 57.564 58.8105 56.9683C58.4102 56.3726 58.21 55.5449 58.21 54.4854C58.21 53.4209 58.3979 52.5981 58.7739 52.0171C59.1548 51.4312 59.7505 51.1382 60.561 51.1382ZM60.5684 52.3394C60.251 52.3394 60.0166 52.5176 59.8652 52.874C59.7188 53.2305 59.6455 53.77 59.6455 54.4927C59.6455 55.2104 59.7188 55.7524 59.8652 56.1187C60.0166 56.48 60.251 56.6606 60.5684 56.6606C60.8906 56.6606 61.1299 56.48 61.2861 56.1187C61.4473 55.7573 61.5278 55.2153 61.5278 54.4927C61.5278 53.7749 61.4497 53.2378 61.2935 52.8813C61.1372 52.52 60.8955 52.3394 60.5684 52.3394ZM67.7534 51.292L61.8135 62H60.3999L66.3398 51.292H67.7534ZM67.5557 55.4229C68.3418 55.4229 68.9375 55.7158 69.3428 56.3018C69.7529 56.8828 69.958 57.7056 69.958 58.77C69.958 59.8247 69.7627 60.6499 69.3721 61.2456C68.9863 61.8413 68.3809 62.1392 67.5557 62.1392C66.7891 62.1392 66.2056 61.8413 65.8052 61.2456C65.4048 60.6499 65.2046 59.8247 65.2046 58.77C65.2046 57.7056 65.3926 56.8828 65.7686 56.3018C66.1494 55.7158 66.7451 55.4229 67.5557 55.4229ZM67.563 56.624C67.2456 56.624 67.0112 56.8022 66.8599 57.1587C66.7134 57.5151 66.6401 58.0547 66.6401 58.7773C66.6401 59.4951 66.7134 60.0371 66.8599 60.4033C67.0112 60.7646 67.2456 60.9453 67.563 60.9453C67.8901 60.9453 68.1318 60.7671 68.2881 60.4106C68.4443 60.0493 68.5225 59.5049 68.5225 58.7773C68.5225 58.0596 68.4443 57.5225 68.2881 57.166C68.1318 56.8047 67.8901 56.624 67.563 56.624Z" fill="#D7282F"/>
</svg>
