<svg width="119" height="23" viewBox="0 0 119 23" fill="none" xmlns="http://www.w3.org/2000/svg">
<path d="M19.7519 8.15404H13.8325L12.0038 2.51654C11.9408 2.3256 11.8191 2.1594 11.6562 2.04158C11.4933 1.92377 11.2973 1.86035 11.0963 1.86035C10.8952 1.86035 10.6993 1.92377 10.5363 2.04158C10.3734 2.1594 10.2518 2.3256 10.1888 2.51654L8.33251 8.15404H2.41313C2.21196 8.15451 2.01607 8.21844 1.85336 8.33675C1.69066 8.45505 1.56943 8.62168 1.50696 8.8129C1.44449 9.00413 1.44396 9.21019 1.50544 9.40173C1.56692 9.59327 1.68729 9.76053 1.84938 9.87967L6.66188 13.3653L4.81938 19.0097C4.77275 19.153 4.76069 19.3053 4.78418 19.4542C4.80767 19.6031 4.86605 19.7443 4.95455 19.8664C5.04304 19.9884 5.15915 20.0877 5.29338 20.1563C5.42761 20.2249 5.57615 20.2607 5.72688 20.2609C5.92309 20.2524 6.11226 20.1854 6.27001 20.0684L11.0825 16.5828L15.895 20.0684C16.0574 20.1856 16.2517 20.2503 16.4519 20.254C16.6026 20.2538 16.7512 20.218 16.8854 20.1494C17.0196 20.0809 17.1357 19.9815 17.2242 19.8595C17.3127 19.7375 17.3711 19.5962 17.3946 19.4474C17.4181 19.2985 17.406 19.1461 17.3594 19.0028L15.5306 13.3584L20.3432 9.87279C20.5043 9.75138 20.6229 9.58206 20.6819 9.38911C20.741 9.19616 20.7374 8.98948 20.6718 8.79867C20.6061 8.60787 20.4818 8.44273 20.3166 8.32693C20.1513 8.21114 19.9537 8.15061 19.7519 8.15404ZM14.7056 12.279L13.9013 12.8703L14.2038 13.819L15.6406 18.2259L11.8938 15.4759L11.0825 14.8847L10.2713 15.4759L6.52438 18.2259L7.96126 13.819L8.26376 12.8703L7.45939 12.279L3.71251 9.52904H9.34314L9.65251 8.58029L11.0825 4.18029L12.5125 8.58029L12.8219 9.52904H18.4525L14.7056 12.279Z" fill="#F8C204"/>
<path d="M43.7519 8.15404H37.8325L36.0038 2.51654C35.9408 2.3256 35.8191 2.1594 35.6562 2.04158C35.4933 1.92377 35.2973 1.86035 35.0963 1.86035C34.8952 1.86035 34.6993 1.92377 34.5363 2.04158C34.3734 2.1594 34.2518 2.3256 34.1888 2.51654L32.3325 8.15404H26.4131C26.212 8.15451 26.0161 8.21844 25.8534 8.33675C25.6907 8.45505 25.5694 8.62168 25.507 8.8129C25.4445 9.00413 25.444 9.21019 25.5054 9.40173C25.5669 9.59327 25.6873 9.76053 25.8494 9.87967L30.6619 13.3653L28.8194 19.0097C28.7728 19.153 28.7607 19.3053 28.7842 19.4542C28.8077 19.6031 28.8661 19.7443 28.9545 19.8664C29.043 19.9884 29.1591 20.0877 29.2934 20.1563C29.4276 20.2249 29.5762 20.2607 29.7269 20.2609C29.9231 20.2524 30.1123 20.1854 30.27 20.0684L35.0825 16.5828L39.895 20.0684C40.0574 20.1856 40.2517 20.2503 40.4519 20.254C40.6026 20.2538 40.7512 20.218 40.8854 20.1494C41.0196 20.0809 41.1357 19.9815 41.2242 19.8595C41.3127 19.7375 41.3711 19.5962 41.3946 19.4474C41.4181 19.2985 41.406 19.1461 41.3594 19.0028L39.5306 13.3584L44.3432 9.87279C44.5043 9.75138 44.6229 9.58206 44.6819 9.38911C44.741 9.19616 44.7374 8.98948 44.6718 8.79867C44.6061 8.60787 44.4818 8.44273 44.3166 8.32693C44.1513 8.21114 43.9537 8.15061 43.7519 8.15404ZM38.7056 12.279L37.9013 12.8703L38.2038 13.819L39.6406 18.2259L35.8938 15.4759L35.0825 14.8847L34.2713 15.4759L30.5244 18.2259L31.9613 13.819L32.2638 12.8703L31.4594 12.279L27.7125 9.52904H33.3431L33.6525 8.58029L35.0825 4.18029L36.5125 8.58029L36.8219 9.52904H42.4525L38.7056 12.279Z" fill="#F8C204"/>
<path d="M67.7519 8.15404H61.8325L60.0038 2.51654C59.9408 2.3256 59.8191 2.1594 59.6562 2.04158C59.4933 1.92377 59.2973 1.86035 59.0963 1.86035C58.8952 1.86035 58.6993 1.92377 58.5363 2.04158C58.3734 2.1594 58.2518 2.3256 58.1888 2.51654L56.3325 8.15404H50.4131C50.212 8.15451 50.0161 8.21844 49.8534 8.33675C49.6907 8.45505 49.5694 8.62168 49.507 8.8129C49.4445 9.00413 49.444 9.21019 49.5054 9.40173C49.5669 9.59327 49.6873 9.76053 49.8494 9.87967L54.6619 13.3653L52.8194 19.0097C52.7728 19.153 52.7607 19.3053 52.7842 19.4542C52.8077 19.6031 52.8661 19.7443 52.9545 19.8664C53.043 19.9884 53.1591 20.0877 53.2934 20.1563C53.4276 20.2249 53.5762 20.2607 53.7269 20.2609C53.9231 20.2524 54.1123 20.1854 54.27 20.0684L59.0825 16.5828L63.895 20.0684C64.0574 20.1856 64.2517 20.2503 64.4519 20.254C64.6026 20.2538 64.7512 20.218 64.8854 20.1494C65.0196 20.0809 65.1357 19.9815 65.2242 19.8595C65.3127 19.7375 65.3711 19.5962 65.3946 19.4474C65.4181 19.2985 65.406 19.1461 65.3594 19.0028L63.5306 13.3584L68.3432 9.87279C68.5043 9.75138 68.6229 9.58206 68.6819 9.38911C68.741 9.19616 68.7374 8.98948 68.6718 8.79867C68.6061 8.60787 68.4818 8.44273 68.3166 8.32693C68.1513 8.21114 67.9537 8.15061 67.7519 8.15404ZM62.7056 12.279L61.9013 12.8703L62.2038 13.819L63.6406 18.2259L59.8938 15.4759L59.0825 14.8847L58.2713 15.4759L54.5244 18.2259L55.9613 13.819L56.2638 12.8703L55.4594 12.279L51.7125 9.52904H57.3431L57.6525 8.58029L59.0825 4.18029L60.5125 8.58029L60.8219 9.52904H66.4525L62.7056 12.279Z" fill="#F8C204"/>
<path d="M91.7519 8.15404H85.8325L84.0038 2.51654C83.9408 2.3256 83.8191 2.1594 83.6562 2.04158C83.4933 1.92377 83.2973 1.86035 83.0963 1.86035C82.8952 1.86035 82.6993 1.92377 82.5363 2.04158C82.3734 2.1594 82.2518 2.3256 82.1888 2.51654L80.3325 8.15404H74.4131C74.212 8.15451 74.0161 8.21844 73.8534 8.33675C73.6907 8.45505 73.5694 8.62168 73.507 8.8129C73.4445 9.00413 73.444 9.21019 73.5054 9.40173C73.5669 9.59327 73.6873 9.76053 73.8494 9.87967L78.6619 13.3653L76.8194 19.0097C76.7728 19.153 76.7607 19.3053 76.7842 19.4542C76.8077 19.6031 76.8661 19.7443 76.9545 19.8664C77.043 19.9884 77.1591 20.0877 77.2934 20.1563C77.4276 20.2249 77.5762 20.2607 77.7269 20.2609C77.9231 20.2524 78.1123 20.1854 78.27 20.0684L83.0825 16.5828L87.895 20.0684C88.0574 20.1856 88.2517 20.2503 88.4519 20.254C88.6026 20.2538 88.7512 20.218 88.8854 20.1494C89.0196 20.0809 89.1357 19.9815 89.2242 19.8595C89.3127 19.7375 89.3711 19.5962 89.3946 19.4474C89.4181 19.2985 89.406 19.1461 89.3594 19.0028L87.5306 13.3584L92.3432 9.87279C92.5043 9.75138 92.6229 9.58206 92.6819 9.38911C92.741 9.19616 92.7374 8.98948 92.6718 8.79867C92.6061 8.60787 92.4818 8.44273 92.3166 8.32693C92.1513 8.21114 91.9537 8.15061 91.7519 8.15404ZM86.7056 12.279L85.9013 12.8703L86.2038 13.819L87.6406 18.2259L83.8938 15.4759L83.0825 14.8847L82.2713 15.4759L78.5244 18.2259L79.9613 13.819L80.2638 12.8703L79.4594 12.279L75.7125 9.52904H81.3431L81.6525 8.58029L83.0825 4.18029L84.5125 8.58029L84.8219 9.52904H90.4525L86.7056 12.279Z" fill="#F8C204"/>
<path d="M115.752 8.15404H109.833L108.004 2.51654C107.941 2.3256 107.819 2.1594 107.656 2.04158C107.493 1.92377 107.297 1.86035 107.096 1.86035C106.895 1.86035 106.699 1.92377 106.536 2.04158C106.373 2.1594 106.252 2.3256 106.189 2.51654L104.333 8.15404H98.4131C98.212 8.15451 98.0161 8.21844 97.8534 8.33675C97.6907 8.45505 97.5694 8.62168 97.507 8.8129C97.4445 9.00413 97.444 9.21019 97.5054 9.40173C97.5669 9.59327 97.6873 9.76053 97.8494 9.87967L102.662 13.3653L100.819 19.0097C100.773 19.153 100.761 19.3053 100.784 19.4542C100.808 19.6031 100.866 19.7443 100.955 19.8664C101.043 19.9884 101.159 20.0877 101.293 20.1563C101.428 20.2249 101.576 20.2607 101.727 20.2609C101.923 20.2524 102.112 20.1854 102.27 20.0684L107.083 16.5828L111.895 20.0684C112.057 20.1856 112.252 20.2503 112.452 20.254C112.603 20.2538 112.751 20.218 112.885 20.1494C113.02 20.0809 113.136 19.9815 113.224 19.8595C113.313 19.7375 113.371 19.5962 113.395 19.4474C113.418 19.2985 113.406 19.1461 113.359 19.0028L111.531 13.3584L116.343 9.87279C116.504 9.75138 116.623 9.58206 116.682 9.38911C116.741 9.19616 116.737 8.98948 116.672 8.79867C116.606 8.60787 116.482 8.44273 116.317 8.32693C116.151 8.21114 115.954 8.15061 115.752 8.15404ZM110.706 12.279L109.901 12.8703L110.204 13.819L111.641 18.2259L107.894 15.4759L107.083 14.8847L106.271 15.4759L102.524 18.2259L103.961 13.819L104.264 12.8703L103.459 12.279L99.7125 9.52904H105.343L105.653 8.58029L107.083 4.18029L108.513 8.58029L108.822 9.52904H114.453L110.706 12.279Z" fill="#F8C204"/>
</svg>
