<svg width="18" height="19" viewBox="0 0 18 19" fill="none" xmlns="http://www.w3.org/2000/svg">
<path fill-rule="evenodd" clip-rule="evenodd" d="M6.2775 8.37387C6.56438 6.26337 7.50038 4.25074 9 2.56437C9.85568 3.5208 10.5427 4.61562 11.0318 5.80212C11.0722 5.90673 11.1332 6.00222 11.211 6.083C11.2888 6.16378 11.3819 6.22824 11.485 6.2726C11.588 6.31696 11.6988 6.34033 11.811 6.34135C11.9232 6.34237 12.0344 6.32101 12.1382 6.27853C12.242 6.23605 12.3363 6.17329 12.4156 6.09393C12.4949 6.01458 12.5575 5.92021 12.5999 5.81635C12.6423 5.71249 12.6635 5.60123 12.6624 5.48907C12.6612 5.3769 12.6377 5.26609 12.5933 5.16312C12.2055 4.21759 11.7062 3.32175 11.106 2.49462C12.6112 2.94784 13.9303 3.87381 14.8681 5.13536C15.8058 6.39691 16.3123 7.92696 16.3125 9.49887C16.3125 9.72264 16.4014 9.93725 16.5596 10.0955C16.7179 10.2537 16.9325 10.3426 17.1562 10.3426C17.38 10.3426 17.5946 10.2537 17.7529 10.0955C17.9111 9.93725 18 9.72264 18 9.49887C17.9996 7.88209 17.5637 6.29528 16.7381 4.90519C15.9125 3.5151 14.7277 2.37307 13.3082 1.59914C11.8887 0.825199 10.287 0.447931 8.67128 0.506983C7.05559 0.566035 5.48564 1.05923 4.12642 1.93472C2.76721 2.81022 1.66893 4.03569 0.947021 5.48234C0.225107 6.92898 -0.0937847 8.54339 0.0238619 10.1559C0.141508 11.7684 0.691348 13.3194 1.61559 14.6459C2.53984 15.9725 3.80436 17.0256 5.27625 17.6945C5.47989 17.7873 5.71205 17.7954 5.92165 17.717C6.13126 17.6386 6.30115 17.4802 6.39394 17.2766C6.48673 17.0729 6.49483 16.8408 6.41645 16.6312C6.33807 16.4215 6.17964 16.2517 5.976 16.1589C4.78435 15.6171 3.75984 14.7656 3.00931 13.6932C2.25877 12.6207 1.80969 11.3665 1.70888 10.0614H4.52475C4.56975 10.6947 4.662 11.3214 4.80375 11.9379C4.85388 12.156 4.98859 12.3452 5.17826 12.464C5.36793 12.5828 5.59702 12.6214 5.81513 12.5712C6.03323 12.5211 6.2225 12.3864 6.34128 12.1967C6.46006 12.0071 6.49863 11.778 6.4485 11.5599C6.336 11.0671 6.25725 10.5665 6.21788 10.0614H7.875C8.09878 10.0614 8.31339 9.97247 8.47162 9.81424C8.62986 9.656 8.71875 9.44139 8.71875 9.21762C8.71875 8.99384 8.62986 8.77923 8.47162 8.621C8.31339 8.46276 8.09878 8.37387 7.875 8.37387H6.2775ZM4.5765 8.37387H1.773C1.98606 7.011 2.57979 5.73604 3.48581 4.69587C4.39182 3.65571 5.57325 2.89265 6.894 2.49462C5.62997 4.22313 4.83189 6.24777 4.5765 8.37387ZM13.2188 14.2802C13.2188 14.0564 13.1299 13.8418 12.9716 13.6835C12.8134 13.5253 12.5988 13.4364 12.375 13.4364C12.1512 13.4364 11.9366 13.5253 11.7784 13.6835C11.6201 13.8418 11.5312 14.0564 11.5312 14.2802V14.8427C11.5312 15.0664 11.6201 15.2811 11.7784 15.4393C11.9366 15.5975 12.1512 15.6864 12.375 15.6864C12.5988 15.6864 12.8134 15.5975 12.9716 15.4393C13.1299 15.2811 13.2188 15.0664 13.2188 14.8427V14.2802ZM9.9945 8.68217C9.729 9.24804 9.62212 9.93204 9.58275 10.6374C8.95995 10.702 8.38318 10.9951 7.96387 11.4601C7.54457 11.9251 7.3125 12.529 7.3125 13.1552V15.9677C7.3125 16.639 7.57918 17.2828 8.05389 17.7575C8.52859 18.2322 9.17242 18.4989 9.84375 18.4989H14.9062C15.5776 18.4989 16.2214 18.2322 16.6961 17.7575C17.1708 17.2828 17.4375 16.639 17.4375 15.9677V13.1552C17.4375 12.529 17.2054 11.9251 16.7861 11.4601C16.3668 10.9951 15.7901 10.702 15.1672 10.6374C15.1279 9.93204 15.021 9.24804 14.7555 8.68217C14.5597 8.26592 14.2661 7.89017 13.8375 7.62467C13.4111 7.36142 12.915 7.24892 12.375 7.24892C11.835 7.24892 11.34 7.36254 10.9125 7.62467C10.4839 7.89017 10.1902 8.26592 9.9945 8.68217ZM11.5222 9.40104C11.3895 9.68117 11.3108 10.0828 11.2747 10.6239H13.4752C13.4392 10.0828 13.3605 9.68117 13.2289 9.40104C13.1434 9.21992 13.05 9.12204 12.9521 9.06129C12.8509 8.99942 12.6787 8.93642 12.375 8.93642C12.0712 8.93642 11.8991 8.99942 11.7979 9.06129C11.6741 9.14439 11.578 9.26275 11.5222 9.40104ZM15.5029 12.5585C15.3446 12.4003 15.13 12.3114 14.9062 12.3114H9.84375C9.61997 12.3114 9.40536 12.4003 9.24713 12.5585C9.08889 12.7168 9 12.9314 9 13.1552V15.9677C9 16.1914 9.08889 16.4061 9.24713 16.5643C9.40536 16.7225 9.61997 16.8114 9.84375 16.8114H14.9062C15.13 16.8114 15.3446 16.7225 15.5029 16.5643C15.6611 16.4061 15.75 16.1914 15.75 15.9677V13.1552C15.75 12.9314 15.6611 12.7168 15.5029 12.5585Z" fill="#D7282F"/>
</svg>
