<svg width="40" height="40" viewBox="0 0 40 40" fill="none" xmlns="http://www.w3.org/2000/svg">
<path d="M39.0909 27.2727H36.3636V26.3636C36.3636 25.8612 35.957 25.4545 35.4545 25.4545H30C29.4975 25.4545 29.0909 25.8612 29.0909 26.3636V27.2727H23.6364V26.3636C23.6364 25.8612 23.2298 25.4545 22.7273 25.4545H17.2727C16.7702 25.4545 16.3636 25.8612 16.3636 26.3636V27.2727H12.7273V23.6364H13.6364C14.1389 23.6364 14.5455 23.2298 14.5455 22.7273V17.2727C14.5455 16.7702 14.1389 16.3636 13.6364 16.3636H12.7273V10.9091H13.6364C14.1389 10.9091 14.5455 10.5025 14.5455 10V4.54545C14.5455 4.04297 14.1389 3.63636 13.6364 3.63636H12.7273V0.909091C12.7273 0.406605 12.3207 0 11.8182 0H2.72727C2.22479 0 1.81818 0.406605 1.81818 0.909091V3.63636H0.909091C0.406605 3.63636 0 4.04297 0 4.54545V10C0 10.5025 0.406605 10.9091 0.909091 10.9091H1.81818V16.3636H0.909091C0.406605 16.3636 0 16.7702 0 17.2727V22.7273C0 23.2298 0.406605 23.6364 0.909091 23.6364H1.81818V28.1818C1.81818 33.6958 6.30504 38.1818 11.8182 38.1818H16.3636V39.0909C16.3636 39.5934 16.7702 40 17.2727 40H22.7273C23.2298 40 23.6364 39.5934 23.6364 39.0909V38.1818H29.0909V39.0909C29.0909 39.5934 29.4975 40 30 40H35.4545C35.957 40 36.3636 39.5934 36.3636 39.0909V38.1818H39.0909C39.5934 38.1818 40 37.7752 40 37.2727V28.1818C40 27.6793 39.5934 27.2727 39.0909 27.2727ZM3.63636 1.81818H10.9091V3.63636H3.63636V1.81818ZM1.81818 5.45455H12.7273V9.09091H1.81818V5.45455ZM3.63636 10.9091H10.9091V16.3636H3.63636V10.9091ZM1.81818 18.1818H12.7273V21.8182H1.81818V18.1818ZM11.8182 36.3636C7.30646 36.3636 3.63636 32.6935 3.63636 28.1818V23.6364H10.9091V28.1818C10.9091 28.6843 11.3157 29.0909 11.8182 29.0909H16.3636V36.3636H11.8182ZM21.8182 38.1818H18.1818V27.2727H21.8182V38.1818ZM23.6364 36.3636V29.0909H29.0909V36.3636H23.6364ZM34.5455 38.1818H30.9091V27.2727H34.5455V38.1818ZM38.1818 36.3636H36.3636V29.0909H38.1818V36.3636Z" fill="#303C42"/>
</svg>
