<svg width="20" height="19" viewBox="0 0 20 19" fill="none" xmlns="http://www.w3.org/2000/svg">
<g clip-path="url(#clip0_2804_17495)">
<path d="M19.0206 17.2047C18.9918 17.2047 18.9649 17.2068 18.936 17.2109L13.8658 17.8671C13.6058 17.9002 13.4242 17.6154 13.5645 17.3925C13.6409 17.2749 13.7152 17.1552 13.7894 17.0355C13.9855 16.7177 13.7234 16.2947 13.3602 16.2947C13.3355 16.2947 13.3107 16.2968 13.2839 16.3009L6.63913 17.2996L5.84465 17.4193L3.67789 17.7454C3.43232 17.7825 3.26724 17.9909 3.28787 18.2407C3.29613 18.3521 3.34152 18.4573 3.41375 18.5357C3.49836 18.6286 3.61598 18.6802 3.74392 18.6802C3.76869 18.6802 3.79345 18.6781 3.82028 18.674L11.7403 17.4833C12.0107 17.442 12.1964 17.7475 12.0375 17.9703C11.9859 18.0405 11.9343 18.1127 11.8827 18.1829C11.7403 18.3769 11.7733 18.7009 11.9384 18.868C12.023 18.9547 12.1303 19.0001 12.2438 19.0001C12.2562 19.0001 12.2706 19.0001 12.283 18.998H12.2851H12.2872L19.1238 18.1272H19.1259H19.128C19.2456 18.1086 19.3488 18.0405 19.4169 17.9352C19.4912 17.8197 19.518 17.6773 19.485 17.5494C19.4313 17.3409 19.2497 17.2047 19.0206 17.2047Z" fill="white"/>
<path d="M16.0985 3.95236C16.6495 3.29821 16.5649 2.32213 15.9108 1.77116L14.2372 0.363792C13.583 -0.187185 12.6069 -0.102578 12.056 0.551578L11.3936 1.3378L15.4361 4.73859L16.0985 3.95236Z" fill="white"/>
<path d="M14.9225 5.33706L10.88 1.93628L9.50977 3.56651L13.5523 6.96729L14.9225 5.33706Z" fill="white"/>
<path d="M0.502529 18.1065C0.492211 18.2468 0.622217 18.3562 0.758413 18.3211L1.77989 18.0632L0.578882 17.052L0.502529 18.1065Z" fill="white"/>
<path d="M5.38432 16.6579L12.9721 7.64419L8.92955 4.24341L1.34176 13.2551C1.20144 13.4222 1.11683 13.6286 1.10238 13.8453L0.922852 16.3381L2.42514 17.6031L4.84572 16.9943C5.05623 16.9407 5.24401 16.823 5.38432 16.6579Z" fill="white"/>
</g>
<defs>
<clipPath id="clip0_2804_17495">
<rect width="19" height="19" fill="white" transform="translate(0.5)"/>
</clipPath>
</defs>
</svg>
