<svg width="66" height="67" viewBox="0 0 66 67" fill="none" xmlns="http://www.w3.org/2000/svg">
<path d="M33.0001 0.00390625C14.8047 0.00390625 0 14.8063 0 33.0015C0 51.1979 14.8037 66.0016 33.0001 66.0016C51.1966 66.0016 66.0003 51.1979 66.0003 33.0015C66 14.8063 51.1952 0.00390625 33.0001 0.00390625ZM33.0001 63.0364C16.44 63.0364 2.96292 49.5643 2.96292 33.0015C2.96292 16.44 16.44 2.96551 33.0001 2.96551C49.5626 2.96551 63.0397 16.439 63.0397 33.0015C63.0397 49.5639 49.5626 63.0364 33.0001 63.0364Z" fill="#9A9A9A"/>
<path d="M32.7863 22.2363C31.5623 22.2363 30.5664 23.2299 30.5664 24.4572V49.5375C30.5664 50.7661 31.5623 51.762 32.7863 51.762C34.0149 51.762 35.0108 50.7661 35.0108 49.5375V24.4572C35.0108 23.2299 34.0136 22.2363 32.7863 22.2363Z" fill="#9A9A9A"/>
<path d="M32.9261 18.776C34.417 18.776 35.6256 17.5674 35.6256 16.0765C35.6256 14.5856 34.417 13.377 32.9261 13.377C31.4352 13.377 30.2266 14.5856 30.2266 16.0765C30.2266 17.5674 31.4352 18.776 32.9261 18.776Z" fill="#9A9A9A"/>
</svg>
