<svg width="86" height="95" viewBox="0 0 86 95" fill="none" xmlns="http://www.w3.org/2000/svg">
<path d="M39.3833 2.59395C40.6934 1.84844 41.3485 1.47616 42.0418 1.32999C42.6562 1.20038 43.2891 1.20038 43.9035 1.32999C44.5969 1.47616 45.2519 1.84844 46.562 2.59395L80.7463 22.0409C82.1303 22.8281 82.8218 23.2216 83.3258 23.7812C83.7711 24.2765 84.1088 24.8636 84.3148 25.5031C84.5481 26.2259 84.5481 27.0362 84.5481 28.6568L84.5481 67.0539C84.5481 68.6747 84.5481 69.4852 84.3148 70.208C84.1088 70.8474 83.7711 71.4343 83.3258 71.9296C82.8218 72.4894 82.1303 72.8829 80.7463 73.6701L46.562 93.1171C45.2519 93.8624 44.5969 94.2351 43.9035 94.3812C43.2891 94.5105 42.6562 94.5105 42.0418 94.3812C41.3485 94.2351 40.6934 93.8624 39.3833 93.1171L5.19892 73.6701C3.81529 72.8829 3.12348 72.4894 2.61967 71.9296C2.17403 71.4344 1.83676 70.8474 1.63041 70.208C1.39722 69.4852 1.39722 68.6748 1.39722 67.0539L1.39721 28.6568C1.39721 27.0362 1.39721 26.2259 1.63045 25.5031C1.83676 24.8636 2.17403 24.2765 2.61967 23.7812C3.12347 23.2216 3.81529 22.8281 5.19892 22.0409L39.3833 2.59395Z" fill="#D7282F" stroke="#B70A11" stroke-linecap="round" stroke-linejoin="round"/>
</svg>
