<svg width="22" height="23" viewBox="0 0 22 23" fill="none" xmlns="http://www.w3.org/2000/svg">
<path fill-rule="evenodd" clip-rule="evenodd" d="M10.9755 22.1445C4.9622 22.1445 0.0446777 17.2537 0.0446777 11.2405C0.0446777 5.20048 4.9622 0.309692 10.9755 0.309692C16.9887 0.309692 21.8795 5.20048 21.8795 11.2405C21.8795 17.2537 16.9887 22.1445 10.9755 22.1445ZM10.9755 1.5658C5.63034 1.5658 1.30078 5.89535 1.30078 11.2405C1.30078 16.5589 5.63034 20.8884 10.9755 20.8884C16.2939 20.8884 20.6234 16.5589 20.6234 11.2405C20.6234 5.89535 16.2939 1.5658 10.9755 1.5658Z" fill="url(#paint0_linear_5788_27602)"/>
<path fill-rule="evenodd" clip-rule="evenodd" d="M6.80629 18.2693C6.67266 18.2693 6.53903 18.2426 6.43213 18.1624C6.24505 18.0021 6.13815 17.7616 6.1916 17.521L7.02009 13.1915L3.78629 10.1715C3.62594 10.0111 3.54576 9.74387 3.62594 9.53006C3.70611 9.28953 3.89319 9.12918 4.13372 9.10245L8.51673 8.54121L10.4142 4.53237C10.4944 4.31856 10.735 4.18494 10.9755 4.18494C11.216 4.18494 11.4298 4.31856 11.5367 4.53237L13.4075 8.54121L17.7905 9.10245C18.0311 9.12918 18.2449 9.28953 18.2983 9.53006C18.3785 9.74387 18.325 10.0111 18.138 10.1715L14.9309 13.1915L15.7594 17.521C15.7861 17.7616 15.7059 18.0021 15.4921 18.1624C15.305 18.2961 15.0378 18.3228 14.8507 18.1892L10.9755 16.0511L7.10027 18.1892C6.99337 18.2426 6.88646 18.2693 6.80629 18.2693ZM10.9755 14.7148C11.0824 14.7148 11.1626 14.7416 11.2695 14.795L14.2895 16.452L13.6213 13.0846C13.5946 12.8708 13.648 12.657 13.8084 12.5233L16.3206 10.1715L12.9265 9.74387C12.7127 9.71714 12.5256 9.58352 12.4187 9.39644L10.9755 6.26954L9.50558 9.39644C9.4254 9.58352 9.23832 9.71714 9.02451 9.74387L5.60363 10.1715L8.11584 12.5233C8.2762 12.657 8.35637 12.8708 8.30292 13.0846L7.66151 16.452L10.6548 14.795C10.7617 14.7416 10.8686 14.7148 10.9755 14.7148Z" fill="url(#paint1_linear_5788_27602)"/>
<defs>
<linearGradient id="paint0_linear_5788_27602" x1="10.9621" y1="0.309692" x2="10.9621" y2="22.1445" gradientUnits="userSpaceOnUse">
<stop stop-color="#2EBFFF"/>
<stop offset="0.463542" stop-color="#7ED8FF"/>
<stop offset="0.973958" stop-color="#27BEFF"/>
</linearGradient>
<linearGradient id="paint1_linear_5788_27602" x1="10.9644" y1="4.18494" x2="10.9644" y2="18.277" gradientUnits="userSpaceOnUse">
<stop stop-color="#11B7FF"/>
<stop offset="0.463542" stop-color="#64D0FF"/>
<stop offset="0.973958" stop-color="#17B9FF"/>
</linearGradient>
</defs>
</svg>
