<svg width="67" height="67" viewBox="0 0 67 67" fill="none" xmlns="http://www.w3.org/2000/svg">
<path d="M33.271 53.2304C35.548 53.2304 37.396 55.0784 37.396 57.3554C37.396 59.6324 35.548 61.4804 33.271 61.4804C30.994 61.4804 29.146 59.6324 29.146 57.3554C29.146 55.0784 30.994 53.2304 33.271 53.2304ZM33.271 6.48047C42.3845 6.48047 49.771 13.867 49.771 22.9805C49.771 28.9342 47.7002 32.028 42.4175 36.5187C37.1182 41.0205 36.021 43.0472 36.021 47.7304H30.521C30.521 40.927 32.6852 37.5692 38.8562 32.3277C43.028 28.783 44.271 26.924 44.271 22.9805C44.271 16.903 39.3485 11.9805 33.271 11.9805C27.1935 11.9805 22.271 16.903 22.271 22.9805V25.7305H16.771V22.9805C16.771 13.867 24.1575 6.48047 33.271 6.48047Z" fill="#9A9A9A"/>
</svg>
