<svg width="41" height="24" viewBox="0 0 41 24" fill="none" xmlns="http://www.w3.org/2000/svg">
<rect x="0.988281" y="1.36621" width="39" height="22" rx="2.5" fill="white"/>
<rect x="0.988281" y="1.36621" width="39" height="22" rx="2.5" stroke="#D2D2D2"/>
<path d="M8.27734 11.3662L7.71875 9.78027H5.53516L4.97656 11.3662H3.98828L6.11328 5.63184H7.15234L9.27344 11.3662H8.27734ZM7.47656 8.97559L6.93359 7.41309C6.91276 7.34538 6.88281 7.25033 6.84375 7.12793C6.80469 7.00293 6.76562 6.87663 6.72656 6.74902C6.6875 6.61882 6.65495 6.50944 6.62891 6.4209C6.60286 6.52767 6.57031 6.64746 6.53125 6.78027C6.49479 6.91048 6.45833 7.03288 6.42188 7.14746C6.38802 7.26204 6.36198 7.35059 6.34375 7.41309L5.79688 8.97559H7.47656ZM11.3867 11.4443C10.8711 11.4443 10.457 11.2568 10.1445 10.8818C9.83464 10.5042 9.67969 9.94824 9.67969 9.21387C9.67969 8.47168 9.83724 7.91048 10.1523 7.53027C10.4701 7.15007 10.888 6.95996 11.4062 6.95996C11.625 6.95996 11.8164 6.98991 11.9805 7.0498C12.1445 7.1071 12.2852 7.18522 12.4023 7.28418C12.5221 7.38314 12.6237 7.49382 12.707 7.61621H12.75C12.737 7.53548 12.7214 7.4196 12.7031 7.26855C12.6875 7.11491 12.6797 6.97298 12.6797 6.84277V5.28809H13.6016V11.3662H12.8828L12.7188 10.7764H12.6797C12.6016 10.9014 12.5026 11.0146 12.3828 11.1162C12.2656 11.2152 12.125 11.2946 11.9609 11.3545C11.7995 11.4144 11.6081 11.4443 11.3867 11.4443ZM11.6445 10.6982C12.0378 10.6982 12.3151 10.585 12.4766 10.3584C12.638 10.1318 12.7214 9.79199 12.7266 9.33887V9.21777C12.7266 8.7334 12.6484 8.3623 12.4922 8.10449C12.3359 7.84408 12.0508 7.71387 11.6367 7.71387C11.306 7.71387 11.0534 7.84798 10.8789 8.11621C10.707 8.38184 10.6211 8.75293 10.6211 9.22949C10.6211 9.70605 10.707 10.0706 10.8789 10.3232C11.0534 10.5732 11.3086 10.6982 11.6445 10.6982ZM15.9062 11.3662L14.2617 7.04199H15.2344L16.125 9.58105C16.1823 9.74251 16.2344 9.91699 16.2812 10.1045C16.3281 10.292 16.3607 10.4495 16.3789 10.5771H16.4102C16.4284 10.4443 16.4635 10.2855 16.5156 10.1006C16.5677 9.91309 16.6211 9.73991 16.6758 9.58105L17.5664 7.04199H18.5352L16.8906 11.3662H15.9062ZM20.8867 6.95996C21.4336 6.95996 21.8464 7.08105 22.125 7.32324C22.4062 7.56543 22.5469 7.94303 22.5469 8.45605V11.3662H21.8945L21.7188 10.7529H21.6875C21.5651 10.9092 21.4388 11.0381 21.3086 11.1396C21.1784 11.2412 21.0273 11.3167 20.8555 11.3662C20.6862 11.4183 20.4792 11.4443 20.2344 11.4443C19.9766 11.4443 19.7461 11.3975 19.543 11.3037C19.3398 11.2074 19.1797 11.0615 19.0625 10.8662C18.9453 10.6709 18.8867 10.4235 18.8867 10.124C18.8867 9.67871 19.0521 9.34408 19.3828 9.12012C19.7161 8.89616 20.2188 8.77246 20.8906 8.74902L21.6406 8.72168V8.49512C21.6406 8.19564 21.5703 7.9821 21.4297 7.85449C21.2917 7.72689 21.0964 7.66309 20.8438 7.66309C20.6276 7.66309 20.418 7.69434 20.2148 7.75684C20.0117 7.81934 19.8138 7.89616 19.6211 7.9873L19.3242 7.33887C19.5352 7.22689 19.7747 7.13574 20.043 7.06543C20.3138 6.99512 20.5951 6.95996 20.8867 6.95996ZM21.6367 9.2998L21.0781 9.31934C20.6198 9.33496 20.2982 9.41309 20.1133 9.55371C19.9284 9.69434 19.8359 9.88704 19.8359 10.1318C19.8359 10.3454 19.8997 10.5016 20.0273 10.6006C20.1549 10.6969 20.3229 10.7451 20.5312 10.7451C20.849 10.7451 21.112 10.6553 21.3203 10.4756C21.5312 10.2933 21.6367 10.0264 21.6367 9.6748V9.2998ZM26.0859 6.95996C26.5729 6.95996 26.9518 7.08626 27.2227 7.33887C27.4961 7.58887 27.6328 7.99121 27.6328 8.5459V11.3662H26.7148V8.71777C26.7148 8.38184 26.6458 8.13053 26.5078 7.96387C26.3698 7.7946 26.1562 7.70996 25.8672 7.70996C25.4479 7.70996 25.1562 7.83887 24.9922 8.09668C24.8307 8.35449 24.75 8.72819 24.75 9.21777V11.3662H23.832V7.04199H24.5469L24.6758 7.62793H24.7266C24.8203 7.47689 24.9362 7.35319 25.0742 7.25684C25.2148 7.15788 25.3711 7.08366 25.543 7.03418C25.7174 6.9847 25.8984 6.95996 26.0859 6.95996ZM30.6602 11.4443C30.2513 11.4443 29.8971 11.3649 29.5977 11.2061C29.2982 11.0472 29.0677 10.8037 28.9062 10.4756C28.7448 10.1475 28.6641 9.73079 28.6641 9.22559C28.6641 8.69954 28.7526 8.26986 28.9297 7.93652C29.1068 7.60319 29.3516 7.3571 29.6641 7.19824C29.9792 7.03939 30.3398 6.95996 30.7461 6.95996C31.0039 6.95996 31.237 6.986 31.4453 7.03809C31.6562 7.08757 31.8346 7.14876 31.9805 7.22168L31.707 7.95605C31.5482 7.89095 31.3854 7.83626 31.2188 7.79199C31.0521 7.74772 30.8919 7.72559 30.7383 7.72559C30.4857 7.72559 30.2747 7.78158 30.1055 7.89355C29.9388 8.00553 29.8138 8.1722 29.7305 8.39355C29.6497 8.61491 29.6094 8.88965 29.6094 9.21777C29.6094 9.53548 29.651 9.80371 29.7344 10.0225C29.8177 10.2386 29.9414 10.4027 30.1055 10.5146C30.2695 10.624 30.4714 10.6787 30.7109 10.6787C30.9479 10.6787 31.1602 10.6501 31.3477 10.5928C31.5352 10.5355 31.7122 10.4613 31.8789 10.3701V11.167C31.7148 11.2607 31.5391 11.3298 31.3516 11.374C31.1641 11.4209 30.9336 11.4443 30.6602 11.4443ZM34.6172 6.95996C35.0026 6.95996 35.3333 7.03939 35.6094 7.19824C35.8854 7.3571 36.0977 7.58236 36.2461 7.87402C36.3945 8.16569 36.4688 8.51465 36.4688 8.9209V9.41309H33.582C33.5924 9.83236 33.7044 10.1553 33.918 10.3818C34.1341 10.6084 34.4362 10.7217 34.8242 10.7217C35.1003 10.7217 35.3477 10.6956 35.5664 10.6436C35.7878 10.5889 36.0156 10.5094 36.25 10.4053V11.1514C36.0339 11.2529 35.8138 11.3271 35.5898 11.374C35.3659 11.4209 35.0977 11.4443 34.7852 11.4443C34.3607 11.4443 33.987 11.3623 33.6641 11.1982C33.3438 11.0316 33.0924 10.7842 32.9102 10.4561C32.7305 10.1279 32.6406 9.72038 32.6406 9.2334C32.6406 8.74902 32.7227 8.33757 32.8867 7.99902C33.0508 7.66048 33.2812 7.40267 33.5781 7.22559C33.875 7.0485 34.2214 6.95996 34.6172 6.95996ZM34.6172 7.65137C34.3281 7.65137 34.0938 7.74512 33.9141 7.93262C33.737 8.12012 33.6328 8.39486 33.6016 8.75684H35.5703C35.5677 8.54069 35.5312 8.34928 35.4609 8.18262C35.3932 8.01595 35.2891 7.88574 35.1484 7.79199C35.0104 7.69824 34.8333 7.65137 34.6172 7.65137Z" fill="#EB7126"/>
<path d="M5.39844 13.6553C6.13542 13.6553 6.67318 13.8063 7.01172 14.1084C7.35026 14.4105 7.51953 14.8337 7.51953 15.3779C7.51953 15.6253 7.48047 15.861 7.40234 16.085C7.32682 16.3063 7.20182 16.5029 7.02734 16.6748C6.85286 16.8441 6.6224 16.9782 6.33594 17.0771C6.05208 17.1761 5.70182 17.2256 5.28516 17.2256H4.67578V19.3662H3.73828V13.6553H5.39844ZM5.33594 14.4326H4.67578V16.4443H5.1875C5.48177 16.4443 5.73177 16.4105 5.9375 16.3428C6.14323 16.2725 6.29948 16.1618 6.40625 16.0107C6.51302 15.8597 6.56641 15.6605 6.56641 15.4131C6.56641 15.0824 6.46615 14.8363 6.26562 14.6748C6.06771 14.5133 5.75781 14.4326 5.33594 14.4326ZM10.2617 14.96C10.8086 14.96 11.2214 15.0811 11.5 15.3232C11.7812 15.5654 11.9219 15.943 11.9219 16.4561V19.3662H11.2695L11.0938 18.7529H11.0625C10.9401 18.9092 10.8138 19.0381 10.6836 19.1396C10.5534 19.2412 10.4023 19.3167 10.2305 19.3662C10.0612 19.4183 9.85417 19.4443 9.60938 19.4443C9.35156 19.4443 9.12109 19.3975 8.91797 19.3037C8.71484 19.2074 8.55469 19.0615 8.4375 18.8662C8.32031 18.6709 8.26172 18.4235 8.26172 18.124C8.26172 17.6787 8.42708 17.3441 8.75781 17.1201C9.09115 16.8962 9.59375 16.7725 10.2656 16.749L11.0156 16.7217V16.4951C11.0156 16.1956 10.9453 15.9821 10.8047 15.8545C10.6667 15.7269 10.4714 15.6631 10.2188 15.6631C10.0026 15.6631 9.79297 15.6943 9.58984 15.7568C9.38672 15.8193 9.1888 15.8962 8.99609 15.9873L8.69922 15.3389C8.91016 15.2269 9.14974 15.1357 9.41797 15.0654C9.6888 14.9951 9.97005 14.96 10.2617 14.96ZM11.0117 17.2998L10.4531 17.3193C9.99479 17.335 9.67318 17.4131 9.48828 17.5537C9.30339 17.6943 9.21094 17.887 9.21094 18.1318C9.21094 18.3454 9.27474 18.5016 9.40234 18.6006C9.52995 18.6969 9.69792 18.7451 9.90625 18.7451C10.224 18.7451 10.487 18.6553 10.6953 18.4756C10.9062 18.2933 11.0117 18.0264 11.0117 17.6748V17.2998ZM12.5547 15.042H13.5547L14.4414 17.5107C14.4805 17.6227 14.5156 17.7334 14.5469 17.8428C14.5807 17.9495 14.6094 18.055 14.6328 18.1592C14.6589 18.2633 14.6797 18.3675 14.6953 18.4717H14.7188C14.7448 18.3363 14.7812 18.1852 14.8281 18.0186C14.8776 17.8493 14.9323 17.68 14.9922 17.5107L15.8438 15.042H16.832L14.9766 19.96C14.8698 20.2412 14.7383 20.4808 14.582 20.6787C14.4284 20.8792 14.2461 21.0303 14.0352 21.1318C13.8242 21.236 13.5833 21.2881 13.3125 21.2881C13.1823 21.2881 13.069 21.2803 12.9727 21.2646C12.8763 21.2516 12.7943 21.2373 12.7266 21.2217V20.4873C12.7812 20.5003 12.8503 20.512 12.9336 20.5225C13.0169 20.5329 13.1029 20.5381 13.1914 20.5381C13.3555 20.5381 13.4974 20.5055 13.6172 20.4404C13.737 20.3753 13.8385 20.2829 13.9219 20.1631C14.0052 20.0459 14.0742 19.9118 14.1289 19.7607L14.2812 19.3545L12.5547 15.042ZM22.375 14.96C22.8594 14.96 23.224 15.085 23.4688 15.335C23.7161 15.585 23.8398 15.986 23.8398 16.5381V19.3662H22.9219V16.7021C22.9219 16.374 22.8581 16.1266 22.7305 15.96C22.6029 15.7933 22.4089 15.71 22.1484 15.71C21.7839 15.71 21.5208 15.8271 21.3594 16.0615C21.2005 16.2933 21.1211 16.6305 21.1211 17.0732V19.3662H20.2031V16.7021C20.2031 16.4834 20.1745 16.3011 20.1172 16.1553C20.0625 16.0068 19.9779 15.8962 19.8633 15.8232C19.7487 15.7477 19.6042 15.71 19.4297 15.71C19.1771 15.71 18.9753 15.7673 18.8242 15.8818C18.6758 15.9964 18.569 16.1657 18.5039 16.3896C18.4388 16.611 18.4062 16.8831 18.4062 17.2061V19.3662H17.4883V15.042H18.2031L18.332 15.624H18.3828C18.4714 15.473 18.5807 15.3493 18.7109 15.2529C18.8438 15.154 18.9909 15.0811 19.1523 15.0342C19.3138 14.9847 19.4818 14.96 19.6562 14.96C19.9792 14.96 20.2513 15.0173 20.4727 15.1318C20.694 15.2438 20.8594 15.4157 20.9688 15.6475H21.0391C21.1745 15.4131 21.3633 15.2399 21.6055 15.1279C21.8477 15.016 22.1042 14.96 22.375 14.96ZM26.8438 14.96C27.2292 14.96 27.5599 15.0394 27.8359 15.1982C28.112 15.3571 28.3242 15.5824 28.4727 15.874C28.6211 16.1657 28.6953 16.5146 28.6953 16.9209V17.4131H25.8086C25.819 17.8324 25.931 18.1553 26.1445 18.3818C26.3607 18.6084 26.6628 18.7217 27.0508 18.7217C27.3268 18.7217 27.5742 18.6956 27.793 18.6436C28.0143 18.5889 28.2422 18.5094 28.4766 18.4053V19.1514C28.2604 19.2529 28.0404 19.3271 27.8164 19.374C27.5924 19.4209 27.3242 19.4443 27.0117 19.4443C26.5872 19.4443 26.2135 19.3623 25.8906 19.1982C25.5703 19.0316 25.319 18.7842 25.1367 18.4561C24.957 18.1279 24.8672 17.7204 24.8672 17.2334C24.8672 16.749 24.9492 16.3376 25.1133 15.999C25.2773 15.6605 25.5078 15.4027 25.8047 15.2256C26.1016 15.0485 26.4479 14.96 26.8438 14.96ZM26.8438 15.6514C26.5547 15.6514 26.3203 15.7451 26.1406 15.9326C25.9635 16.1201 25.8594 16.3949 25.8281 16.7568H27.7969C27.7943 16.5407 27.7578 16.3493 27.6875 16.1826C27.6198 16.016 27.5156 15.8857 27.375 15.792C27.237 15.6982 27.0599 15.6514 26.8438 15.6514ZM31.9844 14.96C32.4714 14.96 32.8503 15.0863 33.1211 15.3389C33.3945 15.5889 33.5312 15.9912 33.5312 16.5459V19.3662H32.6133V16.7178C32.6133 16.3818 32.5443 16.1305 32.4062 15.9639C32.2682 15.7946 32.0547 15.71 31.7656 15.71C31.3464 15.71 31.0547 15.8389 30.8906 16.0967C30.7292 16.3545 30.6484 16.7282 30.6484 17.2178V19.3662H29.7305V15.042H30.4453L30.5742 15.6279H30.625C30.7188 15.4769 30.8346 15.3532 30.9727 15.2568C31.1133 15.1579 31.2695 15.0837 31.4414 15.0342C31.6159 14.9847 31.7969 14.96 31.9844 14.96ZM36.4258 18.7021C36.5456 18.7021 36.6641 18.6917 36.7812 18.6709C36.8984 18.6475 37.0052 18.6201 37.1016 18.5889V19.2842C37 19.3285 36.8685 19.3662 36.707 19.3975C36.5456 19.4287 36.3776 19.4443 36.2031 19.4443C35.9583 19.4443 35.7383 19.404 35.543 19.3232C35.3477 19.2399 35.1927 19.098 35.0781 18.8975C34.9635 18.6969 34.9062 18.4196 34.9062 18.0654V15.7412H34.3164V15.3311L34.9492 15.0068L35.25 14.0811H35.8281V15.042H37.0664V15.7412H35.8281V18.0537C35.8281 18.2725 35.8828 18.4352 35.9922 18.542C36.1016 18.6488 36.2461 18.7021 36.4258 18.7021Z" fill="black"/>
</svg>
