<svg width="40" height="23" viewBox="0 0 40 23" fill="none" xmlns="http://www.w3.org/2000/svg">
<path d="M37.4883 0.366211H3.48828C2.10757 0.366211 0.988281 1.4855 0.988281 2.86621V19.8662C0.988281 21.2469 2.10757 22.3662 3.48828 22.3662H37.4883C38.869 22.3662 39.9883 21.2469 39.9883 19.8662V2.86621C39.9883 1.4855 38.869 0.366211 37.4883 0.366211Z" fill="white"/>
<path d="M8.27734 10.3662L7.71875 8.78027H5.53516L4.97656 10.3662H3.98828L6.11328 4.63184H7.15234L9.27344 10.3662H8.27734ZM7.47656 7.97559L6.93359 6.41309C6.91276 6.34538 6.88281 6.25033 6.84375 6.12793C6.80469 6.00293 6.76562 5.87663 6.72656 5.74902C6.6875 5.61882 6.65495 5.50944 6.62891 5.4209C6.60286 5.52767 6.57031 5.64746 6.53125 5.78027C6.49479 5.91048 6.45833 6.03288 6.42188 6.14746C6.38802 6.26204 6.36198 6.35059 6.34375 6.41309L5.79688 7.97559H7.47656ZM11.3867 10.4443C10.8711 10.4443 10.457 10.2568 10.1445 9.8818C9.83464 9.5042 9.67969 8.94824 9.67969 8.21387C9.67969 7.47168 9.83724 6.91048 10.1523 6.53027C10.4701 6.15007 10.888 5.95996 11.4062 5.95996C11.625 5.95996 11.8164 5.98991 11.9805 6.0498C12.1445 6.1071 12.2852 6.18522 12.4023 6.28418C12.5221 6.38314 12.6237 6.49382 12.707 6.61621H12.75C12.737 6.53548 12.7214 6.4196 12.7031 6.26855C12.6875 6.11491 12.6797 5.97298 12.6797 5.84277V4.28809H13.6016V10.3662H12.8828L12.7188 9.7764H12.6797C12.6016 9.9014 12.5026 10.0146 12.3828 10.1162C12.2656 10.2152 12.125 10.2946 11.9609 10.3545C11.7995 10.4144 11.6081 10.4443 11.3867 10.4443ZM11.6445 9.6982C12.0378 9.6982 12.3151 9.585 12.4766 9.3584C12.638 9.1318 12.7214 8.79199 12.7266 8.33887V8.21777C12.7266 7.7334 12.6484 7.3623 12.4922 7.10449C12.3359 6.84408 12.0508 6.71387 11.6367 6.71387C11.306 6.71387 11.0534 6.84798 10.8789 7.11621C10.707 7.38184 10.6211 7.75293 10.6211 8.22949C10.6211 8.70605 10.707 9.0706 10.8789 9.3232C11.0534 9.5732 11.3086 9.6982 11.6445 9.6982ZM15.9062 10.3662L14.2617 6.04199H15.2344L16.125 8.58105C16.1823 8.74251 16.2344 8.91699 16.2812 9.1045C16.3281 9.292 16.3607 9.4495 16.3789 9.5771H16.4102C16.4284 9.4443 16.4635 9.2855 16.5156 9.1006C16.5677 8.91309 16.6211 8.73991 16.6758 8.58105L17.5664 6.04199H18.5352L16.8906 10.3662H15.9062ZM20.8867 5.95996C21.4336 5.95996 21.8464 6.08105 22.125 6.32324C22.4062 6.56543 22.5469 6.94303 22.5469 7.45605V10.3662H21.8945L21.7188 9.7529H21.6875C21.5651 9.9092 21.4388 10.0381 21.3086 10.1396C21.1784 10.2412 21.0273 10.3167 20.8555 10.3662C20.6862 10.4183 20.4792 10.4443 20.2344 10.4443C19.9766 10.4443 19.7461 10.3975 19.543 10.3037C19.3398 10.2074 19.1797 10.0615 19.0625 9.8662C18.9453 9.6709 18.8867 9.4235 18.8867 9.124C18.8867 8.67871 19.0521 8.34408 19.3828 8.12012C19.7161 7.89616 20.2188 7.77246 20.8906 7.74902L21.6406 7.72168V7.49512C21.6406 7.19564 21.5703 6.9821 21.4297 6.85449C21.2917 6.72689 21.0964 6.66309 20.8438 6.66309C20.6276 6.66309 20.418 6.69434 20.2148 6.75684C20.0117 6.81934 19.8138 6.89616 19.6211 6.9873L19.3242 6.33887C19.5352 6.22689 19.7747 6.13574 20.043 6.06543C20.3138 5.99512 20.5951 5.95996 20.8867 5.95996ZM21.6367 8.2998L21.0781 8.31934C20.6198 8.33496 20.2982 8.41309 20.1133 8.55371C19.9284 8.69434 19.8359 8.88704 19.8359 9.1318C19.8359 9.3454 19.8997 9.5016 20.0273 9.6006C20.1549 9.6969 20.3229 9.7451 20.5312 9.7451C20.849 9.7451 21.112 9.6553 21.3203 9.4756C21.5312 9.2933 21.6367 9.0264 21.6367 8.6748V8.2998ZM26.0859 5.95996C26.5729 5.95996 26.9518 6.08626 27.2227 6.33887C27.4961 6.58887 27.6328 6.99121 27.6328 7.5459V10.3662H26.7148V7.71777C26.7148 7.38184 26.6458 7.13053 26.5078 6.96387C26.3698 6.7946 26.1562 6.70996 25.8672 6.70996C25.4479 6.70996 25.1562 6.83887 24.9922 7.09668C24.8307 7.35449 24.75 7.72819 24.75 8.21777V10.3662H23.832V6.04199H24.5469L24.6758 6.62793H24.7266C24.8203 6.47689 24.9362 6.35319 25.0742 6.25684C25.2148 6.15788 25.3711 6.08366 25.543 6.03418C25.7174 5.9847 25.8984 5.95996 26.0859 5.95996ZM30.6602 10.4443C30.2513 10.4443 29.8971 10.3649 29.5977 10.2061C29.2982 10.0472 29.0677 9.8037 28.9062 9.4756C28.7448 9.1475 28.6641 8.73079 28.6641 8.22559C28.6641 7.69954 28.7526 7.26986 28.9297 6.93652C29.1068 6.60319 29.3516 6.3571 29.6641 6.19824C29.9792 6.03939 30.3398 5.95996 30.7461 5.95996C31.0039 5.95996 31.237 5.986 31.4453 6.03809C31.6562 6.08757 31.8346 6.14876 31.9805 6.22168L31.707 6.95605C31.5482 6.89095 31.3854 6.83626 31.2188 6.79199C31.0521 6.74772 30.8919 6.72559 30.7383 6.72559C30.4857 6.72559 30.2747 6.78158 30.1055 6.89355C29.9388 7.00553 29.8138 7.1722 29.7305 7.39355C29.6497 7.61491 29.6094 7.88965 29.6094 8.21777C29.6094 8.53548 29.651 8.80371 29.7344 9.0225C29.8177 9.2386 29.9414 9.4027 30.1055 9.5146C30.2695 9.624 30.4714 9.6787 30.7109 9.6787C30.9479 9.6787 31.1602 9.6501 31.3477 9.5928C31.5352 9.5355 31.7122 9.4613 31.8789 9.3701V10.167C31.7148 10.2607 31.5391 10.3298 31.3516 10.374C31.1641 10.4209 30.9336 10.4443 30.6602 10.4443ZM34.6172 5.95996C35.0026 5.95996 35.3333 6.03939 35.6094 6.19824C35.8854 6.3571 36.0977 6.58236 36.2461 6.87402C36.3945 7.16569 36.4688 7.51465 36.4688 7.9209V8.41309H33.582C33.5924 8.83236 33.7044 9.1553 33.918 9.3818C34.1341 9.6084 34.4362 9.7217 34.8242 9.7217C35.1003 9.7217 35.3477 9.6956 35.5664 9.6436C35.7878 9.5889 36.0156 9.5094 36.25 9.4053V10.1514C36.0339 10.2529 35.8138 10.3271 35.5898 10.374C35.3659 10.4209 35.0977 10.4443 34.7852 10.4443C34.3607 10.4443 33.987 10.3623 33.6641 10.1982C33.3438 10.0316 33.0924 9.7842 32.9102 9.4561C32.7305 9.1279 32.6406 8.72038 32.6406 8.2334C32.6406 7.74902 32.7227 7.33757 32.8867 6.99902C33.0508 6.66048 33.2812 6.40267 33.5781 6.22559C33.875 6.0485 34.2214 5.95996 34.6172 5.95996ZM34.6172 6.65137C34.3281 6.65137 34.0938 6.74512 33.9141 6.93262C33.737 7.12012 33.6328 7.39486 33.6016 7.75684H35.5703C35.5677 7.54069 35.5312 7.34928 35.4609 7.18262C35.3932 7.01595 35.2891 6.88574 35.1484 6.79199C35.0104 6.69824 34.8333 6.65137 34.6172 6.65137Z" fill="#EB7126"/>
<path d="M5.39844 12.6553C6.13542 12.6553 6.67318 12.8063 7.01172 13.1084C7.35026 13.4105 7.51953 13.8337 7.51953 14.3779C7.51953 14.6253 7.48047 14.861 7.40234 15.085C7.32682 15.3063 7.20182 15.5029 7.02734 15.6748C6.85286 15.8441 6.6224 15.9782 6.33594 16.0771C6.05208 16.1761 5.70182 16.2256 5.28516 16.2256H4.67578V18.3662H3.73828V12.6553H5.39844ZM5.33594 13.4326H4.67578V15.4443H5.1875C5.48177 15.4443 5.73177 15.4105 5.9375 15.3428C6.14323 15.2725 6.29948 15.1618 6.40625 15.0107C6.51302 14.8597 6.56641 14.6605 6.56641 14.4131C6.56641 14.0824 6.46615 13.8363 6.26562 13.6748C6.06771 13.5133 5.75781 13.4326 5.33594 13.4326ZM10.2617 13.96C10.8086 13.96 11.2214 14.0811 11.5 14.3232C11.7812 14.5654 11.9219 14.943 11.9219 15.4561V18.3662H11.2695L11.0938 17.7529H11.0625C10.9401 17.9092 10.8138 18.0381 10.6836 18.1396C10.5534 18.2412 10.4023 18.3167 10.2305 18.3662C10.0612 18.4183 9.85417 18.4443 9.60938 18.4443C9.35156 18.4443 9.12109 18.3975 8.91797 18.3037C8.71484 18.2074 8.55469 18.0615 8.4375 17.8662C8.32031 17.6709 8.26172 17.4235 8.26172 17.124C8.26172 16.6787 8.42708 16.3441 8.75781 16.1201C9.09115 15.8962 9.59375 15.7725 10.2656 15.749L11.0156 15.7217V15.4951C11.0156 15.1956 10.9453 14.9821 10.8047 14.8545C10.6667 14.7269 10.4714 14.6631 10.2188 14.6631C10.0026 14.6631 9.79297 14.6943 9.58984 14.7568C9.38672 14.8193 9.1888 14.8962 8.99609 14.9873L8.69922 14.3389C8.91016 14.2269 9.14974 14.1357 9.41797 14.0654C9.6888 13.9951 9.97005 13.96 10.2617 13.96ZM11.0117 16.2998L10.4531 16.3193C9.99479 16.335 9.67318 16.4131 9.48828 16.5537C9.30339 16.6943 9.21094 16.887 9.21094 17.1318C9.21094 17.3454 9.27474 17.5016 9.40234 17.6006C9.52995 17.6969 9.69792 17.7451 9.90625 17.7451C10.224 17.7451 10.487 17.6553 10.6953 17.4756C10.9062 17.2933 11.0117 17.0264 11.0117 16.6748V16.2998ZM12.5547 14.042H13.5547L14.4414 16.5107C14.4805 16.6227 14.5156 16.7334 14.5469 16.8428C14.5807 16.9495 14.6094 17.055 14.6328 17.1592C14.6589 17.2633 14.6797 17.3675 14.6953 17.4717H14.7188C14.7448 17.3363 14.7812 17.1852 14.8281 17.0186C14.8776 16.8493 14.9323 16.68 14.9922 16.5107L15.8438 14.042H16.832L14.9766 18.96C14.8698 19.2412 14.7383 19.4808 14.582 19.6787C14.4284 19.8792 14.2461 20.0303 14.0352 20.1318C13.8242 20.236 13.5833 20.2881 13.3125 20.2881C13.1823 20.2881 13.069 20.2803 12.9727 20.2646C12.8763 20.2516 12.7943 20.2373 12.7266 20.2217V19.4873C12.7812 19.5003 12.8503 19.512 12.9336 19.5225C13.0169 19.5329 13.1029 19.5381 13.1914 19.5381C13.3555 19.5381 13.4974 19.5055 13.6172 19.4404C13.737 19.3753 13.8385 19.2829 13.9219 19.1631C14.0052 19.0459 14.0742 18.9118 14.1289 18.7607L14.2812 18.3545L12.5547 14.042ZM22.375 13.96C22.8594 13.96 23.224 14.085 23.4688 14.335C23.7161 14.585 23.8398 14.986 23.8398 15.5381V18.3662H22.9219V15.7021C22.9219 15.374 22.8581 15.1266 22.7305 14.96C22.6029 14.7933 22.4089 14.71 22.1484 14.71C21.7839 14.71 21.5208 14.8271 21.3594 15.0615C21.2005 15.2933 21.1211 15.6305 21.1211 16.0732V18.3662H20.2031V15.7021C20.2031 15.4834 20.1745 15.3011 20.1172 15.1553C20.0625 15.0068 19.9779 14.8962 19.8633 14.8232C19.7487 14.7477 19.6042 14.71 19.4297 14.71C19.1771 14.71 18.9753 14.7673 18.8242 14.8818C18.6758 14.9964 18.569 15.1657 18.5039 15.3896C18.4388 15.611 18.4062 15.8831 18.4062 16.2061V18.3662H17.4883V14.042H18.2031L18.332 14.624H18.3828C18.4714 14.473 18.5807 14.3493 18.7109 14.2529C18.8438 14.154 18.9909 14.0811 19.1523 14.0342C19.3138 13.9847 19.4818 13.96 19.6562 13.96C19.9792 13.96 20.2513 14.0173 20.4727 14.1318C20.694 14.2438 20.8594 14.4157 20.9688 14.6475H21.0391C21.1745 14.4131 21.3633 14.2399 21.6055 14.1279C21.8477 14.016 22.1042 13.96 22.375 13.96ZM26.8438 13.96C27.2292 13.96 27.5599 14.0394 27.8359 14.1982C28.112 14.3571 28.3242 14.5824 28.4727 14.874C28.6211 15.1657 28.6953 15.5146 28.6953 15.9209V16.4131H25.8086C25.819 16.8324 25.931 17.1553 26.1445 17.3818C26.3607 17.6084 26.6628 17.7217 27.0508 17.7217C27.3268 17.7217 27.5742 17.6956 27.793 17.6436C28.0143 17.5889 28.2422 17.5094 28.4766 17.4053V18.1514C28.2604 18.2529 28.0404 18.3271 27.8164 18.374C27.5924 18.4209 27.3242 18.4443 27.0117 18.4443C26.5872 18.4443 26.2135 18.3623 25.8906 18.1982C25.5703 18.0316 25.319 17.7842 25.1367 17.4561C24.957 17.1279 24.8672 16.7204 24.8672 16.2334C24.8672 15.749 24.9492 15.3376 25.1133 14.999C25.2773 14.6605 25.5078 14.4027 25.8047 14.2256C26.1016 14.0485 26.4479 13.96 26.8438 13.96ZM26.8438 14.6514C26.5547 14.6514 26.3203 14.7451 26.1406 14.9326C25.9635 15.1201 25.8594 15.3949 25.8281 15.7568H27.7969C27.7943 15.5407 27.7578 15.3493 27.6875 15.1826C27.6198 15.016 27.5156 14.8857 27.375 14.792C27.237 14.6982 27.0599 14.6514 26.8438 14.6514ZM31.9844 13.96C32.4714 13.96 32.8503 14.0863 33.1211 14.3389C33.3945 14.5889 33.5312 14.9912 33.5312 15.5459V18.3662H32.6133V15.7178C32.6133 15.3818 32.5443 15.1305 32.4062 14.9639C32.2682 14.7946 32.0547 14.71 31.7656 14.71C31.3464 14.71 31.0547 14.8389 30.8906 15.0967C30.7292 15.3545 30.6484 15.7282 30.6484 16.2178V18.3662H29.7305V14.042H30.4453L30.5742 14.6279H30.625C30.7188 14.4769 30.8346 14.3532 30.9727 14.2568C31.1133 14.1579 31.2695 14.0837 31.4414 14.0342C31.6159 13.9847 31.7969 13.96 31.9844 13.96ZM36.4258 17.7021C36.5456 17.7021 36.6641 17.6917 36.7812 17.6709C36.8984 17.6475 37.0052 17.6201 37.1016 17.5889V18.2842C37 18.3285 36.8685 18.3662 36.707 18.3975C36.5456 18.4287 36.3776 18.4443 36.2031 18.4443C35.9583 18.4443 35.7383 18.404 35.543 18.3232C35.3477 18.2399 35.1927 18.098 35.0781 17.8975C34.9635 17.6969 34.9062 17.4196 34.9062 17.0654V14.7412H34.3164V14.3311L34.9492 14.0068L35.25 13.0811H35.8281V14.042H37.0664V14.7412H35.8281V17.0537C35.8281 17.2725 35.8828 17.4352 35.9922 17.542C36.1016 17.6488 36.2461 17.7021 36.4258 17.7021Z" fill="black"/>
</svg>
