<svg width="26" height="26" viewBox="0 0 26 26" fill="none" xmlns="http://www.w3.org/2000/svg">
<g clip-path="url(#clip0_2303_18332)">
<path d="M25.2544 5.50093L25.2294 5.44249C24.9432 4.7732 24.1657 4.46153 23.4964 4.74795C23.3561 4.80801 23.1946 4.76646 23.0945 4.64459C22.4473 3.85665 21.34 3.58663 20.4019 3.98799L19.6782 4.29756H19.6781L8.66274 9.00972L6.52436 7.57017C6.42046 7.50025 6.28828 7.48775 6.17324 7.53702L4.58115 8.21807C4.31167 8.3335 3.99863 8.20787 3.8833 7.93843C3.63828 7.36563 3.1561 6.93262 2.56035 6.7504L0.837694 6.22339C0.700341 6.1813 0.55122 6.22286 0.455272 6.32969C0.359325 6.43653 0.33413 6.58926 0.390575 6.72129L2.077 10.6635L1.49746 10.9115C1.03931 11.1075 0.826073 11.6397 1.02202 12.0978C1.16855 12.4404 1.50312 12.6461 1.85415 12.6461C1.97251 12.6461 2.09282 12.6227 2.20835 12.5733L3.02944 12.2221C3.06997 12.2737 3.12436 12.3154 3.19038 12.34L6.97544 13.7494C7.35566 13.8909 7.75215 13.9615 8.148 13.9615C8.59687 13.9615 9.04507 13.8708 9.46802 13.6899L13.04 12.1618C13.4219 12.513 13.9249 12.7108 14.4446 12.7108C14.7156 12.7108 14.9909 12.6572 15.2553 12.5441L15.9642 12.2409L17.1195 11.7466C17.3069 11.6665 17.3938 11.4497 17.3136 11.2623L16.9778 10.4773L24.5598 7.23389C25.2291 6.94766 25.5407 6.17022 25.2544 5.50093ZM20.692 4.66636C21.3305 4.39322 22.0839 4.57681 22.5243 5.11294C22.5348 5.12574 22.5461 5.13751 22.5571 5.14971L20.7708 5.91387L20.3076 4.83091L20.692 4.66636ZM1.38135 7.16148L2.34448 7.45601C2.73188 7.57452 3.04546 7.85616 3.20488 8.22867C3.48017 8.87222 4.22773 9.17193 4.87134 8.89654L6.27881 8.29449L7.85474 9.35538L6.99956 9.72125C6.9876 9.66778 6.97129 9.61465 6.94897 9.56251C6.75303 9.10435 6.22075 8.89102 5.76264 9.08707L2.75537 10.3735L1.38135 7.16148ZM1.91816 11.8949C1.8354 11.9302 1.73574 11.8903 1.70044 11.8077C1.66509 11.7251 1.70508 11.6253 1.78765 11.59L2.70635 11.197L6.05278 9.76548C6.07329 9.75674 6.09482 9.75259 6.11621 9.75259C6.18096 9.75259 6.2439 9.79058 6.27051 9.85274C6.30586 9.93541 6.26587 10.0351 6.18325 10.0705L4.92139 10.6103L4.92134 10.6104L1.91816 11.8949ZM9.17783 13.0114C8.55674 13.2771 7.86601 13.2936 7.23291 13.0579L3.94101 11.8321L6.47348 10.7487C6.47358 10.7486 6.47368 10.7486 6.47378 10.7485L9.85815 9.30079C9.69634 9.54595 9.65625 9.86509 9.78017 10.1548C9.92671 10.4974 10.2613 10.7031 10.6123 10.7031C10.7307 10.7031 10.851 10.6796 10.9665 10.6303L12.4836 9.98126C12.3193 10.4653 12.3381 10.9846 12.5396 11.4557C12.5539 11.4891 12.5701 11.5212 12.5858 11.5535L9.17783 13.0114ZM10.6764 9.95191C10.5937 9.98726 10.494 9.94727 10.4587 9.8647C10.4233 9.78204 10.4633 9.68233 10.5459 9.64698L16.5116 7.09502C16.5342 7.08536 16.5559 7.08189 16.5752 7.08189C16.602 7.08189 16.6243 7.08853 16.6383 7.09415C16.6624 7.10377 16.7061 7.12803 16.7293 7.18223C16.7647 7.2649 16.7248 7.36461 16.6421 7.39996L10.6764 9.95191ZM14.9652 11.8657C14.4094 12.1035 13.7798 11.9319 13.4138 11.487C13.4123 11.4852 13.4108 11.4832 13.4092 11.4814C13.3329 11.3876 13.268 11.2821 13.2182 11.1655C13.0791 10.8404 13.0756 10.479 13.2083 10.1478C13.341 9.81661 13.5932 9.55762 13.9183 9.41856L14.2879 9.26046L15.3347 11.7076L14.9652 11.8657ZM16.0132 11.4174L14.9664 8.97027L15.4434 8.76622L16.4902 11.2133L16.0132 11.4174ZM24.5801 6.23628C24.5219 6.38135 24.4117 6.49468 24.2696 6.55547L16.6876 9.79888L16.1033 8.43296L16.9323 8.07833C17.3904 7.88233 17.6037 7.35015 17.4077 6.892C17.313 6.67061 17.1372 6.49913 16.9128 6.40919C16.8552 6.38614 16.7962 6.36934 16.7367 6.3584L19.6291 5.12105L20.2374 6.54327C20.2759 6.63326 20.3486 6.7042 20.4394 6.74063C20.4835 6.75831 20.5301 6.7671 20.5767 6.7671C20.626 6.7671 20.6754 6.75718 20.7218 6.73736L23.7866 5.42632C24.0818 5.30001 24.4247 5.43741 24.551 5.73257L24.576 5.79102C24.6368 5.93311 24.6382 6.09122 24.5801 6.23628Z" fill="#565656"/>
<path d="M24.9127 19.7565H23.266V15.9732H24.0259C24.2162 15.9732 24.3753 15.8285 24.3932 15.6389L24.5996 13.4509C24.5996 13.4506 24.5996 13.4503 24.5997 13.45L24.5999 13.4475C24.6003 13.4431 24.6002 13.4389 24.6004 13.4346C24.6009 13.4273 24.6015 13.4202 24.6015 13.4128V12.1809C24.6015 11.9771 24.4363 11.812 24.2326 11.812H22.6341V10.7322C22.6341 10.5285 22.4689 10.3633 22.2651 10.3633C22.0614 10.3633 21.8962 10.5285 21.8962 10.7322V11.812H20.2977C20.0939 11.812 19.9288 11.9771 19.9288 12.1809V13.4128C19.9288 13.4202 19.9294 13.4273 19.9298 13.4346C19.9301 13.4389 19.93 13.4432 19.9304 13.4475L19.9306 13.45C19.9307 13.4503 19.9307 13.4506 19.9307 13.4509L20.1371 15.6389C20.1549 15.8285 20.3141 15.9732 20.5044 15.9732H21.2643V19.7565H0.729785C0.526025 19.7565 0.36084 19.9217 0.36084 20.1255V21.6911C0.36084 21.8948 0.526025 22.06 0.729785 22.06H24.9127C25.1165 22.06 25.2816 21.8948 25.2816 21.6911V20.1255C25.2816 19.9217 25.1165 19.7565 24.9127 19.7565ZM20.6667 12.5498H23.8636V13.0438H20.6667V12.5498ZM20.8402 15.2354L20.7031 13.7817H23.8271L23.69 15.2354H22.897H21.6333H20.8402ZM22.528 15.9732V19.7565H22.0021V15.9732H22.528ZM24.5437 21.3221H1.09873V20.4944H21.6332H22.897H24.5437V21.3221Z" fill="#565656"/>
</g>
<defs>
<clipPath id="clip0_2303_18332">
<rect width="25" height="25" fill="white" transform="translate(0.36084 0.431641)"/>
</clipPath>
</defs>
</svg>
