<svg width="15" height="15" viewBox="0 0 15 15" fill="none" xmlns="http://www.w3.org/2000/svg">
<path d="M8.33333 3.75H12.5V5.41667H8.33333V3.75ZM8.33333 9.58333H12.5V11.25H8.33333V9.58333ZM13.3333 0H1.66667C0.75 0 0 0.75 0 1.66667V13.3333C0 14.25 0.75 15 1.66667 15H13.3333C14.25 15 15 14.25 15 13.3333V1.66667C15 0.75 14.25 0 13.3333 0ZM13.3333 13.3333H1.66667V1.66667H13.3333V13.3333ZM6.66667 2.5H2.5V6.66667H6.66667V2.5ZM5.83333 5.83333H3.33333V3.33333H5.83333V5.83333ZM6.66667 8.33333H2.5V12.5H6.66667V8.33333ZM5.83333 11.6667H3.33333V9.16667H5.83333V11.6667Z" fill="white"/>
</svg>
