<svg width="316" height="94" viewBox="0 0 316 94" fill="none" xmlns="http://www.w3.org/2000/svg">
<path d="M125.14 61.0242L123.07 54.2273H112.66L110.589 61.0242H104.066L114.144 32.3523H121.546L131.664 61.0242H125.14ZM121.625 49.1492C119.71 42.9903 118.63 39.5072 118.382 38.7C118.148 37.8927 117.979 37.2546 117.875 36.7859C117.445 38.4526 116.214 42.5736 114.183 49.1492H121.625ZM146.8 61.4148C144.235 61.4148 142.223 60.4838 140.765 58.6218H140.453C140.661 60.4447 140.765 61.4994 140.765 61.7859V70.6335H134.808V39.1882H139.652L140.492 42.0203H140.765C142.158 39.8588 144.222 38.7781 146.957 38.7781C149.535 38.7781 151.553 39.7742 153.011 41.7664C154.47 43.7585 155.199 46.5255 155.199 50.0671C155.199 52.3979 154.854 54.4226 154.164 56.1414C153.486 57.8601 152.516 59.1687 151.253 60.0671C149.99 60.9656 148.506 61.4148 146.8 61.4148ZM145.042 43.5437C143.571 43.5437 142.497 43.9994 141.82 44.9109C141.143 45.8093 140.791 47.3002 140.765 49.3835V50.0281C140.765 52.3718 141.11 54.0515 141.8 55.0671C142.503 56.0828 143.61 56.5906 145.121 56.5906C147.79 56.5906 149.125 54.3901 149.125 49.989C149.125 47.8406 148.792 46.2325 148.128 45.1648C147.477 44.0841 146.449 43.5437 145.042 43.5437ZM172.113 61.4148C169.548 61.4148 167.536 60.4838 166.078 58.6218H165.765C165.973 60.4447 166.078 61.4994 166.078 61.7859V70.6335H160.121V39.1882H164.964L165.804 42.0203H166.078C167.471 39.8588 169.535 38.7781 172.269 38.7781C174.847 38.7781 176.865 39.7742 178.324 41.7664C179.782 43.7585 180.511 46.5255 180.511 50.0671C180.511 52.3979 180.166 54.4226 179.476 56.1414C178.799 57.8601 177.829 59.1687 176.566 60.0671C175.303 60.9656 173.819 61.4148 172.113 61.4148ZM170.355 43.5437C168.884 43.5437 167.809 43.9994 167.132 44.9109C166.455 45.8093 166.104 47.3002 166.078 49.3835V50.0281C166.078 52.3718 166.423 54.0515 167.113 55.0671C167.816 56.0828 168.923 56.5906 170.433 56.5906C173.102 56.5906 174.437 54.3901 174.437 49.989C174.437 47.8406 174.105 46.2325 173.441 45.1648C172.79 44.0841 171.761 43.5437 170.355 43.5437ZM197.621 38.7781C198.428 38.7781 199.098 38.8367 199.632 38.9539L199.183 44.5398C198.701 44.4096 198.115 44.3445 197.425 44.3445C195.524 44.3445 194.04 44.8328 192.972 45.8093C191.917 46.7859 191.39 48.1531 191.39 49.9109V61.0242H185.433V39.1882H189.945L190.824 42.8601H191.117C191.794 41.6361 192.705 40.6531 193.851 39.9109C195.01 39.1557 196.266 38.7781 197.621 38.7781ZM208.343 50.0671C208.343 52.2286 208.695 53.8627 209.398 54.9695C210.114 56.0763 211.273 56.6296 212.875 56.6296C214.463 56.6296 215.602 56.0828 216.292 54.989C216.996 53.8822 217.347 52.2416 217.347 50.0671C217.347 47.9057 216.996 46.2846 216.292 45.2039C215.589 44.1231 214.437 43.5828 212.835 43.5828C211.247 43.5828 210.101 44.1231 209.398 45.2039C208.695 46.2716 208.343 47.8927 208.343 50.0671ZM223.441 50.0671C223.441 53.6218 222.503 56.4018 220.628 58.407C218.753 60.4122 216.143 61.4148 212.796 61.4148C210.7 61.4148 208.851 60.9591 207.25 60.0476C205.648 59.1231 204.417 57.8015 203.558 56.0828C202.699 54.364 202.269 52.3588 202.269 50.0671C202.269 46.4994 203.2 43.726 205.062 41.7468C206.924 39.7677 209.541 38.7781 212.914 38.7781C215.01 38.7781 216.859 39.2338 218.46 40.1453C220.062 41.0567 221.292 42.3653 222.152 44.071C223.011 45.7768 223.441 47.7755 223.441 50.0671ZM233.558 61.0242L225.238 39.1882H231.468L235.687 51.6296C236.156 53.2052 236.449 54.696 236.566 56.1023H236.683C236.748 54.8523 237.041 53.3614 237.562 51.6296L241.761 39.1882H247.992L239.671 61.0242H233.558ZM260.179 43.0164C258.916 43.0164 257.927 43.42 257.21 44.2273C256.494 45.0216 256.084 46.1544 255.98 47.6257H264.339C264.313 46.1544 263.929 45.0216 263.187 44.2273C262.445 43.42 261.442 43.0164 260.179 43.0164ZM261.019 61.4148C257.503 61.4148 254.756 60.4447 252.777 58.5046C250.798 56.5645 249.808 53.8171 249.808 50.2625C249.808 46.6036 250.72 43.7781 252.542 41.7859C254.378 39.7807 256.911 38.7781 260.14 38.7781C263.226 38.7781 265.628 39.657 267.347 41.4148C269.066 43.1726 269.925 45.601 269.925 48.7V51.5906H255.843C255.908 53.2833 256.41 54.6049 257.347 55.5554C258.285 56.5059 259.6 56.9812 261.292 56.9812C262.608 56.9812 263.851 56.8445 265.023 56.571C266.195 56.2976 267.419 55.8614 268.695 55.2625V59.8718C267.653 60.3927 266.54 60.7768 265.355 61.0242C264.17 61.2846 262.725 61.4148 261.019 61.4148ZM281.683 61.4148C279.118 61.4148 277.1 60.4187 275.628 58.4265C274.17 56.4343 273.441 53.6739 273.441 50.1453C273.441 46.5645 274.183 43.7781 275.667 41.7859C277.165 39.7807 279.222 38.7781 281.839 38.7781C284.587 38.7781 286.683 39.8458 288.128 41.9812H288.324C288.024 40.3536 287.875 38.9018 287.875 37.6257V30.6335H293.851V61.0242H289.281L288.128 58.1921H287.875C286.52 60.3406 284.457 61.4148 281.683 61.4148ZM283.773 56.6687C285.296 56.6687 286.41 56.226 287.113 55.3406C287.829 54.4552 288.22 52.9513 288.285 50.8289V50.1843C288.285 47.8406 287.92 46.1609 287.191 45.1453C286.475 44.1296 285.303 43.6218 283.675 43.6218C282.347 43.6218 281.312 44.1882 280.57 45.321C279.841 46.4408 279.476 48.075 279.476 50.2234C279.476 52.3718 279.847 53.9864 280.589 55.0671C281.332 56.1348 282.393 56.6687 283.773 56.6687Z" fill="#128807"/>
<path d="M80.0112 86.0242C82.9189 80.9753 86.3717 79.2924 91.4601 79.2924C158.881 79.4904 226.302 79.3914 293.632 79.3914C305.444 79.3914 308.806 75.7285 308.806 62.859C308.806 51.4744 308.806 40.0898 308.806 28.7052C308.806 18.0136 304.899 13.7567 294.995 13.7567C233.026 13.7567 171.057 13.7567 109.178 13.7567C107.725 13.7567 106.18 13.7567 104.272 13.7567C106.271 9.00489 108.724 7.02496 113.358 7.02496C174.055 7.22295 234.843 7.32195 295.54 7.02496C307.625 6.92596 315.53 16.1326 314.985 28.0122C314.44 40.9808 314.894 54.0483 314.803 67.1158C314.712 78.5004 307.716 85.9252 297.266 85.9252C226.12 85.9252 154.883 85.9252 83.7366 85.9252C82.6463 86.0242 81.465 86.0242 80.0112 86.0242Z" fill="#128807"/>
<path d="M15.7112 42.4243C21.3112 37.4243 29.6112 37.8243 33.8112 43.0243C37.8112 47.9243 41.4112 53.0243 45.7112 58.6243C50.3112 53.2243 54.5112 48.3243 58.5112 43.3243C68.7112 30.8243 79.0112 18.3243 89.0112 5.62428C93.1112 0.324275 98.2112 -0.475724 104.111 0.724276C108.611 1.62428 109.111 3.02428 106.211 6.72428C94.9112 20.6243 83.6112 34.3243 72.3112 48.1243C66.6112 55.1243 61.0112 62.1243 55.2112 68.9243C49.7112 75.4243 40.1112 74.9243 35.0112 68.2243C28.5112 59.6243 22.1112 51.0243 15.7112 42.4243Z" fill="#128807"/>
<path d="M90.8111 32.7242C97.5111 48.9242 91.9111 73.9242 71.3111 86.4242C50.4111 99.1242 23.0111 93.6242 9.01112 73.7242C-5.28888 53.6242 -1.58888 26.4242 17.6111 10.4242C35.1111 -4.17583 62.7111 -3.37583 78.1111 12.4242C76.9111 13.9242 75.7111 15.4242 75.0111 16.3242C68.9111 13.4242 63.7111 10.1242 57.9111 8.32417C35.8111 1.32417 13.1111 15.2242 7.71112 38.5242C2.61112 60.6242 18.0111 82.6242 41.6111 86.5242C63.3111 90.1242 84.8111 73.0242 86.7111 50.6242C86.9111 47.8242 87.0111 44.9242 86.6111 42.1242C86.0111 38.0242 87.7111 35.1242 90.8111 32.7242Z" fill="#128807"/>
</svg>
