<svg width="85" height="22" viewBox="0 0 85 22" fill="none" xmlns="http://www.w3.org/2000/svg">
<g clip-path="url(#clip0_3443_27458)">
<path d="M84.1465 0.226074L74.1928 10.7277L84.1465 21.2261H56.6017H0.146484V10.7277V0.226074H56.6017H84.1465Z" fill="url(#paint0_linear_3443_27458)"/>
<path fill-rule="evenodd" clip-rule="evenodd" d="M7.97205 10.4881L9.35302 2.49634C7.56497 2.56387 5.86374 3.33558 4.57757 4.66256C3.29141 5.98954 2.51149 7.77774 2.38828 9.6821C2.26508 11.5865 2.80734 13.472 3.91042 14.975C5.0135 16.4779 6.59923 17.4917 8.36162 17.8207L8.66253 15.9603C7.56498 15.7584 6.55134 15.2039 5.75709 14.3709C4.96285 13.5379 4.42585 12.4661 4.21789 11.2987C4.00992 10.1313 4.1409 8.92405 4.59331 7.83823C5.04572 6.75241 5.798 5.83979 6.7496 5.22238L6.90812 5.12492C7.02638 5.06818 7.15458 5.03887 7.28425 5.03893C7.47767 5.03616 7.66686 5.09937 7.82426 5.21933C7.98166 5.33929 8.09905 5.50974 8.15932 5.70584C8.21958 5.90195 8.21959 6.11346 8.15932 6.30957C8.09906 6.50567 7.98168 6.67613 7.82428 6.79609L7.68726 6.87922C7.0535 7.29539 6.55341 7.90742 6.2534 8.63402C5.95339 9.36062 5.86766 10.1674 6.0076 10.9472C6.14754 11.727 6.50653 12.443 7.03688 12.9999C7.56724 13.5569 8.24386 13.9286 8.97688 14.0655L9.60288 10.213L7.97205 10.4881Z" fill="white"/>
<path fill-rule="evenodd" clip-rule="evenodd" d="M11.9241 3.06396L9.73207 8.88164L12.0066 8.20591L10.1728 14.4992C10.9744 14.4028 11.7266 14.0535 12.3244 13.5003C12.9222 12.947 13.3358 12.2172 13.5077 11.4127C13.6795 10.6082 13.6009 9.76902 13.2829 9.01222C12.9649 8.25543 12.4233 7.61871 11.7336 7.19086L11.6228 7.12416C11.4528 7.00672 11.3243 6.83671 11.2563 6.63918C11.1882 6.44165 11.1841 6.22703 11.2446 6.02695C11.3051 5.82687 11.427 5.65189 11.5923 5.5278C11.7576 5.40371 11.9577 5.33706 12.163 5.33767C12.2932 5.33768 12.4219 5.36534 12.5411 5.41887L12.743 5.53778C13.819 6.20915 14.6505 7.22083 15.1108 8.41877C15.5711 9.6167 15.635 10.9353 15.2927 12.1737C14.9505 13.4121 14.2209 14.5024 13.215 15.2788C12.2091 16.0551 10.9821 16.4749 9.7207 16.4742H9.5956L9.04688 18.3593C9.26864 18.3796 9.49325 18.3883 9.7207 18.3883C11.5375 18.391 13.2961 17.7348 14.6824 16.537C16.0687 15.3392 16.9925 13.6777 17.2887 11.8493C17.585 10.0209 17.2344 8.14455 16.2996 6.55543C15.3648 4.96632 13.9067 3.7679 12.1857 3.17417L11.9241 3.06396Z" fill="#D7282F"/>
<path d="M17.3552 16.6357C17.7386 16.3348 18.0422 15.9425 18.2387 15.4937C18.4352 15.045 18.5184 14.5539 18.4809 14.0646C18.4809 13.7444 18.504 11.0278 18.504 11.0278L18.2017 10.6143L15.4721 9.87476L12.6937 10.5794L12.4058 10.92C12.4058 10.92 12.3798 13.5056 12.3856 14.516C12.3971 15.0735 12.5939 15.6109 12.9442 16.0417C13.52 16.7987 15.0489 17.7479 15.1122 17.7887L15.1641 17.8207H15.6708C15.6708 17.8207 16.8801 17.0316 17.3667 16.6327" fill="#3A77FF"/>
<path d="M17.3552 16.6357C17.7386 16.3348 18.0422 15.9425 18.2387 15.4937C18.4352 15.045 18.5184 14.5539 18.4809 14.0646C18.4809 13.7444 18.504 11.0278 18.504 11.0278L18.2017 10.6143L15.4721 9.87476L12.6937 10.5794L12.4058 10.92C12.4058 10.92 12.3798 13.5056 12.3856 14.516C12.3971 15.0735 12.5939 15.6109 12.9442 16.0417C13.52 16.7987 15.0489 17.7479 15.1122 17.7887L15.1641 17.8207H15.6708C15.6708 17.8207 16.8801 17.0316 17.3667 16.6327" stroke="white"/>
<path d="M16.3427 12.7126L14.9799 14.1455L14.5481 13.6891H14.0547V14.1969L14.8007 14.9829H15.162L16.8361 13.2235V12.7126H16.3427Z" fill="white"/>
<path d="M25.8671 5.20823C26.2311 5.08689 26.5604 5.02623 26.8551 5.02623C27.3057 5.02623 27.6567 5.18656 27.9081 5.50723C28.1594 5.81923 28.3544 6.26556 28.4931 6.84623C28.5364 7.01956 28.6231 7.40089 28.7531 7.99023C28.8917 8.57956 29.0044 9.05623 29.0911 9.42023C29.3597 10.5556 29.6024 11.4352 29.8191 12.0592C30.0444 12.6832 30.3997 13.1816 30.8851 13.5542C30.7811 13.8142 30.6077 14.0222 30.3651 14.1782C30.1311 14.3342 29.8754 14.4122 29.5981 14.4122C28.9654 14.4122 28.5017 13.9356 28.2071 12.9822C28.0684 12.5402 27.9427 12.1069 27.8301 11.6822C27.5267 11.7862 27.1497 11.8382 26.6991 11.8382C26.2571 11.8382 25.7111 11.7906 25.0611 11.6952C24.7924 12.7439 24.6581 13.5326 24.6581 14.0612C24.6581 14.1739 24.6624 14.2562 24.6711 14.3082C24.5584 14.3256 24.3677 14.3342 24.0991 14.3342C23.8304 14.3342 23.5921 14.2519 23.3841 14.0872C23.1847 13.9139 23.0851 13.6712 23.0851 13.3592C23.0851 12.9259 23.5011 11.6562 24.3331 9.55023C25.1651 7.44423 25.6764 5.9969 25.8671 5.20823ZM25.3601 10.6032C25.7067 10.6466 26.0577 10.6682 26.4131 10.6682C26.7771 10.6682 27.1627 10.6292 27.5701 10.5512C27.4921 10.1959 27.2277 8.83523 26.7771 6.46923C26.2397 7.86456 25.7674 9.24256 25.3601 10.6032ZM32.7861 11.9682C32.7601 12.0896 32.7471 12.1892 32.7471 12.2672C32.7471 12.6226 32.8511 12.8956 33.0591 13.0862C33.2758 13.2769 33.5618 13.3722 33.9171 13.3722C34.2811 13.3722 34.5801 13.3072 34.8141 13.1772C35.0568 13.0386 35.1781 12.8349 35.1781 12.5662C35.1781 12.2976 35.0481 12.0852 34.7881 11.9292C34.5368 11.7646 34.2291 11.6346 33.8651 11.5392C33.5098 11.4439 33.1501 11.3399 32.7861 11.2272C32.4221 11.1059 32.1101 10.9196 31.8501 10.6682C31.5988 10.4169 31.4731 10.1006 31.4731 9.71923C31.4731 9.12123 31.7895 8.61856 32.4221 8.21123C33.0548 7.8039 33.7178 7.60023 34.4111 7.60023C35.1738 7.60023 35.7545 7.75623 36.1531 8.06823C36.3871 8.25023 36.5041 8.49289 36.5041 8.79623C36.5041 9.09089 36.3871 9.33356 36.1531 9.52423C35.9278 9.70623 35.6505 9.79723 35.3211 9.79723C35.2518 9.79723 35.1651 9.78856 35.0611 9.77123C35.0871 9.65856 35.1001 9.55889 35.1001 9.47223C35.1001 9.22089 35.0048 9.03023 34.8141 8.90023C34.6235 8.77023 34.3635 8.70523 34.0341 8.70523C33.7135 8.70523 33.4188 8.77023 33.1501 8.90023C33.0461 9.0389 32.9941 9.21656 32.9941 9.43323C32.9941 9.64989 33.1198 9.82756 33.3711 9.96623C33.6225 10.0962 33.9258 10.2132 34.2811 10.3172C34.6451 10.4126 35.0091 10.5252 35.3731 10.6552C35.7371 10.7766 36.0448 10.9716 36.2961 11.2402C36.5475 11.5002 36.6731 11.8296 36.6731 12.2282C36.6731 12.8782 36.3481 13.4199 35.6981 13.8532C35.0568 14.2779 34.3938 14.4902 33.7091 14.4902C33.0245 14.4902 32.4568 14.3689 32.0061 14.1262C31.5641 13.8749 31.3431 13.4979 31.3431 12.9952C31.3431 12.6832 31.4558 12.4319 31.6811 12.2412C31.9151 12.0419 32.1968 11.9422 32.5261 11.9422C32.5955 11.9422 32.6821 11.9509 32.7861 11.9682ZM38.7021 11.9682C38.6761 12.0896 38.6631 12.1892 38.6631 12.2672C38.6631 12.6226 38.7671 12.8956 38.9751 13.0862C39.1918 13.2769 39.4778 13.3722 39.8331 13.3722C40.1971 13.3722 40.4961 13.3072 40.7301 13.1772C40.9728 13.0386 41.0941 12.8349 41.0941 12.5662C41.0941 12.2976 40.9641 12.0852 40.7041 11.9292C40.4528 11.7646 40.1451 11.6346 39.7811 11.5392C39.4258 11.4439 39.0661 11.3399 38.7021 11.2272C38.3381 11.1059 38.0261 10.9196 37.7661 10.6682C37.5148 10.4169 37.3891 10.1006 37.3891 9.71923C37.3891 9.12123 37.7055 8.61856 38.3381 8.21123C38.9708 7.8039 39.6338 7.60023 40.3271 7.60023C41.0898 7.60023 41.6705 7.75623 42.0691 8.06823C42.3031 8.25023 42.4201 8.49289 42.4201 8.79623C42.4201 9.09089 42.3031 9.33356 42.0691 9.52423C41.8438 9.70623 41.5665 9.79723 41.2371 9.79723C41.1678 9.79723 41.0811 9.78856 40.9771 9.77123C41.0031 9.65856 41.0161 9.55889 41.0161 9.47223C41.0161 9.22089 40.9208 9.03023 40.7301 8.90023C40.5395 8.77023 40.2795 8.70523 39.9501 8.70523C39.6295 8.70523 39.3348 8.77023 39.0661 8.90023C38.9621 9.0389 38.9101 9.21656 38.9101 9.43323C38.9101 9.64989 39.0358 9.82756 39.2871 9.96623C39.5385 10.0962 39.8418 10.2132 40.1971 10.3172C40.5611 10.4126 40.9251 10.5252 41.2891 10.6552C41.6531 10.7766 41.9608 10.9716 42.2121 11.2402C42.4635 11.5002 42.5891 11.8296 42.5891 12.2282C42.5891 12.8782 42.2641 13.4199 41.6141 13.8532C40.9728 14.2779 40.3098 14.4902 39.6251 14.4902C38.9405 14.4902 38.3728 14.3689 37.9221 14.1262C37.4801 13.8749 37.2591 13.4979 37.2591 12.9952C37.2591 12.6832 37.3718 12.4319 37.5971 12.2412C37.8311 12.0419 38.1128 11.9422 38.4421 11.9422C38.5115 11.9422 38.5981 11.9509 38.7021 11.9682ZM43.6042 13.0082L43.7342 10.3042C43.7342 9.46356 43.6128 8.66623 43.3702 7.91223C43.6128 7.80823 43.9118 7.75623 44.2672 7.75623C44.9605 7.75623 45.3072 8.14189 45.3072 8.91323C45.3072 9.34656 45.2595 9.95756 45.1642 10.7462C45.0688 11.5262 45.0212 12.0939 45.0212 12.4492C45.0212 12.8826 45.2162 13.0992 45.6062 13.0992C45.8402 13.0992 46.1132 12.9042 46.4252 12.5142C46.7458 12.1156 47.0188 11.6736 47.2442 11.1882C47.4782 10.6942 47.6168 10.2912 47.6602 9.97923C47.6082 9.02589 47.5345 8.33689 47.4392 7.91223C47.7165 7.80823 47.9982 7.75623 48.2842 7.75623C48.5788 7.75623 48.8215 7.84723 49.0122 8.02923C49.2115 8.21123 49.3112 8.43656 49.3112 8.70523C49.3112 8.97389 49.2722 9.42023 49.1942 10.0442C49.1162 10.6682 49.0772 11.3226 49.0772 12.0072C49.0772 12.6832 49.1552 13.4069 49.3112 14.1782C48.9732 14.2822 48.6698 14.3342 48.4012 14.3342C47.8638 14.3342 47.5952 13.9789 47.5952 13.2682C47.5952 12.9562 47.6298 12.5229 47.6992 11.9682C47.3525 12.7049 46.9278 13.2986 46.4252 13.7492C45.9312 14.1912 45.4285 14.4122 44.9172 14.4122C44.0418 14.4122 43.6042 13.9442 43.6042 13.0082ZM52.545 14.1782C52.2763 14.2822 51.9903 14.3342 51.687 14.3342C51.3837 14.3342 51.1367 14.2649 50.946 14.1262C50.764 13.9789 50.673 13.7796 50.673 13.5282C50.673 13.2682 50.712 12.8002 50.79 12.1242C50.868 11.4482 50.907 10.7939 50.907 10.1612C50.907 9.5199 50.8073 8.77023 50.608 7.91223C50.8853 7.80823 51.1583 7.75623 51.427 7.75623C51.6957 7.75623 51.9253 7.84723 52.116 8.02923C52.3153 8.21123 52.415 8.45389 52.415 8.75723C52.415 8.91323 52.389 9.14723 52.337 9.45923C52.285 9.76256 52.2547 9.99223 52.246 10.1482C52.584 9.37689 52.9827 8.77456 53.442 8.34123C53.91 7.89923 54.3737 7.67823 54.833 7.67823C55.1537 7.67823 55.4093 7.79089 55.6 8.01623C55.7907 8.24156 55.886 8.52756 55.886 8.87423C55.886 9.21223 55.7993 9.48956 55.626 9.70623C55.4527 9.91423 55.236 10.0182 54.976 10.0182C54.7247 10.0182 54.521 9.99223 54.365 9.94023C54.391 9.83623 54.404 9.74089 54.404 9.65423C54.404 9.29889 54.2783 9.12123 54.027 9.12123C53.6457 9.12123 53.286 9.50689 52.948 10.2782C52.6187 11.0409 52.3977 11.7559 52.285 12.4232C52.3283 13.0732 52.415 13.6582 52.545 14.1782ZM57.7454 11.3832C57.7454 12.0072 57.8451 12.5012 58.0444 12.8652C58.2437 13.2206 58.5774 13.3982 59.0454 13.3982C59.5134 13.3982 59.8774 13.2422 60.1374 12.9302C60.4061 12.6096 60.5404 12.2239 60.5404 11.7732C60.8351 11.7732 61.0907 11.8469 61.3074 11.9942C61.5241 12.1416 61.6324 12.3452 61.6324 12.6052C61.6324 13.1426 61.3464 13.5932 60.7744 13.9572C60.2024 14.3126 59.6001 14.4902 58.9674 14.4902C57.9794 14.4902 57.2644 14.2259 56.8224 13.6972C56.3804 13.1599 56.1594 12.3669 56.1594 11.3182C56.1594 10.2696 56.4541 9.38989 57.0434 8.67923C57.6414 7.95989 58.4344 7.60023 59.4224 7.60023C60.0984 7.60023 60.6401 7.75623 61.0474 8.06823C61.4634 8.37156 61.6714 8.84823 61.6714 9.49823C61.6714 10.1396 61.3767 10.6249 60.7874 10.9542C60.2067 11.2749 59.4961 11.4352 58.6554 11.4352C58.3607 11.4352 58.0574 11.4179 57.7454 11.3832ZM57.7584 10.3562C58.0184 10.4082 58.2914 10.4342 58.5774 10.4342C59.2014 10.4342 59.7257 10.3172 60.1504 10.0832C60.2024 9.87523 60.2284 9.71056 60.2284 9.58923C60.2284 9.2859 60.1201 9.05623 59.9034 8.90023C59.6867 8.74423 59.3877 8.66623 59.0064 8.66623C58.6337 8.66623 58.2957 8.78756 57.9924 9.03023C57.8364 9.4809 57.7584 9.9229 57.7584 10.3562ZM67.0187 4.74023C67.296 4.63623 67.582 4.58423 67.8767 4.58423C68.1713 4.58423 68.414 4.68389 68.6047 4.88323C68.7953 5.07389 68.8907 5.31656 68.8907 5.61123C68.8907 5.89723 68.8473 6.5819 68.7607 7.66523C68.674 8.73989 68.6307 9.80156 68.6307 10.8502C68.6307 11.8902 68.7347 12.9996 68.9427 14.1782C68.6307 14.2822 68.3057 14.3342 67.9677 14.3342C67.3957 14.3342 67.1097 13.9312 67.1097 13.1252C67.1097 12.8566 67.166 12.3756 67.2787 11.6822C66.9147 12.4536 66.5897 13.0256 66.3037 13.3982C66.0263 13.7709 65.7533 14.0352 65.4847 14.1912C65.2247 14.3386 64.9473 14.4122 64.6527 14.4122C63.994 14.4122 63.487 14.1696 63.1317 13.6842C62.785 13.1989 62.6117 12.6009 62.6117 11.8902C62.6117 11.1796 62.7373 10.5122 62.9887 9.88823C63.2487 9.25556 63.6343 8.73123 64.1457 8.31523C64.6657 7.89056 65.216 7.67823 65.7967 7.67823C66.3773 7.67823 66.88 7.75623 67.3047 7.91223C67.2873 6.79423 67.192 5.73689 67.0187 4.74023ZM67.3047 9.01723C66.88 8.86123 66.4207 8.78323 65.9267 8.78323C65.4327 8.78323 65.008 8.92623 64.6527 9.21223C64.358 9.91423 64.2107 10.6986 64.2107 11.5652C64.2107 11.9639 64.267 12.3452 64.3797 12.7092C64.4923 13.0732 64.6787 13.2552 64.9387 13.2552C65.3373 13.2552 65.788 12.8089 66.2907 11.9162C66.802 11.0236 67.14 10.0572 67.3047 9.01723Z" fill="white"/>
</g>
<defs>
<linearGradient id="paint0_linear_3443_27458" x1="84.1465" y1="10.7277" x2="0.146484" y2="10.7277" gradientUnits="userSpaceOnUse">
<stop stop-color="#231F20"/>
<stop offset="0.37" stop-color="#231F20"/>
<stop offset="0.5" stop-color="#231F20"/>
<stop offset="0.81" stop-color="#231F20"/>
<stop offset="1" stop-color="#231F20"/>
</linearGradient>
<clipPath id="clip0_3443_27458">
<rect width="84" height="21" fill="white" transform="translate(0.146484 0.226074)"/>
</clipPath>
</defs>
</svg>
