<svg width="15" height="14" viewBox="0 0 15 14" fill="none" xmlns="http://www.w3.org/2000/svg">
<path d="M9.19576 7L14.8555 1.34062C14.9773 1.21865 14.9773 1.02103 14.8555 0.899058L14.0483 0.0914396C13.9898 0.0330363 13.9101 0 13.8274 0C13.7445 0 13.665 0.0330363 13.6065 0.0914396L7.94686 5.75096L2.28726 0.0914396C2.17001 -0.0258096 1.96249 -0.0256621 1.84554 0.0914396L1.0385 0.899058C0.916529 1.02103 0.916529 1.21865 1.0385 1.34062L6.6981 7L1.0385 12.6594C0.916529 12.7813 0.916529 12.979 1.0385 13.1009L1.84569 13.9086C1.90424 13.967 1.98373 14 2.06662 14C2.14951 14 2.22885 13.967 2.2874 13.9086L7.947 8.24904L13.6066 13.9086C13.6652 13.967 13.7448 14 13.8275 14C13.9103 14 13.9899 13.967 14.0485 13.9086L14.8557 13.1009C14.9775 12.979 14.9775 12.7813 14.8557 12.6594L9.19576 7Z" fill="black"/>
</svg>
