<svg width="16" height="17" viewBox="0 0 16 17" fill="none" xmlns="http://www.w3.org/2000/svg">
<path fill-rule="evenodd" clip-rule="evenodd" d="M3.55544 1.84824C4.87103 0.969185 6.41775 0.5 8 0.5C10.1217 0.5 12.1566 1.34285 13.6569 2.84314C15.1572 4.34343 16 6.37827 16 8.5C16 10.0822 15.5308 11.629 14.6518 12.9445C13.7727 14.2601 12.5233 15.2855 11.0615 15.891C9.59966 16.4965 7.99112 16.655 6.43927 16.3463C4.88743 16.0376 3.46196 15.2757 2.34314 14.1568C1.22432 13.038 0.462403 11.6126 0.153721 10.0607C-0.15496 8.50886 0.00346622 6.90033 0.608967 5.43852C1.21447 3.97671 2.23985 2.72729 3.55544 1.84824ZM4.66658 13.4888C5.65328 14.1481 6.81332 14.5 8 14.5C9.5913 14.5 11.1174 13.8678 12.2426 12.7426C13.3679 11.6174 14 10.0913 14 8.5C14 7.31331 13.6481 6.15326 12.9888 5.16656C12.9566 5.11833 12.9237 5.07062 12.8902 5.02344L4.52362 13.3903C4.57075 13.4238 4.61841 13.4566 4.66658 13.4888ZM3.10946 11.976C2.84956 11.6103 2.63018 11.2148 2.45673 10.7961C2.0026 9.69974 1.88379 8.49334 2.1153 7.32945C2.34681 6.16556 2.91824 5.09647 3.75736 4.25735C4.59647 3.41824 5.66557 2.84679 6.82946 2.61528C7.99334 2.38377 9.19974 2.50258 10.2961 2.95671C10.7148 3.13013 11.1102 3.34947 11.4758 3.60933L3.10946 11.976Z" fill="#D7282F"/>
</svg>
