<svg width="24" height="20" viewBox="0 0 24 20" fill="none" xmlns="http://www.w3.org/2000/svg">
<path d="M12 0.375C11.8635 0.375 11.7269 0.401113 11.6018 0.453613L0.7959 5.43701C0.5684 5.54201 0.5684 5.70628 0.7959 5.81128L11.6018 10.7964C11.7269 10.8489 11.8635 10.875 12 10.875C12.1365 10.875 12.2731 10.8489 12.3982 10.7964L23.2041 5.81128C23.4316 5.70628 23.4316 5.54201 23.2041 5.43701L12.3982 0.453613C12.2731 0.401113 12.1365 0.375 12 0.375ZM12 2.19678L19.4307 5.625L12 9.05322L4.56934 5.625L12 2.19678ZM2.23486 8.64136L0.7959 9.36084C0.5684 9.47459 0.5684 9.65041 0.7959 9.76416L11.6018 15.1646C11.7269 15.2214 11.8635 15.25 12 15.25C12.1365 15.25 12.2731 15.2214 12.3982 15.1646L23.2041 9.76416C23.4316 9.65041 23.4316 9.47459 23.2041 9.36084L21.7651 8.64136L12.3982 13.3223C12.2731 13.3791 12.1365 13.4077 12 13.4077C11.8635 13.4077 11.7269 13.3791 11.6018 13.3223L2.23486 8.64136ZM2.23486 13.0164L0.7959 13.7358C0.5684 13.8496 0.5684 14.0254 0.7959 14.1392L11.6018 19.5396C11.7269 19.5964 11.8635 19.625 12 19.625C12.1365 19.625 12.2731 19.5964 12.3982 19.5396L23.2041 14.1392C23.4316 14.0254 23.4316 13.8496 23.2041 13.7358L21.7651 13.0164L12.3982 17.6973C12.2731 17.7541 12.1365 17.7827 12 17.7827C11.8635 17.7827 11.7269 17.7541 11.6018 17.6973L2.23486 13.0164Z" fill="#D7282F"/>
</svg>
