<svg width="75" height="75" viewBox="0 0 75 75" fill="none" xmlns="http://www.w3.org/2000/svg">
<path d="M31.5961 16.3944L36.4582 16.5761L47.9297 28.0311L47.5781 30.0655C47.5412 30.281 47.5653 30.5026 47.6477 30.7051C47.7301 30.9076 47.8675 31.0831 48.0444 31.2116C48.2213 31.3401 48.4306 31.4165 48.6487 31.4323C48.8668 31.448 49.085 31.4024 49.2785 31.3007L50.5359 30.6397L59.8511 39.9608C60.0722 40.1743 60.3682 40.2925 60.6754 40.2898C60.9827 40.2871 61.2766 40.1638 61.4939 39.9465C61.7111 39.7293 61.8344 39.4354 61.8371 39.1281C61.8398 38.8208 61.7217 38.5248 61.5082 38.3038L52.7062 29.5018L57.4218 27.0186L65.5675 31.3007C65.761 31.4018 65.9789 31.4468 66.1966 31.4308C66.4142 31.4147 66.6232 31.3382 66.7997 31.2097C66.9761 31.0814 67.1134 30.9062 67.1956 30.7041C67.278 30.5018 67.3023 30.2807 67.2656 30.0655L65.7105 20.9952L72.3047 14.5722C72.4613 14.4196 72.5722 14.2262 72.6247 14.0139C72.6772 13.8015 72.6691 13.5788 72.6016 13.3708C72.5341 13.1627 72.4097 12.9777 72.2424 12.8367C72.0752 12.6958 71.8719 12.6043 71.6554 12.5729L61.9382 11.1667C61.7851 11.1425 61.6285 11.1489 61.4778 11.1856C61.3271 11.2223 61.1852 11.2885 61.0603 11.3805C60.9354 11.4725 60.83 11.5883 60.7502 11.7213C60.6704 11.8543 60.6178 12.0019 60.5955 12.1554C60.5731 12.3089 60.5814 12.4654 60.62 12.6156C60.6587 12.7658 60.7266 12.9069 60.8202 13.0307C60.9137 13.1544 61.0309 13.2584 61.1648 13.3365C61.2989 13.4147 61.447 13.4654 61.6007 13.4858L65.0367 13.9851L58.5937 15.4253V8.53702L58.923 9.20381C59.0646 9.47548 59.3069 9.6809 59.5981 9.77608C59.8893 9.87126 60.2062 9.84863 60.4809 9.71304C60.7556 9.57744 60.9663 9.33967 61.0679 9.05065C61.1694 8.76162 61.1537 8.44432 61.0242 8.16671L58.4765 2.99756C58.3687 2.81486 58.2151 2.66343 58.0309 2.55823C57.8466 2.45303 57.6382 2.39771 57.4259 2.39771C57.2138 2.39771 57.0054 2.45303 56.821 2.55823C56.6368 2.66343 56.4832 2.81486 56.3754 2.99756L52.2984 11.2499L43.1906 12.5729C42.9741 12.6043 42.7708 12.6958 42.6036 12.8367C42.4364 12.9777 42.312 13.1627 42.2444 13.3708C42.1769 13.5788 42.1689 13.8015 42.2213 14.0139C42.2738 14.2262 42.3847 14.4196 42.5414 14.5722L49.1308 20.9952L48.4089 25.2034L37.7894 14.5933C37.5806 14.3845 37.3005 14.2623 37.0054 14.2511L31.6851 14.0518C31.5308 14.044 31.3763 14.0671 31.2311 14.1198C31.0858 14.1726 30.9526 14.2539 30.8391 14.359C30.7258 14.464 30.6347 14.5908 30.571 14.7317C30.5074 14.8725 30.4726 15.0246 30.4687 15.1792C30.463 15.3331 30.4875 15.4865 30.541 15.6308C30.5946 15.7751 30.6759 15.9075 30.7807 16.0204C30.8853 16.1332 31.0112 16.2244 31.1511 16.2885C31.291 16.3527 31.4422 16.3887 31.5961 16.3944ZM56.8769 24.6573L52.1601 27.137L57.4218 19.0405L62.6836 27.137L57.9668 24.6573C57.7987 24.5691 57.6117 24.5229 57.4218 24.5229C57.232 24.5229 57.045 24.5691 56.8769 24.6573ZM63.2976 20.7901L64.0007 24.8624L59.3273 17.6694L67.7062 15.7886L63.6328 19.7472C63.4971 19.8799 63.3957 20.0438 63.3373 20.2243C63.2789 20.4051 63.2653 20.5972 63.2976 20.7843V20.7901ZM53.2441 13.4765C53.4323 13.4494 53.6111 13.3768 53.7651 13.2652C53.9191 13.1535 54.0434 13.006 54.1277 12.8354L56.25 8.53819V15.4253L49.8047 13.9792L53.2441 13.4765ZM47.141 15.7792L55.5211 17.6601L50.8476 24.8565L51.5507 20.7843C51.5827 20.597 51.5688 20.4047 51.51 20.2241C51.4513 20.0434 51.3494 19.8797 51.2132 19.7472L47.141 15.7792Z" fill="#9A9A9A"/>
<path d="M64.8246 41.6168C64.6048 41.3966 64.3066 41.2728 63.9956 41.2724C63.6845 41.2721 63.386 41.3953 63.1658 41.6151C62.9456 41.8348 62.8217 42.133 62.8214 42.444C62.821 42.7552 62.9443 43.0537 63.164 43.2738L69.2789 49.3887C69.9361 50.0503 70.305 50.9452 70.305 51.8778C70.305 52.8103 69.9361 53.7052 69.2789 54.3668L54.3609 69.2848C53.6996 69.9419 52.8052 70.3107 51.873 70.3107C50.9408 70.3107 50.0464 69.9419 49.3851 69.2848L35.8078 55.691L40.664 50.9766C40.8207 50.824 40.9316 50.6305 40.9841 50.4183C41.0366 50.206 41.0285 49.9832 40.961 49.7752C40.8935 49.5672 40.769 49.3821 40.6018 49.2412C40.4346 49.1002 40.2313 49.0088 40.0148 48.9774L28.0734 47.2418L22.7343 36.416C22.6266 36.2331 22.4729 36.0814 22.2886 35.976C22.1042 35.8706 21.8955 35.8152 21.6832 35.8152C21.4708 35.8152 21.2621 35.8706 21.0778 35.976C20.8934 36.0814 20.7398 36.2331 20.632 36.416L19.2785 39.1571L16.5832 36.4617L16.1273 24.191C16.7739 24.3772 17.4366 24.5028 18.1066 24.566C18.483 25.1581 18.9875 25.658 19.5829 26.029C20.1784 26.4001 20.8494 26.6328 21.5466 26.71C22.244 26.7871 22.9497 26.7067 23.6118 26.4748C24.2739 26.2429 24.8755 25.8653 25.3722 25.3699C25.9197 24.8244 26.3239 24.152 26.5488 23.4126C26.7736 22.673 26.812 21.8895 26.6607 21.1315C26.5093 20.3735 26.173 19.6648 25.6814 19.0683C25.1899 18.4718 24.5585 18.0061 23.8435 17.7127C23.1284 17.4192 22.352 17.3072 21.5831 17.3864C20.8143 17.4656 20.077 17.7339 19.4369 18.167C18.7967 18.6001 18.2737 19.1849 17.9142 19.869C17.5548 20.5533 17.37 21.3158 17.3765 22.0887C16.9217 21.9905 16.4739 21.8624 16.0359 21.7055L15.8168 15.8098L26.9297 16.2199C27.0842 16.229 27.2389 16.2067 27.3846 16.1543C27.5302 16.1019 27.6638 16.0207 27.7773 15.9154C27.8907 15.81 27.9816 15.6829 28.0446 15.5414C28.1076 15.4001 28.1413 15.2474 28.1437 15.0926C28.1496 14.9387 28.125 14.7853 28.0714 14.641C28.018 14.4967 27.9365 14.3643 27.8318 14.2514C27.7271 14.1386 27.6013 14.0475 27.4613 13.9833C27.3214 13.9191 27.1702 13.8831 27.0164 13.8774L23.2757 13.7403C22.2231 11.562 20.8048 9.58016 19.0828 7.88088C16.8434 5.55216 14.0682 3.80687 10.9992 2.79728C8.01794 1.92072 5.49724 2.3133 3.90583 3.90588C2.31443 5.49846 1.91365 8.01682 2.79724 10.9992C3.80734 14.065 5.55175 16.8373 7.87849 19.0746C9.57818 20.7968 11.5599 22.2157 13.7379 23.2699L14.2488 37.0043C14.2589 37.3 14.3812 37.5808 14.591 37.7895L18.1781 41.3766L15.2859 47.236L3.34685 48.9715C3.129 49.0017 2.92406 49.0927 2.75546 49.2339C2.58685 49.3751 2.46139 49.561 2.39342 49.7701C2.32546 49.9793 2.31772 50.2034 2.3711 50.4167C2.42448 50.6301 2.53683 50.8241 2.69529 50.9766L8.9988 57.1219C9.22148 57.3395 9.52148 57.4596 9.83278 57.456C10.1441 57.4524 10.4412 57.3252 10.6588 57.1026C10.8763 56.8799 10.9965 56.5799 10.9929 56.2685C10.9893 55.9573 10.8621 55.6602 10.6394 55.4426L7.29724 52.1813L19.7789 54.9832L12.5695 66.0774L13.7531 59.1821C13.8056 58.8756 13.7342 58.5608 13.5547 58.307C13.3752 58.0532 13.1021 57.881 12.7957 57.8285C12.4892 57.776 12.1745 57.8474 11.9206 58.0269C11.6668 58.2065 11.4947 58.4795 11.4422 58.786L9.2988 71.2864C9.26188 71.5019 9.28598 71.7235 9.36839 71.926C9.4508 72.1285 9.58822 72.3039 9.76513 72.4324C9.94202 72.5609 10.1514 72.6373 10.3694 72.6531C10.5875 72.6688 10.8057 72.6232 10.9992 72.5215L21.6797 66.9071L32.3601 72.5215C32.5537 72.6232 32.7718 72.6688 32.9899 72.6531C33.208 72.6373 33.4173 72.5609 33.5942 72.4324C33.7711 72.3039 33.9085 72.1285 33.9909 71.926C34.0734 71.7235 34.0974 71.5019 34.0605 71.2864L32.0215 59.393L34.1308 57.3328L47.7363 70.9453C48.838 72.0394 50.3274 72.6533 51.88 72.6533C53.4327 72.6533 54.9222 72.0394 56.0238 70.9453L70.9418 56.0274C72.0365 54.9257 72.6509 53.4355 72.6509 51.8824C72.6509 50.3294 72.0365 48.8392 70.9418 47.7375L64.8246 41.6168ZM23.707 23.7071C23.3818 24.032 22.9682 24.2542 22.5178 24.3458C22.0672 24.4375 21.5997 24.3947 21.1734 24.2227C21.8772 23.9758 22.5165 23.5737 23.0438 23.0462C23.5713 22.5189 23.9734 21.8796 24.2203 21.1758C24.3921 21.6017 24.435 22.0685 24.3438 22.5185C24.2525 22.9685 24.0311 23.3819 23.707 23.7071ZM20.3906 20.3906C20.608 20.1728 20.8664 20.0002 21.1507 19.8825C21.4351 19.7649 21.7399 19.7045 22.0476 19.7051C22.0945 19.7051 22.1402 19.7156 22.1871 19.7192C22.1177 20.3501 21.8354 20.9386 21.3868 21.3877C20.9382 21.8367 20.35 22.1195 19.7191 22.1895C19.6967 21.8591 19.745 21.5278 19.8608 21.2176C19.9766 20.9074 20.1573 20.6255 20.3906 20.3906ZM9.53552 17.4176C7.48554 15.4581 5.94451 13.0281 5.04607 10.3383C4.43083 8.24768 4.61951 6.50744 5.56287 5.56291C6.50623 4.61838 8.24763 4.43088 10.3383 5.04611C13.028 5.94455 15.458 7.48559 17.4175 9.53557C18.6453 10.76 19.7089 12.1388 20.5816 13.6371L14.6297 13.418C14.4685 13.4108 14.3076 13.4376 14.1574 13.4965C14.0072 13.5554 13.8711 13.6452 13.7578 13.7602C13.6439 13.8742 13.5547 14.0104 13.4957 14.1605C13.4369 14.3105 13.4096 14.471 13.4156 14.6321L13.6371 20.5852C12.1384 19.7115 10.7597 18.6468 9.53552 17.4176ZM27.1242 49.4672L33.3949 50.3778L22.848 52.7449V41.9531L26.2382 48.8227C26.3223 48.9941 26.4468 49.1425 26.6013 49.2549C26.7556 49.3671 26.9352 49.4401 27.1242 49.4672ZM9.96091 50.3789L16.2316 49.4672C16.4197 49.4399 16.5982 49.3672 16.7519 49.2556C16.9057 49.144 17.0299 48.9966 17.114 48.8262L20.5078 41.9531V52.7461L9.96091 50.3789ZM21.1312 64.5457L13.8797 68.3578L21.6797 56.3602L29.4761 68.3578L22.2246 64.5457C22.0566 64.4569 21.8696 64.4104 21.6797 64.4104C21.4897 64.4104 21.3027 64.4569 21.1347 64.5457H21.1312ZM29.6062 59.1797L30.7886 66.075L23.5804 54.9809L36.0621 52.1789L29.9437 58.1426C29.8077 58.2751 29.7057 58.4389 29.647 58.6196C29.5882 58.8001 29.5742 58.9924 29.6062 59.1797Z" fill="#9A9A9A"/>
<path d="M32.1761 32.1761C32.8541 32.1424 33.5076 31.9127 34.0576 31.5147C34.6074 31.1168 35.03 30.5677 35.274 29.9343C35.5179 29.3009 35.5727 28.6102 35.4318 27.9462C35.2909 27.2823 34.9603 26.6735 34.48 26.1937L32.8218 24.5367C32.598 24.3249 32.3015 24.207 31.9933 24.207C31.6852 24.207 31.3888 24.3249 31.1648 24.5367L24.5355 31.1648C24.3158 31.3845 24.1924 31.6827 24.1924 31.9933C24.1924 32.3041 24.3158 32.6021 24.5355 32.8218L26.1937 34.48C26.6724 34.9629 27.2814 35.2958 27.9463 35.4383C28.6111 35.5807 29.3029 35.5264 29.9374 35.2821C30.572 35.0377 31.1214 34.6139 31.5191 34.0623C31.9167 33.5108 32.145 32.8554 32.1761 32.1761ZM31.9933 27.0199L32.823 27.8484C33.0427 28.0684 33.1661 28.3665 33.166 28.6774C33.1659 28.9882 33.0424 29.2863 32.8224 29.506C32.6026 29.7257 32.3043 29.8491 31.9936 29.849C31.6827 29.8489 31.3845 29.7254 31.1648 29.5054L30.3363 28.6769L31.9933 27.0199ZM29.5078 32.8207C29.288 33.0404 28.99 33.1638 28.6793 33.1638C28.3685 33.1638 28.0705 33.0404 27.8507 32.8207L27.0222 31.991L28.6793 30.3339L29.5078 31.1625C29.6171 31.2713 29.7038 31.4007 29.763 31.5432C29.8222 31.6857 29.8527 31.8385 29.8527 31.9927C29.8527 32.1471 29.8222 32.2998 29.763 32.4423C29.7038 32.5848 29.6171 32.7141 29.5078 32.823V32.8207Z" fill="#9A9A9A"/>
<path d="M34.4801 41.1094C34.3682 41.2175 34.2789 41.3469 34.2175 41.4898C34.156 41.6328 34.1237 41.7865 34.1224 41.9422C34.121 42.0978 34.1507 42.2521 34.2096 42.3962C34.2685 42.5402 34.3555 42.671 34.4655 42.781C34.5756 42.891 34.7065 42.978 34.8505 43.0369C34.9945 43.0959 35.1487 43.1255 35.3044 43.1242C35.46 43.1228 35.6137 43.0905 35.7567 43.0291C35.8997 42.9677 36.0291 42.8784 36.1371 42.7665L37.7953 41.1094C38.4064 40.4936 38.7666 39.6722 38.8055 38.8055C39.4822 38.7708 40.1344 38.5407 40.6832 38.1431C41.2318 37.7454 41.6536 37.1974 41.8973 36.565C42.1411 35.9328 42.1964 35.2434 42.0565 34.5803C41.9167 33.9173 41.5877 33.309 41.1094 32.829L39.4512 31.1708C39.2314 30.951 38.9334 30.8276 38.6226 30.8276C38.312 30.8276 38.0139 30.951 37.7941 31.1708L31.1648 37.8012C31.0529 37.9093 30.9636 38.0387 30.9022 38.1816C30.8408 38.3246 30.8085 38.4783 30.8072 38.634C30.8058 38.7896 30.8354 38.9439 30.8944 39.0879C30.9533 39.232 31.0403 39.3628 31.1503 39.4728C31.2603 39.5828 31.3912 39.6698 31.5353 39.7287C31.6793 39.7877 31.8335 39.8173 31.9891 39.8159C32.1448 39.8146 32.2985 39.7823 32.4415 39.7209C32.5844 39.6595 32.7138 39.5702 32.8219 39.4583L35.3086 36.9715L36.1371 37.8012C36.3568 38.021 36.4802 38.319 36.4802 38.6297C36.4802 38.9405 36.3568 39.2385 36.1371 39.4583L34.4801 41.1094ZM38.6226 33.6516L39.4512 34.4801C39.6647 34.7012 39.7828 34.9972 39.7801 35.3044C39.7774 35.6117 39.6541 35.9056 39.4369 36.1229C39.2196 36.3401 38.9257 36.4634 38.6184 36.4661C38.3112 36.4688 38.0151 36.3507 37.7941 36.1372L36.9656 35.3087L38.6226 33.6516Z" fill="#9A9A9A"/>
<path d="M41.1094 47.7387C40.9975 47.8469 40.9082 47.9761 40.8468 48.1191C40.7854 48.2621 40.753 48.4158 40.7517 48.5714C40.7503 48.7271 40.78 48.8814 40.8389 49.0254C40.8979 49.1694 40.9848 49.3002 41.0949 49.4103C41.2049 49.5203 41.3358 49.6072 41.4798 49.6662C41.6238 49.7251 41.7781 49.7548 41.9337 49.7535C42.0893 49.7521 42.2431 49.7197 42.386 49.6583C42.529 49.5969 42.6584 49.5076 42.7664 49.3957L47.7375 44.4235C48.3966 43.7642 48.7669 42.8701 48.7669 41.9379C48.7669 41.0057 48.3966 40.1117 47.7375 39.4524C47.0679 38.8126 46.1775 38.4556 45.2514 38.4556C44.3252 38.4556 43.4349 38.8126 42.7652 39.4524L37.793 44.4235C37.5796 44.6445 37.4615 44.9405 37.464 45.2478C37.4667 45.555 37.59 45.8489 37.8073 46.0662C38.0245 46.2835 38.3184 46.4067 38.6257 46.4094C38.933 46.4121 39.229 46.294 39.45 46.0805L41.9379 43.5938L43.5938 45.252L41.1094 47.7387ZM43.5949 41.9379L44.4246 41.1094C44.6475 40.8961 44.9441 40.7772 45.2525 40.7772C45.561 40.7772 45.8576 40.8961 46.0805 41.1094C46.3002 41.3291 46.4236 41.6271 46.4236 41.9379C46.4236 42.2487 46.3002 42.5467 46.0805 42.7664L45.252 43.5949L43.5949 41.9379Z" fill="#9A9A9A"/>
<path d="M47.9508 56.1926C48.1753 56.3314 48.4402 56.3905 48.7025 56.3602C48.9647 56.3297 49.2089 56.2116 49.3957 56.025L56.025 49.3957C56.2385 49.1747 56.3567 48.8787 56.354 48.5714C56.3513 48.2641 56.228 47.9702 56.0107 47.753C55.7935 47.5357 55.4996 47.4124 55.1923 47.4097C54.885 47.407 54.589 47.5251 54.368 47.7387L51.2485 50.8594L52.9934 45.6258C53.0773 45.3752 53.074 45.1037 52.9843 44.8552C52.8944 44.6067 52.7233 44.3959 52.4985 44.2569C52.2737 44.1179 52.0087 44.0591 51.7463 44.0897C51.4838 44.1204 51.2394 44.2387 51.0528 44.4258L44.4235 51.0551C44.21 51.2761 44.0918 51.5721 44.0945 51.8794C44.0972 52.1866 44.2205 52.4805 44.4378 52.6978C44.655 52.9151 44.9489 53.0384 45.2562 53.041C45.5635 53.0437 45.8595 52.9256 46.0805 52.7121L49.2 49.5926L47.4551 54.8273C47.3721 55.0775 47.376 55.3482 47.4659 55.596C47.5559 55.8437 47.7268 56.0539 47.9508 56.1926Z" fill="#9A9A9A"/>
<path d="M52.7097 60.9962C53.0362 61.3227 53.4238 61.5818 53.8503 61.7585C54.2769 61.9352 54.7342 62.0262 55.1959 62.0262C55.6576 62.0262 56.1149 61.9352 56.5414 61.7585C56.968 61.5818 57.3555 61.3227 57.682 60.9962L60.9961 57.6821C61.6551 57.0228 62.0255 56.1288 62.0255 55.1966C62.0255 54.2644 61.6551 53.3703 60.9961 52.711L59.339 51.0528C59.1193 50.8331 58.8213 50.7097 58.5105 50.7097C58.1998 50.7097 57.9017 50.8331 57.682 51.0528L51.0527 57.6821C50.833 57.9019 50.7096 58.1999 50.7096 58.5107C50.7096 58.8214 50.833 59.1194 51.0527 59.3392L52.7097 60.9962ZM58.5105 53.5384L59.339 54.3681C59.5588 54.5878 59.6822 54.8858 59.6822 55.1966C59.6822 55.5074 59.5588 55.8054 59.339 56.0251L56.025 59.3392C55.8053 59.5589 55.5073 59.6823 55.1965 59.6823C54.8857 59.6823 54.5877 59.5589 54.368 59.3392L53.5383 58.5107L58.5105 53.5384Z" fill="#9A9A9A"/>
</svg>
