<svg width="46" height="46" viewBox="0 0 46 46" fill="none" xmlns="http://www.w3.org/2000/svg">
<path d="M35.2188 28.75C31.6523 28.75 28.75 31.6516 28.75 35.2188C28.75 38.7859 31.6523 41.6875 35.2188 41.6875C38.7852 41.6875 41.6875 38.7859 41.6875 35.2188C41.6875 31.6516 38.7852 28.75 35.2188 28.75ZM35.2188 40.25C32.4444 40.25 30.1875 37.9924 30.1875 35.2188C30.1875 32.4451 32.4444 30.1875 35.2188 30.1875C37.9931 30.1875 40.25 32.4451 40.25 35.2188C40.25 37.9924 37.9931 40.25 35.2188 40.25Z" fill="#040404"/>
<path d="M35.2188 25.875C32.6952 25.875 30.4067 26.8848 28.7241 28.5157C28.0995 27.8861 27.3175 27.4275 26.455 27.1996L19.4062 25.3223V22.8462C21.7602 21.6387 23.432 19.2898 23.6821 16.5312H23.7188C25.3043 16.5312 26.5938 15.2418 26.5938 13.6562C26.5938 12.0707 25.3043 10.7812 23.7188 10.7812V9.85047C25.7945 9.23019 27.3125 7.30537 27.3125 5.03125V2.15625C27.3125 1.75878 26.9905 1.4375 26.5938 1.4375H15.0938C13.4737 1.4375 12.029 2.20728 11.1083 3.40041C10.5132 2.23603 9.30134 1.4375 7.90625 1.4375C5.92466 1.4375 4.3125 3.04966 4.3125 5.03125V6.46875C4.3125 8.45034 5.92466 10.0625 7.90625 10.0625V10.7812C6.32069 10.7812 5.03125 12.0707 5.03125 13.6562C5.03125 15.2418 6.32069 16.5312 7.90625 16.5312H7.94291C8.19303 19.2898 9.86556 21.6387 12.2188 22.8462V25.3223L5.16925 27.2004C2.97203 27.7869 1.4375 29.7879 1.4375 32.0641V43.8445C1.4375 44.2419 1.7595 44.5632 2.15625 44.5632H29.4688C29.8655 44.5632 30.1875 44.2419 30.1875 43.8445V43.0804C31.6415 44.0141 33.3658 44.5632 35.2188 44.5632C40.3708 44.5632 44.5625 40.3715 44.5625 35.2195C44.5625 30.0675 40.3708 25.875 35.2188 25.875ZM20.1617 34.0084L20.7633 35.8139L17.6568 40.0847L21.0587 28.4201L22.7793 31.4302L20.4118 33.2062C20.1645 33.3917 20.0632 33.7151 20.1609 34.0084H20.1617ZM11.2125 33.2062L8.84494 31.4302L10.5656 28.4201L13.9675 40.0847L10.861 35.8139L11.4626 34.0084C11.5604 33.7151 11.4598 33.3917 11.2118 33.2062H11.2125ZM14.8372 28.198L13.1179 30.7776L11.7163 27.0394L12.8074 26.6757L13.4838 27.1831L14.8372 28.198ZM18.1405 27.1831L18.8169 26.6757L19.9079 27.0394L18.5064 30.7776L16.7871 28.198L18.1405 27.1831ZM13.3716 32.9101C13.4334 32.8627 13.4902 32.8088 13.5348 32.7419L15.8118 29.3264L18.0888 32.7419C18.1333 32.8088 18.1901 32.8627 18.2519 32.9101L15.8118 41.2764L13.3716 32.9101ZM25.1555 13.6562C25.1555 14.449 24.5108 15.0937 23.718 15.0937V12.2187C24.5108 12.2187 25.1555 12.8635 25.1555 13.6562ZM5.75 6.46875V5.03125C5.75 3.84244 6.71744 2.875 7.90625 2.875C9.09506 2.875 10.0625 3.84244 10.0625 5.03125V6.46875C10.0625 6.86622 10.3845 7.1875 10.7812 7.1875C11.178 7.1875 11.5 6.86622 11.5 6.46875C11.5 4.48716 13.1122 2.875 15.0938 2.875H25.875V5.03125C25.875 7.01284 24.2628 8.625 22.2812 8.625H7.90625C6.71744 8.625 5.75 7.65756 5.75 6.46875ZM6.46875 13.6562C6.46875 12.8635 7.11347 12.2187 7.90625 12.2187V15.0937C7.11347 15.0937 6.46875 14.449 6.46875 13.6562ZM9.34375 15.8125V10.0625H22.2812V15.8125C22.2812 19.3797 19.3789 22.2812 15.8125 22.2812C12.2461 22.2812 9.34375 19.3797 9.34375 15.8125ZM15.8125 23.7187C16.5607 23.7187 17.2823 23.6073 17.9688 23.4126V25.5156L15.8125 27.1328L13.6562 25.5156V23.4126C14.3427 23.6073 15.0643 23.7187 15.8125 23.7187ZM2.875 32.0634C2.875 30.4369 3.97109 29.008 5.54012 28.589L9.40125 27.5605L7.28237 31.2678C7.10269 31.5826 7.18534 31.9815 7.475 32.1993L9.93528 34.0443L9.38041 35.7089C9.30709 35.9296 9.34447 36.1718 9.48103 36.3587L14.4009 43.1236H8.625V38.0923C8.625 37.6948 8.303 37.3736 7.90625 37.3736C7.5095 37.3736 7.1875 37.6948 7.1875 38.0923V43.1236H2.875V32.062V32.0634ZM28.75 43.125H24.4375V38.0937C24.4375 37.6963 24.1155 37.375 23.7188 37.375C23.322 37.375 23 37.6963 23 38.0937V43.125H17.2234L22.1432 36.3601C22.2798 36.1725 22.3172 35.9303 22.2439 35.7104L21.689 34.0457L24.1493 32.2007C24.4389 31.9829 24.5223 31.584 24.3419 31.2692L22.223 27.5619L26.0856 28.5904C26.7325 28.7615 27.3111 29.1187 27.7668 29.6053C26.5844 31.1707 25.8736 33.1114 25.8736 35.2202C25.8736 37.8616 26.9804 40.2457 28.7486 41.947V43.1264L28.75 43.125ZM35.2188 43.125C30.8595 43.125 27.3125 39.578 27.3125 35.2187C27.3125 30.8595 30.8595 27.3125 35.2188 27.3125C39.578 27.3125 43.125 30.8595 43.125 35.2187C43.125 39.578 39.578 43.125 35.2188 43.125Z" fill="#040404"/>
<path d="M35.2188 34.5C34.8227 34.5 34.5 34.178 34.5 33.7812C34.5 33.3845 34.8227 33.0625 35.2188 33.0625C35.4746 33.0625 35.7133 33.2005 35.8419 33.4226C36.041 33.7662 36.4794 33.8848 36.8244 33.6842C37.168 33.4858 37.2852 33.0453 37.0861 32.7024C36.8266 32.2546 36.4119 31.9355 35.9375 31.7652V31.625C35.9375 31.2275 35.6155 30.9062 35.2188 30.9062C34.822 30.9062 34.5 31.2275 34.5 31.625V31.7572C33.6655 32.0548 33.0625 32.8454 33.0625 33.7812C33.0625 34.9701 34.0299 35.9375 35.2188 35.9375C35.6148 35.9375 35.9375 36.2595 35.9375 36.6562C35.9375 37.053 35.6148 37.375 35.2188 37.375C34.9629 37.375 34.7242 37.237 34.5956 37.0149C34.3965 36.6706 33.9581 36.5527 33.6131 36.7533C33.2695 36.9517 33.1523 37.3922 33.3514 37.7351C33.6109 38.1829 34.0256 38.502 34.5 38.6723V38.8125C34.5 39.21 34.822 39.5312 35.2188 39.5312C35.6155 39.5312 35.9375 39.21 35.9375 38.8125V38.6803C36.772 38.3827 37.375 37.5921 37.375 36.6562C37.375 35.4674 36.4076 34.5 35.2188 34.5Z" fill="#040404"/>
<path d="M29.48 15.5343C29.5418 15.8822 29.8452 16.1266 30.1866 16.1266C30.2282 16.1266 30.2706 16.123 30.3138 16.1151C33.7458 15.502 37.0147 14.0472 39.7661 11.9075L40.2498 11.5316V12.218C40.2498 12.6155 40.5718 12.9368 40.9685 12.9368C41.3653 12.9368 41.6873 12.6155 41.6873 12.218V10.0618C41.6873 10.0309 41.6736 10.0043 41.67 9.97481C41.6643 9.92594 41.6571 9.87922 41.6413 9.83178C41.6247 9.78362 41.601 9.74194 41.5752 9.69881C41.5601 9.67294 41.555 9.64419 41.5363 9.62047C41.527 9.60825 41.5133 9.60322 41.5033 9.59244C41.4702 9.55434 41.4314 9.52559 41.3912 9.49541C41.3552 9.46881 41.3214 9.44078 41.2812 9.42137C41.2431 9.40269 41.2021 9.39334 41.1604 9.38184C41.1101 9.36747 41.062 9.35453 41.0102 9.35166C40.9958 9.35094 40.9843 9.34375 40.9692 9.34375H38.813C38.4162 9.34375 38.0942 9.66503 38.0942 10.0625C38.0942 10.46 38.4162 10.7812 38.813 10.7812H38.8748C36.3082 12.7743 33.2614 14.1299 30.0615 14.7013C29.6712 14.771 29.4103 15.1433 29.48 15.5343Z" fill="#040404"/>
<path d="M43.8438 10.0625C43.447 10.0625 43.125 10.3838 43.125 10.7812V23H41.6875V16.5312C41.6875 16.1338 41.3655 15.8125 40.9688 15.8125H36.6562C36.2595 15.8125 35.9375 16.1338 35.9375 16.5312V23H34.5V19.4062C34.5 19.0088 34.178 18.6875 33.7812 18.6875H29.4688C29.072 18.6875 28.75 19.0088 28.75 19.4062V23H28.0312C27.6345 23 27.3125 23.3213 27.3125 23.7188C27.3125 24.1162 27.6345 24.4375 28.0312 24.4375H43.8438C44.2405 24.4375 44.5625 24.1162 44.5625 23.7188V10.7812C44.5625 10.3838 44.2405 10.0625 43.8438 10.0625ZM30.1875 23V20.125H33.0625V23H30.1875ZM37.375 23V17.25H40.25V23H37.375Z" fill="#040404"/>
<path d="M18.3683 20.0047C18.6982 19.784 18.7873 19.3384 18.5674 19.0078C18.3474 18.6771 17.9004 18.588 17.5705 18.8087C16.5031 19.5202 15.1231 19.5202 14.0551 18.8087C13.7237 18.588 13.2774 18.6771 13.0582 19.0078C12.8382 19.3384 12.9273 19.784 13.2573 20.0047C14.0335 20.5222 14.9226 20.7802 15.8124 20.7802C16.7022 20.7802 17.592 20.5222 18.3683 20.0047Z" fill="#040404"/>
<path d="M13.6562 15.0938V14.375C13.6562 13.9775 13.3342 13.6562 12.9375 13.6562C12.5407 13.6562 12.2188 13.9775 12.2188 14.375V15.0938C12.2188 15.4912 12.5407 15.8125 12.9375 15.8125C13.3342 15.8125 13.6562 15.4912 13.6562 15.0938Z" fill="#040404"/>
<path d="M18.6875 13.6562C18.2907 13.6562 17.9688 13.9775 17.9688 14.375V15.0938C17.9688 15.4912 18.2907 15.8125 18.6875 15.8125C19.0842 15.8125 19.4062 15.4912 19.4062 15.0938V14.375C19.4062 13.9775 19.0842 13.6562 18.6875 13.6562Z" fill="#040404"/>
<path d="M13.867 12.7268C14.0072 12.867 14.1912 12.9374 14.3752 12.9374C14.5592 12.9374 14.7432 12.867 14.8833 12.7268C15.1644 12.4458 15.1644 11.9916 14.8833 11.7105C13.811 10.6382 12.0644 10.6382 10.992 11.7105C10.711 11.9916 10.711 12.4458 10.992 12.7268C11.2731 13.0079 11.7273 13.0079 12.0083 12.7268C12.5208 12.2144 13.3546 12.2144 13.867 12.7268Z" fill="#040404"/>
<path d="M17.7583 12.7268C18.2708 12.2144 19.1046 12.2144 19.617 12.7268C19.7572 12.867 19.9412 12.9374 20.1252 12.9374C20.3092 12.9374 20.4932 12.867 20.6333 12.7268C20.9144 12.4458 20.9144 11.9916 20.6333 11.7105C19.561 10.6382 17.8144 10.6382 16.742 11.7105C16.461 11.9916 16.461 12.4458 16.742 12.7268C17.0231 13.0079 17.4773 13.0079 17.7583 12.7268Z" fill="#040404"/>
<path d="M15.6567 16.3892L15.3045 16.7414C15.0235 17.0224 15.0235 17.4767 15.3045 17.7577C15.4447 17.8979 15.6287 17.9683 15.8127 17.9683C15.9967 17.9683 16.1807 17.8979 16.3208 17.7577L17.0396 17.039C17.2581 16.8198 17.3127 16.4855 17.1747 16.2095L16.456 14.772C16.2784 14.417 15.8472 14.2739 15.4914 14.4508C15.1363 14.6283 14.9926 15.0603 15.1701 15.4153L15.6567 16.3892Z" fill="#040404"/>
</svg>