<svg width="40" height="37" viewBox="0 0 40 37" fill="none" xmlns="http://www.w3.org/2000/svg">
<path opacity="0.3" d="M25.5104 28.3932H13.7604V26.4349H5.92708V32.3099H33.3438V26.4349H25.5104V28.3932ZM3.96875 22.5182H13.7604V16.6432H25.5104V22.5182H35.3021V12.7266H3.96875V22.5182Z" fill="#D7282F"/>
<path d="M35.2969 8.8099H27.4635V4.89323L23.5469 0.976562H15.7135L11.7969 4.89323V8.8099H3.96354C1.80938 8.8099 0.046875 10.5724 0.046875 12.7266V22.5182C0.046875 23.987 0.830205 25.2207 2.00521 25.9061V32.3099C2.00521 34.4836 3.74812 36.2266 5.92188 36.2266H33.3385C35.5123 36.2266 37.2552 34.4836 37.2552 32.3099V25.8866C38.4106 25.2011 39.2135 23.9478 39.2135 22.5182V12.7266C39.2135 10.5724 37.451 8.8099 35.2969 8.8099ZM15.7135 4.89323H23.5469V8.8099H15.7135V4.89323ZM33.3385 32.3099H5.92188V26.4349H13.7552V28.3932H25.5052V26.4349H33.3385V32.3099ZM17.6719 24.4766V20.5599H21.5885V24.4766H17.6719ZM35.2969 22.5182H25.5052V16.6432H13.7552V22.5182H3.96354V12.7266H35.2969V22.5182Z" fill="#D7282F"/>
</svg>
