<svg width="61" height="61" viewBox="0 0 61 61" fill="none" xmlns="http://www.w3.org/2000/svg">
<g opacity="0.7">
<path d="M55.2617 30.074H40.7618C36.9368 30.074 34.3117 27.174 34.3117 23.624V15.574C34.3117 12.024 36.9368 9.12398 40.7618 9.12398H48.8117C52.3617 9.12398 55.2617 12.024 55.2617 15.574V30.074Z" stroke="#231F20" stroke-width="4" stroke-linecap="round" stroke-linejoin="round"/>
<path d="M55.2617 30.0737C55.2617 45.1987 52.4366 47.6985 43.9366 52.7485" stroke="#231F20" stroke-width="4" stroke-linecap="round" stroke-linejoin="round"/>
</g>
<path d="M26.1844 30.074H11.6847C7.85971 30.074 5.23446 27.174 5.23446 23.624V15.574C5.23446 12.024 7.85971 9.12399 11.6847 9.12399H19.7345C23.2845 9.12399 26.1844 12.024 26.1844 15.574V30.074Z" stroke="#D7282F" stroke-width="4" stroke-linecap="round" stroke-linejoin="round"/>
<path d="M26.1844 30.0737C26.1844 45.1987 23.3597 47.6985 14.8597 52.7485" stroke="#D7282F" stroke-width="4" stroke-linecap="round" stroke-linejoin="round"/>
</svg>
