<svg width="119" height="23" viewBox="0 0 119 23" fill="none" xmlns="http://www.w3.org/2000/svg">
<path d="M19.9311 8.9724H14.0117L12.183 3.3349C12.12 3.14396 11.9983 2.97776 11.8354 2.85994C11.6725 2.74213 11.4765 2.67871 11.2755 2.67871C11.0744 2.67871 10.8785 2.74213 10.7155 2.85994C10.5526 2.97776 10.431 3.14396 10.368 3.3349L8.51171 8.9724H2.59233C2.39116 8.97287 2.19527 9.0368 2.03256 9.15511C1.86986 9.27341 1.74863 9.44004 1.68616 9.63126C1.62369 9.82248 1.62316 10.0285 1.68464 10.2201C1.74612 10.4116 1.86648 10.5789 2.02858 10.698L6.84108 14.1837L4.99858 19.828C4.95195 19.9714 4.93989 20.1237 4.96338 20.2726C4.98687 20.4215 5.04525 20.5627 5.13375 20.6847C5.22224 20.8067 5.33835 20.9061 5.47258 20.9747C5.60681 21.0432 5.75535 21.0791 5.90608 21.0793C6.10229 21.0708 6.29146 21.0038 6.44921 20.8868L11.2617 17.4012L16.0742 20.8868C16.2366 21.0039 16.4309 21.0687 16.6311 21.0724C16.7818 21.0722 16.9304 21.0364 17.0646 20.9678C17.1988 20.8992 17.3149 20.7999 17.4034 20.6778C17.4919 20.5558 17.5503 20.4146 17.5738 20.2657C17.5973 20.1168 17.5852 19.9645 17.5386 19.8212L15.7098 14.1768L20.5224 10.6912C20.6835 10.5697 20.8021 10.4004 20.8611 10.2075C20.9202 10.0145 20.9166 9.80784 20.851 9.61703C20.7853 9.42623 20.661 9.26109 20.4958 9.14529C20.3305 9.0295 20.1329 8.96897 19.9311 8.9724ZM14.8848 13.0974L14.0805 13.6887L14.383 14.6374L15.8198 19.0443L12.073 16.2943L11.2617 15.703L10.4505 16.2943L6.70358 19.0443L8.14046 14.6374L8.44296 13.6887L7.63859 13.0974L3.89171 10.3474H9.52234L9.83171 9.39865L11.2617 4.99865L12.6917 9.39865L13.0011 10.3474H18.6317L14.8848 13.0974Z" fill="#F8C204"/>
<path d="M43.9311 8.9724H38.0117L36.183 3.3349C36.12 3.14396 35.9983 2.97776 35.8354 2.85994C35.6725 2.74213 35.4765 2.67871 35.2755 2.67871C35.0744 2.67871 34.8785 2.74213 34.7155 2.85994C34.5526 2.97776 34.431 3.14396 34.368 3.3349L32.5117 8.9724H26.5923C26.3912 8.97287 26.1953 9.0368 26.0326 9.15511C25.8699 9.27341 25.7486 9.44004 25.6862 9.63126C25.6237 9.82248 25.6232 10.0285 25.6846 10.2201C25.7461 10.4116 25.8665 10.5789 26.0286 10.698L30.8411 14.1837L28.9986 19.828C28.952 19.9714 28.9399 20.1237 28.9634 20.2726C28.9869 20.4215 29.0453 20.5627 29.1337 20.6847C29.2222 20.8067 29.3383 20.9061 29.4726 20.9747C29.6068 21.0432 29.7554 21.0791 29.9061 21.0793C30.1023 21.0708 30.2915 21.0038 30.4492 20.8868L35.2617 17.4012L40.0742 20.8868C40.2366 21.0039 40.4309 21.0687 40.6311 21.0724C40.7818 21.0722 40.9304 21.0364 41.0646 20.9678C41.1988 20.8992 41.3149 20.7999 41.4034 20.6778C41.4919 20.5558 41.5503 20.4146 41.5738 20.2657C41.5973 20.1168 41.5852 19.9645 41.5386 19.8212L39.7098 14.1768L44.5224 10.6912C44.6835 10.5697 44.8021 10.4004 44.8611 10.2075C44.9202 10.0145 44.9166 9.80784 44.851 9.61703C44.7853 9.42623 44.661 9.26109 44.4958 9.14529C44.3305 9.0295 44.1329 8.96897 43.9311 8.9724ZM38.8848 13.0974L38.0805 13.6887L38.383 14.6374L39.8198 19.0443L36.073 16.2943L35.2617 15.703L34.4505 16.2943L30.7036 19.0443L32.1405 14.6374L32.443 13.6887L31.6386 13.0974L27.8917 10.3474H33.5223L33.8317 9.39865L35.2617 4.99865L36.6917 9.39865L37.0011 10.3474H42.6317L38.8848 13.0974Z" fill="#F8C204"/>
<path d="M67.9311 8.9724H62.0117L60.183 3.3349C60.12 3.14396 59.9983 2.97776 59.8354 2.85994C59.6725 2.74213 59.4765 2.67871 59.2755 2.67871C59.0744 2.67871 58.8785 2.74213 58.7155 2.85994C58.5526 2.97776 58.431 3.14396 58.368 3.3349L56.5117 8.9724H50.5923C50.3912 8.97287 50.1953 9.0368 50.0326 9.15511C49.8699 9.27341 49.7486 9.44004 49.6862 9.63126C49.6237 9.82248 49.6232 10.0285 49.6846 10.2201C49.7461 10.4116 49.8665 10.5789 50.0286 10.698L54.8411 14.1837L52.9986 19.828C52.952 19.9714 52.9399 20.1237 52.9634 20.2726C52.9869 20.4215 53.0453 20.5627 53.1337 20.6847C53.2222 20.8067 53.3383 20.9061 53.4726 20.9747C53.6068 21.0432 53.7554 21.0791 53.9061 21.0793C54.1023 21.0708 54.2915 21.0038 54.4492 20.8868L59.2617 17.4012L64.0742 20.8868C64.2366 21.0039 64.4309 21.0687 64.6311 21.0724C64.7818 21.0722 64.9304 21.0364 65.0646 20.9678C65.1988 20.8992 65.3149 20.7999 65.4034 20.6778C65.4919 20.5558 65.5503 20.4146 65.5738 20.2657C65.5973 20.1168 65.5852 19.9645 65.5386 19.8212L63.7098 14.1768L68.5224 10.6912C68.6835 10.5697 68.8021 10.4004 68.8611 10.2075C68.9202 10.0145 68.9166 9.80784 68.851 9.61703C68.7853 9.42623 68.661 9.26109 68.4958 9.14529C68.3305 9.0295 68.1329 8.96897 67.9311 8.9724ZM62.8848 13.0974L62.0805 13.6887L62.383 14.6374L63.8198 19.0443L60.073 16.2943L59.2617 15.703L58.4505 16.2943L54.7036 19.0443L56.1405 14.6374L56.443 13.6887L55.6386 13.0974L51.8917 10.3474H57.5223L57.8317 9.39865L59.2617 4.99865L60.6917 9.39865L61.0011 10.3474H66.6317L62.8848 13.0974Z" fill="#F8C204"/>
<path d="M91.9311 8.9724H86.0117L84.183 3.3349C84.12 3.14396 83.9983 2.97776 83.8354 2.85994C83.6725 2.74213 83.4765 2.67871 83.2755 2.67871C83.0744 2.67871 82.8785 2.74213 82.7155 2.85994C82.5526 2.97776 82.431 3.14396 82.368 3.3349L80.5117 8.9724H74.5923C74.3912 8.97287 74.1953 9.0368 74.0326 9.15511C73.8699 9.27341 73.7486 9.44004 73.6862 9.63126C73.6237 9.82248 73.6232 10.0285 73.6846 10.2201C73.7461 10.4116 73.8665 10.5789 74.0286 10.698L78.8411 14.1837L76.9986 19.828C76.952 19.9714 76.9399 20.1237 76.9634 20.2726C76.9869 20.4215 77.0453 20.5627 77.1337 20.6847C77.2222 20.8067 77.3383 20.9061 77.4726 20.9747C77.6068 21.0432 77.7554 21.0791 77.9061 21.0793C78.1023 21.0708 78.2915 21.0038 78.4492 20.8868L83.2617 17.4012L88.0742 20.8868C88.2366 21.0039 88.4309 21.0687 88.6311 21.0724C88.7818 21.0722 88.9304 21.0364 89.0646 20.9678C89.1988 20.8992 89.3149 20.7999 89.4034 20.6778C89.4919 20.5558 89.5503 20.4146 89.5738 20.2657C89.5973 20.1168 89.5852 19.9645 89.5386 19.8212L87.7098 14.1768L92.5224 10.6912C92.6835 10.5697 92.8021 10.4004 92.8611 10.2075C92.9202 10.0145 92.9166 9.80784 92.851 9.61703C92.7853 9.42623 92.661 9.26109 92.4958 9.14529C92.3305 9.0295 92.1329 8.96897 91.9311 8.9724ZM86.8848 13.0974L86.0805 13.6887L86.383 14.6374L87.8198 19.0443L84.073 16.2943L83.2617 15.703L82.4505 16.2943L78.7036 19.0443L80.1405 14.6374L80.443 13.6887L79.6386 13.0974L75.8917 10.3474H81.5223L81.8317 9.39865L83.2617 4.99865L84.6917 9.39865L85.0011 10.3474H90.6317L86.8848 13.0974Z" fill="#F8C204"/>
<path d="M115.931 8.9724H110.012L108.183 3.3349C108.12 3.14396 107.998 2.97776 107.835 2.85994C107.672 2.74213 107.477 2.67871 107.275 2.67871C107.074 2.67871 106.878 2.74213 106.716 2.85994C106.553 2.97776 106.431 3.14396 106.368 3.3349L104.512 8.9724H98.5923C98.3912 8.97287 98.1953 9.0368 98.0326 9.15511C97.8699 9.27341 97.7486 9.44004 97.6862 9.63126C97.6237 9.82248 97.6232 10.0285 97.6846 10.2201C97.7461 10.4116 97.8665 10.5789 98.0286 10.698L102.841 14.1837L100.999 19.828C100.952 19.9714 100.94 20.1237 100.963 20.2726C100.987 20.4215 101.045 20.5627 101.134 20.6847C101.222 20.8067 101.338 20.9061 101.473 20.9747C101.607 21.0432 101.755 21.0791 101.906 21.0793C102.102 21.0708 102.291 21.0038 102.449 20.8868L107.262 17.4012L112.074 20.8868C112.237 21.0039 112.431 21.0687 112.631 21.0724C112.782 21.0722 112.93 21.0364 113.065 20.9678C113.199 20.8992 113.315 20.7999 113.403 20.6778C113.492 20.5558 113.55 20.4146 113.574 20.2657C113.597 20.1168 113.585 19.9645 113.539 19.8212L111.71 14.1768L116.522 10.6912C116.684 10.5697 116.802 10.4004 116.861 10.2075C116.92 10.0145 116.917 9.80784 116.851 9.61703C116.785 9.42623 116.661 9.26109 116.496 9.14529C116.331 9.0295 116.133 8.96897 115.931 8.9724ZM110.885 13.0974L110.08 13.6887L110.383 14.6374L111.82 19.0443L108.073 16.2943L107.262 15.703L106.45 16.2943L102.704 19.0443L104.14 14.6374L104.443 13.6887L103.639 13.0974L99.8917 10.3474H105.522L105.832 9.39865L107.262 4.99865L108.692 9.39865L109.001 10.3474H114.632L110.885 13.0974Z" fill="#F8C204"/>
</svg>
