<svg width="45" height="43" viewBox="0 0 45 43" fill="none" xmlns="http://www.w3.org/2000/svg">
<path fill-rule="evenodd" clip-rule="evenodd" d="M35.0818 24.1191C34.6674 24.1191 34.27 24.2837 33.977 24.5768C33.6839 24.8698 33.5193 25.2672 33.5193 25.6816C33.5193 26.096 33.6839 26.4934 33.977 26.7865C34.27 27.0795 34.6674 27.2441 35.0818 27.2441C35.4962 27.2441 35.8936 27.0795 36.1866 26.7865C36.4796 26.4934 36.6443 26.096 36.6443 25.6816C36.6443 25.2672 36.4796 24.8698 36.1866 24.5768C35.8936 24.2837 35.4962 24.1191 35.0818 24.1191Z" fill="#231F20"/>
<path fill-rule="evenodd" clip-rule="evenodd" d="M30.3943 24.1191C29.9799 24.1191 29.5825 24.2837 29.2895 24.5768C28.9964 24.8698 28.8318 25.2672 28.8318 25.6816C28.8318 26.096 28.9964 26.4934 29.2895 26.7865C29.5825 27.0795 29.9799 27.2441 30.3943 27.2441C30.8087 27.2441 31.2061 27.0795 31.4991 26.7865C31.7921 26.4934 31.9568 26.096 31.9568 25.6816C31.9568 25.2672 31.7921 24.8698 31.4991 24.5768C31.2061 24.2837 30.8087 24.1191 30.3943 24.1191Z" fill="#231F20"/>
<path fill-rule="evenodd" clip-rule="evenodd" d="M25.7068 24.1191C25.2924 24.1191 24.895 24.2837 24.602 24.5768C24.3089 24.8698 24.1443 25.2672 24.1443 25.6816C24.1443 26.096 24.3089 26.4934 24.602 26.7865C24.895 27.0795 25.2924 27.2441 25.7068 27.2441C26.1212 27.2441 26.5186 27.0795 26.8116 26.7865C27.1046 26.4934 27.2693 26.096 27.2693 25.6816C27.2693 25.2672 27.1046 24.8698 26.8116 24.5768C26.5186 24.2837 26.1212 24.1191 25.7068 24.1191Z" fill="#231F20"/>
<path fill-rule="evenodd" clip-rule="evenodd" d="M19.4568 10.0566C19.0424 10.0566 18.645 10.2212 18.352 10.5143C18.0589 10.8073 17.8943 11.2047 17.8943 11.6191C17.8943 12.0335 18.0589 12.4309 18.352 12.724C18.645 13.017 19.0424 13.1816 19.4568 13.1816C19.8712 13.1816 20.2686 13.017 20.5616 12.724C20.8546 12.4309 21.0193 12.0335 21.0193 11.6191C21.0193 11.2047 20.8546 10.8073 20.5616 10.5143C20.2686 10.2212 19.8712 10.0566 19.4568 10.0566Z" fill="#231F20"/>
<path fill-rule="evenodd" clip-rule="evenodd" d="M14.7693 10.0566C14.3549 10.0566 13.9575 10.2212 13.6645 10.5143C13.3714 10.8073 13.2068 11.2047 13.2068 11.6191C13.2068 12.0335 13.3714 12.4309 13.6645 12.724C13.9575 13.017 14.3549 13.1816 14.7693 13.1816C15.1837 13.1816 15.5811 13.017 15.8741 12.724C16.1671 12.4309 16.3318 12.0335 16.3318 11.6191C16.3318 11.2047 16.1671 10.8073 15.8741 10.5143C15.5811 10.2212 15.1837 10.0566 14.7693 10.0566Z" fill="#231F20"/>
<path fill-rule="evenodd" clip-rule="evenodd" d="M10.0818 10.0566C9.66739 10.0566 9.26998 10.2212 8.97696 10.5143C8.68393 10.8073 8.51929 11.2047 8.51929 11.6191C8.51929 12.0335 8.68393 12.4309 8.97696 12.724C9.26998 13.017 9.66739 13.1816 10.0818 13.1816C10.4962 13.1816 10.8936 13.017 11.1866 12.724C11.4796 12.4309 11.6443 12.0335 11.6443 11.6191C11.6443 11.2047 11.4796 10.8073 11.1866 10.5143C10.8936 10.2212 10.4962 10.0566 10.0818 10.0566Z" fill="#231F20"/>
<path fill-rule="evenodd" clip-rule="evenodd" d="M3.92334 0.681641C2.21479 0.681641 0.706787 2.05311 0.706787 3.80664V19.4316C0.706787 21.1852 2.21479 22.5566 3.92334 22.5566H6.95679V27.2441C6.95691 27.5531 7.04863 27.8551 7.22034 28.1119C7.39204 28.3688 7.63603 28.569 7.92148 28.6872C8.20693 28.8055 8.521 28.8364 8.82403 28.7762C9.12707 28.716 9.40548 28.5673 9.62402 28.3489L15.4163 22.5566H16.3318V33.4941C16.3318 35.2472 17.8398 36.6191 19.5483 36.6191H27.1747L32.9669 42.4113C33.1855 42.6297 33.4639 42.7785 33.7669 42.8387C34.07 42.8989 34.384 42.8679 34.6695 42.7497C34.9549 42.6315 35.1989 42.4313 35.3706 42.1745C35.5423 41.9176 35.634 41.6156 35.6342 41.3066V36.6191H41.2402C42.9488 36.6191 44.4568 35.2472 44.4568 33.4941V17.8691C44.4568 16.116 42.9488 14.7441 41.2402 14.7441H28.8318V3.80664C28.8318 2.05311 27.3238 0.681641 25.6152 0.681641H3.92334ZM3.92334 3.80664H25.6152C25.6776 3.80664 25.6994 3.81291 25.7068 3.81603V19.4227C25.699 19.4258 25.6776 19.4321 25.6152 19.4321H14.7693C14.3549 19.4321 13.9575 19.5968 13.6646 19.8898L10.0818 23.4722V20.9941C10.0817 20.5797 9.91714 20.1823 9.62412 19.8893C9.3311 19.5963 8.93367 19.4317 8.51929 19.4316H3.92334C3.861 19.4316 3.83913 19.4254 3.83179 19.4222V3.81556C3.8396 3.81243 3.861 3.80664 3.92334 3.80664ZM28.8318 17.8691H41.2402C41.3026 17.8691 41.3244 17.8754 41.3318 17.8785V33.4852C41.324 33.4883 41.3026 33.4945 41.2402 33.4945H34.0717C33.6573 33.4946 33.2599 33.6592 32.9669 33.9523C32.6739 34.2453 32.5092 34.6427 32.5092 35.057V37.5351L28.9264 33.9523C28.6334 33.6593 28.236 33.4946 27.8217 33.4945H19.5483C19.486 33.4945 19.4641 33.4883 19.4568 33.4852V22.5569H25.6152C27.3238 22.5569 28.8318 21.1854 28.8318 19.4319V17.8691Z" fill="#231F20"/>
</svg>
