<svg width="23" height="48" viewBox="0 0 23 48" fill="none" xmlns="http://www.w3.org/2000/svg">
<circle cx="11.1602" cy="38.1484" r="8" stroke="#D7282F" stroke-width="2"/>
<path fill-rule="evenodd" clip-rule="evenodd" d="M11.25 6.25C8.48858 6.25 6.25001 8.48858 6.25001 11.25C6.25001 14.0114 8.48858 16.25 11.25 16.25C14.0114 16.25 16.25 14.0114 16.25 11.25C16.25 8.48858 14.0114 6.25 11.25 6.25ZM11.25 8.75C9.86926 8.75 8.75001 9.86929 8.75001 11.25C8.75001 12.6308 9.86926 13.75 11.25 13.75C12.6308 13.75 13.75 12.6308 13.75 11.25C13.75 9.86929 12.6308 8.75 11.25 8.75Z" fill="#D7282F"/>
<path fill-rule="evenodd" clip-rule="evenodd" d="M10.1126 26.9948C10.2574 27.0941 10.3726 27.1708 10.4533 27.2235L10.5859 27.309C10.9916 27.563 11.5076 27.5635 11.9134 27.3095L12.0469 27.2235C12.1274 27.1708 12.2426 27.0941 12.3874 26.9948C12.6769 26.7959 13.0856 26.5051 13.5739 26.1301C14.5483 25.3818 15.8501 24.2903 17.1559 22.917C19.7321 20.2076 22.5 16.2156 22.5 11.4773C22.5 8.44227 21.3214 5.52605 19.2149 3.3716C17.1074 1.2162 14.2429 0 11.25 0C8.25714 0 5.39269 1.2162 3.28517 3.3716C1.1786 5.52605 0 8.44227 0 11.4773C0 16.2156 2.76792 20.2076 5.34414 22.917C6.64991 24.2903 7.9517 25.3818 8.92612 26.1301C9.41437 26.5051 9.82313 26.7959 10.1126 26.9948ZM11.25 2.5C8.9385 2.5 6.71591 3.43884 5.07269 5.1194C3.42854 6.80092 2.5 9.0874 2.5 11.4773C2.5 15.2509 4.73208 18.6453 7.15586 21.1943C8.35009 22.4503 9.54825 23.4558 10.4489 24.1474C10.7558 24.3831 11.0269 24.5814 11.25 24.7398C11.4731 24.5814 11.7442 24.3831 12.0511 24.1474C12.9517 23.4558 14.1499 22.4503 15.3441 21.1943C17.7679 18.6453 20 15.2509 20 11.4773C20 9.0874 19.0715 6.80092 17.4272 5.1194C15.7841 3.43884 13.5615 2.5 11.25 2.5Z" fill="#D7282F"/>
</svg>
