<svg width="166" height="165" viewBox="0 0 166 165" fill="none" xmlns="http://www.w3.org/2000/svg">
<g opacity="0.1">
<mask id="mask0_234_3031" style="mask-type:luminance" maskUnits="userSpaceOnUse" x="2" y="1" width="162" height="162">
<path d="M163.262 1.6283H2.60413V162.286H163.262V1.6283Z" fill="white"/>
</mask>
<g mask="url(#mask0_234_3031)">
<path d="M157.55 55.1804H147.552C144.397 55.1804 141.841 57.7365 141.841 60.8915V63.2137H106.21L100.675 48.4518C106.214 43.5465 109.709 36.3859 109.709 28.4045C109.71 13.6152 97.7223 1.6283 82.9331 1.6283C68.1434 1.6283 56.1566 13.6152 56.1566 28.4045C56.1566 36.3859 59.652 43.5465 65.1908 48.4518L59.6559 63.2137H24.0253V60.8915C24.0253 57.7365 21.4691 55.1804 18.314 55.1804H8.31543C5.16041 55.1804 2.60413 57.737 2.60413 60.8915V108.377C2.60413 111.532 5.16041 114.088 8.31543 114.088H18.3137C21.4687 114.088 24.025 111.532 24.025 108.377V106.056H29.3803V124.799H27.0595C23.9044 124.799 21.3481 127.356 21.3481 130.511V140.509C21.3481 143.664 23.9044 146.22 27.0595 146.22H29.3809V156.575C29.3809 159.73 31.9372 162.286 35.0922 162.286H66.5117C69.6666 162.286 72.2228 159.73 72.2228 156.575V146.22H74.5446C77.6995 146.22 80.2557 143.664 80.2557 140.509V130.511C80.2557 127.356 77.6995 124.799 74.5446 124.799H72.2224V106.056H93.6433V124.799H91.3225C88.1675 124.799 85.6113 127.356 85.6113 130.511V140.509C85.6113 143.664 88.1675 146.22 91.3225 146.22H93.6442V156.575C93.6442 159.73 96.2004 162.286 99.3554 162.286H130.775C133.93 162.286 136.486 159.73 136.486 156.575V146.22H138.808C141.963 146.22 144.519 143.664 144.519 140.509V130.511C144.519 127.356 141.963 124.799 138.808 124.799H136.486V106.056H141.841V108.377C141.841 111.532 144.397 114.088 147.552 114.088H157.55C160.705 114.088 163.262 111.532 163.262 108.377V60.8915C163.262 57.737 160.705 55.1804 157.55 55.1804ZM61.6841 31.0823H64.1895C65.6684 31.0823 66.8669 29.8834 66.8669 28.4048C66.8669 26.9261 65.668 25.7273 64.1895 25.7273H61.6841C63.0024 15.1606 72.0088 6.98389 82.9331 6.98389C93.8569 6.98389 102.863 15.1606 104.182 25.7273H101.676C100.197 25.7273 98.9989 26.9261 98.9989 28.4048C98.9989 29.8834 100.198 31.0823 101.676 31.0823H104.182C102.973 40.771 95.2994 48.4444 85.6108 49.6528V47.1479C85.6108 45.669 84.412 44.4705 82.9331 44.4705C81.4546 44.4705 80.2557 45.6694 80.2557 47.1479V49.6528C70.5668 48.4444 62.8934 40.771 61.6841 31.0823ZM69.3531 52.6042C73.6657 54.2946 78.2449 55.1808 82.9331 55.1808C87.6208 55.1808 92.2 54.2946 96.5126 52.6042L100.49 63.2137H65.3758L69.3531 52.6042ZM18.67 108.377C18.67 108.574 18.5111 108.733 18.314 108.733H8.31543C8.11799 108.733 7.95942 108.574 7.95942 108.377V60.8915C7.95942 60.694 8.1183 60.5355 8.31543 60.5355H18.3137C18.5111 60.5355 18.6697 60.6944 18.6697 60.8915V65.891V103.378L18.67 108.377ZM66.8677 156.575C66.8677 156.772 66.7088 156.931 66.5117 156.931H35.0922C34.8948 156.931 34.7362 156.772 34.7362 156.575V146.22H66.8677V156.575ZM74.9006 130.511V140.509C74.9006 140.706 74.7417 140.865 74.5446 140.865H69.5455H32.0587H27.0595C26.862 140.865 26.7034 140.706 26.7034 140.509V130.511C26.7034 130.313 26.8623 130.155 27.0595 130.155H32.0581H69.5446H74.5446C74.7417 130.155 74.9006 130.313 74.9006 130.511ZM131.131 156.575C131.131 156.772 130.972 156.931 130.775 156.931H99.3554C99.1578 156.931 98.9993 156.772 98.9993 156.575V146.22H131.131V156.575ZM139.164 130.511V140.509C139.164 140.706 139.005 140.865 138.808 140.865H133.808H96.3215H91.3225C91.1249 140.865 90.9664 140.706 90.9664 140.509V130.511C90.9664 130.313 91.1253 130.155 91.3225 130.155H96.3211H133.808H138.807C139.005 130.155 139.164 130.313 139.164 130.511ZM133.808 100.7H128.453C126.974 100.7 125.775 101.899 125.775 103.378C125.775 104.857 126.974 106.055 128.453 106.055H131.13V124.799H98.9989V106.055H112.387C113.866 106.055 115.064 104.857 115.064 103.378C115.064 101.899 113.865 100.7 112.387 100.7H96.3211H69.5446H64.1895C62.7106 100.7 61.5122 101.899 61.5122 103.378C61.5122 104.857 62.711 106.055 64.1895 106.055H66.8669V124.799H34.7356V106.055H42.7683C44.2475 106.055 45.4459 104.857 45.4459 103.378C45.4459 101.899 44.2471 100.7 42.7683 100.7H32.0581H24.0253V68.5688H61.5122H104.354H141.841V100.7H133.808ZM157.907 108.377C157.907 108.574 157.748 108.733 157.551 108.733H147.552C147.355 108.733 147.197 108.574 147.197 108.377V103.378V65.8915V60.8915C147.197 60.694 147.355 60.5355 147.552 60.5355H157.551C157.748 60.5355 157.907 60.6944 157.907 60.8915V108.377Z" fill="#231F20"/>
<path d="M82.9261 36.4316C87.3611 36.4316 90.959 32.8338 90.959 28.3988C90.959 24.9031 88.7228 21.9286 85.6034 20.8251V17.6882C85.6034 16.2093 84.4046 15.0107 82.9261 15.0107C81.4476 15.0107 80.2487 16.2096 80.2487 17.6882V20.8251C77.1298 21.9286 74.8932 24.9028 74.8932 28.3988C74.8932 32.8334 78.4911 36.4316 82.9261 36.4316ZM82.9261 25.721C84.4037 25.721 85.6034 26.9215 85.6034 28.3985C85.6034 29.8755 84.4033 31.076 82.9261 31.076C81.4489 31.076 80.2487 29.8755 80.2487 28.3985C80.2487 26.9215 81.4489 25.721 82.9261 25.721Z" fill="#D7282F"/>
</g>
</g>
</svg>
