<svg width="75" height="67" viewBox="0 0 75 67" fill="none" xmlns="http://www.w3.org/2000/svg">
<g clip-path="url(#clip0_2289_5250)">
<path d="M74.9998 11.7568C74.4713 13.5472 73.9233 15.3376 73.4144 17.1479C71.0071 25.6422 68.6389 34.1565 66.2315 42.6508C65.8009 44.1627 65.1355 44.6799 63.5893 44.6799C51.3176 44.6799 39.0264 44.6799 26.7547 44.66C25.9327 44.66 25.5021 44.8789 25.1694 45.6547C24.3278 47.5644 25.2673 49.1559 27.3419 49.1559C39.3787 49.1559 51.4155 49.1559 63.4523 49.1559C65.1942 49.1559 66.2315 49.9914 66.2119 51.4038C66.2119 52.8162 65.1746 53.6318 63.4131 53.6318C61.0841 53.6318 58.7354 53.6318 56.2302 53.6318C60.2033 54.905 62.2975 57.8691 61.7299 61.231C61.1624 64.6924 58.4223 67.0796 55.0755 67.0199C51.7874 66.9602 49.0473 64.4338 48.6558 61.0321C48.3427 58.3664 49.7323 54.7458 54.1947 53.6517C47.4424 53.6517 40.8466 53.6517 34.1921 53.6517C37.9499 54.7657 40.1029 57.7099 39.6331 61.0719C39.1634 64.5134 36.4233 67 33.0961 67C29.7688 67 27.0092 64.5134 26.5395 61.0918C26.0697 57.7298 28.1835 54.8055 31.9022 53.6119C30.2777 53.6119 28.6728 53.6318 27.0483 53.6119C23.8581 53.592 21.2746 51.4635 20.57 48.3204C20.2177 46.6891 20.433 45.0778 21.2746 43.6455C21.8422 42.6707 21.8617 41.7954 21.5486 40.7212C18.2018 28.8649 14.8745 16.9887 11.5473 5.13242C11.4886 4.93349 11.4299 4.75445 11.332 4.45606C11.0971 4.45606 10.8427 4.45606 10.5883 4.45606C7.88731 4.45606 5.1668 4.45606 2.46586 4.45606C0.997962 4.45606 -0.0197828 3.54097 -0.000210824 2.20814C0.0193612 0.915083 0.997962 0 2.42672 0C5.8714 0 9.31607 0 12.7607 0C14.0916 0 14.8354 0.5769 15.2073 1.88985C15.8727 4.21734 16.5186 6.54483 17.184 8.93201C17.5168 8.93201 17.8299 8.93201 18.1431 8.93201C36.1297 8.93201 54.136 8.9519 72.1227 8.91211C73.4732 8.91211 74.4322 9.30998 74.9998 10.5632C74.9998 10.981 74.9998 11.359 74.9998 11.7568ZM69.8915 13.4477C52.7072 13.4477 35.6209 13.4477 18.4562 13.4477C20.981 22.3996 23.4666 31.2919 25.9719 40.1642C38.1652 40.1642 50.2607 40.1642 62.3758 40.1642C64.881 31.272 67.3667 22.3798 69.8915 13.4477ZM33.0961 62.5439C34.29 62.5439 35.2881 61.5493 35.3077 60.3358C35.3273 59.1024 34.29 58.068 33.0765 58.0879C31.8826 58.1078 30.904 59.1223 30.904 60.3358C30.9236 61.5294 31.9218 62.5439 33.0961 62.5439ZM57.4241 60.296C57.4241 59.0825 56.4259 58.0879 55.232 58.0879C54.0381 58.0879 53.04 59.1024 53.04 60.296C53.0204 61.5294 54.0577 62.5638 55.2712 62.5439C56.4455 62.5241 57.4241 61.4896 57.4241 60.296Z" fill="#9A9A9A"/>
</g>
<defs>
<clipPath id="clip0_2289_5250">
<rect width="75" height="67" fill="white"/>
</clipPath>
</defs>
</svg>
