<svg width="61" height="24" viewBox="0 0 61 24" fill="none" xmlns="http://www.w3.org/2000/svg">
<g clip-path="url(#clip0_1611_104)">
<mask id="mask0_1611_104" style="mask-type:luminance" maskUnits="userSpaceOnUse" x="0" y="0" width="61" height="24">
<path d="M60.3 0.5H0.5V23.5H60.3V0.5Z" fill="white"/>
</mask>
<g mask="url(#mask0_1611_104)">
<mask id="mask1_1611_104" style="mask-type:luminance" maskUnits="userSpaceOnUse" x="0" y="4" width="15" height="20">
<path d="M14.52 4.92969H0.5V23.4997H14.52V4.92969Z" fill="white"/>
</mask>
<g mask="url(#mask1_1611_104)">
<path d="M12.1001 23.5H2.83009C2.52589 23.5026 2.22418 23.4451 1.94225 23.3309C1.66033 23.2166 1.40376 23.0477 1.18727 22.834C0.970772 22.6203 0.798621 22.366 0.680695 22.0856C0.562769 21.8051 0.501392 21.5042 0.500086 21.2V7.29999C0.497435 6.9928 0.555819 6.68814 0.671849 6.40369C0.787879 6.11925 0.959245 5.86068 1.176 5.64299C1.39276 5.4253 1.65059 5.25283 1.93454 5.13558C2.21849 5.01834 2.52289 4.95865 2.83009 4.95999H12.1001C12.4059 4.95858 12.7089 5.01844 12.9912 5.13604C13.2735 5.25364 13.5294 5.4266 13.7438 5.64471C13.9582 5.86281 14.1267 6.12165 14.2394 6.40595C14.3521 6.69024 14.4068 6.99423 14.4001 7.29999V11.1L9.98009 10.54V8.53999H4.93009V19.91H9.98009V17.8L14.4001 17.25V21.2C14.4028 21.5028 14.3451 21.803 14.2304 22.0833C14.1158 22.3636 13.9465 22.6182 13.7324 22.8323C13.5183 23.0464 13.2637 23.2157 12.9834 23.3303C12.7032 23.445 12.4029 23.5027 12.1001 23.5Z" fill="#E31B23"/>
</g>
<mask id="mask2_1611_104" style="mask-type:luminance" maskUnits="userSpaceOnUse" x="15" y="4" width="15" height="20">
<path d="M29.77 4.92969H15.75V23.4997H29.77V4.92969Z" fill="white"/>
</mask>
<g mask="url(#mask2_1611_104)">
<path d="M25.3509 15.8502H20.1509V19.9102H25.3509V15.8502ZM27.3509 23.5002H18.1309C17.8263 23.5041 17.524 23.4476 17.2415 23.3338C16.959 23.22 16.7019 23.0512 16.4851 22.8372C16.2683 22.6232 16.0962 22.3683 15.9788 22.0873C15.8613 21.8063 15.8008 21.5047 15.8009 21.2002V14.4202C15.8112 14.1251 15.8797 13.8349 16.0025 13.5664C16.1254 13.2979 16.3001 13.0563 16.5166 12.8556C16.7332 12.6548 16.9873 12.4989 17.2643 12.3967C17.5413 12.2945 17.8358 12.2481 18.1309 12.2602H25.3509V8.55017H20.1509V10.5502L15.8009 11.1102V7.30017C15.7982 6.99298 15.8566 6.68832 15.9726 6.40388C16.0887 6.11943 16.26 5.86086 16.4768 5.64317C16.6935 5.42549 16.9514 5.25301 17.2353 5.13577C17.5193 5.01852 17.8237 4.95883 18.1309 4.96017H27.4009C27.9995 4.95211 28.5771 5.18088 29.0079 5.59668C29.4387 6.01247 29.6877 6.5816 29.7009 7.18017V21.0802C29.7157 21.3918 29.6673 21.7032 29.5585 21.9956C29.4497 22.2881 29.2828 22.5554 29.0679 22.7816C28.853 23.0077 28.5944 23.188 28.3079 23.3115C28.0214 23.435 27.7129 23.4992 27.4009 23.5002" fill="#E31B23"/>
</g>
<mask id="mask3_1611_104" style="mask-type:luminance" maskUnits="userSpaceOnUse" x="31" y="4" width="15" height="20">
<path d="M45.0317 4.92969H31.0117V23.4997H45.0317V4.92969Z" fill="white"/>
</mask>
<g mask="url(#mask3_1611_104)">
<path d="M42.7016 23.5H33.4316C33.1271 23.504 32.8248 23.4474 32.5423 23.3336C32.2597 23.2198 32.0026 23.051 31.7859 22.837C31.5691 22.6231 31.397 22.3682 31.2796 22.0871C31.1621 21.8061 31.1016 21.5046 31.1016 21.2V17.25L35.5216 17.8V19.91H40.5817V15.85H33.4316C33.1271 15.854 32.8248 15.7974 32.5423 15.6836C32.2597 15.5698 32.0026 15.401 31.7859 15.187C31.5691 14.9731 31.397 14.7182 31.2796 14.4371C31.1621 14.1561 31.1016 13.8546 31.1016 13.55V7.29999C31.099 6.9928 31.1574 6.68814 31.2734 6.40369C31.3894 6.11925 31.5608 5.86068 31.7776 5.64299C31.9943 5.4253 32.2522 5.25283 32.5361 5.13558C32.82 5.01834 33.1245 4.95865 33.4316 4.95999H42.7016C43.0075 4.95858 43.3105 5.01844 43.5928 5.13604C43.8751 5.25364 44.131 5.4266 44.3454 5.64471C44.5597 5.86281 44.7283 6.12165 44.841 6.40595C44.9537 6.69024 45.0083 6.99423 45.0016 7.29999V11.1L40.5817 10.54V8.53999H35.5016V12.25H42.7016C43.0096 12.2471 43.3149 12.3066 43.5992 12.425C43.8836 12.5433 44.1409 12.718 44.3559 12.9386C44.5708 13.1591 44.7389 13.4209 44.8498 13.7082C44.9608 13.9954 45.0125 14.3022 45.0016 14.61V21.22C45.0043 21.5228 44.9466 21.8231 44.832 22.1033C44.7174 22.3836 44.548 22.6382 44.3339 22.8523C44.1198 23.0664 43.8652 23.2357 43.585 23.3503C43.3047 23.465 43.0044 23.5227 42.7016 23.52" fill="#E31B23"/>
</g>
<mask id="mask4_1611_104" style="mask-type:luminance" maskUnits="userSpaceOnUse" x="46" y="0" width="15" height="24">
<path d="M60.2989 0.5H46.3789V23.5H60.2989V0.5Z" fill="white"/>
</mask>
<g mask="url(#mask4_1611_104)">
<path d="M55.8384 23.4998V8.5498H50.8384V23.5498H46.3984V0.549805H50.8584V4.9598H57.9684C58.262 4.94366 58.5558 4.98625 58.8327 5.08508C59.1095 5.1839 59.3639 5.33697 59.5809 5.53533C59.7979 5.73369 59.9731 5.97334 60.0963 6.24026C60.2195 6.50718 60.2882 6.796 60.2984 7.0898V23.4998H55.8384Z" fill="#E31B23"/>
</g>
</g>
</g>
<defs>
<clipPath id="clip0_1611_104">
<rect width="60" height="23" fill="white" transform="translate(0.5 0.5)"/>
</clipPath>
</defs>
</svg>
