<svg width="51" height="51" viewBox="0 0 51 51" fill="none" xmlns="http://www.w3.org/2000/svg">
<path d="M48.6436 2.08789H26.7686C26.6285 2.08793 26.4908 2.12571 26.3703 2.19727L5.46086 14.5878H3.33118C3.12398 14.5878 2.92526 14.6703 2.77875 14.8167C2.63224 14.9632 2.54993 15.1619 2.54993 15.3692V18.4942C2.54993 18.7013 2.63224 18.9001 2.77875 19.0466C2.92526 19.1931 3.12398 19.2754 3.33118 19.2754H4.11243V21.6192C4.11243 21.8263 4.19474 22.0251 4.34125 22.1716C4.48776 22.3181 4.68648 22.4004 4.89367 22.4004V41.1504C4.68648 41.1504 4.48776 41.2327 4.34125 41.3792C4.19474 41.5257 4.11243 41.7244 4.11243 41.9316V44.2754H3.33118C3.12398 44.2754 2.92526 44.3577 2.77875 44.5042C2.63224 44.6507 2.54993 44.8494 2.54993 45.0566V48.1816C2.54993 48.3889 2.63224 48.5876 2.77875 48.734C2.92526 48.8805 3.12398 48.963 3.33118 48.963H48.6436C48.8509 48.963 49.0496 48.8805 49.1961 48.734C49.3426 48.5876 49.425 48.3889 49.425 48.1816V2.86915C49.425 2.66194 49.3426 2.46323 49.1961 2.31671C49.0496 2.1702 48.8509 2.08789 48.6436 2.08789ZM47.8624 44.2754H27.5499V3.65039H47.8624V44.2754ZM9.58118 41.1504V22.4004C9.78837 22.4004 9.98709 22.3181 10.1336 22.1716C10.2801 22.0251 10.3624 21.8263 10.3624 21.6192V19.2754H25.9874V25.5254H18.9562C18.7489 25.5254 18.5503 25.6077 18.4038 25.7542C18.2573 25.9007 18.175 26.0994 18.175 26.3066V44.2754H10.3624V41.9316C10.3624 41.7244 10.2801 41.5257 10.1336 41.3792C9.98709 41.2327 9.78837 41.1504 9.58118 41.1504ZM25.9874 12.1004C25.5308 11.9413 25.1349 11.644 24.8549 11.2498C24.5747 10.8556 24.4242 10.384 24.4242 9.90039C24.4242 9.4168 24.5747 8.94519 24.8549 8.55097C25.1349 8.15676 25.5308 7.85949 25.9874 7.70039V12.1004ZM19.7374 27.0878H25.9874V44.2754H19.7374V27.0878ZM25.9874 4.24023V6.07227C25.1045 6.25158 24.3105 6.73065 23.7403 7.42831C23.17 8.12599 22.8585 8.99934 22.8585 9.90039C22.8585 10.8014 23.17 11.6748 23.7403 12.3725C24.3105 13.0701 25.1045 13.5492 25.9874 13.7285V14.5878H8.52571L25.9874 4.24023ZM4.11243 16.1504H25.9874V17.713H4.11243V16.1504ZM8.79993 19.2754V20.8378H5.67493V19.2754H8.79993ZM6.45618 22.4004H8.01867V41.1504H6.45618V22.4004ZM5.67493 42.713H8.79993V44.2754H5.67493V42.713ZM47.8624 47.4004H4.11243V45.8378H47.8624V47.4004Z" fill="#231F20"/>
<path d="M45.4183 38.8066H39.266C39.0587 38.8066 38.8601 38.8889 38.7136 39.0356C38.5671 39.182 38.4847 39.3807 38.4847 39.5879H36.9223C36.9223 39.3807 36.84 39.182 36.6935 39.0356C36.5468 38.8889 36.3482 38.8066 36.141 38.8066H29.9886C29.8674 38.8066 29.7478 38.8349 29.6393 38.8892C29.5308 38.9434 29.4364 39.0222 29.3636 39.1192C29.2909 39.2162 29.2417 39.3288 29.22 39.4481C29.1983 39.5675 29.2047 39.6903 29.2386 39.8066L29.5941 41.0254C29.7381 41.5111 30.0346 41.9376 30.4398 42.2415C30.8451 42.5454 31.3375 42.7108 31.8441 42.713H43.5629C44.0694 42.7108 44.5618 42.5454 44.9671 42.2415C45.3724 41.9376 45.669 41.5111 45.8129 41.0254L46.1683 39.8066C46.2023 39.6903 46.2087 39.5675 46.187 39.4481C46.1654 39.3288 46.1162 39.2162 46.0433 39.1192C45.9706 39.0222 45.8762 38.9434 45.7678 38.8892C45.6593 38.8349 45.5397 38.8066 45.4183 38.8066ZM31.8441 41.1504C31.6752 41.1496 31.511 41.0943 31.3759 40.993C31.2408 40.8915 31.142 40.7492 31.0941 40.5872L31.0309 40.3692H35.3597C35.3597 40.5764 35.4421 40.7752 35.5886 40.9216C35.7351 41.0681 35.9337 41.1504 36.141 41.1504H31.8441ZM44.3129 40.5872C44.265 40.7492 44.1662 40.8915 44.0312 40.993C43.896 41.0943 43.7318 41.1496 43.5629 41.1504H39.266C39.4732 41.1504 39.6718 41.0681 39.8185 40.9216C39.965 40.7752 40.0473 40.5764 40.0473 40.3692H44.3762L44.3129 40.5872Z" fill="#D7282F"/>
<path d="M31.4562 38.0255H43.9562C44.5778 38.0255 45.1739 37.7786 45.6135 37.339C46.053 36.8995 46.2999 36.3033 46.2999 35.6817V29.4317C46.298 28.9487 46.1468 28.478 45.867 28.0842C45.5873 27.6905 45.1928 27.3928 44.7374 27.2317V26.3067C44.7374 26.1325 44.679 25.9632 44.5718 25.8259C44.4645 25.6886 44.3143 25.5911 44.1453 25.5488L43.6234 25.4184L43.9007 24.9567C43.9901 24.8073 44.0272 24.6324 44.0058 24.4595C43.9845 24.2867 43.9059 24.1259 43.7827 24.0028L41.5726 21.7926C41.4495 21.6695 41.2888 21.591 41.1159 21.5696C40.9431 21.5483 40.7681 21.5852 40.6186 21.6746L40.157 21.9521L40.0265 21.4302C39.9843 21.261 39.8869 21.1109 39.7495 21.0036C39.6122 20.8963 39.443 20.838 39.2686 20.8379H36.1436C35.9695 20.838 35.8001 20.8963 35.6628 21.0036C35.5255 21.1109 35.4281 21.261 35.3858 21.4302L35.2554 21.9521L34.7936 21.6746C34.6443 21.5852 34.4693 21.5483 34.2965 21.5696C34.1236 21.591 33.9628 21.6695 33.8397 21.7926L31.6296 24.0028C31.5065 24.1259 31.428 24.2867 31.4066 24.4595C31.3853 24.6324 31.4222 24.8073 31.5116 24.9567L31.789 25.4184L31.2672 25.5488C31.098 25.5911 30.9478 25.6886 30.8405 25.8259C30.7332 25.9632 30.675 26.1325 30.675 26.3067V27.2317C30.2196 27.3928 29.825 27.6905 29.5453 28.0842C29.2657 28.478 29.1145 28.9487 29.1124 29.4317V35.6817C29.1124 36.3033 29.3593 36.8995 29.7989 37.339C30.2384 37.7786 30.8346 38.0255 31.4562 38.0255ZM32.2374 26.9168L33.1905 26.6825C33.309 26.6529 33.4189 26.596 33.5113 26.5163C33.6038 26.4365 33.6763 26.3363 33.7231 26.2234C33.7697 26.1106 33.7895 25.9884 33.7804 25.8667C33.7713 25.7449 33.7339 25.6269 33.6711 25.5223L33.1655 24.6802L34.5132 23.3325L35.3554 23.838C35.4601 23.9009 35.578 23.9383 35.6997 23.9473C35.8215 23.9563 35.9436 23.9367 36.0565 23.8899C36.1693 23.8433 36.2696 23.7707 36.3493 23.6783C36.429 23.5859 36.4859 23.476 36.5155 23.3575L36.75 22.4044H38.6546L38.889 23.3575C38.9185 23.476 38.9755 23.5859 39.0553 23.6783C39.135 23.7707 39.2353 23.8433 39.348 23.8899C39.4608 23.9367 39.583 23.9563 39.7047 23.9473C39.8265 23.9383 39.9445 23.9009 40.0492 23.838L40.8913 23.3325L42.2397 24.6802L41.7335 25.5223C41.6707 25.6269 41.6332 25.7449 41.6242 25.8667C41.6151 25.9884 41.6347 26.1106 41.6815 26.2234C41.7282 26.3363 41.8007 26.4365 41.8932 26.5163C41.9857 26.596 42.0955 26.6529 42.214 26.6825L43.1672 26.9168V28.8215L42.214 29.0559C42.0955 29.0855 41.9857 29.1425 41.8932 29.2222C41.8007 29.3019 41.7282 29.4022 41.6815 29.5149C41.6347 29.6278 41.6151 29.7499 41.6242 29.8717C41.6332 29.9934 41.6707 30.1114 41.7335 30.2161L42.2397 31.0583L40.8913 32.4067L40.0492 31.9005C39.9445 31.8376 39.8265 31.8002 39.7047 31.7911C39.583 31.7821 39.4608 31.8017 39.348 31.8484C39.2353 31.8952 39.135 31.9676 39.0553 32.0602C38.9755 32.1526 38.9185 32.2625 38.889 32.3809L38.6546 33.3341H36.7538L36.5195 32.3809C36.4899 32.2625 36.433 32.1526 36.3532 32.0602C36.2735 31.9676 36.1732 31.8952 36.0604 31.8484C35.9476 31.8017 35.8254 31.7821 35.7036 31.7911C35.5819 31.8002 35.4639 31.8376 35.3593 31.9005L34.5172 32.4067L33.1695 31.0583L33.675 30.2161C33.7378 30.1114 33.7753 29.9934 33.7843 29.8717C33.7932 29.7499 33.7736 29.6278 33.7269 29.5149C33.6803 29.4022 33.6077 29.3019 33.5153 29.2222C33.4228 29.1425 33.313 29.0855 33.1945 29.0559L32.2413 28.8215L32.2374 26.9168ZM30.675 29.4317C30.675 29.606 30.7332 29.7752 30.8405 29.9125C30.9478 30.0499 31.098 30.1474 31.2672 30.1895L31.789 30.3201L31.5116 30.7817C31.4222 30.9311 31.3853 31.1061 31.4066 31.279C31.428 31.4518 31.5065 31.6125 31.6296 31.7356L33.8397 33.9457C33.9628 34.069 34.1236 34.1475 34.2965 34.1688C34.4693 34.1902 34.6443 34.1532 34.7936 34.0637L35.2554 33.7864L35.3858 34.3083C35.4281 34.4774 35.5255 34.6275 35.6628 34.7348C35.8001 34.8421 35.9695 34.9005 36.1436 34.9005H39.2686C39.443 34.9005 39.6122 34.8421 39.7495 34.7348C39.8869 34.6275 39.9843 34.4774 40.0265 34.3083L40.157 33.7864L40.6186 34.0637C40.7681 34.1532 40.9431 34.1902 41.1159 34.1688C41.2888 34.1475 41.4495 34.069 41.5726 33.9457L43.7827 31.7356C43.9059 31.6125 43.9845 31.4518 44.0058 31.279C44.0272 31.1061 43.9901 30.9311 43.9007 30.7817L43.6234 30.3201L44.1453 30.1895C44.3143 30.1474 44.4645 30.0499 44.5718 29.9125C44.679 29.7752 44.7374 29.606 44.7374 29.4317V35.6817C44.7374 35.889 44.6551 36.0876 44.5086 36.2341C44.3622 36.3806 44.1634 36.463 43.9562 36.463H31.4562C31.2489 36.463 31.0503 36.3806 30.9038 36.2341C30.7573 36.0876 30.675 35.889 30.675 35.6817V29.4317Z" fill="#231F20"/>
<path d="M37.7046 6.7768C39.039 6.77463 40.3605 7.03644 41.5933 7.54716C42.826 8.05788 43.9456 8.8074 44.8874 9.75258L45.9905 8.64477C43.7929 6.44736 40.8123 5.21289 37.7046 5.21289C34.5968 5.21289 31.6163 6.44736 29.4187 8.64477L30.5218 9.75258C31.4637 8.8074 32.5832 8.05788 33.8159 7.54716C35.0487 7.03644 36.3702 6.77463 37.7046 6.7768Z" fill="#231F20"/>
<path d="M43.7819 10.856C42.9843 10.0577 42.0371 9.4244 40.9946 8.99234C39.9521 8.56028 38.8347 8.33789 37.7062 8.33789C36.5777 8.33789 35.4602 8.56028 34.4177 8.99234C33.3751 9.4244 32.4279 10.0577 31.6304 10.856L32.7351 11.9607C34.0536 10.6425 35.8417 9.902 37.7062 9.902C39.5705 9.902 41.3586 10.6425 42.6773 11.9607L43.7819 10.856Z" fill="#D7282F"/>
<path d="M41.5712 13.0691C41.0641 12.56 40.4615 12.156 39.7979 11.8804C39.1342 11.6048 38.4227 11.4629 37.7041 11.4629C36.9856 11.4629 36.2739 11.6048 35.6103 11.8804C34.9468 12.156 34.3441 12.56 33.8369 13.0691L34.9462 14.169C35.3083 13.8065 35.7381 13.5189 36.2114 13.3226C36.6845 13.1264 37.1918 13.0254 37.7041 13.0254C38.2164 13.0254 38.7237 13.1264 39.1969 13.3226C39.67 13.5189 40.1 13.8065 40.4619 14.169L41.5712 13.0691Z" fill="#231F20"/>
<path d="M35.3624 16.9317C35.3624 17.3953 35.4999 17.8484 35.7574 18.2338C36.015 18.6192 36.3809 18.9196 36.8093 19.0971C37.2376 19.2744 37.7088 19.3209 38.1634 19.2305C38.6181 19.1401 39.0357 18.9168 39.3635 18.589C39.6912 18.2613 39.9145 17.8436 40.0049 17.389C40.0953 16.9342 40.0489 16.463 39.8715 16.0348C39.6942 15.6065 39.3938 15.2405 39.0082 14.9829C38.6228 14.7255 38.1697 14.5879 37.7062 14.5879C37.0846 14.588 36.4884 14.8349 36.0489 15.2744C35.6093 15.714 35.3624 16.3101 35.3624 16.9317ZM38.4874 16.9317C38.4874 17.0863 38.4416 17.2372 38.3558 17.3657C38.2699 17.4942 38.148 17.5944 38.0051 17.6534C37.8624 17.7126 37.7053 17.728 37.5538 17.6979C37.4022 17.6678 37.263 17.5934 37.1538 17.4841C37.0445 17.3749 36.9701 17.2357 36.94 17.0841C36.9099 16.9326 36.9253 16.7755 36.9845 16.6328C37.0435 16.4899 37.1436 16.368 37.2722 16.2821C37.4007 16.1963 37.5516 16.1505 37.7062 16.1505C37.9134 16.1505 38.1122 16.2328 38.2586 16.3792C38.4051 16.5257 38.4874 16.7245 38.4874 16.9317Z" fill="#D7282F"/>
<path d="M37.7062 30.9942C38.3241 30.9942 38.9283 30.8109 39.4423 30.4674C39.9562 30.124 40.3567 29.6361 40.5932 29.065C40.8298 28.494 40.8917 27.8656 40.771 27.2594C40.6505 26.6532 40.3529 26.0965 39.9159 25.6594C39.4789 25.2224 38.922 24.9247 38.3158 24.8042C37.7096 24.6836 37.0813 24.7455 36.5102 24.982C35.9393 25.2185 35.4512 25.619 35.1078 26.1329C34.7644 26.6469 34.5812 27.2511 34.5812 27.8692C34.5812 28.6979 34.9104 29.4928 35.4964 30.0789C36.0825 30.6648 36.8774 30.9942 37.7062 30.9942ZM37.7062 26.3066C38.0152 26.3066 38.3173 26.3982 38.5743 26.57C38.8312 26.7416 39.0314 26.9856 39.1497 27.2712C39.2679 27.5567 39.2989 27.8709 39.2386 28.174C39.1783 28.477 39.0296 28.7555 38.811 28.974C38.5925 29.1925 38.314 29.3413 38.0109 29.4016C37.7079 29.4619 37.3937 29.4309 37.1082 29.3127C36.8227 29.1944 36.5786 28.9942 36.407 28.7373C36.2352 28.4802 36.1436 28.1782 36.1436 27.8692C36.1436 27.4547 36.3082 27.0573 36.6013 26.7643C36.8943 26.4712 37.2917 26.3066 37.7062 26.3066Z" fill="#D7282F"/>
</svg>
