<svg width="50" height="50" viewBox="0 0 50 50" fill="none" xmlns="http://www.w3.org/2000/svg">
<path d="M47.597 16.9967H44.5672C43.6112 16.9967 42.8364 17.7713 42.8364 18.7274V19.431H32.0392L30.3621 14.9577C32.0405 13.4713 33.0996 11.3014 33.0996 8.88278C33.0997 4.40121 29.4672 0.768799 24.9857 0.768799C20.504 0.768799 16.8716 4.40121 16.8716 8.88278C16.8716 11.3014 17.9308 13.4713 19.6092 14.9577L17.932 19.431H7.13482V18.7274C7.13482 17.7713 6.3602 16.9967 5.40412 16.9967H2.37425C1.41819 16.9967 0.643555 17.7714 0.643555 18.7274V33.1168C0.643555 34.0729 1.41819 34.8476 2.37425 34.8476H5.40403C6.36009 34.8476 7.13473 34.0729 7.13473 33.1168V32.4135H8.75754V38.0934H8.05427C7.09819 38.0934 6.32355 38.868 6.32355 39.8241V42.8538C6.32355 43.81 7.09819 44.5846 8.05427 44.5846H8.75774V47.7222C8.75774 48.6783 9.53236 49.4529 10.4884 49.4529H20.0095C20.9655 49.4529 21.7401 48.6783 21.7401 47.7222V44.5846H22.4437C23.3997 44.5846 24.1743 43.81 24.1743 42.8538V39.8241C24.1743 38.868 23.3997 38.0934 22.4437 38.0934H21.74V32.4135H28.2312V38.0934H27.5279C26.5718 38.0934 25.7972 38.868 25.7972 39.8241V42.8538C25.7972 43.81 26.5718 44.5846 27.5279 44.5846H28.2314V47.7222C28.2314 48.6783 29.0061 49.4529 29.9621 49.4529H39.4832C40.4392 49.4529 41.2138 48.6783 41.2138 47.7222V44.5846H41.9174C42.8734 44.5846 43.648 43.81 43.648 42.8538V39.8241C43.648 38.868 42.8734 38.0934 41.9174 38.0934H41.2137V32.4135H42.8364V33.1168C42.8364 34.0729 43.6112 34.8476 44.5672 34.8476H47.597C48.553 34.8476 49.3276 34.0729 49.3276 33.1168V18.7274C49.3278 17.7714 48.553 16.9967 47.597 16.9967ZM18.5466 9.69425H19.3058C19.754 9.69425 20.1171 9.33096 20.1171 8.88288C20.1171 8.43481 19.7538 8.07152 19.3058 8.07152H18.5466C18.9461 4.86948 21.6753 2.39171 24.9857 2.39171C28.2959 2.39171 31.025 4.86948 31.4246 8.07152H30.6654C30.2172 8.07152 29.8541 8.43481 29.8541 8.88288C29.8541 9.33096 30.2174 9.69425 30.6654 9.69425H31.4246C31.0583 12.6302 28.733 14.9555 25.7971 15.3217V14.5626C25.7971 14.1145 25.4338 13.7513 24.9857 13.7513C24.5376 13.7513 24.1743 14.1146 24.1743 14.5626V15.3217C21.2383 14.9555 18.913 12.6302 18.5466 9.69425ZM20.8705 16.216C22.1774 16.7283 23.565 16.9968 24.9857 16.9968C26.4062 16.9968 27.7938 16.7283 29.1007 16.216L30.3061 19.431H19.6653L20.8705 16.216ZM5.512 33.1168C5.512 33.1767 5.46386 33.2247 5.40412 33.2247H2.37425C2.31442 33.2247 2.26637 33.1766 2.26637 33.1168V18.7274C2.26637 18.6675 2.31452 18.6195 2.37425 18.6195H5.40403C5.46386 18.6195 5.51191 18.6676 5.51191 18.7274V20.2424V31.6021L5.512 33.1168ZM20.1174 47.7222C20.1174 47.7821 20.0692 47.8301 20.0095 47.8301H10.4884C10.4286 47.8301 10.3806 47.782 10.3806 47.7222V44.5846H20.1174V47.7222ZM22.5516 39.8241V42.8538C22.5516 42.9137 22.5034 42.9617 22.4437 42.9617H20.9288H9.56919H8.05427C7.99442 42.9617 7.94637 42.9135 7.94637 42.8538V39.8241C7.94637 39.7642 7.99452 39.7162 8.05427 39.7162H9.569H20.9286H22.4437C22.5034 39.7162 22.5516 39.7642 22.5516 39.8241ZM39.5911 47.7222C39.5911 47.7821 39.5429 47.8301 39.4832 47.8301H29.9621C29.9022 47.8301 29.8542 47.782 29.8542 47.7222V44.5846H39.5911V47.7222ZM42.0253 39.8241V42.8538C42.0253 42.9137 41.9771 42.9617 41.9174 42.9617H40.4024H29.0428H27.5279C27.468 42.9617 27.42 42.9135 27.42 42.8538V39.8241C27.42 39.7642 27.4682 39.7162 27.5279 39.7162H29.0426H40.4022H41.9172C41.9772 39.7162 42.0253 39.7642 42.0253 39.8241ZM40.4024 30.7906H38.7795C38.3313 30.7906 37.9682 31.1539 37.9682 31.6021C37.9682 32.0501 38.3314 32.4134 38.7795 32.4134H39.5909V38.0931H29.8541V32.4134H33.9111C34.3592 32.4134 34.7224 32.0501 34.7224 31.6021C34.7224 31.1539 34.3591 30.7906 33.9111 30.7906H29.0426H20.9286H19.3058C18.8576 30.7906 18.4945 31.1539 18.4945 31.6021C18.4945 32.0501 18.8578 32.4134 19.3058 32.4134H20.1171V38.0931H10.3804V32.4134H12.8145C13.2628 32.4134 13.6259 32.0501 13.6259 31.6021C13.6259 31.1539 13.2626 30.7906 12.8145 30.7906H9.569H7.13482V21.0538H18.4945H31.4768H42.8364V30.7906H40.4024ZM47.705 33.1168C47.705 33.1767 47.6568 33.2247 47.5971 33.2247H44.5672C44.5075 33.2247 44.4595 33.1766 44.4595 33.1168V31.6021V20.2425V18.7274C44.4595 18.6675 44.5075 18.6195 44.5672 18.6195H47.5971C47.6568 18.6195 47.705 18.6676 47.705 18.7274V33.1168Z" fill="#231F20"/>
<path d="M24.9835 11.3154C26.3275 11.3154 27.4177 10.2251 27.4177 8.88122C27.4177 7.82189 26.7401 6.92053 25.7948 6.58615V5.63557C25.7948 5.18742 25.4316 4.82422 24.9835 4.82422C24.5355 4.82422 24.1722 5.18751 24.1722 5.63557V6.58615C23.2271 6.92053 22.5493 7.8218 22.5493 8.88122C22.5493 10.225 23.6396 11.3154 24.9835 11.3154ZM24.9835 8.06976C25.4313 8.06976 25.7948 8.43353 25.7948 8.88111C25.7948 9.32871 25.4312 9.69248 24.9835 9.69248C24.5359 9.69248 24.1722 9.32871 24.1722 8.88111C24.1722 8.43353 24.5359 8.06976 24.9835 8.06976Z" fill="#D7282F"/>
</svg>
