<svg width="51" height="51" viewBox="0 0 51 51" fill="none" xmlns="http://www.w3.org/2000/svg">
<path d="M45.0986 14.8159H37.108V30.6864H45.0986V14.8159Z" stroke="#231F20" stroke-miterlimit="2.6131" stroke-linecap="round" stroke-linejoin="round"/>
<path d="M15.4104 19.0665V16.8376C15.4104 14.9145 13.7889 13.3333 11.8046 13.3333H8.08557V5.73901H15.6002C19.892 5.73901 23.4045 9.15357 23.4045 13.3332V14.8155V19.0665H15.4104Z" stroke="#231F20" stroke-miterlimit="2.6131" stroke-linecap="round" stroke-linejoin="round"/>
<path d="M30.536 36.315H33.4991C35.3838 36.315 36.9387 34.8949 37.0918 33.0981H45.0959V36.315C45.0959 40.4939 41.5864 43.9091 37.2949 43.9091H30.536V36.315Z" stroke="#231F20" stroke-miterlimit="2.6131" stroke-linecap="round" stroke-linejoin="round"/>
<path d="M23.2168 43.9076C18.9252 43.9076 15.4125 40.4924 15.4125 36.3135V34.8311V21.4771H23.4065V32.8093C23.4065 34.7324 25.0246 36.3135 27.0057 36.3135H28.0713V43.9076H23.2168Z" stroke="#231F20" stroke-miterlimit="2.6131" stroke-linecap="round" stroke-linejoin="round"/>
<path d="M45.1282 14.8142H37.0375C36.3583 14.8142 35.7988 14.2751 35.7988 13.6097C35.7988 12.9539 36.3583 12.4053 37.0375 12.4053H45.1282C45.8107 12.4053 46.3634 12.954 46.3634 13.6097C46.3634 14.2751 45.8107 14.8142 45.1282 14.8142Z" stroke="#231F20" stroke-miterlimit="2.6131" stroke-linecap="round" stroke-linejoin="round"/>
<path d="M45.1282 33.0963H37.0375C36.3583 33.0963 35.7988 32.5477 35.7988 31.8921C35.7988 31.2266 36.3583 30.6877 37.0375 30.6877H45.1282C45.8107 30.6877 46.3634 31.2266 46.3634 31.8921C46.3634 32.5477 45.8107 33.0963 45.1282 33.0963Z" stroke="#231F20" stroke-miterlimit="2.6131" stroke-linecap="round" stroke-linejoin="round"/>
<path d="M23.4893 21.475H15.3986C14.7193 21.475 14.1666 20.9354 14.1666 20.2707C14.1666 19.6143 14.7193 19.0664 15.3986 19.0664H23.4893C24.1719 19.0664 24.7246 19.6143 24.7246 20.2707C24.7246 20.9354 24.1719 21.475 23.4893 21.475Z" stroke="#231F20" stroke-miterlimit="2.6131" stroke-linecap="round" stroke-linejoin="round"/>
<path d="M30.5377 36.3121V44.194C30.5377 44.8498 29.9817 45.3974 29.3058 45.3974C28.6232 45.3974 28.0708 44.8496 28.0708 44.194V36.3121C28.0708 35.6475 28.6232 35.1079 29.3058 35.1079C29.9817 35.1079 30.5377 35.6475 30.5377 36.3121Z" stroke="#231F20" stroke-miterlimit="2.6131" stroke-linecap="round" stroke-linejoin="round"/>
<path d="M8.0872 5.59593V13.4777C8.0872 14.1335 7.53105 14.6821 6.85194 14.6821C6.16943 14.6821 5.60986 14.1335 5.60986 13.4777V5.59593C5.60986 4.94022 6.16932 4.39233 6.85194 4.39233C7.53115 4.39233 8.0872 4.94022 8.0872 5.59593Z" stroke="#D7282F" stroke-miterlimit="2.6131" stroke-linecap="round" stroke-linejoin="round"/>
<path d="M39.8687 21.7034V30.6898" stroke="#231F20" stroke-miterlimit="2.6131" stroke-linecap="round" stroke-linejoin="round"/>
<path d="M39.8687 19.6144V17.5298" stroke="#D7282F" stroke-miterlimit="2.6131" stroke-linecap="round" stroke-linejoin="round"/>
<path d="M43.255 36.5007C43.255 36.5007 42.5026 40.9138 38.0845 41.8482" stroke="#D7282F" stroke-miterlimit="2.6131" stroke-linecap="round" stroke-linejoin="round"/>
<path d="M17.6718 24.7202V36.3944C17.6718 36.3944 18.1246 41.6785 23.0988 41.6785" stroke="#D7282F" stroke-miterlimit="2.6131" stroke-linecap="round" stroke-linejoin="round"/>
</svg>
