<svg width="401" height="401" viewBox="0 0 401 401" fill="none" xmlns="http://www.w3.org/2000/svg">
<path d="M173.562 15.6406H50.375C41.2633 15.6571 32.5294 19.2841 26.0864 25.7271C19.6434 32.1701 16.0165 40.9039 16 50.0156V173.203C16 175.689 16.9878 178.074 18.7459 179.833C20.504 181.591 22.8886 182.578 25.375 182.578H148.562C157.679 182.578 166.423 178.956 172.869 172.51C179.316 166.063 182.938 157.32 182.938 148.203V25.0156C182.938 22.5293 181.95 20.1446 180.192 18.3865C178.434 16.6284 176.049 15.6406 173.562 15.6406ZM164.188 148.203C164.188 150.255 163.783 152.287 162.998 154.182C162.213 156.078 161.062 157.801 159.611 159.252C158.16 160.702 156.438 161.854 154.542 162.639C152.646 163.424 150.614 163.828 148.562 163.828H34.75V50.0156C34.75 45.8716 36.3962 41.8973 39.3264 38.9671C42.2567 36.0368 46.231 34.3906 50.375 34.3906H164.188V148.203Z" fill="#333333"/>
<path d="M148.562 217.453H25.375C22.8886 217.453 20.504 218.441 18.7459 220.199C16.9878 221.957 16 224.342 16 226.828V350.016C16.0165 359.127 19.6434 367.861 26.0864 374.304C32.5294 380.747 41.2633 384.374 50.375 384.391H173.562C176.049 384.391 178.434 383.403 180.192 381.645C181.95 379.887 182.938 377.502 182.938 375.016V251.828C182.938 242.711 179.316 233.968 172.869 227.522C166.423 221.075 157.679 217.453 148.562 217.453ZM164.188 365.641H50.375C46.231 365.641 42.2567 363.994 39.3264 361.064C36.3962 358.134 34.75 354.16 34.75 350.016V236.203H148.562C150.614 236.203 152.646 236.608 154.542 237.392C156.438 238.178 158.16 239.329 159.611 240.78C161.062 242.231 162.213 243.953 162.998 245.849C163.783 247.744 164.188 249.776 164.188 251.828V365.641Z" fill="#333333"/>
<path d="M375.375 217.453H252.188C243.071 217.453 234.327 221.075 227.881 227.522C221.434 233.968 217.812 242.711 217.812 251.828V375.016C217.812 377.502 218.801 379.887 220.559 381.645C222.317 383.403 224.701 384.391 227.188 384.391H350.375C359.487 384.374 368.221 380.747 374.664 374.304C381.107 367.861 384.734 359.127 384.75 350.016V226.828C384.75 224.342 383.762 221.957 382.004 220.199C380.246 218.441 377.862 217.453 375.375 217.453ZM366 350.016C366 354.16 364.354 358.134 361.424 361.064C358.494 363.994 354.519 365.641 350.375 365.641H236.562V251.828C236.562 247.684 238.209 243.71 241.139 240.78C244.069 237.849 248.044 236.203 252.188 236.203H366V350.016Z" fill="#333333"/>
<path d="M350.375 133.518H252.188C243.071 133.518 234.327 129.896 227.881 123.449C221.434 117.003 217.812 108.259 217.812 99.1431C217.812 90.0262 221.434 81.2824 227.881 74.8362C234.327 68.3893 243.071 64.7681 252.188 64.7681H350.375C359.492 64.7681 368.236 68.3893 374.682 74.8362C381.129 81.2824 384.75 90.0262 384.75 99.1431C384.75 108.259 381.129 117.003 374.682 123.449C368.236 129.896 359.492 133.518 350.375 133.518ZM252.188 83.5181C248.044 83.5181 244.069 85.1637 241.139 88.0943C238.209 91.0243 236.562 94.9987 236.562 99.1431C236.562 103.287 238.209 107.261 241.139 110.191C244.069 113.122 248.044 114.768 252.188 114.768H350.375C354.519 114.768 358.494 113.122 361.424 110.191C364.354 107.261 366 103.287 366 99.1431C366 94.9987 364.354 91.0243 361.424 88.0943C358.494 85.1637 354.519 83.5181 350.375 83.5181H252.188Z" fill="#333333"/>
</svg>
