<svg width="51" height="51" viewBox="0 0 51 51" fill="none" xmlns="http://www.w3.org/2000/svg">
<path d="M44.6593 33.3379H43.0968V28.6504H43.8781V27.0879H34.5031V28.6504H35.2843V33.3379H30.5968V27.8691H29.0343V33.3379H24.3468V27.8691H22.7843V33.3379H14.9718V30.2129C14.9718 30.0057 14.8895 29.807 14.743 29.6605C14.5965 29.514 14.3977 29.4316 14.1906 29.4316H4.0343V28.6504C4.0343 28.4432 4.11661 28.2445 4.26312 28.098C4.40964 27.9515 4.60835 27.8691 4.81555 27.8691H8.7218C9.34336 27.8691 9.93954 27.6222 10.3791 27.1827C10.8186 26.7431 11.0656 26.147 11.0656 25.5254C11.0656 24.9038 10.8186 24.3077 10.3791 23.8681C9.93954 23.4286 9.34336 23.1816 8.7218 23.1816H6.37805C6.17085 23.1816 5.97214 23.0993 5.82562 22.9528C5.67911 22.8063 5.5968 22.6076 5.5968 22.4004V21.6191H6.37805C6.99965 21.6191 7.59579 21.3722 8.03533 20.9327C8.47487 20.4931 8.7218 19.897 8.7218 19.2754V17.6855L11.2562 19.5301C11.485 20.2294 11.9603 20.8216 12.5934 21.1965C13.2266 21.5713 13.9744 21.7032 14.6976 21.5676L19.6593 23.6965V24.7441C19.6593 24.9513 19.7416 25.1501 19.8881 25.2966C20.0346 25.443 20.2334 25.5254 20.4406 25.5254H22.0031C22.2102 25.5253 22.4089 25.443 22.5554 25.2965L24.1179 23.734L23.0132 22.6293L21.6796 23.9629H21.2218V19.2754H21.6796L23.0132 20.609L24.1179 19.5043L22.5554 17.9418C22.4089 17.7952 22.2102 17.713 22.0031 17.7129H20.4406C20.2334 17.7129 20.0346 17.7952 19.8881 17.9417C19.7416 18.0882 19.6593 18.287 19.6593 18.4941V19.5051L17.2835 18.177C17.2066 17.4092 16.8478 16.6973 16.2766 16.1787C15.7053 15.6601 14.9621 15.3716 14.1906 15.3691C13.9536 15.3708 13.7177 15.3998 13.4874 15.4559L8.7218 11.1176V8.33789C8.7218 7.71629 8.47487 7.12015 8.03533 6.68061C7.59579 6.24107 6.99965 5.99414 6.37805 5.99414H3.25305C3.04585 5.99414 2.84714 6.07645 2.70062 6.22296C2.55411 6.36948 2.4718 6.56819 2.4718 6.77539V20.8379C2.4718 21.0451 2.55411 21.2438 2.70062 21.3903C2.84714 21.5368 3.04585 21.6191 3.25305 21.6191H4.0343V22.4004C4.0343 23.022 4.28123 23.6181 4.72077 24.0577C5.16031 24.4972 5.75645 24.7441 6.37805 24.7441H8.7218C8.92899 24.7441 9.12774 24.8265 9.27422 24.973C9.42071 25.1195 9.50305 25.3182 9.50305 25.5254C9.50305 25.7326 9.42071 25.9313 9.27422 26.0778C9.12774 26.2243 8.92899 26.3066 8.7218 26.3066H4.81555C4.19395 26.3066 3.59781 26.5536 3.15827 26.9931C2.71873 27.4327 2.4718 28.0288 2.4718 28.6504V48.1816C2.4718 48.3888 2.55411 48.5876 2.70062 48.7341C2.84714 48.8805 3.04585 48.9629 3.25305 48.9629H14.1906C14.3977 48.9629 14.5965 48.8805 14.743 48.7341C14.8895 48.5876 14.9718 48.3888 14.9718 48.1816V42.7129H41.5343V45.0566H40.7531C40.6245 45.0566 40.4979 45.0884 40.3845 45.149C40.2711 45.2096 40.1744 45.2973 40.1031 45.4043L38.5406 47.748C38.462 47.8657 38.417 48.0025 38.4101 48.1437C38.4032 48.285 38.4348 48.4255 38.5016 48.5502C38.5683 48.6749 38.6677 48.7791 38.789 48.8519C38.9103 48.9245 39.0491 48.9629 39.1906 48.9629H45.4406C45.582 48.9629 45.7208 48.9245 45.8421 48.8519C45.9634 48.7791 46.0628 48.6749 46.1295 48.5502C46.1963 48.4255 46.2279 48.285 46.221 48.1437C46.2141 48.0025 46.1691 47.8657 46.0906 47.748L44.5281 45.4043C44.4567 45.2973 44.36 45.2096 44.2466 45.149C44.1332 45.0884 44.0066 45.0566 43.8781 45.0566H43.0968V42.7129H44.6593C45.9025 42.7129 47.0948 42.2191 47.9738 41.3399C48.853 40.4609 49.3468 39.2686 49.3468 38.0254C49.3468 36.7822 48.853 35.5899 47.9738 34.7109C47.0948 33.8317 45.9025 33.3379 44.6593 33.3379ZM6.37805 20.0566H4.0343V16.4973C4.50593 16.7815 5.04615 16.9316 5.5968 16.9316C6.14745 16.9316 6.68767 16.7815 7.1593 16.4973V19.2754C7.1593 19.4826 7.07699 19.6813 6.93048 19.8278C6.78397 19.9743 6.58525 20.0566 6.37805 20.0566ZM4.0343 13.8066C4.0343 13.4976 4.12594 13.1955 4.29763 12.9386C4.46932 12.6816 4.71335 12.4813 4.99886 12.363C5.28437 12.2448 5.59854 12.2139 5.90163 12.2741C6.20472 12.3345 6.48314 12.4833 6.70165 12.7018C6.92018 12.9203 7.06899 13.1988 7.12928 13.5018C7.18957 13.8049 7.15862 14.1191 7.04036 14.4046C6.9221 14.6901 6.72183 14.9341 6.46488 15.1058C6.20793 15.2775 5.90583 15.3691 5.5968 15.3691C5.1824 15.3691 4.78497 15.2045 4.49195 14.9115C4.19892 14.6184 4.0343 14.221 4.0343 13.8066ZM19.6593 21.9965L16.4632 20.6254C16.6871 20.3853 16.8716 20.1113 17.0101 19.8137L19.6593 21.2957V21.9965ZM15.7531 18.4941C15.7531 18.8032 15.6614 19.1052 15.4897 19.3622C15.3181 19.6191 15.074 19.8195 14.7885 19.9377C14.503 20.0559 14.1888 20.0869 13.8857 20.0266C13.5827 19.9663 13.3042 19.8175 13.0857 19.599C12.8672 19.3805 12.7184 19.102 12.6581 18.799C12.5978 18.4959 12.6288 18.1817 12.747 17.8962C12.8652 17.6107 13.0656 17.3666 13.3225 17.195C13.5795 17.0233 13.8815 16.9316 14.1906 16.9316C14.6049 16.9316 15.0023 17.0963 15.2954 17.3893C15.5884 17.6823 15.7531 18.0798 15.7531 18.4941ZM12.0327 16.2441C11.6537 16.6108 11.3741 17.0678 11.2202 17.5723L8.7218 15.7527V13.2309L12.0327 16.2441ZM6.37805 7.55664C6.58525 7.55664 6.78397 7.63895 6.93048 7.78546C7.07699 7.93198 7.1593 8.13069 7.1593 8.33789V11.116C6.68767 10.8318 6.14745 10.6816 5.5968 10.6816C5.04615 10.6816 4.50593 10.8318 4.0343 11.116V7.55664H6.37805ZM13.4093 47.4004H4.0343V30.9941H13.4093V47.4004ZM43.9804 47.4004H40.6507L41.171 46.6191H43.4601L43.9804 47.4004ZM36.8468 28.6504H41.5343V33.3379H36.8468V28.6504ZM44.6593 41.1504H14.9718V34.9004H44.6593C45.4881 34.9004 46.283 35.2296 46.869 35.8157C47.4551 36.4017 47.7843 37.1966 47.7843 38.0254C47.7843 38.8542 47.4551 39.6491 46.869 40.2351C46.283 40.8212 45.4881 41.1504 44.6593 41.1504Z" fill="#474747"/>
<path d="M23.5656 38.0254C23.5656 37.4073 23.3823 36.8031 23.0389 36.2892C22.6956 35.7753 22.2074 35.3748 21.6364 35.1383C21.0654 34.9017 20.4371 34.8398 19.8309 34.9605C19.2247 35.081 18.6679 35.3787 18.2309 35.8157C17.7938 36.2527 17.4962 36.8095 17.3756 37.4157C17.255 38.022 17.3169 38.6502 17.5534 39.2213C17.7899 39.7923 18.1905 40.2804 18.7044 40.6238C19.2183 40.9671 19.8225 41.1504 20.4406 41.1504C21.2694 41.1504 22.0642 40.8212 22.6502 40.2351C23.2363 39.6491 23.5656 38.8542 23.5656 38.0254ZM20.4406 39.5879C20.1315 39.5879 19.8295 39.4963 19.5725 39.3245C19.3156 39.1529 19.1152 38.9088 18.997 38.6234C18.8788 38.3378 18.8478 38.0237 18.9081 37.7205C18.9684 37.4175 19.1172 37.1391 19.3357 36.9205C19.5542 36.702 19.8327 36.5532 20.1357 36.4929C20.4388 36.4327 20.753 36.4636 21.0385 36.5818C21.324 36.7001 21.5681 36.9004 21.7397 37.1573C21.9114 37.4143 22.0031 37.7163 22.0031 38.0254C22.0031 38.4398 21.8384 38.8372 21.5454 39.1302C21.2524 39.4233 20.8549 39.5879 20.4406 39.5879Z" fill="#474747"/>
<path d="M45.4406 38.0254C45.4406 37.4073 45.2573 36.8031 44.9139 36.2892C44.5706 35.7753 44.0824 35.3748 43.5114 35.1383C42.9404 34.9017 42.3121 34.8398 41.7059 34.9605C41.0997 35.081 40.5429 35.3787 40.1059 35.8157C39.6688 36.2527 39.3712 36.8095 39.2506 37.4157C39.13 38.022 39.1919 38.6502 39.4284 39.2213C39.6649 39.7923 40.0655 40.2804 40.5794 40.6238C41.0933 40.9671 41.6975 41.1504 42.3156 41.1504C43.1444 41.1504 43.9392 40.8212 44.5252 40.2351C45.1113 39.6491 45.4406 38.8542 45.4406 38.0254ZM42.3156 39.5879C42.0065 39.5879 41.7045 39.4963 41.4475 39.3245C41.1906 39.1529 40.9902 38.9088 40.872 38.6234C40.7538 38.3378 40.7228 38.0237 40.7831 37.7205C40.8434 37.4175 40.9922 37.1391 41.2107 36.9205C41.4292 36.702 41.7077 36.5532 42.0107 36.4929C42.3138 36.4327 42.628 36.4636 42.9135 36.5818C43.199 36.7001 43.4431 36.9004 43.6147 37.1573C43.7864 37.4143 43.8781 37.7163 43.8781 38.0254C43.8781 38.4398 43.7134 38.8372 43.4204 39.1302C43.1274 39.4233 42.7299 39.5879 42.3156 39.5879Z" fill="#474747"/>
<path d="M34.5031 38.0254C34.5031 37.4073 34.3198 36.8031 33.9764 36.2892C33.6331 35.7753 33.1449 35.3748 32.5739 35.1383C32.0029 34.9017 31.3746 34.8398 30.7684 34.9605C30.1622 35.081 29.6054 35.3787 29.1684 35.8157C28.7313 36.2527 28.4337 36.8095 28.3131 37.4157C28.1925 38.022 28.2544 38.6502 28.4909 39.2213C28.7274 39.7923 29.128 40.2804 29.6419 40.6238C30.1558 40.9671 30.76 41.1504 31.3781 41.1504C32.2069 41.1504 33.0017 40.8212 33.5877 40.2351C34.1738 39.6491 34.5031 38.8542 34.5031 38.0254ZM31.3781 39.5879C31.069 39.5879 30.767 39.4963 30.51 39.3245C30.2531 39.1529 30.0527 38.9088 29.9345 38.6234C29.8163 38.3378 29.7853 38.0237 29.8456 37.7205C29.9059 37.4175 30.0547 37.1391 30.2732 36.9205C30.4917 36.702 30.7702 36.5532 31.0732 36.4929C31.3763 36.4327 31.6905 36.4636 31.976 36.5818C32.2615 36.7001 32.5056 36.9004 32.6772 37.1573C32.8489 37.4143 32.9406 37.7163 32.9406 38.0254C32.9406 38.4398 32.7759 38.8372 32.4829 39.1302C32.1899 39.4233 31.7924 39.5879 31.3781 39.5879Z" fill="#474747"/>
<path d="M21.2218 37.2441H19.6593V38.8066H21.2218V37.2441Z" fill="#D7282F"/>
<path d="M32.1593 37.2441H30.5968V38.8066H32.1593V37.2441Z" fill="#D7282F"/>
<path d="M43.0968 37.2441H41.5343V38.8066H43.0968V37.2441Z" fill="#D7282F"/>
<path d="M31.3781 20.8379H22.0031V22.4004H31.3781V20.8379Z" fill="#474747"/>
<path d="M5.5968 38.8066H11.8468C12.054 38.8066 12.2527 38.7243 12.3992 38.5778C12.5457 38.4313 12.6281 38.2326 12.6281 38.0254V33.3379C12.6281 33.1307 12.5457 32.932 12.3992 32.7855C12.2527 32.639 12.054 32.5566 11.8468 32.5566H5.5968C5.3896 32.5566 5.19089 32.639 5.04437 32.7855C4.89786 32.932 4.81555 33.1307 4.81555 33.3379V38.0254C4.81555 38.2326 4.89786 38.4313 5.04437 38.5778C5.19089 38.7243 5.3896 38.8066 5.5968 38.8066ZM6.37805 34.1191H11.0656V37.2441H6.37805V34.1191Z" fill="#474747"/>
<path d="M19.3653 13.1816C20.0638 12.2422 20.441 11.1026 20.441 9.93201C20.441 8.76131 20.0638 7.6218 19.3653 6.68237L18.109 7.61206C18.6087 8.28218 18.8786 9.09569 18.8786 9.93162C18.8786 10.7675 18.6087 11.581 18.109 12.2512L19.3653 13.1816Z" fill="#D7282F"/>
<path d="M20.4253 5.49546C21.4454 6.748 22.0025 8.31401 22.0025 9.92944C22.0025 11.5449 21.4454 13.1109 20.4253 14.3634L21.6378 15.3501C22.8847 13.8189 23.5654 11.9045 23.5654 9.92983C23.5654 7.95512 22.8847 6.04079 21.6378 4.50952L20.4253 5.49546Z" fill="#D7282F"/>
<path d="M22.7217 16.4843L23.9139 17.4945C25.7065 15.3813 26.6905 12.7003 26.6905 9.92924C26.6905 7.15818 25.7065 4.47715 23.9139 2.36401L22.7217 3.37339C24.2752 5.20441 25.1279 7.52761 25.1279 9.92884C25.1279 12.3301 24.2752 14.6533 22.7217 16.4843Z" fill="#D7282F"/>
<path d="M47.7843 2.86914C47.7843 2.66194 47.702 2.46323 47.5555 2.31671C47.409 2.1702 47.2102 2.08789 47.0031 2.08789H32.9406C32.7334 2.08789 32.5346 2.1702 32.3881 2.31671C32.2416 2.46323 32.1593 2.66194 32.1593 2.86914V11.4629H30.5968V13.0254H49.3468V11.4629H47.7843V2.86914ZM33.7218 3.65039H46.2218V11.4629H33.7218V3.65039Z" fill="#474747"/>
<path d="M7.94055 40.3691H6.37805V41.9316H7.94055V40.3691Z" fill="#474747"/>
<path d="M7.94055 43.4941H6.37805V45.0566H7.94055V43.4941Z" fill="#D7282F"/>
<path d="M11.0656 40.3691H9.50305V41.9316H11.0656V40.3691Z" fill="#D7282F"/>
<path d="M11.0656 43.4941H9.50305V45.0566H11.0656V43.4941Z" fill="#474747"/>
<path d="M43.3257 4.66064L40.5132 7.47314L37.8179 6.79893C37.6869 6.76615 37.5497 6.76785 37.4197 6.80386C37.2896 6.83986 37.1711 6.90896 37.0757 7.00439L35.5132 8.56692L36.6179 9.67161L37.8679 8.42161L40.5632 9.09583C40.694 9.12856 40.8312 9.12684 40.9613 9.0909C41.0914 9.05489 41.2099 8.98575 41.3054 8.89036L44.4304 5.76533L43.3257 4.66064Z" fill="#D7282F"/>
</svg>
