<svg width="40" height="51" viewBox="0 0 40 51" fill="none" xmlns="http://www.w3.org/2000/svg">
<path d="M39.8121 44.5154H37.4492V19.9832H39.0621V15.3783H31.917V13.709H32.7234C32.8509 13.7113 32.9768 13.6807 33.089 13.6201C33.2012 13.5596 33.2959 13.4712 33.364 13.3634C33.4321 13.2556 33.4713 13.132 33.4777 13.0047C33.4842 12.8774 33.4577 12.7505 33.4009 12.6364L32.3605 10.5558H32.7234C32.9016 10.5552 33.0746 10.4957 33.2154 10.3864C33.3466 10.2849 33.4395 10.142 33.4791 9.98086C33.5186 9.81976 33.5024 9.65002 33.4331 9.49931L32.3928 7.4106H32.7234C32.8509 7.41288 32.9768 7.38228 33.089 7.32174C33.2012 7.2612 33.2959 7.17277 33.364 7.06497C33.4321 6.95717 33.4713 6.83365 33.4777 6.70632C33.4842 6.57899 33.4577 6.45214 33.4009 6.33802L31.788 3.19286C31.7267 3.06975 31.6324 2.9661 31.5156 2.89347C31.3988 2.82085 31.2642 2.7821 31.1267 2.78157H30.3202V0.708984H28.8928V2.78157H28.0863C27.9486 2.78117 27.8136 2.81953 27.6966 2.89226C27.5797 2.96499 27.4856 3.06916 27.4251 3.19286L25.8525 6.33802C25.7761 6.48588 25.7528 6.6555 25.7866 6.81847C25.8203 6.98144 25.9091 7.12785 26.038 7.23318C26.1757 7.34781 26.3507 7.40805 26.5299 7.40253H26.8928L25.8202 9.49931C25.7438 9.64717 25.7205 9.81679 25.7543 9.97976C25.7881 10.1427 25.8768 10.2891 26.0057 10.3945C26.1465 10.5037 26.3194 10.5633 26.4976 10.5638H26.8605L25.8202 12.6445C25.7459 12.7914 25.7238 12.9593 25.7575 13.1205C25.7912 13.2817 25.8787 13.4267 26.0057 13.5316C26.1427 13.6484 26.3176 13.7115 26.4976 13.709H27.3041V15.3783H22.4654V13.709H23.2718C23.4498 13.7134 23.6228 13.6499 23.7557 13.5316C23.8847 13.4264 23.9741 13.2805 24.0092 13.1179C24.0444 12.9552 24.0233 12.7855 23.9492 12.6364L22.9009 10.5558H23.2718C23.4005 10.5638 23.529 10.5382 23.6448 10.4815C23.7606 10.4248 23.8595 10.3389 23.932 10.2322C24.0044 10.1256 24.0478 10.0019 24.0579 9.8734C24.068 9.74488 24.0445 9.61595 23.9896 9.49931L22.9412 7.40253H23.3121C23.4891 7.40995 23.6623 7.34936 23.796 7.23318C23.925 7.12802 24.0144 6.98215 24.0496 6.81949C24.0847 6.65684 24.0636 6.48706 23.9896 6.33802L22.3767 3.19286C22.3167 3.07039 22.2239 2.96703 22.1085 2.89439C21.9931 2.82174 21.8598 2.78267 21.7234 2.78157H20.917V0.708984H19.4412V2.78157H18.6347C18.4974 2.78301 18.3631 2.82213 18.2465 2.89465C18.1299 2.96718 18.0354 3.07033 17.9734 3.19286L16.3605 6.33802C16.2924 6.49165 16.2784 6.66389 16.3208 6.82652C16.3633 6.98914 16.4598 7.13252 16.5944 7.23318C16.7322 7.34781 16.9072 7.40805 17.0863 7.40253H17.4009L16.3686 9.49931C16.3016 9.65112 16.2875 9.82102 16.3284 9.98183C16.3693 10.1426 16.463 10.2851 16.5944 10.3864C16.7352 10.4957 16.9082 10.5552 17.0863 10.5558H17.4009L16.3605 12.6364C16.3037 12.7505 16.2772 12.8774 16.2837 13.0047C16.2901 13.132 16.3293 13.2556 16.3974 13.3634C16.4654 13.4712 16.5602 13.5596 16.6724 13.6201C16.7846 13.6807 16.9105 13.7113 17.038 13.709H17.8444V15.3783H13.0057V13.709H13.8121C13.9396 13.7113 14.0655 13.6807 14.1777 13.6201C14.2899 13.5596 14.3847 13.4712 14.4527 13.3634C14.5208 13.2556 14.56 13.132 14.5664 13.0047C14.5729 12.8774 14.5464 12.7505 14.4896 12.6364L13.4492 10.5558H13.8121C13.9903 10.5552 14.1633 10.4957 14.3041 10.3864C14.4381 10.2871 14.5342 10.1451 14.5767 9.9839C14.6192 9.82266 14.6056 9.65174 14.538 9.49931L13.4976 7.40253H13.8605C13.9877 7.40642 14.1138 7.37717 14.2262 7.31764C14.3387 7.25812 14.4338 7.17036 14.5021 7.063C14.5704 6.95564 14.6097 6.83236 14.6159 6.70525C14.6222 6.57815 14.5954 6.4516 14.538 6.33802L12.9654 3.19286C12.9041 3.06975 12.8098 2.9661 12.693 2.89347C12.5763 2.82085 12.4416 2.7821 12.3041 2.78157H11.4976V0.708984H9.99763V2.78157H9.19118C9.05347 2.78117 8.91842 2.81953 8.80148 2.89226C8.68454 2.96499 8.59042 3.06916 8.52989 3.19286L6.91699 6.33802C6.84059 6.48588 6.81732 6.6555 6.85109 6.81847C6.88486 6.98144 6.97361 7.12785 7.10247 7.23318C7.24027 7.34781 7.41525 7.40805 7.59441 7.40253H7.96537L6.91699 9.49931C6.84059 9.64717 6.81732 9.81679 6.85109 9.97976C6.88486 10.1427 6.97361 10.2891 7.10247 10.3945C7.24324 10.5037 7.41622 10.5633 7.59441 10.5638H7.96537L6.91699 12.6364C6.84148 12.7851 6.8195 12.9553 6.85475 13.1184C6.89 13.2814 6.98033 13.4273 7.11054 13.5316C7.24755 13.6484 7.42239 13.7115 7.60247 13.709H8.40892V15.3783H1.33634V19.9832H2.88473V44.5154H0.546021V50.709H39.8121V44.5154ZM28.5057 4.25737H30.7476L31.5541 5.93479H27.667L28.5057 4.25737ZM28.5057 7.4106H30.7476L31.5541 9.07995H27.667L28.5057 7.4106ZM28.5057 10.5558H30.7476L31.5541 12.2332H27.667L28.5057 10.5558ZM30.4654 13.709V15.3783H28.788V13.709H30.4654ZM19.0621 4.25737H21.296L22.1025 5.93479H18.2073L19.0621 4.25737ZM19.0621 7.4106H21.296L22.1025 9.07995H18.2073L19.0621 7.4106ZM19.0621 10.5558H21.296L22.1025 12.2332H18.2073L19.0621 10.5558ZM21.0138 13.709V15.3783H19.3363V13.709H21.0138ZM9.61054 4.25737H11.8525L12.6589 5.93479H8.77183L9.61054 4.25737ZM9.61054 7.4106H11.8525L12.6589 9.07995H8.77183L9.61054 7.4106ZM9.61054 10.5558H11.8525L12.6589 12.2332H8.77183L9.61054 10.5558ZM11.5702 13.709V15.3783H9.89279V13.709H11.5702ZM38.288 49.2332H2.07828C2.07161 49.2347 2.06466 49.2345 2.05808 49.2327C2.05149 49.2308 2.0455 49.2272 2.04066 49.2224C2.03582 49.2176 2.03229 49.2116 2.03041 49.205C2.02852 49.1984 2.02835 49.1915 2.02989 49.1848V46.0396C2.02989 46.0396 2.02989 45.9832 2.07828 45.9832H5.59441V44.5154H4.38473V19.9832H10.0299V21.4348H11.4976V19.9832H19.4734V21.4348H20.9492V19.9832H28.9251V21.4348H30.3928V19.9832H32.0057V18.5316H2.80409V16.8541H37.5621V18.5316H34.2557V19.9832H35.9492V44.5154H7.45731V45.9832H38.288C38.3015 45.9851 38.3139 45.9919 38.3228 46.0023C38.3317 46.0127 38.3365 46.026 38.3363 46.0396V49.1848C38.3363 49.1976 38.3312 49.2099 38.3222 49.219C38.3131 49.2281 38.3008 49.2332 38.288 49.2332Z" fill="#231F20" stroke="white" stroke-width="0.2" stroke-linecap="round" stroke-linejoin="round"/>
<path d="M28.8601 38.3527L21.4326 25.4253C21.3072 25.2166 21.1299 25.0438 20.9179 24.9239C20.7059 24.804 20.4665 24.741 20.223 24.741C19.9794 24.741 19.74 24.804 19.528 24.9239C19.3161 25.0438 19.1387 25.2166 19.0133 25.4253L11.5455 38.3286C11.4231 38.5439 11.3591 38.7875 11.36 39.0351C11.3609 39.2828 11.4265 39.526 11.5505 39.7404C11.6744 39.9549 11.8523 40.1331 12.0665 40.2575C12.2807 40.3819 12.5237 40.4481 12.7713 40.4495H27.6423C27.8893 40.4467 28.1313 40.3795 28.3444 40.2546C28.5574 40.1296 28.7342 39.9512 28.8572 39.737C28.9802 39.5228 29.0451 39.2802 29.0456 39.0331C29.0461 38.7861 28.9822 38.5433 28.8601 38.3286V38.3527ZM12.8197 38.9979L20.1746 26.256L27.5375 38.9979H12.8197Z" fill="#D7282F" stroke="white" stroke-width="0.2" stroke-linecap="round" stroke-linejoin="round"/>
<path d="M21.7551 33.4513C21.685 33.3594 21.5948 33.2847 21.4913 33.233C21.3879 33.1812 21.274 33.1539 21.1583 33.153H20.1987L20.8842 30.9594L19.4729 30.5239L18.4971 33.6933C18.4615 33.8027 18.4525 33.919 18.4707 34.0325C18.4889 34.1461 18.5339 34.2537 18.6019 34.3465C18.6698 34.4413 18.7594 34.5186 18.8632 34.5719C18.967 34.6252 19.082 34.653 19.1987 34.653H20.1583L19.4729 36.8465L20.8842 37.282L21.86 34.1288C21.8996 34.016 21.9108 33.8951 21.8925 33.7769C21.8743 33.6587 21.827 33.5469 21.7551 33.4513Z" fill="#D7282F" stroke="white" stroke-width="0.2" stroke-linecap="round" stroke-linejoin="round"/>
</svg>
