<svg width="51" height="51" viewBox="0 0 51 51" fill="none" xmlns="http://www.w3.org/2000/svg">
<path d="M47.8725 20.5004H44.4537C44.0536 20.5004 43.729 20.8247 43.729 21.2253V26.3097H40.6648L36.1008 20.7763C35.9631 20.6096 35.7582 20.513 35.5417 20.513H28.2441V16.7018C28.2441 16.3012 27.9194 15.977 27.5192 15.977H20.902V13.3855H27.5656C27.9657 13.3855 28.2904 13.0612 28.2904 12.6606C28.2904 12.26 27.9657 11.9358 27.5656 11.9358H12.7886C12.3881 11.9358 12.0638 12.26 12.0638 12.6606C12.0638 13.0612 12.3881 13.3855 12.7886 13.3855H19.4523V15.977H12.7886C12.3881 15.977 12.0638 16.3012 12.0638 16.7018V20.513H8.25263C7.85204 20.513 7.5278 20.8372 7.5278 21.2379V26.5518H4.45016V22.2237C4.45016 21.823 4.12591 21.4988 3.72532 21.4988C3.32473 21.4988 3.00049 21.823 3.00049 22.2237V32.3297C3.00049 32.7299 3.32473 33.0546 3.72532 33.0546C4.12591 33.0546 4.45016 32.7299 4.45016 32.3297V28.0014H7.5278V34.0756C7.5278 34.4758 7.85204 34.8004 8.25263 34.8004H12.5151L15.0511 38.2206C15.1878 38.4049 15.4038 38.5135 15.6333 38.5135H40.3232C40.7233 38.5135 41.0481 38.1888 41.0481 37.7887V31.0864H43.729V36.0941C43.729 36.4942 44.0536 36.8188 44.4537 36.8188H47.8725C48.2727 36.8188 48.5974 36.4942 48.5974 36.0941V21.2253C48.5974 20.8251 48.2727 20.5004 47.8725 20.5004ZM40.3232 29.6367C39.9231 29.6367 39.5983 29.9614 39.5983 30.3616V37.0638H15.9982L13.4623 33.6437C13.3255 33.4591 13.1095 33.3508 12.88 33.3508H8.97748V21.9626H12.7886C13.1892 21.9626 13.5135 21.6384 13.5135 21.2379V17.4267H26.7944V21.2379C26.7944 21.6384 27.1191 21.9626 27.5192 21.9626H35.2L39.7641 27.496C39.9017 27.6633 40.1067 27.7599 40.3232 27.7599H43.729V29.6372L40.3232 29.6367ZM47.1477 35.3692H45.1786V21.9501H47.1477V35.3692Z" fill="black"/>
<path d="M26.965 27.7758C26.8512 27.6264 26.7046 27.5051 26.5367 27.4212C26.3687 27.3371 26.1838 27.2927 25.996 27.2912H24.4376L25.5508 23.7293L23.2591 23.0222L21.6746 28.1685C21.617 28.3462 21.6022 28.535 21.6318 28.7195C21.6614 28.9039 21.7345 29.0787 21.8448 29.2293C21.9551 29.3833 22.1006 29.5088 22.2692 29.5952C22.4377 29.6818 22.6245 29.727 22.8139 29.727H24.3722L23.2591 33.2888L25.5508 33.9959L27.1352 28.8758C27.1997 28.6925 27.2179 28.4963 27.1881 28.3043C27.1584 28.1125 27.0818 27.9309 26.965 27.7758Z" fill="#D7282F" stroke="white" stroke-width="0.2" stroke-linecap="round" stroke-linejoin="round"/>
</svg>
