<svg width="51" height="51" viewBox="0 0 51 51" fill="none" xmlns="http://www.w3.org/2000/svg">
<path d="M10.3585 5.21289C10.359 4.79863 10.5238 4.40149 10.8167 4.10857C11.1096 3.81563 11.5068 3.65086 11.921 3.65039H12.7023C13.1165 3.65086 13.5137 3.81563 13.8066 4.10857C14.0995 4.40149 14.2643 4.79863 14.2648 5.21289C14.2657 6.0414 14.5953 6.83571 15.1811 7.42157C15.7669 8.00742 16.5612 8.33696 17.3897 8.33789H18.1711C18.9996 8.33696 19.7939 8.00742 20.3797 7.42157C20.9655 6.83571 21.295 6.0414 21.2959 5.21289C21.2965 4.79863 21.4612 4.40149 21.7542 4.10857C22.047 3.81563 22.4442 3.65086 22.8585 3.65039H23.6397C24.0541 3.65086 24.4512 3.81563 24.7441 4.10857C25.037 4.40149 25.2018 4.79863 25.2023 5.21289C25.2032 6.0414 25.5327 6.83571 26.1185 7.42157C26.7045 8.00742 27.4988 8.33696 28.3273 8.33789H29.1085C29.937 8.33696 30.7313 8.00742 31.3172 7.42157C31.9031 6.83571 32.2326 6.0414 32.2335 5.21289C32.2341 4.79863 32.3988 4.40149 32.6918 4.10857C32.9846 3.81563 33.3818 3.65086 33.7959 3.65039H34.5773C34.9915 3.65086 35.3886 3.81563 35.6816 4.10857C35.9746 4.40149 36.1393 4.79863 36.1397 5.21289C36.1407 6.0414 36.4703 6.83571 37.0561 7.42157C37.6419 8.00742 38.4362 8.33696 39.2647 8.33789H40.0459C40.8746 8.33696 41.6689 8.00742 42.2547 7.42157C42.8405 6.83571 43.17 6.0414 43.1711 5.21289C43.1715 4.79863 43.3362 4.40149 43.6292 4.10857C43.922 3.81563 44.3192 3.65086 44.7335 3.65039H46.2959V2.08789H44.7335C43.905 2.08882 43.1107 2.41836 42.5249 3.00421C41.9389 3.59007 41.6095 4.38438 41.6085 5.21289C41.608 5.62715 41.4432 6.0243 41.1503 6.31722C40.8574 6.61015 40.4603 6.77492 40.0459 6.77539H39.2647C38.8505 6.77492 38.4534 6.61015 38.1604 6.31722C37.8674 6.0243 37.7027 5.62715 37.7023 5.21289C37.7013 4.38438 37.3718 3.59007 36.7859 3.00421C36.2001 2.41836 35.4058 2.08882 34.5773 2.08789H33.7959C32.9674 2.08882 32.1731 2.41836 31.5873 3.00421C31.0015 3.59007 30.672 4.38438 30.6711 5.21289C30.6705 5.62715 30.5058 6.0243 30.2128 6.31722C29.92 6.61015 29.5228 6.77492 29.1085 6.77539H28.3273C27.913 6.77492 27.5158 6.61015 27.223 6.31722C26.93 6.0243 26.7653 5.62715 26.7647 5.21289C26.7638 4.38438 26.4343 3.59007 25.8485 3.00421C25.2626 2.41836 24.4682 2.08882 23.6397 2.08789H22.8585C22.03 2.08882 21.2357 2.41836 20.6499 3.00421C20.0639 3.59007 19.7345 4.38438 19.7335 5.21289C19.733 5.62715 19.5682 6.0243 19.2753 6.31722C18.9824 6.61015 18.5853 6.77492 18.1711 6.77539H17.3897C16.9755 6.77492 16.5784 6.61015 16.2854 6.31722C15.9924 6.0243 15.8277 5.62715 15.8273 5.21289C15.8264 4.38438 15.4968 3.59007 14.911 3.00421C14.3251 2.41836 13.5308 2.08882 12.7023 2.08789H11.921C11.0925 2.08882 10.2982 2.41836 9.71234 3.00421C9.12649 3.59007 8.79695 4.38438 8.79602 5.21289V8.33789H10.3585V5.21289Z" fill="#231F20"/>
<path d="M28.3273 15.3691H22.8585V22.4004H28.3273V15.3691ZM26.7647 20.8378H24.4211V16.9316H26.7647V20.8378Z" fill="#231F20"/>
<path d="M35.3586 15.3691H29.8898V22.4004H35.3586V15.3691ZM33.796 20.8378H31.4523V16.9316H33.796V20.8378Z" fill="#231F20"/>
<path d="M35.3586 23.9629H29.8898V30.9941H35.3586V23.9629ZM33.796 29.4315H31.4523V25.5253H33.796V29.4315Z" fill="#231F20"/>
<path d="M47.0773 17.184L41.6085 14.9965V19.8409L38.4835 18.7249V11.4629H19.7335V18.4942H18.1711C17.5496 18.4949 16.9539 18.742 16.5145 19.1813C16.0751 19.6208 15.828 20.2165 15.8273 20.8378V23.963H13.0043L12.6847 9.90039H5.68858L4.90732 44.2754H4.88976C4.26839 44.2761 3.67266 44.5232 3.23326 44.9626C2.79389 45.402 2.54672 45.9977 2.54602 46.6192V48.963H15.8273V46.6192C15.8266 45.9977 15.5795 45.402 15.14 44.9626C14.7006 44.5232 14.1049 44.2761 13.4835 44.2754H13.4659L13.1109 28.6504H19.7335V34.9004H17.3897V48.963H49.4211V22.6311L47.0773 21.794V17.184ZM17.3897 20.8378C17.39 20.6308 17.4724 20.4323 17.6189 20.2858C17.7654 20.1393 17.9639 20.0569 18.1711 20.0566H19.7335V23.963H17.3897V20.8378ZM7.21597 11.4629H11.1573L11.2639 16.1504H7.10945L7.21597 11.4629ZM7.07393 17.713H11.2993L11.4769 25.5254H6.89637L7.07393 17.713ZM6.86087 27.0878H11.5124L11.69 34.9004H6.68329L6.86087 27.0878ZM6.64781 36.463H11.7255L11.9031 44.2754H6.47025L6.64781 36.463ZM13.4835 45.8378C13.6907 45.8381 13.8892 45.9205 14.0357 46.067C14.1822 46.2135 14.2646 46.412 14.2648 46.6192V47.4004H4.10852V46.6192C4.10875 46.412 4.19114 46.2135 4.3376 46.067C4.48406 45.9205 4.68264 45.8381 4.88976 45.8378H13.4835ZM13.0753 27.0878L13.0399 25.5254H23.6397C24.4683 25.5263 25.2626 25.8558 25.8485 26.4417C26.4343 27.0276 26.7638 27.8219 26.7647 28.6504V34.9004H25.2023V29.4316C25.2016 28.8103 24.9545 28.2146 24.515 27.7751C24.0756 27.3358 23.4799 27.0886 22.8585 27.0878H13.0753ZM23.6397 29.4316V34.9004H21.296V28.6504H22.8585C23.0657 28.6505 23.2642 28.733 23.4107 28.8795C23.5572 29.0259 23.6396 29.2245 23.6397 29.4316ZM31.4523 47.4004H24.4211V41.9316H31.4523V47.4004ZM36.9211 47.4004H33.0147V40.3692H22.8585V47.4004H18.9523V36.463H36.9211V47.4004ZM36.9211 34.9004H28.3273V28.6504C28.326 27.4076 27.8316 26.2161 26.9527 25.3374C26.0741 24.4586 24.8826 23.9643 23.6397 23.963H21.296V13.0254H36.9211V34.9004ZM43.1711 17.3043L45.5147 18.2419V21.2361L43.1711 20.3989V17.3043ZM43.9523 47.4004H42.3897V45.0566H43.9523V47.4004ZM43.9523 43.4942H42.3897V41.1504H43.9523V43.4942ZM43.9523 39.5878H42.3897V37.2442H43.9523V39.5878ZM43.9523 35.6816H42.3897V33.3378H43.9523V35.6816ZM47.8585 23.7323V47.4004H45.5147V29.4316H43.9523V31.7754H42.3897V29.4316H40.8273V47.4004H38.4835V20.384L47.8585 23.7323Z" fill="#231F20"/>
<path d="M49.4211 2.08789H47.8585V3.65039H49.4211V2.08789Z" fill="#231F20"/>
</svg>
