<svg width="51" height="51" viewBox="0 0 51 51" fill="none" xmlns="http://www.w3.org/2000/svg">
<path d="M10.3607 5.01758C10.3612 4.60332 10.526 4.20617 10.8189 3.91325C11.1118 3.62032 11.509 3.45555 11.9232 3.45508H12.7045C13.1187 3.45555 13.5159 3.62032 13.8088 3.91325C14.1017 4.20617 14.2665 4.60332 14.267 5.01758C14.2679 5.84609 14.5975 6.6404 15.1833 7.22625C15.7691 7.81211 16.5634 8.14165 17.3919 8.14258H18.1733C19.0018 8.14165 19.7961 7.81211 20.3819 7.22625C20.9677 6.6404 21.2972 5.84609 21.2981 5.01758C21.2987 4.60332 21.4634 4.20617 21.7564 3.91325C22.0492 3.62032 22.4464 3.45555 22.8607 3.45508H23.6419C24.0563 3.45555 24.4534 3.62032 24.7463 3.91325C25.0392 4.20617 25.204 4.60332 25.2045 5.01758C25.2054 5.84609 25.5349 6.6404 26.1207 7.22625C26.7067 7.81211 27.501 8.14165 28.3295 8.14258H29.1107C29.9392 8.14165 30.7335 7.81211 31.3194 7.22625C31.9053 6.6404 32.2348 5.84609 32.2357 5.01758C32.2362 4.60332 32.401 4.20617 32.694 3.91325C32.9868 3.62032 33.384 3.45555 33.7981 3.45508H34.5795C34.9937 3.45555 35.3908 3.62032 35.6838 3.91325C35.9768 4.20617 36.1415 4.60332 36.1419 5.01758C36.1429 5.84609 36.4725 6.6404 37.0583 7.22625C37.6441 7.81211 38.4384 8.14165 39.2669 8.14258H40.0481C40.8768 8.14165 41.6711 7.81211 42.2569 7.22625C42.8427 6.6404 43.1722 5.84609 43.1733 5.01758C43.1737 4.60332 43.3384 4.20617 43.6314 3.91325C43.9242 3.62032 44.3214 3.45555 44.7357 3.45508H46.2981V1.89258H44.7357C43.9072 1.89351 43.1129 2.22305 42.5271 2.8089C41.9411 3.39475 41.6117 4.18906 41.6107 5.01758C41.6102 5.43183 41.4454 5.82898 41.1525 6.1219C40.8596 6.41484 40.4625 6.57961 40.0481 6.58008H39.2669C38.8527 6.57961 38.4556 6.41484 38.1626 6.1219C37.8696 5.82898 37.7049 5.43183 37.7045 5.01758C37.7035 4.18906 37.374 3.39475 36.7881 2.8089C36.2023 2.22305 35.408 1.89351 34.5795 1.89258H33.7981C32.9696 1.89351 32.1753 2.22305 31.5895 2.8089C31.0037 3.39475 30.6742 4.18906 30.6733 5.01758C30.6727 5.43183 30.508 5.82898 30.215 6.1219C29.9222 6.41484 29.525 6.57961 29.1107 6.58008H28.3295C27.9152 6.57961 27.518 6.41484 27.2252 6.1219C26.9322 5.82898 26.7675 5.43183 26.7669 5.01758C26.766 4.18906 26.4365 3.39475 25.8507 2.8089C25.2648 2.22305 24.4704 1.89351 23.6419 1.89258H22.8607C22.0322 1.89351 21.2379 2.22305 20.6521 2.8089C20.0661 3.39475 19.7367 4.18906 19.7357 5.01758C19.7352 5.43183 19.5704 5.82898 19.2775 6.1219C18.9846 6.41484 18.5875 6.57961 18.1733 6.58008H17.3919C16.9777 6.57961 16.5806 6.41484 16.2876 6.1219C15.9946 5.82898 15.8299 5.43183 15.8295 5.01758C15.8286 4.18906 15.499 3.39475 14.9131 2.8089C14.3273 2.22305 13.533 1.89351 12.7045 1.89258H11.9232C11.0947 1.89351 10.3004 2.22305 9.71454 2.8089C9.12869 3.39475 8.79915 4.18906 8.79822 5.01758V8.14258H10.3607V5.01758Z" fill="white"/>
<path d="M28.3295 15.1738H22.8607V22.205H28.3295V15.1738ZM26.7669 20.6425H24.4233V16.7363H26.7669V20.6425Z" fill="white"/>
<path d="M35.3608 15.1738H29.892V22.205H35.3608V15.1738ZM33.7982 20.6425H31.4545V16.7363H33.7982V20.6425Z" fill="white"/>
<path d="M35.3608 23.7676H29.892V30.7988H35.3608V23.7676ZM33.7982 29.2362H31.4545V25.33H33.7982V29.2362Z" fill="white"/>
<path d="M47.0795 16.9887L41.6107 14.8012V19.6456L38.4857 18.5295V11.2676H19.7357V18.2989H18.1733C17.5518 18.2995 16.9561 18.5467 16.5167 18.986C16.0773 19.4255 15.8302 20.0212 15.8295 20.6425V23.7677H13.0065L12.6869 9.70508H5.69077L4.90952 44.0801H4.89196C4.27058 44.0808 3.67485 44.3279 3.23546 44.7673C2.79608 45.2067 2.54892 45.8024 2.54822 46.4239V48.7677H15.8295V46.4239C15.8288 45.8024 15.5817 45.2067 15.1422 44.7673C14.7027 44.3279 14.1071 44.0808 13.4857 44.0801H13.4681L13.1131 28.4551H19.7357V34.7051H17.3919V48.7677H49.4233V22.4358L47.0795 21.5987V16.9887ZM17.3919 20.6425C17.3922 20.4355 17.4746 20.237 17.6211 20.0905C17.7676 19.944 17.9661 19.8616 18.1733 19.8613H19.7357V23.7677H17.3919V20.6425ZM7.21816 11.2676H11.1595L11.2661 15.9551H7.11165L7.21816 11.2676ZM7.07612 17.5176H11.3015L11.4791 25.3301H6.89857L7.07612 17.5176ZM6.86307 26.8925H11.5146L11.6922 34.7051H6.68549L6.86307 26.8925ZM6.65 36.2677H11.7277L11.9052 44.0801H6.47245L6.65 36.2677ZM13.4857 45.6425C13.6929 45.6428 13.8914 45.7252 14.0379 45.8717C14.1844 46.0182 14.2668 46.2167 14.267 46.4239V47.2051H4.11072V46.4239C4.11095 46.2167 4.19334 46.0182 4.3398 45.8717C4.48626 45.7252 4.68484 45.6428 4.89196 45.6425H13.4857ZM13.0775 26.8925L13.0421 25.3301H23.6419C24.4705 25.331 25.2648 25.6605 25.8507 26.2464C26.4365 26.8322 26.766 27.6266 26.7669 28.4551V34.7051H25.2045V29.2363C25.2038 28.615 24.9567 28.0193 24.5172 27.5798C24.0778 27.1405 23.4821 26.8933 22.8607 26.8925H13.0775ZM23.6419 29.2363V34.7051H21.2982V28.4551H22.8607C23.0679 28.4552 23.2664 28.5377 23.4129 28.6841C23.5594 28.8306 23.6418 29.0291 23.6419 29.2363ZM31.4545 47.2051H24.4233V41.7363H31.4545V47.2051ZM36.9233 47.2051H33.0169V40.1739H22.8607V47.2051H18.9545V36.2677H36.9233V47.2051ZM36.9233 34.7051H28.3295V28.4551C28.3282 27.2122 27.8338 26.0208 26.9549 25.1421C26.0763 24.2633 24.8848 23.769 23.6419 23.7677H21.2982V12.8301H36.9233V34.7051ZM43.1733 17.109L45.5169 18.0466V21.0408L43.1733 20.2036V17.109ZM43.9545 47.2051H42.3919V44.8613H43.9545V47.2051ZM43.9545 43.2989H42.3919V40.9551H43.9545V43.2989ZM43.9545 39.3925H42.3919V37.0489H43.9545V39.3925ZM43.9545 35.4863H42.3919V33.1425H43.9545V35.4863ZM47.8607 23.537V47.2051H45.5169V29.2363H43.9545V31.5801H42.3919V29.2363H40.8295V47.2051H38.4857V20.1887L47.8607 23.537Z" fill="white"/>
<path d="M49.4233 1.89258H47.8607V3.45508H49.4233V1.89258Z" fill="white"/>
</svg>
