<svg width="51" height="51" viewBox="0 0 51 51" fill="none" xmlns="http://www.w3.org/2000/svg">
<path d="M49.2178 24.7441H34.9764L32.2975 13.3582L36.8077 13.1621L37.4085 18.566H36.7178C36.2866 18.566 35.9366 18.9152 35.9366 19.3473V22.4723C35.9366 22.9043 36.2866 23.2535 36.7178 23.2535H39.8428C40.2741 23.2535 40.6241 22.9043 40.6241 22.4723V19.3473C40.6241 18.9152 40.2741 18.566 39.8428 18.566H38.9796L38.3702 13.0832C38.7592 13.0363 39.0616 12.7137 39.0616 12.316V9.19102C39.0616 8.97852 38.9749 8.77461 38.8202 8.62617C38.6655 8.47773 38.4561 8.39336 38.246 8.41055L21.0928 9.15586V8.33789C21.0928 7.90586 20.7428 7.55664 20.3116 7.55664H15.6241C15.1928 7.55664 14.8428 7.90586 14.8428 8.33789V17.0035C14.8428 17.2113 14.9249 17.4098 15.0717 17.5559L17.1866 19.6707V28.6504H16.4053C15.9741 28.6504 15.6241 28.9996 15.6241 29.4316V32.5566C15.6241 32.9887 15.9741 33.3379 16.4053 33.3379H17.1866V36.4629H15.6241C15.3428 36.4629 15.0827 36.6137 14.9444 36.859C14.8053 37.1043 14.8092 37.4051 14.9546 37.6465L17.2983 41.5527C17.4389 41.7871 17.6936 41.9316 17.9678 41.9316C18.2421 41.9316 18.4967 41.7871 18.6374 41.5527L20.9811 37.6465C21.1264 37.4051 21.1296 37.1051 20.9913 36.859C20.853 36.6137 20.5928 36.4629 20.3116 36.4629H18.7491V33.3379H19.5303C19.9616 33.3379 20.3116 32.9887 20.3116 32.5566V29.4316C20.3116 28.9996 19.9616 28.6504 19.5303 28.6504H18.7491V19.6707L20.8639 17.5559C21.0108 17.409 21.0928 17.2105 21.0928 17.0035V13.8449L27.0217 13.5871L24.3967 24.7441H20.3116V26.3066H49.2178V24.7441ZM39.0616 21.691H37.4991V20.1285H39.0616V21.691ZM17.9678 39.6324L17.0038 38.0254H18.9319L17.9678 39.6324ZM18.7491 31.7754H17.1866V30.2129H18.7491V31.7754ZM26.0264 24.6418L33.046 23.3652L33.3702 24.7441H26.0022L26.0264 24.6418ZM27.0233 20.4074L30.96 22.1574L26.4171 22.9832L27.0233 20.4074ZM32.5225 21.1418L28.5139 19.3605L31.7749 17.9629L32.5225 21.1418ZM27.5749 18.0629L28.0835 15.9027L30.1749 16.9488L27.5749 18.0629ZM19.5303 16.6801L17.9678 18.2426L16.4053 16.6801V9.11914H19.5303V9.97227V13.0973V16.6801ZM21.0928 10.7199L37.4991 10.0066V11.5684L21.0928 12.2816V10.7199ZM30.7077 13.427L31.2522 15.7402L28.4507 14.3395L28.6444 13.516L30.7077 13.427Z" fill="#231F20"/>
<path d="M15.6241 24.7441H2.3429V26.3066H15.6241V24.7441Z" fill="#231F20"/>
<path d="M3.14058 12.9075C3.06401 13.5349 3.25933 14.1684 3.67808 14.6466C4.07495 15.0997 4.63511 15.3638 5.21401 15.37C5.22339 15.37 5.23198 15.37 5.24136 15.37C6.61011 15.37 7.18901 14.3036 7.61167 13.5231L7.65386 13.445C8.10308 12.6184 8.76948 12.0302 9.52964 11.7903L10.7375 11.4083C11.0554 11.3075 11.275 11.0161 11.2828 10.6817C11.2906 10.3481 11.0859 10.0466 10.7726 9.93017C9.73511 9.54735 9.28276 9.38017 9.06011 9.30673L9.06323 9.29892C7.58354 8.7497 5.50542 9.35439 4.22495 10.7013C3.61323 11.3434 3.23823 12.1059 3.14058 12.9075ZM5.3562 11.7778C6.09292 11.0036 7.31011 10.5489 8.1937 10.6825C7.41792 11.1309 6.75542 11.8239 6.28042 12.6981L6.23745 12.7778C5.80776 13.5716 5.62183 13.8067 5.23979 13.8067C5.23667 13.8067 5.23354 13.8067 5.22964 13.8067C5.09526 13.8052 4.95776 13.7356 4.85308 13.6169C4.72729 13.4724 4.66792 13.2833 4.69058 13.0966C4.76323 12.5091 5.09292 12.0552 5.3562 11.7778Z" fill="#D7282F"/>
<path d="M14.3436 3.03082C14.0718 2.58941 13.6108 2.26598 13.0788 2.14176C12.5577 2.02144 12.0139 2.1066 11.5866 2.37613C11.0116 2.73941 10.596 3.3027 10.3843 4.0027C9.95926 5.41285 10.4272 7.14801 11.4741 8.04019L11.4796 8.03394C11.6421 8.18394 11.9647 8.45973 12.6468 9.0402C12.7921 9.16363 12.9725 9.22691 13.153 9.22691C13.2952 9.22691 13.4382 9.18785 13.5647 9.10973C13.8538 8.93082 13.9936 8.58629 13.9108 8.2566L13.6671 7.28004C13.528 6.72457 13.646 6.1277 14.0358 5.54488C14.3991 5.00504 15.0053 4.10191 14.3436 3.03082ZM12.7014 4.73238C12.3694 5.23082 12.1608 5.77066 12.0827 6.32144C11.7999 5.77457 11.7046 5.03941 11.8811 4.45426C11.9835 4.11285 12.1655 3.85894 12.4218 3.69723C12.471 3.66676 12.5358 3.65035 12.6077 3.65035C12.646 3.65035 12.6866 3.65504 12.7264 3.66441C12.8507 3.69332 12.96 3.76441 13.0139 3.85113C13.1178 4.0191 13.1296 4.09254 12.7014 4.73238Z" fill="#D7282F"/>
<path d="M42.5773 41.248C40.2077 41.248 38.2804 43.1762 38.2804 45.5449C38.2804 47.4293 39.8132 48.9629 41.6984 48.9629C42.4531 48.9629 43.1382 48.6582 43.6366 48.1652L47.5429 48.1816C47.9741 48.1816 48.3241 47.8324 48.3241 47.4004C48.3241 44.2949 45.4773 41.248 42.5773 41.248ZM44.4257 46.6191C44.446 46.484 44.457 46.3449 44.457 46.2043C44.457 44.9551 43.4413 43.9402 42.1929 43.9402V45.5027C42.5804 45.5027 42.8945 45.8176 42.8945 46.2043C42.8945 46.8645 42.3577 47.4004 41.6984 47.4004C40.6749 47.4004 39.8429 46.5684 39.8429 45.5449C39.8429 44.0371 41.0695 42.8105 42.5773 42.8105C44.4124 42.8105 46.2773 44.6254 46.682 46.6191H44.4257Z" fill="#D7282F"/>
<path d="M29.6866 39.5879C27.5327 39.5879 25.7804 41.6902 25.7804 44.2754C25.7804 46.8605 27.5327 48.9629 29.6866 48.9629C31.8406 48.9629 33.5929 46.8605 33.5929 44.2754C33.5929 41.6902 31.8406 39.5879 29.6866 39.5879ZM29.6866 41.1504C30.3757 41.1504 30.9898 41.5559 31.4187 42.1887C30.3648 42.8895 29.0054 42.8902 27.9538 42.1887C28.3835 41.5559 28.9976 41.1504 29.6866 41.1504ZM27.3429 44.2754C27.3429 44.0645 27.3593 43.8582 27.3898 43.659C27.8695 43.9301 28.3796 44.116 28.9054 44.2059V47.2082C27.9984 46.777 27.3429 45.6316 27.3429 44.2754ZM30.4679 47.2082V44.2059C30.9937 44.116 31.5038 43.9301 31.9835 43.659C32.014 43.8582 32.0304 44.0645 32.0304 44.2754C32.0304 45.6316 31.3749 46.777 30.4679 47.2082Z" fill="#D7282F"/>
<path d="M42.0702 32.2379C40.6569 32.4512 39.6241 32.7402 38.6249 33.0184C37.5483 33.3184 36.5311 33.6012 35.0522 33.7988C32.2991 34.1676 30.9038 34.2793 29.0999 33.816C28.9413 33.7754 28.7733 33.7285 28.5913 33.677C27.7663 33.4457 26.6358 33.1301 25.0577 33.0121C24.0069 32.9332 22.3647 32.9707 21.8163 33.0121L21.9327 34.5699C22.4632 34.5309 24.0061 34.4996 24.9413 34.5699C26.3647 34.6762 27.3663 34.9559 28.1702 35.1809C28.3632 35.2348 28.5428 35.2855 28.7108 35.3285C29.6827 35.577 30.5491 35.6816 31.4968 35.6816C32.5608 35.6816 33.7264 35.5504 35.2577 35.3457C36.8444 35.134 37.9616 34.8223 39.0428 34.5207C40.0413 34.2434 40.9835 33.9809 42.303 33.7809C44.4811 33.4504 46.7717 33.4512 49.1077 33.7824L49.3264 32.2355C46.8405 31.8855 44.3999 31.8863 42.0702 32.2379Z" fill="#231F20"/>
<path d="M2.35544 36.3926C2.89138 36.3848 3.69529 36.3762 4.67419 36.3926C5.46248 36.4051 5.99529 36.4262 6.38669 36.4418C6.67107 36.4536 6.89373 36.4614 7.09294 36.4614C7.39529 36.4614 7.64216 36.4411 7.96482 36.377C8.97419 36.1754 9.51794 35.7887 9.99763 35.4473C10.3398 35.2036 10.6633 34.9731 11.1953 34.7856C12.1828 34.4387 13.3406 34.4434 14.6351 34.802L15.0508 33.2957C13.4422 32.8528 11.9719 32.8575 10.6773 33.3122C9.93591 33.5723 9.48669 33.8926 9.0906 34.1747C8.65466 34.4848 8.3406 34.7098 7.65857 34.845C7.30623 34.9153 7.12498 34.909 6.44919 34.8801C6.04919 34.8637 5.50466 34.8426 4.69919 34.8301C3.69919 34.8137 2.87732 34.8215 2.33044 34.8301L2.35544 36.3926Z" fill="#231F20"/>
<path d="M12.4991 41.1504C11.4898 41.1504 10.5968 41.7926 10.2687 42.7129L6.9093 42.7496C6.58899 41.7926 5.69602 41.1504 4.68665 41.1504C3.39446 41.1504 2.3429 42.202 2.3429 43.4941C2.3429 44.0941 2.56946 44.6418 2.94133 45.0566C2.56946 45.4715 2.3429 46.0191 2.3429 46.6191C2.3429 47.9113 3.39446 48.9629 4.68665 48.9629C5.69602 48.9629 6.58899 48.3207 6.91633 47.4004L10.2757 47.3637C10.5968 48.3207 11.4898 48.9629 12.4991 48.9629C13.7913 48.9629 14.8429 47.9113 14.8429 46.6191C14.8429 46.0191 14.6163 45.4715 14.2445 45.0566C14.6163 44.6418 14.8429 44.0941 14.8429 43.4941C14.8429 42.202 13.7913 41.1504 12.4991 41.1504ZM12.4991 45.8379C12.9296 45.8379 13.2804 46.1879 13.2804 46.6191C13.2804 47.0504 12.9296 47.4004 12.4991 47.4004C12.1624 47.4004 11.8648 47.1863 11.7577 46.8676C11.5515 46.2512 10.9531 45.8379 10.2695 45.8379H6.91633C6.23196 45.8379 5.63352 46.2512 5.42727 46.8676C5.32102 47.1863 5.02336 47.4004 4.68665 47.4004C4.25618 47.4004 3.9054 47.0504 3.9054 46.6191C3.9054 46.1879 4.25618 45.8379 4.68665 45.8379C5.1179 45.8379 5.4679 45.4887 5.4679 45.0566C5.4679 44.6246 5.1179 44.2754 4.68665 44.2754C4.25618 44.2754 3.9054 43.9254 3.9054 43.4941C3.9054 43.0629 4.25618 42.7129 4.68665 42.7129C5.02336 42.7129 5.32102 42.927 5.42805 43.2457C5.6343 43.8621 6.23274 44.2754 6.91711 44.2754H10.2687C10.9531 44.2754 11.5515 43.8621 11.7577 43.2457C11.8648 42.927 12.1624 42.7129 12.4991 42.7129C12.9296 42.7129 13.2804 43.0629 13.2804 43.4941C13.2804 43.9254 12.9296 44.2754 12.4991 44.2754C12.0679 44.2754 11.7179 44.6246 11.7179 45.0566C11.7179 45.4887 12.0679 45.8379 12.4991 45.8379Z" fill="#231F20"/>
<path d="M23.4366 38.8066C23.0054 38.8066 22.6554 39.1566 22.6554 39.5879C22.6554 40.0191 23.0054 40.3691 23.4366 40.3691C23.8679 40.3691 24.2179 40.0191 24.2179 39.5879C24.2179 39.1566 23.8679 38.8066 23.4366 38.8066Z" fill="#231F20"/>
<path d="M19.5304 46.6191C19.0991 46.6191 18.7491 46.9691 18.7491 47.4004C18.7491 47.8316 19.0991 48.1816 19.5304 48.1816C19.9616 48.1816 20.3116 47.8316 20.3116 47.4004C20.3116 46.9691 19.9616 46.6191 19.5304 46.6191Z" fill="#231F20"/>
<path d="M48.4366 38.8066C48.8679 38.8066 49.2179 38.4566 49.2179 38.0254C49.2179 37.5941 48.8679 37.2441 48.4366 37.2441C48.0054 37.2441 47.6554 37.5941 47.6554 38.0254C47.6554 38.4566 48.0054 38.8066 48.4366 38.8066Z" fill="#231F20"/>
<path d="M14.0616 27.8691H2.3429V29.4316H14.0616V27.8691Z" fill="#D7282F"/>
<path d="M49.2179 27.8691H21.8741V29.4316H49.2179V27.8691Z" fill="#D7282F"/>
</svg>
