<svg width="165" height="165" viewBox="0 0 165 165" fill="none" xmlns="http://www.w3.org/2000/svg">
<g opacity="0.1">
<path d="M30.937 15.4688C30.9386 14.1017 31.4823 12.7911 32.4491 11.8245C33.4156 10.8578 34.7262 10.3141 36.0933 10.3125H38.6714C40.0385 10.3141 41.3491 10.8578 42.3155 11.8245C43.2824 12.7911 43.826 14.1017 43.8276 15.4688C43.8309 18.2028 44.9183 20.8241 46.8515 22.7574C48.7847 24.6907 51.4059 25.7782 54.14 25.7812H56.7185C59.4526 25.7782 62.0738 24.6907 64.007 22.7574C65.9402 20.8241 67.0274 18.2028 67.0305 15.4688C67.0323 14.1017 67.5759 12.7911 68.5427 11.8245C69.5091 10.8578 70.8197 10.3141 72.187 10.3125H74.765C76.1323 10.3141 77.4429 10.8578 78.4093 11.8245C79.3761 12.7911 79.9197 14.1017 79.9215 15.4688C79.9246 18.2028 81.0118 20.8241 82.945 22.7574C84.8786 24.6907 87.4999 25.7782 90.234 25.7812H92.812C95.5461 25.7782 98.1674 24.6907 100.101 22.7574C102.034 20.8241 103.121 18.2028 103.125 15.4688C103.126 14.1017 103.67 12.7911 104.637 11.8245C105.603 10.8578 106.914 10.3141 108.281 10.3125H110.859C112.226 10.3141 113.536 10.8578 114.503 11.8245C115.47 12.7911 116.014 14.1017 116.015 15.4688C116.018 18.2028 117.106 20.8241 119.039 22.7574C120.972 24.6907 123.593 25.7782 126.328 25.7812H128.906C131.64 25.7782 134.261 24.6907 136.195 22.7574C138.128 20.8241 139.215 18.2028 139.218 15.4688C139.22 14.1017 139.763 12.7911 140.73 11.8245C141.697 10.8578 143.007 10.3141 144.375 10.3125H149.531V5.15625H144.375C141.64 5.15933 139.019 6.24681 137.086 8.18012C135.152 10.1134 134.065 12.7347 134.062 15.4688C134.06 16.8358 133.517 18.1464 132.55 19.113C131.583 20.0797 130.273 20.6234 128.906 20.625H126.328C124.961 20.6234 123.65 20.0797 122.683 19.113C121.716 18.1464 121.173 16.8358 121.171 15.4688C121.168 12.7347 120.081 10.1134 118.148 8.18012C116.214 6.24681 113.593 5.15933 110.859 5.15625H108.281C105.546 5.15933 102.925 6.24681 100.992 8.18012C99.0588 10.1134 97.9716 12.7347 97.9685 15.4688C97.9667 16.8358 97.4231 18.1464 96.4563 19.113C95.4899 20.0797 94.1793 20.6234 92.812 20.625H90.234C88.8667 20.6234 87.5561 20.0797 86.5897 19.113C85.6229 18.1464 85.0793 16.8358 85.0775 15.4688C85.0744 12.7347 83.9872 10.1134 82.054 8.18012C80.1204 6.24681 77.4991 5.15933 74.765 5.15625H72.187C69.4529 5.15933 66.8316 6.24681 64.8985 8.18012C62.9648 10.1134 61.8776 12.7347 61.8745 15.4688C61.8727 16.8358 61.3291 18.1464 60.3623 19.113C59.3959 20.0797 58.0853 20.6234 56.7185 20.625H54.14C52.7732 20.6234 51.4626 20.0797 50.4958 19.113C49.5289 18.1464 48.9853 16.8358 48.984 15.4688C48.9809 12.7347 47.8932 10.1134 45.96 8.18012C44.0268 6.24681 41.4055 5.15933 38.6714 5.15625H36.0933C33.3592 5.15933 30.7379 6.24681 28.8046 8.18012C26.8713 10.1134 25.7838 12.7347 25.7808 15.4688V25.7812H30.937V15.4688Z" fill="#D7282F"/>
<path d="M90.234 48.9845H72.187V72.1875H90.234V48.9845ZM85.0775 67.031H77.3435V54.1405H85.0775V67.031Z" fill="#D7282F"/>
<path d="M113.437 48.9845H95.39V72.1875H113.437V48.9845ZM108.281 67.031H100.546V54.1405H108.281V67.031Z" fill="#231F20"/>
<path d="M113.437 77.344H95.39V100.547H113.437V77.344ZM108.281 95.3905H100.546V82.5H108.281V95.3905Z" fill="#D7282F"/>
<path d="M152.109 54.9735L134.062 47.7546V63.7413L123.75 60.0582V36.0938H61.8745V59.297H56.7185C54.6676 59.2992 52.7019 60.1149 51.2516 61.5646C49.8019 63.0148 48.9862 64.9806 48.984 67.031V77.344H39.6681L38.6134 30.9375H15.5262L12.948 144.375H12.8901C10.8396 144.377 8.87366 145.193 7.42366 146.643C5.97372 148.093 5.15808 150.059 5.15576 152.11V159.844H48.984V152.11C48.9818 150.059 48.1661 148.093 46.7159 146.643C45.2657 145.193 43.3001 144.377 41.2495 144.375H41.1915L40.0197 92.8125H61.8745V113.438H54.14V159.844H159.843V72.9487L152.109 70.1865V54.9735ZM54.14 67.031C54.1409 66.3478 54.4129 65.6927 54.8964 65.2093C55.3798 64.7259 56.0349 64.4539 56.7185 64.453H61.8745V77.344H54.14V67.031ZM20.5666 36.0938H33.5731L33.9247 51.5625H20.2151L20.5666 36.0938ZM20.0978 56.719H34.0417L34.6276 82.5H19.5119L20.0978 56.719ZM19.3948 87.656H34.7449L35.3308 113.438H18.8088L19.3948 87.656ZM18.6916 118.594H35.4481L36.034 144.375H18.1057L18.6916 118.594ZM41.2495 149.531C41.9331 149.532 42.5882 149.804 43.0716 150.287C43.555 150.771 43.827 151.426 43.8276 152.11V154.688H10.312V152.11C10.3128 151.426 10.5847 150.771 11.068 150.287C11.5513 149.804 12.2066 149.532 12.8901 149.531H41.2495ZM39.9024 87.656L39.7855 82.5H74.765C77.4991 82.5031 80.1204 83.5903 82.054 85.524C83.9872 87.4571 85.0744 90.0784 85.0775 92.8125V113.438H79.9215V95.3905C79.9193 93.3401 79.1036 91.3743 77.6534 89.9241C76.2032 88.4743 74.2375 87.6587 72.187 87.656H39.9024ZM74.765 95.3905V113.438H67.0305V92.8125H72.187C72.8707 92.813 73.5257 93.085 74.0091 93.5684C74.4926 94.0518 74.7646 94.7069 74.765 95.3905ZM100.547 154.688H77.3435V136.641H100.547V154.688ZM118.593 154.688H105.703V131.484H72.187V154.688H59.2965V118.594H118.593V154.688ZM118.593 113.438H90.234V92.8125C90.2295 88.7111 88.5983 84.7792 85.6978 81.8797C82.7983 78.9797 78.8664 77.3484 74.765 77.344H67.0305V41.25H118.593V113.438ZM139.218 55.3704L146.953 58.4644V68.3452L139.218 65.5826V55.3704ZM141.797 154.688H136.64V146.953H141.797V154.688ZM141.797 141.797H136.64V134.063H141.797V141.797ZM141.797 128.906H136.64V121.172H141.797V128.906ZM141.797 116.016H136.64V108.281H141.797V116.016ZM154.687 76.5827V154.688H146.953V95.3905H141.797V103.125H136.64V95.3905H131.484V154.688H123.75V65.5335L154.687 76.5827Z" fill="#231F20"/>
<path d="M159.843 5.15625H154.687V10.3125H159.843V5.15625Z" fill="#231F20"/>
</g>
</svg>
