<svg width="25" height="25" viewBox="0 0 25 25" fill="none" xmlns="http://www.w3.org/2000/svg">
<g opacity="0.5" clip-path="url(#clip0_178_10635)">
<path d="M23.5387 20.722L22.9418 19.7317L22.3147 20.1097L22.9116 21.0999C23.7385 22.4724 22.779 24.3196 21.0734 24.2653C19.508 24.2126 18.5758 22.4601 19.3954 21.0999L21.1533 18.1822L21.9252 19.4634L22.5523 19.0855L21.1533 16.7637L18.7684 20.7221C18.244 21.5921 18.2214 22.6465 18.7078 23.5424C19.762 25.4842 22.5437 25.4862 23.5989 23.5428C24.0854 22.6468 24.0629 21.5923 23.5387 20.722Z" fill="#231F20"/>
<path d="M23.5387 20.722L22.9418 19.7317L22.3147 20.1097L22.9116 21.0999C23.7385 22.4724 22.779 24.3196 21.0734 24.2653C19.508 24.2126 18.5758 22.4601 19.3954 21.0999L21.1533 18.1822L21.9252 19.4634L22.5523 19.0855L21.1533 16.7637L18.7684 20.7221C18.244 21.5921 18.2214 22.6465 18.7078 23.5424C19.762 25.4842 22.5437 25.4862 23.5989 23.5428C24.0854 22.6468 24.0629 21.5923 23.5387 20.722Z" fill="black" fill-opacity="0.2"/>
<path d="M19.0691 13.7753V15.9724H23.1816V12.0718L20.4575 9.34766H18.3623V10.0798H20.1543L22.4495 12.3751V15.2403H19.8012V13.4722L19.0577 12.7281H18.3623V13.4603H18.7543L19.0691 13.7753Z" fill="#231F20"/>
<path d="M19.0691 13.7753V15.9724H23.1816V12.0718L20.4575 9.34766H18.3623V10.0798H20.1543L22.4495 12.3751V15.2403H19.8012V13.4722L19.0577 12.7281H18.3623V13.4603H18.7543L19.0691 13.7753Z" fill="black" fill-opacity="0.2"/>
<path d="M5.49414 15.3835H8.8053V14.6514H6.22627V8.21064H16.5326V14.6514H9.53743V15.3835H17.2648V7.47852H5.49414V15.3835Z" fill="#231F20"/>
<path d="M5.49414 15.3835H8.8053V14.6514H6.22627V8.21064H16.5326V14.6514H9.53743V15.3835H17.2648V7.47852H5.49414V15.3835Z" fill="black" fill-opacity="0.2"/>
<path d="M10.0498 5.12635H9.24009L8.24557 6.12145L8.76338 6.63901L9.54349 5.85852H13.2142L13.9948 6.63911L14.5124 6.1214L13.5174 5.12635H12.7079V4.19264H16.2822V1.60921H12.7079V0.683464L12.0244 0H10.7333L10.0498 0.683464V1.60921H6.47559V4.19264H10.0498V5.12635ZM11.9758 5.12635H10.782V4.19264H11.9758V5.12635ZM10.782 0.98671L11.0365 0.732126H11.7212L11.9758 0.98671V1.60921H10.7819V0.98671H10.782ZM7.20771 3.46051V2.34134H15.55V3.46051H7.20771Z" fill="#231F20"/>
<path d="M10.0498 5.12635H9.24009L8.24557 6.12145L8.76338 6.63901L9.54349 5.85852H13.2142L13.9948 6.63911L14.5124 6.1214L13.5174 5.12635H12.7079V4.19264H16.2822V1.60921H12.7079V0.683464L12.0244 0H10.7333L10.0498 0.683464V1.60921H6.47559V4.19264H10.0498V5.12635ZM11.9758 5.12635H10.782V4.19264H11.9758V5.12635ZM10.782 0.98671L11.0365 0.732126H11.7212L11.9758 0.98671V1.60921H10.7819V0.98671H10.782ZM7.20771 3.46051V2.34134H15.55V3.46051H7.20771Z" fill="black" fill-opacity="0.2"/>
<path d="M1.05176 13.4603H4.39562V12.7281H1.78388V10.0798H4.39562V9.34766H1.05176V13.4603Z" fill="#231F20"/>
<path d="M1.05176 13.4603H4.39562V12.7281H1.78388V10.0798H4.39562V9.34766H1.05176V13.4603Z" fill="black" fill-opacity="0.2"/>
<path d="M13.9296 11.7966H13.1975V11.0645H13.9296V11.7966ZM11.7332 11.7966H11.0011V11.0645H11.7332V11.7966ZM9.53681 11.7966H8.80469V11.0645H9.53681V11.7966Z" fill="#231F20"/>
<path d="M13.9296 11.7966H13.1975V11.0645H13.9296V11.7966ZM11.7332 11.7966H11.0011V11.0645H11.7332V11.7966ZM9.53681 11.7966H8.80469V11.0645H9.53681V11.7966Z" fill="black" fill-opacity="0.2"/>
<path d="M20.791 22.0547H21.5231V22.7868H20.791V22.0547Z" fill="#231F20"/>
<path d="M20.791 22.0547H21.5231V22.7868H20.791V22.0547Z" fill="black" fill-opacity="0.2"/>
</g>
<defs>
<clipPath id="clip0_178_10635">
<rect width="25" height="25" fill="white"/>
</clipPath>
</defs>
</svg>
