<svg width="25" height="25" viewBox="0 0 25 25" fill="none" xmlns="http://www.w3.org/2000/svg">
<g opacity="0.5">
<path d="M23.8281 14.4532H19.9219V13.6719C19.9219 13.5683 19.8807 13.4689 19.8075 13.3957C19.7342 13.3224 19.6348 13.2813 19.5312 13.2813H17.1875C17.0839 13.2813 16.9845 13.3224 16.9113 13.3957C16.838 13.4689 16.7969 13.5683 16.7969 13.6719V14.4532H16.0156V13.2266C16.3836 13.1319 16.7043 12.9062 16.9176 12.5918C17.1309 12.2774 17.2221 11.896 17.1742 11.5192C17.1262 11.1423 16.9424 10.7959 16.6571 10.5449C16.3719 10.294 16.0049 10.1558 15.625 10.1563H14.8438V8.20315C14.8438 8.09956 14.8026 8.00018 14.7293 7.92694C14.6561 7.8537 14.5567 7.81252 14.4531 7.81252H14.0625V7.03128H16.0156C16.088 7.0321 16.1591 7.01237 16.2206 6.97432C16.2822 6.93628 16.3317 6.88151 16.3633 6.81643L17.0391 5.46878H21.4844C21.588 5.46878 21.6873 5.4276 21.7606 5.35436C21.8338 5.28112 21.875 5.18174 21.875 5.07815V3.51565C21.875 3.41205 21.8338 3.31269 21.7606 3.23944C21.6873 3.16618 21.588 3.12503 21.4844 3.12503H16.0156C15.9433 3.1242 15.8722 3.14395 15.8106 3.18199C15.7491 3.22003 15.6996 3.27479 15.668 3.33987L14.9922 4.68752H14.0625V3.51565C14.0625 3.41205 14.0213 3.31269 13.9481 3.23944C13.8748 3.16618 13.7755 3.12503 13.6719 3.12503H11.3281C11.2245 3.12503 11.1252 3.16618 11.0519 3.23944C10.9787 3.31269 10.9375 3.41205 10.9375 3.51565V4.68752H9.76562C9.66203 4.68752 9.56266 4.7287 9.48941 4.80194C9.41617 4.87518 9.375 4.97456 9.375 5.07815V6.64065C9.375 6.74424 9.41617 6.84362 9.48941 6.91686C9.56266 6.9901 9.66203 7.03128 9.76562 7.03128H10.9375V7.81252H10.5469C10.4433 7.81252 10.3439 7.8537 10.2707 7.92694C10.1974 8.00018 10.1562 8.09956 10.1562 8.20315V10.1563H9.375C8.99508 10.1558 8.62809 10.294 8.34285 10.5449C8.05762 10.7959 7.87375 11.1423 7.82582 11.5192C7.77785 11.896 7.8691 12.2774 8.08242 12.5918C8.29574 12.9062 8.61645 13.1319 8.98438 13.2266V14.4532H8.20312V13.6719C8.20312 13.5683 8.16195 13.4689 8.08871 13.3957C8.01547 13.3224 7.91609 13.2813 7.8125 13.2813H5.46875C5.36516 13.2813 5.26578 13.3224 5.19254 13.3957C5.1193 13.4689 5.07812 13.5683 5.07812 13.6719V14.4532H1.17188C1.06827 14.4532 0.968918 14.4943 0.89566 14.5676C0.822406 14.6408 0.78125 14.7402 0.78125 14.8438V20.3125C0.78125 20.4161 0.822406 20.5155 0.89566 20.5887C0.968918 20.662 1.06827 20.7031 1.17188 20.7031H5.07812V21.4844C5.07812 21.588 5.1193 21.6874 5.19254 21.7606C5.26578 21.8339 5.36516 21.875 5.46875 21.875H7.8125C7.91609 21.875 8.01547 21.8339 8.08871 21.7606C8.16195 21.6874 8.20312 21.588 8.20312 21.4844V20.7031H16.7969V21.4844C16.7969 21.588 16.838 21.6874 16.9113 21.7606C16.9845 21.8339 17.0839 21.875 17.1875 21.875H19.5312C19.6348 21.875 19.7342 21.8339 19.8075 21.7606C19.8807 21.6874 19.9219 21.588 19.9219 21.4844V20.7031H23.8281C23.9317 20.7031 24.0311 20.662 24.1043 20.5887C24.1776 20.5155 24.2188 20.4161 24.2188 20.3125V14.8438C24.2188 14.7402 24.1776 14.6408 24.1043 14.5676C24.0311 14.4943 23.9317 14.4532 23.8281 14.4532ZM5.07812 19.9219H1.5625V15.2344H5.07812V19.9219ZM7.42188 21.0938H5.85938V14.0625H7.42188V21.0938ZM8.98438 19.9219H8.20312V15.2344H8.98438V19.9219ZM11.7188 3.90628H13.2812V4.68752H11.7188V3.90628ZM10.1562 6.25003V5.46878H15.2344C15.3067 5.4696 15.3778 5.44987 15.4394 5.41182C15.5009 5.37378 15.5504 5.31901 15.582 5.25393L16.2578 3.90628H21.0938V4.68752H16.7969C16.7245 4.6867 16.6534 4.70647 16.5919 4.74448C16.5303 4.78252 16.4808 4.83729 16.4492 4.90237L15.7734 6.25003H10.1562ZM13.2812 7.03128V7.81252H11.7188V7.03128H13.2812ZM10.9375 8.59377H14.0625V10.1563H10.9375V8.59377ZM15.2344 19.9219H9.76562V13.2813H15.2344V19.9219ZM9.375 12.5C9.16781 12.5 8.9691 12.4177 8.82258 12.2712C8.67605 12.1247 8.59375 11.926 8.59375 11.7188C8.59375 11.5116 8.67605 11.3129 8.82258 11.1664C8.9691 11.0198 9.16781 10.9375 9.375 10.9375H15.625C15.8322 10.9375 16.0309 11.0198 16.1774 11.1664C16.3239 11.3129 16.4062 11.5116 16.4062 11.7188C16.4062 11.926 16.3239 12.1247 16.1774 12.2712C16.0309 12.4177 15.8322 12.5 15.625 12.5H9.375ZM16.7969 19.9219H16.0156V15.2344H16.7969V19.9219ZM19.1406 21.0938H17.5781V14.0625H19.1406V21.0938ZM23.4375 19.9219H19.9219V15.2344H23.4375V19.9219Z" fill="#231F20"/>
<path d="M23.8281 14.4532H19.9219V13.6719C19.9219 13.5683 19.8807 13.4689 19.8075 13.3957C19.7342 13.3224 19.6348 13.2813 19.5312 13.2813H17.1875C17.0839 13.2813 16.9845 13.3224 16.9113 13.3957C16.838 13.4689 16.7969 13.5683 16.7969 13.6719V14.4532H16.0156V13.2266C16.3836 13.1319 16.7043 12.9062 16.9176 12.5918C17.1309 12.2774 17.2221 11.896 17.1742 11.5192C17.1262 11.1423 16.9424 10.7959 16.6571 10.5449C16.3719 10.294 16.0049 10.1558 15.625 10.1563H14.8438V8.20315C14.8438 8.09956 14.8026 8.00018 14.7293 7.92694C14.6561 7.8537 14.5567 7.81252 14.4531 7.81252H14.0625V7.03128H16.0156C16.088 7.0321 16.1591 7.01237 16.2206 6.97432C16.2822 6.93628 16.3317 6.88151 16.3633 6.81643L17.0391 5.46878H21.4844C21.588 5.46878 21.6873 5.4276 21.7606 5.35436C21.8338 5.28112 21.875 5.18174 21.875 5.07815V3.51565C21.875 3.41205 21.8338 3.31269 21.7606 3.23944C21.6873 3.16618 21.588 3.12503 21.4844 3.12503H16.0156C15.9433 3.1242 15.8722 3.14395 15.8106 3.18199C15.7491 3.22003 15.6996 3.27479 15.668 3.33987L14.9922 4.68752H14.0625V3.51565C14.0625 3.41205 14.0213 3.31269 13.9481 3.23944C13.8748 3.16618 13.7755 3.12503 13.6719 3.12503H11.3281C11.2245 3.12503 11.1252 3.16618 11.0519 3.23944C10.9787 3.31269 10.9375 3.41205 10.9375 3.51565V4.68752H9.76562C9.66203 4.68752 9.56266 4.7287 9.48941 4.80194C9.41617 4.87518 9.375 4.97456 9.375 5.07815V6.64065C9.375 6.74424 9.41617 6.84362 9.48941 6.91686C9.56266 6.9901 9.66203 7.03128 9.76562 7.03128H10.9375V7.81252H10.5469C10.4433 7.81252 10.3439 7.8537 10.2707 7.92694C10.1974 8.00018 10.1562 8.09956 10.1562 8.20315V10.1563H9.375C8.99508 10.1558 8.62809 10.294 8.34285 10.5449C8.05762 10.7959 7.87375 11.1423 7.82582 11.5192C7.77785 11.896 7.8691 12.2774 8.08242 12.5918C8.29574 12.9062 8.61645 13.1319 8.98438 13.2266V14.4532H8.20312V13.6719C8.20312 13.5683 8.16195 13.4689 8.08871 13.3957C8.01547 13.3224 7.91609 13.2813 7.8125 13.2813H5.46875C5.36516 13.2813 5.26578 13.3224 5.19254 13.3957C5.1193 13.4689 5.07812 13.5683 5.07812 13.6719V14.4532H1.17188C1.06827 14.4532 0.968918 14.4943 0.89566 14.5676C0.822406 14.6408 0.78125 14.7402 0.78125 14.8438V20.3125C0.78125 20.4161 0.822406 20.5155 0.89566 20.5887C0.968918 20.662 1.06827 20.7031 1.17188 20.7031H5.07812V21.4844C5.07812 21.588 5.1193 21.6874 5.19254 21.7606C5.26578 21.8339 5.36516 21.875 5.46875 21.875H7.8125C7.91609 21.875 8.01547 21.8339 8.08871 21.7606C8.16195 21.6874 8.20312 21.588 8.20312 21.4844V20.7031H16.7969V21.4844C16.7969 21.588 16.838 21.6874 16.9113 21.7606C16.9845 21.8339 17.0839 21.875 17.1875 21.875H19.5312C19.6348 21.875 19.7342 21.8339 19.8075 21.7606C19.8807 21.6874 19.9219 21.588 19.9219 21.4844V20.7031H23.8281C23.9317 20.7031 24.0311 20.662 24.1043 20.5887C24.1776 20.5155 24.2188 20.4161 24.2188 20.3125V14.8438C24.2188 14.7402 24.1776 14.6408 24.1043 14.5676C24.0311 14.4943 23.9317 14.4532 23.8281 14.4532ZM5.07812 19.9219H1.5625V15.2344H5.07812V19.9219ZM7.42188 21.0938H5.85938V14.0625H7.42188V21.0938ZM8.98438 19.9219H8.20312V15.2344H8.98438V19.9219ZM11.7188 3.90628H13.2812V4.68752H11.7188V3.90628ZM10.1562 6.25003V5.46878H15.2344C15.3067 5.4696 15.3778 5.44987 15.4394 5.41182C15.5009 5.37378 15.5504 5.31901 15.582 5.25393L16.2578 3.90628H21.0938V4.68752H16.7969C16.7245 4.6867 16.6534 4.70647 16.5919 4.74448C16.5303 4.78252 16.4808 4.83729 16.4492 4.90237L15.7734 6.25003H10.1562ZM13.2812 7.03128V7.81252H11.7188V7.03128H13.2812ZM10.9375 8.59377H14.0625V10.1563H10.9375V8.59377ZM15.2344 19.9219H9.76562V13.2813H15.2344V19.9219ZM9.375 12.5C9.16781 12.5 8.9691 12.4177 8.82258 12.2712C8.67605 12.1247 8.59375 11.926 8.59375 11.7188C8.59375 11.5116 8.67605 11.3129 8.82258 11.1664C8.9691 11.0198 9.16781 10.9375 9.375 10.9375H15.625C15.8322 10.9375 16.0309 11.0198 16.1774 11.1664C16.3239 11.3129 16.4062 11.5116 16.4062 11.7188C16.4062 11.926 16.3239 12.1247 16.1774 12.2712C16.0309 12.4177 15.8322 12.5 15.625 12.5H9.375ZM16.7969 19.9219H16.0156V15.2344H16.7969V19.9219ZM19.1406 21.0938H17.5781V14.0625H19.1406V21.0938ZM23.4375 19.9219H19.9219V15.2344H23.4375V19.9219Z" fill="black" fill-opacity="0.2"/>
<path d="M3.125 16.0156H2.34375V16.7969H3.125V16.0156Z" fill="#231F20"/>
<path d="M3.125 16.0156H2.34375V16.7969H3.125V16.0156Z" fill="black" fill-opacity="0.2"/>
<path d="M22.6562 16.0156H20.7031V16.7969H22.6562V16.0156Z" fill="#231F20"/>
<path d="M22.6562 16.0156H20.7031V16.7969H22.6562V16.0156Z" fill="black" fill-opacity="0.2"/>
<path d="M11.3281 18.3594H10.5469V19.1406H11.3281V18.3594Z" fill="#231F20"/>
<path d="M11.3281 18.3594H10.5469V19.1406H11.3281V18.3594Z" fill="black" fill-opacity="0.2"/>
<path d="M13.6719 18.3594H12.1094V19.1406H13.6719V18.3594Z" fill="#231F20"/>
<path d="M13.6719 18.3594H12.1094V19.1406H13.6719V18.3594Z" fill="black" fill-opacity="0.2"/>
</g>
</svg>
