<svg width="22" height="22" viewBox="0 0 22 22" fill="none" xmlns="http://www.w3.org/2000/svg">
<g opacity="0.5" clip-path="url(#clip0_180_10754)">
<path d="M16.8438 6.53125H16.1562V15.4688H16.8438V6.53125Z" fill="#231F20"/>
<path d="M16.8438 6.53125H16.1562V15.4688H16.8438V6.53125Z" fill="black" fill-opacity="0.2"/>
<path d="M5.84375 6.53125H5.15625V15.4688H5.84375V6.53125Z" fill="#231F20"/>
<path d="M5.84375 6.53125H5.15625V15.4688H5.84375V6.53125Z" fill="black" fill-opacity="0.2"/>
<path d="M7.21875 2.0625H6.53125V2.75H7.21875V2.0625Z" fill="#231F20"/>
<path d="M7.21875 2.0625H6.53125V2.75H7.21875V2.0625Z" fill="black" fill-opacity="0.2"/>
<path d="M15.4688 2.0625H14.7812V2.75H15.4688V2.0625Z" fill="#231F20"/>
<path d="M15.4688 2.0625H14.7812V2.75H15.4688V2.0625Z" fill="black" fill-opacity="0.2"/>
<path d="M13.75 6.53125H8.25C7.79432 6.5318 7.35749 6.71306 7.03526 7.03526C6.71306 7.35749 6.5318 7.79432 6.53125 8.25V13.75C6.5318 14.2057 6.71306 14.6425 7.03526 14.9647C7.35749 15.2869 7.79432 15.4682 8.25 15.4688H13.75C14.2057 15.4682 14.6425 15.2869 14.9647 14.9647C15.2869 14.6425 15.4682 14.2057 15.4688 13.75V8.25C15.4682 7.79432 15.2869 7.35749 14.9647 7.03526C14.6425 6.71306 14.2057 6.5318 13.75 6.53125ZM14.7812 13.75C14.7812 14.0235 14.6726 14.2858 14.4792 14.4792C14.2858 14.6726 14.0235 14.7812 13.75 14.7812H8.25C7.97651 14.7812 7.7142 14.6726 7.5208 14.4792C7.32741 14.2858 7.21875 14.0235 7.21875 13.75V8.25C7.21875 7.97651 7.32741 7.7142 7.5208 7.5208C7.7142 7.32741 7.97651 7.21875 8.25 7.21875H13.75C14.0235 7.21875 14.2858 7.32741 14.4792 7.5208C14.6726 7.7142 14.7812 7.97651 14.7812 8.25V13.75Z" fill="#231F20"/>
<path d="M13.75 6.53125H8.25C7.79432 6.5318 7.35749 6.71306 7.03526 7.03526C6.71306 7.35749 6.5318 7.79432 6.53125 8.25V13.75C6.5318 14.2057 6.71306 14.6425 7.03526 14.9647C7.35749 15.2869 7.79432 15.4682 8.25 15.4688H13.75C14.2057 15.4682 14.6425 15.2869 14.9647 14.9647C15.2869 14.6425 15.4682 14.2057 15.4688 13.75V8.25C15.4682 7.79432 15.2869 7.35749 14.9647 7.03526C14.6425 6.71306 14.2057 6.5318 13.75 6.53125ZM14.7812 13.75C14.7812 14.0235 14.6726 14.2858 14.4792 14.4792C14.2858 14.6726 14.0235 14.7812 13.75 14.7812H8.25C7.97651 14.7812 7.7142 14.6726 7.5208 14.4792C7.32741 14.2858 7.21875 14.0235 7.21875 13.75V8.25C7.21875 7.97651 7.32741 7.7142 7.5208 7.5208C7.7142 7.32741 7.97651 7.21875 8.25 7.21875H13.75C14.0235 7.21875 14.2858 7.32741 14.4792 7.5208C14.6726 7.7142 14.7812 7.97651 14.7812 8.25V13.75Z" fill="black" fill-opacity="0.2"/>
<path d="M21.4637 19.2878L17.9369 17.5209C17.993 17.5116 18.0459 17.4881 18.0904 17.4526C18.1349 17.4171 18.1696 17.3708 18.1912 17.3181L19.25 14.7812V15.8125C19.25 15.9037 19.2862 15.9911 19.3507 16.0556C19.4151 16.12 19.5026 16.1562 19.5938 16.1562H20.9688C21.0599 16.1562 21.1474 16.12 21.2118 16.0556C21.2763 15.9911 21.3125 15.9037 21.3125 15.8125V6.1875C21.3125 6.09634 21.2763 6.00889 21.2118 5.94443C21.1474 5.87998 21.0599 5.84375 20.9688 5.84375H19.5938C19.5026 5.84375 19.4151 5.87998 19.3507 5.94443C19.2862 6.00889 19.25 6.09634 19.25 6.1875V7.21875L18.1912 4.68187C18.1659 4.61876 18.1223 4.56469 18.0659 4.52667C18.0095 4.48869 17.943 4.46848 17.875 4.46875H17.1531L16.8403 1.68094C16.8336 1.60297 16.7995 1.5299 16.7441 1.47469L16.0566 0.787187C15.991 0.723869 15.9036 0.688177 15.8125 0.6875H6.1875C6.09637 0.688177 6.00899 0.723869 5.94344 0.787187L5.25594 1.47469C5.20049 1.5299 5.16639 1.60297 5.15969 1.68094L4.84688 4.46875H4.125C4.05701 4.46848 3.99049 4.48869 3.93408 4.52667C3.87771 4.56469 3.83405 4.61876 3.80875 4.68187L2.75 7.21875V6.1875C2.75 6.09634 2.71378 6.00889 2.64932 5.94443C2.58485 5.87998 2.49742 5.84375 2.40625 5.84375H1.03125C0.940081 5.84375 0.852648 5.87998 0.788181 5.94443C0.723718 6.00889 0.6875 6.09634 0.6875 6.1875V15.8125C0.6875 15.9037 0.723718 15.9911 0.788181 16.0556C0.852648 16.12 0.940081 16.1562 1.03125 16.1562H2.40625C2.49742 16.1562 2.58485 16.12 2.64932 16.0556C2.71378 15.9911 2.75 15.9037 2.75 15.8125V14.7812L3.80875 17.3181C3.83405 17.3812 3.87771 17.4353 3.93408 17.4733C3.99049 17.5113 4.05701 17.5315 4.125 17.5312H4.38625L0.88 19.2878C0.822669 19.3159 0.774293 19.3594 0.740293 19.4135C0.706293 19.4675 0.688012 19.5299 0.6875 19.5938V20.9688C0.6875 21.0599 0.723718 21.1474 0.788181 21.2118C0.852648 21.2763 0.940081 21.3125 1.03125 21.3125H21.3125C21.4037 21.3125 21.4911 21.2763 21.5556 21.2118C21.62 21.1474 21.6562 21.0599 21.6562 20.9688V19.5938C21.6557 19.5299 21.6374 19.4675 21.6035 19.4135C21.5695 19.3594 21.5211 19.3159 21.4637 19.2878ZM19.5938 9.28125C19.6504 9.28094 19.7061 9.26667 19.7558 9.23969C19.8056 9.21271 19.8479 9.17386 19.8791 9.12656C19.9158 9.07043 19.935 9.0046 19.9341 8.9375H19.9375V6.53125H20.625V15.4688H19.9375V13.0625H19.9341C19.935 12.9954 19.9158 12.9296 19.8791 12.8734C19.8479 12.8261 19.8056 12.7873 19.7558 12.7603C19.7061 12.7333 19.6504 12.7191 19.5938 12.7188H18.2188V9.28125H19.5938ZM5.83 1.87688L6.32844 1.375H15.6716L16.17 1.87688L16.4588 4.46875H5.54125L5.83 1.87688ZM2.40625 12.7188C2.34963 12.7191 2.29396 12.7333 2.24419 12.7603C2.19441 12.7873 2.15208 12.8261 2.12094 12.8734C2.0842 12.9296 2.06505 12.9954 2.06594 13.0625H2.0625V15.4688H1.375V6.53125H2.0625V8.9375H2.06594C2.06505 9.0046 2.0842 9.07043 2.12094 9.12656C2.15208 9.17386 2.19441 9.21271 2.24419 9.23969C2.29396 9.26667 2.34963 9.28094 2.40625 9.28125H3.78125V12.7188H2.40625ZM4.35531 16.8438L2.92188 13.4062H4.125C4.21616 13.4062 4.30361 13.37 4.36807 13.3056C4.43252 13.2411 4.46875 13.1537 4.46875 13.0625V8.9375C4.46875 8.84634 4.43252 8.75889 4.36807 8.69443C4.30361 8.62998 4.21616 8.59375 4.125 8.59375H2.92188L4.35531 5.15625H17.6447L19.0781 8.59375H17.875C17.7838 8.59375 17.6964 8.62998 17.6319 8.69443C17.5675 8.75889 17.5312 8.84634 17.5312 8.9375V13.0625C17.5312 13.1537 17.5675 13.2411 17.6319 13.3056C17.6964 13.37 17.7838 13.4062 17.875 13.4062H19.0781L17.6447 16.8438H4.35531ZM5.92625 17.5312H16.4175L19.855 19.25H2.48875L5.92625 17.5312ZM20.9688 20.625H1.375V19.9375H20.9688V20.625Z" fill="#231F20"/>
<path d="M21.4637 19.2878L17.9369 17.5209C17.993 17.5116 18.0459 17.4881 18.0904 17.4526C18.1349 17.4171 18.1696 17.3708 18.1912 17.3181L19.25 14.7812V15.8125C19.25 15.9037 19.2862 15.9911 19.3507 16.0556C19.4151 16.12 19.5026 16.1562 19.5938 16.1562H20.9688C21.0599 16.1562 21.1474 16.12 21.2118 16.0556C21.2763 15.9911 21.3125 15.9037 21.3125 15.8125V6.1875C21.3125 6.09634 21.2763 6.00889 21.2118 5.94443C21.1474 5.87998 21.0599 5.84375 20.9688 5.84375H19.5938C19.5026 5.84375 19.4151 5.87998 19.3507 5.94443C19.2862 6.00889 19.25 6.09634 19.25 6.1875V7.21875L18.1912 4.68187C18.1659 4.61876 18.1223 4.56469 18.0659 4.52667C18.0095 4.48869 17.943 4.46848 17.875 4.46875H17.1531L16.8403 1.68094C16.8336 1.60297 16.7995 1.5299 16.7441 1.47469L16.0566 0.787187C15.991 0.723869 15.9036 0.688177 15.8125 0.6875H6.1875C6.09637 0.688177 6.00899 0.723869 5.94344 0.787187L5.25594 1.47469C5.20049 1.5299 5.16639 1.60297 5.15969 1.68094L4.84688 4.46875H4.125C4.05701 4.46848 3.99049 4.48869 3.93408 4.52667C3.87771 4.56469 3.83405 4.61876 3.80875 4.68187L2.75 7.21875V6.1875C2.75 6.09634 2.71378 6.00889 2.64932 5.94443C2.58485 5.87998 2.49742 5.84375 2.40625 5.84375H1.03125C0.940081 5.84375 0.852648 5.87998 0.788181 5.94443C0.723718 6.00889 0.6875 6.09634 0.6875 6.1875V15.8125C0.6875 15.9037 0.723718 15.9911 0.788181 16.0556C0.852648 16.12 0.940081 16.1562 1.03125 16.1562H2.40625C2.49742 16.1562 2.58485 16.12 2.64932 16.0556C2.71378 15.9911 2.75 15.9037 2.75 15.8125V14.7812L3.80875 17.3181C3.83405 17.3812 3.87771 17.4353 3.93408 17.4733C3.99049 17.5113 4.05701 17.5315 4.125 17.5312H4.38625L0.88 19.2878C0.822669 19.3159 0.774293 19.3594 0.740293 19.4135C0.706293 19.4675 0.688012 19.5299 0.6875 19.5938V20.9688C0.6875 21.0599 0.723718 21.1474 0.788181 21.2118C0.852648 21.2763 0.940081 21.3125 1.03125 21.3125H21.3125C21.4037 21.3125 21.4911 21.2763 21.5556 21.2118C21.62 21.1474 21.6562 21.0599 21.6562 20.9688V19.5938C21.6557 19.5299 21.6374 19.4675 21.6035 19.4135C21.5695 19.3594 21.5211 19.3159 21.4637 19.2878ZM19.5938 9.28125C19.6504 9.28094 19.7061 9.26667 19.7558 9.23969C19.8056 9.21271 19.8479 9.17386 19.8791 9.12656C19.9158 9.07043 19.935 9.0046 19.9341 8.9375H19.9375V6.53125H20.625V15.4688H19.9375V13.0625H19.9341C19.935 12.9954 19.9158 12.9296 19.8791 12.8734C19.8479 12.8261 19.8056 12.7873 19.7558 12.7603C19.7061 12.7333 19.6504 12.7191 19.5938 12.7188H18.2188V9.28125H19.5938ZM5.83 1.87688L6.32844 1.375H15.6716L16.17 1.87688L16.4588 4.46875H5.54125L5.83 1.87688ZM2.40625 12.7188C2.34963 12.7191 2.29396 12.7333 2.24419 12.7603C2.19441 12.7873 2.15208 12.8261 2.12094 12.8734C2.0842 12.9296 2.06505 12.9954 2.06594 13.0625H2.0625V15.4688H1.375V6.53125H2.0625V8.9375H2.06594C2.06505 9.0046 2.0842 9.07043 2.12094 9.12656C2.15208 9.17386 2.19441 9.21271 2.24419 9.23969C2.29396 9.26667 2.34963 9.28094 2.40625 9.28125H3.78125V12.7188H2.40625ZM4.35531 16.8438L2.92188 13.4062H4.125C4.21616 13.4062 4.30361 13.37 4.36807 13.3056C4.43252 13.2411 4.46875 13.1537 4.46875 13.0625V8.9375C4.46875 8.84634 4.43252 8.75889 4.36807 8.69443C4.30361 8.62998 4.21616 8.59375 4.125 8.59375H2.92188L4.35531 5.15625H17.6447L19.0781 8.59375H17.875C17.7838 8.59375 17.6964 8.62998 17.6319 8.69443C17.5675 8.75889 17.5312 8.84634 17.5312 8.9375V13.0625C17.5312 13.1537 17.5675 13.2411 17.6319 13.3056C17.6964 13.37 17.7838 13.4062 17.875 13.4062H19.0781L17.6447 16.8438H4.35531ZM5.92625 17.5312H16.4175L19.855 19.25H2.48875L5.92625 17.5312ZM20.9688 20.625H1.375V19.9375H20.9688V20.625Z" fill="black" fill-opacity="0.2"/>
<path d="M12.3752 9.96907H11.3439V8.59407C11.344 8.51656 11.3179 8.44131 11.2698 8.38054C11.2217 8.31973 11.1545 8.27696 11.0791 8.25919C11.0037 8.24139 10.9244 8.2496 10.8543 8.2825C10.7841 8.3154 10.7271 8.37105 10.6925 8.44042L9.31752 11.1904C9.29133 11.2428 9.27895 11.3011 9.2816 11.3596C9.28425 11.4182 9.30185 11.475 9.33265 11.5249C9.36348 11.5747 9.40655 11.6159 9.45774 11.6444C9.50892 11.6729 9.56657 11.6879 9.62518 11.6878H10.6564V13.4066C10.6564 13.4854 10.6833 13.5618 10.7329 13.6231C10.7825 13.6843 10.8516 13.7267 10.9287 13.7431C10.9522 13.7478 10.9762 13.7503 11.0002 13.7503C11.0667 13.7503 11.1318 13.731 11.1875 13.6948C11.2433 13.6585 11.2873 13.6069 11.3144 13.5461L12.6894 10.4524C12.7126 10.4 12.7224 10.3427 12.7179 10.2856C12.7134 10.2285 12.6946 10.1735 12.6634 10.1255C12.6322 10.0775 12.5895 10.038 12.5391 10.0107C12.4888 9.98337 12.4324 9.96907 12.3752 9.96907ZM11.3439 11.7868V11.3441C11.3439 11.2529 11.3077 11.1655 11.2432 11.101C11.1788 11.0365 11.0913 11.0003 11.0002 11.0003H10.1814L10.6564 10.0502V10.3128C10.6564 10.404 10.6926 10.4914 10.7571 10.5559C10.8216 10.6203 10.909 10.6566 11.0002 10.6566H11.8461L11.3439 11.7868Z" fill="#231F20"/>
<path d="M12.3752 9.96907H11.3439V8.59407C11.344 8.51656 11.3179 8.44131 11.2698 8.38054C11.2217 8.31973 11.1545 8.27696 11.0791 8.25919C11.0037 8.24139 10.9244 8.2496 10.8543 8.2825C10.7841 8.3154 10.7271 8.37105 10.6925 8.44042L9.31752 11.1904C9.29133 11.2428 9.27895 11.3011 9.2816 11.3596C9.28425 11.4182 9.30185 11.475 9.33265 11.5249C9.36348 11.5747 9.40655 11.6159 9.45774 11.6444C9.50892 11.6729 9.56657 11.6879 9.62518 11.6878H10.6564V13.4066C10.6564 13.4854 10.6833 13.5618 10.7329 13.6231C10.7825 13.6843 10.8516 13.7267 10.9287 13.7431C10.9522 13.7478 10.9762 13.7503 11.0002 13.7503C11.0667 13.7503 11.1318 13.731 11.1875 13.6948C11.2433 13.6585 11.2873 13.6069 11.3144 13.5461L12.6894 10.4524C12.7126 10.4 12.7224 10.3427 12.7179 10.2856C12.7134 10.2285 12.6946 10.1735 12.6634 10.1255C12.6322 10.0775 12.5895 10.038 12.5391 10.0107C12.4888 9.98337 12.4324 9.96907 12.3752 9.96907ZM11.3439 11.7868V11.3441C11.3439 11.2529 11.3077 11.1655 11.2432 11.101C11.1788 11.0365 11.0913 11.0003 11.0002 11.0003H10.1814L10.6564 10.0502V10.3128C10.6564 10.404 10.6926 10.4914 10.7571 10.5559C10.8216 10.6203 10.909 10.6566 11.0002 10.6566H11.8461L11.3439 11.7868Z" fill="black" fill-opacity="0.2"/>
</g>
<defs>
<clipPath id="clip0_180_10754">
<rect width="22" height="22" fill="white"/>
</clipPath>
</defs>
</svg>
