<svg width="25" height="25" viewBox="0 0 25 25" fill="none" xmlns="http://www.w3.org/2000/svg">
<g opacity="0.5">
<path d="M23.8281 12.8906H21.4844V11.3281C21.4844 11.2245 21.4432 11.1252 21.37 11.0519C21.2967 10.9787 21.1973 10.9375 21.0938 10.9375H17.9688C17.8652 10.9375 17.7658 10.9787 17.6925 11.0519C17.6193 11.1252 17.5781 11.2245 17.5781 11.3281V12.8906H15.6711C15.6123 12.8908 15.5547 12.8746 15.5047 12.8437C15.4547 12.8129 15.4144 12.7686 15.3883 12.716C15.2977 12.5333 15.1578 12.3797 14.9844 12.2725C14.8109 12.1652 14.6109 12.1087 14.407 12.1094H14.0625V11.3281H14.8438C14.9474 11.3281 15.0467 11.287 15.12 11.2137C15.1932 11.1405 15.2344 11.0411 15.2344 10.9375V9.375C15.2344 9.2714 15.1932 9.17204 15.12 9.09879C15.0467 9.02553 14.9474 8.98438 14.8438 8.98438H13.6719V8.20312H16.2109C16.5735 8.20312 16.9213 8.05908 17.1777 7.80269C17.4341 7.54629 17.5781 7.19854 17.5781 6.83594C17.5781 6.47334 17.4341 6.12559 17.1777 5.86919C16.9213 5.61279 16.5735 5.46875 16.2109 5.46875H8.78906C8.42646 5.46875 8.07871 5.61279 7.82231 5.86919C7.56592 6.12559 7.42188 6.47334 7.42188 6.83594C7.42188 7.19854 7.56592 7.54629 7.82231 7.80269C8.07871 8.05908 8.42646 8.20312 8.78906 8.20312H11.3281V8.98438H10.1562C10.0526 8.98438 9.95329 9.02553 9.88004 9.09879C9.80678 9.17204 9.76562 9.2714 9.76562 9.375V10.9375C9.76562 11.0411 9.80678 11.1405 9.88004 11.2137C9.95329 11.287 10.0526 11.3281 10.1562 11.3281H10.9375V12.1094H10.1562C10.0526 12.1094 9.95329 12.1505 9.88004 12.2238C9.80678 12.297 9.76562 12.3964 9.76562 12.5C9.76501 13.0178 9.55903 13.5142 9.19288 13.8804C8.82674 14.2465 8.33031 14.4525 7.8125 14.4531H7.03125V12.8906C7.03125 12.787 6.9901 12.6877 6.91684 12.6144C6.84358 12.5412 6.74423 12.5 6.64062 12.5H3.51562C3.41202 12.5 3.31267 12.5412 3.23941 12.6144C3.16616 12.6877 3.125 12.787 3.125 12.8906V14.4531H1.17188C1.06827 14.4531 0.968918 14.4943 0.895661 14.5675C0.822405 14.6408 0.78125 14.7401 0.78125 14.8438V17.9688C0.78125 18.0724 0.822405 18.1717 0.895661 18.245C0.968918 18.3182 1.06827 18.3594 1.17188 18.3594H3.125V19.9219C3.125 20.0255 3.16616 20.1248 3.23941 20.1981C3.31267 20.2713 3.41202 20.3125 3.51562 20.3125H6.64062C6.74423 20.3125 6.84358 20.2713 6.91684 20.1981C6.9901 20.1248 7.03125 20.0255 7.03125 19.9219V18.3594H9.32891C9.38765 18.3592 9.44528 18.3754 9.49527 18.4063C9.54525 18.4371 9.58559 18.4814 9.61172 18.534C9.70228 18.7167 9.84221 18.8703 10.0156 18.9775C10.1891 19.0848 10.3891 19.1413 10.593 19.1406H14.8438C14.9474 19.1406 15.0467 19.0995 15.12 19.0262C15.1932 18.953 15.2344 18.8536 15.2344 18.75C15.235 18.2322 15.441 17.7358 15.8071 17.3696C16.1733 17.0035 16.6697 16.7975 17.1875 16.7969H17.5781V18.3594C17.5781 18.463 17.6193 18.5623 17.6925 18.6356C17.7658 18.7088 17.8652 18.75 17.9688 18.75H21.0938C21.1973 18.75 21.2967 18.7088 21.37 18.6356C21.4432 18.5623 21.4844 18.463 21.4844 18.3594V16.7969H23.8281C23.9317 16.7969 24.0311 16.7557 24.1043 16.6825C24.1776 16.6092 24.2188 16.5099 24.2188 16.4062V13.2812C24.2188 13.1776 24.1776 13.0783 24.1043 13.005C24.0311 12.9318 23.9317 12.8906 23.8281 12.8906ZM8.20312 6.83594C8.20312 6.68054 8.26486 6.5315 8.37474 6.42162C8.48463 6.31173 8.63366 6.25 8.78906 6.25H16.2109C16.3663 6.25 16.5154 6.31173 16.6253 6.42162C16.7351 6.5315 16.7969 6.68054 16.7969 6.83594C16.7969 6.99134 16.7351 7.14037 16.6253 7.25026C16.5154 7.36014 16.3663 7.42188 16.2109 7.42188H8.78906C8.63366 7.42188 8.48463 7.36014 8.37474 7.25026C8.26486 7.14037 8.20312 6.99134 8.20312 6.83594ZM12.1094 8.20312H12.8906V8.98438H12.1094V8.20312ZM10.5469 9.76562H14.4531V10.5469H10.5469V9.76562ZM11.7188 11.3281H13.2812V12.1094H11.7188V11.3281ZM1.5625 17.5781V15.2344H3.125V17.5781H1.5625ZM3.90625 17.9688V13.2812H4.6875V19.5312H3.90625V17.9688ZM6.25 19.5312H5.46875V13.2812H6.25V19.5312ZM17.1875 16.0156C16.5302 16.0164 15.8951 16.2537 15.3981 16.684C14.9012 17.1142 14.5756 17.7089 14.4809 18.3594H10.593C10.5342 18.3596 10.4766 18.3434 10.4266 18.3125C10.3766 18.2816 10.3363 18.2374 10.3102 18.1848C10.2196 18.0021 10.0797 17.8484 9.90623 17.7412C9.7328 17.634 9.5328 17.5775 9.32891 17.5781H7.03125V15.2344H7.8125C8.46983 15.2336 9.10494 14.9963 9.60186 14.566C10.0988 14.1358 10.4244 13.5411 10.5191 12.8906H14.407C14.4658 12.8904 14.5234 12.9066 14.5734 12.9375C14.6234 12.9684 14.6637 13.0126 14.6898 13.0652C14.7804 13.2479 14.9203 13.4016 15.0938 13.5088C15.2672 13.616 15.4672 13.6725 15.6711 13.6719H17.5781V16.0156H17.1875ZM18.3594 16.4062V11.7188H19.1406V17.9688H18.3594V16.4062ZM20.7031 17.9688H19.9219V11.7188H20.7031V17.9688ZM23.4375 16.0156H21.4844V13.6719H23.4375V16.0156Z" fill="#231F20"/>
<path d="M23.8281 12.8906H21.4844V11.3281C21.4844 11.2245 21.4432 11.1252 21.37 11.0519C21.2967 10.9787 21.1973 10.9375 21.0938 10.9375H17.9688C17.8652 10.9375 17.7658 10.9787 17.6925 11.0519C17.6193 11.1252 17.5781 11.2245 17.5781 11.3281V12.8906H15.6711C15.6123 12.8908 15.5547 12.8746 15.5047 12.8437C15.4547 12.8129 15.4144 12.7686 15.3883 12.716C15.2977 12.5333 15.1578 12.3797 14.9844 12.2725C14.8109 12.1652 14.6109 12.1087 14.407 12.1094H14.0625V11.3281H14.8438C14.9474 11.3281 15.0467 11.287 15.12 11.2137C15.1932 11.1405 15.2344 11.0411 15.2344 10.9375V9.375C15.2344 9.2714 15.1932 9.17204 15.12 9.09879C15.0467 9.02553 14.9474 8.98438 14.8438 8.98438H13.6719V8.20312H16.2109C16.5735 8.20312 16.9213 8.05908 17.1777 7.80269C17.4341 7.54629 17.5781 7.19854 17.5781 6.83594C17.5781 6.47334 17.4341 6.12559 17.1777 5.86919C16.9213 5.61279 16.5735 5.46875 16.2109 5.46875H8.78906C8.42646 5.46875 8.07871 5.61279 7.82231 5.86919C7.56592 6.12559 7.42188 6.47334 7.42188 6.83594C7.42188 7.19854 7.56592 7.54629 7.82231 7.80269C8.07871 8.05908 8.42646 8.20312 8.78906 8.20312H11.3281V8.98438H10.1562C10.0526 8.98438 9.95329 9.02553 9.88004 9.09879C9.80678 9.17204 9.76562 9.2714 9.76562 9.375V10.9375C9.76562 11.0411 9.80678 11.1405 9.88004 11.2137C9.95329 11.287 10.0526 11.3281 10.1562 11.3281H10.9375V12.1094H10.1562C10.0526 12.1094 9.95329 12.1505 9.88004 12.2238C9.80678 12.297 9.76562 12.3964 9.76562 12.5C9.76501 13.0178 9.55903 13.5142 9.19288 13.8804C8.82674 14.2465 8.33031 14.4525 7.8125 14.4531H7.03125V12.8906C7.03125 12.787 6.9901 12.6877 6.91684 12.6144C6.84358 12.5412 6.74423 12.5 6.64062 12.5H3.51562C3.41202 12.5 3.31267 12.5412 3.23941 12.6144C3.16616 12.6877 3.125 12.787 3.125 12.8906V14.4531H1.17188C1.06827 14.4531 0.968918 14.4943 0.895661 14.5675C0.822405 14.6408 0.78125 14.7401 0.78125 14.8438V17.9688C0.78125 18.0724 0.822405 18.1717 0.895661 18.245C0.968918 18.3182 1.06827 18.3594 1.17188 18.3594H3.125V19.9219C3.125 20.0255 3.16616 20.1248 3.23941 20.1981C3.31267 20.2713 3.41202 20.3125 3.51562 20.3125H6.64062C6.74423 20.3125 6.84358 20.2713 6.91684 20.1981C6.9901 20.1248 7.03125 20.0255 7.03125 19.9219V18.3594H9.32891C9.38765 18.3592 9.44528 18.3754 9.49527 18.4063C9.54525 18.4371 9.58559 18.4814 9.61172 18.534C9.70228 18.7167 9.84221 18.8703 10.0156 18.9775C10.1891 19.0848 10.3891 19.1413 10.593 19.1406H14.8438C14.9474 19.1406 15.0467 19.0995 15.12 19.0262C15.1932 18.953 15.2344 18.8536 15.2344 18.75C15.235 18.2322 15.441 17.7358 15.8071 17.3696C16.1733 17.0035 16.6697 16.7975 17.1875 16.7969H17.5781V18.3594C17.5781 18.463 17.6193 18.5623 17.6925 18.6356C17.7658 18.7088 17.8652 18.75 17.9688 18.75H21.0938C21.1973 18.75 21.2967 18.7088 21.37 18.6356C21.4432 18.5623 21.4844 18.463 21.4844 18.3594V16.7969H23.8281C23.9317 16.7969 24.0311 16.7557 24.1043 16.6825C24.1776 16.6092 24.2188 16.5099 24.2188 16.4062V13.2812C24.2188 13.1776 24.1776 13.0783 24.1043 13.005C24.0311 12.9318 23.9317 12.8906 23.8281 12.8906ZM8.20312 6.83594C8.20312 6.68054 8.26486 6.5315 8.37474 6.42162C8.48463 6.31173 8.63366 6.25 8.78906 6.25H16.2109C16.3663 6.25 16.5154 6.31173 16.6253 6.42162C16.7351 6.5315 16.7969 6.68054 16.7969 6.83594C16.7969 6.99134 16.7351 7.14037 16.6253 7.25026C16.5154 7.36014 16.3663 7.42188 16.2109 7.42188H8.78906C8.63366 7.42188 8.48463 7.36014 8.37474 7.25026C8.26486 7.14037 8.20312 6.99134 8.20312 6.83594ZM12.1094 8.20312H12.8906V8.98438H12.1094V8.20312ZM10.5469 9.76562H14.4531V10.5469H10.5469V9.76562ZM11.7188 11.3281H13.2812V12.1094H11.7188V11.3281ZM1.5625 17.5781V15.2344H3.125V17.5781H1.5625ZM3.90625 17.9688V13.2812H4.6875V19.5312H3.90625V17.9688ZM6.25 19.5312H5.46875V13.2812H6.25V19.5312ZM17.1875 16.0156C16.5302 16.0164 15.8951 16.2537 15.3981 16.684C14.9012 17.1142 14.5756 17.7089 14.4809 18.3594H10.593C10.5342 18.3596 10.4766 18.3434 10.4266 18.3125C10.3766 18.2816 10.3363 18.2374 10.3102 18.1848C10.2196 18.0021 10.0797 17.8484 9.90623 17.7412C9.7328 17.634 9.5328 17.5775 9.32891 17.5781H7.03125V15.2344H7.8125C8.46983 15.2336 9.10494 14.9963 9.60186 14.566C10.0988 14.1358 10.4244 13.5411 10.5191 12.8906H14.407C14.4658 12.8904 14.5234 12.9066 14.5734 12.9375C14.6234 12.9684 14.6637 13.0126 14.6898 13.0652C14.7804 13.2479 14.9203 13.4016 15.0938 13.5088C15.2672 13.616 15.4672 13.6725 15.6711 13.6719H17.5781V16.0156H17.1875ZM18.3594 16.4062V11.7188H19.1406V17.9688H18.3594V16.4062ZM20.7031 17.9688H19.9219V11.7188H20.7031V17.9688ZM23.4375 16.0156H21.4844V13.6719H23.4375V16.0156Z" fill="black" fill-opacity="0.2"/>
<path d="M14.4531 13.6719H10.9375V14.4531H14.4531V13.6719Z" fill="#231F20"/>
<path d="M14.4531 13.6719H10.9375V14.4531H14.4531V13.6719Z" fill="black" fill-opacity="0.2"/>
<path d="M13.2812 15.2344H10.9375V16.0156H13.2812V15.2344Z" fill="#231F20"/>
<path d="M13.2812 15.2344H10.9375V16.0156H13.2812V15.2344Z" fill="black" fill-opacity="0.2"/>
<path d="M14.0625 16.7969H13.2812V17.5781H14.0625V16.7969Z" fill="#231F20"/>
<path d="M14.0625 16.7969H13.2812V17.5781H14.0625V16.7969Z" fill="black" fill-opacity="0.2"/>
</g>
</svg>
