<svg width="25" height="25" viewBox="0 0 25 25" fill="none" xmlns="http://www.w3.org/2000/svg">
<g opacity="0.5">
<path d="M21.0938 4.82065C12.2773 -3.49185 -0.554688 7.53549 6.52734 17.5785C5.4483 17.3399 4.38817 17.0227 3.35547 16.6292C3.36975 16.5115 3.35906 16.3921 3.32409 16.2788C3.28912 16.1655 3.23066 16.0608 3.15252 15.9716C3.07438 15.8824 2.97832 15.8107 2.8706 15.7611C2.76288 15.7116 2.64592 15.6853 2.52734 15.6839H2C1.78104 15.6839 1.571 15.7706 1.4158 15.9251C1.26061 16.0796 1.17291 16.2892 1.17188 16.5081V22.0082C1.17188 22.2278 1.25912 22.4384 1.41443 22.5937C1.56973 22.749 1.78037 22.8363 2 22.8363H2.52734C2.72029 22.8359 2.90706 22.7682 3.0554 22.6448C3.20374 22.5215 3.30435 22.3501 3.33984 22.1605C5.57345 22.7038 7.85834 23.0089 10.1562 23.0707C14.0625 23.0707 18.2656 21.6527 20.9688 18.6605C21.5948 17.9966 22.1211 17.2452 22.5312 16.43V16.4105C24.6406 12.7816 24.1406 7.81284 21.0938 4.82065ZM2.52734 22.055H2C1.98757 22.055 1.97565 22.0501 1.96685 22.0413C1.95806 22.0325 1.95312 22.0206 1.95312 22.0082V16.5081C1.95312 16.4957 1.95806 16.4838 1.96685 16.475C1.97565 16.4662 1.98757 16.4613 2 16.4613H2.52734C2.53978 16.4613 2.5517 16.4662 2.56049 16.475C2.56928 16.4838 2.57422 16.4957 2.57422 16.5081V22.0082C2.57422 22.0206 2.56928 22.0325 2.56049 22.0413C2.5517 22.0501 2.53978 22.055 2.52734 22.055ZM21.875 16.0394C20.4961 18.5707 18.5195 20.1332 15.8711 21.1683C11.918 22.7308 8.52344 22.4691 3.37109 21.3441V17.4378C7.87109 19.141 12.3555 19.1449 16.0898 17.7972C16.8385 17.5628 17.5386 17.1949 18.1562 16.7113C18.1984 16.6907 18.2356 16.6614 18.2656 16.6253C18.953 16.0584 19.5167 15.3564 19.9219 14.5628C19.9546 14.5183 19.9784 14.4679 19.9922 14.4144C22.1133 10.2347 18.8203 5.01596 14.1328 5.09799C6.55078 5.27378 5.17188 15.7425 12.4336 17.8753C10.8335 18.0787 9.21243 18.0485 7.62109 17.7855C6.46875 16.305 5.23047 13.9417 5.24219 11.6019C5.24529 9.24153 6.18566 6.97901 7.85653 5.31181C9.52739 3.6446 11.792 2.7092 14.1523 2.71128C21.0391 2.70346 25.2344 10.1019 21.875 16.0394ZM14.1523 17.3246C12.6368 17.3174 11.1854 16.7121 10.1138 15.6405C9.04211 14.5688 8.43688 13.1174 8.42969 11.6019C8.74609 4.01206 19.5625 4.01206 19.875 11.6019C19.874 13.1193 19.2707 14.5743 18.1977 15.6473C17.1247 16.7203 15.6698 17.3235 14.1523 17.3246Z" fill="#231F20"/>
<path d="M21.0938 4.82065C12.2773 -3.49185 -0.554688 7.53549 6.52734 17.5785C5.4483 17.3399 4.38817 17.0227 3.35547 16.6292C3.36975 16.5115 3.35906 16.3921 3.32409 16.2788C3.28912 16.1655 3.23066 16.0608 3.15252 15.9716C3.07438 15.8824 2.97832 15.8107 2.8706 15.7611C2.76288 15.7116 2.64592 15.6853 2.52734 15.6839H2C1.78104 15.6839 1.571 15.7706 1.4158 15.9251C1.26061 16.0796 1.17291 16.2892 1.17188 16.5081V22.0082C1.17188 22.2278 1.25912 22.4384 1.41443 22.5937C1.56973 22.749 1.78037 22.8363 2 22.8363H2.52734C2.72029 22.8359 2.90706 22.7682 3.0554 22.6448C3.20374 22.5215 3.30435 22.3501 3.33984 22.1605C5.57345 22.7038 7.85834 23.0089 10.1562 23.0707C14.0625 23.0707 18.2656 21.6527 20.9688 18.6605C21.5948 17.9966 22.1211 17.2452 22.5312 16.43V16.4105C24.6406 12.7816 24.1406 7.81284 21.0938 4.82065ZM2.52734 22.055H2C1.98757 22.055 1.97565 22.0501 1.96685 22.0413C1.95806 22.0325 1.95312 22.0206 1.95312 22.0082V16.5081C1.95312 16.4957 1.95806 16.4838 1.96685 16.475C1.97565 16.4662 1.98757 16.4613 2 16.4613H2.52734C2.53978 16.4613 2.5517 16.4662 2.56049 16.475C2.56928 16.4838 2.57422 16.4957 2.57422 16.5081V22.0082C2.57422 22.0206 2.56928 22.0325 2.56049 22.0413C2.5517 22.0501 2.53978 22.055 2.52734 22.055ZM21.875 16.0394C20.4961 18.5707 18.5195 20.1332 15.8711 21.1683C11.918 22.7308 8.52344 22.4691 3.37109 21.3441V17.4378C7.87109 19.141 12.3555 19.1449 16.0898 17.7972C16.8385 17.5628 17.5386 17.1949 18.1562 16.7113C18.1984 16.6907 18.2356 16.6614 18.2656 16.6253C18.953 16.0584 19.5167 15.3564 19.9219 14.5628C19.9546 14.5183 19.9784 14.4679 19.9922 14.4144C22.1133 10.2347 18.8203 5.01596 14.1328 5.09799C6.55078 5.27378 5.17188 15.7425 12.4336 17.8753C10.8335 18.0787 9.21243 18.0485 7.62109 17.7855C6.46875 16.305 5.23047 13.9417 5.24219 11.6019C5.24529 9.24153 6.18566 6.97901 7.85653 5.31181C9.52739 3.6446 11.792 2.7092 14.1523 2.71128C21.0391 2.70346 25.2344 10.1019 21.875 16.0394ZM14.1523 17.3246C12.6368 17.3174 11.1854 16.7121 10.1138 15.6405C9.04211 14.5688 8.43688 13.1174 8.42969 11.6019C8.74609 4.01206 19.5625 4.01206 19.875 11.6019C19.874 13.1193 19.2707 14.5743 18.1977 15.6473C17.1247 16.7203 15.6698 17.3235 14.1523 17.3246Z" fill="black" fill-opacity="0.2"/>
<path d="M17.7031 8.05078C15.9023 6.12891 12.4336 6.12891 10.6328 8.05078C10.6328 8.05078 10.6328 8.05078 10.6094 8.07422C8.6875 9.875 8.6875 13.3438 10.6094 15.1445C10.617 15.1469 10.6252 15.1469 10.6328 15.1445C12.4336 17.0703 15.9023 17.0703 17.7031 15.1445C17.7108 15.1469 17.7189 15.1469 17.7266 15.1445C19.6484 13.3438 19.6484 9.875 17.7266 8.07031C17.707 8.05859 17.7031 8.05469 17.7031 8.05078ZM17.4102 14.3008L15.0938 11.9922H18.3594C18.2846 12.8426 17.9536 13.6503 17.4102 14.3086V14.3008ZM9.93359 11.9922H13.2109L10.8945 14.3047C10.3478 13.6488 10.0127 12.8425 9.93359 11.9922ZM10.8945 8.89453L13.2109 11.2109H9.93359C10.0134 10.3597 10.3483 9.55231 10.8945 8.89453ZM14.543 7.38281C15.3947 7.46092 16.2025 7.79604 16.8594 8.34375L14.543 10.6562V7.38281ZM13.7617 10.6562L11.4453 8.34375C12.1022 7.79604 12.91 7.46092 13.7617 7.38281V10.6562ZM13.7617 12.543V15.8203C12.9087 15.7361 12.1012 15.3956 11.4453 14.8438L13.7617 12.543ZM14.543 12.543L16.8594 14.8438C16.2016 15.39 15.3942 15.7249 14.543 15.8047V12.543ZM15.0938 11.2109L17.4102 8.89453C17.9536 9.55285 18.2846 10.3605 18.3594 11.2109H15.0938Z" fill="#231F20"/>
<path d="M17.7031 8.05078C15.9023 6.12891 12.4336 6.12891 10.6328 8.05078C10.6328 8.05078 10.6328 8.05078 10.6094 8.07422C8.6875 9.875 8.6875 13.3438 10.6094 15.1445C10.617 15.1469 10.6252 15.1469 10.6328 15.1445C12.4336 17.0703 15.9023 17.0703 17.7031 15.1445C17.7108 15.1469 17.7189 15.1469 17.7266 15.1445C19.6484 13.3438 19.6484 9.875 17.7266 8.07031C17.707 8.05859 17.7031 8.05469 17.7031 8.05078ZM17.4102 14.3008L15.0938 11.9922H18.3594C18.2846 12.8426 17.9536 13.6503 17.4102 14.3086V14.3008ZM9.93359 11.9922H13.2109L10.8945 14.3047C10.3478 13.6488 10.0127 12.8425 9.93359 11.9922ZM10.8945 8.89453L13.2109 11.2109H9.93359C10.0134 10.3597 10.3483 9.55231 10.8945 8.89453ZM14.543 7.38281C15.3947 7.46092 16.2025 7.79604 16.8594 8.34375L14.543 10.6562V7.38281ZM13.7617 10.6562L11.4453 8.34375C12.1022 7.79604 12.91 7.46092 13.7617 7.38281V10.6562ZM13.7617 12.543V15.8203C12.9087 15.7361 12.1012 15.3956 11.4453 14.8438L13.7617 12.543ZM14.543 12.543L16.8594 14.8438C16.2016 15.39 15.3942 15.7249 14.543 15.8047V12.543ZM15.0938 11.2109L17.4102 8.89453C17.9536 9.55285 18.2846 10.3605 18.3594 11.2109H15.0938Z" fill="black" fill-opacity="0.2"/>
</g>
</svg>
