<svg width="25" height="25" viewBox="0 0 25 25" fill="none" xmlns="http://www.w3.org/2000/svg">
<g opacity="0.5" clip-path="url(#clip0_178_10715)">
<path d="M1.68085 13.8262C1.95055 13.8262 2.16913 13.6076 2.16913 13.3379C2.16913 13.0682 1.95055 12.8496 1.68085 12.8496H1.68047C1.41077 12.8496 1.19238 13.0682 1.19238 13.3379C1.19238 13.6076 1.41135 13.8262 1.68085 13.8262Z" fill="#231F20"/>
<path d="M1.68085 13.8262C1.95055 13.8262 2.16913 13.6076 2.16913 13.3379C2.16913 13.0682 1.95055 12.8496 1.68085 12.8496H1.68047C1.41077 12.8496 1.19238 13.0682 1.19238 13.3379C1.19238 13.6076 1.41135 13.8262 1.68085 13.8262Z" fill="black" fill-opacity="0.2"/>
<path d="M1.19171 17.8518L0.286865 18.267C0.113869 18.3466 0.00267059 18.5194 0.00228912 18.7099L3.07015e-07 19.8362C-0.000190427 20.0071 0.0885011 20.1656 0.234604 20.2543L0.73471 20.5587C0.965117 20.6989 1.26552 20.6259 1.40571 20.3955C1.5459 20.165 1.47266 19.8646 1.24225 19.7244L0.977133 19.5631L0.978278 19.0243L1.68113 18.7017L2.38266 19.0264L2.38151 19.5652L2.11582 19.7258C1.88484 19.8652 1.81083 20.1654 1.95026 20.3962C2.042 20.548 2.20337 20.6322 2.36873 20.6322C2.45475 20.6322 2.54173 20.6095 2.62069 20.5616L3.12175 20.2589C3.26785 20.1706 3.35731 20.0125 3.3575 19.8419L3.35979 18.7157C3.36017 18.5249 3.24954 18.3515 3.07655 18.2714L2.16808 17.8511V15.291C2.16808 15.0213 1.9495 14.8027 1.6798 14.8027C1.41029 14.8027 1.19152 15.0213 1.19152 15.291V17.8518H1.19171Z" fill="#231F20"/>
<path d="M1.19171 17.8518L0.286865 18.267C0.113869 18.3466 0.00267059 18.5194 0.00228912 18.7099L3.07015e-07 19.8362C-0.000190427 20.0071 0.0885011 20.1656 0.234604 20.2543L0.73471 20.5587C0.965117 20.6989 1.26552 20.6259 1.40571 20.3955C1.5459 20.165 1.47266 19.8646 1.24225 19.7244L0.977133 19.5631L0.978278 19.0243L1.68113 18.7017L2.38266 19.0264L2.38151 19.5652L2.11582 19.7258C1.88484 19.8652 1.81083 20.1654 1.95026 20.3962C2.042 20.548 2.20337 20.6322 2.36873 20.6322C2.45475 20.6322 2.54173 20.6095 2.62069 20.5616L3.12175 20.2589C3.26785 20.1706 3.35731 20.0125 3.3575 19.8419L3.35979 18.7157C3.36017 18.5249 3.24954 18.3515 3.07655 18.2714L2.16808 17.8511V15.291C2.16808 15.0213 1.9495 14.8027 1.6798 14.8027C1.41029 14.8027 1.19152 15.0213 1.19152 15.291V17.8518H1.19171Z" fill="black" fill-opacity="0.2"/>
<path d="M24.1529 23.1277C23.6276 23.6969 22.8828 24.0234 22.1093 24.0234C21.3992 24.0234 20.7135 23.7474 20.1993 23.2618V19.153C20.3279 19.0651 20.4122 18.9174 20.4122 18.75V16.8945H20.9472C21.2169 16.8945 21.4355 16.6759 21.4355 16.4062C21.4355 16.1365 21.2169 15.9179 20.9472 15.9179H18.9405V5.17921C18.9405 4.90951 18.7217 4.69093 18.4522 4.69093H14.9394C14.6697 4.69093 14.4512 4.90951 14.4512 5.17921V8.10545H13.4746V3.9318C13.4746 3.6621 13.2558 3.44352 12.9863 3.44352H11.5215V2.45456C11.5215 1.63955 12.1845 0.976561 12.9995 0.976561H17.0654C17.3351 0.976561 17.5536 0.757979 17.5536 0.48828C17.5536 0.218582 17.3351 0 17.0654 0H12.9995C11.646 0 10.5449 1.10111 10.5449 2.45456V8.10545H9.08007C8.81038 8.10545 8.59179 8.32404 8.59179 8.59373V8.79534L6.61979 5.65566C6.34589 5.21945 5.91846 4.91599 5.41644 4.80136C4.91424 4.68673 4.39754 4.77447 3.96152 5.04836C3.45741 5.36498 3.15052 5.87806 3.07689 6.42623L0.543177 8.84627C0.204051 9.17033 0.0112187 9.60711 0.000537566 10.0759C-0.0103343 10.5451 0.16228 10.9901 0.486338 11.3294C0.830996 11.6901 1.29353 11.8717 1.75682 11.8717C2.19322 11.8717 2.63019 11.7105 2.9697 11.3863L4.65446 9.77724L6.64497 12.9465C6.22974 13.3745 5.97339 13.9576 5.97339 14.5996V15.9179H4.05269C3.78318 15.9179 3.56441 16.1365 3.56441 16.4062C3.56441 16.6759 3.78318 16.8945 4.05269 16.8945H4.5919V18.75C4.5919 18.9172 4.67639 19.0649 4.80476 19.153V23.2578C4.29016 23.7461 3.60275 24.0234 2.89074 24.0234C2.11731 24.0234 1.37249 23.6969 0.847017 23.1277C0.664294 22.9295 0.355304 22.9171 0.157131 23.1C-0.0410426 23.2828 -0.0534403 23.5918 0.129474 23.7899C0.839197 24.559 1.84551 25 2.89074 25C3.77021 25 4.62223 24.6877 5.29304 24.1306C5.96385 24.6877 6.81586 25 7.69534 25C8.57482 25 9.42683 24.6877 10.0976 24.1306C10.7685 24.6877 11.6205 25 12.4999 25C13.3794 25 14.2314 24.6877 14.9022 24.1306C15.5732 24.6877 16.4253 25 17.3047 25C18.1842 25 19.0362 24.6877 19.707 24.1306C20.3779 24.6877 21.2299 25 22.1093 25C23.1544 25 24.1609 24.559 24.8704 23.7899C25.0533 23.5918 25.0409 23.283 24.8429 23.1C24.6446 22.9171 24.3358 22.9295 24.1529 23.1277ZM18.2845 23.8439L16.796 22.3556L19.2228 19.9289V23.2542C18.9512 23.5128 18.6313 23.7129 18.2845 23.8439ZM6.71554 23.8439C6.3705 23.7136 6.05216 23.5147 5.78132 23.258V19.9329L8.20384 22.3556L6.71554 23.8439ZM8.8943 21.665L6.46758 19.2382H11.3212L8.8943 21.665ZM13.6789 19.2382H18.5323L16.1056 21.665L13.6789 19.2382ZM17.9639 9.8976L15.7344 8.123L17.9639 6.2332V9.8976ZM17.6709 10.9125L15.4277 12.6982V9.12703L17.6709 10.9125ZM17.9639 11.9276V15.3936L15.7867 13.6606L17.9639 11.9276ZM15.4277 14.623L17.0547 15.9179H15.4277V14.623ZM17.1209 5.66749L15.4277 7.10295V5.66749H17.1209ZM11.5215 4.42008H12.498V8.10545H11.5215V4.42008ZM14.4512 9.08202V15.9179H9.56835V14.2904H11.9207C12.1902 14.2904 12.409 14.0718 12.409 13.8021C12.409 13.5324 12.1902 13.3138 11.9207 13.3138H9.56835V11.6861H11.9207C12.1902 11.6861 12.409 11.4675 12.409 11.198C12.409 10.9283 12.1902 10.7097 11.9207 10.7097H9.56835V9.08202H14.4512ZM4.48089 5.87539C4.69623 5.74016 4.95124 5.69686 5.19901 5.75351C5.44677 5.80996 5.65753 5.95969 5.79276 6.17503L8.56376 10.5867C8.57253 10.6008 8.58187 10.6142 8.59179 10.6268V12.2232H8.34956C8.03294 12.2232 7.73082 12.286 7.45425 12.3989L5.16487 8.75376C5.1641 8.75243 5.16315 8.7509 5.1622 8.74957L4.18125 7.18745C3.90201 6.74323 4.03648 6.15462 4.48089 5.87539ZM2.29526 10.68C1.98437 10.9772 1.4896 10.9657 1.19244 10.6548C1.04862 10.5043 0.971949 10.3065 0.976717 10.0984C0.981485 9.89016 1.06713 9.69618 1.21781 9.55237L3.28213 7.58074C3.30463 7.62328 3.32828 7.66543 3.35422 7.70701L4.12422 8.93305L2.29526 10.68ZM6.94995 14.5996C6.94995 13.8277 7.57785 13.1998 8.34956 13.1998H8.59179V15.9179H6.94995V14.5996ZM18.4512 16.8945H18.4518H19.4356V18.2617C19.4356 18.2617 12.4999 18.2617 12.4998 18.2617H5.56846V16.8945H18.4512ZM10.4564 23.1277C10.3641 23.0276 10.234 22.9705 10.0976 22.9705C9.96146 22.9705 9.83119 23.0276 9.73887 23.1277C9.26642 23.6396 8.6164 23.9543 7.92785 24.0127L12.0117 19.9289V23.979C11.4194 23.8723 10.8699 23.5757 10.4564 23.1277ZM15.2612 23.1277C15.1687 23.0276 15.0386 22.9705 14.9022 22.9705C14.7661 22.9705 14.636 23.0276 14.5435 23.1277C14.13 23.5757 13.5805 23.8725 12.9882 23.979V19.9289L17.072 24.0127C16.3835 23.9542 15.7337 23.6396 15.2612 23.1277Z" fill="#231F20"/>
<path d="M24.1529 23.1277C23.6276 23.6969 22.8828 24.0234 22.1093 24.0234C21.3992 24.0234 20.7135 23.7474 20.1993 23.2618V19.153C20.3279 19.0651 20.4122 18.9174 20.4122 18.75V16.8945H20.9472C21.2169 16.8945 21.4355 16.6759 21.4355 16.4062C21.4355 16.1365 21.2169 15.9179 20.9472 15.9179H18.9405V5.17921C18.9405 4.90951 18.7217 4.69093 18.4522 4.69093H14.9394C14.6697 4.69093 14.4512 4.90951 14.4512 5.17921V8.10545H13.4746V3.9318C13.4746 3.6621 13.2558 3.44352 12.9863 3.44352H11.5215V2.45456C11.5215 1.63955 12.1845 0.976561 12.9995 0.976561H17.0654C17.3351 0.976561 17.5536 0.757979 17.5536 0.48828C17.5536 0.218582 17.3351 0 17.0654 0H12.9995C11.646 0 10.5449 1.10111 10.5449 2.45456V8.10545H9.08007C8.81038 8.10545 8.59179 8.32404 8.59179 8.59373V8.79534L6.61979 5.65566C6.34589 5.21945 5.91846 4.91599 5.41644 4.80136C4.91424 4.68673 4.39754 4.77447 3.96152 5.04836C3.45741 5.36498 3.15052 5.87806 3.07689 6.42623L0.543177 8.84627C0.204051 9.17033 0.0112187 9.60711 0.000537566 10.0759C-0.0103343 10.5451 0.16228 10.9901 0.486338 11.3294C0.830996 11.6901 1.29353 11.8717 1.75682 11.8717C2.19322 11.8717 2.63019 11.7105 2.9697 11.3863L4.65446 9.77724L6.64497 12.9465C6.22974 13.3745 5.97339 13.9576 5.97339 14.5996V15.9179H4.05269C3.78318 15.9179 3.56441 16.1365 3.56441 16.4062C3.56441 16.6759 3.78318 16.8945 4.05269 16.8945H4.5919V18.75C4.5919 18.9172 4.67639 19.0649 4.80476 19.153V23.2578C4.29016 23.7461 3.60275 24.0234 2.89074 24.0234C2.11731 24.0234 1.37249 23.6969 0.847017 23.1277C0.664294 22.9295 0.355304 22.9171 0.157131 23.1C-0.0410426 23.2828 -0.0534403 23.5918 0.129474 23.7899C0.839197 24.559 1.84551 25 2.89074 25C3.77021 25 4.62223 24.6877 5.29304 24.1306C5.96385 24.6877 6.81586 25 7.69534 25C8.57482 25 9.42683 24.6877 10.0976 24.1306C10.7685 24.6877 11.6205 25 12.4999 25C13.3794 25 14.2314 24.6877 14.9022 24.1306C15.5732 24.6877 16.4253 25 17.3047 25C18.1842 25 19.0362 24.6877 19.707 24.1306C20.3779 24.6877 21.2299 25 22.1093 25C23.1544 25 24.1609 24.559 24.8704 23.7899C25.0533 23.5918 25.0409 23.283 24.8429 23.1C24.6446 22.9171 24.3358 22.9295 24.1529 23.1277ZM18.2845 23.8439L16.796 22.3556L19.2228 19.9289V23.2542C18.9512 23.5128 18.6313 23.7129 18.2845 23.8439ZM6.71554 23.8439C6.3705 23.7136 6.05216 23.5147 5.78132 23.258V19.9329L8.20384 22.3556L6.71554 23.8439ZM8.8943 21.665L6.46758 19.2382H11.3212L8.8943 21.665ZM13.6789 19.2382H18.5323L16.1056 21.665L13.6789 19.2382ZM17.9639 9.8976L15.7344 8.123L17.9639 6.2332V9.8976ZM17.6709 10.9125L15.4277 12.6982V9.12703L17.6709 10.9125ZM17.9639 11.9276V15.3936L15.7867 13.6606L17.9639 11.9276ZM15.4277 14.623L17.0547 15.9179H15.4277V14.623ZM17.1209 5.66749L15.4277 7.10295V5.66749H17.1209ZM11.5215 4.42008H12.498V8.10545H11.5215V4.42008ZM14.4512 9.08202V15.9179H9.56835V14.2904H11.9207C12.1902 14.2904 12.409 14.0718 12.409 13.8021C12.409 13.5324 12.1902 13.3138 11.9207 13.3138H9.56835V11.6861H11.9207C12.1902 11.6861 12.409 11.4675 12.409 11.198C12.409 10.9283 12.1902 10.7097 11.9207 10.7097H9.56835V9.08202H14.4512ZM4.48089 5.87539C4.69623 5.74016 4.95124 5.69686 5.19901 5.75351C5.44677 5.80996 5.65753 5.95969 5.79276 6.17503L8.56376 10.5867C8.57253 10.6008 8.58187 10.6142 8.59179 10.6268V12.2232H8.34956C8.03294 12.2232 7.73082 12.286 7.45425 12.3989L5.16487 8.75376C5.1641 8.75243 5.16315 8.7509 5.1622 8.74957L4.18125 7.18745C3.90201 6.74323 4.03648 6.15462 4.48089 5.87539ZM2.29526 10.68C1.98437 10.9772 1.4896 10.9657 1.19244 10.6548C1.04862 10.5043 0.971949 10.3065 0.976717 10.0984C0.981485 9.89016 1.06713 9.69618 1.21781 9.55237L3.28213 7.58074C3.30463 7.62328 3.32828 7.66543 3.35422 7.70701L4.12422 8.93305L2.29526 10.68ZM6.94995 14.5996C6.94995 13.8277 7.57785 13.1998 8.34956 13.1998H8.59179V15.9179H6.94995V14.5996ZM18.4512 16.8945H18.4518H19.4356V18.2617C19.4356 18.2617 12.4999 18.2617 12.4998 18.2617H5.56846V16.8945H18.4512ZM10.4564 23.1277C10.3641 23.0276 10.234 22.9705 10.0976 22.9705C9.96146 22.9705 9.83119 23.0276 9.73887 23.1277C9.26642 23.6396 8.6164 23.9543 7.92785 24.0127L12.0117 19.9289V23.979C11.4194 23.8723 10.8699 23.5757 10.4564 23.1277ZM15.2612 23.1277C15.1687 23.0276 15.0386 22.9705 14.9022 22.9705C14.7661 22.9705 14.636 23.0276 14.5435 23.1277C14.13 23.5757 13.5805 23.8725 12.9882 23.979V19.9289L17.072 24.0127C16.3835 23.9542 15.7337 23.6396 15.2612 23.1277Z" fill="black" fill-opacity="0.2"/>
<path d="M19.0186 0.976561C19.1469 0.976561 19.273 0.9243 19.3638 0.83351C19.4546 0.74272 19.5068 0.616645 19.5068 0.48828C19.5068 0.359916 19.4546 0.233841 19.3638 0.143051C19.273 0.0522612 19.1469 0 19.0186 0C18.8902 0 18.7641 0.0522612 18.6733 0.143051C18.5825 0.233841 18.5303 0.359916 18.5303 0.48828C18.5303 0.616645 18.5825 0.74272 18.6733 0.83351C18.7643 0.9243 18.8902 0.976561 19.0186 0.976561Z" fill="#231F20"/>
<path d="M19.0186 0.976561C19.1469 0.976561 19.273 0.9243 19.3638 0.83351C19.4546 0.74272 19.5068 0.616645 19.5068 0.48828C19.5068 0.359916 19.4546 0.233841 19.3638 0.143051C19.273 0.0522612 19.1469 0 19.0186 0C18.8902 0 18.7641 0.0522612 18.6733 0.143051C18.5825 0.233841 18.5303 0.359916 18.5303 0.48828C18.5303 0.616645 18.5825 0.74272 18.6733 0.83351C18.7643 0.9243 18.8902 0.976561 19.0186 0.976561Z" fill="black" fill-opacity="0.2"/>
<path d="M18.415 2.92969H24.5121C24.7818 2.92969 25.0003 2.7111 25.0003 2.44141C25.0003 2.17171 24.7818 1.95312 24.5121 1.95312H18.415C18.1453 1.95312 17.9268 2.17171 17.9268 2.44141C17.9268 2.7111 18.1453 2.92969 18.415 2.92969Z" fill="#231F20"/>
<path d="M18.415 2.92969H24.5121C24.7818 2.92969 25.0003 2.7111 25.0003 2.44141C25.0003 2.17171 24.7818 1.95312 24.5121 1.95312H18.415C18.1453 1.95312 17.9268 2.17171 17.9268 2.44141C17.9268 2.7111 18.1453 2.92969 18.415 2.92969Z" fill="black" fill-opacity="0.2"/>
<path d="M14.9766 1.95312C14.7069 1.95312 14.4883 2.17171 14.4883 2.44141C14.4883 2.7111 14.7069 2.92969 14.9766 2.92969H16.3146C16.5841 2.92969 16.8028 2.7111 16.8028 2.44141C16.8028 2.17171 16.5841 1.95312 16.3146 1.95312H14.9766Z" fill="#231F20"/>
<path d="M14.9766 1.95312C14.7069 1.95312 14.4883 2.17171 14.4883 2.44141C14.4883 2.7111 14.7069 2.92969 14.9766 2.92969H16.3146C16.5841 2.92969 16.8028 2.7111 16.8028 2.44141C16.8028 2.17171 16.5841 1.95312 16.3146 1.95312H14.9766Z" fill="black" fill-opacity="0.2"/>
</g>
<defs>
<clipPath id="clip0_178_10715">
<rect width="25" height="25" fill="white"/>
</clipPath>
</defs>
</svg>
