<svg width="41" height="24" viewBox="0 0 41 24" fill="none" xmlns="http://www.w3.org/2000/svg">
<g clip-path="url(#clip0_1611_83)">
<path d="M38.0145 0.850586H3.95005C2.56672 0.850586 1.44531 1.972 1.44531 3.35532V20.3875C1.44531 21.7708 2.56672 22.8922 3.95005 22.8922H38.0145C39.3977 22.8922 40.5192 21.7708 40.5192 20.3875V3.35532C40.5192 1.972 39.3977 0.850586 38.0145 0.850586Z" fill="white"/>
<path d="M12.3345 7.87216C11.7865 7.87216 11.2961 7.97131 10.8629 8.1696C10.435 8.36789 10.0724 8.65488 9.77494 9.0306C9.47751 9.4011 9.25051 9.85247 9.09397 10.3847C8.93741 10.9117 8.85915 11.5066 8.85915 12.1694C8.85915 13.0564 8.98438 13.8209 9.23486 14.4627C9.48533 15.0994 9.86626 15.5898 10.3776 15.9343C10.8891 16.2734 11.5361 16.443 12.3188 16.443C12.8041 16.443 13.2764 16.3961 13.7355 16.3022C14.1947 16.2082 14.6696 16.0803 15.1602 15.9186V17.5153C14.6957 17.698 14.2261 17.8311 13.7512 17.9147C13.2764 17.998 12.7285 18.0398 12.1075 18.0398C10.9386 18.0398 9.96802 17.7972 9.19572 17.3119C8.42865 16.8266 7.85464 16.143 7.47372 15.2611C7.09801 14.3793 6.91016 13.3461 6.91016 12.1615C6.91016 11.2953 7.03017 10.5021 7.2702 9.78205C7.51024 9.06191 7.85986 8.44095 8.31907 7.91912C8.77826 7.39209 9.34444 6.98767 10.0176 6.70589C10.696 6.41889 11.4709 6.27539 12.3423 6.27539C12.9163 6.27539 13.4798 6.34062 14.033 6.47108C14.5914 6.59632 15.1079 6.77633 15.5829 7.01116L14.9253 8.56096C14.5287 8.37311 14.1139 8.21135 13.6808 8.07567C13.2476 7.94 12.7989 7.87216 12.3345 7.87216ZM17.6179 6.43977H21.0228C22.4996 6.43977 23.6136 6.65371 24.365 7.0816C25.1165 7.50949 25.4921 8.24787 25.4921 9.29673C25.4921 9.73506 25.4139 10.1316 25.2574 10.4864C25.106 10.8361 24.8842 11.1256 24.592 11.3554C24.2998 11.5796 23.9397 11.731 23.5118 11.8093V11.8875C23.9554 11.9659 24.3494 12.1041 24.6938 12.3024C25.0435 12.5007 25.3173 12.7851 25.5156 13.1556C25.7191 13.5262 25.8209 14.0061 25.8209 14.5959C25.8209 15.2951 25.6539 15.8899 25.3199 16.3804C24.9912 16.8709 24.519 17.244 23.9031 17.4997C23.2927 17.7554 22.5673 17.8832 21.7272 17.8832H17.6179V6.43977ZM19.4964 11.1597H21.2968C22.1473 11.1597 22.7369 11.0214 23.0656 10.7448C23.3944 10.4682 23.5588 10.0638 23.5588 9.53158C23.5588 8.98885 23.3631 8.59749 22.9718 8.35746C22.5856 8.11742 21.9699 7.99739 21.1245 7.99739H19.4964V11.1597ZM19.4964 12.6781V16.31H21.4768C22.3534 16.31 22.9692 16.1404 23.324 15.8013C23.6789 15.462 23.8563 15.0028 23.8563 14.4236C23.8563 14.0688 23.7753 13.7609 23.6136 13.5C23.457 13.2391 23.1988 13.0382 22.8386 12.8972C22.4787 12.7512 21.9934 12.6781 21.3828 12.6781H19.4964ZM34.7909 14.768C34.7909 15.4464 34.624 16.0309 34.29 16.5212C33.9613 17.0118 33.4864 17.3875 32.8655 17.6484C32.2497 17.9094 31.5139 18.0398 30.6581 18.0398C30.2408 18.0398 29.8415 18.0163 29.4606 17.9693C29.0797 17.9224 28.7196 17.8546 28.3805 17.7658C28.0465 17.6719 27.7413 17.5598 27.4646 17.4293V15.6604C27.9291 15.8638 28.4482 16.0491 29.0223 16.216C29.5962 16.3778 30.1807 16.4587 30.7755 16.4587C31.2608 16.4587 31.6627 16.3961 31.9809 16.2708C32.3046 16.1404 32.5445 15.9577 32.7011 15.723C32.8576 15.4829 32.9359 15.2037 32.9359 14.8854C32.9359 14.5462 32.8446 14.2592 32.6619 14.0244C32.4793 13.7896 32.2028 13.5756 31.8323 13.3825C31.467 13.1842 31.0078 12.973 30.4547 12.7486C30.0789 12.5973 29.7189 12.425 29.3745 12.2319C29.0353 12.0389 28.7327 11.8119 28.4665 11.5509C28.2004 11.2901 27.9891 10.9822 27.8325 10.6273C27.6812 10.2673 27.6056 9.84466 27.6056 9.35935C27.6056 8.7123 27.7595 8.15916 28.0674 7.69996C28.3805 7.24077 28.8188 6.88852 29.3823 6.64328C29.9511 6.39802 30.6139 6.27539 31.3705 6.27539C31.9705 6.27539 32.5341 6.33801 33.0612 6.46324C33.5934 6.58848 34.1152 6.7659 34.6266 6.9955L34.0318 8.50617C33.5622 8.3131 33.1054 8.15916 32.6619 8.04436C32.2236 7.92957 31.7749 7.87216 31.3156 7.87216C30.919 7.87216 30.5825 7.93217 30.3059 8.05219C30.0294 8.1722 29.8181 8.3418 29.672 8.56096C29.531 8.77492 29.4606 9.0306 29.4606 9.32804C29.4606 9.66202 29.5414 9.94376 29.7033 10.1733C29.8703 10.3978 30.126 10.6039 30.4703 10.7918C30.8199 10.9796 31.2687 11.1883 31.8167 11.4179C32.448 11.6788 32.9829 11.9528 33.4212 12.2398C33.8648 12.5268 34.204 12.8711 34.4388 13.273C34.6736 13.6696 34.7909 14.168 34.7909 14.768Z" fill="black"/>
</g>
<defs>
<clipPath id="clip0_1611_83">
<rect width="40.25" height="23" fill="white" transform="translate(0.5 0.5)"/>
</clipPath>
</defs>
</svg>
