<svg width="165" height="165" viewBox="0 0 165 165" fill="none" xmlns="http://www.w3.org/2000/svg">
<g opacity="0.1">
<path d="M145.572 47.9838H119.203V100.356H145.572V47.9838Z" stroke="#231F20" stroke-width="3" stroke-miterlimit="2.6131" stroke-linecap="round" stroke-linejoin="round"/>
<path d="M47.6011 62.0105V54.6554C47.6011 48.309 42.25 43.091 35.7019 43.091H23.4291V18.0299H48.2272C62.3905 18.0299 73.9815 29.2979 73.9815 43.0907V47.9824V62.0105H47.6011Z" stroke="#231F20" stroke-width="3" stroke-miterlimit="2.6131" stroke-linecap="round" stroke-linejoin="round"/>
<path d="M97.5154 118.931H107.294C113.513 118.931 118.644 114.244 119.15 108.315H145.563V118.931C145.563 132.721 133.982 143.991 119.82 143.991H97.5154V118.931Z" stroke="#231F20" stroke-width="3" stroke-miterlimit="2.6131" stroke-linecap="round" stroke-linejoin="round"/>
<path d="M73.3621 143.986C59.1997 143.986 47.6078 132.716 47.6078 118.926V114.034V69.9656H73.9882V107.362C73.9882 113.708 79.328 118.926 85.8655 118.926H89.3818V143.986H73.3621Z" stroke="#231F20" stroke-width="3" stroke-miterlimit="2.6131" stroke-linecap="round" stroke-linejoin="round"/>
<path d="M145.67 47.9781H118.97C116.729 47.9781 114.883 46.1992 114.883 44.0034C114.883 41.8393 116.729 40.0288 118.97 40.0288H145.67C147.922 40.0288 149.746 41.8396 149.746 44.0034C149.746 46.1992 147.922 47.9781 145.67 47.9781Z" stroke="#231F20" stroke-width="3" stroke-miterlimit="2.6131" stroke-linecap="round" stroke-linejoin="round"/>
<path d="M145.67 108.309H118.97C116.729 108.309 114.883 106.498 114.883 104.335C114.883 102.138 116.729 100.36 118.97 100.36H145.67C147.922 100.36 149.746 102.138 149.746 104.335C149.746 106.498 147.922 108.309 145.67 108.309Z" stroke="#231F20" stroke-width="3" stroke-miterlimit="2.6131" stroke-linecap="round" stroke-linejoin="round"/>
<path d="M74.2615 69.9587H47.5623C45.3205 69.9587 43.4967 68.178 43.4967 65.9848C43.4967 63.8185 45.3205 62.0105 47.5623 62.0105H74.2615C76.514 62.0105 78.3379 63.8185 78.3379 65.9848C78.3379 68.178 76.514 69.9587 74.2615 69.9587Z" stroke="#231F20" stroke-width="3" stroke-miterlimit="2.6131" stroke-linecap="round" stroke-linejoin="round"/>
<path d="M97.5212 118.921V144.931C97.5212 147.095 95.6866 148.903 93.456 148.903C91.2035 148.903 89.3805 147.095 89.3805 144.931V118.921C89.3805 116.728 91.2035 114.947 93.456 114.947C95.6866 114.947 97.5212 116.728 97.5212 118.921Z" stroke="#231F20" stroke-width="3" stroke-miterlimit="2.6131" stroke-linecap="round" stroke-linejoin="round"/>
<path d="M23.4345 17.5579V43.5678C23.4345 45.7319 21.5992 47.5421 19.3581 47.5421C17.1058 47.5421 15.2592 45.7319 15.2592 43.5678V17.5579C15.2592 15.3941 17.1055 13.5861 19.3581 13.5861C21.5995 13.5861 23.4345 15.3941 23.4345 17.5579Z" stroke="#D7282F" stroke-width="3" stroke-miterlimit="2.6131" stroke-linecap="round" stroke-linejoin="round"/>
<path d="M128.313 70.712V100.367" stroke="#231F20" stroke-width="3" stroke-miterlimit="2.6131" stroke-linecap="round" stroke-linejoin="round"/>
<path d="M128.313 63.8185V56.9393" stroke="#D7282F" stroke-width="3" stroke-miterlimit="2.6131" stroke-linecap="round" stroke-linejoin="round"/>
<path d="M139.488 119.543C139.488 119.543 137.005 134.106 122.425 137.19" stroke="#D7282F" stroke-width="3" stroke-miterlimit="2.6131" stroke-linecap="round" stroke-linejoin="round"/>
<path d="M55.0636 80.6681V119.193C55.0636 119.193 56.558 136.63 72.9728 136.63" stroke="#D7282F" stroke-width="3" stroke-miterlimit="2.6131" stroke-linecap="round" stroke-linejoin="round"/>
</g>
</svg>
