<svg width="165" height="165" viewBox="0 0 165 165" fill="none" xmlns="http://www.w3.org/2000/svg">
<g opacity="0.1">
<path d="M157.265 5.15625H85.0775C84.6151 5.15638 84.1607 5.28107 83.7629 5.5172L14.7618 46.406H7.73391C7.05014 46.406 6.39438 46.6781 5.91088 47.1615C5.42739 47.6449 5.15576 48.3004 5.15576 48.9845V59.297C5.15576 59.9806 5.42739 60.6366 5.91088 61.12C6.39438 61.6034 7.05014 61.875 7.73391 61.875H10.312V69.6095C10.312 70.2931 10.5836 70.9491 11.0671 71.4325C11.5506 71.9159 12.2064 72.1875 12.8901 72.1875V134.062C12.2064 134.062 11.5506 134.334 11.0671 134.817C10.5836 135.301 10.312 135.957 10.312 136.641V144.375H7.73391C7.05014 144.375 6.39438 144.647 5.91088 145.13C5.42739 145.613 5.15576 146.269 5.15576 146.953V157.266C5.15576 157.95 5.42739 158.605 5.91088 159.089C6.39438 159.572 7.05014 159.844 7.73391 159.844H157.265C157.949 159.844 158.605 159.572 159.088 159.089C159.571 158.605 159.843 157.95 159.843 157.266V7.7344C159.843 7.05063 159.571 6.39486 159.088 5.91137C158.605 5.42788 157.949 5.15625 157.265 5.15625ZM154.687 144.375H87.6555V10.3125H154.687V144.375ZM28.3589 134.062V72.1875C29.0426 72.1875 29.6984 71.9159 30.1819 71.4325C30.6654 70.9491 30.937 70.2931 30.937 69.6095V61.875H82.4995V82.5H59.2965C58.6124 82.5 57.9569 82.7716 57.4735 83.255C56.9901 83.7384 56.7185 84.3944 56.7185 85.078V144.375H30.937V136.641C30.937 135.957 30.6654 135.301 30.1819 134.817C29.6984 134.334 29.0426 134.062 28.3589 134.062ZM82.4995 38.1975C80.9927 37.6725 79.686 36.6915 78.762 35.3906C77.8376 34.0897 77.3408 32.5334 77.3408 30.9375C77.3408 29.3416 77.8376 27.7853 78.762 26.4844C79.686 25.1835 80.9927 24.2025 82.4995 23.6775V38.1975ZM61.8745 87.656H82.4995V144.375H61.8745V87.656ZM82.4995 12.259V18.3047C79.5857 18.8964 76.9658 20.4773 75.0839 22.7796C73.202 25.082 72.1741 27.964 72.1741 30.9375C72.1741 33.911 73.202 36.793 75.0839 39.0954C76.9658 41.3977 79.5857 42.9786 82.4995 43.5703V46.406H24.8758L82.4995 12.259ZM10.312 51.5625H82.4995V56.719H10.312V51.5625ZM25.7808 61.875V67.031H15.4683V61.875H25.7808ZM18.0464 72.1875H23.2026V134.062H18.0464V72.1875ZM15.4683 139.219H25.7808V144.375H15.4683V139.219ZM154.687 154.688H10.312V149.531H154.687V154.688Z" fill="#231F20"/>
<path d="M146.622 126.328H126.319C125.635 126.328 124.979 126.6 124.496 127.083C124.013 127.567 123.741 128.222 123.741 128.906H118.585C118.585 128.222 118.313 127.567 117.83 127.083C117.346 126.6 116.69 126.328 116.007 126.328H95.7035C95.3035 126.328 94.9089 126.421 94.5508 126.6C94.1927 126.779 93.8814 127.039 93.641 127.359C93.4011 127.68 93.2388 128.051 93.167 128.445C93.0956 128.839 93.1166 129.244 93.2285 129.628L94.4018 133.65C94.8767 135.253 95.8551 136.66 97.1925 137.663C98.5299 138.666 100.155 139.212 101.827 139.219H140.499C142.17 139.212 143.795 138.666 145.133 137.663C146.47 136.66 147.449 135.253 147.924 133.65L149.097 129.628C149.209 129.244 149.23 128.839 149.158 128.445C149.087 128.051 148.924 127.68 148.684 127.359C148.444 127.039 148.132 126.779 147.775 126.6C147.417 126.421 147.022 126.328 146.622 126.328ZM101.827 134.062C101.269 134.06 100.728 133.877 100.282 133.543C99.8357 133.208 99.5097 132.738 99.3518 132.204L99.1431 131.484H113.428C113.428 132.168 113.7 132.824 114.184 133.308C114.667 133.791 115.322 134.062 116.007 134.062H101.827ZM142.974 132.204C142.815 132.738 142.489 133.208 142.044 133.543C141.598 133.877 141.056 134.06 140.499 134.062H126.319C127.003 134.062 127.658 133.791 128.142 133.308C128.625 132.824 128.897 132.168 128.897 131.484H143.182L142.974 132.204Z" fill="#D7282F"/>
<path d="M100.546 123.75H141.796C143.848 123.75 145.815 122.935 147.266 121.485C148.716 120.034 149.531 118.067 149.531 116.015V95.3905C149.524 93.7967 149.025 92.2434 148.102 90.944C147.179 89.6445 145.877 88.6621 144.375 88.1305V85.078C144.375 84.5032 144.182 83.9444 143.828 83.4913C143.474 83.0382 142.978 82.7167 142.42 82.5771L140.698 82.1468L141.613 80.623C141.908 80.1302 142.031 79.5527 141.96 78.9824C141.89 78.412 141.631 77.8813 141.224 77.4751L133.93 70.1816C133.524 69.7754 132.994 69.5163 132.424 69.4458C131.853 69.3753 131.276 69.4971 130.783 69.7923L129.259 70.7078L128.828 68.9856C128.689 68.4273 128.368 67.9318 127.914 67.5777C127.461 67.2237 126.903 67.0315 126.328 67.031H116.015C115.44 67.0315 114.881 67.2237 114.428 67.5777C113.975 67.9318 113.654 68.4273 113.514 68.9856L113.084 70.7078L111.56 69.7923C111.067 69.4971 110.49 69.3753 109.919 69.4458C109.349 69.5163 108.818 69.7754 108.412 70.1816L101.119 77.4751C100.712 77.8813 100.453 78.412 100.383 78.9824C100.312 79.5527 100.434 80.1302 100.729 80.623L101.645 82.1468L99.9226 82.5771C99.3643 82.7167 98.8688 83.0382 98.5148 83.4913C98.1607 83.9444 97.9685 84.5032 97.9685 85.078V88.1305C96.4656 88.6621 95.1635 89.6445 94.2404 90.944C93.3177 92.2434 92.8187 93.7967 92.812 95.3905V116.015C92.812 118.067 93.6268 120.034 95.0774 121.485C96.5276 122.935 98.4951 123.75 100.546 123.75ZM103.125 87.0914L106.27 86.3182C106.661 86.2205 107.023 86.0328 107.328 85.7697C107.633 85.5065 107.873 85.1757 108.027 84.8033C108.181 84.4309 108.246 84.0278 108.216 83.626C108.186 83.2242 108.063 82.8349 107.856 82.4897L106.187 79.7106L110.635 75.2632L113.414 76.9315C113.759 77.1388 114.148 77.2623 114.55 77.2922C114.952 77.3216 115.355 77.257 115.727 77.1027C116.1 76.9488 116.431 76.7094 116.694 76.4043C116.957 76.0993 117.145 75.7368 117.242 75.3457L118.016 72.2004H124.301L125.075 75.3457C125.172 75.7368 125.36 76.0993 125.623 76.4043C125.886 76.7094 126.217 76.9488 126.589 77.1027C126.962 77.257 127.365 77.3216 127.767 77.2922C128.168 77.2623 128.558 77.1388 128.903 76.9315L131.682 75.2632L136.132 79.7106L134.462 82.4897C134.254 82.8349 134.131 83.2242 134.101 83.626C134.071 84.0278 134.136 84.4309 134.29 84.8033C134.444 85.1757 134.683 85.5065 134.989 85.7697C135.294 86.0328 135.656 86.2205 136.047 86.3182L139.193 87.0914V93.377L136.047 94.1503C135.656 94.248 135.294 94.4362 134.989 94.6993C134.683 94.9624 134.444 95.2933 134.29 95.6652C134.136 96.0376 134.071 96.4407 134.101 96.8425C134.131 97.2443 134.254 97.6336 134.462 97.9792L136.132 100.758L131.682 105.208L128.903 103.537C128.558 103.33 128.168 103.207 127.767 103.177C127.365 103.147 126.962 103.211 126.589 103.366C126.217 103.52 125.886 103.759 125.623 104.065C125.36 104.37 125.172 104.732 125.075 105.123L124.301 108.269H118.028L117.255 105.123C117.158 104.732 116.97 104.37 116.707 104.065C116.444 103.759 116.113 103.52 115.74 103.366C115.368 103.211 114.965 103.147 114.563 103.177C114.161 103.207 113.772 103.33 113.427 103.537L110.648 105.208L106.2 100.758L107.868 97.9792C108.076 97.6336 108.199 97.2443 108.229 96.8425C108.259 96.4407 108.194 96.0376 108.04 95.6652C107.886 95.2933 107.646 94.9624 107.341 94.6993C107.036 94.4362 106.674 94.248 106.283 94.1503L103.137 93.377L103.125 87.0914ZM97.9685 95.3905C97.9685 95.9658 98.1607 96.5241 98.5148 96.9772C98.8688 97.4307 99.3643 97.7522 99.9226 97.8914L101.645 98.3221L100.729 99.8455C100.434 100.339 100.312 100.916 100.383 101.487C100.453 102.057 100.712 102.587 101.119 102.993L108.412 110.287C108.818 110.694 109.349 110.953 109.919 111.023C110.49 111.094 111.067 110.971 111.56 110.676L113.084 109.761L113.514 111.483C113.654 112.041 113.975 112.537 114.428 112.891C114.881 113.245 115.44 113.437 116.015 113.437H126.328C126.903 113.437 127.461 113.245 127.914 112.891C128.368 112.537 128.689 112.041 128.828 111.483L129.259 109.761L130.783 110.676C131.276 110.971 131.853 111.094 132.424 111.023C132.994 110.953 133.524 110.694 133.93 110.287L141.224 102.993C141.631 102.587 141.89 102.057 141.96 101.487C142.031 100.916 141.908 100.339 141.613 99.8455L140.698 98.3221L142.42 97.8914C142.978 97.7522 143.474 97.4307 143.828 96.9772C144.182 96.5241 144.375 95.9658 144.375 95.3905V116.015C144.375 116.7 144.103 117.355 143.62 117.839C143.136 118.322 142.48 118.594 141.796 118.594H100.546C99.8624 118.594 99.2069 118.322 98.7235 117.839C98.2401 117.355 97.9685 116.7 97.9685 116.015V95.3905Z" fill="#231F20"/>
<path d="M121.166 20.6296C125.569 20.6225 129.93 21.4865 133.999 23.1718C138.067 24.8572 141.761 27.3306 144.869 30.4497L148.509 26.7939C141.257 19.5425 131.422 15.4688 121.166 15.4688C110.91 15.4688 101.074 19.5425 93.8225 26.7939L97.4628 30.4497C100.571 27.3306 104.265 24.8572 108.333 23.1718C112.402 21.4865 116.762 20.6225 121.166 20.6296Z" fill="#231F20"/>
<path d="M141.221 34.0909C138.589 31.4565 135.464 29.3667 132.023 27.9409C128.583 26.5151 124.896 25.7812 121.171 25.7812C117.447 25.7812 113.76 26.5151 110.319 27.9409C106.879 29.3667 103.753 31.4565 101.121 34.0909L104.767 37.7364C109.118 33.3865 115.019 30.9428 121.171 30.9428C127.324 30.9428 133.225 33.3865 137.576 37.7364L141.221 34.0909Z" fill="#D7282F"/>
<path d="M133.926 41.3941C132.252 39.7141 130.264 38.3811 128.074 37.4715C125.884 36.5619 123.536 36.0938 121.164 36.0938C118.793 36.0938 116.445 36.5619 114.255 37.4715C112.065 38.3811 110.076 39.7141 108.403 41.3941L112.063 45.024C113.258 43.8277 114.677 42.8785 116.238 42.2309C117.8 41.5833 119.474 41.25 121.164 41.25C122.855 41.25 124.529 41.5833 126.091 42.2309C127.652 42.8785 129.071 43.8277 130.265 45.024L133.926 41.3941Z" fill="#231F20"/>
<path d="M113.437 54.1405C113.437 55.6705 113.891 57.1658 114.741 58.4376C115.59 59.7095 116.798 60.7008 118.212 61.2863C119.625 61.8714 121.18 62.0248 122.68 61.7265C124.181 61.4281 125.559 60.6914 126.641 59.6096C127.722 58.5282 128.459 57.1497 128.757 55.6496C129.055 54.149 128.902 52.594 128.317 51.1807C127.732 49.7675 126.74 48.5595 125.468 47.7095C124.196 46.86 122.701 46.406 121.171 46.406C119.12 46.4065 117.153 47.2212 115.702 48.6714C114.252 50.1221 113.437 52.0891 113.437 54.1405ZM123.75 54.1405C123.75 54.6507 123.598 55.1488 123.315 55.5729C123.032 55.997 122.629 56.3274 122.158 56.5223C121.687 56.7176 121.168 56.7684 120.668 56.669C120.168 56.5696 119.709 56.3243 119.348 55.9635C118.988 55.6032 118.742 55.1439 118.643 54.6435C118.544 54.1436 118.594 53.625 118.79 53.1541C118.985 52.6827 119.315 52.2804 119.739 51.9968C120.163 51.7137 120.661 51.5625 121.171 51.5625C121.855 51.5625 122.511 51.8341 122.995 52.3175C123.478 52.8009 123.75 53.4569 123.75 54.1405Z" fill="#D7282F"/>
<path d="M121.171 100.547C123.211 100.547 125.205 99.9423 126.901 98.8087C128.596 97.6756 129.918 96.0653 130.699 94.1807C131.48 92.2966 131.684 90.2229 131.286 88.2224C130.888 86.2219 129.906 84.3846 128.464 82.9424C127.021 81.5002 125.184 80.5178 123.183 80.12C121.183 79.7222 119.109 79.9265 117.225 80.7069C115.341 81.4873 113.73 82.8091 112.597 84.505C111.464 86.2009 110.859 88.1947 110.859 90.2345C110.859 92.9695 111.945 95.5925 113.879 97.5266C115.813 99.4602 118.437 100.547 121.171 100.547ZM121.171 85.078C122.191 85.078 123.188 85.3804 124.036 85.9472C124.884 86.5135 125.545 87.3189 125.935 88.2612C126.325 89.2035 126.427 90.2403 126.229 91.2406C126.03 92.2404 125.539 93.1595 124.818 93.8806C124.096 94.6017 123.177 95.0926 122.177 95.2915C121.177 95.4904 120.14 95.3883 119.198 94.9981C118.256 94.6079 117.451 93.947 116.884 93.0993C116.317 92.2511 116.015 91.2544 116.015 90.2345C116.015 88.8668 116.558 87.5553 117.525 86.5884C118.492 85.6212 119.804 85.078 121.171 85.078Z" fill="#D7282F"/>
</g>
</svg>
