<svg width="16" height="16" viewBox="0 0 16 16" fill="none" xmlns="http://www.w3.org/2000/svg">
<path fill-rule="evenodd" clip-rule="evenodd" d="M1.79018 3.5C1.79018 2.54181 2.58329 1.75 3.58036 1.75C4.57742 1.75 5.37054 2.54181 5.37054 3.5C5.37054 4.45819 4.57742 5.25 3.58036 5.25C2.58329 5.25 1.79018 4.45819 1.79018 3.5ZM3.58036 0.75C2.04777 0.75 0.790179 1.97291 0.790179 3.5C0.790179 4.85718 1.78349 5.9741 3.08036 6.20585L3.08036 8.0376V8.03761C3.08034 9.06632 3.08033 9.89002 3.16882 10.5366C3.26048 11.2064 3.4554 11.7601 3.90072 12.1976C4.34482 12.634 4.90479 12.8238 5.58229 12.9133C5.97088 12.9646 6.42274 12.9856 6.94432 12.9941L5.52012 14.3933C5.32314 14.5869 5.32034 14.9034 5.51387 15.1004C5.70739 15.2974 6.02396 15.3002 6.22095 15.1067L8.47089 12.8962C8.69256 12.6784 8.69256 12.3216 8.47089 12.1038L6.22095 9.89333C6.02396 9.69981 5.70739 9.70261 5.51387 9.89959C5.32034 10.0966 5.32314 10.4131 5.52012 10.6067L6.93193 11.9937C6.44647 11.9854 6.04884 11.9663 5.71324 11.9219C5.14345 11.8467 4.82823 11.707 4.60155 11.4843C4.3761 11.2628 4.23562 10.9567 4.15959 10.401C4.08146 9.83012 4.08036 9.07503 4.08036 8V6.20585C5.37723 5.9741 6.37054 4.85718 6.37054 3.5C6.37054 1.97291 5.11295 0.75 3.58036 0.75ZM10.9509 12.5C10.9509 11.5418 11.744 10.75 12.7411 10.75C13.7382 10.75 14.5312 11.5418 14.5312 12.5C14.5312 13.4582 13.7382 14.25 12.7411 14.25C11.744 14.25 10.9509 13.4582 10.9509 12.5ZM13.2411 7.96239V9.79415C14.538 10.0259 15.5312 11.1428 15.5312 12.5C15.5312 14.0271 14.2737 15.25 12.7411 15.25C11.2084 15.25 9.95089 14.0271 9.95089 12.5C9.95089 11.1428 10.9442 10.0259 12.2411 9.79415V8C12.2411 6.92496 12.24 6.16986 12.1618 5.59893C12.0858 5.0433 11.9453 4.73718 11.7199 4.51568C11.4932 4.29297 11.178 4.15333 10.6082 4.07807C10.2726 4.03374 9.87494 4.01458 9.38948 4.0063L10.8013 5.39333C10.9983 5.58685 11.0011 5.90342 10.8076 6.10041C10.614 6.29739 10.2975 6.3002 10.1005 6.10667L7.85649 3.90208C7.63183 3.6811 7.63161 3.31912 7.85628 3.09813L10.1005 0.893329C10.2975 0.699804 10.614 0.702608 10.8076 0.899592C11.0011 1.09658 10.9983 1.41315 10.8013 1.60667L9.37709 3.00588C9.89867 3.01441 10.3505 3.03535 10.7391 3.08668C11.4166 3.17617 11.9766 3.36604 12.4207 3.80234C12.866 4.23985 13.0609 4.79356 13.1526 5.46334C13.2411 6.10996 13.2411 6.93365 13.2411 7.96236V7.96239Z" fill="#D7282F"/>
</svg>
