<svg width="40" height="41" viewBox="0 0 40 41" fill="none" xmlns="http://www.w3.org/2000/svg">
<path fill-rule="evenodd" clip-rule="evenodd" d="M13.8461 24.5344C13.3422 23.7275 12.9136 22.8759 12.5659 21.9904C9.81175 20.441 9.37188 13.5508 11.069 14.0727C11.069 13.8134 11.023 13.0879 11.023 12.5889C11.023 1.40506 28.9921 1.3985 28.9921 12.5889C28.9921 13.101 28.9396 13.8134 28.9461 14.0727C30.64 13.5409 30.2001 20.4311 27.4493 21.9904C26.7501 23.9271 25.5027 25.227 25.6044 26.0772C25.6044 28.9955 22.3973 30.0525 20.024 30.0787C19.8073 30.0787 19.5874 30.0787 19.3675 30.0459C19.8884 29.9074 20.3878 29.6976 20.8512 29.4222C21.8721 28.7985 22.5614 27.8761 22.5614 26.7699C22.5614 25.6636 21.8754 24.7346 20.8545 24.1142C19.9187 23.5649 18.8539 23.2738 17.7688 23.2706C16.9259 23.2549 16.0882 23.4054 15.3036 23.7137C14.8167 23.9113 14.3713 24.1986 13.9905 24.5607H13.8691L13.8461 24.5344ZM32.9673 11.0297H32.8459C31.7199 6.26006 28.8247 2.95118 25.3746 1.58232C23.355 0.819825 21.1902 0.519224 19.0392 0.702583C16.9205 0.867964 14.8593 1.47158 12.986 2.4752C11.4213 3.34321 10.0863 4.57228 9.09231 6.06019C8.09828 7.54809 7.47387 9.25183 7.271 11.0297H7.0445C5.96124 11.0297 4.86484 11.9193 4.86484 12.9993V20.1127C4.86484 21.196 5.96124 22.0823 7.0445 22.0823H7.68461C8.38381 24.9217 11.2167 27.5216 14.1153 27.5216H14.6832C15.1788 28.2503 16.1406 28.7657 17.7426 28.7657C19.3445 28.7657 21.0514 27.863 21.0514 26.7534C21.0514 25.6439 19.3675 24.7445 17.7426 24.7445C16.1177 24.7445 15.1329 25.273 14.6536 26.0345H14.1153C11.6402 26.0345 9.19133 23.4085 9.01735 21.0384V11.1577C9.20218 9.67112 9.73406 8.24882 10.57 7.00571C11.406 5.7626 12.5226 4.73353 13.8297 4.00161C15.4841 3.12192 17.3023 2.59332 19.1705 2.44894C21.0566 2.28663 22.9551 2.5468 24.728 3.2105C27.5871 4.33972 29.9999 7.14965 31.0404 11.0297H30.9978V22.0823H32.9673C34.0506 22.0823 35.147 21.196 35.147 20.1127V13.0026C35.147 11.916 34.0506 11.033 32.9673 11.033V11.0297ZM21.2024 34.937H21.813C22.0742 34.937 22.3247 34.8333 22.5093 34.6486C22.694 34.4639 22.7978 34.2134 22.7978 33.9522V32.3109C22.7978 32.0497 22.694 31.7992 22.5093 31.6146C22.3247 31.4299 22.0742 31.3261 21.813 31.3261H18.2021C17.9423 31.3304 17.6942 31.4355 17.5104 31.6192C17.3267 31.803 17.2216 32.0511 17.2173 32.3109V33.9522C17.2224 34.2118 17.3278 34.4594 17.5114 34.643C17.695 34.8266 17.9425 34.932 18.2021 34.937H18.8094L17.6145 40.9869H22.3448L21.2024 34.9337V34.937ZM0 40.9902C0.469414 34.9042 -0.725459 35.1504 4.37245 33.2432C6.9776 32.2881 9.48231 31.0786 11.8503 29.6323L16.2063 41L0 40.9902ZM28.3618 29.1038C30.5241 30.4772 32.847 31.5797 35.2783 32.3864C40.0381 33.9686 40.0381 34.1919 39.9921 40.977H23.8482L28.3618 29.1038Z" fill="#3E3E3E"/>
</svg>
