<svg width="21" height="17" viewBox="0 0 21 17" fill="none" xmlns="http://www.w3.org/2000/svg">
<path d="M20.0891 16.0843C19.4868 15.8466 18.9603 15.438 18.5805 14.906C20.0678 13.9011 21 12.4604 21 10.8598C21 9.10827 19.884 7.54806 18.1455 6.54102C17.9618 10.7844 13.4584 13.8061 8.3911 13.8061C7.96462 13.8061 7.54197 13.7841 7.12402 13.7428C8.4436 15.3126 10.8082 16.3591 13.5062 16.3591C14.4903 16.3591 15.4299 16.2196 16.2908 15.9666C17.0611 16.6874 18.1569 17.037 19.269 16.8091C19.5677 16.7478 19.8489 16.6488 20.1088 16.518C20.1925 16.4758 20.2437 16.3884 20.2394 16.2948C20.2351 16.2011 20.1763 16.1188 20.0891 16.0843Z" fill="white"/>
<path d="M16.7823 6.27889C16.7823 2.87803 13.0254 0.121094 8.39114 0.121094C3.75685 0.121094 0 2.87803 0 6.27889C0 8.07105 1.04361 9.68417 2.70886 10.8095C2.27197 11.4215 1.66174 11.8877 0.964357 12.1504C0.87675 12.1834 0.816626 12.2647 0.810783 12.3582C0.804939 12.4516 0.854518 12.5398 0.937376 12.5834C1.47972 12.8689 2.08923 13.018 2.69827 13.018C3.67098 13.018 4.58722 12.639 5.2731 11.9972C6.23709 12.2805 7.28924 12.4367 8.39119 12.4367C13.0255 12.4367 16.7823 9.67975 16.7823 6.27889Z" fill="white"/>
</svg>
