<svg width="49" height="49" viewBox="0 0 49 49" fill="none" xmlns="http://www.w3.org/2000/svg">
<path d="M32.6557 3.45898L41.3628 12.1661V45.959H7.86279V3.45898H32.6557Z" stroke="white"/>
<path d="M32.8628 2.95898V11.959H41.8628L32.8628 2.95898Z" fill="#E6E6E6"/>
<path d="M14.8628 20.209C13.9728 20.209 13.1027 19.9451 12.3627 19.4506C11.6227 18.9561 11.0459 18.2533 10.7053 17.4311C10.3647 16.6088 10.2756 15.704 10.4493 14.8311C10.6229 13.9582 11.0515 13.1563 11.6808 12.527C12.3102 11.8977 13.112 11.4691 13.9849 11.2955C14.8578 11.1218 15.7626 11.2109 16.5849 11.5515C17.4071 11.8921 18.1099 12.4689 18.6044 13.2089C19.0989 13.9489 19.3628 14.819 19.3628 15.709C19.3628 16.9025 18.8887 18.0471 18.0448 18.891C17.2009 19.7349 16.0563 20.209 14.8628 20.209ZM14.8628 12.709C14.2695 12.709 13.6894 12.8849 13.1961 13.2146C12.7027 13.5442 12.3182 14.0128 12.0912 14.5609C11.8641 15.1091 11.8047 15.7123 11.9204 16.2943C12.0362 16.8762 12.3219 17.4107 12.7415 17.8303C13.161 18.2499 13.6956 18.5356 14.2775 18.6513C14.8595 18.7671 15.4627 18.7077 16.0108 18.4806C16.559 18.2536 17.0276 17.869 17.3572 17.3757C17.6868 16.8823 17.8628 16.3023 17.8628 15.709C17.8628 14.9133 17.5467 14.1503 16.9841 13.5877C16.4215 13.0251 15.6584 12.709 14.8628 12.709Z" fill="white"/>
<path d="M14.8628 30.709C13.9728 30.709 13.1027 30.4451 12.3627 29.9506C11.6227 29.4561 11.0459 28.7533 10.7053 27.9311C10.3647 27.1088 10.2756 26.204 10.4493 25.3311C10.6229 24.4582 11.0515 23.6563 11.6808 23.027C12.3102 22.3977 13.112 21.9691 13.9849 21.7955C14.8578 21.6218 15.7626 21.7109 16.5849 22.0515C17.4071 22.3921 18.1099 22.9689 18.6044 23.7089C19.0989 24.4489 19.3628 25.319 19.3628 26.209C19.3628 27.4025 18.8887 28.5471 18.0448 29.391C17.2009 30.2349 16.0563 30.709 14.8628 30.709ZM14.8628 23.209C14.2695 23.209 13.6894 23.3849 13.1961 23.7146C12.7027 24.0442 12.3182 24.5128 12.0912 25.0609C11.8641 25.6091 11.8047 26.2123 11.9204 26.7943C12.0362 27.3762 12.3219 27.9107 12.7415 28.3303C13.161 28.7499 13.6956 29.0356 14.2775 29.1513C14.8595 29.2671 15.4627 29.2077 16.0108 28.9806C16.559 28.7536 17.0276 28.369 17.3572 27.8757C17.6868 27.3824 17.8628 26.8023 17.8628 26.209C17.8628 25.4133 17.5467 24.6503 16.9841 24.0877C16.4215 23.5251 15.6584 23.209 14.8628 23.209Z" fill="white"/>
<path d="M14.8628 41.209C13.9728 41.209 13.1027 40.9451 12.3627 40.4506C11.6227 39.9561 11.0459 39.2533 10.7053 38.4311C10.3647 37.6088 10.2756 36.704 10.4493 35.8311C10.6229 34.9582 11.0515 34.1563 11.6808 33.527C12.3102 32.8977 13.112 32.4691 13.9849 32.2955C14.8578 32.1218 15.7626 32.2109 16.5849 32.5515C17.4071 32.8921 18.1099 33.4689 18.6044 34.2089C19.0989 34.9489 19.3628 35.819 19.3628 36.709C19.3628 37.9025 18.8887 39.0471 18.0448 39.891C17.2009 40.7349 16.0563 41.209 14.8628 41.209ZM14.8628 33.709C14.2695 33.709 13.6894 33.8849 13.1961 34.2146C12.7027 34.5442 12.3182 35.0128 12.0912 35.5609C11.8641 36.1091 11.8047 36.7123 11.9204 37.2943C12.0362 37.8762 12.3219 38.4107 12.7415 38.8303C13.161 39.2499 13.6956 39.5356 14.2775 39.6513C14.8595 39.7671 15.4627 39.7077 16.0108 39.4806C16.559 39.2536 17.0276 38.869 17.3572 38.3757C17.6868 37.8824 17.8628 37.3023 17.8628 36.709C17.8628 35.9133 17.5467 35.1503 16.9841 34.5877C16.4215 34.0251 15.6584 33.709 14.8628 33.709Z" fill="white"/>
<path d="M14.8628 17.2093C14.7641 17.2098 14.6663 17.1909 14.5749 17.1536C14.4835 17.1163 14.4004 17.0613 14.3303 16.9918L12.8303 15.4918L13.8953 14.4268L14.8628 15.4018L17.4091 12.8518L19.9553 10.3018L21.0203 11.3668L15.3953 16.9918C15.3252 17.0613 15.2421 17.1163 15.1508 17.1536C15.0594 17.1909 14.9615 17.2098 14.8628 17.2093Z" fill="#FF4A30"/>
<path d="M14.8628 38.2093C14.7641 38.2098 14.6663 38.1909 14.5749 38.1536C14.4835 38.1163 14.4004 38.0613 14.3303 37.9918L12.8303 36.4918L13.8953 35.4268L14.8628 36.4018L19.9553 31.3018L21.0203 32.3668L15.3953 37.9918C15.3252 38.0613 15.2421 38.1163 15.1508 38.1536C15.0594 38.1909 14.9615 38.2098 14.8628 38.2093Z" fill="#FF4A30"/>
<path d="M31.3628 13.459H22.3628V14.959H31.3628V13.459Z" fill="white"/>
<path d="M35.8628 16.459H22.3628V17.959H35.8628V16.459Z" fill="white"/>
<path d="M31.3628 23.959H22.3628V25.459H31.3628V23.959Z" fill="white"/>
<path d="M35.8628 26.959H22.3628V28.459H35.8628V26.959Z" fill="white"/>
<path d="M31.3628 34.459H22.3628V35.959H31.3628V34.459Z" fill="white"/>
<path d="M35.8628 37.459H22.3628V38.959H35.8628V37.459Z" fill="white"/>
<path d="M23.8628 5.20898H11.1128V6.70898H23.8628V5.20898Z" fill="white"/>
<path d="M30.6128 5.20898H25.3628V6.70898H30.6128V5.20898Z" fill="white"/>
</svg>
