<svg width="24" height="24" viewBox="0 0 24 24" fill="none" xmlns="http://www.w3.org/2000/svg">
<path d="M7.03917 11.3442C6.72241 11.0275 6.20766 11.0275 5.89089 11.3442C5.57413 11.661 5.57413 12.1758 5.89089 12.4925L9.63269 16.2343C9.79108 16.3927 9.98905 16.4719 10.2068 16.4719C10.2266 16.4719 10.2266 16.4719 10.2464 16.4719C10.4642 16.4521 10.682 16.3531 10.8404 16.1749L20.2048 4.94954C20.4819 4.61297 20.4423 4.09823 20.1058 3.80126C19.7692 3.52409 19.2545 3.56369 18.9575 3.90025L10.1474 14.4525L7.03917 11.3442Z" fill="#17AB13"/>
<path d="M17.8457 2.27692C13.2922 -0.573976 7.45185 0.0991507 3.65066 3.90034C-0.823657 8.37466 -0.823657 15.6801 3.65066 20.1544C5.88782 22.3915 8.8377 23.52 11.7678 23.52C14.6979 23.52 17.6477 22.3915 19.8849 20.1544C23.7059 16.3334 24.3592 10.4732 21.4885 5.91972C21.251 5.54356 20.756 5.42478 20.3799 5.66235C20.0037 5.89992 19.8849 6.39487 20.1225 6.77103C22.5972 10.691 22.0231 15.7197 18.7366 19.0061C14.8958 22.8469 8.61992 22.8469 4.77914 19.0061C0.938353 15.1653 0.938353 8.8894 4.77914 5.04862C8.06558 1.78197 13.0744 1.20783 16.9944 3.64297C17.3706 3.88054 17.8655 3.76175 18.1031 3.3856C18.3407 3.00944 18.2219 2.51449 17.8457 2.27692Z" fill="#9A9A9A"/>
</svg>
