<svg width="14" height="14" viewBox="0 0 14 14" fill="none" xmlns="http://www.w3.org/2000/svg">
<rect x="1.29102" y="1.30664" width="12" height="12" rx="4" fill="white"/>
<g clip-path="url(#clip0_656_10673)">
<path d="M10.791 6.80664H7.79102V3.80664C7.79102 3.67403 7.73834 3.54686 7.64457 3.45309C7.5508 3.35932 7.42363 3.30664 7.29102 3.30664C7.15841 3.30664 7.03123 3.35932 6.93746 3.45309C6.8437 3.54686 6.79102 3.67403 6.79102 3.80664V6.80664H3.79102C3.65841 6.80664 3.53123 6.85932 3.43746 6.95309C3.34369 7.04686 3.29102 7.17403 3.29102 7.30664C3.29102 7.43925 3.34369 7.56643 3.43746 7.6602C3.53123 7.75396 3.65841 7.80664 3.79102 7.80664H6.79102V10.8066C6.79102 10.9392 6.8437 11.0664 6.93746 11.1602C7.03123 11.2539 7.15841 11.3066 7.29102 11.3066C7.42363 11.3066 7.5508 11.2539 7.64457 11.1602C7.73834 11.0664 7.79102 10.9392 7.79102 10.8066V7.80664H10.791C10.9236 7.80664 11.0508 7.75396 11.1446 7.6602C11.2383 7.56643 11.291 7.43925 11.291 7.30664C11.291 7.17403 11.2383 7.04686 11.1446 6.95309C11.0508 6.85932 10.9236 6.80664 10.791 6.80664Z" fill="#D7282F"/>
</g>
<rect x="1.29102" y="1.30664" width="12" height="12" rx="4" stroke="#D7282F"/>
<defs>
<clipPath id="clip0_656_10673">
<rect width="8" height="8" fill="white" transform="translate(3.29102 3.30664)"/>
</clipPath>
</defs>
</svg>
