<svg width="72" height="69" viewBox="0 0 72 69" fill="none" xmlns="http://www.w3.org/2000/svg">
<g clip-path="url(#clip0_5053_10286)">
<path d="M72 64.4102C71.8685 64.8117 71.7746 65.2323 71.6055 65.6338C70.7039 67.7369 69.1072 68.8458 66.8719 68.9987C66.6653 69.0178 66.4587 68.9987 66.2332 68.9987C46.0402 68.9987 25.8471 68.9987 5.65406 68.9987C2.96791 68.9987 0.957996 67.5839 0.262979 65.1941C0.112705 64.6587 0.0187842 64.066 0.0187842 63.5116C0 48.4459 0 33.3994 0 18.3528C0 15.2173 2.29168 12.904 5.39108 12.8848C9.93686 12.8657 14.4827 12.8848 19.0284 12.8657C19.3853 12.8657 19.8174 12.7128 20.0991 12.4833C24.6637 8.64044 29.2095 4.77843 33.7741 0.91642C35.2392 -0.326307 36.7608 -0.326307 38.2259 0.91642C42.7342 4.72107 47.2236 8.54485 51.713 12.3686C52.1638 12.751 52.5959 12.904 53.1594 12.904C57.5174 12.8848 61.8753 12.8848 66.2332 12.8848C69.2763 12.8848 71.0608 14.2614 71.9061 17.2822C71.9249 17.3586 71.9624 17.416 72 17.4734C72 33.1126 72 48.771 72 64.4102ZM36.0282 15.0453C25.9035 15.0453 15.7788 15.0453 5.65406 15.0453C3.3436 15.0453 2.10384 16.3262 2.10384 18.6778C2.10384 33.5141 2.10384 48.3503 2.10384 63.1866C2.10384 65.5956 3.3436 66.8574 5.69163 66.8574C25.8847 66.8574 46.0965 66.8574 66.2896 66.8574C68.6376 66.8574 69.8774 65.5764 69.8774 63.1866C69.8774 48.3695 69.8774 33.5714 69.8774 18.7543C69.8774 16.3071 68.6564 15.0453 66.252 15.0453C56.1837 15.0453 46.1153 15.0453 36.0282 15.0453ZM22.9919 12.8466C31.7078 12.8466 40.2734 12.8466 48.9893 12.8466C45.5894 9.95964 42.3021 7.18741 39.0149 4.39605C37.5685 7.14917 34.3376 7.0727 32.9476 4.39605C29.6791 7.18741 26.4106 9.95964 22.9919 12.8466ZM36.0094 2.15915C35.4459 2.14003 34.9763 2.59888 34.9575 3.17245C34.9387 3.78425 35.3895 4.28134 35.9718 4.30046C36.5354 4.31958 37.005 3.86073 37.0237 3.28716C37.0613 2.67536 36.5917 2.17827 36.0094 2.15915Z" fill="#18181B"/>
<path d="M6.33093 62.5148C26.1295 62.5148 45.8342 62.5148 65.614 62.5148C65.614 48.1566 65.614 33.7792 65.614 19.3827C45.8718 19.3827 26.1295 19.3827 6.33093 19.3827C6.33093 19.6886 6.33093 19.9562 6.33093 20.243C6.33093 26.2081 6.33093 38.4824 6.33093 44.4475C6.33093 44.6578 6.34972 44.8681 6.33093 45.0976C6.29337 45.7667 5.86133 46.1873 5.26023 46.1873C4.6967 46.1682 4.28345 45.7667 4.2271 45.1358C4.20831 44.9637 4.2271 44.8108 4.2271 44.6387C4.2271 38.1192 4.2271 25.3095 4.2271 18.79C4.2271 17.4899 4.50886 17.2031 5.80497 17.2031C25.9417 17.2031 46.0596 17.2031 66.1963 17.2031C67.5112 17.2031 67.7742 17.4899 67.7742 18.8473C67.7742 33.588 67.7742 48.3286 67.7742 63.0693C67.7742 64.4267 67.4924 64.7135 66.1963 64.7135C46.0596 64.7135 25.9417 64.7135 5.80497 64.7135C4.50886 64.7135 4.2271 64.4267 4.2271 63.1267C4.2271 56.6071 4.2271 50.1067 4.2271 43.5872C4.2271 43.396 4.20831 43.2048 4.24588 43.0136C4.32102 42.4209 4.65914 42.0577 5.26023 42.0385C5.82376 42.0194 6.27458 42.4209 6.33093 43.0518C6.34972 43.2621 6.33093 43.4725 6.33093 43.7019C6.33093 49.6861 6.33093 55.6703 6.33093 61.6545C6.33093 61.9222 6.33093 62.2089 6.33093 62.5148Z" fill="#18181B"/>
<path d="M53.9311 52.4226C53.9311 52.1741 53.9311 51.9255 53.9311 51.6961C53.9311 49.0195 53.9311 46.3619 53.9311 43.6853C53.9311 43.3985 53.9311 43.1117 53.9875 42.825C54.1002 42.3279 54.4571 42.0602 54.9455 42.0411C55.4714 42.022 55.8471 42.2896 55.9786 42.825C56.0349 43.0735 56.0349 43.3412 56.0349 43.6088C56.0349 48.2738 56.0349 52.958 56.0349 57.623C56.0349 57.795 56.0349 57.948 56.0162 58.1201C55.9786 58.6554 55.7344 59.0378 55.1896 59.1333C54.6449 59.2481 54.2129 59.0186 53.9875 58.5024C53.4615 57.2788 52.9543 56.0552 52.4284 54.8316C51.6582 53.0153 50.9068 51.199 50.1367 49.3827C50.0428 49.1724 49.9488 48.9812 49.6859 48.79C49.6859 49.0386 49.6859 49.268 49.6859 49.5166C49.6859 52.1932 49.6859 54.8507 49.6859 57.5274C49.6859 57.8141 49.6859 58.1009 49.6295 58.3877C49.498 58.923 49.1223 59.1716 48.5964 59.1716C48.0892 59.1525 47.7511 58.8848 47.6384 58.3877C47.582 58.1201 47.582 57.8141 47.582 57.5274C47.582 52.9006 47.582 48.2738 47.582 43.6471C47.582 43.4559 47.582 43.2647 47.6008 43.0735C47.6384 42.5382 47.8826 42.1558 48.4273 42.0602C48.9908 41.9455 49.4041 42.1749 49.6295 42.6911C50.1555 43.9147 50.6626 45.1383 51.1886 46.3619C51.9775 48.2165 52.7477 50.071 53.5366 51.9447C53.6118 52.1167 53.6869 52.2697 53.762 52.4226C53.8184 52.4226 53.8748 52.4226 53.9311 52.4226Z" fill="#D7282F"/>
<path d="M50.7561 33.1887C50.7561 31.4488 50.7561 29.7281 50.7561 27.9883C50.7561 26.6309 50.7561 25.2734 50.7561 23.916C50.7561 23.1704 51.1693 22.7306 51.7704 22.7115C52.4091 22.6924 52.8411 23.1512 52.8411 23.9351C52.8599 25.2734 52.8411 26.6118 52.8411 27.931C52.8411 31.3341 52.8411 34.7564 52.8411 38.1596C52.8411 39.2876 52.6345 39.6891 52.0146 39.8229C51.3572 39.9567 51.019 39.6699 50.587 38.6566C49.366 35.7697 48.1638 32.8827 46.9429 29.9958C46.8489 29.7855 46.755 29.5561 46.586 29.1737C46.5484 29.5369 46.5296 29.7281 46.5296 29.9193C46.5296 32.8063 46.5296 35.6932 46.5296 38.5802C46.5296 39.4405 46.06 39.9185 45.365 39.842C44.7639 39.7847 44.4258 39.3449 44.4258 38.5611C44.4258 36.3624 44.4258 34.1828 44.4258 31.9842C44.4258 29.4414 44.4258 26.8794 44.4258 24.3366C44.4258 23.2851 44.6324 22.8836 45.2523 22.7497C45.9097 22.6159 46.2479 22.9027 46.6799 23.916C47.9384 26.8985 49.197 29.862 50.4367 32.8445C50.4931 32.9783 50.5494 33.0931 50.6058 33.2269C50.6809 33.1887 50.7185 33.1887 50.7561 33.1887Z" fill="#D7282F"/>
<path d="M33.8874 28.5468C34.5824 26.8835 35.221 25.4113 35.8409 23.9201C35.9348 23.6715 35.9912 23.3465 36.179 23.2318C36.4984 23.0024 36.9304 22.7347 37.2497 22.792C37.5691 22.8494 37.8508 23.2891 38.0762 23.6142C38.1702 23.748 38.1138 23.9774 38.1138 24.1686C38.1138 28.9101 38.1138 33.6516 38.1138 38.393C38.1138 38.5269 38.1138 38.6798 38.1138 38.8137C38.0575 39.4255 37.6254 39.8461 37.0619 39.8461C36.4984 39.8461 36.0475 39.4255 36.0288 38.8137C35.9912 37.8577 36.01 36.9018 36.01 35.9458C36.01 33.7472 36.01 31.5676 35.8785 29.3307C35.5967 29.9999 35.2962 30.6881 35.0144 31.3573C34.789 31.8926 34.526 32.3515 33.8686 32.3324C33.2487 32.3132 32.9857 31.8735 32.7791 31.3573C32.4973 30.669 32.2156 29.9999 31.8399 29.1204C31.8023 29.5219 31.7835 29.7131 31.7835 29.9043C31.7835 32.7912 31.7835 35.6782 31.7835 38.5651C31.7835 39.349 31.3891 39.827 30.7504 39.827C30.0742 39.8461 29.6797 39.3681 29.6797 38.546C29.6797 36.2517 29.6797 33.9766 29.6797 31.6823C29.6797 29.1586 29.6797 26.6349 29.6797 24.1112C29.6797 23.4612 29.7924 22.9068 30.5062 22.7347C31.22 22.5817 31.5769 23.0024 31.8211 23.6142C32.4598 25.2201 33.136 26.7879 33.8874 28.5468Z" fill="#D7282F"/>
<path d="M34.9184 50.6632C34.9184 52.1927 34.9935 53.7222 34.8996 55.2326C34.7869 57.3548 33.1526 58.9799 31.1052 59.152C29.0389 59.324 27.198 58.0431 26.6533 55.9973C26.5969 55.7679 26.5406 55.5385 26.5406 55.2899C26.5406 52.1736 26.4467 49.0381 26.5594 45.9217C26.6721 43.1495 29.4522 41.3332 32.0256 42.2318C33.7162 42.8053 34.7493 44.048 34.862 45.8643C34.9935 47.4512 34.8996 49.0572 34.9184 50.6632C34.8996 50.6632 34.8996 50.6632 34.9184 50.6632ZM32.8333 50.5867C32.8333 49.2293 32.8521 47.8718 32.8333 46.5144C32.8145 45.0996 31.9505 44.1628 30.7295 44.1819C29.4897 44.1819 28.6444 45.1378 28.6256 46.5335C28.6069 49.2484 28.6069 51.9633 28.6256 54.6781C28.6256 56.0929 29.5085 57.0298 30.7295 57.0106C31.9692 57.0106 32.8145 56.0547 32.8333 54.659C32.8333 53.3016 32.8333 51.9441 32.8333 50.5867Z" fill="#D7282F"/>
<path d="M37.0792 50.5309C37.0792 49.0014 37.0041 47.4719 37.098 45.9615C37.2107 43.8776 38.8262 42.2525 40.8361 42.0613C42.9587 41.851 44.7996 43.1511 45.3443 45.2159C45.4382 45.5792 45.4946 45.9615 45.4946 46.3439C45.5134 49.1735 45.5509 52.0222 45.4946 54.8518C45.4382 57.8726 42.7521 59.861 40.0284 58.9815C38.3753 58.4462 37.1919 57.0122 37.1168 55.2533C37.0229 53.6856 37.0792 52.1178 37.0792 50.5309ZM43.372 50.6839C43.372 49.25 43.3907 47.8161 43.372 46.4013C43.3532 45.1012 42.4703 44.1835 41.2681 44.1835C40.0847 44.1835 39.1831 45.0821 39.1643 46.3821C39.1455 49.1926 39.1267 52.0031 39.1831 54.8136C39.2019 55.368 39.5024 56.0181 39.8781 56.4578C40.4416 57.127 41.2681 57.2034 42.0758 56.8593C42.9211 56.496 43.3344 55.8078 43.3532 54.89C43.3907 53.4944 43.372 52.0796 43.372 50.6839Z" fill="#D7282F"/>
<path d="M19.1216 31.2034C19.1216 29.8268 19.1028 28.4311 19.1216 27.0546C19.1404 24.5882 20.9625 22.7146 23.3105 22.6955C25.6585 22.6763 27.5182 24.5691 27.537 27.0163C27.5558 29.8459 27.5558 32.6946 27.537 35.5242C27.5182 37.9714 25.6585 39.8642 23.3105 39.8451C20.9625 39.826 19.1404 37.9523 19.1216 35.486C19.1216 34.0712 19.1216 32.6373 19.1216 31.2034ZM25.4519 31.3181C25.4519 29.9415 25.4519 28.5458 25.4519 27.1693C25.4519 25.7927 24.5503 24.8368 23.3105 24.8559C22.1083 24.875 21.2442 25.831 21.2255 27.1693C21.2255 29.9033 21.2255 32.6564 21.2255 35.3904C21.2255 36.7669 22.1271 37.7229 23.3669 37.7038C24.5691 37.6847 25.4331 36.7287 25.4519 35.3904C25.4519 34.0329 25.4519 32.6755 25.4519 31.3181Z" fill="#D7282F"/>
<path d="M61.2567 32.3458C60.8623 32.3458 60.5054 32.3841 60.1672 32.3458C59.5849 32.2694 59.228 31.9061 59.228 31.2943C59.228 30.6825 59.5661 30.281 60.1672 30.2428C60.9374 30.1854 61.7076 30.1854 62.4777 30.2428C63.06 30.281 63.4169 30.7016 63.4169 31.2943C63.4357 32.862 63.4921 34.4489 63.3981 36.0167C63.2479 38.2536 61.2943 39.936 59.0965 39.8595C56.8424 39.7831 55.0391 37.9668 55.0204 35.6916C54.9828 32.7664 54.9828 29.8221 55.0204 26.897C55.0391 24.6027 56.8612 22.8055 59.0965 22.729C61.2943 22.6526 63.1915 24.3541 63.4169 26.5719C63.5108 27.4323 63.1352 28.0059 62.4777 28.0632C61.839 28.1397 61.4258 27.6999 61.3131 26.8587C61.1628 25.6542 60.2612 24.8321 59.1341 24.8704C57.9883 24.9086 57.1054 25.8263 57.1054 27.0881C57.0866 29.8986 57.0866 32.7091 57.1054 35.5196C57.1054 36.7814 58.0258 37.7182 59.2093 37.7182C60.3927 37.7182 61.2943 36.7814 61.3131 35.5196C61.3319 34.5636 61.3131 33.6077 61.3131 32.6517C61.2943 32.5753 61.2755 32.4988 61.2567 32.3458Z" fill="#D7282F"/>
<path d="M20.2292 59.1698C17.8999 59.1125 16.1342 57.4109 15.9839 55.2313C15.9276 54.3901 16.2657 53.8739 16.9231 53.8165C17.543 53.7592 17.9375 54.1798 18.069 54.9828C18.238 56.0917 18.8016 56.78 19.7032 56.9711C20.6424 57.1814 21.5816 56.7417 22.0137 55.8814C22.4645 55.021 22.2954 53.9695 21.5441 53.2812C20.1728 52.0194 18.764 50.7957 17.3927 49.5339C15.0259 47.3352 15.6646 43.5115 18.6137 42.307C21.2247 41.2363 24.1551 43.0908 24.3429 45.9396C24.3993 46.7808 24.0611 47.297 23.4037 47.3543C22.7838 47.4117 22.3893 46.9911 22.2579 46.1881C22.0137 44.6586 20.8115 43.8174 19.5154 44.2571C17.9563 44.7733 17.5618 46.7808 18.8391 47.947C20.1916 49.1898 21.5816 50.3942 22.9341 51.637C24.6059 53.1856 24.8689 55.5946 23.5728 57.3918C22.7087 58.6154 21.5253 59.1698 20.2292 59.1698Z" fill="#D7282F"/>
<path d="M8.58264 31.2591C8.58264 29.8443 8.56385 28.4486 8.58264 27.0338C8.60142 24.7204 10.2544 22.9041 12.4522 22.7321C14.6875 22.56 16.5847 24.0704 16.9604 26.3455C16.998 26.6323 17.0355 26.9191 16.9792 27.2059C16.8853 27.7221 16.5284 28.0471 16.0024 28.0662C15.4765 28.0854 15.1196 27.7986 14.9505 27.2824C14.8941 27.1103 14.9129 26.9 14.8754 26.7088C14.7063 25.5808 13.7483 24.7969 12.64 24.8543C11.5693 24.9307 10.6865 25.7911 10.6865 26.9C10.6677 29.8061 10.6677 32.7121 10.6865 35.6182C10.7053 36.7462 11.5505 37.6066 12.64 37.683C13.7483 37.7595 14.6875 36.9947 14.8754 35.8476C14.8941 35.7329 14.8941 35.6182 14.8941 35.4844C14.9881 34.8534 15.4201 34.4519 15.9648 34.4711C16.5472 34.4902 16.9604 34.949 16.998 35.5991C17.0731 37.836 15.0444 39.8435 12.734 39.8052C10.4611 39.767 8.62021 37.9507 8.56385 35.6373C8.54507 34.2034 8.58264 32.7312 8.58264 31.2591Z" fill="#D7282F"/>
<path d="M40.2188 31.2777C40.2188 28.8496 40.2188 26.4215 40.2188 23.9934C40.2188 23.3816 40.4066 22.9036 41.0265 22.7507C41.7591 22.5595 42.3226 23.0757 42.3226 23.9169C42.3414 25.6759 42.3226 27.4348 42.3226 29.2129C42.3226 32.3101 42.3226 35.4074 42.3226 38.5046C42.3226 39.1356 42.1723 39.6518 41.5149 39.8238C40.7635 40.015 40.2188 39.4988 40.2188 38.5811C40.2188 36.1339 40.2188 33.7058 40.2188 31.2777Z" fill="#D7282F"/>
</g>
<defs>
<clipPath id="clip0_5053_10286">
<rect width="72" height="69" fill="white"/>
</clipPath>
</defs>
</svg>
