<svg width="16" height="17" viewBox="0 0 16 17" fill="none" xmlns="http://www.w3.org/2000/svg">
<path d="M14.902 3.16699H12.236V1.75498C12.236 1.15013 11.7429 0.656982 11.138 0.656982H1.098C0.493151 0.656982 0 1.15013 0 1.75498V15.245C0 15.8498 0.493151 16.343 1.098 16.343H13.6544C14.9484 16.343 16 15.2913 16 13.9973V4.26499C16 3.66014 15.509 3.16699 14.902 3.16699ZM1.098 15.4009C1.01159 15.4009 0.939937 15.3314 0.939937 15.245V1.75498C0.939937 1.66857 1.00948 1.59903 1.098 1.59903H11.138C11.2244 1.59903 11.2961 1.66857 11.2961 1.75498V13.9952C11.2961 14.5221 11.4731 15.0089 11.7682 15.4009H1.098ZM15.0601 13.9952C15.0601 14.7708 14.4299 15.4009 13.6544 15.4009H13.6417C12.8662 15.4009 12.236 14.7708 12.236 13.9952V4.10693H14.902C14.9884 4.10693 15.0601 4.17648 15.0601 4.26288V13.9952ZM9.25606 9.11009H2.97998C2.72076 9.11009 2.51001 9.32084 2.51001 9.58006C2.51001 9.83928 2.72076 10.05 2.97998 10.05H9.25606C9.51528 10.05 9.72603 9.83928 9.72603 9.58006C9.72603 9.32084 9.51528 9.11009 9.25606 9.11009ZM9.25606 11.618H2.97998C2.72076 11.618 2.51001 11.8287 2.51001 12.088C2.51001 12.3472 2.72076 12.5579 2.97998 12.5579H9.25606C9.51528 12.5579 9.72603 12.3472 9.72603 12.088C9.72603 11.8287 9.51528 11.618 9.25606 11.618ZM9.25606 4.10482H2.97998C2.72076 4.10482 2.51001 4.31557 2.51001 4.57479V7.0848C2.51001 7.34402 2.72076 7.55477 2.97998 7.55477H9.25606C9.51528 7.55477 9.72603 7.34402 9.72603 7.0848V4.5769C9.72603 4.31557 9.51528 4.10482 9.25606 4.10482ZM8.78609 6.61483H3.44995V5.04687H8.78398V6.61483H8.78609Z" fill="#030303"/>
</svg>
