<svg width="62" height="62" viewBox="0 0 62 62" fill="none" xmlns="http://www.w3.org/2000/svg">
<path d="M57.3032 0H4.69698C2.16061 0 0 2.06667 0 4.69698V57.3032C0 59.8396 2.06667 62.0002 4.69698 62.0002H57.3032C59.8396 62.0002 62.0002 59.9335 62.0002 57.3032V4.69698C62.0002 2.06667 59.9335 0 57.3032 0ZM5.9182 58.2426L12.4 49.882C12.9637 49.2244 13.7152 48.8486 14.5606 48.8486C15.4061 48.8486 16.2516 49.2244 16.7213 49.882L23.2031 58.2426H5.9182ZM58.2426 57.3032C58.2426 57.7729 57.8668 58.2426 57.3032 58.2426H27.994L22.4516 51.1032L35.3213 34.4759C35.791 33.8183 36.6365 33.4425 37.388 33.4425C38.2334 33.4425 38.985 33.8183 39.5486 34.3819L58.2426 56.4577V57.3032ZM58.2426 50.6335L42.3668 31.9395C41.0516 30.4365 39.2668 29.591 37.294 29.6849C35.3213 29.6849 33.5365 30.6243 32.3152 32.2213L20.1031 48.0032L19.7273 47.5335C18.5061 45.9365 16.6273 44.9971 14.5606 44.9971C12.494 44.9971 10.6152 45.9365 9.39397 47.5335L3.75759 54.8608V4.69698C3.75759 4.22728 4.13335 3.75759 4.69698 3.75759H57.3032C57.7729 3.75759 58.2426 4.13335 58.2426 4.69698V50.6335Z" fill="#9A9A9A"/>
<path d="M18.3179 20.6667C14.4664 20.6667 11.2725 23.8607 11.2725 27.7122C11.2725 31.5637 14.4664 34.7577 18.3179 34.7577C22.1695 34.7577 25.3634 31.5637 25.3634 27.7122C25.3634 23.8607 22.1695 20.6667 18.3179 20.6667ZM18.3179 31.0001C16.5331 31.0001 15.03 29.4971 15.03 27.7122C15.03 25.9274 16.5331 24.4243 18.3179 24.4243C20.1028 24.4243 21.6058 25.9274 21.6058 27.7122C21.6058 29.4971 20.1028 31.0001 18.3179 31.0001Z" fill="#9A9A9A"/>
</svg>
