<svg width="77" height="67" viewBox="0 0 77 67" fill="none" xmlns="http://www.w3.org/2000/svg">
<g clip-path="url(#clip0_8340_29348)">
<path d="M57.2851 63.8561C63.2665 63.8561 69.1427 63.8561 75.0412 63.8561C75.0412 64.8229 75.0412 65.7297 75.0412 66.665C50.0209 66.665 25.0185 66.665 0 66.665C0 65.7305 0 64.8247 0 63.8632C1.49712 63.8632 2.97174 63.8632 4.47966 63.8632C4.48956 63.6657 4.50305 63.5211 4.50305 63.3764C4.50484 50.3327 4.50754 37.289 4.49764 24.2453C4.49764 23.8275 4.61543 23.7116 5.02545 23.7224C6.0559 23.7502 7.08726 23.7314 8.16536 23.7314C8.16536 21.865 8.16536 20.0445 8.16536 18.1584C13.805 18.1584 19.3987 18.1584 25.0509 18.1584C25.0509 12.2917 25.0509 6.49226 25.0509 0.665039C31.4691 0.665039 37.8272 0.665039 44.2311 0.665039C44.2311 2.51609 44.2311 4.3357 44.2311 6.20743C48.1325 6.20743 51.989 6.20743 55.8788 6.20743C55.8788 11.2834 55.8788 16.3074 55.8788 21.3717C54.9706 21.3717 54.0553 21.3717 53.0888 21.3717C53.0888 17.2688 53.0888 13.1875 53.0888 9.07207C44.6717 9.07207 36.304 9.07207 27.8985 9.07207C27.8985 27.3024 27.8985 45.5334 27.8985 63.822C28.0244 63.8318 28.1664 63.8524 28.3085 63.8524C30.0171 63.8561 31.7254 63.8445 33.4338 63.8651C33.825 63.8695 33.8997 63.732 33.8987 63.3735C33.887 60.0041 33.8923 56.6344 33.8934 53.2647C33.8934 53.0894 33.8934 52.9143 33.8934 52.7047C34.093 52.6942 34.2376 52.6796 34.3834 52.6796C36.9909 52.6778 39.5984 52.6878 42.2062 52.6699C42.6091 52.6672 42.7205 52.7847 42.7044 53.1765C42.6745 53.9223 42.6951 54.6699 42.6951 55.4699C40.7009 55.4699 38.747 55.4699 36.7499 55.4699C36.7499 58.2815 36.7499 61.0392 36.7499 63.8299C42.0811 63.8299 47.4041 63.8299 52.8172 63.8299C52.6796 63.6378 52.5843 63.4968 52.4808 63.3619C49.6558 59.7118 46.9637 55.9686 44.5656 52.022C43.0011 49.4467 41.5686 46.8048 40.5274 43.9653C38.6823 38.9334 39.6372 34.2976 42.8068 30.1668C46.4727 25.3901 51.4702 23.4357 57.4282 24.2525C64.208 25.1825 69.5437 30.7914 70.413 37.6026C70.7169 39.9839 70.2792 42.2186 69.432 44.4112C68.0059 48.1069 66.0224 51.5099 63.804 54.7679C61.8161 57.6875 59.6941 60.5152 57.6315 63.3835C57.5388 63.5129 57.4443 63.6396 57.2851 63.8561ZM7.35699 63.8355C7.47838 63.8471 7.55122 63.8598 7.62406 63.8598C13.3041 63.8598 18.9833 63.8561 24.6633 63.8661C25.0419 63.8669 25.059 63.6935 25.059 63.4004C25.0536 51.3148 25.0536 39.2299 25.0526 27.1442C25.0526 26.9563 25.0526 26.7676 25.0526 26.5798C19.1128 26.5798 13.2457 26.5798 7.35699 26.5798C7.35699 39.0052 7.35699 51.3992 7.35699 63.8355ZM55.0598 62.0994C55.1858 61.9476 55.2819 61.8389 55.3719 61.7238C58.0172 58.3327 60.5114 54.8336 62.7774 51.1772C64.3167 48.6935 65.7616 46.1578 66.8136 43.4209C67.2551 42.2725 67.6481 41.1043 67.693 39.8624C67.9628 32.3387 61.408 26.1521 53.8882 26.9518C48.8968 27.4819 45.3549 30.1623 43.3678 34.7704C42.386 37.0471 42.0336 39.4572 42.8248 41.8744C43.3211 43.3903 43.919 44.8901 44.6339 46.3151C47.0868 51.2052 50.2133 55.6702 53.4816 60.04C53.9906 60.7192 54.5149 61.3887 55.0598 62.0994ZM27.8905 6.19932C32.4007 6.19932 36.8866 6.19932 41.3986 6.19932C41.3986 5.28549 41.3986 4.39591 41.3986 3.47667C36.8892 3.47667 32.4042 3.47667 27.8905 3.47667C27.8905 4.39322 27.8905 5.2819 27.8905 6.19932ZM24.5249 20.9817C20.0074 20.9817 15.5349 20.9817 11.0472 20.9817C11.0472 21.8974 11.0472 22.7852 11.0472 23.6918C15.5538 23.6918 20.0254 23.6918 24.5249 23.6918C24.5249 22.7861 24.5249 21.9099 24.5249 20.9817Z" fill="#9A9A9A"/>
<path d="M50.0391 19.474C43.6532 19.474 37.305 19.474 30.9199 19.474C30.9199 18.5494 30.9199 17.6472 30.9199 16.7109C37.2924 16.7109 43.6503 16.7109 50.0391 16.7109C50.0391 17.6365 50.0391 18.5512 50.0391 19.474Z" fill="#9A9A9A"/>
<path d="M30.9102 28.7609C30.9102 27.8013 30.9102 26.8963 30.9102 25.9609C34.354 25.9609 37.771 25.9609 41.2452 25.9609C41.2452 26.8298 41.2561 27.678 41.2283 28.5246C41.2254 28.6046 40.9818 28.7419 40.8498 28.743C38.5603 28.7583 36.2701 28.7554 33.9799 28.7564C33.1267 28.7572 32.2742 28.7583 31.421 28.7599C31.26 28.7617 31.0981 28.7609 30.9102 28.7609Z" fill="#9A9A9A"/>
<path d="M36.8169 35.2078C36.8169 36.1532 36.8169 37.0463 36.8169 37.9708C36.6675 37.9846 36.5389 38.006 36.4096 38.006C34.7181 38.007 33.0277 37.9962 31.3363 38.0097C30.9865 38.0123 30.8661 37.9144 30.8777 37.5558C30.9031 36.7831 30.8851 36.0085 30.8851 35.207C32.882 35.2078 34.8332 35.2078 36.8169 35.2078Z" fill="#9A9A9A"/>
<path d="M22.1678 31.9775C22.1678 32.9461 22.1678 33.8519 22.1678 34.7864C18.1799 34.7864 14.2164 34.7864 10.1809 34.7864C10.1809 33.9113 10.1728 33.0343 10.198 32.1588C10.1998 32.0952 10.4426 31.9857 10.5739 31.9857C12.9405 31.9748 15.3062 31.9767 17.6728 31.9767C19.0054 31.9767 20.3389 31.9783 21.6714 31.9783C21.8189 31.9775 21.9663 31.9775 22.1678 31.9775Z" fill="#9A9A9A"/>
<path d="M22.177 39.7275C22.177 40.6632 22.177 41.5589 22.177 42.5267C22.0035 42.5267 21.8452 42.5267 21.687 42.5267C18.0031 42.5267 14.3183 42.523 10.6344 42.5339C10.2981 42.5349 10.1506 42.47 10.165 42.0935C10.1929 41.3189 10.1731 40.5417 10.1731 39.7275C14.187 39.7275 18.1586 39.7275 22.177 39.7275Z" fill="#9A9A9A"/>
<path d="M22.1555 58.4163C18.1785 58.4163 14.2176 58.4163 10.2047 58.4163C10.1939 58.1953 10.1759 57.977 10.1741 57.7595C10.1714 57.1763 10.1858 56.5923 10.1723 56.0099C10.166 55.7351 10.228 55.6073 10.5409 55.6084C14.3426 55.6174 18.1443 55.6147 21.946 55.6163C22.0045 55.6163 22.062 55.6316 22.1564 55.6443C22.1555 56.5636 22.1555 57.4773 22.1555 58.4163Z" fill="#9A9A9A"/>
<path d="M22.1699 50.4463C18.1731 50.4463 14.2105 50.4463 10.2109 50.4463C10.2109 49.5271 10.2109 48.6239 10.2109 47.6904C14.1979 47.6904 18.1713 47.6904 22.1699 47.6904C22.1699 48.6007 22.1699 49.493 22.1699 50.4463Z" fill="#9A9A9A"/>
<path d="M60.4582 39.1179C60.4994 42.0348 58.0933 44.4977 55.1674 44.5336C52.1634 44.5714 49.7203 42.2046 49.6878 39.2259C49.6556 36.2319 52.0356 33.7885 55.0138 33.7571C57.9872 33.7265 60.416 36.1178 60.4582 39.1179ZM57.6311 39.1396C57.6213 37.7163 56.4695 36.5724 55.0549 36.5806C53.6388 36.5896 52.496 37.7422 52.4968 39.1612C52.4978 40.5755 53.6576 41.7231 55.0774 41.7159C56.5046 41.7085 57.6411 40.562 57.6311 39.1396Z" fill="#9A9A9A"/>
</g>
<defs>
<clipPath id="clip0_8340_29348">
<rect width="76.56" height="66" fill="white" transform="translate(0 0.665039)"/>
</clipPath>
</defs>
</svg>
