<svg width="66" height="66" viewBox="0 0 66 66" fill="none" xmlns="http://www.w3.org/2000/svg">
<path d="M33.0001 0C14.8047 0 0 14.8024 0 32.9975C0 51.194 14.8037 65.9977 33.0001 65.9977C51.1966 65.9977 66.0003 51.194 66.0003 32.9975C66 14.8024 51.1952 0 33.0001 0ZM33.0001 63.0325C16.44 63.0325 2.96292 49.5604 2.96292 32.9975C2.96292 16.4361 16.44 2.96161 33.0001 2.96161C49.5626 2.96161 63.0397 16.4351 63.0397 32.9975C63.0397 49.56 49.5626 63.0325 33.0001 63.0325Z" fill="#9A9A9A"/>
<path d="M32.7863 22.2324C31.5623 22.2324 30.5664 23.226 30.5664 24.4533V49.5335C30.5664 50.7622 31.5623 51.7581 32.7863 51.7581C34.0149 51.7581 35.0108 50.7622 35.0108 49.5335V24.4533C35.0108 23.226 34.0136 22.2324 32.7863 22.2324Z" fill="#9A9A9A"/>
<path d="M32.9261 18.7721C34.417 18.7721 35.6256 17.5635 35.6256 16.0726C35.6256 14.5817 34.417 13.373 32.9261 13.373C31.4352 13.373 30.2266 14.5817 30.2266 16.0726C30.2266 17.5635 31.4352 18.7721 32.9261 18.7721Z" fill="#9A9A9A"/>
</svg>
