<svg width="46" height="46" viewBox="0 0 46 46" fill="none" xmlns="http://www.w3.org/2000/svg">
<path d="M23.459 2.92188C19.3913 2.92188 15.415 4.12807 12.0329 6.38794C8.65075 8.64777 6.01473 11.8599 4.45811 15.6179C2.90149 19.3758 2.49421 23.5111 3.28776 27.5006C4.08132 31.4901 6.04008 35.1547 8.91632 38.0309C11.7926 40.9072 15.4572 42.866 19.4467 43.6595C23.4362 44.4531 27.5714 44.0458 31.3294 42.4892C35.0874 40.9325 38.2995 38.2965 40.5593 34.9143C42.8192 31.5322 44.0254 27.5559 44.0254 23.4883C44.0198 18.0355 41.8512 12.8075 37.9955 8.95181C34.1397 5.09606 28.9119 2.92746 23.459 2.92188ZM23.459 4.67969C26.9967 4.67717 30.4633 5.6732 33.4602 7.55321C36.457 9.43323 38.8623 12.1209 40.3997 15.3071C41.937 18.4934 42.5438 22.0488 42.1503 25.5646C41.7568 29.0804 40.3791 32.4137 38.1754 35.1813C37.2082 32.9585 35.7486 30.9847 33.9069 29.4085C32.0652 27.8323 29.8896 26.6952 27.5441 26.0828C28.8842 25.2035 29.9047 23.9153 30.454 22.4096C31.0034 20.9039 31.0522 19.2612 30.5934 17.7256C30.1345 16.1899 29.1924 14.8433 27.9071 13.8859C26.6217 12.9285 25.0618 12.4113 23.459 12.4113C21.8563 12.4113 20.2963 12.9285 19.0109 13.8859C17.7256 14.8433 16.7834 16.1899 16.3246 17.7256C15.8657 19.2612 15.9146 20.9039 16.4639 22.4096C17.0133 23.9153 18.0338 25.2035 19.3738 26.0828C17.0284 26.6952 14.8527 27.8323 13.011 29.4085C11.1694 30.9847 9.70987 32.9585 8.74258 35.1813C6.53896 32.4137 5.16119 29.0804 4.76771 25.5646C4.37425 22.0488 4.98105 18.4934 6.51835 15.3071C8.05562 12.1209 10.461 9.43323 13.4579 7.55321C16.4547 5.6732 19.9213 4.67717 23.459 4.67969ZM23.459 25.5484C22.334 25.5484 21.2342 25.2148 20.2987 24.5898C19.3634 23.9647 18.6342 23.0764 18.2037 22.037C17.7732 20.9976 17.6605 19.8538 17.88 18.7504C18.0995 17.647 18.6412 16.6334 19.4368 15.8379C20.2323 15.0424 21.2458 14.5007 22.3492 14.2811C23.4527 14.0617 24.5964 14.1743 25.6358 14.6049C26.6752 15.0354 27.5636 15.7645 28.1886 16.6999C28.8136 17.6353 29.1473 18.7351 29.1473 19.8602C29.1454 21.3682 28.5455 22.814 27.4792 23.8803C26.4128 24.9467 24.967 25.5466 23.459 25.5484ZM23.459 42.2969C20.962 42.3 18.4895 41.804 16.1868 40.838C13.8842 39.872 11.7979 38.4556 10.0504 36.6719C11.0599 33.9282 12.8869 31.5603 15.2846 29.8876C17.6823 28.215 20.5355 27.3181 23.459 27.3181C26.3825 27.3181 29.2356 28.215 31.6334 29.8876C34.0311 31.5603 35.858 33.9282 36.8676 36.6719C35.1201 38.4556 33.0338 39.872 30.7311 40.838C28.4285 41.804 25.9561 42.3 23.459 42.2969Z" fill="#E7E7E7"/>
</svg>
