<svg width="135" height="32" viewBox="0 0 135 32" fill="none" xmlns="http://www.w3.org/2000/svg">
<path d="M23.0236 26.3566L24.1926 26.3566L25.3402 26.3566L38.3089 26.3566L38.9136 26.3566L114.636 26.3566L115.281 26.3566L116.397 26.3566L116.397 27.0931L116.397 26.3639C116.61 26.3639 116.791 26.3847 117 26.3875C117.174 26.3905 117.338 26.4019 117.51 26.4083C123.52 26.6011 127.181 28.2763 129.364 30.1235C129.739 30.4385 130.079 30.7563 130.372 31.075L130.372 11.5758L130.372 11.1075L130.372 9.56229C130.372 6.74864 129.149 4.56146 126.741 3.0574C123.379 0.959113 118.578 0.739922 116.996 0.726865C116.669 0.723809 116.469 0.729644 116.46 0.729644L116.46 0.725477L116.395 0.00317409L116.395 0.725477L0.377198 0.725477L10.9369 12.7864L0.109131 26.3553L23.0236 26.3553L23.0236 26.3566Z" fill="url(#paint0_linear_660_3808)"/>
<path d="M19.9653 11.2637C19.6235 11.2637 19.3176 11.3255 19.0474 11.4492C18.7804 11.5729 18.5542 11.752 18.3687 11.9863C18.1831 12.2174 18.0415 12.499 17.9439 12.8311C17.8462 13.1598 17.7974 13.5309 17.7974 13.9443C17.7974 14.4977 17.8755 14.9746 18.0317 15.375C18.188 15.7721 18.4256 16.0781 18.7446 16.293C19.0636 16.5046 19.4673 16.6104 19.9556 16.6104C20.2583 16.6104 20.5529 16.5811 20.8394 16.5225C21.1258 16.4639 21.422 16.3841 21.728 16.2832V17.2793C21.4383 17.3932 21.1454 17.4762 20.8491 17.5283C20.5529 17.5804 20.2111 17.6064 19.8237 17.6064C19.0946 17.6064 18.4891 17.4551 18.0073 17.1523C17.5288 16.8496 17.1707 16.4232 16.9331 15.873C16.6987 15.3229 16.5815 14.6784 16.5815 13.9395C16.5815 13.3991 16.6564 12.9043 16.8062 12.4551C16.9559 12.0059 17.174 11.6185 17.4605 11.293C17.7469 10.9642 18.1001 10.7119 18.52 10.5361C18.9432 10.3571 19.4266 10.2676 19.9702 10.2676C20.3283 10.2676 20.6799 10.3083 21.0249 10.3896C21.3732 10.4678 21.6955 10.5801 21.9917 10.7266L21.5815 11.6934C21.3342 11.5762 21.0754 11.4753 20.8052 11.3906C20.535 11.306 20.2551 11.2637 19.9653 11.2637ZM27.9292 14.7939C27.9292 15.2432 27.8706 15.6419 27.7534 15.9902C27.6362 16.3385 27.4653 16.6331 27.2407 16.874C27.0161 17.1117 26.7459 17.2939 26.4302 17.4209C26.1144 17.5446 25.758 17.6064 25.3608 17.6064C24.9898 17.6064 24.6496 17.5446 24.3403 17.4209C24.0311 17.2939 23.7625 17.1117 23.5347 16.874C23.3101 16.6331 23.1359 16.3385 23.0122 15.9902C22.8885 15.6419 22.8267 15.2432 22.8267 14.7939C22.8267 14.1982 22.9292 13.6937 23.1343 13.2803C23.3426 12.8636 23.6388 12.5462 24.023 12.3281C24.4071 12.11 24.8644 12.001 25.395 12.001C25.8931 12.001 26.3325 12.11 26.7134 12.3281C27.0942 12.5462 27.3921 12.8636 27.6069 13.2803C27.8218 13.6969 27.9292 14.2015 27.9292 14.7939ZM24.0083 14.7939C24.0083 15.1878 24.0555 15.5247 24.1499 15.8047C24.2476 16.0846 24.3973 16.2995 24.5991 16.4492C24.801 16.5957 25.0614 16.6689 25.3804 16.6689C25.6994 16.6689 25.9598 16.5957 26.1616 16.4492C26.3635 16.2995 26.5116 16.0846 26.606 15.8047C26.7004 15.5247 26.7476 15.1878 26.7476 14.7939C26.7476 14.4001 26.7004 14.0664 26.606 13.793C26.5116 13.5163 26.3635 13.3063 26.1616 13.1631C25.9598 13.0166 25.6978 12.9434 25.3755 12.9434C24.9002 12.9434 24.5536 13.1029 24.3355 13.4219C24.1174 13.7409 24.0083 14.1982 24.0083 14.7939ZM32.0649 12.001C32.6737 12.001 33.1473 12.1589 33.4858 12.4746C33.8276 12.7871 33.9985 13.29 33.9985 13.9834V17.5088H32.8511V14.1982C32.8511 13.7783 32.7648 13.4642 32.5923 13.2559C32.4198 13.0443 32.1528 12.9385 31.7915 12.9385C31.2674 12.9385 30.9028 13.0996 30.6978 13.4219C30.4959 13.7441 30.395 14.2113 30.395 14.8232L30.395 17.5088H29.2476L29.2476 12.1035H30.1411L30.3023 12.8359H30.3657C30.4829 12.6471 30.6278 12.4925 30.8003 12.3721C30.9761 12.2484 31.1714 12.1556 31.3862 12.0937C31.6043 12.0319 31.8306 12.001 32.0649 12.001ZM38.3052 12.9775H36.9917V17.5088H35.8442V12.9775H34.9605V12.4258L35.8442 12.0889V11.7129C35.8442 11.2539 35.9159 10.8893 36.0591 10.6191C36.2056 10.349 36.4139 10.1553 36.6841 10.0381C36.9575 9.91764 37.283 9.85742 37.6607 9.85742C37.908 9.85742 38.1343 9.87858 38.3394 9.9209C38.5444 9.95996 38.717 10.0055 38.8569 10.0576L38.5591 10.9268C38.4484 10.8909 38.3247 10.8584 38.188 10.8291C38.0513 10.7965 37.9048 10.7803 37.7485 10.7803C37.4881 10.7803 37.2961 10.8617 37.1724 11.0244C37.0519 11.1872 36.9917 11.4248 36.9917 11.7373V12.1035H38.3052V12.9775ZM40.3706 12.1035V17.5088H39.2232V12.1035H40.3706ZM39.8042 10.0332C39.98 10.0332 40.1314 10.0804 40.2583 10.1748C40.3885 10.2692 40.4536 10.432 40.4536 10.6631C40.4536 10.8909 40.3885 11.0537 40.2583 11.1514C40.1314 11.2458 39.98 11.293 39.8042 11.293C39.6219 11.293 39.4673 11.2458 39.3403 11.1514C39.2166 11.0537 39.1548 10.8909 39.1548 10.6631C39.1548 10.432 39.2166 10.2692 39.3403 10.1748C39.4673 10.0804 39.6219 10.0332 39.8042 10.0332ZM43.5542 19.9111C42.8218 19.9111 42.2603 19.7793 41.8696 19.5156C41.479 19.252 41.2837 18.8825 41.2837 18.4072C41.2837 18.0752 41.3879 17.7936 41.5962 17.5625C41.8045 17.3346 42.1024 17.1768 42.4898 17.0889C42.3433 17.0238 42.2163 16.9229 42.1089 16.7861C42.0047 16.6462 41.9526 16.4915 41.9526 16.3223C41.9526 16.1204 42.0096 15.9479 42.1235 15.8047C42.2375 15.6615 42.4084 15.5231 42.6362 15.3896C42.353 15.2692 42.1252 15.0739 41.9526 14.8037C41.7834 14.5303 41.6987 14.2096 41.6987 13.8418C41.6987 13.4512 41.7817 13.1191 41.9478 12.8457C42.1138 12.569 42.3563 12.359 42.6753 12.2158C42.9943 12.0693 43.3801 11.9961 43.8325 11.9961C43.9302 11.9961 44.036 12.0026 44.1499 12.0156C44.2671 12.0254 44.3745 12.0384 44.4722 12.0547C44.5731 12.0677 44.6496 12.0824 44.7017 12.0986H46.5718V12.7383L45.6538 12.9092C45.7417 13.0329 45.8117 13.1745 45.8638 13.334C45.9159 13.4902 45.9419 13.6611 45.9419 13.8467C45.9419 14.4066 45.7482 14.8477 45.3608 15.1699C44.9767 15.4889 44.4461 15.6484 43.769 15.6484C43.6063 15.6419 43.4484 15.6289 43.2954 15.6094C43.1782 15.681 43.0887 15.7607 43.0269 15.8486C42.965 15.9333 42.9341 16.0293 42.9341 16.1367C42.9341 16.2246 42.965 16.2962 43.0269 16.3516C43.0887 16.4036 43.1799 16.4427 43.3003 16.4687C43.424 16.4948 43.5737 16.5078 43.7495 16.5078H44.6821C45.2746 16.5078 45.7271 16.6331 46.0396 16.8838C46.3521 17.1344 46.5083 17.5023 46.5083 17.9873C46.5083 18.6025 46.2544 19.0762 45.7466 19.4082C45.2388 19.7435 44.508 19.9111 43.5542 19.9111ZM43.5981 19.1055C43.9985 19.1055 44.3355 19.0664 44.6089 18.9883C44.8823 18.9102 45.089 18.7979 45.229 18.6514C45.369 18.5081 45.439 18.3372 45.439 18.1387C45.439 17.9629 45.395 17.8278 45.3071 17.7334C45.2192 17.639 45.0874 17.5739 44.9116 17.5381C44.7358 17.5023 44.5177 17.4844 44.2573 17.4844H43.4077C43.1961 17.4844 43.009 17.5169 42.8462 17.582C42.6834 17.6504 42.5565 17.748 42.4653 17.875C42.3774 18.002 42.3335 18.1549 42.3335 18.334C42.3335 18.5814 42.4426 18.7718 42.6606 18.9053C42.882 19.0387 43.1945 19.1055 43.5981 19.1055ZM43.8228 14.8965C44.158 14.8965 44.4071 14.8053 44.5698 14.623C44.7326 14.4375 44.814 14.1771 44.814 13.8418C44.814 13.4772 44.7293 13.2038 44.5601 13.0215C44.394 12.8392 44.1467 12.748 43.8179 12.748C43.4956 12.748 43.2498 12.8408 43.0806 13.0264C42.9146 13.2119 42.8315 13.487 42.8315 13.8516C42.8315 14.1803 42.9146 14.4375 43.0806 14.623C43.2498 14.8053 43.4972 14.8965 43.8228 14.8965ZM52.27 12.1035V17.5088H51.3667L51.2105 16.7812H51.147C51.033 16.9668 50.8882 17.1214 50.7124 17.2451C50.5366 17.3656 50.3413 17.4551 50.1265 17.5137C49.9116 17.5755 49.6854 17.6064 49.4478 17.6064C49.0409 17.6064 48.6926 17.5381 48.4028 17.4014C48.1164 17.2614 47.8967 17.0465 47.7437 16.7568C47.5907 16.4671 47.5142 16.0928 47.5142 15.6338V12.1035H48.6665V15.4189C48.6665 15.8389 48.7511 16.153 48.9204 16.3613C49.0929 16.5697 49.3599 16.6738 49.7212 16.6738C50.0695 16.6738 50.3462 16.6022 50.5513 16.459C50.7564 16.3158 50.9012 16.1042 50.9858 15.8242C51.0737 15.5443 51.1177 15.2008 51.1177 14.7939V12.1035L52.27 12.1035ZM56.0347 12.001C56.7183 12.001 57.2342 12.1523 57.5825 12.4551C57.9341 12.7578 58.1099 13.2298 58.1099 13.8711V17.5088H57.2944L57.0747 16.7422H57.0356C56.8827 16.9375 56.7248 17.0986 56.562 17.2256C56.3993 17.3525 56.2105 17.4469 55.9956 17.5088C55.784 17.5739 55.5252 17.6064 55.2192 17.6064C54.897 17.6064 54.6089 17.5479 54.355 17.4307C54.1011 17.3102 53.9009 17.1279 53.7544 16.8838C53.6079 16.6396 53.5347 16.3304 53.5347 15.9561C53.5347 15.3994 53.7414 14.9811 54.1548 14.7012C54.5715 14.4212 55.1997 14.2666 56.0396 14.2373L56.9771 14.2031V13.9199C56.9771 13.5456 56.8892 13.2786 56.7134 13.1191C56.5409 12.9596 56.2967 12.8799 55.981 12.8799C55.7108 12.8799 55.4487 12.9189 55.1948 12.9971C54.9409 13.0752 54.6935 13.1712 54.4526 13.2852L54.0815 12.4746C54.3452 12.3346 54.6447 12.2207 54.98 12.1328C55.3185 12.0449 55.6701 12.001 56.0347 12.001ZM56.9722 14.9258L56.2739 14.9502C55.701 14.9697 55.299 15.0674 55.0679 15.2432C54.8368 15.4189 54.7212 15.6598 54.7212 15.9658C54.7212 16.2327 54.8009 16.4281 54.9605 16.5518C55.12 16.6722 55.3299 16.7324 55.5903 16.7324C55.9875 16.7324 56.3162 16.6201 56.5767 16.3955C56.8403 16.1676 56.9722 15.834 56.9722 15.3945V14.9258ZM62.4556 12.001C62.5467 12.001 62.646 12.0059 62.7534 12.0156C62.8608 12.0254 62.9536 12.0384 63.0317 12.0547L62.9243 13.1289C62.856 13.1094 62.7713 13.0947 62.6704 13.085C62.5728 13.0752 62.4849 13.0703 62.4067 13.0703C62.2017 13.0703 62.0064 13.1045 61.8208 13.1729C61.6353 13.238 61.4709 13.3389 61.3276 13.4756C61.1844 13.609 61.0721 13.7767 60.9907 13.9785C60.9093 14.1803 60.8687 14.4147 60.8687 14.6816V17.5088H59.7163V12.1035H60.6148L60.771 13.0557H60.8247C60.9321 12.8636 61.0656 12.6878 61.2251 12.5283C61.3846 12.3688 61.5669 12.2419 61.772 12.1475C61.9803 12.0498 62.2082 12.001 62.4556 12.001ZM66.0444 16.6787C66.1942 16.6787 66.3423 16.6657 66.4888 16.6396C66.6353 16.6104 66.7687 16.5762 66.8892 16.5371V17.4062C66.7622 17.4616 66.5978 17.5088 66.396 17.5479C66.1942 17.5869 65.9842 17.6064 65.7661 17.6064C65.4601 17.6064 65.1851 17.556 64.9409 17.4551C64.6968 17.3509 64.5031 17.1735 64.3599 16.9229C64.2166 16.6722 64.145 16.3255 64.145 15.8828V12.9775H63.4077V12.4648L64.1987 12.0596L64.5747 10.9023H65.2974V12.1035L66.8452 12.1035V12.9775L65.2974 12.9775V15.8682C65.2974 16.1416 65.3657 16.3451 65.5024 16.4785C65.6392 16.612 65.8198 16.6787 66.0444 16.6787ZM69.1353 12.1035V17.5088H67.9878V12.1035H69.1353ZM68.5689 10.0332C68.7446 10.0332 68.896 10.0804 69.023 10.1748C69.1532 10.2692 69.2183 10.432 69.2183 10.6631C69.2183 10.8909 69.1532 11.0537 69.023 11.1514C68.896 11.2458 68.7446 11.293 68.5689 11.293C68.3866 11.293 68.2319 11.2458 68.105 11.1514C67.9813 11.0537 67.9194 10.8909 67.9194 10.6631C67.9194 10.432 67.9813 10.2692 68.105 10.1748C68.2319 10.0804 68.3866 10.0332 68.5689 10.0332ZM75.5659 14.7939C75.5659 15.2432 75.5073 15.6419 75.3901 15.9902C75.273 16.3385 75.1021 16.6331 74.8774 16.874C74.6528 17.1117 74.3827 17.2939 74.0669 17.4209C73.7511 17.5446 73.3947 17.6064 72.9976 17.6064C72.6265 17.6064 72.2863 17.5446 71.9771 17.4209C71.6678 17.2939 71.3993 17.1117 71.1714 16.874C70.9468 16.6331 70.7726 16.3385 70.6489 15.9902C70.5252 15.6419 70.4634 15.2432 70.4634 14.7939C70.4634 14.1982 70.5659 13.6937 70.771 13.2803C70.9793 12.8636 71.2756 12.5462 71.6597 12.3281C72.0438 12.11 72.5011 12.001 73.0317 12.001C73.5298 12.001 73.9692 12.11 74.3501 12.3281C74.731 12.5462 75.0288 12.8636 75.2437 13.2803C75.4585 13.6969 75.5659 14.2015 75.5659 14.7939ZM71.645 14.7939C71.645 15.1878 71.6922 15.5247 71.7866 15.8047C71.8843 16.0846 72.034 16.2995 72.2358 16.4492C72.4377 16.5957 72.6981 16.6689 73.0171 16.6689C73.3361 16.6689 73.5965 16.5957 73.7983 16.4492C74.0002 16.2995 74.1483 16.0846 74.2427 15.8047C74.3371 15.5247 74.3843 15.1878 74.3843 14.7939C74.3843 14.4001 74.3371 14.0664 74.2427 13.793C74.1483 13.5163 74.0002 13.3063 73.7983 13.1631C73.5965 13.0166 73.3345 12.9434 73.0122 12.9434C72.537 12.9434 72.1903 13.1029 71.9722 13.4219C71.7541 13.7409 71.645 14.1982 71.645 14.7939ZM79.7017 12.001C80.3104 12.001 80.784 12.1589 81.1226 12.4746C81.4644 12.7871 81.6353 13.29 81.6353 13.9834V17.5088H80.4878V14.1982C80.4878 13.7783 80.4015 13.4642 80.229 13.2559C80.0565 13.0443 79.7896 12.9385 79.4282 12.9385C78.9041 12.9385 78.5396 13.0996 78.3345 13.4219C78.1327 13.7441 78.0317 14.2113 78.0317 14.8232V17.5088H76.8843V12.1035H77.7778L77.939 12.8359H78.0024C78.1196 12.6471 78.2645 12.4925 78.437 12.3721C78.6128 12.2484 78.8081 12.1556 79.023 12.0937C79.2411 12.0319 79.4673 12.001 79.7017 12.001ZM88.0317 10.3701C88.953 10.3701 89.6252 10.5589 90.0483 10.9365C90.4715 11.3141 90.6831 11.8431 90.6831 12.5234C90.6831 12.8327 90.6343 13.1273 90.5366 13.4072C90.4422 13.6839 90.286 13.9297 90.0679 14.1445C89.8498 14.3561 89.5617 14.5238 89.2036 14.6475C88.8488 14.7712 88.411 14.833 87.8901 14.833H87.1284V17.5088H85.9565V10.3701H88.0317ZM87.9536 11.3418H87.1284V13.8564H87.7681C88.1359 13.8564 88.4484 13.8141 88.7056 13.7295C88.9627 13.6416 89.158 13.5033 89.2915 13.3145C89.425 13.1257 89.4917 12.8766 89.4917 12.5674C89.4917 12.154 89.3664 11.8464 89.1157 11.6445C88.8683 11.4427 88.481 11.3418 87.9536 11.3418ZM94.731 12.001C94.8221 12.001 94.9214 12.0059 95.0288 12.0156C95.1362 12.0254 95.229 12.0384 95.3071 12.0547L95.1997 13.1289C95.1313 13.1094 95.0467 13.0947 94.9458 13.085C94.8481 13.0752 94.7603 13.0703 94.6821 13.0703C94.4771 13.0703 94.2817 13.1045 94.0962 13.1729C93.9106 13.238 93.7463 13.3389 93.603 13.4756C93.4598 13.609 93.3475 13.7767 93.2661 13.9785C93.1847 14.1803 93.144 14.4147 93.144 14.6816V17.5088L91.9917 17.5088V12.1035L92.8901 12.1035L93.0464 13.0557H93.1001C93.2075 12.8636 93.341 12.6878 93.5005 12.5283C93.66 12.3688 93.8423 12.2419 94.0474 12.1475C94.2557 12.0498 94.4836 12.001 94.731 12.001ZM101.093 14.7939C101.093 15.2432 101.035 15.6419 100.917 15.9902C100.8 16.3385 100.629 16.6331 100.405 16.874C100.18 17.1117 99.91 17.2939 99.5942 17.4209C99.2785 17.5446 98.922 17.6064 98.5249 17.6064C98.1538 17.6064 97.8136 17.5446 97.5044 17.4209C97.1952 17.2939 96.9266 17.1117 96.6987 16.874C96.4741 16.6331 96.3 16.3385 96.1763 15.9902C96.0526 15.6419 95.9907 15.2432 95.9907 14.7939C95.9907 14.1982 96.0933 13.6937 96.2983 13.2803C96.5067 12.8636 96.8029 12.5462 97.187 12.3281C97.5711 12.11 98.0285 12.001 98.5591 12.001C99.0571 12.001 99.4966 12.11 99.8774 12.3281C100.258 12.5462 100.556 12.8636 100.771 13.2803C100.986 13.6969 101.093 14.2015 101.093 14.7939ZM97.1724 14.7939C97.1724 15.1878 97.2196 15.5247 97.314 15.8047C97.4116 16.0846 97.5614 16.2995 97.7632 16.4492C97.965 16.5957 98.2254 16.6689 98.5444 16.6689C98.8634 16.6689 99.1239 16.5957 99.3257 16.4492C99.5275 16.2995 99.6756 16.0846 99.77 15.8047C99.8644 15.5247 99.9116 15.1878 99.9116 14.7939C99.9116 14.4001 99.8644 14.0664 99.77 13.793C99.6756 13.5163 99.5275 13.3063 99.3257 13.1631C99.1239 13.0166 98.8618 12.9434 98.5396 12.9434C98.0643 12.9434 97.7176 13.1029 97.4995 13.4219C97.2814 13.7409 97.1724 14.1982 97.1724 14.7939ZM104.228 17.6064C103.583 17.6064 103.066 17.3721 102.675 16.9033C102.288 16.4313 102.094 15.7363 102.094 14.8184C102.094 13.8906 102.291 13.1891 102.685 12.7139C103.082 12.2386 103.605 12.001 104.252 12.001C104.526 12.001 104.765 12.0384 104.97 12.1133C105.175 12.1849 105.351 12.2826 105.498 12.4062C105.647 12.5299 105.774 12.6683 105.878 12.8213H105.932C105.916 12.7204 105.896 12.5755 105.874 12.3867C105.854 12.1947 105.844 12.0173 105.844 11.8545V9.91113H106.997V17.5088H106.098L105.893 16.7715H105.844C105.747 16.9277 105.623 17.0693 105.473 17.1963C105.327 17.32 105.151 17.4193 104.946 17.4941C104.744 17.569 104.505 17.6064 104.228 17.6064ZM104.55 16.6738C105.042 16.6738 105.389 16.5322 105.59 16.249C105.792 15.9658 105.896 15.541 105.903 14.9746V14.8232C105.903 14.2178 105.805 13.7539 105.61 13.4316C105.415 13.1061 105.058 12.9434 104.541 12.9434C104.127 12.9434 103.811 13.111 103.593 13.4463C103.378 13.7783 103.271 14.2422 103.271 14.8379C103.271 15.4336 103.378 15.8893 103.593 16.2051C103.811 16.5176 104.13 16.6738 104.55 16.6738ZM113.354 12.1035V17.5088H112.451L112.294 16.7812H112.231C112.117 16.9668 111.972 17.1214 111.796 17.2451C111.621 17.3656 111.425 17.4551 111.21 17.5137C110.996 17.5755 110.769 17.6064 110.532 17.6064C110.125 17.6064 109.777 17.5381 109.487 17.4014C109.2 17.2614 108.981 17.0465 108.828 16.7568C108.675 16.4671 108.598 16.0928 108.598 15.6338V12.1035H109.75V15.4189C109.75 15.8389 109.835 16.153 110.004 16.3613C110.177 16.5697 110.444 16.6738 110.805 16.6738C111.153 16.6738 111.43 16.6022 111.635 16.459C111.84 16.3158 111.985 16.1042 112.07 15.8242C112.158 15.5443 112.202 15.2008 112.202 14.7939V12.1035H113.354ZM117.177 17.6064C116.666 17.6064 116.223 17.5072 115.849 17.3086C115.475 17.11 115.187 16.8057 114.985 16.3955C114.783 15.9854 114.682 15.4645 114.682 14.833C114.682 14.1755 114.793 13.6383 115.014 13.2217C115.236 12.805 115.542 12.4974 115.932 12.2988C116.326 12.1003 116.777 12.001 117.285 12.001C117.607 12.001 117.898 12.0335 118.159 12.0986C118.422 12.1605 118.645 12.237 118.828 12.3281L118.486 13.2461C118.287 13.1647 118.084 13.0964 117.875 13.041C117.667 12.9857 117.467 12.958 117.275 12.958C116.959 12.958 116.695 13.028 116.484 13.168C116.276 13.3079 116.119 13.5163 116.015 13.793C115.914 14.0697 115.864 14.4131 115.864 14.8232C115.864 15.2204 115.916 15.5557 116.02 15.8291C116.124 16.0993 116.279 16.3044 116.484 16.4443C116.689 16.5811 116.941 16.6494 117.241 16.6494C117.537 16.6494 117.802 16.6136 118.037 16.542C118.271 16.4704 118.492 16.3776 118.701 16.2637V17.2598C118.496 17.377 118.276 17.4632 118.042 17.5186C117.807 17.5771 117.519 17.6064 117.177 17.6064ZM121.982 16.6787C122.132 16.6787 122.28 16.6657 122.426 16.6396C122.573 16.6104 122.706 16.5762 122.827 16.5371V17.4062C122.7 17.4616 122.535 17.5088 122.333 17.5479C122.132 17.5869 121.922 17.6064 121.704 17.6064C121.398 17.6064 121.123 17.556 120.878 17.4551C120.634 17.3509 120.441 17.1735 120.297 16.9229C120.154 16.6722 120.083 16.3255 120.083 15.8828V12.9775H119.345V12.4648L120.136 12.0596L120.512 10.9023H121.235V12.1035H122.783V12.9775H121.235V15.8682C121.235 16.1416 121.303 16.3451 121.44 16.4785C121.577 16.612 121.757 16.6787 121.982 16.6787Z" fill="white"/>
<defs>
<linearGradient id="paint0_linear_660_3808" x1="15.3661" y1="12.8978" x2="115.174" y2="40.3868" gradientUnits="userSpaceOnUse">
<stop stop-color="#AC2A2C"/>
<stop offset="0.5" stop-color="#BC2D2F"/>
<stop offset="1" stop-color="#A92729"/>
</linearGradient>
</defs>
</svg>
