<svg width="72" height="72" viewBox="0 0 72 72" fill="none" xmlns="http://www.w3.org/2000/svg">
<g filter="url(#filter0_dd_482_2292)">
<rect x="14" y="11" width="44" height="44" rx="6" fill="#44D600"/>
</g>
<g clip-path="url(#clip0_482_2292)">
<path d="M47 25.498L34.449 38.06L29.785 33.396L31.336 31.845L34.449 34.958L45.449 23.958L47 25.498ZM36 41.8C31.149 41.8 27.2 37.851 27.2 33C27.2 28.149 31.149 24.2 36 24.2C37.727 24.2 39.344 24.706 40.708 25.575L42.303 23.98C40.51 22.737 38.343 22 36 22C29.928 22 25 26.928 25 33C25 39.072 29.928 44 36 44C37.903 44 39.696 43.516 41.258 42.658L39.608 41.008C38.508 41.514 37.287 41.8 36 41.8ZM43.7 36.3H40.4V38.5H43.7V41.8H45.9V38.5H49.2V36.3H45.9V33H43.7V36.3Z" fill="white"/>
</g>
<defs>
<filter id="filter0_dd_482_2292" x="0" y="0" width="72" height="72" filterUnits="userSpaceOnUse" color-interpolation-filters="sRGB">
<feFlood flood-opacity="0" result="BackgroundImageFix"/>
<feColorMatrix in="SourceAlpha" type="matrix" values="0 0 0 0 0 0 0 0 0 0 0 0 0 0 0 0 0 0 127 0" result="hardAlpha"/>
<feMorphology radius="2" operator="dilate" in="SourceAlpha" result="effect1_dropShadow_482_2292"/>
<feOffset dy="3"/>
<feGaussianBlur stdDeviation="6"/>
<feColorMatrix type="matrix" values="0 0 0 0 0.266667 0 0 0 0 0.839216 0 0 0 0 0 0 0 0 0.35 0"/>
<feBlend mode="normal" in2="BackgroundImageFix" result="effect1_dropShadow_482_2292"/>
<feColorMatrix in="SourceAlpha" type="matrix" values="0 0 0 0 0 0 0 0 0 0 0 0 0 0 0 0 0 0 127 0" result="hardAlpha"/>
<feOffset dy="1"/>
<feGaussianBlur stdDeviation="2"/>
<feColorMatrix type="matrix" values="0 0 0 0 0.266667 0 0 0 0 0.839216 0 0 0 0 0 0 0 0 0.25 0"/>
<feBlend mode="normal" in2="effect1_dropShadow_482_2292" result="effect2_dropShadow_482_2292"/>
<feBlend mode="normal" in="SourceGraphic" in2="effect2_dropShadow_482_2292" result="shape"/>
</filter>
<clipPath id="clip0_482_2292">
<rect width="26.4" height="26.4" fill="white" transform="translate(22.8008 19.7998)"/>
</clipPath>
</defs>
</svg>
