<svg width="60" height="61" viewBox="0 0 60 61" fill="none" xmlns="http://www.w3.org/2000/svg">
<path d="M57.198 9.66699H2.802C1.77384 9.66699 0.9375 10.5033 0.9375 11.5315V49.2018C0.9375 50.2299 1.77384 51.0663 2.802 51.0663H57.1981C58.2263 51.0663 59.0626 50.2299 59.0626 49.2018V11.5315C59.0625 10.5033 58.2262 9.66699 57.198 9.66699ZM2.81091 16.1796H57.1888L57.1967 44.5536H2.81231L2.81091 16.1796ZM57.1875 11.5315L57.1884 14.3046H2.81081L2.81063 11.542L57.1875 11.5315ZM2.8125 49.2018L2.81241 46.4286H57.1974L57.1981 49.1913L2.8125 49.2018Z" fill="#9A9A9A"/>
<path d="M43.0809 18.709C36.8525 18.709 31.7852 23.7765 31.7852 30.0052C31.7852 36.2336 36.8526 41.3009 43.0809 41.3009C49.3074 41.3009 54.373 36.2335 54.373 30.0052C54.3731 23.7765 49.3074 18.709 43.0809 18.709ZM43.0809 39.426C41.0433 39.426 39.1601 38.769 37.6172 37.6652C38.4974 35.4481 40.6611 33.947 43.0809 33.947C45.4988 33.947 47.6614 35.4485 48.5418 37.6656C46.9996 38.7692 45.1173 39.426 43.0809 39.426ZM50.0069 36.3662C48.7111 33.7815 46.0437 32.072 43.081 32.072C40.1165 32.072 37.448 33.7813 36.152 36.366C34.6103 34.688 33.6602 32.4583 33.6602 30.0052C33.6602 24.8105 37.8862 20.584 43.0809 20.584C48.2733 20.584 52.498 24.8105 52.498 30.0052C52.4981 32.4584 51.5481 34.6882 50.0069 36.3662Z" fill="#9A9A9A"/>
<path d="M43.0815 22.9648C40.9204 22.9648 39.1621 24.7227 39.1621 26.8838C39.1621 29.0449 40.9204 30.8032 43.0815 30.8032C45.2426 30.8032 47.0005 29.0449 47.0005 26.8838C47.0005 24.7227 45.2426 22.9648 43.0815 22.9648ZM43.0815 28.9281C41.9541 28.9281 41.0371 28.0112 41.0371 26.8837C41.0371 25.7567 41.954 24.8398 43.0815 24.8398C44.2085 24.8398 45.1255 25.7566 45.1255 26.8837C45.1255 28.0112 44.2086 28.9281 43.0815 28.9281Z" fill="#9A9A9A"/>
<path d="M25.2068 30.2705H13.1699C12.6522 30.2705 12.2324 30.6903 12.2324 31.208C12.2324 31.7257 12.6522 32.1455 13.1699 32.1455H25.2069C25.7246 32.1455 26.1444 31.7257 26.1444 31.208C26.1444 30.6903 25.7245 30.2705 25.2068 30.2705Z" fill="#9A9A9A"/>
<path d="M25.207 34.3564H9.36523C8.84755 34.3564 8.42773 34.7763 8.42773 35.2939C8.42773 35.8116 8.84755 36.2314 9.36523 36.2314H25.207C25.7247 36.2314 26.1445 35.8116 26.1445 35.2939C26.1445 34.7763 25.7248 34.3564 25.207 34.3564Z" fill="#9A9A9A"/>
<path d="M25.207 38.4404H9.36523C8.84755 38.4404 8.42773 38.8602 8.42773 39.3779C8.42773 39.8956 8.84755 40.3154 9.36523 40.3154H25.207C25.7247 40.3154 26.1445 39.8956 26.1445 39.3779C26.1445 38.8602 25.7248 38.4404 25.207 38.4404Z" fill="#9A9A9A"/>
<path d="M25.3555 26.6162H9.32878C8.32031 26.6162 7.5 25.7959 7.5 24.7874V20.945C7.5 19.9365 8.32031 19.1162 9.32878 19.1162H25.3657C26.3704 19.1162 27.1875 19.9691 27.1875 21.0173V24.7842C27.1875 25.7945 26.3658 26.6162 25.3555 26.6162ZM9.35569 20.9912V24.7412H25.3555V20.9912H9.35569Z" fill="#9A9A9A"/>
</svg>
