<svg width="66" height="67" viewBox="0 0 66 67" fill="none" xmlns="http://www.w3.org/2000/svg">
<path d="M54.2178 54.8754H11.7883V12.4523H30.6408V7.73438H7.07031V59.5934H58.9293V40.7344H54.2178V54.8754Z" fill="#9A9A9A"/>
<path d="M25.9291 38.3754H30.6406C30.6406 31.8785 35.9258 26.5869 42.4291 26.5869C48.9324 26.5869 54.2176 31.8721 54.2176 38.3754H58.9291C58.9291 31.7883 55.049 26.0906 49.4545 23.448C50.9498 21.7787 51.8586 19.5744 51.8586 17.1639C51.8586 11.9561 47.6369 7.73438 42.4291 7.73438C37.2213 7.73438 32.9996 11.9561 32.9996 17.1639C32.9996 19.5809 33.9084 21.7852 35.4037 23.448C29.8092 26.0971 25.9291 31.7883 25.9291 38.3754ZM42.4291 12.4523C45.0266 12.4523 47.1406 14.5664 47.1406 17.1639C47.1406 19.7613 45.0266 21.8754 42.4291 21.8754C39.8316 21.8754 37.7176 19.7613 37.7176 17.1639C37.7176 14.5664 39.8316 12.4523 42.4291 12.4523ZM14.1406 17.1639H28.2816V21.8754H14.1406V17.1639ZM14.1406 43.0934H51.8521V47.8049H14.1406V43.0934ZM14.1406 26.5934H23.5701V31.3049H14.1406V26.5934Z" fill="#9A9A9A"/>
</svg>
