<svg width="66" height="66" viewBox="0 0 66 66" fill="none" xmlns="http://www.w3.org/2000/svg">
<path d="M28.875 28.875C30.0988 28.875 31.2951 28.5121 32.3126 27.8322C33.3301 27.1523 34.1232 26.186 34.5915 25.0554C35.0598 23.9247 35.1824 22.6806 34.9436 21.4804C34.7049 20.2801 34.1156 19.1776 33.2502 18.3123C32.3849 17.4469 31.2824 16.8576 30.0821 16.6189C28.8819 16.3801 27.6378 16.5027 26.5071 16.971C25.3765 17.4393 24.4102 18.2324 23.7303 19.2499C23.0504 20.2674 22.6875 21.4637 22.6875 22.6875C22.6875 24.3285 23.3394 25.9023 24.4998 27.0627C25.6602 28.2231 27.234 28.875 28.875 28.875ZM28.875 20.625C29.2829 20.625 29.6817 20.746 30.0209 20.9726C30.36 21.1992 30.6244 21.5213 30.7805 21.8982C30.9366 22.2751 30.9775 22.6898 30.8979 23.0899C30.8183 23.49 30.6219 23.8575 30.3334 24.1459C30.045 24.4344 29.6775 24.6308 29.2774 24.7104C28.8773 24.79 28.4626 24.7491 28.0857 24.593C27.7088 24.4369 27.3867 24.1725 27.1601 23.8334C26.9335 23.4942 26.8125 23.0954 26.8125 22.6875C26.8125 22.1405 27.0298 21.6159 27.4166 21.2291C27.8034 20.8423 28.328 20.625 28.875 20.625Z" fill="#9A9A9A"/>
<path d="M59.8125 35.0625C60.3595 35.0625 60.8841 34.8452 61.2709 34.4584C61.6577 34.0716 61.875 33.547 61.875 33C61.875 32.453 61.6577 31.9284 61.2709 31.5416C60.8841 31.1548 60.3595 30.9375 59.8125 30.9375H53.625V20.625H59.8125C60.3595 20.625 60.8841 20.4077 61.2709 20.0209C61.6577 19.6341 61.875 19.1095 61.875 18.5625C61.875 18.0155 61.6577 17.4909 61.2709 17.1041C60.8841 16.7173 60.3595 16.5 59.8125 16.5H53.625V14.4375C53.625 11.7025 52.5385 9.07943 50.6045 7.14546C48.6706 5.21149 46.0475 4.125 43.3125 4.125H14.4375C11.7025 4.125 9.07943 5.21149 7.14546 7.14546C5.21149 9.07943 4.125 11.7025 4.125 14.4375V51.5625C4.125 54.2975 5.21149 56.9206 7.14546 58.8545C9.07943 60.7885 11.7025 61.875 14.4375 61.875H43.3125C46.0475 61.875 48.6706 60.7885 50.6045 58.8545C52.5385 56.9206 53.625 54.2975 53.625 51.5625V49.5H59.8125C60.3595 49.5 60.8841 49.2827 61.2709 48.8959C61.6577 48.5091 61.875 47.9845 61.875 47.4375C61.875 46.8905 61.6577 46.3659 61.2709 45.9791C60.8841 45.5923 60.3595 45.375 59.8125 45.375H53.625V35.0625H59.8125ZM49.5 51.5625C49.5 53.2035 48.8481 54.7773 47.6877 55.9377C46.5273 57.0981 44.9535 57.75 43.3125 57.75H14.4375C12.7965 57.75 11.2227 57.0981 10.0623 55.9377C8.9019 54.7773 8.25 53.2035 8.25 51.5625V14.4375C8.25 12.7965 8.9019 11.2227 10.0623 10.0623C11.2227 8.9019 12.7965 8.25 14.4375 8.25H43.3125C44.9535 8.25 46.5273 8.9019 47.6877 10.0623C48.8481 11.2227 49.5 12.7965 49.5 14.4375V51.5625Z" fill="#9A9A9A"/>
<path d="M30.9375 30.9375H26.8125C24.0775 30.9375 21.4544 32.024 19.5205 33.958C17.5865 35.8919 16.5 38.515 16.5 41.25V43.3125C16.5 44.9535 17.1519 46.5273 18.3123 47.6877C19.4727 48.8481 21.0465 49.5 22.6875 49.5H35.0625C36.7035 49.5 38.2773 48.8481 39.4377 47.6877C40.5981 46.5273 41.25 44.9535 41.25 43.3125V41.25C41.25 38.515 40.1635 35.8919 38.2295 33.958C36.2956 32.024 33.6725 30.9375 30.9375 30.9375ZM37.125 43.3125C37.125 43.8595 36.9077 44.3841 36.5209 44.7709C36.1341 45.1577 35.6095 45.375 35.0625 45.375H22.6875C22.1405 45.375 21.6159 45.1577 21.2291 44.7709C20.8423 44.3841 20.625 43.8595 20.625 43.3125V41.25C20.625 39.609 21.2769 38.0352 22.4373 36.8748C23.5977 35.7144 25.1715 35.0625 26.8125 35.0625H30.9375C32.5785 35.0625 34.1523 35.7144 35.3127 36.8748C36.4731 38.0352 37.125 39.609 37.125 41.25V43.3125Z" fill="#9A9A9A"/>
</svg>
