<svg width="69" height="69" viewBox="0 0 69 69" fill="none" xmlns="http://www.w3.org/2000/svg">
<g clip-path="url(#clip0_5053_10339)">
<path d="M69.0009 37.468C68.9469 37.612 68.8929 37.7561 68.8569 37.9001C68.263 40.331 66.1933 42.0056 63.6918 42.0416C61.6941 42.0776 59.6965 42.0596 57.6988 42.0416C57.2309 42.0416 56.907 42.1676 56.601 42.5277C54.8913 44.5444 53.1636 46.5611 51.4359 48.5598C50.2481 49.9463 48.8624 49.9643 47.6746 48.5778C45.9289 46.5611 44.1832 44.5264 42.4555 42.4917C42.1675 42.1496 41.8616 42.0236 41.4297 42.0236C39.522 42.0416 37.6143 42.0416 35.7066 42.0236C32.4132 42.0056 30.0916 39.7188 30.0916 36.4416C30.0736 26.142 30.0736 15.8245 30.0916 5.52487C30.0916 2.76991 31.7113 0.771219 34.4109 0.0869813C34.5009 0.0689751 34.5728 0.0149563 34.6448 -0.0390625C44.5791 -0.0390625 54.4954 -0.0390625 64.4297 -0.0390625C64.5916 0.0149563 64.7536 0.0689751 64.9336 0.122994C66.6793 0.609163 67.921 1.67153 68.6229 3.34611C68.7849 3.72425 68.8929 4.13839 69.0189 4.53453C69.0009 15.5364 69.0009 26.5022 69.0009 37.468ZM49.5462 44.1303C49.7442 43.9142 49.8882 43.7522 50.0322 43.5901C51.4179 41.9695 52.8217 40.367 54.1894 38.7284C54.7653 38.0442 55.4672 37.7381 56.3671 37.7381C58.6527 37.7561 60.9383 37.7561 63.2419 37.7381C64.3397 37.7381 64.6816 37.396 64.6816 36.2796C64.6816 26.106 64.6816 15.9325 64.6816 5.75895C64.6816 4.66057 64.3217 4.30045 63.2419 4.30045C54.0994 4.30045 44.975 4.30045 35.8326 4.30045C34.7888 4.30045 34.4109 4.66057 34.4109 5.72294C34.4109 15.9145 34.4109 26.106 34.4109 36.2976C34.4109 37.396 34.7708 37.7201 35.8866 37.7201C38.1362 37.7201 40.3678 37.7381 42.6174 37.7021C43.5893 37.6841 44.3271 38.0082 44.957 38.7644C46.4508 40.5651 47.9805 42.3117 49.5462 44.1303Z" fill="#231F20"/>
<path d="M0 31.0018C0.0899844 25.2578 1.97966 20.09 5.759 15.6424C7.12676 14.0399 9.1784 13.9318 10.6721 15.4084C13.5516 18.2714 16.4491 21.1344 19.2926 24.0334C21.6862 26.4462 21.5603 29.8494 19.0587 32.1362C18.3388 32.7844 17.6369 33.4326 16.8991 34.0628C16.6111 34.2969 16.5571 34.495 16.7011 34.8551C20.2105 43.048 26.0775 48.864 34.266 52.3752C34.572 52.5013 34.77 52.4833 35.0039 52.2132C35.6698 51.4209 36.3717 50.6646 37.0736 49.9084C39.3232 47.5315 42.7066 47.4415 45.0462 49.7283C47.9617 52.5913 50.8412 55.4903 53.7207 58.3893C55.2144 59.8838 55.1064 61.9005 53.4867 63.287C44.9742 70.5615 32.4304 70.9037 23.5039 64.0793C16.4851 58.7134 10.2762 52.5373 4.89515 45.5328C1.63772 41.3014 0.0539906 36.4397 0 31.0018ZM8.40454 19.2257C8.18858 19.5138 8.0446 19.7119 7.90063 19.9099C2.96948 26.8783 3.14945 36.2056 8.35055 42.9759C13.1917 49.2781 18.7887 54.8241 24.9617 59.8118C29.7488 63.6651 35.0759 65.4117 41.1948 64.4394C44.3803 63.9352 47.2418 62.6748 49.8333 60.7121C49.7434 60.6041 49.6894 60.496 49.5994 60.424C47.0618 57.8851 44.5243 55.3462 41.9687 52.8074C41.3568 52.1952 40.7809 52.2312 40.187 52.8974C39.1612 54.0318 38.1534 55.1662 37.1275 56.3006C36.2097 57.3089 35.5078 57.507 34.248 57.0208C23.4859 52.9874 16.0892 45.5869 12.0219 34.8371C11.572 33.6307 11.788 32.8564 12.7418 32.0101C13.9116 30.9658 15.0814 29.9214 16.2512 28.859C16.8631 28.3008 16.8811 27.7607 16.3052 27.1664C13.7136 24.5195 11.0861 21.9086 8.40454 19.2257Z" fill="#231F20"/>
<path d="M25.7551 18.3302C25.7551 19.5007 24.7832 20.491 23.6314 20.491C22.4796 20.491 21.5078 19.5007 21.5078 18.3483C21.5078 17.1959 22.4976 16.1875 23.6314 16.1875C24.7652 16.1875 25.7371 17.1598 25.7551 18.3302Z" fill="#231F20"/>
<path d="M23.6119 11.866C22.4601 11.866 21.4883 10.8576 21.4883 9.70525C21.4883 8.55284 22.4781 7.5625 23.6299 7.5625C24.7817 7.5625 25.7535 8.55284 25.7535 9.72325C25.7355 10.8757 24.7637 11.866 23.6119 11.866Z" fill="#231F20"/>
<path d="M47.4033 11.9147C47.4033 11.5005 47.3853 11.1044 47.4033 10.7083C47.4573 9.57387 48.3212 8.70957 49.401 8.63755C50.4988 8.56552 51.4526 9.32179 51.6506 10.4382C51.7226 10.8703 51.7226 11.3385 51.7406 11.8607C52.8024 11.8607 53.8822 11.8427 54.944 11.8607C56.0778 11.8967 56.9417 12.743 57.0497 13.8414C57.1396 14.8677 56.4558 15.8401 55.4299 16.0921C55.178 16.1642 54.89 16.1642 54.6381 16.1642C52.6584 16.1642 50.6788 16.1642 48.7171 16.1642C47.3314 16.1642 46.3775 17.0465 46.3595 18.2889C46.3415 19.5674 47.3134 20.4497 48.7351 20.4857C49.8689 20.5217 51.0387 20.4677 52.1545 20.6837C55.07 21.296 56.9777 23.7268 57.0677 26.7879C57.1576 29.7949 55.3939 32.2618 52.5324 33.1261C52.2985 33.1981 52.0645 33.2521 51.7586 33.3421C51.7586 33.7203 51.7766 34.0984 51.7586 34.4585C51.6866 35.737 50.7868 36.6553 49.581 36.6373C48.3752 36.6373 47.4933 35.701 47.4573 34.4225C47.4573 34.1164 47.4573 33.8103 47.4573 33.4142C46.4135 33.4142 45.4417 33.4142 44.4519 33.4142C43.0121 33.4142 42.0583 32.5499 42.0583 31.2534C42.0583 29.975 43.0121 29.0927 44.4519 29.0927C46.4495 29.0927 48.4472 29.0927 50.4448 29.0927C51.8666 29.0927 52.8564 28.1924 52.8384 26.9319C52.8204 25.6715 51.8486 24.8072 50.4088 24.7892C49.419 24.7712 48.4292 24.8432 47.4573 24.6811C44.3619 24.195 42.2022 21.7101 42.0583 18.613C41.9143 15.552 43.858 12.905 46.8994 12.0767C47.0254 12.0407 47.1874 11.9867 47.4033 11.9147Z" fill="#D7282F"/>
</g>
<defs>
<clipPath id="clip0_5053_10339">
<rect width="69" height="69" fill="white"/>
</clipPath>
</defs>
</svg>
