<svg width="57" height="60" viewBox="0 0 57 60" fill="none" xmlns="http://www.w3.org/2000/svg">
<g clip-path="url(#clip0_43_1461)">
<path d="M27.6322 60C23.1168 60 18.6014 59.9983 14.0877 59.9932C9.05669 59.9881 5.15196 56.8388 4.36825 52.1589C4.24542 51.4199 4.22465 50.6385 4.20216 49.813C4.19178 49.4079 4.17967 48.9909 4.15718 48.5655L4.10355 47.6027H3.12088C2.94096 47.6027 2.76449 47.6044 2.58803 47.6044H2.45827C2.29392 47.6061 2.13129 47.6061 1.96867 47.6061C1.75241 47.6061 1.53616 47.6044 1.3199 47.5993C0.498124 47.579 -0.00705078 47.1671 -0.000130575 46.5247C0.00678963 45.8941 0.494664 45.4924 1.27146 45.4771C1.94964 45.4636 2.61225 45.4568 3.24026 45.4568C3.88556 45.4568 4.51876 45.4636 5.12082 45.4771C5.97374 45.4958 6.35954 45.8789 6.37165 46.7179C6.3803 47.3501 6.37857 47.9993 6.37511 48.6248C6.37338 49.3316 6.36992 50.0605 6.38203 50.7893C6.44777 54.559 9.40616 57.5931 13.2624 57.8473C13.5566 57.866 13.8628 57.8762 14.1967 57.8762C14.1967 57.8762 28.8675 57.8778 32.9919 57.8778C37.6873 57.8778 42.3809 57.8778 47.0763 57.8745C50.7267 57.8728 53.4948 55.993 54.4827 52.8487C54.7127 52.1165 54.8356 51.2944 54.8356 50.4706C54.8529 37.4309 54.8546 23.6573 54.8442 9.53105C54.8408 5.26301 51.7215 2.15436 47.4258 2.1391C41.7443 2.12046 36.0697 2.11029 30.5578 2.11029C24.897 2.11029 19.245 2.12046 13.7607 2.1408C9.51515 2.15605 6.40971 5.23928 6.37511 9.47003C6.36992 10.0446 6.37165 10.6209 6.37338 11.1955C6.37511 11.8803 6.37857 12.5872 6.36819 13.2787C6.35608 14.1211 5.97201 14.5042 5.12255 14.5229C4.44091 14.5381 3.77138 14.5449 3.13645 14.5449C2.47211 14.5449 1.81815 14.5364 1.1936 14.5195C0.479094 14.5042 0.0102497 14.094 -0.000130575 13.4787C-0.00878083 12.8567 0.477364 12.4346 1.24205 12.4058C1.43927 12.399 1.65553 12.3956 1.92023 12.3956C2.11053 12.3956 2.30603 12.3973 2.51017 12.399C2.73854 12.4007 2.97556 12.4024 3.22815 12.4024H4.26618V11.3854C4.26618 11.082 4.26272 10.7887 4.25753 10.5006C4.24888 9.9192 4.24196 9.37002 4.27137 8.8344C4.5326 4.03921 8.4356 0.254252 13.3507 0.0322052C13.842 0.0101701 14.3662 0 15.0461 0C15.3593 0 15.6724 0.00169501 15.9873 0.00339002H16.0236C16.354 0.00508503 16.6845 0.00847505 17.0132 0.00847505C17.0132 0.00847505 30.7636 0.00508503 34.4815 0.00508503C38.67 0.00508503 42.8567 0.00678004 47.0469 0.00847505C52.1332 0.0118651 55.9809 3.0578 56.8476 7.76824C56.9757 8.4615 56.993 9.21916 56.993 9.86666C57.0033 25.3811 57.0051 38.1733 56.9964 50.1249C56.993 55.0387 54.1141 58.727 49.4845 59.7508C48.7977 59.9017 48.0088 59.9797 47.1386 59.9814C40.5782 59.9949 34.0161 60 27.6322 60Z" fill="#D7282F"/>
<path d="M30.5837 47.6366C27.7153 47.6366 24.8451 47.6129 22.0563 47.5654C19.0616 47.5146 16.944 45.3653 16.9077 42.338C16.9042 41.9736 16.8956 41.6091 16.8886 41.243C16.8575 39.7989 16.8264 38.3039 17.0253 36.9089C17.5184 33.4646 19.4941 31.0458 23.0649 29.5101L24.3036 28.9779L23.4594 27.944C19.5858 23.1979 21.0235 17.5942 24.3417 14.7313C26.0458 13.2601 28.2741 12.4516 30.6149 12.4516C32.8708 12.4516 35.0386 13.2126 36.7219 14.594C40.182 17.4349 41.7253 23.0844 37.7669 27.9609L36.9053 29.022L38.1856 29.5356C40.0558 30.2848 41.4882 31.3747 42.5661 32.8697C43.6664 34.3952 44.2477 36.0359 44.2944 37.7462C44.3376 39.3226 44.3463 40.8735 44.3186 42.3583C44.2632 45.3788 42.1335 47.5213 39.1423 47.5688C36.2652 47.6146 33.3864 47.6366 30.5837 47.6366ZM30.6443 45.4704C31.4453 45.4704 32.2463 45.4721 33.0473 45.4721C33.8622 45.4738 34.6666 45.4738 35.4728 45.4738C36.8102 45.4738 37.9157 45.4704 38.952 45.4636C40.8983 45.45 42.1733 44.2025 42.1993 42.2871C42.2218 40.6853 42.22 39.3836 42.1976 38.1886C42.1197 34.2307 39.0523 31.1679 35.0611 31.0645C33.6684 31.0289 32.21 31.0102 30.7256 31.0102C29.2793 31.0102 27.7551 31.0272 26.1928 31.0628C22.5909 31.1424 19.7086 33.5985 19.1861 37.0343C18.9993 38.2615 19.0114 39.4972 19.0235 40.6921C19.027 41.0922 19.0322 41.5023 19.027 41.9024C19.0149 43.1177 19.2951 43.9652 19.9058 44.5703C20.5252 45.1839 21.4075 45.4687 22.686 45.4704C23.6618 45.4721 24.6375 45.4721 25.6133 45.4721C26.8849 45.4721 30.6391 45.4704 30.6443 45.4704ZM30.5976 14.5381C28.6201 14.5415 26.7655 15.2958 25.378 16.6637C23.9974 18.0231 23.2414 19.8282 23.2483 21.7487C23.2621 25.7099 26.5648 28.9321 30.6114 28.9321C32.5975 28.9271 34.4573 28.1728 35.8448 26.8049C37.2271 25.4438 37.9831 23.6369 37.978 21.7165C37.9641 17.7586 34.6597 14.5398 30.6114 14.5398H30.5976V14.5381Z" fill="#D7282F"/>
<path d="M1.86672 31.0458C1.56396 31.0458 1.31311 31.0424 1.08128 31.034C0.463652 31.0119 -0.00173195 30.5661 0.00172815 29.9983C0.0034582 29.4271 0.468842 28.9864 1.08128 28.9745C1.756 28.961 2.45667 28.9542 3.16253 28.9542C3.84763 28.9542 4.55695 28.961 5.268 28.9745C5.89601 28.9864 6.35967 29.4118 6.37005 29.9881C6.38043 30.5763 5.90639 31.017 5.24032 31.0373C5.01715 31.0441 4.78013 31.0475 4.49294 31.0475C4.29225 31.0475 4.08984 31.0458 3.88915 31.0441H3.83379C3.62273 31.0424 3.41166 31.0407 3.20059 31.0407H3.16599C2.94628 31.0407 2.72656 31.0424 2.50684 31.0441H2.45667C2.26117 31.0441 2.06395 31.0458 1.86672 31.0458Z" fill="#D7282F"/>
<path d="M4.53791 22.7725C4.30781 22.7725 4.07771 22.7691 3.84762 22.7657H3.83032C3.58638 22.7623 3.34244 22.7589 3.0985 22.7589C2.86841 22.7589 2.64177 22.7623 2.41513 22.7657C2.18677 22.7691 1.9757 22.7725 1.76291 22.7725C1.46707 22.7725 1.22313 22.7674 0.999952 22.7538C0.439416 22.7233 0.0207435 22.3047 0.00171292 21.7606C-0.0155876 21.2198 0.425575 20.7266 0.946321 20.7063C1.69543 20.6774 2.4532 20.6622 3.19712 20.6622C3.94277 20.6622 4.69534 20.6774 5.4358 20.7063C5.96347 20.7266 6.39079 21.2114 6.37176 21.7639C6.351 22.3165 5.94098 22.7233 5.37179 22.7521C5.12612 22.7657 4.86143 22.7725 4.53791 22.7725Z" fill="#D7282F"/>
<path d="M3.17615 39.3378C2.45126 39.3378 1.72291 39.326 1.01359 39.3039C0.451322 39.287 0.00842917 38.8344 0.00150896 38.2733C-0.00368119 37.7021 0.449592 37.2682 1.07933 37.2428C1.30943 37.2326 1.5551 37.2292 1.85266 37.2292C2.07411 37.2292 2.29729 37.2309 2.51873 37.2343C2.74364 37.236 2.96855 37.2394 3.19172 37.2394C3.42528 37.2394 3.65019 37.2377 3.87682 37.2343H3.91835C4.12249 37.2326 4.32664 37.2292 4.53078 37.2292C4.82835 37.2292 5.07575 37.2343 5.30412 37.2445C5.93039 37.2716 6.37848 37.7089 6.36983 38.2818C6.36118 38.8395 5.91309 39.2904 5.3491 39.3056C4.62075 39.3276 3.88893 39.3378 3.17615 39.3378Z" fill="#D7282F"/>
</g>
<defs>
<clipPath id="clip0_43_1461">
<rect width="57" height="60" fill="white"/>
</clipPath>
</defs>
</svg>
