<svg width="16" height="17" viewBox="0 0 16 17" fill="none" xmlns="http://www.w3.org/2000/svg">
<path d="M13.8071 8.58376H12.9911C12.9911 5.92068 10.8252 3.75525 8.1636 3.75525L8.16311 2.94021C11.2758 2.93874 13.8071 5.47104 13.8071 8.58376ZM8.16311 4.34792L8.16262 5.16295C10.0498 5.16295 11.5829 6.69751 11.582 8.58327L12.398 8.58278C12.398 6.24787 10.4995 4.34792 8.16311 4.34792ZM8 0.5C3.58832 0.5 0 4.08832 0 8.50049C0 12.9117 3.58832 16.5 8 16.5C8.27282 16.5 8.49323 16.2796 8.49323 16.0073C8.49323 15.7335 8.27282 15.5126 8 15.5126C4.13249 15.5126 0.986959 12.366 0.986959 8.50049C0.986959 4.63298 4.13249 1.48696 8 1.48696C11.8675 1.48696 15.0126 4.63347 15.0126 8.50049C15.0126 10.1164 14.1525 11.7175 12.9216 12.3964C12.4744 12.6423 11.9895 12.7642 11.4722 12.7691C11.7828 12.5845 12.0517 12.3347 12.2515 12.0202C12.2907 11.961 12.3426 11.9086 12.3681 11.8444C12.5287 11.4579 12.5429 11.0196 12.6399 10.6111C12.759 10.0899 10.3584 9.0716 10.1498 9.72256C10.0743 9.96354 9.95873 10.7257 9.80738 10.9265C9.67269 11.1058 9.3406 11.0205 9.13292 10.8442C8.58581 10.3779 7.97502 9.69268 7.43917 9.15095L7.44015 9.15046C7.42644 9.13626 7.40978 9.12058 7.39509 9.1054C7.37991 9.0912 7.36472 9.07503 7.34954 9.06034V9.06132C6.80781 8.52449 6.12208 7.91517 5.65628 7.36708C5.47995 7.1594 5.39472 6.82731 5.57399 6.69262C5.77481 6.54029 6.53695 6.42665 6.77793 6.35024C7.42742 6.14256 6.41058 3.74056 5.88845 3.86007C5.48093 3.95558 5.04255 3.97125 4.65609 4.13093C4.59046 4.15885 4.53952 4.2093 4.48025 4.24848C3.10929 5.1174 2.93247 7.22748 4.27062 8.79976C4.78051 9.40124 5.31243 9.98313 5.86004 10.5513L5.8571 10.5533C5.87228 10.5684 5.88796 10.5827 5.90363 10.5973C5.91832 10.6125 5.93253 10.6277 5.94673 10.6439L5.94967 10.6409C6.51785 11.1885 7.19133 11.9953 8.28556 12.7251C10.5891 14.2635 12.3568 13.834 13.3982 13.2629C15.1957 12.273 16 10.1585 16 8.50245C16 4.08832 12.4112 0.5 8 0.5Z" fill="black"/>
</svg>
