<svg width="60" height="61" viewBox="0 0 60 61" fill="none" xmlns="http://www.w3.org/2000/svg">
<path d="M57.198 9.66895H2.802C1.77384 9.66895 0.9375 10.5053 0.9375 11.5334V49.2037C0.9375 50.2319 1.77384 51.0682 2.802 51.0682H57.1981C58.2263 51.0682 59.0626 50.2319 59.0626 49.2037V11.5334C59.0625 10.5053 58.2262 9.66895 57.198 9.66895ZM2.81091 16.1816H57.1888L57.1967 44.5556H2.81231L2.81091 16.1816ZM57.1875 11.5334L57.1884 14.3066H2.81081L2.81063 11.5439L57.1875 11.5334ZM2.8125 49.2037L2.81241 46.4306H57.1974L57.1981 49.1932L2.8125 49.2037Z" fill="#9A9A9A"/>
<path d="M43.0809 18.7109C36.8525 18.7109 31.7852 23.7784 31.7852 30.0072C31.7852 36.2355 36.8526 41.3029 43.0809 41.3029C49.3074 41.3029 54.373 36.2354 54.373 30.0072C54.3731 23.7784 49.3074 18.7109 43.0809 18.7109ZM43.0809 39.428C41.0433 39.428 39.1601 38.771 37.6172 37.6672C38.4974 35.4501 40.6611 33.949 43.0809 33.949C45.4988 33.949 47.6614 35.4505 48.5418 37.6676C46.9996 38.7712 45.1173 39.428 43.0809 39.428ZM50.0069 36.3682C48.7111 33.7835 46.0437 32.074 43.081 32.074C40.1165 32.074 37.448 33.7832 36.152 36.368C34.6103 34.69 33.6602 32.4602 33.6602 30.0072C33.6602 24.8125 37.8862 20.5859 43.0809 20.5859C48.2733 20.5859 52.498 24.8125 52.498 30.0072C52.4981 32.4603 51.5481 34.6902 50.0069 36.3682Z" fill="#9A9A9A"/>
<path d="M43.0815 22.9668C40.9204 22.9668 39.1621 24.7246 39.1621 26.8857C39.1621 29.0469 40.9204 30.8051 43.0815 30.8051C45.2426 30.8051 47.0005 29.0469 47.0005 26.8857C47.0005 24.7246 45.2426 22.9668 43.0815 22.9668ZM43.0815 28.9301C41.9541 28.9301 41.0371 28.0132 41.0371 26.8856C41.0371 25.7587 41.954 24.8417 43.0815 24.8417C44.2085 24.8417 45.1255 25.7586 45.1255 26.8856C45.1255 28.0132 44.2086 28.9301 43.0815 28.9301Z" fill="#9A9A9A"/>
<path d="M25.2068 30.2725H13.1699C12.6522 30.2725 12.2324 30.6923 12.2324 31.21C12.2324 31.7276 12.6522 32.1475 13.1699 32.1475H25.2069C25.7246 32.1475 26.1444 31.7276 26.1444 31.21C26.1444 30.6923 25.7245 30.2725 25.2068 30.2725Z" fill="#9A9A9A"/>
<path d="M25.207 34.3584H9.36523C8.84755 34.3584 8.42773 34.7782 8.42773 35.2959C8.42773 35.8136 8.84755 36.2334 9.36523 36.2334H25.207C25.7247 36.2334 26.1445 35.8136 26.1445 35.2959C26.1445 34.7782 25.7248 34.3584 25.207 34.3584Z" fill="#9A9A9A"/>
<path d="M25.207 38.4424H9.36523C8.84755 38.4424 8.42773 38.8622 8.42773 39.3799C8.42773 39.8976 8.84755 40.3174 9.36523 40.3174H25.207C25.7247 40.3174 26.1445 39.8976 26.1445 39.3799C26.1445 38.8622 25.7248 38.4424 25.207 38.4424Z" fill="#9A9A9A"/>
<path d="M25.3555 26.6182H9.32878C8.32031 26.6182 7.5 25.7979 7.5 24.7894V20.9469C7.5 19.9385 8.32031 19.1182 9.32878 19.1182H25.3657C26.3704 19.1182 27.1875 19.971 27.1875 21.0192V24.7862C27.1875 25.7964 26.3658 26.6182 25.3555 26.6182ZM9.35569 20.9932V24.7432H25.3555V20.9932H9.35569Z" fill="#9A9A9A"/>
</svg>
