<svg width="66" height="66" viewBox="0 0 66 66" fill="none" xmlns="http://www.w3.org/2000/svg">
<g clip-path="url(#clip0_8849_11415)">
<path fill-rule="evenodd" clip-rule="evenodd" d="M26.0635 56.933C25.98 56.933 25.8965 56.9238 25.8129 56.8959C20.7824 55.3923 16.2624 52.2274 13.0881 48.0136C9.80251 43.6606 8.07617 38.4631 8.07617 33.0056C8.07617 27.5389 9.81179 22.3413 13.0881 17.9883C16.2624 13.7746 20.7824 10.6282 25.8129 9.10601C26.2863 8.96679 26.7875 9.23595 26.936 9.7093C27.0752 10.1919 26.806 10.6931 26.3234 10.8324C16.4758 13.8024 9.86748 22.7125 9.86748 33.0056C9.86748 43.1316 16.6336 52.2459 26.3234 55.1696C26.806 55.3088 27.0752 55.81 26.936 56.2926C26.8153 56.6732 26.4533 56.933 26.0635 56.933ZM39.9485 56.933C39.5587 56.933 39.1967 56.6732 39.0853 56.2926C38.9461 55.81 39.2153 55.3088 39.6886 55.1696C49.3784 52.2459 56.1538 43.1316 56.1538 33.0056C56.1538 22.8796 49.3784 13.756 39.6886 10.8324C39.2153 10.6931 38.9461 10.1919 39.0853 9.7093C39.2245 9.23595 39.7257 8.96679 40.2084 9.10601C45.2296 10.6282 49.7404 13.7746 52.9239 17.9883C56.2095 22.3413 57.9544 27.5389 57.9544 33.0056C57.9544 38.4631 56.2095 43.6606 52.9239 48.0136C49.7404 52.2274 45.2296 55.3738 40.2084 56.8959C40.1248 56.9238 40.0413 56.933 39.9485 56.933Z" fill="#D7282F"/>
<path fill-rule="evenodd" clip-rule="evenodd" d="M33.275 45.6181C31.6972 45.6181 30.1008 45.3303 28.8014 44.7827C26.1283 43.6318 24.4948 41.1816 24.4298 38.2208C24.4206 37.7196 24.8197 37.3019 25.3116 37.2927C25.8128 37.2834 26.2212 37.6825 26.2397 38.1651C26.2861 40.4483 27.4834 42.2582 29.5253 43.1214C31.6508 44.0495 34.8807 44.0588 36.8855 43.1307C38.6861 42.2953 39.772 40.7361 39.772 38.9262C39.772 37.1534 38.8903 35.9283 37.0061 35.0373C35.9945 34.5732 34.6115 34.2762 33.1451 33.9514C29.2655 33.1439 24.4298 32.0951 24.4298 27.0553C24.4298 24.5864 25.9427 22.3589 28.3652 21.2358C30.8247 20.1128 34.6301 20.1128 37.201 21.2358C39.8741 22.3775 41.5076 24.8277 41.5726 27.7978C41.5819 28.299 41.1828 28.7074 40.7001 28.7259C40.6816 28.7259 40.6816 28.7259 40.6723 28.7259C40.1804 28.7259 39.7813 28.3361 39.772 27.8442C39.7163 25.5795 38.519 23.7697 36.4771 22.8972C34.3517 21.9691 31.1217 21.9598 29.1077 22.8786C27.3164 23.7047 26.2397 25.2825 26.2397 27.0553C26.2397 30.3873 29.1262 31.2597 33.5163 32.1972C35.0942 32.5406 36.5606 32.8561 37.7579 33.4038C40.2825 34.5732 41.5726 36.4388 41.5726 38.9262C41.5726 41.4414 40.1061 43.6318 37.628 44.7642C36.4214 45.3303 34.8621 45.6181 33.275 45.6181Z" fill="#D7282F"/>
<path fill-rule="evenodd" clip-rule="evenodd" d="M32.6894 50.6208C32.1882 50.6208 31.7891 50.2217 31.7891 49.7205V44.6993C31.7891 44.1981 32.1882 43.799 32.6894 43.799C33.1906 43.799 33.5897 44.1981 33.5897 44.6993V49.7205C33.5897 50.2032 33.1813 50.6208 32.6894 50.6208ZM32.6894 22.2012C32.1882 22.2012 31.7891 21.8021 31.7891 21.3009V16.3075C31.7891 15.8063 32.1882 15.4072 32.6894 15.4072C33.1906 15.4072 33.5897 15.8063 33.5897 16.3075V21.3009C33.5897 21.7835 33.1813 22.2012 32.6894 22.2012Z" fill="#D7282F"/>
<path fill-rule="evenodd" clip-rule="evenodd" d="M33.0051 65.9912C24.1878 65.9912 15.9088 62.5664 9.6717 56.3293C3.44388 50.0922 0.00976562 41.8132 0.00976562 33.0051C0.00976562 24.1878 3.4346 15.9088 9.6717 9.6717C15.9088 3.4346 24.1878 0.00976562 33.0051 0.00976562C41.8132 0.00976562 50.1015 3.4346 56.3293 9.6717C62.5664 15.8995 65.9912 24.1878 65.9912 33.0051C65.9912 41.8132 62.5664 50.1015 56.3293 56.3293C50.1015 62.5664 41.8132 65.9912 33.0051 65.9912ZM33.0051 1.81964C15.8067 1.81964 1.81964 15.8067 1.81964 33.0051C1.81964 50.1943 15.8067 64.1906 33.0051 64.1906C50.1943 64.1906 64.1906 50.1943 64.1906 33.0051C64.1906 15.8067 50.1943 1.81964 33.0051 1.81964Z" fill="#D7282F"/>
<path fill-rule="evenodd" clip-rule="evenodd" d="M23.0748 16.4564C22.9356 16.4564 22.7964 16.41 22.6479 16.345C22.2116 16.113 22.0446 15.5654 22.2766 15.1292L24.6526 10.702L19.6871 10.0987C19.1952 10.0337 18.8332 9.57891 18.8982 9.09627C18.9631 8.60436 19.4179 8.24239 19.9098 8.30736L26.1841 9.07771C26.4811 9.11484 26.741 9.30047 26.8802 9.56034C27.0194 9.8295 27.0101 10.1358 26.8802 10.3957L23.8637 15.9738C23.7059 16.2894 23.3997 16.4564 23.0748 16.4564Z" fill="#D7282F"/>
<path fill-rule="evenodd" clip-rule="evenodd" d="M46.2214 57.7121C46.1843 57.7121 46.1471 57.7121 46.11 57.6936L39.8358 56.9232C39.5388 56.8861 39.2789 56.7005 39.1397 56.4406C38.9912 56.19 39.0097 55.8651 39.1397 55.6053L42.1097 50.0364C42.3418 49.6002 42.8987 49.4331 43.3349 49.6652C43.7711 49.8972 43.9382 50.4541 43.7061 50.8903L41.3487 55.299L46.3142 55.9208C46.8061 55.9765 47.1681 56.4313 47.1031 56.9232C47.066 57.3687 46.6762 57.7121 46.2214 57.7121Z" fill="#D7282F"/>
<path fill-rule="evenodd" clip-rule="evenodd" d="M33.0044 62.1583C16.929 62.1583 3.85156 49.0715 3.85156 33.0054C3.85156 32.4949 4.25066 32.0958 4.75186 32.0958C5.25305 32.0958 5.65215 32.4949 5.65215 33.0054C5.65215 48.0784 17.9222 60.3484 33.0044 60.3484C33.5056 60.3484 33.9047 60.7475 33.9047 61.2487C33.9047 61.7592 33.5056 62.1583 33.0044 62.1583ZM61.2477 33.9057C60.7465 33.9057 60.3474 33.5066 60.3474 33.0054C60.3474 17.9231 48.0774 5.65313 33.0044 5.65313C32.4939 5.65313 32.0948 5.25403 32.0948 4.75283C32.0948 4.25164 32.4939 3.85254 33.0044 3.85254C49.0705 3.85254 62.1573 16.93 62.1573 33.0054C62.1573 33.5066 61.7582 33.9057 61.2477 33.9057Z" fill="#D7282F"/>
</g>
<defs>
<clipPath id="clip0_8849_11415">
<rect width="66" height="66" fill="white"/>
</clipPath>
</defs>
</svg>
