<svg width="67" height="67" viewBox="0 0 67 67" fill="none" xmlns="http://www.w3.org/2000/svg">
<path d="M55.4981 30.6875V31.1875H55.9981H64.2481C65.4907 31.1875 66.498 32.1949 66.498 33.4375V58.1875C66.498 62.4688 63.0294 65.9375 58.748 65.9375H5.8435C3.44317 65.9375 1.49805 63.9924 1.49805 61.5919V5.28296C1.49805 2.88262 3.44317 0.9375 5.8435 0.9375H51.4385C52.6547 0.9375 53.6636 1.36435 54.3674 2.06816C55.0712 2.77197 55.4981 3.78087 55.4981 4.99704V30.6875ZM6.49809 5.43754H5.99809V5.93754V60.9376V61.4376H6.49809H50.9691H51.6761L51.4405 60.771C51.1916 60.0668 51.0412 59.3162 51.0068 58.5346L51.0067 58.5324C51.0012 58.4168 50.998 58.302 50.998 58.1875V33.4375V5.93754V5.43754H50.498H6.49809ZM58.5199 61.4262L58.5199 61.4263L58.5318 61.4271C58.5784 61.4302 58.6645 61.4375 58.748 61.4375C60.5441 61.4375 61.998 59.9836 61.998 58.1875L61.9981 36.1875L61.9981 35.6875H61.4981H55.9981H55.4981V36.1875V58.1875C55.4981 58.2709 55.5054 58.3571 55.5084 58.4036L55.5083 58.4037L55.5094 58.4156C55.5776 59.1757 55.9755 59.8913 56.5099 60.4256C57.0443 60.96 57.7599 61.3579 58.5199 61.4262Z" fill="#D7282F" stroke="white"/>
<path d="M14.7481 13.6875H14.2481V14.1875V22.4375V22.9375H14.7481H25.748H26.248V22.4375V14.1875V13.6875H25.748H14.7481ZM28.498 27.4375H11.998C10.7554 27.4375 9.74805 26.4301 9.74805 25.1875V11.4375C9.74805 10.1948 10.7554 9.1875 11.998 9.1875H28.498C29.7406 9.1875 30.748 10.1948 30.748 11.4375V25.1875C30.748 26.4301 29.7406 27.4375 28.498 27.4375Z" fill="#D7282F" stroke="white"/>
<path d="M11.998 33.9375H44.998C46.2407 33.9375 47.2481 34.9449 47.248 36.1874C47.248 37.4301 46.2406 38.4374 44.998 38.4374H11.998C10.7554 38.4374 9.74805 37.4301 9.74805 36.1875C9.74805 34.9448 10.7554 33.9375 11.998 33.9375Z" fill="#D7282F" stroke="white"/>
<path d="M25.2479 44.4374V44.4375C25.2479 45.6801 24.2406 46.6874 22.998 46.6874H11.998C10.7554 46.6874 9.74805 45.6801 9.74805 44.4375C9.74805 43.1948 10.7554 42.1875 11.998 42.1875H22.9981C24.2407 42.1875 25.248 43.1948 25.2479 44.4374Z" fill="#D7282F" stroke="white"/>
<path d="M47.248 14.1933V14.1933C47.248 15.4359 46.2406 16.4433 44.998 16.4433H36.748C35.5054 16.4433 34.498 15.4359 34.498 14.1933C34.498 12.9507 35.5054 11.9434 36.748 11.9434H44.998C46.2407 11.9434 47.2481 12.9508 47.248 14.1933Z" fill="#D7282F" stroke="white"/>
<path d="M47.248 22.4384V22.4384C47.248 23.6811 46.2406 24.6884 44.998 24.6884H36.748C35.5054 24.6884 34.498 23.6811 34.498 22.4384C34.498 21.1958 35.5054 20.1885 36.748 20.1885H44.998C46.2407 20.1885 47.2481 21.1959 47.248 22.4384Z" fill="#D7282F" stroke="white"/>
<path d="M47.2577 44.4374V44.4375C47.2577 45.6801 46.2504 46.6874 45.0077 46.6874H34.0078C32.7651 46.6874 31.7578 45.6801 31.7578 44.4375C31.7578 43.1948 32.7651 42.1875 34.0078 42.1875H45.0077C46.2504 42.1875 47.2578 43.1949 47.2577 44.4374Z" fill="#D7282F" stroke="white"/>
<path d="M25.2479 52.6874V52.6875C25.2479 53.9301 24.2406 54.9374 22.998 54.9374H11.998C10.7554 54.9374 9.74805 53.9301 9.74805 52.6875C9.74805 51.4448 10.7554 50.4375 11.998 50.4375H22.9981C24.2407 50.4375 25.248 51.4448 25.2479 52.6874Z" fill="#D7282F" stroke="white"/>
<path d="M47.2577 52.6874V52.6875C47.2577 53.9301 46.2504 54.9374 45.0077 54.9374H34.0078C32.7651 54.9374 31.7578 53.9301 31.7578 52.6875C31.7578 51.4448 32.7651 50.4375 34.0078 50.4375H45.0077C46.2504 50.4375 47.2578 51.4449 47.2577 52.6874Z" fill="#D7282F" stroke="white"/>
</svg>
