<svg width="66" height="66" viewBox="0 0 66 66" fill="none" xmlns="http://www.w3.org/2000/svg">
<g clip-path="url(#clip0_2555_17661)">
<path d="M33.0001 0.00195312C14.8047 0.00195312 0 14.8044 0 32.9995C0 51.1959 14.8037 65.9997 33.0001 65.9997C51.1966 65.9997 66.0003 51.1959 66.0003 32.9995C66 14.8044 51.1952 0.00195312 33.0001 0.00195312ZM33.0001 63.0345C16.44 63.0345 2.96292 49.5623 2.96292 32.9995C2.96292 16.438 16.44 2.96356 33.0001 2.96356C49.5626 2.96356 63.0397 16.437 63.0397 32.9995C63.0397 49.562 49.5626 63.0345 33.0001 63.0345Z" fill="#D7282F"/>
<path d="M32.7863 22.2334C31.5623 22.2334 30.5664 23.227 30.5664 24.4543V49.5345C30.5664 50.7631 31.5623 51.759 32.7863 51.759C34.0149 51.759 35.0108 50.7631 35.0108 49.5345V24.4543C35.0108 23.227 34.0136 22.2334 32.7863 22.2334Z" fill="#D7282F"/>
<path d="M32.9261 18.774C34.417 18.774 35.6256 17.5654 35.6256 16.0745C35.6256 14.5836 34.417 13.375 32.9261 13.375C31.4352 13.375 30.2266 14.5836 30.2266 16.0745C30.2266 17.5654 31.4352 18.774 32.9261 18.774Z" fill="#D7282F"/>
</g>
<defs>
<clipPath id="clip0_2555_17661">
<rect width="66" height="66" fill="white"/>
</clipPath>
</defs>
</svg>
