<svg width="67" height="67" viewBox="0 0 67 67" fill="none" xmlns="http://www.w3.org/2000/svg">
<path d="M61.198 12.667H6.802C5.77384 12.667 4.9375 13.5033 4.9375 14.5315V52.2018C4.9375 53.2299 5.77384 54.0663 6.802 54.0663H61.1981C62.2263 54.0663 63.0626 53.2299 63.0626 52.2018V14.5315C63.0625 13.5033 62.2262 12.667 61.198 12.667ZM6.81091 19.1796H61.1888L61.1967 47.5536H6.81231L6.81091 19.1796ZM61.1875 14.5315L61.1884 17.3046H6.81081L6.81063 14.542L61.1875 14.5315ZM6.8125 52.2018L6.81241 49.4286H61.1974L61.1981 52.1913L6.8125 52.2018Z" fill="#D7282F"/>
<path d="M47.0809 21.709C40.8525 21.709 35.7852 26.7765 35.7852 33.0052C35.7852 39.2336 40.8526 44.3009 47.0809 44.3009C53.3074 44.3009 58.373 39.2335 58.373 33.0052C58.3731 26.7765 53.3074 21.709 47.0809 21.709ZM47.0809 42.426C45.0433 42.426 43.1601 41.769 41.6172 40.6652C42.4974 38.4481 44.6611 36.947 47.0809 36.947C49.4988 36.947 51.6614 38.4485 52.5418 40.6656C50.9996 41.7692 49.1173 42.426 47.0809 42.426ZM54.0069 39.3662C52.7111 36.7815 50.0437 35.072 47.081 35.072C44.1165 35.072 41.448 36.7813 40.152 39.366C38.6103 37.688 37.6602 35.4583 37.6602 33.0052C37.6602 27.8105 41.8862 23.584 47.0809 23.584C52.2733 23.584 56.498 27.8105 56.498 33.0052C56.4981 35.4584 55.5481 37.6882 54.0069 39.3662Z" fill="#D7282F"/>
<path d="M47.0815 25.9648C44.9204 25.9648 43.1621 27.7227 43.1621 29.8838C43.1621 32.0449 44.9204 33.8032 47.0815 33.8032C49.2426 33.8032 51.0005 32.0449 51.0005 29.8838C51.0005 27.7227 49.2426 25.9648 47.0815 25.9648ZM47.0815 31.9281C45.9541 31.9281 45.0371 31.0112 45.0371 29.8837C45.0371 28.7567 45.954 27.8398 47.0815 27.8398C48.2085 27.8398 49.1255 28.7566 49.1255 29.8837C49.1255 31.0112 48.2086 31.9281 47.0815 31.9281Z" fill="#D7282F"/>
<path d="M29.2068 33.2695H17.1699C16.6522 33.2695 16.2324 33.6893 16.2324 34.207C16.2324 34.7247 16.6522 35.1445 17.1699 35.1445H29.2069C29.7246 35.1445 30.1444 34.7247 30.1444 34.207C30.1444 33.6893 29.7245 33.2695 29.2068 33.2695Z" fill="#D7282F"/>
<path d="M29.207 37.3564H13.3652C12.8475 37.3564 12.4277 37.7763 12.4277 38.2939C12.4277 38.8116 12.8475 39.2314 13.3652 39.2314H29.207C29.7247 39.2314 30.1445 38.8116 30.1445 38.2939C30.1445 37.7763 29.7248 37.3564 29.207 37.3564Z" fill="#D7282F"/>
<path d="M29.207 41.4404H13.3652C12.8475 41.4404 12.4277 41.8602 12.4277 42.3779C12.4277 42.8956 12.8475 43.3154 13.3652 43.3154H29.207C29.7247 43.3154 30.1445 42.8956 30.1445 42.3779C30.1445 41.8602 29.7248 41.4404 29.207 41.4404Z" fill="#D7282F"/>
<path d="M29.3555 29.6162H13.3288C12.3203 29.6162 11.5 28.7959 11.5 27.7874V23.945C11.5 22.9365 12.3203 22.1162 13.3288 22.1162H29.3657C30.3704 22.1162 31.1875 22.9691 31.1875 24.0173V27.7842C31.1875 28.7945 30.3658 29.6162 29.3555 29.6162ZM13.3557 23.9912V27.7412H29.3555V23.9912H13.3557Z" fill="#D7282F"/>
</svg>
