<svg width="14" height="17" viewBox="0 0 14 17" fill="none" xmlns="http://www.w3.org/2000/svg">
<path d="M6.41994 5.1918H7.93581V6.89603H8.93616V1.15589C8.93616 0.759707 8.61522 0.438477 8.21904 0.438477H1.13948C0.743298 0.438477 0.421875 0.759707 0.421875 1.15589V15.7211C0.421875 16.1173 0.743266 16.4385 1.13948 16.4385H3.68653V11.7751H5.65955V7.87204C5.65955 7.44808 5.97151 7.09613 6.41971 6.9587V5.19183H6.41994V5.1918ZM6.41994 1.87343H7.93581V4.0258H6.41994V1.87343ZM2.96398 13.9752H1.4482V11.8228H2.96401V13.9752H2.96398ZM2.96398 10.8242H1.4482V8.67165H2.96401V10.8242H2.96398ZM2.96398 7.34417H1.4482V5.1918H2.96401V7.34417H2.96398ZM2.96398 4.02596H1.4482V1.87343H2.96401V4.02596H2.96398ZM5.49207 10.8242H3.97655V8.67165H5.49207V10.8242ZM5.49207 7.34417H3.97655V5.1918H5.49207V7.34417ZM5.49207 4.02596H3.97655V1.87343H5.49207V4.02596ZM12.9668 7.46996H6.97061C6.63498 7.46996 6.36285 7.64994 6.36285 7.87204V16.0362C6.36285 16.2586 6.63498 16.4385 6.97061 16.4385H9.12802V13.8245H10.8603V16.4385H12.9668C13.3023 16.4385 13.5745 16.2586 13.5745 16.0362V7.87204C13.5745 7.64994 13.3023 7.46996 12.9668 7.46996ZM8.5157 15.0576H7.23196V13.8512H8.5157V15.0576ZM8.5157 13.2914H7.23196V12.085H8.5157V13.2914ZM8.5157 11.3409H7.23196V10.1345H8.5157V11.3409ZM8.5157 9.48073H7.23196V8.27422H8.5157V9.48073ZM10.6575 13.2914H9.37368V12.085H10.6575V13.2914ZM10.6575 11.3409H9.37368V10.1345H10.6575V11.3409ZM10.6575 9.48073H9.37368V8.27422H10.6575V9.48073ZM12.7271 15.0846H11.4434V13.8782H12.7271V15.0846ZM12.7271 13.2914H11.4434V12.085H12.7271V13.2914ZM12.7271 11.3409H11.4434V10.1345H12.7271V11.3409ZM12.7271 9.48073H11.4434V8.27422H12.7271V9.48073Z" fill="#D7282F"/>
</svg>
