<svg width="17" height="13" viewBox="0 0 17 13" fill="none" xmlns="http://www.w3.org/2000/svg">
<path d="M16.7389 11.9853H16.4451V4.78007C16.4451 4.6369 16.3291 4.52089 16.186 4.52089H15.8922V1.99821H15.9095C16.0526 1.99821 16.1687 1.8822 16.1687 1.73903V0.633203C16.1687 0.490032 16.0526 0.374023 15.9095 0.374023H13.1449C13.0018 0.374023 12.8857 0.490032 12.8857 0.633203V1.73903C12.8857 1.8822 13.0018 1.99821 13.1449 1.99821H13.1622V4.52089H12.0218V1.99821H12.0391C12.1822 1.99821 12.2983 1.8822 12.2983 1.73903V0.633203C12.2983 0.490032 12.1822 0.374023 12.0391 0.374023H9.2745C9.13137 0.374023 9.01533 0.490032 9.01533 0.633203V1.73903C9.01533 1.8822 9.13137 1.99821 9.2745 1.99821H9.29178V4.52089H8.70431V3.9507C8.70431 3.5029 8.34001 3.1386 7.89222 3.1386H7.59848V2.84487C7.59848 2.39707 7.23418 2.03277 6.78638 2.03277H6.49265V1.73903C6.49265 1.59586 6.3766 1.47985 6.23347 1.47985H1.81014C1.66701 1.47985 1.55096 1.59586 1.55096 1.73903V11.9853H1.25723C1.11409 11.9853 0.998047 12.1013 0.998047 12.2444C0.998047 12.3876 1.11409 12.5036 1.25723 12.5036H16.7389C16.882 12.5036 16.998 12.3876 16.998 12.2444C16.998 12.1013 16.882 11.9853 16.7389 11.9853ZM15.9268 7.56193H2.06932V5.03925H15.9268V7.56193ZM6.49265 3.65696H7.08012V4.52089H6.49265V3.65696ZM13.4041 0.892382H15.6503V1.47985H15.633H13.4214H13.4041V0.892382ZM13.6806 1.99821H15.3739V4.52089H13.6806V1.99821ZM9.53368 0.892382H11.7799V1.47985H11.7626H9.55096H9.53368V0.892382ZM9.81014 1.99821H11.5034V4.52089H9.81014V1.99821ZM7.89222 3.65696C8.05418 3.65696 8.18595 3.78873 8.18595 3.9507V4.52089H7.59848V3.65696H7.89222ZM6.78638 2.55113C6.94835 2.55113 7.08012 2.6829 7.08012 2.84487V3.1386H6.49265V2.55113H6.78638ZM2.06932 1.99821H5.97429V4.52089H2.06932V1.99821ZM2.06932 8.08029H15.9268V11.9853H2.06932V8.08029Z" fill="#D7282F"/>
<path d="M15.0796 8.66797H2.91543C2.77229 8.66797 2.65625 8.78398 2.65625 8.92715V11.1388C2.65625 11.282 2.77229 11.398 2.91543 11.398H15.0796C15.2227 11.398 15.3388 11.282 15.3388 11.1388V8.92715C15.3388 8.78398 15.2227 8.66797 15.0796 8.66797ZM5.38627 9.18633H5.97374V10.8796H5.38627V9.18633ZM4.86791 10.8796H4.28044V9.18633H4.86791V10.8796ZM6.4921 9.18633H7.07958V10.8796H6.4921V9.18633ZM7.59793 9.18633H8.18541V10.8796H7.59793V9.18633ZM8.70377 9.18633H9.29124V10.8796H8.70377V9.18633ZM9.8096 9.18633H10.3971V10.8796H9.8096V9.18633ZM10.9154 9.18633H11.5029V10.8796H10.9154V9.18633ZM12.0213 9.18633H12.6087V10.8796H12.0213V9.18633ZM13.1271 9.18633H13.7146V10.8796H13.1271V9.18633ZM3.17461 9.18633H3.76208V10.8796H3.17461V9.18633ZM14.8204 10.8796H14.2329V9.18633H14.8204V10.8796Z" fill="#D7282F"/>
<path d="M2.91543 5.62695C2.77229 5.62695 2.65625 5.74296 2.65625 5.88613V6.71551C2.65625 6.85868 2.77229 6.97469 2.91543 6.97469C3.05857 6.97469 3.17461 6.85868 3.17461 6.71551V5.88613C3.17461 5.74296 3.05857 5.62695 2.91543 5.62695Z" fill="#D7282F"/>
<path d="M4.0209 5.62695C3.87776 5.62695 3.76172 5.74296 3.76172 5.88613V6.71551C3.76172 6.85868 3.87776 6.97469 4.0209 6.97469C4.16403 6.97469 4.28008 6.85868 4.28008 6.71551V5.88613C4.28008 5.74296 4.16403 5.62695 4.0209 5.62695Z" fill="#D7282F"/>
<path d="M5.12832 5.62695C4.98518 5.62695 4.86914 5.74296 4.86914 5.88613V6.71551C4.86914 6.85868 4.98518 6.97469 5.12832 6.97469C5.27146 6.97469 5.3875 6.85868 5.3875 6.71551V5.88613C5.3875 5.74296 5.27146 5.62695 5.12832 5.62695Z" fill="#D7282F"/>
<path d="M2.91543 2.58594C2.77229 2.58594 2.65625 2.70195 2.65625 2.84512V3.67449C2.65625 3.81766 2.77229 3.93367 2.91543 3.93367C3.05857 3.93367 3.17461 3.81766 3.17461 3.67449V2.84512C3.17461 2.70195 3.05857 2.58594 2.91543 2.58594Z" fill="#D7282F"/>
<path d="M4.0209 2.58594C3.87776 2.58594 3.76172 2.70195 3.76172 2.84512V3.67449C3.76172 3.81766 3.87776 3.93367 4.0209 3.93367C4.16403 3.93367 4.28008 3.81766 4.28008 3.67449V2.84512C4.28008 2.70195 4.16403 2.58594 4.0209 2.58594Z" fill="#D7282F"/>
<path d="M5.12832 2.58594C4.98518 2.58594 4.86914 2.70195 4.86914 2.84512V3.67449C4.86914 3.81766 4.98518 3.93367 5.12832 3.93367C5.27146 3.93367 5.3875 3.81766 5.3875 3.67449V2.84512C5.3875 2.70195 5.27146 2.58594 5.12832 2.58594Z" fill="#D7282F"/>
<path d="M6.23379 5.62695C6.09065 5.62695 5.97461 5.74296 5.97461 5.88613V6.71551C5.97461 6.85868 6.09065 6.97469 6.23379 6.97469C6.37692 6.97469 6.49297 6.85868 6.49297 6.71551V5.88613C6.49297 5.74296 6.37692 5.62695 6.23379 5.62695Z" fill="#D7282F"/>
<path d="M7.33926 5.62695C7.19612 5.62695 7.08008 5.74296 7.08008 5.88613V6.71551C7.08008 6.85868 7.19612 6.97469 7.33926 6.97469C7.48239 6.97469 7.59844 6.85868 7.59844 6.71551V5.88613C7.59844 5.74296 7.48239 5.62695 7.33926 5.62695Z" fill="#D7282F"/>
<path d="M8.44473 5.62695C8.30159 5.62695 8.18555 5.74296 8.18555 5.88613V6.71551C8.18555 6.85868 8.30159 6.97469 8.44473 6.97469C8.58786 6.97469 8.70391 6.85868 8.70391 6.71551V5.88613C8.70391 5.74296 8.58786 5.62695 8.44473 5.62695Z" fill="#D7282F"/>
<path d="M9.55019 5.62695C9.40706 5.62695 9.29102 5.74296 9.29102 5.88613V6.71551C9.29102 6.85868 9.40706 6.97469 9.55019 6.97469C9.69333 6.97469 9.80937 6.85868 9.80937 6.71551V5.88613C9.80937 5.74296 9.69333 5.62695 9.55019 5.62695Z" fill="#D7282F"/>
<path d="M10.6576 5.62695C10.5145 5.62695 10.3984 5.74296 10.3984 5.88613V6.71551C10.3984 6.85868 10.5145 6.97469 10.6576 6.97469C10.8008 6.97469 10.9168 6.85868 10.9168 6.71551V5.88613C10.9168 5.74296 10.8008 5.62695 10.6576 5.62695Z" fill="#D7282F"/>
<path d="M11.7631 5.62695C11.6199 5.62695 11.5039 5.74296 11.5039 5.88613V6.71551C11.5039 6.85868 11.6199 6.97469 11.7631 6.97469C11.9062 6.97469 12.0223 6.85868 12.0223 6.71551V5.88613C12.0223 5.74296 11.9062 5.62695 11.7631 5.62695Z" fill="#D7282F"/>
<path d="M12.8686 5.62695C12.7254 5.62695 12.6094 5.74296 12.6094 5.88613V6.71551C12.6094 6.85868 12.7254 6.97469 12.8686 6.97469C13.0117 6.97469 13.1277 6.85868 13.1277 6.71551V5.88613C13.1277 5.74296 13.0117 5.62695 12.8686 5.62695Z" fill="#D7282F"/>
<path d="M13.974 5.62695C13.8309 5.62695 13.7148 5.74296 13.7148 5.88613V6.71551C13.7148 6.85868 13.8309 6.97469 13.974 6.97469C14.1172 6.97469 14.2332 6.85868 14.2332 6.71551V5.88613C14.2332 5.74296 14.1172 5.62695 13.974 5.62695Z" fill="#D7282F"/>
<path d="M15.0795 5.62695C14.9364 5.62695 14.8203 5.74296 14.8203 5.88613V6.71551C14.8203 6.85868 14.9364 6.97469 15.0795 6.97469C15.2226 6.97469 15.3387 6.85868 15.3387 6.71551V5.88613C15.3387 5.74296 15.2226 5.62695 15.0795 5.62695Z" fill="#D7282F"/>
</svg>
