<svg width="67" height="66" viewBox="0 0 67 66" fill="none" xmlns="http://www.w3.org/2000/svg">
<path d="M33.7051 17.875C29.904 17.875 26.8301 20.9489 26.8301 24.75C26.8301 25.5094 26.2145 26.125 25.4551 26.125C24.6957 26.125 24.0801 25.5094 24.0801 24.75C24.0801 19.4301 28.3852 15.125 33.7051 15.125C39.0249 15.125 43.3301 19.4302 43.3301 24.75C43.3301 29.6029 39.7474 33.6116 35.0801 34.2776V41.25C35.0801 42.0092 34.4643 42.625 33.7051 42.625C32.9458 42.625 32.3301 42.0092 32.3301 41.25V33C32.3301 32.2407 32.9458 31.625 33.7051 31.625C37.5061 31.625 40.5801 28.551 40.5801 24.75C40.5801 20.9489 37.5061 17.875 33.7051 17.875ZM33.7051 50.5175C35.2239 50.5175 36.4551 49.2863 36.4551 47.7675C36.4551 46.2486 35.2239 45.0175 33.7051 45.0175C32.1862 45.0175 30.9551 46.2486 30.9551 47.7675C30.9551 49.2863 32.1862 50.5175 33.7051 50.5175Z" fill="#D7282F"/>
<path d="M33.7051 5.5C18.5173 5.5 6.20508 17.8122 6.20508 33C6.20508 48.1877 18.5173 60.5 33.7051 60.5C48.8928 60.5 61.2051 48.1878 61.2051 33C61.2051 17.8122 48.8929 5.5 33.7051 5.5ZM8.9551 33C8.9551 19.331 20.0361 8.25002 33.7051 8.25002C47.3743 8.25002 58.4551 19.331 58.4551 33C58.4551 46.6692 47.3743 57.75 33.7051 57.75C20.0361 57.75 8.9551 46.6692 8.9551 33Z" fill="#D7282F"/>
</svg>
