<svg width="68" height="66" viewBox="0 0 68 66" fill="none" xmlns="http://www.w3.org/2000/svg">
<g clip-path="url(#clip0_2536_17553)">
<mask id="path-1-inside-1_2536_17553" fill="white">
<path d="M56.9743 14.2119C56.5565 13.9961 56.0861 13.9026 55.6174 13.9424C55.1488 13.9821 54.7009 14.1535 54.3253 14.4367L45.1342 21.2358V16.5238C45.1154 16.0393 44.9661 15.5688 44.7018 15.1622C44.4376 14.7557 44.0684 14.4281 43.6332 14.2142C43.198 14.0003 42.7131 13.9081 42.2298 13.9473C41.7465 13.9864 41.2828 14.1555 40.8878 14.4367L31.6404 21.2358V16.5158C31.6361 15.8288 31.3602 15.1713 30.873 14.6871C30.3857 14.2028 29.7266 13.931 29.0396 13.931C28.4851 13.9315 27.9453 14.1086 27.4983 14.4367L18.2108 21.2599V3.16646C18.2114 2.83768 18.1447 2.51226 18.0147 2.21025C17.8848 1.90825 17.6943 1.63605 17.4552 1.41043C17.216 1.18482 16.9332 1.01056 16.6241 0.898402C16.3151 0.786245 15.9863 0.73856 15.6581 0.758288H4.06682C3.73733 0.736272 3.40684 0.782256 3.09588 0.893381C2.78491 1.00451 2.50013 1.1784 2.25922 1.40425C2.01831 1.6301 1.82643 1.90309 1.69549 2.20624C1.56456 2.5094 1.49737 2.83624 1.4981 3.16646V60.2401C1.49359 60.9318 1.75978 61.5977 2.23977 62.0957C2.71976 62.5937 3.37548 62.8842 4.06682 62.9052H35.943C35.8864 62.5494 35.8569 62.1898 35.8547 61.8295C35.9471 60.4774 36.2987 59.1557 36.8902 57.9363H36.7056C36.591 57.9352 36.478 57.9095 36.3741 57.861C36.2703 57.8126 36.178 57.7424 36.1035 57.6553H20.9882V50.19H36.3203C36.7259 48.366 37.4254 46.6201 38.3913 45.0205H18.4035C17.7186 45.0226 17.0624 45.2956 16.5781 45.7799C16.0938 46.2642 15.8208 46.9204 15.8187 47.6052V57.7758H6.772V5.90375H13.0894V26.2287C13.0565 26.82 13.2296 27.4043 13.5791 27.8823C13.6372 27.9497 13.6988 28.0141 13.7637 28.075L13.9082 28.2275L14.1249 28.4121C14.2071 28.4734 14.2929 28.5297 14.3818 28.5807L14.5664 28.685C14.6933 28.744 14.8249 28.7924 14.9598 28.8295L15.0882 28.8697C15.2748 28.9154 15.466 28.9396 15.6581 28.9419C15.8199 28.9411 15.9811 28.925 16.1398 28.8938H16.2201C16.3545 28.8618 16.486 28.8188 16.6134 28.7653H16.6616C16.8432 28.6888 17.0156 28.5918 17.1753 28.4763L26.4307 21.6773V26.325C26.434 26.8055 26.5699 27.2757 26.8234 27.6838C27.0769 28.0919 27.4381 28.4221 27.8674 28.638C28.2966 28.8538 28.7771 28.9469 29.2559 28.9071C29.7347 28.8673 30.1931 28.696 30.5808 28.4121L39.8603 21.605V26.325C39.855 26.6619 39.9166 26.9965 40.0416 27.3093C40.1666 27.6221 40.3524 27.9071 40.5884 28.1475C40.8244 28.388 41.1058 28.5792 41.4162 28.71C41.7266 28.8409 42.06 28.9088 42.3969 28.9098C42.5806 28.9086 42.7637 28.8871 42.9427 28.8456V24.7196C42.9427 24.6142 42.9635 24.5098 43.0038 24.4124C43.0442 24.315 43.1033 24.2265 43.1778 24.152C43.2524 24.0774 43.3409 24.0183 43.4383 23.978C43.5357 23.9376 43.64 23.9169 43.7454 23.9169H49.9987L53.1373 21.605V23.9169H58.339V16.4917C58.3427 16.023 58.2173 15.5624 57.9766 15.1603C57.7359 14.7581 57.3892 14.43 56.9743 14.2119ZM16.0354 40.5894H21.4297V35.1951H16.0354V40.5894ZM37.709 40.5894V35.1951H32.3147V40.5894H37.709ZM46.9644 27.9546H62.2643V32.7709H46.9644V27.9546ZM62.6978 36.1423V40.6296H56.9743V34.1275H52.158V40.6858C48.826 40.9481 45.7152 42.4561 43.4451 44.9091C41.175 47.3622 39.9122 50.5804 39.9084 53.9227H45.9529C45.9529 52.0066 46.7141 50.169 48.069 48.8142C49.4238 47.4593 51.2614 46.6982 53.1775 46.6982H62.6817V52.1005H67.498V36.1423H62.6817H62.6978ZM39.8603 61.8215C39.8388 62.2465 39.9039 62.6714 40.0517 63.0704C40.1995 63.4695 40.4269 63.8343 40.7201 64.1427C41.0133 64.4511 41.3662 64.6967 41.7572 64.8645C42.1483 65.0323 42.5694 65.1188 42.9949 65.1188C43.4204 65.1188 43.8415 65.0323 44.2326 64.8645C44.6236 64.6967 44.9765 64.4511 45.2697 64.1427C45.5629 63.8343 45.7903 63.4695 45.9381 63.0704C46.0859 62.6714 46.1511 62.2465 46.1295 61.8215C46.1295 60.0876 42.9909 54.9662 42.9909 54.9662C42.9909 54.9662 39.8603 60.0956 39.8603 61.8215Z"/>
</mask>
<path d="M56.9743 14.2119C56.5565 13.9961 56.0861 13.9026 55.6174 13.9424C55.1488 13.9821 54.7009 14.1535 54.3253 14.4367L45.1342 21.2358V16.5238C45.1154 16.0393 44.9661 15.5688 44.7018 15.1622C44.4376 14.7557 44.0684 14.4281 43.6332 14.2142C43.198 14.0003 42.7131 13.9081 42.2298 13.9473C41.7465 13.9864 41.2828 14.1555 40.8878 14.4367L31.6404 21.2358V16.5158C31.6361 15.8288 31.3602 15.1713 30.873 14.6871C30.3857 14.2028 29.7266 13.931 29.0396 13.931C28.4851 13.9315 27.9453 14.1086 27.4983 14.4367L18.2108 21.2599V3.16646C18.2114 2.83768 18.1447 2.51226 18.0147 2.21025C17.8848 1.90825 17.6943 1.63605 17.4552 1.41043C17.216 1.18482 16.9332 1.01056 16.6241 0.898402C16.3151 0.786245 15.9863 0.73856 15.6581 0.758288H4.06682C3.73733 0.736272 3.40684 0.782256 3.09588 0.893381C2.78491 1.00451 2.50013 1.1784 2.25922 1.40425C2.01831 1.6301 1.82643 1.90309 1.69549 2.20624C1.56456 2.5094 1.49737 2.83624 1.4981 3.16646V60.2401C1.49359 60.9318 1.75978 61.5977 2.23977 62.0957C2.71976 62.5937 3.37548 62.8842 4.06682 62.9052H35.943C35.8864 62.5494 35.8569 62.1898 35.8547 61.8295C35.9471 60.4774 36.2987 59.1557 36.8902 57.9363H36.7056C36.591 57.9352 36.478 57.9095 36.3741 57.861C36.2703 57.8126 36.178 57.7424 36.1035 57.6553H20.9882V50.19H36.3203C36.7259 48.366 37.4254 46.6201 38.3913 45.0205H18.4035C17.7186 45.0226 17.0624 45.2956 16.5781 45.7799C16.0938 46.2642 15.8208 46.9204 15.8187 47.6052V57.7758H6.772V5.90375H13.0894V26.2287C13.0565 26.82 13.2296 27.4043 13.5791 27.8823C13.6372 27.9497 13.6988 28.0141 13.7637 28.075L13.9082 28.2275L14.1249 28.4121C14.2071 28.4734 14.2929 28.5297 14.3818 28.5807L14.5664 28.685C14.6933 28.744 14.8249 28.7924 14.9598 28.8295L15.0882 28.8697C15.2748 28.9154 15.466 28.9396 15.6581 28.9419C15.8199 28.9411 15.9811 28.925 16.1398 28.8938H16.2201C16.3545 28.8618 16.486 28.8188 16.6134 28.7653H16.6616C16.8432 28.6888 17.0156 28.5918 17.1753 28.4763L26.4307 21.6773V26.325C26.434 26.8055 26.5699 27.2757 26.8234 27.6838C27.0769 28.0919 27.4381 28.4221 27.8674 28.638C28.2966 28.8538 28.7771 28.9469 29.2559 28.9071C29.7347 28.8673 30.1931 28.696 30.5808 28.4121L39.8603 21.605V26.325C39.855 26.6619 39.9166 26.9965 40.0416 27.3093C40.1666 27.6221 40.3524 27.9071 40.5884 28.1475C40.8244 28.388 41.1058 28.5792 41.4162 28.71C41.7266 28.8409 42.06 28.9088 42.3969 28.9098C42.5806 28.9086 42.7637 28.8871 42.9427 28.8456V24.7196C42.9427 24.6142 42.9635 24.5098 43.0038 24.4124C43.0442 24.315 43.1033 24.2265 43.1778 24.152C43.2524 24.0774 43.3409 24.0183 43.4383 23.978C43.5357 23.9376 43.64 23.9169 43.7454 23.9169H49.9987L53.1373 21.605V23.9169H58.339V16.4917C58.3427 16.023 58.2173 15.5624 57.9766 15.1603C57.7359 14.7581 57.3892 14.43 56.9743 14.2119ZM16.0354 40.5894H21.4297V35.1951H16.0354V40.5894ZM37.709 40.5894V35.1951H32.3147V40.5894H37.709ZM46.9644 27.9546H62.2643V32.7709H46.9644V27.9546ZM62.6978 36.1423V40.6296H56.9743V34.1275H52.158V40.6858C48.826 40.9481 45.7152 42.4561 43.4451 44.9091C41.175 47.3622 39.9122 50.5804 39.9084 53.9227H45.9529C45.9529 52.0066 46.7141 50.169 48.069 48.8142C49.4238 47.4593 51.2614 46.6982 53.1775 46.6982H62.6817V52.1005H67.498V36.1423H62.6817H62.6978ZM39.8603 61.8215C39.8388 62.2465 39.9039 62.6714 40.0517 63.0704C40.1995 63.4695 40.4269 63.8343 40.7201 64.1427C41.0133 64.4511 41.3662 64.6967 41.7572 64.8645C42.1483 65.0323 42.5694 65.1188 42.9949 65.1188C43.4204 65.1188 43.8415 65.0323 44.2326 64.8645C44.6236 64.6967 44.9765 64.4511 45.2697 64.1427C45.5629 63.8343 45.7903 63.4695 45.9381 63.0704C46.0859 62.6714 46.1511 62.2465 46.1295 61.8215C46.1295 60.0876 42.9909 54.9662 42.9909 54.9662C42.9909 54.9662 39.8603 60.0956 39.8603 61.8215Z" fill="#D7282F" stroke="white" stroke-width="2" mask="url(#path-1-inside-1_2536_17553)"/>
</g>
<defs>
<clipPath id="clip0_2536_17553">
<rect width="67" height="66" fill="white" transform="translate(0.705078)"/>
</clipPath>
</defs>
</svg>
