<svg width="68" height="74" viewBox="0 0 68 74" fill="none" xmlns="http://www.w3.org/2000/svg">
<g clip-path="url(#clip0_2536_17539)">
<path d="M10.1875 28.9764C10.1875 21.2473 16.475 14.959 24.202 14.959C31.9289 14.959 38.2162 21.2473 38.2162 28.9764C38.2162 36.7055 31.9289 42.9944 24.202 42.9944C16.4751 42.9944 10.1875 36.7055 10.1875 28.9764ZM13.9006 28.9764C13.9006 34.6587 18.5211 39.2813 24.202 39.2813C29.8826 39.2813 34.5032 34.6587 34.5032 28.9764C34.5032 23.2944 29.8826 18.672 24.202 18.672C18.5212 18.672 13.9006 23.2944 13.9006 28.9764Z" fill="#D7282F" stroke="white"/>
<path d="M48.9954 0.777131L48.9952 0.77706C48.5284 0.620373 48.0186 0.655744 47.578 0.875562L47.5778 0.87568C47.1369 1.09533 46.8011 1.48097 46.6449 1.94756L46.6449 1.94763L44.4375 8.53641C44.4375 8.53642 44.4375 8.53644 44.4375 8.53645C44.1792 9.30775 44.4554 10.1304 45.068 10.6001L45.7036 11.0874L44.9867 11.4444L41.151 13.3548L40.8218 13.5187L40.5672 13.2533C36.2953 8.798 30.4277 6.27702 24.1972 6.27702C11.6813 6.27702 1.49805 16.4623 1.49805 28.981C1.49805 34.3832 3.42759 39.6171 6.93095 43.719C9.96564 47.2719 14.0176 49.7976 18.4929 50.9596L18.8673 51.0568V51.4435V54.4214V54.9214H18.3673H13.7764C12.7513 54.9214 11.9201 55.7527 11.9201 56.7777V63.7268C11.9201 64.7522 12.7515 65.5834 13.7764 65.5834H18.3673H18.8673V66.0834V70.6765C18.8673 71.7015 19.6986 72.5328 20.7238 72.5328H27.671C28.6961 72.5328 29.5273 71.7014 29.5273 70.6765V66.0834V65.5834H30.0273H34.6184C35.6438 65.5834 36.475 64.752 36.475 63.7268V56.7777C36.475 55.7526 35.6437 54.9214 34.6184 54.9214H30.0273H29.5273V54.4214V51.443V51.0563L29.9016 50.9591C34.377 49.7971 38.4287 47.2717 41.4631 43.7188C44.9665 39.6169 46.896 34.3832 46.896 28.981C46.896 27.0203 46.648 25.0895 46.1573 23.2168L46.0543 22.8237L46.4181 22.6425L50.1688 20.7741L51.2526 20.2343L50.8656 21.3815L50.8521 21.4213L48.9954 0.777131ZM48.9954 0.777131L65.2309 6.21896L65.3898 5.74488M48.9954 0.777131L65.3898 5.74488M65.3898 5.74488L65.2309 6.21897C66.2031 6.54479 66.727 7.59678 66.4012 8.56902L66.8753 8.7279L66.4012 8.56907L60.9606 24.8088C60.9606 24.8088 60.9606 24.8089 60.9605 24.809C60.8039 25.2757 60.4681 25.6616 60.028 25.8809C59.5866 26.1007 59.0762 26.1359 58.61 25.9795L58.6098 25.9795L52.0225 23.7711L52.0224 23.771M65.3898 5.74488L52.0224 23.771M52.0224 23.771C51.0507 23.4456 50.5267 22.3939 50.8518 21.4222L52.0224 23.771ZM49.1543 0.303063L49.1543 0.303053L49.1543 0.303063ZM57.5559 21.7097L58.03 21.8687L58.1889 21.3945L62.132 9.62333L62.2908 9.1493L61.8168 8.99043L50.0498 5.04661L49.5757 4.8877L49.4168 5.36183L48.7064 7.4819L48.5476 7.95598L49.0217 8.11485L51.334 8.88972C52.0462 9.1284 52.5441 9.77228 52.5961 10.5213C52.6481 11.2703 52.2438 11.977 51.5722 12.312C51.5721 12.312 51.5721 12.312 51.572 12.3121L41.1894 17.4837L41.4123 17.9313L41.1894 17.4838C40.4121 17.871 39.4705 17.6674 38.9219 16.9943C35.2968 12.5437 29.9289 9.98984 24.1969 9.98984C13.7275 9.98984 5.21087 18.5092 5.21087 28.9808C5.21087 38.2918 11.8645 46.1692 21.0308 47.7078C21.9252 47.8582 22.5801 48.6324 22.5801 49.5391V56.7777C22.5801 57.8029 21.7491 58.6342 20.7238 58.6342H16.1329H15.6329V59.1342V61.3703V61.8703H16.1329H20.7238C21.7489 61.8703 22.5801 62.7014 22.5801 63.7266V68.3197V68.8197H23.0801H25.3142H25.8142V68.3197V63.7266C25.8142 62.7017 26.6454 61.8703 27.6708 61.8703H32.2617H32.7617V61.3703V59.1342V58.6342H32.2617H27.6708C26.6456 58.6342 25.8142 57.803 25.8142 56.7777V49.5386C25.8142 48.6316 26.4694 47.8575 27.3634 47.7075L27.3635 47.7075C36.5298 46.169 43.183 38.2918 43.183 28.9808C43.183 26.7575 42.8021 24.5791 42.0509 22.5071C41.7295 21.6203 42.1242 20.6331 42.9684 20.2124C42.9685 20.2124 42.9685 20.2124 42.9685 20.2124L53.6052 14.9138C54.2785 14.5792 55.0857 14.6821 55.6521 15.1749C56.2187 15.6678 56.4323 16.4532 56.1942 17.1657L55.1216 20.3664L54.9627 20.8404L55.4368 20.9993L57.5559 21.7097Z" fill="#D7282F" stroke="white"/>
<path d="M29.8787 26.0635V26.0636C29.8787 27.0887 29.0476 27.9199 28.0222 27.9199H20.3582C19.3331 27.9199 18.502 27.0889 18.502 26.0636C18.502 25.0383 19.333 24.207 20.3582 24.207H28.0222C29.0476 24.207 29.8789 25.0385 29.8787 26.0635Z" fill="#D7282F" stroke="white"/>
<path d="M29.8787 31.8887V31.8888C29.8787 32.9141 29.0476 33.7453 28.0222 33.7453H20.3582C19.3331 33.7453 18.502 32.9142 18.502 31.8888C18.502 30.8635 19.333 30.0322 20.3582 30.0322H28.0222C29.0476 30.0322 29.8789 30.8637 29.8787 31.8887Z" fill="#D7282F" stroke="white"/>
</g>
<defs>
<clipPath id="clip0_2536_17539">
<rect width="67" height="74" fill="white" transform="translate(0.705078)"/>
</clipPath>
</defs>
</svg>
