<svg width="68" height="67" viewBox="0 0 68 67" fill="none" xmlns="http://www.w3.org/2000/svg">
<g clip-path="url(#clip0_2536_17507)">
<mask id="mask0_2536_17507" style="mask-type:luminance" maskUnits="userSpaceOnUse" x="1" y="0" width="67" height="67">
<path d="M67.7031 0.436523H1.70312V66.4365H67.7031V0.436523Z" fill="white"/>
</mask>
<g mask="url(#mask0_2536_17507)">
<path d="M66.6697 42.8748H64.8392L51.8991 32.0913C51.2389 31.5411 50.2043 32.0275 50.2043 32.8853V41.7018L38.6717 32.0913C38.0114 31.5411 36.9768 32.0275 36.9768 32.8853V41.7018L25.4442 32.0913C24.7839 31.5411 23.7493 32.0275 23.7493 32.8853V42.8748H21.1757L20.2992 34.985C20.2992 34.9844 20.299 34.9837 20.2989 34.9831L19.1957 25.0551C19.1376 24.5316 18.6953 24.1357 18.1686 24.1357H9.35036C8.82378 24.1357 8.3815 24.5317 8.32324 25.0551L7.95572 28.3619C7.89256 28.9293 8.30145 29.4401 8.86877 29.5031C9.43531 29.5673 9.94694 29.1575 10.01 28.5901L10.2754 26.2025H17.2438L18.1164 34.0564H9.40257L9.52 32.9992C9.58317 32.432 9.17428 31.921 8.60696 31.858C8.04054 31.7961 7.52879 32.2037 7.46575 32.771L7.21993 34.9828C7.2198 34.9836 7.2198 34.9844 7.21967 34.985L6.34324 42.8747H2.73657C2.1659 42.8747 1.70312 43.3372 1.70312 43.9082V64.8518C1.70312 65.4226 2.16577 65.8853 2.73657 65.8853H66.6698C67.2405 65.8853 67.7033 65.4227 67.7033 64.8518V43.9083C67.7031 43.3374 67.2405 42.8748 66.6697 42.8748ZM52.271 35.0917L61.6109 42.875H52.271V35.0917ZM25.8158 35.0917L35.1557 42.875H25.8158V35.0917ZM9.17299 36.1232H18.3461L18.6064 38.4656H8.91272L9.17299 36.1232ZM8.68301 40.5325H18.8359L19.0962 42.8748H8.42275L8.68301 40.5325ZM65.6364 63.8185H3.76988V44.9417H42.4192C42.9899 44.9417 43.4527 44.4792 43.4527 43.9083C43.4527 43.3375 42.99 42.8748 42.4192 42.8748H39.0434V35.0916L48.3833 42.8748H46.8283C46.2577 42.8748 45.7949 43.3374 45.7949 43.9083C45.7949 44.4791 46.2575 44.9417 46.8283 44.9417H65.6363L65.6364 63.8185Z" fill="#D7282F"/>
<path d="M9.35017 47.2842H6.04321C5.47254 47.2842 5.00977 47.7467 5.00977 48.3176V52.7269C5.00977 53.2977 5.47241 53.7603 6.04321 53.7603H9.35004C9.92071 53.7603 10.3835 53.2978 10.3835 52.7269V48.3175C10.3835 47.7467 9.92084 47.2842 9.35017 47.2842ZM8.31673 51.6933H7.07665V49.3509H8.31673V51.6933Z" fill="#D7282F"/>
<path d="M17.067 47.2842H13.76C13.1894 47.2842 12.7266 47.7467 12.7266 48.3176V52.7269C12.7266 53.2977 13.1892 53.7603 13.76 53.7603H17.0669C17.6375 53.7603 18.1003 53.2978 18.1003 52.7269V48.3175C18.1003 47.7467 17.6377 47.2842 17.067 47.2842ZM16.0335 51.6933H14.7935V49.3509H16.0335V51.6933Z" fill="#D7282F"/>
<path d="M24.7817 47.2842H21.4749C20.9042 47.2842 20.4414 47.7467 20.4414 48.3176V52.7269C20.4414 53.2977 20.9041 53.7603 21.4749 53.7603H24.7817C25.3524 53.7603 25.8151 53.2978 25.8151 52.7269V48.3175C25.815 47.7467 25.3524 47.2842 24.7817 47.2842ZM23.7483 51.6933H22.5082V49.3509H23.7483V51.6933Z" fill="#D7282F"/>
<path d="M32.4985 47.2842H29.1917C28.621 47.2842 28.1582 47.7467 28.1582 48.3176V52.7269C28.1582 53.2977 28.6209 53.7603 29.1917 53.7603H32.4985C33.0692 53.7603 33.5319 53.2978 33.5319 52.7269V48.3175C33.5318 47.7467 33.0692 47.2842 32.4985 47.2842ZM31.4651 51.6933H30.225V49.3509H31.4651V51.6933Z" fill="#D7282F"/>
<path d="M40.2153 47.2842H36.9085C36.3378 47.2842 35.875 47.7467 35.875 48.3176V52.7269C35.875 53.2977 36.3377 53.7603 36.9085 53.7603H40.2153C40.786 53.7603 41.2487 53.2978 41.2487 52.7269V48.3175C41.2486 47.7467 40.786 47.2842 40.2153 47.2842ZM39.1819 51.6933H37.9418V49.3509H39.1819V51.6933Z" fill="#D7282F"/>
<path d="M47.9302 47.2842H44.6232C44.0525 47.2842 43.5898 47.7467 43.5898 48.3176V52.7269C43.5898 53.2977 44.0524 53.7603 44.6232 53.7603H47.93C48.5007 53.7603 48.9635 53.2978 48.9635 52.7269V48.3175C48.9635 47.7467 48.5008 47.2842 47.9302 47.2842ZM46.8967 51.6933H45.6566V49.3509H46.8967V51.6933Z" fill="#D7282F"/>
<path d="M55.6468 47.2842H52.34C51.7693 47.2842 51.3066 47.7467 51.3066 48.3176V52.7269C51.3066 53.2977 51.7692 53.7603 52.34 53.7603H55.6468C56.2175 53.7603 56.6803 53.2978 56.6803 52.7269V48.3175C56.6803 47.7467 56.2175 47.2842 55.6468 47.2842ZM54.6134 51.6933H53.3733V49.3509H54.6134V51.6933Z" fill="#D7282F"/>
<path d="M63.3636 47.2842H60.0568C59.4861 47.2842 59.0234 47.7467 59.0234 48.3176V52.7269C59.0234 53.2977 59.486 53.7603 60.0568 53.7603H63.3636C63.9343 53.7603 64.3971 53.2978 64.3971 52.7269V48.3175C64.3971 47.7467 63.9343 47.2842 63.3636 47.2842ZM62.3302 51.6933H61.0901V49.3509H62.3302V51.6933Z" fill="#D7282F"/>
<path d="M9.35017 55H6.04321C5.47254 55 5.00977 55.4625 5.00977 56.0334V60.4427C5.00977 61.0135 5.47241 61.4761 6.04321 61.4761H9.35004C9.92071 61.4761 10.3835 61.0136 10.3835 60.4427V56.0334C10.3835 55.4625 9.92084 55 9.35017 55ZM8.31673 59.4091H7.07665V57.0668H8.31673V59.4091Z" fill="#D7282F"/>
<path d="M17.067 55H13.76C13.1894 55 12.7266 55.4625 12.7266 56.0334V60.4427C12.7266 61.0135 13.1892 61.4761 13.76 61.4761H17.0669C17.6375 61.4761 18.1003 61.0136 18.1003 60.4427V56.0334C18.1003 55.4625 17.6377 55 17.067 55ZM16.0335 59.4091H14.7935V57.0668H16.0335V59.4091Z" fill="#D7282F"/>
<path d="M24.7817 55H21.4749C20.9042 55 20.4414 55.4625 20.4414 56.0334V60.4427C20.4414 61.0135 20.9041 61.4761 21.4749 61.4761H24.7817C25.3524 61.4761 25.8151 61.0136 25.8151 60.4427V56.0334C25.815 55.4625 25.3524 55 24.7817 55ZM23.7483 59.4091H22.5082V57.0668H23.7483V59.4091Z" fill="#D7282F"/>
<path d="M32.4985 55H29.1917C28.621 55 28.1582 55.4625 28.1582 56.0334V60.4427C28.1582 61.0135 28.6209 61.4761 29.1917 61.4761H32.4985C33.0692 61.4761 33.5319 61.0136 33.5319 60.4427V56.0334C33.5318 55.4625 33.0692 55 32.4985 55ZM31.4651 59.4091H30.225V57.0668H31.4651V59.4091Z" fill="#D7282F"/>
<path d="M40.2153 55H36.9085C36.3378 55 35.875 55.4625 35.875 56.0334V60.4427C35.875 61.0135 36.3377 61.4761 36.9085 61.4761H40.2153C40.786 61.4761 41.2487 61.0136 41.2487 60.4427V56.0334C41.2486 55.4625 40.786 55 40.2153 55ZM39.1819 59.4091H37.9418V57.0668H39.1819V59.4091Z" fill="#D7282F"/>
<path d="M47.9302 55H44.6232C44.0525 55 43.5898 55.4625 43.5898 56.0334V60.4427C43.5898 61.0135 44.0524 61.4761 44.6232 61.4761H47.93C48.5007 61.4761 48.9635 61.0136 48.9635 60.4427V56.0334C48.9635 55.4625 48.5008 55 47.9302 55ZM46.8967 59.4091H45.6566V57.0668H46.8967V59.4091Z" fill="#D7282F"/>
<path d="M55.6468 55H52.34C51.7693 55 51.3066 55.4625 51.3066 56.0334V60.4427C51.3066 61.0135 51.7692 61.4761 52.34 61.4761H55.6468C56.2175 61.4761 56.6803 61.0136 56.6803 60.4427V56.0334C56.6803 55.4625 56.2175 55 55.6468 55ZM54.6134 59.4091H53.3733V57.0668H54.6134V59.4091Z" fill="#D7282F"/>
<path d="M63.3636 55H60.0568C59.4861 55 59.0234 55.4625 59.0234 56.0334V60.4427C59.0234 61.0135 59.486 61.4761 60.0568 61.4761H63.3636C63.9343 61.4761 64.3971 61.0136 64.3971 60.4427V56.0334C64.3971 55.4625 63.9343 55 63.3636 55ZM62.3302 59.4091H61.0901V57.0668H62.3302V59.4091Z" fill="#D7282F"/>
<path d="M14.861 16.4199C13.0755 16.4199 11.623 17.8724 11.623 19.6579C11.623 21.4434 13.0755 22.8959 14.861 22.8959C16.6464 22.8959 18.099 21.4434 18.099 19.6579C18.099 17.8724 16.6464 16.4199 14.861 16.4199ZM14.861 20.829C14.2151 20.829 13.6897 20.3036 13.6897 19.6578C13.6897 19.012 14.2151 18.4865 14.861 18.4865C15.5068 18.4865 16.0322 19.012 16.0322 19.6578C16.0322 20.3036 15.5068 20.829 14.861 20.829Z" fill="#D7282F"/>
<path d="M25.8852 10.9082C23.4919 10.9082 21.5449 12.8553 21.5449 15.2485C21.5449 17.6416 23.4921 19.5887 25.8852 19.5887C28.2784 19.5887 30.2255 17.6416 30.2255 15.2485C30.2255 12.8553 28.2784 10.9082 25.8852 10.9082ZM25.8852 17.522C24.6316 17.522 23.6117 16.5021 23.6117 15.2485C23.6117 13.9949 24.6316 12.975 25.8852 12.975C27.1388 12.975 28.1587 13.9949 28.1587 15.2485C28.1587 16.5021 27.1388 17.522 25.8852 17.522Z" fill="#D7282F"/>
<path d="M42.4195 0.987305C37.595 0.987305 33.6699 4.91224 33.6699 9.73682C33.6699 14.5613 37.595 18.4863 42.4195 18.4863C47.2439 18.4863 51.169 14.5613 51.169 9.73682C51.169 4.91224 47.2439 0.987305 42.4195 0.987305ZM42.4195 16.4194C38.7347 16.4194 35.7368 13.4216 35.7368 9.73682C35.7368 6.05203 38.7347 3.05419 42.4195 3.05419C46.1042 3.05419 49.1021 6.05203 49.1021 9.73682C49.1021 13.4216 46.1042 16.4194 42.4195 16.4194Z" fill="#D7282F"/>
<path d="M45.3506 5.60258C44.3811 5.77995 41.1394 6.43699 40.1292 7.44723C39.5175 8.05877 39.1808 8.87203 39.1808 9.73686C39.1808 10.2449 39.2977 10.7346 39.5176 11.1765L38.5703 12.1238C38.1667 12.5274 38.1667 13.1817 38.5703 13.5852C38.772 13.7872 39.0364 13.888 39.3009 13.888C39.5653 13.888 39.8298 13.7872 40.0316 13.5855L40.979 12.6382C42.2114 13.2511 43.7367 12.9983 44.7083 12.0266C45.7185 11.0164 46.3758 7.77478 46.553 6.80514C46.681 6.10647 46.0498 5.47444 45.3506 5.60258ZM43.2469 10.5651C42.7955 11.0165 42.042 11.0164 41.5907 10.565C41.1393 10.1135 41.1393 9.36019 41.5907 8.90876C41.8378 8.66526 42.9106 8.28808 44.1869 7.96891C43.8676 9.24508 43.4904 10.318 43.2469 10.5651Z" fill="#D7282F"/>
</g>
</g>
<defs>
<clipPath id="clip0_2536_17507">
<rect width="67" height="67" fill="white" transform="translate(0.705078)"/>
</clipPath>
</defs>
</svg>
