<svg width="67" height="74" viewBox="0 0 67 74" fill="none" xmlns="http://www.w3.org/2000/svg">
<g clip-path="url(#clip0_2536_17555)">
<mask id="mask0_2536_17555" style="mask-type:luminance" maskUnits="userSpaceOnUse" x="0" y="0" width="67" height="74">
<path d="M66.7051 0H0.705078V73.421H66.7051V0Z" fill="white"/>
</mask>
<g mask="url(#mask0_2536_17555)">
<path fill-rule="evenodd" clip-rule="evenodd" d="M47.3461 47.9918C47.7316 47.9822 48.1095 48.0998 48.4216 48.3264C48.8398 48.5952 49.3118 49.121 49.8974 49.4497C50.7219 49.9217 52.2456 49.2764 53.0223 50.4355C53.3613 50.947 53.5383 51.5488 53.5302 52.1623C53.5536 52.8393 53.8065 53.4882 54.2472 54.0026C55.2032 55.2693 55.4004 56.1118 54.9104 56.9901C54.5698 57.5876 53.8648 57.9222 53.7154 58.2987C53.3689 59.1053 53.7513 59.7088 53.2792 60.6528C53.1281 60.9621 52.9147 61.2368 52.6526 61.4599C52.3904 61.683 52.0851 61.8496 51.7556 61.9494C51.1581 62.1346 50.6024 61.8657 50.1424 62.0629C49.3357 62.4035 48.7442 63.1922 48.0989 63.3953C47.8593 63.4713 47.6094 63.5096 47.358 63.5089C47.1067 63.5092 46.8568 63.4709 46.6171 63.3953C45.9718 63.1982 45.3803 62.4035 44.5736 62.0629C44.1136 61.8717 43.54 62.1346 42.9604 61.9494C42.6308 61.8516 42.3253 61.6856 42.0639 61.4623C41.8025 61.2389 41.5908 60.9631 41.4427 60.6528C40.9647 59.7088 41.3471 59.1053 41.0006 58.2987C40.8393 57.9163 40.1342 57.5817 39.8056 56.9901C39.3097 56.1118 39.5068 55.2693 40.4688 54.0026C40.9071 53.4868 41.1596 52.8387 41.1858 52.1623C41.1763 51.5486 41.3534 50.9464 41.6937 50.4355C42.4704 49.2764 44 49.9277 44.8186 49.4497C45.4161 49.121 45.8762 48.5893 46.2945 48.3264C46.6077 48.1022 46.9848 47.9848 47.37 47.9918H47.3461ZM10.044 73.4154C7.68987 73.4513 5.62252 73.3497 3.99134 72.5849C1.92996 71.617 0.705078 69.7886 0.705078 66.3231V63.1623H9.72735V8.001C9.5959 4.82827 10.3667 2.85652 11.7828 1.62567C13.1989 0.394813 15.1109 0.0482627 17.3694 0.000462569C17.477 -0.0533126 62.0745 0.000462569 66.7051 0.000462569V65.8152C66.7051 68.4801 66.0478 70.3682 64.6975 71.6289C63.3471 72.8896 61.4351 73.4214 58.8539 73.4214L10.044 73.4154ZM21.05 14.0477C20.7125 14.0477 20.3888 13.9136 20.1501 13.675C19.9114 13.4363 19.7773 13.1126 19.7773 12.775C19.7773 12.4375 19.9114 12.1138 20.1501 11.8751C20.3888 11.6364 20.7125 11.5024 21.05 11.5024H44.2629C44.6005 11.5024 44.9242 11.6364 45.1629 11.8751C45.4015 12.1138 45.5356 12.4375 45.5356 12.775C45.5356 13.1126 45.4015 13.4363 45.1629 13.675C44.9242 13.9136 44.6005 14.0477 44.2629 14.0477H21.05ZM21.05 22.7175C20.7125 22.7175 20.3888 22.5834 20.1501 22.3447C19.9114 22.106 19.7773 21.7823 19.7773 21.4448C19.7773 21.1072 19.9114 20.7835 20.1501 20.5449C20.3888 20.3062 20.7125 20.1721 21.05 20.1721H55.1673C55.5049 20.1721 55.8286 20.3062 56.0673 20.5449C56.3059 20.7835 56.44 21.1072 56.44 21.4448C56.44 21.7823 56.3059 22.106 56.0673 22.3447C55.8286 22.5834 55.5049 22.7175 55.1673 22.7175H21.05ZM21.05 48.7088C20.7141 48.7088 20.3919 48.5753 20.1543 48.3378C19.9168 48.1002 19.7833 47.778 19.7833 47.4421C19.7833 47.1061 19.9168 46.7839 20.1543 46.5464C20.3919 46.3088 20.7141 46.1754 21.05 46.1754H32.8268C33.1627 46.1754 33.4849 46.3088 33.7225 46.5464C33.96 46.7839 34.0935 47.1061 34.0935 47.4421C34.0935 47.778 33.96 48.1002 33.7225 48.3378C33.4849 48.5753 33.1627 48.7088 32.8268 48.7088H21.05ZM21.05 40.051C20.7125 40.051 20.3888 39.9169 20.1501 39.6782C19.9114 39.4395 19.7773 39.1158 19.7773 38.7783C19.7773 38.4408 19.9114 38.1171 20.1501 37.8784C20.3888 37.6397 20.7125 37.5056 21.05 37.5056H55.1673C55.5049 37.5056 55.8286 37.6397 56.0673 37.8784C56.3059 38.1171 56.44 38.4408 56.44 38.7783C56.44 39.1158 56.3059 39.4395 56.0673 39.6782C55.8286 39.9169 55.5049 40.051 55.1673 40.051H21.05ZM21.05 31.3633C20.7172 31.3633 20.3981 31.2311 20.1628 30.9958C19.9275 30.7605 19.7953 30.4413 19.7953 30.1086C19.7953 29.7758 19.9275 29.4566 20.1628 29.2213C20.3981 28.986 20.7172 28.8538 21.05 28.8538H55.3645C55.6973 28.8538 56.0165 28.986 56.2518 29.2213C56.4871 29.4566 56.6193 29.7758 56.6193 30.1086C56.6193 30.4413 56.4871 30.7605 56.2518 30.9958C56.0165 31.2311 55.6973 31.3633 55.3645 31.3633H21.05ZM20.4226 57.8446C23.3743 53.9668 25.8898 55.7234 29.3852 58.1732L29.905 58.5377C30.867 59.2069 31.9843 58.221 33.0419 57.2829C33.5312 56.8275 34.0545 56.41 34.6073 56.0341L35.6948 57.749C35.2352 58.0668 34.7998 58.4183 34.3922 58.8006C32.7431 60.2525 31.0163 61.7881 28.7518 60.2047L28.22 59.8342C25.6448 58.0417 23.7985 56.7452 22.0239 59.0754L20.4226 57.8446ZM9.72735 65.7256H3.25044V66.3231C3.25044 68.6115 3.93159 69.7528 5.04294 70.2845C6.15429 70.8163 7.79742 70.882 9.70942 70.882V65.7256H9.72735ZM64.1657 65.8332V2.56972H17.3814C15.6904 2.56972 14.3042 2.80274 13.4438 3.54365C12.5834 4.28455 12.1652 5.61697 12.2488 7.94125V70.8701H58.8539C60.7779 70.8701 62.1462 70.5355 62.9647 69.7647C63.7833 68.9939 64.1597 67.7332 64.1597 65.8152L64.1657 65.8332ZM47.3461 51.0988C48.2657 51.0976 49.165 51.3692 49.9303 51.8793C50.6955 52.3894 51.2923 53.115 51.645 53.9643C51.9978 54.8136 52.0907 55.7484 51.912 56.6506C51.7333 57.5527 51.291 58.3815 50.6412 59.0322C49.9913 59.683 49.163 60.1263 48.2611 60.3061C47.3592 60.486 46.4242 60.3943 45.5745 60.0426C44.7247 59.6909 43.9984 59.0951 43.4873 58.3306C42.9763 57.566 42.7035 56.667 42.7035 55.7473C42.7035 54.5155 43.1924 53.334 44.0629 52.4624C44.9334 51.5908 46.1142 51.1004 47.3461 51.0988Z" fill="#D7282F"/>
</g>
</g>
<defs>
<clipPath id="clip0_2536_17555">
<rect width="66" height="74" fill="white" transform="translate(0.705078)"/>
</clipPath>
</defs>
</svg>
