<svg width="68" height="67" viewBox="0 0 68 67" fill="none" xmlns="http://www.w3.org/2000/svg">
<mask id="mask0_2536_17488" style="mask-type:luminance" maskUnits="userSpaceOnUse" x="1" y="0" width="67" height="67">
<path d="M67.7031 0.438477H1.70312V66.4385H67.7031V0.438477Z" fill="white"/>
</mask>
<g mask="url(#mask0_2536_17488)">
<path d="M8.99962 63.3389H58.227C60.0453 63.3389 61.5235 61.9659 61.5235 60.2769V3.50046C61.5235 1.81269 60.0453 0.438477 58.227 0.438477H8.99962C7.18127 0.438477 5.70312 1.81269 5.70312 3.50046V60.2757C5.70312 61.9659 7.18259 63.3389 8.99962 63.3389ZM9.65892 4.11285H57.5677V59.6633H9.65892V4.11285Z" fill="#D7282F"/>
<path d="M49.2565 12.1999H42.1506C42.1585 12.1473 42.1836 12.102 42.1836 12.0468V10.5159C42.1836 9.83855 41.5941 9.29107 40.865 9.29107H36.8274V8.52557C36.8274 7.84826 36.238 7.30078 35.5088 7.30078H31.7178C30.99 7.30078 30.3992 7.84826 30.3992 8.52557V9.29107H26.3603C25.6325 9.29107 25.0417 9.83855 25.0417 10.5159V12.0468C25.0417 12.102 25.0681 12.1473 25.0747 12.1999H17.9701C16.9389 12.1999 16.0977 12.9801 16.0977 13.9392V53.3787C16.0977 54.3377 16.9389 55.1179 17.9701 55.1179H38.8976C39.6439 55.1179 40.592 54.786 41.155 54.3279L50.1031 47.0391C50.6964 46.5578 51.1263 45.676 51.1263 44.9435V13.9392C51.1289 12.9801 50.2877 12.1999 49.2565 12.1999ZM40.7529 51.1875V46.7023H46.2593L40.7529 51.1875ZM48.3203 44.0947H39.8167C38.7842 44.0947 37.9443 44.8737 37.9443 45.8327V52.5091H18.9076H18.9063L18.9076 14.8088H48.3203V44.0947Z" fill="#D7282F"/>
<path d="M26.1241 39.7658C26.1742 39.7683 26.2243 39.7683 26.2744 39.7683C27.593 39.7683 28.7903 39.2465 29.8359 38.2152C32.2556 35.8269 38.242 35.2476 41.5886 36.3609C42.2571 36.5838 43.3859 37.0749 43.4426 37.8649C43.4676 38.203 43.7762 38.4516 44.1441 38.4357C44.5067 38.4124 44.7823 38.1209 44.7585 37.7841C44.6794 36.6818 43.7102 35.7681 42.0343 35.2084C38.2446 33.9493 31.6714 34.6205 28.876 37.3762C28.0519 38.1907 27.1605 38.5692 26.1702 38.5435C23.8218 38.4749 21.6949 36.1245 21.6725 36.1025C21.4391 35.8416 21.0237 35.8061 20.7442 36.0216C20.4646 36.2372 20.4251 36.6218 20.6572 36.8827C20.7574 36.9953 23.177 39.6776 26.1241 39.7658Z" fill="#D7282F"/>
<path d="M26.1254 33.4054C26.1755 33.4066 26.2256 33.4078 26.2757 33.4078C27.5943 33.4078 28.7916 32.8849 29.8373 31.8524C32.2582 29.4652 38.246 28.8884 41.5886 29.998C42.2571 30.2209 43.3872 30.7121 43.4439 31.5033C43.4689 31.8413 43.7775 32.0936 44.1454 32.074C44.508 32.052 44.7836 31.7593 44.7598 31.4225C44.6807 30.3201 43.7116 29.4052 42.0343 28.8455C38.242 27.584 31.6714 28.2564 28.876 31.0122C28.0519 31.8254 27.1605 32.2112 26.1702 32.1794C23.8218 32.112 21.6949 29.7604 21.6725 29.7384C21.4391 29.4787 21.0237 29.4432 20.7442 29.6575C20.4646 29.8731 20.4251 30.2577 20.6572 30.5186C20.7587 30.6349 23.1783 33.3172 26.1254 33.4054Z" fill="#D7282F"/>
<path d="M26.1254 27.0496C26.1755 27.052 26.2256 27.052 26.2757 27.052C27.5943 27.052 28.7916 26.5303 29.8373 25.499C32.2569 23.1107 38.2446 22.5313 41.5886 23.6435C42.2571 23.8664 43.3872 24.3575 43.4439 25.1487C43.4689 25.4855 43.7775 25.7329 44.1454 25.7195C44.508 25.695 44.7836 25.4035 44.7598 25.0667C44.6807 23.9643 43.7116 23.0494 42.0343 22.4909C38.242 21.2294 31.6714 21.9018 28.876 24.66C28.0519 25.4733 27.1605 25.8346 26.1702 25.8273C23.8218 25.7587 21.6949 23.4083 21.6725 23.385C21.4391 23.1254 21.0237 23.0886 20.7442 23.3042C20.4646 23.5197 20.4251 23.9056 20.6572 24.1652C20.7587 24.2791 23.1783 26.9626 26.1254 27.0496Z" fill="#D7282F"/>
</g>
</svg>
