<svg width="68" height="67" viewBox="0 0 68 67" fill="none" xmlns="http://www.w3.org/2000/svg">
<path d="M35.0053 31.2144H39.589C40.2216 31.2144 40.735 30.701 40.735 30.0685V25.4848C40.735 24.8523 40.2216 24.3389 39.589 24.3389H35.0053C34.3728 24.3389 33.8594 24.8523 33.8594 25.4848V30.0685C33.8594 30.701 34.3728 31.2144 35.0053 31.2144ZM38.4431 26.6308V28.9226H36.1513V26.6308H38.4431Z" fill="#D7282F"/>
<path d="M16.6713 49.5483H21.255C21.8876 49.5483 22.401 49.0349 22.401 48.4024V43.8188C22.401 43.1863 21.8876 42.6729 21.255 42.6729H16.6713C16.0388 42.6729 15.5254 43.1863 15.5254 43.8188V48.4025C15.5254 49.035 16.0388 49.5483 16.6713 49.5483ZM17.8173 44.9647H20.1091V47.2565H17.8173V44.9647Z" fill="#D7282F"/>
<path d="M16.6713 22.0464H21.255C21.8876 22.0464 22.401 21.533 22.401 20.9004V16.3168C22.401 15.6843 21.8876 15.1709 21.255 15.1709H16.6713C16.0388 15.1709 15.5254 15.6843 15.5254 16.3168V20.9005C15.5254 21.5331 16.0388 22.0464 16.6713 22.0464ZM17.8173 17.4628H20.1091V19.7546H17.8173V17.4628Z" fill="#D7282F"/>
<path d="M48.6371 58.7159H45.3185V11.7334C45.3185 11.1009 44.8051 10.5875 44.1725 10.5875H40.7348V7.14975C40.7349 6.51731 40.2215 6.00391 39.589 6.00391H16.6707C16.0382 6.00391 15.5248 6.51731 15.5248 7.14985V10.5876H12.0871C11.4545 10.5876 10.9411 11.101 10.9411 11.7335V58.7159H7.50337C6.87083 58.7159 6.35742 59.2293 6.35742 59.8619C6.35742 60.4944 6.87083 61.0078 7.50337 61.0078H21.2543C21.8869 61.0078 22.4003 60.4944 22.4003 59.8619V54.1322H33.8594V59.8618C33.8594 60.4943 34.3728 61.0077 35.0054 61.0077H48.6372C49.2697 61.0077 49.7831 60.4943 49.7831 59.8618C49.783 59.2292 49.2696 58.7159 48.6371 58.7159ZM17.8167 8.2957H38.4431V10.5875H17.8167V8.2957ZM43.0267 58.7159H36.1512V52.9864C36.1512 52.3538 35.6378 51.8404 35.0053 51.8404H21.2543C20.6218 51.8404 20.1084 52.3538 20.1084 52.9864V58.7159H13.2329V12.8794H43.0266V58.7159H43.0267Z" fill="#D7282F"/>
<path d="M25.8374 49.5483H30.421C31.0536 49.5483 31.567 49.0349 31.567 48.4024V43.8188C31.567 43.1863 31.0536 42.6729 30.421 42.6729H25.8374C25.2048 42.6729 24.6914 43.1863 24.6914 43.8188V48.4025C24.6915 49.035 25.2048 49.5483 25.8374 49.5483ZM26.9833 44.9647H29.2751V47.2565H26.9833V44.9647Z" fill="#D7282F"/>
<path d="M35.0053 22.0464H39.589C40.2216 22.0464 40.735 21.533 40.735 20.9004V16.3168C40.735 15.6843 40.2216 15.1709 39.589 15.1709H35.0053C34.3728 15.1709 33.8594 15.6843 33.8594 16.3168V20.9005C33.8594 21.5331 34.3728 22.0464 35.0053 22.0464ZM38.4431 17.4628V19.7546H36.1513V17.4628H38.4431Z" fill="#D7282F"/>
<path d="M16.6713 31.2144H21.255C21.8876 31.2144 22.401 30.701 22.401 30.0685V25.4848C22.401 24.8523 21.8876 24.3389 21.255 24.3389H16.6713C16.0388 24.3389 15.5254 24.8523 15.5254 25.4848V30.0685C15.5254 30.701 16.0388 31.2144 16.6713 31.2144ZM17.8173 26.6308H20.1091V28.9226H17.8173V26.6308Z" fill="#D7282F"/>
<path d="M25.8374 40.3814H30.421C31.0536 40.3814 31.567 39.868 31.567 39.2355V34.6518C31.567 34.0193 31.0536 33.5059 30.421 33.5059H25.8374C25.2048 33.5059 24.6914 34.0193 24.6914 34.6518V39.2355C24.6915 39.868 25.2048 40.3814 25.8374 40.3814ZM26.9833 35.7978H29.2751V38.0895H26.9833V35.7978Z" fill="#D7282F"/>
<path d="M25.8374 22.0464H30.421C31.0536 22.0464 31.567 21.533 31.567 20.9004V16.3168C31.567 15.6843 31.0536 15.1709 30.421 15.1709H25.8374C25.2048 15.1709 24.6914 15.6843 24.6914 16.3168V20.9005C24.6915 21.5331 25.2048 22.0464 25.8374 22.0464ZM26.9833 17.4628H29.2751V19.7546H26.9833V17.4628Z" fill="#D7282F"/>
<path d="M25.8374 31.2144H30.421C31.0536 31.2144 31.567 30.701 31.567 30.0685V25.4848C31.567 24.8523 31.0536 24.3389 30.421 24.3389H25.8374C25.2048 24.3389 24.6914 24.8523 24.6914 25.4848V30.0685C24.6915 30.701 25.2048 31.2144 25.8374 31.2144ZM26.9833 26.6308H29.2751V28.9226H26.9833V26.6308Z" fill="#D7282F"/>
<path d="M35.0053 49.5483H39.589C40.2216 49.5483 40.735 49.0349 40.735 48.4024V43.8188C40.735 43.1863 40.2216 42.6729 39.589 42.6729H35.0053C34.3728 42.6729 33.8594 43.1863 33.8594 43.8188V48.4025C33.8594 49.035 34.3728 49.5483 35.0053 49.5483ZM38.4431 44.9647V47.2565H36.1513V44.9647H38.4431Z" fill="#D7282F"/>
<path d="M16.6713 40.3814H21.255C21.8876 40.3814 22.401 39.868 22.401 39.2355V34.6518C22.401 34.0193 21.8876 33.5059 21.255 33.5059H16.6713C16.0388 33.5059 15.5254 34.0193 15.5254 34.6518V39.2355C15.5254 39.868 16.0388 40.3814 16.6713 40.3814ZM17.8173 35.7978H20.1091V38.0895H17.8173V35.7978Z" fill="#D7282F"/>
<path d="M35.0053 40.3814H39.589C40.2216 40.3814 40.735 39.868 40.735 39.2355V34.6518C40.735 34.0193 40.2216 33.5059 39.589 33.5059H35.0053C34.3728 33.5059 33.8594 34.0193 33.8594 34.6518V39.2355C33.8594 39.868 34.3728 40.3814 35.0053 40.3814ZM38.4431 35.7978V38.0895H36.1513V35.7978H38.4431Z" fill="#D7282F"/>
</svg>
