<svg width="68" height="67" viewBox="0 0 68 67" fill="none" xmlns="http://www.w3.org/2000/svg">
<g clip-path="url(#clip0_2536_17544)">
<mask id="mask0_2536_17544" style="mask-type:luminance" maskUnits="userSpaceOnUse" x="1" y="0" width="67" height="67">
<path d="M67.6348 0.233398H1.63477V66.2334H67.6348V0.233398Z" fill="white"/>
</mask>
<g mask="url(#mask0_2536_17544)">
<path d="M12.2832 32.7353L9.59538 35.4221L15.646 41.4726L18.3327 38.7848C19.4793 39.4362 20.6922 39.941 21.9564 40.2908V44.0856H30.513V40.2908C31.7772 39.941 32.9891 39.4362 34.1367 38.7848L36.8235 41.4726L42.874 35.4221L40.1862 32.7353C40.8376 31.5887 41.3424 30.3758 41.6922 29.1116H45.487V20.555H41.6922C41.3424 19.2908 40.8376 18.079 40.1862 16.9313L42.874 14.2446L36.8235 8.19403L34.1367 10.8818C32.9891 10.2305 31.7772 9.72564 30.513 9.37589V5.58105H21.9564V9.37589C20.6922 9.72564 19.4804 10.2305 18.3327 10.8818L15.646 8.19403L9.59538 14.2446L12.2832 16.9313C11.6319 18.079 11.127 19.2908 10.7773 20.555H6.98242V29.1116H10.7773C11.127 30.3758 11.6319 31.5877 12.2832 32.7353ZM9.12157 22.6942H12.4747L12.6587 21.8535C13.0095 20.2534 13.6395 18.7368 14.5325 17.3453L14.9978 16.6201L12.6212 14.2446L15.647 11.2188L18.0226 13.5953L18.7477 13.1301C20.1392 12.237 21.6559 11.607 23.256 11.2562L24.0956 11.0733V7.7202H28.3739V11.0733L29.2145 11.2573C30.8146 11.6081 32.3313 12.2381 33.7228 13.1312L34.448 13.5964L36.8235 11.2198L39.8493 14.2456L37.4727 16.6212L37.938 17.3463C38.8311 18.7378 39.461 20.2545 39.8118 21.8546L39.9947 22.6942H43.3479V26.9725H39.9947L39.8108 27.8132C39.46 29.4132 38.83 30.9299 37.9369 32.3214L37.4716 33.0466L39.8482 35.4221L36.8224 38.4479L34.4469 36.0713L33.7217 36.5366C32.3302 37.4297 30.8136 38.0596 29.2135 38.4105L28.3739 38.5934V41.9465H24.0956V38.5934L23.2549 38.4094C21.6548 38.0586 20.1382 37.4286 18.7467 36.5355L18.0215 36.0702L15.646 38.4468L12.6202 35.421L14.9967 33.0455L14.5315 32.3203C13.6384 30.9288 13.0084 29.4122 12.6576 27.8121L12.4747 26.9725H9.12157V22.6942Z" fill="#D7282F"/>
<path d="M26.234 36.5989C32.7209 36.5989 37.9993 31.3206 37.9993 24.8336C37.9993 18.3467 32.7209 13.0684 26.234 13.0684C19.747 13.0684 14.4688 18.3467 14.4688 24.8336C14.4688 31.3206 19.747 36.5989 26.234 36.5989ZM31.5819 32.8319C30.0513 33.8587 28.2116 34.4598 26.234 34.4598C24.2563 34.4598 22.4168 33.8587 20.8862 32.8319V31.2511C20.8862 29.482 22.3257 28.0424 24.0948 28.0424H28.3732C30.1423 28.0424 31.5819 29.482 31.5819 31.2511V32.8319ZM29.4427 20.5554C29.4427 22.3244 28.003 23.7641 26.234 23.7641C24.4649 23.7641 23.0253 22.3244 23.0253 20.5554C23.0253 18.7863 24.4649 17.3466 26.234 17.3466C28.003 17.3466 29.4427 18.7863 29.4427 20.5554ZM25.9592 15.2145C23.1376 15.358 20.8862 17.6987 20.8862 20.5554C20.8862 23.5042 23.2851 25.9032 26.234 25.9032C29.1828 25.9032 31.5819 23.5042 31.5819 20.5554C31.5819 17.6987 29.3305 15.358 26.5089 15.2145C31.6902 15.3609 35.8602 19.6175 35.8602 24.8336C35.8602 27.1396 35.0441 29.2574 33.6868 30.9163C33.5103 28.1258 31.2076 25.9032 28.3732 25.9032H26.234H24.0948C21.2604 25.9032 18.9578 28.1258 18.7813 30.9163C17.424 29.2574 16.6079 27.1396 16.6079 24.8336C16.6079 19.6175 20.7779 15.3609 25.9592 15.2145Z" fill="#D7282F"/>
<path d="M13.8429 55.8511L7.42542 49.4336L12.3305 44.5286L16.166 48.3641H36.3039L49.7655 34.9025V14.7646L45.93 10.9291L50.835 6.02405L57.2525 12.4415V42.3895L66.1224 51.2594L67.6348 49.747L59.3916 41.5039V11.5559L48.0691 0.233398H46.114L40.1393 6.20802V8.1632L47.6263 15.6502V34.0169L35.4182 46.2249H17.0516L9.56456 38.7379H7.60939L1.63477 44.7126V46.6677L12.9573 57.9902H42.9052L51.1484 66.2334L52.6608 64.721L43.7908 55.8511H13.8429ZM42.2785 7.27759V7.09362L46.9996 2.37254H47.1835L49.3227 4.51168L44.4176 9.41673L42.2785 7.27759ZM3.77391 45.7821V45.5982L8.49499 40.8771H8.67896L10.8181 43.0162L5.91305 47.9213L3.77391 45.7821Z" fill="#D7282F"/>
<path d="M52.9205 45.1553C49.4112 45.1553 46.5566 48.01 46.5566 51.5192C46.5566 53.2188 47.2186 54.8167 48.4208 56.0189L58.6352 66.2333L60.1476 64.7209L49.9332 54.5065C49.1353 53.7086 48.6957 52.6476 48.6957 51.5192C48.6957 49.1897 50.591 47.2944 52.9205 47.2944C54.0489 47.2944 55.1099 47.734 55.9078 48.5319L66.1222 58.7463L67.6346 57.2339L57.4202 47.0195C56.218 45.8173 54.6201 45.1553 52.9205 45.1553Z" fill="#D7282F"/>
</g>
</g>
<defs>
<clipPath id="clip0_2536_17544">
<rect width="67" height="67" fill="white" transform="translate(0.705078)"/>
</clipPath>
</defs>
</svg>
