<svg width="18" height="18" viewBox="0 0 18 18" fill="none" xmlns="http://www.w3.org/2000/svg">
<path d="M14.9624 14.4022H4.03359V3.475H8.88955V2.25977H2.81836V15.6174H16.176V10.7598H14.9624V14.4022Z" fill="#D7282F"/>
<path d="M7.67705 10.1521H8.89062C8.89062 8.47871 10.252 7.11572 11.927 7.11572C13.6021 7.11572 14.9635 8.47705 14.9635 10.1521H16.177C16.177 8.45547 15.1776 6.98789 13.7366 6.30723C14.1218 5.87725 14.3559 5.30947 14.3559 4.68857C14.3559 3.34717 13.2685 2.25977 11.927 2.25977C10.5856 2.25977 9.49824 3.34717 9.49824 4.68857C9.49824 5.31113 9.73232 5.87891 10.1175 6.30723C8.67646 6.98955 7.67705 8.45547 7.67705 10.1521ZM11.927 3.475C12.5961 3.475 13.1406 4.01953 13.1406 4.68857C13.1406 5.35762 12.5961 5.90215 11.927 5.90215C11.258 5.90215 10.7135 5.35762 10.7135 4.68857C10.7135 4.01953 11.258 3.475 11.927 3.475ZM4.64062 4.68857H8.28301V5.90215H4.64062V4.68857ZM4.64062 11.3674H14.3542V12.581H4.64062V11.3674ZM4.64062 7.11738H7.06943V8.33096H4.64062V7.11738Z" fill="#D7282F"/>
</svg>
