<svg width="12" height="17" viewBox="0 0 12 17" fill="none" xmlns="http://www.w3.org/2000/svg">
<path d="M11.8943 9.48029C11.8943 7.28869 10.5746 5.40058 8.68986 4.56988C8.68751 3.68896 7.97128 2.973 7.09107 2.973H4.43842V1.87023C4.43842 1.64408 4.25517 1.46083 4.02902 1.46083H3.59685C3.4927 0.880412 2.98505 0.438477 2.37597 0.438477C1.76689 0.438477 1.25923 0.880412 1.15508 1.46083H0.722803C0.49665 1.46083 0.313402 1.64408 0.313402 1.87023V9.32112C0.313402 9.54727 0.49665 9.73052 0.722803 9.73052H0.738688V11.0318C0.738688 11.2579 0.921936 11.4412 1.14809 11.4412H3.6039C3.83005 11.4412 4.0133 11.2579 4.0133 11.0318V9.73052H4.02896C4.25512 9.73052 4.43837 9.54727 4.43837 9.32112V6.17577H6.13247V6.71465C6.13247 6.94081 6.31572 7.12405 6.54187 7.12405C7.82957 7.12405 8.8772 8.17409 8.8772 9.46479C8.8772 10.7558 7.85141 11.7671 6.54187 11.7671C6.31572 11.7671 6.13247 11.9503 6.13247 12.1765V12.6415H0.640213C0.41406 12.6415 0.230812 12.8247 0.230812 13.0509C0.230812 13.277 0.41406 13.4603 0.640213 13.4603H6.13252V13.9538H0.512917C0.286818 13.9538 0.103516 14.1371 0.103516 14.3632V16.0291C0.103516 16.2553 0.286818 16.4385 0.512917 16.4385H9.03572C9.26188 16.4385 9.44512 16.2553 9.44512 16.0291V14.3632C9.44512 14.2297 9.38087 14.1114 9.28196 14.0367C9.65741 13.8169 10.0075 13.5506 10.324 13.2396C11.3366 12.2447 11.8943 10.9096 11.8943 9.48029ZM2.37597 1.25728C2.52826 1.25728 2.66162 1.339 2.73586 1.46083H2.01613C2.09031 1.339 2.22367 1.25728 2.37597 1.25728ZM3.19455 10.6224H1.55749V9.73052H3.19449L3.19455 10.6224ZM4.02902 5.35697C3.80287 5.35697 3.61962 5.54022 3.61962 5.76637V8.91172H1.1322V2.27964H3.61956V3.3824C3.61956 3.60855 3.80281 3.7918 4.02896 3.7918H7.09101C7.52116 3.7918 7.87111 4.14285 7.87111 4.57425C7.87111 5.00581 7.52116 5.35697 7.09101 5.35697H4.02902ZM8.62632 15.6197H0.922318V14.7726H8.62632V15.6197ZM6.95132 13.9363V12.5603C7.63917 12.4737 8.27369 12.1695 8.76967 11.6822C9.36707 11.0952 9.69611 10.3077 9.69611 9.46474C9.69611 7.86158 8.49782 6.53342 6.95138 6.33167V6.17572H7.09112C7.68224 6.17572 8.19907 5.85251 8.47572 5.37356C10.0106 6.10219 11.0755 7.66817 11.0755 9.48024C11.0755 10.6881 10.6049 11.8158 9.75021 12.6554C8.99429 13.3982 8.01255 13.8448 6.95132 13.9363Z" fill="#D7282F"/>
<path d="M7.40083 4.59592C7.40083 4.4879 7.35716 4.38249 7.28074 4.30607C7.20432 4.23014 7.09897 4.18652 6.99143 4.18652C6.8839 4.18652 6.778 4.23019 6.70212 4.30607C6.6257 4.38244 6.58203 4.48784 6.58203 4.59592C6.58203 4.70352 6.6257 4.80936 6.70212 4.88523C6.778 4.96166 6.8839 5.00533 6.99143 5.00533C7.09897 5.00533 7.20487 4.96166 7.28074 4.88523C7.35716 4.80887 7.40083 4.70352 7.40083 4.59592Z" fill="#D7282F"/>
</svg>
