<svg width="68" height="67" viewBox="0 0 68 67" fill="none" xmlns="http://www.w3.org/2000/svg">
<g clip-path="url(#clip0_2536_17533)">
<path d="M65.8823 35.6945C67.0373 34.5395 67.6994 32.9406 67.6994 31.3077C67.6994 29.6747 67.0373 28.0758 65.8823 26.9208L57.0543 18.0928L47.0329 28.1141L51.291 32.3722L33.6349 50.0283L29.3768 45.7702L19.3555 55.7915L28.1835 64.6196C29.3385 65.7746 30.9374 66.4367 32.5704 66.4367C34.2034 66.4367 35.8023 65.7746 36.9573 64.6196L39.4131 62.1637C42.5268 64.9166 46.4762 66.4367 50.6672 66.4367C60.0583 66.4367 67.6994 58.7956 67.6994 49.4044C67.6994 45.2124 66.1793 41.262 63.4265 38.1504L65.8823 35.6945ZM50.0434 28.1141L57.0543 21.1032L58.7426 22.7915L51.7317 29.8025L50.0434 28.1141ZM22.3659 55.7915L29.3768 48.7806L31.0652 50.469L24.0543 57.4799L22.3659 55.7915ZM37.8706 60.6947L35.452 63.1144C34.693 63.8734 33.6434 64.3077 32.5704 64.3077C31.4974 64.3077 30.4477 63.8734 29.6887 63.1144L25.5595 58.9851L32.5704 51.9742L33.6349 53.0387L54.3014 32.3722L53.2369 31.3077L60.2478 24.2968L64.3771 28.426C65.1361 29.185 65.5704 30.2346 65.5704 31.3077C65.5704 32.3807 65.1361 33.4303 64.3771 34.1893L61.9585 36.6079L37.8706 60.6947ZM65.5704 49.4044C65.5704 57.6225 58.8852 64.3077 50.6672 64.3077C47.0436 64.3077 43.6169 63.0228 40.9077 60.6692L61.9319 39.645C64.2855 42.3531 65.5704 45.7798 65.5704 49.4044Z" fill="#D7282F"/>
<path d="M29.3806 45.1462V41.1819C30.7421 40.7881 32.0546 40.2441 33.298 39.5575L36.1019 42.3625L43.6291 34.8353L40.8241 32.0314C41.5118 30.788 42.0547 29.4765 42.4486 28.1139H46.4128V17.4688H42.4486C42.0547 16.1073 41.5107 14.7947 40.8241 13.5514L43.6291 10.7474L36.1019 3.22023L33.298 6.02523C32.0546 5.33756 30.7431 4.79465 29.3806 4.40078V0.436523H18.7354V4.40078C17.3739 4.79465 16.0613 5.33862 14.818 6.02523L12.014 3.22023L4.48684 10.7474L7.29184 13.5514C6.60416 14.7947 6.06126 16.1062 5.66738 17.4688H1.70312V28.1139H5.66738C6.06126 29.4755 6.60522 30.788 7.29184 32.0314L4.48684 34.8353L12.014 42.3625L14.818 39.5575C16.0613 40.2452 17.3728 40.7881 18.7354 41.1819V45.1462H29.3806ZM15.2001 37.3177L14.4848 36.8813L12.0151 39.352L7.49835 34.8353L9.96909 32.3656L9.53264 31.6503C8.61184 30.1429 7.9348 28.511 7.52071 26.8003L7.32377 25.9849H3.83216V19.5978H7.32377L7.52071 18.7824C7.9348 17.0728 8.61077 15.4398 9.53264 13.9325L9.96909 13.2171L7.49835 10.7474L12.0151 6.23068L14.4848 8.70143L15.2001 8.26497C16.7075 7.34417 18.3394 6.66714 20.0501 6.25304L20.8644 6.05717V2.56556H27.2515V6.05717L28.067 6.2541C29.7766 6.6682 31.4095 7.34417 32.9169 8.26604L33.6322 8.70249L36.1019 6.23175L40.6187 10.7485L38.1479 13.2182L38.5844 13.9335C39.5052 15.4409 40.1822 17.0728 40.5963 18.7835L40.7922 19.5978H44.2838V25.9849H40.7922L40.5952 26.8003C40.1811 28.5099 39.5052 30.1429 38.5833 31.6503L38.1469 32.3656L40.6176 34.8353L36.1009 39.352L33.6312 36.8813L32.9158 37.3177C31.4085 38.2386 29.7766 38.9156 28.0659 39.3297L27.2515 39.5256V43.0172H20.8644V39.5256L20.049 39.3286C18.3394 38.9145 16.7075 38.2386 15.2001 37.3177Z" fill="#D7282F"/>
<path d="M35.769 22.7927C35.769 16.3364 30.5156 11.083 24.0593 11.083C17.603 11.083 12.3496 16.3364 12.3496 22.7927C12.3496 29.249 17.603 34.5024 24.0593 34.5024C30.5156 34.5024 35.769 29.249 35.769 22.7927ZM14.4787 22.7927C14.4787 17.5095 18.7761 13.212 24.0593 13.212C29.3425 13.212 33.64 17.5095 33.64 22.7927C33.64 28.0759 29.3425 32.3733 24.0593 32.3733C18.7761 32.3733 14.4787 28.0759 14.4787 22.7927Z" fill="#D7282F"/>
<path d="M33.9471 46.9642L35.4525 45.4588L33.3239 43.3301L31.8184 44.8355L33.9471 46.9642Z" fill="#D7282F"/>
<path d="M44.5938 32.063L46.7225 34.1917L48.2278 32.6863L46.0991 30.5576L44.5938 32.063Z" fill="#D7282F"/>
</g>
<defs>
<clipPath id="clip0_2536_17533">
<rect width="67" height="67" fill="white" transform="translate(0.705078)"/>
</clipPath>
</defs>
</svg>
