<svg width="165" height="165" viewBox="0 0 165 165" fill="none" xmlns="http://www.w3.org/2000/svg">
<g opacity="0.1">
<path d="M154.726 66.5619H143.444C142.124 66.5619 141.052 67.6322 141.052 68.9539V85.7327H130.94L115.879 67.4724C115.425 66.9223 114.749 66.6036 114.034 66.6036H89.9523V54.0266C89.9523 52.7045 88.8806 51.6346 87.5602 51.6346H65.7233V43.0826H87.713C89.0335 43.0826 90.1051 42.0126 90.1051 40.6907C90.1051 39.3687 89.0335 38.2987 87.713 38.2987H38.9492C37.6273 38.2987 36.5573 39.3687 36.5573 40.6907C36.5573 42.0126 37.6273 43.0826 38.9492 43.0826H60.9392V51.6346H38.9492C37.6273 51.6346 36.5573 52.7045 36.5573 54.0266V66.6036H23.9804C22.6584 66.6036 21.5885 67.6735 21.5885 68.9956V86.5316H11.4322V72.2487C11.4322 70.9266 10.3622 69.8567 9.04025 69.8567C7.7183 69.8567 6.64832 70.9266 6.64832 72.2487V105.599C6.64832 106.919 7.7183 107.991 9.04025 107.991C10.3622 107.991 11.4322 106.919 11.4322 105.599V91.3153H21.5885V111.36C21.5885 112.681 22.6584 113.752 23.9804 113.752H38.0467L46.4153 125.039C46.8664 125.647 47.5794 126.005 48.3367 126.005H129.813C131.134 126.005 132.205 124.934 132.205 123.613V101.496H141.052V118.021C141.052 119.341 142.124 120.413 143.444 120.413H154.726C156.046 120.413 157.118 119.341 157.118 118.021V68.9539C157.118 67.6335 156.046 66.5619 154.726 66.5619ZM129.813 96.7117C128.493 96.7117 127.421 97.7833 127.421 99.1038V121.221H49.5407L41.1722 109.935C40.7209 109.326 40.0081 108.968 39.2506 108.968H26.3724V71.3873H38.9492C40.2712 71.3873 41.3412 70.3174 41.3412 68.9956V56.4187H85.1681V68.9956C85.1681 70.3174 86.2398 71.3873 87.5602 71.3873H112.907L127.968 89.6475C128.422 90.1994 129.099 90.5181 129.813 90.5181H141.052V96.7134L129.813 96.7117ZM152.334 115.629H145.836V71.346H152.334V115.629Z" fill="black"/>
<path d="M85.7309 90.5711C85.3553 90.0783 84.8716 89.6779 84.3176 89.4009C83.7631 89.1234 83.153 88.9771 82.5334 88.9719H77.3906L81.064 77.2178L73.5014 74.8844L68.2726 91.8672C68.0824 92.4534 68.0338 93.0765 68.1315 93.6853C68.2292 94.294 68.4702 94.8707 68.8345 95.3678C69.1984 95.8758 69.6786 96.2901 70.2348 96.5754C70.791 96.8611 71.4072 97.01 72.0324 97.01H77.1748L73.5014 108.764L81.064 111.098L86.2928 94.2011C86.5056 93.5962 86.5655 92.9488 86.4673 92.3153C86.3692 91.6822 86.1165 91.083 85.7309 90.5711Z" fill="#D7282F" stroke="white" stroke-width="0.2" stroke-linecap="round" stroke-linejoin="round"/>
</g>
</svg>
