<svg width="9" height="10" viewBox="0 0 9 10" fill="none" xmlns="http://www.w3.org/2000/svg">
<path d="M5.30276 5.00006L8.94117 1.36184C9.01948 1.28343 9.01948 1.15638 8.94117 1.07797L8.42226 0.558783C8.38462 0.521238 8.33342 0.5 8.28024 0.5C8.22695 0.5 8.17585 0.521238 8.13821 0.558783L4.49989 4.1971L0.86158 0.558783C0.786204 0.483408 0.652804 0.483503 0.577618 0.558783L0.0588071 1.07797C-0.0196024 1.15638 -0.0196024 1.28343 0.0588071 1.36184L3.69712 5.00006L0.0588071 8.63828C-0.0196024 8.71669 -0.0196024 8.84374 0.0588071 8.92214L0.577713 9.44133C0.615353 9.47888 0.666457 9.50012 0.719741 9.50012C0.773025 9.50012 0.824034 9.47888 0.861675 9.44133L4.49999 5.80302L8.1383 9.44133C8.17594 9.47888 8.22714 9.50012 8.28033 9.50012C8.33352 9.50012 8.38472 9.47888 8.42236 9.44133L8.94126 8.92214C9.01958 8.84374 9.01958 8.71669 8.94126 8.63828L5.30276 5.00006Z" fill="#DD484E"/>
</svg>
