<svg width="10" height="10" viewBox="0 0 10 10" fill="none" xmlns="http://www.w3.org/2000/svg">
<path d="M5.89196 5.00007L9.93463 0.957601C10.0216 0.870479 10.0216 0.729315 9.93463 0.642193L9.35807 0.0653149C9.31625 0.0235976 9.25936 0 9.20026 0C9.14106 0 9.08428 0.0235976 9.04245 0.0653149L4.99988 4.10789L0.957311 0.0653149C0.87356 -0.0184357 0.725338 -0.0183303 0.641798 0.0653149L0.0653412 0.642193C-0.0217804 0.729315 -0.0217804 0.870479 0.0653412 0.957601L4.10791 5.00007L0.0653412 9.04253C-0.0217804 9.12965 -0.0217804 9.27082 0.0653412 9.35794L0.641903 9.93482C0.683726 9.97653 0.740508 10.0001 0.799712 10.0001C0.858917 10.0001 0.915594 9.97653 0.957416 9.93482L4.99999 5.89225L9.04256 9.93482C9.08438 9.97653 9.14127 10.0001 9.20037 10.0001C9.25947 10.0001 9.31635 9.97653 9.35818 9.93482L9.93474 9.35794C10.0218 9.27082 10.0218 9.12965 9.93474 9.04253L5.89196 5.00007Z" fill="black"/>
</svg>
