<svg width="25" height="22" viewBox="0 0 25 22" fill="none" xmlns="http://www.w3.org/2000/svg">
<path d="M22.8775 12.7335C22.4107 15.2141 21.0883 17.394 19.2307 18.9547C17.3614 20.5251 14.955 21.4705 12.3298 21.4705C9.86278 21.4705 7.5872 20.6364 5.7726 19.234C3.91698 17.8022 2.54577 15.7767 1.9383 13.4405L3.27826 13.0929C3.80564 15.1262 5.00105 16.89 6.61642 18.1382C8.19467 19.357 10.1753 20.0817 12.3278 20.0817C14.619 20.0817 16.7168 19.2594 18.34 17.896C19.8929 16.5912 21.016 14.7883 21.4614 12.7315H20.0296L22.1763 10.1161L24.3229 12.7315H22.8775V12.7335ZM12.2946 13.4913V11.04C11.4313 10.8212 10.8004 10.4911 10.3999 10.0496C9.99755 9.60625 9.79441 9.0691 9.79441 8.43623C9.79441 7.79556 10.0229 7.25645 10.4781 6.82282C10.9332 6.38724 11.5387 6.13722 12.2946 6.07081V5.49459H13.2595V6.07081C13.9666 6.14503 14.5272 6.35794 14.9472 6.70758C15.3632 7.05722 15.6308 7.526 15.7461 8.11199L14.0604 8.30341C13.9569 7.84243 13.6893 7.52991 13.2595 7.36583V9.65313C14.326 9.9051 15.0526 10.2352 15.4374 10.6376C15.8242 11.0419 16.0176 11.5595 16.0176 12.1924C16.0176 12.8995 15.7754 13.4933 15.289 13.9777C14.8026 14.4621 14.1268 14.7629 13.2595 14.8821V15.9759H12.2946V14.8957C11.5328 14.8137 10.9156 14.5656 10.437 14.1476C9.95849 13.7296 9.65573 13.1378 9.5229 12.3741L11.2477 12.1944C11.318 12.5069 11.4508 12.7745 11.6461 13.0011C11.8415 13.2276 12.0563 13.3898 12.2946 13.4913ZM12.2946 7.34435C12.0348 7.42639 11.8297 7.56116 11.6793 7.74868C11.527 7.93619 11.4527 8.14324 11.4527 8.36982C11.4527 8.57687 11.5211 8.76829 11.6598 8.94604C11.7985 9.12184 12.0114 9.26638 12.2966 9.37381V7.34435H12.2946ZM13.2595 13.589C13.5916 13.5245 13.8651 13.3839 14.0721 13.169C14.2831 12.9522 14.3866 12.6983 14.3866 12.4034C14.3866 12.1436 14.2987 11.917 14.1209 11.7295C13.9471 11.54 13.66 11.3955 13.2576 11.2939V13.589H13.2595ZM1.78009 8.73899C2.24301 6.27981 3.54586 4.11752 5.37608 2.5588C7.25124 0.962969 9.67917 0 12.3278 0C14.6581 0 16.8145 0.742248 18.5744 2.00407C20.3812 3.2991 21.768 5.14104 22.4966 7.28966L21.8403 7.51233L21.184 7.735C21.1664 7.68031 21.1469 7.62562 21.1274 7.57288C20.4808 5.77391 19.2952 4.23081 17.7677 3.13502C16.2363 2.03728 14.3592 1.39074 12.3298 1.39074C10.0171 1.39074 7.90168 2.22674 6.27264 3.61358C4.74126 4.91642 3.63766 6.70367 3.19426 8.73899H4.61821L2.4696 11.3544L0.322937 8.73899H1.78009Z" fill="black"/>
</svg>
