<svg width="42" height="24" viewBox="0 0 42 24" fill="none" xmlns="http://www.w3.org/2000/svg">
<path d="M38.5332 1H3.57077C2.15097 1 1 2.15097 1 3.57077V21.052C1 22.4718 2.15097 23.6228 3.57077 23.6228H38.5332C39.953 23.6228 41.104 22.4718 41.104 21.052V3.57077C41.104 2.15097 39.953 1 38.5332 1Z" fill="white"/>
<path d="M18.1077 11.5435C18.1077 12.7495 17.8831 13.7578 17.4339 14.5684C16.9847 15.374 16.3328 15.9819 15.4783 16.3921C14.6238 16.7974 13.5936 17 12.3875 17H9.41389V6.29199H12.7098C13.8182 6.29199 14.7752 6.49219 15.5809 6.89258C16.3865 7.28809 17.0091 7.87646 17.4486 8.65771C17.888 9.43408 18.1077 10.396 18.1077 11.5435ZM16.2767 11.5947C16.2767 10.7158 16.1375 9.99316 15.8592 9.42676C15.5858 8.86035 15.1805 8.44043 14.6434 8.16699C14.1112 7.88867 13.4544 7.74951 12.6732 7.74951H11.1717V15.5278H12.4168C13.7108 15.5278 14.6776 15.1982 15.3172 14.5391C15.9569 13.8799 16.2767 12.8984 16.2767 11.5947ZM24.7435 6.29199L20.7518 17H19.1404L23.1321 6.29199H24.7435ZM32.91 17L31.8626 14.0264H27.7684L26.721 17H24.868L28.8524 6.24805H30.8006L34.7777 17H32.91ZM31.4085 12.5176L30.3904 9.58789C30.3514 9.46094 30.2952 9.28271 30.222 9.05322C30.1487 8.81885 30.0755 8.58203 30.0023 8.34277C29.929 8.09863 29.868 7.89355 29.8192 7.72754C29.7703 7.92773 29.7093 8.15234 29.6361 8.40137C29.5677 8.64551 29.4993 8.875 29.431 9.08984C29.3675 9.30469 29.3187 9.4707 29.2845 9.58789L28.2591 12.5176H31.4085Z" fill="#20AEDD"/>
</svg>
