<svg width="20" height="20" viewBox="0 0 20 20" fill="none" xmlns="http://www.w3.org/2000/svg">
<path d="M10.5005 8.75854C12.7895 8.75854 14.6454 6.90263 14.6454 4.61365C14.6454 2.32466 12.7895 0.46875 10.5005 0.46875C8.21151 0.46875 6.35561 2.32466 6.35561 4.61365C6.35812 6.90163 8.21302 8.75603 10.5005 8.75854ZM10.5005 1.72478C12.0962 1.72478 13.3894 3.01799 13.3894 4.61365C13.3894 6.2093 12.0962 7.50251 10.5005 7.50251C8.90484 7.50251 7.61164 6.2093 7.61164 4.61365C7.61365 3.01899 8.90585 1.72679 10.5005 1.72478ZM17.9854 15.0306C17.2047 11.562 14.1505 9.00975 10.5 9.00975C6.84948 9.00975 3.79532 11.562 3.02412 14.9794L3.01457 15.0306C3.00553 15.0708 3 15.1171 3 15.1643C3 15.511 3.28135 15.7923 3.62801 15.7923C3.92745 15.7923 4.17815 15.5823 4.24096 15.3019L4.24196 15.2979C4.8956 12.399 7.44885 10.2658 10.5005 10.2658C13.5521 10.2658 16.1049 12.3985 16.7505 15.2547L16.7585 15.2974C16.8218 15.5818 17.0715 15.7918 17.371 15.7918C17.4187 15.7918 17.4649 15.7863 17.5096 15.7762L17.5056 15.7772C17.7905 15.7144 18 15.4642 18 15.1648C18 15.1171 17.9945 15.0708 17.9844 15.0261L17.9854 15.0306Z" fill="#D7282F"/>
</svg>
