<svg width="14" height="13" viewBox="0 0 14 13" fill="none" xmlns="http://www.w3.org/2000/svg">
<path d="M7.45431 0C11.0516 0 13.9677 2.91015 13.9677 6.5C13.9677 10.0899 11.0516 13 7.45431 13C3.85706 13 0.940918 10.0899 0.940918 6.5C0.940918 2.91015 3.85706 0 7.45431 0ZM7.45431 0.8125C4.30672 0.8125 1.75509 3.35888 1.75509 6.5C1.75509 9.64112 4.30672 12.1875 7.45431 12.1875C10.6019 12.1875 13.1535 9.64112 13.1535 6.5C13.1535 3.35888 10.6019 0.8125 7.45431 0.8125ZM9.89683 6.09375V6.90625H5.01179V6.09375H9.89683Z" fill="#231F20"/>
<path d="M7.45431 0C11.0516 0 13.9677 2.91015 13.9677 6.5C13.9677 10.0899 11.0516 13 7.45431 13C3.85706 13 0.940918 10.0899 0.940918 6.5C0.940918 2.91015 3.85706 0 7.45431 0ZM7.45431 0.8125C4.30672 0.8125 1.75509 3.35888 1.75509 6.5C1.75509 9.64112 4.30672 12.1875 7.45431 12.1875C10.6019 12.1875 13.1535 9.64112 13.1535 6.5C13.1535 3.35888 10.6019 0.8125 7.45431 0.8125ZM9.89683 6.09375V6.90625H5.01179V6.09375H9.89683Z" fill="black" fill-opacity="0.2"/>
</svg>
