<svg width="11" height="14" viewBox="0 0 11 14" fill="none" xmlns="http://www.w3.org/2000/svg">
<path fill-rule="evenodd" clip-rule="evenodd" d="M3.66644 0.583252H7.33311V1.49992H3.66644V0.583252ZM0 2.41659V3.33325H0.916667V12.4999C0.916667 12.743 1.01324 12.9762 1.18515 13.1481C1.35706 13.32 1.59022 13.4166 1.83333 13.4166H9.16667C9.40978 13.4166 9.64294 13.32 9.81485 13.1481C9.98676 12.9762 10.0833 12.743 10.0833 12.4999V3.33325H11V2.41659H0ZM1.83333 12.4999V3.33325H9.16667V12.4999H1.83333ZM3.66644 5.16659H4.58311V10.6666H3.66644V5.16659ZM6.41644 5.16659H7.33311V10.6666H6.41644V5.16659Z" fill="#D7282F"/>
</svg>
