<svg width="52" height="50" viewBox="0 0 52 50" fill="none" xmlns="http://www.w3.org/2000/svg">
<rect x="0.402344" y="0.627075" width="50.6398" height="49" rx="24.5" fill="#FBAC36"/>
<path d="M19.2573 32.3126H30.5132C30.8369 32.3126 31.1474 32.1881 31.3764 31.9666C31.6053 31.7451 31.7339 31.4446 31.7339 31.1313L35.9849 16.0704C35.9849 15.9141 35.9528 15.7593 35.8906 15.6151C35.8283 15.4708 35.7371 15.34 35.6222 15.2301C35.5073 15.1202 35.371 15.0335 35.2212 14.975C35.0714 14.9164 34.9111 14.8873 34.7496 14.8891H16.2998C15.9754 14.8891 15.6641 15.0133 15.434 15.2347C15.2039 15.456 15.0737 15.7564 15.0718 16.0704L11.4385 31.1313C11.4385 31.4446 11.5671 31.7451 11.796 31.9666C12.025 32.1881 12.3355 32.3126 12.6593 32.3126H14.2434" stroke="white" stroke-width="1.5"/>
<path d="M33.7734 32.3133H31.252L34.8852 20.1563H40.8583C40.9482 20.1561 41.037 20.1748 41.1186 20.2113C41.2001 20.2477 41.2725 20.3009 41.3307 20.3672L43.9321 24.7969C44.0253 24.9001 44.0769 25.0324 44.0774 25.1695L41.6577 32.3133H39.0417" stroke="white" stroke-width="1.5"/>
<path d="M16.8072 35.7232C18.2961 35.7232 19.5031 34.5395 19.5031 33.0794C19.5031 31.6193 18.2961 30.4357 16.8072 30.4357C15.3183 30.4357 14.1113 31.6193 14.1113 33.0794C14.1113 34.5395 15.3183 35.7232 16.8072 35.7232Z" stroke="white" stroke-width="1.5"/>
<path d="M36.4557 35.7232C37.9445 35.7232 39.1515 34.5395 39.1515 33.0794C39.1515 31.6193 37.9445 30.4357 36.4557 30.4357C34.9668 30.4357 33.7598 31.6193 33.7598 33.0794C33.7598 34.5395 34.9668 35.7232 36.4557 35.7232Z" stroke="white" stroke-width="1.5"/>
<path d="M20.3977 18.3495H8.49512" stroke="white" stroke-width="1.5" stroke-linecap="round"/>
<path d="M18.05 22.0333H9.64258" stroke="white" stroke-width="1.5" stroke-linecap="round"/>
<path d="M18.9002 26.1818H5.83496" stroke="white" stroke-width="1.5" stroke-linecap="round"/>
</svg>
