<svg width="49" height="40" viewBox="0 0 49 40" fill="none" xmlns="http://www.w3.org/2000/svg">
<path d="M46.3242 0.84375H2.99088C2.41625 0.84375 1.86515 1.07202 1.45882 1.47835C1.05249 1.88468 0.824219 2.43578 0.824219 3.01042V37.6771C0.824219 38.2517 1.05249 38.8028 1.45882 39.2091C1.86515 39.6155 2.41625 39.8438 2.99088 39.8438H46.3242C46.8988 39.8438 47.4499 39.6155 47.8563 39.2091C48.2626 38.8028 48.4909 38.2517 48.4909 37.6771V3.01042C48.4909 2.43578 48.2626 1.88468 47.8563 1.47835C47.4499 1.07202 46.8988 0.84375 46.3242 0.84375ZM44.1575 35.5104H5.15755V34.3599L16.0624 25.2599L18.879 27.3767L16.6257 29.6452C16.231 30.0539 16.0126 30.6012 16.0176 31.1693C16.0225 31.7374 16.2504 32.2808 16.6521 32.6825C17.0538 33.0842 17.5972 33.3121 18.1653 33.317C18.7334 33.322 19.2807 33.1036 19.6894 32.7089L33.0902 19.3081L44.1575 34.0652V35.5104ZM44.1575 26.8438L35.0575 14.7104C34.8713 14.4621 34.6338 14.2568 34.3613 14.1082C34.0887 13.9597 33.7875 13.8714 33.4779 13.8495C33.1682 13.8275 32.8575 13.8723 32.5667 13.9808C32.2759 14.0894 32.0119 14.2591 31.7924 14.4786L21.9774 24.2936L17.2909 20.7771C16.9009 20.4843 16.4234 20.3316 15.9359 20.3438C15.4483 20.356 14.9791 20.5323 14.6042 20.8442L5.15755 28.7179V5.17708H44.1575V26.8438ZM9.49088 13.8438C9.49088 12.9867 9.74503 12.1489 10.2212 11.4363C10.6973 10.7237 11.3741 10.1683 12.1659 9.84027C12.9577 9.51229 13.829 9.42648 14.6696 9.59368C15.5102 9.76088 16.2823 10.1736 16.8883 10.7796C17.4944 11.3856 17.9071 12.1578 18.0743 12.9984C18.2415 13.8389 18.1557 14.7102 17.8277 15.502C17.4997 16.2939 16.9443 16.9706 16.2317 17.4468C15.5191 17.9229 14.6813 18.1771 13.8242 18.1771C12.6749 18.1771 11.5727 17.7205 10.7601 16.9079C9.94743 16.0952 9.49088 14.993 9.49088 13.8438Z" fill="#C5C5C5"/>
</svg>
