<svg width="17" height="17" viewBox="0 0 17 17" fill="none" xmlns="http://www.w3.org/2000/svg">
<path d="M10.206 3.72901C10.9386 3.87193 11.6118 4.2302 12.1396 4.75796C12.6673 5.28572 13.0256 5.95896 13.1685 6.69152M10.206 0.729004C11.728 0.898081 13.1472 1.57964 14.2307 2.66176C15.3142 3.74389 15.9975 5.16227 16.1685 6.68401M15.4185 12.669V14.919C15.4194 15.1279 15.3766 15.3347 15.2929 15.526C15.2092 15.7174 15.0865 15.8892 14.9326 16.0304C14.7787 16.1716 14.597 16.2791 14.3991 16.3461C14.2012 16.413 13.9916 16.4378 13.7835 16.419C11.4757 16.1683 9.25878 15.3796 7.31103 14.1165C5.4989 12.965 3.96253 11.4287 2.81103 9.61652C1.54351 7.65992 0.754711 5.43226 0.508529 3.11401C0.489787 2.90661 0.514435 2.69758 0.580904 2.50023C0.647373 2.30287 0.754207 2.12152 0.894603 1.96772C1.035 1.81392 1.20588 1.69104 1.39637 1.6069C1.58686 1.52276 1.79278 1.4792 2.00103 1.47901H4.25103C4.61501 1.47542 4.96787 1.60431 5.24385 1.84166C5.51983 2.079 5.70009 2.40859 5.75103 2.76901C5.846 3.48906 6.02212 4.19606 6.27603 4.87651C6.37694 5.14496 6.39878 5.4367 6.33896 5.71717C6.27914 5.99765 6.14018 6.2551 5.93853 6.45902L4.98603 7.41152C6.0537 9.28918 7.60837 10.8439 9.48603 11.9115L10.4385 10.959C10.6424 10.7574 10.8999 10.6184 11.1804 10.5586C11.4608 10.4988 11.7526 10.5206 12.021 10.6215C12.7015 10.8754 13.4085 11.0516 14.1285 11.1465C14.4929 11.1979 14.8256 11.3814 15.0634 11.6621C15.3013 11.9429 15.4277 12.3012 15.4185 12.669Z" stroke="#D7282F" stroke-linecap="round" stroke-linejoin="round"/>
</svg>
