<svg width="17" height="17" viewBox="0 0 17 17" fill="none" xmlns="http://www.w3.org/2000/svg">
<path d="M15.0793 12.6403C15.0793 12.8803 15.026 13.127 14.9128 13.367C14.7997 13.607 14.6533 13.8337 14.4602 14.047C14.1341 14.407 13.7746 14.667 13.3686 14.8337C12.9692 15.0004 12.5365 15.087 12.0706 15.087C11.3917 15.087 10.6661 14.927 9.90065 14.6004C9.13518 14.2737 8.3697 13.8337 7.61088 13.2804C6.84541 12.7203 6.11987 12.1003 5.42762 11.4137C4.74202 10.7203 4.12298 9.99368 3.57051 9.23368C3.02469 8.47367 2.58538 7.71367 2.26587 6.96034C1.94637 6.20034 1.78662 5.47367 1.78662 4.78033C1.78662 4.327 1.8665 3.89367 2.02625 3.49367C2.186 3.087 2.43894 2.71366 2.79172 2.38033C3.21773 1.96033 3.68367 1.75366 4.17623 1.75366C4.36261 1.75366 4.54899 1.79366 4.71539 1.87366C4.88846 1.95366 5.04155 2.07366 5.16137 2.247L6.70563 4.427C6.82544 4.59367 6.91197 4.747 6.97188 4.89367C7.03179 5.03367 7.06507 5.17367 7.06507 5.30034C7.06507 5.46034 7.01847 5.62034 6.92529 5.77367C6.83875 5.927 6.71228 6.087 6.55253 6.247L6.04665 6.77367C5.97343 6.847 5.94015 6.93367 5.94015 7.04034C5.94015 7.09367 5.94681 7.14034 5.96012 7.19367C5.98009 7.24701 6.00006 7.28701 6.01337 7.32701C6.13319 7.54701 6.33953 7.83367 6.63241 8.18034C6.93194 8.52701 7.25144 8.88034 7.59757 9.23368C7.95701 9.58701 8.30314 9.91368 8.65592 10.2137C9.00205 10.507 9.28827 10.707 9.51459 10.827C9.54787 10.8403 9.58781 10.8603 9.6344 10.8803C9.68765 10.9003 9.7409 10.907 9.80081 10.907C9.91396 10.907 10.0005 10.867 10.0737 10.7937L10.5796 10.2937C10.746 10.127 10.9058 10.0003 11.0588 9.92034C11.2119 9.82701 11.365 9.78034 11.5314 9.78034C11.6579 9.78034 11.791 9.80701 11.9375 9.86701C12.0839 9.92701 12.237 10.0137 12.4034 10.127L14.6067 11.6937C14.7797 11.8137 14.8995 11.9537 14.9728 12.1203C15.0393 12.287 15.0793 12.4537 15.0793 12.6403Z" stroke="#231F20" stroke-miterlimit="10"/>
<path d="M12.7696 6.4205C12.7696 6.0205 12.4568 5.40716 11.9909 4.90716C11.5649 4.44716 10.9991 4.08716 10.4399 4.08716" stroke="#231F20" stroke-linecap="round" stroke-linejoin="round"/>
<path d="M15.0994 6.42034C15.0994 3.84033 13.0159 1.75366 10.4399 1.75366" stroke="#231F20" stroke-linecap="round" stroke-linejoin="round"/>
</svg>
