<svg width="21" height="25" viewBox="0 0 21 25" fill="none" xmlns="http://www.w3.org/2000/svg">
<path d="M14.9239 24.4764C14.9227 24.4764 14.9215 24.4764 14.9204 24.4764H1.38638C1.16704 24.4764 0.989258 24.2987 0.989258 24.0793V0.430325C0.989258 0.210981 1.16704 0.0332031 1.38638 0.0332031H19.7049C19.9243 0.0332031 20.1021 0.210981 20.1021 0.430325V19.1679C20.1022 19.1841 20.1013 19.2003 20.0994 19.2163C20.0994 19.2163 20.0994 19.2164 20.0994 19.2166C20.0994 19.2168 20.0994 19.2171 20.0993 19.2174C20.0993 19.2175 20.0993 19.2176 20.0993 19.2178C20.0993 19.218 20.0993 19.2183 20.0992 19.2187C20.0992 19.219 20.0992 19.2192 20.0992 19.2195C20.0972 19.2358 20.0941 19.2518 20.0903 19.2675C20.0903 19.2677 20.0902 19.2678 20.0902 19.2681C20.0902 19.2682 20.09 19.2683 20.09 19.2685C20.09 19.2687 20.0899 19.269 20.0899 19.2693V19.2694C20.0735 19.3333 20.041 19.3934 19.9939 19.4433C19.9937 19.4436 19.9934 19.4439 19.9931 19.4441C19.9929 19.4444 19.9926 19.4446 19.9923 19.4449C19.9921 19.4452 19.9919 19.4453 19.9917 19.4456C19.9917 19.4457 19.9915 19.4457 19.9914 19.4458C19.9913 19.446 19.9911 19.4462 19.9909 19.4464C19.9909 19.4464 19.9907 19.4465 19.9906 19.4466C19.9903 19.4469 19.9901 19.4472 19.9898 19.4474L15.2089 24.3561C15.2083 24.3566 15.2077 24.3573 15.2071 24.358C15.2069 24.3582 15.2066 24.3585 15.2062 24.3589C15.206 24.3592 15.2057 24.3594 15.2054 24.3597C15.2054 24.3597 15.2054 24.3597 15.2053 24.3598C15.2052 24.36 15.2049 24.3602 15.2046 24.3605C15.2046 24.3605 15.2045 24.3606 15.2044 24.3606C15.2042 24.3609 15.204 24.361 15.2038 24.3613C15.2037 24.3614 15.2036 24.3615 15.2034 24.3615C15.2033 24.3617 15.2032 24.3618 15.203 24.3619C15.2029 24.3621 15.2028 24.3622 15.2025 24.3625C15.2025 24.3625 15.2025 24.3626 15.2024 24.3626C15.1505 24.4134 15.0868 24.448 15.019 24.4645C15.0185 24.4648 15.0182 24.4647 15.0178 24.4648C15.0177 24.4649 15.0173 24.4649 15.0168 24.4651C15.0164 24.4651 15.0161 24.4652 15.0157 24.4653C15.0155 24.4655 15.0149 24.4653 15.0147 24.4656C15.0143 24.4656 15.0136 24.4659 15.0136 24.4659C15.0132 24.4659 15.0124 24.466 15.0124 24.466C15.0088 24.4668 15.0053 24.4676 15.0016 24.4682C15.0012 24.4682 15.0008 24.4684 15.0004 24.4685C15.0005 24.4689 14.9997 24.4686 14.9992 24.4686C14.9989 24.4685 14.9985 24.4686 14.9981 24.4688C14.9973 24.4689 14.9973 24.4689 14.9969 24.469C14.9967 24.469 14.9963 24.4692 14.9959 24.4692C14.9956 24.4692 14.9952 24.4693 14.9947 24.4693C14.9943 24.4694 14.994 24.4696 14.9936 24.4694C14.9701 24.4745 14.947 24.4764 14.9239 24.4764ZM1.7835 23.6822H14.5269V19.1706C14.5269 18.9513 14.7047 18.7735 14.924 18.7735H19.3078V0.827447H1.7835V23.6822ZM15.3211 19.5678V23.1024L18.7638 19.5678H15.3211ZM15.9393 17.3993H3.7114C3.49205 17.3993 3.31427 17.2216 3.31427 17.0022C3.31427 16.7829 3.49205 16.6051 3.7114 16.6051H15.9394C16.1588 16.6051 16.3366 16.7829 16.3366 17.0022C16.3366 17.2216 16.1586 17.3993 15.9393 17.3993ZM17.3144 15.6067H3.7114C3.49205 15.6067 3.31427 15.429 3.31427 15.2096C3.31427 14.9903 3.49205 14.8125 3.7114 14.8125H17.3144C17.5337 14.8125 17.7115 14.9903 17.7115 15.2096C17.7115 15.429 17.5337 15.6067 17.3144 15.6067ZM6.39448 13.1107C6.37648 13.1107 6.35848 13.1095 6.34034 13.107L3.30871 12.6899C3.19951 12.6748 3.10142 12.6151 3.03801 12.5248C2.9746 12.4345 2.95157 12.3221 2.97434 12.2143L3.91869 7.74875C3.24809 7.08198 2.8638 6.13577 2.94588 5.12166C3.09387 3.29423 4.7001 1.92747 6.52831 2.07587C8.35573 2.22386 9.7221 3.83088 9.5741 5.6583C9.50659 6.49199 9.13528 7.22984 8.57799 7.77165L9.48793 11.3255C9.51573 11.4339 9.4964 11.5491 9.43485 11.6425C9.37329 11.736 9.27507 11.7991 9.16454 11.8163L6.80391 12.1846L6.7916 12.7226C6.78896 12.8357 6.73826 12.9424 6.65208 13.0158C6.57981 13.0775 6.48834 13.1107 6.39448 13.1107ZM3.83967 11.961L6.00769 12.2594L6.08883 8.71045C6.05653 8.70873 6.02423 8.70661 5.9918 8.70396C5.49222 8.66345 5.02706 8.514 4.61802 8.28076L3.83967 11.961ZM6.82576 11.2259L6.85964 11.3721L8.61002 11.099L7.89004 8.28672C7.58082 8.46132 7.24194 8.5876 6.88453 8.65617L6.82576 11.2259ZM6.25575 2.85899C5.65636 2.85899 5.08239 3.06933 4.62067 3.46182C4.1056 3.89971 3.79201 4.51194 3.73747 5.18573C3.62482 6.57658 4.66488 7.79985 6.05587 7.9125C7.44646 8.02568 8.66986 6.98508 8.78251 5.59423C8.89516 4.20338 7.85523 2.98011 6.46424 2.86746C6.39448 2.86177 6.32499 2.85899 6.25575 2.85899ZM17.3144 8.40016H11.7031C11.4837 8.40016 11.306 8.22238 11.306 8.00304C11.306 7.7837 11.4837 7.60592 11.7031 7.60592H17.3144C17.5337 7.60592 17.7115 7.7837 17.7115 8.00304C17.7115 8.22238 17.5337 8.40016 17.3144 8.40016ZM16.513 6.28641H11.7031C11.4837 6.28641 11.306 6.10864 11.306 5.88929C11.306 5.66995 11.4837 5.49217 11.7031 5.49217H16.5129C16.7322 5.49217 16.91 5.66995 16.91 5.88929C16.91 6.10864 16.7322 6.28641 16.513 6.28641ZM17.3144 4.04427H11.7031C11.4837 4.04427 11.306 3.86649 11.306 3.64714C11.306 3.4278 11.4837 3.25002 11.7031 3.25002H17.3144C17.5337 3.25002 17.7115 3.4278 17.7115 3.64714C17.7115 3.86649 17.5337 4.04427 17.3144 4.04427Z" fill="#D7282F"/>
</svg>
