<svg width="18" height="16" viewBox="0 0 18 16" fill="none" xmlns="http://www.w3.org/2000/svg">
<path d="M7.44 2.88C7.63 2.73 7.87 2.61 8.16 2.52C8.45 2.43 8.8 2.39 9.19 2.39C9.59 2.39 9.95 2.45 10.25 2.55C10.55 2.66 10.8 2.8 11 2.99C11.2 3.18 11.35 3.4 11.44 3.67C11.54 3.93 11.59 4.21 11.59 4.52H14.6C14.6 3.86 14.47 3.26 14.22 2.71C13.97 2.16 13.61 1.68 13.14 1.28C12.68 0.88 12.11 0.56 11.45 0.34C10.78 0.11 10.05 0 9.24 0C8.45 0 7.72 0.1 7.06 0.29C6.41 0.49 5.84 0.77 5.36 1.12C4.88 1.48 4.51 1.91 4.25 2.41C3.98 2.92 3.85 3.47 3.85 4.08C3.85 4.72 3.98 5.27 4.24 5.75C4.28 5.83 4.34 5.92 4.39 6H9C8.36 5.78 7.97 5.55 7.59 5.3C7.1 4.97 6.85 4.57 6.85 4.09C6.85 3.86 6.9 3.64 7 3.43C7.1 3.22 7.25 3.04 7.44 2.88ZM0 9H9.62C9.8 9.07 10.02 9.14 10.17 9.2C10.54 9.37 10.83 9.54 11.04 9.71C11.25 9.88 11.39 10.07 11.47 10.28C11.54 10.48 11.58 10.71 11.58 10.97C11.58 11.2 11.53 11.42 11.44 11.63C11.35 11.83 11.21 12.01 11.02 12.16C10.83 12.31 10.6 12.42 10.31 12.51C10.02 12.59 9.68 12.64 9.3 12.64C8.87 12.64 8.47 12.6 8.12 12.51C7.77 12.42 7.46 12.28 7.21 12.09C6.96 11.9 6.76 11.65 6.62 11.34C6.48 11.03 6.37 10.58 6.37 10.13H3.4C3.4 10.68 3.48 11.26 3.64 11.71C3.8 12.16 4.01 12.56 4.29 12.92C4.57 13.27 4.89 13.58 5.27 13.84C5.64 14.1 6.05 14.32 6.49 14.49C6.93 14.66 7.39 14.79 7.87 14.88C8.35 14.96 8.83 15.01 9.31 15.01C10.11 15.01 10.84 14.92 11.49 14.73C12.14 14.54 12.7 14.28 13.16 13.94C13.62 13.6 13.98 13.17 14.23 12.67C14.48 12.17 14.61 11.6 14.61 10.96C14.61 10.36 14.51 9.82 14.3 9.35C14.25 9.24 14.19 9.12 14.13 9.02H18V7H0V9Z" fill="#44D600"/>
</svg>
