<svg width="76" height="77" viewBox="0 0 76 77" fill="none" xmlns="http://www.w3.org/2000/svg">
<path d="M22.3257 35.8068C21.2782 34.7593 19.576 34.7593 18.5285 35.8068C17.481 36.8543 17.481 38.5565 18.5285 39.604L30.902 51.9775C31.4258 52.5012 32.0805 52.7631 32.8006 52.7631C32.8661 52.7631 32.8661 52.7631 32.9315 52.7631C33.6517 52.6976 34.3718 52.3703 34.8956 51.781L65.862 14.6606C66.7786 13.5476 66.6477 11.8455 65.5347 10.8634C64.4217 9.94688 62.7196 10.0778 61.7375 11.1908L32.6042 46.0853L22.3257 35.8068Z" fill="#17AB13"/>
<path d="M58.0707 5.82245C43.0131 -3.60496 23.7 -1.37905 11.1301 11.1908C-3.66575 25.9867 -3.66575 50.1444 11.1301 64.9402C18.528 72.3381 28.2827 76.0698 37.972 76.0698C47.6613 76.0698 57.4161 72.3381 64.814 64.9402C77.4493 52.3049 79.6098 32.9263 70.1169 17.8686C69.3313 16.6247 67.6946 16.2319 66.4507 17.0175C65.2068 17.8031 64.814 19.4398 65.5996 20.6837C73.7831 33.6464 71.8845 50.2754 61.0168 61.1431C48.316 73.8439 27.5626 73.8439 14.8617 61.1431C2.16092 48.4422 2.16092 27.6888 14.8617 14.988C25.7295 4.18575 42.2929 2.28717 55.2556 10.3398C56.4995 11.1254 58.1362 10.7326 58.9218 9.48867C59.7075 8.24478 59.3146 6.60807 58.0707 5.82245Z" fill="#4A4A4A"/>
</svg>
