<svg width="42" height="24" viewBox="0 0 42 24" fill="none" xmlns="http://www.w3.org/2000/svg">
<path d="M38.5332 1H3.57077C2.15097 1 1 2.15097 1 3.57077V21.052C1 22.4718 2.15097 23.6228 3.57077 23.6228H38.5332C39.953 23.6228 41.104 22.4718 41.104 21.052V3.57077C41.104 2.15097 39.953 1 38.5332 1Z" fill="white"/>
<path d="M18.452 11.5435C18.452 12.7495 18.2274 13.7578 17.7781 14.5684C17.3289 15.374 16.6771 15.9819 15.8226 16.3921C14.9681 16.7974 13.9378 17 12.7318 17H9.75812V6.29199H13.054C14.1624 6.29199 15.1195 6.49219 15.9251 6.89258C16.7308 7.28809 17.3533 7.87646 17.7928 8.65771C18.2322 9.43408 18.452 10.396 18.452 11.5435ZM16.6209 11.5947C16.6209 10.7158 16.4818 9.99316 16.2034 9.42676C15.93 8.86035 15.5247 8.44043 14.9876 8.16699C14.4554 7.88867 13.7987 7.74951 13.0174 7.74951H11.5159V15.5278H12.7611C14.055 15.5278 15.0218 15.1982 15.6614 14.5391C16.3011 13.8799 16.6209 12.8984 16.6209 11.5947ZM25.0877 6.29199L21.096 17H19.4847L23.4764 6.29199H25.0877ZM29.7313 6.29199C31.1131 6.29199 32.1214 6.5752 32.7562 7.1416C33.3909 7.70801 33.7083 8.50146 33.7083 9.52197C33.7083 9.98584 33.6351 10.4277 33.4886 10.8477C33.347 11.2627 33.1126 11.6313 32.7855 11.9536C32.4583 12.271 32.0262 12.5225 31.4891 12.708C30.9569 12.8936 30.3001 12.9863 29.5189 12.9863H28.3763V17H26.6185V6.29199H29.7313ZM29.6141 7.74951H28.3763V11.5215H29.3358C29.8875 11.5215 30.3563 11.458 30.742 11.3311C31.1278 11.1992 31.4207 10.9917 31.6209 10.7085C31.8211 10.4253 31.9212 10.0518 31.9212 9.58789C31.9212 8.96777 31.7332 8.50635 31.3572 8.20361C30.9862 7.90088 30.4051 7.74951 29.6141 7.74951Z" fill="black"/>
</svg>
