<svg width="31" height="22" viewBox="0 0 31 22" fill="none" xmlns="http://www.w3.org/2000/svg">
<path fill-rule="evenodd" clip-rule="evenodd" d="M29.8438 2.00608L29.8738 2.07622C30.2173 2.87936 29.8434 3.81229 29.0402 4.15577L19.9418 8.04786L20.3448 8.98987C20.441 9.2147 20.3367 9.47491 20.1119 9.57107L18.7255 10.1642L17.8748 10.528C17.5575 10.6638 17.2272 10.7281 16.902 10.7281C16.2784 10.7281 15.6748 10.4907 15.2165 10.0693L10.9301 11.9029C10.4225 12.12 9.88471 12.2289 9.34606 12.2289C8.87104 12.2289 8.39526 12.1442 7.93899 11.9743L3.39691 10.2831C3.3177 10.2536 3.25242 10.2035 3.20379 10.1416L2.21848 10.5631C2.07984 10.6223 1.93547 10.6504 1.79344 10.6504C1.37221 10.6504 0.970722 10.4036 0.794882 9.99247C0.559745 9.44275 0.815624 8.80413 1.36541 8.56888L2.06086 8.27134L0.0371473 3.54065C-0.0305871 3.38222 -0.000352756 3.19893 0.114784 3.07073C0.229921 2.94253 0.408866 2.89266 0.57369 2.94317L2.64088 3.57557C3.35578 3.79425 3.93439 4.31386 4.22842 5.00122C4.36682 5.32454 4.74246 5.4753 5.06584 5.33679L6.97635 4.51952C7.1144 4.4604 7.27301 4.4754 7.3977 4.55931L9.96375 6.28677L23.1822 0.632174H23.1823L24.0507 0.26069C25.1765 -0.220951 26.5052 0.103073 27.2818 1.0486C27.402 1.19485 27.5958 1.24471 27.7641 1.17264C28.5673 0.828933 29.5003 1.20294 29.8438 2.00608ZM26.5976 1.61063C26.0692 0.967273 25.1651 0.74696 24.3989 1.07473L23.9375 1.27219L24.4934 2.57175L26.637 1.65475C26.6331 1.65042 26.6292 1.64613 26.6252 1.64184C26.6159 1.63164 26.6065 1.62144 26.5976 1.61063ZM2.38184 4.42231L1.22607 4.06888L2.8749 7.92329L6.48363 6.37958C7.03336 6.14433 7.67209 6.40032 7.90723 6.95011C7.93401 7.01269 7.95358 7.07644 7.96793 7.1406L8.99414 6.70155L7.10303 5.42849L5.41406 6.15095C4.64174 6.48142 3.74467 6.12177 3.41432 5.3495C3.22301 4.90249 2.84672 4.56452 2.38184 4.42231ZM1.60898 9.64437C1.65135 9.74351 1.77094 9.79138 1.87025 9.74901L5.47406 8.20753L5.47412 8.20747L6.98836 7.55966C7.0875 7.51724 7.13549 7.39759 7.09307 7.29839C7.06113 7.2238 6.98561 7.17821 6.90791 7.17821C6.88225 7.17821 6.85641 7.18319 6.8318 7.19368L2.81607 8.91148L1.71363 9.3831C1.61455 9.42552 1.56656 9.54517 1.60898 9.64437ZM8.24795 11.1445C9.00768 11.4274 9.83655 11.4076 10.5819 11.0888L14.6715 9.33927C14.6684 9.33296 14.6653 9.32665 14.6622 9.32034C14.6463 9.28795 14.6304 9.25551 14.616 9.22196C14.3742 8.65665 14.3517 8.03351 14.5488 7.45261L12.7283 8.23144C12.5896 8.29068 12.4453 8.3188 12.3032 8.3188C11.882 8.3188 11.4805 8.07194 11.3047 7.66085C11.156 7.31321 11.2041 6.93024 11.3982 6.63605L7.33699 8.37335L7.33664 8.37353L4.29768 9.6736L8.24795 11.1445ZM12.1189 7.31274C12.1613 7.41183 12.2809 7.45982 12.3802 7.41739L19.539 4.35505C19.6382 4.31263 19.6861 4.19298 19.6437 4.09378C19.6158 4.02874 19.5633 3.99962 19.5345 3.98808C19.5176 3.98134 19.4909 3.97337 19.4587 3.97337C19.4356 3.97337 19.4095 3.97753 19.3824 3.98913L12.2236 7.05148C12.1245 7.0939 12.0765 7.21355 12.1189 7.31274ZM15.665 9.25946C16.1043 9.79343 16.8597 9.99933 17.5267 9.71398L17.9701 9.52419L16.7139 6.58765L16.2704 6.77737C15.8803 6.94425 15.5777 7.25503 15.4184 7.65247C15.2592 8.04991 15.2634 8.48362 15.4303 8.87374C15.4901 9.01361 15.568 9.14023 15.6595 9.25273C15.6607 9.25399 15.6617 9.25533 15.6627 9.25666C15.6635 9.25761 15.6642 9.25856 15.665 9.25946ZM17.5281 6.23942L18.7843 9.17597L19.3567 8.9311L18.1005 5.99456L17.5281 6.23942ZM28.692 3.34167C28.8625 3.26872 28.9948 3.13272 29.0646 2.95864C29.1343 2.78456 29.1326 2.59483 29.0596 2.42432L29.0296 2.35419C28.8781 1.99999 28.4667 1.83511 28.1124 1.98669L24.4346 3.55993C24.379 3.58372 24.3197 3.59561 24.2605 3.59561C24.2046 3.59561 24.1487 3.58507 24.0957 3.56386C23.9868 3.52014 23.8996 3.43501 23.8534 3.32702L23.1234 1.62036L19.6525 3.10518C19.724 3.11831 19.7947 3.13846 19.8638 3.16612C20.1331 3.27405 20.3441 3.47983 20.4577 3.7455C20.6929 4.29528 20.437 4.9339 19.8872 5.16909L18.8924 5.59466L19.5936 7.23376L28.692 3.34167ZM27.4876 19.1825H29.4637C29.7082 19.1825 29.9064 19.3808 29.9064 19.6253V21.504C29.9064 21.7485 29.7082 21.9467 29.4637 21.9467H0.444199C0.199688 21.9467 0.00146484 21.7485 0.00146484 21.504V19.6253C0.00146484 19.3808 0.199688 19.1825 0.444199 19.1825H25.0856V14.6426H24.1737C23.9453 14.6426 23.7544 14.4688 23.7329 14.2414L23.4853 11.6157L23.4852 11.6147L23.4849 11.6116C23.4846 11.6086 23.4846 11.6056 23.4845 11.6026C23.4844 11.6004 23.4844 11.5983 23.4843 11.5962C23.4838 11.5875 23.483 11.5789 23.483 11.5701V10.0918C23.483 9.84725 23.6812 9.64903 23.9257 9.64903H25.8439V8.35335C25.8439 8.10883 26.0421 7.91061 26.2866 7.91061C26.5311 7.91061 26.7294 8.10883 26.7294 8.35335V9.64903H28.6476C28.8921 9.64903 29.0903 9.84725 29.0903 10.0918V11.5701C29.0903 11.5768 29.0898 11.5834 29.0894 11.59C29.0893 11.592 29.0891 11.5941 29.089 11.5962C29.0889 11.5983 29.0888 11.6004 29.0888 11.6025C29.0887 11.6055 29.0886 11.6086 29.0884 11.6116L29.0881 11.6147L29.0879 11.6157L28.8403 14.2414C28.8189 14.4688 28.6279 14.6426 28.3995 14.6426H27.4876V19.1825ZM28.2048 10.5344H24.3684V11.1273H28.2048V10.5344ZM24.4122 12.0128L24.5767 13.7571H25.5284H27.0449H27.9965L28.161 12.0128H24.4122ZM26.6021 19.1825V14.6426H25.971V19.1825H26.6021ZM0.886934 21.0612H29.021V20.068H27.0448H25.5283H0.886934V21.0612Z" fill="#565656"/>
</svg>
