<svg width="31" height="26" viewBox="0 0 31 26" fill="none" xmlns="http://www.w3.org/2000/svg">
<path fill-rule="evenodd" clip-rule="evenodd" d="M24.0986 0.931922H24.2823C24.6204 0.931922 24.8946 1.20602 24.8946 1.54417C24.8946 1.88231 24.6204 2.15641 24.2823 2.15641H24.0986V2.3401C24.0986 2.67825 23.8245 2.95235 23.4864 2.95235C23.1483 2.95235 22.8742 2.67825 22.8742 2.3401V2.15641H22.6905C22.3524 2.15641 22.0782 1.88231 22.0782 1.54417C22.0782 1.20602 22.3524 0.931922 22.6905 0.931922H22.8742V0.748231C22.8742 0.410087 23.1483 0.135986 23.4864 0.135986C23.8245 0.135986 24.0986 0.410087 24.0986 0.748231V0.931922ZM9.1313 8.02731C9.1313 4.79054 11.7646 2.15717 15.0014 2.15717C18.2383 2.15717 20.8716 4.79054 20.8716 8.02726C20.8716 11.264 18.2383 13.8974 15.0014 13.8974C11.7646 13.8974 9.1313 11.2641 9.1313 8.02731ZM10.3558 8.02726C10.3558 10.5889 12.4398 12.6729 15.0014 12.6729C17.5631 12.6729 19.6471 10.5889 19.6471 8.02731C19.6471 5.46566 17.5631 3.38166 15.0014 3.38166C12.4398 3.38166 10.3558 5.4656 10.3558 8.02726ZM27.3075 9.44711H27.1238V9.26342C27.1238 8.92528 26.8497 8.65118 26.5116 8.65118C26.1735 8.65118 25.8993 8.92528 25.8993 9.26342V9.44711H25.7156C25.3776 9.44711 25.1034 9.72121 25.1034 10.0594C25.1034 10.3975 25.3776 10.6716 25.7156 10.6716H25.8993V10.8553C25.8993 11.1934 26.1735 11.4675 26.5116 11.4675C26.8497 11.4675 27.1238 11.1934 27.1238 10.8553V10.6716H27.3075C27.6456 10.6716 27.9198 10.3975 27.9198 10.0594C27.9198 9.72121 27.6456 9.44711 27.3075 9.44711ZM3.61373 4.54414H3.79742C4.13551 4.54414 4.40967 4.81825 4.40967 5.15639C4.40967 5.49453 4.13551 5.76863 3.79742 5.76863H3.61373V5.95232C3.61373 6.29047 3.33957 6.56457 3.00149 6.56457C2.6634 6.56457 2.38924 6.29047 2.38924 5.95232V5.76863H2.20555C1.86747 5.76863 1.59331 5.49453 1.59331 5.15639C1.59331 4.81825 1.86747 4.54414 2.20555 4.54414H2.38924V4.36045C2.38924 4.02231 2.6634 3.74821 3.00149 3.74821C3.33957 3.74821 3.61373 4.02231 3.61373 4.36045V4.54414ZM6.8982 12.3809H6.71451V12.1972C6.71451 11.8591 6.44035 11.585 6.10226 11.585C5.76418 11.585 5.49002 11.8591 5.49002 12.1972V12.3809H5.30633C4.96824 12.3809 4.69408 12.655 4.69408 12.9931C4.69408 13.3313 4.96824 13.6054 5.30633 13.6054H5.49002V13.7891C5.49002 14.1272 5.76418 14.4013 6.10226 14.4013C6.44035 14.4013 6.71451 14.1272 6.71451 13.7891V13.6054H6.8982C7.23628 13.6054 7.51044 13.3313 7.51044 12.9931C7.51044 12.655 7.23622 12.3809 6.8982 12.3809ZM20.2647 18.7482H23.3097C23.6478 18.7482 23.922 19.0223 23.922 19.3604C23.922 19.6986 23.6479 19.9727 23.3097 19.9727H20.2647C19.9266 19.9727 19.6524 19.6986 19.6524 19.3604C19.6524 19.0223 19.9266 18.7482 20.2647 18.7482ZM18.1831 18.7482H6.63193C6.29385 18.7482 6.01969 19.0223 6.01969 19.3604C6.01969 19.6986 6.29385 19.9727 6.63193 19.9727H18.1831C18.5212 19.9727 18.7953 19.6986 18.7953 19.3604C18.7953 19.0223 18.5212 18.7482 18.1831 18.7482ZM22.3987 21.6869H23.3098C23.6478 21.6869 23.922 21.961 23.922 22.2992C23.922 22.6373 23.6479 22.9114 23.3098 22.9114H22.3987C22.0607 22.9114 21.7865 22.6373 21.7865 22.2992C21.7865 21.961 22.0607 21.6869 22.3987 21.6869ZM11.5763 21.6869H10.1449C9.80677 21.6869 9.53267 21.961 9.53267 22.2992C9.53267 22.6373 9.80677 22.9114 10.1449 22.9114H11.5763C11.9144 22.9114 12.1885 22.6373 12.1885 22.2992C12.1885 21.961 11.9144 21.6869 11.5763 21.6869ZM6.69316 21.6869H8.06332C8.4014 21.6869 8.67556 21.961 8.67556 22.2992C8.67556 22.6373 8.4014 22.9114 8.06332 22.9114H6.69316C6.35508 22.9114 6.08092 22.6373 6.08092 22.2992C6.08092 21.961 6.35508 21.6869 6.69316 21.6869ZM20.3172 21.6869H13.658C13.3199 21.6869 13.0457 21.961 13.0457 22.2992C13.0457 22.6373 13.3199 22.9114 13.658 22.9114H20.3171C20.6553 22.9114 20.9294 22.6373 20.9294 22.2992C20.9294 21.961 20.6553 21.6869 20.3172 21.6869ZM27.9198 19.9727H26.0218C25.5492 19.9727 25.1647 20.3572 25.1647 20.8298C25.1647 21.3025 25.5492 21.687 26.0219 21.687H26.5117C27.6595 21.687 28.5933 22.6208 28.5933 23.7686C28.5933 24.9165 27.6595 25.8503 26.5117 25.8503H3.4913C2.34345 25.8503 1.40965 24.9165 1.40965 23.7686C1.40965 22.6208 2.34345 21.687 3.4913 21.687H3.55534C4.02802 21.687 4.41251 21.3025 4.41251 20.8298C4.41251 20.3572 4.02802 19.9727 3.55534 19.9727H2.08312C0.935271 19.9727 0.00146484 19.0389 0.00146484 17.8911C0.00146484 16.7432 0.935271 15.8094 2.08312 15.8094H27.9198C29.0676 15.8094 30.0014 16.7433 30.0014 17.8911C30.0014 19.0389 29.0676 19.9727 27.9198 19.9727ZM26.5116 22.9114H26.0218C24.874 22.9114 23.9402 21.9777 23.9402 20.8298C23.9402 19.682 24.874 18.7482 26.0218 18.7482H27.9198C28.3925 18.7482 28.777 18.3637 28.777 17.891C28.777 17.4183 28.3925 17.0338 27.9198 17.0338H2.08312C1.61045 17.0338 1.22595 17.4183 1.22595 17.891C1.22595 18.3637 1.61045 18.7482 2.08312 18.7482H3.55528C4.70313 18.7482 5.63694 19.682 5.63694 20.8298C5.63694 21.9776 4.70313 22.9114 3.55528 22.9114H3.49124C3.01857 22.9114 2.63408 23.2959 2.63408 23.7686C2.63408 24.2413 3.01857 24.6258 3.49124 24.6258H26.5116C26.9843 24.6258 27.3688 24.2413 27.3688 23.7686C27.3688 23.2959 26.9843 22.9114 26.5116 22.9114Z" fill="#565656"/>
</svg>
