<svg width="18" height="18" viewBox="0 0 18 18" fill="none" xmlns="http://www.w3.org/2000/svg">
<g clip-path="url(#clip0_148_224)">
<path d="M9.25391 0.430786C7.57277 0.430786 5.92938 0.929302 4.53156 1.86329C3.13375 2.79729 2.04428 4.1248 1.40093 5.67798C0.757589 7.23115 0.589261 8.94022 0.917235 10.5891C1.24521 12.2379 2.05476 13.7524 3.2435 14.9412C4.43225 16.1299 5.9468 16.9395 7.59564 17.2675C9.24448 17.5954 10.9535 17.4271 12.5067 16.7838C14.0599 16.1404 15.3874 15.051 16.3214 13.6531C17.2554 12.2553 17.7539 10.6119 17.7539 8.93079C17.7539 6.67645 16.8584 4.51444 15.2643 2.92038C13.6703 1.32632 11.5083 0.430786 9.25391 0.430786ZM9.25391 16.015C7.85278 16.015 6.48312 15.5995 5.31813 14.8211C4.15314 14.0427 3.24513 12.9363 2.70895 11.6418C2.17276 10.3473 2.03247 8.92293 2.30581 7.54872C2.57916 6.17452 3.25387 4.91223 4.24461 3.92149C5.23536 2.93074 6.49764 2.25603 7.87185 1.98269C9.24605 1.70934 10.6705 1.84963 11.9649 2.38582C13.2594 2.92201 14.3658 3.83001 15.1442 4.99501C15.9226 6.16 16.3381 7.52966 16.3381 8.93079C16.3346 10.8086 15.5871 12.6084 14.2593 13.9362C12.9315 15.264 11.1317 16.0115 9.25391 16.015Z" fill="#8F8F8F"/>
<path d="M12.3221 9.63998L10.4362 8.22155L9.96336 7.86827V3.97155C9.96336 3.78345 9.88864 3.60306 9.75563 3.47005C9.62263 3.33705 9.44224 3.26233 9.25414 3.26233C9.06604 3.26233 8.88565 3.33705 8.75265 3.47005C8.61964 3.60306 8.54492 3.78345 8.54492 3.97155V8.22155C8.54546 8.27709 8.55259 8.33238 8.56617 8.38624C8.5789 8.43821 8.59856 8.48824 8.62461 8.53499C8.64287 8.58155 8.66892 8.62466 8.70164 8.66249C8.70164 8.66249 8.70164 8.68374 8.72289 8.68905C8.75232 8.72338 8.78526 8.75454 8.82117 8.78202L8.85039 8.80327L9.95539 9.63202L11.6554 10.907C11.7774 11 11.927 11.0496 12.0804 11.0478C12.2288 11.0472 12.3733 11.0002 12.4935 10.9132C12.6137 10.8262 12.7036 10.7036 12.7506 10.5629C12.7975 10.4221 12.7991 10.2701 12.7551 10.1284C12.7111 9.98665 12.6238 9.86228 12.5054 9.7728L12.3221 9.63998Z" fill="#8F8F8F"/>
</g>
<defs>
<clipPath id="clip0_148_224">
<rect width="17" height="17" fill="white" transform="translate(0.753906 0.430786)"/>
</clipPath>
</defs>
</svg>
