<svg width="50" height="50" viewBox="0 0 50 50" fill="none" xmlns="http://www.w3.org/2000/svg">
<g clip-path="url(#clip0_7295_2336)">
<path d="M0.419922 0.117184C0.0195312 0.312496 -0.00976562 0.595699 0.0195312 3.50586L0.0488281 6.26953L0.283203 6.45507C0.498047 6.63086 0.732422 6.64062 5.33203 6.64062H10.1562V7.34375V8.05664L9.64844 8.25195C9.32617 8.3789 9.04297 8.58398 8.84766 8.81836L8.54492 9.19921V10.5957V11.9922L8.84766 12.373C9.04297 12.6074 9.32617 12.8125 9.64844 12.9394L10.1562 13.1348V14.0137V14.9023L9.73633 15.0098C8.75 15.2734 8.49609 15.7422 8.49609 17.2754V18.3496L7.04102 18.3789C5.5957 18.4082 5.57617 18.4082 5.15625 18.7012C4.62891 19.082 4.29688 19.6484 4.29688 20.1855C4.29688 20.6641 4.48242 20.5762 2.39258 21.0449C1.09375 21.3379 0.791016 21.4355 0.605469 21.6406L0.390625 21.8848V27.2461C0.390625 31.0254 0.419922 32.6758 0.498047 32.8516C0.644531 33.1543 0.810547 33.2227 2.61719 33.6328C3.4375 33.8281 4.15039 34.0039 4.20898 34.0332C4.25781 34.0723 4.29688 34.248 4.29688 34.4336C4.29688 34.6191 4.38477 34.9316 4.48242 35.1367C4.84375 35.8301 5.40039 36.1816 6.32812 36.2891L6.93359 36.3574V37.6562V38.9648H6.15234C5.2832 38.9648 4.95117 39.0723 4.79492 39.4238C4.63867 39.7559 4.6582 39.8828 4.89258 40.1758L5.08789 40.4297H21.5332C30.5762 40.4297 38.0371 40.459 38.125 40.4883C38.252 40.5371 38.2812 40.752 38.2812 41.8359V43.125H37.2363C35.9082 43.125 35.2246 43.3008 33.8379 43.9941C32.7832 44.5215 31.7773 44.8242 31.0547 44.8242C30.3418 44.8242 29.3652 44.5215 28.2031 43.9648C26.7578 43.2617 26.2305 43.125 24.9512 43.125C23.7695 43.125 22.9492 43.3496 21.582 44.0527C20.6641 44.5215 19.6387 44.8242 18.9453 44.8242C18.2227 44.8242 17.2168 44.5215 16.1621 43.9941C14.7949 43.3105 14.0918 43.125 12.8418 43.125C11.6016 43.1348 10.9668 43.3008 9.48242 44.0332C8.07617 44.7266 7.27539 44.9023 6.20117 44.7559C5.25391 44.6191 4.58008 44.3262 2.91016 43.3105L1.47461 42.4316L1.46484 41.4258V40.4297H2.12891C2.70508 40.4297 2.83203 40.4004 3.00781 40.2051C3.27148 39.9219 3.28125 39.5508 3.03711 39.248C2.86133 39.0234 2.79297 39.0137 1.61133 39.0137C0.429688 39.0137 0.361328 39.0234 0.185547 39.248C0.00976562 39.4629 0 39.6973 0 44.502V49.5215L0.244141 49.7559L0.478516 50H25H49.5215L49.7656 49.7559L50 49.5117L49.9805 38.5059L49.9512 27.4902L49.6387 26.8555C49.0527 25.6641 48.0469 24.9121 46.7773 24.707C46.4258 24.6582 44.5508 24.6094 42.6074 24.6094H39.0723L39.043 22.1289L39.0137 19.6484L38.7207 19.2285C38.5645 19.0039 38.2324 18.7109 37.998 18.584C37.5781 18.3691 37.4902 18.3594 35.1367 18.3594H32.7148V17.2363C32.7148 16.0059 32.6367 15.6934 32.168 15.1465C31.709 14.5996 31.2695 14.4531 30.0098 14.4531C29.0234 14.4531 28.9062 14.4336 28.9062 14.2773C28.9062 14.1894 29.209 13.1445 29.5801 11.9629L30.2539 9.81445L30.6934 9.75586C31.7188 9.59961 32.4609 9.07226 32.9004 8.18359C33.8672 6.25976 32.5098 4.07226 30.3711 4.07226C29.2578 4.07226 28.3789 4.60937 27.8516 5.61523C27.627 6.03515 27.5879 6.2207 27.5879 6.93359C27.5879 7.90039 27.7734 8.33984 28.4375 8.98437L28.8477 9.375L28.4863 10.5664C28.2812 11.2305 27.9297 12.3633 27.7051 13.0859L27.2852 14.4043L25.4199 14.4531L23.5547 14.5019L23.125 14.7949C22.8516 14.9902 22.6074 15.2734 22.4414 15.6152C22.1875 16.1035 22.168 16.2402 22.168 17.2559V18.3594H20.3125H18.457V17.2754C18.457 15.7519 18.1934 15.2734 17.2168 15.0098L16.7969 14.9023V13.9941V13.0957L17.1777 12.9883C17.6758 12.8613 18.0273 12.5684 18.2715 12.0898C18.4473 11.7383 18.4668 11.5527 18.4375 10.4492C18.4082 9.21875 18.3984 9.18945 18.1055 8.81836C17.9102 8.58398 17.627 8.3789 17.3047 8.25195L16.7969 8.05664V5.76171C16.7969 3.19336 16.709 2.63671 16.2012 1.83593C15.791 1.20117 15.2246 0.712887 14.4629 0.351559L13.8184 0.0488243L10.8105 0.0195274C7.54883 -0.0195351 7.42188 -3.8147e-06 7.23633 0.517574C7.13867 0.791012 7.28516 1.24023 7.51953 1.36718C7.62695 1.42578 8.87695 1.46484 10.5176 1.46484C13.5449 1.47461 13.7598 1.5039 14.4043 1.99218C14.5898 2.13867 14.8633 2.46093 15.0098 2.71484L15.2832 3.17382L15.3125 5.63476L15.3418 8.10546H13.4863H11.6211V6.88476C11.6211 5.71289 11.6113 5.64453 11.377 5.41992L11.1426 5.17578H6.29883H1.46484V3.32031V1.46484H3.36914C5.14648 1.46484 5.2832 1.45507 5.46875 1.26953C5.76172 0.976559 5.73242 0.458981 5.41016 0.205074C5.16602 0.00976181 5.0293 -3.8147e-06 2.89062 0.00976181C1.52344 0.00976181 0.546875 0.0585899 0.419922 0.117184ZM31.1328 5.73242C31.6895 6.07421 31.9141 7.04101 31.5723 7.61718C31.3672 7.96875 30.7812 8.30078 30.3613 8.30078C29.6875 8.30078 29.0039 7.61718 29.0039 6.95312C29.0039 6.57226 29.209 6.05468 29.4238 5.86914C29.8828 5.49804 30.6543 5.42968 31.1328 5.73242ZM16.9434 10.5957V11.5723H13.4766H10.0098L9.98047 10.7031C9.96094 10.2246 9.9707 9.77539 10 9.69726C10.0488 9.58984 10.6934 9.57031 13.4961 9.58984L16.9434 9.61914V10.5957ZM15.332 14.0137V14.9414H13.4766H11.6211V14.0137V13.0859H13.4766H15.332V14.0137ZM31.0547 16.1133C31.2207 16.2793 31.25 16.4355 31.25 17.334V18.3594H27.4414H23.6328V17.334C23.6328 15.791 23.3008 15.918 27.4414 15.918C30.7324 15.918 30.8691 15.9277 31.0547 16.1133ZM16.9922 17.3828V18.3594H13.4766H9.96094V17.3828V16.4062H13.4766H16.9922V17.3828ZM8.47656 27.3145L8.44727 34.8145H7.26562C6.40625 34.8145 6.03516 34.7754 5.92773 34.6777C5.77148 34.5605 5.76172 33.916 5.76172 27.334C5.76172 20.918 5.78125 20.1172 5.91797 19.9805C6.03516 19.8535 6.30859 19.8242 7.28516 19.8242H8.49609L8.47656 27.3145ZM33.3984 27.3437V34.8633H21.6797H9.96094V27.3437V19.8242H21.6797H33.3984V27.3437ZM37.4414 19.9805C37.5781 20.1172 37.5977 20.918 37.5977 27.334C37.5977 33.916 37.5879 34.5605 37.4316 34.6777C37.3242 34.7754 36.9043 34.8242 36.0645 34.8437L34.8633 34.8828V27.3535V19.8242H36.0742C37.0508 19.8242 37.3242 19.8535 37.4414 19.9805ZM4.29688 27.2754C4.29688 30.0879 4.27734 32.4121 4.24805 32.4414C4.21875 32.4609 3.68164 32.373 3.05664 32.2266L1.9043 31.9629L1.875 27.3145L1.85547 22.6758L2.80273 22.4609C3.33008 22.3437 3.80859 22.2363 3.85742 22.2168C3.91602 22.1973 4.0332 22.1777 4.13086 22.1777C4.28711 22.168 4.29688 22.4707 4.29688 27.2754ZM47.2266 26.3379C47.7441 26.6113 48.2715 27.2266 48.418 27.7246C48.5059 27.9883 48.5352 30.1074 48.5352 35.2637V42.4316L47.2461 43.2129C45.6934 44.1602 45.2051 44.4238 45.0488 44.4336C44.9512 44.4336 44.9219 43.916 44.9219 42.1387C44.9219 39.9707 44.9121 39.834 44.7266 39.6484C44.5117 39.4336 44.1406 39.3945 43.8477 39.5508C43.5156 39.7266 43.457 40.1855 43.457 42.5391V44.8242H43.1445C42.4902 44.8145 41.5039 44.5312 40.6348 44.1016L39.7461 43.6523V42.0117C39.7461 40.6348 39.7168 40.3223 39.5605 39.9902C39.2285 39.2773 38.6719 38.9746 37.627 38.9648H37.0117V37.5977V36.2305H37.3047C37.8809 36.2305 38.5547 35.7617 38.877 35.1367C39.043 34.8145 39.0625 34.5508 39.0625 32.959V31.1523H41.25H43.4473L43.4766 34.3359L43.5059 37.5195L43.7793 37.7539C44.1113 38.0371 44.3262 38.0469 44.668 37.7832L44.9219 37.5879V33.8281C44.9219 30.2051 44.9121 30.0684 44.7266 29.8828C44.541 29.6973 44.4043 29.6875 41.7969 29.6875H39.0625V27.9492C39.0625 26.9922 39.0918 26.1719 39.1309 26.1328C39.1699 26.0937 40.918 26.0742 43.0176 26.0937C46.7285 26.123 46.8359 26.1328 47.2266 26.3379ZM35.5469 37.6465V38.9648H21.9727H8.39844V37.6465V36.3281H21.9727H35.5469V37.6465ZM2.92969 45.0293C4.08203 45.7227 4.87305 46.0352 5.89844 46.1914C7.30469 46.4062 8.49609 46.1719 10.1074 45.3613C12.2461 44.2871 13.3789 44.2871 15.625 45.3516C17.1875 46.0937 17.7148 46.2305 18.9453 46.2305C20.1758 46.2305 20.7227 46.0937 22.1289 45.4004C23.2812 44.834 24.2773 44.5312 25 44.5312C25.7129 44.5312 26.7285 44.8242 27.6367 45.3027C28.9941 46.0059 29.8145 46.2305 31.0059 46.2305C32.2852 46.2402 32.793 46.1035 34.375 45.3516C36.6211 44.2871 37.7539 44.2871 39.8926 45.3613C41.5039 46.1719 42.6953 46.4062 44.1016 46.1914C45.332 46.0059 46.4062 45.5176 48.2812 44.2871L48.5352 44.1211V46.3281V48.5352H25H1.46484V46.3281V44.1211L1.71875 44.2871C1.85547 44.375 2.40234 44.707 2.92969 45.0293Z" fill="#231F20"/>
<path d="M12.3535 22.4121L12.1094 22.6465V27.3242V32.002L12.334 32.207C12.5586 32.4219 12.5879 32.4219 16.7285 32.4219C20.7324 32.4219 20.9082 32.4121 21.084 32.2363C21.1914 32.1289 21.3086 31.8945 21.3379 31.7188C21.3672 31.543 21.3867 29.4238 21.3672 27.0215L21.3379 22.6367L21.0645 22.4023L20.791 22.168H16.6895H12.5879L12.3535 22.4121ZM19.9023 27.3145L19.9219 30.957H16.748H13.5742V27.2949V23.6328L16.7285 23.6523L19.873 23.6816L19.9023 27.3145Z" fill="#D7282F"/>
<path d="M15.9863 25.0684C15.7617 25.332 15.127 26.9629 15.1074 27.334C15.0879 27.793 15.4004 28.0273 16.0352 28.0273C16.4551 28.0273 16.5234 28.0469 16.4746 28.1934C16.1816 29.0723 16.1719 29.1797 16.3379 29.4336C16.5527 29.7559 16.9531 29.8633 17.2754 29.6777C17.4609 29.5703 17.6367 29.2676 17.9395 28.5156C18.4082 27.3535 18.4277 27.1582 18.1836 26.8555C18.0469 26.6797 17.8711 26.6211 17.4609 26.582L16.9141 26.543L17.0508 26.1523C17.2363 25.6152 17.2266 25.332 16.9922 25.0977C16.7481 24.8535 16.2012 24.8438 15.9863 25.0684Z" fill="#D7282F"/>
<path d="M23.75 23.7598C23.4473 24.082 23.4668 24.541 23.7891 24.7949C24.043 24.9902 24.1602 25 27.4121 25H30.7715L31.0059 24.7559C31.1426 24.6289 31.25 24.4043 31.25 24.2676C31.25 24.1309 31.1426 23.9062 31.0059 23.7793L30.7715 23.5352H27.3633H23.9551L23.75 23.7598Z" fill="#D7282F"/>
<path d="M23.7891 26.7676C23.4668 27.0215 23.4375 27.5391 23.7305 27.832C23.916 28.0176 24.0527 28.0273 27.373 28.0273H30.8301L31.0352 27.8027C31.3184 27.5 31.3086 27.0996 31.0059 26.8066L30.7715 26.5625H27.4121C24.1602 26.5625 24.043 26.5723 23.7891 26.7676Z" fill="#D7282F"/>
<path d="M24.0234 29.6582C23.5254 29.8438 23.3594 30.4883 23.7305 30.8594C23.916 31.0449 24.0527 31.0547 27.3926 31.0547C30.8301 31.0547 30.8496 31.0547 31.0547 30.8398C31.3867 30.4785 31.2988 29.9609 30.8496 29.7363C30.625 29.6191 30 29.5898 27.373 29.5996C25.6152 29.5996 24.1016 29.6289 24.0234 29.6582Z" fill="#D7282F"/>
</g>
<defs>
<clipPath id="clip0_7295_2336">
<rect width="50" height="50" fill="white"/>
</clipPath>
</defs>
</svg>
