<svg width="20" height="21" viewBox="0 0 20 21" fill="none" xmlns="http://www.w3.org/2000/svg">
<path d="M10 19.1808C14.8325 19.1808 18.75 15.2633 18.75 10.4308C18.75 5.59829 14.8325 1.68079 10 1.68079C5.16751 1.68079 1.25 5.59829 1.25 10.4308C1.25 15.2633 5.16751 19.1808 10 19.1808Z" stroke="#8F8F8F" stroke-miterlimit="10" stroke-linecap="round" stroke-linejoin="round"/>
<path d="M10 11.6808C11.7259 11.6808 13.125 10.2817 13.125 8.55579C13.125 6.8299 11.7259 5.43079 10 5.43079C8.27411 5.43079 6.875 6.8299 6.875 8.55579C6.875 10.2817 8.27411 11.6808 10 11.6808Z" stroke="#8F8F8F" stroke-miterlimit="10" stroke-linecap="round" stroke-linejoin="round"/>
<path d="M3.375 16.1183C4.5 13.5558 7 11.7433 10 11.7433C13 11.7433 15.5625 13.5558 16.625 16.1183" stroke="#8F8F8F" stroke-miterlimit="10" stroke-linecap="round" stroke-linejoin="round"/>
</svg>
