<svg width="46" height="46" viewBox="0 0 46 46" fill="none" xmlns="http://www.w3.org/2000/svg">
<g clip-path="url(#clip0_3703_26804)">
<path d="M44.036 1.55029L43.9806 1.49979C42.9218 0.532673 41.5494 0 40.1161 0C38.5092 0 36.9665 0.680213 35.8832 1.86607L15.4002 24.2908C15.2135 24.4952 15.0719 24.7363 14.9843 24.9988L12.5758 32.2192C12.2974 33.0539 12.4371 33.9772 12.9496 34.6886C13.4662 35.4056 14.2985 35.8337 15.176 35.8337C15.5556 35.8337 15.9268 35.7557 16.2787 35.6017L23.2522 32.5509C23.5058 32.44 23.7332 32.2772 23.9198 32.0728L44.4029 9.64824C46.5344 7.31489 46.37 3.68243 44.036 1.55029ZM17.1905 30.8854L18.6037 26.6485L18.7229 26.518L21.4016 28.9646L21.2824 29.0952L17.1905 30.8854ZM41.4824 6.98052L24.0693 26.0443L21.3907 23.5977L38.8038 4.53379C39.1444 4.16091 39.6104 3.95549 40.1162 3.95549C40.5599 3.95549 40.9848 4.12057 41.3137 4.42092L41.3689 4.47142C42.092 5.13186 42.1429 6.25746 41.4824 6.98052Z" fill="#D7282F"/>
<path d="M40.0623 18.2463C38.9701 18.2463 38.0846 19.1318 38.0846 20.2241V37.0147C38.0846 39.788 35.8283 42.0444 33.0549 42.0444H9.08477C6.31131 42.0444 4.0551 39.788 4.0551 37.0147V13.2393C4.0551 10.466 6.31145 8.20964 9.08477 8.20964H26.4345C27.5267 8.20964 28.4122 7.32414 28.4122 6.2319C28.4122 5.13965 27.5267 4.25415 26.4345 4.25415H9.08477C4.13026 4.25415 0.0996094 8.28493 0.0996094 13.2393V37.0146C0.0996094 41.969 4.13039 45.9998 9.08477 45.9998H33.0548C38.0092 45.9998 42.04 41.969 42.04 37.0146V20.2241C42.0401 19.1318 41.1546 18.2463 40.0623 18.2463Z" fill="#D7282F"/>
</g>
<defs>
<clipPath id="clip0_3703_26804">
<rect width="46" height="46" fill="white"/>
</clipPath>
</defs>
</svg>
