<svg width="16" height="17" viewBox="0 0 16 17" fill="none" xmlns="http://www.w3.org/2000/svg">
<path d="M14.9961 5.14062C15.0863 5.06302 15.2014 5.02049 15.3203 5.02083C15.4188 5.0221 15.5151 5.05 15.599 5.10156C15.6632 5.14133 15.7211 5.19049 15.7708 5.2474C15.9093 5.40932 15.9899 5.61272 16 5.82552V15.4141C16 15.5147 15.9801 15.6144 15.9414 15.7074C15.9028 15.8003 15.8461 15.8847 15.7747 15.9557C15.6318 16.1002 15.4375 16.1821 15.2344 16.1836H0.769531C0.565864 16.1833 0.370612 16.1023 0.226563 15.9583C0.15482 15.887 0.0978741 15.8022 0.058994 15.7088C0.020114 15.6154 6.56278e-05 15.5152 0 15.4141L0 5.82552C0.0102367 5.60946 0.092779 5.4031 0.234375 5.23958C0.284325 5.18547 0.342293 5.13936 0.40625 5.10286C0.488522 5.05227 0.583107 5.02525 0.679688 5.02474C0.772084 5.0247 0.862521 5.05138 0.940104 5.10156L0.966146 5.1237V1.73828C0.966867 1.49401 1.06424 1.25995 1.23698 1.08724C1.40969 0.914495 1.64375 0.817127 1.88802 0.816406H14.0677C14.312 0.816842 14.5462 0.914254 14.7188 1.08724C14.7286 1.097 14.7377 1.10744 14.7461 1.11849C14.9028 1.28731 14.9898 1.50922 14.9896 1.73958V5.15104L14.9961 5.14062ZM9.22526 6.40495C9.12166 6.40495 9.0223 6.36379 8.94905 6.29054C8.87579 6.21728 8.83464 6.11792 8.83464 6.01432C8.83464 5.91072 8.87579 5.81137 8.94905 5.73811C9.0223 5.66485 9.12166 5.6237 9.22526 5.6237H10.8906C10.9942 5.6237 11.0936 5.66485 11.1668 5.73811C11.2401 5.81137 11.2813 5.91072 11.2813 6.01432C11.2813 6.11792 11.2401 6.21728 11.1668 6.29054C11.0936 6.36379 10.9942 6.40495 10.8906 6.40495H9.22526ZM5.07813 6.40495C4.97452 6.40495 4.87517 6.36379 4.80191 6.29054C4.72866 6.21728 4.6875 6.11792 4.6875 6.01432C4.6875 5.91072 4.72866 5.81137 4.80191 5.73811C4.87517 5.66485 4.97452 5.6237 5.07813 5.6237H6.74089C6.84449 5.6237 6.94384 5.66485 7.0171 5.73811C7.09036 5.81137 7.13151 5.91072 7.13151 6.01432C7.13151 6.11792 7.09036 6.21728 7.0171 6.29054C6.94384 6.36379 6.84449 6.40495 6.74089 6.40495H5.07813ZM7.05729 8.61849C6.95283 8.61849 6.85264 8.57699 6.77878 8.50313C6.70491 8.42926 6.66341 8.32907 6.66341 8.22461C6.66341 8.12015 6.70491 8.01996 6.77878 7.94609C6.85264 7.87223 6.95283 7.83073 7.05729 7.83073H8.90885C9.01332 7.83073 9.1135 7.87223 9.18737 7.94609C9.26124 8.01996 9.30274 8.12015 9.30274 8.22461C9.30274 8.32907 9.26124 8.42926 9.18737 8.50313C9.1135 8.57699 9.01332 8.61849 8.90885 8.61849H7.05729ZM3.6276 4.20052C3.52314 4.20052 3.42296 4.15902 3.34909 4.08516C3.27522 4.01129 3.23372 3.9111 3.23372 3.80664C3.23372 3.70218 3.27522 3.60199 3.34909 3.52813C3.42296 3.45426 3.52314 3.41276 3.6276 3.41276H5.50651C5.61097 3.41276 5.71116 3.45426 5.78503 3.52813C5.85889 3.60199 5.90039 3.70218 5.90039 3.80664C5.90039 3.9111 5.85889 4.01129 5.78503 4.08516C5.71116 4.15902 5.61097 4.20052 5.50651 4.20052H3.6276ZM10.4609 4.20052C10.3565 4.20052 10.2563 4.15902 10.1824 4.08516C10.1086 4.01129 10.0671 3.9111 10.0671 3.80664C10.0671 3.70218 10.1086 3.60199 10.1824 3.52813C10.2563 3.45426 10.3565 3.41276 10.4609 3.41276H12.3398C12.4443 3.41276 12.5445 3.45426 12.6184 3.52813C12.6922 3.60199 12.7337 3.70218 12.7337 3.80664C12.7337 3.9111 12.6922 4.01129 12.6184 4.08516C12.5445 4.15902 12.4443 4.20052 12.3398 4.20052H10.4609ZM7.32162 4.20052C7.21715 4.20052 7.11697 4.15902 7.0431 4.08516C6.96923 4.01129 6.92774 3.9111 6.92774 3.80664C6.92774 3.70218 6.96923 3.60199 7.0431 3.52813C7.11697 3.45426 7.21715 3.41276 7.32162 3.41276H8.6237C8.72816 3.41276 8.82835 3.45426 8.90221 3.52813C8.97608 3.60199 9.01758 3.70218 9.01758 3.80664C9.01758 3.9111 8.97608 4.01129 8.90221 4.08516C8.82835 4.15902 8.72816 4.20052 8.6237 4.20052H7.32162ZM1.78516 5.83854L6.33333 9.90234L6.35287 9.92057L7.92188 11.3216L14.1823 5.85286V1.72917C14.1819 1.70528 14.1742 1.68209 14.1602 1.66276L14.1497 1.65234C14.1294 1.63177 14.1018 1.62007 14.0729 1.61979H1.89323C1.8666 1.6217 1.8416 1.63328 1.82292 1.65234C1.81291 1.66246 1.80499 1.67445 1.79963 1.68764C1.79427 1.70082 1.79156 1.71493 1.79167 1.72917V5.83854H1.78516ZM14.9167 6.19661C14.882 6.24335 14.8375 6.282 14.7865 6.3099L10.3971 10.1445L15.2552 14.4023V5.89974L14.9167 6.19661ZM7.67188 12.0924L6.09505 10.6836L0.744792 15.3711V15.4141C0.742549 15.4195 0.742549 15.4256 0.744792 15.431C0.750211 15.4332 0.756299 15.4332 0.761719 15.431H15.2344C15.2398 15.4332 15.2459 15.4332 15.2513 15.431C15.2535 15.4256 15.2535 15.4195 15.2513 15.4141V15.3893L9.83333 10.6367L8.16406 12.0951C8.09619 12.1552 8.00865 12.1884 7.91797 12.1884C7.82729 12.1884 7.73975 12.1552 7.67188 12.0951V12.0924ZM5.53646 10.181L0.744792 5.90365V14.3841L5.53646 10.181Z" fill="#4E4E4E"/>
</svg>
