<svg width="131" height="84" viewBox="0 0 131 84" fill="none" xmlns="http://www.w3.org/2000/svg">
<path d="M84.2053 40.3902C83.9107 38.5393 83.7711 36.7365 83.7863 34.9795C83.8016 33.2733 83.9641 31.6279 84.2713 30.0537L71.9721 24.0057C70.0703 23.1221 68.0213 23.4369 67.0717 25.4733C66.7746 26.108 66.5842 26.9078 66.5385 27.8676L66.5359 42.4672C66.5461 45.1027 67.3408 47.7662 70.5731 46.5856L84.2053 40.3902ZM15.9984 51.3793C16.5708 51.3793 17.1198 51.6067 17.5245 52.0114C17.9293 52.4162 18.1566 52.9651 18.1566 53.5375C18.1566 54.7309 17.1918 55.6982 15.9984 55.6982H15.6227C14.4318 55.6982 13.4645 54.7309 13.4645 53.5375C13.4645 52.3467 14.4318 51.3793 15.6227 51.3793H15.9984ZM45.0123 64.2574C45.5847 64.2574 46.1336 64.4848 46.5384 64.8895C46.9431 65.2943 47.1705 65.8432 47.1705 66.4156C47.1705 66.988 46.9431 67.537 46.5384 67.9417C46.1336 68.3465 45.5847 68.5738 45.0123 68.5738H23.2195C22.6471 68.5738 22.0982 68.3465 21.6935 67.9417C21.2887 67.537 21.0613 66.988 21.0613 66.4156C21.0613 65.8432 21.2887 65.2943 21.6935 64.8895C22.0982 64.4848 22.6471 64.2574 23.2195 64.2574H45.0123ZM15.8689 64.2574C17.0623 64.2574 18.0271 65.2223 18.0271 66.4156C18.0271 66.988 17.7998 67.537 17.395 67.9417C16.9903 68.3465 16.4413 68.5738 15.8689 68.5738H15.6227C15.0503 68.5738 14.5013 68.3465 14.0966 67.9417C13.6918 67.537 13.4645 66.988 13.4645 66.4156C13.4645 65.8432 13.6918 65.2943 14.0966 64.8895C14.5013 64.4848 15.0503 64.2574 15.6227 64.2574H15.8689ZM55.2904 51.3793C56.4812 51.3793 57.4486 52.3467 57.4486 53.5375C57.4486 54.7309 56.4812 55.6982 55.2904 55.6982H23.2195C22.0287 55.6982 21.0613 54.7309 21.0613 53.5375C21.0613 52.3467 22.0287 51.3793 23.2195 51.3793H55.2904ZM11.5906 0.341614H119.409C125.496 0.341614 130.5 5.34357 130.5 11.4322V72.5678C130.5 78.659 125.501 83.6584 119.409 83.6584H11.5906C5.49941 83.6584 0.5 78.6564 0.5 72.5678V11.4322C0.5 5.33087 5.48926 0.341614 11.5906 0.341614ZM62.9939 39.7834H4.81641V72.5678C4.81641 76.2875 7.86582 79.342 11.5906 79.342H86.9246V47.2L77.1975 64.6713C76.908 65.1893 76.2529 65.3772 75.735 65.0877C75.489 64.9515 75.3059 64.7247 75.2246 64.4555L73.2289 57.7727L66.0586 60.3981C65.5 60.6037 64.8805 60.3143 64.6748 59.7582C64.5479 59.4129 64.6113 59.0447 64.8068 58.7654L70.9107 50.0869C70.2354 50.2621 69.6006 50.3434 69.0039 50.3383C64.6469 50.3002 63.1057 46.1133 63.0955 42.4596C63.06 41.7309 63.0244 40.8117 62.9939 39.7834ZM4.81641 35.467H62.9076C62.8771 32.509 62.9127 29.5205 63.0955 27.8016C63.1539 26.3365 63.4611 25.0721 63.9537 24.0158C65.7234 20.2301 69.7961 19.1916 73.4396 20.8953L86.5818 27.3572C86.6936 27.2684 86.8078 27.1846 86.9246 27.1033V4.65802H11.5906C7.86582 4.65802 4.81641 7.70743 4.81641 11.4322V35.467ZM91.241 4.65802V25.9024C92.668 25.9912 93.9756 26.5219 95.0344 27.3572L108.177 20.8953C113.559 18.3791 118.29 21.9592 118.521 27.8016C118.592 32.4354 118.737 37.8816 118.521 42.4596C118.505 47.6012 115.535 51.9481 109.766 49.7873L107.019 48.5381L114.169 60.4539C114.346 60.7281 114.395 61.076 114.275 61.4061C114.07 61.9621 113.45 62.2516 112.892 62.0459L105.724 59.4205L103.728 66.1033C103.648 66.3723 103.466 66.5992 103.22 66.7355C103.097 66.8049 102.962 66.8492 102.821 66.8661C102.681 66.8829 102.539 66.8719 102.402 66.8337C102.266 66.7955 102.139 66.7308 102.028 66.6434C101.917 66.556 101.824 66.4475 101.755 66.3242L91.241 47.5936V79.342H119.409C123.121 79.342 126.184 76.2799 126.184 72.5678V11.4322C126.184 7.71251 123.129 4.65802 119.409 4.65802H91.241ZM97.4973 31.3029C97.5938 31.7625 97.6471 32.2399 97.6471 32.7274V32.7426C97.7105 33.55 97.7461 34.365 97.7486 35.1826C97.7563 36.9168 97.6318 38.6484 97.3881 40.3801L111.043 46.5856C114.278 47.7662 115.07 45.1027 115.08 42.4672L115.075 27.8676C115.035 26.9078 114.842 26.108 114.547 25.4733C113.59 23.4268 111.521 23.1322 109.644 24.0057L97.3119 30.069C97.383 30.4777 97.4439 30.8891 97.4973 31.3029ZM94.1102 38.8135C94.4123 36.0891 94.3818 33.3748 93.9146 30.6682C93.7775 30.46 93.6176 30.267 93.4424 30.0918C92.767 29.4164 91.8352 28.9949 90.8094 28.9949C89.7836 28.9949 88.8492 29.4164 88.1738 30.0918C87.9758 30.2873 87.8031 30.5082 87.6533 30.7443C87.1404 33.3824 87.1176 36.0332 87.4477 38.6941C87.6305 39.075 87.8768 39.4203 88.1738 39.7174C88.8492 40.3928 89.7836 40.8143 90.8068 40.8143C91.8326 40.8143 92.767 40.3928 93.4424 39.7174C93.709 39.4508 93.9324 39.1486 94.1102 38.8135Z" fill="#9A9A9A"/>
</svg>
