<svg width="75" height="75" viewBox="0 0 75 75" fill="none" xmlns="http://www.w3.org/2000/svg">
<path d="M71.1841 30.553H65.9674C65.3569 30.553 64.8614 31.0477 64.8614 31.659V39.4172H60.186L53.2218 30.974C53.0117 30.7196 52.699 30.5721 52.3687 30.5721H41.2334V24.7567C41.2334 24.1455 40.7379 23.6507 40.1274 23.6507H30.0303V19.6964H40.1982C40.8087 19.6964 41.3042 19.2016 41.3042 18.5904C41.3042 17.9791 40.8087 17.4844 40.1982 17.4844H17.6504C17.0391 17.4844 16.5444 17.9791 16.5444 18.5904C16.5444 19.2016 17.0391 19.6964 17.6504 19.6964H27.8183V23.6507H17.6504C17.0391 23.6507 16.5444 24.1455 16.5444 24.7567V30.5721H10.729C10.1177 30.5721 9.62297 31.0669 9.62297 31.6781V39.7867H4.92686V33.1823C4.92686 32.5711 4.43211 32.0763 3.82085 32.0763C3.2096 32.0763 2.71484 32.5711 2.71484 33.1823V48.603C2.71484 49.2135 3.2096 49.709 3.82085 49.709C4.43211 49.709 4.92686 49.2135 4.92686 48.603V41.9987H9.62297V51.267C9.62297 51.8775 10.1177 52.373 10.729 52.373H17.233L21.1026 57.5919C21.3113 57.8728 21.6409 58.0387 21.9911 58.0387H59.6647C60.2752 58.0387 60.7707 57.5432 60.7707 56.9327V46.7058H64.8614V54.3469C64.8614 54.9574 65.3569 55.4529 65.9674 55.4529H71.1841C71.7946 55.4529 72.2901 54.9574 72.2901 54.3469V31.659C72.2901 31.0485 71.7946 30.553 71.1841 30.553ZM59.6647 44.4938C59.0541 44.4938 58.5587 44.9893 58.5587 45.5998V55.8267H22.5478L18.6782 50.6078C18.4696 50.3262 18.14 50.161 17.7897 50.161H11.835V32.7842H17.6504C18.2616 32.7842 18.7564 32.2894 18.7564 31.6781V25.8628H39.0214V31.6781C39.0214 32.2894 39.5169 32.7842 40.1274 32.7842H51.8474L58.8116 41.2274C59.0217 41.4825 59.3343 41.63 59.6647 41.63H64.8614V44.4946L59.6647 44.4938ZM70.0781 53.2409H67.0734V32.765H70.0781V53.2409Z" fill="black"/>
<path d="M39.2855 41.6517C39.1118 41.4239 38.8882 41.2388 38.6319 41.1106C38.3756 40.9825 38.0934 40.9147 37.8069 40.9124H35.4291L37.1275 35.4774L33.6307 34.3984L31.213 42.2512C31.1249 42.5222 31.1026 42.8103 31.1477 43.0917C31.1929 43.3731 31.3043 43.6398 31.4727 43.8697C31.6411 44.1047 31.8631 44.2961 32.1202 44.4282C32.3774 44.5602 32.6623 44.6291 32.9514 44.629H35.3292L33.6307 50.0639L37.1275 51.1429L39.5453 43.3302C39.6436 43.0507 39.6713 42.7512 39.626 42.4584C39.5807 42.1655 39.4637 41.8884 39.2855 41.6517Z" fill="#D7282F" stroke="white" stroke-width="0.2" stroke-linecap="round" stroke-linejoin="round"/>
</svg>
