<svg width="9" height="9" viewBox="0 0 9 9" fill="none" xmlns="http://www.w3.org/2000/svg">
<path d="M5.30276 4.50006L8.94117 0.861841C9.01948 0.783431 9.01948 0.656383 8.94117 0.577974L8.42226 0.0587834C8.38462 0.0212379 8.33342 0 8.28024 0C8.22695 0 8.17585 0.0212379 8.13821 0.0587834L4.49989 3.6971L0.86158 0.0587834C0.786204 -0.0165921 0.652804 -0.0164973 0.577618 0.0587834L0.0588071 0.577974C-0.0196024 0.656383 -0.0196024 0.783431 0.0588071 0.861841L3.69712 4.50006L0.0588071 8.13828C-0.0196024 8.21669 -0.0196024 8.34373 0.0588071 8.42214L0.577713 8.94133C0.615353 8.97888 0.666457 9.00012 0.719741 9.00012C0.773025 9.00012 0.824034 8.97888 0.861675 8.94133L4.49999 5.30302L8.1383 8.94133C8.17594 8.97888 8.22714 9.00012 8.28033 9.00012C8.33352 9.00012 8.38472 8.97888 8.42236 8.94133L8.94126 8.42214C9.01958 8.34373 9.01958 8.21669 8.94126 8.13828L5.30276 4.50006Z" fill="white"/>
</svg>
