<svg width="20" height="18" viewBox="0 0 20 18" fill="none" xmlns="http://www.w3.org/2000/svg">
<path fill-rule="evenodd" clip-rule="evenodd" d="M10 0.138C10.742 0.138 11.42 0.545002 11.768 1.2L19.107 15.064C19.2695 15.3685 19.35 15.7101 19.3406 16.0551C19.3311 16.4002 19.232 16.7369 19.053 17.032C18.688 17.638 18.047 18 17.339 18H2.661C2.31595 18.0015 1.97646 17.9131 1.67604 17.7433C1.37564 17.5736 1.1247 17.3284 0.947999 17.032C0.768708 16.737 0.669449 16.4003 0.659974 16.0552C0.650498 15.7101 0.731156 15.3684 0.893998 15.064L8.232 1.201C8.58 0.545002 9.258 0.138 10 0.138ZM10 2.137L2.661 16H17.344L10 2.137ZM11.001 7H9.00101V12H11.001V7ZM11 15V13H9V15H11Z" fill="#D32F2F"/>
</svg>
