<svg width="69" height="66" viewBox="0 0 69 66" fill="none" xmlns="http://www.w3.org/2000/svg">
<path d="M49.223 24.8592C49.1983 24.7215 49.1466 24.5901 49.0708 24.4725C48.995 24.3548 48.8967 24.2534 48.7816 24.1739C48.6664 24.0945 48.5367 24.0386 48.3998 24.0095C48.2629 23.9804 48.1217 23.9787 47.9842 24.0044C47.8466 24.0302 47.7156 24.0829 47.5985 24.1595C47.4814 24.2361 47.3807 24.3352 47.3021 24.4509C47.2235 24.5667 47.1685 24.6968 47.1404 24.8339C47.1124 24.9709 47.1117 25.1122 47.1384 25.2495C47.4167 26.7278 47.63 28.2483 47.7719 29.7999C47.909 31.2997 47.9784 32.8639 47.98 34.4925C47.98 42.7022 46.0704 50.1142 42.9828 55.4607C39.9952 60.6345 35.9264 63.8346 31.4849 63.8346C27.0434 63.8346 22.975 60.6341 19.987 55.4607C16.8998 50.1142 14.9898 42.7022 14.9898 34.4925C14.9881 32.383 15.1172 30.2753 15.3761 28.1817C15.6238 26.1625 16.005 24.1618 16.517 22.193C16.5519 22.0583 16.56 21.9181 16.5407 21.7803C16.5214 21.6425 16.4751 21.5099 16.4046 21.39C16.334 21.2701 16.2405 21.1652 16.1294 21.0815C16.0184 20.9977 15.8919 20.9366 15.7572 20.9017C15.6225 20.8668 15.4823 20.8588 15.3445 20.8781C15.2067 20.8974 15.0741 20.9436 14.9542 21.0142C14.8343 21.0848 14.7294 21.1782 14.6457 21.2893C14.5619 21.4004 14.5008 21.5269 14.4659 21.6616C13.9285 23.7205 13.5278 25.8127 13.2663 27.9246C12.9966 30.1036 12.862 32.2973 12.8633 34.4929C12.8633 43.0758 14.8841 50.8665 18.1516 56.5243C21.5187 62.3548 26.2289 65.9615 31.4845 65.9615C36.7401 65.9615 41.4507 62.3548 44.8174 56.5243C48.0845 50.8665 50.1057 43.0758 50.1057 34.4929C50.1057 32.8608 50.0287 31.2287 49.8808 29.6089C49.7309 27.9712 49.5097 26.3845 49.2222 24.8592H49.223ZM20.3968 9.15786C20.3101 9.26639 20.2457 9.39093 20.2071 9.52437C20.1685 9.65782 20.1566 9.79755 20.1721 9.9356C20.1875 10.0736 20.23 10.2073 20.2971 10.3289C20.3642 10.4506 20.4546 10.5578 20.5631 10.6445C20.6716 10.7312 20.7962 10.7956 20.9296 10.8342C21.063 10.8728 21.2028 10.8847 21.3408 10.8692C21.4789 10.8538 21.6125 10.8113 21.7342 10.7442C21.8558 10.6772 21.963 10.5868 22.0497 10.4782C23.4307 8.75202 24.9647 7.39098 26.6048 6.47525C28.1449 5.61533 29.785 5.15089 31.4853 5.15089C33.1844 5.15089 34.8245 5.61573 36.3641 6.47525C38.0046 7.39138 39.5391 8.75242 40.9205 10.4782C41.0956 10.6974 41.3506 10.8381 41.6293 10.8692C41.9081 10.9004 42.1879 10.8196 42.4071 10.6445C42.6263 10.4694 42.7669 10.2144 42.7981 9.9356C42.8293 9.6568 42.7484 9.37704 42.5733 9.15786C41.0181 7.21477 39.274 5.67314 37.3943 4.62345C35.5353 3.58533 33.5496 3.02441 31.4853 3.02441C29.4202 3.02441 27.4341 3.58494 25.5751 4.62306C23.6954 5.67274 21.952 7.21397 20.3968 9.15746V9.15786Z" fill="#9A9A9A"/>
<path d="M9.3379 55.9704C9.23322 56.2314 9.23654 56.5233 9.34711 56.782C9.45769 57.0406 9.66647 57.2447 9.92752 57.3493C10.1886 57.454 10.4805 57.4507 10.7391 57.3401C10.9977 57.2295 11.2018 57.0208 11.3065 56.7597C12.931 52.737 15.7204 49.2915 19.3168 46.8653C22.9132 44.4391 27.1526 43.1428 31.4909 43.1428C35.8291 43.1428 40.0685 44.4391 43.6649 46.8653C47.2613 49.2915 50.0507 52.737 51.6752 56.7597C51.727 56.889 51.8038 57.0068 51.9012 57.1063C51.9985 57.2059 52.1145 57.2854 52.2426 57.3401C52.3706 57.3949 52.5082 57.4239 52.6475 57.4254C52.7867 57.427 52.9249 57.4012 53.0542 57.3493C53.1835 57.2975 53.3012 57.2207 53.4008 57.1234C53.5004 57.026 53.5798 56.91 53.6346 56.782C53.6894 56.6539 53.7183 56.5163 53.7199 56.3771C53.7215 56.2378 53.6956 56.0996 53.6438 55.9704C51.8627 51.5536 48.802 47.77 44.8547 45.1056C40.9073 42.4412 36.2537 41.0176 31.4913 41.0176C26.7289 41.0176 22.0752 42.4412 18.1279 45.1056C14.1805 47.77 11.1198 51.5536 9.3387 55.9704H9.3379Z" fill="#9A9A9A"/>
<path d="M32.5483 4.06714C32.5483 3.78515 32.4363 3.51472 32.2369 3.31532C32.0375 3.11593 31.7671 3.00391 31.4851 3.00391C31.2031 3.00391 30.9327 3.11593 30.7333 3.31532C30.5339 3.51472 30.4219 3.78515 30.4219 4.06714V9.81627C30.4219 10.0983 30.5339 10.3687 30.7333 10.5681C30.9327 10.7675 31.2031 10.8795 31.4851 10.8795C31.7671 10.8795 32.0375 10.7675 32.2369 10.5681C32.4363 10.3687 32.5483 10.0983 32.5483 9.81627V4.06714ZM32.5483 21.9253C32.5483 21.7857 32.5208 21.6474 32.4674 21.5184C32.414 21.3894 32.3357 21.2722 32.2369 21.1735C32.1382 21.0747 32.021 20.9964 31.892 20.943C31.763 20.8896 31.6247 20.8621 31.4851 20.8621C31.3455 20.8621 31.2072 20.8896 31.0782 20.943C30.9492 20.9964 30.832 21.0747 30.7333 21.1735C30.6346 21.2722 30.5562 21.3894 30.5028 21.5184C30.4494 21.6474 30.4219 21.7857 30.4219 21.9253V64.9148C30.4219 65.1968 30.5339 65.4672 30.7333 65.6666C30.9327 65.866 31.2031 65.9781 31.4851 65.9781C31.7671 65.9781 32.0375 65.866 32.2369 65.6666C32.4363 65.4672 32.5483 65.1968 32.5483 64.9148V21.9253Z" fill="#9A9A9A"/>
<path d="M59.0693 19.3142C59.0022 19.1921 58.9117 19.0843 58.8029 18.9971C58.6942 18.9099 58.5694 18.845 58.4355 18.806C58.3017 18.7671 58.1615 18.7549 58.023 18.7701C57.8844 18.7854 57.7502 18.8277 57.6281 18.8948C57.5059 18.9619 57.3982 19.0524 57.311 19.1611C57.2238 19.2699 57.1589 19.3947 57.1199 19.5285C57.081 19.6624 57.0688 19.8026 57.084 19.9411C57.0992 20.0796 57.1416 20.2138 57.2087 20.336C58.4017 22.4928 59.3164 24.7921 59.9308 27.1791C60.5433 29.575 60.8515 32.0387 60.8481 34.5117C60.8481 42.6193 57.5619 49.9599 52.2485 55.2729C46.9351 60.5859 39.5949 63.8725 31.4873 63.8725C23.3797 63.8725 16.039 60.5863 10.7261 55.2729C5.41306 49.9595 2.12647 42.6193 2.12647 34.5117C2.12647 26.4041 5.41266 19.0635 10.7257 13.7501C16.0387 8.43667 23.3793 5.15089 31.4873 5.15089C33.3077 5.14919 35.1245 5.31574 36.9143 5.64842C38.6967 5.98103 40.4442 6.47926 42.134 7.13663C42.3958 7.23635 42.6864 7.22834 42.9423 7.11436C43.1981 7.00038 43.3985 6.78971 43.4995 6.52843C43.6004 6.26714 43.5938 5.9765 43.4811 5.72007C43.3683 5.46364 43.1586 5.26229 42.8978 5.16006C41.0871 4.45523 39.2146 3.92083 37.3046 3.56381C35.3861 3.20513 33.4386 3.02457 31.4869 3.02441C22.792 3.02441 14.92 6.549 9.22229 12.2467C3.52459 17.9444 0 25.8168 0 34.5113C0 43.2057 3.52459 51.0782 9.22269 56.7759C14.9208 62.4736 22.7928 65.9986 31.4873 65.9986C40.1817 65.9986 48.0542 62.474 53.7519 56.7759C59.4496 51.0778 62.9746 43.2057 62.9746 34.5113C62.9776 29.1971 61.6341 23.9687 59.0697 19.3142H59.0693Z" fill="#9A9A9A"/>
<path d="M1.06324 33.4463C0.781251 33.4463 0.51081 33.5583 0.311415 33.7577C0.112019 33.9571 0 34.2275 0 34.5095C0 34.7915 0.112019 35.062 0.311415 35.2613C0.51081 35.4607 0.781251 35.5728 1.06324 35.5728H61.9113C62.1933 35.5728 62.4638 35.4607 62.6632 35.2613C62.8625 35.062 62.9746 34.7915 62.9746 34.5095C62.9746 34.2275 62.8625 33.9571 62.6632 33.7577C62.4638 33.5583 62.1933 33.4463 61.9113 33.4463H1.06324Z" fill="#9A9A9A"/>
<path d="M41.9194 25.5715C42.1727 25.4493 42.3672 25.2314 42.4599 24.9659C42.5526 24.7003 42.536 24.4088 42.4138 24.1555C42.2915 23.9021 42.0737 23.7077 41.8081 23.615C41.5425 23.5223 41.251 23.5389 40.9977 23.6611C39.524 24.3783 37.9734 24.9255 36.376 25.2921C33.1826 26.0309 29.8634 26.037 26.6673 25.31C23.4711 24.5831 20.4811 23.1419 17.9214 21.0945C17.8125 21.0069 17.6872 20.9417 17.5529 20.9026C17.4187 20.8635 17.278 20.8514 17.139 20.8669C17 20.8824 16.8655 20.9252 16.7431 20.9928C16.6207 21.0605 16.5129 21.1517 16.4258 21.2611C16.3388 21.3706 16.2743 21.4962 16.236 21.6307C16.1976 21.7652 16.1863 21.9059 16.2025 22.0448C16.2187 22.1837 16.2623 22.318 16.3306 22.44C16.3989 22.562 16.4907 22.6693 16.6007 22.7558C20.1245 25.568 24.3726 27.3249 28.8534 27.8233C33.3342 28.3217 37.8646 27.5411 41.9202 25.5719L41.9194 25.5715Z" fill="#9A9A9A"/>
<path d="M13.7136 8.7539C13.4316 8.7539 13.1612 8.86592 12.9618 9.06531C12.7624 9.26471 12.6504 9.53515 12.6504 9.81714C12.6504 10.0991 12.7624 10.3696 12.9618 10.569C13.1612 10.7684 13.4316 10.8804 13.7136 10.8804H42.5171C42.6567 10.8804 42.795 10.8529 42.924 10.7994C43.053 10.746 43.1702 10.6677 43.2689 10.569C43.3676 10.4702 43.4459 10.353 43.4994 10.224C43.5528 10.095 43.5803 9.95676 43.5803 9.81714V2.89792L64.7817 15.1385L42.521 26.8297V21.9262C42.5211 21.7865 42.4936 21.6483 42.4401 21.5193C42.3867 21.3903 42.3084 21.2731 42.2096 21.1743C42.1109 21.0756 41.9937 20.9973 41.8647 20.9438C41.7357 20.8904 41.5974 20.8629 41.4578 20.8629H14.4101C13.4712 20.7636 3.84785 19.9356 0.816412 27.4349C0.764583 27.5641 0.738721 27.7024 0.740303 27.8416C0.741884 27.9809 0.770878 28.1184 0.82563 28.2465C0.880381 28.3745 0.959818 28.4906 1.0594 28.5879C1.15899 28.6853 1.27678 28.762 1.40604 28.8139C1.5353 28.8657 1.6735 28.8916 1.81276 28.89C1.95201 28.8884 2.08959 28.8594 2.21764 28.8047C2.34569 28.7499 2.4617 28.6705 2.55905 28.5709C2.6564 28.4713 2.73319 28.3535 2.78502 28.2242C5.23839 22.1546 13.4413 22.8945 14.1884 22.975C14.2465 22.9848 14.3053 22.9897 14.3642 22.9898H40.395V28.5862C40.395 28.7692 40.4423 28.9492 40.5322 29.1086C40.6221 29.268 40.7517 29.4014 40.9083 29.4961C41.065 29.5908 41.2434 29.6434 41.4263 29.6489C41.6093 29.6544 41.7905 29.6126 41.9526 29.5275L41.4582 28.5862L41.9526 29.5247L67.4096 16.1547C67.5888 16.075 67.7425 15.9474 67.8537 15.7858C67.9648 15.6242 68.0291 15.4351 68.0394 15.2392C68.0497 15.0434 68.0057 14.8485 67.9121 14.6761C67.8186 14.5038 67.6792 14.3607 67.5093 14.2626L67.5049 14.2654L43.1342 0.194983C42.9752 0.0818137 42.788 0.0146108 42.5933 0.000736519C42.3987 -0.0131377 42.2039 0.0268537 42.0304 0.116328C41.857 0.205803 41.7115 0.341306 41.6099 0.507987C41.5083 0.674668 41.4546 0.866093 41.4546 1.06128V8.7531H13.7144L13.7136 8.7539Z" fill="#9A9A9A"/>
<path d="M18.8023 13.5789C18.8023 13.2969 18.6902 13.0264 18.4908 12.827C18.2914 12.6276 18.021 12.5156 17.739 12.5156C17.457 12.5156 17.1866 12.6276 16.9872 12.827C16.7878 13.0264 16.6758 13.2969 16.6758 13.5789V14.3264C16.6758 14.6083 16.7878 14.8788 16.9872 15.0782C17.1866 15.2776 17.457 15.3896 17.739 15.3896C18.021 15.3896 18.2914 15.2776 18.4908 15.0782C18.6902 14.8788 18.8023 14.6083 18.8023 14.3264V13.5789Z" fill="#9A9A9A"/>
<path d="M23.1187 13.5789C23.1187 13.2969 23.0066 13.0264 22.8072 12.827C22.6079 12.6276 22.3374 12.5156 22.0554 12.5156C21.7734 12.5156 21.503 12.6276 21.3036 12.827C21.1042 13.0264 20.9922 13.2969 20.9922 13.5789V14.3264C20.9922 14.6083 21.1042 14.8788 21.3036 15.0782C21.503 15.2776 21.7734 15.3896 22.0554 15.3896C22.3374 15.3896 22.6079 15.2776 22.8072 15.0782C23.0066 14.8788 23.1187 14.6083 23.1187 14.3264V13.5789Z" fill="#9A9A9A"/>
<path d="M27.439 13.5789C27.439 13.2969 27.327 13.0264 27.1276 12.827C26.9282 12.6276 26.6577 12.5156 26.3757 12.5156C26.0938 12.5156 25.8233 12.6276 25.6239 12.827C25.4245 13.0264 25.3125 13.2969 25.3125 13.5789V14.3264C25.3125 14.466 25.34 14.6042 25.3934 14.7332C25.4469 14.8622 25.5252 14.9794 25.6239 15.0782C25.7226 15.1769 25.8399 15.2552 25.9689 15.3087C26.0979 15.3621 26.2361 15.3896 26.3757 15.3896C26.5154 15.3896 26.6536 15.3621 26.7826 15.3087C26.9116 15.2552 27.0288 15.1769 27.1276 15.0782C27.2263 14.9794 27.3046 14.8622 27.358 14.7332C27.4115 14.6042 27.439 14.466 27.439 14.3264V13.5789Z" fill="#9A9A9A"/>
<path d="M31.7612 13.5789C31.7612 13.2969 31.6492 13.0264 31.4498 12.827C31.2504 12.6276 30.98 12.5156 30.698 12.5156C30.416 12.5156 30.1456 12.6276 29.9462 12.827C29.7468 13.0264 29.6348 13.2969 29.6348 13.5789V14.3264C29.6348 14.6083 29.7468 14.8788 29.9462 15.0782C30.1456 15.2776 30.416 15.3896 30.698 15.3896C30.98 15.3896 31.2504 15.2776 31.4498 15.0782C31.6492 14.8788 31.7612 14.6083 31.7612 14.3264V13.5789Z" fill="#9A9A9A"/>
<path d="M36.0757 13.5789C36.0757 13.2969 35.9637 13.0264 35.7643 12.827C35.5649 12.6276 35.2944 12.5156 35.0125 12.5156C34.7305 12.5156 34.46 12.6276 34.2606 12.827C34.0612 13.0264 33.9492 13.2969 33.9492 13.5789V14.3264C33.9492 14.6083 34.0612 14.8788 34.2606 15.0782C34.46 15.2776 34.7305 15.3896 35.0125 15.3896C35.2944 15.3896 35.5649 15.2776 35.7643 15.0782C35.9637 14.8788 36.0757 14.6083 36.0757 14.3264V13.5789Z" fill="#9A9A9A"/>
<path d="M40.398 13.5789C40.398 13.2969 40.2859 13.0264 40.0865 12.827C39.8871 12.6276 39.6167 12.5156 39.3347 12.5156C39.0527 12.5156 38.7823 12.6276 38.5829 12.827C38.3835 13.0264 38.2715 13.2969 38.2715 13.5789V14.3264C38.2715 14.6083 38.3835 14.8788 38.5829 15.0782C38.7823 15.2776 39.0527 15.3896 39.3347 15.3896C39.6167 15.3896 39.8871 15.2776 40.0865 15.0782C40.2859 14.8788 40.398 14.6083 40.398 14.3264V13.5789Z" fill="#9A9A9A"/>
</svg>
