<svg width="20" height="19" viewBox="0 0 20 19" fill="none" xmlns="http://www.w3.org/2000/svg">
<g clip-path="url(#clip0_7694_17801)">
<path d="M14.1703 7.15688C14.1632 7.11723 14.1483 7.07939 14.1265 7.04553C14.1047 7.01167 14.0764 6.98246 14.0432 6.95959C14.0101 6.93671 13.9727 6.92062 13.9333 6.91225C13.8939 6.90387 13.8533 6.90338 13.8137 6.91079C13.7741 6.9182 13.7364 6.93338 13.7027 6.95544C13.669 6.9775 13.64 7.00601 13.6173 7.03933C13.5947 7.07265 13.5789 7.11011 13.5708 7.14957C13.5627 7.18903 13.5625 7.2297 13.5702 7.26923C13.6503 7.69479 13.7117 8.13251 13.7526 8.57918C13.7921 9.01093 13.812 9.46124 13.8125 9.9301C13.8125 12.2935 13.2628 14.4272 12.3739 15.9664C11.5138 17.4558 10.3425 18.3771 9.06389 18.3771C7.78527 18.3771 6.61408 17.4557 5.7539 15.9664C4.86514 14.4272 4.31529 12.2935 4.31529 9.9301C4.31483 9.3228 4.35197 8.71605 4.4265 8.11334C4.49782 7.53205 4.60755 6.95611 4.75497 6.38931C4.76501 6.35054 4.76732 6.31017 4.76177 6.27051C4.75621 6.23084 4.74289 6.19266 4.72258 6.15815C4.70227 6.12363 4.67536 6.09345 4.64338 6.06933C4.61141 6.04521 4.57499 6.02763 4.53622 6.01758C4.49745 6.00754 4.45708 6.00523 4.41742 6.01079C4.37775 6.01634 4.33957 6.02966 4.30505 6.04997C4.27053 6.07028 4.24035 6.09719 4.21624 6.12917C4.19212 6.16115 4.17454 6.19756 4.16449 6.23633C4.00977 6.82906 3.89441 7.43137 3.81916 8.03932C3.7415 8.66662 3.70275 9.29813 3.70313 9.93022C3.70313 12.401 4.28488 14.6438 5.22551 16.2726C6.19483 17.951 7.5508 18.9893 9.06378 18.9893C10.5767 18.9893 11.9328 17.951 12.902 16.2726C13.8426 14.6438 14.4244 12.401 14.4244 9.93022C14.4244 9.46036 14.4023 8.9905 14.3597 8.52421C14.3165 8.05274 14.2528 7.59597 14.1701 7.15688H14.1703ZM5.87188 2.63678C5.84692 2.66803 5.82836 2.70388 5.81726 2.74229C5.80615 2.78071 5.80273 2.82094 5.80717 2.86068C5.81162 2.90042 5.82384 2.93889 5.84316 2.97391C5.86247 3.00892 5.88849 3.03979 5.91974 3.06475C5.95098 3.08971 5.98683 3.10827 6.02525 3.11937C6.06366 3.13047 6.10389 3.1339 6.14363 3.12945C6.18337 3.12501 6.22185 3.11278 6.25686 3.09347C6.29188 3.07415 6.32274 3.04813 6.3477 3.01689C6.74525 2.51995 7.18688 2.12814 7.65903 1.86452C8.10237 1.61696 8.57452 1.48326 9.064 1.48326C9.55314 1.48326 10.0253 1.61708 10.4685 1.86452C10.9408 2.12825 11.3825 2.52006 11.7802 3.01689C11.8306 3.07999 11.904 3.12048 11.9843 3.12945C12.0645 3.13843 12.1451 3.11515 12.2082 3.06475C12.2713 3.01434 12.3117 2.94094 12.3207 2.86068C12.3297 2.78042 12.3064 2.69988 12.256 2.63678C11.8083 2.07741 11.3062 1.6336 10.7651 1.33142C10.2299 1.03257 9.65827 0.871094 9.064 0.871094C8.46951 0.871094 7.89774 1.03246 7.36259 1.33131C6.82146 1.63349 6.31958 2.07718 5.87188 2.63667V2.63678Z" fill="#D7282F"/>
<path d="M2.68795 16.1122C2.65781 16.1874 2.65877 16.2714 2.6906 16.3458C2.72243 16.4203 2.78253 16.479 2.85769 16.5092C2.93284 16.5393 3.01688 16.5384 3.09133 16.5065C3.16578 16.4747 3.22453 16.4146 3.25466 16.3394C3.72232 15.1814 4.52534 14.1895 5.56066 13.4911C6.59599 12.7926 7.81641 12.4194 9.06531 12.4194C10.3142 12.4194 11.5346 12.7926 12.57 13.4911C13.6053 14.1895 14.4083 15.1814 14.876 16.3394C14.8909 16.3767 14.913 16.4106 14.941 16.4392C14.969 16.4679 15.0024 16.4908 15.0393 16.5065C15.0762 16.5223 15.1158 16.5306 15.1559 16.5311C15.1959 16.5315 15.2357 16.5241 15.2729 16.5092C15.3102 16.4943 15.3441 16.4722 15.3727 16.4441C15.4014 16.4161 15.4243 16.3827 15.44 16.3458C15.4558 16.309 15.4641 16.2694 15.4646 16.2293C15.465 16.1892 15.4576 16.1494 15.4427 16.1122C14.9299 14.8407 14.0488 13.7515 12.9125 12.9845C11.7761 12.2174 10.4364 11.8076 9.06543 11.8076C7.69443 11.8076 6.35474 12.2174 5.21839 12.9845C4.08204 13.7515 3.20092 14.8407 2.68818 16.1122H2.68795Z" fill="#D7282F"/>
<path d="M9.36998 1.17132C9.36998 1.09014 9.33773 1.01229 9.28033 0.954884C9.22293 0.897482 9.14507 0.865234 9.06389 0.865234C8.98272 0.865234 8.90486 0.897482 8.84746 0.954884C8.79006 1.01229 8.75781 1.09014 8.75781 1.17132V2.82637C8.75781 2.90755 8.79006 2.9854 8.84746 3.0428C8.90486 3.10021 8.98272 3.13245 9.06389 3.13245C9.14507 3.13245 9.22293 3.10021 9.28033 3.0428C9.33773 2.9854 9.36998 2.90755 9.36998 2.82637V1.17132ZM9.36998 6.3123C9.36998 6.2721 9.36206 6.2323 9.34668 6.19517C9.3313 6.15803 9.30875 6.12429 9.28033 6.09587C9.25191 6.06744 9.21816 6.0449 9.18103 6.02951C9.14389 6.01413 9.10409 6.00622 9.06389 6.00622C9.0237 6.00622 8.9839 6.01413 8.94676 6.02951C8.90963 6.0449 8.87588 6.06744 8.84746 6.09587C8.81904 6.12429 8.79649 6.15803 8.78111 6.19517C8.76573 6.2323 8.75781 6.2721 8.75781 6.3123V18.6881C8.75781 18.7692 8.79006 18.8471 8.84746 18.9045C8.90486 18.9619 8.98272 18.9942 9.06389 18.9942C9.14507 18.9942 9.22293 18.9619 9.28033 18.9045C9.33773 18.8471 9.36998 18.7692 9.36998 18.6881V6.3123Z" fill="#D7282F"/>
<path d="M17.0048 5.56058C16.9855 5.52541 16.9594 5.49439 16.9281 5.46929C16.8968 5.44419 16.8609 5.4255 16.8223 5.41429C16.7838 5.40308 16.7435 5.39957 16.7036 5.40395C16.6637 5.40834 16.6251 5.42053 16.5899 5.43985C16.5547 5.45916 16.5237 5.48521 16.4986 5.51652C16.4735 5.54782 16.4548 5.58376 16.4436 5.62228C16.4324 5.66081 16.4289 5.70117 16.4333 5.74105C16.4377 5.78093 16.4499 5.81956 16.4692 5.85473C16.8126 6.47562 17.0759 7.13756 17.2528 7.8247C17.4291 8.51446 17.5178 9.22368 17.5169 9.93561C17.5169 12.2696 16.5708 14.3828 15.0412 15.9123C13.5116 17.4418 11.3985 18.388 9.06452 18.388C6.7305 18.388 4.6173 17.4419 3.0878 15.9123C1.5583 14.3827 0.612167 12.2696 0.612167 9.93561C0.612167 7.6016 1.55819 5.48839 3.08769 3.95878C4.61719 2.42917 6.73039 1.48326 9.06452 1.48326C9.58859 1.48277 10.1116 1.53072 10.6268 1.62649C11.14 1.72224 11.643 1.86567 12.1295 2.05491C12.2048 2.08362 12.2885 2.08131 12.3622 2.0485C12.4358 2.01569 12.4935 1.95504 12.5226 1.87982C12.5516 1.80461 12.5497 1.72094 12.5173 1.64711C12.4848 1.57329 12.4245 1.51533 12.3494 1.4859C11.8281 1.28299 11.289 1.12915 10.7392 1.02637C10.1869 0.923118 9.62626 0.871137 9.0644 0.871094C6.56134 0.871094 4.29515 1.88575 2.6549 3.526C1.01465 5.16624 0 7.43254 0 9.93549C0 12.4384 1.01465 14.7047 2.65502 16.345C4.29538 17.9852 6.56157 19 9.06452 19C11.5675 19 13.8338 17.9854 15.474 16.345C17.1143 14.7046 18.129 12.4384 18.129 9.93549C18.1299 8.40564 17.7432 6.90052 17.0049 5.56058H17.0048Z" fill="#D7282F"/>
<path d="M0.306084 9.62891C0.224905 9.62891 0.147051 9.66115 0.0896497 9.71856C0.032248 9.77596 0 9.85381 0 9.93499C0 10.0162 0.032248 10.094 0.0896497 10.1514C0.147051 10.2088 0.224905 10.2411 0.306084 10.2411H17.823C17.9041 10.2411 17.982 10.2088 18.0394 10.1514C18.0968 10.094 18.129 10.0162 18.129 9.93499C18.129 9.85381 18.0968 9.77596 18.0394 9.71856C17.982 9.66115 17.9041 9.62891 17.823 9.62891H0.306084Z" fill="#D7282F"/>
<path d="M12.0675 7.36211C12.1405 7.32692 12.1964 7.2642 12.2231 7.18776C12.2498 7.11131 12.245 7.02739 12.2098 6.95446C12.1747 6.88153 12.1119 6.82556 12.0355 6.79887C11.959 6.77218 11.8751 6.77696 11.8022 6.81214C11.3779 7.01862 10.9316 7.17613 10.4717 7.28166C9.55239 7.49434 8.59685 7.49611 7.67676 7.28683C6.75667 7.07755 5.8959 6.66266 5.15902 6.07328C5.12765 6.04805 5.0916 6.02927 5.05294 6.01802C5.01429 6.00678 4.97379 6.00328 4.93378 6.00774C4.89377 6.01219 4.85503 6.02451 4.8198 6.04399C4.78457 6.06347 4.75353 6.08972 4.72848 6.12123C4.70342 6.15274 4.68484 6.1889 4.67381 6.22762C4.66277 6.26633 4.6595 6.30685 4.66418 6.34683C4.66885 6.38682 4.68139 6.42549 4.70106 6.46061C4.72073 6.49574 4.74715 6.52663 4.7788 6.55151C5.79324 7.36109 7.01618 7.86687 8.30611 8.01035C9.59604 8.15382 10.9002 7.92911 12.0678 7.36222L12.0675 7.36211Z" fill="#D7282F"/>
<path d="M3.94764 2.52062C3.86647 2.52062 3.78861 2.55287 3.73121 2.61027C3.67381 2.66768 3.64156 2.74553 3.64156 2.82671C3.64156 2.90789 3.67381 2.98574 3.73121 3.04314C3.78861 3.10054 3.86647 3.13279 3.94764 3.13279H12.2396C12.2797 3.13279 12.3195 3.12488 12.3567 3.10949C12.3938 3.09411 12.4276 3.07157 12.456 3.04314C12.4844 3.01472 12.507 2.98098 12.5223 2.94384C12.5377 2.90671 12.5456 2.8669 12.5456 2.82671V0.834813L18.6491 4.35862L12.2407 7.72427V6.31264C12.2407 6.27244 12.2328 6.23264 12.2174 6.1955C12.202 6.15837 12.1795 6.12462 12.1511 6.0962C12.1226 6.06778 12.0889 6.04523 12.0518 6.02985C12.0146 6.01447 11.9748 6.00655 11.9346 6.00655H4.14814C3.87787 5.97798 1.10751 5.7396 0.234821 7.89848C0.2199 7.9357 0.212455 7.97548 0.21291 8.01557C0.213366 8.05566 0.221712 8.09527 0.237474 8.13213C0.253236 8.16899 0.276104 8.20239 0.304773 8.23041C0.333442 8.25844 0.367349 8.28054 0.404561 8.29546C0.441772 8.31038 0.481558 8.31783 0.521647 8.31737C0.561735 8.31692 0.601342 8.30857 0.638205 8.29281C0.675068 8.27705 0.708465 8.25418 0.73649 8.22551C0.764515 8.19684 0.786619 8.16293 0.80154 8.12572C1.50782 6.3784 3.86926 6.5914 4.08433 6.61459C4.10106 6.6174 4.11798 6.61882 4.13494 6.61883H11.6286V8.22993C11.6287 8.28262 11.6423 8.33441 11.6682 8.3803C11.694 8.42619 11.7313 8.46461 11.7764 8.49186C11.8215 8.51911 11.8729 8.53426 11.9255 8.53584C11.9782 8.53743 12.0304 8.52539 12.077 8.5009L11.9347 8.22993L12.077 8.50009L19.4056 4.65116C19.4572 4.62823 19.5014 4.59147 19.5334 4.54496C19.5654 4.49844 19.5839 4.44399 19.5869 4.38761C19.5899 4.33123 19.5772 4.27513 19.5503 4.22551C19.5233 4.1759 19.4832 4.1347 19.4343 4.10647L19.433 4.10728L12.4172 0.0566937C12.3714 0.0241147 12.3176 0.0047684 12.2615 0.000774291C12.2055 -0.00321981 12.1494 0.00829288 12.0995 0.0340507C12.0495 0.0598084 12.0076 0.0988169 11.9784 0.146801C11.9492 0.194785 11.9337 0.249892 11.9337 0.306083V2.52039H3.94787L3.94764 2.52062Z" fill="#D7282F"/>
<path d="M5.41295 3.91058C5.41295 3.8294 5.3807 3.75154 5.3233 3.69414C5.2659 3.63674 5.18804 3.60449 5.10686 3.60449C5.02569 3.60449 4.94783 3.63674 4.89043 3.69414C4.83303 3.75154 4.80078 3.8294 4.80078 3.91058V4.12576C4.80078 4.20694 4.83303 4.28479 4.89043 4.3422C4.94783 4.3996 5.02569 4.43185 5.10686 4.43185C5.18804 4.43185 5.2659 4.3996 5.3233 4.3422C5.3807 4.28479 5.41295 4.20694 5.41295 4.12576V3.91058Z" fill="#D7282F"/>
<path d="M6.65513 3.91058C6.65513 3.8294 6.62289 3.75154 6.56549 3.69414C6.50808 3.63674 6.43023 3.60449 6.34905 3.60449C6.26787 3.60449 6.19002 3.63674 6.13262 3.69414C6.07522 3.75154 6.04297 3.8294 6.04297 3.91058V4.12576C6.04297 4.20694 6.07522 4.28479 6.13262 4.3422C6.19002 4.3996 6.26787 4.43185 6.34905 4.43185C6.43023 4.43185 6.50808 4.3996 6.56549 4.3422C6.62289 4.28479 6.65513 4.20694 6.65513 4.12576V3.91058Z" fill="#D7282F"/>
<path d="M7.89928 3.91058C7.89928 3.8294 7.86703 3.75154 7.80963 3.69414C7.75222 3.63674 7.67437 3.60449 7.59319 3.60449C7.51201 3.60449 7.43416 3.63674 7.37676 3.69414C7.31936 3.75154 7.28711 3.8294 7.28711 3.91058V4.12576C7.28711 4.16596 7.29503 4.20576 7.31041 4.2429C7.32579 4.28003 7.34834 4.31377 7.37676 4.3422C7.40518 4.37062 7.43892 4.39317 7.47606 4.40855C7.5132 4.42393 7.553 4.43185 7.59319 4.43185C7.63339 4.43185 7.67319 4.42393 7.71033 4.40855C7.74746 4.39317 7.7812 4.37062 7.80963 4.3422C7.83805 4.31377 7.8606 4.28003 7.87598 4.2429C7.89136 4.20576 7.89928 4.16596 7.89928 4.12576V3.91058Z" fill="#D7282F"/>
<path d="M9.14342 3.91058C9.14342 3.8294 9.11117 3.75154 9.05377 3.69414C8.99637 3.63674 8.91851 3.60449 8.83733 3.60449C8.75616 3.60449 8.6783 3.63674 8.6209 3.69414C8.5635 3.75154 8.53125 3.8294 8.53125 3.91058V4.12576C8.53125 4.20694 8.5635 4.28479 8.6209 4.3422C8.6783 4.3996 8.75616 4.43185 8.83733 4.43185C8.91851 4.43185 8.99637 4.3996 9.05377 4.3422C9.11117 4.28479 9.14342 4.20694 9.14342 4.12576V3.91058Z" fill="#D7282F"/>
<path d="M10.3856 3.91058C10.3856 3.8294 10.3534 3.75154 10.296 3.69414C10.2386 3.63674 10.1607 3.60449 10.0795 3.60449C9.99834 3.60449 9.92049 3.63674 9.86309 3.69414C9.80568 3.75154 9.77344 3.8294 9.77344 3.91058V4.12576C9.77344 4.20694 9.80568 4.28479 9.86309 4.3422C9.92049 4.3996 9.99834 4.43185 10.0795 4.43185C10.1607 4.43185 10.2386 4.3996 10.296 4.3422C10.3534 4.28479 10.3856 4.20694 10.3856 4.12576V3.91058Z" fill="#D7282F"/>
<path d="M11.6297 3.91058C11.6297 3.8294 11.5975 3.75154 11.5401 3.69414C11.4827 3.63674 11.4048 3.60449 11.3237 3.60449C11.2425 3.60449 11.1646 3.63674 11.1072 3.69414C11.0498 3.75154 11.0176 3.8294 11.0176 3.91058V4.12576C11.0176 4.20694 11.0498 4.28479 11.1072 4.3422C11.1646 4.3996 11.2425 4.43185 11.3237 4.43185C11.4048 4.43185 11.4827 4.3996 11.5401 4.3422C11.5975 4.28479 11.6297 4.20694 11.6297 4.12576V3.91058Z" fill="#D7282F"/>
</g>
<defs>
<clipPath id="clip0_7694_17801">
<rect width="19.5873" height="19" fill="white"/>
</clipPath>
</defs>
</svg>
