<svg width="8" height="15" viewBox="0 0 8 15" fill="none" xmlns="http://www.w3.org/2000/svg">
<path d="M1.05784 7.94859H2.59246V14.2664C2.59246 14.3911 2.69353 14.4922 2.81827 14.4922H5.42028C5.54502 14.4922 5.64609 14.3911 5.64609 14.2664V7.97835H7.41027C7.52498 7.97835 7.62149 7.89227 7.63459 7.77833L7.90253 5.45243C7.90989 5.38844 7.88961 5.32436 7.8468 5.27635C7.80394 5.2283 7.74261 5.20079 7.67826 5.20079H5.64618V3.74281C5.64618 3.3033 5.88282 3.08043 6.34961 3.08043C6.41613 3.08043 7.67826 3.08043 7.67826 3.08043C7.80299 3.08043 7.90406 2.97931 7.90406 2.85462V0.719665C7.90406 0.594929 7.80299 0.493858 7.67826 0.493858H5.84719C5.83428 0.493226 5.8056 0.492188 5.76333 0.492188C5.44562 0.492188 4.34129 0.554555 3.46895 1.35707C2.50241 2.24639 2.63677 3.3112 2.66888 3.49582V5.20075H1.05784C0.933102 5.20075 0.832031 5.30182 0.832031 5.42656V7.72274C0.832031 7.84747 0.933102 7.94859 1.05784 7.94859Z" fill="#1777F2"/>
</svg>
