<svg width="83" height="67" viewBox="0 0 83 67" fill="none" xmlns="http://www.w3.org/2000/svg">
<g clip-path="url(#clip0_8340_29378)">
<path d="M3.25065 19.007H60.9562C61.3805 19.0057 61.8009 19.0888 62.1929 19.2513C62.5849 19.4139 62.9407 19.6527 63.2397 19.954C63.8437 20.5607 64.184 21.3813 64.1866 22.2375V63.4413C64.1878 63.8647 64.1046 64.284 63.942 64.6749C63.7794 65.0658 63.5407 65.4204 63.2397 65.7181C63.19 65.7741 63.1336 65.8237 63.0718 65.8659C62.4853 66.3908 61.723 66.6761 60.936 66.6651H3.2305C2.37489 66.6651 1.55421 66.3257 0.948573 65.7213C0.342932 65.1169 0.00179308 64.2969 1.42557e-05 63.4413V22.2375C-0.0012517 21.8131 0.0818104 21.3927 0.244377 21.0007C0.406943 20.6087 0.645773 20.2529 0.946997 19.954C1.55334 19.3493 2.37418 19.0089 3.2305 19.007H3.25065ZM21.5926 0.665053H79.2981C79.7225 0.663787 80.1428 0.74685 80.5349 0.909416C80.9269 1.07198 81.2827 1.31081 81.5816 1.61204C82.1857 2.21879 82.5259 3.03936 82.5286 3.89554V45.0994C82.5297 45.5228 82.4465 45.9421 82.2839 46.333C82.1214 46.7239 81.8826 47.0785 81.5816 47.3762C81.5335 47.4337 81.4769 47.4836 81.4137 47.5239C80.8245 48.065 80.0509 48.3605 79.2511 48.35H75.6378V44.4681H78.6668V4.5H22.2037V7.3208H18.3419V3.89554C18.3407 3.47117 18.4237 3.05077 18.5863 2.65877C18.7489 2.26676 18.9877 1.91097 19.2889 1.61204C19.8957 1.00797 20.7162 0.667671 21.5724 0.665053H21.5926ZM12.425 9.83937H70.1305C70.5538 9.83825 70.9732 9.92141 71.3641 10.084C71.755 10.2466 72.1096 10.4853 72.4073 10.7864C73.0122 11.3898 73.3528 12.2087 73.3542 13.0631V54.267C73.3555 54.6914 73.2725 55.1118 73.1099 55.5038C72.9473 55.8958 72.7085 56.2516 72.4073 56.5505C72.3574 56.6063 72.301 56.6559 72.2394 56.6983C71.6529 57.2232 70.8906 57.5085 70.1036 57.4975H66.4903V53.6424H69.5193V13.6743H13.0294V16.4951H9.16761V13.0631C9.16939 12.2075 9.51053 11.3876 10.1162 10.7832C10.7218 10.1788 11.5425 9.83937 12.3981 9.83937H12.425ZM16.5756 30.2163C17.4927 30.215 18.3896 30.4858 19.1527 30.9945C19.9158 31.5032 20.5108 32.2269 20.8624 33.074C21.214 33.921 21.3063 34.8533 21.1277 35.7529C20.9491 36.6525 20.5076 37.4788 19.8591 38.1273C19.2106 38.7758 18.3843 39.2173 17.4847 39.3959C16.5852 39.5745 15.6528 39.4822 14.8058 39.1306C13.9587 38.779 13.235 38.184 12.7263 37.4209C12.2176 36.6578 11.9468 35.7609 11.9481 34.8438C11.9481 34.2361 12.0678 33.6343 12.3004 33.0729C12.5329 32.5115 12.8738 32.0014 13.3035 31.5717C13.7332 31.142 14.2433 30.8011 14.8047 30.5686C15.3662 30.336 15.9679 30.2163 16.5756 30.2163ZM36.0525 50.0895L45.3276 34.0513L55.1668 58.9415H9.24821V55.8587L13.1033 55.664L16.9651 46.2076L18.8927 52.9641H24.682L29.699 40.0354L36.066 50.0694L36.0525 50.0895ZM60.3517 22.8285H3.86182V62.81H60.3517V22.8285Z" fill="#9A9A9A"/>
</g>
<defs>
<clipPath id="clip0_8340_29378">
<rect width="82.5285" height="66" fill="white" transform="translate(0 0.665039)"/>
</clipPath>
</defs>
</svg>
