<svg width="66" height="66" viewBox="0 0 66 66" fill="none" xmlns="http://www.w3.org/2000/svg">
<path d="M26.275 24.75C26.275 21.0318 29.2818 18.025 33 18.025C36.7182 18.025 39.725 21.0318 39.725 24.75C39.725 28.4682 36.7182 31.475 33 31.475C32.1579 31.475 31.475 32.1579 31.475 33V41.25C31.475 42.0921 32.1579 42.775 33 42.775C33.8421 42.775 34.525 42.0921 34.525 41.25V34.4069C39.2021 33.6757 42.775 29.6338 42.775 24.75C42.775 19.3474 38.4027 14.975 33 14.975C27.5973 14.975 23.225 19.3473 23.225 24.75C23.225 25.5922 23.9077 26.275 24.75 26.275C25.5922 26.275 26.275 25.5922 26.275 24.75ZM33 50.6675C34.6017 50.6675 35.9 49.3692 35.9 47.7675C35.9 46.1658 34.6017 44.8675 33 44.8675C31.3983 44.8675 30.1 46.1658 30.1 47.7675C30.1 49.3692 31.3983 50.6675 33 50.6675Z" fill="#9A9A9A" stroke="#9A9A9A" stroke-width="0.3"/>
<path d="M33 5.35C17.7293 5.35 5.35 17.7293 5.35 33C5.35 48.2705 17.7293 60.65 33 60.65C48.2705 60.65 60.65 48.2706 60.65 33C60.65 17.7293 48.2706 5.35 33 5.35ZM8.40002 33C8.40002 19.4138 19.4138 8.40002 33 8.40002C46.5863 8.40002 57.6 19.4138 57.6 33C57.6 46.5863 46.5863 57.6 33 57.6C19.4138 57.6 8.40002 46.5863 8.40002 33Z" fill="#9A9A9A" stroke="#9A9A9A" stroke-width="0.3"/>
</svg>
