<svg width="66" height="66" viewBox="0 0 66 66" fill="none" xmlns="http://www.w3.org/2000/svg">
<path d="M33 17.875C29.1989 17.875 26.125 20.9489 26.125 24.75C26.125 25.5094 25.5094 26.125 24.75 26.125C23.9906 26.125 23.375 25.5094 23.375 24.75C23.375 19.4301 27.6801 15.125 33 15.125C38.3198 15.125 42.625 19.4302 42.625 24.75C42.625 29.6029 39.0423 33.6116 34.375 34.2776V41.25C34.375 42.0092 33.7592 42.625 33 42.625C32.2407 42.625 31.625 42.0092 31.625 41.25V33C31.625 32.2407 32.2407 31.625 33 31.625C36.801 31.625 39.875 28.551 39.875 24.75C39.875 20.9489 36.801 17.875 33 17.875ZM33 50.5175C34.5188 50.5175 35.75 49.2863 35.75 47.7675C35.75 46.2486 34.5188 45.0175 33 45.0175C31.4811 45.0175 30.25 46.2486 30.25 47.7675C30.25 49.2863 31.4811 50.5175 33 50.5175Z" fill="#9A9A9A"/>
<path d="M33 5.5C17.8122 5.5 5.5 17.8122 5.5 33C5.5 48.1877 17.8122 60.5 33 60.5C48.1877 60.5 60.5 48.1878 60.5 33C60.5 17.8122 48.1878 5.5 33 5.5ZM8.25002 33C8.25002 19.331 19.331 8.25002 33 8.25002C46.6692 8.25002 57.75 19.331 57.75 33C57.75 46.6692 46.6692 57.75 33 57.75C19.331 57.75 8.25002 46.6692 8.25002 33Z" fill="#9A9A9A"/>
</svg>
