<svg width="41" height="41" viewBox="0 0 41 41" fill="none" xmlns="http://www.w3.org/2000/svg">
<rect x="1.40039" y="1.49609" width="39" height="39" rx="19.5" stroke="#DDDDDD"/>
<g clip-path="url(#clip0_684_12470)">
<path d="M22.2877 17.894V16.3431C22.2877 16.1103 22.2984 15.9299 22.3202 15.8025C22.3419 15.675 22.3912 15.5495 22.4678 15.4256C22.5443 15.3018 22.6681 15.2163 22.8391 15.169C23.0104 15.1215 23.2379 15.0979 23.522 15.0979H25.0729V11.9961H22.5935C21.1589 11.9961 20.1286 12.3365 19.5023 13.0172C18.8761 13.6981 18.5631 14.701 18.5631 16.0263V17.894H16.7061V20.996H18.563V29.996H22.2877V20.9961H24.7668L25.0946 17.894H22.2877Z" fill="#231F20"/>
</g>
<defs>
<clipPath id="clip0_684_12470">
<rect width="18" height="18" fill="white" transform="translate(11.9004 11.9961)"/>
</clipPath>
</defs>
</svg>
