<svg width="16" height="21" viewBox="0 0 16 21" fill="none" xmlns="http://www.w3.org/2000/svg">
<path d="M2.85113 0H10.5071C10.7164 0 10.9021 0.100251 11.0191 0.25584L15.8276 5.45805C15.9403 5.58035 15.9964 5.73554 15.9964 5.89033L16 17.6666C16 18.4473 15.6784 19.1595 15.1619 19.6772L15.1583 19.6804C14.641 20.1965 13.9288 20.5177 13.1489 20.5177H2.85113C2.06757 20.5177 1.35419 20.1965 0.837293 19.6796C0.321203 19.1635 0 18.4501 0 17.6666V2.85113C0 2.06677 0.320802 1.35338 0.836892 0.836892C1.35338 0.320802 2.06677 0 2.85113 0ZM4.68692 10.1871C4.33363 10.1871 4.04692 9.90035 4.04692 9.54747C4.04692 9.19419 4.33363 8.90747 4.68692 8.90747H11.3127C11.666 8.90747 11.9527 9.19419 11.9527 9.54747C11.9527 9.90035 11.666 10.1871 11.3127 10.1871H4.68692ZM4.68692 13.3702C4.33363 13.3702 4.04692 13.0835 4.04692 12.7302C4.04692 12.3773 4.33363 12.0906 4.68692 12.0906H10.9614C11.3147 12.0906 11.6014 12.3773 11.6014 12.7302C11.6014 13.0835 11.3147 13.3702 10.9614 13.3702H4.68692ZM4.68692 16.5538C4.33363 16.5538 4.04692 16.2671 4.04692 15.9138C4.04692 15.5605 4.33363 15.2742 4.68692 15.2742H10.0082C10.3615 15.2742 10.6478 15.5605 10.6478 15.9138C10.6478 16.2671 10.3615 16.5538 10.0082 16.5538H4.68692ZM10.8704 1.97053V4.14436C10.9133 4.68932 11.1018 5.11559 11.4314 5.39709C11.7774 5.69263 12.2995 5.85905 12.9933 5.87148L14.4742 5.86947L10.8704 1.97053ZM14.7204 7.14787L12.9837 7.14586C11.9731 7.12982 11.1759 6.85714 10.6021 6.36672C10.0042 5.85504 9.66617 5.13123 9.59679 4.23699L9.59078 4.14797V1.2796H2.85113C2.41925 1.2796 2.02586 1.45684 1.74115 1.74115C1.45684 2.02586 1.2796 2.41925 1.2796 2.85113V17.6666C1.2796 18.098 1.45724 18.491 1.74155 18.7753C2.02667 19.0609 2.42005 19.2377 2.85113 19.2377H13.1489C13.5812 19.2377 13.9741 19.0613 14.2576 18.7773C14.5436 18.4918 14.7204 18.0984 14.7204 17.6666V7.14787Z" fill="#DD484E"/>
</svg>
