<svg width="19" height="19" viewBox="0 0 19 19" fill="none" xmlns="http://www.w3.org/2000/svg">
<path d="M11.4481 2.16436L16.348 7.14601V16.6039H2.14519V2.16436H11.4481ZM11.4481 0.101562H2.14519C1.02925 0.101562 0.116211 1.02982 0.116211 2.16436V16.6039C0.116211 17.7385 1.02925 18.6667 2.14519 18.6667H16.348C17.464 18.6667 18.377 17.7385 18.377 16.6039V7.14601C18.377 6.59937 18.164 6.07336 17.7785 5.69174L12.8785 0.710087C12.5031 0.318156 11.9857 0.101562 11.4481 0.101562ZM4.17417 12.4783H14.3191V14.5411H4.17417V12.4783ZM4.17417 8.35274H14.3191V10.4155H4.17417V8.35274ZM4.17417 4.22715H11.2756V6.28995H4.17417V4.22715Z" fill="#223354" fill-opacity="0.5"/>
</svg>
