<svg width="17" height="13" viewBox="0 0 17 13" fill="none" xmlns="http://www.w3.org/2000/svg">
<rect width="17" height="13" fill="#F5F5F5"/>
<path d="M0.709473 10.0605H4.45943" stroke="black" stroke-miterlimit="10" stroke-linecap="round" stroke-linejoin="round"/>
<path d="M15.7094 3.37695H11.9595" stroke="black" stroke-miterlimit="10" stroke-linecap="round" stroke-linejoin="round"/>
<path d="M8.95947 10.0605H15.7094" stroke="black" stroke-miterlimit="10" stroke-linecap="round" stroke-linejoin="round"/>
<path d="M7.4594 3.37695H0.709473" stroke="black" stroke-miterlimit="10" stroke-linecap="round" stroke-linejoin="round"/>
<path d="M6.70945 12.2343C5.46682 12.2343 4.45947 11.227 4.45947 9.98435C4.45947 8.74169 5.46682 7.73438 6.70945 7.73438C7.95211 7.73438 8.95943 8.74169 8.95943 9.98435C8.95943 11.227 7.95211 12.2343 6.70945 12.2343Z" stroke="black" stroke-miterlimit="10" stroke-linecap="round" stroke-linejoin="round"/>
<path d="M9.70896 5.55269C10.9516 5.55269 11.9589 4.54534 11.9589 3.30271C11.9589 2.06009 10.9516 1.05273 9.70896 1.05273C8.4663 1.05273 7.45898 2.06009 7.45898 3.30271C7.45898 4.54534 8.4663 5.55269 9.70896 5.55269Z" stroke="black" stroke-miterlimit="10" stroke-linecap="round" stroke-linejoin="round"/>
</svg>
