<svg width="40" height="40" viewBox="0 0 40 40" fill="none" xmlns="http://www.w3.org/2000/svg">
<path d="M25.9406 17.9523C26.782 18.4461 27.525 19.007 28.168 19.6164C28.7274 20.1452 29.2299 20.7313 29.6672 21.3648H33.1344V19.3594C33.1344 18.9227 33.3125 18.525 33.6 18.2383C33.8867 17.9508 34.2844 17.7727 34.7211 17.7727H38.4125C38.8492 17.7727 39.2477 17.9508 39.5344 18.2383C39.8211 18.525 40 18.9227 40 19.3594V36.1594C40 36.5961 39.8211 36.9945 39.5344 37.2812C39.3873 37.4289 39.2124 37.5461 39.0199 37.626C38.8274 37.7059 38.6209 37.747 38.4125 37.7469H34.7211C34.2844 37.7469 33.8867 37.5687 33.6 37.2812C33.4523 37.1341 33.3352 36.9593 33.2553 36.7668C33.1754 36.5742 33.1343 36.3678 33.1344 36.1594V34.1547H29.5539C28.5742 35.5891 27.2563 36.8148 25.643 37.6797C24.0531 38.532 22.1828 39.0312 20.0742 39.0312C17.9664 39.0312 16.0891 38.5305 14.4898 37.6781C12.8727 36.8141 11.5477 35.5883 10.5625 34.1547H6.86641V36.1594C6.86641 36.5961 6.6875 36.9945 6.40078 37.2812L6.34766 37.3297C6.06484 37.5883 5.68906 37.7469 5.27891 37.7469H1.5875C1.15078 37.7469 0.752344 37.5687 0.465625 37.2812C0.318099 37.134 0.201041 36.9592 0.121145 36.7667C0.0412498 36.5742 8.32493e-05 36.3678 0 36.1594L0 19.3594C0 18.9227 0.178906 18.525 0.465625 18.2383C0.752344 17.9508 1.15078 17.7727 1.5875 17.7727H5.27891C5.71562 17.7727 6.11328 17.9508 6.40078 18.2383C6.6875 18.525 6.86641 18.9227 6.86641 19.3594V21.3648H10.5523C11.0188 20.7141 11.5719 20.0961 12.2133 19.5227C12.9203 18.8898 13.7336 18.3156 14.6555 17.8164C15.0609 17.5977 15.3789 17.3594 15.5875 17.1242C15.7328 16.9594 15.8164 16.8141 15.8219 16.7063L15.8187 16.693C15.8187 16.5609 15.7266 16.4211 15.5859 16.307C15.4047 16.1602 15.1586 16.0656 14.9023 16.0602L14.4516 16.0625C13.7367 16.0625 13.0852 15.7688 12.6125 15.2961C12.1398 14.8266 11.8461 14.1742 11.8461 13.457C11.8461 12.7406 12.1398 12.0875 12.6109 11.6164L12.6562 11.5742C13.125 11.1273 13.7594 10.8516 14.4516 10.8516H15.7117L18.0859 6.99688V6.68828H11.0305C10.2438 6.68828 9.52734 6.36641 9.01016 5.84922C8.49375 5.33203 8.17109 4.61562 8.17109 3.82891C8.17109 3.04141 8.49375 2.325 9.01016 1.80781C9.52734 1.29141 10.2438 0.96875 11.0305 0.96875H29.2984C30.0852 0.96875 30.8016 1.29141 31.3188 1.80781C31.8359 2.325 32.1578 3.04141 32.1578 3.82812C32.1578 4.61562 31.8359 5.33203 31.3188 5.84922C30.8016 6.36641 30.0852 6.68828 29.2984 6.68828H22.6125V7.23438L24.6062 10.8516H25.6977C26.4117 10.8516 27.0641 11.1453 27.5359 11.618C28.0086 12.0875 28.3023 12.7406 28.3023 13.457C28.3023 14.1727 28.0117 14.8156 27.543 15.2844L27.4977 15.3266C27.0344 15.768 26.4031 16.0453 25.7117 16.0602L25.4516 16.0758C25.0359 16.1125 24.7688 16.2078 24.6219 16.3352C24.543 16.4039 24.5055 16.4938 24.5023 16.5906L24.5062 16.6523C24.5633 17.2844 24.9719 17.475 25.3945 17.6719L25.4484 17.7C25.6086 17.775 25.7711 17.8531 25.9406 17.9523ZM32.3156 22.7859V32.7336H33.8445C34.2375 32.7336 34.5555 33.0516 34.5555 33.4437V36.1594C34.5555 36.2039 34.575 36.2469 34.6047 36.2766C34.6344 36.3063 34.6766 36.3258 34.7211 36.3258H38.4125C38.457 36.3258 38.5 36.3063 38.5297 36.2766C38.5594 36.2469 38.5789 36.2039 38.5789 36.1594V19.3594C38.5789 19.3148 38.5594 19.2727 38.5297 19.243C38.4985 19.2119 38.4565 19.1943 38.4125 19.1938H34.7211C34.6766 19.1938 34.6344 19.2133 34.6047 19.243C34.575 19.2727 34.5555 19.3148 34.5555 19.3594V22.0758C34.5555 22.468 34.2375 22.7859 33.8445 22.7859H32.3156ZM31.0867 32.7336V22.7859H29.2898C29.0555 22.7836 28.8273 22.6672 28.693 22.4563C28.2844 21.8156 27.7844 21.2055 27.1914 20.6437C26.6219 20.1031 25.9656 19.6078 25.2242 19.1734C25.1125 19.1078 24.982 19.0445 24.85 18.9828L24.7945 18.9602C23.993 18.5859 23.2195 18.225 23.0914 16.7742L23.0867 16.6414C23.0758 16.1234 23.2617 15.6414 23.6898 15.2687C24.0563 14.95 24.5953 14.725 25.3297 14.6602L25.6836 14.6445C26.0016 14.6383 26.293 14.5109 26.5102 14.3094L26.5383 14.2789C26.75 14.068 26.8812 13.7781 26.8812 13.457C26.8812 13.1328 26.7469 12.8359 26.5328 12.6211C26.4236 12.5106 26.2935 12.4229 26.1502 12.3631C26.0068 12.3033 25.853 12.2726 25.6977 12.2727H14.4516C14.1398 12.2727 13.8547 12.3945 13.6453 12.5906L13.6164 12.6211C13.4016 12.8359 13.2672 13.1328 13.2672 13.457C13.2672 13.782 13.4016 14.0781 13.6164 14.293C13.8289 14.5078 14.125 14.6414 14.4516 14.6414C14.5234 14.6414 14.868 14.6297 14.9109 14.6445C15.4953 14.6516 16.0609 14.8688 16.4797 15.2086C16.9398 15.5805 17.2406 16.1078 17.2406 16.693L17.2375 16.7148C17.2313 17.1766 17.0227 17.6391 16.6484 18.0617C16.3281 18.4219 15.8773 18.768 15.3273 19.0656C14.5016 19.5125 13.7781 20.0219 13.157 20.5773C12.5203 21.1461 11.9812 21.7695 11.5391 22.4297C11.4768 22.5381 11.387 22.6282 11.2788 22.6908C11.1705 22.7533 11.0477 22.7862 10.9227 22.7859H8.91328V32.7336H10.9414C11.175 32.7359 11.4039 32.8516 11.5383 33.0633C12.4164 34.4414 13.6398 35.6195 15.1562 36.4289C16.5508 37.1734 18.2031 37.6102 20.0742 37.6102C21.9445 37.6102 23.5898 37.1742 24.9773 36.4305C26.4711 35.6305 27.6773 34.468 28.5484 33.1055C28.6095 32.9928 28.6999 32.8988 28.8101 32.8333C28.9203 32.7679 29.0461 32.7334 29.1742 32.7336H31.0867ZM7.68437 32.7336V22.7859H6.15547C5.96712 22.7859 5.78649 22.7111 5.65331 22.5779C5.52013 22.4448 5.44531 22.2641 5.44531 22.0758V19.3594C5.44531 19.3148 5.42578 19.2727 5.39609 19.243C5.36494 19.2119 5.32289 19.1943 5.27891 19.1938H1.5875C1.54297 19.1938 1.5 19.2133 1.47031 19.243C1.44062 19.2727 1.42109 19.3148 1.42109 19.3594V36.1594C1.42109 36.2039 1.44062 36.2469 1.47031 36.2766C1.5 36.3063 1.54297 36.3258 1.5875 36.3258H5.27891C5.31719 36.3258 5.35312 36.3125 5.38125 36.2914L5.39609 36.2766C5.42578 36.2469 5.44531 36.2039 5.44531 36.1594V33.4437C5.44531 33.2554 5.52013 33.0748 5.65331 32.9416C5.78649 32.8084 5.96712 32.7336 6.15547 32.7336H7.68437ZM29.2984 2.38984H11.0305C10.6359 2.38984 10.2758 2.55313 10.0156 2.81328C9.75547 3.07344 9.59219 3.43359 9.59219 3.82812C9.59219 4.22344 9.75547 4.58438 10.0156 4.84453C10.2758 5.10469 10.6359 5.26719 11.0305 5.26719H18.7961C19.1883 5.26719 19.507 5.58594 19.507 5.97813V7.19375C19.505 7.32512 19.4678 7.45355 19.3992 7.56563L17.4398 10.7461L22.9484 10.7828L21.3023 7.79453C21.2297 7.68093 21.1912 7.54889 21.1914 7.41406V5.97813C21.1914 5.58594 21.5094 5.26719 21.9016 5.26719H29.2984C29.693 5.26719 30.0531 5.10469 30.3133 4.84453C30.5734 4.58438 30.7367 4.22344 30.7367 3.82891C30.7367 3.43359 30.5734 3.07344 30.3133 2.81328C30.0531 2.55313 29.693 2.38984 29.2984 2.38984Z" fill="black"/>
</svg>
