<svg width="22" height="16" viewBox="0 0 22 16" fill="none" xmlns="http://www.w3.org/2000/svg">
<path d="M14 0C12.9391 0 11.9217 0.421427 11.1716 1.17157C10.4214 1.92172 10 2.93913 10 4C10 5.06087 10.4214 6.07828 11.1716 6.82843C11.9217 7.57857 12.9391 8 14 8C15.0609 8 16.0783 7.57857 16.8284 6.82843C17.5786 6.07828 18 5.06087 18 4C18 2.93913 17.5786 1.92172 16.8284 1.17157C16.0783 0.421427 15.0609 0 14 0ZM14 1.9C15.16 1.9 16.1 2.84 16.1 4C16.1 5.16 15.16 6.1 14 6.1C13.443 6.1 12.9089 5.87875 12.5151 5.48492C12.1212 5.0911 11.9 4.55695 11.9 4C11.9 3.44305 12.1212 2.9089 12.5151 2.51508C12.9089 2.12125 13.443 1.9 14 1.9ZM3 3V6H0V8H3V11H5V8H8V6H5V3H3ZM14 9C11.33 9 6 10.33 6 13V16H22V13C22 10.33 16.67 9 14 9ZM14 10.9C16.97 10.9 20.1 12.36 20.1 13V14.1H7.9V13C7.9 12.36 11 10.9 14 10.9Z" fill="#006FBF"/>
</svg>
