<svg width="16" height="16" viewBox="0 0 16 16" fill="none" xmlns="http://www.w3.org/2000/svg">
<path fill-rule="evenodd" clip-rule="evenodd" d="M8 0C3.58172 0 0 3.58172 0 8C0 9.61091 0.47697 11.1127 1.2974 12.369L0.427231 14.2413C0.00792801 15.0347 0.581846 16 1.48927 16H8C12.4183 16 16 12.4183 16 8C16 3.58173 12.4183 0 8 0ZM1.6 8C1.6 4.46538 4.46538 1.6 8 1.6C11.5347 1.6 14.4 4.46538 14.4 8C14.4 11.5347 11.5347 14.4 8 14.4H2.11783L2.84175 12.8424C3.02936 12.4386 2.97225 11.9823 2.73538 11.6403L2.73533 11.6403C2.0194 10.6071 1.6 9.35368 1.6 8ZM8.56571 5.03431C8.25329 4.72189 7.74676 4.72189 7.43434 5.03431C7.12192 5.34673 7.12192 5.85326 7.43434 6.16568L8.46865 7.19999H5.60002C5.15819 7.19999 4.80002 7.55817 4.80002 7.99999C4.80002 8.44182 5.15819 8.79999 5.60002 8.79999H8.46865L7.43434 9.83431C7.12192 10.1467 7.12192 10.6533 7.43434 10.9657C7.74676 11.2781 8.25329 11.2781 8.56571 10.9657L10.9657 8.56568C11.0424 8.48898 11.1003 8.40058 11.1393 8.30622C11.1784 8.2119 11.2 8.10847 11.2 7.99999C11.2 7.8915 11.1784 7.78805 11.1393 7.69371C11.1003 7.59938 11.0424 7.511 10.9657 7.43431L8.56571 5.03431Z" fill="#34A400"/>
</svg>
