<svg width="18" height="16" viewBox="0 0 18 16" fill="none" xmlns="http://www.w3.org/2000/svg">
<path d="M7.11111 0C6.16812 0 5.26375 0.374602 4.59695 1.0414C3.93016 1.70819 3.55556 2.61256 3.55556 3.55556C3.55556 4.49855 3.93016 5.40292 4.59695 6.06971C5.26375 6.73651 6.16812 7.11111 7.11111 7.11111C8.0541 7.11111 8.95847 6.73651 9.62527 6.06971C10.2921 5.40292 10.6667 4.49855 10.6667 3.55556C10.6667 2.61256 10.2921 1.70819 9.62527 1.0414C8.95847 0.374602 8.0541 0 7.11111 0ZM7.11111 1.77778C7.58261 1.77778 8.03479 1.96508 8.36819 2.29848C8.70159 2.63187 8.88889 3.08406 8.88889 3.55556C8.88889 4.02705 8.70159 4.47924 8.36819 4.81263C8.03479 5.14603 7.58261 5.33333 7.11111 5.33333C6.63962 5.33333 6.18743 5.14603 5.85403 4.81263C5.52064 4.47924 5.33333 4.02705 5.33333 3.55556C5.33333 3.08406 5.52064 2.63187 5.85403 2.29848C6.18743 1.96508 6.63962 1.77778 7.11111 1.77778ZM7.11111 8C4.73778 8 0 9.18222 0 11.5556V14.2222H8.44444C8.22074 13.6836 8.07988 13.1142 8.02667 12.5333H1.68889V11.5556C1.68889 10.9867 4.47111 9.68889 7.11111 9.68889C7.55556 9.68889 8 9.73333 8.44444 9.80444C8.67254 9.24314 8.9875 8.72121 9.37778 8.25778C8.54222 8.08889 7.74222 8 7.11111 8ZM13.7778 8C11.5556 8 9.77778 9.77778 9.77778 12C9.77778 14.2222 11.5556 16 13.7778 16C16 16 17.7778 14.2222 17.7778 12C17.7778 9.77778 16 8 13.7778 8ZM13.7778 9.33333C15.2533 9.33333 16.4444 10.5244 16.4444 12C16.4444 12.4978 16.3111 12.96 16.0711 13.3333L12.4444 9.70667C12.8178 9.46667 13.28 9.33333 13.7778 9.33333ZM11.4844 10.6667L15.1111 14.2933C14.7378 14.5333 14.2756 14.6667 13.7778 14.6667C12.3022 14.6667 11.1111 13.4756 11.1111 12C11.1111 11.5022 11.2444 11.04 11.4844 10.6667Z" fill="#D7282F"/>
</svg>
