<svg width="18" height="18" viewBox="0 0 18 18" fill="none" xmlns="http://www.w3.org/2000/svg">
<rect x="0.5" y="0.5" width="17" height="17" rx="8.5" fill="white"/>
<path d="M12.8935 6.87922L9.25703 3.24286C9.18886 3.17467 9.09635 3.13636 8.99991 3.13636C8.90345 3.13636 8.81097 3.17469 8.74277 3.24289L5.10651 6.87925C4.9645 7.02126 4.9645 7.25149 5.10651 7.3935C5.2485 7.53549 5.47875 7.53551 5.62076 7.3935L8.99991 4.01428L12.3792 7.3935C12.4502 7.46451 12.5433 7.5 12.6364 7.5C12.7294 7.5 12.8225 7.46451 12.8935 7.39348C13.0355 7.25146 13.0355 7.02123 12.8935 6.87922Z" fill="#666666"/>
<path d="M12.8935 11.1208L9.25703 14.7571C9.18886 14.8253 9.09635 14.8636 8.99991 14.8636C8.90345 14.8636 8.81097 14.8253 8.74277 14.7571L5.10651 11.1208C4.9645 10.9787 4.9645 10.7485 5.10651 10.6065C5.2485 10.4645 5.47875 10.4645 5.62076 10.6065L8.99991 13.9857L12.3792 10.6065C12.4502 10.5355 12.5433 10.5 12.6364 10.5C12.7294 10.5 12.8225 10.5355 12.8935 10.6065C13.0355 10.7485 13.0355 10.9788 12.8935 11.1208Z" fill="#666666"/>
<rect x="0.5" y="0.5" width="17" height="17" rx="8.5" stroke="#666666"/>
</svg>
