<svg width="18" height="15" viewBox="0 0 18 15" fill="none" xmlns="http://www.w3.org/2000/svg">
<path fill-rule="evenodd" clip-rule="evenodd" d="M8.99994 2.93344H2.5C2.224 2.93344 2 3.15744 2 3.43344V14.4333C2 14.7093 2.224 14.9333 2.5 14.9333H13.4999C13.7759 14.9333 13.9999 14.7093 13.9999 14.4333V7.9334C13.9999 7.6574 13.7759 7.4334 13.4999 7.4334C13.2239 7.4334 12.9999 7.6574 12.9999 7.9334V13.9333H2.99999V3.93343H8.99994C9.27593 3.93343 9.49993 3.70943 9.49993 3.43344C9.49993 3.15744 9.27593 2.93344 8.99994 2.93344ZM4.49998 12.4334H11.4999C11.7759 12.4334 11.9999 12.2094 11.9999 11.9334C11.9999 11.6574 11.7759 11.4334 11.4999 11.4334H4.49998C4.22398 11.4334 3.99998 11.6574 3.99998 11.9334C3.99998 12.2094 4.22398 12.4334 4.49998 12.4334ZM4.49998 10.4334H6.49996C6.77596 10.4334 6.99996 10.2094 6.99996 9.93338C6.99996 9.65738 6.77596 9.43338 6.49996 9.43338H4.49998C4.22398 9.43338 3.99998 9.65738 3.99998 9.93338C3.99998 10.2094 4.22398 10.4334 4.49998 10.4334ZM15.8534 3.78693C16.0489 3.59194 16.0489 3.27494 15.8534 3.07994L13.8534 1.07996C13.6584 0.88446 13.3414 0.88446 13.1464 1.07996L8.14645 6.07991C8.07645 6.14941 8.02895 6.23841 8.00945 6.33541L7.50945 8.83539C7.47695 8.99939 7.52795 9.16889 7.64645 9.28688C7.76445 9.40538 7.93395 9.45638 8.09795 9.42388L10.5979 8.92389C10.6949 8.90439 10.7839 8.85689 10.8534 8.78689L15.8534 3.78693ZM4.49998 8.43339H6.49996C6.77596 8.43339 6.99996 8.20939 6.99996 7.9334C6.99996 7.6574 6.77596 7.4334 6.49996 7.4334H4.49998C4.22398 7.4334 3.99998 7.6574 3.99998 7.9334C3.99998 8.20939 4.22398 8.43339 4.49998 8.43339ZM4.49998 6.43341H6.99996C7.27595 6.43341 7.49995 6.20941 7.49995 5.93341C7.49995 5.65742 7.27595 5.43342 6.99996 5.43342H4.49998C4.22398 5.43342 3.99998 5.65742 3.99998 5.93341C3.99998 6.20941 4.22398 6.43341 4.49998 6.43341Z" fill="#333333"/>
</svg>
