<svg width="18" height="14" viewBox="0 0 18 14" fill="none" xmlns="http://www.w3.org/2000/svg">
<path d="M3.4359 11.6V1.54872H8.46154V6.57436H13.4872V7.29231C13.9897 7.29231 14.4708 7.38564 14.9231 7.54359V4.42051L10.6154 0.112822H3.4359C2.63897 0.112822 2 0.751796 2 1.54872V11.6C2 12.3897 2.63897 13.0359 3.4359 13.0359H9.43077C9.27282 12.5836 9.17949 12.1026 9.17949 11.6H3.4359ZM9.89744 1.18974L13.8462 5.13846H9.89744V1.18974ZM16 10.3436L12.5897 13.7538L10.6154 11.6L11.4482 10.7672L12.5897 11.9087L15.1672 9.33128L16 10.3436Z" fill="#333333"/>
</svg>
