<svg width="18" height="15" viewBox="0 0 18 15" fill="none" xmlns="http://www.w3.org/2000/svg">
<path fill-rule="evenodd" clip-rule="evenodd" d="M10.6517 0.951053C10.2704 0.864541 9.8912 1.10348 9.80469 1.48474C9.71818 1.86601 9.95712 2.24521 10.3384 2.33172C12.4545 2.81189 14.1219 4.4793 14.602 6.59535C14.6885 6.97661 15.0677 7.21555 15.449 7.12904C15.8303 7.04253 16.0692 6.66332 15.9827 6.28206C15.3819 3.6344 13.2994 1.55184 10.6517 0.951053ZM7.81974 2.33173C8.201 2.24521 8.43994 1.86601 8.35343 1.48475C8.26691 1.10348 7.88771 0.864543 7.50645 0.951056C4.35391 1.66641 2.00002 4.48471 2.00002 7.85448C2.00002 9.12384 2.33471 10.3168 2.92087 11.348L2.03634 14.0016C1.95156 14.2559 2.01776 14.5364 2.20735 14.726C2.39695 14.9156 2.67739 14.9818 2.93176 14.897L5.58533 14.0125C6.61655 14.5986 7.80949 14.9333 9.07886 14.9333C12.4487 14.9333 15.2669 12.5794 15.9823 9.4269C16.0688 9.04563 15.8299 8.66643 15.4486 8.57991C15.0674 8.49339 14.6881 8.73233 14.6016 9.11359C14.0294 11.6355 11.7731 13.5175 9.07886 13.5175C7.96336 13.5175 6.92523 13.1957 6.04961 12.6402C5.8699 12.5262 5.64843 12.4991 5.44652 12.5664L3.82716 13.1062L4.36695 11.4868C4.43425 11.2849 4.40714 11.0634 4.29312 10.8837C3.73757 10.0081 3.41579 8.96998 3.41579 7.85448C3.41579 5.16027 5.2979 2.90396 7.81974 2.33173ZM8.37109 4.31505C8.37109 3.92409 8.68802 3.60716 9.07898 3.60716C11.4247 3.60716 13.3263 5.50875 13.3263 7.85447C13.3263 8.24542 13.0094 8.56235 12.6184 8.56235C12.2274 8.56235 11.9105 8.24542 11.9105 7.85447C11.9105 6.29066 10.6428 5.02293 9.07898 5.02293C8.68802 5.02293 8.37109 4.706 8.37109 4.31505ZM9.07898 6.43871C8.68802 6.43871 8.37109 6.75564 8.37109 7.14659C8.37109 7.53755 8.68802 7.85448 9.07898 7.85448C9.07898 8.24543 9.39591 8.56236 9.78686 8.56236C10.1778 8.56236 10.4947 8.24543 10.4947 7.85448C10.4947 7.07256 9.8609 6.43871 9.07898 6.43871Z" fill="#333333"/>
</svg>
