<svg width="18" height="15" viewBox="0 0 18 15" fill="none" xmlns="http://www.w3.org/2000/svg">
<path fill-rule="evenodd" clip-rule="evenodd" d="M7.04651 0.933365C5.37044 0.933365 4.07014 1.26559 3.20118 2.13455C2.33222 3.0035 2 4.3038 2 5.97988V9.88685C2 11.5629 2.33222 12.8632 3.20118 13.7322C4.07014 14.6011 5.37044 14.9334 7.04651 14.9334H10.9535C12.6296 14.9334 13.9299 14.6011 14.7988 13.7322C15.6678 12.8632 16 11.5629 16 9.88685V5.97988C16 4.3038 15.6678 3.0035 14.7988 2.13455C13.9299 1.26559 12.6296 0.933365 10.9535 0.933365H7.04651ZM2.97674 5.97988C2.97674 4.40014 3.29568 3.42137 3.89184 2.82521C4.488 2.22905 5.46677 1.91011 7.04651 1.91011H10.9535C12.5332 1.91011 13.512 2.22905 14.1082 2.82521C14.7043 3.42137 15.0233 4.40014 15.0233 5.97988V9.88685C15.0233 11.4666 14.7043 12.4454 14.1082 13.0415C13.512 13.6377 12.5332 13.9566 10.9535 13.9566H7.04651C5.46677 13.9566 4.488 13.6377 3.89184 13.0415C3.29568 12.4454 2.97674 11.4666 2.97674 9.88685V5.97988ZM7.63929 4.57958C7.83001 4.77031 7.83001 5.07952 7.63929 5.27025L6.17417 6.73536C5.98345 6.92608 5.67423 6.92608 5.48351 6.73536L4.99513 6.24699C4.80441 6.05627 4.80441 5.74705 4.99513 5.55633C5.18586 5.36561 5.49508 5.36561 5.6858 5.55633L5.82884 5.69937L6.94862 4.57958C7.13934 4.38886 7.44856 4.38886 7.63929 4.57958ZM8.75255 5.90166C8.75255 5.63194 8.9712 5.41329 9.24092 5.41329H12.6595C12.9292 5.41329 13.1479 5.63194 13.1479 5.90166C13.1479 6.17138 12.9292 6.39003 12.6595 6.39003H9.24092C8.9712 6.39003 8.75255 6.17138 8.75255 5.90166ZM9.24092 9.97144C8.9712 9.97144 8.75255 10.1901 8.75255 10.4598C8.75255 10.7295 8.9712 10.9482 9.24092 10.9482H12.6595C12.9292 10.9482 13.1479 10.7295 13.1479 10.4598C13.1479 10.1901 12.9292 9.97144 12.6595 9.97144H9.24092ZM7.63929 9.13774C7.83001 9.32846 7.83001 9.63768 7.63929 9.8284L6.17417 11.2935C5.98345 11.4842 5.67423 11.4842 5.48351 11.2935L4.99513 10.8051C4.80441 10.6144 4.80441 10.3052 4.99513 10.1145C5.18586 9.92376 5.49508 9.92376 5.6858 10.1145L5.82884 10.2575L6.94862 9.13774C7.13934 8.94702 7.44856 8.94702 7.63929 9.13774Z" fill="#333333"/>
</svg>
