<svg width="18" height="14" viewBox="0 0 18 14" fill="none" xmlns="http://www.w3.org/2000/svg">
<path fill-rule="evenodd" clip-rule="evenodd" d="M11.1999 5.669C12.8047 5.669 14.1105 4.4945 14.1105 3.05107C14.1105 1.60764 12.8047 0.43335 11.1999 0.43335C9.59522 0.43335 8.28966 1.60764 8.28966 3.05107C8.28966 4.4945 9.59522 5.669 11.1999 5.669ZM11.1999 1.04615C12.4291 1.04615 13.4292 1.94554 13.4292 3.0511C13.4292 4.15666 12.4291 5.05622 11.1999 5.05622C9.97083 5.05622 8.97095 4.15668 8.97095 3.0511C8.97095 1.94551 9.97086 1.04615 11.1999 1.04615ZM5.76875 6.9951C6.97161 6.9951 7.95017 6.11491 7.95017 5.03296C7.95017 3.95122 6.97161 3.07103 5.76875 3.07103C4.56611 3.07103 3.58774 3.95125 3.58774 5.03296C3.58774 6.11491 4.56611 6.9951 5.76875 6.9951ZM5.76875 3.68383C6.596 3.68383 7.26888 4.28909 7.26888 5.03296C7.26888 5.77704 6.59598 6.38232 5.76875 6.38232C4.94174 6.38232 4.26903 5.77706 4.26903 5.03296C4.26903 4.28909 4.94174 3.68383 5.76875 3.68383ZM14.9989 8.46603L15 13.4333H7.40009V8.47438C7.43605 8.32239 7.50386 8.15532 7.59899 7.98317L7.25071 8.4008L7.21539 8.37719C6.8176 8.1098 6.33066 7.97368 5.76841 7.97309C5.30323 7.9733 4.8867 8.06681 4.53026 8.25132C4.17207 8.4368 3.96047 8.66974 3.84595 8.83257C3.73958 8.98321 3.69634 9.10615 3.67996 9.16617L3.68126 11.9961H7.26942V12.6089H3V9.09437L3.00754 9.05854C3.05078 8.87809 3.13925 8.69183 3.27034 8.50498C3.41394 8.30109 3.59562 8.11696 3.81043 7.95723C4.17531 7.68499 4.81054 7.36029 5.76372 7.36029C6.66093 7.36029 7.26967 7.64682 7.62419 7.88712L7.64551 7.90164C8.13866 7.08457 9.29698 6.1825 11.2 6.1825C13.5715 6.1825 14.7889 7.58312 14.9989 8.46603ZM14.3187 8.53692C14.1198 7.86988 13.0954 6.7953 11.2 6.7953C9.30468 6.7953 8.28025 7.86988 8.07986 8.54718L8.08135 12.8205H14.3187V8.53692Z" fill="#333333"/>
</svg>
