<svg width="18" height="14" viewBox="0 0 18 14" fill="none" xmlns="http://www.w3.org/2000/svg">
<path fill-rule="evenodd" clip-rule="evenodd" d="M12.8577 1.45679H4.09527V12.4099H9.02411V13.5052H3V0.361526H13.9531V7.4809H12.8577V1.45679ZM11.7625 2.55207H5.19057V3.64734H11.7625V2.55207ZM10.667 4.74275H5.19057V5.83802H10.667V4.74275ZM8.47652 6.93328H5.19057V8.02855H8.47652V6.93328ZM14.1586 11.8656L15 12.707L14.2255 13.4814L13.3544 12.6103C12.9885 12.8255 12.5674 12.9575 12.1121 12.9575C10.7511 12.9575 9.6477 11.8542 9.6477 10.4931C9.6477 9.13205 10.7511 8.0287 12.1121 8.0287C13.4732 8.0287 14.5765 9.13205 14.5765 10.4931C14.5765 11.0012 14.4222 11.4732 14.1586 11.8656ZM12.1123 9.12396C11.3574 9.12396 10.7431 9.73808 10.7431 10.4931C10.7431 11.248 11.3574 11.8623 12.1123 11.8623C12.8672 11.8623 13.4814 11.248 13.4814 10.4931C13.4814 9.73808 12.8672 9.12396 12.1123 9.12396Z" fill="#333333"/>
</svg>
