<svg width="18" height="14" viewBox="0 0 18 14" fill="none" xmlns="http://www.w3.org/2000/svg">
<path d="M14.16 4.72835L14 4.68335C13.9243 4.66915 13.8516 4.64209 13.785 4.60335C14.0137 4.3269 14.1849 4.00764 14.2888 3.66425C14.3927 3.32085 14.4271 2.96019 14.39 2.60335V2.31835C14.39 1.81842 14.1914 1.33896 13.8379 0.985453C13.4844 0.631947 13.0049 0.43335 12.505 0.43335C12.0051 0.43335 11.5256 0.631947 11.1721 0.985453C10.8186 1.33896 10.62 1.81842 10.62 2.31835V2.57835C10.5795 2.93922 10.6122 3.30456 10.7161 3.6525C10.8201 4.00045 10.9932 4.32385 11.225 4.60335L11.17 4.63335C10.9414 4.2665 10.6232 3.96391 10.2453 3.75412C9.86735 3.54433 9.44224 3.43424 9.01 3.43424C8.57776 3.43424 8.15265 3.54433 7.77474 3.75412C7.39683 3.96391 7.07858 4.2665 6.85 4.63335L6.795 4.60335C7.02366 4.3269 7.19494 4.00764 7.29881 3.66425C7.40269 3.32085 7.43709 2.96019 7.4 2.60335V2.31835C7.39218 1.81826 7.18902 1.34108 6.83397 0.988827C6.47891 0.636574 6.00013 0.437206 5.5 0.43335C5.00248 0.441084 4.5275 0.642165 4.17566 0.994009C3.82382 1.34585 3.62273 1.82083 3.615 2.31835V2.57835C3.57448 2.93922 3.60718 3.30456 3.71113 3.6525C3.81509 4.00045 3.98816 4.32385 4.22 4.60335C4.15189 4.64263 4.07743 4.6697 4 4.68335L3.84 4.72835C2.925 5.03335 2 5.88835 2 6.93335C2 7.06596 2.05268 7.19313 2.14645 7.2869C2.24021 7.38067 2.36739 7.43335 2.5 7.43335C2.63261 7.43335 2.75979 7.38067 2.85355 7.2869C2.94732 7.19313 3 7.06596 3 6.93335C3 6.38835 3.59 5.86835 4.16 5.67835C4.19386 5.66473 4.22905 5.65467 4.265 5.64835C4.56654 5.58406 4.83773 5.42029 5.035 5.18335C5.3358 5.29013 5.6642 5.29013 5.965 5.18335C6.0929 5.35307 6.26626 5.48308 6.465 5.55835C6.43765 5.70686 6.4226 5.85737 6.42 6.00835C6.42 6.14335 6.42 6.27335 6.42 6.40335C6.42 7.34335 6.395 8.31835 7.36 9.40335C7.315 9.67835 7.16 9.72335 6.815 9.81835L6.59 9.88335C5.305 10.2933 4 11.4833 4 12.9333C4 13.066 4.05268 13.1931 4.14645 13.2869C4.24021 13.3807 4.36739 13.4333 4.5 13.4333C4.63261 13.4333 4.75978 13.3807 4.85355 13.2869C4.94732 13.1931 5 13.066 5 12.9333C5 12.0033 5.97 11.1233 6.91 10.8133C6.96553 10.793 7.02232 10.7763 7.08 10.7633C7.30598 10.7214 7.52082 10.6331 7.71099 10.504C7.90117 10.3749 8.06256 10.2079 8.185 10.0133C8.44291 10.1223 8.72004 10.1784 9 10.1784C9.27996 10.1784 9.55709 10.1223 9.815 10.0133C9.93744 10.2079 10.0988 10.3749 10.289 10.504C10.4792 10.6331 10.694 10.7214 10.92 10.7633C10.9777 10.7763 11.0345 10.793 11.09 10.8133C12.03 11.1233 13 12.0033 13 12.9333C13 13.066 13.0527 13.1931 13.1464 13.2869C13.2402 13.3807 13.3674 13.4333 13.5 13.4333C13.6326 13.4333 13.7598 13.3807 13.8536 13.2869C13.9473 13.1931 14 13.066 14 12.9333C14 11.4833 12.695 10.2933 11.41 9.86335L11.185 9.79835C10.84 9.70335 10.685 9.65835 10.64 9.38335C11.605 8.31835 11.6 7.34335 11.58 6.38335C11.58 6.25335 11.58 6.12335 11.58 5.98835C11.5774 5.83737 11.5624 5.68686 11.535 5.53835C11.7337 5.46308 11.9071 5.33307 12.035 5.16335C12.3358 5.27013 12.6642 5.27013 12.965 5.16335C13.1623 5.40029 13.4335 5.56406 13.735 5.62835C13.7709 5.63467 13.8061 5.64473 13.84 5.65835C14.41 5.86835 15 6.38835 15 6.93335C15 7.06596 15.0527 7.19313 15.1464 7.2869C15.2402 7.38067 15.3674 7.43335 15.5 7.43335C15.6326 7.43335 15.7598 7.38067 15.8536 7.2869C15.9473 7.19313 16 7.06596 16 6.93335C16 5.88835 15.075 5.03335 14.16 4.72835ZM5.105 4.09835C4.90459 3.90882 4.7541 3.67274 4.66687 3.41106C4.57964 3.14938 4.55839 2.87021 4.605 2.59835C4.605 2.50335 4.605 2.41335 4.605 2.31835C4.61141 2.08393 4.70807 1.86104 4.87482 1.69616C5.04156 1.53128 5.26553 1.43713 5.5 1.43335C5.73272 1.43966 5.95418 1.53493 6.1188 1.69955C6.28342 1.86417 6.37869 2.08562 6.385 2.31835C6.385 2.41335 6.385 2.50335 6.385 2.59835C6.43161 2.87021 6.41036 3.14938 6.32313 3.41106C6.2359 3.67274 6.08541 3.90882 5.885 4.09835C5.77879 4.19639 5.63954 4.25083 5.495 4.25083C5.35046 4.25083 5.21121 4.19639 5.105 4.09835ZM8.23 8.85835C7.39 8.01835 7.4 7.35835 7.42 6.42335C7.42 6.28835 7.42 6.14835 7.42 6.00835C7.42 5.59063 7.58594 5.19003 7.88131 4.89466C8.17668 4.59929 8.57728 4.43335 8.995 4.43335C9.41272 4.43335 9.81332 4.59929 10.1087 4.89466C10.4041 5.19003 10.57 5.59063 10.57 6.00835C10.57 6.14835 10.57 6.28835 10.57 6.42335C10.57 7.34835 10.6 8.01835 9.76 8.85835C9.55252 9.05238 9.27907 9.16032 8.995 9.16032C8.71093 9.16032 8.43748 9.05238 8.23 8.85835ZM12.105 4.09835C11.9046 3.90882 11.7541 3.67274 11.6669 3.41106C11.5796 3.14938 11.5584 2.87021 11.605 2.59835C11.605 2.50335 11.605 2.41335 11.605 2.31835C11.605 2.08363 11.6982 1.85853 11.8642 1.69256C12.0302 1.52659 12.2553 1.43335 12.49 1.43335C12.7247 1.43335 12.9498 1.52659 13.1158 1.69256C13.2818 1.85853 13.375 2.08363 13.375 2.31835C13.375 2.41335 13.375 2.50335 13.375 2.59835C13.4216 2.87021 13.4004 3.14938 13.3131 3.41106C13.2259 3.67274 13.0754 3.90882 12.875 4.09835C12.7694 4.19357 12.6322 4.24627 12.49 4.24627C12.3478 4.24627 12.2106 4.19357 12.105 4.09835Z" fill="#333333"/>
</svg>
