<svg width="18" height="15" viewBox="0 0 18 15" fill="none" xmlns="http://www.w3.org/2000/svg">
<path d="M9.58333 14.9333H8.41667V13.125C7.425 13.0083 6.49167 12.6 5.73333 12.0167L4.45 13.3L3.63333 12.4833L4.91667 11.2C4.33333 10.4417 3.925 9.50835 3.80833 8.51668H2V7.35002H3.80833C3.925 6.35835 4.33333 5.42502 4.91667 4.66668L3.63333 3.38335L4.45 2.56668L5.73333 3.85002C6.49167 3.26668 7.425 2.85835 8.41667 2.74168V0.93335H9.58333V2.74168C10.575 2.85835 11.5083 3.26668 12.2667 3.85002L13.55 2.56668L14.3667 3.38335L13.0833 4.66668C13.6667 5.42502 14.075 6.35835 14.1917 7.35002H16V8.51668H14.1917C14.075 9.50835 13.6667 10.4417 13.0833 11.2L14.3667 12.4833L13.55 13.3L12.2667 12.0167C11.5083 12.6 10.575 13.0083 9.58333 13.125V14.9333ZM9 3.85002C6.725 3.85002 4.91667 5.65835 4.91667 7.93335C4.91667 10.2083 6.725 12.0167 9 12.0167C11.275 12.0167 13.0833 10.2083 13.0833 7.93335C13.0833 5.65835 11.275 3.85002 9 3.85002ZM9 10.2667C7.71667 10.2667 6.66667 9.21668 6.66667 7.93335C6.66667 6.65002 7.71667 5.60002 9 5.60002C10.2833 5.60002 11.3333 6.65002 11.3333 7.93335C11.3333 9.21668 10.2833 10.2667 9 10.2667ZM9 6.76668C8.35833 6.76668 7.83333 7.29168 7.83333 7.93335C7.83333 8.57502 8.35833 9.10002 9 9.10002C9.64167 9.10002 10.1667 8.57502 10.1667 7.93335C10.1667 7.29168 9.64167 6.76668 9 6.76668Z" fill="#333333"/>
</svg>
