<svg width="18" height="14" viewBox="0 0 18 14" fill="none" xmlns="http://www.w3.org/2000/svg">
<path fill-rule="evenodd" clip-rule="evenodd" d="M11.633 9.07573C12.4847 8.3373 13.0243 7.24787 13.0243 6.03477V4.08691C13.0243 1.86793 11.219 0.0626678 9.00001 0.0626678C6.78103 0.0626678 4.97574 1.86793 4.97574 4.08694V6.0348C4.97574 7.24787 5.51528 8.33732 6.367 9.07576C4.42722 9.61773 3 11.4005 3 13.5109C3 13.6728 3.13124 13.804 3.29313 13.804H14.7069C14.8688 13.804 15 13.6728 15 13.5109C15 11.4005 13.5728 9.61771 11.633 9.07573ZM5.562 6.03477V4.08691C5.562 2.1912 7.10428 0.648928 9.00001 0.648928C10.8958 0.648928 12.438 2.1912 12.438 4.08694V6.0348C12.438 7.93053 10.8958 9.47281 9.00001 9.47281C7.10428 9.47278 5.562 7.93051 5.562 6.03477ZM3.59683 13.2177C3.73328 11.3344 5.17354 9.80676 7.01694 9.53545C7.60259 9.86851 8.27945 10.059 9.00001 10.059C9.72057 10.059 10.3974 9.86851 10.9831 9.53545C12.8265 9.80676 14.2667 11.3344 14.4032 13.2177H3.59683ZM4.69235 12.0452H4.71688C4.87877 12.0452 5.00998 12.1764 5.00998 12.3383C5.00998 12.5002 4.87874 12.6314 4.71685 12.6314H4.69235C4.53046 12.6314 4.39922 12.5002 4.39922 12.3383C4.39922 12.1764 4.53046 12.0452 4.69235 12.0452ZM6.28493 12.6314C6.12304 12.6314 5.9918 12.5002 5.9918 12.3383C5.9918 12.1764 6.12304 12.0452 6.28493 12.0452H13.3065C13.4684 12.0452 13.5996 12.1764 13.5996 12.3383C13.5996 12.5002 13.4684 12.6314 13.3065 12.6314H6.28493ZM10.3901 6.31091C10.3074 6.31094 10.2252 6.27607 10.1672 6.20828C10.062 6.08525 10.0765 5.90017 10.1995 5.79497L11.3781 4.78731L10.1995 3.77966C10.0765 3.67446 10.062 3.48943 10.1672 3.36638C10.2724 3.24335 10.4574 3.22886 10.5805 3.33406L12.0197 4.5645C12.0849 4.62019 12.1224 4.70159 12.1224 4.78731C12.1224 4.87304 12.0849 4.95444 12.0197 5.01013L10.5805 6.24059C10.5252 6.28778 10.4575 6.31091 10.3901 6.31091ZM7.61151 6.31094C7.69422 6.31094 7.77648 6.2761 7.83443 6.20831C7.93963 6.08525 7.92517 5.90023 7.80211 5.79502L6.6235 4.78737L7.80211 3.77972C7.92517 3.67451 7.93963 3.48949 7.83443 3.36643C7.72922 3.24338 7.5442 3.22886 7.42114 3.33412L5.98193 4.56456C5.91679 4.62025 5.8793 4.70165 5.8793 4.78737C5.8793 4.87309 5.91679 4.95449 5.98193 5.01018L7.42114 6.24065C7.4764 6.28783 7.54412 6.31094 7.61151 6.31094ZM8.45888 6.74242C8.42879 6.74242 8.39823 6.73775 8.36809 6.72793C8.21417 6.67785 8.12998 6.51241 8.18011 6.35847L9.26205 3.03471C9.31213 2.88076 9.47756 2.79652 9.63151 2.8467C9.78545 2.89679 9.86962 3.06224 9.81951 3.21616L8.73757 6.53992C8.69726 6.66373 8.58239 6.74242 8.45888 6.74242Z" fill="#333333"/>
</svg>
