<svg width="18" height="15" viewBox="0 0 18 15" fill="none" xmlns="http://www.w3.org/2000/svg">
<path fill-rule="evenodd" clip-rule="evenodd" d="M6.33333 1.06667C6.86075 1.06667 7.37632 1.22306 7.81486 1.51608C8.25339 1.8091 8.59518 2.22557 8.79701 2.71284C8.99885 3.20011 9.05166 3.73629 8.94876 4.25357C8.84587 4.77086 8.59189 5.24601 8.21895 5.61895C7.84601 5.99189 7.37086 6.24587 6.85358 6.34876C6.33629 6.45165 5.80012 6.39885 5.31285 6.19701C4.82558 5.99518 4.4091 5.65338 4.11608 5.21485C3.82307 4.77632 3.66667 4.26075 3.66667 3.73333C3.66667 3.02609 3.94762 2.34781 4.44772 1.84772C4.94781 1.34762 5.62609 1.06667 6.33333 1.06667ZM6.33333 0C5.59495 0 4.87315 0.218956 4.25921 0.62918C3.64526 1.0394 3.16675 1.62247 2.88418 2.30465C2.60162 2.98683 2.52769 3.73747 2.67174 4.46167C2.81579 5.18587 3.17135 5.85108 3.69347 6.3732C4.21559 6.89531 4.8808 7.25088 5.605 7.39493C6.32919 7.53898 7.07984 7.46505 7.76202 7.18248C8.4442 6.89992 9.02726 6.42141 9.43749 5.80746C9.84771 5.19352 10.0667 4.47172 10.0667 3.73333C10.0667 2.74319 9.67334 1.7936 8.9732 1.09347C8.27306 0.393332 7.32348 0 6.33333 0ZM11.6667 14.9333H10.6V12.2667C10.6 11.5594 10.319 10.8811 9.81895 10.381C9.31885 9.88095 8.64058 9.6 7.93333 9.6H4.73333C4.02609 9.6 3.34781 9.88095 2.84772 10.381C2.34762 10.8811 2.06667 11.5594 2.06667 12.2667V14.9333H1V12.2667C1 11.2765 1.39333 10.3269 2.09347 9.6268C2.7936 8.92666 3.74319 8.53333 4.73333 8.53333H7.93333C8.92347 8.53333 9.87306 8.92666 10.5732 9.6268C11.2733 10.3269 11.6667 11.2765 11.6667 12.2667V14.9333ZM11.6664 1.06667H16.9997V2.13334H11.6664V1.06667ZM16.9997 3.73333H11.6664V4.8H16.9997V3.73333ZM11.6664 6.4H15.3997V7.46667H11.6664V6.4Z" fill="#333333"/>
</svg>
