<svg width="18" height="14" viewBox="0 0 18 14" fill="none" xmlns="http://www.w3.org/2000/svg">
<path d="M1.72727 13.5107H7.54545C7.73834 13.5107 7.92332 13.4341 8.05971 13.2977C8.1961 13.1613 8.27273 12.9763 8.27273 12.7834C8.27273 12.5906 8.1961 12.4056 8.05971 12.2692C7.92332 12.1328 7.73834 12.0562 7.54545 12.0562H2.50618C2.68266 10.8451 3.28883 9.73797 4.214 8.93684C5.13917 8.13571 6.32163 7.69406 7.54545 7.69254C8.4018 7.69997 9.23376 7.40755 9.89715 6.86598C10.5605 6.3244 11.0135 5.5678 11.1776 4.72729C11.3418 3.88679 11.2066 3.01535 10.7957 2.26401C10.3847 1.51267 9.72389 0.928782 8.92764 0.613538C8.1314 0.298294 7.24995 0.271562 6.43607 0.537976C5.62218 0.80439 4.92715 1.34716 4.47144 2.07221C4.01572 2.79727 3.82803 3.65892 3.94091 4.50782C4.05378 5.35673 4.46011 6.1394 5.08945 6.72017C3.88233 7.20987 2.84856 8.04824 2.12015 9.12822C1.39174 10.2082 1.00176 11.4808 1 12.7834C1 12.9763 1.07662 13.1613 1.21301 13.2977C1.3494 13.4341 1.53439 13.5107 1.72727 13.5107ZM7.54545 1.87436C7.97698 1.87436 8.39881 2.00232 8.75761 2.24206C9.11641 2.4818 9.39606 2.82255 9.56119 3.22123C9.72633 3.6199 9.76954 4.0586 9.68535 4.48183C9.60116 4.90506 9.39337 5.29382 9.08823 5.59895C8.7831 5.90409 8.39434 6.11188 7.97111 6.19607C7.54787 6.28026 7.10918 6.23705 6.71051 6.07191C6.31183 5.90678 5.97108 5.62713 5.73134 5.26833C5.4916 4.90953 5.36364 4.4877 5.36364 4.05618C5.36364 3.47752 5.59351 2.92257 6.00268 2.5134C6.41185 2.10423 6.9668 1.87436 7.54545 1.87436ZM17 9.87436C17 10.0672 16.9234 10.2522 16.787 10.3886C16.6506 10.525 16.4656 10.6016 16.2727 10.6016H14.0909V12.7834C14.0909 12.9763 14.0143 13.1613 13.8779 13.2977C13.7415 13.4341 13.5565 13.5107 13.3636 13.5107C13.1708 13.5107 12.9858 13.4341 12.8494 13.2977C12.713 13.1613 12.6364 12.9763 12.6364 12.7834V10.6016H10.4545C10.2617 10.6016 10.0767 10.525 9.94029 10.3886C9.8039 10.2522 9.72727 10.0672 9.72727 9.87436C9.72727 9.68147 9.8039 9.49649 9.94029 9.3601C10.0767 9.22371 10.2617 9.14708 10.4545 9.14708H12.6364V6.96527C12.6364 6.77238 12.713 6.5874 12.8494 6.45101C12.9858 6.31462 13.1708 6.23799 13.3636 6.23799C13.5565 6.23799 13.7415 6.31462 13.8779 6.45101C14.0143 6.5874 14.0909 6.77238 14.0909 6.96527V9.14708H16.2727C16.4656 9.14708 16.6506 9.22371 16.787 9.3601C16.9234 9.49649 17 9.68147 17 9.87436Z" fill="#333333"/>
</svg>
