<svg width="18" height="15" viewBox="0 0 18 15" fill="none" xmlns="http://www.w3.org/2000/svg">
<path fill-rule="evenodd" clip-rule="evenodd" d="M10.9932 0.93335H4.33447V4.43487H2V13.1841L2.00001 13.1856C2.00241 13.6484 2.18732 14.0915 2.51456 14.4188C2.8418 14.746 3.28495 14.9309 3.74773 14.9333L3.74925 14.9333H14.2445L14.2494 14.9334C14.7137 14.9334 15.159 14.7489 15.4873 14.4206C15.8157 14.0922 16.0001 13.6469 16.0001 13.1826V2.10053H12.1359L10.9932 0.93335ZM12.499 13.2191C12.5029 13.4072 12.537 13.5917 12.5987 13.7662H3.75254C3.59766 13.765 3.44942 13.703 3.33988 13.5935C3.23034 13.4839 3.16831 13.3357 3.16718 13.1808V5.60205H4.33447H12.4985V13.1841L12.4985 13.1856C12.4985 13.1968 12.4987 13.2079 12.499 13.2191ZM14.2514 13.7662C14.4054 13.7656 14.5531 13.7042 14.662 13.5953C14.7715 13.4858 14.8329 13.3374 14.8329 13.1826V3.2677H11.6452L10.5025 2.10053H5.50165V4.43487H13.6657L13.6658 4.43488V13.1826L14.2514 13.7662ZM14.2514 13.7662C14.0964 13.7651 13.948 13.7031 13.8384 13.5935C13.7316 13.4867 13.67 13.3432 13.6659 13.1926L14.2514 13.7662ZM7.83267 7.9303C7.51037 7.9303 7.24909 8.19158 7.24909 8.51389C7.24909 8.83477 7.50807 9.09517 7.82842 9.09746C7.83545 9.09735 7.84248 9.09728 7.8495 9.09724C8.16403 9.08833 8.41626 8.83057 8.41626 8.51389C8.41626 8.19158 8.15498 7.9303 7.83267 7.9303ZM9.24413 9.54992C9.45743 9.25982 9.58344 8.90157 9.58344 8.51389C9.58344 7.54697 8.79959 6.76312 7.83267 6.76312C6.86575 6.76312 6.08191 7.54697 6.08191 8.51389C6.08191 8.90834 6.21236 9.27232 6.43246 9.56505C6.34397 9.63155 6.26014 9.70441 6.18166 9.78316C5.96507 10.0005 5.79352 10.2585 5.67684 10.5423C5.5603 10.8257 5.50079 11.1294 5.50172 11.4358V12.6295H10.1949V11.4358C10.1958 11.1259 10.135 10.819 10.016 10.5328C9.89674 10.2463 9.72154 9.98654 9.50061 9.76865C9.42032 9.68946 9.33459 9.61639 9.24413 9.54992ZM7.82839 10.2646C7.82981 10.2647 7.83124 10.2647 7.83267 10.2647C7.84322 10.2647 7.85374 10.2646 7.86424 10.2644C8.01205 10.2645 8.15856 10.2927 8.29591 10.3476C8.43978 10.4052 8.57071 10.4909 8.68102 10.5997C8.79134 10.7085 8.87883 10.8382 8.93836 10.9812C8.99789 11.1243 9.02826 11.2778 9.0277 11.4327L9.02769 11.4338V11.4624H6.6689V11.4338L6.66889 11.4328C6.66836 11.2796 6.69807 11.1278 6.75633 10.9861C6.8146 10.8444 6.90026 10.7156 7.00841 10.607C7.11656 10.4985 7.24508 10.4124 7.38658 10.3536C7.52666 10.2955 7.67674 10.2652 7.82839 10.2646Z" fill="#333333"/>
</svg>
