<svg width="18" height="15" viewBox="0 0 18 15" fill="none" xmlns="http://www.w3.org/2000/svg">
<path fill-rule="evenodd" clip-rule="evenodd" d="M6.63752 2.84233H10.9091C11.4354 2.84233 11.8637 3.27062 11.8637 3.79688V8.67556C11.8637 9.17512 11.4713 9.52415 10.9091 9.52415H2.95455C2.39232 9.52415 2 9.17512 2 8.67556V3.79688C2 3.27059 2.42826 2.84233 2.95455 2.84233H3.5909V1.25143C3.5909 1.13178 3.65805 1.02234 3.76463 0.967928C3.87154 0.913847 3.99978 0.923721 4.09618 0.994029L6.63752 2.84233ZM10.9091 8.8878C11.0542 8.8878 11.2273 8.85087 11.2273 8.67556H11.2273V3.79688C11.2273 3.62154 11.0847 3.47868 10.9091 3.47868H6.5341C6.46695 3.47868 6.40109 3.45739 6.347 3.41792L4.22729 1.87633V3.16049C4.22729 3.33613 4.08473 3.47868 3.90909 3.47868H2.95455C2.77921 3.47868 2.63635 3.62157 2.63635 3.79688V8.67556C2.63635 8.8509 2.80946 8.8878 2.95455 8.8878H10.9091ZM4.22728 6.18325C4.22728 6.44684 4.0136 6.66052 3.75001 6.66052C3.48641 6.66052 3.27273 6.44684 3.27273 6.18325C3.27273 5.91966 3.48641 5.70597 3.75001 5.70597C4.0136 5.70597 4.22728 5.91966 4.22728 6.18325ZM5.34092 6.66052C5.60451 6.66052 5.81819 6.44684 5.81819 6.18325C5.81819 5.91966 5.60451 5.70597 5.34092 5.70597C5.07733 5.70597 4.86364 5.91966 4.86364 6.18325C4.86364 6.44684 5.07733 6.66052 5.34092 6.66052ZM7.40908 6.18325C7.40908 6.44684 7.1954 6.66052 6.93181 6.66052C6.66822 6.66052 6.45454 6.44684 6.45454 6.18325C6.45454 5.91966 6.66822 5.70597 6.93181 5.70597C7.1954 5.70597 7.40908 5.91966 7.40908 6.18325ZM8.52274 6.66052C8.78633 6.66052 9.00001 6.44684 9.00001 6.18325C9.00001 5.91966 8.78633 5.70597 8.52274 5.70597C8.25915 5.70597 8.04547 5.91966 8.04547 6.18325C8.04547 6.44684 8.25915 6.66052 8.52274 6.66052ZM10.5909 6.18325C10.5909 6.44684 10.3772 6.66052 10.1137 6.66052C9.85006 6.66052 9.63638 6.44684 9.63638 6.18325C9.63638 5.91966 9.85006 5.70597 10.1137 5.70597C10.3772 5.70597 10.5909 5.91966 10.5909 6.18325ZM15.0455 6.34236H12.8182C12.6422 6.34236 12.5 6.48492 12.5 6.66055C12.5 6.83619 12.6422 6.97874 12.8182 6.97874H15.0455C15.1905 6.97874 15.3636 7.01564 15.3636 7.19098V12.0697C15.3636 12.245 15.2211 12.3879 15.0455 12.3879H14.0909C13.9149 12.3879 13.7727 12.5304 13.7727 12.7061V13.9902L11.653 12.4487C11.5986 12.4092 11.5331 12.3879 11.4659 12.3879H7.09092C6.91561 12.3879 6.77273 12.245 6.77273 12.0697V10.4788C6.77273 10.3032 6.63017 10.1606 6.45453 10.1606C6.2789 10.1606 6.13634 10.3032 6.13634 10.4788V12.0697C6.13634 12.596 6.56461 13.0242 7.09089 13.0242H11.3625L13.9038 14.8726C13.9592 14.913 14.025 14.9333 14.0909 14.9333C14.1402 14.9333 14.1896 14.9219 14.2354 14.8986C14.342 14.8442 14.4091 14.7348 14.4091 14.6151V13.0242H15.0455C15.5717 13.0242 16 12.596 16 12.0697V7.19095C16 6.6914 15.6077 6.34236 15.0455 6.34236ZM13.7727 10.6378C13.7727 10.9014 13.5591 11.1151 13.2955 11.1151C13.0319 11.1151 12.8182 10.9014 12.8182 10.6378C12.8182 10.3742 13.0319 10.1605 13.2955 10.1605C13.5591 10.1605 13.7727 10.3742 13.7727 10.6378ZM11.0682 11.1151C11.3318 11.1151 11.5455 10.9014 11.5455 10.6378C11.5455 10.3742 11.3318 10.1605 11.0682 10.1605C10.8046 10.1605 10.5909 10.3742 10.5909 10.6378C10.5909 10.9014 10.8046 11.1151 11.0682 11.1151ZM9.31817 10.6378C9.31817 10.9014 9.10449 11.1151 8.8409 11.1151C8.57731 11.1151 8.36363 10.9014 8.36363 10.6378C8.36363 10.3742 8.57731 10.1605 8.8409 10.1605C9.10449 10.1605 9.31817 10.3742 9.31817 10.6378Z" fill="#333333"/>
</svg>
