<svg width="18" height="15" viewBox="0 0 18 15" fill="none" xmlns="http://www.w3.org/2000/svg">
<path d="M6.1196 9.53333H3.87961C3.54013 9.53333 3.21456 9.66819 2.97451 9.90823C2.73447 10.1483 2.59961 10.4739 2.59961 10.8133V13.0533C2.59961 13.3928 2.73447 13.7184 2.97451 13.9584C3.21456 14.1985 3.54013 14.3333 3.87961 14.3333H6.1196C6.45908 14.3333 6.78465 14.1985 7.0247 13.9584C7.26475 13.7184 7.3996 13.3928 7.3996 13.0533V10.8133C7.3996 10.4739 7.26475 10.1483 7.0247 9.90823C6.78465 9.66819 6.45908 9.53333 6.1196 9.53333ZM14.1196 1.53334H11.8796C11.5401 1.53334 11.2145 1.6682 10.9745 1.90824C10.7345 2.14829 10.5996 2.47386 10.5996 2.81334V5.05334C10.5996 5.39281 10.7345 5.71839 10.9745 5.95843C11.2145 6.19848 11.5401 6.33333 11.8796 6.33333H14.1196C14.4591 6.33333 14.7846 6.19848 15.0247 5.95843C15.2647 5.71839 15.3996 5.39281 15.3996 5.05334V2.81334C15.3996 2.47386 15.2647 2.14829 15.0247 1.90824C14.7846 1.6682 14.4591 1.53334 14.1196 1.53334Z" fill="#333333" fill-opacity="0.16"/>
<path fill-rule="evenodd" clip-rule="evenodd" d="M2.55064 1.48398C2.90321 1.13141 3.38139 0.933342 3.88 0.933342H6.11999C6.6186 0.933342 7.09679 1.13141 7.44935 1.48398C7.80192 1.83655 7.99999 2.31473 7.99999 2.81334V5.05334C7.99999 5.30022 7.95136 5.54469 7.85689 5.77278C7.76241 6.00087 7.62393 6.20812 7.44935 6.3827C7.27478 6.55727 7.06753 6.69575 6.83944 6.79023C6.61135 6.88471 6.36688 6.93333 6.11999 6.93333H3.88C3.63311 6.93333 3.38865 6.88471 3.16055 6.79023C2.93246 6.69575 2.72521 6.55727 2.55064 6.3827C2.37606 6.20812 2.23759 6.00087 2.14311 5.77278C2.04863 5.54469 2 5.30022 2 5.05334V2.81334C2 2.31473 2.19807 1.83655 2.55064 1.48398ZM3.88 2.13334C3.69965 2.13334 3.52669 2.20498 3.39917 2.33251C3.27164 2.46003 3.2 2.63299 3.2 2.81334V5.05334C3.2 5.14264 3.21759 5.23106 3.25176 5.31356C3.28593 5.39606 3.33602 5.47103 3.39917 5.53417C3.46231 5.59731 3.53727 5.6474 3.61977 5.68157C3.70228 5.71575 3.7907 5.73334 3.88 5.73334H6.11999C6.20929 5.73334 6.29772 5.71575 6.38022 5.68157C6.46272 5.6474 6.53768 5.59731 6.60083 5.53417C6.66397 5.47103 6.71406 5.39606 6.74823 5.31356C6.78241 5.23106 6.79999 5.14264 6.79999 5.05334V2.81334C6.79999 2.63299 6.72835 2.46003 6.60083 2.33251C6.4733 2.20498 6.30034 2.13334 6.11999 2.13334H3.88ZM12.9998 8.93333C13.3311 8.93333 13.5998 9.20196 13.5998 9.53333V11.3333H15.3997C15.7311 11.3333 15.9997 11.602 15.9997 11.9333C15.9997 12.2647 15.7311 12.5333 15.3997 12.5333H13.5998V14.3333C13.5998 14.6647 13.3311 14.9333 12.9998 14.9333C12.6684 14.9333 12.3998 14.6647 12.3998 14.3333V12.5333H10.5998C10.2684 12.5333 9.99976 12.2647 9.99976 11.9333C9.99976 11.602 10.2684 11.3333 10.5998 11.3333H12.3998V9.53333C12.3998 9.20196 12.6684 8.93333 12.9998 8.93333ZM11.88 0.933342C11.3814 0.933342 10.9032 1.13141 10.5506 1.48398C10.1981 1.83655 9.99999 2.31473 9.99999 2.81334V5.05334C9.99999 5.55194 10.1981 6.03013 10.5506 6.3827C10.9032 6.73526 11.3814 6.93333 11.88 6.93333H14.12C14.6186 6.93333 15.0968 6.73526 15.4493 6.3827C15.8019 6.03013 16 5.55194 16 5.05334V2.81334C16 2.31473 15.8019 1.83655 15.4493 1.48398C15.0968 1.13141 14.6186 0.933342 14.12 0.933342H11.88ZM11.3992 2.33251C11.5267 2.20498 11.6996 2.13334 11.88 2.13334H14.12C14.3003 2.13334 14.4733 2.20498 14.6008 2.33251C14.7283 2.46003 14.8 2.63299 14.8 2.81334V5.05334C14.8 5.23368 14.7283 5.40664 14.6008 5.53417C14.4733 5.66169 14.3003 5.73334 14.12 5.73334H11.88C11.6996 5.73334 11.5267 5.66169 11.3992 5.53417C11.2716 5.40665 11.2 5.23368 11.2 5.05334V2.81334C11.2 2.63299 11.2716 2.46003 11.3992 2.33251ZM6.11999 8.93333H3.88C3.38139 8.93333 2.90321 9.1314 2.55064 9.48397C2.19807 9.83654 2 10.3147 2 10.8133V13.0533C2 13.5519 2.19807 14.0301 2.55064 14.3827C2.90321 14.7353 3.38139 14.9333 3.88 14.9333H6.11999C6.6186 14.9333 7.09679 14.7353 7.44935 14.3827C7.80192 14.0301 7.99999 13.5519 7.99999 13.0533V10.8133C7.99999 10.3147 7.80192 9.83654 7.44935 9.48397C7.09679 9.1314 6.6186 8.93333 6.11999 8.93333ZM3.39917 10.3325C3.52669 10.205 3.69965 10.1333 3.88 10.1333H6.11999C6.30034 10.1333 6.4733 10.205 6.60083 10.3325C6.72835 10.46 6.79999 10.633 6.79999 10.8133V13.0533C6.79999 13.2337 6.72835 13.4066 6.60083 13.5342C6.4733 13.6617 6.30034 13.7333 6.11999 13.7333H3.88C3.69965 13.7333 3.52669 13.6617 3.39917 13.5342C3.27164 13.4066 3.2 13.2337 3.2 13.0533V10.8133C3.2 10.633 3.27164 10.46 3.39917 10.3325Z" fill="#333333"/>
</svg>
