<svg width="18" height="16" viewBox="0 0 18 16" fill="none" xmlns="http://www.w3.org/2000/svg">
<path d="M11.0334 11.1261V8.99762H13.162V7.57859L16 10.0619L13.162 12.5452V11.1261H11.0334ZM12.4524 11.8357V13.9642H10.3239V15.3832L7.48587 12.8999L10.3239 10.4166V11.8357H12.4524ZM8.90489 4.74055C7.33687 4.74055 6.06684 6.01767 6.06684 7.57859C6.06684 8.93376 7.02468 10.0903 8.34438 10.3599L11.7429 7.47926C11.6933 5.95381 10.4374 4.74055 8.90489 4.74055ZM8.90489 8.99762C8.12443 8.99762 7.48587 8.36615 7.48587 7.57859C7.48587 6.79104 8.12443 6.15957 8.90489 6.15957C9.68535 6.15957 10.3239 6.79813 10.3239 7.57859C10.3239 8.35906 9.69245 8.99762 8.90489 8.99762ZM15.7588 5.25849L14.3397 2.80358C14.2546 2.64749 14.0701 2.58364 13.9069 2.64749L12.1403 3.357C11.7784 3.0661 11.3882 2.83196 10.9412 2.64749L10.6787 0.781477C10.6503 0.611194 10.5013 0.483482 10.3239 0.483482H7.48587C7.30849 0.483482 7.15949 0.611194 7.13111 0.781477L6.86859 2.66168C6.4216 2.84615 6.03846 3.08029 5.66952 3.37119L3.93831 2.64749C3.77512 2.58364 3.58356 2.64749 3.50551 2.80358L2.08649 5.25849C1.99425 5.40749 2.02973 5.60615 2.16453 5.71258L3.63322 6.86908L3.58356 7.57859L3.63322 8.2881L2.13615 9.44461C1.99425 9.55103 1.95878 9.7497 2.05101 9.89869L3.47003 12.3536C3.54808 12.5452 3.75384 12.6232 3.93831 12.5452L5.71209 11.8357C5.88237 11.9705 6.06684 12.0982 6.25132 12.2117L7.42201 11.2184C6.87569 10.9842 6.39322 10.6366 6.00299 10.1896L4.29307 10.8991L3.74674 9.97674L5.21543 8.85571C4.93163 8.02559 4.93163 7.1316 5.21543 6.30147L3.71836 5.20173L4.2505 4.27937L5.96042 4.98888C6.51384 4.35032 7.25882 3.90333 8.08895 3.72595L8.37276 1.9025H9.43702L9.69954 3.76142C10.5297 3.93171 11.2747 4.38579 11.8281 5.01726L13.538 4.30775L14.0701 5.23011L12.5943 6.30147C12.6582 6.48595 12.7079 6.67751 12.7362 6.86908H14.1553L15.6452 5.71258C15.8013 5.61325 15.8439 5.41458 15.7588 5.25849ZM8.90489 4.74055C7.33687 4.74055 6.06684 6.01767 6.06684 7.57859C6.06684 8.93376 7.02468 10.0903 8.34438 10.3599L11.7429 7.47926C11.6933 5.95381 10.4374 4.74055 8.90489 4.74055ZM8.90489 8.99762C8.12443 8.99762 7.48587 8.36615 7.48587 7.57859C7.48587 6.79104 8.12443 6.15957 8.90489 6.15957C9.68535 6.15957 10.3239 6.79813 10.3239 7.57859C10.3239 8.35906 9.69245 8.99762 8.90489 8.99762ZM8.90489 4.74055C7.33687 4.74055 6.06684 6.01767 6.06684 7.57859C6.06684 8.93376 7.02468 10.0903 8.34438 10.3599L11.7429 7.47926C11.6933 5.95381 10.4374 4.74055 8.90489 4.74055ZM8.90489 8.99762C8.12443 8.99762 7.48587 8.36615 7.48587 7.57859C7.48587 6.79104 8.12443 6.15957 8.90489 6.15957C9.68535 6.15957 10.3239 6.79813 10.3239 7.57859C10.3239 8.35906 9.69245 8.99762 8.90489 8.99762Z" fill="#333333"/>
</svg>
