<svg width="25" height="24" viewBox="0 0 25 24" fill="none" xmlns="http://www.w3.org/2000/svg">
<g clip-path="url(#clip0_2_358)">
<path d="M24.4873 12.2244C24.4873 11.2412 24.4057 10.5236 24.229 9.77955H12.739V14.2175H19.4833C19.3474 15.3204 18.6132 16.9814 16.9814 18.0975L16.9585 18.2461L20.5915 20.9963L20.8431 21.0208C23.1547 18.9346 24.4873 15.8652 24.4873 12.2244Z" fill="#4285F4"/>
<path d="M12.7391 23.9176C16.0433 23.9176 18.8171 22.8546 20.8433 21.0209L16.9815 18.0976C15.9481 18.8019 14.5611 19.2935 12.7391 19.2935C9.50291 19.2935 6.75623 17.2074 5.77711 14.324L5.63359 14.3359L1.85604 17.1928L1.80664 17.327C3.81906 21.2335 7.95273 23.9176 12.7391 23.9176Z" fill="#34A853"/>
<path d="M5.77726 14.3239C5.51892 13.5798 5.3694 12.7825 5.3694 11.9587C5.3694 11.1349 5.51892 10.3376 5.76367 9.59355L5.75683 9.43508L1.93194 6.53236L1.8068 6.59052C0.977385 8.21162 0.501465 10.0321 0.501465 11.9587C0.501465 13.8854 0.977385 15.7058 1.8068 17.3269L5.77726 14.3239Z" fill="#FBBC05"/>
<path d="M12.7391 4.62403C15.0371 4.62403 16.5872 5.59401 17.471 6.40461L20.9248 3.10928C18.8036 1.1826 16.0433 0 12.7391 0C7.95273 0 3.81906 2.68406 1.80664 6.59056L5.76351 9.59359C6.75623 6.7102 9.50291 4.62403 12.7391 4.62403Z" fill="#EB4335"/>
</g>
<defs>
<clipPath id="clip0_2_358">
<rect width="24" height="24" fill="white" transform="translate(0.5)"/>
</clipPath>
</defs>
</svg>
