<svg width="16" height="16" viewBox="0 0 16 16" fill="none" xmlns="http://www.w3.org/2000/svg">
<path d="M14.2621 1.73687C12.8321 0.310534 10.5051 0.3102 9.0744 1.73687L5.73773 5.07353C5.62473 5.18653 5.52373 5.30453 5.4294 5.42887C5.30406 5.52387 5.18673 5.62453 5.0744 5.73653L1.7374 9.0742C0.31073 10.5045 0.310731 12.8312 1.73806 14.2622C2.45306 14.9755 3.39206 15.3322 4.33173 15.3322C5.27106 15.3322 6.21073 14.9755 6.92573 14.2619L10.2624 10.9252C10.3754 10.8122 10.4764 10.6942 10.5707 10.5699C10.6961 10.4749 10.8134 10.3742 10.9257 10.2622L14.2627 6.9252C15.6894 5.49487 15.6894 3.16787 14.2621 1.73687ZM5.13373 9.45387C5.29773 9.74987 5.49773 10.0219 5.73773 10.2619C5.9774 10.5019 6.24973 10.7015 6.54573 10.8659L5.03773 12.3739C4.6484 12.7629 4.01506 12.7632 3.62573 12.3739C3.23673 11.9845 3.23673 11.3512 3.62573 10.9619L5.13373 9.45387ZM6.45473 13.7902C5.28406 14.9579 3.3794 14.9579 2.2094 13.7909C1.04173 12.6202 1.04173 10.7155 2.2094 9.5452L4.7344 7.0202C4.6294 7.6072 4.66673 8.2162 4.85173 8.79353L3.15473 10.4905C2.5054 11.1395 2.5054 12.1959 3.15473 12.8452C3.4794 13.1699 3.90573 13.3322 4.33206 13.3322C4.7584 13.3322 5.18473 13.1699 5.5094 12.8452L8.84606 9.50853C8.98973 9.3652 9.10373 9.19887 9.18406 9.01753C9.46973 8.39053 9.33406 7.6412 8.8464 7.15353C8.58606 6.8932 8.25106 6.73687 7.9004 6.68753L8.96073 5.6272C9.27106 5.7742 9.55106 5.9672 9.79206 6.20787C10.0827 6.49887 10.3077 6.84387 10.4607 7.23353C10.8374 8.19687 10.6871 9.30753 10.0661 10.1345C9.98206 10.2485 9.8924 10.3529 9.79206 10.4532L6.45573 13.7895L6.45473 13.7902ZM7.3794 7.37853C7.72673 7.27253 8.11306 7.36353 8.3744 7.6252C8.63573 7.88687 8.72673 8.2712 8.62073 8.62053C8.2734 8.72653 7.8874 8.6352 7.62573 8.37387C7.36506 8.1132 7.2734 7.72787 7.3794 7.37853ZM10.8664 6.5452C10.7024 6.2492 10.5024 5.9772 10.2624 5.7372C10.0227 5.4972 9.7504 5.29753 9.4544 5.1332L10.9624 3.6252C11.3514 3.23587 11.9847 3.23553 12.3744 3.6252C12.7634 4.01453 12.7634 4.64787 12.3744 5.0372L10.8664 6.5452ZM13.7911 6.45387L11.2661 8.97887C11.3711 8.39187 11.3337 7.78287 11.1487 7.20553L12.8457 5.50853C13.4951 4.85953 13.4951 3.8032 12.8457 3.15387C12.1967 2.50487 11.1404 2.50487 10.4911 3.15387L7.1544 6.49053C7.01073 6.63387 6.89673 6.8002 6.8164 6.98153C6.53073 7.60853 6.6664 8.35787 7.15406 8.84553C7.41473 9.1062 7.75106 9.2602 8.1024 9.3092L7.03973 10.3719C6.7294 10.2249 6.4494 10.0319 6.2084 9.7912C5.91773 9.5002 5.69273 9.1552 5.53973 8.76553C5.16306 7.8022 5.3134 6.69153 5.9344 5.86453C6.0184 5.75053 6.10806 5.6462 6.2084 5.54587L9.5454 2.20887C10.7161 1.0412 12.6211 1.04153 13.7907 2.2082C14.9584 3.37887 14.9587 5.28353 13.7911 6.45387Z" fill="#BABABA"/>
</svg>
