<svg width="23" height="16" viewBox="0 0 23 16" fill="none" xmlns="http://www.w3.org/2000/svg">
<path fill-rule="evenodd" clip-rule="evenodd" d="M12.5714 4.57094H1.14286C0.514286 4.57094 0 5.08523 0 5.7138C0 6.34237 0.514286 6.85666 1.14286 6.85666H12.5714C13.2 6.85666 13.7143 6.34237 13.7143 5.7138C13.7143 5.08523 13.2 4.57094 12.5714 4.57094ZM12.5714 -0.000488281H1.14286C0.514286 -0.000488281 0 0.513797 0 1.14237C0 1.77094 0.514286 2.28523 1.14286 2.28523H12.5714C13.2 2.28523 13.7143 1.77094 13.7143 1.14237C13.7143 0.513797 13.2 -0.000488281 12.5714 -0.000488281ZM18.2857 9.14237V5.7138C18.2857 5.08523 17.7714 4.57094 17.1429 4.57094C16.5143 4.57094 16 5.08523 16 5.7138V9.14237H12.5714C11.9429 9.14237 11.4286 9.65666 11.4286 10.2852C11.4286 10.9138 11.9429 11.4281 12.5714 11.4281H16V14.8567C16 15.4852 16.5143 15.9995 17.1429 15.9995C17.7714 15.9995 18.2857 15.4852 18.2857 14.8567V11.4281H21.7143C22.3429 11.4281 22.8571 10.9138 22.8571 10.2852C22.8571 9.65666 22.3429 9.14237 21.7143 9.14237H18.2857ZM1.14286 11.4281H8C8.62857 11.4281 9.14286 10.9138 9.14286 10.2852C9.14286 9.65666 8.62857 9.14237 8 9.14237H1.14286C0.514286 9.14237 0 9.65666 0 10.2852C0 10.9138 0.514286 11.4281 1.14286 11.4281Z" fill="#BABABA"/>
</svg>
