<svg width="17" height="16" viewBox="0 0 17 16" fill="none" xmlns="http://www.w3.org/2000/svg">
<path d="M1.81098 -0.000488281C0.824314 -0.000488281 0.0332031 0.790623 0.0332031 1.77729V14.2217C0.0332031 14.6932 0.220504 15.1454 0.553902 15.4788C0.8873 15.8122 1.33948 15.9995 1.81098 15.9995H14.2554C14.7269 15.9995 15.1791 15.8122 15.5125 15.4788C15.8459 15.1454 16.0332 14.6932 16.0332 14.2217V7.99951H14.2554V14.2217H1.81098V1.77729H8.0332V-0.000488281H1.81098ZM13.171 0.888401C13.0199 0.888401 12.8599 0.950623 12.7443 1.06618L11.6599 2.14173L13.8821 4.36396L14.9665 3.2884C15.1976 3.05729 15.1976 2.66618 14.9665 2.44396L13.5888 1.06618C13.4732 0.950623 13.3221 0.888401 13.171 0.888401ZM11.0288 2.77285L4.47765 9.33284V11.5551H6.69987L13.251 4.99507L11.0288 2.77285Z" fill="#BABABA"/>
</svg>
