<svg width="71" height="71" viewBox="0 0 71 71" fill="none" xmlns="http://www.w3.org/2000/svg">
<path d="M66.4951 28.0729C67.1844 27.9694 67.8135 27.6212 68.2673 27.0922C68.7211 26.5631 68.9693 25.8883 68.9667 25.1913V16.3364C68.9654 15.1765 68.5041 14.0644 67.6839 13.2442C66.8637 12.424 65.7516 11.9627 64.5917 11.9614H6.25844C5.09851 11.9627 3.98645 12.424 3.16625 13.2442C2.34605 14.0644 1.88471 15.1765 1.88344 16.3364V25.1913C1.88083 25.8883 2.12911 26.563 2.58292 27.0921C3.03673 27.6211 3.66575 27.9692 4.35505 28.0728C6.09632 28.3174 7.69059 29.1829 8.84426 30.5099C9.99792 31.8369 10.6333 33.536 10.6334 35.2944C10.6335 37.0528 9.99825 38.752 8.84471 40.0791C7.69117 41.4062 6.09698 42.2718 4.35573 42.5166C3.6663 42.6201 3.03712 42.9682 2.58319 43.4973C2.12926 44.0264 1.88088 44.7012 1.88344 45.3983V54.2531C1.88471 55.413 2.34605 56.5251 3.16625 57.3453C3.98645 58.1655 5.09851 58.6268 6.25844 58.6281H64.5917C65.7516 58.6268 66.8637 58.1655 67.6839 57.3453C68.5041 56.5251 68.9654 55.413 68.9667 54.2531V45.3983C68.9693 44.7013 68.721 44.0266 68.2672 43.4975C67.8134 42.9684 67.1844 42.6202 66.4951 42.5166C64.7537 42.2721 63.1592 41.4066 62.0054 40.0795C60.8517 38.7525 60.2163 37.0532 60.2163 35.2947C60.2163 33.5362 60.8517 31.8369 62.0054 30.5098C63.1592 29.1827 64.7537 28.3173 66.4951 28.0728V28.0729ZM57.3001 35.2948C57.3001 40.3627 61.0805 44.7091 66.0501 45.3983V54.2531C66.0496 54.6397 65.8958 55.0103 65.6224 55.2837C65.349 55.5571 64.9783 55.7109 64.5917 55.7114H25.2167V52.3085C25.213 51.9242 25.0577 51.5569 24.7846 51.2864C24.5115 51.016 24.1427 50.8643 23.7584 50.8643C23.374 50.8643 23.0052 51.016 22.7322 51.2864C22.4591 51.5569 22.3038 51.9242 22.3001 52.3085V55.7116H6.25844C5.87181 55.7111 5.50116 55.5573 5.22777 55.2839C4.95438 55.0105 4.80057 54.6398 4.80007 54.2532L4.75659 45.4064C7.19211 45.0575 9.42077 43.8438 11.0353 41.9873C12.6498 40.1307 13.5425 37.7552 13.5501 35.2948C13.5501 30.2267 9.76966 25.8797 4.80007 25.1913V16.3364C4.8005 15.9498 4.95429 15.5791 5.22769 15.3057C5.5011 15.0323 5.87179 14.8785 6.25844 14.878H22.3001V18.2807C22.2982 18.4734 22.3345 18.6646 22.407 18.8431C22.4794 19.0217 22.5866 19.1841 22.7222 19.3211C22.8578 19.458 23.0192 19.5667 23.197 19.6408C23.3749 19.715 23.5657 19.7532 23.7584 19.7532C23.9511 19.7532 24.1419 19.715 24.3197 19.6408C24.4976 19.5667 24.659 19.458 24.7946 19.3211C24.9302 19.1841 25.0373 19.0217 25.1098 18.8431C25.1822 18.6646 25.2186 18.4734 25.2167 18.2807V14.8782H64.5917C64.9783 14.8786 65.349 15.0324 65.6224 15.3058C65.8958 15.5791 66.0496 15.9498 66.0501 16.3364L66.0936 25.184C63.658 25.5325 61.4292 26.7459 59.8146 28.6024C58.2 30.4589 57.3074 32.8344 57.3001 35.2948Z" fill="#D7282F"/>
<path d="M23.7584 22.7776C23.3716 22.7776 23.0006 22.9312 22.7271 23.2047C22.4536 23.4782 22.3 23.8492 22.3 24.236V27.6386C22.2981 27.8313 22.3345 28.0225 22.4069 28.201C22.4794 28.3796 22.5865 28.542 22.7221 28.679C22.8577 28.8159 23.0191 28.9246 23.1969 28.9988C23.3748 29.0729 23.5656 29.1111 23.7583 29.1111C23.951 29.1111 24.1418 29.0729 24.3197 28.9988C24.4975 28.9246 24.6589 28.8159 24.7945 28.679C24.9301 28.542 25.0372 28.3796 25.1097 28.201C25.1821 28.0225 25.2185 27.8313 25.2166 27.6386V24.236C25.2166 23.8492 25.063 23.4783 24.7895 23.2048C24.516 22.9313 24.1451 22.7776 23.7584 22.7776Z" fill="#D7282F"/>
<path d="M23.7584 32.135C23.3716 32.135 23.0006 32.2887 22.7271 32.5622C22.4536 32.8357 22.3 33.2066 22.3 33.5934V36.996C22.2981 37.1887 22.3345 37.3799 22.4069 37.5585C22.4794 37.737 22.5865 37.8995 22.7221 38.0364C22.8577 38.1733 23.0191 38.282 23.1969 38.3562C23.3748 38.4304 23.5656 38.4685 23.7583 38.4685C23.951 38.4685 24.1418 38.4304 24.3197 38.3562C24.4975 38.282 24.6589 38.1733 24.7945 38.0364C24.9301 37.8995 25.0372 37.737 25.1097 37.5585C25.1821 37.3799 25.2185 37.1887 25.2166 36.996V33.5934C25.2166 33.2066 25.063 32.8357 24.7895 32.5622C24.516 32.2887 24.1451 32.135 23.7584 32.135Z" fill="#D7282F"/>
<path d="M23.7584 41.4929C23.3716 41.4929 23.0006 41.6466 22.7271 41.9201C22.4536 42.1936 22.3 42.5645 22.3 42.9513V46.3544C22.2981 46.5471 22.3345 46.7382 22.4069 46.9168C22.4794 47.0953 22.5865 47.2578 22.7221 47.3947C22.8577 47.5316 23.0191 47.6403 23.1969 47.7145C23.3748 47.7887 23.5656 47.8269 23.7583 47.8269C23.951 47.8269 24.1418 47.7887 24.3197 47.7145C24.4975 47.6403 24.6589 47.5316 24.7945 47.3947C24.9301 47.2578 25.0372 47.0953 25.1097 46.9168C25.1821 46.7382 25.2185 46.5471 25.2166 46.3544V42.9513C25.2166 42.5645 25.063 42.1936 24.7895 41.9201C24.516 41.6466 24.1451 41.493 23.7584 41.4929Z" fill="#D7282F"/>
</svg>
