<svg width="66" height="66" viewBox="0 0 66 66" fill="none" xmlns="http://www.w3.org/2000/svg">
<path d="M62.3782 8.41992H61.1879C61.3506 7.96039 61.4006 7.46852 61.3337 6.98563C61.267 6.50275 61.0852 6.04295 60.8038 5.6449C60.5224 5.24684 60.1495 4.92216 59.7165 4.69811C59.2836 4.47408 58.8032 4.35724 58.3157 4.35742H18.7063C18.5058 4.35742 18.3098 4.41677 18.1429 4.52802L15.096 6.55927C14.957 6.65201 14.8429 6.77766 14.764 6.92507C14.6851 7.07248 14.6438 7.2371 14.6438 7.4043C14.6438 7.57149 14.6851 7.73611 14.764 7.88352C14.8429 8.03094 14.957 8.15658 15.096 8.24932L15.3519 8.41992H12.6125V3.3418C12.6125 3.07244 12.5055 2.81412 12.3151 2.62365C12.1246 2.43318 11.8663 2.32617 11.5969 2.32617H7.53442C6.18809 2.3277 4.89734 2.86321 3.94533 3.8152C2.99334 4.76721 2.45782 6.05796 2.4563 7.4043V58.1855C2.45782 59.5319 2.99334 60.8226 3.94533 61.7746C4.89734 62.7266 6.18809 63.2621 7.53442 63.2637H62.3782C62.6476 63.2637 62.9059 63.1566 63.0963 62.9662C63.2868 62.7758 63.3938 62.5174 63.3938 62.248V9.43554C63.3938 9.16619 63.2868 8.90786 63.0963 8.7174C62.9059 8.52693 62.6476 8.41992 62.3782 8.41992ZM56.2844 6.38867H58.3157C58.5851 6.38867 58.8434 6.49568 59.0338 6.68613C59.2243 6.8766 59.3313 7.13494 59.3313 7.4043C59.3313 7.67365 59.2243 7.93199 59.0338 8.12246C58.8434 8.31291 58.5851 8.41992 58.3157 8.41992H56.2844V6.38867ZM19.0138 6.38867H54.2532V8.41992H19.0138L17.4903 7.4043L19.0138 6.38867ZM4.48755 7.4043C4.48848 6.59649 4.80978 5.82205 5.38098 5.25085C5.95218 4.67965 6.72662 4.35835 7.53442 4.35742H10.5813V53.1074H7.53442C6.43509 53.1063 5.36535 53.4636 4.48755 54.1255V7.4043ZM29.8782 41.9355V57.1699H27.7622C27.5204 55.7507 26.7846 54.4628 25.685 53.5335C24.5855 52.6043 23.1928 52.0936 21.7532 52.0918C21.4838 52.0918 21.2254 52.1988 21.035 52.3892C20.8446 52.5797 20.7375 52.838 20.7375 53.1074V57.1699H18.7063V37.873H20.8222C21.0641 39.2922 21.7999 40.5802 22.8994 41.5095C23.999 42.4387 25.3917 42.9494 26.8313 42.9512C27.1007 42.9512 27.359 42.8441 27.5495 42.6537C27.7399 42.4633 27.8469 42.2049 27.8469 41.9355V37.873H46.1282V40.9199H30.8938C30.6244 40.9199 30.3661 41.0269 30.1756 41.2174C29.9852 41.4078 29.8782 41.6661 29.8782 41.9355ZM21.7532 18.5762H29.8782C30.1476 18.5762 30.4059 18.4691 30.5963 18.2787C30.7868 18.0883 30.8938 17.8299 30.8938 17.5605V14.5137H32.925V27.7168C32.925 27.9862 33.0321 28.2445 33.2225 28.435C33.4129 28.6254 33.6713 28.7324 33.9407 28.7324H37.8746C37.6483 29.6039 37.1394 30.3758 36.4276 30.9272C35.7157 31.4785 34.841 31.7781 33.9407 31.7793C33.6713 31.7793 33.4129 31.8863 33.2225 32.0767C33.0321 32.2672 32.925 32.5255 32.925 32.7949V35.8418H26.8313C26.5619 35.8418 26.3036 35.9488 26.1131 36.1392C25.9227 36.3297 25.8157 36.588 25.8157 36.8574V40.7914C24.9441 40.5651 24.1724 40.0561 23.621 39.3443C23.0697 38.6325 22.7699 37.7578 22.7688 36.8574C22.7688 36.588 22.6618 36.3297 22.4713 36.1392C22.2809 35.9488 22.0226 35.8418 21.7532 35.8418H18.7063V14.5137H20.7375V17.5605C20.7375 17.8299 20.8446 18.0883 21.035 18.2787C21.2254 18.4691 21.4838 18.5762 21.7532 18.5762ZM22.7688 16.5449V14.5137H28.8625V16.5449H22.7688ZM41.05 25.6855H51.2063C51.4757 25.6855 51.734 25.5785 51.9245 25.3881C52.1149 25.1977 52.2219 24.9393 52.2219 24.6699V20.6074H55.2688V27.7168H51.2063C50.9369 27.7168 50.6786 27.8238 50.4881 28.0142C50.2977 28.2047 50.1907 28.463 50.1907 28.7324V35.8418H34.9563V33.7259C36.3755 33.484 37.6634 32.7483 38.5927 31.6487C39.5219 30.5491 40.0325 29.1564 40.0344 27.7168C40.0344 27.4474 39.9274 27.189 39.737 26.9986C39.5465 26.8082 39.2882 26.7012 39.0188 26.7012H34.9563V20.6074H40.0344V24.6699C40.0344 24.9393 40.1414 25.1977 40.3319 25.3881C40.5223 25.5785 40.7807 25.6855 41.05 25.6855ZM42.0657 23.6543V20.6074H50.1907V23.6543H42.0657ZM55.2688 29.748V35.8418H52.2219V29.748H55.2688ZM31.9094 42.9512H48.7545L31.9094 59.7961V42.9512ZM53.2375 61.2324H51.2063V55.1387H53.2375V61.2324ZM57.3 61.2324H55.2688V54.123C55.2688 53.8536 55.1618 53.5953 54.9713 53.4049C54.7809 53.2144 54.5226 53.1074 54.2532 53.1074H50.1907C49.9213 53.1074 49.6629 53.2144 49.4725 53.4049C49.2821 53.5953 49.175 53.8536 49.175 54.123V61.2324H47.1438V53.528L52.2219 48.4499L57.3 53.528V61.2324ZM61.3625 61.2324H59.3313V53.1074C59.3313 52.838 59.2243 52.5798 59.0338 52.3892L52.9401 46.2955C52.7497 46.1051 52.4913 45.998 52.2219 45.998C51.9525 45.998 51.6942 46.1051 51.5037 46.2955L45.41 52.3892C45.2196 52.5798 45.1125 52.838 45.1125 53.1074V61.2324H33.3458L51.9245 42.6537C52.0665 42.5117 52.1633 42.3306 52.2024 42.1337C52.2416 41.9367 52.2214 41.7324 52.1446 41.5469C52.0677 41.3613 51.9375 41.2026 51.7705 41.091C51.6035 40.9795 51.4071 40.9199 51.2063 40.9199H48.1594V37.873H56.2844C56.5538 37.873 56.8122 37.766 57.0026 37.5756C57.193 37.3852 57.3 37.1268 57.3 36.8574V19.5918C57.3 19.3224 57.193 19.064 57.0026 18.8736C56.8122 18.6832 56.5538 18.5762 56.2844 18.5762H34.9563V13.498C34.9563 13.2287 34.8493 12.9704 34.6588 12.7799C34.4684 12.5894 34.2101 12.4824 33.9407 12.4824H17.6907C17.4213 12.4824 17.1629 12.5894 16.9725 12.7799C16.7821 12.9704 16.675 13.2287 16.675 13.498V58.1855C16.675 58.4549 16.7821 58.7133 16.9725 58.9037C17.1629 59.0941 17.4213 59.2012 17.6907 59.2012H21.7532C22.0226 59.2012 22.2809 59.0941 22.4713 58.9037C22.6618 58.7133 22.7688 58.4549 22.7688 58.1855V54.2515C23.6403 54.4779 24.4121 54.9868 24.9634 55.6987C25.5148 56.4105 25.8145 57.2852 25.8157 58.1855C25.8157 58.4549 25.9227 58.7133 26.1131 58.9037C26.3036 59.0941 26.5619 59.2012 26.8313 59.2012H29.8782V61.2324H7.53442C6.72634 61.2324 5.95136 60.9113 5.37995 60.3401C4.80856 59.7686 4.48755 58.9936 4.48755 58.1855C4.48755 57.3775 4.80856 56.6024 5.37995 56.031C5.95136 55.4597 6.72634 55.1387 7.53442 55.1387H11.5969C11.8663 55.1387 12.1246 55.0316 12.3151 54.8412C12.5055 54.6508 12.6125 54.3924 12.6125 54.123V10.4512H61.3625V61.2324Z" fill="#D7282F"/>
<path d="M20.7375 32.7949C20.7375 33.0643 20.8446 33.3227 21.035 33.5131C21.2254 33.7035 21.4838 33.8105 21.7532 33.8105H29.8782C30.1476 33.8105 30.4059 33.7035 30.5963 33.5131C30.7868 33.3227 30.8938 33.0643 30.8938 32.7949V21.623C30.8938 21.3537 30.7868 21.0953 30.5963 20.9049C30.4059 20.7144 30.1476 20.6074 29.8782 20.6074H21.7532C21.4838 20.6074 21.2254 20.7144 21.035 20.9049C20.8446 21.0953 20.7375 21.3537 20.7375 21.623V32.7949ZM22.7688 22.6387H28.8625V31.7793H22.7688V22.6387Z" fill="#D7282F"/>
<path d="M41.9884 45.6093C41.9114 45.4238 41.7813 45.2651 41.6142 45.1536C41.4473 45.042 41.2509 44.9824 41.05 44.9824H34.9563C34.6869 44.9824 34.4286 45.0894 34.2381 45.2799C34.0477 45.4703 33.9407 45.7287 33.9407 45.998V52.0918C33.9407 52.2926 34.0002 52.489 34.1118 52.6561C34.2234 52.823 34.3821 52.9533 34.5677 53.0301C34.7533 53.107 34.9574 53.1271 35.1545 53.0879C35.3515 53.0488 35.5324 52.952 35.6745 52.81L41.7682 46.7162C41.9103 46.5742 42.007 46.3931 42.0461 46.1962C42.0853 45.9992 42.0652 45.7949 41.9884 45.6093ZM35.9719 49.64V47.0137H38.5982L35.9719 49.64Z" fill="#D7282F"/>
</svg>
