<svg width="81" height="81" viewBox="0 0 81 81" fill="none" xmlns="http://www.w3.org/2000/svg">
<path d="M78.136 41.5545L64.3538 33.895C63.8747 33.7233 63.3537 33.7066 62.8647 33.8475C55.0231 37.8079 42.4607 44.0257 39.831 45.095C37.1379 43.9941 24.6468 37.8 16.8607 33.8713C16.6856 33.7763 16.4896 33.7266 16.2904 33.7266C16.0912 33.7266 15.8952 33.7763 15.7201 33.8713L2.69041 41.5703C2.50706 41.679 2.35631 41.835 2.25398 42.0219C2.15165 42.2089 2.1015 42.42 2.10879 42.633C2.11608 42.846 2.18054 43.0532 2.29541 43.2327C2.41029 43.4122 2.57134 43.5576 2.7617 43.6535C8.10823 46.3465 12.2667 48.4059 15.4746 49.9901V61.7366C15.474 61.9504 15.5311 62.1603 15.6398 62.3443C15.7485 62.5283 15.9049 62.6796 16.0924 62.7822L38.4449 75.0594C38.4842 75.2235 38.5589 75.3771 38.6638 75.5093C38.7688 75.6415 38.9014 75.7491 39.0524 75.8246C39.2033 75.9001 39.369 75.9416 39.5377 75.9462C39.7064 75.9509 39.8741 75.9185 40.029 75.8515C40.1787 75.9001 40.3367 75.9181 40.4935 75.9044C40.6503 75.8906 40.8027 75.8454 40.9417 75.7715C41.0807 75.6976 41.2033 75.5965 41.3024 75.4741C41.4014 75.3518 41.4748 75.2107 41.5181 75.0594L63.9657 62.7822C64.152 62.6802 64.3076 62.5302 64.4162 62.3477C64.5249 62.1652 64.5826 61.9569 64.5835 61.7445V50.5921C64.5886 50.5288 64.5886 50.4652 64.5835 50.402C67.9181 48.7624 72.3142 46.5842 78.1122 43.6614C78.3047 43.5639 78.4671 43.4158 78.5818 43.233C78.6966 43.0502 78.7594 42.8396 78.7634 42.6238C78.7675 42.408 78.7127 42.1952 78.605 42.0082C78.4972 41.8212 78.3405 41.6671 78.1518 41.5624L78.136 41.5545ZM16.3538 36.2871C28.7973 42.5525 34.6191 45.3485 37.3993 46.5842L26.8805 52.7861C24.5043 51.8515 13.629 46.4495 5.7716 42.4891L16.3538 36.2871ZM17.8508 51.1624C26.2627 55.2574 26.7934 55.2653 27.0231 55.2653C27.235 55.2646 27.4428 55.2071 27.6251 55.099L38.437 48.7624V72.3267L17.8508 61.0317V51.1624ZM62.2072 61.0396L40.8211 72.7703V48.2158L53.2488 55.1148C53.4257 55.2131 53.6247 55.2649 53.827 55.2653C54.0567 55.2653 54.5478 55.2653 62.2072 51.5505V61.0396ZM53.9538 52.7941L42.5637 46.4574C45.4627 45.1426 51.3637 42.299 63.5459 36.1604L75.0152 42.497C67.1498 46.4891 56.2587 51.8752 53.9538 52.7941Z" fill="#D7282F"/>
<path d="M39.1894 35.986C39.4121 36.2085 39.7141 36.3335 40.029 36.3335C40.3438 36.3335 40.6458 36.2085 40.8686 35.986L46.4131 30.4415C46.623 30.2163 46.7372 29.9184 46.7318 29.6106C46.7264 29.3028 46.6017 29.0091 46.384 28.7914C46.1663 28.5737 45.8726 28.449 45.5648 28.4436C45.257 28.4382 44.9591 28.5524 44.7339 28.7623L41.6131 31.8831V7.81971C41.6131 7.5046 41.4879 7.2024 41.2651 6.97958C41.0423 6.75677 40.7401 6.63159 40.425 6.63159C40.1099 6.63159 39.8077 6.75677 39.5849 6.97958C39.3621 7.2024 39.2369 7.5046 39.2369 7.81971V32.6752L35.324 28.7623C35.0988 28.5524 34.8009 28.4382 34.4931 28.4436C34.1853 28.449 33.8916 28.5737 33.6739 28.7914C33.4562 29.0091 33.3315 29.3028 33.3261 29.6106C33.3207 29.9184 33.4349 30.2163 33.6448 30.4415L39.1894 35.986Z" fill="#D7282F"/>
<path d="M21.7637 29.6493C21.9865 29.8718 22.2885 29.9967 22.6033 29.9967C22.9182 29.9967 23.2201 29.8718 23.4429 29.6493L27.8627 25.2295C28.0726 25.0042 28.1868 24.7063 28.1814 24.3985C28.176 24.0907 28.0513 23.797 27.8336 23.5794C27.6159 23.3617 27.3222 23.237 27.0144 23.2316C26.7066 23.2261 26.4087 23.3404 26.1835 23.5502L24.1875 25.5463V7.02747C24.1875 6.71237 24.0623 6.41016 23.8395 6.18735C23.6167 5.96453 23.3145 5.83936 22.9993 5.83936C22.6842 5.83936 22.382 5.96453 22.1592 6.18735C21.9364 6.41016 21.8112 6.71237 21.8112 7.02747V26.3384L19.0231 23.5502C18.7979 23.3404 18.5 23.2261 18.1922 23.2316C17.8844 23.237 17.5907 23.3617 17.373 23.5794C17.1553 23.797 17.0306 24.0907 17.0252 24.3985C17.0198 24.7063 17.134 25.0042 17.3439 25.2295L21.7637 29.6493Z" fill="#D7282F"/>
<path d="M56.6151 28.8573C56.8379 29.0798 57.1399 29.2047 57.4547 29.2047C57.7696 29.2047 58.0716 29.0798 58.2944 28.8573L62.7142 24.4375C62.924 24.2122 63.0383 23.9143 63.0328 23.6065C63.0274 23.2987 62.9027 23.0051 62.685 22.7874C62.4674 22.5697 62.1737 22.445 61.8659 22.4396C61.5581 22.4341 61.2602 22.5484 61.0349 22.7583L59.0389 24.7543V6.23548C59.0389 5.92037 58.9137 5.61817 58.6909 5.39536C58.4681 5.17254 58.1659 5.04736 57.8508 5.04736C57.5357 5.04736 57.2335 5.17254 57.0107 5.39536C56.7878 5.61817 56.6627 5.92037 56.6627 6.23548V25.5464L53.8746 22.7583C53.6493 22.5484 53.3514 22.4341 53.0436 22.4396C52.7358 22.445 52.4421 22.5697 52.2245 22.7874C52.0068 23.0051 51.8821 23.2987 51.8766 23.6065C51.8712 23.9143 51.9855 24.2122 52.1953 24.4375L56.6151 28.8573Z" fill="#D7282F"/>
</svg>
