<svg width="44" height="32" viewBox="0 0 44 32" fill="none" xmlns="http://www.w3.org/2000/svg">
<path opacity="0.3" d="M16.2493 12.1667C18.3664 12.1667 20.0827 10.4504 20.0827 8.33333C20.0827 6.21624 18.3664 4.5 16.2493 4.5C14.1323 4.5 12.416 6.21624 12.416 8.33333C12.416 10.4504 14.1323 12.1667 16.2493 12.1667Z" fill="#D7282F"/>
<path opacity="0.3" d="M16.25 21.75C11.075 21.75 5.13333 24.2225 4.75 25.6025V27.5H27.75V25.5833C27.3667 24.2225 21.425 21.75 16.25 21.75Z" fill="#D7282F"/>
<path d="M30.9492 18.166C33.5751 19.9485 35.4151 22.3635 35.4151 25.5835V31.3335H43.0817V25.5835C43.0817 21.4052 36.2392 18.9327 30.9492 18.166Z" fill="#D7282F"/>
<path d="M27.7484 16.0003C31.9842 16.0003 35.4151 12.5695 35.4151 8.33366C35.4151 4.09783 31.9842 0.666992 27.7484 0.666992C26.8476 0.666992 26.0042 0.858658 25.1992 1.12699C26.7901 3.10116 27.7484 5.61199 27.7484 8.33366C27.7484 11.0553 26.7901 13.5662 25.1992 15.5403C26.0042 15.8087 26.8476 16.0003 27.7484 16.0003Z" fill="#D7282F"/>
<path d="M16.2487 16.0003C20.4845 16.0003 23.9154 12.5695 23.9154 8.33366C23.9154 4.09783 20.4845 0.666992 16.2487 0.666992C12.0129 0.666992 8.58203 4.09783 8.58203 8.33366C8.58203 12.5695 12.0129 16.0003 16.2487 16.0003ZM16.2487 4.50033C18.357 4.50033 20.082 6.22533 20.082 8.33366C20.082 10.442 18.357 12.167 16.2487 12.167C14.1404 12.167 12.4154 10.442 12.4154 8.33366C12.4154 6.22533 14.1404 4.50033 16.2487 4.50033Z" fill="#D7282F"/>
<path d="M16.2493 17.917C11.1318 17.917 0.916016 20.4853 0.916016 25.5837V31.3337H31.5827V25.5837C31.5827 20.4853 21.3668 17.917 16.2493 17.917ZM27.7493 27.5003H4.74935V25.6028C5.13268 24.2228 11.0743 21.7503 16.2493 21.7503C21.4243 21.7503 27.366 24.2228 27.7493 25.5837V27.5003Z" fill="#D7282F"/>
</svg>
