<svg width="125" height="128" viewBox="0 0 125 128" fill="none" xmlns="http://www.w3.org/2000/svg">
<path fill-rule="evenodd" clip-rule="evenodd" d="M82.6511 43.776C83.0059 43.7057 83.3577 43.6196 83.7052 43.5181L83.7355 43.5101C83.8627 43.4765 83.9897 43.443 84.1168 43.4105C85.6205 43.0252 87.2329 42.6078 88.8363 42.1622C89.7378 41.9118 90.3594 42.0075 90.9842 42.4924C91.41 42.8234 91.9436 43.0094 92.4597 43.1894L92.4598 43.1894L92.4632 43.1906C92.5768 43.23 92.6898 43.2699 92.8008 43.31C96.1064 44.5182 99.5248 44.6593 102.73 44.6286C103.111 44.6523 103.493 44.6644 103.877 44.6642C107.693 44.6642 111.605 43.4937 115.26 41.248C119.402 38.7036 122.2 35.0145 123.575 30.2831C124.694 26.4331 124.752 22.1909 123.752 17.3144C122.533 11.3648 119.293 6.77483 114.122 3.66992C111.637 2.18139 108.937 1.0862 106.117 0.423175C104.189 -0.0188081 102.199 -0.115546 100.237 0.137548C97.843 0.416467 95.6141 1.13074 93.0042 2.11758C87.6798 4.13061 83.93 8.03248 81.54 14.0464C79.5251 19.1172 79.6122 24.724 81.8151 31.6907C82.2374 33.0265 82.29 34.0324 81.9906 35.0544C81.6043 36.3723 81.233 37.7169 80.8732 39.0202L80.8722 39.0238L80.872 39.0246L80.8483 39.1106C80.6741 39.7425 80.499 40.3744 80.3231 41.006C80.2956 41.1025 80.2653 41.1988 80.2343 41.2952C79.6358 41.0279 78.9695 40.8789 78.2672 40.8789C75.6665 40.8789 73.5621 42.9268 73.5621 45.4583C73.5621 46.2781 73.7977 47.0382 74.1871 47.7041L63.9604 57.9717C63.0401 57.3215 61.9847 56.8629 60.832 56.6556V52.9462C62.7386 52.362 64.1331 50.6502 64.1331 48.5992C64.1331 46.0677 62.0256 44.0198 59.4218 44.0198C56.8211 44.0198 54.7167 46.0677 54.7167 48.5992C54.7167 50.6565 56.1144 52.3777 58.0398 52.9557V56.6525C56.8965 56.8535 55.8411 57.2964 54.9271 57.934L44.6878 47.6601C45.0584 47.0037 45.2877 46.2624 45.2877 45.4615C45.2877 44.2006 44.7649 43.0597 43.9184 42.232C51.5842 33.5194 52.2959 20.331 44.974 10.7646C36.6418 -0.12186 21.0621 -2.19255 10.1755 6.13975C-0.710928 14.472 -2.78154 30.0518 5.5507 40.9382C12.9692 50.6308 26.1308 53.334 36.6124 47.9314C37.4484 49.2007 38.9106 50.0409 40.5764 50.0409C41.3113 50.0409 42.0055 49.8619 42.6242 49.5698L52.9421 59.9253C52.3265 60.8205 51.9056 61.8507 51.7077 62.9626H48.1962C47.6026 61.0937 45.8311 59.7306 43.7141 59.7306C41.1135 59.7306 39.0091 61.7785 39.0091 64.31C39.0091 66.8416 41.1135 68.8895 43.7141 68.8895C45.7871 68.8895 47.5303 67.5828 48.1554 65.7737H51.714C51.9276 66.9327 52.4081 67.9943 53.0772 68.9146L42.8567 79.1728C42.1782 78.8053 41.4087 78.5791 40.5732 78.5791C38.0615 78.5791 36.0127 80.4893 35.8755 82.9006C32.0649 79.5011 27.0428 77.4324 21.547 77.4324C9.66694 77.4324 0 87.0993 0 98.9794C0 110.859 9.66694 120.526 21.547 120.526C33.4271 120.526 43.0941 110.859 43.0941 98.9794C43.0941 94.8434 41.9224 90.9757 39.8935 87.6907C40.1154 87.7219 40.3424 87.738 40.5732 87.738C43.177 87.738 45.2846 85.6901 45.2846 83.1586C45.2846 82.4487 45.1055 81.786 44.8134 81.1924L55.0999 70.8619C55.9699 71.4399 56.9656 71.8325 58.0366 72.0209V75.6612C56.1144 76.2392 54.7136 77.9572 54.7136 80.0177C54.7136 82.5492 56.818 84.5971 59.4186 84.5971C62.0224 84.5971 64.13 82.5492 64.13 80.0177C64.13 77.9698 62.7386 76.2549 60.8289 75.6707V72.0178C61.9094 71.8231 62.9113 71.421 63.7876 70.8337L74.0552 81.139C73.7443 81.7483 73.559 82.4299 73.559 83.1586C73.559 85.6901 75.6634 87.738 78.264 87.738C78.3853 87.738 78.5055 87.7336 78.6244 87.7248C77.0504 89.7858 76.1133 92.3562 76.1133 95.1356V114.823C76.1133 121.563 81.6235 127.073 88.3633 127.073H108.051C114.791 127.073 120.301 121.563 120.301 114.823V95.1356C120.301 88.3958 114.791 82.8856 108.051 82.8856H88.3633C86.3843 82.8856 84.5113 83.3607 82.8527 84.2025C82.9329 83.8672 82.9754 83.5178 82.9754 83.1586C82.9754 80.627 80.871 78.5666 78.2672 78.5666C77.4568 78.5666 76.703 78.7833 76.0371 79.1382L65.8009 68.8643C66.4511 67.9535 66.9128 66.9075 67.1264 65.7674H70.685C71.3164 67.5766 73.0533 68.8832 75.1263 68.8832C77.7301 68.8832 79.8376 66.8353 79.8376 64.3037C79.8376 61.7722 77.7301 59.7243 75.1263 59.7243C73.0093 59.7243 71.2441 61.0906 70.6473 62.9563H67.1327C66.9379 61.8633 66.5328 60.8456 65.9329 59.9599L76.2664 49.5886C76.8757 49.8682 77.5479 50.0378 78.2672 50.0378C80.871 50.0378 82.9785 47.9899 82.9785 45.4583C82.9785 44.8642 82.8624 44.2967 82.6511 43.776ZM36.0061 44.3676C36.4808 42.4783 38.1581 41.0511 40.2053 40.896L31.6094 29.6652C31.2738 29.2266 31.3572 28.599 31.7957 28.2633L35.5221 25.4112L33.1474 21.0757L28.826 24.3832C28.3874 24.7188 27.7598 24.6354 27.4241 24.1969L24.7081 20.6483C24.0473 19.7848 23.5303 18.674 23.6042 17.4373C23.6803 16.1649 24.3686 14.9638 25.7161 13.9325L27.3075 12.7145L24.8758 9.53746C24.6732 9.65296 24.4366 9.79021 24.1763 9.94569C23.3226 10.4554 22.2291 11.1514 21.2364 11.9111C19.2363 13.4419 18.1319 15.2437 17.8827 17.1251C17.6338 19.005 18.2176 21.1261 19.9107 23.3382L23.1006 27.506C23.4363 27.9446 23.3528 28.5722 22.9143 28.9079L18.9051 31.9764L21.8748 35.8565L25.884 32.788C26.3226 32.4523 26.9502 32.5357 27.2859 32.9743L36.0061 44.3676ZM21.547 78.8702C27.6133 78.8702 33.0607 81.5699 36.7507 85.8311C36.8658 85.9869 36.9908 86.1353 37.1246 86.2756C39.9561 89.7412 41.6562 94.1654 41.6562 98.9794C41.6562 110.068 32.6357 119.089 21.547 119.089C10.4584 119.089 1.43781 110.068 1.43781 98.9794C1.43781 87.8908 10.4584 78.8702 21.547 78.8702ZM82.8309 25.1764V25.1764C83.1293 27.6006 83.4379 30.1075 84.2886 32.4128C84.7887 33.7681 84.6533 34.7933 84.2962 35.914C83.9268 37.0741 83.6103 38.2675 83.2754 39.5312C83.1459 40.02 83.0127 40.5226 82.871 41.044L83.3698 40.9188C83.8122 40.8073 84.177 40.7155 84.5419 40.6265C85.0773 40.4974 85.6127 40.3696 86.1484 40.2427L86.1842 40.2342L86.1843 40.2341L86.1849 40.234L86.1856 40.2338L86.1865 40.2336C87.3577 39.9558 88.5677 39.6687 89.7478 39.3526C90.0273 39.2757 90.3158 39.2359 90.6057 39.2344C91.2259 39.2448 91.8311 39.4273 92.3538 39.7614C93.8418 40.6253 95.5022 41.1501 97.2165 41.2983C99.075 41.4881 101.09 41.5964 103.374 41.63C107.111 41.7051 110.79 40.6961 113.966 38.7256C117.819 36.3614 120.212 33.101 121.282 28.7585C122.163 25.1826 121.851 21.7197 121.43 18.8045C121.131 16.5628 120.434 14.3928 119.37 12.3973C117.696 9.30347 115.224 6.9254 111.813 5.12765C107.606 2.91042 103.963 2.09097 100.351 2.54901C97.9724 2.85062 95.7292 3.6639 93.8484 4.41974C89.0251 6.35917 85.6912 9.9605 83.6568 15.4305C82.6392 18.1659 82.3259 21.1591 82.7255 24.3266C82.7608 24.6097 82.7959 24.8925 82.8308 25.1761L82.8309 25.1764ZM89.1696 18.1118C88.7412 17.3938 88.3682 16.6441 88.0539 15.8694L88.0055 15.7615C87.3531 14.2649 87.4655 12.7486 88.3398 11.2547C89.5956 9.10982 91.6318 7.89669 93.4583 6.99233C94.0026 6.72309 94.5141 6.81514 94.9794 7.2651C95.1936 7.47294 95.4424 7.716 95.6696 7.9724C96.3804 8.77468 97.0907 9.57735 97.8002 10.3805C98.4186 11.0815 99.0377 11.7817 99.6576 12.4811C100.213 13.108 100.688 13.8403 100.397 14.9447C100.387 14.9833 100.363 15.0169 100.329 15.039C98.0001 16.5846 97.909 16.9427 99.2478 19.2962C99.8972 20.3922 100.601 21.4548 101.358 22.4797L101.58 22.7921C101.895 23.2155 102.265 23.595 102.681 23.9203C103.948 24.9549 104.155 24.9598 105.444 23.9815C105.574 23.8828 105.701 23.7799 105.828 23.6769L105.839 23.6685C106.001 23.5373 106.168 23.4021 106.341 23.2752C107.706 22.2756 108.536 22.2915 109.753 23.3407C111.807 25.1116 113.988 27.0268 116.022 29.0329C116.672 29.6742 116.987 30.3791 116.933 31.0705C116.878 31.7551 116.477 32.3836 115.771 32.8878C114.073 34.1006 112.202 35.3155 110.027 35.9863C109.301 36.2167 108.545 36.3368 107.784 36.3424C106.307 36.3356 104.877 35.8316 103.722 34.9121C102.326 33.87 101.003 32.7345 99.7606 31.5138C95.9215 27.6613 92.3586 23.1521 89.1696 18.1118ZM96.8868 15.0053C97.1167 14.7928 97.3726 14.6103 97.6484 14.4624C97.7339 14.4121 97.8215 14.3594 97.91 14.3042L93.7829 9.16133C93.4908 9.42522 93.2074 9.67376 92.9318 9.91539L92.9316 9.91557L92.9306 9.91637L92.9295 9.91733L92.9286 9.91819L92.911 9.93354C92.254 10.4877 91.6272 11.0768 91.0335 11.6984C90.0564 12.7635 89.9056 13.9971 90.5978 15.2655C90.6932 15.44 90.7859 15.6162 90.8785 15.7924L90.8832 15.8013C91.1119 16.2356 91.3484 16.6846 91.6202 17.0952C94.2871 21.1224 96.989 24.5256 99.8805 27.4996C101.252 28.9096 102.767 30.2329 104.233 31.5116C104.578 31.8126 104.922 32.114 105.266 32.4159C105.675 32.7831 106.166 33.0459 106.698 33.183C107.23 33.3195 107.788 33.3263 108.323 33.2023C110.028 32.8513 111.619 32.042 113.462 30.5844L108.592 25.3707C108.379 25.5324 108.174 25.69 107.975 25.8438L107.969 25.8484C107.473 26.2296 107.005 26.5899 106.519 26.9204C104.933 27.9993 103.341 28.0058 101.787 26.9398C99.0187 25.0395 97.2414 22.2387 96.024 17.8578C95.7556 16.8918 96.0777 15.8253 96.8868 15.0053ZM78.1133 95.1356C78.1133 89.5004 82.7281 84.8856 88.3633 84.8856H108.051C113.686 84.8856 118.301 89.5004 118.301 95.1356V114.823C118.301 120.458 113.686 125.073 108.051 125.073H88.3633C82.7281 125.073 78.1133 120.458 78.1133 114.823V95.1356ZM85.5508 99.7606C84.9985 99.7606 84.5508 100.208 84.5508 100.761V117.636C84.5508 118.188 84.9985 118.636 85.5508 118.636H91.1758C91.7281 118.636 92.1758 118.188 92.1758 117.636V100.761C92.1758 100.208 91.7281 99.7606 91.1758 99.7606H85.5508ZM86.5508 116.636V101.761H90.1758V116.636H86.5508ZM94.3945 100.761C94.3945 100.208 94.8422 99.7606 95.3945 99.7606H101.02C101.397 99.7606 101.725 99.9694 101.895 100.278C102.724 99.945 103.628 99.7606 104.535 99.7606C108.603 99.7606 111.863 103.021 111.863 107.089V117.636C111.863 118.188 111.416 118.636 110.863 118.636H105.238C104.686 118.636 104.238 118.188 104.238 117.636V108.495C104.238 107.922 103.702 107.386 103.129 107.386C102.556 107.386 102.02 107.922 102.02 108.495V117.636C102.02 118.188 101.572 118.636 101.02 118.636H95.3945C94.8422 118.636 94.3945 118.188 94.3945 117.636V100.761ZM100.02 101.761H96.3945V116.636H100.02V108.495C100.02 106.818 101.452 105.386 103.129 105.386C104.806 105.386 106.238 106.818 106.238 108.495V116.636H109.863V107.089C109.863 104.125 107.498 101.761 104.535 101.761C103.482 101.761 102.419 102.115 101.601 102.699C101.296 102.917 100.895 102.946 100.562 102.775C100.229 102.603 100.02 102.26 100.02 101.886V101.761ZM86.5508 93.7294C86.5508 92.7284 87.3623 91.9169 88.3633 91.9169C89.3643 91.9169 90.1758 92.7284 90.1758 93.7294C90.1758 94.7304 89.3643 95.5419 88.3633 95.5419C87.3623 95.5419 86.5508 94.7304 86.5508 93.7294ZM88.3633 89.9169C86.2577 89.9169 84.5508 91.6238 84.5508 93.7294C84.5508 95.835 86.2577 97.5419 88.3633 97.5419C90.4689 97.5419 92.1758 95.835 92.1758 93.7294C92.1758 91.6238 90.4689 89.9169 88.3633 89.9169ZM33.3217 92.3911C33.3373 92.3843 33.3528 92.3776 33.368 92.3708C33.6422 92.2512 33.962 92.3224 34.1541 92.5509C34.3463 92.7806 34.3651 93.1085 34.1985 93.3571C33.6247 94.2158 32.9273 94.9669 32.1197 95.5931C32.121 95.6737 32.121 95.7544 32.121 95.835C32.121 102.335 27.176 109.056 18.8999 109.056C16.3709 109.056 13.9078 108.335 11.7753 106.968C11.5106 106.799 11.3991 106.471 11.5039 106.176C11.61 105.882 11.9124 105.698 12.2134 105.734C13.8084 105.917 15.4706 105.635 16.899 104.907C15.4908 104.362 14.3647 103.209 13.8863 101.718C13.8151 101.492 13.8662 101.245 14.0234 101.068C14.0328 101.057 14.0422 101.047 14.0516 101.038C12.8758 100.093 12.1408 98.6676 12.1408 97.1129C12.1408 96.9073 12.2362 96.6842 12.3948 96.5593C12.552 96.437 12.7509 96.3631 12.9484 96.4034C12.5695 95.6751 12.3679 94.8379 12.3679 93.9417C12.3679 93.0413 12.6071 92.1572 13.0559 91.3858C13.1674 91.195 13.3636 91.0714 13.584 91.0539C13.8057 91.0297 14.018 91.1292 14.1578 91.2998C16.1076 93.6917 18.912 95.229 21.9475 95.5931C21.9421 95.5044 21.9408 95.4171 21.9408 95.3284C21.9408 92.5267 24.2211 90.2477 27.0242 90.2477C28.294 90.2477 29.5236 90.7287 30.4548 91.578C31.2476 91.3858 32.0014 91.0795 32.7029 90.6629C32.9421 90.5205 33.2444 90.542 33.4634 90.7153C33.6825 90.8886 33.7698 91.1789 33.6852 91.445C33.5763 91.7863 33.4325 92.1128 33.2565 92.4192C33.2783 92.4098 33.3002 92.4005 33.3217 92.3911ZM30.7652 95.2975C30.7544 95.0691 30.8593 94.8514 31.0447 94.7183C31.2342 94.5826 31.4169 94.4402 31.5956 94.2883C31.4613 94.3098 31.3255 94.3287 31.1898 94.3448C30.8821 94.3824 30.5784 94.1943 30.4749 93.8946C30.3728 93.595 30.4924 93.2644 30.7652 93.1018C30.9385 92.997 31.1038 92.8787 31.257 92.7497C30.9681 92.8357 30.6752 92.9083 30.3782 92.9674C30.1498 93.0118 29.9159 92.9365 29.7574 92.7686C29.0533 92.0174 28.0589 91.5874 27.0282 91.5874C24.9669 91.5874 23.2886 93.2631 23.2886 95.3244C23.2886 95.6133 23.3208 95.8995 23.3853 96.1777C23.4323 96.3832 23.3813 96.5996 23.2456 96.7608C23.1112 96.9221 22.9056 97.0242 22.6973 97.0014C19.3379 96.8321 16.168 95.3754 13.8447 92.9634C13.76 93.2792 13.7157 93.6071 13.7157 93.939C13.7157 95.2518 14.2868 96.3859 15.2825 97.0511C15.5311 97.2177 15.6413 97.5281 15.5486 97.8143C15.4558 98.1006 15.1978 98.2833 14.8874 98.282C14.3821 98.2673 14.1148 98.1714 13.78 98.0513L13.7748 98.0495L13.7445 98.0387L13.6877 98.0188C13.6617 98.0097 13.6348 98.0003 13.6068 97.9904C13.9723 99.3731 15.1293 100.488 16.5792 100.78C16.8843 100.842 17.1073 101.105 17.1181 101.416C17.1288 101.727 16.9246 102.005 16.6236 102.087C16.2742 102.182 15.9571 102.237 15.6265 102.257C16.2984 103.25 17.4244 103.883 18.6714 103.906C18.9563 103.911 19.2063 104.094 19.2963 104.364C19.3863 104.633 19.2976 104.931 19.0732 105.106C17.8182 106.089 16.3763 106.729 14.8377 106.995C16.1331 107.468 17.5051 107.712 18.8999 107.712C26.3348 107.712 30.7773 101.674 30.7773 95.835C30.7773 95.6563 30.7733 95.4762 30.7652 95.2975ZM24.6806 7.36031L25.1462 8.24534C24.6806 7.36031 24.6805 7.36035 24.6805 7.3604L24.6802 7.36051L24.6796 7.36083L24.6777 7.36183L24.6713 7.36523L24.6481 7.37755C24.6281 7.3882 24.5992 7.40367 24.562 7.42372C24.4877 7.46381 24.3804 7.52226 24.2457 7.59711C23.9764 7.74675 23.5966 7.96241 23.1509 8.22853C22.2632 8.75858 21.098 9.49847 20.0209 10.3229C17.6999 12.0994 16.2339 14.3415 15.9 16.8625C15.566 19.3849 16.3868 22.0247 18.3225 24.5538L20.9046 27.9275L16.8954 30.996C16.4569 31.3317 16.3734 31.9593 16.7091 32.3979L20.8944 37.8662C21.2301 38.3047 21.8577 38.3882 22.2963 38.0525L26.3055 34.984L35.0862 46.4565C25.5547 51.013 13.8154 48.4459 7.1389 39.7227C-0.521996 29.7133 1.38178 15.3888 11.3911 7.72795C21.4005 0.0670012 35.7249 1.97084 43.3858 11.9802C50.0623 20.7034 49.474 32.7057 42.5862 40.7162L33.8054 29.2437L37.4193 26.4777C37.8114 26.1776 37.9258 25.6363 37.6886 25.2032L34.3419 19.0931C34.2018 18.8373 33.9569 18.6554 33.6715 18.5951C33.3861 18.5348 33.0887 18.6021 32.857 18.7794L28.4045 22.1872L26.2964 19.4327C25.8121 18.8001 25.565 18.1533 25.6006 17.5567C25.6342 16.9958 25.9291 16.288 26.9316 15.5207L29.3171 13.6949C29.7557 13.3593 29.8391 12.7316 29.5035 12.2931L25.9403 7.63756C25.644 7.25054 25.112 7.13343 24.6806 7.36031Z" fill="#9A9A9A"/>
</svg>
