<svg width="67" height="67" viewBox="0 0 67 67" fill="none" xmlns="http://www.w3.org/2000/svg">
<path d="M29.158 2.5918H8.83203C7.32859 2.59452 5.88751 3.19296 4.82442 4.25606C3.76132 5.31915 3.16288 6.76023 3.16016 8.26367V28.5896C3.16016 28.9998 3.32314 29.3934 3.61323 29.6835C3.90332 29.9735 4.29678 30.1365 4.70703 30.1365H25.033C26.5373 30.1365 27.9799 29.5389 29.0436 28.4752C30.1072 27.4115 30.7048 25.9689 30.7048 24.4646V4.13867C30.7048 3.72842 30.5419 3.33496 30.2518 3.04487C29.9617 2.75478 29.5682 2.5918 29.158 2.5918ZM27.6111 24.4646C27.6111 24.8032 27.5444 25.1384 27.4148 25.4512C27.2853 25.764 27.0954 26.0482 26.856 26.2877C26.6166 26.527 26.3323 26.717 26.0196 26.8465C25.7068 26.976 25.3715 27.0427 25.033 27.0427H6.25391V8.26367C6.25391 7.57991 6.52553 6.92415 7.00902 6.44066C7.49251 5.95717 8.14827 5.68555 8.83203 5.68555H27.6111V24.4646Z" fill="#9A9A9A"/>
<path d="M25.033 35.8906H4.70703C4.29678 35.8906 3.90332 36.0537 3.61323 36.3438C3.32314 36.6338 3.16016 37.0273 3.16016 37.4375V57.7634C3.16288 59.2669 3.76132 60.708 4.82442 61.7711C5.88751 62.8342 7.32859 63.4326 8.83203 63.4353H29.158C29.5682 63.4353 29.9617 63.2724 30.2518 62.9823C30.5419 62.6922 30.7048 62.2988 30.7048 61.8884V41.5625C30.7048 40.0582 30.1072 38.6156 29.0436 37.552C27.9799 36.4882 26.5373 35.8906 25.033 35.8906ZM27.6111 60.3416H8.83203C8.14827 60.3416 7.49251 60.0699 7.00902 59.5865C6.52553 59.103 6.25391 58.4473 6.25391 57.7634V38.9844H25.033C25.3715 38.9844 25.7068 39.0511 26.0196 39.1806C26.3323 39.3103 26.6166 39.5001 26.856 39.7396C27.0954 39.9789 27.2853 40.2631 27.4148 40.5759C27.5444 40.8887 27.6111 41.2239 27.6111 41.5625V60.3416Z" fill="#9A9A9A"/>
<path d="M62.4568 35.8906H42.1309C40.6266 35.8906 39.184 36.4882 38.1203 37.552C37.0566 38.6156 36.459 40.0582 36.459 41.5625V61.8884C36.459 62.2988 36.622 62.6922 36.9121 62.9823C37.2022 63.2724 37.5956 63.4353 38.0059 63.4353H58.3318C59.8353 63.4326 61.2763 62.8342 62.3394 61.7711C63.4026 60.708 64.001 59.2669 64.0037 57.7634V37.4375C64.0037 37.0273 63.8407 36.6338 63.5506 36.3438C63.2606 36.0537 62.8671 35.8906 62.4568 35.8906ZM60.9099 57.7634C60.9099 58.4473 60.6383 59.103 60.1548 59.5865C59.6714 60.0699 59.0156 60.3416 58.3318 60.3416H39.5527V41.5625C39.5527 40.8788 39.8244 40.223 40.3079 39.7396C40.7914 39.256 41.4471 38.9844 42.1309 38.9844H60.9099V57.7634Z" fill="#9A9A9A"/>
<path d="M42.1309 22.0412H44.5543V24.4646C44.5543 25.9689 45.1519 27.4115 46.2155 28.4752C47.2793 29.5389 48.7219 30.1365 50.2262 30.1365C51.7305 30.1365 53.1732 29.5389 54.2368 28.4752C55.3005 27.4115 55.898 25.9689 55.898 24.4646V22.0412H58.3318C59.8361 22.0412 61.2788 21.4436 62.3424 20.3799C63.4062 19.3162 64.0037 17.8736 64.0037 16.3693C64.0037 14.865 63.4062 13.4224 62.3424 12.3587C61.2788 11.295 59.8361 10.6974 58.3318 10.6974H55.898V8.26367C55.898 6.7594 55.3005 5.31673 54.2368 4.25305C53.1732 3.18936 51.7305 2.5918 50.2262 2.5918C48.7219 2.5918 47.2793 3.18936 46.2155 4.25305C45.1519 5.31673 44.5543 6.7594 44.5543 8.26367V10.6974H42.1309C40.6266 10.6974 39.184 11.295 38.1203 12.3587C37.0566 13.4224 36.459 14.865 36.459 16.3693C36.459 17.8736 37.0566 19.3162 38.1203 20.3799C39.184 21.4436 40.6266 22.0412 42.1309 22.0412ZM42.1309 13.7912H46.1012C46.5115 13.7912 46.9049 13.6282 47.195 13.3381C47.4851 13.0481 47.648 12.6545 47.648 12.2443V8.26367C47.648 7.57991 47.9197 6.92415 48.4032 6.44066C48.8867 5.95717 49.5425 5.68555 50.2262 5.68555C50.91 5.68555 51.5658 5.95717 52.0492 6.44066C52.5327 6.92415 52.8043 7.57991 52.8043 8.26367V12.2443C52.8043 12.6545 52.9673 13.0481 53.2574 13.3381C53.5475 13.6282 53.9409 13.7912 54.3512 13.7912H58.3318C59.0156 13.7912 59.6714 14.0628 60.1548 14.5463C60.6383 15.0298 60.9099 15.6856 60.9099 16.3693C60.9099 17.053 60.6383 17.7088 60.1548 18.1923C59.6714 18.6758 59.0156 18.9474 58.3318 18.9474H54.3512C53.9409 18.9474 53.5475 19.1104 53.2574 19.4004C52.9673 19.6905 52.8043 20.0841 52.8043 20.4943V24.4646C52.8043 25.1483 52.5327 25.8041 52.0492 26.2877C51.5658 26.7711 50.91 27.0427 50.2262 27.0427C49.5425 27.0427 48.8867 26.7711 48.4032 26.2877C47.9197 25.8041 47.648 25.1483 47.648 24.4646V20.4943C47.648 20.0841 47.4851 19.6905 47.195 19.4004C46.9049 19.1104 46.5115 18.9474 46.1012 18.9474H42.1309C41.4471 18.9474 40.7914 18.6758 40.3079 18.1923C39.8244 17.7088 39.5527 17.053 39.5527 16.3693C39.5527 15.6856 39.8244 15.0298 40.3079 14.5463C40.7914 14.0628 41.4471 13.7912 42.1309 13.7912Z" fill="#9A9A9A"/>
</svg>
