<svg width="16" height="16" viewBox="0 0 16 16" fill="none" xmlns="http://www.w3.org/2000/svg">
<path fill-rule="evenodd" clip-rule="evenodd" d="M8 0.504395C12.1421 0.504395 15.5 3.86226 15.5 8.00439C15.5 12.1465 12.1421 15.5044 8 15.5044C3.85786 15.5044 0.5 12.1465 0.5 8.00439C0.5 3.86226 3.85786 0.504395 8 0.504395ZM8 2.00439C4.68629 2.00439 2 4.69069 2 8.00439C2 11.3181 4.68629 14.0044 8 14.0044C11.3137 14.0044 14 11.3181 14 8.00439C14 4.69069 11.3137 2.00439 8 2.00439ZM8 11.0044C8.41421 11.0044 8.75 11.3402 8.75 11.7544C8.75 12.1686 8.41421 12.5044 8 12.5044C7.58579 12.5044 7.25 12.1686 7.25 11.7544C7.25 11.3402 7.58579 11.0044 8 11.0044ZM8 3.50439C9.65685 3.50439 11 4.84754 11 6.50439C11 7.8505 10.1134 8.98954 8.89235 9.36945L8.75 9.40988V9.50439C8.75 9.91861 8.41421 10.2544 8 10.2544C7.61537 10.2544 7.29837 9.96486 7.25505 9.59186L7.25 9.50439V8.75439C7.25 8.36977 7.53953 8.05276 7.91253 8.00944L8.11195 8.00028C8.88809 7.94302 9.5 7.29517 9.5 6.50439C9.5 5.67597 8.82843 5.00439 8 5.00439C7.17157 5.00439 6.5 5.67597 6.5 6.50439C6.5 6.91861 6.16421 7.25439 5.75 7.25439C5.33579 7.25439 5 6.91861 5 6.50439C5 4.84754 6.34315 3.50439 8 3.50439Z" fill="#DD484E"/>
</svg>
