<svg width="12" height="12" viewBox="0 0 12 12" fill="none" xmlns="http://www.w3.org/2000/svg">
<path d="M7.07035 6L11.9216 1.14911C12.026 1.04456 12.026 0.875166 11.9216 0.770621L11.2297 0.0783768C11.1795 0.0283168 11.1112 0 11.0403 0C10.9693 0 10.9011 0.0283168 10.8509 0.0783768L5.99986 4.9294L1.14877 0.0783768C1.04827 -0.0221225 0.870405 -0.0219961 0.770157 0.0783768L0.0784095 0.770621C-0.0261365 0.875166 -0.0261365 1.04456 0.0784095 1.14911L4.92949 6L0.0784095 10.8509C-0.0261365 10.9554 -0.0261365 11.1248 0.0784095 11.2294L0.770284 11.9216C0.820471 11.9717 0.888609 12 0.959655 12C1.0307 12 1.09871 11.9717 1.1489 11.9216L5.99998 7.0706L10.8511 11.9216C10.9013 11.9717 10.9695 12 11.0404 12C11.1114 12 11.1796 11.9717 11.2298 11.9216L11.9217 11.2294C12.0261 11.1248 12.0261 10.9554 11.9217 10.8509L7.07035 6Z" fill="#D7282F"/>
</svg>
