<svg width="60" height="67" viewBox="0 0 60 67" fill="none" xmlns="http://www.w3.org/2000/svg">
<g clip-path="url(#clip0_1_2)">
<path fill-rule="evenodd" clip-rule="evenodd" d="M41.9268 43.8066C42.2733 43.7981 42.613 43.9038 42.8936 44.1074C43.2695 44.3491 43.6939 44.8218 44.2202 45.1172C44.9614 45.5415 46.3311 44.9614 47.0293 46.0034C47.334 46.4632 47.4931 47.0041 47.4858 47.5557C47.5069 48.1642 47.7342 48.7475 48.1304 49.21C48.9898 50.3486 49.167 51.106 48.7266 51.8955C48.4204 52.4326 47.7866 52.7334 47.6524 53.0718C47.3408 53.7969 47.6846 54.3394 47.2603 55.188C47.1244 55.466 46.9326 55.713 46.6969 55.9135C46.4613 56.1141 46.1868 56.2638 45.8906 56.3535C45.3535 56.52 44.854 56.2783 44.4404 56.4556C43.7153 56.7617 43.1836 57.4707 42.6035 57.6533C42.3881 57.7216 42.1635 57.7561 41.9375 57.7554C41.7116 57.7556 41.487 57.7212 41.2715 57.6533C40.6914 57.4761 40.1597 56.7617 39.4346 56.4556C39.021 56.2837 38.5054 56.52 37.9844 56.3535C37.6881 56.2656 37.4135 56.1164 37.1785 55.9156C36.9435 55.7148 36.7532 55.4669 36.6201 55.188C36.1904 54.3394 36.5342 53.7969 36.2227 53.0718C36.0776 52.728 35.4439 52.4272 35.1484 51.8955C34.7026 51.106 34.8799 50.3486 35.7446 49.21C36.1386 48.7462 36.3656 48.1637 36.3892 47.5557C36.3806 47.0039 36.5398 46.4626 36.8457 46.0034C37.5439 44.9614 38.9189 45.5469 39.6548 45.1172C40.1919 44.8218 40.6055 44.3438 40.9815 44.1074C41.263 43.9059 41.602 43.8004 41.9482 43.8066H41.9268ZM8.39502 66.6606C6.27881 66.6929 4.42041 66.6016 2.9541 65.9141C1.10107 65.0439 0 63.4004 0 60.2852V57.4438H8.11035V7.85791C7.99219 5.00586 8.68506 3.2334 9.95801 2.12695C11.231 1.02051 12.9497 0.708984 14.98 0.666016C15.0767 0.617676 55.1665 0.666016 59.3291 0.666016V59.8286C59.3291 62.2241 58.7383 63.9214 57.5244 65.0547C56.3106 66.188 54.5918 66.666 52.2715 66.666L8.39502 66.6606ZM18.2886 13.2935C17.9852 13.2935 17.6942 13.1729 17.4796 12.9584C17.2651 12.7438 17.1445 12.4528 17.1445 12.1494C17.1445 11.846 17.2651 11.555 17.4796 11.3405C17.6942 11.1259 17.9852 11.0054 18.2886 11.0054H39.1553C39.4587 11.0054 39.7497 11.1259 39.9642 11.3405C40.1788 11.555 40.2993 11.846 40.2993 12.1494C40.2993 12.4528 40.1788 12.7438 39.9642 12.9584C39.7497 13.1729 39.4587 13.2935 39.1553 13.2935H18.2886ZM18.2886 21.0869C17.9852 21.0869 17.6942 20.9664 17.4796 20.7518C17.2651 20.5373 17.1445 20.2463 17.1445 19.9429C17.1445 19.6395 17.2651 19.3485 17.4796 19.1339C17.6942 18.9194 17.9852 18.7988 18.2886 18.7988H48.9575C49.2609 18.7988 49.5519 18.9194 49.7665 19.1339C49.981 19.3485 50.1016 19.6395 50.1016 19.9429C50.1016 20.2463 49.981 20.5373 49.7665 20.7518C49.5519 20.9664 49.2609 21.0869 48.9575 21.0869H18.2886ZM18.2886 44.4512C17.9866 44.4512 17.697 44.3312 17.4834 44.1177C17.2699 43.9041 17.1499 43.6145 17.1499 43.3125C17.1499 43.0105 17.2699 42.7209 17.4834 42.5073C17.697 42.2938 17.9866 42.1738 18.2886 42.1738H28.875C29.177 42.1738 29.4666 42.2938 29.6802 42.5073C29.8937 42.7209 30.0137 43.0105 30.0137 43.3125C30.0137 43.6145 29.8937 43.9041 29.6802 44.1177C29.4666 44.3312 29.177 44.4512 28.875 44.4512H18.2886ZM18.2886 36.6685C17.9852 36.6685 17.6942 36.5479 17.4796 36.3334C17.2651 36.1188 17.1445 35.8278 17.1445 35.5244C17.1445 35.221 17.2651 34.93 17.4796 34.7155C17.6942 34.5009 17.9852 34.3804 18.2886 34.3804H48.9575C49.2609 34.3804 49.5519 34.5009 49.7665 34.7155C49.981 34.93 50.1016 35.221 50.1016 35.5244C50.1016 35.8278 49.981 36.1188 49.7665 36.3334C49.5519 36.5479 49.2609 36.6685 48.9575 36.6685H18.2886ZM18.2886 28.8589C17.9894 28.8589 17.7025 28.7401 17.491 28.5285C17.2795 28.317 17.1606 28.0301 17.1606 27.731C17.1606 27.4318 17.2795 27.1449 17.491 26.9334C17.7025 26.7219 17.9894 26.603 18.2886 26.603H49.1348C49.4339 26.603 49.7208 26.7219 49.9323 26.9334C50.1439 27.1449 50.2627 27.4318 50.2627 27.731C50.2627 28.0301 50.1439 28.317 49.9323 28.5285C49.7208 28.7401 49.4339 28.8589 49.1348 28.8589H18.2886ZM17.7246 52.6636C20.3779 49.1777 22.6392 50.7568 25.7813 52.959L26.2485 53.2866C27.1133 53.8882 28.1177 53.002 29.0684 52.1587C29.5082 51.7493 29.9787 51.374 30.4756 51.0361L31.4531 52.5776C31.04 52.8634 30.6486 53.1793 30.2822 53.523C28.7998 54.8281 27.2476 56.2085 25.2119 54.7852L24.7339 54.4521C22.4189 52.8408 20.7593 51.6753 19.1641 53.77L17.7246 52.6636ZM8.11035 59.748H2.28809V60.2852C2.28809 62.3423 2.90039 63.3682 3.89941 63.8462C4.89844 64.3242 6.37549 64.3833 8.09424 64.3833V59.748H8.11035ZM57.0464 59.8447V2.97559H14.9907C13.4707 2.97559 12.2246 3.18506 11.4512 3.85107C10.6777 4.51709 10.3018 5.71484 10.377 7.8042V64.3726H52.2715C54.001 64.3726 55.231 64.0718 55.9668 63.3789C56.7026 62.686 57.041 61.5527 57.041 59.8286L57.0464 59.8447ZM41.9268 46.5996C42.7535 46.5985 43.5619 46.8427 44.2498 47.3012C44.9377 47.7598 45.4741 48.412 45.7912 49.1755C46.1083 49.9389 46.1918 50.7793 46.0312 51.5902C45.8706 52.4012 45.473 53.1463 44.8888 53.7312C44.3046 54.3162 43.5601 54.7147 42.7493 54.8763C41.9386 55.038 41.0981 54.9556 40.3343 54.6395C39.5704 54.3233 38.9174 53.7877 38.458 53.1004C37.9986 52.4131 37.7534 51.605 37.7534 50.7783C37.7534 49.671 38.1929 48.6089 38.9754 47.8254C39.7579 47.0419 40.8194 46.601 41.9268 46.5996Z" fill="#D7282F"/>
</g>
<defs>
<clipPath id="clip0_1_2">
<rect width="59.3291" height="66" fill="white" transform="translate(0 0.666016)"/>
</clipPath>
</defs>
</svg>
