<svg width="63" height="63" viewBox="0 0 63 63" fill="none" xmlns="http://www.w3.org/2000/svg">
<g clip-path="url(#clip0_248_4220)">
<path d="M61.314 35.667H60.3453V6.60644C60.3453 3.26789 57.6291 0.551758 54.2906 0.551758H8.75953C5.42097 0.551758 2.70484 3.26789 2.70484 6.60644V35.6671H1.73608C1.06728 35.6671 0.525146 36.2093 0.525146 36.8781V38.9367C0.525146 42.2085 3.18691 44.8702 6.45874 44.8702H7.85859C6.8965 46.9185 6.80071 49.2903 7.63529 51.4355L11.6594 61.7798C11.8457 62.2588 12.3033 62.552 12.7882 62.552C12.9342 62.552 13.0827 62.5254 13.2269 62.4693C13.8502 62.2269 14.1589 61.525 13.9164 60.9017L9.89236 50.5574C9.18493 48.739 9.419 46.691 10.5187 45.0791L12.5144 42.1535V44.5009C12.5144 45.1697 13.0565 45.7118 13.7253 45.7118C14.3941 45.7118 14.9363 45.1697 14.9363 44.5009V24.5338C14.9363 23.5959 15.6993 22.833 16.637 22.833C17.5748 22.833 18.3378 23.5959 18.3378 24.5338V40.4829C18.3378 41.1517 18.8799 41.6938 19.5487 41.6938C20.2175 41.6938 20.7597 41.1517 20.7597 40.4829V34.7834C20.7597 33.8455 21.5226 33.0826 22.4604 33.0826C23.3983 33.0826 24.1612 33.8455 24.1612 34.7834V40.4829C24.1612 41.1517 24.7033 41.6938 25.3721 41.6938C26.0409 41.6938 26.5831 41.1517 26.5831 40.4829V34.7834C26.5831 33.8455 27.3461 33.0826 28.2838 33.0826C29.2216 33.0826 29.9846 33.8455 29.9846 34.7834V40.4829C29.9846 41.1517 30.5267 41.6938 31.1956 41.6938C31.8644 41.6938 32.4065 41.1517 32.4065 40.4829V34.7834V34.7661C32.4065 33.8282 33.1694 33.0653 34.1073 33.0653C35.0451 33.0653 35.808 33.8282 35.808 34.7661V45.5796C35.808 49.2046 35.0875 52.7333 33.6663 56.068L31.6218 60.8658C31.3596 61.481 31.6459 62.1923 32.2611 62.4545C32.4159 62.5205 32.5769 62.5518 32.7353 62.5518C33.2059 62.5518 33.6536 62.2755 33.8498 61.8153L35.8944 57.0175C37.444 53.3808 38.2299 49.5326 38.2299 45.5797V44.8702H56.5912C59.8631 44.8702 62.5248 42.2085 62.5248 38.9367V36.8781C62.5248 36.2091 61.9827 35.667 61.314 35.667ZM9.38171 42.4483H6.45874C4.52245 42.4483 2.94702 40.8729 2.94702 38.9365V38.0889H12.3555L9.38171 42.4483ZM12.5146 24.5336V27.1923H11.6654C10.4636 27.1923 9.48573 26.2144 9.48573 25.0126C9.48573 23.8107 10.4636 22.8329 11.6654 22.8329H12.8834C12.6472 23.3518 12.5146 23.9273 12.5146 24.5336ZM20.3912 22.8329H24.7007C25.9025 22.8329 26.8804 23.8107 26.8804 25.0126C26.8804 26.2144 25.9025 27.1923 24.7007 27.1923H20.7599V24.5336C20.7599 23.9273 20.6272 23.3518 20.3912 22.8329ZM34.1074 30.6434C32.9673 30.6434 31.934 31.1088 31.187 31.8592C30.4413 31.1188 29.4152 30.6606 28.284 30.6606C27.1484 30.6606 26.1186 31.1222 25.3723 31.8674C24.626 31.1221 23.5962 30.6606 22.4606 30.6606C21.8542 30.6606 21.2787 30.7932 20.7598 31.0292V29.6141H24.7006C27.2378 29.6141 29.3021 27.5498 29.3021 25.0126C29.3021 22.4753 27.2378 20.411 24.7006 20.411H11.6654C9.12814 20.411 7.06385 22.4753 7.06385 25.0126C7.06385 27.5498 9.12814 29.6141 11.6654 29.6141H12.5146V35.6671H5.12671V6.60644C5.12671 4.60331 6.75639 2.97363 8.75953 2.97363H54.2906C56.2937 2.97363 57.9234 4.60331 57.9234 6.60644V30.3424H47.508C46.8392 30.3424 46.297 30.8845 46.297 31.5533C46.297 32.2221 46.8392 32.7643 47.508 32.7643H57.9234V35.6671H38.23V34.7661C38.2301 32.4927 36.3807 30.6434 34.1074 30.6434ZM60.1031 38.9365C60.1031 40.8729 58.5278 42.4483 56.5913 42.4483H38.23V38.0889H60.1031V38.9365Z" fill="#231F20"/>
<path d="M43.538 30.6966C43.3117 30.4714 43.0004 30.3418 42.6819 30.3418C42.3622 30.3418 42.051 30.4714 41.8258 30.6966C41.5993 30.9218 41.4709 31.2343 41.4709 31.5527C41.4709 31.8724 41.5993 32.1836 41.8258 32.4089C42.051 32.6353 42.3622 32.7637 42.6819 32.7637C43.0004 32.7637 43.3128 32.6353 43.538 32.4089C43.7633 32.1836 43.8928 31.8724 43.8928 31.5527C43.8928 31.2341 43.7633 30.9218 43.538 30.6966Z" fill="#D7282F"/>
<path d="M22.227 14.2269C22.0017 14.0016 21.6894 13.8721 21.3708 13.8721C21.0512 13.8721 20.74 14.0016 20.5147 14.2269C20.2883 14.4521 20.1599 14.7645 20.1599 15.083C20.1599 15.4015 20.2883 15.7139 20.5147 15.9391C20.74 16.1644 21.0524 16.2939 21.3708 16.2939C21.6893 16.2939 22.0005 16.1644 22.227 15.9391C22.4522 15.7139 22.5818 15.4015 22.5818 15.083C22.5818 14.7645 22.4522 14.4521 22.227 14.2269Z" fill="#D7282F"/>
<path d="M16.987 13.8721H8.27319C7.60439 13.8721 7.06226 14.4142 7.06226 15.083C7.06226 15.7518 7.60439 16.2939 8.27319 16.2939H16.987C17.6558 16.2939 18.1979 15.7518 18.1979 15.083C18.1979 14.4142 17.6558 13.8721 16.987 13.8721Z" fill="#D7282F"/>
<path d="M28.0895 7.09082H8.27954C7.61074 7.09082 7.0686 7.63296 7.0686 8.30176C7.0686 8.97056 7.61074 9.5127 8.27954 9.5127H28.0895C28.7583 9.5127 29.3004 8.97056 29.3004 8.30176C29.3004 7.63296 28.7583 7.09082 28.0895 7.09082Z" fill="#D7282F"/>
<path d="M52.3514 15.7577V13.9326C52.3514 12.5972 51.265 11.5107 49.9296 11.5107H45.6711C45.2297 11.5107 44.8169 11.6314 44.4601 11.8384C44.1034 11.6314 43.6906 11.5107 43.2492 11.5107H38.9907C37.6553 11.5107 36.5688 12.5972 36.5688 13.9326V15.712C34.3877 16.2476 32.7644 18.2186 32.7644 20.5625V24.5283C32.7644 25.1971 33.3065 25.7393 33.9753 25.7393H54.7731C55.442 25.7393 55.9841 25.1971 55.9841 24.5283V20.5625C55.9843 18.2805 54.4454 16.3524 52.3514 15.7577ZM45.6711 13.9326H49.9296V15.5674H45.6711V13.9326ZM38.9909 13.9326H43.2494V15.5674H38.9909V13.9326ZM53.5625 23.3174H35.1865V20.5625C35.1865 19.1436 36.3409 17.9893 37.7598 17.9893H37.78H44.4604H50.9894C52.4082 17.9893 53.5626 19.1436 53.5626 20.5625V23.3174H53.5625Z" fill="#D7282F"/>
</g>
<defs>
<clipPath id="clip0_248_4220">
<rect width="62" height="62" fill="white" transform="translate(0.523193 0.551758)"/>
</clipPath>
</defs>
</svg>
