<svg width="77" height="76" viewBox="0 0 77 76" fill="none" xmlns="http://www.w3.org/2000/svg">
<g id="india_flag_round">
<path id="Vector" d="M38.1316 3.32275C22.6592 3.32275 9.44812 13.1665 4.56836 26.7603H71.9329C66.9341 13.1665 53.723 3.32275 38.1316 3.32275Z" fill="#F2B200"/>
<path id="Vector_2" d="M38.1316 73.6353C53.723 73.6353 66.9341 63.9087 71.8138 50.1978H4.56836C9.44812 63.9087 22.6592 73.6353 38.1316 73.6353Z" fill="#83BF4F"/>
<path id="Vector_3" d="M4.56824 26.7603C3.25903 30.3931 2.54492 34.3774 2.54492 38.479C2.54492 42.5806 3.25903 46.5649 4.56824 50.1978H71.9327C73.2419 46.5649 73.9561 42.5806 73.9561 38.479C73.9561 34.3774 73.2419 30.3931 71.9327 26.7603H4.56824Z" fill="white"/>
<path id="Vector_4" d="M38.1318 47.854C43.3904 47.854 47.6533 43.6567 47.6533 38.479C47.6533 33.3013 43.3904 29.104 38.1318 29.104C32.8733 29.104 28.6104 33.3013 28.6104 38.479C28.6104 43.6567 32.8733 47.854 38.1318 47.854Z" fill="#428BC1"/>
<path id="Vector_5" d="M38.1316 46.6821C42.7328 46.6821 46.4629 43.0095 46.4629 38.479C46.4629 33.9485 42.7328 30.2759 38.1316 30.2759C33.5303 30.2759 29.8003 33.9485 29.8003 38.479C29.8003 43.0095 33.5303 46.6821 38.1316 46.6821Z" fill="white"/>
<g id="Group">
<path id="Vector_6" d="M35.037 31.4478C35.3656 31.4478 35.6321 31.1854 35.6321 30.8618C35.6321 30.5382 35.3656 30.2759 35.037 30.2759C34.7083 30.2759 34.4419 30.5382 34.4419 30.8618C34.4419 31.1854 34.7083 31.4478 35.037 31.4478Z" fill="#428BC1"/>
<path id="Vector_7" d="M33.1327 32.5024C33.4614 32.5024 33.7278 32.2401 33.7278 31.9165C33.7278 31.5929 33.4614 31.3306 33.1327 31.3306C32.804 31.3306 32.5376 31.5929 32.5376 31.9165C32.5376 32.2401 32.804 32.5024 33.1327 32.5024Z" fill="#428BC1"/>
<path id="Vector_8" d="M31.5853 34.0259C31.914 34.0259 32.1804 33.7635 32.1804 33.4399C32.1804 33.1163 31.914 32.854 31.5853 32.854C31.2567 32.854 30.9902 33.1163 30.9902 33.4399C30.9902 33.7635 31.2567 34.0259 31.5853 34.0259Z" fill="#428BC1"/>
<path id="Vector_9" d="M30.5145 35.9009C30.8432 35.9009 31.1096 35.6385 31.1096 35.3149C31.1096 34.9913 30.8432 34.729 30.5145 34.729C30.1859 34.729 29.9194 34.9913 29.9194 35.3149C29.9194 35.6385 30.1859 35.9009 30.5145 35.9009Z" fill="#428BC1"/>
<path id="Vector_10" d="M29.9193 38.0103C30.248 38.0103 30.5144 37.7479 30.5144 37.4243C30.5144 37.1007 30.248 36.8384 29.9193 36.8384C29.5907 36.8384 29.3242 37.1007 29.3242 37.4243C29.3242 37.7479 29.5907 38.0103 29.9193 38.0103Z" fill="#428BC1"/>
<path id="Vector_11" d="M29.9193 40.1196C30.248 40.1196 30.5144 39.8573 30.5144 39.5337C30.5144 39.2101 30.248 38.9478 29.9193 38.9478C29.5907 38.9478 29.3242 39.2101 29.3242 39.5337C29.3242 39.8573 29.5907 40.1196 29.9193 40.1196Z" fill="#428BC1"/>
<path id="Vector_12" d="M30.5145 42.229C30.8432 42.229 31.1096 41.9667 31.1096 41.6431C31.1096 41.3195 30.8432 41.0571 30.5145 41.0571C30.1859 41.0571 29.9194 41.3195 29.9194 41.6431C29.9194 41.9667 30.1859 42.229 30.5145 42.229Z" fill="#428BC1"/>
<path id="Vector_13" d="M31.5853 44.104C31.914 44.104 32.1804 43.8417 32.1804 43.5181C32.1804 43.1945 31.914 42.9321 31.5853 42.9321C31.2567 42.9321 30.9902 43.1945 30.9902 43.5181C30.9902 43.8417 31.2567 44.104 31.5853 44.104Z" fill="#428BC1"/>
<path id="Vector_14" d="M33.1327 45.6274C33.4614 45.6274 33.7278 45.3651 33.7278 45.0415C33.7278 44.7179 33.4614 44.4556 33.1327 44.4556C32.804 44.4556 32.5376 44.7179 32.5376 45.0415C32.5376 45.3651 32.804 45.6274 33.1327 45.6274Z" fill="#428BC1"/>
<path id="Vector_15" d="M35.037 46.6821C35.3656 46.6821 35.6321 46.4198 35.6321 46.0962C35.6321 45.7726 35.3656 45.5103 35.037 45.5103C34.7083 45.5103 34.4419 45.7726 34.4419 46.0962C34.4419 46.4198 34.7083 46.6821 35.037 46.6821Z" fill="#428BC1"/>
<path id="Vector_16" d="M37.0604 47.1509C37.3891 47.1509 37.6555 46.8885 37.6555 46.5649C37.6555 46.2413 37.3891 45.979 37.0604 45.979C36.7318 45.979 36.4653 46.2413 36.4653 46.5649C36.4653 46.8885 36.7318 47.1509 37.0604 47.1509Z" fill="#428BC1"/>
<path id="Vector_17" d="M38.7266 46.6821C38.7266 46.3306 38.9646 46.0962 39.2026 45.979C39.5597 45.979 39.7977 46.2134 39.9167 46.4478C39.9167 46.7993 39.6787 47.0337 39.4407 47.1509C38.9646 47.2681 38.7266 47.0337 38.7266 46.6821Z" fill="#428BC1"/>
<path id="Vector_18" d="M41.3451 46.6821C41.6738 46.6821 41.9402 46.4198 41.9402 46.0962C41.9402 45.7726 41.6738 45.5103 41.3451 45.5103C41.0164 45.5103 40.75 45.7726 40.75 46.0962C40.75 46.4198 41.0164 46.6821 41.3451 46.6821Z" fill="#428BC1"/>
<path id="Vector_19" d="M43.2494 45.6274C43.5781 45.6274 43.8445 45.3651 43.8445 45.0415C43.8445 44.7179 43.5781 44.4556 43.2494 44.4556C42.9207 44.4556 42.6543 44.7179 42.6543 45.0415C42.6543 45.3651 42.9207 45.6274 43.2494 45.6274Z" fill="#428BC1"/>
<path id="Vector_20" d="M44.7968 44.104C45.1254 44.104 45.3918 43.8417 45.3918 43.5181C45.3918 43.1945 45.1254 42.9321 44.7968 42.9321C44.4681 42.9321 44.2017 43.1945 44.2017 43.5181C44.2017 43.8417 44.4681 44.104 44.7968 44.104Z" fill="#428BC1"/>
<path id="Vector_21" d="M45.8676 42.229C46.1962 42.229 46.4626 41.9667 46.4626 41.6431C46.4626 41.3195 46.1962 41.0571 45.8676 41.0571C45.5389 41.0571 45.2725 41.3195 45.2725 41.6431C45.2725 41.9667 45.5389 42.229 45.8676 42.229Z" fill="#428BC1"/>
<path id="Vector_22" d="M46.4628 40.1196C46.7914 40.1196 47.0579 39.8573 47.0579 39.5337C47.0579 39.2101 46.7914 38.9478 46.4628 38.9478C46.1341 38.9478 45.8677 39.2101 45.8677 39.5337C45.8677 39.8573 46.1341 40.1196 46.4628 40.1196Z" fill="#428BC1"/>
<path id="Vector_23" d="M46.4631 38.0103C46.1061 38.0103 45.868 37.7759 45.749 37.5415C45.749 37.1899 45.9871 36.9556 46.2251 36.8384C46.5822 36.8384 46.8202 37.0728 46.9392 37.3071C47.0582 37.6587 46.8202 37.8931 46.4631 38.0103Z" fill="#428BC1"/>
<path id="Vector_24" d="M45.8676 35.9009C46.1962 35.9009 46.4626 35.6385 46.4626 35.3149C46.4626 34.9913 46.1962 34.729 45.8676 34.729C45.5389 34.729 45.2725 34.9913 45.2725 35.3149C45.2725 35.6385 45.5389 35.9009 45.8676 35.9009Z" fill="#428BC1"/>
<path id="Vector_25" d="M44.7968 34.0259C45.1254 34.0259 45.3918 33.7635 45.3918 33.4399C45.3918 33.1163 45.1254 32.854 44.7968 32.854C44.4681 32.854 44.2017 33.1163 44.2017 33.4399C44.2017 33.7635 44.4681 34.0259 44.7968 34.0259Z" fill="#428BC1"/>
<path id="Vector_26" d="M43.2494 32.5024C43.5781 32.5024 43.8445 32.2401 43.8445 31.9165C43.8445 31.5929 43.5781 31.3306 43.2494 31.3306C42.9207 31.3306 42.6543 31.5929 42.6543 31.9165C42.6543 32.2401 42.9207 32.5024 43.2494 32.5024Z" fill="#428BC1"/>
<path id="Vector_27" d="M41.9404 31.0962C41.8214 31.4478 41.4643 31.5649 41.1073 31.4478C40.7502 31.3306 40.6312 30.979 40.7502 30.6274C40.8692 30.2759 41.2263 30.1587 41.5833 30.2759C41.9404 30.5103 42.0594 30.8618 41.9404 31.0962Z" fill="#428BC1"/>
<path id="Vector_28" d="M39.7978 30.393C39.7978 30.7446 39.4407 30.979 39.0837 30.8618C38.7266 30.8618 38.4886 30.5102 38.6076 30.1587C38.6076 29.8071 38.9647 29.5727 39.3217 29.6899C39.6788 29.8071 39.9168 30.1587 39.7978 30.393Z" fill="#428BC1"/>
<path id="Vector_29" d="M37.6555 30.2758C37.6555 30.6274 37.4175 30.8618 37.1794 30.979C36.8224 30.979 36.5844 30.7446 36.4653 30.5102C36.4653 30.1587 36.7034 29.9243 36.9414 29.8071C37.2985 29.6899 37.6555 29.9243 37.6555 30.2758Z" fill="#428BC1"/>
<path id="Vector_30" d="M38.1315 40.2368C39.1175 40.2368 39.9167 39.4498 39.9167 38.479C39.9167 37.5082 39.1175 36.7212 38.1315 36.7212C37.1455 36.7212 36.3462 37.5082 36.3462 38.479C36.3462 39.4498 37.1455 40.2368 38.1315 40.2368Z" fill="#428BC1"/>
<path id="Vector_31" d="M38.1316 30.2759L37.8936 35.3149L38.1316 38.479L38.4886 35.3149L38.1316 30.2759Z" fill="#428BC1"/>
<path id="Vector_32" d="M35.9893 30.5103L37.0604 35.5493L38.1316 38.479L37.6555 35.3149L35.9893 30.5103Z" fill="#428BC1"/>
<path id="Vector_33" d="M33.9658 31.3306L36.3462 35.9009L38.1315 38.479L36.8223 35.5493L33.9658 31.3306Z" fill="#428BC1"/>
<path id="Vector_34" d="M32.2998 32.6196L35.7513 36.4868L38.1317 38.479L36.1084 36.0181L32.2998 32.6196Z" fill="#428BC1"/>
<path id="Vector_35" d="M30.9902 34.3774L35.2749 37.1899L38.1313 38.479L35.5129 36.604L30.9902 34.3774Z" fill="#428BC1"/>
<path id="Vector_36" d="M30.1572 36.3696L35.037 37.8931L38.1315 38.479L35.156 37.4243L30.1572 36.3696Z" fill="#428BC1"/>
<path id="Vector_37" d="M29.8003 38.479L35.0371 38.7134L38.1316 38.479L35.0371 38.2446L29.8003 38.479Z" fill="#428BC1"/>
<path id="Vector_38" d="M30.1572 40.5884L35.156 39.5337L38.1315 38.479L35.037 39.0649L30.1572 40.5884Z" fill="#428BC1"/>
<path id="Vector_39" d="M30.9902 42.5806L35.5129 40.354L38.1313 38.479L35.2749 39.7681L30.9902 42.5806Z" fill="#428BC1"/>
<path id="Vector_40" d="M32.2998 44.2212L36.1084 40.9399L38.1317 38.479L35.7513 40.4712L32.2998 44.2212Z" fill="#428BC1"/>
<path id="Vector_41" d="M33.9658 45.6274L36.8223 41.2915L38.1315 38.479L36.3462 41.0571L33.9658 45.6274Z" fill="#428BC1"/>
<path id="Vector_42" d="M35.9893 46.4478L37.6555 41.6431L38.1316 38.479L37.0604 41.4087L35.9893 46.4478Z" fill="#428BC1"/>
<path id="Vector_43" d="M38.1316 46.6821L38.4886 41.6431L38.1316 38.479L37.8936 41.6431L38.1316 46.6821Z" fill="#428BC1"/>
<path id="Vector_44" d="M40.2742 46.4478L39.322 41.4087L38.1318 38.479L38.7269 41.6431L40.2742 46.4478Z" fill="#428BC1"/>
<path id="Vector_45" d="M42.2975 45.6274L40.0361 41.0571L38.1318 38.479L39.5601 41.4087L42.2975 45.6274Z" fill="#428BC1"/>
<path id="Vector_46" d="M44.0828 44.2212L40.6312 40.4712L38.1318 38.479L40.2742 40.9399L44.0828 44.2212Z" fill="#428BC1"/>
<path id="Vector_47" d="M45.392 42.5806L41.1073 39.7681L38.1318 38.479L40.7502 40.354L45.392 42.5806Z" fill="#428BC1"/>
<path id="Vector_48" d="M46.2251 40.5884L41.3453 39.0649L38.1318 38.479L41.2263 39.5337L46.2251 40.5884Z" fill="#428BC1"/>
<path id="Vector_49" d="M46.4631 38.479L41.3453 38.1274L38.1318 38.479L41.3453 38.7134L46.4631 38.479Z" fill="#428BC1"/>
<path id="Vector_50" d="M46.2251 36.3696L41.2263 37.4243L38.1318 38.479L41.3453 37.8931L46.2251 36.3696Z" fill="#428BC1"/>
<path id="Vector_51" d="M45.392 34.3774L40.7502 36.604L38.1318 38.479L41.1073 37.1899L45.392 34.3774Z" fill="#428BC1"/>
<path id="Vector_52" d="M44.0828 32.7368L40.2742 36.0181L38.1318 38.479L40.6312 36.4868L44.0828 32.7368Z" fill="#428BC1"/>
<path id="Vector_53" d="M42.2975 31.3306L39.5601 35.6665L38.1318 38.479L40.0361 35.9009L42.2975 31.3306Z" fill="#428BC1"/>
<path id="Vector_54" d="M40.3932 30.5103L38.7269 35.3149L38.1318 38.479L39.322 35.5493L40.3932 30.5103Z" fill="#428BC1"/>
</g>
</g>
</svg>
