<svg width="16" height="22" viewBox="0 0 16 22" fill="none" xmlns="http://www.w3.org/2000/svg">
<path fill-rule="evenodd" clip-rule="evenodd" d="M2.44748 6.90464L2.16194 9.17264H5.26208L4.97655 6.90464H2.44748ZM4.76443 6.1965C4.77836 6.22864 4.78582 6.26321 4.78639 6.29823C4.78695 6.33326 4.78062 6.36805 4.76774 6.40062C4.75486 6.4332 4.73569 6.46292 4.71133 6.48809C4.68696 6.51325 4.65788 6.53338 4.62574 6.5473C4.5936 6.56123 4.55903 6.56869 4.52401 6.56926C4.48898 6.56983 4.45419 6.56349 4.42161 6.55061C4.38904 6.53773 4.35932 6.51857 4.33415 6.4942C4.30898 6.46984 4.28886 6.44075 4.27493 6.40861C4.20615 6.25516 4.17805 6.08658 4.19335 5.91912C4.21149 5.76825 4.25917 5.62243 4.33367 5.48999C4.35347 5.45272 4.38191 5.42073 4.4166 5.3967C4.4513 5.37267 4.49124 5.35729 4.53309 5.35186C4.57495 5.34643 4.61749 5.3511 4.65717 5.36548C4.69685 5.37986 4.73251 5.40353 4.76117 5.43452C4.93105 5.59332 5.13896 5.70571 5.36488 5.76085C5.46704 5.78706 5.57483 5.78078 5.67326 5.7429C5.75882 5.70278 5.82591 5.63161 5.8609 5.54384C5.92927 5.36969 5.95065 5.18062 5.9229 4.9956C5.91734 4.93265 5.93437 4.86976 5.97096 4.81823C6.00754 4.76669 6.06128 4.72987 6.12255 4.71435C6.18382 4.69884 6.24861 4.70565 6.30531 4.73357C6.36201 4.76149 6.40692 4.80868 6.43198 4.8667C6.51951 5.01974 6.6426 5.14946 6.79085 5.24489C6.9391 5.34031 7.10815 5.39864 7.2837 5.41494C7.45149 5.43902 7.62241 5.42903 7.78625 5.38557C7.92656 5.34921 8.05485 5.27662 8.15827 5.17508C8.32144 5.01192 8.39812 4.73454 8.32144 4.35926C8.31454 4.32497 8.31448 4.28966 8.32125 4.25535C8.32802 4.22104 8.34149 4.1884 8.36089 4.1593C8.38028 4.1302 8.40523 4.10521 8.4343 4.08577C8.46337 4.06632 8.49599 4.0528 8.53029 4.04598C8.55788 4.04196 8.58591 4.04196 8.6135 4.04598C8.80836 4.0658 9.00476 4.02834 9.17865 3.93821C9.35254 3.84808 9.49636 3.70918 9.59249 3.53853C9.65906 3.41039 9.69482 3.26848 9.69692 3.12409C9.69846 2.99301 9.66464 2.86393 9.59902 2.75045C9.46686 2.53017 9.18132 2.38332 8.72445 2.42411C8.66335 2.43073 8.60183 2.41598 8.55037 2.38237C8.49891 2.34876 8.46068 2.29835 8.44218 2.23974C8.40962 2.09938 8.3481 1.96737 8.26156 1.85217C8.17502 1.73697 8.06537 1.64112 7.93963 1.57076C7.82418 1.51665 7.69563 1.49683 7.56924 1.51365C7.43826 1.53125 7.31404 1.58239 7.20865 1.66213C7.10311 1.74691 7.01682 1.85317 6.95549 1.97385C6.89417 2.09454 6.85921 2.22688 6.85295 2.36211C6.84849 2.42541 6.82155 2.48504 6.77699 2.53022C6.73242 2.57539 6.67317 2.60315 6.60994 2.60847C6.5467 2.61378 6.48365 2.59632 6.43216 2.55922C6.38068 2.52212 6.34415 2.46784 6.32919 2.40617C6.27004 2.17725 6.14255 1.97178 5.9637 1.81714C5.83517 1.71572 5.67542 1.66208 5.51173 1.6654C5.33783 1.6721 5.16886 1.72505 5.02223 1.81877C4.81906 1.94201 4.66024 2.12654 4.56863 2.34579C4.55569 2.37828 4.53647 2.40789 4.51208 2.43293C4.48769 2.45798 4.45859 2.47797 4.42646 2.49176C4.39434 2.50555 4.3598 2.51287 4.32484 2.5133C4.28988 2.51373 4.25518 2.50727 4.22272 2.49428C4.19103 2.48287 4.16172 2.46572 4.13624 2.44369C3.94671 2.24084 3.68846 2.11579 3.41179 2.09289C3.28894 2.08834 3.16749 2.12012 3.06261 2.18426C2.95929 2.25165 2.87902 2.349 2.83255 2.46327V2.47306C2.73923 2.75343 2.74965 3.05798 2.86192 3.33131C2.88443 3.39776 2.87994 3.47039 2.84942 3.53356C2.81891 3.59674 2.7648 3.6454 2.69876 3.66907H2.67754C2.5379 3.69851 2.40924 3.76634 2.30604 3.86493C2.20285 3.96351 2.12921 4.08894 2.09341 4.22709V4.23851C2.0701 4.34604 2.0701 4.45732 2.09341 4.56484C2.11386 4.67224 2.15911 4.77337 2.22558 4.86017C2.38874 5.06413 2.67428 5.1865 3.10341 5.12613C3.15385 5.11875 3.20535 5.12601 3.25177 5.14707C3.2982 5.16812 3.3376 5.20207 3.36528 5.24488C3.39296 5.28769 3.40775 5.33755 3.4079 5.38853C3.40804 5.4395 3.39354 5.48945 3.3661 5.53241C3.2882 5.66067 3.2242 5.79687 3.1752 5.9387C3.13178 6.06714 3.10758 6.2013 3.10341 6.33682C3.10552 6.37339 3.10005 6.41 3.08735 6.44436C3.07465 6.47872 3.05499 6.51009 3.0296 6.53649C3.00421 6.5629 2.97364 6.58377 2.93981 6.59781C2.90597 6.61185 2.8696 6.61874 2.83298 6.61807C2.79635 6.61739 2.76026 6.60916 2.72697 6.59388C2.69368 6.5786 2.6639 6.55661 2.6395 6.52929C2.6151 6.50197 2.59661 6.4699 2.58519 6.43509C2.57377 6.40029 2.56966 6.3635 2.57312 6.32703C2.57789 6.13866 2.61145 5.95212 2.67265 5.7739L2.71018 5.66621C2.53183 5.65402 2.35808 5.60425 2.20032 5.52017C2.04257 5.43609 1.90438 5.3196 1.79482 5.17835C1.6763 5.02657 1.59574 4.84868 1.55986 4.65948C1.52395 4.47868 1.52729 4.29228 1.56965 4.11288V4.09982C1.61499 3.91174 1.70304 3.73664 1.82698 3.58808C1.95092 3.43953 2.10741 3.32152 2.28432 3.2432C2.20199 2.9189 2.22136 2.57714 2.33979 2.26421V2.24953C2.42757 2.03557 2.57911 1.85383 2.77381 1.72903C2.96896 1.60692 3.19646 1.54664 3.42647 1.55607C3.72012 1.56995 4.00348 1.66856 4.2423 1.83998C4.37685 1.64837 4.54962 1.4867 4.74975 1.36517C4.97907 1.2232 5.24209 1.14491 5.51173 1.13837C5.79592 1.13177 6.0737 1.2234 6.29818 1.3978C6.38785 1.47041 6.46888 1.55308 6.53967 1.64418C6.63328 1.48585 6.75688 1.34729 6.90353 1.23627C7.08253 1.10137 7.29325 1.01483 7.5154 0.984995C7.74219 0.955413 7.97271 0.991661 8.17948 1.08942C8.50721 1.25499 8.76102 1.53733 8.89088 1.88077C9.46359 1.87425 9.86009 2.11736 10.0673 2.46817C10.1838 2.6657 10.2437 2.89152 10.2403 3.12083C10.2378 3.34817 10.1819 3.57175 10.0771 3.77349C9.96259 3.99575 9.79324 4.18508 9.58508 4.32357C9.37692 4.46206 9.13686 4.5451 8.88762 4.56484C8.90146 4.7426 8.87846 4.92129 8.82006 5.08975C8.76166 5.2582 8.66913 5.41279 8.54824 5.54384C8.37793 5.71783 8.16366 5.84245 7.92821 5.90443C7.6686 5.97293 7.39713 5.98358 7.13295 5.93565C6.86878 5.88773 6.61834 5.78238 6.39935 5.62705C6.38328 5.67817 6.36421 5.72829 6.34224 5.77716C6.25254 5.97901 6.09081 6.14016 5.88864 6.22913C5.68965 6.31093 5.47022 6.32917 5.26045 6.28134C5.0727 6.23776 4.89386 6.16214 4.7318 6.05781C4.73794 6.10572 4.75113 6.15245 4.77096 6.1965H4.76443ZM0 20.0753H16V21.025H0V20.0753ZM0.403019 12.5599L1.77524 12.7231L1.91719 11.581H5.50683L5.71079 13.2289L15.5905 14.469V19.7245H0.403019V12.5599ZM2.11136 9.69803L1.97104 11.0523H5.45951L5.31919 9.69803H2.11136ZM3.29268 15.2065H5.35183C5.38989 15.2065 5.42758 15.214 5.46272 15.2286C5.49787 15.2432 5.52978 15.2647 5.55662 15.2917C5.58346 15.3186 5.6047 15.3507 5.61911 15.3859C5.63353 15.4211 5.64084 15.4589 5.64063 15.4969V18.088C5.6402 18.1643 5.60958 18.2373 5.55547 18.2912C5.50135 18.345 5.42814 18.3752 5.35183 18.3752H3.29268C3.25497 18.3752 3.21762 18.3677 3.18278 18.3533C3.14794 18.3389 3.11628 18.3177 3.08962 18.2911C3.06295 18.2644 3.0418 18.2327 3.02737 18.1979C3.01293 18.163 3.00551 18.1257 3.00551 18.088V15.4969C3.00551 15.4592 3.01293 15.4219 3.02737 15.387C3.0418 15.3522 3.06295 15.3205 3.08962 15.2939C3.11628 15.2672 3.14794 15.246 3.18278 15.2316C3.21762 15.2172 3.25497 15.2098 3.29268 15.2098V15.2065ZM9.73445 15.696H11.7952C11.8332 15.6962 11.8707 15.7039 11.9056 15.7186C11.9406 15.7333 11.9723 15.7548 11.999 15.7817C12.0256 15.8087 12.0467 15.8407 12.061 15.8758C12.0754 15.9109 12.0826 15.9485 12.0824 15.9864V18.088C12.082 18.164 12.0516 18.2368 11.9978 18.2906C11.9441 18.3443 11.8713 18.3747 11.7952 18.3752H9.73445C9.65842 18.3747 9.58562 18.3443 9.53186 18.2906C9.4781 18.2368 9.44771 18.164 9.44728 18.088V15.9864C9.44813 15.9105 9.47865 15.838 9.53233 15.7843C9.586 15.7306 9.65855 15.7001 9.73445 15.6993V15.696Z" fill="white"/>
</svg>
