<svg width="23" height="24" viewBox="0 0 23 24" fill="none" xmlns="http://www.w3.org/2000/svg">
<g clip-path="url(#clip0_1_7)">
<path d="M14.203 1.44287H6.19475C5.67227 1.44287 5.18998 1.5313 4.75783 1.70778C4.32588 1.88445 3.92397 2.14954 3.56206 2.50288C3.20035 2.85621 2.92896 3.2488 2.7481 3.67093C2.56725 4.09288 2.47691 4.56418 2.47691 5.07455V12.7107C2.47691 13.221 2.56725 13.6922 2.7481 14.1143C2.92896 14.5364 3.20035 14.9288 3.56206 15.2824C3.93373 15.6359 4.33583 15.9103 4.76778 16.0773C5.19993 16.2539 5.67227 16.3424 6.19475 16.3424H9.63124C10.0333 16.3424 10.3648 16.6661 10.3648 17.0587C10.3648 17.1472 10.3447 17.2257 10.3246 17.3042C10.1939 17.7755 10.0532 18.2466 9.89248 18.6979C9.72158 19.1791 9.54091 19.6304 9.33976 20.0724C9.23929 20.298 9.11872 20.5138 8.98819 20.7398C9.69153 20.4352 10.3547 20.0821 10.9677 19.6893C11.6107 19.2771 12.2136 18.8159 12.7661 18.3152C13.3288 17.8049 13.8312 17.2453 14.2934 16.6465C14.434 16.4603 14.6551 16.3622 14.8761 16.3622H17.8303C18.3528 16.3622 18.8252 16.2737 19.2571 16.0971C19.6893 15.9204 20.0912 15.6553 20.463 15.3022C20.8247 14.9486 21.0961 14.5562 21.277 14.1341C21.4576 13.712 21.5482 13.2407 21.5482 12.7305V5.09418C21.5482 4.58381 21.4576 4.1127 21.277 3.69056C21.0961 3.26843 20.8247 2.87603 20.463 2.52251C20.1013 2.16898 19.6994 1.90408 19.2673 1.7276C18.8351 1.55093 18.353 1.4625 17.8303 1.4625H14.203V1.44287ZM12.8094 10.4108H10.9001V10.2093C10.9001 9.86662 10.9361 9.58732 11.01 9.37345C11.0839 9.15752 11.1933 8.96347 11.3393 8.78586C11.4852 8.60808 11.8128 8.29625 12.3223 7.85018C12.5933 7.61631 12.7288 7.40225 12.7288 7.20801C12.7288 7.01228 12.6739 6.86178 12.5659 6.75298C12.4561 6.64586 12.2913 6.59146 12.0702 6.59146C11.8316 6.59146 11.636 6.67483 11.4802 6.84159C11.324 7.00667 11.2247 7.2985 11.1815 7.71222L9.23106 7.45647C9.29785 6.69858 9.55852 6.08912 10.0115 5.6268C10.4663 5.16447 11.1627 4.93396 12.1009 4.93396C12.8316 4.93396 13.4201 5.0953 13.8693 5.41629C14.4786 5.85338 14.7837 6.43348 14.7837 7.15885C14.7837 7.45983 14.7048 7.75185 14.5469 8.03115C14.391 8.31027 14.0683 8.65313 13.5829 9.05563C13.245 9.34036 13.0304 9.56694 12.9412 9.73931C12.854 9.91018 12.8094 10.1349 12.8094 10.4108ZM10.8333 10.9474H12.8798V12.5424H10.8333V10.9474ZM9.82224 0.00990831H17.8303C18.5337 0.00990831 19.197 0.137595 19.82 0.382872C20.4328 0.628149 20.9956 1.0013 21.498 1.49204C22.0006 1.98278 22.3824 2.53241 22.6337 3.13121C22.8848 3.73001 23.0153 4.3776 23.0153 5.07474V12.7107C23.0153 13.4078 22.8846 14.0554 22.6337 14.6542C22.3824 15.2526 22.0006 15.8023 21.498 16.2934C20.9956 16.7841 20.433 17.147 19.82 17.4024C19.2072 17.6478 18.5438 17.7755 17.8303 17.7755H15.238C14.786 18.3349 14.2936 18.8647 13.7711 19.3459C13.1481 19.9151 12.485 20.4251 11.7715 20.8768C11.058 21.338 10.2944 21.7407 9.48043 22.0839C8.67662 22.4275 7.81252 22.7123 6.90823 22.9478C6.64699 23.0164 6.36565 22.9379 6.17465 22.7317C5.90346 22.4375 5.93351 21.9862 6.23494 21.7211C6.65694 21.3578 7.01866 20.9849 7.31013 20.6117C7.59147 20.2488 7.82266 19.8755 7.99338 19.493V19.4831C8.18438 19.0709 8.35509 18.6487 8.5059 18.2266C8.55624 18.0795 8.60638 17.9224 8.65671 17.7654H6.18479C5.48146 17.7654 4.81831 17.6375 4.19516 17.3923C3.58216 17.1468 3.01949 16.774 2.5171 16.2833C2.01472 15.7925 1.63291 15.2427 1.38162 14.6441C1.13052 14.0358 1 13.388 1 12.701V5.06464C1 4.37742 1.13052 3.72964 1.38181 3.12112C1.6331 2.52232 2.01491 1.97269 2.5173 1.48195C3.01968 0.991205 3.58235 0.618241 4.19535 0.372777C4.80836 0.127312 5.47131 0 6.18479 0H9.8121L9.82224 0.00990831Z" fill="#D7282F"/>
</g>
<defs>
<clipPath id="clip0_1_7">
<rect width="23" height="24" fill="white"/>
</clipPath>
</defs>
</svg>
