<svg width="66" height="66" viewBox="0 0 66 66" fill="none" xmlns="http://www.w3.org/2000/svg">
<path d="M39.1875 6.1875V18.5625H51.5625L39.1875 6.1875ZM39.1875 6.1875H14.4375V59.8125H51.5625V18.5625" stroke="#9A9A9A" stroke-width="3" stroke-miterlimit="10" stroke-linecap="round" stroke-linejoin="round"/>
<path d="M37.125 28.875H43.3125" stroke="#9A9A9A" stroke-width="3" stroke-miterlimit="10" stroke-linecap="round" stroke-linejoin="round"/>
<path d="M37.125 37.125H43.3125" stroke="#9A9A9A" stroke-width="3" stroke-miterlimit="10" stroke-linecap="round" stroke-linejoin="round"/>
<path d="M33 45.375H43.3125" stroke="#9A9A9A" stroke-width="3" stroke-miterlimit="10" stroke-linecap="round" stroke-linejoin="round"/>
<path d="M26.8125 24.75V26.8125" stroke="#231F20" stroke-miterlimit="10" stroke-linecap="round" stroke-linejoin="round"/>
<path d="M26.8125 24.75V26.8125" stroke="black" stroke-opacity="0.2" stroke-miterlimit="10" stroke-linecap="round" stroke-linejoin="round"/>
<path d="M26.8125 39.1875V41.25" stroke="#231F20" stroke-miterlimit="10" stroke-linecap="round" stroke-linejoin="round"/>
<path d="M26.8125 39.1875V41.25" stroke="black" stroke-opacity="0.2" stroke-miterlimit="10" stroke-linecap="round" stroke-linejoin="round"/>
<path d="M28.875 26.8125H25.7813C24.1313 26.8125 22.6875 28.2563 22.6875 29.9063C22.6875 31.5563 24.1313 33 25.7813 33H27.8438C29.4938 33 30.9375 34.4438 30.9375 36.0938C30.9375 37.7438 29.4938 39.1875 27.8438 39.1875H24.75" stroke="#9A9A9A" stroke-width="3" stroke-miterlimit="10" stroke-linecap="round" stroke-linejoin="round"/>
</svg>
