<svg width="73" height="66" viewBox="0 0 73 66" fill="none" xmlns="http://www.w3.org/2000/svg">
<path d="M52.1136 59.0626L58.3672 65.212C60.1043 66.9492 62.5363 65.5595 62.5363 63.5097V48.6398L72.2642 36.8273C74.0013 34.3953 72.2642 31.2684 69.4848 31.2684H45.1651C42.3857 31.2684 40.6486 34.7427 42.3857 36.8273L52.1136 48.6398V59.0626ZM45.1651 55.5883H0V45.1655C0 35.785 18.4135 31.2684 27.7939 31.2684C29.8784 31.2684 32.3104 31.6159 35.0898 31.9633C34.395 34.0478 34.7424 36.4798 35.4372 38.5644C33.0053 38.217 30.2259 37.8695 27.7939 37.8695C17.3712 37.8695 6.60105 43.0809 6.60105 45.1655V48.9872H43.428L45.1651 51.0718V55.5883ZM27.7939 0C20.1506 0 13.897 6.25369 13.897 13.8971C13.897 21.5405 20.1506 27.7942 27.7939 27.7942C35.4372 27.7942 41.6909 21.5405 41.6909 13.8971C41.6909 6.25369 35.4372 0 27.7939 0ZM27.7939 20.8456C23.9722 20.8456 20.8454 17.7188 20.8454 13.8971C20.8454 10.0754 23.9722 6.94854 27.7939 6.94854C31.6156 6.94854 34.7424 10.0754 34.7424 13.8971C34.7424 17.7188 31.6156 20.8456 27.7939 20.8456Z" fill="#D7282F"/>
</svg>
