<svg width="57" height="60" viewBox="0 0 57 60" fill="none" xmlns="http://www.w3.org/2000/svg">
<g clip-path="url(#clip0_68_3024)">
<path fill-rule="evenodd" clip-rule="evenodd" d="M44.5798 20.3437H2.52101C2.107 20.3437 1.77432 20.6728 1.77432 21.0823V23.0494C1.77432 23.4589 2.107 23.7879 2.52101 23.7879H44.5798C44.9938 23.7879 45.3265 23.4589 45.3265 23.0494V21.0823C45.3191 20.6728 44.9864 20.3437 44.5798 20.3437ZM40.5062 25.5356H6.58716L15.8136 36.7605C15.9393 36.9141 16.0132 37.1115 16.0132 37.309V57.777L31.0802 51.1444V37.309C31.0802 37.0823 31.1689 36.8702 31.3241 36.702L40.5062 25.5356ZM33.3276 18.5887H38.4658V1.75503H33.3276V18.5887ZM20.8704 18.5887H26.0086V7.64899H20.8704V18.5887ZM8.42062 18.5887H13.5588V12.4095H8.42062V18.5887ZM2.52101 18.5887H6.6463V11.532C6.6463 11.0494 7.04553 10.6545 7.53346 10.6545H14.4385C14.9265 10.6545 15.3257 11.0494 15.3257 11.532V18.5887H19.0961V6.77148C19.0961 6.28885 19.4953 5.89397 19.9833 5.89397H26.8883C27.3763 5.89397 27.7755 6.28885 27.7755 6.77148V18.5887H31.5533V0.877514C31.5533 0.394881 31.9525 0 32.4405 0H39.3455C39.8335 0 40.2327 0.394881 40.2327 0.877514V18.5887H44.5724C45.9623 18.5887 47.086 19.7075 47.0934 21.075V23.042C47.0934 24.4168 45.9623 25.5283 44.5724 25.5356H42.7759L32.8471 37.6161V51.7148C32.8471 52.0585 32.6401 52.3729 32.3222 52.5119L15.5623 59.8903C15.1335 60.1243 14.5938 59.9634 14.3572 59.5393C14.2907 59.415 14.2537 59.2687 14.2463 59.1225V37.6161L4.31751 25.5356H2.52101C1.13113 25.5356 0.007393 24.4168 0 23.042V21.075C0 19.7075 1.13113 18.596 2.52101 18.5887ZM18.172 50.457C18.1424 49.9744 18.5121 49.5576 19 49.5283C19.4879 49.4991 19.9093 49.8647 19.9389 50.3473C19.9389 50.3839 19.9389 50.4205 19.9389 50.457V50.8665C19.9685 51.3492 19.5988 51.766 19.1109 51.7952C18.623 51.8245 18.2016 51.4589 18.172 50.9762C18.172 50.9397 18.172 50.9031 18.172 50.8665V50.457ZM13.2704 29.7989C12.9747 29.4186 13.0486 28.8702 13.4331 28.5777C13.8027 28.2925 14.335 28.351 14.6381 28.702L19.7467 34.9177C19.8724 35.0713 19.9463 35.2687 19.9463 35.4662V46.8227C19.9167 47.3053 19.4953 47.6709 19.0074 47.6417C18.5638 47.6124 18.209 47.2614 18.1794 46.8227V35.766L13.2704 29.7989ZM52.4385 36.0219C56.1646 39.7002 56.1646 45.6746 52.4385 49.3528C48.7198 53.0384 42.6798 53.0384 38.9611 49.3528C35.2424 45.6673 35.235 39.7002 38.9611 36.0219C40.7502 34.2523 43.1751 33.2578 45.7035 33.2578C48.2245 33.2578 50.6494 34.2523 52.4385 36.0219ZM45.6961 31.5101C51.9358 31.5101 57 36.5192 57 42.691C57 48.8629 51.9358 53.872 45.6961 53.872C39.4564 53.872 34.3922 48.8629 34.3922 42.691C34.3922 39.7294 35.5825 36.8848 37.7043 34.7861C39.8261 32.6874 42.7019 31.5027 45.6961 31.5101ZM46.5833 49.2724V48.6947C48.1432 48.2925 49.23 46.9031 49.23 45.309C49.2374 44.4241 48.8825 43.5832 48.2467 42.9616C47.5961 42.34 46.7681 41.9452 45.8735 41.8282H45.8514C45.3043 41.755 44.7868 41.521 44.3802 41.1554C44.0918 40.8702 43.9292 40.4753 43.9366 40.0658C43.9366 39.159 44.6389 38.3985 45.5556 38.3254C45.6518 38.34 45.7479 38.34 45.844 38.3254C46.7607 38.3985 47.463 39.159 47.463 40.0658C47.463 40.5484 47.8623 40.9433 48.3502 40.9433C48.8381 40.9433 49.2374 40.5484 49.2374 40.0658C49.2374 38.4717 48.1506 37.075 46.5833 36.6728V36.0951C46.6128 35.6124 46.2432 35.1956 45.7553 35.1664C45.2673 35.1371 44.8459 35.5027 44.8163 35.9854C44.8163 36.0219 44.8163 36.0585 44.8163 36.0951V36.6728C43.2564 37.075 42.1697 38.4643 42.1697 40.0585C42.1549 40.9287 42.5023 41.7696 43.1307 42.3839C43.8035 43.0055 44.6463 43.4077 45.5556 43.5393L45.6296 43.5466C46.1471 43.6124 46.6276 43.8391 47.0047 44.1901C47.3078 44.4826 47.4704 44.8775 47.4704 45.2943C47.4704 46.2011 46.7681 46.9543 45.8514 47.0347C45.7996 47.0274 45.7553 47.0201 45.7035 47.0201C45.6518 47.0201 45.6074 47.0274 45.5556 47.0347C44.6463 46.9616 43.944 46.2084 43.9366 45.3016C43.9662 44.819 43.5965 44.4022 43.1086 44.3729C42.6206 44.3437 42.1992 44.7093 42.1697 45.192C42.1697 45.2285 42.1697 45.2651 42.1697 45.3016C42.1697 46.8958 43.2564 48.2852 44.8163 48.6874V49.2651C44.8459 49.7477 45.2673 50.1133 45.7553 50.0841C46.1988 50.0622 46.5537 49.7111 46.5833 49.2724Z" fill="#D7282F"/>
</g>
<defs>
<clipPath id="clip0_68_3024">
<rect width="57" height="60" fill="white"/>
</clipPath>
</defs>
</svg>
