<svg width="49" height="63" viewBox="0 0 49 63" fill="none" xmlns="http://www.w3.org/2000/svg">
<g clip-path="url(#clip0_68_3029)">
<path d="M47.9759 13.5449L43.5626 1.50853C43.5151 1.31994 43.3867 1.15965 43.2155 1.06535C43.0443 0.971062 42.8398 0.952204 42.6543 1.01349L34.5221 4.1817C33.143 3.41794 27.9213 0.560892 26.2854 0.29216C26.0143 0.249729 25.7242 0.226156 25.4246 0.226156C24.0027 0.226156 22.633 0.725903 22.2716 0.867341C21.4251 0.966348 16.9786 1.54153 13.9825 3.02663C11.3717 1.6924 9.29822 0.160151 9.27445 0.146008C9.11751 0.0281426 8.91777 -0.0190034 8.72279 0.0139988C8.52781 0.047001 8.35661 0.160151 8.25198 0.320448L1.11852 11.0697C0.909274 11.3856 0.985364 11.8146 1.29924 12.0315L10.3017 18.4056C9.99255 19.1223 9.97353 19.8436 10.2636 20.4989C10.763 21.621 12.0042 22.2575 12.6605 22.5215C13.1646 24.5393 14.4581 24.8552 15.2095 24.8552C15.4615 24.8552 15.6993 24.8222 15.9038 24.7704C16.6267 26.3497 17.6158 26.7081 18.3625 26.7081C18.7477 26.7081 19.0901 26.6138 19.3612 26.4959C19.8082 26.9909 20.5976 27.6463 21.7485 27.7877C21.8674 27.8018 21.9815 27.8113 22.0909 27.8113C22.79 27.8113 23.218 27.519 23.4558 27.2738C23.7792 26.9391 23.9171 26.5242 23.9741 26.213L25.5625 27.3162L25.6101 27.3445C25.748 27.4294 26.7514 27.9999 27.8119 27.9999C28.1306 27.9999 28.4539 27.948 28.7631 27.816C29.134 27.6557 29.5953 27.3304 29.8949 26.6609C30.5036 26.6939 31.4262 26.6279 32.2109 26.0904C32.8054 25.6803 33.2096 25.0862 33.4141 24.3225C34.018 24.2706 34.9264 24.0773 35.635 23.4314C36.1628 22.9505 36.4957 22.3188 36.6194 21.5456C37.2566 21.5361 38.1507 21.3947 38.8355 20.7865C39.487 20.2019 39.7961 19.3486 39.7581 18.2454L47.6049 14.3558C47.9093 14.2049 48.0615 13.8655 47.9759 13.5449ZM11.5714 19.9332C11.4335 19.622 11.4573 19.292 11.6428 18.9054C12.0898 17.9719 12.6224 17.4109 13.0694 17.4109C13.3358 17.4109 13.6639 17.6042 14.0111 17.9672C13.4642 18.6414 12.7651 19.7069 12.5796 20.9044C12.1611 20.6592 11.7474 20.3339 11.5714 19.9332ZM13.9778 21.8756C13.7828 20.8195 14.4438 19.7163 14.9907 19.0091L15.4806 18.5518C15.7944 18.2595 16.465 17.7975 16.9358 17.7975C17.3448 17.7975 17.5588 18.3349 17.6777 18.8818C17.0689 19.5984 15.6137 21.5126 15.5994 23.3984C15.4806 23.4267 15.3522 23.4503 15.2142 23.4503C14.9765 23.4456 14.2584 23.4456 13.9778 21.8756ZM18.3672 25.2984C17.7252 25.2984 17.302 24.5016 17.0404 23.7803H17.0452C16.7884 22.3753 18.215 20.4094 18.8808 19.655C18.995 19.6032 19.2185 19.523 19.4848 19.523C19.9128 19.523 20.2885 19.7587 20.6024 20.2161C20.298 20.3716 20.0127 20.5979 19.7654 20.8902C18.9379 21.8756 18.5527 23.5728 18.7667 25.2088C18.6526 25.2607 18.5099 25.2984 18.3672 25.2984ZM22.6378 25.7887C22.6378 25.9019 22.576 26.1706 22.4523 26.2979C22.4238 26.3262 22.3382 26.4016 22.1052 26.4016C22.0529 26.4016 21.9958 26.3969 21.9387 26.3922C20.9733 26.2743 20.3884 25.5294 20.2314 25.3031C19.9937 24.0019 20.26 22.5309 20.8735 21.8002C21.1065 21.522 21.3633 21.3853 21.6534 21.3853C21.7485 21.39 22.4904 21.4607 22.8708 22.7195L22.6188 25.7038L22.6378 25.751V25.7887ZM37.8844 19.7352C37.4754 20.1029 36.8096 20.1548 36.3864 20.1312L30.9507 15.2422C30.6606 14.9828 30.2088 15.0017 29.9425 15.2893C29.6761 15.5769 29.6999 16.0248 29.99 16.2888L35.2355 21.0081C35.1974 21.6069 35.0167 22.0736 34.6791 22.3848C34.2273 22.7997 33.5948 22.8987 33.2143 22.9222L28.1115 18.0851C27.8262 17.8163 27.3744 17.8258 27.1033 18.1086C26.8323 18.3915 26.8418 18.8394 27.1271 19.1081L32.073 23.7897C31.9636 24.3083 31.7496 24.6902 31.4072 24.9259C31.0695 25.1617 30.6653 25.2324 30.3182 25.2512C30.2991 25.2277 30.2896 25.1994 30.2706 25.1805L25.8241 20.9987C25.5387 20.7299 25.087 20.7394 24.8159 21.027C24.5448 21.3098 24.5591 21.7577 24.8444 22.0265L28.7298 25.6803L28.7155 25.7416C28.5776 26.3686 28.3018 26.4818 28.2114 26.5195C27.655 26.7599 26.6944 26.3309 26.371 26.147L24.1358 24.5959L24.3165 22.6016L24.2832 22.4791C23.86 20.8997 22.8994 20.2443 22.1527 20.0463C21.3395 18.3774 20.1554 18.1133 19.4943 18.1133C19.3041 18.1133 19.1281 18.1322 18.9664 18.1652C18.4909 16.6377 17.5255 16.3831 16.9405 16.3831C16.2415 16.3831 15.5662 16.7367 15.1001 17.0526C14.4438 16.3501 13.7638 15.9965 13.0694 15.9965C12.3181 15.9965 11.6237 16.4067 11.0293 17.1846L2.68788 11.2819L9.03666 1.71125C9.91646 2.31944 11.6428 3.44623 13.6687 4.45515C13.8779 4.55887 14.1252 4.55416 14.3297 4.44101C15.8753 3.60652 18.0201 3.0502 19.7321 2.71075C19.2946 3.11149 18.8 3.59238 18.2293 4.1817C15.8991 6.59558 16.912 8.0571 17.0642 8.24569C17.6396 8.90573 18.4195 9.25461 19.3326 9.25461C21.3348 9.25461 23.5414 7.5715 24.1786 7.04818L25.9049 6.8596C27.0796 10.8811 31.6545 12.6067 32.6342 12.932L38.222 18.4717C38.2553 18.5047 38.2934 18.5188 38.3314 18.5424C38.3124 19.0751 38.165 19.4806 37.8844 19.7352ZM38.864 17.1091L33.5187 11.8099C33.4331 11.7251 33.3332 11.6638 33.2191 11.6308C33.1668 11.6166 27.9166 10.0089 27.1509 5.95439C27.0891 5.61494 26.7895 5.37921 26.4518 5.37921C26.4233 5.37921 26.3995 5.37921 26.371 5.38393L23.8029 5.6668C23.6555 5.68095 23.5176 5.74224 23.4082 5.84124C22.7757 6.39757 20.8021 7.84023 19.3279 7.84023C18.8476 7.84023 18.4766 7.68937 18.177 7.36877C18.1294 7.24619 17.9297 6.52957 19.2518 5.16234C21.6629 2.66832 22.6854 2.22986 22.6806 2.22986C22.6949 2.22515 22.7091 2.22043 22.7282 2.211C22.7424 2.20629 24.0788 1.64525 25.4103 1.64525C25.6339 1.64525 25.8431 1.65939 26.0381 1.6924C27.2032 1.88569 31.488 4.12041 34.0799 5.57251C34.2511 5.67152 34.4603 5.69038 34.6505 5.62909L42.3737 2.59288L46.4493 13.3469L38.864 17.1091Z" fill="#D7282F"/>
</g>
<path d="M20.4927 62.6777C20.3616 62.6777 20.2305 62.6437 20.0895 62.5708C19.8453 62.446 19.6191 62.2467 19.6208 61.639C19.624 60.3717 19.624 59.1045 19.624 57.8389C19.624 55.9186 19.6224 53.9335 19.6372 51.9824C19.6421 51.3277 19.3962 50.861 18.8406 50.4656C16.7329 48.965 14.63 47.4579 12.5272 45.9524C9.84092 44.0273 7.06284 42.0373 4.32081 40.0927C2.98668 39.1463 2.29338 37.8791 2.20324 36.2197C2.16882 35.6087 2.17866 34.9929 2.18685 34.3415C2.19177 34.0385 2.19505 33.7306 2.19505 33.4178V32.7988L1.56895 32.7696C1.45094 32.7647 1.34769 32.7599 1.25591 32.7566C1.09365 32.7502 0.969082 32.7453 0.84288 32.7356C0.380686 32.7015 0.0348595 32.3758 0.00207979 31.9431C-0.0307 31.4991 0.252845 31.1377 0.708483 31.0421C0.888772 31.0049 1.10184 31.0016 1.30507 31.0016C9.7557 31 18.208 31 26.6586 31C33.6636 31 47.7392 31.0016 47.7392 31.0016C47.9343 31.0016 48.0933 31.0032 48.2342 31.0275C48.7194 31.1118 49.0275 31.4748 48.998 31.9318C48.9685 32.3904 48.6243 32.708 48.1211 32.7388C47.9933 32.7469 47.8654 32.7534 47.7179 32.7615L46.8362 32.8101V33.4227C46.8362 33.5636 46.8378 33.6998 46.8394 33.8343C46.8427 34.113 46.8443 34.3755 46.8345 34.6332C46.8263 34.8325 46.8214 35.0318 46.8165 35.2328C46.8017 35.8032 46.7886 36.3412 46.7149 36.8679C46.5264 38.2015 45.8511 39.2662 44.6465 40.1219C42.0192 41.9887 39.3558 43.8944 36.781 45.7385C34.5651 47.325 32.3475 48.9115 30.1283 50.4931C29.5874 50.8788 29.3514 51.3358 29.3662 51.9743C29.3826 52.7148 29.3793 53.4732 29.3777 54.2057C29.376 54.8053 29.3744 55.4259 29.3826 56.0385C29.3875 56.4712 29.2465 56.7483 28.8925 56.9962C26.3357 58.782 23.7264 60.6116 21.1335 62.433C20.9008 62.5983 20.691 62.6777 20.4927 62.6777ZM3.95204 33.4291C3.95204 33.7111 3.9504 33.9898 3.94712 34.2669C3.94221 34.9119 3.93729 35.5212 3.9586 36.1467C3.99301 37.1952 4.46668 38.0508 5.36485 38.6909C7.902 40.4962 10.4752 42.3387 12.9632 44.1213C15.4905 45.9314 18.1047 47.8031 20.6812 49.6359C21.1991 50.0053 21.3991 50.3829 21.3925 50.9874C21.3712 52.838 21.3745 54.6513 21.3794 56.5733C21.381 57.3138 21.3827 58.0593 21.3827 58.8144V59.8694L22.3349 59.393C22.3874 59.367 22.43 59.346 22.4644 59.3298C22.5464 59.2909 22.6234 59.2552 22.7086 59.1953L23.5396 58.6151C24.6983 57.8065 25.8981 56.9719 27.065 56.1292C27.4305 55.8651 27.6043 55.3692 27.6092 55.0192C27.6305 53.8038 27.6518 52.3891 27.6108 50.9793C27.5944 50.391 27.7928 50.0151 28.3205 49.6407C32.9441 46.3527 37.9364 42.7779 43.5811 38.712C44.1384 38.3101 44.5219 37.8807 44.7202 37.4334C45.1496 36.466 45.1201 35.5034 45.0906 34.5748C45.0792 34.1892 45.0677 33.8245 45.089 33.4648L45.13 32.7793H3.95204V33.4291Z" fill="#D7282F"/>
<defs>
<clipPath id="clip0_68_3029">
<rect width="47" height="28" fill="white" transform="translate(0.999756)"/>
</clipPath>
</defs>
</svg>
