<svg width="66" height="74" viewBox="0 0 66 74" fill="none" xmlns="http://www.w3.org/2000/svg">
<g clip-path="url(#clip0_2536_17191)">
<path fill-rule="evenodd" clip-rule="evenodd" d="M46.641 47.9918C47.0265 47.9822 47.4044 48.0998 47.7165 48.3264C48.1347 48.5952 48.6067 49.121 49.1923 49.4497C50.0168 49.9217 51.5405 49.2764 52.3172 50.4355C52.6562 50.947 52.8332 51.5488 52.8251 52.1623C52.8485 52.8393 53.1014 53.4882 53.5421 54.0026C54.4981 55.2693 54.6953 56.1118 54.2053 56.9901C53.8647 57.5876 53.1597 57.9222 53.0103 58.2987C52.6638 59.1053 53.0462 59.7088 52.5741 60.6528C52.423 60.9621 52.2096 61.2368 51.9475 61.4599C51.6853 61.683 51.38 61.8496 51.0505 61.9494C50.453 62.1346 49.8973 61.8657 49.4373 62.0629C48.6306 62.4035 48.0391 63.1922 47.3938 63.3953C47.1542 63.4713 46.9043 63.5096 46.6529 63.5089C46.4016 63.5092 46.1517 63.4709 45.912 63.3953C45.2667 63.1982 44.6752 62.4035 43.8685 62.0629C43.4085 61.8717 42.8349 62.1346 42.2553 61.9494C41.9257 61.8516 41.6202 61.6856 41.3588 61.4623C41.0974 61.2389 40.8857 60.9631 40.7376 60.6528C40.2596 59.7088 40.642 59.1053 40.2955 58.2987C40.1342 57.9163 39.4291 57.5817 39.1005 56.9901C38.6046 56.1118 38.8017 55.2693 39.7637 54.0026C40.202 53.4868 40.4545 52.8387 40.4807 52.1623C40.4712 51.5486 40.6483 50.9464 40.9886 50.4355C41.7653 49.2764 43.2949 49.9277 44.1135 49.4497C44.711 49.121 45.1711 48.5893 45.5894 48.3264C45.9026 48.1022 46.2797 47.9848 46.6649 47.9918H46.641ZM9.33895 73.4154C6.98479 73.4513 4.91744 73.3497 3.28626 72.5849C1.22488 71.617 0 69.7886 0 66.3231V63.1623H9.02227V8.001C8.89082 4.82827 9.6616 2.85652 11.0777 1.62567C12.4938 0.394813 14.4058 0.0482627 16.6643 0.000462553C16.7719 -0.0533126 61.3694 0.000462553 66 0.000462553V65.8152C66 68.4801 65.3427 70.3682 63.9924 71.6289C62.642 72.8896 60.73 73.4214 58.1488 73.4214L9.33895 73.4154ZM20.3449 14.0477C20.0074 14.0477 19.6837 13.9136 19.445 13.675C19.2063 13.4363 19.0722 13.1126 19.0722 12.775C19.0722 12.4375 19.2063 12.1138 19.445 11.8751C19.6837 11.6364 20.0074 11.5024 20.3449 11.5024H43.5578C43.8954 11.5024 44.2191 11.6364 44.4578 11.8751C44.6964 12.1138 44.8305 12.4375 44.8305 12.775C44.8305 13.1126 44.6964 13.4363 44.4578 13.675C44.2191 13.9136 43.8954 14.0477 43.5578 14.0477H20.3449ZM20.3449 22.7175C20.0074 22.7175 19.6837 22.5834 19.445 22.3447C19.2063 22.106 19.0722 21.7823 19.0722 21.4448C19.0722 21.1072 19.2063 20.7835 19.445 20.5449C19.6837 20.3062 20.0074 20.1721 20.3449 20.1721H54.4622C54.7998 20.1721 55.1235 20.3062 55.3622 20.5449C55.6008 20.7835 55.7349 21.1072 55.7349 21.4448C55.7349 21.7823 55.6008 22.106 55.3622 22.3447C55.1235 22.5834 54.7998 22.7175 54.4622 22.7175H20.3449ZM20.3449 48.7088C20.009 48.7088 19.6868 48.5753 19.4492 48.3378C19.2117 48.1002 19.0782 47.778 19.0782 47.4421C19.0782 47.1061 19.2117 46.7839 19.4492 46.5464C19.6868 46.3088 20.009 46.1754 20.3449 46.1754H32.1217C32.4576 46.1754 32.7798 46.3088 33.0174 46.5464C33.2549 46.7839 33.3884 47.1061 33.3884 47.4421C33.3884 47.778 33.2549 48.1002 33.0174 48.3378C32.7798 48.5753 32.4576 48.7088 32.1217 48.7088H20.3449ZM20.3449 40.051C20.0074 40.051 19.6837 39.9169 19.445 39.6782C19.2063 39.4395 19.0722 39.1158 19.0722 38.7783C19.0722 38.4408 19.2063 38.1171 19.445 37.8784C19.6837 37.6397 20.0074 37.5056 20.3449 37.5056H54.4622C54.7998 37.5056 55.1235 37.6397 55.3622 37.8784C55.6008 38.1171 55.7349 38.4408 55.7349 38.7783C55.7349 39.1158 55.6008 39.4395 55.3622 39.6782C55.1235 39.9169 54.7998 40.051 54.4622 40.051H20.3449ZM20.3449 31.3633C20.0121 31.3633 19.693 31.2311 19.4577 30.9958C19.2224 30.7605 19.0902 30.4413 19.0902 30.1086C19.0902 29.7758 19.2224 29.4566 19.4577 29.2213C19.693 28.986 20.0121 28.8538 20.3449 28.8538H54.6594C54.9922 28.8538 55.3114 28.986 55.5467 29.2213C55.782 29.4566 55.9142 29.7758 55.9142 30.1086C55.9142 30.4413 55.782 30.7605 55.5467 30.9958C55.3114 31.2311 54.9922 31.3633 54.6594 31.3633H20.3449ZM19.7175 57.8446C22.6692 53.9668 25.1847 55.7234 28.6801 58.1732L29.1999 58.5377C30.1619 59.2069 31.2792 58.221 32.3368 57.2829C32.8261 56.8275 33.3494 56.41 33.9022 56.0341L34.9897 57.749C34.5301 58.0668 34.0947 58.4183 33.6871 58.8006C32.038 60.2525 30.3112 61.7881 28.0467 60.2047L27.5149 59.8342C24.9397 58.0417 23.0934 56.7452 21.3188 59.0754L19.7175 57.8446ZM9.02227 65.7256H2.54536V66.3231C2.54536 68.6115 3.22651 69.7528 4.33786 70.2845C5.44921 70.8163 7.09234 70.882 9.00434 70.882V65.7256H9.02227ZM63.4606 65.8332V2.56972H16.6763C14.9853 2.56972 13.5991 2.80274 12.7387 3.54365C11.8783 4.28455 11.4601 5.61697 11.5437 7.94125V70.8701H58.1488C60.0728 70.8701 61.4411 70.5355 62.2596 69.7647C63.0782 68.9939 63.4546 67.7332 63.4546 65.8152L63.4606 65.8332ZM46.641 51.0988C47.5606 51.0976 48.4599 51.3692 49.2252 51.8793C49.9904 52.3894 50.5872 53.115 50.9399 53.9643C51.2927 54.8136 51.3856 55.7484 51.2069 56.6506C51.0282 57.5527 50.5859 58.3815 49.9361 59.0322C49.2862 59.683 48.4579 60.1263 47.556 60.3061C46.6541 60.486 45.7191 60.3943 44.8694 60.0426C44.0196 59.6909 43.2933 59.0951 42.7822 58.3306C42.2712 57.566 41.9984 56.667 41.9984 55.7473C41.9984 54.5155 42.4873 53.334 43.3578 52.4624C44.2283 51.5908 45.4091 51.1004 46.641 51.0988Z" fill="#9A9A9A"/>
</g>
<defs>
<clipPath id="clip0_2536_17191">
<rect width="66" height="73.421" fill="white"/>
</clipPath>
</defs>
</svg>
