<svg width="8" height="8" viewBox="0 0 8 8" fill="none" xmlns="http://www.w3.org/2000/svg">
<path d="M4.71356 4L7.94771 0.76607C8.01732 0.696374 8.01732 0.583444 7.94771 0.513748L7.48646 0.0522512C7.453 0.0188779 7.40749 0 7.36021 0C7.31285 0 7.26742 0.0188779 7.23396 0.0522512L3.99991 3.28626L0.765849 0.0522512C0.698848 -0.0147483 0.58027 -0.0146641 0.513438 0.0522512L0.052273 0.513748C-0.0174243 0.583444 -0.0174243 0.696374 0.052273 0.76607L3.28633 4L0.052273 7.23393C-0.0174243 7.30363 -0.0174243 7.41656 0.052273 7.48625L0.513523 7.94775C0.546981 7.98112 0.592406 8 0.63977 8C0.687134 8 0.732475 7.98112 0.765933 7.94775L3.99999 4.71373L7.23405 7.94775C7.2675 7.98112 7.31301 8 7.36029 8C7.40757 8 7.45308 7.98112 7.48654 7.94775L7.94779 7.48625C8.0174 7.41656 8.0174 7.30363 7.94779 7.23393L4.71356 4Z" fill="#C8C8C8"/>
</svg>
