<svg width="26" height="26" viewBox="0 0 26 26" fill="none" xmlns="http://www.w3.org/2000/svg">
<g clip-path="url(#clip0_9_364)">
<path d="M0.5 13C0.5 19.9036 6.09644 25.5 13 25.5C19.9036 25.5 25.5 19.9036 25.5 13C25.5 6.09644 19.9036 0.5 13 0.5C6.09644 0.5 0.5 6.09644 0.5 13Z" fill="#2867B2"/>
<path d="M9.5625 19.25H6.90625V10.8906H9.5625V19.25ZM8.23437 9.71875C7.375 9.71875 6.75 9.09375 6.75 8.23437C6.75 7.375 7.45312 6.75 8.23437 6.75C9.09375 6.75 9.71875 7.375 9.71875 8.23437C9.71875 9.09375 9.09375 9.71875 8.23437 9.71875ZM19.25 19.25H16.5938V14.7188C16.5938 13.3906 16.0469 13 15.2656 13C14.4844 13 13.7031 13.625 13.7031 14.7969V19.25H11.0469V10.8906H13.5469V12.0625C13.7813 11.5156 14.7187 10.6562 16.0469 10.6562C17.5312 10.6562 19.0937 11.5156 19.0937 14.0937V19.25H19.25Z" fill="white"/>
</g>
<defs>
<clipPath id="clip0_9_364">
<rect width="25" height="25" fill="white" transform="translate(0.5 0.5)"/>
</clipPath>
</defs>
</svg>
