<svg width="221" height="220" viewBox="0 0 221 220" fill="none" xmlns="http://www.w3.org/2000/svg">
<path d="M158.332 213.125H62.0815C31.8315 213.125 7.08154 188.375 7.08154 158.125V61.875C7.08154 31.625 31.8315 6.875 62.0815 6.875H158.332C188.582 6.875 213.332 31.625 213.332 61.875V158.125C213.332 188.375 188.582 213.125 158.332 213.125Z" stroke="#0097D3" stroke-width="7" stroke-miterlimit="10" stroke-linecap="round" stroke-linejoin="round"/>
<path d="M75.8315 89.375H48.3315V171.875H75.8315V89.375Z" stroke="#0097D3" stroke-width="7" stroke-miterlimit="10" stroke-linecap="round" stroke-linejoin="round"/>
<path d="M141.144 89.375C134.957 89.375 128.769 91.4375 123.957 94.875V89.375H96.4565V171.875H110.207H123.957V127.188C123.957 121.688 128.769 116.875 134.269 116.875C139.769 116.875 144.582 121.688 144.582 127.188V171.875H172.082V120.312C172.082 103.125 158.332 89.375 141.144 89.375Z" stroke="#0097D3" stroke-width="7" stroke-miterlimit="10" stroke-linecap="round" stroke-linejoin="round"/>
<path d="M62.0815 68.75C69.6755 68.75 75.8315 62.5939 75.8315 55C75.8315 47.4061 69.6755 41.25 62.0815 41.25C54.4876 41.25 48.3315 47.4061 48.3315 55C48.3315 62.5939 54.4876 68.75 62.0815 68.75Z" stroke="#0097D3" stroke-width="7" stroke-miterlimit="10" stroke-linecap="round" stroke-linejoin="round"/>
</svg>
