<svg width="18" height="16" viewBox="0 0 18 16" fill="none" xmlns="http://www.w3.org/2000/svg">
<path fill-rule="evenodd" clip-rule="evenodd" d="M1.75781 4.718L1.56885 6.49192H3.56104L3.37646 4.718H1.75781ZM0.439453 9.14182L1.28467 9.23997L1.41357 8.03587H3.7207L3.88037 9.54319L9.33105 10.1789L9.97705 8.52219V6.79954H8.52686V7.21702C8.52686 7.27296 8.50463 7.32662 8.46507 7.36617C8.42552 7.40573 8.37186 7.42796 8.31592 7.42796C8.25997 7.42796 8.20632 7.40573 8.16676 7.36617C8.1272 7.32662 8.10498 7.27296 8.10498 7.21702V6.79954H7.88086V7.21702C7.88086 7.27296 7.85864 7.32662 7.81908 7.36617C7.77952 7.40573 7.72587 7.42796 7.66992 7.42796C7.61398 7.42796 7.56033 7.40573 7.52077 7.36617C7.48121 7.32662 7.45898 7.27296 7.45898 7.21702V6.79954H7.29932C7.25993 6.79977 7.22167 6.78642 7.19096 6.76175C7.16026 6.73707 7.139 6.70258 7.13074 6.66407C7.12249 6.62555 7.12776 6.58537 7.14565 6.55028C7.16355 6.5152 7.19298 6.48734 7.229 6.47141L9.97705 5.22923V4.44407H8.52686V4.83665C8.52686 4.89259 8.50463 4.94625 8.46507 4.9858C8.42552 5.02536 8.37186 5.04759 8.31592 5.04759C8.25997 5.04759 8.20632 5.02536 8.16676 4.9858C8.1272 4.94625 8.10498 4.89259 8.10498 4.83665V4.44407H7.88086V4.83665C7.88086 4.89259 7.85864 4.94625 7.81908 4.9858C7.77952 5.02536 7.72587 5.04759 7.66992 5.04759C7.61398 5.04759 7.56033 5.02536 7.52077 4.9858C7.48121 4.94625 7.45898 4.89259 7.45898 4.83665V4.44407H7.29932C7.26038 4.4439 7.22267 4.43047 7.19239 4.406C7.1621 4.38154 7.14105 4.34749 7.13269 4.30947C7.12434 4.27144 7.12918 4.2317 7.14642 4.1968C7.16366 4.16189 7.19227 4.13389 7.22754 4.11741L10.0107 2.83274L11.5122 0.928445C11.526 0.910613 11.5431 0.895692 11.5627 0.88455C11.5823 0.873407 11.6038 0.866265 11.6262 0.86354C11.6485 0.860814 11.6712 0.862558 11.6929 0.868671C11.7146 0.874784 11.7348 0.885144 11.7524 0.899148C11.7665 0.909975 11.7788 0.922808 11.7891 0.937234L13.2451 2.84153L13.2554 2.85618L16.0151 4.11741C16.0486 4.12947 16.0775 4.15155 16.098 4.18065C16.1184 4.20975 16.1294 4.24444 16.1294 4.28001C16.1276 4.3227 16.11 4.36319 16.0799 4.39355C16.0498 4.4239 16.0095 4.44192 15.9668 4.44407H15.6738V4.83665C15.6738 4.89259 15.6516 4.94625 15.612 4.9858C15.5725 5.02536 15.5188 5.04759 15.4629 5.04759C15.4069 5.04759 15.3533 5.02536 15.3137 4.9858C15.2742 4.94625 15.252 4.89259 15.252 4.83665V4.44407H15.0454V4.83665C15.0454 4.86435 15.04 4.89178 15.0294 4.91737C15.0188 4.94296 15.0032 4.96622 14.9836 4.9858C14.964 5.00539 14.9408 5.02093 14.9152 5.03153C14.8896 5.04213 14.8622 5.04759 14.8345 5.04759C14.8068 5.04759 14.7793 5.04213 14.7537 5.03153C14.7282 5.02093 14.7049 5.00539 14.6853 4.9858C14.6657 4.96622 14.6502 4.94296 14.6396 4.91737C14.629 4.89178 14.6235 4.86435 14.6235 4.83665V4.44407H13.2817V5.23948L16.0151 6.46555C16.0539 6.47846 16.0867 6.50476 16.1078 6.53974C16.1289 6.57471 16.1367 6.61606 16.13 6.65633C16.1233 6.69661 16.1024 6.73316 16.0712 6.75942C16.0399 6.78567 16.0003 6.7999 15.9595 6.79954H15.6665V7.21702C15.6665 7.27296 15.6443 7.32662 15.6047 7.36617C15.5652 7.40573 15.5115 7.42796 15.4556 7.42796C15.3996 7.42796 15.346 7.40573 15.3064 7.36617C15.2669 7.32662 15.2446 7.27296 15.2446 7.21702V6.79954H15.0381V7.21702C15.0381 7.27296 15.0159 7.32662 14.9763 7.36617C14.9367 7.40573 14.8831 7.42796 14.8271 7.42796C14.7712 7.42796 14.7176 7.40573 14.678 7.36617C14.6384 7.32662 14.6162 7.27296 14.6162 7.21702V6.79954H13.2817V8.52366L14.2939 10.759L16.3447 10.9978V14.6907H0.439453V9.14182ZM3.52295 4.25071C3.54373 4.2985 3.54468 4.35258 3.52559 4.40107C3.5065 4.44955 3.46893 4.48847 3.42114 4.50926C3.37336 4.53004 3.31927 4.53099 3.27079 4.5119C3.2223 4.49281 3.18338 4.45523 3.1626 4.40745C3.11089 4.29273 3.09018 4.16646 3.10254 4.04124C3.11529 3.92978 3.15068 3.82211 3.20654 3.72483C3.21882 3.7021 3.23546 3.68201 3.25552 3.66573C3.27558 3.64944 3.29865 3.63728 3.32342 3.62993C3.34819 3.62258 3.37416 3.62019 3.39986 3.6229C3.42555 3.62561 3.45046 3.63337 3.47314 3.64573C3.49139 3.65546 3.50776 3.66835 3.52148 3.68382C3.64518 3.80055 3.79633 3.88419 3.96094 3.92698C4.03887 3.94575 4.12068 3.94013 4.19531 3.91087C4.25812 3.88126 4.30733 3.8289 4.33301 3.76438C4.38333 3.63542 4.39898 3.49552 4.37842 3.35862C4.37433 3.30707 4.39059 3.25597 4.42372 3.21627C4.45685 3.17656 4.50422 3.15142 4.55566 3.14622C4.59662 3.14214 4.63782 3.15115 4.67335 3.17194C4.70888 3.19273 4.73691 3.22423 4.75342 3.26194C4.81788 3.37538 4.90884 3.47152 5.01852 3.54218C5.12821 3.61284 5.25336 3.65591 5.3833 3.6677C5.50695 3.68608 5.63304 3.6791 5.75391 3.6472C5.85933 3.61993 5.95547 3.56477 6.03223 3.48753C6.10038 3.40489 6.14702 3.30666 6.16798 3.2016C6.18894 3.09655 6.18357 2.98795 6.15234 2.88548C6.14239 2.83442 6.15295 2.7815 6.18174 2.73818C6.21053 2.69486 6.25523 2.66463 6.30615 2.65403C6.3265 2.65038 6.34733 2.65038 6.36768 2.65403C6.51317 2.67107 6.66045 2.64452 6.79084 2.57776C6.92123 2.511 7.02886 2.40703 7.1001 2.27903C7.15034 2.18528 7.17699 2.0807 7.17773 1.97434C7.17884 1.87778 7.15405 1.78269 7.10596 1.69895C7.00781 1.53635 6.79688 1.42796 6.45996 1.46458C6.41466 1.46958 6.36904 1.45854 6.33103 1.43339C6.29302 1.40823 6.26504 1.37054 6.25195 1.32688C6.22753 1.2231 6.18152 1.12563 6.1169 1.04083C6.05229 0.956022 5.97053 0.885785 5.87695 0.834695C5.7919 0.793597 5.69667 0.778319 5.60303 0.79075C5.50677 0.805259 5.41565 0.843521 5.33789 0.902078C5.25853 0.96414 5.1935 1.0426 5.14724 1.13209C5.10098 1.22158 5.07457 1.32 5.06982 1.42063C5.06607 1.47247 5.04191 1.52071 5.00264 1.55476C4.96337 1.58881 4.9122 1.6059 4.86035 1.60227C4.81929 1.59917 4.7802 1.58342 4.74846 1.55718C4.71672 1.53095 4.69389 1.49553 4.68311 1.45579C4.63949 1.28519 4.54496 1.13191 4.41211 1.01634C4.31813 0.941733 4.20102 0.90235 4.08105 0.905007C3.95177 0.910446 3.8261 0.949307 3.71631 1.0178C3.56555 1.1087 3.44757 1.24514 3.37939 1.40745C3.35984 1.45556 3.32215 1.49405 3.27446 1.51461C3.22677 1.53516 3.17291 1.53613 3.12451 1.51731C3.10096 1.50803 3.07954 1.49408 3.06152 1.4763C2.92087 1.3257 2.72926 1.23277 2.52393 1.21555C2.43309 1.2127 2.34343 1.23664 2.26611 1.2844C2.18986 1.33315 2.13051 1.40426 2.09619 1.48802C2.02367 1.69738 2.02991 1.92599 2.11377 2.13108C2.12204 2.15541 2.12541 2.18114 2.12369 2.20677C2.12197 2.23241 2.1152 2.25746 2.10376 2.28047C2.09233 2.30348 2.07645 2.324 2.05705 2.34085C2.03765 2.35769 2.01511 2.37054 1.99072 2.37864H1.97607C1.87295 2.40005 1.77791 2.44999 1.70178 2.52276C1.62564 2.59553 1.57146 2.68821 1.54541 2.79026C1.52712 2.87078 1.52712 2.95437 1.54541 3.03489C1.56065 3.11475 1.59425 3.18997 1.64355 3.25462C1.75928 3.4011 1.97461 3.49778 2.29102 3.44944C2.33014 3.4427 2.3704 3.44798 2.40646 3.46459C2.44252 3.4812 2.4727 3.50835 2.49301 3.54247C2.51333 3.57658 2.52281 3.61606 2.52022 3.65568C2.51764 3.6953 2.50309 3.7332 2.47852 3.76438C2.41949 3.8566 2.37038 3.9548 2.33203 4.05735C2.29934 4.15173 2.28106 4.25049 2.27783 4.35032C2.28399 4.37895 2.28367 4.40859 2.27689 4.43708C2.27011 4.46557 2.25704 4.49217 2.23864 4.51496C2.22024 4.53774 2.19698 4.55611 2.17056 4.56874C2.14413 4.58136 2.11522 4.58791 2.08594 4.58791C2.05665 4.58791 2.02774 4.58136 2.00132 4.56874C1.9749 4.55611 1.95163 4.53774 1.93323 4.51496C1.91483 4.49217 1.90177 4.46557 1.89498 4.43708C1.8882 4.40859 1.88788 4.37895 1.89404 4.35032C1.89722 4.21113 1.92193 4.07326 1.96729 3.94163L1.99512 3.86253C1.86523 3.85253 1.73883 3.81574 1.62387 3.75448C1.50891 3.69321 1.40788 3.60881 1.32715 3.50657C1.24067 3.39426 1.18149 3.26337 1.1543 3.12425C1.12821 2.9841 1.13422 2.83986 1.17188 2.70237C1.20533 2.56371 1.27013 2.43457 1.3613 2.32487C1.45246 2.21517 1.56756 2.12783 1.69775 2.06956C1.63562 1.8267 1.65151 1.57045 1.74316 1.33714C1.80683 1.18109 1.91678 1.0483 2.0582 0.956637C2.19963 0.864973 2.36574 0.818837 2.53418 0.824441C2.75192 0.833948 2.96216 0.906744 3.13916 1.03391C3.24002 0.894439 3.36808 0.77684 3.51562 0.68821C3.68271 0.582366 3.87466 0.522256 4.07227 0.513894C4.28418 0.507869 4.4915 0.576286 4.6582 0.707253C4.72317 0.761286 4.78211 0.822187 4.83398 0.888894C4.9041 0.775231 4.99505 0.675833 5.10205 0.595925C5.23355 0.49321 5.38956 0.426564 5.55469 0.402566C5.72217 0.381241 5.89227 0.407645 6.04541 0.478738C6.28766 0.601181 6.47489 0.810383 6.56982 1.06468C6.74113 1.05176 6.9127 1.08586 7.06604 1.16331C7.21938 1.24075 7.34867 1.3586 7.43994 1.50413C7.52461 1.64888 7.56816 1.81399 7.56592 1.98167C7.56547 2.15124 7.52374 2.31816 7.44434 2.468C7.35919 2.6319 7.23395 2.77159 7.08027 2.87404C6.92659 2.9765 6.74947 3.03838 6.56543 3.05393C6.57431 3.18305 6.5568 3.31263 6.51399 3.43477C6.47118 3.55691 6.40395 3.66906 6.31641 3.76438C6.19123 3.89389 6.03329 3.98704 5.85938 4.03391C5.6675 4.08447 5.46685 4.09217 5.27167 4.05648C5.07648 4.02078 4.89154 3.94256 4.72998 3.82737C4.71849 3.86544 4.70429 3.90265 4.6875 3.9387C4.62173 4.08829 4.50193 4.20756 4.35205 4.27268C4.20557 4.33364 4.04363 4.34697 3.88916 4.31077C3.74873 4.28045 3.6148 4.22539 3.49365 4.14817C3.49812 4.18365 3.508 4.21823 3.52295 4.25071ZM1.53369 6.82884L1.44434 7.69895H3.68555L3.59619 6.82884H1.53369ZM9.58887 10.2097L10.0107 10.258L11.3027 9.46555L10.2246 8.80491L9.58887 10.2097ZM10.5615 10.3225L13.1982 10.6301L11.6309 9.6677L10.5615 10.3225ZM10.3213 8.05051L11.439 6.76878L10.3462 5.52219H10.3213V8.05051ZM11.6294 6.54759L12.5347 5.52219H10.7271L11.6294 6.54759ZM12.9155 5.52219L11.8198 6.77757L12.936 8.05784V5.52219H12.9155ZM11.6294 6.98704L10.4106 8.38303H12.8481L11.6294 6.98704ZM10.3213 4.97874L11.3687 4.09983L10.3213 3.22093V4.97874ZM11.6294 3.8845L12.4966 3.1594H10.7637L11.6294 3.8845ZM12.936 3.22825L11.8901 4.10716L12.936 4.98606V3.22825ZM11.6309 4.32102L10.6157 5.17063H12.6431L11.6309 4.32102ZM11.6309 9.26487L12.5024 8.7302H10.7578L11.6367 9.26487H11.6309ZM13.0371 8.80637L11.9634 9.46555L13.8677 10.6374L13.0371 8.80637ZM13.2861 4.1013H15.1758L13.2861 3.23704V4.1013ZM9.98145 3.22239L8.0874 4.1013H9.97705V3.22239H9.98145ZM13.2861 5.61009V6.44944H15.1611L13.2861 5.61009ZM9.97705 6.4553V5.59983L8.0918 6.4553H9.97705ZM12.7808 2.79319L11.647 1.30637L10.4751 2.7888L12.7808 2.79319ZM0 14.9939H18V15.6047H0V14.9939ZM2.45068 11.7859H3.76904C3.81763 11.7859 3.8643 11.8048 3.89906 11.8388C3.93382 11.8727 3.95393 11.9189 3.95508 11.9675V13.636C3.95508 13.6849 3.93563 13.7319 3.90102 13.7665C3.86641 13.8011 3.81946 13.8205 3.77051 13.8205H2.45215C2.4032 13.8205 2.35625 13.8011 2.32164 13.7665C2.28702 13.7319 2.26758 13.6849 2.26758 13.636V11.9675C2.26796 11.9187 2.28753 11.872 2.32206 11.8374C2.35659 11.8029 2.40332 11.7833 2.45215 11.7829L2.45068 11.7859ZM6.27686 11.7859H7.59521C7.64431 11.7851 7.69172 11.8037 7.72712 11.8378C7.76252 11.8718 7.78303 11.9184 7.78418 11.9675V13.636C7.78418 13.6849 7.76473 13.7319 7.73012 13.7665C7.69551 13.8011 7.64856 13.8205 7.59961 13.8205H6.28125C6.25689 13.8207 6.23273 13.8161 6.21017 13.8069C6.18761 13.7977 6.16709 13.7842 6.14979 13.767C6.1325 13.7498 6.11877 13.7294 6.1094 13.7069C6.10004 13.6844 6.09521 13.6603 6.09521 13.636V11.9675C6.0956 11.9184 6.11537 11.8715 6.15022 11.8369C6.18507 11.8023 6.23216 11.7829 6.28125 11.7829L6.27686 11.7859Z" fill="black"/>
</svg>
