<svg width="18" height="20" viewBox="0 0 18 20" fill="none" xmlns="http://www.w3.org/2000/svg">
<path fill-rule="evenodd" clip-rule="evenodd" d="M2.86411 13.7825H4.85466V13.4881H4.25797C3.91206 13.4877 3.58043 13.3501 3.33583 13.1055C3.09123 12.8609 2.95363 12.5293 2.95321 12.1833V6.61425C2.95406 6.44245 2.98879 6.2725 3.05541 6.11414C3.12203 5.95578 3.21924 5.81212 3.34146 5.69138C3.46214 5.56985 3.60567 5.47341 3.76379 5.4076C3.9219 5.34178 4.09148 5.3079 4.26274 5.3079H8.39979C8.41123 5.31064 8.42241 5.31436 8.4332 5.31904C8.72171 5.31965 9.00762 5.3736 9.27652 5.47816C9.37242 5.51831 9.46409 5.56788 9.5502 5.62614L15.525 0.333906C15.5881 0.278438 15.6686 0.246898 15.7526 0.244801H16.9905C17.0373 0.229944 17.0867 0.2251 17.1355 0.230583C17.1843 0.236065 17.2314 0.251752 17.2737 0.276624C17.3507 0.321177 17.4081 0.392991 17.4346 0.477855C17.4611 0.562718 17.4548 0.654445 17.4169 0.734881C17.4169 4.16385 17.4074 7.59919 17.4074 11.0266C17.5277 11.0729 17.6363 11.1452 17.7256 11.2382C17.8345 11.3469 17.9148 11.4808 17.9595 11.6279C18.0043 11.7751 18.0121 11.931 17.9822 12.0819C17.9523 12.2328 17.8856 12.374 17.7882 12.493C17.6907 12.612 17.5654 12.7051 17.4233 12.7641C17.4264 12.8239 17.4422 12.8824 17.4696 12.9356C17.497 12.9888 17.5355 13.0356 17.5824 13.0728C17.7619 13.2131 17.891 13.4081 17.95 13.6281C18.0074 13.822 18.0003 14.0292 17.9297 14.2186C17.8591 14.408 17.7288 14.5693 17.5586 14.6783C17.3708 14.8118 17.1514 14.8941 16.9221 14.917C16.678 14.9427 16.4319 14.8927 16.2172 14.7738C15.8306 14.5542 15.5457 14.0943 15.5966 13.3115L16.2745 13.3544C16.2443 13.8318 16.3731 14.08 16.5529 14.1819C16.6457 14.2324 16.7519 14.253 16.8569 14.2407C16.9672 14.2298 17.0728 14.1909 17.164 14.1278C17.2162 14.0972 17.2575 14.0509 17.2818 13.9954C17.3061 13.94 17.3122 13.8782 17.2992 13.8191C17.2716 13.7257 17.2161 13.6429 17.1401 13.582C16.9635 13.4229 16.7932 13.2749 16.7455 12.7864C16.6181 12.7391 16.5024 12.6647 16.4066 12.5684C16.3194 12.4816 16.2502 12.3785 16.203 12.2649C16.1558 12.1513 16.1315 12.0295 16.1315 11.9065C16.1315 11.7835 16.1558 11.6617 16.203 11.5481C16.2502 11.4345 16.3194 11.3313 16.4066 11.2446C16.4932 11.1536 16.5985 11.0825 16.7152 11.0361C16.7152 8.01607 16.7152 4.99285 16.7152 1.96645L12.4461 9.34629L12.435 9.36539C12.4763 9.51409 12.4972 9.66772 12.497 9.82205V12.1833C12.4968 12.3543 12.4627 12.5236 12.3969 12.6814C12.3311 12.8392 12.2348 12.9825 12.1136 13.103C11.993 13.2243 11.8497 13.3206 11.6919 13.3864C11.5341 13.4522 11.3649 13.4862 11.1939 13.4865H10.5574V13.7809H12.1581C12.9168 13.7838 13.6436 14.0865 14.1801 14.623C14.7166 15.1595 15.0193 15.8863 15.0222 16.645V16.9075C15.0193 17.6662 14.7166 18.393 14.1801 18.9295C13.6436 19.466 12.9168 19.7687 12.1581 19.7716H2.86411C2.1054 19.7687 1.37861 19.466 0.842118 18.9295C0.305629 18.393 0.00293344 17.6662 0 16.9075L0 16.645C0.00293344 15.8863 0.305629 15.1595 0.842118 14.623C1.37861 14.0865 2.1054 13.7838 2.86411 13.7809V13.7825ZM10.0578 6.11463L11.9672 8.53002L12.0452 4.35002L10.0578 6.11463ZM11.7747 10.4728H8.02586L7.30983 6.02552H4.25797C4.10225 6.02552 3.95291 6.08738 3.8428 6.19749C3.73269 6.3076 3.67083 6.45694 3.67083 6.61266V12.1818C3.67125 12.3373 3.73324 12.4864 3.84326 12.5965C3.95328 12.7065 4.10238 12.7685 4.25797 12.7689H11.1939C11.3481 12.7668 11.4953 12.7043 11.6039 12.5948C11.7125 12.4853 11.7738 12.3376 11.7747 12.1833V10.4728ZM15.1161 1.64503L15.2752 3.02935L16.475 0.960827H15.8926L15.1161 1.64503ZM14.6388 4.14953L12.6148 4.2641L12.5496 7.76467L14.6388 4.14953ZM12.7946 3.69605L14.7836 3.58308L14.6038 2.09374L12.7946 3.69605ZM3.46716 15.5264C3.70602 15.5264 3.93952 15.5972 4.13812 15.7299C4.33673 15.8626 4.49152 16.0513 4.58293 16.2719C4.67433 16.4926 4.69825 16.7354 4.65165 16.9697C4.60505 17.204 4.49003 17.4192 4.32113 17.5881C4.15223 17.757 3.93704 17.872 3.70277 17.9186C3.4685 17.9652 3.22567 17.9413 3.00499 17.8499C2.78432 17.7585 2.5957 17.6037 2.463 17.4051C2.33029 17.2065 2.25946 16.973 2.25946 16.7341C2.25946 16.4138 2.3867 16.1066 2.61319 15.8801C2.83968 15.6536 3.14686 15.5264 3.46716 15.5264ZM7.5135 15.5264C7.75237 15.5264 7.98586 15.5972 8.18447 15.7299C8.38307 15.8626 8.53786 16.0513 8.62927 16.2719C8.72068 16.4926 8.7446 16.7354 8.698 16.9697C8.6514 17.204 8.53638 17.4192 8.36748 17.5881C8.19858 17.757 7.98339 17.872 7.74911 17.9186C7.51484 17.9652 7.27202 17.9413 7.05134 17.8499C6.83066 17.7585 6.64204 17.6037 6.50934 17.4051C6.37664 17.2065 6.30581 16.973 6.30581 16.7341C6.3056 16.5754 6.33669 16.4183 6.39731 16.2717C6.45793 16.1251 6.54688 15.9918 6.65907 15.8797C6.77125 15.7675 6.90447 15.6785 7.05109 15.6179C7.19771 15.5573 7.35485 15.5262 7.5135 15.5264ZM11.5583 15.5264C11.7971 15.5264 12.0306 15.5972 12.2292 15.7299C12.4278 15.8626 12.5826 16.0513 12.674 16.2719C12.7654 16.4926 12.7894 16.7354 12.7428 16.9697C12.6962 17.204 12.5811 17.4192 12.4122 17.5881C12.2433 17.757 12.0281 17.872 11.7939 17.9186C11.5596 17.9652 11.3168 17.9413 11.0961 17.8499C10.8754 17.7585 10.6868 17.6037 10.5541 17.4051C10.4214 17.2065 10.3506 16.973 10.3506 16.7341C10.3506 16.5755 10.3818 16.4185 10.4425 16.2719C10.5032 16.1254 10.5921 15.9923 10.7043 15.8801C10.8164 15.768 10.9496 15.679 11.0961 15.6183C11.2426 15.5576 11.3997 15.5264 11.5583 15.5264ZM2.84183 14.7531H12.1836C13.1622 14.7531 13.9625 15.6648 13.9625 16.7802C13.9625 17.8941 13.1669 18.809 12.1836 18.809H2.84183C1.86326 18.809 1.0629 17.8893 1.0629 16.7755C1.0629 15.6616 1.85849 14.7483 2.84183 14.7483V14.7531Z" fill="black"/>
</svg>
