<svg width="18" height="16" viewBox="0 0 18 16" fill="none" xmlns="http://www.w3.org/2000/svg">
<path fill-rule="evenodd" clip-rule="evenodd" d="M0.453995 8.30196H3.11938C3.23967 8.30235 3.35492 8.3503 3.43998 8.43536C3.52504 8.52042 3.57299 8.63567 3.57338 8.75595V14.2039C3.57299 14.3242 3.52504 14.4394 3.43998 14.5245C3.35492 14.6095 3.23967 14.6575 3.11938 14.6579H0.453995C0.333707 14.6575 0.218456 14.6095 0.133399 14.5245C0.0483416 14.4394 0.000386161 14.3242 0 14.2039L0 8.75595C0.000386161 8.63567 0.0483416 8.52042 0.133399 8.43536C0.218456 8.3503 0.333707 8.30235 0.453995 8.30196ZM4.16211 14.1248V8.81893H6.99591C8.00935 9.00053 9.02278 9.55118 10.0348 10.1882H11.8917C12.7309 10.238 13.1717 11.0904 12.356 11.6527C11.7043 12.1302 10.8461 12.1023 9.96592 12.0247C9.35815 11.994 9.33179 12.8097 9.96592 12.8126C10.1856 12.8302 10.4243 12.7789 10.6337 12.7775C11.7321 12.7775 12.6372 12.5666 13.1907 11.6996L13.4734 11.0391L16.234 9.6698C17.6165 9.21581 18.5977 10.6613 17.5799 11.6659C15.6538 13.072 13.5935 14.2841 11.429 15.2847C9.90588 16.2117 8.38133 16.1795 6.85825 15.2847L4.16357 14.1248H4.16211ZM9.0799 1.15227C9.06303 1.13842 9.04363 1.12797 9.02278 1.12152C9.00736 1.118 8.99134 1.118 8.97592 1.12152C8.93447 1.12568 8.8962 1.14561 8.86901 1.17717L8.49849 1.61652C8.46547 1.65624 8.41973 1.68333 8.36902 1.69321C8.31832 1.70308 8.26576 1.69513 8.22024 1.67071C8.17044 1.64434 8.11772 1.61945 8.065 1.59748C8.01228 1.57551 7.9493 1.55208 7.89365 1.53304C7.838 1.514 7.78089 1.49789 7.71498 1.47886C7.64908 1.45982 7.59343 1.44517 7.53632 1.43199C7.48898 1.41997 7.44683 1.39291 7.4162 1.35488C7.38557 1.31685 7.3681 1.26991 7.36643 1.2211L7.31078 0.61773C7.30846 0.596377 7.30252 0.575576 7.29321 0.556221C7.28421 0.540434 7.27285 0.526112 7.25952 0.513751C7.24628 0.501592 7.23015 0.493022 7.21266 0.488854C7.1929 0.484337 7.17238 0.484337 7.15262 0.488854L6.37497 0.565008C6.35418 0.567805 6.33394 0.57373 6.31492 0.582582C6.29588 0.592975 6.27898 0.60689 6.26513 0.623588C6.25358 0.638033 6.24466 0.65439 6.23877 0.671917C6.23576 0.687885 6.23576 0.704276 6.23877 0.720245L6.29296 1.28994C6.29799 1.34265 6.28431 1.39546 6.25433 1.4391C6.22434 1.48275 6.17995 1.51445 6.12893 1.52865C6.08207 1.54476 6.02935 1.5638 5.9693 1.58869C5.90926 1.61359 5.858 1.63849 5.81113 1.66338H5.80235C5.75255 1.68974 5.69983 1.71757 5.6559 1.74686H5.64125C5.59146 1.77615 5.54313 1.8069 5.4948 1.83766C5.45483 1.86409 5.40751 1.8772 5.35963 1.87509C5.31175 1.87299 5.26577 1.85578 5.22826 1.82594L4.72155 1.43346C4.70612 1.42105 4.68882 1.41116 4.67029 1.40417C4.65582 1.40094 4.64082 1.40094 4.62635 1.40417C4.60543 1.40716 4.58514 1.41359 4.56631 1.4232H4.55752C4.54394 1.43283 4.53164 1.44415 4.52091 1.45689L4.0303 2.05294C4.01552 2.07074 4.00411 2.09109 3.99662 2.11298C3.99372 2.12847 3.99372 2.14436 3.99662 2.15985V2.1701C3.99815 2.1875 4.00313 2.20443 4.01126 2.21989V2.22722C4.02096 2.24163 4.03282 2.25447 4.04641 2.26529L4.48576 2.63581C4.52607 2.66874 4.55357 2.71476 4.56347 2.76587C4.57337 2.81697 4.56505 2.86993 4.53995 2.91553C4.51366 2.96315 4.48971 3.01202 4.46819 3.06198C4.44384 3.11797 4.42233 3.17516 4.40375 3.23333C4.38618 3.28751 4.36714 3.34609 4.3481 3.412C4.32906 3.4779 4.31442 3.53501 4.30124 3.59066C4.29216 3.63867 4.26765 3.68239 4.23143 3.71517C4.19521 3.74796 4.14927 3.768 4.1006 3.77226L3.49576 3.82791C3.47487 3.83022 3.45455 3.83617 3.43572 3.84549C3.41917 3.85461 3.40431 3.8665 3.39178 3.88064C3.38039 3.89441 3.37192 3.91035 3.36688 3.9275C3.36294 3.94683 3.36294 3.96675 3.36688 3.98608L3.44304 4.76373C3.44515 4.78512 3.4511 4.80596 3.46061 4.82524C3.47039 4.84428 3.48382 4.8612 3.50015 4.87503C3.51496 4.88603 3.53122 4.8949 3.54848 4.90139C3.56641 4.90448 3.58474 4.90448 3.60267 4.90139L4.17236 4.84721C4.22369 4.84401 4.27455 4.85856 4.31642 4.88843C4.35829 4.9183 4.3886 4.96165 4.40229 5.01123C4.4184 5.05809 4.4389 5.11228 4.4638 5.17086C4.48869 5.22944 4.51212 5.2807 4.53848 5.33049L4.54874 5.35099C4.57217 5.39639 4.59853 5.44619 4.62782 5.49744L4.72594 5.65854C4.75129 5.69852 4.76351 5.74542 4.76088 5.79269C4.75826 5.83996 4.74092 5.88522 4.7113 5.92215L4.30563 6.42154C4.29496 6.43603 4.2861 6.45176 4.27927 6.46841C4.27697 6.48247 4.27697 6.49681 4.27927 6.51088C4.28118 6.53231 4.28714 6.55318 4.29684 6.57239C4.30631 6.58996 4.31927 6.6054 4.33492 6.61779C4.53702 6.7862 4.74498 6.95169 4.94562 7.12157C4.95899 7.1312 4.97382 7.13862 4.98955 7.14354C5.00791 7.14733 5.02684 7.14733 5.0452 7.14354C5.06749 7.14119 5.08925 7.13526 5.10964 7.12597H5.11696C5.13084 7.11664 5.14405 7.10636 5.1565 7.09521L5.52263 6.65586C5.55554 6.61555 5.60145 6.58794 5.65249 6.57779C5.70353 6.56763 5.75652 6.57556 5.80235 6.60021C5.85281 6.62725 5.90462 6.65169 5.95758 6.67344C6.0147 6.69833 6.07182 6.71884 6.12893 6.73787C6.18605 6.75691 6.24023 6.77449 6.3076 6.79352C6.37497 6.81256 6.42915 6.82721 6.48627 6.84039C6.53453 6.85136 6.5778 6.878 6.60933 6.91615C6.64086 6.9543 6.65886 7.00181 6.66054 7.05128L6.7162 7.64733C6.71853 7.6684 6.725 7.68881 6.73523 7.70737C6.74334 7.72417 6.7548 7.73912 6.76892 7.75131C6.78307 7.76212 6.7989 7.77053 6.81578 7.7762C6.83562 7.78 6.85599 7.78 6.87583 7.7762L7.65201 7.70005C7.67387 7.69793 7.69518 7.69198 7.71498 7.68248C7.7324 7.67337 7.74823 7.6615 7.76185 7.64733C7.77505 7.63111 7.78545 7.61279 7.7926 7.59314C7.79707 7.57585 7.79707 7.55771 7.7926 7.54042L7.73988 6.96926C7.73459 6.91946 7.74614 6.86932 7.77269 6.82684C7.79923 6.78437 7.83924 6.75202 7.88633 6.73495C7.94345 6.71591 8.00056 6.69394 8.05621 6.67051H8.07379C8.12065 6.65 8.16751 6.62657 8.22024 6.60021H8.22902C8.28467 6.57239 8.33886 6.5431 8.38719 6.51381L8.54975 6.41568C8.58951 6.39022 8.63633 6.37806 8.68345 6.38096C8.73057 6.38385 8.77555 6.40166 8.81189 6.43179L9.3069 6.836C9.3217 6.84699 9.33796 6.85587 9.35522 6.86236C9.37063 6.86603 9.38668 6.86603 9.40209 6.86236C9.42302 6.86135 9.4435 6.85585 9.46213 6.84625C9.47887 6.8356 9.49372 6.82223 9.50607 6.80671C9.67449 6.6046 9.83997 6.39665 10.0099 6.19601C10.0197 6.18333 10.0272 6.16893 10.0318 6.15354C10.0349 6.13512 10.0349 6.11631 10.0318 6.09789C10.0293 6.07564 10.0234 6.05391 10.0142 6.03345C10.0048 6.01588 9.99239 6.00003 9.97764 5.98659L9.53829 5.62925C9.49713 5.59664 9.46883 5.55054 9.45838 5.49909C9.44793 5.44763 9.456 5.39414 9.48117 5.34806C9.50821 5.2976 9.53265 5.24579 9.5544 5.19283C9.57929 5.13278 9.60126 5.07567 9.61883 5.02295C9.63641 4.97022 9.65398 4.90871 9.67302 4.84281C9.69206 4.77691 9.7067 4.72272 9.71988 4.66414C9.73104 4.61517 9.75833 4.57136 9.79737 4.53976C9.83641 4.50815 9.88494 4.49058 9.93517 4.48987L10.5444 4.42543C10.5658 4.42311 10.5866 4.41717 10.6059 4.40786C10.6214 4.39838 10.6356 4.38707 10.6484 4.37417C10.6592 4.36002 10.6676 4.34419 10.6733 4.32731C10.6764 4.30889 10.6764 4.29007 10.6733 4.27166L10.5971 3.49547C10.5946 3.47463 10.5886 3.45435 10.5795 3.43543V3.42664C10.5695 3.41122 10.5571 3.3974 10.5429 3.38563C10.5285 3.37409 10.5121 3.36517 10.4946 3.35927C10.4786 3.35626 10.4622 3.35626 10.4463 3.35927L9.87073 3.40028C9.821 3.40506 9.77108 3.39329 9.72872 3.36682C9.68635 3.34034 9.65391 3.30062 9.63641 3.25383C9.61737 3.19964 9.59687 3.14253 9.57051 3.08395C9.54414 3.02537 9.51925 2.96386 9.49435 2.91553V2.90528C9.46952 2.8551 9.44214 2.80622 9.41234 2.75883C9.38305 2.70904 9.34937 2.65924 9.31568 2.61238C9.28819 2.5719 9.27461 2.52358 9.27699 2.47471C9.27937 2.42584 9.29757 2.37906 9.32886 2.34145L9.73014 1.84498C9.74284 1.82975 9.75276 1.8124 9.75943 1.79372C9.76253 1.77974 9.76253 1.76524 9.75943 1.75125C9.75641 1.72986 9.74998 1.7091 9.74039 1.68974V1.67949C9.73179 1.66643 9.72144 1.6546 9.70963 1.64434L9.16045 1.19328C9.13098 1.18551 9.10352 1.17152 9.0799 1.15227ZM15.14 4.75494C15.1169 4.73528 15.0901 4.72048 15.0612 4.71142C15.0322 4.70237 15.0018 4.69923 14.9716 4.70222C14.911 4.70908 14.8554 4.73897 14.8163 4.7857L14.5923 5.05663C14.5211 5.01977 14.4471 4.98843 14.3711 4.9629C14.2921 4.938 14.2247 4.91604 14.1397 4.897L14.1046 4.51916C14.0992 4.45882 14.0703 4.40304 14.024 4.36392C14.0012 4.34454 13.9745 4.33022 13.9457 4.32189C13.917 4.31356 13.8868 4.31142 13.8571 4.31559L13.3797 4.36246C13.3229 4.37014 13.2708 4.39825 13.2332 4.44154C13.2133 4.46449 13.1984 4.49129 13.1893 4.52026C13.1803 4.54924 13.1773 4.57977 13.1805 4.60996L13.2127 4.95704C13.1354 4.98207 13.0604 5.01393 12.9886 5.05223C12.9175 5.08734 12.849 5.12748 12.7836 5.17232L12.4819 4.92922C12.4601 4.90896 12.4341 4.89364 12.4058 4.88429C12.3775 4.87494 12.3475 4.87178 12.3179 4.87503C12.257 4.88197 12.2013 4.91246 12.1627 4.95997L11.8698 5.32463C11.8502 5.34774 11.8354 5.37454 11.8263 5.40344C11.8172 5.43235 11.814 5.46278 11.8169 5.49294C11.8198 5.52311 11.8286 5.55239 11.843 5.57907C11.8574 5.60575 11.8769 5.62928 11.9005 5.64829L12.1553 5.87235C12.1184 5.94331 12.0875 6.01729 12.0631 6.09349C12.0367 6.17258 12.0148 6.23994 11.9957 6.32489L11.6179 6.36003C11.5577 6.36584 11.502 6.3947 11.4626 6.44058C11.4447 6.46435 11.4319 6.49161 11.4251 6.52061C11.4183 6.54961 11.4176 6.57972 11.4231 6.609L11.47 7.08496C11.4758 7.14473 11.5047 7.19987 11.5505 7.23873C11.5731 7.25873 11.5996 7.27375 11.6284 7.28283C11.6571 7.29191 11.6875 7.29485 11.7175 7.29145L12.0645 7.25924C12.0885 7.33585 12.1189 7.41031 12.1553 7.48184C12.1916 7.5542 12.2317 7.62459 12.2754 7.69273L12.0323 7.98563C12.0122 8.00756 11.9971 8.03357 11.988 8.06188C11.9789 8.09019 11.9761 8.12013 11.9796 8.14965C11.988 8.20723 12.0178 8.25952 12.0631 8.2961L12.4336 8.6139C12.4569 8.63308 12.4838 8.64727 12.5128 8.65558C12.5418 8.66389 12.5721 8.66616 12.602 8.66223C12.6627 8.65638 12.7191 8.62819 12.7602 8.58314L12.9857 8.30782C13.0565 8.34555 13.1305 8.37691 13.2069 8.40155C13.2827 8.42776 13.36 8.44976 13.4382 8.46745L13.4734 8.84675C13.4797 8.90639 13.5085 8.96138 13.5539 9.00053C13.577 9.02004 13.6039 9.03454 13.6329 9.04311C13.6619 9.05169 13.6924 9.05414 13.7224 9.05032L14.1983 9.00346C14.2579 8.99699 14.3129 8.96822 14.3521 8.92291C14.372 8.89996 14.3869 8.87316 14.396 8.84419C14.4051 8.81521 14.4081 8.78468 14.4048 8.75449L14.3711 8.4074C14.4487 8.38291 14.5237 8.35103 14.5952 8.31221C14.6672 8.27666 14.7371 8.23705 14.8046 8.19359L15.0975 8.43669C15.1205 8.45657 15.1473 8.47151 15.1762 8.48058C15.2052 8.48965 15.2358 8.49266 15.2659 8.48942C15.2961 8.48664 15.3254 8.47781 15.3521 8.46347C15.3787 8.44913 15.4022 8.42956 15.4212 8.40594L15.7258 8.03689C15.745 8.01361 15.7593 7.9867 15.7679 7.95776C15.7764 7.92882 15.7791 7.89845 15.7756 7.86847C15.7699 7.80739 15.7411 7.7508 15.695 7.7103L15.4197 7.4877C15.4612 7.4174 15.496 7.34337 15.5237 7.26656C15.5497 7.19113 15.5717 7.11438 15.5896 7.03663L15.9689 7.00148C16.0261 6.99396 16.0784 6.96521 16.1154 6.92094C16.1349 6.89789 16.1495 6.871 16.1581 6.842C16.1666 6.81299 16.1691 6.78251 16.1651 6.75252L16.1183 6.27656C16.1101 6.21959 16.0815 6.16754 16.0377 6.13011C16.0149 6.10997 15.9882 6.09476 15.9592 6.08544C15.9302 6.07611 15.8996 6.07287 15.8693 6.07592L15.5222 6.1096C15.4961 6.03265 15.4643 5.95775 15.427 5.88554C15.3935 5.81361 15.3533 5.74497 15.307 5.68051L15.5515 5.37882C15.5712 5.35663 15.5861 5.33059 15.5951 5.30235C15.6042 5.27411 15.6073 5.2443 15.6042 5.21479C15.5974 5.15425 15.5675 5.09866 15.5208 5.05956L15.1546 4.75934H15.1429L15.14 4.75494ZM13.6931 5.7552C13.8173 5.74394 13.9425 5.75636 14.0621 5.79181C14.1768 5.82828 14.2836 5.8859 14.377 5.96169C14.4698 6.03841 14.5469 6.13241 14.604 6.23848C14.6637 6.34736 14.6996 6.46765 14.7094 6.59142C14.7208 6.71565 14.7083 6.8409 14.6728 6.96048C14.639 7.07554 14.5828 7.18277 14.5074 7.27602C14.432 7.36927 14.3389 7.44668 14.2335 7.50381C14.1242 7.56231 14.0041 7.5977 13.8805 7.60779C13.7563 7.61986 13.6309 7.60742 13.5115 7.57117C13.3965 7.53521 13.2892 7.4781 13.1951 7.40276C13.1031 7.32504 13.0266 7.23063 12.9696 7.1245C12.9066 7.01547 12.8681 6.89403 12.8568 6.76863C12.8372 6.58588 12.8727 6.40143 12.9588 6.23907C13.045 6.0767 13.1778 5.94387 13.3401 5.85771C13.4489 5.79769 13.5692 5.76173 13.6931 5.75227V5.7552ZM9.16191 0.690955C9.21316 0.707057 9.26232 0.729178 9.30836 0.756858C9.34063 0.764584 9.37069 0.779615 9.39623 0.800793L9.98642 1.2914C10.0412 1.33627 10.0877 1.39028 10.1241 1.45103L10.1358 1.47007C10.1731 1.53914 10.197 1.61469 10.2061 1.69267C10.2163 1.77455 10.2078 1.85767 10.1812 1.93578C10.158 2.0044 10.1228 2.06836 10.0772 2.1247L9.77554 2.49961L9.79457 2.53037C9.83298 2.59473 9.8677 2.66123 9.89855 2.72954C9.9337 2.79788 9.96299 2.86086 9.98642 2.91846L9.99814 2.94775L10.3936 2.90967C10.4703 2.90078 10.5481 2.90776 10.622 2.93018H10.6337C10.7016 2.95268 10.7651 2.98687 10.8212 3.03123L10.8417 3.0488C10.894 3.0947 10.9381 3.14918 10.972 3.20989L10.9837 3.22893C11.0174 3.29532 11.0388 3.36727 11.0467 3.44129C11.0467 3.63753 11.0965 4.0183 11.1229 4.22333C11.1316 4.2974 11.1262 4.37245 11.1068 4.44447V4.45765C11.0844 4.53316 11.047 4.60339 10.9969 4.66414C10.9488 4.72373 10.8896 4.77346 10.8227 4.81059C10.7531 4.8463 10.6777 4.86913 10.6 4.87796L10.1343 4.91897L10.1226 4.96144C10.1065 5.02002 10.086 5.08592 10.0596 5.16061C10.0333 5.2353 10.0113 5.30706 9.98642 5.36124L9.97471 5.38614L10.2954 5.64536C10.3563 5.69799 10.4061 5.76221 10.4419 5.83428C10.4686 5.89857 10.4845 5.96688 10.4887 6.03638V6.0437C10.4986 6.12229 10.4921 6.20206 10.4697 6.27802C10.4494 6.34937 10.4161 6.41638 10.3716 6.47573L9.86048 7.09375C9.81166 7.15379 9.75143 7.20356 9.68327 7.2402C9.61422 7.27882 9.53794 7.30275 9.4592 7.31049C9.38109 7.31957 9.30195 7.3131 9.22635 7.29145H9.21463C9.14798 7.26883 9.0856 7.23517 9.0301 7.19187L8.6508 6.88286L8.61272 6.90483C8.54828 6.9429 8.48531 6.97659 8.42527 7.00588C8.36522 7.03517 8.31396 7.06153 8.25392 7.08789L8.2012 7.10546L8.2422 7.50088C8.25128 7.58228 8.24279 7.66468 8.21731 7.74252C8.1926 7.81467 8.15488 7.88168 8.10601 7.94023L8.09722 7.94902C8.04983 8.00231 7.9939 8.04735 7.93173 8.08228H7.91709C7.85105 8.11555 7.77966 8.13687 7.7062 8.14526C7.50995 8.14526 7.12918 8.19652 6.92415 8.22288C6.84555 8.23155 6.76601 8.22508 6.68983 8.20384C6.6142 8.18104 6.54396 8.14318 6.48334 8.09254H6.47602C6.41969 8.04258 6.37259 7.98309 6.33689 7.9168C6.30031 7.84762 6.27744 7.77204 6.26952 7.69419L6.22705 7.22995L6.18605 7.21823L5.98688 7.15526C5.91658 7.13182 5.84042 7.10693 5.78624 7.08057L5.75841 7.06885L5.4948 7.38958C5.44649 7.44429 5.38838 7.48949 5.32346 7.52285L5.30735 7.5331C5.24301 7.56324 5.1743 7.58301 5.10378 7.59168H5.09646C5.01739 7.60143 4.93716 7.59495 4.86067 7.57264C4.79032 7.55135 4.72435 7.51762 4.6659 7.47305L4.04641 6.96194C3.98669 6.91281 3.93697 6.85265 3.89996 6.78474C3.86261 6.7162 3.83875 6.64113 3.82967 6.5636C3.82018 6.48461 3.82869 6.40451 3.85456 6.32928C3.87623 6.26177 3.90997 6.19875 3.95415 6.14329L4.26316 5.76398L4.24705 5.72737C4.21483 5.67318 4.18408 5.6146 4.15332 5.55309C4.11671 5.48573 4.08595 5.42129 4.05813 5.35539L4.04495 5.3217L3.65246 5.35832C3.57165 5.36784 3.48973 5.35985 3.41228 5.33488C3.34404 5.31249 3.2805 5.27774 3.22483 5.23237L3.20286 5.21626C3.14316 5.1648 3.09351 5.10273 3.05641 5.0332C3.02294 4.96725 3.00161 4.89581 2.99344 4.82231C2.99344 4.6246 2.94218 4.24969 2.91582 4.04173C2.90377 3.96112 2.90825 3.87891 2.929 3.80009C2.9518 3.72446 2.98966 3.65422 3.0403 3.59359C3.08972 3.53473 3.14923 3.48514 3.21604 3.44714C3.28532 3.41108 3.3609 3.3887 3.43865 3.38124L3.90289 3.33877L3.91461 3.2963C3.93218 3.23918 3.95268 3.17182 3.97758 3.09859C4.00248 3.02537 4.02737 2.95214 4.05227 2.89649L4.06399 2.86867L3.76376 2.61384C3.70567 2.5688 3.65607 2.51375 3.61731 2.45128L3.60853 2.43664C3.575 2.37186 3.55412 2.30128 3.54702 2.22868V2.21696C3.53869 2.13759 3.54666 2.05736 3.57045 1.98118C3.59477 1.90559 3.63357 1.83546 3.68468 1.77468L4.17529 1.1757C4.22011 1.12074 4.27473 1.07456 4.33638 1.03951L4.35396 1.02779C4.42269 0.989661 4.4984 0.965755 4.57656 0.957494C4.65699 0.947277 4.73869 0.955797 4.81528 0.98239C4.88378 1.00588 4.9477 1.04106 5.0042 1.08637L5.38057 1.38952L5.41865 1.36023C5.47869 1.32508 5.5402 1.29286 5.60171 1.26211C5.66322 1.23136 5.73059 1.19767 5.79063 1.17131L5.82578 1.15813L5.78624 0.76418C5.77735 0.687426 5.78433 0.609663 5.80674 0.535718V0.524002C5.82924 0.456105 5.86344 0.392664 5.90779 0.336546L5.92976 0.32483C5.98016 0.265223 6.04125 0.215554 6.10989 0.17838C6.176 0.143479 6.248 0.121134 6.32224 0.112478C6.51849 0.112478 6.89926 0.0626847 7.10429 0.0363237C7.18288 0.0267708 7.26259 0.0332474 7.33861 0.0553622C7.41412 0.0777217 7.48435 0.115079 7.5451 0.1652C7.60401 0.214005 7.65362 0.273043 7.69155 0.339475C7.72896 0.410605 7.7528 0.48808 7.76185 0.567937L7.80285 1.03365L7.84532 1.04536C7.90244 1.06147 7.96981 1.08198 8.0445 1.10687L8.24513 1.18156L8.27442 1.19474L8.52778 0.888663C8.57724 0.828688 8.63793 0.778942 8.70645 0.742213C8.77654 0.703051 8.85369 0.678163 8.93345 0.668988C9.01271 0.659171 9.09315 0.666665 9.16923 0.690955H9.16191ZM6.84068 2.39124C6.95324 2.38173 7.06641 2.38173 7.17898 2.39124C7.29617 2.40272 7.41195 2.42577 7.5246 2.46007C7.63192 2.49376 7.73586 2.5374 7.83507 2.59041L7.84825 2.59773C7.94106 2.64911 8.02925 2.7084 8.11186 2.77494C8.28379 2.92066 8.42729 3.09692 8.5351 3.29484C8.59192 3.39634 8.63712 3.50393 8.66984 3.61556C8.70394 3.72805 8.72555 3.84396 8.73428 3.96118C8.7445 4.07323 8.7445 4.18597 8.73428 4.29802C8.72429 4.41531 8.7017 4.53118 8.66691 4.64364V4.65828C8.6337 4.75946 8.59155 4.85748 8.54096 4.95118C8.48803 5.04901 8.42678 5.14211 8.3579 5.22944L8.34326 5.24555C8.20062 5.41282 8.02834 5.55233 7.83507 5.65707C7.73264 5.71304 7.62466 5.75819 7.51288 5.79181C7.40052 5.82438 7.28526 5.84596 7.16873 5.85625C7.0542 5.86575 6.93909 5.86575 6.82457 5.85625C6.70735 5.84494 6.59156 5.82188 6.47895 5.78741C6.3722 5.75345 6.26876 5.70982 6.16994 5.65707C6.07218 5.60346 5.97911 5.54174 5.89168 5.47255C5.80638 5.40091 5.72793 5.32148 5.65736 5.2353C5.58578 5.14733 5.52207 5.05324 5.46698 4.95411C5.41138 4.85169 5.36671 4.7437 5.33371 4.63192C5.2996 4.51943 5.27799 4.40353 5.26927 4.2863C5.25904 4.17426 5.25904 4.06151 5.26927 3.94947C5.27926 3.83218 5.30184 3.7163 5.33664 3.60384C5.37005 3.49642 5.41369 3.39245 5.46698 3.29337L5.4743 3.28019C5.52496 3.18649 5.58429 3.09775 5.6515 3.01512L5.66322 3.00047C5.73194 2.91856 5.80846 2.84352 5.89168 2.7764C5.97968 2.70529 6.07377 2.64207 6.17287 2.58748C6.27474 2.53143 6.38225 2.48627 6.49359 2.45275C6.60648 2.42031 6.72222 2.39873 6.83921 2.38831L6.84068 2.39124ZM7.13358 2.84084C7.04687 2.83278 6.9596 2.83278 6.8729 2.84084C6.78709 2.84798 6.70222 2.86368 6.61954 2.8877C6.53874 2.91166 6.4607 2.94406 6.38668 2.98436C6.31089 3.02697 6.23887 3.07596 6.1714 3.13081C6.11127 3.17966 6.05542 3.23356 6.00445 3.29191C5.95485 3.35385 5.91075 3.42001 5.87264 3.48961V3.50133C5.83341 3.57585 5.80106 3.65379 5.77599 3.73419C5.74554 3.81861 5.72394 3.90598 5.71155 3.99487C5.70422 4.08161 5.70422 4.16881 5.71155 4.25555C5.71859 4.34196 5.73479 4.42738 5.75988 4.51037C5.78362 4.59287 5.81654 4.67245 5.858 4.74762C5.90009 4.82328 5.94911 4.89486 6.00445 4.96144C6.05601 5.02567 6.1139 5.08454 6.17726 5.13718C6.24193 5.18859 6.31104 5.23416 6.38375 5.27337C6.45891 5.31273 6.5373 5.34556 6.61807 5.3715C6.70043 5.39738 6.7854 5.41408 6.87143 5.42129C6.95961 5.42935 7.04833 5.42935 7.13651 5.42129C7.22277 5.41402 7.30812 5.39832 7.39133 5.37442C7.46918 5.35009 7.54428 5.3177 7.6154 5.27777C7.69152 5.23569 7.76358 5.18666 7.83068 5.13132C7.89093 5.08153 7.94679 5.02666 7.99763 4.96729C8.05285 4.90167 8.10188 4.83107 8.14408 4.75641C8.18142 4.68473 8.21325 4.61031 8.23927 4.5338V4.52502C8.26472 4.44197 8.28188 4.35662 8.29053 4.27019C8.29786 4.18345 8.29786 4.09625 8.29053 4.00951C8.28349 3.9231 8.26729 3.83768 8.2422 3.75469C8.21835 3.67386 8.18595 3.5958 8.14555 3.52183C8.10381 3.44596 8.05476 3.37435 7.9991 3.30802C7.94754 3.24379 7.88964 3.18491 7.82629 3.13228C7.76508 3.08351 7.69993 3.03991 7.63151 3.00194H7.61979C7.54467 2.9625 7.46627 2.92967 7.38547 2.90381C7.30357 2.87811 7.2191 2.86141 7.13358 2.85402V2.84084ZM2.37981 12.6047C2.48299 12.6044 2.58393 12.6347 2.66986 12.6918C2.75579 12.7489 2.82285 12.8302 2.86253 12.9255C2.90222 13.0207 2.91275 13.1256 2.8928 13.2268C2.87285 13.3281 2.82331 13.4211 2.75045 13.4942C2.6776 13.5672 2.5847 13.617 2.48353 13.6373C2.38235 13.6575 2.27745 13.6473 2.1821 13.6078C2.08675 13.5684 2.00524 13.5016 1.94788 13.4158C1.89053 13.3301 1.85992 13.2292 1.85991 13.126C1.85991 12.988 1.91464 12.8556 2.0121 12.7579C2.10956 12.6601 2.24179 12.605 2.37981 12.6047Z" fill="black"/>
</svg>
