<svg width="18" height="18" viewBox="0 0 18 18" fill="none" xmlns="http://www.w3.org/2000/svg">
<path fill-rule="evenodd" clip-rule="evenodd" d="M3.46317 6.05838H3.86897V4.99921H1.53968C1.38293 4.99921 1.24082 4.93475 1.13828 4.8322C1.03573 4.72966 0.97127 4.58756 0.97127 4.4308V1.02184C0.97127 0.865085 1.03573 0.722983 1.13828 0.620436C1.24082 0.517889 1.38293 0.45343 1.53968 0.45343H7.53723C7.69252 0.45343 7.83462 0.517889 7.93717 0.620436C8.03972 0.722983 8.10417 0.865085 8.10417 1.02184V4.43227C8.10417 4.58902 8.03972 4.73112 7.93717 4.83367C7.92984 4.84099 7.92399 4.84685 7.91666 4.85271C7.81558 4.94501 7.68227 5.00068 7.53577 5.00068H6.90144V6.05984H8.47481V4.01036C8.45723 3.81992 8.4587 3.64705 8.47628 3.4903C8.48653 3.31011 8.53487 3.13871 8.61398 2.98635C8.67405 2.86036 8.75022 2.75049 8.84105 2.65966C8.96264 2.53807 9.10767 2.44871 9.27029 2.39158C9.41239 2.33591 9.56621 2.30514 9.72735 2.30514C9.80646 2.30514 9.8841 2.31247 9.96028 2.32712C9.9764 2.32858 9.99398 2.33151 10.0101 2.33298L13.9171 1.44228C14.1428 1.37343 14.383 1.3368 14.6306 1.3368C15.3045 1.3368 15.9154 1.61075 16.3563 2.0517C16.7973 2.49412 17.0712 3.10355 17.0712 3.77743C17.0712 4.45131 16.7973 5.0622 16.3563 5.50316C16.0575 5.80201 15.6824 6.02322 15.262 6.13602C16.8222 6.4715 18 7.86614 18 9.52155V11.1872C18 13.0668 16.4808 14.6094 14.6101 14.6489C15.032 14.9331 15.3089 15.4151 15.3089 15.963C15.3089 16.8376 14.5998 17.5466 13.7252 17.5466C12.8507 17.5466 12.1416 16.8376 12.1416 15.963C12.1416 15.4166 12.4185 14.9346 12.8389 14.6504H5.32221C5.74266 14.9346 6.01953 15.4166 6.01953 15.963C6.01953 16.8376 5.31049 17.5466 4.43591 17.5466C3.56133 17.5466 2.85228 16.8376 2.85228 15.963C2.85228 15.4166 3.12916 14.9346 3.54961 14.6504H3.46171C1.55872 14.6504 0 13.0917 0 11.1872V9.52155C0 7.6171 1.55872 6.05838 3.46317 6.05838ZM1.52649 3.36871H2.697C2.81566 3.36871 2.91235 3.46539 2.91235 3.58406C2.91235 3.70272 2.81566 3.79941 2.697 3.79941H1.52649V4.4308C1.52649 4.43373 1.52796 4.43813 1.53089 4.43959C1.53382 4.44252 1.53675 4.44399 1.53968 4.44399H7.53723C7.54016 4.44399 7.54163 4.44399 7.54456 4.44252L7.54749 4.43959C7.55042 4.43666 7.55188 4.43373 7.55188 4.4308V1.02184C7.55188 1.01891 7.55042 1.01451 7.54749 1.01305C7.54456 1.01158 7.54163 1.01012 7.53723 1.01012H1.53968C1.53675 1.01012 1.53235 1.01158 1.53089 1.01451C1.52796 1.01744 1.52649 1.02037 1.52649 1.0233V1.72648H2.697C2.81566 1.72648 2.91235 1.82317 2.91235 1.94183C2.91235 2.06049 2.81566 2.15718 2.697 2.15718H1.52649V2.54686H2.697C2.81566 2.54686 2.91235 2.64355 2.91235 2.76221C2.91235 2.88087 2.81566 2.97756 2.697 2.97756H1.52649V3.36871ZM4.31285 6.05838H6.45756V4.99921H4.31285V6.05838ZM14.632 2.5454C14.9705 2.5454 15.2781 2.6831 15.5022 2.90578L15.5037 2.90724C15.7264 3.12992 15.8641 3.43756 15.8641 3.77597C15.8641 4.11584 15.7264 4.42348 15.5037 4.64615C15.281 4.86883 14.9734 5.00654 14.6335 5.00654C14.2936 5.00654 13.9875 4.86883 13.7633 4.64615L13.7619 4.64469C13.5392 4.42201 13.4015 4.11437 13.4015 3.7745C13.4015 3.43463 13.5392 3.12699 13.7619 2.90431C13.9845 2.68457 14.2922 2.5454 14.632 2.5454ZM15.1096 3.29839C14.988 3.1768 14.8196 3.10208 14.632 3.10208C14.4445 3.10208 14.2761 3.17826 14.1545 3.29985C14.0329 3.42145 13.9567 3.59138 13.9567 3.77743C13.9567 3.96495 14.0329 4.13342 14.1545 4.25647C14.2761 4.37807 14.446 4.45424 14.6335 4.45424C14.821 4.45424 14.9895 4.37807 15.1111 4.25647C15.2341 4.13342 15.3089 3.96495 15.3089 3.7789C15.3074 3.58992 15.2327 3.42145 15.1096 3.29839ZM12.6968 2.28903L10.6796 2.74903C10.8656 2.96731 10.9784 3.25151 10.9784 3.55915V4.56851L12.5694 5.08711C12.3291 4.70915 12.1885 4.2594 12.1885 3.7789C12.1914 3.21635 12.3804 2.70068 12.6968 2.28903ZM13.9479 5.53539L14.1457 5.59985C14.301 5.64086 14.4636 5.66284 14.6306 5.66284C15.1506 5.66284 15.6224 5.45188 15.9637 5.11055C16.305 4.76921 16.516 4.29749 16.516 3.77743C16.516 3.25737 16.305 2.78565 15.9637 2.44431C15.6224 2.10298 15.1506 1.89202 14.6306 1.89202C14.1105 1.89202 13.6388 2.10298 13.2975 2.44431C12.9561 2.78565 12.7452 3.25737 12.7452 3.77743C12.7452 4.29749 12.9561 4.76921 13.2975 5.11055C13.4821 5.29367 13.7018 5.44016 13.9479 5.53539ZM13.7619 6.05838L13.7414 6.05105L10.9799 5.1501V6.04959V6.05984H13.7619V6.05838ZM10.4247 4.96845L9.02857 4.51284V6.05838H10.4247V6.04812V4.96845ZM9.8636 2.87355C9.77277 2.86622 9.68633 2.86769 9.60576 2.87941C9.56035 2.88527 9.5164 2.89552 9.47538 2.90871C9.38455 2.94387 9.30398 2.99807 9.23513 3.06546C9.18385 3.11673 9.1399 3.17826 9.10621 3.24418C9.07398 3.31597 9.05054 3.39801 9.03589 3.49323L9.03296 3.51667C9.0315 3.53132 9.0315 3.5445 9.0315 3.55915V3.93125L10.4276 4.38686V3.55915C10.4276 3.36724 10.3485 3.19291 10.2225 3.06546C10.1244 2.97024 10.0013 2.90138 9.8636 2.87355ZM4.43591 15.292C4.80654 15.292 5.10686 15.5924 5.10686 15.963C5.10686 16.3336 4.80654 16.6339 4.43591 16.6339C4.06527 16.6339 3.76495 16.3336 3.76495 15.963C3.76642 15.5924 4.06674 15.292 4.43591 15.292ZM13.7267 15.292C14.0973 15.292 14.3977 15.5924 14.3977 15.963C14.3977 16.3336 14.0973 16.6339 13.7267 16.6339C13.3561 16.6339 13.0557 16.3336 13.0557 15.963C13.0572 15.5924 13.3561 15.292 13.7267 15.292ZM4.69228 8.8213H13.3092C13.4689 8.8213 13.5993 8.95168 13.5993 9.11136V11.5959C13.5993 11.7556 13.4689 11.886 13.3092 11.886H4.69228C4.5326 11.886 4.40221 11.7556 4.40221 11.5959V9.11136C4.40075 8.95168 4.5326 8.8213 4.69228 8.8213Z" fill="black"/>
</svg>
