<svg width="16" height="18" viewBox="0 0 16 18" fill="none" xmlns="http://www.w3.org/2000/svg">
<path fill-rule="evenodd" clip-rule="evenodd" d="M0 14.3637H2.08605V5.94729L0.0416378 6.26374L0 3.59614L2.08605 3.26443V0.873034C2.08605 0.650966 2.26509 0.471924 2.48716 0.471924H6.31089C6.53296 0.471924 6.71201 0.650966 6.71201 0.873034V2.52883L14.2373 1.33244L14.6634 3.99864L13.789 4.13466V4.85499L15.3657 6.58296C15.3921 6.61072 15.4129 6.64264 15.4282 6.67595H15.9167C15.9625 6.67595 16 6.71342 16 6.75922V10.6454C16 10.6912 15.9625 10.7287 15.9167 10.7287H10.5496C10.5038 10.7287 10.4663 10.6912 10.4663 10.6454V6.75784C10.4663 6.71204 10.5038 6.67456 10.5496 6.67456H11.0534C11.0715 6.64403 11.0951 6.61488 11.1228 6.58851L13.0187 4.8314V4.25402L6.71201 5.23112V14.3651H8.84525V17.5281H0V14.3637ZM2.88827 3.13674L4.20125 2.92855L2.88827 1.6933V3.13674ZM5.09091 2.78698L5.9084 2.65652V1.27414H3.48508L5.09091 2.78698ZM5.90978 5.35464L5.01735 5.49344L5.90978 6.33452V5.35464ZM4.12214 5.63084L2.88827 5.82238V6.34285C2.89799 6.34423 2.9077 6.34562 2.91603 6.34701H4.88133L4.12214 5.63084ZM12.1443 6.67456H14.4205L13.3768 5.53091L12.1443 6.67456ZM2.88827 11.8807C2.89938 11.8821 2.91048 11.8834 2.92158 11.8862H4.88272L2.88827 10.007V11.8807ZM3.80291 12.6579L5.61554 14.3637H5.90978V12.6385C5.87925 12.6496 5.84594 12.6565 5.81402 12.6565V12.6579H3.80291ZM4.5746 14.3637L2.88827 12.7759V14.3637H4.5746ZM2.88827 9.11176C2.89938 9.11315 2.91048 9.11453 2.92158 9.11731H4.88272L2.88827 7.23945V9.11176ZM3.80291 9.889L5.9084 11.8723V9.86957C5.87786 9.88067 5.84455 9.88622 5.81263 9.88761V9.889H3.80291ZM3.80291 7.12009L5.90978 9.10343V7.10065C5.87925 7.11176 5.84594 7.1187 5.81402 7.1187V7.12009H3.80291Z" fill="black"/>
</svg>
