<svg width="14" height="16" viewBox="0 0 14 16" fill="none" xmlns="http://www.w3.org/2000/svg">
<path fill-rule="evenodd" clip-rule="evenodd" d="M12.22 0.77063H13.6471C13.7407 0.77063 13.8304 0.807815 13.8966 0.874004C13.9628 0.940193 14 1.02997 14 1.12357V7.12357C14 7.21718 13.9628 7.30695 13.8966 7.37314C13.8304 7.43933 13.7407 7.47651 13.6471 7.47651H12.22C12.1264 7.47651 12.0366 7.43933 11.9704 7.37314C11.9042 7.30695 11.8671 7.21718 11.8671 7.12357V1.12357C11.8671 1.02997 11.9042 0.940193 11.9704 0.874004C12.0366 0.807815 12.1264 0.77063 12.22 0.77063ZM11.1188 6.77769C8.87647 6.75534 7.6 6.91181 6.96118 7.53651C6.27529 8.20592 5.99294 9.60945 6.01176 12.4577H0.691765C0.663529 8.07181 1.42471 5.49887 3.24706 3.71887C5.11529 1.89534 7.51882 1.42122 11.1188 1.45887V6.77769ZM6.69529 13.4447V14.8765C6.69529 14.9701 6.65811 15.0599 6.59192 15.1261C6.52573 15.1923 6.43596 15.2295 6.34235 15.2295H0.352941C0.259335 15.2295 0.169563 15.1923 0.103374 15.1261C0.0371848 15.0599 0 14.9701 0 14.8765L0 13.4447C0 13.3511 0.0371848 13.2614 0.103374 13.1952C0.169563 13.129 0.259335 13.0918 0.352941 13.0918H6.35294C6.44655 13.0918 6.53632 13.129 6.60251 13.1952C6.6687 13.2614 6.70588 13.3511 6.70588 13.4447H6.69529Z" fill="black"/>
</svg>
