<svg width="18" height="14" viewBox="0 0 18 14" fill="none" xmlns="http://www.w3.org/2000/svg">
<path fill-rule="evenodd" clip-rule="evenodd" d="M2.15965 5.66934V6.72648H4.04824V1.80496H2.15965V5.66934ZM12.2829 11.4543C12.1852 11.9862 11.925 12.4629 11.5569 12.831C11.0823 13.3056 10.427 13.6006 9.70629 13.6006H2.6202C1.89914 13.6006 1.24383 13.3056 0.769219 12.831C0.294609 12.3564 0 11.7014 0 10.9804C0 10.5726 0.0942187 10.1859 0.262266 9.84062V7.30586C0.262266 6.50219 0.849023 5.8293 1.61543 5.69395V1.37922H0.899297V0.399414H8.66918L8.94586 1.37922H8.29477L8.74969 4.47508L8.53207 5.66934H10.3022V4.1977C10.3022 4.12844 10.3591 4.07148 10.4284 4.07148H11.3129C11.3822 4.07148 11.4391 4.12844 11.4391 4.1977V5.66934H12.1644C12.7051 5.66934 13.147 6.1116 13.147 6.65195V10.4267H13.9493V5.80117C13.9493 5.7298 14.0077 5.67145 14.0794 5.67145H15.1713C14.9228 11.5049 18 12.5519 18 12.5406V13.1168C18 13.1882 17.9413 13.2469 17.8699 13.2469H14.0794C14.0449 13.2468 14.0119 13.2331 13.9875 13.2087C13.9631 13.1843 13.9494 13.1513 13.9493 13.1168V11.4543H12.2829ZM2.49398 10.3637C2.8227 10.3637 3.08918 10.6302 3.08918 10.9589C3.08918 11.288 2.8227 11.5545 2.49398 11.5545C2.16492 11.5545 1.89844 11.288 1.89844 10.9589C1.89844 10.6302 2.16492 10.3637 2.49398 10.3637ZM9.65426 10.3637C9.98297 10.3637 10.2495 10.6302 10.2495 10.9589C10.2495 11.288 9.98297 11.5545 9.65426 11.5545C9.32519 11.5545 9.05871 11.288 9.05871 10.9589C9.05871 10.6302 9.32519 10.3637 9.65426 10.3637ZM7.2675 10.3637C7.59621 10.3637 7.8627 10.6302 7.8627 10.9589C7.8627 11.288 7.59621 11.5545 7.2675 11.5545C6.93844 11.5545 6.67195 11.288 6.67195 10.9589C6.67195 10.6302 6.93844 10.3637 7.2675 10.3637ZM4.88074 10.3637C5.20945 10.3637 5.47594 10.6302 5.47594 10.9589C5.47594 11.288 5.20945 11.5545 4.88074 11.5545C4.55168 11.5545 4.2852 11.288 4.2852 10.9589C4.2852 10.6302 4.55168 10.3637 4.88074 10.3637ZM9.70629 8.83199C10.8879 8.83199 11.8547 9.79879 11.8547 10.9804C11.8547 12.162 10.8879 13.1288 9.70629 13.1288H2.6202C1.43859 13.1288 0.471797 12.162 0.471797 10.9804C0.471797 9.83289 1.4073 8.83199 2.6202 8.83199H9.70629ZM10.3999 2.38117C10.3493 2.32914 10.3697 2.25848 10.4453 2.22332C10.5209 2.18852 10.6232 2.20258 10.6738 2.25461C11.0106 2.60266 10.8489 2.88391 10.6935 3.15355C10.5782 3.3543 10.4671 3.54695 10.6699 3.73855C10.7237 3.78918 10.7079 3.86055 10.6344 3.89746C10.5609 3.93473 10.4576 3.92383 10.4038 3.8732C10.0937 3.58035 10.2375 3.33004 10.3876 3.06988C10.5114 2.85437 10.6407 2.62973 10.3999 2.38117ZM10.9663 2.38117C10.9157 2.32914 10.9361 2.25848 11.0113 2.22332C11.0869 2.18852 11.1892 2.20258 11.2398 2.25461C11.577 2.60266 11.4149 2.88391 11.2598 3.15355C11.1442 3.3543 11.0331 3.54695 11.2359 3.73855C11.2901 3.78918 11.2739 3.86055 11.2004 3.89746C11.1273 3.93473 11.0239 3.92383 10.9702 3.8732C10.6601 3.58035 10.8039 3.33004 10.9536 3.06988C11.0777 2.85437 11.2071 2.62973 10.9663 2.38117ZM4.94895 5.66934V6.78309H7.72734L7.93512 5.66934L8.15766 4.47508L7.72734 1.80496H4.94895V5.66934Z" fill="black"/>
</svg>
