<svg width="18" height="14" viewBox="0 0 18 14" fill="none" xmlns="http://www.w3.org/2000/svg">
<path fill-rule="evenodd" clip-rule="evenodd" d="M8.80241 9.65216C7.83526 9.65216 7.05092 10.4362 7.05092 11.4037C7.05092 12.3708 7.83526 13.1548 8.80241 13.1548C9.76956 13.1548 10.5535 12.3708 10.5535 11.4037C10.5535 10.4362 9.76956 9.65216 8.80241 9.65216ZM15.1323 9.6033C14.1518 9.6033 13.3566 10.3982 13.3566 11.379C13.3566 12.3596 14.1518 13.1548 15.1323 13.1548C16.1132 13.1548 16.908 12.3596 16.908 11.379C16.908 10.3982 16.1132 9.6033 15.1323 9.6033ZM15.1323 10.6963C14.7554 10.6963 14.4499 11.0018 14.4499 11.379C14.4499 11.7559 14.7554 12.0618 15.1323 12.0618C15.5092 12.0618 15.815 11.7559 15.815 11.379C15.815 11.0018 15.5092 10.6963 15.1323 10.6963ZM13.5102 3.31137H15.7553L17.9824 5.70798L18 5.75228V9.23556C18 9.56357 17.8671 9.84623 17.6527 10.0491C17.4853 10.2069 17.2687 10.3159 17.0272 10.3588L17.0241 10.3535L17.0223 10.35L17.0177 10.3416L17.0128 10.3328L17.0118 10.3307L17.0079 10.3244L17.0033 10.3159L16.9987 10.3082L16.9984 10.3071L16.9935 10.2987L16.9882 10.2903L16.9857 10.2857L16.9833 10.2818L16.9784 10.2734L16.9734 10.2649L16.9724 10.2635L16.9682 10.2565L16.9629 10.2481L16.9587 10.2414L16.958 10.24L16.9527 10.2315L16.9474 10.2231L16.945 10.2196L16.9421 10.215L16.9365 10.2066L16.9312 10.1985L16.9309 10.1978L16.926 10.1904L16.9204 10.182L16.9165 10.176L16.9151 10.1739L16.9095 10.1658L16.9038 10.1577L16.9017 10.1545L16.8982 10.15L16.8926 10.1419L16.887 10.1338V10.1335L16.8813 10.1257L16.8757 10.118L16.8697 10.1099L16.8641 10.1022L16.8581 10.0941L16.8564 10.0916L16.8525 10.0863L16.8465 10.0786L16.8409 10.0712L16.8405 10.0709L16.8346 10.0631L16.8286 10.0554L16.8251 10.0508L16.8226 10.0477L16.8163 10.0399L16.8103 10.0322L16.8089 10.0304L16.8043 10.0245L16.798 10.0171L16.7924 10.0104L16.7917 10.0094L16.7857 10.002L16.7794 9.99459L16.7762 9.99072L16.773 9.98685L16.7667 9.97947L16.7604 9.97209L16.7593 9.97103L16.7537 9.9647L16.7474 9.95732L16.7421 9.9517L16.7407 9.95029L16.7344 9.94291L16.7277 9.93553L16.7249 9.93236L16.7214 9.92814L16.7147 9.92111L16.708 9.91408L16.7077 9.91338L16.7013 9.9067L16.6946 9.89966L16.6897 9.89474L16.688 9.89263L16.6809 9.8856L16.6743 9.87857L16.6718 9.87611L16.6676 9.87154L16.6605 9.86451L16.6539 9.85783C16.2643 9.4683 15.7264 9.22748 15.1323 9.22748C14.6612 9.22748 14.2235 9.37935 13.8688 9.63775L13.866 9.63951L13.8642 9.64091L13.86 9.64408L13.8558 9.64689L13.8516 9.65005L13.8473 9.65357L13.8389 9.6599L13.8347 9.66306L13.8305 9.66623L13.8262 9.66939L13.8245 9.67045L13.822 9.67255L13.8178 9.67572L13.8136 9.67924L13.8094 9.6824L13.8052 9.68556L13.8041 9.68662L13.8009 9.68908L13.7967 9.69224L13.7928 9.69541L13.7886 9.69892L13.7844 9.70209L13.7837 9.70244L13.7802 9.70525L13.7763 9.70877L13.7721 9.71228L13.7679 9.71545L13.764 9.71896L13.7598 9.72213L13.7556 9.72564L13.7517 9.72916L13.7475 9.73232L13.744 9.73549L13.7436 9.73584L13.7394 9.73935L13.7355 9.74287L13.7313 9.74603L13.7275 9.74955L13.7243 9.75236L13.7236 9.75306L13.7194 9.75658L13.7155 9.76009L13.7116 9.76361L13.7074 9.76713L13.705 9.76924L13.7035 9.77064L13.6997 9.77416L13.6955 9.77767L13.6916 9.78119L13.6877 9.7847L13.6856 9.78646L13.6839 9.78822L13.68 9.79174L13.6761 9.79525L13.6723 9.79912L13.6684 9.80263L13.6666 9.80404L13.6645 9.80615L13.6607 9.80967L13.6568 9.81353L13.6529 9.81705L13.6491 9.82056L13.648 9.82162L13.6452 9.82443L13.6413 9.82795L13.6375 9.83181L13.6336 9.83533L13.6301 9.8392L13.6294 9.83955L13.6223 9.84658L13.6185 9.8501L13.615 9.85396L13.6111 9.85783L13.6041 9.86486L13.6009 9.86767L13.5967 9.87224L13.5928 9.87611L13.591 9.87787L13.5896 9.87928L13.5826 9.88666L13.5812 9.88806L13.5756 9.89404L13.5752 9.89474L13.5714 9.89861L13.5685 9.90107L13.5619 9.90845L13.5615 9.90881L13.5573 9.91338L13.5548 9.91619L13.5517 9.91935L13.5482 9.92357L13.5422 9.9299L13.5411 9.93095L13.5397 9.93236L13.5327 9.94045L13.5274 9.94607L13.5232 9.95099L13.5225 9.9517L13.5207 9.95345L13.5141 9.96119L13.5137 9.96189L13.5074 9.96892L13.5056 9.97103L13.5042 9.97244L13.5007 9.97631L13.4951 9.98334L13.4944 9.98439L13.4887 9.99072L13.4877 9.99178L13.4856 9.99424L13.481 9.99951L13.4764 10.0051L13.4747 10.0076L13.4722 10.0104L13.4684 10.0153L13.4673 10.0164L13.4617 10.0231L13.4585 10.0273L13.456 10.0304L13.4553 10.0312L13.4494 10.0385L13.449 10.0389L13.4427 10.047L13.4406 10.0494L13.4399 10.0508L13.4318 10.061L13.4304 10.0628L13.4241 10.0709V10.0712L13.423 10.0723L13.4181 10.079L13.4146 10.0835L13.4118 10.087L13.4082 10.0916L13.4058 10.0951L13.3998 10.1032L13.3973 10.1064L13.3938 10.1117L13.3931 10.1127L13.3889 10.118L13.3819 10.1278L13.3805 10.1296L13.378 10.1335L13.3759 10.1363L13.3724 10.1412L13.3646 10.1521L13.3643 10.1528V10.1531L13.3629 10.1545L13.3587 10.1612L13.3562 10.1647L13.3527 10.1697L13.3485 10.176L13.3481 10.1767L13.3471 10.1781L13.3414 10.1865L13.34 10.1887L13.3358 10.195L13.3341 10.1974L13.3319 10.2006L13.3302 10.2034L13.3246 10.2122L13.3242 10.2126L13.32 10.2192L13.3189 10.2206L13.3165 10.2245L13.3087 10.2368L13.308 10.2379L13.3059 10.2414L13.3014 10.2488L13.2975 10.2551L13.2936 10.2611L13.2926 10.2632L13.2922 10.2639L13.2869 10.2727L13.2862 10.2734L13.2817 10.2811L13.2792 10.2857L13.2764 10.2899L13.2718 10.298L13.2715 10.2987L13.2662 10.3078L13.2659 10.3082L13.2644 10.3103L13.2613 10.3166L13.2574 10.3229L13.256 10.3254L13.2532 10.3307L13.2511 10.3342L13.2504 10.3356L13.2462 10.3433L13.2437 10.3483L13.2412 10.3521L13.2405 10.3535L13.2367 10.3606L13.2363 10.3613L13.2318 10.3701L13.23 10.3732L13.2282 10.3764L13.2268 10.3792C13.1853 10.4584 13.1487 10.5402 13.1171 10.6239H10.7814C10.6736 10.3528 10.5118 10.1065 10.3057 9.90002L10.3064 9.89931C9.92143 9.5147 9.38952 9.27634 8.80241 9.27634C8.21495 9.27634 7.68303 9.5147 7.29842 9.89931L7.27698 9.92252C7.08123 10.1243 6.92713 10.3626 6.82346 10.6239H6.20576C6.09802 10.3528 5.93618 10.1065 5.7301 9.90002L5.7308 9.89931C5.34584 9.5147 4.81428 9.27634 4.22682 9.27634C3.63935 9.27634 3.10744 9.5147 2.72283 9.89931L2.70138 9.92252C2.50564 10.1243 2.35154 10.3626 2.24787 10.6239H2.00529C1.75673 10.6239 1.55318 10.4288 1.55318 10.1932V9.08158C1.55318 8.84603 1.75814 8.65091 2.00529 8.65091H12.6355L13.2012 3.62532C13.2103 3.542 13.2465 3.46149 13.3021 3.40348C13.3555 3.34723 13.4269 3.31137 13.5102 3.31137ZM9.0478 8.48005H2.68627V7.17013C2.95275 7.24466 3.20025 7.31603 3.43369 7.38388C3.42385 7.34345 3.42631 7.30372 3.4372 7.26786L5.31807 1.07403C5.38029 0.869769 5.50686 0.801566 5.72975 0.87223L7.63768 1.48852C8.04479 1.64743 8.07538 1.75571 7.90522 2.2377L6.07006 8.04904C6.85756 8.17806 7.75897 8.2438 9.0478 8.23185V8.48005ZM12.4523 8.02091H11.0971C11.0717 8.02091 11.051 8.04201 11.051 8.06732V8.434C11.051 8.45931 11.0717 8.48005 11.0971 8.48005H12.4523C12.4776 8.48005 12.4984 8.45931 12.4984 8.434V8.06732C12.4984 8.04165 12.4776 8.02091 12.4523 8.02091ZM12.5694 5.60673H12.2319C12.2048 5.60673 12.1816 5.62958 12.1816 5.657V5.81696L11.1973 5.63064L11.3969 4.95247C11.5653 4.51196 11.4349 4.37028 10.993 3.98919C9.99632 3.12962 9.15081 2.48942 8.35733 2.0243C8.33834 2.12098 8.306 2.22786 8.26311 2.35055L6.45326 8.08244C7.62327 8.20759 8.84249 8.13939 10.1215 7.92423C10.6031 7.84302 10.5687 7.76392 10.6558 7.4679L10.6731 7.4106L11.9468 7.61978V7.84267C11.9468 7.86974 11.9693 7.89294 11.9971 7.89294H12.3346C12.3623 7.89294 12.3817 7.87009 12.3848 7.84267L12.6197 5.657C12.6225 5.62923 12.5961 5.60673 12.5694 5.60673ZM4.95736 0.974183C3.97123 0.915121 2.86275 1.00758 1.47689 1.18336C1.12814 1.22766 1.0174 1.27547 0.91017 1.61543L0.106497 4.16391C-0.0471363 4.65118 -0.0720972 4.63642 0.287903 4.99606C1.19915 5.90732 2.13396 6.59427 3.09935 7.08997L4.95736 0.974183ZM15.8882 4.40192L17.1429 5.75228V6.24446H14.3662V4.40192H15.8882ZM4.22682 9.65216C3.25967 9.65216 2.47533 10.4362 2.47533 11.4037C2.47533 12.3708 3.25967 13.1548 4.22682 13.1548C5.19397 13.1548 5.97795 12.3708 5.97795 11.4037C5.97795 10.4362 5.19397 9.65216 4.22682 9.65216ZM4.22682 10.7297C3.85451 10.7297 3.55287 11.0313 3.55287 11.4037C3.55287 11.7756 3.85451 12.0772 4.22682 12.0772C4.59877 12.0772 4.90041 11.7756 4.90041 11.4037C4.90041 11.0313 4.59877 10.7297 4.22682 10.7297ZM8.80241 10.7297C8.4301 10.7297 8.12846 11.0313 8.12846 11.4037C8.12846 11.7756 8.4301 12.0772 8.80241 12.0772C9.17436 12.0772 9.476 11.7756 9.476 11.4037C9.476 11.0313 9.17436 10.7297 8.80241 10.7297Z" fill="black"/>
</svg>
