<svg width="18" height="16" viewBox="0 0 18 16" fill="none" xmlns="http://www.w3.org/2000/svg">
<path fill-rule="evenodd" clip-rule="evenodd" d="M16.9028 8.87914L16.8926 9.26L13.2275 10.3249L13.0137 9.85619C12.895 9.61303 12.4146 9.75219 12.52 10.114C12.6724 10.6326 12.9067 11.0339 13.1294 11.4426C14.3555 13.7014 18.6738 12.988 17.4521 9.48559L17.4419 8.82055C17.77 8.67846 18 8.3518 18 7.97094C18 7.45971 17.5854 7.04516 17.0742 7.04516C17.0625 7.04516 17.0508 7.04516 17.0391 7.04516L17.439 6.87523L15.6519 2.239C15.0967 0.513419 14.502 0.286368 13.5381 0.963126L8.47412 5.78979L8.35107 5.66674H7.24512C6.9082 5.66674 6.63281 5.94213 6.63281 6.27904V8.6184H4.94238V8.50561C4.94238 8.28588 4.76221 8.1057 4.54248 8.1057H2.30566C2.08594 8.1057 1.90576 8.28588 1.90576 8.50561V8.6184H1.2876C0.868652 8.6184 0.525879 8.96117 0.525879 9.38012V10.3308C0.525879 10.7512 0.870117 11.094 1.28906 11.094H9.38232C9.80273 11.094 10.1455 10.7497 10.1455 10.3308V9.1267V8.6184V7.4641L9.87598 7.19311L13.9731 2.86596L16.0503 7.4641L16.4341 7.3015C16.2583 7.46996 16.1499 7.70727 16.1499 7.96947C16.1484 8.42211 16.4736 8.79857 16.9028 8.87914ZM1.99072 11.4089H8.65283C9.74707 11.4089 10.6436 12.3039 10.6436 13.3996C10.6436 14.4939 9.74854 15.3904 8.65283 15.3904H1.99072C0.89502 15.3889 0 14.4939 0 13.3982C0 12.3039 0.89502 11.4089 1.99072 11.4089ZM2.55615 13.2195C2.57959 13.2195 2.59717 13.3 2.59717 13.3996C2.59717 13.4993 2.57812 13.5798 2.55615 13.5798H2.39648V13.7395C2.39648 13.7629 2.31592 13.7805 2.21631 13.7805C2.1167 13.7805 2.03613 13.7615 2.03613 13.7395V13.5798H1.87646C1.85303 13.5798 1.83545 13.4993 1.83545 13.3996C1.83545 13.3 1.85449 13.2195 1.87646 13.2195H2.03613V13.0598C2.03613 13.0364 2.1167 13.0188 2.21631 13.0188C2.31592 13.0188 2.39648 13.0378 2.39648 13.0598V13.2195H2.55615ZM8.26465 13.0583C8.26465 13.0349 8.34521 13.0173 8.44482 13.0173C8.54443 13.0173 8.625 13.0364 8.625 13.0583V13.218H8.78467C8.80811 13.218 8.82568 13.2986 8.82568 13.3982C8.82568 13.4978 8.80664 13.5784 8.78467 13.5784H8.625V13.738C8.625 13.7615 8.54443 13.779 8.44482 13.779C8.34521 13.779 8.26465 13.76 8.26465 13.738V13.5784H8.10498C8.08154 13.5784 8.06396 13.4978 8.06396 13.3982C8.06396 13.2986 8.08301 13.218 8.10498 13.218H8.26465V13.0583ZM8.44482 11.9421C9.24902 11.9421 9.90088 12.594 9.90088 13.3982C9.90088 14.2024 9.24902 14.8542 8.44482 14.8542C7.64063 14.8542 6.98877 14.2024 6.98877 13.3982C6.98877 12.594 7.64063 11.9421 8.44482 11.9421ZM2.21631 11.9421C3.02051 11.9421 3.67236 12.594 3.67236 13.3982C3.67236 14.2024 3.02051 14.8542 2.21631 14.8542C1.41211 14.8542 0.760254 14.2024 0.760254 13.3982C0.760254 12.594 1.41211 11.9421 2.21631 11.9421ZM14.2104 1.38647C14.4932 1.38647 14.7231 1.61645 14.7231 1.89916C14.7231 2.18188 14.4932 2.41186 14.2104 2.41186C13.9277 2.41186 13.6978 2.18188 13.6978 1.89916C13.6978 1.61645 13.9263 1.38647 14.2104 1.38647Z" fill="black"/>
</svg>
