<svg width="18" height="18" viewBox="0 0 18 18" fill="none" xmlns="http://www.w3.org/2000/svg">
<path fill-rule="evenodd" clip-rule="evenodd" d="M3.46317 6.05832H3.86897V4.99915H1.53968C1.38293 4.99915 1.24082 4.93469 1.13828 4.83214C1.03573 4.7296 0.97127 4.58749 0.97127 4.43074V1.02177C0.97127 0.865024 1.03573 0.722922 1.13828 0.620375C1.24082 0.517828 1.38293 0.453369 1.53968 0.453369H7.53723C7.69252 0.453369 7.83462 0.517828 7.93717 0.620375C8.03972 0.722922 8.10417 0.865024 8.10417 1.02177V4.43221C8.10417 4.58896 8.03972 4.73106 7.93717 4.83361C7.92984 4.84093 7.92399 4.84679 7.91666 4.85265C7.81558 4.94495 7.68227 5.00061 7.53577 5.00061H6.90144V6.05978H8.47481V4.0103C8.45723 3.81985 8.4587 3.64699 8.47628 3.49024C8.48653 3.31005 8.53487 3.13865 8.61398 2.98629C8.67405 2.8603 8.75022 2.75043 8.84105 2.6596C8.96264 2.53801 9.10767 2.44865 9.27029 2.39152C9.41239 2.33585 9.56621 2.30508 9.72735 2.30508C9.80646 2.30508 9.8841 2.31241 9.96028 2.32706C9.9764 2.32852 9.99398 2.33145 10.0101 2.33292L13.9171 1.44222C14.1428 1.37337 14.383 1.33674 14.6306 1.33674C15.3045 1.33674 15.9154 1.61069 16.3563 2.05164C16.7973 2.49406 17.0712 3.10349 17.0712 3.77737C17.0712 4.45125 16.7973 5.06214 16.3563 5.5031C16.0575 5.80195 15.6824 6.02316 15.262 6.13596C16.8222 6.47144 18 7.86608 18 9.52149V11.1872C18 13.0667 16.4808 14.6093 14.6101 14.6489C15.032 14.9331 15.3089 15.415 15.3089 15.9629C15.3089 16.8375 14.5998 17.5466 13.7252 17.5466C12.8507 17.5466 12.1416 16.8375 12.1416 15.9629C12.1416 15.4165 12.4185 14.9345 12.8389 14.6503H5.32221C5.74266 14.9345 6.01953 15.4165 6.01953 15.9629C6.01953 16.8375 5.31049 17.5466 4.43591 17.5466C3.56133 17.5466 2.85228 16.8375 2.85228 15.9629C2.85228 15.4165 3.12916 14.9345 3.54961 14.6503H3.46171C1.55872 14.6503 0 13.0916 0 11.1872V9.52149C0 7.61704 1.55872 6.05832 3.46317 6.05832ZM1.52649 3.36865H2.697C2.81566 3.36865 2.91235 3.46533 2.91235 3.584C2.91235 3.70266 2.81566 3.79934 2.697 3.79934H1.52649V4.43074C1.52649 4.43367 1.52796 4.43807 1.53089 4.43953C1.53382 4.44246 1.53675 4.44393 1.53968 4.44393H7.53723C7.54016 4.44393 7.54163 4.44393 7.54456 4.44246L7.54749 4.43953C7.55042 4.4366 7.55188 4.43367 7.55188 4.43074V1.02177C7.55188 1.01884 7.55042 1.01445 7.54749 1.01298C7.54456 1.01152 7.54163 1.01006 7.53723 1.01006H1.53968C1.53675 1.01006 1.53235 1.01152 1.53089 1.01445C1.52796 1.01738 1.52649 1.02031 1.52649 1.02324V1.72642H2.697C2.81566 1.72642 2.91235 1.82311 2.91235 1.94177C2.91235 2.06043 2.81566 2.15712 2.697 2.15712H1.52649V2.5468H2.697C2.81566 2.5468 2.91235 2.64349 2.91235 2.76215C2.91235 2.88081 2.81566 2.9775 2.697 2.9775H1.52649V3.36865ZM4.31285 6.05832H6.45756V4.99915H4.31285V6.05832ZM14.632 2.54534C14.9705 2.54534 15.2781 2.68304 15.5022 2.90572L15.5037 2.90718C15.7264 3.12986 15.8641 3.4375 15.8641 3.77591C15.8641 4.11578 15.7264 4.42342 15.5037 4.64609C15.281 4.86877 14.9734 5.00647 14.6335 5.00647C14.2936 5.00647 13.9875 4.86877 13.7633 4.64609L13.7619 4.64463C13.5392 4.42195 13.4015 4.11431 13.4015 3.77444C13.4015 3.43457 13.5392 3.12693 13.7619 2.90425C13.9845 2.68451 14.2922 2.54534 14.632 2.54534ZM15.1096 3.29833C14.988 3.17674 14.8196 3.10202 14.632 3.10202C14.4445 3.10202 14.2761 3.1782 14.1545 3.29979C14.0329 3.42138 13.9567 3.59132 13.9567 3.77737C13.9567 3.96489 14.0329 4.13336 14.1545 4.25641C14.2761 4.378 14.446 4.45418 14.6335 4.45418C14.821 4.45418 14.9895 4.378 15.1111 4.25641C15.2341 4.13336 15.3089 3.96489 15.3089 3.77884C15.3074 3.58985 15.2327 3.42138 15.1096 3.29833ZM12.6968 2.28897L10.6796 2.74897C10.8656 2.96725 10.9784 3.25145 10.9784 3.55909V4.56845L12.5694 5.08705C12.3291 4.70909 12.1885 4.25934 12.1885 3.77884C12.1914 3.21629 12.3804 2.70062 12.6968 2.28897ZM13.9479 5.53533L14.1457 5.59978C14.301 5.6408 14.4636 5.66278 14.6306 5.66278C15.1506 5.66278 15.6224 5.45182 15.9637 5.11049C16.305 4.76915 16.516 4.29743 16.516 3.77737C16.516 3.25731 16.305 2.78559 15.9637 2.44425C15.6224 2.10292 15.1506 1.89196 14.6306 1.89196C14.1105 1.89196 13.6388 2.10292 13.2975 2.44425C12.9561 2.78559 12.7452 3.25731 12.7452 3.77737C12.7452 4.29743 12.9561 4.76915 13.2975 5.11049C13.4821 5.29361 13.7018 5.4401 13.9479 5.53533ZM13.7619 6.05832L13.7414 6.05099L10.9799 5.15004V6.04953V6.05978H13.7619V6.05832ZM10.4247 4.96838L9.02857 4.51278V6.05832H10.4247V6.04806V4.96838ZM9.8636 2.87349C9.77277 2.86616 9.68633 2.86763 9.60576 2.87935C9.56035 2.88521 9.5164 2.89546 9.47538 2.90865C9.38455 2.94381 9.30398 2.99801 9.23513 3.0654C9.18385 3.11667 9.1399 3.1782 9.10621 3.24412C9.07398 3.31591 9.05054 3.39794 9.03589 3.49317L9.03296 3.51661C9.0315 3.53126 9.0315 3.54444 9.0315 3.55909V3.93119L10.4276 4.38679V3.55909C10.4276 3.36718 10.3485 3.19285 10.2225 3.0654C10.1244 2.97018 10.0013 2.90132 9.8636 2.87349ZM4.43591 15.292C4.80654 15.292 5.10686 15.5923 5.10686 15.9629C5.10686 16.3336 4.80654 16.6339 4.43591 16.6339C4.06527 16.6339 3.76495 16.3336 3.76495 15.9629C3.76642 15.5923 4.06674 15.292 4.43591 15.292ZM13.7267 15.292C14.0973 15.292 14.3977 15.5923 14.3977 15.9629C14.3977 16.3336 14.0973 16.6339 13.7267 16.6339C13.3561 16.6339 13.0557 16.3336 13.0557 15.9629C13.0572 15.5923 13.3561 15.292 13.7267 15.292ZM4.69228 8.82124H13.3092C13.4689 8.82124 13.5993 8.95162 13.5993 9.1113V11.5959C13.5993 11.7556 13.4689 11.8859 13.3092 11.8859H4.69228C4.5326 11.8859 4.40221 11.7556 4.40221 11.5959V9.1113C4.40075 8.95162 4.5326 8.82124 4.69228 8.82124Z" fill="black"/>
</svg>
