<svg width="18" height="18" viewBox="0 0 18 18" fill="none" xmlns="http://www.w3.org/2000/svg">
<path fill-rule="evenodd" clip-rule="evenodd" d="M5.77712 4.01575H13.9651V14.8475H13.5583L14.2728 16.5096C14.3003 16.5661 14.3145 16.6281 14.3144 16.6909C14.3144 16.9204 14.1282 17.1065 13.8987 17.1065H6.87748V17.1049C6.83114 17.1049 6.78403 17.097 6.73787 17.0805C6.52264 17.0034 6.41074 16.7664 6.4878 16.5512L7.09822 14.8475H5.77712C5.41385 14.8475 5.08342 14.6987 4.84383 14.4592L4.84291 14.4583C4.60336 14.2187 4.45458 13.8883 4.45458 13.5249V12.9747H2.79056C2.5881 12.9747 2.40356 12.8918 2.27025 12.7585C2.13718 12.6254 2.05411 12.4413 2.05411 12.2383V10.1492H0.717574C0.321293 10.1492 0 9.82788 0 9.4316C0 9.03536 0.321293 8.71406 0.717574 8.71406H2.05411V6.62497C2.05411 6.42202 2.13676 6.23787 2.27011 6.10455C2.40346 5.97121 2.58757 5.88855 2.79056 5.88855H4.45458V5.33829C4.45458 4.97498 4.60336 4.64455 4.84291 4.40496L4.84383 4.40405C5.08342 4.16453 5.41385 4.01575 5.77712 4.01575ZM8.69112 0.893555H12.3859C13.0093 0.893555 13.5191 1.40459 13.5191 2.02675V2.02689C13.5191 2.64901 13.0081 3.16008 12.3859 3.16008H8.69112C8.06896 3.16008 7.55793 2.65014 7.55793 2.02689V2.02675C7.55793 1.40343 8.06787 0.893555 8.69112 0.893555ZM4.29047 6.71986H2.88545V12.1434H4.29047V6.71986ZM14.7964 4.03962C15.6267 4.13559 16.3737 4.51539 16.937 5.07873C17.5929 5.73457 18 6.63949 18 7.63501V11.4859C18 12.4106 17.6218 13.2512 17.0127 13.8602C16.4385 14.4344 15.6587 14.8034 14.7964 14.8437V4.03962ZM12.7354 15.0364H7.90995L7.46613 16.2752H13.2679L12.7354 15.0364ZM7.05473 7.36462C6.79282 7.36462 6.58041 7.15221 6.58041 6.8903C6.58041 6.62835 6.79282 6.41593 7.05473 6.41593H12.1972C12.4591 6.41593 12.6715 6.62835 12.6715 6.8903C12.6715 7.15221 12.4591 7.36462 12.1972 7.36462H7.05473ZM7.05473 12.5506C6.79282 12.5506 6.58041 12.3382 6.58041 12.0762C6.58041 11.8143 6.79282 11.6019 7.05473 11.6019H12.1972C12.4591 11.6019 12.6715 11.8143 12.6715 12.0762C12.6715 12.3382 12.4591 12.5506 12.1972 12.5506H7.05473ZM7.05473 9.95761C6.79282 9.95761 6.58041 9.74523 6.58041 9.48328C6.58041 9.22137 6.79282 9.00895 7.05473 9.00895H12.1972C12.4591 9.00895 12.6715 9.22137 12.6715 9.48328C12.6715 9.74523 12.4591 9.95761 12.1972 9.95761H7.05473Z" fill="black"/>
</svg>
