<svg width="18" height="18" viewBox="0 0 18 18" fill="none" xmlns="http://www.w3.org/2000/svg">
<path fill-rule="evenodd" clip-rule="evenodd" d="M11.6045 8.37817C12.3604 8.82202 12.9316 9.38599 13.3345 10.0173H14.1196V15.3215H13.2803C12.4424 16.6443 10.9746 17.5964 9.03516 17.5964C7.09717 17.5964 5.61621 16.6443 4.77393 15.3215H3.90088V10.0173H4.7666C5.20312 9.36108 5.82861 8.77515 6.66504 8.32104C7.11035 8.08081 7.37988 7.78052 7.38281 7.51099C7.38721 7.16968 7.01367 6.87964 6.6123 6.87964H6.41309C5.92676 6.87964 5.52832 6.4812 5.52832 5.99487C5.52832 5.50854 5.92676 5.11011 6.41309 5.11011H7.5498L8.44336 4.00122C8.44043 3.96021 8.4375 3.91772 8.4375 3.87378V2.4104H4.81494C4.2627 2.4104 3.81152 1.95923 3.81152 1.40698C3.81152 0.856201 4.2627 0.403564 4.81494 0.403564H13.3374C13.8882 0.403564 14.3408 0.854736 14.3408 1.40698C14.3408 1.95923 13.8896 2.4104 13.3374 2.4104H9.88916V3.87378C9.88916 3.93384 9.88477 3.9939 9.87891 4.05103L10.6816 5.11011H11.6587C12.145 5.11011 12.5435 5.50854 12.5435 5.99487C12.5435 6.4812 12.145 6.86938 11.6587 6.87964C10.9893 6.89429 10.7432 7.1814 10.7739 7.51538C10.8267 8.13208 11.2544 8.1731 11.6045 8.37817ZM14.8447 10.0173H15.46V8.75024C15.46 8.52466 15.6445 8.34155 15.8687 8.34155H17.5913C17.8169 8.34155 18 8.52612 18 8.75024V16.5886C18 16.8142 17.8154 16.9973 17.5913 16.9973H15.8687C15.6431 16.9973 15.46 16.8127 15.46 16.5886V15.3215H14.8447V10.0173ZM3.17432 15.3215H2.54004V16.5886C2.54004 16.8142 2.35547 16.9973 2.13135 16.9973H0.408691C0.18457 16.9973 0 16.8142 0 16.5886V8.75024C0 8.52466 0.18457 8.34155 0.408691 8.34155H2.13135C2.35693 8.34155 2.54004 8.52612 2.54004 8.75024V10.0173H3.17432V15.3215Z" fill="black"/>
</svg>
