<svg width="19" height="19" viewBox="0 0 19 19" fill="none" xmlns="http://www.w3.org/2000/svg">
<g clip-path="url(#clip0_216_3021)">
<path fill-rule="evenodd" clip-rule="evenodd" d="M9.92041 1.9165C7.12816 1.9165 4.85791 4.20701 4.85791 7.03226C4.85791 7.98926 5.27941 9.17652 5.89291 10.3608C7.24366 12.9685 9.49366 15.595 9.49366 15.595C9.60016 15.7195 9.75616 15.7915 9.92041 15.7915C10.0847 15.7915 10.2407 15.7195 10.3472 15.595C10.3472 15.595 12.5972 12.9685 13.9479 10.3608C14.5614 9.17652 14.9829 7.98926 14.9829 7.03226C14.9829 4.20701 12.7127 1.9165 9.92041 1.9165ZM9.92041 3.04151C12.0954 3.04151 13.8579 4.83176 13.8579 7.03226C13.8579 8.13176 13.1604 9.56427 12.3549 10.9C11.4909 12.3325 10.4799 13.648 9.92041 14.344C9.36091 13.648 8.34991 12.3325 7.48591 10.9C6.68041 9.56427 5.98291 8.13176 5.98291 7.03226C5.98291 4.83176 7.74541 3.04151 9.92041 3.04151Z" fill="#D7282F"/>
<path fill-rule="evenodd" clip-rule="evenodd" d="M9.92041 4.9165C8.78191 4.9165 7.85791 5.84051 7.85791 6.97901C7.85791 8.11751 8.78191 9.04151 9.92041 9.04151C11.0589 9.04151 11.9829 8.11751 11.9829 6.97901C11.9829 5.84051 11.0589 4.9165 9.92041 4.9165ZM9.92041 6.04151C10.4379 6.04151 10.8579 6.46151 10.8579 6.97901C10.8579 7.49651 10.4379 7.91651 9.92041 7.91651C9.40291 7.91651 8.98291 7.49651 8.98291 6.97901C8.98291 6.46151 9.40291 6.04151 9.92041 6.04151Z" fill="#D7282F"/>
<path fill-rule="evenodd" clip-rule="evenodd" d="M13.5084 14.0118C14.1182 14.1948 14.6207 14.4213 14.9679 14.6868C15.1929 14.8578 15.3579 15.025 15.3579 15.229C15.3579 15.349 15.2897 15.4578 15.1937 15.5665C15.0347 15.7458 14.7984 15.907 14.5059 16.057C13.4724 16.5858 11.8014 16.9165 9.92041 16.9165C8.03941 16.9165 6.36841 16.5858 5.33491 16.057C5.04241 15.907 4.80616 15.7458 4.64716 15.5665C4.55116 15.4578 4.48291 15.349 4.48291 15.229C4.48291 15.025 4.64791 14.8578 4.87291 14.6868C5.22016 14.4213 5.72266 14.1948 6.33241 14.0118C6.62941 13.9225 6.79816 13.6083 6.70891 13.3113C6.61966 13.0135 6.30541 12.8448 6.00841 12.934C5.07991 13.2138 4.35841 13.597 3.92491 14.0208C3.54391 14.392 3.35791 14.8075 3.35791 15.229C3.35791 15.7555 3.65566 16.2805 4.26091 16.7185C5.32291 17.4865 7.45591 18.0415 9.92041 18.0415C12.3849 18.0415 14.5179 17.4865 15.5799 16.7185C16.1852 16.2805 16.4829 15.7555 16.4829 15.229C16.4829 14.8075 16.2969 14.392 15.9159 14.0208C15.4824 13.597 14.7609 13.2138 13.8324 12.934C13.5354 12.8448 13.2212 13.0135 13.1319 13.3113C13.0427 13.6083 13.2114 13.9225 13.5084 14.0118Z" fill="#D7282F"/>
</g>
<defs>
<clipPath id="clip0_216_3021">
<rect width="18" height="18" fill="white" transform="translate(0.92041 0.979004)"/>
</clipPath>
</defs>
</svg>
