<svg width="21" height="21" viewBox="0 0 21 21" fill="none" xmlns="http://www.w3.org/2000/svg">
<path d="M10.1197 2.40356C6.89969 2.40356 4.29541 5.0119 4.29541 8.23691C4.29541 12.6119 10.1197 19.0703 10.1197 19.0703C10.1197 19.0703 15.9439 12.6119 15.9439 8.23691C15.9439 5.0119 13.3397 2.40356 10.1197 2.40356ZM5.95949 8.23691C5.95949 5.9369 7.82325 4.07023 10.1197 4.07023C12.4161 4.07023 14.2799 5.9369 14.2799 8.23691C14.2799 10.6369 11.8836 14.2286 10.1197 16.4703C8.38903 14.2453 5.95949 10.6119 5.95949 8.23691Z" fill="#231F20"/>
<path d="M10.1196 10.3202C11.2684 10.3202 12.1997 9.3875 12.1997 8.2369C12.1997 7.08631 11.2684 6.15356 10.1196 6.15356C8.97084 6.15356 8.03955 7.08631 8.03955 8.2369C8.03955 9.3875 8.97084 10.3202 10.1196 10.3202Z" fill="#231F20"/>
</svg>
