<svg width="49" height="40" viewBox="0 0 49 40" fill="none" xmlns="http://www.w3.org/2000/svg">
<path d="M46.3828 0.0136719H3.04948C2.47484 0.0136719 1.92374 0.241945 1.51741 0.648274C1.11109 1.0546 0.882813 1.6057 0.882812 2.18034V36.847C0.882813 37.4216 1.11109 37.9727 1.51741 38.3791C1.92374 38.7854 2.47484 39.0137 3.04948 39.0137H46.3828C46.9574 39.0137 47.5085 38.7854 47.9149 38.3791C48.3212 37.9727 48.5495 37.4216 48.5495 36.847V2.18034C48.5495 1.6057 48.3212 1.0546 47.9149 0.648274C47.5085 0.241945 46.9574 0.0136719 46.3828 0.0136719ZM44.2161 34.6803H5.21614V33.5298L16.121 24.4298L18.9376 26.5467L16.6843 28.8152C16.2896 29.2238 16.0712 29.7711 16.0762 30.3392C16.0811 30.9073 16.309 31.4507 16.7107 31.8524C17.1124 32.2542 17.6558 32.482 18.2239 32.487C18.792 32.4919 19.3393 32.2735 19.748 31.8788L33.1488 18.478L44.2161 33.2352V34.6803ZM44.2161 26.0137L35.1161 13.8803C34.9299 13.6321 34.6924 13.4267 34.4199 13.2781C34.1473 13.1296 33.8461 13.0414 33.5364 13.0194C33.2268 12.9974 32.9161 13.0422 32.6253 13.1507C32.3345 13.2593 32.0704 13.429 31.851 13.6485L22.036 23.4635L17.3495 19.947C16.9594 19.6542 16.482 19.5015 15.9945 19.5137C15.5069 19.5259 15.0377 19.7022 14.6628 20.0142L5.21614 27.8878V4.347H44.2161V26.0137ZM9.54947 13.0137C9.54947 12.1566 9.80362 11.3188 10.2798 10.6062C10.7559 9.89359 11.4327 9.33817 12.2245 9.01019C13.0163 8.68221 13.8876 8.5964 14.7282 8.7636C15.5688 8.9308 16.3409 9.34351 16.9469 9.94954C17.553 10.5556 17.9657 11.3277 18.1329 12.1683C18.3001 13.0089 18.2143 13.8802 17.8863 14.672C17.5583 15.4638 17.0029 16.1406 16.2903 16.6167C15.5777 17.0929 14.7399 17.347 13.8828 17.347C12.7335 17.347 11.6313 16.8905 10.8187 16.0778C10.006 15.2651 9.54947 14.1629 9.54947 13.0137Z" fill="#C5C5C5"/>
</svg>
