<svg width="17" height="17" viewBox="0 0 17 17" fill="none" xmlns="http://www.w3.org/2000/svg">
<g clip-path="url(#clip0_216_3161)">
<path d="M15.6536 3.71578C15.1754 3.23584 14.508 2.93725 13.7773 2.9375H3.1089C2.37823 2.93725 1.71089 3.23584 1.23264 3.71578C0.753446 4.19478 0.455317 4.86313 0.455567 5.59494V12.3551C0.455317 13.087 0.753446 13.7553 1.23264 14.2343C1.71089 14.7143 2.3782 15.0129 3.1089 15.0126H13.7773C14.508 15.0129 15.1754 14.7143 15.6536 14.2343C16.1328 13.7553 16.4309 13.087 16.4307 12.3551V5.59494C16.4309 4.86313 16.1328 4.19478 15.6536 3.71578ZM15.2251 12.3551C15.2248 12.7575 15.064 13.116 14.801 13.3803C14.537 13.6438 14.1791 13.8048 13.7774 13.8051H3.1089C2.70719 13.8048 2.34927 13.6438 2.08531 13.3803C1.82228 13.116 1.66147 12.7575 1.66122 12.3551V5.59494C1.66147 5.1926 1.82228 4.83413 2.08531 4.56975C2.34927 4.30632 2.70722 4.14525 3.1089 4.145H13.7773C14.1791 4.14525 14.537 4.30632 14.8009 4.56975C15.064 4.83413 15.2248 5.19263 15.225 5.59494L15.2251 12.3551Z" fill="#231F20"/>
<path d="M13.7025 4.83032L8.97295 9.59505C8.8307 9.73702 8.64234 9.81533 8.44337 9.81555C8.24415 9.81555 8.05341 9.7363 7.91541 9.59621L7.91684 9.59786L3.18424 4.83032L2.67139 5.34114L7.40021 10.1049L7.40115 10.1061C7.67715 10.3849 8.05272 10.5401 8.44337 10.5401C8.83401 10.5403 9.20842 10.3842 9.4844 10.1073L9.48911 10.1026L14.2153 5.34114L13.7025 4.83032Z" fill="#231F20"/>
<path d="M10.9551 10.591L14.0382 13.2251L14.5077 12.6737L11.4246 10.0396L10.9551 10.591Z" fill="#231F20"/>
<path d="M2.37909 12.6737L2.84863 13.2251L5.93213 10.5914L5.46259 10.0399L2.37909 12.6737Z" fill="#231F20"/>
</g>
<defs>
<clipPath id="clip0_216_3161">
<rect width="15.9751" height="16" fill="white" transform="translate(0.455566 0.975098)"/>
</clipPath>
</defs>
</svg>
