<svg width="19" height="19" viewBox="0 0 19 19" fill="none" xmlns="http://www.w3.org/2000/svg">
<path d="M12.3203 11.854H15.3203C15.5453 11.854 15.6953 12.004 15.6953 12.229C15.6953 12.454 15.5453 12.604 15.3203 12.604H12.3203C12.0953 12.604 11.9453 12.454 11.9453 12.229C11.9453 12.004 12.0953 11.854 12.3203 11.854ZM13.4453 9.97901H16.4453C16.6703 9.97901 16.8203 10.129 16.8203 10.354C16.8203 10.579 16.6703 10.729 16.4453 10.729H13.4453C13.2203 10.729 13.0703 10.579 13.0703 10.354C13.0703 10.129 13.2203 9.97901 13.4453 9.97901ZM14.5703 8.10401H17.5703C17.7953 8.10401 17.9453 8.25401 17.9453 8.47901C17.9453 8.70401 17.7953 8.85401 17.5703 8.85401H14.5703C14.3453 8.85401 14.1953 8.70401 14.1953 8.47901C14.1953 8.25401 14.3453 8.10401 14.5703 8.10401ZM3.02031 7.12901C3.17031 6.97901 3.39531 6.90401 3.54531 7.05401L7.52031 10.054C7.89531 10.354 8.49531 10.354 8.87031 10.054L12.9203 7.05401C13.0703 6.90401 13.2953 6.90401 13.4453 7.12901C13.5203 7.27901 13.5203 7.50401 13.3703 7.65401L9.39531 10.654C9.09531 10.879 8.64531 11.029 8.27031 11.029C7.89531 11.029 7.44531 10.954 7.14531 10.654L3.17031 7.65401C2.94531 7.50401 2.94531 7.27901 3.02031 7.12901ZM2.57031 5.479H14.5703C14.7953 5.479 14.9453 5.629 14.9453 5.854C14.9453 6.07901 14.7953 6.22901 14.5703 6.22901H2.57031C2.34531 6.22901 2.19531 6.37901 2.19531 6.60401V14.104C2.19531 14.329 2.34531 14.479 2.57031 14.479H14.5703C14.7953 14.479 14.9453 14.629 14.9453 14.854C14.9453 15.079 14.7953 15.229 14.5703 15.229H2.57031C1.97031 15.229 1.44531 14.779 1.44531 14.104V6.60401C1.52031 5.929 1.97031 5.479 2.57031 5.479ZM3.09531 13.054L5.34531 10.804C5.49531 10.654 5.72031 10.654 5.87031 10.804C6.02031 10.954 6.02031 11.179 5.87031 11.329L3.62031 13.579C3.54531 13.654 3.47031 13.654 3.39531 13.654C3.32031 13.654 3.24531 13.579 3.09531 13.579C2.94531 13.429 2.94531 13.204 3.09531 13.054Z" fill="#D7282F"/>
</svg>
