<svg width="67" height="67" viewBox="0 0 67 67" fill="none" xmlns="http://www.w3.org/2000/svg">
<g clip-path="url(#clip0_2536_16928)">
<path d="M12.1084 33.2658L12.5124 32.8619L12.2304 32.3651C11.609 31.2702 11.1281 30.1155 10.795 28.9116L10.6429 28.3616H10.0722H7.02734V21.305H10.0722H10.6429L10.795 20.755C11.1281 19.5512 11.609 18.3965 12.2304 17.3015L12.5124 16.8047L12.1084 16.4009L9.95107 14.2445L14.9408 9.25478L17.0972 11.4121L17.501 11.8161L17.9978 11.5341C19.0928 10.9127 20.2475 10.4318 21.4513 10.0987L22.0013 9.94658V9.37589V6.33105H29.0579V9.37589V9.94658L29.6079 10.0987C30.8117 10.4318 31.9665 10.9127 33.0614 11.5341L33.5582 11.8161L33.962 11.4121L36.1185 9.25478L41.1082 14.2445L38.9509 16.4009L38.5469 16.8047L38.8288 17.3015C39.4503 18.3965 39.9312 19.5512 40.2642 20.755L40.4164 21.305H40.9871H44.0319V28.3616H40.9871H40.4164L40.2642 28.9116C39.9311 30.1156 39.4502 31.2713 38.829 32.3649L38.5467 32.8617L38.9509 33.2658L41.1082 35.4222L36.1185 40.4119L33.962 38.2546L33.5582 37.8506L33.0614 38.1325C31.9665 38.754 30.8117 39.2349 29.6079 39.5679L29.0579 39.7201V40.2908V43.3356H22.0013V40.2908V39.7201L21.4513 39.5679C20.2473 39.2348 19.0916 38.7539 17.9981 38.1327L17.5012 37.8504L17.0972 38.2546L14.9408 40.4119L9.95107 35.4222L12.1084 33.2658ZM8.41649 21.9442H7.66649V22.6942V26.9725V27.7225H8.41649H11.1654L11.2197 27.9717L11.2199 27.9727C11.5899 29.6603 12.2544 31.2596 13.1951 32.7253C13.1951 32.7254 13.1952 32.7254 13.1952 32.7254L13.3342 32.9421L11.3848 34.8906L10.8543 35.4209L11.3847 35.9513L14.4105 38.9772L14.941 39.5076L15.4713 38.977L17.4198 37.0277L17.6365 37.1667C17.6365 37.1667 17.6365 37.1667 17.6365 37.1668C19.1023 38.1075 20.7016 38.772 22.3892 39.142L22.3895 39.1421L22.6405 39.197V41.9465V42.6965H23.3905H27.6688H28.4188V41.9465V39.1976L28.668 39.1433L28.669 39.1431C30.3565 38.7731 31.9559 38.1086 33.4216 37.1678C33.4216 37.1678 33.4217 37.1678 33.4217 37.1678L33.6384 37.0288L35.5868 38.9781L36.1172 39.5087L36.6476 38.9782L39.6734 35.9524L40.2039 35.422L39.6733 34.8916L37.724 32.9432L37.863 32.7265C37.863 32.7265 37.863 32.7264 37.863 32.7264C38.8038 31.2606 39.4683 29.6613 39.8383 27.9738L39.8383 27.9735L39.8933 27.7225H42.6427H43.3927V26.9725V22.6942V21.9442H42.6427H39.8939L39.8396 21.6949L39.8393 21.694C39.4694 20.0064 38.8048 18.4071 37.8641 16.9413C37.8641 16.9413 37.8641 16.9413 37.864 16.9412L37.725 16.7246L39.6744 14.7761L40.205 14.2458L39.6745 13.7153L36.6487 10.6895L36.1182 10.1591L35.5879 10.6896L33.6394 12.639L33.4228 12.5C33.4228 12.5 33.4227 12.4999 33.4227 12.4999C31.9569 11.5592 30.3576 10.8947 28.6701 10.5247L28.6698 10.5246L28.4188 10.4697V7.7202V6.9702H27.6688H23.3905H22.6405V7.7202V10.4691L22.3912 10.5234L22.3902 10.5236C20.7027 10.8936 19.1033 11.5581 17.6375 12.4989L17.4209 12.6379L15.4724 10.6886L14.9421 10.158L14.4116 10.6884L11.3858 13.7142L10.8553 14.2447L11.3859 14.775L13.3353 16.7235L13.1963 16.9402C12.2555 18.4059 11.591 20.0053 11.221 21.6929L11.2209 21.6932L11.166 21.9442H8.41649Z" fill="#9A9A9A" stroke="#9A9A9A" stroke-width="1.5"/>
<path d="M31.2946 33.4547L31.6268 33.2319V32.8319V31.2511C31.6268 29.0678 29.8514 27.2924 27.6681 27.2924H23.3898C21.2065 27.2924 19.4311 29.0678 19.4311 31.2511V32.8319V33.2319L19.7633 33.4547C21.4128 34.5613 23.3971 35.2098 25.529 35.2098C27.6609 35.2098 29.6451 34.5613 31.2946 33.4547ZM25.2922 15.9635L25.2329 14.4648C19.6475 14.6226 15.1528 19.2099 15.1528 24.8336C15.1528 27.3198 16.0333 29.6039 17.4957 31.3912L18.7042 32.8683L18.8247 30.9636C18.9767 28.56 20.9594 26.6532 23.3898 26.6532H25.529H27.6681C30.0985 26.6532 32.0812 28.56 32.2332 30.9636L32.3537 32.8683L33.5622 31.3912C35.0246 29.6039 35.9051 27.3198 35.9051 24.8336C35.9051 19.2099 31.4104 14.6226 25.825 14.4648L25.7657 15.9635C28.1906 16.0869 30.1268 18.1003 30.1268 20.5554C30.1268 23.0899 28.0635 25.1532 25.529 25.1532C22.9944 25.1532 20.9311 23.0899 20.9311 20.5554C20.9311 18.1003 22.8673 16.0869 25.2922 15.9635ZM36.5442 24.8336C36.5442 30.9064 31.6017 35.8489 25.529 35.8489C19.4562 35.8489 14.5137 30.9064 14.5137 24.8336C14.5137 18.7609 19.4562 13.8184 25.529 13.8184C31.6017 13.8184 36.5442 18.7609 36.5442 24.8336ZM25.529 24.5141C27.7122 24.5141 29.4877 22.7386 29.4877 20.5554C29.4877 18.3721 27.7122 16.5966 25.529 16.5966C23.3457 16.5966 21.5702 18.3721 21.5702 20.5554C21.5702 22.7386 23.3457 24.5141 25.529 24.5141Z" fill="#9A9A9A" stroke="#9A9A9A" stroke-width="1.5"/>
<path d="M12.6074 56.3814L12.8271 56.6011H13.1378H42.7751L50.895 64.721L50.4433 65.1727L42.7305 57.4599L42.5108 57.2402H42.2001H12.5628L1.67969 46.3571V45.0232L7.21497 39.4879H8.54882L15.8161 46.7553L16.0358 46.9749H16.3465H34.7131H35.0238L35.2435 46.7553L47.4516 34.5472L47.6712 34.3275V34.0169V15.6502V15.3395L47.4516 15.1199L40.1842 7.85253V6.51868L45.7195 0.983398H47.0534L57.9365 11.8665V41.5038V41.8145L58.1562 42.0342L65.869 49.747L65.4173 50.1987L57.2974 42.0788V12.4415V12.1308L57.0777 11.9111L50.6603 5.49372L50.1299 4.96339L49.5996 5.49372L44.6946 10.3988L44.1642 10.9291L44.6946 11.4594L48.3104 15.0752V34.5918L35.2881 47.6141H15.7715L12.1557 43.9983L11.6254 43.4679L11.0951 43.9983L6.19001 48.9033L5.65968 49.4336L6.19001 49.964L12.6074 56.3814ZM40.8234 7.27759V7.58825L41.043 7.80792L43.1822 9.94706L43.7125 10.4774L44.2428 9.94706L49.1479 5.04201L49.6782 4.51168L49.1479 3.98135L47.0088 1.84221L46.7891 1.62254H46.4784H46.2945H45.9838L45.7641 1.84221L41.043 6.56329L40.8234 6.78296V7.09362V7.27759ZM2.31883 45.7821V46.0928L2.5385 46.3125L4.67764 48.4516L5.20797 48.9819L5.7383 48.4516L10.6434 43.5466L11.1737 43.0162L10.6434 42.4859L8.50421 40.3468L8.28454 40.1271H7.97388H7.78991H7.47925L7.25958 40.3468L2.5385 45.0678L2.31883 45.2875V45.5982V45.7821Z" fill="#9A9A9A" stroke="#9A9A9A" stroke-width="1.5"/>
<path d="M46.6016 51.5192C46.6016 48.4242 49.1205 45.9053 52.2155 45.9053C53.7161 45.9053 55.1233 46.4883 56.1849 47.5499L65.8689 57.2339L65.4172 57.6856L55.7331 48.0016C54.7946 47.0631 53.5429 46.5444 52.2155 46.5444C49.4718 46.5444 47.2407 48.7755 47.2407 51.5192C47.2407 52.8466 47.7594 54.0983 48.6979 55.0369L58.3819 64.7209L57.9302 65.1726L48.2462 55.4886C47.1845 54.427 46.6016 53.0198 46.6016 51.5192Z" fill="#9A9A9A" stroke="#9A9A9A" stroke-width="1.5"/>
</g>
<defs>
<clipPath id="clip0_2536_16928">
<rect width="66" height="66" fill="white" transform="translate(0.929688 0.233398)"/>
</clipPath>
</defs>
</svg>
