<svg width="35" height="34" viewBox="0 0 35 34" fill="none" xmlns="http://www.w3.org/2000/svg">
<rect x="0.75" width="34" height="34" rx="17" fill="#7C7C7C"/>
<path fill-rule="evenodd" clip-rule="evenodd" d="M26.5707 16.1795H27.4295C27.8819 16.1795 28.25 16.5475 28.25 17C28.25 17.4525 27.8819 17.8205 27.4295 17.8205H26.5707C26.3814 19.8684 25.4745 21.7975 24.011 23.2609C22.5475 24.7245 20.6184 25.6314 18.5705 25.8207V26.6795C18.5705 27.1319 18.2025 27.5 17.75 27.5C17.2975 27.5 16.9295 27.1319 16.9295 26.6795V25.8207C14.8816 25.6314 12.9525 24.7245 11.489 23.2609C10.0255 21.7975 9.11863 19.8684 8.92928 17.8205H8.07055C7.61809 17.8205 7.25 17.4525 7.25 17C7.25 16.5475 7.61809 16.1795 8.07055 16.1795H8.92928C9.11863 14.1316 10.0255 12.2025 11.489 10.7391C12.9525 9.27553 14.8816 8.36863 16.9295 8.17933V7.32055C16.9295 6.86809 17.2975 6.5 17.75 6.5C18.2025 6.5 18.5705 6.86809 18.5705 7.32055V8.17928C20.6184 8.36863 22.5475 9.27549 24.011 10.7391C25.4745 12.2025 26.3814 14.1316 26.5707 16.1795ZM24.9212 17.8205H24.1472C23.6948 17.8205 23.3267 17.4525 23.3267 17C23.3267 16.5475 23.6948 16.1795 24.1472 16.1795H24.9212C24.5432 12.8534 21.8966 10.2068 18.5705 9.82883V10.6028C18.5705 11.0552 18.2025 11.4233 17.75 11.4233C17.2975 11.4233 16.9295 11.0552 16.9295 10.6028V9.82883C13.6034 10.2068 10.9568 12.8534 10.5788 16.1795H11.3528C11.8052 16.1795 12.1733 16.5475 12.1733 17C12.1733 17.4525 11.8052 17.8205 11.3528 17.8205H10.5788C10.9568 21.1466 13.6034 23.7932 16.9295 24.1712V23.3972C16.9295 22.9448 17.2975 22.5767 17.75 22.5767C18.2025 22.5767 18.5705 22.9448 18.5705 23.3972V24.1712C21.8966 23.7932 24.5432 21.1466 24.9212 17.8205ZM18.9555 16.7377C19.3345 16.4633 19.7555 16.2801 20.1782 16.2111C20.8137 16.1073 21.3805 16.2668 21.774 16.6604C22.1677 17.0539 22.3271 17.6207 22.2233 18.2562C22.128 18.8396 21.8163 19.42 21.3456 19.8906C20.875 20.3612 20.2947 20.673 19.711 20.7683C19.0757 20.8721 18.5089 20.7125 18.1154 20.3189C17.7218 19.9255 17.5623 19.3587 17.6661 18.7232C17.7352 18.3003 17.9185 17.8794 18.1929 17.5005L16.2299 15.5375L15.2005 16.567C14.99 16.7775 14.6484 16.7775 14.4379 16.567C14.2273 16.3563 14.2273 16.0149 14.4378 15.8043L15.4673 14.7749L14.9589 14.2665L13.9294 15.2958C13.7189 15.5064 13.3775 15.5065 13.1669 15.2959C12.9563 15.0853 12.9563 14.7438 13.1669 14.5333L14.1969 13.5033C13.9965 13.2921 13.9995 12.9587 14.2066 12.7515C14.4171 12.541 14.7586 12.541 14.9692 12.7515L18.9555 16.7377ZM18.8287 19.6056C19.2214 19.9984 20.0642 19.8188 20.6691 19.214C21.274 18.6092 21.4535 17.7664 21.0608 17.3735C20.668 16.9808 19.8251 17.1603 19.2203 17.7652C18.6155 18.37 18.4361 19.213 18.8287 19.6056Z" fill="white"/>
</svg>
