<svg width="100" height="100" viewBox="0 0 100 100" fill="none" xmlns="http://www.w3.org/2000/svg">
<rect width="100" height="100" rx="50" fill="white"/>
<path d="M76.5 17.6562H25.5C23.951 17.6591 22.4663 18.2756 21.3709 19.3709C20.2756 20.4663 19.6591 21.951 19.6562 23.5V74.5C19.6591 76.049 20.2756 77.5338 21.3709 78.6291C22.4663 79.7243 23.951 80.341 25.5 80.3438H76.5C78.049 80.341 79.5338 79.7243 80.6291 78.6291C81.7243 77.5338 82.341 76.049 82.3438 74.5V23.5C82.341 21.951 81.7243 20.4663 80.6291 19.3709C79.5338 18.2756 78.049 17.6591 76.5 17.6562ZM25.5 20.8438H76.5C77.2044 20.8438 77.8801 21.1236 78.3783 21.6217C78.8764 22.1199 79.1562 22.7955 79.1562 23.5V64.7569L65.875 51.465C65.5764 51.166 65.1713 50.9979 64.7487 50.9975C64.3262 50.9979 63.9211 51.166 63.6225 51.465L54.825 60.2731L39.2169 44.6756C39.0696 44.5266 38.8943 44.4082 38.7009 44.3274C38.5076 44.2467 38.3002 44.205 38.0906 44.205C37.8811 44.205 37.6737 44.2467 37.4803 44.3274C37.287 44.4082 37.1116 44.5266 36.9644 44.6756L22.8438 58.7963V23.5C22.8438 22.7955 23.1236 22.1199 23.6217 21.6217C24.1199 21.1236 24.7955 20.8438 25.5 20.8438ZM22.8438 74.5V63.3012L38.0906 48.0544L67.1925 77.1562H25.5C24.7955 77.1562 24.1199 76.8764 23.6217 76.3783C23.1236 75.8801 22.8438 75.2044 22.8438 74.5ZM76.5 77.1562H71.6975L57.0669 62.5256L64.7381 54.8438L79.1562 69.2619V74.5C79.1562 75.2044 78.8764 75.8801 78.3783 76.3783C77.8801 76.8764 77.2044 77.1562 76.5 77.1562Z" fill="#A2A2A2"/>
<path d="M52.222 41.3074C53.7392 41.3074 55.2223 40.8574 56.4839 40.0145C57.7454 39.1715 58.7287 37.9735 59.3093 36.5717C59.8899 35.1701 60.0418 33.6276 59.7458 32.1395C59.4498 30.6515 58.7192 29.2846 57.6464 28.2118C56.5735 27.1388 55.2066 26.4083 53.7186 26.1123C52.2305 25.8162 50.6881 25.9682 49.2863 26.5488C47.8846 27.1294 46.6865 28.1126 45.8435 29.3742C45.0006 30.6357 44.5508 32.1189 44.5508 33.6361C44.5535 35.6698 45.3626 37.6193 46.8007 39.0574C48.2387 40.4954 50.1883 41.3045 52.222 41.3074ZM52.222 29.1524C53.1088 29.1524 53.9757 29.4154 54.7131 29.908C55.4503 30.4007 56.025 31.1009 56.3644 31.9202C56.7038 32.7396 56.7926 33.6411 56.6196 34.5109C56.4465 35.3807 56.0195 36.1795 55.3924 36.8066C54.7654 37.4336 53.9664 37.8607 53.0967 38.0337C52.2269 38.2067 51.3254 38.1179 50.5061 37.7785C49.6868 37.4391 48.9866 36.8645 48.4939 36.1272C48.0013 35.3898 47.7383 34.5229 47.7383 33.6361C47.7383 33.0473 47.8542 32.4642 48.0796 31.9202C48.3049 31.3763 48.6351 30.8819 49.0515 30.4656C49.4678 30.0492 49.9621 29.719 50.5061 29.4937C51.0501 29.2683 51.6332 29.1524 52.222 29.1524Z" fill="#A2A2A2"/>
</svg>
