<svg width="20" height="21" viewBox="0 0 20 21" fill="none" xmlns="http://www.w3.org/2000/svg">
<path d="M10 0.5C8.68678 0.5 7.38642 0.758658 6.17317 1.2612C4.95991 1.76375 3.85752 2.50035 2.92893 3.42893C1.05357 5.3043 0 7.84784 0 10.5C0 13.1522 1.05357 15.6957 2.92893 17.5711C3.85752 18.4997 4.95991 19.2362 6.17317 19.7388C7.38642 20.2413 8.68678 20.5 10 20.5C12.6522 20.5 15.1957 19.4464 17.0711 17.5711C18.9464 15.6957 20 13.1522 20 10.5C20 9.18678 19.7413 7.88642 19.2388 6.67317C18.7362 5.45991 17.9997 4.35752 17.0711 3.42893C16.1425 2.50035 15.0401 1.76375 13.8268 1.2612C12.6136 0.758658 11.3132 0.5 10 0.5ZM5.07 16.78C5.5 15.88 8.12 15 10 15C11.88 15 14.5 15.88 14.93 16.78C13.57 17.86 11.86 18.5 10 18.5C8.14 18.5 6.43 17.86 5.07 16.78ZM16.36 15.33C14.93 13.59 11.46 13 10 13C8.54 13 5.07 13.59 3.64 15.33C2.62 14 2 12.32 2 10.5C2 6.09 5.59 2.5 10 2.5C14.41 2.5 18 6.09 18 10.5C18 12.32 17.38 14 16.36 15.33ZM10 4.5C8.06 4.5 6.5 6.06 6.5 8C6.5 9.94 8.06 11.5 10 11.5C11.94 11.5 13.5 9.94 13.5 8C13.5 6.06 11.94 4.5 10 4.5ZM10 9.5C9.60218 9.5 9.22064 9.34196 8.93934 9.06066C8.65804 8.77936 8.5 8.39782 8.5 8C8.5 7.60218 8.65804 7.22064 8.93934 6.93934C9.22064 6.65804 9.60218 6.5 10 6.5C10.3978 6.5 10.7794 6.65804 11.0607 6.93934C11.342 7.22064 11.5 7.60218 11.5 8C11.5 8.39782 11.342 8.77936 11.0607 9.06066C10.7794 9.34196 10.3978 9.5 10 9.5Z" fill="#8A8A8A"/>
</svg>
