<svg width="66" height="67" viewBox="0 0 66 67" fill="none" xmlns="http://www.w3.org/2000/svg">
<path d="M54.5 30.5831V31.0831H55H63.25C64.4927 31.0831 65.5 32.0904 65.5 33.333V58.083C65.5 62.3643 62.0313 65.833 57.75 65.833H4.84546C2.44513 65.833 0.5 63.8879 0.5 61.4874V5.17846C0.5 2.77813 2.44512 0.833008 4.84546 0.833008H50.4405C51.6567 0.833008 52.6656 1.25986 53.3694 1.96367C54.0732 2.66747 54.5 3.67638 54.5 4.89255V30.5831ZM5.50004 5.33305H5.00004V5.83305V60.8331V61.3331H5.50004H49.971H50.678L50.4425 60.6665C50.1936 59.9623 50.0432 59.2117 50.0088 58.4301L50.0087 58.4279C50.0031 58.3123 50 58.1975 50 58.083V33.333V5.83305V5.33305H49.5H5.50004ZM57.5219 61.3217L57.5219 61.3218L57.5338 61.3226C57.5416 61.3231 57.5505 61.3238 57.5604 61.3245C57.6092 61.3279 57.6805 61.333 57.75 61.333C59.5461 61.333 61 59.8791 61 58.083L61.0001 36.083L61.0001 35.583H60.5001H55H54.5V36.083V58.083C54.5 58.1664 54.5073 58.2526 54.5104 58.2991L54.5103 58.2991L54.5113 58.3111C54.5796 59.0712 54.9775 59.7868 55.5119 60.3212C56.0462 60.8555 56.7618 61.2535 57.5219 61.3217Z" fill="#9A9A9A" stroke="white"/>
<path d="M13.75 13.5831H13.25V14.0831V22.3331V22.8331H13.75H24.75H25.25V22.3331V14.0831V13.5831H24.75H13.75ZM27.5 27.333H11C9.75733 27.333 8.75 26.3256 8.75 25.083V11.333C8.75 10.0903 9.75733 9.08301 11 9.08301H27.5C28.7426 9.08301 29.7499 10.0903 29.7499 11.333V25.083C29.7499 26.3256 28.7426 27.333 27.5 27.333Z" fill="#9A9A9A" stroke="white"/>
<path d="M11 33.833H44C45.2426 33.833 46.25 34.8404 46.2499 36.0829C46.2499 37.3256 45.2426 38.3329 44 38.3329H11C9.75733 38.3329 8.75 37.3256 8.75 36.083C8.75 34.8403 9.75733 33.833 11 33.833Z" fill="#9A9A9A" stroke="white"/>
<path d="M24.2499 44.3329V44.333C24.2499 45.5756 23.2425 46.5829 21.9999 46.5829H11C9.75733 46.5829 8.75 45.5756 8.75 44.333C8.75 43.0903 9.75733 42.083 11 42.083H22C23.2427 42.083 24.25 43.0903 24.2499 44.3329Z" fill="#9A9A9A" stroke="white"/>
<path d="M46.2499 14.0878V14.0878C46.2499 15.3305 45.2426 16.3378 44 16.3378H35.75C34.5073 16.3378 33.5 15.3305 33.5 14.0878C33.5 12.8452 34.5073 11.8379 35.75 11.8379H44C45.2426 11.8379 46.25 12.8454 46.2499 14.0878Z" fill="#9A9A9A" stroke="white"/>
<path d="M46.2499 22.3339V22.3339C46.2499 23.5766 45.2426 24.5839 44 24.5839H35.75C34.5073 24.5839 33.5 23.5766 33.5 22.3339C33.5 21.0913 34.5073 20.084 35.75 20.084H44C45.2426 20.084 46.25 21.0915 46.2499 22.3339Z" fill="#9A9A9A" stroke="white"/>
<path d="M46.2616 44.3329V44.333C46.2616 45.5756 45.2543 46.5829 44.0116 46.5829H33.0117C31.769 46.5829 30.7617 45.5756 30.7617 44.333C30.7617 43.0903 31.769 42.083 33.0117 42.083H44.0116C45.2543 42.083 46.2617 43.0904 46.2616 44.3329Z" fill="#9A9A9A" stroke="white"/>
<path d="M24.2499 52.5829V52.583C24.2499 53.8256 23.2425 54.8329 21.9999 54.8329H11C9.75733 54.8329 8.75 53.8256 8.75 52.583C8.75 51.3403 9.75733 50.333 11 50.333H22C23.2427 50.333 24.25 51.3403 24.2499 52.5829Z" fill="#9A9A9A" stroke="white"/>
<path d="M46.2616 52.5829V52.583C46.2616 53.8256 45.2543 54.8329 44.0116 54.8329H33.0117C31.769 54.8329 30.7617 53.8256 30.7617 52.583C30.7617 51.3403 31.769 50.333 33.0117 50.333H44.0116C45.2543 50.333 46.2617 51.3404 46.2616 52.5829Z" fill="#9A9A9A" stroke="white"/>
</svg>
