<svg width="101" height="101" viewBox="0 0 101 101" fill="none" xmlns="http://www.w3.org/2000/svg">
<g clip-path="url(#clip0_287_12348)">
<path d="M7.10233 56.0039C8.18112 56.0039 9.05545 55.1296 9.05545 54.0508C9.05545 52.972 8.18112 52.0977 7.10233 52.0977H7.1008C6.022 52.0977 5.14844 52.972 5.14844 54.0508C5.14844 55.1296 6.02429 56.0039 7.10233 56.0039Z" fill="#D7282F"/>
<path d="M5.14575 72.1065L1.52637 73.7674C0.834382 74.0856 0.389589 74.7768 0.388063 75.539L0.378907 80.0441C0.378145 80.7277 0.732911 81.3617 1.31732 81.7165L3.31775 82.9341C4.23938 83.4949 5.44101 83.2027 6.00177 82.2811C6.56253 81.3594 6.26956 80.1578 5.34793 79.597L4.28745 78.9516L4.29202 76.7963L7.10345 75.5062L9.90954 76.8047L9.90497 78.96L8.84219 79.6024C7.91827 80.1601 7.62225 81.361 8.17996 82.2841C8.54694 82.8914 9.19238 83.2279 9.85385 83.2279C10.1979 83.2279 10.5458 83.1371 10.8617 82.9456L12.8659 81.7348C13.4503 81.3816 13.8082 80.7491 13.8089 80.067L13.8181 75.5619C13.8196 74.7989 13.3771 74.1054 12.6851 73.785L9.05124 72.1035V61.8633C9.05124 60.7845 8.17691 59.9102 7.09811 59.9102C6.02008 59.9102 5.14499 60.7845 5.14499 61.8633V72.1065H5.14575Z" fill="#D7282F"/>
<path d="M96.9944 93.2102C94.8933 95.4868 91.914 96.793 88.8203 96.793C85.9799 96.793 83.2371 95.689 81.1802 93.7466V77.3113C81.6944 76.9596 82.0316 76.3691 82.0316 75.6992V68.2773H84.1717C85.2505 68.2773 86.1248 67.403 86.1248 66.3242C86.1248 65.2454 85.2505 64.3711 84.1717 64.3711H76.1448V21.4161C76.1448 20.3373 75.2697 19.463 74.1917 19.463H60.1406C59.0618 19.463 58.1875 20.3373 58.1875 21.4161V33.1211H54.2813V16.4265C54.2813 15.3477 53.4062 14.4733 52.3281 14.4733H46.4688V10.5175C46.4688 7.25745 49.1207 4.60547 52.3808 4.60547H68.6443C69.7231 4.60547 70.5975 3.73114 70.5975 2.65234C70.5975 1.57355 69.7231 0.699219 68.6443 0.699219H52.3808C46.967 0.699219 42.5625 5.10367 42.5625 10.5175V33.1211H36.7031C35.6244 33.1211 34.75 33.9954 34.75 35.0742V35.8806L26.862 23.3219C25.7664 21.5771 24.0567 20.3632 22.0486 19.9047C20.0398 19.4462 17.973 19.7971 16.2289 20.8927C14.2125 22.1592 12.9849 24.2115 12.6904 26.4042L2.55552 36.0844C1.19902 37.3806 0.427687 39.1277 0.384963 41.003C0.341475 42.8799 1.03194 44.6598 2.32817 46.0171C3.7068 47.4598 5.55693 48.1861 7.4101 48.1861C9.15571 48.1861 10.9036 47.5414 12.2616 46.2444L19.0007 39.8083L26.9627 52.4853C25.3018 54.1973 24.2764 56.5296 24.2764 59.0977V64.3711H16.5936C15.5156 64.3711 14.6405 65.2454 14.6405 66.3242C14.6405 67.403 15.5156 68.2773 16.5936 68.2773H18.7504V75.6992C18.7504 76.3683 19.0884 76.9588 19.6019 77.3113V93.7305C17.5435 95.6837 14.7938 96.793 11.9458 96.793C8.85206 96.793 5.87278 95.4868 3.77089 93.2102C3.03999 92.4175 1.80403 92.3679 1.01134 93.0996C0.218642 93.8305 0.169051 95.0664 0.90071 95.8591C3.73961 98.9353 7.76487 100.699 11.9458 100.699C15.4637 100.699 18.8717 99.4503 21.555 97.2217C24.2382 99.4503 27.6463 100.699 31.1642 100.699C34.6821 100.699 38.0902 99.4503 40.7734 97.2217C43.4567 99.4503 46.8647 100.699 50.3826 100.699C53.9006 100.699 57.3086 99.4503 59.9919 97.2217C62.6759 99.4503 66.0839 100.699 69.6018 100.699C73.1198 100.699 76.5278 99.4503 79.2111 97.2217C81.8943 99.4503 85.3024 100.699 88.8203 100.699C93.0004 100.699 97.0264 98.9353 99.8646 95.8591C100.596 95.0664 100.547 93.8312 99.7547 93.0996C98.9613 92.3679 97.7261 92.4175 96.9944 93.2102ZM73.5211 96.075L67.5671 90.1218L77.274 80.4149V93.716C76.1875 94.7506 74.9081 95.5509 73.5211 96.075ZM27.245 96.075C25.8648 95.554 24.5915 94.7582 23.5081 93.7313V80.431L33.1982 90.1218L27.245 96.075ZM35.96 87.3592L26.2532 77.6523H45.6677L35.96 87.3592ZM55.0984 77.6523H74.5121L64.8052 87.3592L55.0984 77.6523ZM72.2386 40.2897L63.3206 33.1913L72.2386 25.6321V40.2897ZM71.0667 44.3493L62.0938 51.4919V37.2074L71.0667 44.3493ZM72.2386 48.4096V62.2738L63.5296 55.3417L72.2386 48.4096ZM62.0938 59.1915L68.6016 64.3711H62.0938V59.1915ZM68.8664 23.3692L62.0938 29.1111V23.3692H68.8664ZM46.4688 18.3796H50.375V33.1211H46.4688V18.3796ZM58.1875 37.0273V64.3711H38.6563V57.8609H48.0656C49.1436 57.8609 50.0187 56.9866 50.0187 55.9078C50.0187 54.829 49.1436 53.9547 48.0656 53.9547H38.6563V47.4438H48.0656C49.1436 47.4438 50.0187 46.5694 50.0187 45.4914C50.0187 44.4126 49.1436 43.5383 48.0656 43.5383H38.6563V37.0273H58.1875ZM18.3064 24.2008C19.1678 23.6599 20.1878 23.4867 21.1789 23.7133C22.1699 23.9391 23.013 24.538 23.5539 25.3994L34.6379 43.0462C34.673 43.1026 34.7104 43.156 34.75 43.2064V49.5922H33.7811C32.5146 49.5922 31.3061 49.8432 30.1999 50.2949L21.0423 35.7143C21.0392 35.709 21.0354 35.7029 21.0316 35.6975L17.1078 29.4491C15.9909 27.6722 16.5288 25.3177 18.3064 24.2008ZM9.56388 43.4193C8.32029 44.6079 6.34123 44.5621 5.15257 43.3185C4.57731 42.7166 4.27061 41.9254 4.28968 41.093C4.30876 40.2599 4.65132 39.484 5.25404 38.9088L13.5113 31.0222C13.6014 31.1924 13.696 31.361 13.7997 31.5273L16.8797 36.4315L9.56388 43.4193ZM28.1826 59.0977C28.1826 56.01 30.6942 53.4984 33.7811 53.4984H34.75V64.3711H28.1826V59.0977ZM74.1879 68.2773H78.1254V73.7461C78.1254 73.7461 50.3826 73.7461 50.3819 73.7461H22.6567V68.2773H74.1879ZM42.2085 93.2102C41.8393 92.8097 41.3189 92.5815 40.7734 92.5815C40.2287 92.5815 39.7076 92.8097 39.3383 93.2102C37.4485 95.2579 34.8484 96.5168 32.0942 96.7502L48.4295 80.4149V96.6152C46.0606 96.1887 43.8626 95.0023 42.2085 93.2102ZM61.4277 93.2102C61.0577 92.8097 60.5374 92.5815 59.9919 92.5815C59.4471 92.5815 58.9268 92.8097 58.5568 93.2102C56.9027 95.0023 54.7047 96.1895 52.3358 96.6152V80.4149L68.6711 96.7502C65.9168 96.516 63.3175 95.2579 61.4277 93.2102Z" fill="white"/>
<path d="M76.4531 4.60547C76.9666 4.60547 77.4709 4.39642 77.834 4.03326C78.1972 3.6701 78.4062 3.1658 78.4062 2.65234C78.4062 2.13889 78.1972 1.63458 77.834 1.27142C77.4709 0.908264 76.9666 0.699219 76.4531 0.699219C75.9397 0.699219 75.4354 0.908264 75.0722 1.27142C74.709 1.63458 74.5 2.13889 74.5 2.65234C74.5 3.1658 74.709 3.6701 75.0722 4.03326C75.4361 4.39642 75.9397 4.60547 76.4531 4.60547Z" fill="#D7282F"/>
<path d="M74.0391 12.418H98.4272C99.506 12.418 100.38 11.5436 100.38 10.4648C100.38 9.38605 99.506 8.51172 98.4272 8.51172H74.0391C72.9603 8.51172 72.0859 9.38605 72.0859 10.4648C72.0859 11.5436 72.9603 12.418 74.0391 12.418Z" fill="#D7282F"/>
<path d="M60.2891 8.51172C59.2103 8.51172 58.3359 9.38605 58.3359 10.4648C58.3359 11.5436 59.2103 12.418 60.2891 12.418H65.6411C66.7191 12.418 67.5942 11.5436 67.5942 10.4648C67.5942 9.38605 66.7191 8.51172 65.6411 8.51172H60.2891Z" fill="#D7282F"/>
</g>
<defs>
<clipPath id="clip0_287_12348">
<rect width="100" height="100" fill="white" transform="translate(0.378906 0.699219)"/>
</clipPath>
</defs>
</svg>
