<svg width="20" height="15" viewBox="0 0 20 15" fill="none" xmlns="http://www.w3.org/2000/svg">
<path d="M11.3882 1.7483C12.2033 2.00039 12.9377 2.46248 13.5176 3.08816C14.145 3.75768 14.5666 4.59352 14.7322 5.49601C14.8127 6.08496 14.8377 6.68017 14.807 7.2738C14.807 7.67267 14.794 8.06991 14.8233 8.44923C14.853 9.02941 15.0204 9.59418 15.3117 10.0968C15.6408 10.6121 16.0801 11.048 16.5979 11.3732C16.7447 11.4689 16.8509 11.6156 16.8958 11.785C16.9332 11.9159 16.9332 12.0547 16.8958 12.1855C16.8558 12.3165 16.7809 12.4341 16.6793 12.5258C16.5467 12.6413 16.3765 12.7044 16.2006 12.7033H12.3438C12.266 13.2708 11.9853 13.791 11.5535 14.1676C11.1218 14.5441 10.5683 14.7516 9.99542 14.7516C9.42254 14.7516 8.86904 14.5441 8.43731 14.1676C8.00558 13.791 7.72484 13.2708 7.64701 12.7033H3.79348C3.60921 12.7049 3.43137 12.6356 3.29693 12.5095C3.19997 12.4172 3.12985 12.3003 3.09401 12.1713C3.05818 12.0423 3.05798 11.906 3.09343 11.7769C3.14163 11.6023 3.25535 11.453 3.4109 11.3601C3.98002 11.003 4.44982 10.508 4.7768 9.92097C5.07224 9.31339 5.2137 8.64247 5.18869 7.96734C5.18869 7.71174 5.18869 7.56685 5.18869 7.4187C5.15575 6.7744 5.1841 6.12843 5.27335 5.48949C5.43553 4.6159 5.83521 3.80385 6.42854 3.14246C7.02187 2.48107 7.78591 1.99589 8.63684 1.74016C8.75579 1.48242 8.95062 1.26714 9.19525 1.12314C9.44274 0.980254 9.72348 0.905029 10.0093 0.905029C10.295 0.905029 10.5758 0.980254 10.8233 1.12314C11.0713 1.26858 11.2685 1.48685 11.3882 1.7483ZM2.87528 0.818703C2.84879 0.857929 2.81441 0.891198 2.77434 0.916384C2.53943 1.06679 2.31678 1.23555 2.10848 1.42107C1.90952 1.5972 1.72597 1.79001 1.55984 1.99739C1.40277 2.19736 1.26383 2.41093 1.14469 2.63557C1.03064 2.85519 0.937956 3.08525 0.867928 3.3226C0.79818 3.56056 0.752368 3.80489 0.731174 4.05195C0.706796 4.30479 0.706796 4.55939 0.731174 4.81224C0.757766 5.07813 0.807334 5.34123 0.879324 5.59857C0.955519 5.8704 1.0524 6.136 1.16911 6.39304C1.18928 6.4359 1.20036 6.48246 1.20167 6.5298C1.2034 6.57699 1.19565 6.62404 1.17888 6.66818C1.16323 6.71002 1.14005 6.74864 1.1105 6.78214C1.08225 6.81339 1.04861 6.83931 1.01119 6.85866C0.999908 6.86542 0.987893 6.87088 0.975377 6.87494C0.934718 6.89226 0.890958 6.90112 0.846764 6.90099C0.801703 6.9026 0.756798 6.89484 0.714894 6.8782C0.67294 6.86278 0.634275 6.83958 0.600933 6.80982C0.568704 6.77979 0.541739 6.74457 0.52116 6.70563L0.509763 6.6812C0.378188 6.38771 0.269334 6.08455 0.184159 5.7744C0.103995 5.47901 0.0495245 5.17725 0.0213573 4.87247C-0.0071191 4.57577 -0.0071191 4.27702 0.0213573 3.98032C0.0482106 3.6898 0.102725 3.40251 0.184159 3.12235C0.265662 2.84097 0.374725 2.56831 0.509763 2.30834C0.645118 2.04339 0.804808 1.79159 0.986773 1.5562C1.17813 1.31577 1.39003 1.09243 1.62007 0.888708C1.85734 0.67735 2.11102 0.485181 2.37873 0.314016C2.42018 0.284549 2.4673 0.264035 2.51711 0.253779C2.56131 0.246462 2.60641 0.246462 2.65061 0.253779C2.69606 0.264024 2.73915 0.282808 2.7776 0.309132C2.81682 0.335618 2.85009 0.369996 2.87528 0.410069C2.90101 0.450078 2.91819 0.494974 2.92575 0.541939C2.93471 0.588179 2.93471 0.635709 2.92575 0.681949C2.91493 0.727492 2.8956 0.770577 2.86876 0.808935L2.87528 0.818703ZM4.76215 2.42556C4.59132 2.53061 4.42812 2.64757 4.27375 2.77558C4.13499 2.89132 4.00644 3.01877 3.88953 3.15654C3.7823 3.2848 3.68797 3.42331 3.60789 3.57006C3.52488 3.71162 3.45876 3.86243 3.4109 4.01939C3.36885 4.17192 3.34373 4.32861 3.33601 4.48663C3.32809 4.65363 3.33627 4.821 3.36043 4.98643C3.387 5.16781 3.42949 5.3465 3.48741 5.52043C3.55039 5.71286 3.62822 5.9001 3.72022 6.08047C3.74081 6.12333 3.75297 6.16976 3.75604 6.21722C3.75968 6.26236 3.75414 6.30777 3.73976 6.35072C3.72555 6.39351 3.70346 6.43327 3.67464 6.46793C3.64531 6.50223 3.61001 6.53091 3.57044 6.55259H3.55905C3.51668 6.57298 3.47082 6.58513 3.42392 6.58841C3.37824 6.59196 3.33232 6.58643 3.28879 6.57213C3.246 6.55792 3.20625 6.53584 3.17158 6.50701C3.13643 6.47853 3.10759 6.44305 3.08692 6.40281V6.39142C2.9773 6.17351 2.88424 5.94767 2.80853 5.71579C2.73813 5.50374 2.68691 5.28579 2.65549 5.06458C2.62511 4.85275 2.61639 4.63837 2.62945 4.42477C2.6415 4.2175 2.67644 4.01221 2.73364 3.81263C2.79029 3.61323 2.86834 3.42055 2.96645 3.23794C3.06794 3.0487 3.18849 2.87032 3.32624 2.70558C3.47049 2.53252 3.62955 2.37237 3.80162 2.22694C3.98677 2.07271 4.18262 1.9318 4.38771 1.80528C4.42781 1.78004 4.47271 1.76341 4.51958 1.75644C4.56573 1.74664 4.61343 1.74664 4.65959 1.75644C4.70329 1.76655 4.74471 1.78477 4.78169 1.81017C4.81848 1.8353 4.85 1.86737 4.87449 1.90459L4.88751 1.92576C4.91103 1.9652 4.92653 2.00891 4.93309 2.05437C4.94974 2.14843 4.92932 2.24529 4.87611 2.32462C4.85054 2.36103 4.81854 2.39248 4.78169 2.41742L4.77029 2.42556H4.76215ZM17.2149 0.916384C17.1748 0.891198 17.1404 0.857929 17.1139 0.818703C17.0871 0.780346 17.0678 0.73726 17.057 0.691717C17.048 0.645477 17.048 0.597947 17.057 0.551707C17.0645 0.504742 17.0817 0.459847 17.1074 0.419838C17.1326 0.379764 17.1659 0.345386 17.2051 0.3189C17.2436 0.292576 17.2866 0.273792 17.3321 0.263548C17.3763 0.25623 17.4214 0.25623 17.4656 0.263548C17.5125 0.272159 17.5573 0.289856 17.5975 0.315644C17.8657 0.486737 18.12 0.678908 18.3578 0.890336C18.5917 1.09305 18.8074 1.31585 19.0024 1.5562C19.1881 1.78957 19.3516 2.03974 19.4909 2.30346C19.6259 2.56343 19.735 2.83608 19.8165 3.11747C19.8979 3.39763 19.9524 3.68492 19.9793 3.97543C20.0069 4.27218 20.0069 4.57085 19.9793 4.86759C19.9511 5.17236 19.8966 5.47413 19.8165 5.76951C19.7313 6.07967 19.6224 6.38283 19.4909 6.67632L19.4795 6.70074C19.4589 6.73969 19.4319 6.77491 19.3997 6.80493C19.3663 6.8347 19.3277 6.8579 19.2857 6.87331C19.2019 6.90585 19.109 6.90585 19.0252 6.87331L18.9894 6.85703C18.952 6.83768 18.9184 6.81176 18.8901 6.78051C18.8606 6.74701 18.8374 6.70839 18.8217 6.66655C18.805 6.62241 18.7972 6.57536 18.7989 6.52817C18.8003 6.48083 18.8113 6.43427 18.8315 6.39142C18.9482 6.13437 19.0451 5.86877 19.1213 5.59694C19.1933 5.3396 19.2429 5.07651 19.2694 4.81061C19.2938 4.55777 19.2938 4.30317 19.2694 4.05032C19.2482 3.80326 19.2024 3.55893 19.1327 3.32097C19.0627 3.08362 18.97 2.85356 18.8559 2.63395C18.7368 2.40892 18.5973 2.1953 18.4392 1.99576C18.274 1.78801 18.091 1.59516 17.8921 1.41944C17.6828 1.23378 17.4591 1.06502 17.223 0.914756L17.2149 0.916384ZM15.2336 2.42881L15.2157 2.41742C15.1788 2.39248 15.1468 2.36103 15.1212 2.32462C15.0702 2.24923 15.0487 2.15763 15.061 2.06739C15.0676 2.02194 15.0831 1.97823 15.1066 1.93878L15.1196 1.91762C15.1441 1.8804 15.1756 1.84832 15.2124 1.82319C15.249 1.79811 15.2898 1.7799 15.3329 1.76947C15.4263 1.74757 15.5246 1.76337 15.6064 1.81342C15.8115 1.93994 16.0073 2.08085 16.1925 2.23508C16.3646 2.38051 16.5236 2.54066 16.6679 2.71372C16.8056 2.87846 16.9262 3.05684 17.0277 3.24608C17.1258 3.42869 17.2038 3.62137 17.2605 3.82077C17.3169 4.02053 17.3518 4.22574 17.3647 4.43291C17.3777 4.64651 17.369 4.86089 17.3386 5.07272C17.3072 5.29393 17.256 5.51188 17.1856 5.72393C17.1099 5.95581 17.0168 6.18165 16.9072 6.39956V6.41095C16.8865 6.45119 16.8577 6.48667 16.8225 6.51515C16.7879 6.54398 16.7481 6.56606 16.7053 6.58027C16.6618 6.59457 16.6159 6.6001 16.5702 6.59655C16.5233 6.59327 16.4774 6.58112 16.4351 6.56073H16.4237C16.3841 6.53905 16.3488 6.51037 16.3195 6.47607C16.2906 6.44141 16.2686 6.40165 16.2543 6.35886C16.24 6.31591 16.2344 6.2705 16.2381 6.22536C16.2409 6.17839 16.2531 6.13246 16.2739 6.09023C16.3656 5.90919 16.4435 5.72143 16.5067 5.52857C16.5646 5.35464 16.6071 5.17595 16.6337 4.99458C16.6578 4.82914 16.666 4.66177 16.6581 4.49477C16.649 4.33547 16.6223 4.17767 16.5783 4.02428C16.535 3.87082 16.4744 3.7228 16.3976 3.58308C16.3158 3.43436 16.2192 3.29419 16.1095 3.16468C15.9925 3.02691 15.864 2.89946 15.7252 2.78372C15.5709 2.65571 15.4077 2.53875 15.2368 2.4337L15.2336 2.42881ZM12.9544 3.61076C12.4276 3.04188 11.7501 2.63427 11.0007 2.43533C10.9378 2.41723 10.8805 2.38336 10.8344 2.33691C10.7882 2.29047 10.7547 2.233 10.737 2.16996C10.6914 2.00674 10.5839 1.86775 10.4374 1.78249C10.3085 1.70914 10.1625 1.67096 10.0141 1.67179C9.86795 1.67006 9.72398 1.70773 9.59737 1.78086C9.45403 1.86661 9.34912 2.00416 9.30433 2.16508C9.28573 2.23025 9.25016 2.28931 9.20125 2.33623C9.15233 2.38314 9.09183 2.41621 9.02594 2.43207C8.27141 2.62117 7.58687 3.02253 7.05338 3.58863C6.51989 4.15472 6.15979 4.86184 6.01573 5.62625C5.93682 6.21971 5.91284 6.8192 5.9441 7.41707C5.9441 7.6515 5.9441 7.88106 5.9441 7.97711C5.96921 8.77439 5.79756 9.56558 5.44429 10.2808C5.07838 10.9502 4.55408 11.5197 3.91721 11.9397H16.0655C15.4994 11.5644 15.0199 11.0726 14.6589 10.4973C14.3044 9.89168 14.0995 9.21019 14.0614 8.50947C14.0305 8.11712 14.0386 7.69546 14.0451 7.26566C14.0717 6.72199 14.0482 6.17703 13.9751 5.63764C13.8357 4.88185 13.4826 4.18185 12.9576 3.62053L12.9544 3.61076Z" fill="#4E4E4E"/>
</svg>
