<svg width="19" height="19" viewBox="0 0 19 19" fill="none" xmlns="http://www.w3.org/2000/svg">
<path d="M9.49728 9.34956e-06C11.6953 -0.000618937 13.8255 0.760943 15.5249 2.15492C17.2243 3.5489 18.3878 5.48903 18.8171 7.64471C19.2463 9.80038 18.9148 12.0382 17.879 13.9768C16.8432 15.9155 15.1672 17.435 13.1366 18.2764C11.106 19.1178 8.84653 19.229 6.74312 18.5912C4.6397 17.9533 2.82255 16.6058 1.60132 14.7783C0.380082 12.9508 -0.169668 10.7564 0.0457494 8.56894C0.261166 6.38152 1.22842 4.33648 2.78268 2.7823C3.66324 1.89881 4.7098 1.19816 5.86216 0.720669C7.01451 0.243173 8.24992 -0.00174416 9.49728 9.34956e-06ZM11.5469 8.30361V7.7997C11.5492 7.23039 11.3316 6.68218 10.9394 6.26944C10.755 6.07143 10.5318 5.91353 10.2837 5.80555C10.0356 5.69758 9.76787 5.64186 9.49728 5.64186C9.22669 5.64186 8.959 5.69758 8.71089 5.80555C8.46277 5.91353 8.23955 6.07143 8.05513 6.26944C7.66245 6.68183 7.44473 7.23027 7.44766 7.7997V8.30361H11.5469ZM6.53105 8.30361V7.7997C6.5301 6.9938 6.84017 6.21862 7.39665 5.6357C7.6661 5.34867 7.99151 5.11991 8.3528 4.96353C8.7141 4.80716 9.1036 4.72648 9.49728 4.72648C9.89097 4.72648 10.2805 4.80716 10.6418 4.96353C11.0031 5.11991 11.3285 5.34867 11.5979 5.6357C12.1544 6.21862 12.4645 6.9938 12.4635 7.7997V8.30361H12.6258C12.7543 8.30361 12.8775 8.35453 12.9685 8.44522C13.0594 8.53591 13.1108 8.65896 13.1112 8.78742V13.5714C13.1108 13.7 13.0595 13.8232 12.9686 13.9142C12.8776 14.0051 12.7544 14.0564 12.6258 14.0568H6.36875C6.24029 14.0564 6.11724 14.005 6.02655 13.9141C5.93586 13.8231 5.88494 13.6999 5.88494 13.5714V8.78742C5.88494 8.6591 5.93591 8.53605 6.02665 8.44531C6.11738 8.35458 6.24044 8.30361 6.36875 8.30361H6.52332H6.53105ZM9.12013 11.3966L8.61004 12.7166H10.3845L9.92081 11.3796C10.1082 11.2845 10.2578 11.1286 10.345 10.9374C10.4322 10.7463 10.4519 10.5311 10.4009 10.3273C10.3499 10.1234 10.2311 9.94293 10.0641 9.8154C9.89711 9.68786 9.69173 9.62082 9.48163 9.62526C9.27154 9.62971 9.06918 9.70537 8.90771 9.83986C8.74624 9.97435 8.63523 10.1597 8.59286 10.3655C8.55049 10.5713 8.57929 10.7855 8.67452 10.9728C8.76975 11.1601 8.92578 11.3095 9.11704 11.3966H9.12013ZM15.1747 3.82257C13.8628 2.51007 12.1364 1.69309 10.2896 1.51085C8.44282 1.32861 6.59 1.79238 5.04685 2.82314C3.5037 3.8539 2.36572 5.38787 1.82683 7.16364C1.28793 8.93941 1.38146 10.8471 2.09149 12.5616C2.80152 14.2762 4.0841 15.6915 5.72068 16.5663C7.35726 17.4412 9.24657 17.7215 11.0666 17.3594C12.8867 16.9974 14.525 16.0155 15.7022 14.5809C16.8794 13.1464 17.5228 11.348 17.5227 9.49227C17.5226 8.4395 17.3146 7.39711 16.9106 6.42494C16.5066 5.45277 15.9146 4.56997 15.1685 3.82721L15.1747 3.82257Z" fill="#4E4E4E"/>
</svg>
