<svg width="67" height="67" viewBox="0 0 67 67" fill="none" xmlns="http://www.w3.org/2000/svg">
<path d="M33.0312 0.064209C14.8357 0.064209 0.0310059 14.8666 0.0310059 33.0618C0.0310059 51.2582 14.8347 66.0619 33.0312 66.0619C51.2276 66.0619 66.0313 51.2582 66.0313 33.0618C66.031 14.8666 51.2263 0.064209 33.0312 0.064209ZM33.0312 63.0967C16.471 63.0967 2.99393 49.6246 2.99393 33.0618C2.99393 16.5003 16.471 3.02582 33.0312 3.02582C49.5936 3.02582 63.0707 16.4993 63.0707 33.0618C63.0707 49.6242 49.5936 63.0967 33.0312 63.0967Z" fill="#9A9A9A"/>
<path d="M32.8173 22.2957C31.5933 22.2957 30.5974 23.2892 30.5974 24.5165V49.5968C30.5974 50.8254 31.5933 51.8213 32.8173 51.8213C34.0459 51.8213 35.0418 50.8254 35.0418 49.5968V24.5165C35.0418 23.2892 34.0446 22.2957 32.8173 22.2957Z" fill="#9A9A9A"/>
<path d="M32.9566 18.8366C34.4475 18.8366 35.6561 17.628 35.6561 16.1371C35.6561 14.6462 34.4475 13.4376 32.9566 13.4376C31.4657 13.4376 30.2571 14.6462 30.2571 16.1371C30.2571 17.628 31.4657 18.8366 32.9566 18.8366Z" fill="#9A9A9A"/>
</svg>
