<svg width="146" height="139" viewBox="0 0 146 139" fill="none" xmlns="http://www.w3.org/2000/svg">
<g clip-path="url(#clip0_5120_7861)">
<path d="M48.168 50.5423C48.3653 47.3735 50.4377 44.7328 53.464 44.0066C56.5232 43.2474 59.5824 44.6667 60.9969 47.6375C62.9706 51.7966 64.8785 56.0218 66.7864 60.2139C68.2667 63.4487 69.7798 66.6836 71.2601 69.9515C71.9509 71.4699 71.7206 72.6252 70.6022 73.0543C69.1219 73.5824 68.3982 72.7242 67.839 71.5029C64.5495 64.307 61.2601 57.1111 57.9048 49.9481C57.5101 49.1229 56.7535 48.0997 55.9969 47.9016C55.1088 47.6705 53.8259 47.9676 53.0364 48.5288C51.8851 49.354 51.9509 50.7073 52.543 51.9617C54.714 56.6489 56.8522 61.3362 59.0232 66.0234C61.589 71.5689 64.1219 77.0814 66.6877 82.6268C66.918 83.122 67.3127 83.7161 67.214 84.1452C67.0496 84.8714 66.6548 85.7627 66.0956 86.0928C65.6022 86.3568 64.6811 85.9607 64.0561 85.6306C63.6943 85.4326 63.5298 84.8054 63.3324 84.3763C58.6614 74.2426 53.9903 64.1419 49.3522 53.9752C48.8259 52.8529 48.5298 51.6976 48.168 50.5423Z" fill="#9A9A9A"/>
<path d="M50.668 83.7749C51.0627 79.9459 54.0561 76.9751 57.6417 77.0081C58.8917 77.0081 59.8456 77.4372 59.8785 78.8566C59.9114 80.1439 59.1219 80.6391 57.8719 80.7381C54.9443 81.0021 53.8917 83.4118 55.668 85.7554C58.1022 88.9903 60.5035 92.2912 63.1351 95.361C64.3522 96.7803 65.9969 97.9357 67.6745 98.8269C71.3259 100.807 75.1417 102.524 78.8588 104.405C80.5035 105.264 82.3127 106.023 83.6285 107.244C85.0759 108.564 86.1614 110.347 87.1482 112.063C87.4114 112.559 86.8522 113.846 86.293 114.341C85.4706 115.034 84.3193 114.638 83.9574 113.648C82.7732 110.413 79.9443 109.126 77.214 107.739C73.2009 105.693 69.0561 103.943 65.2074 101.666C63.0035 100.378 61.0627 98.4638 59.3193 96.5493C56.918 93.8426 54.7798 90.9048 52.6745 87.967C51.7864 86.7457 51.3259 85.1943 50.668 83.7749Z" fill="#9A9A9A"/>
<path d="M108.924 95.0026C109.78 90.8105 108.826 87.7407 107.345 84.7039C104.155 78.1351 101.161 71.4673 98.102 64.8656C96.9178 62.3239 96.3257 62.1259 93.8257 63.3472C92.8718 63.8093 91.9507 63.7433 91.3586 62.819C90.7336 61.8618 90.9639 60.9375 91.8191 60.1783C94.7139 57.6037 99.352 58.759 101.161 62.555C104.188 68.9587 107.017 75.4614 110.174 81.7661C112.378 86.1563 113.595 90.6124 112.872 95.5638C112.674 96.9831 113.069 98.5015 113.332 99.9209C113.53 101.076 113.266 101.934 112.181 102.331C111.063 102.727 110.076 102.265 109.845 101.175C109.385 98.8976 109.155 96.587 108.924 95.0026Z" fill="#9A9A9A"/>
<path d="M91.227 64.4997C90.8323 64.9289 90.4705 65.7871 89.9113 65.9521C89.3191 66.1172 88.4639 65.7871 87.8718 65.457C87.477 65.2259 87.3455 64.5328 87.0823 64.0376C85.9639 61.859 84.2205 61.3969 82.2468 62.8823C81.227 63.6745 80.2402 63.8726 79.352 62.8163C78.4639 61.76 78.9244 60.7367 79.8455 59.9445C81.9507 58.1291 84.3191 57.766 86.8849 58.8222C89.352 59.8125 90.4047 61.8921 91.227 64.4997Z" fill="#9A9A9A"/>
<path d="M74.057 60.8672C77.3794 61.0652 80.8991 64.1681 81.0636 67.3699C81.0965 67.9971 80.4386 68.9543 79.8465 69.2184C79.3531 69.4495 78.3991 69.0534 77.8399 68.6573C77.4123 68.3602 77.2478 67.634 76.9846 67.1059C75.8662 64.7292 74.6162 64.2671 72.2807 65.3894C71.1623 65.9175 70.2083 65.7855 69.6162 64.6962C69.057 63.6729 69.4517 62.7817 70.4057 62.1545C70.6031 62.0225 70.7675 61.8905 70.9649 61.8244C71.9846 61.4944 73.0373 61.1973 74.057 60.8672Z" fill="#9A9A9A"/>
<path d="M33.3016 64.5354C31.6569 64.5684 30.4727 63.6441 30.4727 62.4228C30.4727 61.1685 31.1963 60.4753 32.3805 60.4093C33.795 60.3433 35.0779 61.3665 35.045 62.5548C35.045 63.7762 34.3542 64.4694 33.3016 64.5354Z" fill="#9A9A9A"/>
<path d="M42.8733 65.2259C42.7746 66.3482 42.1496 67.0414 40.8996 67.1074C39.4852 67.1735 38.2023 66.1172 38.268 64.9289C38.3009 63.7075 38.9917 62.9813 40.2417 62.9483C41.6233 62.8823 42.8404 63.9056 42.8733 65.2259Z" fill="#9A9A9A"/>
<path d="M54.9771 101.078C55.0429 102.464 53.8916 103.817 52.7403 103.817C51.4903 103.85 50.7995 103.19 50.7008 101.969C50.6021 100.814 51.8521 99.3281 52.9376 99.3281C54.1219 99.3281 54.8455 99.9883 54.9771 101.078Z" fill="#9A9A9A"/>
<path d="M73.6645 33.8983C73.6645 35.3507 72.9079 36.2089 71.7237 36.2089C70.5066 36.2089 69.75 35.3177 69.75 33.8983C69.75 32.5119 70.5395 31.5547 71.7237 31.5547C72.9079 31.5547 73.6645 32.4789 73.6645 33.8983Z" fill="#9A9A9A"/>
<path d="M73.662 41.5599C73.6949 43.4084 73.2015 44.3327 71.7541 44.4317C70.5041 44.4977 69.7475 43.6065 69.7475 42.1871C69.7146 40.8668 70.241 39.9095 71.6883 39.8435C72.9054 39.7445 73.662 40.6357 73.662 41.5599Z" fill="#9A9A9A"/>
<path d="M73.6957 50.407C73.6957 51.8594 72.9391 52.7176 71.722 52.6846C70.5049 52.6516 69.7812 51.7604 69.7812 50.341C69.7812 48.9216 70.5707 48.0304 71.7878 48.0634C72.972 48.0634 73.6957 48.9216 73.6957 50.407Z" fill="#9A9A9A"/>
<path d="M111.065 60.4383C112.216 60.5373 112.907 61.1975 112.94 62.4518C112.973 63.6732 111.755 64.5974 110.275 64.5644C109.025 64.5314 108.367 63.7722 108.334 62.5839C108.269 61.3956 109.584 60.4053 111.065 60.4383Z" fill="#9A9A9A"/>
<path d="M50.2741 107.878C50.2412 109.231 48.9583 110.519 47.8398 110.453C46.5898 110.386 45.9648 109.66 45.9648 108.439C45.9648 107.218 47.2477 105.897 48.3662 105.963C49.5833 106.029 50.1754 106.789 50.2741 107.878Z" fill="#9A9A9A"/>
<path d="M120.374 59.9122C120.308 61.1996 119.223 62.1898 118.006 62.0578C116.821 61.9258 116.098 61.2656 116.098 60.0112C116.131 58.8559 117.216 57.9317 118.466 58.0307C119.683 58.0967 120.308 58.8229 120.374 59.9122Z" fill="#9A9A9A"/>
<path d="M73.6645 25.8809C73.6316 27.1352 73.0066 27.9604 71.6908 27.9604C70.375 27.9604 69.75 27.1352 69.75 25.8479C69.75 24.5275 70.4079 23.7353 71.7237 23.7353C73.0066 23.7023 73.6316 24.5605 73.6645 25.8809Z" fill="#9A9A9A"/>
<path d="M27.281 60.2088C27.2152 61.2981 26.5244 61.9913 25.3073 62.0573C24.0244 62.1234 22.9718 61.1661 23.0047 60.0108C23.0376 58.7565 23.7612 58.0963 24.9454 58.0303C26.1954 57.9312 27.2481 58.9215 27.281 60.2088Z" fill="#9A9A9A"/>
<path d="M43.1367 116.789C42.0512 116.624 41.3604 115.964 41.4262 114.71C41.492 113.521 42.5775 112.465 43.6959 112.597C44.913 112.729 45.5709 113.488 45.538 114.677C45.5051 115.832 44.3209 116.855 43.1367 116.789Z" fill="#9A9A9A"/>
<path d="M145.9 56.216C145.9 57.8664 145.9 59.5169 145.9 61.1343C145.9 61.3654 145.834 61.5304 145.604 61.6294C142.775 63.2799 139.913 64.9303 137.084 66.5807C136.887 66.6798 136.755 66.7128 136.558 66.5807C133.729 64.9303 130.867 63.2799 128.005 61.6294C127.808 61.4974 127.742 61.3984 127.742 61.1673C127.742 57.8664 127.742 54.5325 127.742 51.2317C127.742 51.0006 127.808 50.9016 128.005 50.7695C130.867 49.1191 133.729 47.4687 136.591 45.7852C136.788 45.6862 136.92 45.6862 137.084 45.7852C139.946 47.4356 142.775 49.0861 145.637 50.7365C145.834 50.8686 145.9 51.0006 145.9 51.2317C145.9 52.9151 145.9 54.5655 145.9 56.216ZM131.196 51.5617C131.229 51.6278 131.229 51.6278 131.262 51.6608C133.038 52.7171 134.847 53.7403 136.657 54.7636C136.755 54.8296 136.953 54.7966 137.051 54.7636C137.545 54.4995 138.005 54.2024 138.499 53.9384C139.815 53.1792 141.13 52.387 142.512 51.6278C142.446 51.5617 142.413 51.5287 142.347 51.4957C140.604 50.4725 138.828 49.4492 137.051 48.4259C136.953 48.3599 136.722 48.3929 136.591 48.4589C134.913 49.4162 133.268 50.3734 131.591 51.3307C131.459 51.4297 131.328 51.4957 131.196 51.5617ZM135.67 63.4119C135.703 63.3459 135.703 63.3129 135.703 63.2799C135.703 61.2003 135.703 59.1208 135.703 57.0742C135.703 56.9422 135.571 56.7771 135.44 56.7111C133.729 55.7209 132.018 54.7306 130.308 53.7403C130.242 53.7073 130.144 53.6743 130.045 53.6083C130.045 53.7073 130.012 53.7733 130.012 53.8394C130.012 55.8529 130.012 57.8664 130.012 59.913C130.012 60.144 130.143 60.2431 130.308 60.3421C131.986 61.3323 133.663 62.2896 135.374 63.2799C135.44 63.3129 135.538 63.3789 135.67 63.4119ZM143.63 53.6083C143.499 53.6743 143.466 53.6743 143.433 53.7073C141.69 54.7306 139.946 55.7539 138.17 56.7441C137.972 56.8762 137.94 57.0082 137.94 57.2062C137.94 59.1868 137.94 61.1343 137.94 63.1148C137.94 63.2138 137.94 63.3129 137.94 63.4449C138.071 63.3789 138.17 63.3129 138.269 63.2799C139.946 62.3226 141.624 61.3323 143.301 60.3751C143.532 60.2431 143.63 60.078 143.63 59.8139C143.63 57.8994 143.63 55.9849 143.63 54.0374C143.63 53.9054 143.63 53.7733 143.63 53.6083Z" fill="#9A9A9A"/>
<path d="M80.7985 10.4972C80.7985 12.1477 80.7985 13.7981 80.7985 15.4155C80.7985 15.6466 80.7327 15.8116 80.5025 15.9107C77.6735 17.5611 74.8117 19.2116 71.9827 20.862C71.7854 20.961 71.6538 20.994 71.4564 20.862C68.6275 19.2116 65.7656 17.5611 62.9038 15.9107C62.7064 15.7786 62.6406 15.6796 62.6406 15.4486C62.6406 12.1477 62.6406 8.81379 62.6406 5.51291C62.6406 5.28185 62.7064 5.18282 62.9038 5.05078C65.7656 3.40034 68.6275 1.74991 71.4893 0.0664573C71.6867 -0.0325691 71.8183 -0.0325691 71.9827 0.0664573C74.8446 1.7169 77.6735 3.36734 80.5354 5.01777C80.7327 5.14981 80.7985 5.28185 80.7985 5.51291C80.7985 7.16335 80.7985 8.84679 80.7985 10.4972ZM66.0946 5.84299C66.1275 5.90901 66.1275 5.90901 66.1604 5.94202C67.9367 6.9983 69.7459 8.02157 71.5551 9.04485C71.6538 9.11086 71.8512 9.07786 71.9498 9.04485C72.4433 8.78078 72.9038 8.4837 73.3972 8.21963C74.713 7.46042 76.0288 6.66821 77.4104 5.90901C77.3446 5.84299 77.3117 5.80999 77.2459 5.77698C75.5025 4.7537 73.7262 3.73043 71.9498 2.70716C71.8512 2.64114 71.6209 2.67415 71.4893 2.74017C69.8117 3.69742 68.1669 4.65468 66.4893 5.61193C66.3248 5.67795 66.2262 5.77698 66.0946 5.84299ZM70.5354 17.6931C70.5683 17.6271 70.5683 17.5941 70.5683 17.5611C70.5683 15.4816 70.5683 13.402 70.5683 11.3555C70.5683 11.2234 70.4367 11.0584 70.3051 10.9924C68.5946 10.0021 66.884 9.01184 65.1735 8.02157C65.1077 7.98856 65.009 7.95556 64.9104 7.88954C64.9104 7.98856 64.8775 8.05458 64.8775 8.1206C64.8775 10.1341 64.8775 12.1477 64.8775 14.1942C64.8775 14.4253 65.009 14.5243 65.1735 14.6233C66.8512 15.6136 68.5288 16.5709 70.2393 17.5611C70.338 17.5941 70.4367 17.6271 70.5354 17.6931ZM78.5288 7.85653C78.3972 7.92255 78.3643 7.92255 78.3314 7.95556C76.588 8.97883 74.8446 10.0021 73.0683 10.9924C72.8709 11.1244 72.838 11.2564 72.838 11.4545C72.838 13.435 72.838 15.3825 72.838 17.3631C72.838 17.4621 72.838 17.5611 72.838 17.6931C72.9696 17.6271 73.0683 17.5611 73.1669 17.5281C74.8446 16.5708 76.5222 15.5806 78.1998 14.6233C78.4301 14.4913 78.5288 14.3263 78.5288 14.0622C78.5288 12.1477 78.5288 10.2332 78.5288 8.28564C78.5288 8.18662 78.5288 8.05458 78.5288 7.85653Z" fill="#9A9A9A"/>
<path d="M19.0563 55.7863C19.0563 57.4367 19.0563 59.0872 19.0563 60.7046C19.0563 60.9357 18.9905 61.1007 18.7603 61.1997C15.9313 62.8502 13.0695 64.5006 10.2405 66.1511C10.0432 66.2501 9.9116 66.2831 9.71423 66.1511C6.88528 64.5006 4.02344 62.8502 1.1616 61.1997C0.964227 61.1007 0.898438 60.9687 0.898438 60.7376C0.898438 57.4367 0.898438 54.1028 0.898438 50.802C0.898438 50.5709 0.964227 50.4719 1.1616 50.3398C4.02344 48.6894 6.88528 47.039 9.74712 45.3555C9.94449 45.2565 10.0761 45.2565 10.2405 45.3555C13.1024 47.006 15.9313 48.6564 18.7932 50.3068C18.9905 50.4389 19.0563 50.5709 19.0563 50.802C19.0563 52.4854 19.0563 54.1359 19.0563 55.7863ZM4.35239 51.1321C4.38528 51.1981 4.38528 51.1981 4.41817 51.2311C6.19449 52.2874 8.0037 53.3106 9.81291 54.3339C9.9116 54.3999 10.109 54.3669 10.2076 54.3339C10.7011 54.0698 11.1616 53.7728 11.655 53.5087C12.9708 52.7495 14.2866 51.9573 15.6682 51.1981C15.6024 51.1321 15.5695 51.099 15.5037 51.066C13.7603 50.0428 11.984 49.0195 10.2076 47.9962C10.109 47.9302 9.8787 47.9632 9.74712 48.0292C8.06949 48.9865 6.42475 49.9437 4.74712 50.901C4.61554 51 4.48396 51.066 4.35239 51.1321ZM8.79317 62.9822C8.82607 62.9162 8.82607 62.8832 8.82607 62.8502C8.82607 60.7706 8.82607 58.6911 8.82607 56.6445C8.82607 56.5125 8.69449 56.3474 8.56291 56.2814C6.85239 55.2912 5.14186 54.3009 3.43133 53.3106C3.36554 53.2776 3.26686 53.2446 3.16817 53.1786C3.16817 53.2776 3.13528 53.3436 3.13528 53.4097C3.13528 55.4232 3.13528 57.4367 3.13528 59.4833C3.13528 59.7143 3.26686 59.8134 3.43133 59.9124C5.10896 60.9027 6.7866 61.8599 8.49712 62.8502C8.59581 62.8832 8.69449 62.9162 8.79317 62.9822ZM16.7866 53.1786C16.655 53.2446 16.6221 53.2446 16.5892 53.2776C14.8458 54.3009 13.1024 55.3242 11.3261 56.3144C11.1287 56.4465 11.0958 56.5785 11.0958 56.7766C11.0958 58.7571 11.0958 60.7046 11.0958 62.6851C11.0958 62.7842 11.0958 62.8832 11.0958 63.0152C11.2274 62.9492 11.3261 62.8832 11.4248 62.8502C13.1024 61.8929 14.78 60.9027 16.4576 59.9454C16.6879 59.8134 16.7866 59.6483 16.7866 59.3843C16.7866 57.4697 16.7866 55.5552 16.7866 53.6077C16.7866 53.4757 16.7866 53.3436 16.7866 53.1786Z" fill="#9A9A9A"/>
<path d="M43.2009 128.536C43.2009 130.187 43.2009 131.837 43.2009 133.455C43.2009 133.686 43.1351 133.851 42.9048 133.95C40.0759 135.6 37.214 137.251 34.3851 138.901C34.1877 139 34.0561 139.033 33.8588 138.901C31.0298 137.251 28.168 135.6 25.3061 133.95C25.1088 133.818 25.043 133.719 25.043 133.488C25.043 130.187 25.043 126.853 25.043 123.552C25.043 123.321 25.1088 123.222 25.3061 123.09C28.168 121.439 31.0298 119.789 33.8917 118.106C34.089 118.006 34.2206 118.006 34.3851 118.106C37.2469 119.756 40.0759 121.406 42.9377 123.057C43.1351 123.189 43.2009 123.321 43.2009 123.552C43.2009 125.235 43.2009 126.886 43.2009 128.536ZM28.4969 123.882C28.5298 123.948 28.5298 123.948 28.5627 123.981C30.339 125.037 32.1482 126.061 33.9574 127.084C34.0561 127.15 34.2535 127.117 34.3522 127.084C34.8456 126.82 35.3061 126.523 35.7995 126.259C37.1153 125.499 38.4311 124.707 39.8127 123.948C39.7469 123.882 39.714 123.849 39.6482 123.816C37.9048 122.793 36.1285 121.769 34.3522 120.746C34.2535 120.68 34.0232 120.713 33.8917 120.779C32.214 121.736 30.5693 122.694 28.8917 123.651C28.7601 123.75 28.6285 123.816 28.4969 123.882ZM32.9706 135.732C33.0035 135.666 33.0035 135.633 33.0035 135.6C33.0035 133.521 33.0035 131.441 33.0035 129.395C33.0035 129.262 32.8719 129.097 32.7403 129.031C31.0298 128.041 29.3193 127.051 27.6088 126.061C27.543 126.028 27.4443 125.995 27.3456 125.929C27.3456 126.028 27.3127 126.094 27.3127 126.16C27.3127 128.173 27.3127 130.187 27.3127 132.233C27.3127 132.464 27.4443 132.563 27.6088 132.662C29.2864 133.653 30.964 134.61 32.6745 135.6C32.7403 135.633 32.839 135.699 32.9706 135.732ZM40.9311 125.929C40.7995 125.995 40.7667 125.995 40.7338 126.028C38.9903 127.051 37.2469 128.074 35.4706 129.064C35.2732 129.196 35.2403 129.329 35.2403 129.527C35.2403 131.507 35.2403 133.455 35.2403 135.435C35.2403 135.534 35.2403 135.633 35.2403 135.765C35.3719 135.699 35.4706 135.633 35.5693 135.6C37.2469 134.643 38.9245 133.653 40.6022 132.695C40.8324 132.563 40.9311 132.398 40.9311 132.134C40.9311 130.22 40.9311 128.305 40.9311 126.358C40.9311 126.226 40.9311 126.094 40.9311 125.929Z" fill="#9A9A9A"/>
</g>
<defs>
<clipPath id="clip0_5120_7861">
<rect width="145" height="139" fill="white" transform="translate(0.898438)"/>
</clipPath>
</defs>
</svg>
