<svg width="67" height="67" viewBox="0 0 67 67" fill="none" xmlns="http://www.w3.org/2000/svg">
<path d="M29.9099 31.9794H1.82935C0.823208 31.9794 0 31.1499 0 30.1362V11.8886C0 5.34525 5.30512 0 11.7993 0H29.9099C30.9161 0 31.7393 0.829436 31.7393 1.84319V30.1362C31.7393 31.1499 30.9161 31.9794 29.9099 31.9794ZM3.6587 28.293H28.0806V3.68638H11.7993C7.31741 3.68638 3.6587 7.37276 3.6587 11.8886V28.293Z" fill="#9A9A9A"/>
<path d="M64.6676 31.9794H36.587C35.5809 31.9794 34.7577 31.1499 34.7577 30.1362V1.84319C34.7577 0.829436 35.5809 0 36.587 0H54.6976C61.1918 0 66.4969 5.34525 66.4969 11.8886V30.1362C66.4969 31.1499 65.6737 31.9794 64.6676 31.9794ZM38.3249 28.293H62.7468V11.8886C62.7468 7.37276 59.0881 3.68638 54.6062 3.68638H38.4164L38.3249 28.293Z" fill="#9A9A9A"/>
<path d="M29.9099 67H11.7993C5.30512 66.9078 0 61.6547 0 55.0193V36.8638C0 35.8501 0.823208 35.0206 1.82935 35.0206H29.9099C30.9161 35.0206 31.7393 35.8501 31.7393 36.8638V65.1568C31.7393 66.1706 30.9161 67 29.9099 67ZM3.6587 38.707V55.1114C3.6587 59.6272 7.31741 63.3136 11.7993 63.3136H28.0806V38.707H3.6587Z" fill="#9A9A9A"/>
<path fill-rule="evenodd" clip-rule="evenodd" d="M36.1297 35.7579C37.0444 34.8363 38.4164 34.8363 39.331 35.7579L51.2218 47.7386L63.1126 35.7579C64.0273 34.8363 65.3993 34.8363 66.314 35.7579C67.2287 36.6795 67.2287 38.0619 66.314 38.9835L54.4232 50.9642L66.314 62.945C67.2287 63.8666 67.2287 65.249 66.314 66.1706C65.3993 67.0922 64.0273 67.0922 63.1126 66.1706L51.2218 54.1898L39.331 66.1706C38.4164 67.0922 37.0444 67.0922 36.1297 66.1706C35.215 65.249 35.215 63.8666 36.1297 62.945L48.0205 50.9642L36.1297 38.9835C35.215 38.0619 35.215 36.6795 36.1297 35.7579Z" fill="#9A9A9A"/>
</svg>
