<svg width="129" height="158" viewBox="0 0 129 158" fill="none" xmlns="http://www.w3.org/2000/svg">
<g clip-path="url(#clip0_4811_5977)">
<path fill-rule="evenodd" clip-rule="evenodd" d="M100.791 100.919C116.344 100.919 129 113.699 129 129.444C129 145.188 116.374 158 100.791 158C85.2071 158 72.5816 145.219 72.5816 129.444C72.6121 113.699 85.2376 100.919 100.791 100.919ZM119.973 7.16217C119.973 3.21063 116.771 0 112.898 0H7.07518C3.20213 0 0 3.2415 0 7.16217V140.002C0 143.954 3.20213 147.195 7.07518 147.195H69.044C68.1596 145.559 67.3972 143.861 66.7262 142.101H5.91631C5.51986 142.101 5.1844 141.762 5.1844 141.36V6.51387C5.1844 6.11254 5.51986 5.77296 5.91631 5.77296H114.27C114.667 5.77296 115.002 6.14342 115.002 6.51387V95.7015C116.74 96.4424 118.387 97.3376 119.973 98.3255V7.16217ZM18.1759 17.7202H22.1099V34.3908H18.1759V17.7202ZM25.4035 17.7202H29.0631L33.8206 26.9199V17.7202H37.5411V34.3908H33.8206L29.0936 25.2528V34.3908H25.4035V17.7202ZM39.3709 17.7202H43.4574L46.3241 29.6983L49.1298 17.7202H53.1248L48.4284 34.3908H44.1894L39.3709 17.7202ZM55.5035 19.7268C57.8213 16.7014 62.8837 16.6397 65.2014 19.696C67.2142 22.32 67.3972 27.6917 66.1773 30.7479C65.6894 31.9828 64.9574 32.9707 64.0121 33.6499C62.1518 35.0082 58.8582 35.0391 56.9369 33.8042C55.9915 33.2177 55.2291 32.2607 54.6496 30.9641C53.2468 27.8769 53.4298 22.4435 55.5035 19.7268ZM58.4007 29.6983C59.3461 31.1493 61.3589 31.1802 62.3043 29.7292C63.2496 28.2782 63.2496 23.9254 62.2738 22.4127C61.2979 20.9617 59.3461 20.9617 58.4007 22.4127C57.4248 23.9254 57.4248 28.2165 58.4007 29.6983ZM69.6539 17.7202H73.5879V34.3908H69.6539V17.7202ZM85.3291 27.5682L88.7752 28.9265C88.5312 30.1923 88.1652 31.2419 87.6773 32.1063C87.1894 32.9398 86.5794 33.5881 85.817 34.0203C85.0851 34.4525 84.1397 34.6686 83.0114 34.6686C81.639 34.6686 80.5106 34.4217 79.6262 33.866C78.7418 33.3411 77.9794 32.415 77.3695 31.0875C76.7291 29.7601 76.4241 28.0621 76.4241 25.9937C76.4241 23.2462 76.9731 21.1161 78.1014 19.6342C79.2298 18.1524 80.8156 17.4115 82.8284 17.4115C84.4447 17.4115 85.695 17.8437 86.6099 18.6772C87.5248 19.5416 88.1957 20.8382 88.6532 22.5979L85.2071 23.6166C85.0851 23.1227 84.9631 22.7522 84.8106 22.5053C84.5972 22.1039 84.3227 21.8261 84.0177 21.61C83.7128 21.3939 83.3468 21.3013 82.9504 21.3013C82.066 21.3013 81.3645 21.7644 80.9071 22.7214C80.5411 23.4314 80.3582 24.5119 80.3582 25.9937C80.3582 27.846 80.5716 29.1118 80.9986 29.7909C81.4255 30.4701 82.0355 30.8097 82.7979 30.8097C83.5603 30.8097 84.1092 30.5318 84.5057 29.9762C84.8716 29.4205 85.1461 28.6178 85.3291 27.5682ZM91.1234 17.7202H101.614V21.3013H95.0575V23.9562H101.126V27.3521H95.0575V30.6245H101.797V34.3908H91.1234V17.7202ZM30.527 59.8597C29.2461 59.8597 28.2397 58.8101 28.2397 57.5444C28.2397 56.2786 29.2766 55.229 30.527 55.229H76.1801C77.461 55.229 78.4674 56.2786 78.4674 57.5444C78.4674 58.8101 77.4305 59.8597 76.1801 59.8597H30.527ZM30.527 97.8625C29.2461 97.8625 28.2397 96.8128 28.2397 95.5471C28.2397 94.2814 29.2766 93.2317 30.527 93.2317H86.4269C87.4638 93.2317 88.3482 93.9418 88.6227 94.8988C86.427 95.7014 84.3532 96.6893 82.3709 97.8625H30.527ZM30.527 83.7851C29.2461 83.7851 28.2397 82.7354 28.2397 81.4697C28.2397 80.204 29.2766 79.1544 30.527 79.1544H76.1801C77.461 79.1544 78.4674 80.204 78.4674 81.4697C78.4674 82.7354 77.4305 83.7851 76.1801 83.7851H30.527ZM97.8021 72.0539H22.1709V118.114H66.3298C65.8418 119.627 65.4454 121.17 65.1709 122.745H19.8837C18.6028 122.745 17.5965 121.695 17.5965 120.429V45.8132C17.5965 44.5475 18.6333 43.4979 19.8837 43.4979H100.089C101.34 43.4979 102.377 44.5475 102.377 45.8132V92.7687C101.858 92.7378 101.34 92.7378 100.791 92.7378C99.7844 92.7378 98.778 92.7687 97.7716 92.8613V72.0539H97.8021ZM22.1709 67.3923H97.8021V48.1594H22.1709V67.3923ZM108.201 118.423L111.709 121.973C112.44 122.714 112.44 123.887 111.709 124.628L106.921 129.475L111.709 134.322C112.44 135.063 112.44 136.236 111.709 136.977L108.201 140.527C107.47 141.237 106.311 141.237 105.579 140.527L100.791 135.68L96.0028 140.527C95.2709 141.237 94.1121 141.237 93.3801 140.527L89.8731 136.977C89.1716 136.236 89.1411 135.063 89.8731 134.352L94.661 129.506L89.8731 124.659C89.1411 123.918 89.1716 122.745 89.8731 122.004L93.3801 118.454C94.1121 117.713 95.2709 117.713 96.0028 118.454L100.791 123.301L105.579 118.454C106.311 117.682 107.47 117.682 108.201 118.423Z" fill="#9A9A9A"/>
</g>
<defs>
<clipPath id="clip0_4811_5977">
<rect width="129" height="158" fill="white"/>
</clipPath>
</defs>
</svg>
