<svg width="75" height="75" viewBox="0 0 75 75" fill="none" xmlns="http://www.w3.org/2000/svg">
<path d="M39.8438 63.2812H9.375C6.79687 63.2812 4.6875 61.1719 4.6875 58.5937V48.2812" stroke="#9A9A9A" stroke-width="2" stroke-miterlimit="10" stroke-linecap="round" stroke-linejoin="round"/>
<path d="M32.8125 56.25C30.2344 56.25 28.125 54.1406 28.125 51.5625V44.5312H37.5V51.5625C37.5 54.1406 35.3906 56.25 32.8125 56.25Z" stroke="#9A9A9A" stroke-width="2" stroke-miterlimit="10" stroke-linecap="round" stroke-linejoin="round"/>
<path d="M42.1875 18.75H23.4375V14.0625C23.4375 11.4844 25.5469 9.375 28.125 9.375H37.5C40.0781 9.375 42.1875 11.4844 42.1875 14.0625V18.75Z" stroke="#9A9A9A" stroke-width="2" stroke-miterlimit="10" stroke-linecap="round" stroke-linejoin="round"/>
<path d="M11.7188 65.625V63.2812" stroke="#9A9A9A" stroke-width="2" stroke-miterlimit="10" stroke-linecap="round" stroke-linejoin="round"/>
<path d="M56.25 72.6562C65.3109 72.6562 72.6562 65.3109 72.6562 56.25C72.6562 47.1891 65.3109 39.8438 56.25 39.8438C47.1891 39.8438 39.8438 47.1891 39.8438 56.25C39.8438 65.3109 47.1891 72.6562 56.25 72.6562Z" stroke="#9A9A9A" stroke-width="2" stroke-miterlimit="10" stroke-linecap="round" stroke-linejoin="round"/>
<path d="M56.25 49.2188V63.2812" stroke="#9A9A9A" stroke-width="2" stroke-miterlimit="10" stroke-linecap="round" stroke-linejoin="round"/>
<path d="M49.2188 56.25H63.2812" stroke="#9A9A9A" stroke-width="2" stroke-miterlimit="10" stroke-linecap="round" stroke-linejoin="round"/>
<path d="M28.125 51.5625H11.7188C6.5625 51.5625 2.34375 47.3438 2.34375 42.1875V23.4375C2.34375 20.8594 4.45312 18.75 7.03125 18.75H58.5938C61.1719 18.75 63.2812 20.8594 63.2812 23.4375V41.4844" stroke="#9A9A9A" stroke-width="2" stroke-miterlimit="10" stroke-linecap="round" stroke-linejoin="round"/>
</svg>
