<svg width="482" height="543" viewBox="0 0 482 543" fill="none" xmlns="http://www.w3.org/2000/svg">
<rect x="4.28711" y="0.727295" width="472.956" height="541.702" rx="9.5" fill="url(#paint0_linear_705_3023)" stroke="#F3F3F3"/>
<path d="M159.963 357.823H151.498L137.834 334.061H137.64C137.698 335.05 137.748 336.045 137.791 337.048C137.834 338.05 137.877 339.053 137.92 340.055C137.963 341.044 138.006 342.039 138.049 343.042V357.823H132.097V326.413H140.498L154.14 349.938H154.291C154.262 348.964 154.226 347.997 154.183 347.038C154.14 346.078 154.097 345.119 154.054 344.159C154.026 343.199 153.997 342.24 153.969 341.28V326.413H159.963V357.823ZM196.4 342.075C196.4 344.496 196.099 346.701 195.498 348.692C194.896 350.669 193.98 352.373 192.748 353.805C191.53 355.238 189.984 356.341 188.107 357.114C186.231 357.873 184.011 358.253 181.447 358.253C178.883 358.253 176.663 357.873 174.787 357.114C172.911 356.341 171.357 355.238 170.125 353.805C168.907 352.373 167.998 350.662 167.396 348.671C166.795 346.68 166.494 344.467 166.494 342.032C166.494 338.781 167.024 335.952 168.084 333.546C169.158 331.125 170.805 329.249 173.025 327.917C175.245 326.585 178.067 325.919 181.49 325.919C184.899 325.919 187.699 326.585 189.89 327.917C192.096 329.249 193.729 331.125 194.789 333.546C195.863 335.966 196.4 338.809 196.4 342.075ZM173.476 342.075C173.476 344.266 173.748 346.157 174.293 347.747C174.851 349.322 175.718 350.54 176.892 351.399C178.067 352.244 179.585 352.667 181.447 352.667C183.338 352.667 184.87 352.244 186.045 351.399C187.219 350.54 188.071 349.322 188.601 347.747C189.146 346.157 189.418 344.266 189.418 342.075C189.418 338.781 188.802 336.188 187.57 334.298C186.338 332.407 184.312 331.462 181.49 331.462C179.614 331.462 178.081 331.891 176.892 332.751C175.718 333.596 174.851 334.813 174.293 336.403C173.748 337.979 173.476 339.869 173.476 342.075ZM214.34 357.823V326.413H221V357.823H214.34ZM242.205 357.823L234.642 333.18H234.449C234.478 333.768 234.521 334.656 234.578 335.844C234.65 337.019 234.714 338.272 234.771 339.604C234.829 340.936 234.857 342.139 234.857 343.214V357.823H228.906V326.413H237.972L245.406 350.432H245.535L253.42 326.413H262.486V357.823H256.277V342.956C256.277 341.968 256.291 340.829 256.32 339.54C256.363 338.251 256.413 337.026 256.47 335.866C256.528 334.691 256.571 333.811 256.599 333.223H256.406L248.306 357.823H242.205ZM289.642 357.823L287.365 350.346H275.914L273.637 357.823H266.461L277.547 326.284H285.689L296.818 357.823H289.642ZM285.775 344.76L283.498 337.456C283.355 336.969 283.161 336.346 282.918 335.587C282.689 334.813 282.452 334.033 282.209 333.245C281.98 332.443 281.793 331.748 281.65 331.161C281.507 331.748 281.306 332.479 281.049 333.352C280.805 334.212 280.569 335.028 280.34 335.802C280.11 336.575 279.946 337.126 279.845 337.456L277.59 344.76H285.775ZM312.717 340.184H325.178V356.469C323.53 357.014 321.819 357.451 320.043 357.78C318.267 358.095 316.254 358.253 314.006 358.253C310.883 358.253 308.234 357.637 306.056 356.405C303.879 355.173 302.225 353.354 301.094 350.948C299.962 348.542 299.396 345.584 299.396 342.075C299.396 338.781 300.026 335.93 301.287 333.524C302.562 331.118 304.416 329.256 306.851 327.938C309.301 326.621 312.287 325.962 315.81 325.962C317.472 325.962 319.112 326.141 320.73 326.499C322.349 326.857 323.817 327.322 325.135 327.895L322.922 333.223C321.962 332.736 320.866 332.328 319.635 331.999C318.403 331.669 317.114 331.505 315.767 331.505C313.834 331.505 312.151 331.949 310.719 332.837C309.301 333.725 308.198 334.971 307.41 336.575C306.637 338.165 306.25 340.041 306.25 342.204C306.25 344.252 306.529 346.071 307.088 347.661C307.646 349.236 308.527 350.475 309.73 351.378C310.933 352.266 312.502 352.71 314.435 352.71C315.381 352.71 316.176 352.667 316.82 352.581C317.479 352.481 318.095 352.38 318.668 352.28V345.727H312.717V340.184ZM350.765 357.823H332.676V326.413H350.765V331.87H339.336V338.766H349.97V344.223H339.336V352.323H350.765V357.823Z" fill="#999999"/>
<path d="M179.349 174.419L302.182 297.253" stroke="#999999" stroke-width="4" stroke-linecap="round" stroke-linejoin="round"/>
<path d="M291.016 286.086H190.516C187.554 286.086 184.714 284.909 182.62 282.815C180.526 280.721 179.349 277.881 179.349 274.919V213.503C179.349 210.541 180.526 207.701 182.62 205.607C184.714 203.512 187.554 202.336 190.516 202.336H207.266M224.016 185.586H257.516L268.682 202.336H291.016C293.977 202.336 296.818 203.512 298.912 205.607C301.006 207.701 302.182 210.541 302.182 213.503V265.651M259.079 254.149C257.226 256.857 254.799 259.124 251.97 260.788C249.142 262.451 245.981 263.471 242.714 263.775C239.447 264.079 236.152 263.658 233.066 262.544C229.979 261.43 227.176 259.65 224.856 257.329C222.535 255.009 220.755 252.206 219.641 249.119C218.527 246.033 218.107 242.738 218.41 239.471C218.714 236.204 219.734 233.043 221.397 230.215C223.061 227.386 225.328 224.959 228.036 223.106" stroke="#999999" stroke-width="4" stroke-linecap="round" stroke-linejoin="round"/>
<defs>
<linearGradient id="paint0_linear_705_3023" x1="263.641" y1="535.696" x2="263.641" y2="0.227293" gradientUnits="userSpaceOnUse">
<stop stop-color="#DE2034" stop-opacity="0.06"/>
<stop offset="1" stop-color="#DAD8D8" stop-opacity="0.07"/>
</linearGradient>
</defs>
</svg>
