<svg width="96" height="95" viewBox="0 0 96 95" fill="none" xmlns="http://www.w3.org/2000/svg">
<path d="M41.8293 3.71094H12.5723C10.4082 3.71486 8.33394 4.57625 6.80373 6.10647C5.27352 7.63668 4.41212 9.71096 4.4082 11.875V41.132C4.4082 41.7225 4.64279 42.289 5.06035 42.7065C5.4779 43.1241 6.04425 43.3586 6.63477 43.3586H35.8918C38.0571 43.3586 40.1335 42.4984 41.6647 40.9674C43.1957 39.4363 44.0559 37.3598 44.0559 35.1945V5.9375C44.0559 5.34699 43.8213 4.78064 43.4038 4.36308C42.9862 3.94553 42.4198 3.71094 41.8293 3.71094ZM39.6027 35.1945C39.6027 35.6819 39.5067 36.1644 39.3203 36.6146C39.1338 37.0648 38.8604 37.4739 38.5159 37.8186C38.1712 38.1631 37.7621 38.4366 37.3119 38.623C36.8617 38.8094 36.3791 38.9055 35.8918 38.9055H8.86133V11.875C8.86133 10.8908 9.2523 9.9469 9.94823 9.25097C10.6442 8.55503 11.5881 8.16406 12.5723 8.16406H39.6027V35.1945Z" fill="#9A9A9A"/>
<path d="M35.8918 51.6406H6.63477C6.04425 51.6406 5.4779 51.8753 5.06035 52.2929C4.64279 52.7104 4.4082 53.2767 4.4082 53.8672V83.1242C4.41212 85.2883 5.27352 87.3626 6.80373 88.8928C8.33394 90.423 10.4082 91.2844 12.5723 91.2883H41.8293C42.4198 91.2883 42.9862 91.0537 43.4038 90.6362C43.8213 90.2186 44.0559 89.6524 44.0559 89.0617V59.8047C44.0559 57.6394 43.1957 55.5629 41.6647 54.032C40.1335 52.5008 38.0571 51.6406 35.8918 51.6406ZM39.6027 86.8352H12.5723C11.5881 86.8352 10.6442 86.4442 9.94823 85.7483C9.2523 85.0524 8.86133 84.1085 8.86133 83.1242V56.0938H35.8918C36.3791 56.0938 36.8617 56.1898 37.3119 56.3762C37.7621 56.5628 38.1712 56.8361 38.5159 57.1808C38.8604 57.5253 39.1338 57.9344 39.3203 58.3846C39.5067 58.8348 39.6027 59.3174 39.6027 59.8047V86.8352Z" fill="#9A9A9A"/>
<path d="M89.759 51.6406H60.502C58.3367 51.6406 56.2602 52.5008 54.7292 54.032C53.1981 55.5629 52.3379 57.6394 52.3379 59.8047V89.0617C52.3379 89.6524 52.5726 90.2186 52.9901 90.6362C53.4077 91.0537 53.974 91.2883 54.5645 91.2883H83.8215C85.9856 91.2844 88.0598 90.423 89.5901 88.8928C91.1203 87.3626 91.9817 85.2883 91.9855 83.1242V53.8672C91.9855 53.2767 91.751 52.7104 91.3335 52.2929C90.9159 51.8753 90.3496 51.6406 89.759 51.6406ZM87.5324 83.1242C87.5324 84.1085 87.1414 85.0524 86.4456 85.7483C85.7497 86.4442 84.8058 86.8352 83.8215 86.8352H56.791V59.8047C56.791 58.8205 57.182 57.8766 57.878 57.1808C58.5739 56.4847 59.5178 56.0938 60.502 56.0938H87.5324V83.1242Z" fill="#9A9A9A"/>
<path d="M60.502 31.7063H63.9902V35.1945C63.9902 37.3598 64.8504 39.4363 66.3814 40.9674C67.9125 42.4984 69.989 43.3586 72.1543 43.3586C74.3196 43.3586 76.3962 42.4984 77.9272 40.9674C79.4583 39.4363 80.3184 37.3598 80.3184 35.1945V31.7063H83.8215C85.9867 31.7063 88.0634 30.8461 89.5944 29.3151C91.1255 27.7839 91.9855 25.7074 91.9855 23.5422C91.9855 21.3769 91.1255 19.3004 89.5944 17.7693C88.0634 16.2383 85.9867 15.3781 83.8215 15.3781H80.3184V11.875C80.3184 9.70976 79.4583 7.63319 77.9272 6.10213C76.3962 4.57107 74.3196 3.71094 72.1543 3.71094C69.989 3.71094 67.9125 4.57107 66.3814 6.10213C64.8504 7.63319 63.9902 9.70976 63.9902 11.875V15.3781H60.502C58.3367 15.3781 56.2602 16.2383 54.7292 17.7693C53.1981 19.3004 52.3379 21.3769 52.3379 23.5422C52.3379 25.7074 53.1981 27.7839 54.7292 29.3151C56.2602 30.8461 58.3367 31.7063 60.502 31.7063ZM60.502 19.8312H66.2168C66.8074 19.8312 67.3737 19.5967 67.7913 19.1792C68.2088 18.7616 68.4434 18.1952 68.4434 17.6047V11.875C68.4434 10.8908 68.8343 9.9469 69.5304 9.25097C70.2262 8.55503 71.1702 8.16406 72.1543 8.16406C73.1386 8.16406 74.0825 8.55503 74.7784 9.25097C75.4742 9.9469 75.8652 10.8908 75.8652 11.875V17.6047C75.8652 18.1952 76.0999 18.7616 76.5175 19.1792C76.935 19.5967 77.5013 19.8312 78.0918 19.8312H83.8215C84.8058 19.8312 85.7497 20.2222 86.4456 20.9181C87.1414 21.6141 87.5324 22.558 87.5324 23.5422C87.5324 24.5263 87.1414 25.4702 86.4456 26.1663C85.7497 26.8621 84.8058 27.2531 83.8215 27.2531H78.0918C77.5013 27.2531 76.935 27.4877 76.5175 27.9052C76.0999 28.3228 75.8652 28.8892 75.8652 29.4797V35.1945C75.8652 36.1787 75.4742 37.1226 74.7784 37.8186C74.0825 38.5145 73.1386 38.9055 72.1543 38.9055C71.1702 38.9055 70.2262 38.5145 69.5304 37.8186C68.8343 37.1226 68.4434 36.1787 68.4434 35.1945V29.4797C68.4434 28.8892 68.2088 28.3228 67.7913 27.9052C67.3737 27.4877 66.8074 27.2531 66.2168 27.2531H60.502C59.5178 27.2531 58.5739 26.8621 57.878 26.1663C57.182 25.4702 56.791 24.5263 56.791 23.5422C56.791 22.558 57.182 21.6141 57.878 20.9181C58.5739 20.2222 59.5178 19.8312 60.502 19.8312Z" fill="#9A9A9A"/>
</svg>
