<svg width="67" height="66" viewBox="0 0 67 66" fill="none" xmlns="http://www.w3.org/2000/svg">
<path d="M29.2732 2.57812H8.94727C7.44383 2.58085 6.00275 3.17929 4.93965 4.24239C3.87656 5.30548 3.27811 6.74656 3.27539 8.25V28.5759C3.27539 28.9862 3.43837 29.3797 3.72846 29.6698C4.01855 29.9599 4.41201 30.1228 4.82227 30.1228H25.1482C26.6525 30.1228 28.0951 29.5252 29.1588 28.4616C30.2225 27.3978 30.8201 25.9552 30.8201 24.4509V4.125C30.8201 3.71475 30.6571 3.32129 30.3671 3.03119C30.077 2.7411 29.6834 2.57812 29.2732 2.57812ZM27.7263 24.4509C27.7263 24.7895 27.6596 25.1248 27.5301 25.4375C27.4006 25.7503 27.2106 26.0345 26.9712 26.274C26.7318 26.5133 26.4476 26.7033 26.1348 26.8328C25.822 26.9623 25.4868 27.0291 25.1482 27.0291H6.36914V8.25C6.36914 7.56624 6.64076 6.91048 7.12425 6.42699C7.60774 5.9435 8.26351 5.67188 8.94727 5.67188H27.7263V24.4509Z" fill="#9A9A9A"/>
<path d="M25.1482 35.877H4.82227C4.41201 35.877 4.01855 36.04 3.72846 36.3301C3.43837 36.6202 3.27539 37.0136 3.27539 37.4238V57.7498C3.27811 59.2532 3.87656 60.6943 4.93965 61.7574C6.00275 62.8205 7.44383 63.419 8.94727 63.4216H29.2732C29.6834 63.4216 30.077 63.2587 30.3671 62.9686C30.6571 62.6785 30.8201 62.2851 30.8201 61.8748V41.5488C30.8201 40.0445 30.2225 38.6019 29.1588 37.5383C28.0951 36.4746 26.6525 35.877 25.1482 35.877ZM27.7263 60.3279H8.94727C8.26351 60.3279 7.60774 60.0563 7.12425 59.5728C6.64076 59.0894 6.36914 58.4336 6.36914 57.7498V38.9707H25.1482C25.4868 38.9707 25.822 39.0374 26.1348 39.1669C26.4476 39.2966 26.7318 39.4864 26.9712 39.7259C27.2106 39.9652 27.4006 40.2495 27.5301 40.5622C27.6596 40.875 27.7263 41.2103 27.7263 41.5488V60.3279Z" fill="#9A9A9A"/>
<path d="M62.572 35.877H42.2461C40.7418 35.877 39.2992 36.4746 38.2356 37.5383C37.1718 38.6019 36.5742 40.0445 36.5742 41.5488V61.8748C36.5742 62.2851 36.7373 62.6785 37.0273 62.9686C37.3174 63.2587 37.7109 63.4216 38.1211 63.4216H58.447C59.9505 63.419 61.3916 62.8205 62.4547 61.7574C63.5178 60.6943 64.1162 59.2532 64.1189 57.7498V37.4238C64.1189 37.0136 63.956 36.6202 63.6659 36.3301C63.3758 36.04 62.9824 35.877 62.572 35.877ZM61.0252 57.7498C61.0252 58.4336 60.7535 59.0894 60.2701 59.5728C59.7866 60.0563 59.1309 60.3279 58.447 60.3279H39.668V41.5488C39.668 40.8651 39.9396 40.2093 40.4232 39.7259C40.9066 39.2423 41.5624 38.9707 42.2461 38.9707H61.0252V57.7498Z" fill="#9A9A9A"/>
<path d="M42.2461 22.0275H44.6695V24.4509C44.6695 25.9552 45.2671 27.3978 46.3308 28.4616C47.3945 29.5252 48.8371 30.1228 50.3414 30.1228C51.8457 30.1228 53.2884 29.5252 54.352 28.4616C55.4158 27.3978 56.0133 25.9552 56.0133 24.4509V22.0275H58.447C59.9513 22.0275 61.394 21.4299 62.4577 20.3663C63.5214 19.3025 64.1189 17.8599 64.1189 16.3556C64.1189 14.8513 63.5214 13.4087 62.4577 12.345C61.394 11.2814 59.9513 10.6837 58.447 10.6837H56.0133V8.25C56.0133 6.74573 55.4158 5.30306 54.352 4.23938C53.2884 3.17569 51.8457 2.57812 50.3414 2.57812C48.8371 2.57812 47.3945 3.17569 46.3308 4.23938C45.2671 5.30306 44.6695 6.74573 44.6695 8.25V10.6837H42.2461C40.7418 10.6837 39.2992 11.2814 38.2356 12.345C37.1718 13.4087 36.5742 14.8513 36.5742 16.3556C36.5742 17.8599 37.1718 19.3025 38.2356 20.3663C39.2992 21.4299 40.7418 22.0275 42.2461 22.0275ZM42.2461 13.7775H46.2164C46.6267 13.7775 47.0202 13.6146 47.3103 13.3245C47.6003 13.0344 47.7633 12.6409 47.7633 12.2306V8.25C47.7633 7.56624 48.0349 6.91048 48.5185 6.42699C49.0019 5.9435 49.6577 5.67188 50.3414 5.67188C51.0252 5.67188 51.681 5.9435 52.1644 6.42699C52.6479 6.91048 52.9195 7.56624 52.9195 8.25V12.2306C52.9195 12.6409 53.0826 13.0344 53.3727 13.3245C53.6628 13.6146 54.0562 13.7775 54.4664 13.7775H58.447C59.1309 13.7775 59.7866 14.0491 60.2701 14.5326C60.7535 15.0161 61.0252 15.6719 61.0252 16.3556C61.0252 17.0393 60.7535 17.6951 60.2701 18.1787C59.7866 18.6621 59.1309 18.9338 58.447 18.9338H54.4664C54.0562 18.9338 53.6628 19.0967 53.3727 19.3868C53.0826 19.6769 52.9195 20.0704 52.9195 20.4806V24.4509C52.9195 25.1347 52.6479 25.7904 52.1644 26.274C51.681 26.7574 51.0252 27.0291 50.3414 27.0291C49.6577 27.0291 49.0019 26.7574 48.5185 26.274C48.0349 25.7904 47.7633 25.1347 47.7633 24.4509V20.4806C47.7633 20.0704 47.6003 19.6769 47.3103 19.3868C47.0202 19.0967 46.6267 18.9338 46.2164 18.9338H42.2461C41.5624 18.9338 40.9066 18.6621 40.4232 18.1787C39.9396 17.6951 39.668 17.0393 39.668 16.3556C39.668 15.6719 39.9396 15.0161 40.4232 14.5326C40.9066 14.0491 41.5624 13.7775 42.2461 13.7775Z" fill="#9A9A9A"/>
</svg>
