<svg width="101" height="100" viewBox="0 0 101 100" fill="none" xmlns="http://www.w3.org/2000/svg">
<path fill-rule="evenodd" clip-rule="evenodd" d="M19.8227 21.3618C19.8227 22.2077 19.1371 22.8935 18.2909 22.8935C17.445 22.8935 16.7595 22.2079 16.7592 21.3618V1.87547C16.7592 1.02956 17.445 0.34375 18.2909 0.34375H80.3115C81.1574 0.34375 81.8432 1.02956 81.8432 1.87547V23.428C81.8432 24.2739 81.1574 24.9598 80.3115 24.9598C79.4656 24.9598 78.7797 24.2742 78.7797 23.428V3.40718H19.8227V21.3618ZM78.7802 85.8854C78.7802 85.0395 79.466 84.3535 80.3119 84.3535C81.1578 84.3535 81.8436 85.0397 81.8436 85.8856V89.0601C81.8436 94.921 77.0753 99.6894 71.2143 99.6894H10.1256C9.99019 99.6894 9.8613 99.6659 9.73581 99.6329C9.61031 99.6659 9.4812 99.6894 9.3453 99.6894C4.38407 99.6894 0.347656 95.653 0.347656 90.6915V79.1566C0.347656 78.3107 1.03347 77.6249 1.87937 77.6249H11.6827C12.5286 77.6249 13.2144 78.3107 13.2144 79.1566C13.2144 80.0025 12.5286 80.6883 11.6827 80.6883H3.41132V90.6913C3.41132 93.9634 6.07339 96.6255 9.34553 96.6255C9.48188 96.6255 9.61167 96.649 9.73762 96.6825C9.75278 96.6785 9.76769 96.674 9.78259 96.6694C9.8106 96.6609 9.83857 96.6525 9.86809 96.6474C10.1453 96.5981 16.7595 95.3606 16.7595 89.4694V74.4895C16.7595 73.6434 17.4453 72.9578 18.2912 72.9578C19.1371 72.9578 19.8229 73.6434 19.8229 74.4895V89.4694C19.8229 92.6755 18.447 95.0031 16.6511 96.6255H71.2145C75.3862 96.6255 78.7802 93.2315 78.7802 89.0599V85.8854ZM46.9834 13.1741C46.1372 13.1741 45.4516 13.8599 45.4516 14.7058C45.4516 15.5519 46.1375 16.2375 46.9834 16.2375H71.6855C72.5316 16.2375 73.2172 15.5517 73.2172 14.7058C73.2172 13.8599 72.5316 13.1741 71.6855 13.1741H46.9834ZM25.0728 14.7058C25.0728 13.8599 25.7587 13.1741 26.6046 13.1741H37.5541C38.4 13.1741 39.0858 13.8599 39.0858 14.7058C39.0858 15.5517 38.4 16.2375 37.5541 16.2375H26.6046C25.7587 16.2375 25.0728 15.5519 25.0728 14.7058ZM71.6855 90.1889C72.5316 90.1889 73.2172 89.5031 73.2172 88.6572C73.2172 87.8115 72.5316 87.1255 71.6855 87.1255H61.0483C60.2021 87.1255 59.5165 87.8115 59.5165 88.6572C59.5165 89.5031 60.2021 90.1889 61.0483 90.1889H71.6855ZM26.6046 90.1889C25.7587 90.1889 25.0728 89.5031 25.0728 88.6572C25.0728 87.8113 25.7587 87.1252 26.6046 87.1255H50.6467C51.4926 87.1255 52.1784 87.8115 52.1784 88.6572C52.1784 89.5031 51.4926 90.1889 50.6467 90.1889H26.6046ZM38.6154 76.2863H26.6046C25.7587 76.2863 25.0728 76.9719 25.0728 77.8178C25.0728 78.6639 25.7587 79.3495 26.6046 79.3495H38.6154C39.4616 79.3495 40.1472 78.6639 40.1472 77.8178C40.1474 76.9719 39.4616 76.2863 38.6154 76.2863ZM48.1592 54.3767H72.9239C73.7701 54.3767 74.4557 55.0623 74.4552 55.9082C74.4552 56.7543 73.7696 57.4401 72.9235 57.4401H49.1774C49.0032 57.8329 48.8208 58.2218 48.6261 58.603C48.3554 59.133 47.8179 59.4383 47.2608 59.4383C47.0265 59.4383 46.7884 59.3843 46.5653 59.2701C45.8121 58.8852 45.5134 57.9627 45.8982 57.2092C46.2064 56.6062 46.4868 55.9814 46.7314 55.3526C46.7327 55.3495 46.7343 55.3468 46.7358 55.344L46.7359 55.344L46.7371 55.3417C46.7383 55.3397 46.7394 55.3376 46.7403 55.3354C46.7611 55.284 46.7877 55.2363 46.8144 55.1883L46.8255 55.1683L46.8324 55.1557L46.8421 55.137L46.8463 55.1288L46.8464 55.1286L46.8512 55.1193L46.8617 55.0991C46.8681 55.0873 46.8747 55.0758 46.882 55.0647C46.9036 55.0318 46.9287 55.0021 46.954 54.9723C46.9632 54.9614 46.9725 54.9505 46.9815 54.9395C46.9912 54.9277 47.0006 54.9156 47.01 54.9035C47.0289 54.8791 47.0478 54.8547 47.0695 54.8327C47.0973 54.8046 47.1283 54.7801 47.1593 54.7556L47.1596 54.7554L47.1598 54.7552C47.1705 54.7468 47.1811 54.7384 47.1916 54.7299C47.2034 54.7202 47.2149 54.7101 47.2264 54.7C47.2481 54.6809 47.2698 54.6618 47.2936 54.6455C47.3361 54.6164 47.3823 54.5927 47.4286 54.569L47.4582 54.5537C47.4703 54.5474 47.482 54.5406 47.4937 54.5338C47.5118 54.5232 47.5299 54.5127 47.5491 54.5042C47.591 54.4862 47.6352 54.4732 47.6796 54.4602L47.7151 54.4497L47.727 54.4459L47.7548 54.4366C47.7807 54.4277 47.8065 54.4189 47.8333 54.4131C47.8648 54.4062 47.8973 54.4031 47.9299 54.4L47.943 54.3987C47.9524 54.3977 47.9619 54.3968 47.9712 54.3957L48.0042 54.3913C48.0484 54.3854 48.0925 54.3795 48.1377 54.3789C48.1406 54.3788 48.1435 54.3784 48.1464 54.378C48.1507 54.3774 48.1549 54.3767 48.1592 54.3767ZM55.2987 47.8661H59.3274C60.1735 47.8661 60.8593 47.1803 60.8593 46.3344V42.1593C60.8593 41.7476 61.194 41.4127 61.6058 41.4127H66.6461C66.9166 41.4127 67.0941 41.5509 67.1761 41.6334C67.2578 41.7159 67.395 41.8948 67.3928 42.1655L67.3588 46.4198C67.3555 46.8282 67.5153 47.221 67.8032 47.5106C68.0908 47.8007 68.4822 47.9638 68.8908 47.9638H73.0699C73.916 47.9638 74.6016 47.278 74.6016 46.432C74.6016 45.5861 73.916 44.9003 73.0699 44.9003H70.4347L70.4564 42.1899C70.4648 41.1662 70.0723 40.2023 69.3509 39.4758C68.6301 38.7493 67.6698 38.3493 66.6464 38.3493H61.606C59.5054 38.3493 57.7959 40.0587 57.7959 42.1596V44.8027H55.2987C54.4528 44.8027 53.767 45.4885 53.767 46.3344C53.7667 47.1803 54.4525 47.8661 55.2987 47.8661ZM33.1104 70.7471C31.3822 71.1484 29.5986 71.3517 27.8089 71.3517C14.9268 71.3517 4.44625 60.8714 4.44603 47.9893C4.44603 35.107 14.9266 24.6267 27.8087 24.6267C30.8687 24.6267 33.8444 25.2096 36.653 26.3592C37.4358 26.6798 37.8107 27.5743 37.4903 28.3572C37.1699 29.1397 36.2756 29.5151 35.4924 29.1945C33.0541 28.1962 30.4689 27.6901 27.8089 27.6901C16.6161 27.6901 7.50991 36.7963 7.50991 47.9893C7.50991 59.1821 16.6161 68.2883 27.8089 68.2883C29.3659 68.2883 30.9164 68.1115 32.4181 67.7632C33.2429 67.5708 34.0651 68.0848 34.2562 68.909C34.4475 69.7332 33.9346 70.5558 33.1104 70.7471ZM27.8088 42.385C28.0499 42.385 28.2916 42.4004 28.5277 42.4305C29.3684 42.5392 30.134 41.9445 30.2414 41.1056C30.3488 40.2665 29.7557 39.4993 28.9166 39.3919C28.5521 39.3453 28.1794 39.3216 27.8088 39.3216C23.0296 39.3216 19.1411 43.2099 19.1411 47.9893C19.1411 52.7688 23.0294 56.6568 27.8088 56.6568C28.6547 56.6568 29.3406 55.9712 29.3406 55.1253C29.3406 54.2792 28.6547 53.5936 27.8088 53.5936C24.7185 53.5936 22.2048 51.0797 22.2048 47.9895C22.2048 44.8992 24.7185 42.385 27.8088 42.385ZM87.8518 70.1264L98.6159 80.8907C100.925 83.2003 100.925 86.9574 98.6156 89.2663C97.4609 90.4211 95.9441 90.9981 94.4275 90.9981C92.9107 90.9981 91.3941 90.4211 90.2396 89.2663L75.6295 74.6567C71.1042 77.6195 65.7023 79.3495 59.9015 79.3495C44.0226 79.3495 31.1041 66.431 31.1041 50.5524C31.1041 34.6737 44.0224 21.7552 59.9015 21.7552C75.7801 21.7552 88.6986 34.6735 88.6986 50.5524C88.6986 59.5193 84.5776 67.5405 78.1315 72.826L92.4058 87.1006C93.5208 88.2158 95.3347 88.2149 96.4497 87.1006C97.5642 85.9854 97.5642 84.1717 96.4494 83.0569L85.6854 72.2928C85.0871 71.6948 85.0871 70.7247 85.6854 70.1264C86.2834 69.5283 87.2535 69.5283 87.8518 70.1264ZM34.1675 50.5524C34.1675 64.7419 45.7117 76.2863 59.9015 76.2863C74.091 76.2863 85.6352 64.7419 85.6352 50.5524C85.6352 36.3628 74.091 24.8187 59.9015 24.8187C45.7117 24.8187 34.1675 36.3628 34.1675 50.5524ZM59.9014 29.4853C48.2849 29.4853 38.8343 38.9358 38.8343 50.5524C38.8343 62.1689 48.2849 71.6195 59.9014 71.6195C71.5177 71.6195 80.9683 62.1689 80.9683 50.5524C80.9683 38.936 71.5177 29.4853 59.9014 29.4853ZM59.9014 68.5558C49.9744 68.5558 41.8978 60.4796 41.8978 50.5524C41.8978 40.6251 49.9742 32.5489 59.9014 32.5489C69.8286 32.5489 77.9046 40.6251 77.9046 50.5524C77.9046 60.4796 69.8284 68.5558 59.9014 68.5558ZM47.8207 44.5846C47.8048 44.4862 47.789 44.3877 47.7698 44.2882C47.6463 43.6174 47.4905 42.953 47.2999 42.2986C47.0634 41.4864 47.5299 40.6362 48.3418 40.3995C49.1545 40.1623 50.004 40.6292 50.241 41.4414C50.4533 42.1704 50.6274 42.9101 50.7674 43.6569C50.7683 43.6617 50.7706 43.666 50.7715 43.6707C50.7736 43.681 50.7751 43.6911 50.7767 43.7012C50.7778 43.7083 50.7789 43.7155 50.7803 43.7227C50.8126 43.8982 50.8413 44.0746 50.8698 44.2509C50.9824 44.9248 51.0616 45.5945 51.1091 46.2808C51.1101 46.2953 51.111 46.3098 51.1119 46.3243C51.1133 46.3456 51.1147 46.3668 51.1163 46.3882C51.1305 46.6125 51.1443 46.84 51.1522 47.0713C51.1642 47.3768 51.1715 47.6829 51.1715 47.9893C51.1715 48.4085 51.1561 48.8293 51.1337 49.2488C51.1325 49.2735 51.1321 49.2983 51.1317 49.3232C51.1312 49.3522 51.1308 49.3811 51.129 49.41C51.1284 49.4196 51.1266 49.4287 51.1248 49.4378C51.1232 49.4459 51.1216 49.4541 51.1208 49.4625C51.1174 49.5172 51.1144 49.5721 51.1114 49.6269C51.1059 49.7267 51.1005 49.8264 51.0923 49.9253C51.0263 50.7256 50.3563 51.3316 49.5674 51.3316C49.5253 51.3316 49.4828 51.33 49.4401 51.3264C48.5971 51.2569 47.9697 50.5173 48.0391 49.6741C48.054 49.4928 48.0636 49.3092 48.0732 49.126L48.0755 49.0826C48.0947 48.7186 48.108 48.3518 48.108 47.9893C48.108 47.7155 48.1006 47.4546 48.0918 47.1952C48.0836 46.9885 48.0732 46.7821 48.059 46.5759C48.0584 46.5679 48.0578 46.5599 48.0572 46.5519C48.0565 46.5412 48.0558 46.5305 48.0551 46.5198C48.0119 45.9172 47.9396 45.3182 47.8435 44.7242C47.8356 44.6776 47.8282 44.6311 47.8207 44.5846Z" fill="#9A9A9A"/>
</svg>
