<svg width="93" height="18" viewBox="0 0 93 18" fill="none" xmlns="http://www.w3.org/2000/svg">
<g clip-path="url(#clip0_372_2408)">
<path d="M6.96475 14.9606C6.85363 15.6039 6.7425 16.2382 6.6332 16.8742C3.30496 16.3803 -0.0415097 13.313 0.000389389 8.91161C0.0441102 4.47921 3.60554 1.11846 7.73715 1C7.48394 2.38148 7.23072 3.75749 6.97568 5.13532C6.72247 6.51133 6.46743 7.88734 6.21057 9.27976C6.80809 9.18499 7.39832 9.09204 7.99766 8.99544C7.76448 10.3368 7.53494 11.66 7.30541 12.9886C6.61863 12.8665 6.00836 12.5968 5.4746 12.1666C4.58197 11.4449 4.05003 10.5081 3.96805 9.36359C3.846 7.6814 4.52914 6.38558 5.96282 5.49436C6.40731 5.21734 6.58219 4.65782 6.34537 4.18761C6.10855 3.71922 5.53289 3.48958 5.07018 3.71739C4.79511 3.85226 4.53642 4.03269 4.29414 4.22223C3.09182 5.16813 2.31941 6.39287 2.05891 7.90375C1.70732 9.95045 2.2593 11.7438 3.70209 13.2401C4.58197 14.1532 5.66406 14.7091 6.9101 14.9442C6.92467 14.9478 6.93925 14.9533 6.96475 14.9606Z" fill="#231F20"/>
<path d="M7.30078 16.9563C7.37547 16.7048 7.44834 16.4624 7.52121 16.2181C7.62869 15.8591 7.79446 15.0481 7.86551 15.0462C9.48682 15.039 10.9879 14.4886 12.1647 13.375C13.0974 12.4929 13.6877 11.4139 13.9318 10.1509C14.1886 8.81501 14.0192 7.53013 13.4162 6.31086C12.8697 5.20458 12.0518 4.34435 10.9788 3.7338C10.4596 3.43855 9.74368 3.7666 9.57973 4.36622C9.4595 4.80727 9.64349 5.26108 10.0333 5.49619C11.079 6.12678 11.7439 7.03622 11.9716 8.23727C12.3797 10.3988 11.0371 12.3854 9.02047 12.9139C8.84558 12.9594 8.66706 12.9868 8.47214 13.0269C9.1152 10.8654 9.74915 8.73118 10.3922 6.56966C9.5943 6.80112 8.81462 7.02711 8.01671 7.25857C8.78 5.26655 9.53783 3.2891 10.2975 1.31348C14.7096 2.7387 16.9103 7.19114 15.6424 11.3265C14.3325 15.5985 10.2793 17.3007 7.30078 16.9563Z" fill="#D7282F"/>
</g>
<rect x="7" y="6" width="12" height="12" rx="6" fill="#D7282F"/>
<path fill-rule="evenodd" clip-rule="evenodd" d="M13.0028 12.673L14.6867 14.3549C14.776 14.4442 14.8972 14.4943 15.0236 14.4943C15.1499 14.4943 15.2711 14.4442 15.3605 14.3549C15.4498 14.2657 15.5 14.1446 15.5 14.0184C15.5 13.8922 15.4498 13.7712 15.3605 13.6819L13.676 12L15.3601 10.3181C15.4044 10.2739 15.4394 10.2214 15.4634 10.1637C15.4873 10.106 15.4996 10.0441 15.4996 9.98163C15.4996 9.91915 15.4872 9.85729 15.4633 9.79957C15.4393 9.74185 15.4042 9.68941 15.36 9.64524C15.3157 9.60107 15.2632 9.56604 15.2054 9.54214C15.1476 9.51824 15.0857 9.50595 15.0231 9.50596C14.9606 9.50598 14.8986 9.5183 14.8409 9.54222C14.7831 9.56615 14.7306 9.60121 14.6864 9.6454L13.0028 11.3273L11.319 9.6454C11.2751 9.59994 11.2226 9.56367 11.1645 9.53871C11.1064 9.51375 11.0439 9.5006 10.9806 9.50002C10.9174 9.49944 10.8547 9.51145 10.7961 9.53534C10.7376 9.55924 10.6844 9.59454 10.6397 9.63918C10.5949 9.68383 10.5595 9.73693 10.5356 9.79539C10.5116 9.85384 10.4995 9.91648 10.5 9.97965C10.5005 10.0428 10.5136 10.1053 10.5386 10.1633C10.5635 10.2214 10.5998 10.2739 10.6452 10.3178L12.3297 12L10.6456 13.6822C10.6001 13.7261 10.5638 13.7786 10.5389 13.8367C10.514 13.8947 10.5009 13.9572 10.5003 14.0204C10.4998 14.0835 10.5119 14.1462 10.5359 14.2046C10.5598 14.2631 10.5952 14.3162 10.64 14.3608C10.6847 14.4055 10.7379 14.4408 10.7965 14.4647C10.855 14.4886 10.9177 14.5006 10.981 14.5C11.0442 14.4994 11.1067 14.4862 11.1648 14.4613C11.2229 14.4363 11.2754 14.4001 11.3193 14.3546L13.0028 12.673Z" fill="white"/>
<path d="M32.7217 4.71973V10.7246C32.7217 11.4102 32.5672 12.0111 32.2583 12.5273C31.9536 13.0436 31.5114 13.4393 30.9316 13.7144C30.3519 13.9894 29.6663 14.127 28.875 14.127C27.6816 14.127 26.7549 13.8223 26.0947 13.2129C25.4346 12.5993 25.1045 11.7614 25.1045 10.6992V4.71973H27.0659V10.4009C27.0659 11.116 27.2098 11.6408 27.4976 11.9751C27.7853 12.3094 28.2614 12.4766 28.9258 12.4766C29.569 12.4766 30.0345 12.3094 30.3223 11.9751C30.6143 11.6366 30.7603 11.1076 30.7603 10.3882V4.71973H32.7217ZM41.3926 14H39.4565V9.85498C39.4565 9.34294 39.3656 8.95996 39.1836 8.70605C39.0016 8.44792 38.7118 8.31885 38.314 8.31885C37.7723 8.31885 37.3809 8.50081 37.1396 8.86475C36.8984 9.22445 36.7778 9.82324 36.7778 10.6611V14H34.8418V6.90332H36.3208L36.5811 7.81104H36.689C36.9048 7.46826 37.201 7.21012 37.5776 7.03662C37.9585 6.85889 38.3901 6.77002 38.8726 6.77002C39.6978 6.77002 40.3241 6.9943 40.7515 7.44287C41.1789 7.88721 41.3926 8.53044 41.3926 9.37256V14ZM45.0742 14L42.3701 6.90332H44.395L45.7661 10.9468C45.9185 11.4588 46.0137 11.9434 46.0518 12.4004H46.0898C46.111 11.9941 46.2062 11.5096 46.3755 10.9468L47.7402 6.90332H49.7651L47.061 14H45.0742ZM53.7261 8.14746C53.3156 8.14746 52.994 8.27865 52.7612 8.54102C52.5285 8.79915 52.3952 9.16732 52.3613 9.64551H55.0781C55.0697 9.16732 54.9448 8.79915 54.7036 8.54102C54.4624 8.27865 54.1366 8.14746 53.7261 8.14746ZM53.999 14.127C52.8564 14.127 51.9635 13.8117 51.3203 13.1812C50.6771 12.5506 50.3555 11.6577 50.3555 10.5024C50.3555 9.31331 50.6517 8.39502 51.2441 7.74756C51.8408 7.09587 52.6639 6.77002 53.7134 6.77002C54.7163 6.77002 55.4971 7.05566 56.0557 7.62695C56.6143 8.19824 56.8936 8.98747 56.8936 9.99463V10.9341H52.3169C52.3381 11.4842 52.501 11.9137 52.8057 12.2227C53.1104 12.5316 53.5378 12.686 54.0879 12.686C54.5153 12.686 54.9194 12.6416 55.3003 12.5527C55.6812 12.4639 56.0789 12.3221 56.4937 12.1274V13.6255C56.1551 13.7948 55.7933 13.9196 55.4082 14C55.0231 14.0846 54.5534 14.127 53.999 14.127ZM62.4287 6.77002C62.6911 6.77002 62.909 6.78906 63.0825 6.82715L62.9365 8.64258C62.7799 8.60026 62.5895 8.5791 62.3652 8.5791C61.7474 8.5791 61.265 8.73779 60.918 9.05518C60.5752 9.37256 60.4038 9.81689 60.4038 10.3882V14H58.4678V6.90332H59.9341L60.2197 8.09668H60.3149C60.535 7.69889 60.8312 7.37939 61.2036 7.13818C61.5802 6.89274 61.9886 6.77002 62.4287 6.77002ZM64.2886 5.06885C64.2886 4.43831 64.6398 4.12305 65.3423 4.12305C66.0448 4.12305 66.396 4.43831 66.396 5.06885C66.396 5.3693 66.3071 5.60417 66.1294 5.77344C65.9559 5.93848 65.6935 6.021 65.3423 6.021C64.6398 6.021 64.2886 5.70361 64.2886 5.06885ZM66.3071 14H64.3711V6.90332H66.3071V14ZM72.2676 8.35693H70.5918V14H68.6558V8.35693H67.5894V7.42383L68.6558 6.90332V6.38281C68.6558 5.57454 68.8547 4.98421 69.2524 4.61182C69.6502 4.23942 70.2871 4.05322 71.1631 4.05322C71.8317 4.05322 72.4263 4.15267 72.9468 4.35156L72.4517 5.77344C72.0623 5.65072 71.7026 5.58936 71.3726 5.58936C71.0975 5.58936 70.8986 5.67188 70.7759 5.83691C70.6532 5.99772 70.5918 6.20508 70.5918 6.45898V6.90332H72.2676V8.35693ZM73.2959 5.06885C73.2959 4.43831 73.6471 4.12305 74.3496 4.12305C75.0521 4.12305 75.4033 4.43831 75.4033 5.06885C75.4033 5.3693 75.3145 5.60417 75.1367 5.77344C74.9632 5.93848 74.7008 6.021 74.3496 6.021C73.6471 6.021 73.2959 5.70361 73.2959 5.06885ZM75.3145 14H73.3784V6.90332H75.3145V14ZM80.2847 8.14746C79.8742 8.14746 79.5526 8.27865 79.3198 8.54102C79.0871 8.79915 78.9538 9.16732 78.9199 9.64551H81.6367C81.6283 9.16732 81.5034 8.79915 81.2622 8.54102C81.021 8.27865 80.6951 8.14746 80.2847 8.14746ZM80.5576 14.127C79.415 14.127 78.5221 13.8117 77.8789 13.1812C77.2357 12.5506 76.9141 11.6577 76.9141 10.5024C76.9141 9.31331 77.2103 8.39502 77.8027 7.74756C78.3994 7.09587 79.2225 6.77002 80.272 6.77002C81.2749 6.77002 82.0557 7.05566 82.6143 7.62695C83.1729 8.19824 83.4521 8.98747 83.4521 9.99463V10.9341H78.8755C78.8966 11.4842 79.0596 11.9137 79.3643 12.2227C79.6689 12.5316 80.0964 12.686 80.6465 12.686C81.0739 12.686 81.478 12.6416 81.8589 12.5527C82.2397 12.4639 82.6375 12.3221 83.0522 12.1274V13.6255C82.7137 13.7948 82.3519 13.9196 81.9668 14C81.5817 14.0846 81.112 14.127 80.5576 14.127ZM87.2734 14.127C86.4398 14.127 85.7839 13.8032 85.3057 13.1558C84.8317 12.5083 84.5947 11.6112 84.5947 10.4644C84.5947 9.30062 84.8359 8.39502 85.3184 7.74756C85.805 7.09587 86.4736 6.77002 87.3242 6.77002C88.2171 6.77002 88.8984 7.11702 89.3682 7.81104H89.4316C89.3343 7.28206 89.2856 6.81022 89.2856 6.39551V4.12305H91.228V14H89.7427L89.3682 13.0796H89.2856C88.8455 13.7778 88.1748 14.127 87.2734 14.127ZM87.9526 12.5845C88.4478 12.5845 88.8096 12.4406 89.0381 12.1528C89.2708 11.8651 89.3978 11.3763 89.4189 10.6865V10.4771C89.4189 9.71533 89.3005 9.16943 89.0635 8.83936C88.8307 8.50928 88.4499 8.34424 87.9209 8.34424C87.4893 8.34424 87.1528 8.52832 86.9116 8.89648C86.6746 9.26042 86.5562 9.7915 86.5562 10.4897C86.5562 11.188 86.6768 11.7127 86.918 12.064C87.1592 12.411 87.5041 12.5845 87.9526 12.5845Z" fill="#D7282F"/>
<defs>
<clipPath id="clip0_372_2408">
<rect width="16" height="16" fill="white" transform="translate(0 1)"/>
</clipPath>
</defs>
</svg>
