<svg width="66" height="66" viewBox="0 0 66 66" fill="none" xmlns="http://www.w3.org/2000/svg">
<path d="M26.8125 9.28125C26.2433 9.28125 25.7812 9.74222 25.7812 10.3125V22.6875C25.7812 23.2578 26.2433 23.7188 26.8125 23.7188H39.1875C39.7567 23.7188 40.2188 23.2578 40.2188 22.6875V10.3125C40.2188 9.74222 39.7567 9.28125 39.1875 9.28125H26.8125ZM31.9688 11.3438H34.0312V14.4375H31.9688V11.3438ZM38.1562 21.6562H27.8438V11.3438H29.9062V15.4688C29.9062 16.039 30.3683 16.5 30.9375 16.5H35.0625C35.6317 16.5 36.0938 16.039 36.0938 15.4688V11.3438H38.1562V21.6562Z" fill="#9A9A9A"/>
<path d="M51.8368 19.6309C49.4422 18.9688 49.0927 18.6202 48.4316 16.2247C48.3079 15.7792 47.9016 15.4688 47.4375 15.4688C46.9734 15.4688 46.5671 15.7792 46.4434 16.2247C45.7823 18.6192 45.4328 18.9688 43.0382 19.6309C42.5906 19.7546 42.2812 20.1609 42.2812 20.625C42.2812 21.0891 42.5906 21.4954 43.0382 21.6191C45.4328 22.2812 45.7823 22.6298 46.4434 25.0253C46.5671 25.4708 46.9734 25.7812 47.4375 25.7812C47.9016 25.7812 48.3079 25.4708 48.4316 25.0253C49.0927 22.6308 49.4422 22.2812 51.8368 21.6191C52.2844 21.4954 52.5938 21.0891 52.5938 20.625C52.5938 20.1609 52.2844 19.7546 51.8368 19.6309ZM47.4375 21.9636C47.0869 21.4015 46.661 20.9767 46.0989 20.625C46.6599 20.2733 47.0869 19.8485 47.4375 19.2864C47.7881 19.8485 48.214 20.2733 48.7761 20.625C48.214 20.9767 47.7881 21.4015 47.4375 21.9636Z" fill="#9A9A9A"/>
<path d="M17.5684 15.7441C17.6921 16.1896 18.0984 16.5 18.5625 16.5C19.0266 16.5 19.4329 16.1896 19.5566 15.7441C20.2177 13.3495 20.5673 12.9999 22.9618 12.3379C23.4094 12.2141 23.7188 11.8078 23.7188 11.3438C23.7188 10.8797 23.4094 10.4734 22.9618 10.3496C20.5673 9.68756 20.2177 9.339 19.5566 6.94341C19.4329 6.49791 19.0266 6.1875 18.5625 6.1875C18.0984 6.1875 17.6921 6.49791 17.5684 6.94341C16.9073 9.33797 16.5578 9.68756 14.1632 10.3496C13.7156 10.4734 13.4062 10.8797 13.4062 11.3438C13.4062 11.8078 13.7156 12.2141 14.1632 12.3379C16.5578 12.9989 16.9073 13.3485 17.5684 15.7441ZM18.5625 10.0052C18.9131 10.5672 19.339 10.9921 19.9011 11.3438C19.3401 11.6954 18.9131 12.1203 18.5625 12.6823C18.2119 12.1203 17.786 11.6954 17.2239 11.3438C17.786 10.9921 18.2119 10.5672 18.5625 10.0052Z" fill="#9A9A9A"/>
<path d="M61.9895 54.1241C62.5536 53.4177 62.9062 52.535 62.9062 51.5625C62.9062 49.2876 61.0562 47.4375 58.7812 47.4375C56.5063 47.4375 54.6562 49.2876 54.6562 51.5625C54.6562 52.535 55.0089 53.4177 55.573 54.1241C53.8189 54.9481 52.5938 56.7188 52.5938 58.7812V63.9375C52.5938 64.5078 53.0558 64.9688 53.625 64.9688H63.9375C64.5067 64.9688 64.9688 64.5078 64.9688 63.9375V58.7812C64.9688 56.7188 63.7436 54.9481 61.9895 54.1241ZM58.7812 49.5C59.9187 49.5 60.8438 50.425 60.8438 51.5625C60.8438 52.7 59.9187 53.625 58.7812 53.625C57.6438 53.625 56.7188 52.7 56.7188 51.5625C56.7188 50.425 57.6438 49.5 58.7812 49.5ZM62.9062 62.9062H54.6562V58.7812C54.6562 57.0756 56.0443 55.6875 57.75 55.6875H59.8125C61.5182 55.6875 62.9062 57.0756 62.9062 58.7812V62.9062Z" fill="#9A9A9A"/>
<path d="M46.5207 54.1241C47.0848 53.4177 47.4375 52.535 47.4375 51.5625C47.4375 49.2876 45.5874 47.4375 43.3125 47.4375C41.0376 47.4375 39.1875 49.2876 39.1875 51.5625C39.1875 52.535 39.5402 53.4177 40.1043 54.1241C38.3501 54.9481 37.125 56.7188 37.125 58.7812V63.9375C37.125 64.5078 37.587 64.9688 38.1562 64.9688H48.4688C49.038 64.9688 49.5 64.5078 49.5 63.9375V58.7812C49.5 56.7188 48.2749 54.9481 46.5207 54.1241ZM43.3125 49.5C44.45 49.5 45.375 50.425 45.375 51.5625C45.375 52.7 44.45 53.625 43.3125 53.625C42.175 53.625 41.25 52.7 41.25 51.5625C41.25 50.425 42.175 49.5 43.3125 49.5ZM47.4375 62.9062H39.1875V58.7812C39.1875 57.0756 40.5756 55.6875 42.2812 55.6875H44.3438C46.0494 55.6875 47.4375 57.0756 47.4375 58.7812V62.9062Z" fill="#9A9A9A"/>
<path d="M25.8957 54.1241C26.4598 53.4177 26.8125 52.535 26.8125 51.5625C26.8125 49.2876 24.9624 47.4375 22.6875 47.4375C20.4126 47.4375 18.5625 49.2876 18.5625 51.5625C18.5625 52.535 18.9152 53.4177 19.4793 54.1241C17.7251 54.9481 16.5 56.7188 16.5 58.7812V63.9375C16.5 64.5078 16.962 64.9688 17.5312 64.9688H27.8438C28.413 64.9688 28.875 64.5078 28.875 63.9375V58.7812C28.875 56.7188 27.6499 54.9481 25.8957 54.1241ZM22.6875 49.5C23.825 49.5 24.75 50.425 24.75 51.5625C24.75 52.7 23.825 53.625 22.6875 53.625C21.55 53.625 20.625 52.7 20.625 51.5625C20.625 50.425 21.55 49.5 22.6875 49.5ZM26.8125 62.9062H18.5625V58.7812C18.5625 57.0756 19.9506 55.6875 21.6562 55.6875H23.7188C25.4244 55.6875 26.8125 57.0756 26.8125 58.7812V62.9062Z" fill="#9A9A9A"/>
<path d="M10.427 54.1241C10.9911 53.4177 11.3438 52.535 11.3438 51.5625C11.3438 49.2876 9.49369 47.4375 7.21875 47.4375C4.94381 47.4375 3.09375 49.2876 3.09375 51.5625C3.09375 52.535 3.44644 53.4177 4.01053 54.1241C2.25637 54.9481 1.03125 56.7188 1.03125 58.7812V63.9375C1.03125 64.5078 1.49325 64.9688 2.0625 64.9688H12.375C12.9442 64.9688 13.4062 64.5078 13.4062 63.9375V58.7812C13.4062 56.7188 12.1811 54.9481 10.427 54.1241ZM7.21875 49.5C8.35622 49.5 9.28125 50.425 9.28125 51.5625C9.28125 52.7 8.35622 53.625 7.21875 53.625C6.08128 53.625 5.15625 52.7 5.15625 51.5625C5.15625 50.425 6.08128 49.5 7.21875 49.5ZM11.3438 62.9062H3.09375V58.7812C3.09375 57.0756 4.48181 55.6875 6.1875 55.6875H8.25C9.95569 55.6875 11.3438 57.0756 11.3438 58.7812V62.9062Z" fill="#9A9A9A"/>
<path d="M39.2957 39.7578C39.1214 40.1074 39.1586 40.525 39.3937 40.8375L42.4874 44.9625C42.6813 45.2224 42.9876 45.375 43.3124 45.375C43.6373 45.375 43.9425 45.2224 44.1374 44.9625L47.2312 40.8375C47.4663 40.525 47.5034 40.1074 47.3292 39.7578C47.1549 39.4082 46.797 39.1875 46.4062 39.1875H40.2187C39.8279 39.1875 39.471 39.4082 39.2957 39.7578ZM44.3437 41.25L43.3124 42.6247L42.2812 41.25H44.3437Z" fill="#9A9A9A"/>
<path d="M44.8491 26.4453L43.2702 25.1181C40.7127 28.1613 36.9693 29.9062 33 29.9062C26.3721 29.9062 20.6673 24.9665 19.7288 18.416L17.688 18.7079C18.7698 26.268 25.3522 31.9687 33 31.9687C37.5798 31.9687 41.8986 29.9557 44.8491 26.4453Z" fill="#9A9A9A"/>
<path d="M46.0979 13.6259L48.113 13.1866C46.5754 6.14316 40.2187 1.03125 33 1.03125C28.809 1.03125 24.8851 2.68022 21.9512 5.67394L23.4248 7.11769C25.9669 4.52306 29.3679 3.09375 33 3.09375C39.2566 3.09375 44.7655 7.52297 46.0979 13.6259Z" fill="#9A9A9A"/>
<path d="M44.3438 30.9375H42.2812V33H44.3438V30.9375Z" fill="#9A9A9A"/>
<path d="M44.3438 35.0625H42.2812V37.125H44.3438V35.0625Z" fill="#9A9A9A"/>
<path d="M54.7645 39.7578C54.5902 40.1074 54.6273 40.525 54.8624 40.8375L57.9562 44.9625C58.1501 45.2224 58.4564 45.375 58.7812 45.375C59.106 45.375 59.4113 45.2224 59.6062 44.9625L62.6999 40.8375C62.9351 40.525 62.9722 40.1074 62.7979 39.7578C62.6236 39.4082 62.2658 39.1875 61.8749 39.1875H55.6874C55.2966 39.1875 54.9398 39.4082 54.7645 39.7578ZM59.8124 41.25L58.7812 42.6247L57.7499 41.25H59.8124Z" fill="#9A9A9A"/>
<path d="M59.8125 30.9375H57.75V33H59.8125V30.9375Z" fill="#9A9A9A"/>
<path d="M59.8125 35.0625H57.75V37.125H59.8125V35.0625Z" fill="#9A9A9A"/>
<path d="M18.6707 39.7578C18.4964 40.1074 18.5336 40.525 18.7687 40.8375L21.8624 44.9625C22.0563 45.2224 22.3626 45.375 22.6874 45.375C23.0123 45.375 23.3175 45.2224 23.5124 44.9625L26.6062 40.8375C26.8413 40.525 26.8784 40.1074 26.7042 39.7578C26.5299 39.4082 26.172 39.1875 25.7812 39.1875H19.5937C19.2029 39.1875 18.846 39.4082 18.6707 39.7578ZM23.7187 41.25L22.6874 42.6247L21.6562 41.25H23.7187Z" fill="#9A9A9A"/>
<path d="M23.7188 30.9375H21.6562V33H23.7188V30.9375Z" fill="#9A9A9A"/>
<path d="M23.7188 35.0625H21.6562V37.125H23.7188V35.0625Z" fill="#9A9A9A"/>
<path d="M3.20203 39.7578C3.02775 40.1074 3.0659 40.525 3.3 40.8375L6.39375 44.9625C6.58865 45.2224 6.8939 45.375 7.21875 45.375C7.54359 45.375 7.84884 45.2224 8.04375 44.9625L11.1375 40.8375C11.3726 40.525 11.4097 40.1074 11.2355 39.7578C11.0612 39.4082 10.7033 39.1875 10.3125 39.1875H4.125C3.73415 39.1875 3.37734 39.4082 3.20203 39.7578ZM8.25 41.25L7.21875 42.6247L6.1875 41.25H8.25Z" fill="#9A9A9A"/>
<path d="M8.25 30.9375H6.1875V33H8.25V30.9375Z" fill="#9A9A9A"/>
<path d="M8.25 35.0625H6.1875V37.125H8.25V35.0625Z" fill="#9A9A9A"/>
<path d="M8.25 26.8125H6.1875V28.875H8.25V26.8125Z" fill="#9A9A9A"/>
<path d="M59.8125 26.8125H57.75V28.875H59.8125V26.8125Z" fill="#9A9A9A"/>
<path d="M55.6875 26.8125H53.625V28.875H55.6875V26.8125Z" fill="#9A9A9A"/>
<path d="M12.375 26.8125H10.3125V28.875H12.375V26.8125Z" fill="#9A9A9A"/>
</svg>
