<svg width="41" height="41" viewBox="0 0 41 41" fill="none" xmlns="http://www.w3.org/2000/svg">
<path d="M17.5994 9.65256V9.65486V12.8215C17.5994 14.5543 17.1433 15.7955 16.3333 16.6055C15.5234 17.4154 14.2822 17.8715 12.5494 17.8715H9.3827C7.6499 17.8715 6.40872 17.4154 5.59876 16.6055C4.7888 15.7955 4.3327 14.5543 4.3327 12.8215V9.65486C4.3327 7.92206 4.78878 6.68116 5.60045 5.87131C6.41229 5.06127 7.65765 4.60486 9.39937 4.60486H12.566C14.299 4.60486 15.5398 5.06103 16.3475 5.87052C17.155 6.6798 17.6073 7.92019 17.5994 9.65256Z" stroke="#D7282F"/>
<path d="M28.4486 4.60486H31.6152C33.348 4.60486 34.5892 5.06095 35.3992 5.87091C36.2091 6.68087 36.6652 7.92206 36.6652 9.65486V12.8215C36.6652 14.5543 36.2091 15.7955 35.3992 16.6055C34.5892 17.4154 33.348 17.8715 31.6152 17.8715H28.4486C26.7158 17.8715 25.4746 17.4154 24.6646 16.6055C23.8547 15.7955 23.3986 14.5543 23.3986 12.8215V9.65486C23.3986 7.92206 23.8547 6.68087 24.6646 5.87091C25.4746 5.06095 26.7158 4.60486 28.4486 4.60486Z" stroke="#231F20"/>
<path d="M28.4486 23.6552H31.6152C33.348 23.6552 34.5892 24.1112 35.3992 24.9212C36.2091 25.7312 36.6652 26.9724 36.6652 28.7052V31.8718C36.6652 33.6046 36.2091 34.8458 35.3992 35.6558C34.5892 36.4657 33.348 36.9218 31.6152 36.9218H28.4486C26.7158 36.9218 25.4746 36.4657 24.6646 35.6558C23.8547 34.8458 23.3986 33.6046 23.3986 31.8718V28.7052C23.3986 26.9724 23.8547 25.7312 24.6646 24.9212C25.4746 24.1112 26.7158 23.6552 28.4486 23.6552Z" stroke="#D7282F"/>
<path d="M17.5994 28.7195V28.7218V31.8885C17.5994 33.6213 17.1433 34.8625 16.3333 35.6724C15.5234 36.4824 14.2822 36.9385 12.5494 36.9385H9.3827C7.64991 36.9385 6.40901 36.4824 5.59915 35.6707C4.78911 34.8589 4.3327 33.6135 4.3327 31.8718V28.7052C4.3327 26.9724 4.78878 25.7315 5.60045 24.9216C6.41229 24.1116 7.65765 23.6552 9.39937 23.6552H12.566C14.299 23.6552 15.5395 24.1113 16.3471 24.9225C17.1547 25.7337 17.6073 26.9782 17.5994 28.7195Z" stroke="#231F20"/>
</svg>
