<svg width="28" height="28" viewBox="0 0 28 28" fill="none" xmlns="http://www.w3.org/2000/svg">
<path d="M15.1977 14.7369L10.3161 19.6184L5.43457 14.7369H15.1977ZM22.5661 13.2632H12.803L17.6846 8.38159L22.5661 13.2632ZM8.84247 13.2632V8.56006L8.46598 8.73141L8.12618 8.84952L7.76598 8.9312L7.36495 8.98879V7.53047L7.93224 7.40214L8.4813 7.21108L9.03036 6.94202C9.21409 6.8385 9.4032 6.76772 9.59765 6.63159H10.6846V13.2632H8.84247ZM20.6745 17.832C20.6745 18.3239 20.6173 18.7911 20.5031 19.2334C20.3889 19.6758 20.2109 20.0632 19.9694 20.3957C19.7278 20.7282 19.4171 20.9924 19.0375 21.1883C18.6578 21.3842 18.2036 21.4822 17.6747 21.4822L17.1606 21.4552L16.737 21.3888L16.4088 21.3065L16.1755 21.227V19.7278L16.3877 19.8416L16.6888 19.9488L17.0417 20.0282L17.4063 20.0603C17.8623 20.0603 18.2111 19.9342 18.4527 19.6819C18.6943 19.4296 18.818 19.0589 18.8238 18.5699H18.7961C18.6659 18.7371 18.4982 18.8701 18.293 18.9688C18.0878 19.0674 17.8395 19.1168 17.5478 19.1168C17.3203 19.1168 17.1008 19.0728 16.8894 18.9848C16.6779 18.8968 16.4903 18.7685 16.3264 18.5998C16.1626 18.4311 16.0892 18.2336 15.9905 17.9847C15.8918 17.7358 15.8425 17.4515 15.8425 17.1316C15.8425 16.7427 15.9054 16.3988 16.0313 16.0998C16.1572 15.8009 16.2717 15.539 16.4905 15.3368C16.7092 15.1345 16.9666 14.9819 17.2627 14.8788C17.5587 14.7758 17.8769 14.7243 18.2172 14.7243C18.3902 14.7243 18.5718 14.744 18.7619 14.7834C18.9519 14.8227 19.1374 14.8888 19.3182 14.9817C19.499 15.0745 19.6714 15.1982 19.8352 15.3528C19.999 15.5074 20.1434 15.7001 20.2683 15.9311C20.3932 16.1619 20.4922 16.4339 20.5651 16.747C20.638 17.06 20.6745 17.4217 20.6745 17.832ZM18.7509 16.9803L18.7166 16.693L18.6138 16.4349C18.5682 16.3571 18.5113 16.2949 18.4432 16.2482C18.3751 16.2016 18.294 16.1782 18.1997 16.1782C18.0353 16.1782 17.8992 16.2441 17.7913 16.3758C17.6834 16.5076 17.6295 16.712 17.6295 16.9891C17.6295 17.2467 17.6827 17.4424 17.7891 17.5761C17.8956 17.7097 18.0295 17.7766 18.1909 17.7766C18.2882 17.7766 18.3715 17.7561 18.441 17.7153C18.5105 17.6745 18.5682 17.6176 18.6138 17.5447L18.7166 17.2895L18.7509 16.9803Z" fill="white"/>
</svg>
