<svg width="91" height="63" viewBox="0 0 91 63" fill="none" xmlns="http://www.w3.org/2000/svg">
<path d="M15.8125 12.2031C15.0254 12.2039 14.2707 12.5169 13.7141 13.0735C13.1576 13.6301 12.8445 14.3848 12.8438 15.1719V19.625C12.8438 20.0187 13.0001 20.3962 13.2785 20.6746C13.5569 20.953 13.9344 21.1094 14.3281 21.1094C14.7218 21.1094 15.0994 20.953 15.3777 20.6746C15.6561 20.3962 15.8125 20.0187 15.8125 19.625V15.1719H20.2656C20.6593 15.1719 21.0369 15.0155 21.3152 14.7371C21.5936 14.4587 21.75 14.0812 21.75 13.6875C21.75 13.2938 21.5936 12.9163 21.3152 12.6379C21.0369 12.3595 20.6593 12.2031 20.2656 12.2031H15.8125ZM26.2031 28.5312C26.2031 37.534 32.197 44.8594 39.5625 44.8594C57.2785 43.9866 57.2711 13.0715 39.5625 12.2031C32.197 12.2031 26.2031 19.5285 26.2031 28.5312ZM49.9531 28.5312C49.9531 35.8967 45.2922 41.8906 39.5625 41.8906C25.8142 41.2776 25.8187 15.782 39.5625 15.1719C45.2922 15.1719 49.9531 21.1658 49.9531 28.5312Z" fill="#9A9A9A"/>
<path d="M0.96875 51.5391C0.970321 52.9165 1.51819 54.237 2.49216 55.211C3.46613 56.1849 4.78666 56.7328 6.16406 56.7344H19.5234C20.2676 56.7346 21.0031 56.5743 21.6798 56.2645C22.3564 55.9546 22.9583 55.5025 23.4444 54.939C23.9304 54.3754 24.2893 53.7137 24.4964 52.9989C24.7035 52.284 24.754 51.533 24.6445 50.7969H51.9125C52.3062 50.7969 52.6837 50.6405 52.9621 50.3621C53.2405 50.0837 53.3969 49.7062 53.3969 49.3125C53.3969 48.9188 53.2405 48.5413 52.9621 48.2629C52.6837 47.9845 52.3062 47.8281 51.9125 47.8281H23.1483C23.6384 47.3424 24.0274 46.7643 24.2929 46.1274C24.5583 45.4904 24.695 44.8072 24.695 44.1172C24.695 43.4271 24.5583 42.7439 24.2929 42.107C24.0274 41.4701 23.6384 40.892 23.1483 40.4062C23.8747 39.6807 24.3708 38.7569 24.5745 37.7506C24.7782 36.7444 24.6804 35.7003 24.2934 34.7494C23.9064 33.7985 23.2473 32.9829 22.3988 32.4049C21.5503 31.8268 20.5501 31.5121 19.5234 31.5H9.875V9.23438H69.25V24.1375C69.25 24.5312 69.4064 24.9087 69.6848 25.1871C69.9631 25.4655 70.3407 25.6219 70.7344 25.6219C71.1281 25.6219 71.5056 25.4655 71.784 25.1871C72.0624 24.9087 72.2188 24.5312 72.2188 24.1375V9.23438C72.218 8.44726 71.9049 7.6926 71.3484 7.13602C70.7918 6.57944 70.0371 6.26641 69.25 6.26562H15.8125V3.29688H75.1875V24.5531C75.1875 24.9468 75.3439 25.3244 75.6223 25.6027C75.9006 25.8811 76.2782 26.0375 76.6719 26.0375C77.0656 26.0375 77.4431 25.8811 77.7215 25.6027C77.9999 25.3244 78.1562 24.9468 78.1562 24.5531V3.29688C78.1555 2.50975 77.8424 1.7551 77.2859 1.19852C76.7293 0.641942 75.9746 0.328911 75.1875 0.328125H15.8125C15.0254 0.328911 14.2707 0.641942 13.7141 1.19852C13.1576 1.7551 12.8445 2.50975 12.8438 3.29688V6.26562H9.875C9.08788 6.26641 8.33322 6.57944 7.77665 7.13602C7.22007 7.6926 6.90704 8.44726 6.90625 9.23438V31.5C5.82141 31.3611 4.72028 31.5651 3.75721 32.0834C2.79414 32.6018 2.01742 33.4085 1.53591 34.3905C1.0544 35.3725 0.892238 36.4806 1.07216 37.5594C1.25209 38.6382 1.76507 39.6337 2.53922 40.4062C2.04913 40.892 1.66012 41.4701 1.39464 42.107C1.12916 42.7439 0.992475 43.4271 0.992475 44.1172C0.992475 44.8072 1.12916 45.4904 1.39464 46.1274C1.66012 46.7643 2.04913 47.3424 2.53922 47.8281C2.04256 48.3102 1.64767 48.887 1.37792 49.5244C1.10816 50.1619 0.969028 50.8469 0.96875 51.5391ZM3.9375 36.6953C3.93829 36.105 4.17312 35.5392 4.59051 35.1218C5.0079 34.7044 5.57378 34.4695 6.16406 34.4688H19.5234C20.114 34.4688 20.6803 34.7033 21.0979 35.1209C21.5154 35.5385 21.75 36.1048 21.75 36.6953C21.75 37.2858 21.5154 37.8522 21.0979 38.2697C20.6803 38.6873 20.114 38.9219 19.5234 38.9219H6.16406C5.57378 38.9211 5.0079 38.6863 4.59051 38.2689C4.17312 37.8515 3.93829 37.2856 3.9375 36.6953ZM3.9375 44.1172C3.93829 43.5269 4.17312 42.961 4.59051 42.5436C5.0079 42.1262 5.57378 41.8914 6.16406 41.8906H19.5234C20.114 41.8906 20.6803 42.1252 21.0979 42.5428C21.5154 42.9603 21.75 43.5267 21.75 44.1172C21.75 44.7077 21.5154 45.274 21.0979 45.6916C20.6803 46.1092 20.114 46.3438 19.5234 46.3438H6.16406C5.57378 46.343 5.0079 46.1081 4.59051 45.6907C4.17312 45.2733 3.93829 44.7075 3.9375 44.1172ZM19.5234 49.3125C20.114 49.3125 20.6803 49.5471 21.0979 49.9646C21.5154 50.3822 21.75 50.9485 21.75 51.5391C21.75 52.1296 21.5154 52.6959 21.0979 53.1135C20.6803 53.531 20.114 53.7656 19.5234 53.7656H6.16406C5.57354 53.7656 5.00721 53.531 4.58964 53.1135C4.17208 52.6959 3.9375 52.1296 3.9375 51.5391C3.9375 50.9485 4.17208 50.3822 4.58964 49.9646C5.00721 49.5471 5.57354 49.3125 6.16406 49.3125H19.5234Z" fill="#9A9A9A"/>
<path d="M72.2188 27.0469C67.4963 27.0524 62.9688 28.9308 59.6295 32.2701C56.2902 35.6094 54.4117 40.1369 54.4062 44.8594C55.3859 68.4906 89.056 68.4832 90.0312 44.8594C90.0257 40.1369 88.1473 35.6094 84.808 32.2701C81.4687 28.9308 76.9412 27.0524 72.2188 27.0469ZM72.2188 59.7031C68.2833 59.6988 64.5102 58.1335 61.7274 55.3507C58.9446 52.5679 57.3793 48.7949 57.375 44.8594C58.1914 25.1677 86.2505 25.1721 87.0625 44.8594C87.0582 48.7949 85.4929 52.5679 82.7101 55.3507C79.9273 58.1335 76.1542 59.6988 72.2188 59.7031Z" fill="#9A9A9A"/>
<path d="M79.2057 37.8723C78.9273 37.5941 78.5498 37.4377 78.1562 37.4377C77.7626 37.4377 77.3851 37.5941 77.1067 37.8723L72.2187 42.7604L67.3307 37.8723C67.0507 37.602 66.6757 37.4523 66.2865 37.4557C65.8973 37.4591 65.525 37.6152 65.2498 37.8904C64.9746 38.1656 64.8185 38.5379 64.8151 38.9271C64.8117 39.3163 64.9614 39.6913 65.2317 39.9713L70.1198 44.8593L65.2317 49.7473C64.9614 50.0273 64.8117 50.4023 64.8151 50.7915C64.8185 51.1807 64.9746 51.553 65.2498 51.8282C65.525 52.1034 65.8973 52.2595 66.2865 52.2629C66.6757 52.2663 67.0507 52.1166 67.3307 51.8463L72.2187 46.9582L77.1067 51.8463C77.3867 52.1166 77.7617 52.2663 78.1509 52.2629C78.5401 52.2595 78.9124 52.1034 79.1876 51.8282C79.4628 51.553 79.6189 51.1807 79.6223 50.7915C79.6257 50.4023 79.476 50.0273 79.2057 49.7473L74.3176 44.8593L79.2057 39.9713C79.4839 39.6929 79.6403 39.3154 79.6403 38.9218C79.6403 38.5282 79.4839 38.1507 79.2057 37.8723Z" fill="#9A9A9A"/>
</svg>
