<svg width="83" height="24" viewBox="0 0 83 24" fill="none" xmlns="http://www.w3.org/2000/svg">
<path d="M64.3016 4.91689C62.3093 4.91689 60.7335 5.44563 59.5288 5.6865L59.1575 8.71483C59.7604 8.42631 61.6599 7.89782 63.2359 7.84952C64.8117 7.80122 65.7383 8.13753 65.4145 9.4838C60.7335 9.4838 57.5817 10.4449 56.9331 13.474C56.0055 18.6662 61.7072 18.5218 63.9775 16.2622L63.6992 17.5126H67.8702L69.6782 9.24357C70.4188 5.73377 67.221 4.86905 64.3016 4.91689ZM64.5796 13.3777C64.3478 14.4827 63.468 14.9644 62.402 15.013C61.4754 15.0603 60.6405 14.2425 61.2433 13.2816C61.7077 12.4649 63.0049 12.2722 63.7928 12.2722C64.1166 12.2722 64.4889 12.2722 64.8124 12.2722C64.7186 12.6568 64.6714 12.9936 64.5796 13.3777Z" fill="#107DB0"/>
<path d="M73.2398 1.65039L69.7891 17.5155H74.0262L77.5194 1.65039H73.2398Z" fill="#107DB0"/>
<path d="M53.7795 1.69824H46.0229L42.5859 17.5144H47.0911L48.2526 12.2745H51.4581C54.616 12.2745 57.2173 10.3517 57.9144 7.08241C58.7028 3.38092 56.009 1.69824 53.7795 1.69824ZM53.6413 7.08241C53.3617 8.28429 52.1539 9.24569 50.9922 9.24569H48.9022L49.8317 4.91932H52.0607C53.2229 4.91932 53.9196 5.88079 53.6413 7.08241Z" fill="#107DB0"/>
<path d="M23.6769 4.91689C21.7084 4.91689 20.1513 5.44563 19.0069 5.6865L18.641 8.71483C19.1902 8.42631 21.0677 7.89782 22.6235 7.84952C24.1804 7.80122 25.0963 8.13753 24.8211 9.4838C20.1976 9.4838 17.0847 10.4449 16.4436 13.474C15.5276 18.6662 21.1584 18.5218 23.3557 16.2622L23.0815 17.5126H27.2475L29.0328 9.24357C29.7652 5.73377 26.5603 4.86905 23.6769 4.91689ZM23.9969 13.3777C23.7682 14.4827 22.8523 14.9644 21.7994 15.013C20.8837 15.0603 20.1056 14.2425 20.7007 13.2816C21.1584 12.4649 22.4401 12.2722 23.1727 12.2722C23.5392 12.2722 23.8592 12.2722 24.2256 12.2722C24.1344 12.6568 24.0429 12.9936 23.9969 13.3777Z" fill="#1B557D"/>
<path d="M30.8437 5.14453H35.0093L35.6814 12.5107L39.7575 5.14453H44.0562L34.1583 22.7731H29.5L32.5452 17.5902L30.8437 5.14453Z" fill="#1B557D"/>
<path d="M13.3206 1.69824H5.54357L2.09766 17.5144H6.66185L7.77922 12.2745H11.0385C14.1586 12.2745 16.7668 10.3517 17.465 7.08241C18.2563 3.38092 15.6022 1.69824 13.3206 1.69824ZM13.1807 7.08241C12.9013 8.28429 11.7373 9.24569 10.573 9.24569H8.43081L9.40887 4.91932H11.644C12.762 4.91932 13.5068 5.88079 13.1807 7.08241Z" fill="#1B557D"/>
<path d="M78.4323 3.69884V1.82864H77.7344V1.57812H79.4157V1.82864H78.7142V3.69884H78.4323Z" fill="#1B557D"/>
<path d="M79.7031 3.69884V1.57812H80.123L80.6264 3.07919C80.673 3.21886 80.7067 3.32343 80.7279 3.39289C80.7522 3.31586 80.7903 3.2026 80.8409 3.05316L81.3499 1.57812H81.7276V3.69884H81.4578V1.92343L80.8386 3.69884H80.5861L79.973 1.89443V3.69884H79.7031Z" fill="#1B557D"/>
</svg>
