<svg width="14" height="12" viewBox="0 0 14 12" fill="none" xmlns="http://www.w3.org/2000/svg">
<path d="M13.4092 10.4819C13.0186 10.321 12.677 10.0443 12.4307 9.68405C13.3954 9.00351 14 8.02795 14 6.94407C14 5.75799 13.2762 4.70147 12.1486 4.01953C12.0294 6.893 9.10851 8.9392 5.82183 8.9392C5.54521 8.9392 5.27108 8.92433 5 8.89633C5.85588 9.95937 7.38958 10.668 9.13951 10.668C9.77779 10.668 10.3872 10.5735 10.9456 10.4022C11.4452 10.8903 12.156 11.1271 12.8773 10.9727C13.071 10.9312 13.2534 10.8642 13.422 10.7756C13.4763 10.7471 13.5095 10.6879 13.5067 10.6245C13.5039 10.561 13.4657 10.5053 13.4092 10.4819Z" fill="#377895"/>
<path d="M11 3.83924C11 1.72967 8.53756 0.0195312 5.5 0.0195312C2.46244 0.0195312 0 1.72967 0 3.83924C0 4.95093 0.684036 5.95156 1.77553 6.64958C1.48917 7.02921 1.08919 7.3184 0.63209 7.4814C0.574668 7.50187 0.53526 7.55228 0.53143 7.61025C0.5276 7.66821 0.560096 7.7229 0.614406 7.74997C0.96989 7.92707 1.36939 8.01953 1.76859 8.01953C2.40616 8.01953 3.00671 7.78446 3.45627 7.38633C4.08812 7.56208 4.77775 7.65895 5.50003 7.65895C8.53759 7.65895 11 5.94881 11 3.83924Z" fill="#377895"/>
</svg>
