<svg width="29" height="29" viewBox="0 0 29 29" fill="none" xmlns="http://www.w3.org/2000/svg">
<path d="M28.0267 18.4634C28.0267 17.0593 27.0837 15.8093 25.7338 15.424L21.7041 14.2729V13.0942C22.1977 12.643 22.5793 12.0731 22.8038 11.4286C23.3556 11.3731 23.8754 11.127 24.2516 10.7128C24.6292 10.2978 24.8247 9.75314 24.8261 9.19405H24.8387V6.48437C24.8387 3.24721 22.2049 0.613403 18.9678 0.613403C15.7306 0.613403 13.0968 3.24721 13.0968 6.48437V9.19405H13.1094C13.1108 9.7536 13.3068 10.2978 13.6839 10.7128C14.0601 11.1265 14.5799 11.3726 15.1318 11.4286C15.3603 12.0848 15.7514 12.6633 16.2581 13.1181V14.2729L12.2283 15.424C10.8785 15.8093 9.93549 17.0593 9.93549 18.4634V20.8551C9.64962 20.782 9.37955 20.6447 9.16459 20.4297L8.18368 19.4488C7.86213 19.1268 7.67742 18.6815 7.67742 18.2263C7.67742 17.7711 7.86213 17.3258 8.18368 17.0038L8.71343 16.4736C9.2102 15.9773 9.48388 15.317 9.48388 14.6148V14.5285C9.48388 13.8917 9.25265 13.2771 8.83355 12.7975L6.86181 10.5439C6.36188 9.97308 5.6411 9.64566 4.88284 9.64566C4.24562 9.64566 3.63097 9.87689 3.15136 10.296L1.44742 11.7872C0.527484 12.592 0 13.7544 0 14.9765C0 15.7027 0.188323 16.4212 0.544194 17.0544C2.92284 21.2828 6.3682 24.8555 10.5086 27.3859L11.5247 28.0069C12.1746 28.4034 12.9202 28.6134 13.6821 28.6134C14.8757 28.6134 16.0106 28.0981 16.7959 27.2003L18.317 25.4616C18.7365 24.9824 18.9678 24.3678 18.9678 23.7306C18.9678 23.5486 18.9479 23.3688 18.9113 23.194H28.0267V18.4634ZM23.1136 15.6151L21.5474 18.4336L19.6366 16.8412L21.3631 15.1147L23.1136 15.6151ZM23.5832 10.1054C23.4274 10.2766 23.2287 10.3971 23.0133 10.4703C23.0246 10.347 23.0323 10.2233 23.0323 10.0973V7.93631C23.5182 8.12056 23.8804 8.54869 23.9292 9.05947C23.9662 9.44785 23.8434 9.81953 23.5832 10.1054ZM18.9678 1.51663C21.7068 1.51663 23.9355 3.74534 23.9355 6.48437V7.42598C23.5358 7.1234 23.0395 6.93598 22.503 6.93598H22.2388C21.1238 6.93598 20.0756 6.50198 19.287 5.71347L18.9678 5.39418L18.6485 5.71347C17.8599 6.50198 16.8118 6.93598 15.6967 6.93598H15.3548V6.93734C14.8477 6.9536 14.3803 7.13785 14 7.42598V6.48437C14 3.74534 16.2287 1.51663 18.9678 1.51663ZM14.3523 10.1054C14.0921 9.81953 13.9693 9.44831 14.0063 9.05992C14.0551 8.54914 14.4173 8.12102 14.9032 7.93676V10.0973C14.9032 10.2233 14.9109 10.347 14.9222 10.4703C14.7068 10.3967 14.5081 10.2766 14.3523 10.1054ZM15.8065 10.0973V7.83424C16.9761 7.8094 18.0812 7.39482 18.9678 6.6456C19.8543 7.39482 20.9594 7.8094 22.129 7.83424V10.0973C22.129 11.84 20.711 13.2586 18.9678 13.2586C17.2245 13.2586 15.8065 11.84 15.8065 10.0973ZM18.9678 14.1618C19.6276 14.1618 20.249 14.0006 20.8009 13.7201V14.3998L18.9678 16.2329L17.1613 14.4264V13.7328C17.7064 14.0051 18.3183 14.1618 18.9678 14.1618ZM16.5783 15.1206L18.2989 16.8412L16.3881 18.4336L14.826 15.6214L16.5783 15.1206ZM6.18168 11.1382L8.15343 13.3918C8.42891 13.7066 8.58065 14.1103 8.58065 14.5285V14.6148C8.58065 14.8243 8.5391 15.0262 8.46775 15.2172L4.02929 10.7783C4.28807 10.6302 4.58116 10.5489 4.88284 10.5489C5.38052 10.5489 5.85381 10.7639 6.18168 11.1382ZM16.1167 26.606C15.5025 27.3073 14.6151 27.7102 13.6821 27.7102C13.0864 27.7102 12.5034 27.5462 11.9958 27.2355L10.9796 26.6146C6.9711 24.1646 3.63458 20.7057 1.33136 16.6113C1.05136 16.1132 0.903226 15.5478 0.903226 14.9765C0.903226 14.015 1.31826 13.1005 2.04174 12.4673L3.32162 11.3478L7.94207 15.9682L7.54555 16.3652C7.0551 16.8552 6.7742 17.5335 6.7742 18.2263C6.7742 18.9191 7.0551 19.5974 7.5451 20.0874L8.52601 21.0683C9.02278 21.5655 9.68394 21.8392 10.3871 21.8392C11.0903 21.8392 11.7514 21.5655 12.2482 21.0683L12.6452 20.6713L17.2661 25.2922L16.1167 26.606ZM17.8356 24.5846L13.3967 20.1457C13.5872 20.0748 13.7896 20.0328 13.9991 20.0328H14.0849C14.5031 20.0328 14.9068 20.1845 15.2216 20.46L17.4752 22.4317C17.8496 22.7591 18.0645 23.2329 18.0645 23.7306C18.0645 24.0327 17.9828 24.3258 17.8356 24.5846ZM27.1234 22.2908H24.4007V19.1295H23.4974V22.2908H18.5342C18.4046 22.0935 18.251 21.9106 18.0699 21.752L15.8168 19.7803C15.3368 19.3608 14.7221 19.1295 14.0849 19.1295H13.9991C13.2968 19.1295 12.6366 19.4028 12.1398 19.8995L11.6101 20.4297C11.3947 20.6447 11.125 20.782 10.8392 20.8551V18.4634C10.8392 17.4604 11.5125 16.568 12.4767 16.2925L13.9345 15.8761L16.1285 19.8255L18.5161 17.8357V21.3876H19.4194V17.8357L21.8075 19.8255L24.005 15.8698L25.4859 16.293C26.4501 16.568 27.1234 17.4608 27.1234 18.4639V22.2908V22.2908Z" fill="white"/>
</svg>
