<svg width="16" height="16" viewBox="0 0 16 16" fill="none" xmlns="http://www.w3.org/2000/svg">
<path d="M14.7461 0.652344H0.683594C0.424697 0.652344 0.214844 0.862197 0.214844 1.12109V10.4961C0.214844 10.7539 0.425781 10.9648 0.683594 10.9648H8.18359V15.1836C8.18359 15.3612 8.28385 15.5235 8.4427 15.6029C8.60154 15.6823 8.79127 15.6649 8.93365 15.5585L10.5273 14.3633L12.121 15.5585C12.2039 15.6205 12.3028 15.6523 12.4023 15.6523C12.4738 15.6523 12.5456 15.6361 12.612 15.6029C12.7708 15.5235 12.8711 15.3612 12.8711 15.1836V10.9648H14.7461C15.0039 10.9648 15.2148 10.7539 15.2148 10.4961V1.12109C15.2148 0.863281 15.0039 0.652344 14.7461 0.652344ZM8.72146 7.91609L8.63884 7.5309L9.01375 7.41005C9.15725 7.36382 9.26986 7.25144 9.31609 7.10791L9.43718 6.73276L9.82217 6.81538C9.96912 6.84767 10.1229 6.80601 10.2351 6.70484L10.5274 6.4405L10.8194 6.70484C10.9311 6.80601 11.0861 6.84743 11.2323 6.81538L11.6175 6.73276L11.7386 7.10791C11.7849 7.25141 11.8975 7.36379 12.041 7.41005L12.4159 7.5309L12.3333 7.91609C12.3014 8.06349 12.3426 8.21709 12.4438 8.329L12.7079 8.62106L12.4438 8.91313C12.3426 9.02504 12.3014 9.17864 12.3333 9.32604L12.4159 9.71126L12.041 9.83211C11.8975 9.87834 11.7849 9.99072 11.7386 10.1342L11.6175 10.5094L11.2325 10.4265C11.0847 10.3938 10.9309 10.4357 10.8194 10.5371L10.5273 10.8014L10.235 10.537C10.1481 10.4583 10.0357 10.4159 9.92058 10.4159C9.88762 10.4159 9.85466 10.4194 9.82193 10.4265L9.43694 10.5093L9.31609 10.1342C9.26986 9.99063 9.15725 9.87828 9.01375 9.83202L8.63884 9.71117L8.72146 9.32595C8.75327 9.17855 8.71208 9.02498 8.61092 8.91304L8.34678 8.62098L8.61092 8.32892C8.71208 8.21706 8.75327 8.06349 8.72146 7.91609ZM10.8087 13.4024C10.7253 13.3399 10.6262 13.3086 10.5273 13.3086C10.4285 13.3086 10.3294 13.3399 10.246 13.4024L9.12109 14.2461V11.5175C9.15396 11.5176 9.18631 11.5222 9.21974 11.515L9.78438 11.3935L10.2128 11.7812C10.3021 11.862 10.4147 11.9023 10.5273 11.9023C10.6399 11.9023 10.7525 11.862 10.8418 11.7812L11.2703 11.3935L11.8349 11.515C11.8684 11.5222 11.9006 11.5176 11.9335 11.5176V14.2461L10.8087 13.4024ZM14.2773 10.0273H13.4238C13.4239 9.9945 13.4285 9.96216 13.4213 9.92888L13.3002 9.364L13.6875 8.93554C13.8489 8.757 13.8489 8.4851 13.6875 8.30656L13.3002 7.8781L13.4213 7.31322C13.4719 7.07794 13.3359 6.84242 13.1068 6.76871L12.5571 6.59155L12.3797 6.04133C12.306 5.81243 12.0702 5.67673 11.8352 5.72706L11.2703 5.84838L10.8418 5.46087C10.6633 5.29927 10.3914 5.29927 10.2128 5.46087L9.78438 5.84838L9.2195 5.72706C8.98489 5.67717 8.74891 5.81243 8.67499 6.04133L8.4976 6.59155L7.94781 6.76871C7.71871 6.84242 7.58274 7.07794 7.63334 7.31322L7.75442 7.8781L7.36715 8.30656C7.20578 8.4851 7.20578 8.757 7.36715 8.93554L7.75442 9.364L7.63334 9.92888C7.62619 9.96219 7.63079 9.9945 7.63085 10.0273H1.15234V1.58984H14.2773V10.0273Z" fill="#D7282F"/>
</svg>
