<svg width="3876" height="3626" viewBox="0 0 3876 3626" fill="none" xmlns="http://www.w3.org/2000/svg">
<path d="M3847.04 1951.16C3872.29 1871.53 3875.79 1788.91 3875.79 1711.78C3875.79 1453.66 3705.54 1397.91 3577.41 1378.41C3472.91 1362.41 3104.54 1351.28 2885.29 1345.78C2897.41 1330.66 2910.66 1315.03 2924.16 1298.78C3038.04 1163.16 3210.29 958.033 3192.41 583.033C3181.41 356.533 3116.91 191.658 3000.41 92.783C2888.41 -2.71703 2768.66 -1.46708 2738.04 0.532921C2511.91 3.15792 2479.29 243.283 2455.29 418.658C2439.91 532.658 2422.41 661.783 2367.66 703.783C2158.04 864.783 1931.16 1058.16 1838.16 1269.78C1739.41 1494.03 1638.29 1679.78 1397.29 1679.78H1276.41V1379.53H0.789062V3568.91H1276.54V3296.66C1551.91 3305.03 1672.91 3358.91 1777.66 3447.41C1936.91 3582.16 2075.79 3625.16 2349.29 3625.16C2698.04 3625.16 3160.29 3615.66 3383.04 3570.41C3457.66 3555.28 3556.91 3515.16 3604.91 3411.41C3632.04 3352.66 3639.54 3291.16 3643.29 3244.16C3644.29 3231.41 3644.54 3218.03 3644.79 3205.16C3645.04 3191.28 3645.54 3167.66 3647.66 3154.03C3650.16 3151.53 3652.54 3149.16 3655.16 3146.16C3693.41 3103.53 3736.91 3054.91 3758.04 2978.91C3778.54 2906.53 3781.29 2832.53 3781.29 2770.41C3781.29 2717.78 3768.04 2678.66 3756.16 2644.28C3753.04 2634.91 3750.04 2626.16 3747.41 2617.41C3751.79 2608.28 3762.04 2593.91 3768.67 2584.28C3782.29 2564.53 3797.91 2542.16 3807.91 2516.53C3840.79 2433.03 3843.41 2344.41 3843.41 2267.66C3843.41 2233.66 3841.16 2183.16 3823.04 2134.28C3812.04 2104.78 3796.79 2083.78 3781.79 2067.66C3784.04 2065.66 3786.16 2063.53 3788.29 2061.28C3819.16 2029.66 3834.79 1989.66 3847.04 1951.16ZM1089.79 3383.53H187.539V1565.03H1089.79V3383.53ZM3669.04 1895.16C3661.04 1920.28 3656.29 1929.41 3654.41 1931.91C3652.04 1934.41 3646.41 1938.91 3641.41 1943.28C3614.04 1966.53 3568.16 2005.03 3567.04 2067.16C3566.41 2103.28 3582.29 2137.91 3612.04 2165.03C3618.29 2170.91 3624.41 2176.16 3630.29 2181.03C3645.91 2194.16 3646.16 2194.91 3647.66 2198.91C3655.54 2219.91 3656.41 2248.16 3656.41 2267.78C3656.41 2327.66 3654.66 2395.66 3633.66 2449.28C3631.41 2454.91 3621.16 2469.66 3614.66 2479.16C3586.29 2519.78 3543.91 2580.78 3564.04 2656.16C3568.79 2674.03 3574.29 2689.78 3579.04 2703.66C3588.16 2730.53 3594.29 2748.41 3594.29 2770.41C3594.29 2820.28 3592.16 2878.16 3578.04 2929.41C3569.16 2961.03 3550.66 2983.41 3519.16 3018.66C3511.16 3024.78 3496.66 3036.78 3485.41 3057.03C3459.54 3103.53 3458.54 3157.78 3457.66 3201.66C3457.54 3212.28 3457.29 3222.41 3456.66 3229.91C3454.16 3261.41 3449.54 3301.91 3434.79 3333.78C3430.16 3343.91 3416.29 3374.28 3344.79 3388.66C3183.29 3421.66 2829.41 3439.66 2348.79 3439.66C2097.04 3439.66 2009.66 3400.41 1898.16 3306.16C1764.54 3193.41 1608.66 3121.16 1276.04 3111.28V1865.16H1396.91C1779.79 1865.16 1923.16 1539.16 2008.66 1344.28C2085.04 1170.41 2290.66 997.033 2481.54 850.408C2596.79 762.033 2618.91 600.158 2640.16 443.533C2650.79 365.783 2661.66 285.408 2683.79 234.033C2703.04 189.283 2719.91 185.908 2741.66 185.908C2745.16 185.908 2748.54 185.658 2751.91 185.408C2752.54 185.158 2816.91 181.158 2878.91 233.533C2953.79 296.908 2997.54 420.783 3005.66 591.658C3020.04 894.658 2887.16 1052.91 2780.41 1180.28C2714.16 1259.16 2651.41 1333.78 2642.54 1426.28C2640.04 1452.03 2648.41 1477.41 2665.79 1496.66C2683.16 1516.03 2707.54 1527.28 2733.66 1527.78C2987.54 1532.91 3445.29 1545.78 3548.79 1561.41C3662.54 1578.78 3688.66 1607.03 3688.66 1711.66C3689.04 1774.16 3686.54 1839.66 3669.04 1895.16Z" fill="#1976D2"/>
<path d="M1395.33 1843.06H1192.86V3118.08L1269.54 3202.06H1395.33L1612.73 3252.44L1825.11 3344.81L2049.4 3470.78L2438.34 3521.16H3145.91L3460.38 3428.79L3622.86 3034.11L3665.41 2773.78V2597.44L3711.96 2383.26L3665.41 2156.88L3622.86 2031.7L3711.96 1925.17V1649.14L3622.86 1544.31L3460.38 1512.86H3313.63L3145.91 1481.42H2742.33L2689.92 1423.76L2904.81 1072.6L2967.7 925.844L3025.36 800.054V448.889L2967.7 265.445L2820.95 165.861H2689.92L2632.26 302.135L2606.06 480.337L2558.89 663.781L2438.34 841.984L2202.48 1041.15L1998.07 1224.59L1908.97 1423.76L1825.11 1601.97L1678.35 1748.72L1395.33 1843.06Z" fill="#1976D2"/>
</svg>
