<svg width="13" height="17" viewBox="0 0 13 17" fill="none" xmlns="http://www.w3.org/2000/svg">
<path d="M6.4 0.613281C2.86989 0.613281 0 3.63055 0 7.34192C0 10.9329 2.688 13.8793 6.06316 14.0635V16.6133L7.02653 16.1246C10.4825 14.3751 12.8 10.8479 12.8 7.34192C12.8 3.63055 9.9301 0.613281 6.4 0.613281ZM7.41053 14.283V12.654H6.4C3.61095 12.654 1.34737 10.2742 1.34737 7.34192C1.34737 4.40965 3.61095 2.02984 6.4 2.02984C9.18905 2.02984 11.4526 4.40965 11.4526 7.34192C11.4526 9.9838 9.86274 12.6611 7.41053 14.283ZM5.72632 10.175H7.07368V11.5916H5.72632V10.175ZM6.4 2.73812C4.91116 2.73812 3.70526 4.00593 3.70526 5.57123H5.05263C5.05263 4.79212 5.65895 4.15467 6.4 4.15467C7.14105 4.15467 7.74737 4.79212 7.74737 5.57123C7.74737 6.98778 5.72632 6.81071 5.72632 9.11262H7.07368C7.07368 7.51899 9.09474 7.34192 9.09474 5.57123C9.09474 4.00593 7.88884 2.73812 6.4 2.73812Z" fill="#7B7979"/>
</svg>
