<svg width="3876" height="3626" viewBox="0 0 3876 3626" fill="none" xmlns="http://www.w3.org/2000/svg">
<path d="M3847.04 1951.38C3872.29 1871.76 3875.79 1789.13 3875.79 1712.01C3875.79 1453.88 3705.54 1398.13 3577.41 1378.63C3472.91 1362.63 3104.54 1351.51 2885.29 1346.01C2897.41 1330.88 2910.66 1315.26 2924.16 1299.01C3038.04 1163.38 3210.29 958.256 3192.41 583.256C3181.41 356.756 3116.91 191.881 3000.41 93.0056C2888.41 -2.49438 2768.66 -1.24442 2738.04 0.755577C2511.91 3.38058 2479.29 243.506 2455.29 418.881C2439.91 532.881 2422.41 662.006 2367.66 704.006C2158.04 865.006 1931.16 1058.38 1838.16 1270.01C1739.41 1494.26 1638.29 1680.01 1397.29 1680.01H1276.41V1379.76H0.789062V3569.13H1276.54V3296.88C1551.91 3305.26 1672.91 3359.13 1777.66 3447.63C1936.91 3582.38 2075.79 3625.38 2349.29 3625.38C2698.04 3625.38 3160.29 3615.88 3383.04 3570.63C3457.66 3555.51 3556.91 3515.38 3604.91 3411.63C3632.04 3352.88 3639.54 3291.38 3643.29 3244.38C3644.29 3231.63 3644.54 3218.26 3644.79 3205.38C3645.04 3191.51 3645.54 3167.88 3647.66 3154.26C3650.16 3151.76 3652.54 3149.38 3655.16 3146.38C3693.41 3103.76 3736.91 3055.13 3758.04 2979.13C3778.54 2906.76 3781.29 2832.76 3781.29 2770.63C3781.29 2718.01 3768.04 2678.88 3756.16 2644.51C3753.04 2635.13 3750.04 2626.38 3747.41 2617.63C3751.79 2608.51 3762.04 2594.13 3768.67 2584.51C3782.29 2564.76 3797.91 2542.38 3807.91 2516.76C3840.79 2433.26 3843.41 2344.63 3843.41 2267.88C3843.41 2233.88 3841.16 2183.38 3823.04 2134.51C3812.04 2105.01 3796.79 2084.01 3781.79 2067.88C3784.04 2065.88 3786.16 2063.76 3788.29 2061.51C3819.16 2029.88 3834.79 1989.88 3847.04 1951.38ZM1089.79 3383.76H187.539V1565.26H1089.79V3383.76ZM3669.04 1895.38C3661.04 1920.51 3656.29 1929.63 3654.41 1932.13C3652.04 1934.63 3646.41 1939.13 3641.41 1943.51C3614.04 1966.76 3568.16 2005.26 3567.04 2067.38C3566.41 2103.51 3582.29 2138.13 3612.04 2165.26C3618.29 2171.13 3624.41 2176.38 3630.29 2181.26C3645.91 2194.38 3646.16 2195.13 3647.66 2199.13C3655.54 2220.13 3656.41 2248.38 3656.41 2268.01C3656.41 2327.88 3654.66 2395.88 3633.66 2449.51C3631.41 2455.13 3621.16 2469.88 3614.66 2479.38C3586.29 2520.01 3543.91 2581.01 3564.04 2656.38C3568.79 2674.26 3574.29 2690.01 3579.04 2703.88C3588.16 2730.76 3594.29 2748.63 3594.29 2770.63C3594.29 2820.51 3592.16 2878.38 3578.04 2929.63C3569.16 2961.26 3550.66 2983.63 3519.16 3018.88C3511.16 3025.01 3496.66 3037.01 3485.41 3057.26C3459.54 3103.76 3458.54 3158.01 3457.66 3201.88C3457.54 3212.51 3457.29 3222.63 3456.66 3230.13C3454.16 3261.63 3449.54 3302.13 3434.79 3334.01C3430.16 3344.13 3416.29 3374.51 3344.79 3388.88C3183.29 3421.88 2829.41 3439.88 2348.79 3439.88C2097.04 3439.88 2009.66 3400.63 1898.16 3306.38C1764.54 3193.63 1608.66 3121.38 1276.04 3111.51V1865.38H1396.91C1779.79 1865.38 1923.16 1539.38 2008.66 1344.51C2085.04 1170.63 2290.66 997.256 2481.54 850.631C2596.79 762.256 2618.91 600.381 2640.16 443.756C2650.79 366.006 2661.66 285.631 2683.79 234.256C2703.04 189.506 2719.91 186.131 2741.66 186.131C2745.16 186.131 2748.54 185.881 2751.91 185.631C2752.54 185.381 2816.91 181.381 2878.91 233.756C2953.79 297.131 2997.54 421.006 3005.66 591.881C3020.04 894.881 2887.16 1053.13 2780.41 1180.51C2714.16 1259.38 2651.41 1334.01 2642.54 1426.51C2640.04 1452.26 2648.41 1477.63 2665.79 1496.88C2683.16 1516.26 2707.54 1527.51 2733.66 1528.01C2987.54 1533.13 3445.29 1546.01 3548.79 1561.63C3662.54 1579.01 3688.66 1607.26 3688.66 1711.88C3689.04 1774.38 3686.54 1839.88 3669.04 1895.38Z" fill="#D7282F"/>
<path d="M1395.33 1843.29H1192.86V3118.3L1269.54 3202.28H1395.33L1612.73 3252.66L1825.11 3345.04L2049.4 3471L2438.34 3521.38H3145.91L3460.38 3429.01L3622.86 3034.33L3665.41 2774.01V2597.66L3711.96 2383.48L3665.41 2157.1L3622.86 2031.92L3711.96 1925.39V1649.36L3622.86 1544.54L3460.38 1513.09H3313.63L3145.91 1481.64H2742.33L2689.92 1423.99L2904.81 1072.82L2967.7 926.066L3025.36 800.276V449.112L2967.7 265.668L2820.95 166.084H2689.92L2632.26 302.357L2606.06 480.559L2558.89 664.004L2438.34 842.207L2202.48 1041.37L1998.07 1224.82L1908.97 1423.99L1825.11 1602.19L1678.35 1748.94L1395.33 1843.29Z" fill="#D7282F"/>
</svg>
