<svg width="16" height="15" viewBox="0 0 16 15" fill="none" xmlns="http://www.w3.org/2000/svg">
<path d="M15.385 7.82417C15.486 7.50567 15.5 7.17517 15.5 6.86667C15.5 5.83417 14.819 5.61116 14.3065 5.53316C13.8885 5.46916 12.415 5.42466 11.538 5.40266C11.5865 5.34216 11.6395 5.27966 11.6935 5.21466C12.149 4.67216 12.838 3.85166 12.7665 2.35166C12.7225 1.44566 12.4645 0.786163 11.9985 0.390663C11.5505 0.00866311 11.0715 0.0136629 10.949 0.0216629C10.0445 0.0321629 9.914 0.992663 9.818 1.69416C9.7565 2.15016 9.6865 2.66666 9.4675 2.83466C8.629 3.47866 7.7215 4.25216 7.3495 5.09866C6.9545 5.99567 6.55 6.73867 5.586 6.73867H5.1025V5.53766H0V14.2952H5.103V13.2062C6.2045 13.2397 6.6885 13.4552 7.1075 13.8092C7.7445 14.3482 8.3 14.5202 9.394 14.5202C10.789 14.5202 12.638 14.4822 13.529 14.3012C13.8275 14.2407 14.2245 14.0802 14.4165 13.6652C14.525 13.4302 14.555 13.1842 14.57 12.9962C14.574 12.9452 14.575 12.8917 14.576 12.8402C14.577 12.7847 14.579 12.6902 14.5875 12.6357C14.5975 12.6257 14.607 12.6162 14.6175 12.6042C14.7705 12.4337 14.9445 12.2392 15.029 11.9352C15.111 11.6457 15.122 11.3497 15.122 11.1012C15.122 10.8907 15.069 10.7342 15.0215 10.5967C15.009 10.5592 14.997 10.5242 14.9865 10.4892C15.004 10.4527 15.045 10.3952 15.0715 10.3567C15.126 10.2777 15.1885 10.1882 15.2285 10.0857C15.36 9.75167 15.3705 9.39717 15.3705 9.09017C15.3705 8.95417 15.3615 8.75217 15.289 8.55667C15.245 8.43867 15.184 8.35467 15.124 8.29017C15.133 8.28217 15.1415 8.27367 15.15 8.26467C15.2735 8.13817 15.336 7.97817 15.385 7.82417ZM4.356 13.5537H0.747V6.27966H4.356V13.5537ZM14.673 7.60017C14.641 7.70067 14.622 7.73717 14.6145 7.74717C14.605 7.75717 14.5825 7.77517 14.5625 7.79267C14.453 7.88567 14.2695 8.03967 14.265 8.28817C14.2625 8.43266 14.326 8.57117 14.445 8.67967C14.47 8.70317 14.4945 8.72417 14.518 8.74367C14.5805 8.79617 14.5815 8.79917 14.5875 8.81517C14.619 8.89917 14.6225 9.01217 14.6225 9.09067C14.6225 9.33017 14.6155 9.60217 14.5315 9.81667C14.5225 9.83917 14.4815 9.89817 14.4555 9.93617C14.342 10.0987 14.1725 10.3427 14.253 10.6442C14.272 10.7157 14.294 10.7787 14.313 10.8342C14.3495 10.9417 14.374 11.0132 14.374 11.1012C14.374 11.3007 14.3655 11.5322 14.309 11.7372C14.2735 11.8637 14.1995 11.9532 14.0735 12.0942C14.0415 12.1187 13.9835 12.1667 13.9385 12.2477C13.835 12.4337 13.831 12.6507 13.8275 12.8262C13.827 12.8687 13.826 12.9092 13.8235 12.9392C13.8135 13.0652 13.795 13.2272 13.736 13.3547C13.7175 13.3952 13.662 13.5167 13.376 13.5742C12.73 13.7062 11.3145 13.7782 9.392 13.7782C8.385 13.7782 8.0355 13.6212 7.5895 13.2442C7.055 12.7932 6.4315 12.5042 5.101 12.4647V7.48017H5.5845C7.116 7.48017 7.6895 6.17617 8.0315 5.39667C8.337 4.70116 9.1595 4.00766 9.923 3.42116C10.384 3.06766 10.4725 2.42016 10.5575 1.79366C10.6 1.48266 10.6435 1.16116 10.732 0.955663C10.809 0.776663 10.8765 0.763163 10.9635 0.763163C10.9775 0.763163 10.991 0.762163 11.0045 0.761163C11.007 0.760163 11.2645 0.744163 11.5125 0.953663C11.812 1.20716 11.987 1.70266 12.0195 2.38616C12.077 3.59816 11.5455 4.23116 11.1185 4.74066C10.8535 5.05616 10.6025 5.35467 10.567 5.72467C10.557 5.82767 10.5905 5.92917 10.66 6.00617C10.7295 6.08367 10.827 6.12867 10.9315 6.13067C11.947 6.15117 13.778 6.20267 14.192 6.26517C14.647 6.33467 14.7515 6.44767 14.7515 6.86617C14.753 7.11617 14.743 7.37817 14.673 7.60017Z" fill="#231F20"/>
<path d="M15.385 7.82417C15.486 7.50567 15.5 7.17517 15.5 6.86667C15.5 5.83417 14.819 5.61116 14.3065 5.53316C13.8885 5.46916 12.415 5.42466 11.538 5.40266C11.5865 5.34216 11.6395 5.27966 11.6935 5.21466C12.149 4.67216 12.838 3.85166 12.7665 2.35166C12.7225 1.44566 12.4645 0.786163 11.9985 0.390663C11.5505 0.00866311 11.0715 0.0136629 10.949 0.0216629C10.0445 0.0321629 9.914 0.992663 9.818 1.69416C9.7565 2.15016 9.6865 2.66666 9.4675 2.83466C8.629 3.47866 7.7215 4.25216 7.3495 5.09866C6.9545 5.99567 6.55 6.73867 5.586 6.73867H5.1025V5.53766H0V14.2952H5.103V13.2062C6.2045 13.2397 6.6885 13.4552 7.1075 13.8092C7.7445 14.3482 8.3 14.5202 9.394 14.5202C10.789 14.5202 12.638 14.4822 13.529 14.3012C13.8275 14.2407 14.2245 14.0802 14.4165 13.6652C14.525 13.4302 14.555 13.1842 14.57 12.9962C14.574 12.9452 14.575 12.8917 14.576 12.8402C14.577 12.7847 14.579 12.6902 14.5875 12.6357C14.5975 12.6257 14.607 12.6162 14.6175 12.6042C14.7705 12.4337 14.9445 12.2392 15.029 11.9352C15.111 11.6457 15.122 11.3497 15.122 11.1012C15.122 10.8907 15.069 10.7342 15.0215 10.5967C15.009 10.5592 14.997 10.5242 14.9865 10.4892C15.004 10.4527 15.045 10.3952 15.0715 10.3567C15.126 10.2777 15.1885 10.1882 15.2285 10.0857C15.36 9.75167 15.3705 9.39717 15.3705 9.09017C15.3705 8.95417 15.3615 8.75217 15.289 8.55667C15.245 8.43867 15.184 8.35467 15.124 8.29017C15.133 8.28217 15.1415 8.27367 15.15 8.26467C15.2735 8.13817 15.336 7.97817 15.385 7.82417ZM4.356 13.5537H0.747V6.27966H4.356V13.5537ZM14.673 7.60017C14.641 7.70067 14.622 7.73717 14.6145 7.74717C14.605 7.75717 14.5825 7.77517 14.5625 7.79267C14.453 7.88567 14.2695 8.03967 14.265 8.28817C14.2625 8.43266 14.326 8.57117 14.445 8.67967C14.47 8.70317 14.4945 8.72417 14.518 8.74367C14.5805 8.79617 14.5815 8.79917 14.5875 8.81517C14.619 8.89917 14.6225 9.01217 14.6225 9.09067C14.6225 9.33017 14.6155 9.60217 14.5315 9.81667C14.5225 9.83917 14.4815 9.89817 14.4555 9.93617C14.342 10.0987 14.1725 10.3427 14.253 10.6442C14.272 10.7157 14.294 10.7787 14.313 10.8342C14.3495 10.9417 14.374 11.0132 14.374 11.1012C14.374 11.3007 14.3655 11.5322 14.309 11.7372C14.2735 11.8637 14.1995 11.9532 14.0735 12.0942C14.0415 12.1187 13.9835 12.1667 13.9385 12.2477C13.835 12.4337 13.831 12.6507 13.8275 12.8262C13.827 12.8687 13.826 12.9092 13.8235 12.9392C13.8135 13.0652 13.795 13.2272 13.736 13.3547C13.7175 13.3952 13.662 13.5167 13.376 13.5742C12.73 13.7062 11.3145 13.7782 9.392 13.7782C8.385 13.7782 8.0355 13.6212 7.5895 13.2442C7.055 12.7932 6.4315 12.5042 5.101 12.4647V7.48017H5.5845C7.116 7.48017 7.6895 6.17617 8.0315 5.39667C8.337 4.70116 9.1595 4.00766 9.923 3.42116C10.384 3.06766 10.4725 2.42016 10.5575 1.79366C10.6 1.48266 10.6435 1.16116 10.732 0.955663C10.809 0.776663 10.8765 0.763163 10.9635 0.763163C10.9775 0.763163 10.991 0.762163 11.0045 0.761163C11.007 0.760163 11.2645 0.744163 11.5125 0.953663C11.812 1.20716 11.987 1.70266 12.0195 2.38616C12.077 3.59816 11.5455 4.23116 11.1185 4.74066C10.8535 5.05616 10.6025 5.35467 10.567 5.72467C10.557 5.82767 10.5905 5.92917 10.66 6.00617C10.7295 6.08367 10.827 6.12867 10.9315 6.13067C11.947 6.15117 13.778 6.20267 14.192 6.26517C14.647 6.33467 14.7515 6.44767 14.7515 6.86617C14.753 7.11617 14.743 7.37817 14.673 7.60017Z" fill="black" fill-opacity="0.2"/>
</svg>
