<svg width="18" height="18" viewBox="0 0 18 18" fill="none" xmlns="http://www.w3.org/2000/svg">
<path d="M9 17.0195C13.4183 17.0195 17 13.4378 17 9.01953C17 4.60125 13.4183 1.01953 9 1.01953C4.58172 1.01953 1 4.60125 1 9.01953C1 13.4378 4.58172 17.0195 9 17.0195Z" stroke="#231F20" stroke-width="1.2"/>
<path d="M9 17.0195C13.4183 17.0195 17 13.4378 17 9.01953C17 4.60125 13.4183 1.01953 9 1.01953C4.58172 1.01953 1 4.60125 1 9.01953C1 13.4378 4.58172 17.0195 9 17.0195Z" stroke="black" stroke-opacity="0.2" stroke-width="1.2"/>
<path d="M11.9706 5.86948C11.7307 5.31129 11.3297 4.83722 10.8188 4.5078C10.3079 4.17838 9.71034 4.00858 9.10239 4.02008C6.51585 4.02008 6.42073 5.86948 6.42073 5.86948C6.42073 5.86948 6.03293 8.15017 9.19385 8.39139C12.4865 8.64359 11.9706 10.9133 11.9706 10.9133C11.9706 10.9133 11.6341 12.887 9.19385 13.0149C6.75365 13.1428 6 10.5771 6 10.5771" stroke="#231F20" stroke-width="1.2"/>
<path d="M11.9706 5.86948C11.7307 5.31129 11.3297 4.83722 10.8188 4.5078C10.3079 4.17838 9.71034 4.00858 9.10239 4.02008C6.51585 4.02008 6.42073 5.86948 6.42073 5.86948C6.42073 5.86948 6.03293 8.15017 9.19385 8.39139C12.4865 8.64359 11.9706 10.9133 11.9706 10.9133C11.9706 10.9133 11.6341 12.887 9.19385 13.0149C6.75365 13.1428 6 10.5771 6 10.5771" stroke="black" stroke-opacity="0.2" stroke-width="1.2"/>
<path d="M9 3.01953V15.0195" stroke="#231F20" stroke-width="1.2"/>
<path d="M9 3.01953V15.0195" stroke="black" stroke-opacity="0.2" stroke-width="1.2"/>
</svg>
