<svg width="16" height="14" viewBox="0 0 16 14" fill="none" xmlns="http://www.w3.org/2000/svg">
<path d="M5.99935 13.6132H11.9993C12.5527 13.6132 13.026 13.2799 13.226 12.7999L15.2393 8.09991C15.2993 7.94657 15.3327 7.78657 15.3327 7.61324V6.27991C15.3327 5.54657 14.7327 4.94657 13.9993 4.94657H9.79268L10.426 1.89991L10.446 1.68657C10.446 1.41324 10.3327 1.15991 10.1527 0.979907L9.44602 0.279907L5.05268 4.67324C4.81268 4.91324 4.66602 5.24657 4.66602 5.61324V12.2799C4.66602 13.0132 5.26602 13.6132 5.99935 13.6132ZM5.99935 5.61324L8.89268 2.71991L7.99935 6.27991H13.9993V7.61324L11.9993 12.2799H5.99935V5.61324ZM0.666016 5.61324H3.33268V13.6132H0.666016V5.61324Z" fill="#44D600"/>
</svg>
