<svg width="16" height="14" viewBox="0 0 16 14" fill="none" xmlns="http://www.w3.org/2000/svg">
<path d="M16 10.0039C16 9.06761 15.7196 8.16358 15.1891 7.38948C14.8075 6.8327 14.3162 6.37034 13.7468 6.02674C14.4172 5.39186 14.8366 4.49454 14.8366 3.50051C14.8366 1.58112 13.275 0.0195312 11.3557 0.0195312C10.2175 0.0195312 9.15139 0.582413 8.5038 1.50642C8.33924 1.48245 8.17111 1.46952 7.99998 1.46952C7.82885 1.46952 7.66076 1.48249 7.4962 1.50642C6.84857 0.582413 5.78243 0.0195312 4.64434 0.0195312C2.72494 0.0195312 1.16335 1.58112 1.16335 3.50051C1.16335 4.49454 1.58281 5.39186 2.25325 6.02674C1.68379 6.37029 1.19243 6.8327 0.810904 7.38944C0.28041 8.16358 0 9.06761 0 10.0039V11.94H3.35569V13.39H12.6444V11.94H16V10.0039H16ZM11.3557 0.878673C12.8014 0.878673 13.9775 2.05482 13.9775 3.50056C13.9775 4.94629 12.8014 6.12244 11.3557 6.12244C11.3298 6.12244 11.3039 6.12206 11.2779 6.12128C11.2799 6.11578 11.2815 6.11016 11.2835 6.10466C11.3282 5.97777 11.3655 5.84745 11.3955 5.71433C11.3976 5.70488 11.4 5.69551 11.402 5.68602C11.4098 5.65011 11.4166 5.61386 11.4233 5.57752C11.4264 5.56033 11.4296 5.54319 11.4325 5.52597C11.4379 5.49354 11.4428 5.46098 11.4473 5.42829C11.4505 5.40557 11.4533 5.38284 11.456 5.36008C11.4594 5.33121 11.4627 5.3023 11.4654 5.27322C11.4682 5.24354 11.4702 5.21382 11.4722 5.18405C11.4737 5.1606 11.4757 5.13723 11.4768 5.11365C11.4791 5.06309 11.4804 5.01244 11.4806 4.96176C11.4806 4.95802 11.4809 4.95437 11.4809 4.95059C11.4809 4.94857 11.4807 4.94655 11.4807 4.94453C11.4807 4.89277 11.4792 4.84131 11.4768 4.79002C11.4762 4.77512 11.4753 4.76025 11.4744 4.74539C11.4719 4.70179 11.4685 4.65841 11.4645 4.61524C11.4635 4.60545 11.4628 4.59565 11.4618 4.5859C11.332 3.33123 10.5393 2.25731 9.39584 1.76058C9.88858 1.20702 10.6013 0.878673 11.3557 0.878673ZM7.09281 2.49043C7.10119 2.48738 7.10965 2.4845 7.11803 2.48149C7.1441 2.47217 7.17039 2.46332 7.19681 2.45478C7.21682 2.44838 7.23697 2.44219 7.25724 2.43626C7.27198 2.43192 7.28675 2.42776 7.30157 2.42363C7.32803 2.41637 7.35462 2.40929 7.38147 2.4028C7.57992 2.35461 7.78688 2.32845 7.99989 2.32845C8.21308 2.32862 8.42012 2.35482 8.61862 2.40302C8.64529 2.40946 8.67171 2.4165 8.69804 2.42372C8.71307 2.42789 8.72811 2.4321 8.74301 2.43652C8.76303 2.44241 8.78296 2.44851 8.80276 2.45482C8.82952 2.46345 8.85611 2.47239 8.88249 2.48184C8.89061 2.48472 8.89873 2.48747 8.9068 2.49043C9.78364 2.8147 10.4411 3.59506 10.5899 4.54209C10.591 4.54965 10.5921 4.55725 10.5933 4.56485C10.598 4.59694 10.602 4.62929 10.6056 4.66172C10.6069 4.67366 10.6082 4.68556 10.6094 4.69754C10.6122 4.72714 10.6143 4.75695 10.6162 4.78684C10.617 4.79964 10.6181 4.8124 10.6187 4.82525C10.6205 4.86343 10.6215 4.90183 10.6216 4.94045C10.6216 4.9438 10.6218 4.94707 10.6218 4.95042C10.6218 4.95196 10.6217 4.95355 10.6217 4.9551C10.6216 4.99247 10.6205 5.02958 10.6189 5.06657C10.6184 5.07821 10.6179 5.08985 10.6172 5.10145C10.6152 5.13718 10.6125 5.17275 10.6091 5.20806C10.6077 5.22172 10.6059 5.23534 10.6044 5.24895C10.6018 5.27181 10.5988 5.29461 10.5957 5.31729C10.5932 5.33495 10.5907 5.35265 10.5878 5.37022C10.5835 5.39698 10.5787 5.42356 10.5735 5.45007C10.5689 5.47365 10.5639 5.49715 10.5587 5.5206C10.5555 5.53473 10.5523 5.54886 10.5489 5.56291C10.5405 5.59775 10.5313 5.63237 10.5215 5.66686C10.5176 5.68056 10.514 5.69435 10.5098 5.70793C10.5039 5.72769 10.4974 5.74727 10.491 5.76686C10.4859 5.78254 10.4806 5.79813 10.4751 5.81368C10.4689 5.83134 10.4628 5.84903 10.4563 5.86656C10.4452 5.89633 10.4335 5.92584 10.4214 5.95509C10.4159 5.96815 10.4102 5.98108 10.4046 5.99409C10.3939 6.01845 10.383 6.04268 10.3717 6.06664C10.3704 6.06948 10.369 6.07231 10.3677 6.07515C10.3636 6.08365 10.3596 6.0922 10.3554 6.10071C10.3427 6.12665 10.3295 6.1523 10.3159 6.17773C10.3106 6.1876 10.3055 6.19761 10.3001 6.20745C10.2997 6.20809 10.2994 6.2087 10.2991 6.2093C10.2842 6.23636 10.2687 6.26299 10.2529 6.28945C10.2467 6.29993 10.2405 6.31046 10.2341 6.32081C10.2169 6.34869 10.1992 6.37626 10.1811 6.40341C10.1698 6.42029 10.158 6.43683 10.1463 6.45345C10.1363 6.46754 10.1265 6.48167 10.1163 6.49555C10.1031 6.5135 10.0897 6.53124 10.076 6.5489C10.0667 6.56088 10.0574 6.57278 10.0479 6.58464C10.0335 6.60268 10.0189 6.62063 10.004 6.63829C9.99481 6.64924 9.98531 6.65998 9.97591 6.67076C9.96044 6.6885 9.94502 6.70629 9.92913 6.7236C9.91968 6.73386 9.90989 6.74374 9.90026 6.75388C9.8744 6.78116 9.84795 6.80783 9.82097 6.83399C9.80495 6.8495 9.78901 6.86505 9.7726 6.88013C9.76126 6.89056 9.74962 6.9007 9.73807 6.91097C9.71925 6.92768 9.70031 6.94421 9.68102 6.96036C9.67123 6.96857 9.66135 6.97669 9.65143 6.98476C9.6281 7.00375 9.60448 7.02235 9.58046 7.04056C9.57394 7.0455 9.56749 7.05053 9.56092 7.05542C9.1245 7.37986 8.5843 7.57217 7.99994 7.57217C7.41553 7.57217 6.87525 7.37982 6.43882 7.05529C6.43238 7.05048 6.42607 7.04554 6.41966 7.04069C6.39557 7.02243 6.37181 7.00371 6.3484 6.98463C6.33857 6.9766 6.32873 6.96857 6.31902 6.96041C6.29965 6.94417 6.28066 6.92755 6.26176 6.91079C6.25029 6.90057 6.2387 6.89052 6.2274 6.88013C6.21095 6.86501 6.19497 6.84941 6.1789 6.83391C6.1518 6.80766 6.12529 6.7809 6.09935 6.75354C6.08986 6.74353 6.08015 6.73378 6.07083 6.72364C6.05489 6.70629 6.03947 6.68846 6.02401 6.67072C6.0146 6.65994 6.00515 6.64924 5.99591 6.63829C5.98101 6.62063 5.96649 6.60268 5.95206 6.58468C5.94261 6.57282 5.9332 6.56093 5.92392 6.5489C5.91031 6.53129 5.89686 6.51355 5.88367 6.49559C5.87349 6.48167 5.86357 6.4675 5.85365 6.45337C5.84196 6.43679 5.83019 6.42029 5.81894 6.40345C5.80068 6.37618 5.78294 6.34851 5.76572 6.32055C5.7594 6.31028 5.7533 6.29993 5.74712 6.28958C5.7311 6.26273 5.71542 6.23576 5.70034 6.20831C5.6948 6.19822 5.68956 6.18795 5.6841 6.17781C5.67053 6.1523 5.65726 6.12657 5.6445 6.10058C5.63995 6.09134 5.63552 6.08202 5.6311 6.07274C5.63041 6.07133 5.62977 6.06991 5.62912 6.06849C5.61722 6.04341 5.60584 6.01806 5.59471 5.9925C5.58943 5.98035 5.58406 5.96823 5.57899 5.95604C5.56654 5.92614 5.55464 5.89598 5.54325 5.86557C5.53711 5.84916 5.53144 5.83258 5.52564 5.81604C5.51967 5.79908 5.51392 5.78198 5.50829 5.76484C5.50223 5.74629 5.49613 5.72773 5.49046 5.70909C5.482 5.68121 5.47401 5.65316 5.46649 5.62494C5.46121 5.60514 5.45644 5.58516 5.45159 5.56523C5.44781 5.54955 5.44416 5.53387 5.44068 5.51811C5.43638 5.49878 5.43204 5.47949 5.42818 5.46008C5.42221 5.42984 5.41675 5.39943 5.41186 5.36884C5.40919 5.35235 5.40687 5.33581 5.40451 5.31931C5.40103 5.29487 5.39789 5.2703 5.3951 5.24565C5.39373 5.23349 5.39214 5.22133 5.39089 5.20918C5.38733 5.17297 5.38462 5.1365 5.38256 5.0999C5.38196 5.08938 5.38149 5.07885 5.38101 5.06833C5.37925 5.0292 5.37801 4.98993 5.37801 4.95042C5.37801 4.90806 5.37921 4.86601 5.38123 4.82413C5.38179 4.81275 5.38273 4.80145 5.38338 4.79011C5.38527 4.75867 5.38754 4.72731 5.39055 4.69612C5.39158 4.68526 5.39283 4.67443 5.39399 4.66361C5.39768 4.62984 5.40185 4.59625 5.40683 4.56288C5.40777 4.55639 5.40872 4.54986 5.40975 4.54338C5.55807 3.59579 6.21563 2.81491 7.09281 2.49043ZM2.02245 3.50056C2.02245 2.05487 3.1986 0.878673 4.64434 0.878673C5.39875 0.878673 6.11142 1.20706 6.60416 1.7605C5.46031 2.2574 4.66749 3.33183 4.53806 4.58702C4.53716 4.59552 4.53652 4.60407 4.5357 4.61262C4.53141 4.65733 4.52801 4.70222 4.52544 4.74737C4.52466 4.76111 4.5238 4.77482 4.52316 4.7886C4.52071 4.84234 4.51904 4.89625 4.51904 4.95055C4.51904 5.00536 4.52063 5.06004 4.5232 5.11468C4.52423 5.13667 4.52604 5.15845 4.52746 5.18031C4.52956 5.21175 4.53171 5.2432 4.53463 5.27455C4.53721 5.30243 4.54038 5.33014 4.54365 5.35784C4.54648 5.38198 4.54949 5.40604 4.55284 5.43009C4.55722 5.46167 4.56195 5.49311 4.56715 5.52442C4.57028 5.54302 4.57372 5.56158 4.57711 5.58014C4.58355 5.61519 4.59013 5.65015 4.5976 5.68482C4.60009 5.69624 4.60293 5.70758 4.6055 5.71897C4.63467 5.84796 4.67088 5.97425 4.71401 6.0974C4.71676 6.10535 4.71916 6.11338 4.72196 6.12128C4.69605 6.12206 4.67011 6.12244 4.64425 6.12244C3.1986 6.1224 2.02245 4.94625 2.02245 3.50056ZM4.07591 8.97736C4.06646 8.99226 4.05744 9.00743 4.04816 9.02242C4.02853 9.05412 4.00907 9.0859 3.99026 9.11799C3.97974 9.1359 3.9696 9.15394 3.95938 9.17199C3.94245 9.20175 3.92574 9.23161 3.9095 9.26172C3.89928 9.28066 3.88923 9.29969 3.87926 9.31872C3.86363 9.34866 3.84838 9.37877 3.83343 9.40897C3.82402 9.42795 3.81466 9.4469 3.80555 9.46597C3.79035 9.4978 3.7757 9.52989 3.76122 9.56202C3.75336 9.5795 3.74529 9.59685 3.73768 9.61442C3.72093 9.65291 3.70495 9.6917 3.68927 9.73062C3.68468 9.742 3.67978 9.75325 3.67531 9.76464C3.65543 9.81519 3.6364 9.8661 3.61836 9.91725C3.61423 9.92898 3.61054 9.94084 3.60646 9.95256C3.59288 9.992 3.57965 10.0316 3.56715 10.0713C3.56144 10.0895 3.55616 10.1079 3.55066 10.1262C3.54056 10.1599 3.53064 10.1936 3.52132 10.2275C3.51578 10.2477 3.5105 10.2679 3.50521 10.2882C3.49671 10.3208 3.48855 10.3534 3.48081 10.3862C3.47587 10.4069 3.47106 10.4277 3.46647 10.4485C3.45908 10.4817 3.45216 10.515 3.4455 10.5484C3.44151 10.5685 3.43739 10.5885 3.43365 10.6087C3.42691 10.645 3.42085 10.6815 3.41496 10.7181C3.41221 10.7352 3.40917 10.7523 3.40659 10.7695C3.3986 10.8232 3.39134 10.877 3.38524 10.9311C3.38515 10.9318 3.38511 10.9324 3.38507 10.9331C3.37953 10.9822 3.37476 11.0315 3.37076 11.0809H0.8591V10.0039C0.8591 8.5323 1.70505 7.21122 3.03039 6.58331C3.5132 6.83708 4.06204 6.98154 4.64429 6.98154C4.81268 6.98154 4.98158 6.96908 5.14919 6.94443C5.1753 6.98167 5.20185 7.01853 5.22934 7.05469C5.23862 7.06685 5.24824 7.07871 5.25769 7.09073C5.28484 7.12544 5.31237 7.15976 5.34081 7.1934C5.35245 7.20718 5.36439 7.22067 5.37625 7.23429C5.40288 7.26487 5.42994 7.29507 5.4576 7.32467C5.47212 7.34026 5.4869 7.35559 5.50167 7.37093C5.52697 7.397 5.55262 7.42269 5.57869 7.44799C5.58849 7.45748 5.59772 7.46753 5.6076 7.47694C5.57027 7.49949 5.53329 7.5226 5.49665 7.54618C5.49068 7.55001 5.48484 7.55405 5.47891 7.55791C5.44227 7.58171 5.40601 7.60602 5.3701 7.63081C5.35769 7.6394 5.34532 7.64807 5.33295 7.65675C5.30095 7.6793 5.26929 7.70224 5.23789 7.72556C5.22796 7.73295 5.21791 7.74017 5.20808 7.74764C5.16813 7.77784 5.12865 7.8086 5.08969 7.84004C5.08119 7.84691 5.07285 7.854 5.06435 7.86096C5.03334 7.88634 5.00262 7.91216 4.9723 7.93836C4.96053 7.9485 4.94884 7.95872 4.93716 7.96899C4.90679 7.99575 4.87681 8.0229 4.84713 8.05043C4.83939 8.05761 4.83149 8.06465 4.8238 8.07191C4.78738 8.10619 4.75151 8.14111 4.71616 8.17663C4.70696 8.18587 4.69799 8.19528 4.68888 8.20455C4.66182 8.23217 4.63506 8.2601 4.60864 8.2884C4.59816 8.29966 4.58768 8.31091 4.57728 8.32229C4.54756 8.35477 4.51826 8.38767 4.48944 8.42105C4.48493 8.42629 4.48025 8.43136 4.47574 8.43664C4.44288 8.475 4.41075 8.51409 4.37905 8.55356C4.3702 8.56456 4.36156 8.57573 4.35284 8.58685C4.329 8.61714 4.30551 8.64772 4.2824 8.67861C4.27346 8.69055 4.26448 8.7024 4.25568 8.71443C4.22544 8.75567 4.19558 8.79725 4.16659 8.83956C4.13545 8.885 4.10529 8.93101 4.07591 8.97736ZM4.21479 12.5309V11.9401V11.4538C4.21479 11.4062 4.21569 11.3587 4.21745 11.3113C4.21801 11.2957 4.21925 11.2802 4.22003 11.2647C4.22157 11.2331 4.22303 11.2014 4.22535 11.1699C4.22677 11.1508 4.22892 11.1318 4.23064 11.1128C4.23313 11.085 4.23536 11.0572 4.23845 11.0297C4.24073 11.0095 4.24369 10.9894 4.24627 10.9693C4.24962 10.943 4.25276 10.9167 4.25662 10.8906C4.25976 10.8698 4.26354 10.8492 4.26698 10.8285C4.27119 10.8033 4.27509 10.7781 4.27982 10.753C4.28381 10.7319 4.28845 10.7109 4.29279 10.6898C4.29777 10.6655 4.30254 10.6411 4.308 10.6169C4.31281 10.5956 4.31831 10.5746 4.32346 10.5533C4.32926 10.5297 4.3348 10.506 4.34103 10.4825C4.3467 10.4611 4.35297 10.44 4.35899 10.4188C4.36551 10.3957 4.37187 10.3726 4.37883 10.3497C4.38532 10.3284 4.39245 10.3073 4.39928 10.2861C4.40658 10.2636 4.41367 10.2411 4.42136 10.2188C4.42866 10.1978 4.43652 10.1768 4.44417 10.1559C4.45224 10.1338 4.46014 10.1117 4.46861 10.0898C4.47668 10.0689 4.48527 10.0484 4.49365 10.0276C4.50246 10.006 4.51113 9.98431 4.52032 9.96287C4.52922 9.94221 4.53858 9.92176 4.54782 9.90132C4.55731 9.88023 4.56672 9.85905 4.5766 9.83817C4.58626 9.81777 4.5964 9.79763 4.60641 9.77739C4.61663 9.75678 4.62672 9.73611 4.63729 9.71571C4.64773 9.69561 4.6586 9.67576 4.66938 9.65587C4.68029 9.63573 4.69107 9.61558 4.70232 9.59565C4.71349 9.57589 4.72509 9.55643 4.73656 9.53689C4.74816 9.51721 4.75967 9.4975 4.77165 9.478C4.78355 9.45862 4.79584 9.43955 4.80808 9.42039C4.82036 9.40119 4.83256 9.38199 4.84519 9.36301C4.85782 9.34402 4.87079 9.32529 4.88377 9.30656C4.8967 9.28788 4.90958 9.26919 4.92281 9.25072C4.93613 9.23217 4.94983 9.21387 4.96353 9.19553C4.97711 9.17736 4.99064 9.15919 5.00451 9.14127C5.01852 9.12319 5.03286 9.10536 5.04721 9.08749C5.06143 9.0698 5.07569 9.05214 5.09021 9.0347C5.10486 9.01718 5.1198 8.99987 5.13475 8.9826C5.14966 8.96537 5.16461 8.94815 5.17986 8.93114C5.1951 8.91413 5.2107 8.89738 5.22625 8.88062C5.2418 8.86391 5.25735 8.84729 5.2732 8.83088C5.28909 8.81439 5.30528 8.79815 5.32152 8.78196C5.33772 8.76576 5.35399 8.74965 5.37049 8.73372C5.38694 8.71787 5.40365 8.70223 5.42045 8.68664C5.43728 8.671 5.45421 8.65541 5.47135 8.64003C5.48844 8.62474 5.50571 8.60966 5.52311 8.59467C5.54055 8.57959 5.55812 8.5646 5.57586 8.54983C5.59351 8.53514 5.61134 8.52066 5.62929 8.50627C5.64738 8.49175 5.66559 8.47736 5.68398 8.46314C5.70215 8.44914 5.72049 8.43531 5.73891 8.42156C5.75764 8.4076 5.7765 8.39382 5.79557 8.3802C5.81421 8.36684 5.83303 8.35369 5.85197 8.34064C5.87139 8.32728 5.89089 8.31409 5.91056 8.30107C5.92968 8.28845 5.94896 8.27595 5.96834 8.26362C5.9884 8.25086 6.00859 8.23827 6.0289 8.2259C6.04849 8.21396 6.06821 8.20215 6.08805 8.19055C6.10867 8.17848 6.12946 8.16658 6.15038 8.15486C6.17044 8.1436 6.19063 8.13248 6.21095 8.12157C6.23221 8.11014 6.25364 8.09893 6.27521 8.08785C6.29565 8.07732 6.31619 8.06697 6.33689 8.05679C6.35317 8.0488 6.36962 8.04107 6.38607 8.03329C6.86885 8.28707 7.41777 8.43149 7.99998 8.43149C8.58223 8.43149 9.13111 8.28707 9.61388 8.03329C9.63021 8.04103 9.64653 8.04871 9.66268 8.05662C9.68364 8.06693 9.70439 8.07741 9.72509 8.08802C9.7464 8.09897 9.76762 8.11005 9.78867 8.12135C9.8092 8.13239 9.8296 8.14364 9.84988 8.15503C9.87054 8.16663 9.89107 8.17835 9.91143 8.19029C9.93158 8.20206 9.95155 8.21405 9.9714 8.22616C9.99146 8.2384 10.0113 8.25077 10.0311 8.26336C10.0508 8.27586 10.0703 8.28849 10.0897 8.30133C10.1091 8.31418 10.1284 8.32723 10.1476 8.34042C10.1667 8.35361 10.1857 8.36688 10.2046 8.38037C10.2234 8.39386 10.2421 8.40752 10.2606 8.42135C10.2793 8.43518 10.2978 8.44914 10.3161 8.46332C10.3343 8.4774 10.3524 8.49167 10.3703 8.50606C10.3884 8.52053 10.4063 8.53509 10.4241 8.54987C10.4418 8.56456 10.4592 8.57947 10.4765 8.59446C10.494 8.60953 10.5114 8.6247 10.5286 8.64012C10.5456 8.65537 10.5624 8.67083 10.5791 8.68634C10.596 8.70206 10.6129 8.71787 10.6296 8.73389C10.6459 8.74965 10.662 8.76563 10.6781 8.78165C10.6944 8.79798 10.7107 8.81434 10.7267 8.83092C10.7424 8.84725 10.7579 8.86374 10.7734 8.88032C10.7891 8.8972 10.8048 8.91413 10.8201 8.93127C10.8353 8.9481 10.8501 8.96516 10.8649 8.98225C10.8799 8.99965 10.895 9.01709 10.9097 9.03479C10.9242 9.0521 10.9384 9.06967 10.9525 9.08724C10.9669 9.10519 10.9814 9.1231 10.9954 9.14132C11.0093 9.15914 11.0227 9.17723 11.0362 9.19531C11.05 9.2137 11.0637 9.23212 11.0771 9.25077C11.0903 9.26911 11.1031 9.28775 11.116 9.30635C11.129 9.32516 11.142 9.34398 11.1547 9.36305C11.1673 9.38191 11.1794 9.40098 11.1916 9.42005C11.2039 9.43934 11.2163 9.45858 11.2283 9.47808C11.2401 9.49737 11.2515 9.51696 11.2631 9.53646C11.2747 9.55613 11.2863 9.57576 11.2975 9.59565C11.3088 9.6155 11.3195 9.6356 11.3304 9.65562C11.3412 9.67559 11.3521 9.69552 11.3625 9.71567C11.3731 9.73603 11.3832 9.75669 11.3934 9.77726C11.4034 9.7975 11.4136 9.81769 11.4232 9.83813C11.4331 9.85901 11.4425 9.8801 11.4519 9.90115C11.4612 9.92172 11.4706 9.94217 11.4795 9.96292C11.4887 9.98418 11.4972 10.0057 11.506 10.0272C11.5145 10.0481 11.5231 10.0688 11.5313 10.0899C11.5397 10.1117 11.5475 10.1337 11.5556 10.1557C11.5633 10.1767 11.5711 10.1976 11.5784 10.2188C11.5862 10.2412 11.5933 10.2638 11.6006 10.2864C11.6074 10.3075 11.6145 10.3285 11.621 10.3497C11.628 10.3726 11.6343 10.3958 11.6408 10.4188C11.6469 10.44 11.6531 10.4611 11.6588 10.4825C11.665 10.506 11.6706 10.5297 11.6764 10.5533C11.6816 10.5745 11.687 10.5956 11.6918 10.6169C11.6973 10.6411 11.702 10.6654 11.707 10.6897C11.7114 10.7108 11.716 10.7318 11.72 10.753C11.7247 10.7779 11.7286 10.8029 11.7328 10.8279C11.7362 10.8488 11.7401 10.8696 11.7432 10.8907C11.7471 10.9166 11.7502 10.9427 11.7536 10.9687C11.7562 10.989 11.7592 11.0092 11.7615 11.0296C11.7646 11.0572 11.7668 11.085 11.7693 11.1127C11.771 11.1318 11.7731 11.1507 11.7746 11.1699C11.7769 11.2014 11.7783 11.2331 11.7799 11.2647C11.7807 11.2802 11.7819 11.2957 11.7825 11.3112C11.7842 11.3586 11.7851 11.4061 11.7851 11.4538V11.94V12.5309H4.21479ZM12.6294 11.0809C12.621 10.9763 12.6089 10.8723 12.5935 10.769C12.591 10.7526 12.5881 10.7364 12.5855 10.72C12.5795 10.6826 12.5733 10.6453 12.5664 10.6081C12.5627 10.5885 12.5587 10.569 12.5548 10.5495C12.5481 10.5155 12.541 10.4816 12.5335 10.4478C12.529 10.4275 12.5243 10.4071 12.5194 10.3868C12.5116 10.3537 12.5033 10.3206 12.4947 10.2877C12.4895 10.2677 12.4844 10.2478 12.4789 10.2279C12.4694 10.1936 12.4594 10.1595 12.4492 10.1254C12.4438 10.1075 12.4386 10.0895 12.433 10.0715C12.4203 10.0312 12.4069 9.99109 12.3931 9.95106C12.3892 9.93989 12.3857 9.92859 12.3818 9.91743C12.3636 9.8661 12.3446 9.81506 12.3246 9.76433C12.3203 9.75347 12.3157 9.74273 12.3113 9.73186C12.2954 9.69247 12.2792 9.65317 12.2622 9.61417C12.2547 9.59685 12.2468 9.57976 12.239 9.56253C12.2244 9.53006 12.2097 9.49771 12.1943 9.46558C12.1853 9.44677 12.176 9.42808 12.1668 9.4094C12.1517 9.3789 12.1363 9.34853 12.1205 9.31833C12.1106 9.29943 12.1007 9.28062 12.0906 9.26185C12.0743 9.23165 12.0575 9.20167 12.0405 9.17177C12.0303 9.15382 12.0202 9.13586 12.0097 9.11804C11.9908 9.08578 11.9713 9.05386 11.9515 9.02199C11.9423 9.00712 11.9334 8.99213 11.924 8.9774C11.8946 8.93105 11.8645 8.88505 11.8333 8.83956C11.8042 8.7972 11.7744 8.75562 11.7442 8.71439C11.7354 8.70245 11.7265 8.69063 11.7176 8.67878C11.6944 8.64772 11.6708 8.61705 11.6469 8.58664C11.6382 8.57569 11.6297 8.5646 11.6209 8.55374C11.5892 8.51413 11.5569 8.47496 11.524 8.43651C11.5197 8.43153 11.5152 8.42667 11.5109 8.42169C11.4819 8.38806 11.4524 8.3549 11.4224 8.32217C11.4121 8.31091 11.4018 8.29979 11.3914 8.28862C11.3648 8.26014 11.3379 8.232 11.3106 8.20425C11.3017 8.1951 11.2929 8.18587 11.2838 8.17681C11.2484 8.14124 11.2124 8.10619 11.1759 8.07182C11.1683 8.06474 11.1606 8.05786 11.153 8.05082C11.1232 8.02311 11.093 7.99584 11.0625 7.96895C11.0509 7.95872 11.0393 7.94859 11.0276 7.93845C10.9972 7.9122 10.9664 7.88639 10.9354 7.86096C10.9269 7.85404 10.9186 7.84695 10.9101 7.84008C10.8712 7.80864 10.8317 7.77788 10.7918 7.74773C10.7819 7.74021 10.7717 7.73291 10.7617 7.72548C10.7305 7.70228 10.699 7.67943 10.6671 7.65701C10.6546 7.6482 10.6421 7.63944 10.6296 7.63076C10.594 7.60624 10.5581 7.58218 10.5219 7.55864C10.5155 7.55452 10.5093 7.55022 10.5029 7.54614C10.4663 7.52264 10.4295 7.49958 10.3922 7.47707C10.4018 7.46792 10.4108 7.45817 10.4203 7.44889C10.447 7.42312 10.4731 7.39692 10.4989 7.37028C10.5133 7.35542 10.5276 7.34052 10.5417 7.3254C10.5698 7.29533 10.5972 7.26466 10.6243 7.2336C10.6358 7.22041 10.6473 7.20731 10.6586 7.19391C10.6875 7.1598 10.7155 7.12497 10.743 7.0897C10.752 7.07819 10.7613 7.06685 10.7701 7.05521C10.7977 7.01891 10.8244 6.98188 10.8506 6.94451C11.0183 6.96913 11.1872 6.98158 11.3555 6.98158C11.9378 6.98158 12.4867 6.83717 12.9694 6.58335C14.2948 7.21126 15.1407 8.53234 15.1407 10.0039V11.0809H12.6294Z" fill="#231F20"/>
<path d="M16 10.0039C16 9.06761 15.7196 8.16358 15.1891 7.38948C14.8075 6.8327 14.3162 6.37034 13.7468 6.02674C14.4172 5.39186 14.8366 4.49454 14.8366 3.50051C14.8366 1.58112 13.275 0.0195312 11.3557 0.0195312C10.2175 0.0195312 9.15139 0.582413 8.5038 1.50642C8.33924 1.48245 8.17111 1.46952 7.99998 1.46952C7.82885 1.46952 7.66076 1.48249 7.4962 1.50642C6.84857 0.582413 5.78243 0.0195312 4.64434 0.0195312C2.72494 0.0195312 1.16335 1.58112 1.16335 3.50051C1.16335 4.49454 1.58281 5.39186 2.25325 6.02674C1.68379 6.37029 1.19243 6.8327 0.810904 7.38944C0.28041 8.16358 0 9.06761 0 10.0039V11.94H3.35569V13.39H12.6444V11.94H16V10.0039H16ZM11.3557 0.878673C12.8014 0.878673 13.9775 2.05482 13.9775 3.50056C13.9775 4.94629 12.8014 6.12244 11.3557 6.12244C11.3298 6.12244 11.3039 6.12206 11.2779 6.12128C11.2799 6.11578 11.2815 6.11016 11.2835 6.10466C11.3282 5.97777 11.3655 5.84745 11.3955 5.71433C11.3976 5.70488 11.4 5.69551 11.402 5.68602C11.4098 5.65011 11.4166 5.61386 11.4233 5.57752C11.4264 5.56033 11.4296 5.54319 11.4325 5.52597C11.4379 5.49354 11.4428 5.46098 11.4473 5.42829C11.4505 5.40557 11.4533 5.38284 11.456 5.36008C11.4594 5.33121 11.4627 5.3023 11.4654 5.27322C11.4682 5.24354 11.4702 5.21382 11.4722 5.18405C11.4737 5.1606 11.4757 5.13723 11.4768 5.11365C11.4791 5.06309 11.4804 5.01244 11.4806 4.96176C11.4806 4.95802 11.4809 4.95437 11.4809 4.95059C11.4809 4.94857 11.4807 4.94655 11.4807 4.94453C11.4807 4.89277 11.4792 4.84131 11.4768 4.79002C11.4762 4.77512 11.4753 4.76025 11.4744 4.74539C11.4719 4.70179 11.4685 4.65841 11.4645 4.61524C11.4635 4.60545 11.4628 4.59565 11.4618 4.5859C11.332 3.33123 10.5393 2.25731 9.39584 1.76058C9.88858 1.20702 10.6013 0.878673 11.3557 0.878673ZM7.09281 2.49043C7.10119 2.48738 7.10965 2.4845 7.11803 2.48149C7.1441 2.47217 7.17039 2.46332 7.19681 2.45478C7.21682 2.44838 7.23697 2.44219 7.25724 2.43626C7.27198 2.43192 7.28675 2.42776 7.30157 2.42363C7.32803 2.41637 7.35462 2.40929 7.38147 2.4028C7.57992 2.35461 7.78688 2.32845 7.99989 2.32845C8.21308 2.32862 8.42012 2.35482 8.61862 2.40302C8.64529 2.40946 8.67171 2.4165 8.69804 2.42372C8.71307 2.42789 8.72811 2.4321 8.74301 2.43652C8.76303 2.44241 8.78296 2.44851 8.80276 2.45482C8.82952 2.46345 8.85611 2.47239 8.88249 2.48184C8.89061 2.48472 8.89873 2.48747 8.9068 2.49043C9.78364 2.8147 10.4411 3.59506 10.5899 4.54209C10.591 4.54965 10.5921 4.55725 10.5933 4.56485C10.598 4.59694 10.602 4.62929 10.6056 4.66172C10.6069 4.67366 10.6082 4.68556 10.6094 4.69754C10.6122 4.72714 10.6143 4.75695 10.6162 4.78684C10.617 4.79964 10.6181 4.8124 10.6187 4.82525C10.6205 4.86343 10.6215 4.90183 10.6216 4.94045C10.6216 4.9438 10.6218 4.94707 10.6218 4.95042C10.6218 4.95196 10.6217 4.95355 10.6217 4.9551C10.6216 4.99247 10.6205 5.02958 10.6189 5.06657C10.6184 5.07821 10.6179 5.08985 10.6172 5.10145C10.6152 5.13718 10.6125 5.17275 10.6091 5.20806C10.6077 5.22172 10.6059 5.23534 10.6044 5.24895C10.6018 5.27181 10.5988 5.29461 10.5957 5.31729C10.5932 5.33495 10.5907 5.35265 10.5878 5.37022C10.5835 5.39698 10.5787 5.42356 10.5735 5.45007C10.5689 5.47365 10.5639 5.49715 10.5587 5.5206C10.5555 5.53473 10.5523 5.54886 10.5489 5.56291C10.5405 5.59775 10.5313 5.63237 10.5215 5.66686C10.5176 5.68056 10.514 5.69435 10.5098 5.70793C10.5039 5.72769 10.4974 5.74727 10.491 5.76686C10.4859 5.78254 10.4806 5.79813 10.4751 5.81368C10.4689 5.83134 10.4628 5.84903 10.4563 5.86656C10.4452 5.89633 10.4335 5.92584 10.4214 5.95509C10.4159 5.96815 10.4102 5.98108 10.4046 5.99409C10.3939 6.01845 10.383 6.04268 10.3717 6.06664C10.3704 6.06948 10.369 6.07231 10.3677 6.07515C10.3636 6.08365 10.3596 6.0922 10.3554 6.10071C10.3427 6.12665 10.3295 6.1523 10.3159 6.17773C10.3106 6.1876 10.3055 6.19761 10.3001 6.20745C10.2997 6.20809 10.2994 6.2087 10.2991 6.2093C10.2842 6.23636 10.2687 6.26299 10.2529 6.28945C10.2467 6.29993 10.2405 6.31046 10.2341 6.32081C10.2169 6.34869 10.1992 6.37626 10.1811 6.40341C10.1698 6.42029 10.158 6.43683 10.1463 6.45345C10.1363 6.46754 10.1265 6.48167 10.1163 6.49555C10.1031 6.5135 10.0897 6.53124 10.076 6.5489C10.0667 6.56088 10.0574 6.57278 10.0479 6.58464C10.0335 6.60268 10.0189 6.62063 10.004 6.63829C9.99481 6.64924 9.98531 6.65998 9.97591 6.67076C9.96044 6.6885 9.94502 6.70629 9.92913 6.7236C9.91968 6.73386 9.90989 6.74374 9.90026 6.75388C9.8744 6.78116 9.84795 6.80783 9.82097 6.83399C9.80495 6.8495 9.78901 6.86505 9.7726 6.88013C9.76126 6.89056 9.74962 6.9007 9.73807 6.91097C9.71925 6.92768 9.70031 6.94421 9.68102 6.96036C9.67123 6.96857 9.66135 6.97669 9.65143 6.98476C9.6281 7.00375 9.60448 7.02235 9.58046 7.04056C9.57394 7.0455 9.56749 7.05053 9.56092 7.05542C9.1245 7.37986 8.5843 7.57217 7.99994 7.57217C7.41553 7.57217 6.87525 7.37982 6.43882 7.05529C6.43238 7.05048 6.42607 7.04554 6.41966 7.04069C6.39557 7.02243 6.37181 7.00371 6.3484 6.98463C6.33857 6.9766 6.32873 6.96857 6.31902 6.96041C6.29965 6.94417 6.28066 6.92755 6.26176 6.91079C6.25029 6.90057 6.2387 6.89052 6.2274 6.88013C6.21095 6.86501 6.19497 6.84941 6.1789 6.83391C6.1518 6.80766 6.12529 6.7809 6.09935 6.75354C6.08986 6.74353 6.08015 6.73378 6.07083 6.72364C6.05489 6.70629 6.03947 6.68846 6.02401 6.67072C6.0146 6.65994 6.00515 6.64924 5.99591 6.63829C5.98101 6.62063 5.96649 6.60268 5.95206 6.58468C5.94261 6.57282 5.9332 6.56093 5.92392 6.5489C5.91031 6.53129 5.89686 6.51355 5.88367 6.49559C5.87349 6.48167 5.86357 6.4675 5.85365 6.45337C5.84196 6.43679 5.83019 6.42029 5.81894 6.40345C5.80068 6.37618 5.78294 6.34851 5.76572 6.32055C5.7594 6.31028 5.7533 6.29993 5.74712 6.28958C5.7311 6.26273 5.71542 6.23576 5.70034 6.20831C5.6948 6.19822 5.68956 6.18795 5.6841 6.17781C5.67053 6.1523 5.65726 6.12657 5.6445 6.10058C5.63995 6.09134 5.63552 6.08202 5.6311 6.07274C5.63041 6.07133 5.62977 6.06991 5.62912 6.06849C5.61722 6.04341 5.60584 6.01806 5.59471 5.9925C5.58943 5.98035 5.58406 5.96823 5.57899 5.95604C5.56654 5.92614 5.55464 5.89598 5.54325 5.86557C5.53711 5.84916 5.53144 5.83258 5.52564 5.81604C5.51967 5.79908 5.51392 5.78198 5.50829 5.76484C5.50223 5.74629 5.49613 5.72773 5.49046 5.70909C5.482 5.68121 5.47401 5.65316 5.46649 5.62494C5.46121 5.60514 5.45644 5.58516 5.45159 5.56523C5.44781 5.54955 5.44416 5.53387 5.44068 5.51811C5.43638 5.49878 5.43204 5.47949 5.42818 5.46008C5.42221 5.42984 5.41675 5.39943 5.41186 5.36884C5.40919 5.35235 5.40687 5.33581 5.40451 5.31931C5.40103 5.29487 5.39789 5.2703 5.3951 5.24565C5.39373 5.23349 5.39214 5.22133 5.39089 5.20918C5.38733 5.17297 5.38462 5.1365 5.38256 5.0999C5.38196 5.08938 5.38149 5.07885 5.38101 5.06833C5.37925 5.0292 5.37801 4.98993 5.37801 4.95042C5.37801 4.90806 5.37921 4.86601 5.38123 4.82413C5.38179 4.81275 5.38273 4.80145 5.38338 4.79011C5.38527 4.75867 5.38754 4.72731 5.39055 4.69612C5.39158 4.68526 5.39283 4.67443 5.39399 4.66361C5.39768 4.62984 5.40185 4.59625 5.40683 4.56288C5.40777 4.55639 5.40872 4.54986 5.40975 4.54338C5.55807 3.59579 6.21563 2.81491 7.09281 2.49043ZM2.02245 3.50056C2.02245 2.05487 3.1986 0.878673 4.64434 0.878673C5.39875 0.878673 6.11142 1.20706 6.60416 1.7605C5.46031 2.2574 4.66749 3.33183 4.53806 4.58702C4.53716 4.59552 4.53652 4.60407 4.5357 4.61262C4.53141 4.65733 4.52801 4.70222 4.52544 4.74737C4.52466 4.76111 4.5238 4.77482 4.52316 4.7886C4.52071 4.84234 4.51904 4.89625 4.51904 4.95055C4.51904 5.00536 4.52063 5.06004 4.5232 5.11468C4.52423 5.13667 4.52604 5.15845 4.52746 5.18031C4.52956 5.21175 4.53171 5.2432 4.53463 5.27455C4.53721 5.30243 4.54038 5.33014 4.54365 5.35784C4.54648 5.38198 4.54949 5.40604 4.55284 5.43009C4.55722 5.46167 4.56195 5.49311 4.56715 5.52442C4.57028 5.54302 4.57372 5.56158 4.57711 5.58014C4.58355 5.61519 4.59013 5.65015 4.5976 5.68482C4.60009 5.69624 4.60293 5.70758 4.6055 5.71897C4.63467 5.84796 4.67088 5.97425 4.71401 6.0974C4.71676 6.10535 4.71916 6.11338 4.72196 6.12128C4.69605 6.12206 4.67011 6.12244 4.64425 6.12244C3.1986 6.1224 2.02245 4.94625 2.02245 3.50056ZM4.07591 8.97736C4.06646 8.99226 4.05744 9.00743 4.04816 9.02242C4.02853 9.05412 4.00907 9.0859 3.99026 9.11799C3.97974 9.1359 3.9696 9.15394 3.95938 9.17199C3.94245 9.20175 3.92574 9.23161 3.9095 9.26172C3.89928 9.28066 3.88923 9.29969 3.87926 9.31872C3.86363 9.34866 3.84838 9.37877 3.83343 9.40897C3.82402 9.42795 3.81466 9.4469 3.80555 9.46597C3.79035 9.4978 3.7757 9.52989 3.76122 9.56202C3.75336 9.5795 3.74529 9.59685 3.73768 9.61442C3.72093 9.65291 3.70495 9.6917 3.68927 9.73062C3.68468 9.742 3.67978 9.75325 3.67531 9.76464C3.65543 9.81519 3.6364 9.8661 3.61836 9.91725C3.61423 9.92898 3.61054 9.94084 3.60646 9.95256C3.59288 9.992 3.57965 10.0316 3.56715 10.0713C3.56144 10.0895 3.55616 10.1079 3.55066 10.1262C3.54056 10.1599 3.53064 10.1936 3.52132 10.2275C3.51578 10.2477 3.5105 10.2679 3.50521 10.2882C3.49671 10.3208 3.48855 10.3534 3.48081 10.3862C3.47587 10.4069 3.47106 10.4277 3.46647 10.4485C3.45908 10.4817 3.45216 10.515 3.4455 10.5484C3.44151 10.5685 3.43739 10.5885 3.43365 10.6087C3.42691 10.645 3.42085 10.6815 3.41496 10.7181C3.41221 10.7352 3.40917 10.7523 3.40659 10.7695C3.3986 10.8232 3.39134 10.877 3.38524 10.9311C3.38515 10.9318 3.38511 10.9324 3.38507 10.9331C3.37953 10.9822 3.37476 11.0315 3.37076 11.0809H0.8591V10.0039C0.8591 8.5323 1.70505 7.21122 3.03039 6.58331C3.5132 6.83708 4.06204 6.98154 4.64429 6.98154C4.81268 6.98154 4.98158 6.96908 5.14919 6.94443C5.1753 6.98167 5.20185 7.01853 5.22934 7.05469C5.23862 7.06685 5.24824 7.07871 5.25769 7.09073C5.28484 7.12544 5.31237 7.15976 5.34081 7.1934C5.35245 7.20718 5.36439 7.22067 5.37625 7.23429C5.40288 7.26487 5.42994 7.29507 5.4576 7.32467C5.47212 7.34026 5.4869 7.35559 5.50167 7.37093C5.52697 7.397 5.55262 7.42269 5.57869 7.44799C5.58849 7.45748 5.59772 7.46753 5.6076 7.47694C5.57027 7.49949 5.53329 7.5226 5.49665 7.54618C5.49068 7.55001 5.48484 7.55405 5.47891 7.55791C5.44227 7.58171 5.40601 7.60602 5.3701 7.63081C5.35769 7.6394 5.34532 7.64807 5.33295 7.65675C5.30095 7.6793 5.26929 7.70224 5.23789 7.72556C5.22796 7.73295 5.21791 7.74017 5.20808 7.74764C5.16813 7.77784 5.12865 7.8086 5.08969 7.84004C5.08119 7.84691 5.07285 7.854 5.06435 7.86096C5.03334 7.88634 5.00262 7.91216 4.9723 7.93836C4.96053 7.9485 4.94884 7.95872 4.93716 7.96899C4.90679 7.99575 4.87681 8.0229 4.84713 8.05043C4.83939 8.05761 4.83149 8.06465 4.8238 8.07191C4.78738 8.10619 4.75151 8.14111 4.71616 8.17663C4.70696 8.18587 4.69799 8.19528 4.68888 8.20455C4.66182 8.23217 4.63506 8.2601 4.60864 8.2884C4.59816 8.29966 4.58768 8.31091 4.57728 8.32229C4.54756 8.35477 4.51826 8.38767 4.48944 8.42105C4.48493 8.42629 4.48025 8.43136 4.47574 8.43664C4.44288 8.475 4.41075 8.51409 4.37905 8.55356C4.3702 8.56456 4.36156 8.57573 4.35284 8.58685C4.329 8.61714 4.30551 8.64772 4.2824 8.67861C4.27346 8.69055 4.26448 8.7024 4.25568 8.71443C4.22544 8.75567 4.19558 8.79725 4.16659 8.83956C4.13545 8.885 4.10529 8.93101 4.07591 8.97736ZM4.21479 12.5309V11.9401V11.4538C4.21479 11.4062 4.21569 11.3587 4.21745 11.3113C4.21801 11.2957 4.21925 11.2802 4.22003 11.2647C4.22157 11.2331 4.22303 11.2014 4.22535 11.1699C4.22677 11.1508 4.22892 11.1318 4.23064 11.1128C4.23313 11.085 4.23536 11.0572 4.23845 11.0297C4.24073 11.0095 4.24369 10.9894 4.24627 10.9693C4.24962 10.943 4.25276 10.9167 4.25662 10.8906C4.25976 10.8698 4.26354 10.8492 4.26698 10.8285C4.27119 10.8033 4.27509 10.7781 4.27982 10.753C4.28381 10.7319 4.28845 10.7109 4.29279 10.6898C4.29777 10.6655 4.30254 10.6411 4.308 10.6169C4.31281 10.5956 4.31831 10.5746 4.32346 10.5533C4.32926 10.5297 4.3348 10.506 4.34103 10.4825C4.3467 10.4611 4.35297 10.44 4.35899 10.4188C4.36551 10.3957 4.37187 10.3726 4.37883 10.3497C4.38532 10.3284 4.39245 10.3073 4.39928 10.2861C4.40658 10.2636 4.41367 10.2411 4.42136 10.2188C4.42866 10.1978 4.43652 10.1768 4.44417 10.1559C4.45224 10.1338 4.46014 10.1117 4.46861 10.0898C4.47668 10.0689 4.48527 10.0484 4.49365 10.0276C4.50246 10.006 4.51113 9.98431 4.52032 9.96287C4.52922 9.94221 4.53858 9.92176 4.54782 9.90132C4.55731 9.88023 4.56672 9.85905 4.5766 9.83817C4.58626 9.81777 4.5964 9.79763 4.60641 9.77739C4.61663 9.75678 4.62672 9.73611 4.63729 9.71571C4.64773 9.69561 4.6586 9.67576 4.66938 9.65587C4.68029 9.63573 4.69107 9.61558 4.70232 9.59565C4.71349 9.57589 4.72509 9.55643 4.73656 9.53689C4.74816 9.51721 4.75967 9.4975 4.77165 9.478C4.78355 9.45862 4.79584 9.43955 4.80808 9.42039C4.82036 9.40119 4.83256 9.38199 4.84519 9.36301C4.85782 9.34402 4.87079 9.32529 4.88377 9.30656C4.8967 9.28788 4.90958 9.26919 4.92281 9.25072C4.93613 9.23217 4.94983 9.21387 4.96353 9.19553C4.97711 9.17736 4.99064 9.15919 5.00451 9.14127C5.01852 9.12319 5.03286 9.10536 5.04721 9.08749C5.06143 9.0698 5.07569 9.05214 5.09021 9.0347C5.10486 9.01718 5.1198 8.99987 5.13475 8.9826C5.14966 8.96537 5.16461 8.94815 5.17986 8.93114C5.1951 8.91413 5.2107 8.89738 5.22625 8.88062C5.2418 8.86391 5.25735 8.84729 5.2732 8.83088C5.28909 8.81439 5.30528 8.79815 5.32152 8.78196C5.33772 8.76576 5.35399 8.74965 5.37049 8.73372C5.38694 8.71787 5.40365 8.70223 5.42045 8.68664C5.43728 8.671 5.45421 8.65541 5.47135 8.64003C5.48844 8.62474 5.50571 8.60966 5.52311 8.59467C5.54055 8.57959 5.55812 8.5646 5.57586 8.54983C5.59351 8.53514 5.61134 8.52066 5.62929 8.50627C5.64738 8.49175 5.66559 8.47736 5.68398 8.46314C5.70215 8.44914 5.72049 8.43531 5.73891 8.42156C5.75764 8.4076 5.7765 8.39382 5.79557 8.3802C5.81421 8.36684 5.83303 8.35369 5.85197 8.34064C5.87139 8.32728 5.89089 8.31409 5.91056 8.30107C5.92968 8.28845 5.94896 8.27595 5.96834 8.26362C5.9884 8.25086 6.00859 8.23827 6.0289 8.2259C6.04849 8.21396 6.06821 8.20215 6.08805 8.19055C6.10867 8.17848 6.12946 8.16658 6.15038 8.15486C6.17044 8.1436 6.19063 8.13248 6.21095 8.12157C6.23221 8.11014 6.25364 8.09893 6.27521 8.08785C6.29565 8.07732 6.31619 8.06697 6.33689 8.05679C6.35317 8.0488 6.36962 8.04107 6.38607 8.03329C6.86885 8.28707 7.41777 8.43149 7.99998 8.43149C8.58223 8.43149 9.13111 8.28707 9.61388 8.03329C9.63021 8.04103 9.64653 8.04871 9.66268 8.05662C9.68364 8.06693 9.70439 8.07741 9.72509 8.08802C9.7464 8.09897 9.76762 8.11005 9.78867 8.12135C9.8092 8.13239 9.8296 8.14364 9.84988 8.15503C9.87054 8.16663 9.89107 8.17835 9.91143 8.19029C9.93158 8.20206 9.95155 8.21405 9.9714 8.22616C9.99146 8.2384 10.0113 8.25077 10.0311 8.26336C10.0508 8.27586 10.0703 8.28849 10.0897 8.30133C10.1091 8.31418 10.1284 8.32723 10.1476 8.34042C10.1667 8.35361 10.1857 8.36688 10.2046 8.38037C10.2234 8.39386 10.2421 8.40752 10.2606 8.42135C10.2793 8.43518 10.2978 8.44914 10.3161 8.46332C10.3343 8.4774 10.3524 8.49167 10.3703 8.50606C10.3884 8.52053 10.4063 8.53509 10.4241 8.54987C10.4418 8.56456 10.4592 8.57947 10.4765 8.59446C10.494 8.60953 10.5114 8.6247 10.5286 8.64012C10.5456 8.65537 10.5624 8.67083 10.5791 8.68634C10.596 8.70206 10.6129 8.71787 10.6296 8.73389C10.6459 8.74965 10.662 8.76563 10.6781 8.78165C10.6944 8.79798 10.7107 8.81434 10.7267 8.83092C10.7424 8.84725 10.7579 8.86374 10.7734 8.88032C10.7891 8.8972 10.8048 8.91413 10.8201 8.93127C10.8353 8.9481 10.8501 8.96516 10.8649 8.98225C10.8799 8.99965 10.895 9.01709 10.9097 9.03479C10.9242 9.0521 10.9384 9.06967 10.9525 9.08724C10.9669 9.10519 10.9814 9.1231 10.9954 9.14132C11.0093 9.15914 11.0227 9.17723 11.0362 9.19531C11.05 9.2137 11.0637 9.23212 11.0771 9.25077C11.0903 9.26911 11.1031 9.28775 11.116 9.30635C11.129 9.32516 11.142 9.34398 11.1547 9.36305C11.1673 9.38191 11.1794 9.40098 11.1916 9.42005C11.2039 9.43934 11.2163 9.45858 11.2283 9.47808C11.2401 9.49737 11.2515 9.51696 11.2631 9.53646C11.2747 9.55613 11.2863 9.57576 11.2975 9.59565C11.3088 9.6155 11.3195 9.6356 11.3304 9.65562C11.3412 9.67559 11.3521 9.69552 11.3625 9.71567C11.3731 9.73603 11.3832 9.75669 11.3934 9.77726C11.4034 9.7975 11.4136 9.81769 11.4232 9.83813C11.4331 9.85901 11.4425 9.8801 11.4519 9.90115C11.4612 9.92172 11.4706 9.94217 11.4795 9.96292C11.4887 9.98418 11.4972 10.0057 11.506 10.0272C11.5145 10.0481 11.5231 10.0688 11.5313 10.0899C11.5397 10.1117 11.5475 10.1337 11.5556 10.1557C11.5633 10.1767 11.5711 10.1976 11.5784 10.2188C11.5862 10.2412 11.5933 10.2638 11.6006 10.2864C11.6074 10.3075 11.6145 10.3285 11.621 10.3497C11.628 10.3726 11.6343 10.3958 11.6408 10.4188C11.6469 10.44 11.6531 10.4611 11.6588 10.4825C11.665 10.506 11.6706 10.5297 11.6764 10.5533C11.6816 10.5745 11.687 10.5956 11.6918 10.6169C11.6973 10.6411 11.702 10.6654 11.707 10.6897C11.7114 10.7108 11.716 10.7318 11.72 10.753C11.7247 10.7779 11.7286 10.8029 11.7328 10.8279C11.7362 10.8488 11.7401 10.8696 11.7432 10.8907C11.7471 10.9166 11.7502 10.9427 11.7536 10.9687C11.7562 10.989 11.7592 11.0092 11.7615 11.0296C11.7646 11.0572 11.7668 11.085 11.7693 11.1127C11.771 11.1318 11.7731 11.1507 11.7746 11.1699C11.7769 11.2014 11.7783 11.2331 11.7799 11.2647C11.7807 11.2802 11.7819 11.2957 11.7825 11.3112C11.7842 11.3586 11.7851 11.4061 11.7851 11.4538V11.94V12.5309H4.21479ZM12.6294 11.0809C12.621 10.9763 12.6089 10.8723 12.5935 10.769C12.591 10.7526 12.5881 10.7364 12.5855 10.72C12.5795 10.6826 12.5733 10.6453 12.5664 10.6081C12.5627 10.5885 12.5587 10.569 12.5548 10.5495C12.5481 10.5155 12.541 10.4816 12.5335 10.4478C12.529 10.4275 12.5243 10.4071 12.5194 10.3868C12.5116 10.3537 12.5033 10.3206 12.4947 10.2877C12.4895 10.2677 12.4844 10.2478 12.4789 10.2279C12.4694 10.1936 12.4594 10.1595 12.4492 10.1254C12.4438 10.1075 12.4386 10.0895 12.433 10.0715C12.4203 10.0312 12.4069 9.99109 12.3931 9.95106C12.3892 9.93989 12.3857 9.92859 12.3818 9.91743C12.3636 9.8661 12.3446 9.81506 12.3246 9.76433C12.3203 9.75347 12.3157 9.74273 12.3113 9.73186C12.2954 9.69247 12.2792 9.65317 12.2622 9.61417C12.2547 9.59685 12.2468 9.57976 12.239 9.56253C12.2244 9.53006 12.2097 9.49771 12.1943 9.46558C12.1853 9.44677 12.176 9.42808 12.1668 9.4094C12.1517 9.3789 12.1363 9.34853 12.1205 9.31833C12.1106 9.29943 12.1007 9.28062 12.0906 9.26185C12.0743 9.23165 12.0575 9.20167 12.0405 9.17177C12.0303 9.15382 12.0202 9.13586 12.0097 9.11804C11.9908 9.08578 11.9713 9.05386 11.9515 9.02199C11.9423 9.00712 11.9334 8.99213 11.924 8.9774C11.8946 8.93105 11.8645 8.88505 11.8333 8.83956C11.8042 8.7972 11.7744 8.75562 11.7442 8.71439C11.7354 8.70245 11.7265 8.69063 11.7176 8.67878C11.6944 8.64772 11.6708 8.61705 11.6469 8.58664C11.6382 8.57569 11.6297 8.5646 11.6209 8.55374C11.5892 8.51413 11.5569 8.47496 11.524 8.43651C11.5197 8.43153 11.5152 8.42667 11.5109 8.42169C11.4819 8.38806 11.4524 8.3549 11.4224 8.32217C11.4121 8.31091 11.4018 8.29979 11.3914 8.28862C11.3648 8.26014 11.3379 8.232 11.3106 8.20425C11.3017 8.1951 11.2929 8.18587 11.2838 8.17681C11.2484 8.14124 11.2124 8.10619 11.1759 8.07182C11.1683 8.06474 11.1606 8.05786 11.153 8.05082C11.1232 8.02311 11.093 7.99584 11.0625 7.96895C11.0509 7.95872 11.0393 7.94859 11.0276 7.93845C10.9972 7.9122 10.9664 7.88639 10.9354 7.86096C10.9269 7.85404 10.9186 7.84695 10.9101 7.84008C10.8712 7.80864 10.8317 7.77788 10.7918 7.74773C10.7819 7.74021 10.7717 7.73291 10.7617 7.72548C10.7305 7.70228 10.699 7.67943 10.6671 7.65701C10.6546 7.6482 10.6421 7.63944 10.6296 7.63076C10.594 7.60624 10.5581 7.58218 10.5219 7.55864C10.5155 7.55452 10.5093 7.55022 10.5029 7.54614C10.4663 7.52264 10.4295 7.49958 10.3922 7.47707C10.4018 7.46792 10.4108 7.45817 10.4203 7.44889C10.447 7.42312 10.4731 7.39692 10.4989 7.37028C10.5133 7.35542 10.5276 7.34052 10.5417 7.3254C10.5698 7.29533 10.5972 7.26466 10.6243 7.2336C10.6358 7.22041 10.6473 7.20731 10.6586 7.19391C10.6875 7.1598 10.7155 7.12497 10.743 7.0897C10.752 7.07819 10.7613 7.06685 10.7701 7.05521C10.7977 7.01891 10.8244 6.98188 10.8506 6.94451C11.0183 6.96913 11.1872 6.98158 11.3555 6.98158C11.9378 6.98158 12.4867 6.83717 12.9694 6.58335C14.2948 7.21126 15.1407 8.53234 15.1407 10.0039V11.0809H12.6294Z" fill="black" fill-opacity="0.2"/>
</svg>
