<svg width="24" height="23" viewBox="0 0 24 23" fill="none" xmlns="http://www.w3.org/2000/svg">
<path d="M15.666 9.03011H7.33268V7.98845H15.666V9.03011ZM10.5931 20.4884L11.7014 21.5301H2.64518C1.20976 21.5301 0.0410156 19.8947 0.0410156 17.8843C0.0410156 15.8739 1.20976 14.2384 2.64518 14.2384H4.20768V4.60303C4.20768 2.44886 5.37643 0.696777 6.81184 0.696777H20.3535C21.7889 0.696777 22.9056 2.33219 22.9056 4.34261C22.9056 6.35303 21.7889 7.98845 20.3535 7.98845H18.791V15.4239L17.7493 16.4437V4.60303C17.7403 3.6087 17.9688 2.6266 18.416 1.73844H6.81184C6.07435 1.73844 5.24935 2.96344 5.24935 4.60303V14.2384H16.2598L15.5202 15.0989C14.9062 15.8946 14.5893 16.8798 14.6243 17.8843C14.6246 18.1254 14.6409 18.3662 14.6733 18.6051L13.5983 17.5937C13.6241 16.7917 13.8163 16.0038 14.1629 15.2801H2.64518C1.81289 15.2801 1.08268 16.4968 1.08268 17.8843C1.08268 19.2718 1.81289 20.4884 2.64518 20.4884H10.5931ZM18.791 6.94678H20.3535C21.1858 6.94678 21.9681 5.73011 21.9681 4.34261C21.9681 2.95511 21.1858 1.73844 20.3535 1.73844H19.6483C19.0656 2.57806 18.7654 3.58136 18.791 4.60303V6.94678ZM7.33268 12.1551H15.666V11.1134H7.33268V12.1551ZM15.666 4.86345H7.33268V5.90511H15.666V4.86345ZM22.4275 14.0499L15.1379 21.1864L12.1879 18.4124L11.4743 19.1707L15.1514 22.6301L23.1566 14.7947L22.4275 14.0499Z" fill="white"/>
</svg>
