<svg width="14" height="17" viewBox="0 0 14 17" fill="none" xmlns="http://www.w3.org/2000/svg">
<path d="M9.69277 16.6528C9.69196 16.6528 9.69115 16.6528 9.69043 16.6528H0.484955C0.335763 16.6528 0.214844 16.5365 0.214844 16.3929V0.912779C0.214844 0.769202 0.335763 0.652832 0.484955 0.652832H12.9447C13.0939 0.652832 13.2148 0.769202 13.2148 0.912779V13.1779C13.2149 13.1886 13.2143 13.1992 13.213 13.2097C13.213 13.2098 13.2131 13.2095 13.213 13.2097C13.213 13.2097 13.2129 13.2105 13.2129 13.2106C13.2129 13.2108 13.213 13.2104 13.2129 13.2106C13.2129 13.2108 13.2129 13.2116 13.2129 13.2117C13.2115 13.2224 13.2094 13.2329 13.2068 13.2432C13.2068 13.2434 13.2066 13.2441 13.2066 13.2443C13.1954 13.2862 13.1733 13.3256 13.1413 13.3583C13.1411 13.3584 13.1415 13.3581 13.1413 13.3583C13.1411 13.3584 13.1404 13.3591 13.1402 13.3593C13.1401 13.3594 13.1394 13.3602 13.1392 13.3603C13.139 13.3604 13.1387 13.3608 13.1385 13.361L9.88662 16.5741C9.88626 16.5744 9.88581 16.5748 9.88545 16.5753C9.88527 16.5755 9.88572 16.575 9.88545 16.5753C9.88527 16.5755 9.88446 16.5762 9.88428 16.5764C9.88419 16.5765 9.88446 16.5762 9.88428 16.5764C9.88419 16.5766 9.88329 16.5773 9.8832 16.5774C9.88311 16.5775 9.88248 16.5781 9.8823 16.5782C9.847 16.6115 9.80361 16.6342 9.75751 16.645C9.75715 16.6452 9.75778 16.6449 9.75751 16.645C9.75742 16.6451 9.75633 16.6453 9.75597 16.6454C9.7557 16.6454 9.75624 16.6453 9.75597 16.6454C9.75579 16.6455 9.75471 16.6456 9.75453 16.6457C9.75426 16.6457 9.753 16.646 9.753 16.646C9.75057 16.6465 9.74814 16.647 9.74562 16.6475C9.74535 16.6475 9.74589 16.6474 9.74562 16.6475C9.74571 16.6477 9.74436 16.6477 9.744 16.6477C9.74382 16.6476 9.74427 16.6476 9.744 16.6477C9.74346 16.6478 9.74274 16.6479 9.74247 16.648C9.74229 16.648 9.74274 16.648 9.74247 16.648C9.74229 16.648 9.7413 16.6482 9.74094 16.6482C9.74067 16.6482 9.74121 16.6482 9.74094 16.6482C9.72491 16.6514 9.70852 16.6528 9.69277 16.6528ZM0.755066 16.1329H9.42275V13.1798C9.42275 13.0362 9.54367 12.9198 9.69286 12.9198H12.6746V1.17273H0.755066V16.1329ZM9.96297 13.4397V15.7534L12.3046 13.4397H9.96297ZM10.3834 12.0203H2.06636C1.91717 12.0203 1.79625 11.9039 1.79625 11.7604C1.79625 11.6168 1.91717 11.5004 2.06636 11.5004H10.3835C10.5327 11.5004 10.6536 11.6168 10.6536 11.7604C10.6536 11.9039 10.5326 12.0203 10.3834 12.0203ZM11.3187 10.8469H2.06636C1.91717 10.8469 1.79625 10.7305 1.79625 10.587C1.79625 10.4434 1.91717 10.327 2.06636 10.327H11.3187C11.4679 10.327 11.5889 10.4434 11.5889 10.587C11.5889 10.7305 11.4679 10.8469 11.3187 10.8469ZM3.89132 9.21306C3.87908 9.21306 3.86683 9.21228 3.8545 9.21064L1.79247 8.9376C1.71819 8.92773 1.65147 8.88865 1.60835 8.82955C1.56522 8.77046 1.54955 8.69689 1.56504 8.62627L2.20736 5.70326C1.75124 5.26681 1.48986 4.64744 1.54568 3.98362C1.64634 2.78743 2.73885 1.89278 3.98235 1.98991C5.22531 2.08679 6.15467 3.13871 6.05401 4.33489C6.00809 4.88061 5.75554 5.36359 5.37648 5.71825L5.9954 8.04451C6.01431 8.11548 6.00116 8.19086 5.95929 8.25204C5.91743 8.31321 5.85062 8.35454 5.77544 8.36581L4.16981 8.60687L4.16144 8.95901C4.15963 9.03309 4.12515 9.10293 4.06654 9.15093C4.01738 9.19131 3.95516 9.21306 3.89132 9.21306ZM2.15361 8.46051L3.62824 8.65582L3.68343 6.33276C3.66146 6.33164 3.63949 6.33025 3.61743 6.32852C3.27763 6.302 2.96124 6.20417 2.68303 6.0515L2.15361 8.46051ZM4.18467 7.97935L4.20771 8.07501L5.39827 7.89626L4.90856 6.0554C4.69824 6.16969 4.46774 6.25235 4.22464 6.29724L4.18467 7.97935ZM3.79697 2.50253C3.38928 2.50253 2.99888 2.64021 2.68483 2.89713C2.33449 3.18376 2.1212 3.58451 2.0841 4.02556C2.00748 4.93598 2.7149 5.7367 3.66101 5.81044C4.60685 5.88453 5.43897 5.20338 5.51559 4.29296C5.59221 3.38254 4.88488 2.58181 3.93877 2.50807C3.89132 2.50435 3.84405 2.50253 3.79697 2.50253ZM11.3187 6.12966H7.50208C7.35289 6.12966 7.23197 6.01329 7.23197 5.86971C7.23197 5.72613 7.35289 5.60976 7.50208 5.60976H11.3187C11.4679 5.60976 11.5889 5.72613 11.5889 5.86971C11.5889 6.01329 11.4679 6.12966 11.3187 6.12966ZM10.7737 4.74604H7.50208C7.35289 4.74604 7.23197 4.62968 7.23197 4.4861C7.23197 4.34252 7.35289 4.22615 7.50208 4.22615H10.7736C10.9228 4.22615 11.0437 4.34252 11.0437 4.4861C11.0437 4.62968 10.9228 4.74604 10.7737 4.74604ZM11.3187 3.27838H7.50208C7.35289 3.27838 7.23197 3.16201 7.23197 3.01844C7.23197 2.87486 7.35289 2.75849 7.50208 2.75849H11.3187C11.4679 2.75849 11.5889 2.87486 11.5889 3.01844C11.5889 3.16201 11.4679 3.27838 11.3187 3.27838Z" fill="#D7282F"/>
</svg>
