<svg width="18" height="16" viewBox="0 0 18 16" fill="none" xmlns="http://www.w3.org/2000/svg">
<path fill-rule="evenodd" clip-rule="evenodd" d="M11.2593 5.92593V4.14815L7.70371 0H1.18682C0.531358 0 0 0.532349 0 1.18953V14.8105C0 15.4674 0.527956 16 1.18366 16H10.0756C10.7293 16 11.2593 15.4677 11.2593 14.8203V13.6296H15.9959C16.98 13.6296 17.7778 12.8342 17.7778 11.8526V7.70298C17.7778 6.72154 16.9861 5.92593 15.9959 5.92593H11.2593ZM10.6667 13.6296V14.8187C10.6667 15.1437 10.4014 15.4074 10.0741 15.4074H1.18516C0.86205 15.4074 0.592593 15.1433 0.592593 14.8175V1.18249C0.592593 0.862378 0.856732 0.592593 1.18256 0.592593H7.11111V3.55205C7.11111 4.21537 7.64119 4.74074 8.29506 4.74074H10.6667V5.92593H5.92999C4.9459 5.92593 4.14815 6.72134 4.14815 7.70298V11.8526C4.14815 12.834 4.93985 13.6296 5.92999 13.6296H10.6667ZM7.70371 0.888889V3.55035C7.70371 3.88051 7.97076 4.14815 8.29437 4.14815H10.4889L7.70371 0.888889ZM5.9227 6.51852C5.26992 6.51852 4.74074 7.05196 4.74074 7.69897V11.8566C4.74074 12.5085 5.27546 13.037 5.9227 13.037H16.0032C16.656 13.037 17.1852 12.5036 17.1852 11.8566V7.69897C17.1852 7.04703 16.6505 6.51852 16.0032 6.51852H5.9227ZM13.6296 9.48148V8.2963H16V7.7037H13.037V11.8519H13.6296V10.0741H15.4074V9.48148H13.6296ZM5.92593 8.88889V11.8519H6.51852V10.0741H7.70081C8.35697 10.0741 8.88889 9.54801 8.88889 8.88889C8.88889 8.23433 8.35917 7.7037 7.70081 7.7037H5.92593V8.88889ZM6.51852 8.2963V9.48148H7.70432C8.03126 9.48148 8.2963 9.21845 8.2963 8.88889C8.2963 8.56161 8.03398 8.2963 7.70432 8.2963H6.51852ZM9.48148 7.7037V11.8519H11.2564C11.9125 11.8519 12.4444 11.3265 12.4444 10.6632V8.8924C12.4444 8.2359 11.9147 7.7037 11.2564 7.7037H9.48148ZM10.0741 8.2963V11.2593H11.2599C11.5868 11.2593 11.8519 10.9963 11.8519 10.6668V8.88877C11.8519 8.56156 11.5895 8.2963 11.2599 8.2963H10.0741Z" fill="#0F4B98"/>
</svg>
