<svg width="14" height="14" viewBox="0 0 14 14" fill="none" xmlns="http://www.w3.org/2000/svg">
<path d="M12.4444 3.11111H4.66667C3.81111 3.11111 3.11111 3.81111 3.11111 4.66667V12.4444C3.11111 13.3 3.81111 14 4.66667 14H12.4444C13.3 14 14 13.3 14 12.4444V4.66667C14 3.81111 13.3 3.11111 12.4444 3.11111ZM12.4444 4.66667V6.22222H4.66667V4.66667H12.4444ZM7.77778 9.33333V7.77778H9.33333V9.33333H7.77778ZM9.33333 10.8889V12.4444H7.77778V10.8889H9.33333ZM6.22222 9.33333H4.66667V7.77778H6.22222V9.33333ZM10.8889 7.77778H12.4444V9.33333H10.8889V7.77778ZM4.66667 10.8889H6.22222V12.4444H4.66667V10.8889ZM10.8889 12.4444V10.8889H12.4444V12.4444H10.8889ZM2.33333 10.8889H1.55556C0.7 10.8889 0 10.1889 0 9.33333V1.55556C0 0.7 0.7 0 1.55556 0H9.33333C10.1889 0 10.8889 0.7 10.8889 1.55556V2.33333H9.33333V1.55556H1.55556V9.33333H2.33333V10.8889Z" fill="white"/>
</svg>
