<svg width="49" height="46" viewBox="0 0 49 46" fill="none" xmlns="http://www.w3.org/2000/svg">
<path opacity="0.3" d="M17.2493 19.1667C19.3664 19.1667 21.0827 17.4504 21.0827 15.3333C21.0827 13.2162 19.3664 11.5 17.2493 11.5C15.1323 11.5 13.416 13.2162 13.416 15.3333C13.416 17.4504 15.1323 19.1667 17.2493 19.1667Z" fill="#D7282F"/>
<path opacity="0.3" d="M17.25 28.75C12.075 28.75 6.13333 31.2225 5.75 32.6025V34.5H28.75V32.5833C28.3667 31.2225 22.425 28.75 17.25 28.75Z" fill="#D7282F"/>
<path d="M31.9492 25.166C34.5751 26.9485 36.4151 29.3635 36.4151 32.5835V38.3335H44.0817V32.5835C44.0817 28.4052 37.2392 25.9327 31.9492 25.166Z" fill="#D7282F"/>
<path d="M28.7484 23.0003C32.9842 23.0003 36.4151 19.5695 36.4151 15.3337C36.4151 11.0978 32.9842 7.66699 28.7484 7.66699C27.8476 7.66699 27.0042 7.85866 26.1992 8.12699C27.7901 10.1012 28.7484 12.612 28.7484 15.3337C28.7484 18.0553 27.7901 20.5662 26.1992 22.5403C27.0042 22.8087 27.8476 23.0003 28.7484 23.0003Z" fill="#D7282F"/>
<path d="M17.2487 23.0003C21.4845 23.0003 24.9154 19.5695 24.9154 15.3337C24.9154 11.0978 21.4845 7.66699 17.2487 7.66699C13.0129 7.66699 9.58203 11.0978 9.58203 15.3337C9.58203 19.5695 13.0129 23.0003 17.2487 23.0003ZM17.2487 11.5003C19.357 11.5003 21.082 13.2253 21.082 15.3337C21.082 17.442 19.357 19.167 17.2487 19.167C15.1404 19.167 13.4154 17.442 13.4154 15.3337C13.4154 13.2253 15.1404 11.5003 17.2487 11.5003Z" fill="#D7282F"/>
<path d="M17.2493 24.917C12.1318 24.917 1.91602 27.4853 1.91602 32.5837V38.3337H32.5827V32.5837C32.5827 27.4853 22.3668 24.917 17.2493 24.917ZM28.7493 34.5003H5.74935V32.6028C6.13268 31.2228 12.0743 28.7503 17.2493 28.7503C22.4243 28.7503 28.366 31.2228 28.7493 32.5837V34.5003Z" fill="#D7282F"/>
<path d="M45.25 12.75V9H42.75V12.75H39V15.25H42.75V19H45.25V15.25H49V12.75H45.25Z" fill="#D7282F"/>
</svg>
