<svg width="16" height="17" viewBox="0 0 16 17" fill="none" xmlns="http://www.w3.org/2000/svg">
<path d="M5 11.5C5.53043 11.5 6.03914 11.2893 6.41421 10.9142C6.78929 10.5391 7 10.0304 7 9.5C7 8.96957 6.78929 8.46086 6.41421 8.08579C6.03914 7.71071 5.53043 7.5 5 7.5C4.46957 7.5 3.96086 7.71071 3.58579 8.08579C3.21071 8.46086 3 8.96957 3 9.5C3 10.0304 3.21071 10.5391 3.58579 10.9142C3.96086 11.2893 4.46957 11.5 5 11.5ZM5 8.5C5.26522 8.5 5.51957 8.60536 5.70711 8.79289C5.89464 8.98043 6 9.23478 6 9.5C6 9.76522 5.89464 10.0196 5.70711 10.2071C5.51957 10.3946 5.26522 10.5 5 10.5C4.73478 10.5 4.48043 10.3946 4.29289 10.2071C4.10536 10.0196 4 9.76522 4 9.5C4 9.23478 4.10536 8.98043 4.29289 8.79289C4.48043 8.60536 4.73478 8.5 5 8.5ZM7.5 12.5H2.5C1.83696 12.5 1.20107 12.7634 0.732233 13.2322C0.263392 13.7011 0 14.337 0 15C0 15.3978 0.158036 15.7794 0.439341 16.0607C0.720645 16.342 1.10218 16.5 1.5 16.5H8.5C8.89783 16.5 9.27936 16.342 9.56066 16.0607C9.84196 15.7794 10 15.3978 10 15C10 14.337 9.73661 13.7011 9.26777 13.2322C8.79893 12.7634 8.16304 12.5 7.5 12.5ZM8.5 15.5H1.5C1.36739 15.5 1.24021 15.4473 1.14645 15.3536C1.05268 15.2598 1 15.1326 1 15C1 14.6022 1.15804 14.2206 1.43934 13.9393C1.72065 13.658 2.10218 13.5 2.5 13.5H7.5C7.89782 13.5 8.27936 13.658 8.56066 13.9393C8.84196 14.2206 9 14.6022 9 15C9 15.1326 8.94732 15.2598 8.85355 15.3536C8.75979 15.4473 8.63261 15.5 8.5 15.5ZM16 3V8C16 8.66304 15.7366 9.29893 15.2678 9.76777C14.7989 10.2366 14.163 10.5 13.5 10.5H10.707L8.854 12.354C8.80748 12.4004 8.75227 12.4372 8.69153 12.4622C8.63079 12.4873 8.56571 12.5001 8.5 12.5C8.43444 12.5002 8.36951 12.4872 8.309 12.462C8.21756 12.4242 8.1394 12.3601 8.08439 12.2779C8.02939 12.1957 8.00002 12.0989 8 12V10C8 9.86739 8.05268 9.74022 8.14645 9.64645C8.24022 9.55268 8.36739 9.5 8.5 9.5C8.63261 9.5 8.75979 9.55268 8.85355 9.64645C8.94732 9.74022 9 9.86739 9 10V10.793L10.146 9.646C10.1925 9.5996 10.2477 9.56282 10.3085 9.53777C10.3692 9.51272 10.4343 9.49988 10.5 9.5H13.5C13.8978 9.5 14.2794 9.34196 14.5607 9.06066C14.842 8.77936 15 8.39782 15 8V3C15 2.60218 14.842 2.22064 14.5607 1.93934C14.2794 1.65804 13.8978 1.5 13.5 1.5H6.5C6.10218 1.5 5.72065 1.65804 5.43934 1.93934C5.15804 2.22064 5 2.60218 5 3V6C5 6.13261 4.94732 6.25979 4.85355 6.35355C4.75979 6.44732 4.63261 6.5 4.5 6.5C4.36739 6.5 4.24021 6.44732 4.14645 6.35355C4.05268 6.25979 4 6.13261 4 6V3C4 2.33696 4.26339 1.70107 4.73223 1.23223C5.20107 0.763392 5.83696 0.5 6.5 0.5L13.5 0.5C14.163 0.5 14.7989 0.763392 15.2678 1.23223C15.7366 1.70107 16 2.33696 16 3ZM8.146 6.646L10.293 4.5H8.5C8.36739 4.5 8.24022 4.44732 8.14645 4.35355C8.05268 4.25979 8 4.13261 8 4C8 3.86739 8.05268 3.74022 8.14645 3.64645C8.24022 3.55268 8.36739 3.5 8.5 3.5H11.5C11.5655 3.50003 11.6304 3.51294 11.691 3.538C11.8134 3.58931 11.9107 3.68663 11.962 3.809C11.9871 3.86956 12 3.93446 12 4V7C12 7.13261 11.9473 7.25979 11.8536 7.35355C11.7598 7.44732 11.6326 7.5 11.5 7.5C11.3674 7.5 11.2402 7.44732 11.1464 7.35355C11.0527 7.25979 11 7.13261 11 7V5.207L8.854 7.354C8.80748 7.4004 8.75227 7.43718 8.69153 7.46223C8.63079 7.48728 8.56571 7.50012 8.5 7.5C8.43429 7.50012 8.36921 7.48728 8.30847 7.46223C8.24773 7.43718 8.19252 7.4004 8.146 7.354C8.09944 7.30755 8.06249 7.25238 8.03729 7.19163C8.01208 7.13089 7.99911 7.06577 7.99911 7C7.99911 6.93423 8.01208 6.86911 8.03729 6.80837C8.06249 6.74762 8.09944 6.69245 8.146 6.646Z" fill="#006FBF"/>
</svg>
