<svg width="15" height="16" viewBox="0 0 15 16" fill="none" xmlns="http://www.w3.org/2000/svg">
<path d="M7.5005 8.75854C9.78949 8.75854 11.6454 6.90263 11.6454 4.61365C11.6454 2.32466 9.78949 0.46875 7.5005 0.46875C5.21151 0.46875 3.35561 2.32466 3.35561 4.61365C3.35812 6.90163 5.21302 8.75603 7.5005 8.75854ZM7.5005 1.72478C9.09616 1.72478 10.3894 3.01799 10.3894 4.61365C10.3894 6.2093 9.09616 7.50251 7.5005 7.50251C5.90484 7.50251 4.61164 6.2093 4.61164 4.61365C4.61365 3.01899 5.90585 1.72679 7.5005 1.72478ZM14.9854 15.0306C14.2047 11.562 11.1505 9.00975 7.5 9.00975C3.84948 9.00975 0.795317 11.562 0.0241157 14.9794L0.01457 15.0306C0.00552655 15.0708 0 15.1171 0 15.1643C0 15.511 0.281351 15.7923 0.628015 15.7923C0.927452 15.7923 1.17815 15.5823 1.24096 15.3019L1.24196 15.2979C1.8956 12.399 4.44885 10.2658 7.5005 10.2658C10.5521 10.2658 13.1049 12.3985 13.7505 15.2547L13.7585 15.2974C13.8218 15.5818 14.0715 15.7918 14.371 15.7918C14.4187 15.7918 14.4649 15.7863 14.5096 15.7762L14.5056 15.7772C14.7905 15.7144 15 15.4642 15 15.1648C15 15.1171 14.9945 15.0708 14.9844 15.0261L14.9854 15.0306Z" fill="#D7282F"/>
</svg>
