<svg width="40" height="42" viewBox="0 0 40 42" fill="none" xmlns="http://www.w3.org/2000/svg">
<path d="M33.8149 0.414429H38.338C38.7936 0.414429 39.2089 0.601954 39.5099 0.902155C39.8133 1.20638 40 1.62167 40 2.0764V17.9275C40 18.3847 39.8133 18.8007 39.5123 19.1009C39.2113 19.402 38.7952 19.5895 38.338 19.5895H33.8149C33.3594 19.5895 32.9441 19.402 32.6431 19.1018C32.3396 18.7975 32.1529 18.3822 32.1529 17.9275V17.7649C29.1525 17.7553 26.1746 17.8744 23.7996 18.2197C21.8093 18.5102 20.2938 18.9424 19.6539 19.5677C18.9038 20.3001 18.3469 21.9822 17.963 24.3452C17.5541 26.8595 17.3642 30.0861 17.3618 33.7384H17.5131C17.9678 33.7384 18.3831 33.9251 18.6849 34.2261C18.9875 34.5295 19.1751 34.9448 19.1751 35.4003V39.9227C19.1751 40.3782 18.9875 40.7935 18.6873 41.0945C18.3831 41.3979 17.9678 41.5855 17.5131 41.5855H1.66197C1.20724 41.5855 0.791952 41.3979 0.490141 41.0969C0.187525 40.7935 0 40.3782 0 39.9227V35.4003C0 34.9448 0.187525 34.5295 0.487726 34.2285C0.791952 33.9251 1.20724 33.7384 1.66197 33.7384H1.82938C1.83742 27.9927 2.367 22.8354 3.50503 18.5327C4.63823 14.251 6.37908 10.7959 8.81127 8.42087C11.3859 5.90658 15.0221 4.32912 19.2362 3.39793C23.1662 2.52871 27.6072 2.21966 32.1529 2.23173V2.0764C32.1529 1.62167 32.3396 1.20638 32.6406 0.90457C32.9441 0.601954 33.3594 0.414429 33.8149 0.414429ZM32.1529 16.2985V3.69813C27.7014 3.68606 23.3666 3.98545 19.5525 4.82892C15.5936 5.70376 12.1988 7.16453 9.83501 9.47358C7.60322 11.6531 5.99115 14.8788 4.92555 18.9062C3.81811 23.0889 3.30302 28.1207 3.29577 33.7384H15.8962C15.8986 30.004 16.0934 26.6977 16.5143 24.1102C16.9473 21.443 17.6402 19.4816 18.6302 18.515C19.5147 17.6515 21.3111 17.0977 23.5928 16.7653C26.0282 16.4112 29.0801 16.2889 32.1529 16.2985ZM16.7485 35.2104C16.7115 35.216 16.6728 35.2193 16.6342 35.2193L2.56499 35.2225C2.51831 35.2225 2.47324 35.2176 2.42978 35.2104H1.66197C1.61046 35.2104 1.56137 35.2313 1.52676 35.2651C1.49376 35.2989 1.47203 35.3472 1.47203 35.4003V39.9227C1.47203 39.975 1.49376 40.0241 1.52676 40.0579C1.56137 40.0917 1.61046 40.1134 1.66197 40.1134H17.5131C17.5654 40.1134 17.6137 40.0917 17.6483 40.0579C17.6821 40.0241 17.703 39.975 17.703 39.9227V35.4003C17.703 35.3472 17.6821 35.2989 17.6483 35.2651C17.6137 35.2313 17.5654 35.2104 17.5131 35.2104H16.7485ZM33.625 2.84823C33.6314 2.88767 33.6346 2.92791 33.6346 2.96976L33.6378 17.0358C33.6378 17.084 33.6338 17.1299 33.625 17.1758V17.9275C33.625 17.9798 33.6459 18.0281 33.6797 18.0627C33.7135 18.0965 33.7618 18.1174 33.8149 18.1174H38.338C38.3895 18.1174 38.4378 18.0957 38.4724 18.0611C38.5062 18.0265 38.528 17.979 38.528 17.9275V2.0764C38.528 2.02489 38.507 1.9758 38.4732 1.94119C38.4394 1.90819 38.3903 1.88646 38.338 1.88646H33.8149C33.7618 1.88646 33.7135 1.90819 33.6797 1.94119C33.6459 1.9758 33.625 2.02489 33.625 2.0764V2.84823Z" fill="black"/>
</svg>
