<svg width="14" height="13" viewBox="0 0 14 13" fill="none" xmlns="http://www.w3.org/2000/svg">
<path d="M8.13147 3.25H6.83395V5.85H4.23891V7.15H6.83395V9.75H8.13147V7.15H10.7265V5.85H8.13147V3.25ZM7.48271 0C3.90156 0 0.995117 2.912 0.995117 6.5C0.995117 10.088 3.90156 13 7.48271 13C11.0639 13 13.9703 10.088 13.9703 6.5C13.9703 2.912 11.0639 0 7.48271 0ZM7.48271 11.7C4.62168 11.7 2.29264 9.3665 2.29264 6.5C2.29264 3.6335 4.62168 1.3 7.48271 1.3C10.3437 1.3 12.6728 3.6335 12.6728 6.5C12.6728 9.3665 10.3437 11.7 7.48271 11.7Z" fill="#D7282F"/>
</svg>
