<svg width="180" height="30" viewBox="0 0 180 30" fill="none" xmlns="http://www.w3.org/2000/svg">
<path fill-rule="evenodd" clip-rule="evenodd" d="M9.37604 18C9.43816 17.0307 9.47077 16.0274 9.47077 15C9.47077 6.71573 7.35067 0 4.73538 0C2.1201 0 0 6.71573 0 15C0 16.0274 0.0326081 17.0307 0.0947248 18H9.37604Z" fill="#8B0F14"/>
<path fill-rule="evenodd" clip-rule="evenodd" d="M179.376 18C179.438 17.0307 179.471 16.0274 179.471 15C179.471 6.71573 177.351 0 174.735 0C172.12 0 170 6.71573 170 15C170 16.0274 170.033 17.0307 170.095 18H179.376Z" fill="#8B0F14"/>
<path fill-rule="evenodd" clip-rule="evenodd" d="M8.73538 15C8.73538 23.2843 6.61528 30 4 30H175C172.385 30 170.265 23.2843 170.265 15C170.265 6.71573 172.385 0 175 0H4C6.61528 0 8.73538 6.71573 8.73538 15Z" fill="#D7282F"/>
<path d="M60.4502 10.0059C61.7399 10.0059 62.681 10.2839 63.2734 10.8398C63.8659 11.3913 64.1621 12.1523 64.1621 13.123C64.1621 13.5605 64.096 13.9798 63.9639 14.3809C63.8317 14.7773 63.6152 15.1305 63.3145 15.4404C63.0182 15.7503 62.6217 15.9964 62.125 16.1787C61.6283 16.3564 61.0153 16.4453 60.2861 16.4453H59.377V20H57.2578V10.0059H60.4502ZM60.3408 11.7422H59.377V14.709H60.0742C60.4707 14.709 60.8148 14.6566 61.1064 14.5518C61.3981 14.4469 61.6237 14.2829 61.7832 14.0596C61.9427 13.8363 62.0225 13.5492 62.0225 13.1982C62.0225 12.7061 61.8857 12.3415 61.6123 12.1045C61.3389 11.863 60.915 11.7422 60.3408 11.7422ZM75.1201 14.9893C75.1201 15.7594 75.0244 16.4613 74.833 17.0947C74.6416 17.7236 74.3499 18.266 73.958 18.7217C73.5706 19.1774 73.0785 19.5283 72.4814 19.7744C71.8844 20.016 71.1781 20.1367 70.3623 20.1367C69.5465 20.1367 68.8402 20.016 68.2432 19.7744C67.6462 19.5283 67.1517 19.1774 66.7598 18.7217C66.3724 18.266 66.083 17.7214 65.8916 17.0879C65.7002 16.4544 65.6045 15.7503 65.6045 14.9756C65.6045 13.9411 65.7731 13.041 66.1104 12.2754C66.4521 11.5052 66.9762 10.9082 67.6826 10.4844C68.389 10.0605 69.2868 9.84863 70.376 9.84863C71.4606 9.84863 72.3516 10.0605 73.0488 10.4844C73.7507 10.9082 74.2702 11.5052 74.6074 12.2754C74.9492 13.0456 75.1201 13.9502 75.1201 14.9893ZM67.8262 14.9893C67.8262 15.6865 67.9128 16.2881 68.0859 16.7939C68.2637 17.2952 68.5394 17.6826 68.9131 17.9561C69.2868 18.2249 69.7699 18.3594 70.3623 18.3594C70.9639 18.3594 71.4515 18.2249 71.8252 17.9561C72.1989 17.6826 72.4701 17.2952 72.6387 16.7939C72.8118 16.2881 72.8984 15.6865 72.8984 14.9893C72.8984 13.9411 72.7025 13.1162 72.3105 12.5146C71.9186 11.9131 71.2738 11.6123 70.376 11.6123C69.779 11.6123 69.2913 11.749 68.9131 12.0225C68.5394 12.2913 68.2637 12.6787 68.0859 13.1846C67.9128 13.6859 67.8262 14.2874 67.8262 14.9893ZM80.3838 10.0059C81.6735 10.0059 82.6146 10.2839 83.207 10.8398C83.7995 11.3913 84.0957 12.1523 84.0957 13.123C84.0957 13.5605 84.0296 13.9798 83.8975 14.3809C83.7653 14.7773 83.5488 15.1305 83.248 15.4404C82.9518 15.7503 82.5553 15.9964 82.0586 16.1787C81.5618 16.3564 80.9489 16.4453 80.2197 16.4453H79.3105V20H77.1914V10.0059H80.3838ZM80.2744 11.7422H79.3105V14.709H80.0078C80.4043 14.709 80.7484 14.6566 81.04 14.5518C81.3317 14.4469 81.5573 14.2829 81.7168 14.0596C81.8763 13.8363 81.9561 13.5492 81.9561 13.1982C81.9561 12.7061 81.8193 12.3415 81.5459 12.1045C81.2725 11.863 80.8486 11.7422 80.2744 11.7422ZM94.1172 10.0059V16.4727C94.1172 17.1608 93.9645 17.7829 93.6592 18.3389C93.3584 18.8903 92.9004 19.3278 92.2852 19.6514C91.6745 19.9749 90.9043 20.1367 89.9746 20.1367C88.653 20.1367 87.6458 19.7995 86.9531 19.125C86.2604 18.4505 85.9141 17.5573 85.9141 16.4453V10.0059H88.0264V16.124C88.0264 16.9489 88.195 17.5277 88.5322 17.8604C88.8695 18.193 89.3685 18.3594 90.0293 18.3594C90.4941 18.3594 90.8701 18.2796 91.1572 18.1201C91.4489 17.9606 91.6631 17.7145 91.7998 17.3818C91.9365 17.0492 92.0049 16.6253 92.0049 16.1104V10.0059H94.1172ZM96.5645 20V10.0059H98.6836V18.25H102.737V20H96.5645ZM110.599 20L109.874 17.6211H106.23L105.506 20H103.223L106.75 9.96484H109.341L112.882 20H110.599ZM109.368 15.8438L108.644 13.5195C108.598 13.3646 108.536 13.1663 108.459 12.9248C108.386 12.6787 108.311 12.4303 108.233 12.1797C108.16 11.9245 108.101 11.7035 108.056 11.5166C108.01 11.7035 107.946 11.9359 107.864 12.2139C107.787 12.4873 107.712 12.7471 107.639 12.9932C107.566 13.2393 107.513 13.4147 107.481 13.5195L106.764 15.8438H109.368ZM117.059 10.0059C117.965 10.0059 118.713 10.1152 119.301 10.334C119.893 10.5527 120.333 10.8831 120.62 11.3252C120.907 11.7673 121.051 12.3255 121.051 13C121.051 13.4557 120.964 13.8545 120.791 14.1963C120.618 14.5381 120.39 14.8275 120.107 15.0645C119.825 15.3014 119.52 15.4951 119.191 15.6455L122.131 20H119.779L117.394 16.165H116.266V20H114.146V10.0059H117.059ZM116.908 11.7422H116.266V14.4424H116.949C117.651 14.4424 118.152 14.3262 118.453 14.0938C118.758 13.8568 118.911 13.5104 118.911 13.0547C118.911 12.5807 118.747 12.2435 118.419 12.043C118.095 11.8424 117.592 11.7422 116.908 11.7422Z" fill="white"/>
</svg>
