<svg width="61" height="67" viewBox="0 0 61 67" fill="none" xmlns="http://www.w3.org/2000/svg">
<g clip-path="url(#clip0_5053_10318)">
<path d="M35.9446 34.0284C27.6458 34.0284 20.6279 27.9987 19.267 19.7078C18.5198 15.1855 19.694 10.4478 22.4958 6.73309C25.2709 3.01835 29.4604 0.622605 33.97 0.111155C34.0233 0.111155 34.0767 0.0842363 34.1568 0.0573178C34.2101 0.0303994 34.2635 0.0303994 34.3169 0.00348094L34.3969 -0.0234375H37.4656H37.519C37.8392 0.0303994 38.1594 0.111155 38.4796 0.164992C39.1734 0.299584 39.8939 0.434176 40.6143 0.622605C48.1393 2.77608 53.1559 9.72104 52.8357 17.5543C52.4888 25.7644 46.6983 32.4402 38.7998 33.7323C37.8125 33.9476 36.8519 34.0284 35.9446 34.0284ZM35.9179 3.8259C28.7933 3.8259 22.9227 9.69412 22.8694 16.9083C22.8427 20.4346 24.1769 23.7994 26.6585 26.3297C29.1135 28.8331 32.3689 30.2329 35.8379 30.2598H35.8912C43.176 30.2598 48.9398 24.4723 48.9932 17.0698C49.0465 9.85563 43.2294 3.93357 36.0247 3.85282L35.9179 3.8259Z" fill="#D7282F"/>
<path d="M16.1172 53.2498C13.4755 53.2498 11.5809 51.8232 11.0472 49.4274C10.6737 47.8661 11.0206 46.4126 12.0612 45.1205C12.5149 44.5552 12.9685 43.963 13.4221 43.3977L13.5022 43.29C14.2493 42.3209 15.1299 41.2442 15.9571 40.1944C16.1172 39.979 16.1172 39.8983 16.0639 39.7099C13.1553 29.6962 10.22 19.521 7.33815 9.48045C7.31146 9.34586 7.28478 9.31894 7.28478 9.31894C7.28478 9.31894 7.23141 9.31894 7.15136 9.31894H7.12467C6.43088 9.31894 5.65704 9.34586 4.74978 9.34586C4.13605 9.34586 3.52231 9.34586 2.90857 9.34586H2.13473C0.880577 9.34586 0 8.56522 0 7.43465C0 6.33099 0.880577 5.55036 2.13473 5.52344C3.17542 5.52344 4.24278 5.52344 5.28346 5.52344C6.35083 5.52344 7.44488 5.52344 8.51225 5.52344C9.65967 5.52344 10.2467 5.98105 10.5936 7.11163L10.7804 7.75767C11.0739 8.72673 11.3675 9.74963 11.6343 10.7725C11.6877 11.0148 11.6877 11.0148 11.9011 11.0148H11.9278C12.5149 10.9879 13.182 10.9879 13.9825 10.9879C14.4094 10.9879 14.8631 10.9879 15.29 10.9879C15.717 10.9879 16.1706 10.9879 16.5976 10.9879H16.6509C17.5582 10.9879 18.1986 11.3647 18.5455 12.0646C18.839 12.6568 18.8123 13.3029 18.4921 13.8682C18.1452 14.4604 17.4781 14.8103 16.731 14.8372C16.2773 14.8372 15.7703 14.8641 15.1566 14.8641C14.783 14.8641 14.4094 14.8641 14.0359 14.8641C13.6623 14.8641 13.2887 14.8641 12.9151 14.8641H12.7817L19.6129 38.4985C21.1339 38.4985 30.9536 38.4985 32.9549 38.4985C37.8115 38.4985 41.4939 38.4985 44.9628 38.5254C46.3771 38.5254 47.1776 38.014 47.7647 36.7219C49.4724 33.0072 51.2069 29.3193 52.8613 25.7123L52.9414 25.5238C54.2222 22.7512 55.5297 20.0056 56.8106 17.233C56.9707 16.883 57.0507 16.4254 57.0774 15.9678C57.0774 15.2948 56.6772 14.8911 55.93 14.8641C55.7966 14.8641 55.6899 14.8641 55.5564 14.8641C55.2095 14.8641 54.836 14.8372 54.4624 14.7834C53.6352 14.6219 53.0214 13.8143 53.0481 12.8991C53.0748 12.0108 53.6885 11.2571 54.4891 11.1225C54.8893 11.0417 55.3163 11.0148 55.7165 11.0148C58.2515 11.0148 60.1461 12.4415 60.7865 14.8372C61.1067 16.1024 61 17.3676 60.4663 18.525C59.7192 20.1402 58.1982 23.4242 58.1982 23.4242C55.8233 28.5118 53.395 33.7878 50.9401 38.9292C49.8994 41.1365 47.9781 42.3209 45.4164 42.3209C41.8675 42.3209 38.3185 42.3209 34.7428 42.3209C29.6728 42.3209 24.6295 42.3209 19.5595 42.3209C19.2126 42.3209 19.0525 42.4017 18.8657 42.644C17.5582 44.3398 16.224 46.0088 15.0766 47.4354C14.6496 47.9738 14.5429 48.4045 14.783 48.8621C14.9965 49.3197 15.3968 49.5082 16.0639 49.5082C23.5354 49.5082 30.9803 49.5082 38.4519 49.5082H53.0214C53.0214 49.5082 53.315 49.5082 53.395 49.5082C53.5551 49.5082 53.6619 49.5082 53.7686 49.5351C54.7826 49.6428 55.5031 50.4503 55.5031 51.4463C55.4764 52.4423 54.7292 53.2229 53.7152 53.3037C53.5818 53.3037 53.4484 53.3037 53.315 53.3037H33.8088C33.8355 53.2498 22.0144 53.2498 16.1172 53.2498Z" fill="#231F20"/>
<path d="M16.8379 67.0048C13.5558 66.9779 10.9141 64.2591 10.9141 60.9481C10.9407 57.6372 13.5825 54.9453 16.8646 54.9453H16.8913C20.2535 54.9722 22.8686 57.6372 22.8686 61.0289C22.8419 64.3129 20.1735 67.0048 16.8913 67.0048H16.8379ZM16.8646 58.7677C15.6638 58.7677 14.7032 59.7368 14.6765 60.9481C14.6765 62.1595 15.6372 63.1554 16.8379 63.1824H16.8913C18.0387 63.1824 19.0527 62.1595 19.0527 61.002C19.0794 59.7906 18.0921 58.7677 16.8646 58.7677Z" fill="#231F20"/>
<path d="M49.4449 67.0013C46.1628 66.9475 43.5477 64.2287 43.5744 60.8908C43.6011 57.5529 46.2162 54.9688 49.525 54.9688H49.605C52.9672 55.0226 55.5556 57.7144 55.5289 61.1062C55.4756 64.3633 52.8071 67.0282 49.525 67.0282L49.4449 67.0013ZM49.5517 58.7643C48.3509 58.7643 47.3636 59.7333 47.3636 60.9446C47.3636 62.156 48.3242 63.152 49.5517 63.1789H49.5784C50.7258 63.1789 51.7398 62.156 51.7398 60.9716C51.7398 59.7602 50.7525 58.7643 49.5517 58.7643Z" fill="#231F20"/>
<path d="M40.0541 23.0161C39.4937 23.0161 38.96 22.7469 38.4797 22.2624C38.0261 21.8047 37.5724 21.3471 37.1188 20.8895L36.9854 20.7549C36.2649 20.0012 35.5178 19.2744 34.7706 18.5476C34.2636 18.0362 34.0234 17.4709 34.0234 16.7172C34.0234 15.3982 34.0234 14.1061 34.0234 12.7871C34.0234 11.9795 34.0234 11.172 34.0234 10.3375C34.0234 9.07233 34.7973 8.21094 35.918 8.21094C37.0387 8.21094 37.7859 9.07233 37.8126 10.2837C37.8126 10.9028 37.8126 11.5488 37.8126 12.1679C37.8126 12.4641 37.8126 12.7602 37.8126 13.0563C37.8126 13.2985 37.8126 13.5408 37.8126 13.7561V13.81C37.8126 14.4291 37.8126 15.0751 37.7859 15.6943C37.7592 16.0173 37.866 16.2326 38.1328 16.5018C38.9867 17.3363 39.8139 18.1708 40.6411 19.0052L41.1214 19.4898C41.6017 19.9743 41.8686 20.5665 41.8419 21.1049C41.8419 21.5894 41.6284 22.047 41.2548 22.397C40.9346 22.8546 40.5077 23.0161 40.0541 23.0161Z" fill="#D7282F"/>
</g>
<defs>
<clipPath id="clip0_5053_10318">
<rect width="61" height="67" fill="white"/>
</clipPath>
</defs>
</svg>
