<svg width="275" height="26" viewBox="0 0 275 26" fill="none" xmlns="http://www.w3.org/2000/svg">
<path d="M5.71875 12.9062H7.3125C8.80208 12.9062 9.91667 12.6146 10.6562 12.0312C11.3958 11.4375 11.7656 10.5781 11.7656 9.45312C11.7656 8.31771 11.4531 7.47917 10.8281 6.9375C10.2135 6.39583 9.24479 6.125 7.92188 6.125H5.71875V12.9062ZM16.6562 9.28125C16.6562 11.7396 15.8854 13.6198 14.3438 14.9219C12.8125 16.224 10.6302 16.875 7.79688 16.875H5.71875V25H0.875V2.15625H8.17188C10.9427 2.15625 13.0469 2.75521 14.4844 3.95312C15.9323 5.14062 16.6562 6.91667 16.6562 9.28125ZM30.3438 7.20312C30.9896 7.20312 31.526 7.25 31.9531 7.34375L31.5938 11.8125C31.2083 11.7083 30.7396 11.6562 30.1875 11.6562C28.6667 11.6562 27.4792 12.0469 26.625 12.8281C25.7812 13.6094 25.3594 14.7031 25.3594 16.1094V25H20.5938V7.53125H24.2031L24.9062 10.4688H25.1406C25.6823 9.48958 26.4115 8.70312 27.3281 8.10938C28.2552 7.50521 29.2604 7.20312 30.3438 7.20312ZM34.9219 3.01562C34.9219 1.46354 35.7865 0.6875 37.5156 0.6875C39.2448 0.6875 40.1094 1.46354 40.1094 3.01562C40.1094 3.75521 39.8906 4.33333 39.4531 4.75C39.026 5.15625 38.3802 5.35938 37.5156 5.35938C35.7865 5.35938 34.9219 4.57812 34.9219 3.01562ZM39.8906 25H35.125V7.53125H39.8906V25ZM52 25.3125C46.5625 25.3125 43.8438 22.3281 43.8438 16.3594C43.8438 13.3906 44.5833 11.125 46.0625 9.5625C47.5417 7.98958 49.6615 7.20312 52.4219 7.20312C54.4427 7.20312 56.2552 7.59896 57.8594 8.39062L56.4531 12.0781C55.7031 11.776 55.0052 11.5312 54.3594 11.3438C53.7135 11.1458 53.0677 11.0469 52.4219 11.0469C49.9427 11.0469 48.7031 12.8073 48.7031 16.3281C48.7031 19.7448 49.9427 21.4531 52.4219 21.4531C53.3385 21.4531 54.1875 21.3333 54.9688 21.0938C55.75 20.8438 56.5312 20.4583 57.3125 19.9375V24.0156C56.5417 24.5052 55.7604 24.8438 54.9688 25.0312C54.1875 25.2188 53.1979 25.3125 52 25.3125ZM68.6094 10.5938C67.599 10.5938 66.8073 10.9167 66.2344 11.5625C65.6615 12.1979 65.3333 13.1042 65.25 14.2812H71.9375C71.9167 13.1042 71.6094 12.1979 71.0156 11.5625C70.4219 10.9167 69.6198 10.5938 68.6094 10.5938ZM69.2812 25.3125C66.4688 25.3125 64.2708 24.5365 62.6875 22.9844C61.1042 21.4323 60.3125 19.2344 60.3125 16.3906C60.3125 13.4635 61.0417 11.2031 62.5 9.60938C63.9688 8.00521 65.9948 7.20312 68.5781 7.20312C71.0469 7.20312 72.9688 7.90625 74.3438 9.3125C75.7188 10.7188 76.4062 12.6615 76.4062 15.1406V17.4531H65.1406C65.1927 18.8073 65.5938 19.8646 66.3438 20.625C67.0938 21.3854 68.1458 21.7656 69.5 21.7656C70.5521 21.7656 71.5469 21.6562 72.4844 21.4375C73.4219 21.2188 74.401 20.8698 75.4219 20.3906V24.0781C74.5885 24.4948 73.6979 24.8021 72.75 25C71.8021 25.2083 70.6458 25.3125 69.2812 25.3125ZM107.562 2.15625V16.9375C107.562 18.625 107.182 20.1042 106.422 21.375C105.672 22.6458 104.583 23.6198 103.156 24.2969C101.729 24.974 100.042 25.3125 98.0938 25.3125C95.1562 25.3125 92.875 24.5625 91.25 23.0625C89.625 21.5521 88.8125 19.4896 88.8125 16.875V2.15625H93.6406V16.1406C93.6406 17.901 93.9948 19.1927 94.7031 20.0156C95.4115 20.8385 96.5833 21.25 98.2188 21.25C99.8021 21.25 100.948 20.8385 101.656 20.0156C102.375 19.1823 102.734 17.8802 102.734 16.1094V2.15625H107.562ZM128.906 25H124.141V14.7969C124.141 13.5365 123.917 12.5938 123.469 11.9688C123.021 11.3333 122.307 11.0156 121.328 11.0156C119.995 11.0156 119.031 11.4635 118.438 12.3594C117.844 13.2448 117.547 14.7188 117.547 16.7812V25H112.781V7.53125H116.422L117.062 9.76562H117.328C117.859 8.92188 118.589 8.28646 119.516 7.85938C120.453 7.42188 121.516 7.20312 122.703 7.20312C124.734 7.20312 126.276 7.75521 127.328 8.85938C128.38 9.95312 128.906 11.5365 128.906 13.6094V25ZM144.906 25L143.984 22.625H143.859C143.057 23.6354 142.229 24.3385 141.375 24.7344C140.531 25.1198 139.427 25.3125 138.062 25.3125C136.385 25.3125 135.062 24.8333 134.094 23.875C133.135 22.9167 132.656 21.5521 132.656 19.7812C132.656 17.9271 133.302 16.5625 134.594 15.6875C135.896 14.8021 137.854 14.3125 140.469 14.2188L143.5 14.125V13.3594C143.5 11.5885 142.594 10.7031 140.781 10.7031C139.385 10.7031 137.745 11.125 135.859 11.9688L134.281 8.75C136.292 7.69792 138.521 7.17188 140.969 7.17188C143.312 7.17188 145.109 7.68229 146.359 8.70312C147.609 9.72396 148.234 11.276 148.234 13.3594V25H144.906ZM143.5 16.9062L141.656 16.9688C140.271 17.0104 139.24 17.2604 138.562 17.7188C137.885 18.1771 137.547 18.875 137.547 19.8125C137.547 21.1562 138.318 21.8281 139.859 21.8281C140.964 21.8281 141.844 21.5104 142.5 20.875C143.167 20.2396 143.5 19.3958 143.5 18.3438V16.9062ZM157.312 25L150.656 7.53125H155.641L159.016 17.4844C159.391 18.7448 159.625 19.9375 159.719 21.0625H159.812C159.865 20.0625 160.099 18.8698 160.516 17.4844L163.875 7.53125H168.859L162.203 25H157.312ZM182.469 25L181.547 22.625H181.422C180.62 23.6354 179.792 24.3385 178.938 24.7344C178.094 25.1198 176.99 25.3125 175.625 25.3125C173.948 25.3125 172.625 24.8333 171.656 23.875C170.698 22.9167 170.219 21.5521 170.219 19.7812C170.219 17.9271 170.865 16.5625 172.156 15.6875C173.458 14.8021 175.417 14.3125 178.031 14.2188L181.062 14.125V13.3594C181.062 11.5885 180.156 10.7031 178.344 10.7031C176.948 10.7031 175.307 11.125 173.422 11.9688L171.844 8.75C173.854 7.69792 176.083 7.17188 178.531 7.17188C180.875 7.17188 182.672 7.68229 183.922 8.70312C185.172 9.72396 185.797 11.276 185.797 13.3594V25H182.469ZM181.062 16.9062L179.219 16.9688C177.833 17.0104 176.802 17.2604 176.125 17.7188C175.448 18.1771 175.109 18.875 175.109 19.8125C175.109 21.1562 175.88 21.8281 177.422 21.8281C178.526 21.8281 179.406 21.5104 180.062 20.875C180.729 20.2396 181.062 19.3958 181.062 18.3438V16.9062ZM190.516 3.01562C190.516 1.46354 191.38 0.6875 193.109 0.6875C194.839 0.6875 195.703 1.46354 195.703 3.01562C195.703 3.75521 195.484 4.33333 195.047 4.75C194.62 5.15625 193.974 5.35938 193.109 5.35938C191.38 5.35938 190.516 4.57812 190.516 3.01562ZM195.484 25H190.719V7.53125H195.484V25ZM205.266 25H200.5V0.6875H205.266V25ZM221.375 25L220.453 22.625H220.328C219.526 23.6354 218.698 24.3385 217.844 24.7344C217 25.1198 215.896 25.3125 214.531 25.3125C212.854 25.3125 211.531 24.8333 210.562 23.875C209.604 22.9167 209.125 21.5521 209.125 19.7812C209.125 17.9271 209.771 16.5625 211.062 15.6875C212.365 14.8021 214.323 14.3125 216.938 14.2188L219.969 14.125V13.3594C219.969 11.5885 219.062 10.7031 217.25 10.7031C215.854 10.7031 214.214 11.125 212.328 11.9688L210.75 8.75C212.76 7.69792 214.99 7.17188 217.438 7.17188C219.781 7.17188 221.578 7.68229 222.828 8.70312C224.078 9.72396 224.703 11.276 224.703 13.3594V25H221.375ZM219.969 16.9062L218.125 16.9688C216.74 17.0104 215.708 17.2604 215.031 17.7188C214.354 18.1771 214.016 18.875 214.016 19.8125C214.016 21.1562 214.786 21.8281 216.328 21.8281C217.432 21.8281 218.312 21.5104 218.969 20.875C219.635 20.2396 219.969 19.3958 219.969 18.3438V16.9062ZM239.344 7.20312C241.406 7.20312 243.021 8.01042 244.188 9.625C245.354 11.2292 245.938 13.4323 245.938 16.2344C245.938 19.1198 245.333 21.3542 244.125 22.9375C242.927 24.5208 241.292 25.3125 239.219 25.3125C237.167 25.3125 235.557 24.5677 234.391 23.0781H234.062L233.266 25H229.625V0.6875H234.391V6.34375C234.391 7.0625 234.328 8.21354 234.203 9.79688H234.391C235.505 8.06771 237.156 7.20312 239.344 7.20312ZM237.812 11.0156C236.635 11.0156 235.776 11.3802 235.234 12.1094C234.693 12.8281 234.411 14.0208 234.391 15.6875V16.2031C234.391 18.0781 234.667 19.4219 235.219 20.2344C235.781 21.0469 236.667 21.4531 237.875 21.4531C238.854 21.4531 239.63 21.0052 240.203 20.1094C240.786 19.2031 241.078 17.8906 241.078 16.1719C241.078 14.4531 240.786 13.1667 240.203 12.3125C239.62 11.4479 238.823 11.0156 237.812 11.0156ZM254.641 25H249.875V0.6875H254.641V25ZM266.891 10.5938C265.88 10.5938 265.089 10.9167 264.516 11.5625C263.943 12.1979 263.615 13.1042 263.531 14.2812H270.219C270.198 13.1042 269.891 12.1979 269.297 11.5625C268.703 10.9167 267.901 10.5938 266.891 10.5938ZM267.562 25.3125C264.75 25.3125 262.552 24.5365 260.969 22.9844C259.385 21.4323 258.594 19.2344 258.594 16.3906C258.594 13.4635 259.323 11.2031 260.781 9.60938C262.25 8.00521 264.276 7.20312 266.859 7.20312C269.328 7.20312 271.25 7.90625 272.625 9.3125C274 10.7188 274.688 12.6615 274.688 15.1406V17.4531H263.422C263.474 18.8073 263.875 19.8646 264.625 20.625C265.375 21.3854 266.427 21.7656 267.781 21.7656C268.833 21.7656 269.828 21.6562 270.766 21.4375C271.703 21.2188 272.682 20.8698 273.703 20.3906V24.0781C272.87 24.4948 271.979 24.8021 271.031 25C270.083 25.2083 268.927 25.3125 267.562 25.3125Z" fill="#231F20"/>
</svg>
