<svg width="66" height="66" viewBox="0 0 66 66" fill="none" xmlns="http://www.w3.org/2000/svg">
<path d="M65.0005 24.8466C65.0005 25.1487 65.0005 25.4349 65.0005 25.737C64.0463 28.2015 63.092 30.682 62.1537 33.1465C62.0742 33.3373 62.0742 33.6076 62.1537 33.8143C63.092 36.2947 64.0463 38.7593 65.0164 41.2238C65.0164 41.5259 65.0164 41.8121 65.0164 42.1142C64.5234 42.6707 64.094 43.3067 63.5214 43.7837C61.8833 45.1829 60.1657 46.5027 58.5117 47.886C58.2731 48.0927 58.0664 48.4425 58.0027 48.7446C57.6051 51.0342 57.2393 53.3238 56.8894 55.6294C56.6668 57.0763 56.0942 57.6328 54.647 57.8554C52.3568 58.2052 50.0507 58.5709 47.7605 58.9684C47.4583 59.0161 47.1243 59.2069 46.9335 59.4295C45.518 61.1308 44.1503 62.8958 42.7189 64.5812C42.2736 65.1059 41.6533 65.5034 41.1285 65.9645C40.8263 65.9645 40.54 65.9645 40.2379 65.9645C37.7727 65.0105 35.2917 64.0565 32.8107 63.1184C32.6357 63.0548 32.3813 63.0389 32.2063 63.1025C29.7094 64.0565 27.2283 65.0105 24.7314 65.9804C24.4292 65.9804 24.1429 65.9804 23.8408 65.9804C23.3318 65.5511 22.7434 65.1854 22.3299 64.6925C20.8667 62.9594 19.4671 61.1785 18.0358 59.4295C17.8608 59.2069 17.5427 59.032 17.2724 58.9843C14.9345 58.5868 12.5966 58.2211 10.2587 57.8554C8.90682 57.6487 8.31837 57.0286 8.09571 55.6771C7.72992 53.3397 7.36413 51.0024 6.96652 48.6651C6.91881 48.4107 6.75977 48.1086 6.55302 47.9496C4.75586 46.4709 2.94279 45.008 1.14563 43.5452C-0.0630827 42.5594 -0.253932 41.8757 0.302711 40.4447C1.11382 38.33 1.90902 36.2152 2.73604 34.1164C2.91098 33.6712 2.92689 33.2896 2.75194 32.8444C1.90902 30.7615 1.11382 28.6467 0.302711 26.532C-0.253932 25.0692 -0.0789868 24.4014 1.12972 23.4315C2.92689 21.9846 4.72405 20.5376 6.4894 19.0589C6.72796 18.8681 6.91881 18.5342 6.98243 18.248C7.38003 15.9107 7.74582 13.5734 8.11162 11.236C8.31837 9.93221 8.93863 9.3121 10.2428 9.1054C12.5807 8.73969 14.9186 8.37399 17.2565 7.97648C17.5268 7.92878 17.8449 7.75388 18.0199 7.53128C19.4989 5.73455 20.9621 3.92193 22.4253 2.12521C23.3954 0.916794 24.0634 0.741892 25.5266 1.3143C27.61 2.10931 29.7094 2.90432 31.7928 3.73113C32.2858 3.92193 32.6993 3.90603 33.1765 3.71523C35.2599 2.88842 37.3592 2.09341 39.4427 1.2984C40.874 0.741892 41.5579 0.932695 42.544 2.14111C44.0071 3.95373 45.4703 5.76635 46.9494 7.56308C47.1084 7.76978 47.4106 7.92878 47.6651 7.97648C50.0189 8.37399 52.3727 8.75559 54.7424 9.1213C56.0147 9.328 56.6509 9.94811 56.8576 11.2042C57.2234 13.5415 57.5892 15.8789 57.9868 18.2162C58.0345 18.5342 58.2572 18.884 58.4958 19.0748C60.1498 20.4581 61.8515 21.7779 63.5055 23.1771C64.0781 23.6541 64.5075 24.2901 65.0005 24.8466ZM25.0177 5.46425C24.9063 5.59145 24.7473 5.71865 24.636 5.87766C23.3159 7.49948 21.98 9.1213 20.6917 10.7749C20.151 11.4586 19.4989 11.7925 18.656 11.9197C16.5567 12.2218 14.4733 12.5875 12.3898 12.9055C12.0558 12.9532 11.9286 13.0645 11.8809 13.3984C11.5628 15.4814 11.2129 17.5643 10.8948 19.6631C10.7676 20.5058 10.4177 21.1577 9.74974 21.6825C8.12752 22.9545 6.56892 24.2742 4.9467 25.5303C4.51729 25.8642 4.46958 26.1504 4.66043 26.6274C5.42383 28.5513 6.13951 30.4912 6.90291 32.4151C7.18918 33.1465 7.18918 33.8302 6.90291 34.5616C6.13951 36.4696 5.43973 38.3936 4.67633 40.2857C4.46958 40.7945 4.50139 41.0807 4.96261 41.4464C6.56892 42.6866 8.11162 44.0222 9.71793 45.2624C10.4177 45.803 10.7676 46.4709 10.8948 47.3454C11.197 49.4124 11.5628 51.4794 11.865 53.5464C11.9127 53.9122 12.0558 54.0235 12.4057 54.0871C14.4733 54.4051 16.5408 54.7549 18.6083 55.057C19.4671 55.1842 20.1351 55.534 20.6917 56.2336C21.9323 57.8395 23.2523 59.3818 24.5087 60.9877C24.8268 61.4011 25.0972 61.5124 25.6061 61.3057C27.5305 60.5266 29.4708 59.827 31.3952 59.0638C32.1586 58.7617 32.8584 58.7935 33.6059 59.0797C35.5303 59.827 37.4706 60.5425 39.395 61.3216C39.8403 61.4965 40.0947 61.4488 40.3969 61.0672C41.6851 59.4295 43.0211 57.8554 44.2934 56.2177C44.8342 55.534 45.4862 55.2001 46.3291 55.0729C48.4285 54.7708 50.496 54.4051 52.5953 54.0871C52.9293 54.0394 53.0407 53.9122 53.0884 53.5782C53.4065 51.5112 53.7563 49.4442 54.0585 47.3772C54.1858 46.5186 54.5197 45.8349 55.2195 45.2942C56.8417 44.0381 58.4003 42.7025 60.0226 41.4464C60.452 41.1125 60.4838 40.8263 60.2929 40.3493C59.5295 38.4413 58.8297 36.5173 58.0664 34.6252C57.7642 33.8779 57.7483 33.1783 58.0504 32.4151C58.8297 30.4753 59.5454 28.5036 60.3088 26.5638C60.4838 26.1345 60.4361 25.9119 60.0703 25.6257C58.448 24.3378 56.8576 23.0022 55.2195 21.7302C54.5038 21.1736 54.1539 20.474 54.0267 19.5836C53.7404 17.5325 53.3746 15.4973 53.0725 13.4461C53.0248 13.0804 52.8975 12.9691 52.5317 12.9055C50.4483 12.5875 48.3649 12.2377 46.2655 11.9197C45.4544 11.7925 44.8023 11.4586 44.2934 10.8067C43.0211 9.169 41.6692 7.59488 40.3969 5.95716C40.0629 5.54375 39.8085 5.51195 39.3472 5.68685C37.4387 6.45006 35.5144 7.14967 33.6218 7.91288C32.8425 8.23088 32.1268 8.23088 31.3475 7.92878C29.4072 7.14967 27.451 6.41826 25.4948 5.67095C25.3835 5.59145 25.2403 5.54375 25.0177 5.46425Z" fill="#231F20"/>
<path d="M30.4565 21.3608C30.4565 20.7884 30.4406 20.0729 30.4565 19.3415C30.4724 18.1331 31.3313 17.2427 32.4605 17.2268C33.6215 17.2109 34.4962 18.1013 34.5121 19.3415C34.528 20.057 34.5121 20.7725 34.5121 21.329C35.6572 21.9173 36.7387 22.4102 37.7247 23.0303C38.7903 23.7141 38.997 24.9543 38.3291 25.8924C37.6611 26.8464 36.4683 27.0372 35.4186 26.3217C33.5896 25.0656 31.6971 24.9861 29.8204 26.1468C27.9596 27.2916 27.9914 29.454 29.8204 30.6624C30.7269 31.2507 31.7289 31.4097 32.7785 31.4574C35.2119 31.5529 37.3112 32.4115 38.9493 34.2718C41.5417 37.2292 41.0328 41.6495 37.7724 43.8914C36.7864 44.5592 35.6731 45.0203 34.528 45.6245C34.528 46.1969 34.5439 46.9124 34.528 47.6279C34.4962 48.8364 33.6533 49.7268 32.5241 49.7427C31.379 49.7586 30.4884 48.8523 30.4724 47.6279C30.4565 46.9124 30.4724 46.1969 30.4724 45.6404C29.3274 45.0521 28.2459 44.5751 27.2598 43.955C26.1942 43.2872 25.9875 42.047 26.6555 41.093C27.3234 40.139 28.5481 39.9164 29.5659 40.6796C31.2517 41.9357 33.6533 41.9039 35.2278 40.8227C36.9931 39.6142 36.9931 37.5631 35.2278 36.3706C34.3053 35.7346 33.2557 35.5756 32.1583 35.5279C29.8045 35.4325 27.7369 34.5898 26.1306 32.8249C23.4269 29.8197 23.9359 25.3518 27.2757 23.078C28.2141 22.3784 29.3274 21.9332 30.4565 21.3608Z" fill="#231F20"/>
<line x1="5.18574" y1="2.23223" x2="64.1857" y2="61.2322" stroke="#D7282F" stroke-width="5"/>
</svg>
