<svg width="96" height="96" viewBox="0 0 96 96" fill="none" xmlns="http://www.w3.org/2000/svg">
<path d="M41.4797 4.05469H12.2227C10.0586 4.05861 7.98434 4.92 6.45412 6.45022C4.92391 7.98043 4.06251 10.0547 4.05859 12.2188V41.4758C4.05859 42.0663 4.29318 42.6327 4.71074 43.0503C5.12829 43.4678 5.69464 43.7023 6.28516 43.7023H35.5422C37.7074 43.7023 39.7839 42.8421 41.3151 41.3112C42.8461 39.78 43.7062 37.7035 43.7062 35.5383V6.28125C43.7062 5.69074 43.4717 5.12439 43.0542 4.70683C42.6366 4.28928 42.0702 4.05469 41.4797 4.05469ZM39.2531 35.5383C39.2531 36.0256 39.1571 36.5082 38.9706 36.9584C38.7842 37.4086 38.5108 37.8177 38.1663 38.1624C37.8216 38.5069 37.4125 38.7803 36.9623 38.9667C36.5121 39.1532 36.0295 39.2492 35.5422 39.2492H8.51172V12.2188C8.51172 11.2345 8.90269 10.2907 9.59862 9.59472C10.2946 8.89878 11.2385 8.50781 12.2227 8.50781H39.2531V35.5383Z" fill="#9A9A9A"/>
<path d="M35.5422 51.9844H6.28516C5.69464 51.9844 5.12829 52.2191 4.71074 52.6366C4.29318 53.0542 4.05859 53.6205 4.05859 54.2109V83.468C4.06251 85.632 4.92391 87.7063 6.45412 89.2365C7.98434 90.7668 10.0586 91.6282 12.2227 91.632H41.4797C42.0702 91.632 42.6366 91.3975 43.0542 90.9799C43.4717 90.5624 43.7062 89.9961 43.7062 89.4055V60.1484C43.7062 57.9832 42.8461 55.9067 41.3151 54.3757C39.7839 52.8446 37.7074 51.9844 35.5422 51.9844ZM39.2531 87.1789H12.2227C11.2385 87.1789 10.2946 86.7879 9.59862 86.092C8.90269 85.3962 8.51172 84.4523 8.51172 83.468V56.4375H35.5422C36.0295 56.4375 36.5121 56.5335 36.9623 56.72C37.4125 56.9066 37.8216 57.1798 38.1663 57.5245C38.5108 57.869 38.7842 58.2781 38.9706 58.7283C39.1571 59.1785 39.2531 59.6611 39.2531 60.1484V87.1789Z" fill="#9A9A9A"/>
<path d="M89.4094 51.9844H60.1523C57.9871 51.9844 55.9106 52.8446 54.3796 54.3757C52.8485 55.9067 51.9883 57.9832 51.9883 60.1484V89.4055C51.9883 89.9961 52.223 90.5624 52.6405 90.9799C53.0581 91.3975 53.6244 91.632 54.2148 91.632H83.4719C85.6359 91.6282 87.7102 90.7668 89.2405 89.2365C90.7707 87.7063 91.6321 85.632 91.6359 83.468V54.2109C91.6359 53.6205 91.4014 53.0542 90.9838 52.6366C90.5663 52.2191 90 51.9844 89.4094 51.9844ZM87.1828 83.468C87.1828 84.4523 86.7918 85.3962 86.096 86.092C85.4001 86.7879 84.4562 87.1789 83.4719 87.1789H56.4414V60.1484C56.4414 59.1643 56.8324 58.2204 57.5284 57.5245C58.2243 56.8285 59.1682 56.4375 60.1523 56.4375H87.1828V83.468Z" fill="#9A9A9A"/>
<path d="M60.1523 32.05H63.6406V35.5383C63.6406 37.7035 64.5008 39.78 66.0318 41.3112C67.5629 42.8421 69.6394 43.7023 71.8047 43.7023C73.9699 43.7023 76.0466 42.8421 77.5776 41.3112C79.1087 39.78 79.9687 37.7035 79.9687 35.5383V32.05H83.4719C85.6371 32.05 87.7138 31.1898 89.2448 29.6588C90.7759 28.1277 91.6359 26.0512 91.6359 23.8859C91.6359 21.7207 90.7759 19.6442 89.2448 18.1131C87.7138 16.5821 85.6371 15.7219 83.4719 15.7219H79.9687V12.2188C79.9687 10.0535 79.1087 7.97694 77.5776 6.44588C76.0466 4.91482 73.9699 4.05469 71.8047 4.05469C69.6394 4.05469 67.5629 4.91482 66.0318 6.44588C64.5008 7.97694 63.6406 10.0535 63.6406 12.2188V15.7219H60.1523C57.9871 15.7219 55.9106 16.5821 54.3796 18.1131C52.8485 19.6442 51.9883 21.7207 51.9883 23.8859C51.9883 26.0512 52.8485 28.1277 54.3796 29.6588C55.9106 31.1898 57.9871 32.05 60.1523 32.05ZM60.1523 20.175H65.8672C66.4578 20.175 67.0241 19.9405 67.4417 19.5229C67.8592 19.1054 68.0937 18.5389 68.0937 17.9484V12.2188C68.0937 11.2345 68.4847 10.2907 69.1808 9.59472C69.8766 8.89878 70.8205 8.50781 71.8047 8.50781C72.789 8.50781 73.7329 8.89878 74.4288 9.59472C75.1246 10.2907 75.5156 11.2345 75.5156 12.2188V17.9484C75.5156 18.5389 75.7503 19.1054 76.1679 19.5229C76.5854 19.9405 77.1517 20.175 77.7422 20.175H83.4719C84.4562 20.175 85.4001 20.566 86.096 21.2619C86.7918 21.9579 87.1828 22.9018 87.1828 23.8859C87.1828 24.8701 86.7918 25.814 86.096 26.51C85.4001 27.2059 84.4562 27.5969 83.4719 27.5969H77.7422C77.1517 27.5969 76.5854 27.8314 76.1679 28.249C75.7503 28.6665 75.5156 29.233 75.5156 29.8234V35.5383C75.5156 36.5224 75.1246 37.4663 74.4288 38.1624C73.7329 38.8582 72.789 39.2492 71.8047 39.2492C70.8205 39.2492 69.8766 38.8582 69.1808 38.1624C68.4847 37.4663 68.0937 36.5224 68.0937 35.5383V29.8234C68.0937 29.233 67.8592 28.6665 67.4417 28.249C67.0241 27.8314 66.4578 27.5969 65.8672 27.5969H60.1523C59.1682 27.5969 58.2243 27.2059 57.5284 26.51C56.8324 25.814 56.4414 24.8701 56.4414 23.8859C56.4414 22.9018 56.8324 21.9579 57.5284 21.2619C58.2243 20.566 59.1682 20.175 60.1523 20.175Z" fill="#9A9A9A"/>
</svg>
