<svg width="67" height="66" viewBox="0 0 67 66" fill="none" xmlns="http://www.w3.org/2000/svg">
<mask id="path-1-inside-1_2536_17193" fill="white">
<path d="M56.1462 14.2139C55.7283 13.998 55.258 13.9046 54.7893 13.9443C54.3206 13.9841 53.8728 14.1555 53.4972 14.4387L44.306 21.2377V16.5257C44.2873 16.0412 44.1379 15.5708 43.8737 15.1642C43.6095 14.7576 43.2402 14.43 42.8051 14.2162C42.3699 14.0023 41.885 13.91 41.4017 13.9492C40.9184 13.9884 40.4547 14.1575 40.0596 14.4387L30.8123 21.2377V16.5177C30.808 15.8307 30.5321 15.1733 30.0448 14.689C29.5575 14.2047 28.8984 13.9329 28.2114 13.9329C27.657 13.9335 27.1172 14.1106 26.6702 14.4387L17.3827 21.2618V3.16841C17.3833 2.83963 17.3165 2.51421 17.1866 2.21221C17.0566 1.9102 16.8662 1.638 16.6271 1.41238C16.3879 1.18677 16.1051 1.01251 15.796 0.900355C15.487 0.788198 15.1582 0.740513 14.83 0.760241H3.23869C2.90921 0.738225 2.57871 0.784209 2.26775 0.895334C1.95679 1.00646 1.672 1.18035 1.4311 1.4062C1.19019 1.63206 0.998303 1.90504 0.867367 2.20819C0.736432 2.51135 0.669244 2.83819 0.669978 3.16841V60.2421C0.665469 60.9337 0.931651 61.5997 1.41164 62.0977C1.89163 62.5957 2.54736 62.8862 3.23869 62.9071H35.1149C35.0583 62.5513 35.0288 62.1917 35.0266 61.8315C35.119 60.4793 35.4705 59.1576 36.0621 57.9383H35.8774C35.7628 57.9371 35.6498 57.9114 35.546 57.863C35.4421 57.8145 35.3499 57.7444 35.2754 57.6573H20.1601V50.192H35.4921C35.8978 48.368 36.5973 46.622 37.5632 45.0224H17.5753C16.8905 45.0245 16.2342 45.2976 15.75 45.7818C15.2657 46.2661 14.9927 46.9223 14.9906 47.6072V57.7777H5.94387V5.9057H12.2613V26.2307C12.2284 26.8219 12.4015 27.4063 12.751 27.8843C12.8091 27.9517 12.8707 28.016 12.9356 28.0769L13.0801 28.2294L13.2968 28.4141C13.379 28.4754 13.4648 28.5317 13.5537 28.5826L13.7383 28.687C13.8652 28.746 13.9968 28.7943 14.1317 28.8315L14.2601 28.8716C14.4467 28.9174 14.6379 28.9416 14.83 28.9439C14.9917 28.9431 15.153 28.9269 15.3117 28.8957H15.3919C15.5263 28.8637 15.6579 28.8208 15.7853 28.7673H15.8334C16.0151 28.6907 16.1874 28.5938 16.3472 28.4783L25.6026 21.6792V26.327C25.6059 26.8074 25.7417 27.2776 25.9952 27.6857C26.2487 28.0939 26.61 28.4241 27.0392 28.6399C27.4685 28.8558 27.949 28.9489 28.4277 28.9091C28.9065 28.8692 29.365 28.6979 29.7527 28.4141L39.0321 21.607V26.327C39.0268 26.6638 39.0885 26.9984 39.2134 27.3113C39.3384 27.6241 39.5243 27.909 39.7603 28.1495C39.9963 28.3899 40.2776 28.5811 40.5881 28.712C40.8985 28.8428 41.2319 28.9107 41.5687 28.9118C41.7525 28.9106 41.9356 28.889 42.1146 28.8475V24.7215C42.1146 24.6161 42.1354 24.5117 42.1757 24.4144C42.216 24.317 42.2752 24.2285 42.3497 24.1539C42.4243 24.0794 42.5127 24.0203 42.6101 23.9799C42.7075 23.9396 42.8119 23.9188 42.9173 23.9188H49.1705L52.3092 21.607V23.9188H57.5108V16.4936C57.5146 16.025 57.3892 15.5643 57.1485 15.1622C56.9078 14.7601 56.561 14.432 56.1462 14.2139ZM15.2073 40.5914H20.6016V35.1971H15.2073V40.5914ZM36.8808 40.5914V35.1971H31.4865V40.5914H36.8808ZM46.1362 27.9565H61.4362V32.7729H46.1362V27.9565ZM61.8696 36.1443V40.6315H56.1462V34.1295H51.3299V40.6877C47.9979 40.9501 44.887 42.458 42.6169 44.9111C40.3468 47.3641 39.0841 50.5823 39.0803 53.9246H45.1248C45.1248 52.0086 45.886 50.171 47.2408 48.8161C48.5957 47.4613 50.4333 46.7001 52.3493 46.7001H61.8536V52.1025H66.6699V36.1443H61.8536H61.8696ZM39.0321 61.8234C39.0106 62.2484 39.0758 62.6734 39.2236 63.0724C39.3714 63.4714 39.5988 63.8362 39.892 64.1446C40.1852 64.4531 40.538 64.6986 40.9291 64.8664C41.3202 65.0342 41.7412 65.1208 42.1668 65.1208C42.5923 65.1208 43.0134 65.0342 43.4045 64.8664C43.7955 64.6986 44.1484 64.4531 44.4415 64.1446C44.7347 63.8362 44.9622 63.4714 45.11 63.0724C45.2578 62.6734 45.3229 62.2484 45.3014 61.8234C45.3014 60.0896 42.1628 54.9682 42.1628 54.9682C42.1628 54.9682 39.0321 60.0976 39.0321 61.8234Z"/>
</mask>
<path d="M56.1462 14.2139C55.7283 13.998 55.258 13.9046 54.7893 13.9443C54.3206 13.9841 53.8728 14.1555 53.4972 14.4387L44.306 21.2377V16.5257C44.2873 16.0412 44.1379 15.5708 43.8737 15.1642C43.6095 14.7576 43.2402 14.43 42.8051 14.2162C42.3699 14.0023 41.885 13.91 41.4017 13.9492C40.9184 13.9884 40.4547 14.1575 40.0596 14.4387L30.8123 21.2377V16.5177C30.808 15.8307 30.5321 15.1733 30.0448 14.689C29.5575 14.2047 28.8984 13.9329 28.2114 13.9329C27.657 13.9335 27.1172 14.1106 26.6702 14.4387L17.3827 21.2618V3.16841C17.3833 2.83963 17.3165 2.51421 17.1866 2.21221C17.0566 1.9102 16.8662 1.638 16.6271 1.41238C16.3879 1.18677 16.1051 1.01251 15.796 0.900355C15.487 0.788198 15.1582 0.740513 14.83 0.760241H3.23869C2.90921 0.738225 2.57871 0.784209 2.26775 0.895334C1.95679 1.00646 1.672 1.18035 1.4311 1.4062C1.19019 1.63206 0.998303 1.90504 0.867367 2.20819C0.736432 2.51135 0.669244 2.83819 0.669978 3.16841V60.2421C0.665469 60.9337 0.931651 61.5997 1.41164 62.0977C1.89163 62.5957 2.54736 62.8862 3.23869 62.9071H35.1149C35.0583 62.5513 35.0288 62.1917 35.0266 61.8315C35.119 60.4793 35.4705 59.1576 36.0621 57.9383H35.8774C35.7628 57.9371 35.6498 57.9114 35.546 57.863C35.4421 57.8145 35.3499 57.7444 35.2754 57.6573H20.1601V50.192H35.4921C35.8978 48.368 36.5973 46.622 37.5632 45.0224H17.5753C16.8905 45.0245 16.2342 45.2976 15.75 45.7818C15.2657 46.2661 14.9927 46.9223 14.9906 47.6072V57.7777H5.94387V5.9057H12.2613V26.2307C12.2284 26.8219 12.4015 27.4063 12.751 27.8843C12.8091 27.9517 12.8707 28.016 12.9356 28.0769L13.0801 28.2294L13.2968 28.4141C13.379 28.4754 13.4648 28.5317 13.5537 28.5826L13.7383 28.687C13.8652 28.746 13.9968 28.7943 14.1317 28.8315L14.2601 28.8716C14.4467 28.9174 14.6379 28.9416 14.83 28.9439C14.9917 28.9431 15.153 28.9269 15.3117 28.8957H15.3919C15.5263 28.8637 15.6579 28.8208 15.7853 28.7673H15.8334C16.0151 28.6907 16.1874 28.5938 16.3472 28.4783L25.6026 21.6792V26.327C25.6059 26.8074 25.7417 27.2776 25.9952 27.6857C26.2487 28.0939 26.61 28.4241 27.0392 28.6399C27.4685 28.8558 27.949 28.9489 28.4277 28.9091C28.9065 28.8692 29.365 28.6979 29.7527 28.4141L39.0321 21.607V26.327C39.0268 26.6638 39.0885 26.9984 39.2134 27.3113C39.3384 27.6241 39.5243 27.909 39.7603 28.1495C39.9963 28.3899 40.2776 28.5811 40.5881 28.712C40.8985 28.8428 41.2319 28.9107 41.5687 28.9118C41.7525 28.9106 41.9356 28.889 42.1146 28.8475V24.7215C42.1146 24.6161 42.1354 24.5117 42.1757 24.4144C42.216 24.317 42.2752 24.2285 42.3497 24.1539C42.4243 24.0794 42.5127 24.0203 42.6101 23.9799C42.7075 23.9396 42.8119 23.9188 42.9173 23.9188H49.1705L52.3092 21.607V23.9188H57.5108V16.4936C57.5146 16.025 57.3892 15.5643 57.1485 15.1622C56.9078 14.7601 56.561 14.432 56.1462 14.2139ZM15.2073 40.5914H20.6016V35.1971H15.2073V40.5914ZM36.8808 40.5914V35.1971H31.4865V40.5914H36.8808ZM46.1362 27.9565H61.4362V32.7729H46.1362V27.9565ZM61.8696 36.1443V40.6315H56.1462V34.1295H51.3299V40.6877C47.9979 40.9501 44.887 42.458 42.6169 44.9111C40.3468 47.3641 39.0841 50.5823 39.0803 53.9246H45.1248C45.1248 52.0086 45.886 50.171 47.2408 48.8161C48.5957 47.4613 50.4333 46.7001 52.3493 46.7001H61.8536V52.1025H66.6699V36.1443H61.8536H61.8696ZM39.0321 61.8234C39.0106 62.2484 39.0758 62.6734 39.2236 63.0724C39.3714 63.4714 39.5988 63.8362 39.892 64.1446C40.1852 64.4531 40.538 64.6986 40.9291 64.8664C41.3202 65.0342 41.7412 65.1208 42.1668 65.1208C42.5923 65.1208 43.0134 65.0342 43.4045 64.8664C43.7955 64.6986 44.1484 64.4531 44.4415 64.1446C44.7347 63.8362 44.9622 63.4714 45.11 63.0724C45.2578 62.6734 45.3229 62.2484 45.3014 61.8234C45.3014 60.0896 42.1628 54.9682 42.1628 54.9682C42.1628 54.9682 39.0321 60.0976 39.0321 61.8234Z" fill="#9A9A9A" stroke="white" stroke-width="2" mask="url(#path-1-inside-1_2536_17193)"/>
</svg>
