<svg width="68" height="67" viewBox="0 0 68 67" fill="none" xmlns="http://www.w3.org/2000/svg">
<mask id="path-1-inside-1_8340_29380" fill="white">
<path d="M56.8847 14.1327C56.4562 13.9114 55.9739 13.8156 55.4934 13.8563C55.0128 13.8971 54.5535 14.0728 54.1685 14.3632L44.7439 21.3349V16.5033C44.7248 16.0064 44.5716 15.524 44.3007 15.1072C44.0297 14.6903 43.6511 14.3544 43.2049 14.1351C42.7587 13.9158 42.2615 13.8212 41.7659 13.8613C41.2703 13.9015 40.7948 14.0749 40.3897 14.3632L30.9076 21.3349V16.495C30.9032 15.7906 30.6203 15.1165 30.1207 14.6199C29.621 14.1233 28.9452 13.8446 28.2407 13.8446C27.6722 13.8452 27.1187 14.0268 26.6604 14.3632L17.1371 21.3596V2.80684C17.1377 2.46971 17.0692 2.13603 16.936 1.82635C16.8027 1.51668 16.6075 1.23757 16.3623 1.00623C16.117 0.774882 15.827 0.596202 15.5101 0.481197C15.1932 0.366192 14.8561 0.317297 14.5196 0.337525H2.63399C2.29614 0.314951 1.95725 0.362102 1.6384 0.476049C1.31954 0.589995 1.02752 0.768302 0.780499 0.999888C0.533474 1.23147 0.336718 1.51139 0.202458 1.82224C0.0681983 2.13309 -0.000695554 2.46823 5.77956e-05 2.80684V61.3295C-0.0045657 62.0387 0.268374 62.7216 0.76055 63.2322C1.25273 63.7428 1.9251 64.0407 2.63399 64.0622H35.3194C35.2614 63.6973 35.2312 63.3286 35.2289 62.9592C35.3237 61.5728 35.6841 60.2175 36.2907 58.9672H36.1014C35.9839 58.966 35.868 58.9397 35.7615 58.89C35.655 58.8403 35.5604 58.7684 35.484 58.6791H19.985V51.0242H35.7063C36.1222 49.1539 36.8395 47.3636 37.8299 45.7234H17.3346C16.6324 45.7256 15.9595 46.0055 15.4629 46.5021C14.9663 46.9987 14.6864 47.6716 14.6842 48.3738V58.8025H5.40785V5.61362H11.8857V26.4546C11.8519 27.0608 12.0294 27.66 12.3878 28.1502C12.4473 28.2193 12.5105 28.2853 12.5771 28.3477L12.7252 28.5041L12.9475 28.6934C13.0317 28.7563 13.1197 28.814 13.2109 28.8663L13.4002 28.9733C13.5303 29.0338 13.6652 29.0833 13.8035 29.1214L13.9352 29.1626C14.1265 29.2095 14.3226 29.2343 14.5196 29.2367C14.6854 29.2358 14.8508 29.2193 15.0135 29.1873H15.0958C15.2336 29.1545 15.3685 29.1104 15.4991 29.0556H15.5485C15.7347 28.9771 15.9115 28.8777 16.0753 28.7593L25.5656 21.7876V26.5534C25.569 27.046 25.7083 27.5281 25.9683 27.9466C26.2282 28.3651 26.5987 28.7037 27.0388 28.925C27.4789 29.1463 27.9716 29.2418 28.4625 29.201C28.9535 29.1601 29.4236 28.9845 29.8211 28.6934L39.3362 21.7135V26.5534C39.3307 26.8988 39.3939 27.2418 39.5221 27.5626C39.6502 27.8834 39.8408 28.1756 40.0828 28.4221C40.3248 28.6687 40.6133 28.8647 40.9316 28.9989C41.2499 29.1331 41.5917 29.2027 41.9372 29.2038C42.1256 29.2025 42.3133 29.1805 42.4969 29.1379V24.9072C42.4969 24.7991 42.5182 24.692 42.5595 24.5922C42.6009 24.4923 42.6615 24.4016 42.738 24.3251C42.8144 24.2487 42.9051 24.1881 43.005 24.1467C43.1049 24.1053 43.2119 24.0841 43.32 24.0841H49.732L52.9503 21.7135V24.0841H58.284V16.4703C58.2878 15.9898 58.1593 15.5175 57.9125 15.1051C57.6656 14.6928 57.3101 14.3564 56.8847 14.1327ZM14.9065 41.1799H20.4377V35.6487H14.9065V41.1799ZM37.1302 41.1799V35.6487H31.599V41.1799H37.1302ZM46.6206 28.2243H62.309V33.1629H46.6206V28.2243ZM62.7534 36.6199V41.2211H56.8847V34.5539H51.9461V41.2787C48.5295 41.5477 45.3397 43.0939 43.012 45.6093C40.6842 48.1246 39.3895 51.4245 39.3855 54.8517H45.5835C45.5835 52.8869 46.364 51.0027 47.7532 49.6135C49.1425 48.2242 51.0267 47.4437 52.9914 47.4437H62.737V52.9832H67.6756V36.6199H62.737H62.7534ZM39.3362 62.951C39.3141 63.3868 39.3809 63.8225 39.5325 64.2316C39.684 64.6408 39.9172 65.0149 40.2179 65.3311C40.5185 65.6474 40.8803 65.8992 41.2813 66.0712C41.6823 66.2433 42.114 66.332 42.5504 66.332C42.9867 66.332 43.4185 66.2433 43.8195 66.0712C44.2205 65.8992 44.5823 65.6474 44.8829 65.3311C45.1835 65.0149 45.4167 64.6408 45.5683 64.2316C45.7199 63.8225 45.7867 63.3868 45.7646 62.951C45.7646 61.1731 42.5463 55.9217 42.5463 55.9217C42.5463 55.9217 39.3362 61.1813 39.3362 62.951Z"/>
</mask>
<path d="M56.8847 14.1327C56.4562 13.9114 55.9739 13.8156 55.4934 13.8563C55.0128 13.8971 54.5535 14.0728 54.1685 14.3632L44.7439 21.3349V16.5033C44.7248 16.0064 44.5716 15.524 44.3007 15.1072C44.0297 14.6903 43.6511 14.3544 43.2049 14.1351C42.7587 13.9158 42.2615 13.8212 41.7659 13.8613C41.2703 13.9015 40.7948 14.0749 40.3897 14.3632L30.9076 21.3349V16.495C30.9032 15.7906 30.6203 15.1165 30.1207 14.6199C29.621 14.1233 28.9452 13.8446 28.2407 13.8446C27.6722 13.8452 27.1187 14.0268 26.6604 14.3632L17.1371 21.3596V2.80684C17.1377 2.46971 17.0692 2.13603 16.936 1.82635C16.8027 1.51668 16.6075 1.23757 16.3623 1.00623C16.117 0.774882 15.827 0.596202 15.5101 0.481197C15.1932 0.366192 14.8561 0.317297 14.5196 0.337525H2.63399C2.29614 0.314951 1.95725 0.362102 1.6384 0.476049C1.31954 0.589995 1.02752 0.768302 0.780499 0.999888C0.533474 1.23147 0.336718 1.51139 0.202458 1.82224C0.0681983 2.13309 -0.000695554 2.46823 5.77956e-05 2.80684V61.3295C-0.0045657 62.0387 0.268374 62.7216 0.76055 63.2322C1.25273 63.7428 1.9251 64.0407 2.63399 64.0622H35.3194C35.2614 63.6973 35.2312 63.3286 35.2289 62.9592C35.3237 61.5728 35.6841 60.2175 36.2907 58.9672H36.1014C35.9839 58.966 35.868 58.9397 35.7615 58.89C35.655 58.8403 35.5604 58.7684 35.484 58.6791H19.985V51.0242H35.7063C36.1222 49.1539 36.8395 47.3636 37.8299 45.7234H17.3346C16.6324 45.7256 15.9595 46.0055 15.4629 46.5021C14.9663 46.9987 14.6864 47.6716 14.6842 48.3738V58.8025H5.40785V5.61362H11.8857V26.4546C11.8519 27.0608 12.0294 27.66 12.3878 28.1502C12.4473 28.2193 12.5105 28.2853 12.5771 28.3477L12.7252 28.5041L12.9475 28.6934C13.0317 28.7563 13.1197 28.814 13.2109 28.8663L13.4002 28.9733C13.5303 29.0338 13.6652 29.0833 13.8035 29.1214L13.9352 29.1626C14.1265 29.2095 14.3226 29.2343 14.5196 29.2367C14.6854 29.2358 14.8508 29.2193 15.0135 29.1873H15.0958C15.2336 29.1545 15.3685 29.1104 15.4991 29.0556H15.5485C15.7347 28.9771 15.9115 28.8777 16.0753 28.7593L25.5656 21.7876V26.5534C25.569 27.046 25.7083 27.5281 25.9683 27.9466C26.2282 28.3651 26.5987 28.7037 27.0388 28.925C27.4789 29.1463 27.9716 29.2418 28.4625 29.201C28.9535 29.1601 29.4236 28.9845 29.8211 28.6934L39.3362 21.7135V26.5534C39.3307 26.8988 39.3939 27.2418 39.5221 27.5626C39.6502 27.8834 39.8408 28.1756 40.0828 28.4221C40.3248 28.6687 40.6133 28.8647 40.9316 28.9989C41.2499 29.1331 41.5917 29.2027 41.9372 29.2038C42.1256 29.2025 42.3133 29.1805 42.4969 29.1379V24.9072C42.4969 24.7991 42.5182 24.692 42.5595 24.5922C42.6009 24.4923 42.6615 24.4016 42.738 24.3251C42.8144 24.2487 42.9051 24.1881 43.005 24.1467C43.1049 24.1053 43.2119 24.0841 43.32 24.0841H49.732L52.9503 21.7135V24.0841H58.284V16.4703C58.2878 15.9898 58.1593 15.5175 57.9125 15.1051C57.6656 14.6928 57.3101 14.3564 56.8847 14.1327ZM14.9065 41.1799H20.4377V35.6487H14.9065V41.1799ZM37.1302 41.1799V35.6487H31.599V41.1799H37.1302ZM46.6206 28.2243H62.309V33.1629H46.6206V28.2243ZM62.7534 36.6199V41.2211H56.8847V34.5539H51.9461V41.2787C48.5295 41.5477 45.3397 43.0939 43.012 45.6093C40.6842 48.1246 39.3895 51.4245 39.3855 54.8517H45.5835C45.5835 52.8869 46.364 51.0027 47.7532 49.6135C49.1425 48.2242 51.0267 47.4437 52.9914 47.4437H62.737V52.9832H67.6756V36.6199H62.737H62.7534ZM39.3362 62.951C39.3141 63.3868 39.3809 63.8225 39.5325 64.2316C39.684 64.6408 39.9172 65.0149 40.2179 65.3311C40.5185 65.6474 40.8803 65.8992 41.2813 66.0712C41.6823 66.2433 42.114 66.332 42.5504 66.332C42.9867 66.332 43.4185 66.2433 43.8195 66.0712C44.2205 65.8992 44.5823 65.6474 44.8829 65.3311C45.1835 65.0149 45.4167 64.6408 45.5683 64.2316C45.7199 63.8225 45.7867 63.3868 45.7646 62.951C45.7646 61.1731 42.5463 55.9217 42.5463 55.9217C42.5463 55.9217 39.3362 61.1813 39.3362 62.951Z" fill="#9A9A9A" stroke="white" stroke-width="2" mask="url(#path-1-inside-1_8340_29380)"/>
</svg>
