<svg width="66" height="67" viewBox="0 0 66 67" fill="none" xmlns="http://www.w3.org/2000/svg">
<g clip-path="url(#clip0_8340_29358)">
<path d="M10.2787 52.8773C10.2787 53.3653 10.6115 53.7446 11.0521 53.8498V53.8794H11.3021C11.8798 53.8794 12.3255 53.3865 12.3255 52.8343V4.76849C12.3255 3.31134 13.508 2.12891 14.9651 2.12891H59.3679C59.6915 2.12891 59.9519 2.00344 60.1286 1.80212C60.301 1.60564 60.3816 1.35125 60.3816 1.10547C60.3816 0.859696 60.301 0.605306 60.1286 0.408822C59.9519 0.207502 59.6915 0.0820312 59.3679 0.0820312H14.9651C12.3777 0.0820312 10.2787 2.18693 10.2787 4.76849V52.8773ZM6.63477 66.5817H51.0376C53.6192 66.5817 55.7241 64.4826 55.7241 61.8952V13.8777C55.7241 13.5542 55.5986 13.2937 55.3973 13.117C55.2008 12.9446 54.9464 12.864 54.7006 12.864C54.4548 12.864 54.2005 12.9446 54.004 13.117C53.8026 13.2937 53.6772 13.5542 53.6772 13.8777V61.8952C53.6772 63.3523 52.4948 64.5348 51.0376 64.5348H6.63477C6.31125 64.5348 6.05081 64.6602 5.87412 64.8616C5.70167 65.0581 5.62109 65.3124 5.62109 65.5582C5.62109 65.804 5.70167 66.0584 5.87412 66.2549C6.05081 66.4562 6.31125 66.5817 6.63477 66.5817Z" fill="#9A9A9A" stroke="#9A9A9A" stroke-width="0.5"/>
<path d="M54.6992 14.944H64.0339C64.034 14.944 64.0341 14.944 64.0343 14.944C64.6018 14.9438 65.0573 14.4882 65.0573 13.9206V5.7728C65.0573 2.63765 62.5017 0.0820312 59.3666 0.0820312C56.2316 0.0820312 53.6758 2.63207 53.6758 5.7728V13.9206C53.6758 14.4895 54.1381 14.944 54.6992 14.944ZM63.0162 12.8972H55.7285V5.7728C55.7285 3.76262 57.3618 2.12891 59.3724 2.12891C61.3825 2.12891 63.0162 3.76227 63.0162 5.7728V12.8972Z" fill="#9A9A9A" stroke="#9A9A9A" stroke-width="0.5"/>
<path d="M2.98985 53.7662H10.2776V60.8906C10.2776 62.9008 8.64427 64.5345 6.63374 64.5345C4.62356 64.5345 2.98985 62.9011 2.98985 60.8906V53.7662ZM0.943359 60.891C0.943359 64.026 3.4934 66.5817 6.63413 66.5817H6.63451C9.77485 66.5817 12.3253 64.026 12.3253 60.891V52.7432C12.3253 52.182 11.8707 51.7197 11.3018 51.7197H1.9668C1.39794 51.7197 0.943359 52.182 0.943359 52.7432V60.891Z" fill="#9A9A9A" stroke="#9A9A9A" stroke-width="0.5"/>
<path d="M19.911 16.0449H46.0951C46.4186 16.0449 46.679 15.9195 46.8557 15.7181C47.0282 15.5217 47.1088 15.2673 47.1088 15.0215C47.1088 14.7757 47.0282 14.5213 46.8557 14.3248C46.679 14.1235 46.4186 13.998 46.0951 13.998H19.911C19.5873 13.998 19.3267 14.1234 19.1498 14.3247C18.9772 14.5212 18.8965 14.7756 18.8965 15.0215C18.8965 15.2673 18.9772 15.5218 19.1498 15.7182C19.3267 15.9195 19.5873 16.0449 19.911 16.0449Z" fill="#9A9A9A" stroke="#9A9A9A" stroke-width="0.5"/>
<path d="M19.911 25.1973H46.0951C46.4186 25.1973 46.679 25.0718 46.8557 24.8705C47.0282 24.674 47.1088 24.4196 47.1088 24.1738C47.1088 23.9281 47.0282 23.6737 46.8557 23.4772C46.679 23.2759 46.4186 23.1504 46.0951 23.1504H19.911C19.5873 23.1504 19.3267 23.2758 19.1498 23.4771C18.9772 23.6736 18.8965 23.928 18.8965 24.1738C18.8965 24.4197 18.9772 24.6741 19.1498 24.8706C19.3267 25.0719 19.5873 25.1973 19.911 25.1973Z" fill="#9A9A9A" stroke="#9A9A9A" stroke-width="0.5"/>
<path d="M19.9107 34.3555H46.0948C46.4178 34.3555 46.678 34.2299 46.8545 34.0287C47.0268 33.8323 47.1077 33.5781 47.108 33.3324C47.1084 33.0866 47.0282 32.8321 46.8558 32.6355C46.6792 32.434 46.4186 32.3086 46.0948 32.3086H19.9107C19.5868 32.3086 19.326 32.4339 19.1491 32.6354C18.9765 32.832 18.8962 33.0865 18.8965 33.3323C18.8968 33.5782 18.9778 33.8325 19.1503 34.0288C19.3271 34.23 19.5874 34.3555 19.9107 34.3555Z" fill="#9A9A9A" stroke="#9A9A9A" stroke-width="0.5"/>
<path d="M19.9121 43.5127H31.7929C32.1158 43.5127 32.3758 43.387 32.5523 43.1859C32.7245 42.9896 32.8055 42.7355 32.806 42.4898C32.8065 42.244 32.7265 41.9895 32.5541 41.7928C32.3775 41.5912 32.1169 41.4658 31.7929 41.4658H19.9121C19.5886 41.4658 19.3282 41.5913 19.1515 41.7926C18.979 41.9891 18.8984 42.2435 18.8984 42.4893C18.8984 42.735 18.979 42.9894 19.1515 43.1859C19.3282 43.3872 19.5886 43.5127 19.9121 43.5127Z" fill="#9A9A9A" stroke="#9A9A9A" stroke-width="0.5"/>
<path d="M19.9121 52.665H31.7929C32.1158 52.665 32.3758 52.5394 32.5523 52.3383C32.7245 52.142 32.8055 51.8878 32.806 51.6421C32.8065 51.3964 32.7265 51.1418 32.5541 50.9451C32.3775 50.7435 32.1169 50.6182 31.7929 50.6182H19.9121C19.5886 50.6182 19.3282 50.7436 19.1515 50.945C18.979 51.1414 18.8984 51.3958 18.8984 51.6416C18.8984 51.8874 18.979 52.1418 19.1515 52.3383C19.3282 52.5396 19.5886 52.665 19.9121 52.665Z" fill="#9A9A9A" stroke="#9A9A9A" stroke-width="0.5"/>
<path d="M40.5791 53.9726C36.7711 53.9726 33.6719 50.8734 33.6719 47.0654C33.6719 43.2574 36.7711 40.1582 40.5791 40.1582C44.3871 40.1582 47.4863 43.2574 47.4863 47.0654C47.4863 50.8734 44.3871 53.9726 40.5791 53.9726ZM40.5791 41.7051C37.6249 41.7051 35.2188 44.1113 35.2188 47.0654C35.2188 50.0196 37.6249 52.4257 40.5791 52.4257C43.5332 52.4257 45.9394 50.0196 45.9394 47.0654C45.9394 44.1113 43.5332 41.7051 40.5791 41.7051Z" fill="#9A9A9A"/>
<path d="M40.5791 53.9726C36.7711 53.9726 33.6719 50.8734 33.6719 47.0654C33.6719 43.2574 36.7711 40.1582 40.5791 40.1582C44.3871 40.1582 47.4863 43.2574 47.4863 47.0654C47.4863 50.8734 44.3871 53.9726 40.5791 53.9726ZM40.5791 41.7051C37.6249 41.7051 35.2188 44.1113 35.2188 47.0654C35.2188 50.0196 37.6249 52.4257 40.5791 52.4257C43.5332 52.4257 45.9394 50.0196 45.9394 47.0654C45.9394 44.1113 43.5332 41.7051 40.5791 41.7051Z" stroke="#9A9A9A"/>
<path d="M37.7655 61.0574C37.5021 61.0574 37.2604 60.9233 37.1154 60.7028L35.719 58.5384L33.2269 59.1776C32.6275 59.3296 32.0776 58.7437 32.3139 58.1462L35.2035 50.761C35.4119 50.2227 36.1293 50.0885 36.5086 50.5356C37.5184 51.7174 38.9902 52.3992 40.5425 52.41C41.0843 52.4119 41.4521 52.9599 41.2568 53.4626L38.4852 60.5524C38.3668 60.8509 38.0381 61.0574 37.7655 61.0574ZM36.0685 56.884C36.5677 56.8843 36.9071 57.4525 37.2904 58.0945C37.3893 58.26 37.491 58.4303 37.5992 58.5971L39.4469 53.876C38.2651 53.6773 37.1533 53.1726 36.2244 52.415L34.3125 57.3082L36.0685 56.884Z" fill="#9A9A9A"/>
<path d="M37.7655 61.0574C37.5021 61.0574 37.2604 60.9233 37.1154 60.7028L35.719 58.5384L33.2269 59.1776C32.6275 59.3296 32.0776 58.7437 32.3139 58.1462L35.2035 50.761C35.4119 50.2227 36.1293 50.0885 36.5086 50.5356C37.5184 51.7174 38.9902 52.3992 40.5425 52.41C41.0843 52.4119 41.4521 52.9599 41.2568 53.4626L38.4852 60.5524C38.3668 60.8509 38.0381 61.0574 37.7655 61.0574ZM36.0685 56.884C36.5677 56.8843 36.9071 57.4525 37.2904 58.0945C37.3893 58.26 37.491 58.4303 37.5992 58.5971L39.4469 53.876C38.2651 53.6773 37.1533 53.1726 36.2244 52.415L34.3125 57.3082L36.0685 56.884Z" stroke="#9A9A9A"/>
<path d="M41.6374 53.8924L41.6373 53.8921L41.6369 53.8925C41.6371 53.8924 41.6373 53.8924 41.6374 53.8924ZM41.6374 53.8924L43.5655 58.8282C44.2433 57.7827 44.4634 57.3068 44.8154 57.1697C45.1675 57.0327 45.6517 57.2346 46.858 57.5446L44.8761 52.4798C43.9361 53.2156 42.8191 53.7044 41.6374 53.8924ZM43.3934 61.2881C43.0763 61.2881 42.7897 61.087 42.6737 60.7939L39.8108 53.4783C39.6148 52.9686 39.9856 52.4256 40.5414 52.4256C42.1149 52.4256 43.5759 51.7651 44.5965 50.6104C44.9832 50.1687 45.6921 50.3196 45.8963 50.8412L48.845 58.3823C49.0782 58.9713 48.538 59.5711 47.932 59.4137L45.4399 58.7744L44.0435 60.9335C43.8985 61.1535 43.6568 61.2877 43.3934 61.2877V61.2881Z" fill="#9A9A9A"/>
<path d="M41.6374 53.8924L41.6373 53.8921L41.6369 53.8925C41.6371 53.8924 41.6373 53.8924 41.6374 53.8924ZM41.6374 53.8924L43.5655 58.8282C44.2433 57.7827 44.4634 57.3068 44.8154 57.1697C45.1675 57.0327 45.6517 57.2346 46.858 57.5446L44.8761 52.4798C43.9361 53.2156 42.8191 53.7044 41.6374 53.8924ZM43.3934 61.2881C43.0763 61.2881 42.7897 61.087 42.6737 60.7939L39.8108 53.4783C39.6148 52.9686 39.9856 52.4256 40.5414 52.4256C42.1149 52.4256 43.5759 51.7651 44.5965 50.6104C44.9832 50.1687 45.6921 50.3196 45.8963 50.8412L48.845 58.3823C49.0782 58.9713 48.538 59.5711 47.932 59.4137L45.4399 58.7744L44.0435 60.9335C43.8985 61.1535 43.6568 61.2877 43.3934 61.2877V61.2881Z" stroke="#9A9A9A"/>
<path d="M38.3183 51.319C37.8291 51.319 37.4675 50.8685 37.5557 50.3952L37.9587 48.2736L36.3851 46.7967C35.9067 46.3505 36.172 45.5465 36.8202 45.4649L38.9634 45.1965L39.8818 43.2466C40.1614 42.6584 41.0037 42.6511 41.2783 43.2466L42.1967 45.1965L44.3399 45.4649C44.997 45.548 45.241 46.3512 44.775 46.7967L43.2014 48.2736L43.6044 50.3952C43.7289 51.034 43.0425 51.5372 42.4709 51.2224L40.5802 50.1805C40.4827 50.2343 40.3471 50.3128 40.19 50.4038C39.5687 50.7635 38.6093 51.319 38.3195 51.319H38.3183ZM40.5795 48.5262C40.8295 48.5262 41.2173 48.7527 41.5406 48.9416C41.6229 48.9896 41.7011 49.0353 41.7717 49.0741C41.6279 48.3282 41.5342 48.0217 41.6152 47.7717C41.6962 47.5216 41.9521 47.3281 42.5077 46.8076C41.7525 46.7116 41.4327 46.7062 41.2208 46.5522C41.0084 46.3978 40.9045 46.0941 40.5795 45.4003C40.2562 46.0904 40.1521 46.3941 39.9396 46.5494C39.7273 46.7045 39.4067 46.7115 38.6513 46.8076C39.2066 47.3279 39.4626 47.5214 39.5437 47.7716C39.6248 48.0216 39.5312 48.3282 39.3872 49.0741C39.4583 49.0351 39.5369 48.9892 39.6197 48.9409C39.9429 48.7521 40.3299 48.5262 40.5799 48.5262H40.5795Z" fill="#9A9A9A"/>
<path d="M38.3183 51.319C37.8291 51.319 37.4675 50.8685 37.5557 50.3952L37.9587 48.2736L36.3851 46.7967C35.9067 46.3505 36.172 45.5465 36.8202 45.4649L38.9634 45.1965L39.8818 43.2466C40.1614 42.6584 41.0037 42.6511 41.2783 43.2466L42.1967 45.1965L44.3399 45.4649C44.997 45.548 45.241 46.3512 44.775 46.7967L43.2014 48.2736L43.6044 50.3952C43.7289 51.034 43.0425 51.5372 42.4709 51.2224L40.5802 50.1805C40.4827 50.2343 40.3471 50.3128 40.19 50.4038C39.5687 50.7635 38.6093 51.319 38.3195 51.319H38.3183ZM40.5795 48.5262C40.8295 48.5262 41.2173 48.7527 41.5406 48.9416C41.6229 48.9896 41.7011 49.0353 41.7717 49.0741C41.6279 48.3282 41.5342 48.0217 41.6152 47.7717C41.6962 47.5216 41.9521 47.3281 42.5077 46.8076C41.7525 46.7116 41.4327 46.7062 41.2208 46.5522C41.0084 46.3978 40.9045 46.0941 40.5795 45.4003C40.2562 46.0904 40.1521 46.3941 39.9396 46.5494C39.7273 46.7045 39.4067 46.7115 38.6513 46.8076C39.2066 47.3279 39.4626 47.5214 39.5437 47.7716C39.6248 48.0216 39.5312 48.3282 39.3872 49.0741C39.4583 49.0351 39.5369 48.9892 39.6197 48.9409C39.9429 48.7521 40.3299 48.5262 40.5799 48.5262H40.5795Z" stroke="#9A9A9A"/>
</g>
<defs>
<clipPath id="clip0_8340_29358">
<rect width="66" height="66" fill="white" transform="translate(0 0.332031)"/>
</clipPath>
</defs>
</svg>
