<svg width="66" height="66" viewBox="0 0 66 66" fill="none" xmlns="http://www.w3.org/2000/svg">
<g clip-path="url(#clip0_7821_11070)">
<path fill-rule="evenodd" clip-rule="evenodd" d="M51.0376 65.9996H6.63477C5.61654 65.9996 5.61654 64.4527 6.63477 64.4527H51.0376C52.6328 64.4527 53.9272 63.1584 53.9272 61.5632V13.5457C53.9272 12.5274 55.4741 12.5274 55.4741 13.5457V61.5632C55.4741 64.0123 53.4813 65.9996 51.0376 65.9996ZM11.3021 53.297C10.8725 53.297 10.5287 52.9749 10.5287 52.5452V4.43646C10.5287 1.99277 12.516 0 14.9651 0H59.3679C60.3862 0 60.3862 1.54688 59.3679 1.54688H14.9651C13.3699 1.54688 12.0755 2.84123 12.0755 4.43646V52.5023C12.0755 52.9265 11.7317 53.2974 11.3021 53.2974V53.297Z" fill="#9A9A9A"/>
<path fill-rule="evenodd" clip-rule="evenodd" d="M64.0343 14.362H54.6992C54.275 14.362 53.9258 14.0182 53.9258 13.5886V5.44077C53.9258 2.43827 56.3695 0 59.3666 0C62.3636 0 64.8073 2.44369 64.8073 5.44077V13.5886C64.8073 14.0182 64.4635 14.362 64.0339 14.362H64.0343ZM55.4727 12.8151H63.2662V5.44077C63.2662 3.29215 61.5206 1.54688 59.3724 1.54688C57.2237 1.54688 55.4785 3.29254 55.4785 5.44077V12.8151H55.473H55.4727Z" fill="#9A9A9A"/>
<path fill-rule="evenodd" clip-rule="evenodd" d="M6.63413 65.9997C3.63163 65.9997 1.19336 63.556 1.19336 60.5589V52.4111C1.19336 51.9869 1.53715 51.6377 1.9668 51.6377H11.3018C11.7315 51.6377 12.0753 51.9869 12.0753 52.4111V60.5589C12.0753 63.556 9.63662 65.9997 6.63451 65.9997H6.63413ZM2.73985 53.1842V60.5586C2.73985 62.7072 4.48551 64.4524 6.63374 64.4524C8.78236 64.4524 10.5276 62.7068 10.5276 60.5586V53.1842H2.73947H2.73985Z" fill="#9A9A9A"/>
<path fill-rule="evenodd" clip-rule="evenodd" d="M46.0951 15.4629H19.911C18.8916 15.4629 18.8916 13.916 19.911 13.916H46.0951C47.1133 13.916 47.1133 15.4629 46.0951 15.4629Z" fill="#9A9A9A"/>
<path fill-rule="evenodd" clip-rule="evenodd" d="M46.0951 24.6152H19.911C18.8916 24.6152 18.8916 23.0684 19.911 23.0684H46.0951C47.1133 23.0684 47.1133 24.6152 46.0951 24.6152Z" fill="#9A9A9A"/>
<path fill-rule="evenodd" clip-rule="evenodd" d="M46.0948 33.7734H19.9107C18.8937 33.7734 18.8898 32.2266 19.9107 32.2266H46.0948C47.1146 32.2266 47.1103 33.7734 46.0948 33.7734Z" fill="#9A9A9A"/>
<path fill-rule="evenodd" clip-rule="evenodd" d="M31.7929 42.9307H19.9121C18.8939 42.9307 18.8939 41.3838 19.9121 41.3838H31.7929C32.8135 41.3838 32.8073 42.9307 31.7929 42.9307Z" fill="#9A9A9A"/>
<path fill-rule="evenodd" clip-rule="evenodd" d="M31.7929 52.083H19.9121C18.8939 52.083 18.8939 50.5361 19.9121 50.5361H31.7929C32.8135 50.5361 32.8073 52.083 31.7929 52.083Z" fill="#9A9A9A"/>
<path fill-rule="evenodd" clip-rule="evenodd" d="M40.5791 53.6406C36.7711 53.6406 33.6719 50.5414 33.6719 46.7334C33.6719 42.9253 36.7711 39.8262 40.5791 39.8262C44.3871 39.8262 47.4863 42.9253 47.4863 46.7334C47.4863 50.5414 44.3871 53.6406 40.5791 53.6406ZM40.5791 41.3731C37.6249 41.3731 35.2188 43.7792 35.2188 46.7334C35.2188 49.6875 37.6249 52.0937 40.5791 52.0937C43.5332 52.0937 45.9394 49.6875 45.9394 46.7334C45.9394 43.7792 43.5332 41.3731 40.5791 41.3731Z" fill="#9A9A9A"/>
<path fill-rule="evenodd" clip-rule="evenodd" d="M37.7655 60.7254C37.5021 60.7254 37.2604 60.5912 37.1154 60.3708L35.719 58.2063L33.2269 58.8456C32.6275 58.9975 32.0776 58.4117 32.3139 57.8142L35.2035 50.429C35.4119 49.8907 36.1293 49.7565 36.5086 50.2035C37.5184 51.3853 38.9902 52.0671 40.5425 52.078C41.0843 52.0799 41.4521 52.6279 41.2568 53.1306L38.4852 60.2204C38.3668 60.5189 38.0381 60.7254 37.7655 60.7254ZM36.0682 56.5519C36.6962 56.5519 37.0713 57.4511 37.5992 58.2651L39.4469 53.544C38.2651 53.3452 37.1533 52.8406 36.2244 52.083L34.3125 56.9762L36.0685 56.5519H36.0682Z" fill="#9A9A9A"/>
<path fill-rule="evenodd" clip-rule="evenodd" d="M43.3934 60.9561C43.0763 60.9561 42.7897 60.755 42.6737 60.4618L39.8108 53.1463C39.6148 52.6366 39.9856 52.0936 40.5414 52.0936C42.1149 52.0936 43.5759 51.4331 44.5965 50.2783C44.9832 49.8367 45.6921 49.9875 45.8963 50.5092L48.845 58.0503C49.0782 58.6392 48.538 59.239 47.932 59.0816L45.4399 58.4424L44.0435 60.6014C43.8985 60.8215 43.6568 60.9557 43.3934 60.9557V60.9561ZM41.6373 53.56L43.5655 58.4961C44.9213 56.4048 44.4457 56.5927 46.858 57.2126L44.8761 52.1477C43.936 52.8837 42.8187 53.3725 41.6369 53.5604L41.6373 53.56Z" fill="#9A9A9A"/>
<path fill-rule="evenodd" clip-rule="evenodd" d="M38.3183 50.987C37.8291 50.987 37.4675 50.5365 37.5557 50.0631L37.9587 47.9416L36.3851 46.4647C35.9067 46.0184 36.172 45.2144 36.8202 45.1328L38.9634 44.8645L39.8818 42.9146C40.1614 42.3264 41.0037 42.3191 41.2783 42.9146L42.1967 44.8645L44.3399 45.1328C44.997 45.216 45.241 46.0192 44.775 46.4647L43.2014 47.9416L43.6044 50.0631C43.7289 50.702 43.0425 51.2051 42.4709 50.8903L40.5802 49.8485C40.0968 50.115 38.6826 50.987 38.3195 50.987H38.3183ZM40.5795 48.1941C40.8931 48.1941 41.4237 48.5507 41.7717 48.7421C41.484 47.2498 41.397 47.5162 42.5077 46.4755C40.9956 46.2833 41.2288 46.4543 40.5795 45.0683C39.9333 46.4477 40.163 46.2833 38.6513 46.4755C39.7615 47.5158 39.6753 47.2498 39.3872 48.7421C39.7356 48.5507 40.2658 48.1941 40.5799 48.1941H40.5795Z" fill="#9A9A9A"/>
</g>
<defs>
<clipPath id="clip0_7821_11070">
<rect width="66" height="66" fill="white"/>
</clipPath>
</defs>
</svg>
