<svg width="67" height="67" viewBox="0 0 67 67" fill="none" xmlns="http://www.w3.org/2000/svg">
<g clip-path="url(#clip0_2536_16572)">
<path d="M65.9646 42.8768H64.1341L51.194 32.0933C50.5338 31.5431 49.4992 32.0295 49.4992 32.8872V41.7037L37.9666 32.0933C37.3063 31.5431 36.2717 32.0295 36.2717 32.8872V41.7037L24.7391 32.0933C24.0788 31.5431 23.0442 32.0295 23.0442 32.8872V42.8768H20.4706L19.5941 34.987C19.5941 34.9863 19.5939 34.9857 19.5938 34.985L18.4906 25.0571C18.4325 24.5336 17.9902 24.1377 17.4635 24.1377H8.64528C8.1187 24.1377 7.67642 24.5337 7.61816 25.0571L7.25064 28.3639C7.18748 28.9312 7.59637 29.4421 8.16369 29.5051C8.73023 29.5693 9.24186 29.1595 9.30489 28.5921L9.57031 26.2044H16.5387L17.4113 34.0583H8.69749L8.81492 33.0012C8.87809 32.434 8.4692 31.923 7.90188 31.86C7.33546 31.7981 6.82371 32.2057 6.76067 32.773L6.51485 34.9848C6.51472 34.9855 6.51472 34.9863 6.51459 34.987L5.63816 42.8767H2.03149C1.46082 42.8767 0.998047 43.3392 0.998047 43.9101V64.8538C0.998047 65.4246 1.46069 65.8872 2.03149 65.8872H65.9647C66.5354 65.8872 66.9982 65.4247 66.9982 64.8538V43.9102C66.998 43.3393 66.5354 42.8768 65.9646 42.8768ZM51.5659 35.0937L60.9058 42.8769H51.5659V35.0937ZM25.1107 35.0937L34.4506 42.8769H25.1107V35.0937ZM8.46791 36.1252H17.641L17.9013 38.4676H8.20764L8.46791 36.1252ZM7.97793 40.5344H18.1308L18.3911 42.8768H7.71767L7.97793 40.5344ZM64.9313 63.8205H3.0648V44.9437H41.7141C42.2848 44.9437 42.7476 44.4812 42.7476 43.9102C42.7476 43.3394 42.2849 42.8768 41.7141 42.8768H38.3383V35.0936L47.6782 42.8768H46.1232C45.5526 42.8768 45.0898 43.3393 45.0898 43.9102C45.0898 44.481 45.5524 44.9437 46.1232 44.9437H64.9312V63.8205H64.9313Z" fill="#9A9A9A"/>
<path d="M8.64509 47.2861H5.33813C4.76746 47.2861 4.30469 47.7486 4.30469 48.3196V52.7288C4.30469 53.2996 4.76733 53.7623 5.33813 53.7623H8.64496C9.21563 53.7623 9.6784 53.2997 9.6784 52.7288V48.3194C9.6784 47.7486 9.21576 47.2861 8.64509 47.2861ZM7.61165 51.6952H6.37157V49.3529H7.61165V51.6952Z" fill="#9A9A9A"/>
<path d="M16.3619 47.2861H13.0549C12.4843 47.2861 12.0215 47.7486 12.0215 48.3196V52.7288C12.0215 53.2996 12.4841 53.7623 13.0549 53.7623H16.3618C16.9324 53.7623 17.3952 53.2997 17.3952 52.7288V48.3194C17.3952 47.7486 16.9326 47.2861 16.3619 47.2861ZM15.3284 51.6952H14.0884V49.3529H15.3284V51.6952Z" fill="#9A9A9A"/>
<path d="M24.0766 47.2861H20.7698C20.1991 47.2861 19.7363 47.7486 19.7363 48.3196V52.7288C19.7363 53.2996 20.199 53.7623 20.7698 53.7623H24.0766C24.6473 53.7623 25.11 53.2997 25.11 52.7288V48.3194C25.1099 47.7486 24.6473 47.2861 24.0766 47.2861ZM23.0432 51.6952H21.8031V49.3529H23.0432V51.6952Z" fill="#9A9A9A"/>
<path d="M31.7934 47.2861H28.4866C27.9159 47.2861 27.4531 47.7486 27.4531 48.3196V52.7288C27.4531 53.2996 27.9158 53.7623 28.4866 53.7623H31.7934C32.3641 53.7623 32.8268 53.2997 32.8268 52.7288V48.3194C32.8267 47.7486 32.3641 47.2861 31.7934 47.2861ZM30.76 51.6952H29.5199V49.3529H30.76V51.6952Z" fill="#9A9A9A"/>
<path d="M39.5102 47.2861H36.2034C35.6327 47.2861 35.1699 47.7486 35.1699 48.3196V52.7288C35.1699 53.2996 35.6326 53.7623 36.2034 53.7623H39.5102C40.0809 53.7623 40.5436 53.2997 40.5436 52.7288V48.3194C40.5435 47.7486 40.0809 47.2861 39.5102 47.2861ZM38.4768 51.6952H37.2367V49.3529H38.4768V51.6952Z" fill="#9A9A9A"/>
<path d="M47.2252 47.2861H43.9182C43.3475 47.2861 42.8848 47.7486 42.8848 48.3196V52.7288C42.8848 53.2996 43.3474 53.7623 43.9182 53.7623H47.225C47.7957 53.7623 48.2585 53.2997 48.2585 52.7288V48.3194C48.2585 47.7486 47.7958 47.2861 47.2252 47.2861ZM46.1917 51.6952H44.9516V49.3529H46.1917V51.6952Z" fill="#9A9A9A"/>
<path d="M54.9418 47.2861H51.635C51.0643 47.2861 50.6016 47.7486 50.6016 48.3196V52.7288C50.6016 53.2996 51.0642 53.7623 51.635 53.7623H54.9418C55.5125 53.7623 55.9753 53.2997 55.9753 52.7288V48.3194C55.9753 47.7486 55.5125 47.2861 54.9418 47.2861ZM53.9084 51.6952H52.6683V49.3529H53.9084V51.6952Z" fill="#9A9A9A"/>
<path d="M62.6586 47.2861H59.3518C58.7811 47.2861 58.3184 47.7486 58.3184 48.3196V52.7288C58.3184 53.2996 58.781 53.7623 59.3518 53.7623H62.6586C63.2293 53.7623 63.6921 53.2997 63.6921 52.7288V48.3194C63.6921 47.7486 63.2293 47.2861 62.6586 47.2861ZM61.6252 51.6952H60.3851V49.3529H61.6252V51.6952Z" fill="#9A9A9A"/>
<path d="M8.64509 55.002H5.33813C4.76746 55.002 4.30469 55.4645 4.30469 56.0354V60.4446C4.30469 61.0154 4.76733 61.4781 5.33813 61.4781H8.64496C9.21563 61.4781 9.6784 61.0156 9.6784 60.4446V56.0354C9.6784 55.4645 9.21576 55.002 8.64509 55.002ZM7.61165 59.4111H6.37157V57.0687H7.61165V59.4111Z" fill="#9A9A9A"/>
<path d="M16.3619 55.002H13.0549C12.4843 55.002 12.0215 55.4645 12.0215 56.0354V60.4446C12.0215 61.0154 12.4841 61.4781 13.0549 61.4781H16.3618C16.9324 61.4781 17.3952 61.0156 17.3952 60.4446V56.0354C17.3952 55.4645 16.9326 55.002 16.3619 55.002ZM15.3284 59.4111H14.0884V57.0687H15.3284V59.4111Z" fill="#9A9A9A"/>
<path d="M24.0766 55.002H20.7698C20.1991 55.002 19.7363 55.4645 19.7363 56.0354V60.4446C19.7363 61.0154 20.199 61.4781 20.7698 61.4781H24.0766C24.6473 61.4781 25.11 61.0156 25.11 60.4446V56.0354C25.1099 55.4645 24.6473 55.002 24.0766 55.002ZM23.0432 59.4111H21.8031V57.0687H23.0432V59.4111Z" fill="#9A9A9A"/>
<path d="M31.7934 55.002H28.4866C27.9159 55.002 27.4531 55.4645 27.4531 56.0354V60.4446C27.4531 61.0154 27.9158 61.4781 28.4866 61.4781H31.7934C32.3641 61.4781 32.8268 61.0156 32.8268 60.4446V56.0354C32.8267 55.4645 32.3641 55.002 31.7934 55.002ZM30.76 59.4111H29.5199V57.0687H30.76V59.4111Z" fill="#9A9A9A"/>
<path d="M39.5102 55.002H36.2034C35.6327 55.002 35.1699 55.4645 35.1699 56.0354V60.4446C35.1699 61.0154 35.6326 61.4781 36.2034 61.4781H39.5102C40.0809 61.4781 40.5436 61.0156 40.5436 60.4446V56.0354C40.5435 55.4645 40.0809 55.002 39.5102 55.002ZM38.4768 59.4111H37.2367V57.0687H38.4768V59.4111Z" fill="#9A9A9A"/>
<path d="M47.2252 55.002H43.9182C43.3475 55.002 42.8848 55.4645 42.8848 56.0354V60.4446C42.8848 61.0154 43.3474 61.4781 43.9182 61.4781H47.225C47.7957 61.4781 48.2585 61.0156 48.2585 60.4446V56.0354C48.2585 55.4645 47.7958 55.002 47.2252 55.002ZM46.1917 59.4111H44.9516V57.0687H46.1917V59.4111Z" fill="#9A9A9A"/>
<path d="M54.9418 55.002H51.635C51.0643 55.002 50.6016 55.4645 50.6016 56.0354V60.4446C50.6016 61.0154 51.0642 61.4781 51.635 61.4781H54.9418C55.5125 61.4781 55.9753 61.0156 55.9753 60.4446V56.0354C55.9753 55.4645 55.5125 55.002 54.9418 55.002ZM53.9084 59.4111H52.6683V57.0687H53.9084V59.4111Z" fill="#9A9A9A"/>
<path d="M62.6586 55.002H59.3518C58.7811 55.002 58.3184 55.4645 58.3184 56.0354V60.4446C58.3184 61.0154 58.781 61.4781 59.3518 61.4781H62.6586C63.2293 61.4781 63.6921 61.0156 63.6921 60.4446V56.0354C63.6921 55.4645 63.2293 55.002 62.6586 55.002ZM61.6252 59.4111H60.3851V57.0687H61.6252V59.4111Z" fill="#9A9A9A"/>
<path d="M14.156 16.4219C12.3705 16.4219 10.918 17.8744 10.918 19.6599C10.918 21.4454 12.3705 22.8979 14.156 22.8979C15.9414 22.8979 17.394 21.4454 17.394 19.6599C17.394 17.8744 15.9414 16.4219 14.156 16.4219ZM14.156 20.831C13.5101 20.831 12.9847 20.3056 12.9847 19.6597C12.9847 19.0139 13.5101 18.4885 14.156 18.4885C14.8018 18.4885 15.3272 19.0139 15.3272 19.6597C15.3272 20.3056 14.8018 20.831 14.156 20.831Z" fill="#9A9A9A"/>
<path d="M25.1801 10.9102C22.7868 10.9102 20.8398 12.8573 20.8398 15.2504C20.8398 17.6436 22.787 19.5907 25.1801 19.5907C27.5733 19.5907 29.5204 17.6436 29.5204 15.2504C29.5204 12.8573 27.5733 10.9102 25.1801 10.9102ZM25.1801 17.5239C23.9265 17.5239 22.9066 16.504 22.9066 15.2504C22.9066 13.9968 23.9265 12.9769 25.1801 12.9769C26.4337 12.9769 27.4536 13.9968 27.4536 15.2504C27.4536 16.504 26.4337 17.5239 25.1801 17.5239Z" fill="#9A9A9A"/>
<path d="M41.7144 0.989258C36.8899 0.989258 32.9648 4.9142 32.9648 9.73877C32.9648 14.5632 36.8899 18.4883 41.7144 18.4883C46.5388 18.4883 50.4639 14.5632 50.4639 9.73877C50.4639 4.9142 46.5388 0.989258 41.7144 0.989258ZM41.7144 16.4214C38.0296 16.4214 35.0317 13.4236 35.0317 9.73877C35.0317 6.05398 38.0296 3.05614 41.7144 3.05614C45.3991 3.05614 48.397 6.05398 48.397 9.73877C48.397 13.4236 45.3991 16.4214 41.7144 16.4214Z" fill="#9A9A9A"/>
<path d="M44.6455 5.60453C43.676 5.78191 40.4343 6.43894 39.4241 7.44918C39.4241 7.44918 39.4241 7.44918 39.4241 7.44931C38.8124 8.06084 38.4757 8.87398 38.4757 9.73881C38.4757 10.2468 38.5926 10.7365 38.8125 11.1784L37.8652 12.1258C37.4616 12.5294 37.4616 13.1837 37.8652 13.5872C38.0669 13.7892 38.3313 13.89 38.5958 13.89C38.8602 13.89 39.1247 13.7892 39.3265 13.5874L40.2739 12.6401C41.5063 13.2531 43.0316 13.0003 44.0032 12.0286C45.0134 11.0183 45.6707 7.77673 45.8479 6.8071C45.9759 6.10843 45.3447 5.4764 44.6455 5.60453ZM42.5418 10.567C42.0904 11.0185 41.3369 11.0183 40.8856 10.5669C40.4342 10.1155 40.4342 9.36215 40.8856 8.91072C41.1327 8.66721 42.2055 8.29003 43.4818 7.97086C43.1625 9.24703 42.7853 10.3199 42.5418 10.567Z" fill="#9A9A9A"/>
</g>
<defs>
<clipPath id="clip0_2536_16572">
<rect width="66" height="66" fill="white" transform="translate(0.998047 0.438477)"/>
</clipPath>
</defs>
</svg>
