<svg width="67" height="74" viewBox="0 0 67 74" fill="none" xmlns="http://www.w3.org/2000/svg">
<path d="M10.1875 28.9784C10.1875 21.2493 16.475 14.9609 24.202 14.9609C31.9289 14.9609 38.2162 21.2493 38.2162 28.9784C38.2162 36.7075 31.9289 42.9963 24.202 42.9963C16.4751 42.9963 10.1875 36.7075 10.1875 28.9784ZM13.9006 28.9784C13.9006 34.6606 18.5211 39.2832 24.202 39.2832C29.8826 39.2832 34.5032 34.6606 34.5032 28.9784C34.5032 23.2964 29.8826 18.674 24.202 18.674C18.5212 18.674 13.9006 23.2964 13.9006 28.9784Z" fill="#9A9A9A" stroke="white"/>
<path d="M54.9627 20.8424L55.1216 20.3684L56.1942 17.1676C56.4323 16.4552 56.2187 15.6698 55.6521 15.1768C55.0858 14.6841 54.2788 14.5812 53.6056 14.9155L54.9627 20.8424ZM54.9627 20.8424L55.4368 21.0013L57.5559 21.7117L57.7148 21.2376L58.1889 21.3964L62.132 9.62528L62.2908 9.15125L61.8168 8.99238L50.0498 5.04856L49.5757 4.88965L49.4168 5.36379L48.7064 7.48386L48.5476 7.95794L49.0217 8.1168L51.334 8.89167C52.0462 9.13035 52.5441 9.77423 52.5961 10.5232C52.6481 11.2723 52.2438 11.979 51.5722 12.3139C51.5721 12.314 51.5721 12.314 51.572 12.314L41.1894 17.4857L41.4047 17.9179L41.1894 17.4857C40.4121 17.8729 39.4706 17.6694 38.922 16.9964C35.297 12.5457 29.929 9.99179 24.1969 9.99179C13.7275 9.99179 5.21087 18.5111 5.21087 28.9827C5.21087 38.2937 11.8645 46.1711 21.0307 47.7097C21.9252 47.8601 22.5801 48.6343 22.5801 49.541V56.7796C22.5801 57.8049 21.7491 58.6362 20.7238 58.6362H16.1329H15.6329V59.1362V61.3722V61.8722H16.1329H20.7238C21.7489 61.8722 22.5801 62.7034 22.5801 63.7285V68.3216V68.8216H23.0801H25.3142H25.8142V68.3216V63.7285C25.8142 62.7036 26.6454 61.8722 27.6708 61.8722H32.2617H32.7617V61.3722V59.1362V58.6362H32.2617H27.6708C26.6456 58.6362 25.8142 57.805 25.8142 56.7796V49.5405C25.8142 48.6335 26.4694 47.8594 27.3634 47.7095L27.3635 47.7095C36.5298 46.1709 43.183 38.2937 43.183 28.9827C43.183 26.7595 42.8021 24.581 42.0509 22.509C41.7296 21.6222 42.1242 20.6351 42.9684 20.2144C42.9685 20.2144 42.9685 20.2143 42.9685 20.2143L53.6052 14.9157L54.9627 20.8424ZM48.9952 0.779013L48.9954 0.779084L65.2309 6.22092L65.3894 5.74797L65.2309 6.22092C66.2031 6.54674 66.727 7.59873 66.4012 8.57097L66.8708 8.72837L66.4012 8.57102L60.9606 24.8107C60.9606 24.8108 60.9606 24.8109 60.9605 24.8109C60.8039 25.2777 60.4681 25.6636 60.028 25.8828C59.5866 26.1026 59.0762 26.1379 58.61 25.9815L58.6098 25.9814L52.0225 23.773L52.0224 23.773C51.0504 23.4474 50.5263 22.3952 50.8521 21.4232L50.8656 21.3834L51.2526 20.2362L50.1688 20.7761L46.4181 22.6445L46.0543 22.8257L46.1573 23.2187C46.648 25.0915 46.896 27.0223 46.896 28.983C46.896 34.3852 44.9665 39.6188 41.4631 43.7207C38.4287 47.2736 34.377 49.7991 29.9016 50.961L29.5273 51.0582V51.445V54.4233V54.9233H30.0273H34.6184C35.6437 54.9233 36.475 55.7546 36.475 56.7796V63.7288C36.475 64.754 35.6438 65.5853 34.6184 65.5853H30.0273H29.5273V66.0853V70.6784C29.5273 71.7034 28.6961 72.5347 27.671 72.5347H20.7238C19.6986 72.5347 18.8673 71.7035 18.8673 70.6784V66.0853V65.5853H18.3673H13.7764C12.7515 65.5853 11.9201 64.7542 11.9201 63.7288V56.7796C11.9201 55.7547 12.7513 54.9233 13.7764 54.9233H18.3673H18.8673V54.4233V51.4455V51.0587L18.4929 50.9615C14.0176 49.7995 9.96564 47.2739 6.93095 43.721C3.42759 39.6191 1.49805 34.3852 1.49805 28.983C1.49805 16.4643 11.6813 6.27897 24.1972 6.27897C30.4277 6.27897 36.2953 8.79995 40.5672 13.2552L40.8218 13.5207L41.151 13.3567L44.9867 11.4464L45.7036 11.0893L45.068 10.602C44.4554 10.1324 44.1792 9.30967 44.4375 8.53836L46.6449 1.94958L46.6449 1.94951C46.8011 1.48292 47.1369 1.09728 47.5778 0.877633L47.578 0.877515C48.0186 0.657697 48.5284 0.622326 48.9952 0.779013Z" fill="#9A9A9A" stroke="white"/>
<path d="M29.8787 26.0654V26.0655C29.8787 27.0906 29.0476 27.9218 28.0222 27.9218H20.3582C19.3331 27.9218 18.502 27.0909 18.502 26.0655C18.502 25.0403 19.333 24.209 20.3582 24.209H28.0222C29.0476 24.209 29.8789 25.0404 29.8787 26.0654Z" fill="#9A9A9A" stroke="white"/>
<path d="M29.8787 31.8906V31.8907C29.8787 32.9161 29.0476 33.7472 28.0222 33.7472H20.3582C19.3331 33.7472 18.502 32.9161 18.502 31.8907C18.502 30.8655 19.333 30.0342 20.3582 30.0342H28.0222C29.0476 30.0342 29.8789 30.8656 29.8787 31.8906Z" fill="#9A9A9A" stroke="white"/>
</svg>
