<svg width="52" height="49" viewBox="0 0 52 49" fill="none" xmlns="http://www.w3.org/2000/svg">
<rect x="0.369141" width="50.6398" height="49" rx="24.5" fill="#34A853"/>
<path d="M39.6706 27.85C39.6706 26.4459 38.6961 25.1959 37.3011 24.8106L33.1365 23.6595V22.4808C33.6466 22.0296 34.041 21.4597 34.2729 20.8152C34.8433 20.7597 35.3805 20.5135 35.7693 20.0994C36.1594 19.6844 36.3615 19.1397 36.3629 18.5806H36.376V15.871C36.376 12.6338 33.6541 10 30.3086 10C26.9631 10 24.2411 12.6338 24.2411 15.871V18.5806H24.2542C24.2556 19.1402 24.4581 19.6844 24.8479 20.0994C25.2366 20.5131 25.7738 20.7592 26.3442 20.8152C26.5803 21.4714 26.9845 22.0499 27.5082 22.5047V23.6595L23.3436 24.8106C21.9486 25.1959 20.974 26.4459 20.974 27.85V30.2417C20.6786 30.1686 20.3995 30.0313 20.1773 29.8163L19.1636 28.8354C18.8313 28.5134 18.6404 28.0681 18.6404 27.6129C18.6404 27.1577 18.8313 26.7124 19.1636 26.3904L19.7111 25.8602C20.2245 25.3639 20.5073 24.7036 20.5073 24.0014V23.9151C20.5073 23.2783 20.2683 22.6637 19.8352 22.1841L17.7975 19.9305C17.2808 19.3597 16.5359 19.0323 15.7523 19.0323C15.0937 19.0323 14.4585 19.2635 13.9629 19.6826L12.2019 21.1738C11.2512 21.9786 10.7061 23.141 10.7061 24.3631C10.7061 25.0893 10.9007 25.8078 11.2685 26.441C13.7267 30.6694 17.2874 34.2421 21.5663 36.7725L22.6164 37.3935C23.2881 37.79 24.0586 38 24.846 38C26.0796 38 27.2524 37.4847 28.0641 36.5869L29.636 34.8482C30.0696 34.369 30.3086 33.7544 30.3086 33.1172C30.3086 32.9352 30.288 32.7554 30.2502 32.5806H39.6706V27.85ZM34.5931 25.0017L32.9745 27.8202L30.9998 26.2278L32.7841 24.5013L34.5931 25.0017ZM35.0785 19.492C34.9175 19.6632 34.7121 19.7837 34.4895 19.8569C34.5012 19.7336 34.5091 19.6099 34.5091 19.4839V17.3229C35.0113 17.5072 35.3856 17.9353 35.436 18.4461C35.4743 18.8345 35.3473 19.2061 35.0785 19.492ZM30.3086 10.9032C33.1393 10.9032 35.4425 13.1319 35.4425 15.871V16.8126C35.0295 16.51 34.5166 16.3226 33.9621 16.3226H33.6891C32.5367 16.3226 31.4534 15.8886 30.6385 15.1001L30.3086 14.7808L29.9786 15.1001C29.1637 15.8886 28.0804 16.3226 26.9281 16.3226H26.5747V16.3239C26.0506 16.3402 25.5676 16.5245 25.1746 16.8126V15.871C25.1746 13.1319 27.4779 10.9032 30.3086 10.9032ZM25.5386 19.492C25.2698 19.2061 25.1428 18.8349 25.1811 18.4465C25.2315 17.9357 25.6058 17.5076 26.108 17.3234V19.4839C26.108 19.6099 26.116 19.7336 26.1276 19.8569C25.905 19.7833 25.6996 19.6632 25.5386 19.492ZM27.0415 19.4839V17.2208C28.2503 17.196 29.3924 16.7814 30.3086 16.0322C31.2247 16.7814 32.3668 17.196 33.5756 17.2208V19.4839C33.5756 21.2266 32.1101 22.6452 30.3086 22.6452C28.507 22.6452 27.0415 21.2266 27.0415 19.4839ZM30.3086 23.5484C30.9904 23.5484 31.6327 23.3872 32.203 23.1067V23.7864L30.3086 25.6195L28.4417 23.813V23.1194C29.005 23.3917 29.6374 23.5484 30.3086 23.5484ZM27.8391 24.5072L29.6173 26.2278L27.6426 27.8202L26.0282 25.008L27.8391 24.5072ZM17.0946 20.5248L19.1323 22.7784C19.417 23.0932 19.5739 23.4969 19.5739 23.9151V24.0014C19.5739 24.2109 19.5309 24.4128 19.4572 24.6038L14.8702 20.1649C15.1376 20.0168 15.4405 19.9355 15.7523 19.9355C16.2666 19.9355 16.7558 20.1505 17.0946 20.5248ZM27.3621 35.9926C26.7274 36.6939 25.8103 37.0968 24.846 37.0968C24.2304 37.0968 23.6278 36.9328 23.1032 36.6221L22.0531 36.0012C17.9104 33.5512 14.4623 30.0923 12.082 25.9979C11.7926 25.4998 11.6395 24.9344 11.6395 24.3631C11.6395 23.4016 12.0684 22.4871 12.8161 21.8539L14.1388 20.7344L18.9139 25.3548L18.5041 25.7518C17.9973 26.2418 17.7069 26.9201 17.7069 27.6129C17.7069 28.3057 17.9973 28.984 18.5037 29.474L19.5174 30.4549C20.0308 30.9521 20.7141 31.2258 21.4408 31.2258C22.1675 31.2258 22.8507 30.9521 23.3641 30.4549L23.7744 30.0579L28.5499 34.6788L27.3621 35.9926ZM29.1385 33.9712L24.551 29.5323C24.748 29.4614 24.9571 29.4194 25.1736 29.4194H25.2623C25.6945 29.4194 26.1118 29.5711 26.4371 29.8466L28.766 31.8183C29.1529 32.1457 29.3751 32.6195 29.3751 33.1172C29.3751 33.4193 29.2906 33.7124 29.1385 33.9712ZM38.7372 31.6774H35.9233V28.5161H34.9898V31.6774H29.8605C29.7266 31.4801 29.5679 31.2972 29.3807 31.1386L27.0522 29.1669C26.5561 28.7474 25.9209 28.5161 25.2623 28.5161H25.1736C24.4479 28.5161 23.7655 28.7894 23.2521 29.2861L22.7047 29.8163C22.482 30.0313 22.2034 30.1686 21.908 30.2417V27.85C21.908 26.847 22.6038 25.9546 23.6003 25.6791L25.1069 25.2627L27.3743 29.2121L29.8418 27.2223V30.7742H30.7753V27.2223L33.2433 29.2121L35.5144 25.2564L37.0448 25.6795C38.0413 25.9546 38.7372 26.8474 38.7372 27.8505V31.6774V31.6774Z" fill="white"/>
</svg>
