<svg width="22" height="22" viewBox="0 0 22 22" fill="none" xmlns="http://www.w3.org/2000/svg">
<path d="M9.07541 13.8093H2.2681C2.12409 13.8104 1.98635 13.8684 1.88492 13.9707C1.78348 14.0729 1.72656 14.2111 1.72656 14.3551V14.8966C1.72656 15.0403 1.78362 15.178 1.88518 15.2796C1.98673 15.3811 2.12448 15.4382 2.2681 15.4382H9.07541C9.21903 15.4382 9.35678 15.3811 9.45833 15.2796C9.55989 15.178 9.61695 15.0403 9.61695 14.8966V14.3551C9.61695 14.2111 9.56003 14.0729 9.45859 13.9707C9.35716 13.8684 9.21942 13.8104 9.07541 13.8093Z" fill="white"/>
<path d="M9.07484 17.6255H2.26754C2.19441 17.626 2.12212 17.6412 2.05498 17.6702C1.98785 17.6992 1.92722 17.7414 1.8767 17.7943C1.82619 17.8471 1.78682 17.9096 1.76093 17.978C1.73504 18.0464 1.72316 18.1193 1.726 18.1924V18.7509C1.726 18.8945 1.78305 19.0322 1.88461 19.1338C1.98617 19.2354 2.12391 19.2924 2.26754 19.2924H9.07484C9.21847 19.2924 9.35621 19.2354 9.45777 19.1338C9.55933 19.0322 9.61638 18.8945 9.61638 18.7509V18.1924C9.61921 18.1207 9.60789 18.0492 9.58304 17.9819C9.5582 17.9146 9.52034 17.8528 9.47161 17.8002C9.42289 17.7475 9.36426 17.705 9.29908 17.675C9.2339 17.645 9.16345 17.6282 9.09177 17.6255H9.07484Z" fill="white"/>
<path d="M19.7362 13.8093H12.9331C12.7891 13.8104 12.6514 13.8684 12.55 13.9707C12.4485 14.0729 12.3916 14.2111 12.3916 14.3551V14.8966C12.3916 15.0403 12.4487 15.178 12.5502 15.2796C12.6518 15.3811 12.7895 15.4382 12.9331 15.4382H19.7362C19.8073 15.4387 19.8779 15.4253 19.9438 15.3986C20.0097 15.3719 20.0697 15.3325 20.1204 15.2826C20.1711 15.2327 20.2114 15.1733 20.2391 15.1078C20.2669 15.0423 20.2814 14.972 20.282 14.9009V14.3551C20.282 14.2103 20.2245 14.0715 20.1221 13.9692C20.0198 13.8668 19.881 13.8093 19.7362 13.8093Z" fill="white"/>
<path d="M19.7366 17.6255H12.9336C12.8604 17.626 12.7881 17.6412 12.721 17.6702C12.6539 17.6992 12.5932 17.7414 12.5427 17.7943C12.4922 17.8471 12.4528 17.9096 12.4269 17.978C12.4011 18.0464 12.3892 18.1193 12.392 18.1924V18.7509C12.392 18.8945 12.4491 19.0322 12.5506 19.1338C12.6522 19.2354 12.7899 19.2924 12.9336 19.2924H19.7366C19.8077 19.293 19.8783 19.2795 19.9442 19.2528C20.0101 19.2261 20.0701 19.1867 20.1208 19.1368C20.1715 19.0869 20.2118 19.0275 20.2396 18.962C20.2673 18.8965 20.2818 18.8262 20.2824 18.7551V18.1924C20.2852 18.1207 20.2739 18.0492 20.2491 17.9819C20.2242 17.9146 20.1864 17.8528 20.1376 17.8002C20.0889 17.7475 20.0303 17.705 19.9651 17.675C19.8999 17.645 19.8295 17.6282 19.7578 17.6255H19.7366Z" fill="white"/>
<path d="M16.3349 2.75854C15.4839 2.75854 14.652 3.01089 13.9445 3.48368C13.2369 3.95647 12.6854 4.62845 12.3598 5.41467C12.0341 6.20088 11.9489 7.06601 12.1149 7.90065C12.2809 8.73529 12.6907 9.50196 13.2925 10.1037C13.8942 10.7054 14.6609 11.1152 15.4955 11.2813C16.3301 11.4473 17.1953 11.3621 17.9815 11.0364C18.7677 10.7107 19.4397 10.1593 19.9125 9.45168C20.3853 8.74411 20.6376 7.91223 20.6376 7.06124V7.06124C20.6354 5.92078 20.1813 4.82767 19.3749 4.02124C18.5685 3.21482 17.4754 2.76078 16.3349 2.75854ZM18.4503 7.36162C18.4471 7.42865 18.4188 7.49202 18.371 7.53908C18.3231 7.58613 18.2593 7.61341 18.1922 7.61547H14.4734C14.4067 7.62014 14.3409 7.59833 14.2902 7.55477C14.2395 7.5112 14.208 7.4494 14.2026 7.38278C14.1857 7.18005 14.1857 6.97627 14.2026 6.77354C14.2135 6.70924 14.2465 6.65077 14.296 6.60827C14.3454 6.56577 14.4082 6.54192 14.4734 6.54085H18.1922C18.2572 6.54122 18.3198 6.56493 18.3688 6.60764C18.4177 6.65036 18.4496 6.70924 18.4588 6.77354C18.4736 6.96929 18.4736 7.16587 18.4588 7.36162H18.4503Z" fill="white"/>
<path d="M8.72835 3.99816C8.12422 3.3941 7.35454 2.98275 6.51663 2.81612C5.67872 2.64949 4.81022 2.73506 4.02094 3.06202C3.23166 3.38897 2.55706 3.94263 2.08244 4.65298C1.60782 5.36332 1.35449 6.19845 1.35449 7.05277C1.35449 7.90709 1.60782 8.74222 2.08244 9.45257C2.55706 10.1629 3.23166 10.7166 4.02094 11.0435C4.81022 11.3705 5.67872 11.4561 6.51663 11.2894C7.35454 11.1228 8.12422 10.7114 8.72835 10.1074C9.12952 9.70627 9.44775 9.23005 9.66486 8.70594C9.88198 8.18182 9.99372 7.62008 9.99372 7.05277C9.99372 6.48547 9.88198 5.92372 9.66486 5.3996C9.44775 4.87549 9.12952 4.39928 8.72835 3.99816V3.99816ZM8.54643 7.41239C8.54757 7.43462 8.54431 7.45685 8.53684 7.47782C8.52937 7.49879 8.51784 7.51808 8.50291 7.53459C8.48798 7.55109 8.46993 7.56449 8.44981 7.57401C8.42969 7.58354 8.40789 7.589 8.38566 7.59008H6.39297C6.34538 7.59215 6.3003 7.61198 6.26663 7.64566C6.23295 7.67934 6.21311 7.72442 6.21104 7.772V9.73085C6.20898 9.77731 6.18959 9.82132 6.1567 9.8542C6.12382 9.88709 6.07981 9.90647 6.03335 9.90854H5.31412C5.29188 9.91027 5.26952 9.90759 5.24833 9.90065C5.22713 9.89371 5.20752 9.88265 5.19061 9.8681C5.1737 9.85355 5.15984 9.83581 5.14981 9.81588C5.13979 9.79596 5.1338 9.77425 5.1322 9.752V7.772C5.13393 7.74977 5.13125 7.72741 5.12431 7.70621C5.11736 7.68501 5.1063 7.6654 5.09176 7.64849C5.07721 7.63159 5.05946 7.61772 5.03954 7.6077C5.01961 7.59767 4.9979 7.59168 4.97566 7.59008H2.96181C2.93958 7.59181 2.91722 7.58913 2.89602 7.58219C2.87482 7.57525 2.85521 7.56418 2.8383 7.54964C2.8214 7.53509 2.80753 7.51734 2.79751 7.49742C2.78748 7.4775 2.78149 7.45579 2.77989 7.43354V6.69316C2.78196 6.64557 2.80179 6.60049 2.83547 6.56682C2.86915 6.53314 2.91423 6.5133 2.96181 6.51123H4.93758C4.95981 6.51237 4.98205 6.50911 5.00302 6.50165C5.02399 6.49418 5.04328 6.48265 5.05978 6.46771C5.07629 6.45278 5.08969 6.43474 5.09921 6.41462C5.10873 6.3945 5.11419 6.3727 5.11527 6.35046V4.35777C5.11913 4.31081 5.13953 4.26674 5.17285 4.23342C5.20617 4.2001 5.25024 4.1797 5.2972 4.17585H6.01643C6.06356 4.17585 6.10875 4.19457 6.14208 4.22789C6.1754 4.26122 6.19412 4.30641 6.19412 4.35354V6.34623C6.19298 6.36846 6.19624 6.3907 6.20371 6.41167C6.21117 6.43264 6.2227 6.45193 6.23764 6.46843C6.25257 6.48494 6.27062 6.49834 6.29074 6.50786C6.31086 6.51738 6.33266 6.52284 6.35489 6.52393H8.35181C8.39865 6.52701 8.44269 6.54729 8.47549 6.58087C8.50828 6.61445 8.52752 6.65895 8.5295 6.70585L8.54643 7.41239Z" fill="white"/>
</svg>
