<svg width="28" height="28" viewBox="0 0 28 28" fill="none" xmlns="http://www.w3.org/2000/svg">
<g clip-path="url(#clip0_1087_11418)">
<path d="M14 22.1666C14.966 22.1666 15.75 22.9506 15.75 23.9166C15.75 24.8826 14.966 25.6666 14 25.6666C13.034 25.6666 12.25 24.8826 12.25 23.9166C12.25 22.9506 13.034 22.1666 14 22.1666ZM14 2.33331C17.8663 2.33331 21 5.46698 21 9.33331C21 11.8591 20.1215 13.1716 17.8803 15.0768C15.6322 16.9866 15.1667 17.8465 15.1667 19.8333H12.8333C12.8333 16.947 13.7515 15.5225 16.3695 13.2988C18.1393 11.795 18.6667 11.0063 18.6667 9.33331C18.6667 6.75498 16.5783 4.66665 14 4.66665C11.4217 4.66665 9.33333 6.75498 9.33333 9.33331V10.5H7V9.33331C7 5.46698 10.1337 2.33331 14 2.33331Z" fill="#D7282F"/>
</g>
<defs>
<clipPath id="clip0_1087_11418">
<rect width="28" height="28" fill="white"/>
</clipPath>
</defs>
</svg>
