<svg width="34" height="56" viewBox="0 0 34 56" fill="none" xmlns="http://www.w3.org/2000/svg">
<path d="M17 47.25C19.277 47.25 21.125 49.098 21.125 51.375C21.125 53.652 19.277 55.5 17 55.5C14.723 55.5 12.875 53.652 12.875 51.375C12.875 49.098 14.723 47.25 17 47.25ZM17 0.5C26.1135 0.5 33.5 7.8865 33.5 17C33.5 22.9537 31.4293 26.0475 26.1465 30.5382C20.8472 35.04 19.75 37.0667 19.75 41.75H14.25C14.25 34.9465 16.4143 31.5887 22.5853 26.3472C26.757 22.8025 28 20.9435 28 17C28 10.9225 23.0775 6 17 6C10.9225 6 6 10.9225 6 17V19.75H0.5V17C0.5 7.8865 7.8865 0.5 17 0.5Z" fill="#9A9A9A"/>
</svg>
