<svg width="54" height="66" viewBox="0 0 54 66" fill="none" xmlns="http://www.w3.org/2000/svg">
<path d="M11.8975 45.2521H32.8822V51.8693H11.8975V45.2521ZM11.8975 32.0177H41.8756V38.6349H11.8975V32.0177ZM11.8975 18.7833H41.8756V25.4005H11.8975V18.7833ZM47.8712 5.54895H35.3404C34.0813 1.71098 30.7837 -1.06824 26.8866 -1.06824C22.9894 -1.06824 19.6918 1.71098 18.4327 5.54895H5.90187C5.48218 5.54895 5.09246 5.58204 4.70275 5.68129C3.5336 5.94598 2.48437 6.6077 1.67496 7.50102C1.13535 8.09657 0.685681 8.82446 0.3859 9.61852C0.086119 10.4126 -0.09375 11.2397 -0.09375 12.1661V58.4865C-0.09375 59.3798 0.086119 60.2731 0.3859 61.0672C0.685681 61.8612 1.13535 62.556 1.67496 63.1847C2.48437 64.078 3.5336 64.7397 4.70275 65.0044C5.09246 65.0705 5.48218 65.1036 5.90187 65.1036H47.8712C51.1688 65.1036 53.8669 62.1259 53.8669 58.4865V12.1661C53.8669 8.52668 51.1688 5.54895 47.8712 5.54895ZM26.8866 4.7218C28.1157 4.7218 29.1349 5.84672 29.1349 7.20325C29.1349 8.55977 28.1157 9.68469 26.8866 9.68469C25.6575 9.68469 24.6382 8.55977 24.6382 7.20325C24.6382 5.84672 25.6575 4.7218 26.8866 4.7218ZM47.8712 58.4865H5.90187V12.1661H47.8712V58.4865Z" fill="#9A9A9A"/>
</svg>
