<svg width="61" height="61" viewBox="0 0 61 61" fill="none" xmlns="http://www.w3.org/2000/svg">
<g opacity="0.7">
<path d="M55.0825 29.2559H40.5826C36.7576 29.2559 34.1325 26.3559 34.1325 22.8059V14.7559C34.1325 11.2059 36.7576 8.30587 40.5826 8.30587H48.6325C52.1825 8.30587 55.0825 11.2059 55.0825 14.7559V29.2559Z" stroke="#231F20" stroke-width="4" stroke-linecap="round" stroke-linejoin="round"/>
<path d="M55.0825 29.2558C55.0825 44.3808 52.2574 46.8807 43.7574 51.9307" stroke="#231F20" stroke-width="4" stroke-linecap="round" stroke-linejoin="round"/>
</g>
<path d="M26.0052 29.2559H11.5055C7.68051 29.2559 5.05526 26.3559 5.05526 22.8059V14.7559C5.05526 11.2059 7.68051 8.30587 11.5055 8.30587H19.5553C23.1053 8.30587 26.0052 11.2059 26.0052 14.7559V29.2559Z" stroke="#D7282F" stroke-width="4" stroke-linecap="round" stroke-linejoin="round"/>
<path d="M26.0052 29.2558C26.0052 44.3808 23.1805 46.8807 14.6805 51.9307" stroke="#D7282F" stroke-width="4" stroke-linecap="round" stroke-linejoin="round"/>
</svg>
