<svg width="66" height="66" viewBox="0 0 66 66" fill="none" xmlns="http://www.w3.org/2000/svg">
<path d="M11.1787 33.0314L11.5827 32.6275L11.3007 32.1307C10.6793 31.0358 10.1984 29.8811 9.86534 28.6773L9.71318 28.1272H9.14249H6.09766V21.0707H9.14249H9.71318L9.86534 20.5206C10.1984 19.3168 10.6793 18.1621 11.3007 17.0672L11.5827 16.5704L11.1787 16.1665L9.02138 14.0101L14.0111 9.02041L16.1675 11.1777L16.5714 11.5817L17.0681 11.2997C18.1631 10.6783 19.3178 10.1974 20.5216 9.86437L21.0716 9.7122V9.14152V6.09668H28.1282V9.14152V9.7122L28.6782 9.86437C29.8821 10.1974 31.0368 10.6783 32.1317 11.2997L32.6285 11.5817L33.0324 11.1777L35.1888 9.02041L40.1785 14.0101L38.0212 16.1665L37.6172 16.5704L37.8991 17.0672C38.5206 18.1621 39.0015 19.3168 39.3345 20.5206L39.4867 21.0707H40.0574H43.1022V28.1272H40.0574H39.4867L39.3345 28.6773C39.0014 29.8813 38.5205 31.0369 37.8993 32.1305L37.617 32.6274L38.0212 33.0314L40.1785 35.1878L35.1888 40.1775L33.0324 38.0202L32.6285 37.6162L32.1317 37.8982C31.0368 38.5196 29.8821 39.0005 28.6782 39.3335L28.1282 39.4857V40.0564V43.1012H21.0716V40.0564V39.4857L20.5216 39.3335C19.3176 39.0005 18.1619 38.5196 17.0684 37.8983L16.5715 37.616L16.1675 38.0202L14.0111 40.1775L9.02138 35.1878L11.1787 33.0314ZM7.4868 21.7098H6.7368V22.4598V26.7381V27.4881H7.4868H10.2357L10.29 27.7373L10.2902 27.7383C10.6602 29.4259 11.3247 31.0252 12.2654 32.491C12.2655 32.491 12.2655 32.491 12.2655 32.4911L12.4045 32.7077L10.4552 34.6562L9.92458 35.1865L10.455 35.717L13.4808 38.7428L14.0113 39.2732L14.5416 38.7427L16.4901 36.7933L16.7068 36.9323C16.7068 36.9323 16.7068 36.9324 16.7069 36.9324C18.1726 37.8731 19.7719 38.5376 21.4595 38.9076L21.4598 38.9077L21.7108 38.9626V41.7121V42.4621H22.4608H26.7391H27.4891V41.7121V38.9632L27.7383 38.9089L27.7393 38.9087C29.4269 38.5387 31.0262 37.8742 32.4919 36.9334C32.492 36.9334 32.492 36.9334 32.492 36.9334L32.7087 36.7944L34.6572 38.7437L35.1875 39.2743L35.7179 38.7439L38.7438 35.718L39.2742 35.1876L38.7436 34.6573L36.7943 32.7088L36.9333 32.4921C36.9333 32.4921 36.9333 32.4921 36.9334 32.492C37.8741 31.0263 38.5386 29.4269 38.9086 27.7394L38.9087 27.7391L38.9636 27.4881H41.7131H42.4631V26.7381V22.4598V21.7098H41.7131H38.9642L38.9099 21.4606L38.9097 21.4596C38.5397 19.772 37.8752 18.1727 36.9344 16.707C36.9344 16.7069 36.9344 16.7069 36.9344 16.7069L36.7954 16.4902L38.7447 14.5417L39.2753 14.0114L38.7448 13.4809L35.719 10.4551L35.1886 9.92468L34.6582 10.4552L32.7098 12.4046L32.4931 12.2656C32.4931 12.2656 32.493 12.2656 32.493 12.2655C31.0272 11.3248 29.4279 10.6603 27.7404 10.2903L27.7401 10.2902L27.4891 10.2353V7.48582V6.73582H26.7391H22.4608H21.7108V7.48582V10.2347L21.4615 10.289L21.4606 10.2892C19.773 10.6592 18.1736 11.3238 16.7078 12.2645L16.4912 12.4035L14.5427 10.4542L14.0124 9.92361L13.4819 10.4541L10.4561 13.4799L9.92565 14.0103L10.4562 14.5407L12.4056 16.4891L12.2666 16.7058C12.2666 16.7058 12.2665 16.7059 12.2665 16.7059C11.3258 18.1716 10.6613 19.771 10.2913 21.4585L10.2912 21.4588L10.2363 21.7098H7.4868Z" fill="#9A9A9A" stroke="#9A9A9A" stroke-width="1.5"/>
<path d="M30.3649 33.2203L30.6971 32.9975V32.5975V31.0167C30.6971 28.8334 28.9217 27.058 26.7384 27.058H22.4601C20.2768 27.058 18.5014 28.8334 18.5014 31.0167V32.5975V32.9975L18.8336 33.2203C20.4831 34.3269 22.4674 34.9754 24.5993 34.9754C26.7312 34.9754 28.7154 34.3269 30.3649 33.2203ZM24.3625 15.7291L24.3032 14.2304C18.7178 14.3882 14.2231 18.9755 14.2231 24.5993C14.2231 27.0854 15.1037 29.3695 16.566 31.1568L17.7745 32.6339L17.895 30.7292C18.047 28.3256 20.0297 26.4188 22.4601 26.4188H24.5993H26.7384C29.1688 26.4188 31.1515 28.3256 31.3035 30.7292L31.424 32.6339L32.6325 31.1568C34.0949 29.3695 34.9754 27.0854 34.9754 24.5993C34.9754 18.9755 30.4807 14.3882 24.8953 14.2304L24.836 15.7291C27.2609 15.8525 29.1971 17.8659 29.1971 20.321C29.1971 22.8556 27.1339 24.9188 24.5993 24.9188C22.0647 24.9188 20.0014 22.8556 20.0014 20.321C20.0014 17.8659 21.9376 15.8525 24.3625 15.7291ZM35.6145 24.5993C35.6145 30.672 30.672 35.6145 24.5993 35.6145C18.5265 35.6145 13.584 30.672 13.584 24.5993C13.584 18.5265 18.5265 13.584 24.5993 13.584C30.672 13.584 35.6145 18.5265 35.6145 24.5993ZM24.5993 24.2797C26.7825 24.2797 28.558 22.5043 28.558 20.321C28.558 18.1377 26.7825 16.3623 24.5993 16.3623C22.416 16.3623 20.6406 18.1377 20.6406 20.321C20.6406 22.5043 22.416 24.2797 24.5993 24.2797Z" fill="#9A9A9A" stroke="#9A9A9A" stroke-width="1.5"/>
<path d="M11.6777 56.147L11.8974 56.3667H12.2081H41.8454L49.9653 64.4866L49.5136 64.9384L41.8008 57.2255L41.5811 57.0058H41.2705H11.6331L0.75 46.1227V44.7888L6.28528 39.2536H7.61914L14.8865 46.5209L15.1061 46.7406H15.4168H33.7835H34.0941L34.3138 46.5209L46.5219 34.3128L46.7415 34.0931V33.7825V15.4158V15.1052L46.5219 14.8855L39.2545 7.61816V6.28431L44.7898 0.749023H46.1237L57.0068 11.6322V41.2695V41.5801L57.2265 41.7998L64.9393 49.5127L64.4876 49.9644L56.3677 41.8444V12.2071V11.8964L56.148 11.6768L49.7306 5.25935L49.2002 4.72902L48.6699 5.25935L43.7649 10.1644L43.2345 10.6947L43.7649 11.2251L47.3807 14.8409V34.3574L34.3584 47.3797H14.8418L11.226 43.7639L10.6957 43.2336L10.1654 43.7639L5.26033 48.6689L4.73 49.1993L5.26033 49.7296L11.6777 56.147ZM39.8937 7.04322V7.35388L40.1134 7.57355L42.2525 9.71269L42.7828 10.243L43.3132 9.71269L48.2182 4.80764L48.7485 4.27731L48.2182 3.74698L46.0791 1.60783L45.8594 1.38816H45.5487H45.3648H45.0541L44.8344 1.60783L40.1134 6.32892L39.8937 6.54859V6.85925V7.04322ZM1.38914 45.5478V45.8584L1.60881 46.0781L3.74795 48.2172L4.27828 48.7476L4.80861 48.2172L9.71366 43.3122L10.244 42.7818L9.71366 42.2515L7.57452 40.1124L7.35485 39.8927H7.04419H6.86023H6.54957L6.3299 40.1124L1.60881 44.8335L1.38914 45.0531V45.3638V45.5478Z" fill="#9A9A9A" stroke="#9A9A9A" stroke-width="1.5"/>
<path d="M45.6719 51.2848C45.6719 48.1898 48.1908 45.6709 51.2858 45.6709C52.7864 45.6709 54.1936 46.2539 55.2552 47.3155L64.9392 56.9996L64.4875 57.4513L54.8035 47.7672C53.8649 46.8287 52.6132 46.31 51.2858 46.31C48.5421 46.31 46.311 48.5411 46.311 51.2848C46.311 52.6122 46.8297 53.864 47.7682 54.8025L57.4523 64.4866L57.0005 64.9383L47.3165 55.2542C46.2549 54.1926 45.6719 52.7854 45.6719 51.2848Z" fill="#9A9A9A" stroke="#9A9A9A" stroke-width="1.5"/>
</svg>
