<svg width="22" height="22" viewBox="0 0 22 22" fill="none" xmlns="http://www.w3.org/2000/svg">
<path d="M10.2677 20.8219H1.33561C0.981647 20.8211 0.642421 20.6801 0.39209 20.4298L0.358073 20.3869C0.130974 20.1438 0.00321766 19.8244 0 19.4917L0 1.33561C0.000138407 1.16029 0.0348393 0.986717 0.102118 0.824819C0.169396 0.66292 0.267932 0.515874 0.39209 0.39209L0.433268 0.358073C0.676292 0.130824 0.995744 0.00304362 1.32845 0L16.4499 0C16.8038 0.000945094 17.143 0.141964 17.3932 0.392236C17.6435 0.642507 17.7845 0.981676 17.7855 1.33561V10.18C17.4098 10.0755 17.0259 10.0036 16.6379 9.96517V1.33561C16.6336 1.28805 16.6121 1.24367 16.5775 1.21073C16.543 1.1778 16.4976 1.15855 16.4499 1.15658H1.33561C1.29275 1.15682 1.25118 1.17131 1.21745 1.19775L1.20312 1.21208C1.16798 1.24726 1.14805 1.29484 1.14762 1.34456V19.4863C1.14712 19.5288 1.16171 19.57 1.1888 19.6027L1.20492 19.617C1.22161 19.635 1.24183 19.6494 1.26431 19.6593C1.28679 19.6691 1.31106 19.6742 1.33561 19.6743H9.61605C9.7957 20.077 10.0139 20.4613 10.2677 20.8219ZM15.2503 14.7025H15.7677C15.8153 14.7022 15.8624 14.7114 15.9064 14.7295C15.9503 14.7477 15.9902 14.7744 16.0238 14.8081C16.092 14.8766 16.1306 14.9692 16.1312 15.0659V16.9673H17.8481C17.9431 16.9673 18.0342 17.005 18.1013 17.0722C18.1685 17.1393 18.2062 17.2304 18.2062 17.3254V17.8625C18.2045 17.9589 18.1661 18.0511 18.0988 18.1203L18.0845 18.1328C18.0183 18.1929 17.9321 18.2261 17.8428 18.2259H15.0391C14.9916 18.2259 14.946 18.207 14.9125 18.1735C14.8789 18.1399 14.86 18.0944 14.86 18.0469V15.0391C14.8658 14.9518 14.9034 14.8696 14.9657 14.8081C14.999 14.7741 15.0389 14.747 15.0828 14.7286C15.1268 14.7101 15.174 14.7006 15.2217 14.7007L15.2503 14.7025ZM15.9342 11.7054C17.1253 11.7042 18.28 12.1161 19.2013 12.871C20.1227 13.6258 20.7538 14.6768 20.987 15.8448C21.2203 17.0128 21.0412 18.2256 20.4804 19.2763C19.9195 20.3271 19.0116 21.1509 17.9115 21.6072C16.8113 22.0636 15.5868 22.1242 14.4469 21.7789C13.307 21.4335 12.3221 20.7035 11.6602 19.7133C10.9982 18.7231 10.7002 17.534 10.8168 16.3487C10.9334 15.1633 11.4576 14.0551 12.2998 13.2129C12.7767 12.7349 13.3432 12.3558 13.9668 12.0971C14.5905 11.8384 15.2591 11.7053 15.9342 11.7054ZM18.8454 13.9416C18.1716 13.2681 17.2851 12.849 16.3369 12.7558C15.3888 12.6627 14.4377 12.9011 13.6457 13.4306C12.8537 13.9601 12.2698 14.7478 11.9934 15.6596C11.7171 16.5713 11.7655 17.5507 12.1303 18.4307C12.4951 19.3108 13.1538 20.0372 13.9941 20.4861C14.8344 20.9349 15.8044 21.0786 16.7387 20.8924C17.6731 20.7063 18.514 20.202 19.1181 19.4653C19.7223 18.7287 20.0524 17.8054 20.0521 16.8527C20.0529 16.312 19.9469 15.7765 19.7401 15.2769C19.5334 14.7773 19.2299 14.3235 18.8472 13.9416H18.8454ZM7.64665 14.9263C7.49631 14.8987 7.36041 14.8192 7.26258 14.7018C7.16474 14.5844 7.11117 14.4364 7.11117 14.2835C7.11117 14.1307 7.16474 13.9827 7.26258 13.8652C7.36041 13.7478 7.49631 13.6684 7.64665 13.6408H9.36182C9.51215 13.6684 9.64805 13.7478 9.74589 13.8652C9.84372 13.9827 9.8973 14.1307 9.8973 14.2835C9.8973 14.4364 9.84372 14.5844 9.74589 14.7018C9.64805 14.8192 9.51215 14.8987 9.36182 14.9263H7.64665ZM3.70784 13.2648H5.31917C5.34853 13.2621 5.37813 13.2655 5.40608 13.2749C5.43403 13.2842 5.45971 13.2994 5.48146 13.3193C5.50321 13.3392 5.52056 13.3634 5.53239 13.3904C5.54422 13.4174 5.55026 13.4466 5.55013 13.4761V15.0874C5.55013 15.1434 5.52787 15.1972 5.48825 15.2368C5.44863 15.2764 5.3949 15.2987 5.33887 15.2987H3.72754C3.67151 15.2987 3.61777 15.2764 3.57815 15.2368C3.53853 15.1972 3.51628 15.1434 3.51628 15.0874V13.4761C3.51628 13.4483 3.52174 13.4209 3.53236 13.3952C3.54297 13.3696 3.55854 13.3463 3.57815 13.3267C3.59777 13.3071 3.62106 13.2915 3.64669 13.2809C3.67232 13.2703 3.6998 13.2648 3.72754 13.2648H3.70784ZM3.70784 3.96566H5.31917C5.34853 3.96291 5.37813 3.96633 5.40608 3.97571C5.43403 3.98509 5.45971 4.00022 5.48146 4.02012C5.50321 4.04001 5.52056 4.06425 5.53239 4.09125C5.54422 4.11826 5.55026 4.14744 5.55013 4.17692V5.78825C5.55013 5.84428 5.52787 5.89801 5.48825 5.93763C5.44863 5.97725 5.3949 5.99951 5.33887 5.99951H3.72754C3.67151 5.99951 3.61777 5.97725 3.57815 5.93763C3.53853 5.89801 3.51628 5.84428 3.51628 5.78825V4.17692C3.51628 4.12089 3.53853 4.06715 3.57815 4.02753C3.61777 3.98792 3.67151 3.96566 3.72754 3.96566H3.70784ZM7.64665 5.62533C7.49093 5.61032 7.34735 5.53471 7.24687 5.41481C7.1464 5.29491 7.09707 5.14031 7.10954 4.98438C7.09705 4.82824 7.14632 4.67344 7.24676 4.55325C7.34719 4.43306 7.49078 4.35708 7.64665 4.34163H14.0096C14.1655 4.35708 14.3091 4.43306 14.4095 4.55325C14.5099 4.67344 14.5592 4.82824 14.5467 4.98438C14.5592 5.14031 14.5099 5.29491 14.4094 5.41481C14.3089 5.53471 14.1653 5.61032 14.0096 5.62533H7.64665ZM3.28353 9.68587C3.25457 9.64836 3.23334 9.60548 3.22108 9.55971C3.20881 9.51393 3.20576 9.46618 3.21209 9.41922C3.21841 9.37226 3.234 9.32702 3.25794 9.28612C3.28189 9.24523 3.31371 9.20949 3.35156 9.18099C3.42303 9.11194 3.51767 9.07203 3.617 9.06905C3.71633 9.06607 3.8132 9.10024 3.88867 9.16488L4.26465 9.55339L5.20459 8.59375C5.24047 8.56233 5.28247 8.53868 5.32794 8.52428C5.3734 8.50988 5.42136 8.50506 5.46879 8.5101C5.51621 8.51515 5.56208 8.52996 5.6035 8.5536C5.64493 8.57724 5.68101 8.60919 5.70947 8.64746C5.78083 8.71686 5.8237 8.81041 5.82966 8.90977C5.83562 9.00913 5.80425 9.10714 5.7417 9.18457L4.48844 10.4629C4.45245 10.4941 4.41043 10.5175 4.365 10.5317C4.31956 10.546 4.27168 10.5507 4.22434 10.5457C4.17699 10.5407 4.13118 10.5259 4.08976 10.5025C4.04834 10.479 4.01219 10.4472 3.98356 10.4092L3.95492 10.3752C3.93484 10.3616 3.91624 10.346 3.89941 10.3286L3.28353 9.68587ZM7.65202 10.1675C7.49615 10.152 7.35257 10.076 7.25213 9.95586C7.15169 9.83567 7.10242 9.68087 7.11491 9.52474C7.10242 9.36861 7.15169 9.21381 7.25213 9.09362C7.35257 8.97343 7.49615 8.89744 7.65202 8.882H14.0096C14.1655 8.89744 14.3091 8.97343 14.4095 9.09362C14.5099 9.21381 14.5592 9.36861 14.5467 9.52474C14.5592 9.68087 14.5099 9.83567 14.4095 9.95586C14.3091 10.076 14.1655 10.152 14.0096 10.1675H7.65202Z" fill="#231F20"/>
<path d="M10.2677 20.8219H1.33561C0.981647 20.8211 0.642421 20.6801 0.39209 20.4298L0.358073 20.3869C0.130974 20.1438 0.00321766 19.8244 0 19.4917L0 1.33561C0.000138407 1.16029 0.0348393 0.986717 0.102118 0.824819C0.169396 0.66292 0.267932 0.515874 0.39209 0.39209L0.433268 0.358073C0.676292 0.130824 0.995744 0.00304362 1.32845 0L16.4499 0C16.8038 0.000945094 17.143 0.141964 17.3932 0.392236C17.6435 0.642507 17.7845 0.981676 17.7855 1.33561V10.18C17.4098 10.0755 17.0259 10.0036 16.6379 9.96517V1.33561C16.6336 1.28805 16.6121 1.24367 16.5775 1.21073C16.543 1.1778 16.4976 1.15855 16.4499 1.15658H1.33561C1.29275 1.15682 1.25118 1.17131 1.21745 1.19775L1.20312 1.21208C1.16798 1.24726 1.14805 1.29484 1.14762 1.34456V19.4863C1.14712 19.5288 1.16171 19.57 1.1888 19.6027L1.20492 19.617C1.22161 19.635 1.24183 19.6494 1.26431 19.6593C1.28679 19.6691 1.31106 19.6742 1.33561 19.6743H9.61605C9.7957 20.077 10.0139 20.4613 10.2677 20.8219ZM15.2503 14.7025H15.7677C15.8153 14.7022 15.8624 14.7114 15.9064 14.7295C15.9503 14.7477 15.9902 14.7744 16.0238 14.8081C16.092 14.8766 16.1306 14.9692 16.1312 15.0659V16.9673H17.8481C17.9431 16.9673 18.0342 17.005 18.1013 17.0722C18.1685 17.1393 18.2062 17.2304 18.2062 17.3254V17.8625C18.2045 17.9589 18.1661 18.0511 18.0988 18.1203L18.0845 18.1328C18.0183 18.1929 17.9321 18.2261 17.8428 18.2259H15.0391C14.9916 18.2259 14.946 18.207 14.9125 18.1735C14.8789 18.1399 14.86 18.0944 14.86 18.0469V15.0391C14.8658 14.9518 14.9034 14.8696 14.9657 14.8081C14.999 14.7741 15.0389 14.747 15.0828 14.7286C15.1268 14.7101 15.174 14.7006 15.2217 14.7007L15.2503 14.7025ZM15.9342 11.7054C17.1253 11.7042 18.28 12.1161 19.2013 12.871C20.1227 13.6258 20.7538 14.6768 20.987 15.8448C21.2203 17.0128 21.0412 18.2256 20.4804 19.2763C19.9195 20.3271 19.0116 21.1509 17.9115 21.6072C16.8113 22.0636 15.5868 22.1242 14.4469 21.7789C13.307 21.4335 12.3221 20.7035 11.6602 19.7133C10.9982 18.7231 10.7002 17.534 10.8168 16.3487C10.9334 15.1633 11.4576 14.0551 12.2998 13.2129C12.7767 12.7349 13.3432 12.3558 13.9668 12.0971C14.5905 11.8384 15.2591 11.7053 15.9342 11.7054ZM18.8454 13.9416C18.1716 13.2681 17.2851 12.849 16.3369 12.7558C15.3888 12.6627 14.4377 12.9011 13.6457 13.4306C12.8537 13.9601 12.2698 14.7478 11.9934 15.6596C11.7171 16.5713 11.7655 17.5507 12.1303 18.4307C12.4951 19.3108 13.1538 20.0372 13.9941 20.4861C14.8344 20.9349 15.8044 21.0786 16.7387 20.8924C17.6731 20.7063 18.514 20.202 19.1181 19.4653C19.7223 18.7287 20.0524 17.8054 20.0521 16.8527C20.0529 16.312 19.9469 15.7765 19.7401 15.2769C19.5334 14.7773 19.2299 14.3235 18.8472 13.9416H18.8454ZM7.64665 14.9263C7.49631 14.8987 7.36041 14.8192 7.26258 14.7018C7.16474 14.5844 7.11117 14.4364 7.11117 14.2835C7.11117 14.1307 7.16474 13.9827 7.26258 13.8652C7.36041 13.7478 7.49631 13.6684 7.64665 13.6408H9.36182C9.51215 13.6684 9.64805 13.7478 9.74589 13.8652C9.84372 13.9827 9.8973 14.1307 9.8973 14.2835C9.8973 14.4364 9.84372 14.5844 9.74589 14.7018C9.64805 14.8192 9.51215 14.8987 9.36182 14.9263H7.64665ZM3.70784 13.2648H5.31917C5.34853 13.2621 5.37813 13.2655 5.40608 13.2749C5.43403 13.2842 5.45971 13.2994 5.48146 13.3193C5.50321 13.3392 5.52056 13.3634 5.53239 13.3904C5.54422 13.4174 5.55026 13.4466 5.55013 13.4761V15.0874C5.55013 15.1434 5.52787 15.1972 5.48825 15.2368C5.44863 15.2764 5.3949 15.2987 5.33887 15.2987H3.72754C3.67151 15.2987 3.61777 15.2764 3.57815 15.2368C3.53853 15.1972 3.51628 15.1434 3.51628 15.0874V13.4761C3.51628 13.4483 3.52174 13.4209 3.53236 13.3952C3.54297 13.3696 3.55854 13.3463 3.57815 13.3267C3.59777 13.3071 3.62106 13.2915 3.64669 13.2809C3.67232 13.2703 3.6998 13.2648 3.72754 13.2648H3.70784ZM3.70784 3.96566H5.31917C5.34853 3.96291 5.37813 3.96633 5.40608 3.97571C5.43403 3.98509 5.45971 4.00022 5.48146 4.02012C5.50321 4.04001 5.52056 4.06425 5.53239 4.09125C5.54422 4.11826 5.55026 4.14744 5.55013 4.17692V5.78825C5.55013 5.84428 5.52787 5.89801 5.48825 5.93763C5.44863 5.97725 5.3949 5.99951 5.33887 5.99951H3.72754C3.67151 5.99951 3.61777 5.97725 3.57815 5.93763C3.53853 5.89801 3.51628 5.84428 3.51628 5.78825V4.17692C3.51628 4.12089 3.53853 4.06715 3.57815 4.02753C3.61777 3.98792 3.67151 3.96566 3.72754 3.96566H3.70784ZM7.64665 5.62533C7.49093 5.61032 7.34735 5.53471 7.24687 5.41481C7.1464 5.29491 7.09707 5.14031 7.10954 4.98438C7.09705 4.82824 7.14632 4.67344 7.24676 4.55325C7.34719 4.43306 7.49078 4.35708 7.64665 4.34163H14.0096C14.1655 4.35708 14.3091 4.43306 14.4095 4.55325C14.5099 4.67344 14.5592 4.82824 14.5467 4.98438C14.5592 5.14031 14.5099 5.29491 14.4094 5.41481C14.3089 5.53471 14.1653 5.61032 14.0096 5.62533H7.64665ZM3.28353 9.68587C3.25457 9.64836 3.23334 9.60548 3.22108 9.55971C3.20881 9.51393 3.20576 9.46618 3.21209 9.41922C3.21841 9.37226 3.234 9.32702 3.25794 9.28612C3.28189 9.24523 3.31371 9.20949 3.35156 9.18099C3.42303 9.11194 3.51767 9.07203 3.617 9.06905C3.71633 9.06607 3.8132 9.10024 3.88867 9.16488L4.26465 9.55339L5.20459 8.59375C5.24047 8.56233 5.28247 8.53868 5.32794 8.52428C5.3734 8.50988 5.42136 8.50506 5.46879 8.5101C5.51621 8.51515 5.56208 8.52996 5.6035 8.5536C5.64493 8.57724 5.68101 8.60919 5.70947 8.64746C5.78083 8.71686 5.8237 8.81041 5.82966 8.90977C5.83562 9.00913 5.80425 9.10714 5.7417 9.18457L4.48844 10.4629C4.45245 10.4941 4.41043 10.5175 4.365 10.5317C4.31956 10.546 4.27168 10.5507 4.22434 10.5457C4.17699 10.5407 4.13118 10.5259 4.08976 10.5025C4.04834 10.479 4.01219 10.4472 3.98356 10.4092L3.95492 10.3752C3.93484 10.3616 3.91624 10.346 3.89941 10.3286L3.28353 9.68587ZM7.65202 10.1675C7.49615 10.152 7.35257 10.076 7.25213 9.95586C7.15169 9.83567 7.10242 9.68087 7.11491 9.52474C7.10242 9.36861 7.15169 9.21381 7.25213 9.09362C7.35257 8.97343 7.49615 8.89744 7.65202 8.882H14.0096C14.1655 8.89744 14.3091 8.97343 14.4095 9.09362C14.5099 9.21381 14.5592 9.36861 14.5467 9.52474C14.5592 9.68087 14.5099 9.83567 14.4095 9.95586C14.3091 10.076 14.1655 10.152 14.0096 10.1675H7.65202Z" fill="black" fill-opacity="0.2"/>
</svg>
