<svg width="64" height="66" viewBox="0 0 64 66" fill="none" xmlns="http://www.w3.org/2000/svg">
<path d="M30.8032 62.4658H4.00684C2.94494 62.4632 1.92726 62.0403 1.17627 61.2896L1.07422 61.1606C0.392922 60.4313 0.00965299 59.4731 0 58.4751L0 4.00684C0.000415221 3.48087 0.104518 2.96015 0.306353 2.47446C0.508189 1.98876 0.803797 1.54762 1.17627 1.17627L1.2998 1.07422C2.02888 0.392473 2.98723 0.00913086 3.98535 0L49.3496 0C50.4114 0.00283528 51.4289 0.425893 52.1797 1.17671C52.9306 1.92752 53.3536 2.94503 53.3564 4.00684V30.54C52.2295 30.2264 51.0776 30.0107 49.9136 29.8955V4.00684C49.9007 3.86415 49.8364 3.73101 49.7326 3.63221C49.6289 3.5334 49.4928 3.47566 49.3496 3.46973H4.00684C3.87825 3.47047 3.75355 3.51393 3.65234 3.59326L3.60937 3.63623C3.50394 3.74178 3.44415 3.88451 3.44287 4.03369V58.459C3.44136 58.5863 3.48514 58.7101 3.56641 58.8081L3.61475 58.8511C3.66483 58.9051 3.72548 58.9482 3.79293 58.9778C3.86038 59.0073 3.93319 59.0227 4.00684 59.0229H28.8481C29.3871 60.231 30.0418 61.3841 30.8032 62.4658ZM45.751 44.1074H47.3032C47.4459 44.1066 47.5873 44.1342 47.7191 44.1886C47.851 44.243 47.9707 44.3231 48.0713 44.4243C48.276 44.6299 48.3917 44.9077 48.3936 45.1978V50.9019H53.5444C53.8293 50.9019 54.1026 51.015 54.304 51.2165C54.5055 51.4179 54.6187 51.6912 54.6187 51.9761V53.5874C54.6134 53.8768 54.4982 54.1534 54.2964 54.3608L54.2534 54.3984C54.055 54.5788 53.7964 54.6784 53.5283 54.6777H45.1172C44.9747 54.6777 44.8381 54.6211 44.7374 54.5204C44.6367 54.4197 44.5801 54.2831 44.5801 54.1406V45.1172C44.5975 44.8553 44.7102 44.6088 44.897 44.4243C44.9971 44.3222 45.1166 44.2411 45.2485 44.1857C45.3804 44.1304 45.522 44.1019 45.665 44.1021L45.751 44.1074ZM47.8027 35.1162C51.376 35.1126 54.8399 36.3484 57.604 38.6129C60.3681 40.8773 62.2614 44.0303 62.9611 47.5343C63.6608 51.0384 63.1236 54.6767 61.4411 57.829C59.7586 60.9814 57.0349 63.4527 53.7344 64.8217C50.4338 66.1907 46.7605 66.3727 43.3408 65.3367C39.921 64.3006 36.9664 62.1106 34.9806 59.14C32.9947 56.1694 32.1005 52.6021 32.4504 49.046C32.8003 45.4899 34.3727 42.1653 36.8994 39.6387C38.3301 38.2048 40.0296 37.0673 41.9005 36.2912C43.7715 35.5152 45.7772 35.1159 47.8027 35.1162ZM56.5361 41.8247C54.5147 39.8042 51.8552 38.547 49.0108 38.2675C46.1664 37.988 43.3131 38.7034 40.9371 40.2919C38.561 41.8803 36.8093 44.2435 35.9803 46.9787C35.1513 49.7139 35.2964 52.652 36.3908 55.2922C37.4852 57.9325 39.4613 60.1116 41.9822 61.4582C44.5032 62.8048 47.4131 63.2357 50.2162 62.6773C53.0192 62.1189 55.5419 60.6059 57.3544 58.396C59.1669 56.1862 60.1571 53.4162 60.1562 50.5581C60.1588 48.936 59.8408 47.3294 59.2204 45.8307C58.6001 44.3319 57.6897 42.9705 56.5415 41.8247H56.5361ZM22.9399 44.7788C22.4889 44.696 22.0812 44.4577 21.7877 44.1054C21.4942 43.7532 21.3335 43.3091 21.3335 42.8506C21.3335 42.392 21.4942 41.948 21.7877 41.5957C22.0812 41.2434 22.4889 41.0052 22.9399 40.9224H28.0854C28.5364 41.0052 28.9442 41.2434 29.2377 41.5957C29.5312 41.948 29.6919 42.392 29.6919 42.8506C29.6919 43.3091 29.5312 43.7532 29.2377 44.1054C28.9442 44.4577 28.5364 44.696 28.0854 44.7788H22.9399ZM11.1235 39.7944H15.9575C16.0456 39.7862 16.1344 39.7965 16.2182 39.8246C16.3021 39.8527 16.3791 39.8981 16.4444 39.9578C16.5096 40.0175 16.5617 40.0902 16.5972 40.1712C16.6326 40.2522 16.6508 40.3398 16.6504 40.4282V45.2622C16.6504 45.4303 16.5836 45.5915 16.4648 45.7104C16.3459 45.8292 16.1847 45.896 16.0166 45.896H11.1826C11.0145 45.896 10.8533 45.8292 10.7345 45.7104C10.6156 45.5915 10.5488 45.4303 10.5488 45.2622V40.4282C10.5488 40.345 10.5652 40.2626 10.5971 40.1857C10.6289 40.1088 10.6756 40.0389 10.7345 39.9801C10.7933 39.9212 10.8632 39.8745 10.9401 39.8427C11.017 39.8108 11.0994 39.7944 11.1826 39.7944H11.1235ZM11.1235 11.897H15.9575C16.0456 11.8887 16.1344 11.899 16.2182 11.9271C16.3021 11.9553 16.3791 12.0007 16.4444 12.0603C16.5096 12.12 16.5617 12.1927 16.5972 12.2738C16.6326 12.3548 16.6508 12.4423 16.6504 12.5308V17.3647C16.6504 17.5328 16.5836 17.694 16.4648 17.8129C16.3459 17.9318 16.1847 17.9985 16.0166 17.9985H11.1826C11.0145 17.9985 10.8533 17.9318 10.7345 17.8129C10.6156 17.694 10.5488 17.5328 10.5488 17.3647V12.5308C10.5488 12.3627 10.6156 12.2015 10.7345 12.0826C10.8533 11.9637 11.0145 11.897 11.1826 11.897H11.1235ZM22.9399 16.876C22.4728 16.831 22.0421 16.6041 21.7406 16.2444C21.4392 15.8847 21.2912 15.4209 21.3286 14.9531C21.2912 14.4847 21.439 14.0203 21.7403 13.6598C22.0416 13.2992 22.4723 13.0712 22.9399 13.0249H42.0288C42.4964 13.0712 42.9272 13.2992 43.2285 13.6598C43.5298 14.0203 43.6776 14.4847 43.6401 14.9531C43.6775 15.4209 43.5296 15.8847 43.2281 16.2444C42.9267 16.6041 42.496 16.831 42.0288 16.876H22.9399ZM9.85059 29.0576C9.7637 28.9451 9.70002 28.8164 9.66323 28.6791C9.62644 28.5418 9.61727 28.3985 9.63626 28.2577C9.65524 28.1168 9.702 27.9811 9.77383 27.8584C9.84566 27.7357 9.94112 27.6285 10.0547 27.543C10.2691 27.3358 10.553 27.2161 10.851 27.2072C11.149 27.1982 11.4396 27.3007 11.666 27.4946L12.7939 28.6602L15.6138 25.7812C15.7214 25.687 15.8474 25.616 15.9838 25.5728C16.1202 25.5297 16.2641 25.5152 16.4064 25.5303C16.5486 25.5454 16.6862 25.5899 16.8105 25.6608C16.9348 25.7317 17.043 25.8276 17.1284 25.9424C17.3425 26.1506 17.4711 26.4312 17.489 26.7293C17.5069 27.0274 17.4127 27.3214 17.2251 27.5537L13.4653 31.3887C13.3573 31.4822 13.2313 31.5525 13.095 31.5952C12.9587 31.638 12.8151 31.6522 12.673 31.6371C12.531 31.622 12.3935 31.5778 12.2693 31.5074C12.145 31.4369 12.0366 31.3417 11.9507 31.2275L11.8647 31.1255C11.8045 31.0849 11.7487 31.0381 11.6982 30.9858L9.85059 29.0576ZM22.9561 30.5024C22.4885 30.4561 22.0577 30.2282 21.7564 29.8676C21.4551 29.507 21.3073 29.0426 21.3447 28.5742C21.3073 28.1058 21.4551 27.6414 21.7564 27.2809C22.0577 26.9203 22.4885 26.6923 22.9561 26.646H42.0288C42.4964 26.6923 42.9272 26.9203 43.2285 27.2809C43.5298 27.6414 43.6776 28.1058 43.6401 28.5742C43.6776 29.0426 43.5298 29.507 43.2285 29.8676C42.9272 30.2282 42.4964 30.4561 42.0288 30.5024H22.9561Z" fill="#9A9A9A"/>
</svg>
