<svg width="30" height="31" viewBox="0 0 30 31" fill="none" xmlns="http://www.w3.org/2000/svg">
<rect x="-0.5" y="0.5" width="29" height="29" rx="14.5" transform="matrix(-1 0 0 1 29 0.356201)" fill="white" stroke="#D7282F" stroke-dasharray="2 2"/>
<g clip-path="url(#clip0_3515_26799)">
<path d="M21.0312 15.7158C19.303 13.9557 16.9778 13.7157 16.1247 13.6923V11.3588C16.1247 11.1755 15.984 11.0255 15.8121 11.0255C15.7403 11.0255 15.6684 11.0521 15.6121 11.1021L10.2994 15.7691C10.165 15.8858 10.1462 16.0958 10.2556 16.2391C10.2681 16.2558 10.2837 16.2691 10.2994 16.2858L15.6122 20.9527C15.7465 21.0694 15.9434 21.0494 16.0528 20.906C16.0997 20.846 16.1247 20.7727 16.1247 20.6927V18.2725C16.9966 18.0192 20.3405 17.3758 22.4125 21.5161C22.4656 21.6261 22.5719 21.6927 22.6875 21.6927C22.7875 21.6927 22.8844 21.6427 22.9469 21.5461C22.9844 21.4894 23 21.4194 23 21.3494C22.997 18.9393 22.3344 17.0459 21.0312 15.7158ZM17.4966 17.4359C16.456 17.4359 15.7247 17.7025 15.7059 17.7125C15.5809 17.7592 15.4996 17.8859 15.4996 18.0259V19.986L10.99 16.0258L15.4996 12.0656V14.0257C15.4996 14.1157 15.534 14.2023 15.5965 14.2657C15.659 14.329 15.7403 14.3624 15.8278 14.359C15.8559 14.359 18.6936 14.249 20.6062 16.2025C21.5469 17.1625 22.1156 18.4626 22.3063 20.0827C20.7937 17.9092 18.8748 17.4359 17.4966 17.4359Z" fill="#71717A"/>
<path d="M13.8401 20.4527C13.8339 20.4494 13.8307 20.4427 13.8245 20.4394L8.80234 16.0258L13.8245 11.6155C13.962 11.5022 13.987 11.2922 13.8807 11.1489C13.7745 11.0055 13.5776 10.9755 13.4432 11.0889C13.437 11.0922 13.4339 11.0989 13.4276 11.1022L8.11479 15.7691C7.9804 15.8857 7.96165 16.0958 8.07105 16.2391C8.08356 16.2558 8.09918 16.2691 8.11479 16.2858L13.4276 20.9527C13.5588 21.0727 13.7557 21.0594 13.8682 20.9227C13.9807 20.7827 13.9683 20.5727 13.8401 20.4527Z" fill="#D7282F"/>
</g>
<defs>
<clipPath id="clip0_3515_26799">
<rect width="15" height="16" fill="white" transform="translate(8 8.3562)"/>
</clipPath>
</defs>
</svg>
