<svg width="30" height="31" viewBox="0 0 30 31" fill="none" xmlns="http://www.w3.org/2000/svg">
<rect x="-0.5" y="0.5" width="29" height="29" rx="14.5" transform="matrix(-1 0 0 1 29 0.356201)" fill="white" stroke="#D7282F" stroke-dasharray="2 2"/>
<g clip-path="url(#clip0_3515_26797)">
<path d="M11.6226 10.8632C11.6785 10.3022 11.8747 9.76439 12.193 9.29914C12.5114 8.83389 12.9416 8.45619 13.4442 8.20081C13.9467 7.94543 14.5055 7.82059 15.069 7.83776C15.6324 7.85493 16.1825 8.01357 16.6686 8.29907C17.1547 8.58458 17.5611 8.98777 17.8506 9.47155C18.14 9.95532 18.303 10.5041 18.3247 11.0674C18.3464 11.6308 18.2261 12.1905 17.9748 12.6951C17.7282 13.1902 17.3633 13.6166 16.9126 13.9367" stroke="#71717A" stroke-linecap="round" stroke-linejoin="round"/>
<path d="M12.0811 9.50192C12.6011 10.0388 13.2239 10.4657 13.9123 10.757C14.6006 11.0484 15.3406 11.1983 16.0881 11.1979C16.8233 11.1987 17.5512 11.0539 18.2298 10.7722" stroke="#71717A" stroke-linecap="round" stroke-linejoin="round"/>
<path d="M14.2471 13.5979C14.0573 13.5979 13.8717 13.6542 13.7138 13.7597C13.5559 13.8652 13.4328 14.0151 13.3602 14.1906C13.2875 14.3659 13.2685 14.559 13.3056 14.7452C13.3426 14.9314 13.434 15.1025 13.5683 15.2367C13.7025 15.371 13.8736 15.4624 14.0598 15.4995C14.2461 15.5365 14.4391 15.5175 14.6145 15.4448C14.7899 15.3722 14.9398 15.2491 15.0453 15.0912C15.1508 14.9334 15.2071 14.7478 15.2071 14.5579C15.2071 14.3033 15.106 14.0591 14.9259 13.8791C14.7459 13.6991 14.5017 13.5979 14.2471 13.5979Z" stroke="#D7282F" stroke-linecap="round" stroke-linejoin="round"/>
<path d="M10.4067 11.948V12.6379C10.4067 13.1471 10.609 13.6355 10.9691 13.9956C11.3292 14.3556 11.8175 14.5579 12.3267 14.5579H13.2376" stroke="#D7282F" stroke-linecap="round" stroke-linejoin="round"/>
<path d="M21.2086 22.2379C21.2086 21.0966 20.8953 19.9771 20.3028 19.0016C19.7127 18.0301 18.8683 17.2384 17.8608 16.7122" stroke="#71717A" stroke-linecap="round" stroke-linejoin="round"/>
<path d="M8.72803 22.2379C8.7279 21.0967 9.04103 19.9774 9.63328 19.0018C10.2226 18.0312 11.0657 17.24 12.0716 16.7136" stroke="#71717A" stroke-linecap="round" stroke-linejoin="round"/>
</g>
<defs>
<clipPath id="clip0_3515_26797">
<rect width="16" height="16" fill="white" transform="translate(7 7.3562)"/>
</clipPath>
</defs>
</svg>
