<svg width="53" height="67" viewBox="0 0 53 67" fill="none" xmlns="http://www.w3.org/2000/svg">
<path d="M34.375 30.5821H39.8751C40.6341 30.5821 41.2501 29.9661 41.2501 29.2071V23.7071C41.2501 22.9481 40.6341 22.332 39.8751 22.332H34.375C33.616 22.332 33 22.9481 33 23.7071V29.2071C33 29.9661 33.616 30.5821 34.375 30.5821ZM38.5 25.0821V27.8321H35.7501V25.0821H38.5Z" fill="#9A9A9A"/>
<path d="M12.375 52.582H17.8751C18.6341 52.582 19.2501 51.966 19.2501 51.207V45.7071C19.2501 44.9481 18.6341 44.332 17.8751 44.332H12.375C11.616 44.332 11 44.9481 11 45.7071V51.2071C11 51.9661 11.616 52.582 12.375 52.582ZM13.7501 47.0821H16.5V49.8321H13.7501V47.0821Z" fill="#9A9A9A"/>
<path d="M12.375 19.582H17.8751C18.6341 19.582 19.2501 18.966 19.2501 18.207V12.7071C19.2501 11.9481 18.6341 11.332 17.8751 11.332H12.375C11.616 11.332 11 11.9481 11 12.7071V18.2071C11 18.9661 11.616 19.582 12.375 19.582ZM13.7501 14.0821H16.5V16.8321H13.7501V14.0821Z" fill="#9A9A9A"/>
<path d="M50.732 63.582H46.75V7.20698C46.75 6.44798 46.1339 5.83194 45.3749 5.83194H41.2499V1.70694C41.2501 0.948073 40.634 0.332031 39.875 0.332031H12.3751C11.6161 0.332031 11.0001 0.948073 11.0001 1.70707V5.83206H6.87507C6.11607 5.83206 5.50003 6.44811 5.50003 7.2071V63.582H1.37504C0.616042 63.582 0 64.198 0 64.957C0 65.716 0.616042 66.332 1.37504 66.332H17.875C18.634 66.332 19.25 65.716 19.25 64.957V58.0819H33.0001V64.9569C33.0001 65.7159 33.6161 66.3319 34.3751 66.3319H50.7321C51.4911 66.3319 52.1072 65.7159 52.1072 64.9569C52.107 64.1979 51.491 63.582 50.732 63.582ZM13.7501 3.08198H38.5001V5.83194H13.7501V3.08198ZM44 63.582H35.75V56.707C35.75 55.948 35.134 55.332 34.375 55.332H17.875C17.116 55.332 16.5 55.948 16.5 56.707V63.582H8.24998V8.58202H43.9999V63.582H44Z" fill="#9A9A9A"/>
<path d="M23.375 52.582H28.8751C29.6341 52.582 30.2501 51.966 30.2501 51.207V45.7071C30.2501 44.9481 29.6341 44.332 28.8751 44.332H23.375C22.616 44.332 22 44.9481 22 45.7071V51.2071C22.0001 51.9661 22.616 52.582 23.375 52.582ZM24.7501 47.0821H27.5V49.8321H24.7501V47.0821Z" fill="#9A9A9A"/>
<path d="M34.375 19.582H39.8751C40.6341 19.582 41.2501 18.966 41.2501 18.207V12.7071C41.2501 11.9481 40.6341 11.332 39.8751 11.332H34.375C33.616 11.332 33 11.9481 33 12.7071V18.2071C33 18.9661 33.616 19.582 34.375 19.582ZM38.5 14.0821V16.8321H35.7501V14.0821H38.5Z" fill="#9A9A9A"/>
<path d="M12.375 30.5821H17.8751C18.6341 30.5821 19.2501 29.9661 19.2501 29.2071V23.7071C19.2501 22.9481 18.6341 22.332 17.8751 22.332H12.375C11.616 22.332 11 22.9481 11 23.7071V29.2071C11 29.9661 11.616 30.5821 12.375 30.5821ZM13.7501 25.0821H16.5V27.8321H13.7501V25.0821Z" fill="#9A9A9A"/>
<path d="M23.375 41.5821H28.8751C29.6341 41.5821 30.2501 40.9661 30.2501 40.2071V34.7071C30.2501 33.9481 29.6341 33.332 28.8751 33.332H23.375C22.616 33.332 22 33.9481 22 34.7071V40.2071C22.0001 40.9661 22.616 41.5821 23.375 41.5821ZM24.7501 36.0821H27.5V38.8321H24.7501V36.0821Z" fill="#9A9A9A"/>
<path d="M23.375 19.582H28.8751C29.6341 19.582 30.2501 18.966 30.2501 18.207V12.7071C30.2501 11.9481 29.6341 11.332 28.8751 11.332H23.375C22.616 11.332 22 11.9481 22 12.7071V18.2071C22.0001 18.9661 22.616 19.582 23.375 19.582ZM24.7501 14.0821H27.5V16.8321H24.7501V14.0821Z" fill="#9A9A9A"/>
<path d="M23.375 30.5821H28.8751C29.6341 30.5821 30.2501 29.9661 30.2501 29.2071V23.7071C30.2501 22.9481 29.6341 22.332 28.8751 22.332H23.375C22.616 22.332 22 22.9481 22 23.7071V29.2071C22.0001 29.9661 22.616 30.5821 23.375 30.5821ZM24.7501 25.0821H27.5V27.8321H24.7501V25.0821Z" fill="#9A9A9A"/>
<path d="M34.375 52.582H39.8751C40.6341 52.582 41.2501 51.966 41.2501 51.207V45.7071C41.2501 44.9481 40.6341 44.332 39.8751 44.332H34.375C33.616 44.332 33 44.9481 33 45.7071V51.2071C33 51.9661 33.616 52.582 34.375 52.582ZM38.5 47.0821V49.8321H35.7501V47.0821H38.5Z" fill="#9A9A9A"/>
<path d="M12.375 41.5821H17.8751C18.6341 41.5821 19.2501 40.9661 19.2501 40.2071V34.7071C19.2501 33.9481 18.6341 33.332 17.8751 33.332H12.375C11.616 33.332 11 33.9481 11 34.7071V40.2071C11 40.9661 11.616 41.5821 12.375 41.5821ZM13.7501 36.0821H16.5V38.8321H13.7501V36.0821Z" fill="#9A9A9A"/>
<path d="M34.375 41.5821H39.8751C40.6341 41.5821 41.2501 40.9661 41.2501 40.2071V34.7071C41.2501 33.9481 40.6341 33.332 39.8751 33.332H34.375C33.616 33.332 33 33.9481 33 34.7071V40.2071C33 40.9661 33.616 41.5821 34.375 41.5821ZM38.5 36.0821V38.8321H35.7501V36.0821H38.5Z" fill="#9A9A9A"/>
</svg>
