<svg width="316" height="97" viewBox="0 0 316 97" fill="none" xmlns="http://www.w3.org/2000/svg">
<path d="M117.753 50.0574H119.707C121.621 50.0574 123.033 49.7384 123.945 49.1003C124.856 48.4623 125.312 47.4597 125.312 46.0925C125.312 44.7384 124.843 43.7748 123.906 43.2019C122.981 42.629 121.542 42.3425 119.589 42.3425H117.753V50.0574ZM117.753 54.9792V65.9363H111.699V37.3816H120.019C123.899 37.3816 126.77 38.0912 128.632 39.5105C130.494 40.9167 131.425 43.0587 131.425 45.9363C131.425 47.616 130.963 49.1134 130.039 50.4285C129.114 51.7306 127.806 52.7527 126.113 53.4949C130.41 59.9141 133.209 64.0613 134.511 65.9363H127.792L120.976 54.9792H117.753ZM146.679 47.9285C145.416 47.9285 144.427 48.3321 143.71 49.1394C142.994 49.9337 142.584 51.0665 142.48 52.5378H150.839C150.813 51.0665 150.429 49.9337 149.687 49.1394C148.945 48.3321 147.942 47.9285 146.679 47.9285ZM147.519 66.3269C144.003 66.3269 141.256 65.3569 139.277 63.4167C137.298 61.4766 136.308 58.7292 136.308 55.1746C136.308 51.5157 137.22 48.6902 139.042 46.698C140.878 44.6928 143.411 43.6902 146.64 43.6902C149.726 43.6902 152.128 44.5691 153.847 46.3269C155.566 48.0847 156.425 50.5131 156.425 53.6121V56.5027H142.343C142.408 58.1954 142.91 59.517 143.847 60.4675C144.785 61.4181 146.1 61.8933 147.792 61.8933C149.108 61.8933 150.351 61.7566 151.523 61.4832C152.695 61.2097 153.919 60.7735 155.195 60.1746V64.7839C154.153 65.3048 153.04 65.6889 151.855 65.9363C150.67 66.1967 149.225 66.3269 147.519 66.3269ZM159.511 75.5457C157.988 75.5457 156.679 75.3829 155.585 75.0574V70.3699C156.497 70.6173 157.428 70.741 158.378 70.741C159.381 70.741 160.11 70.461 160.566 69.9011C161.035 69.3412 161.269 68.5144 161.269 67.4207V44.1003H167.226V68.2996C167.226 70.6173 166.556 72.4011 165.214 73.6511C163.873 74.9141 161.972 75.5457 159.511 75.5457ZM161.015 38.4558C161.015 36.5157 162.096 35.5457 164.257 35.5457C166.419 35.5457 167.5 36.5157 167.5 38.4558C167.5 39.3803 167.226 40.1029 166.679 40.6238C166.145 41.1316 165.338 41.3855 164.257 41.3855C162.096 41.3855 161.015 40.4089 161.015 38.4558ZM182.539 47.9285C181.276 47.9285 180.286 48.3321 179.57 49.1394C178.854 49.9337 178.444 51.0665 178.339 52.5378H186.699C186.673 51.0665 186.289 49.9337 185.546 49.1394C184.804 48.3321 183.802 47.9285 182.539 47.9285ZM183.378 66.3269C179.863 66.3269 177.115 65.3569 175.136 63.4167C173.157 61.4766 172.167 58.7292 172.167 55.1746C172.167 51.5157 173.079 48.6902 174.902 46.698C176.738 44.6928 179.27 43.6902 182.5 43.6902C185.585 43.6902 187.988 44.5691 189.707 46.3269C191.425 48.0847 192.285 50.5131 192.285 53.6121V56.5027H178.203C178.268 58.1954 178.769 59.517 179.707 60.4675C180.644 61.4181 181.959 61.8933 183.652 61.8933C184.967 61.8933 186.21 61.7566 187.382 61.4832C188.554 61.2097 189.778 60.7735 191.054 60.1746V64.7839C190.013 65.3048 188.899 65.6889 187.714 65.9363C186.529 66.1967 185.084 66.3269 183.378 66.3269ZM205.996 66.3269C199.199 66.3269 195.8 62.5964 195.8 55.1355C195.8 51.4246 196.725 48.5925 198.574 46.6394C200.423 44.6733 203.072 43.6902 206.523 43.6902C209.049 43.6902 211.315 44.185 213.32 45.1746L211.562 49.7839C210.625 49.4063 209.752 49.1003 208.945 48.866C208.138 48.6186 207.33 48.4949 206.523 48.4949C203.424 48.4949 201.875 50.6954 201.875 55.0964C201.875 59.3673 203.424 61.5027 206.523 61.5027C207.669 61.5027 208.73 61.3529 209.707 61.0535C210.683 60.741 211.66 60.2592 212.636 59.6082V64.7058C211.673 65.3178 210.696 65.741 209.707 65.9753C208.73 66.2097 207.493 66.3269 205.996 66.3269ZM226.914 61.5808C227.955 61.5808 229.205 61.3529 230.664 60.8972V65.3308C229.179 65.9949 227.356 66.3269 225.195 66.3269C222.812 66.3269 221.074 65.7279 219.98 64.53C218.899 63.3191 218.359 61.5092 218.359 59.1003V48.573H215.507V46.0535L218.789 44.0613L220.507 39.4519H224.316V44.1003H230.429V48.573H224.316V59.1003C224.316 59.9467 224.55 60.5717 225.019 60.9753C225.501 61.379 226.132 61.5808 226.914 61.5808ZM244.14 47.9285C242.877 47.9285 241.888 48.3321 241.171 49.1394C240.455 49.9337 240.045 51.0665 239.941 52.5378H248.3C248.274 51.0665 247.89 49.9337 247.148 49.1394C246.406 48.3321 245.403 47.9285 244.14 47.9285ZM244.98 66.3269C241.464 66.3269 238.717 65.3569 236.738 63.4167C234.759 61.4766 233.769 58.7292 233.769 55.1746C233.769 51.5157 234.681 48.6902 236.503 46.698C238.339 44.6928 240.872 43.6902 244.101 43.6902C247.187 43.6902 249.589 44.5691 251.308 46.3269C253.027 48.0847 253.886 50.5131 253.886 53.6121V56.5027H239.804C239.869 58.1954 240.371 59.517 241.308 60.4675C242.246 61.4181 243.561 61.8933 245.253 61.8933C246.569 61.8933 247.812 61.7566 248.984 61.4832C250.156 61.2097 251.38 60.7735 252.656 60.1746V64.7839C251.614 65.3048 250.501 65.6889 249.316 65.9363C248.131 66.1967 246.686 66.3269 244.98 66.3269ZM265.644 66.3269C263.079 66.3269 261.061 65.3308 259.589 63.3386C258.131 61.3464 257.402 58.586 257.402 55.0574C257.402 51.4766 258.144 48.6902 259.628 46.698C261.126 44.6928 263.183 43.6902 265.8 43.6902C268.548 43.6902 270.644 44.7579 272.089 46.8933H272.285C271.985 45.2657 271.835 43.8139 271.835 42.5378V35.5457H277.812V65.9363H273.242L272.089 63.1042H271.835C270.481 65.2527 268.417 66.3269 265.644 66.3269ZM267.734 61.5808C269.257 61.5808 270.371 61.1381 271.074 60.2527C271.79 59.3673 272.181 57.8634 272.246 55.741V55.0964C272.246 52.7527 271.881 51.073 271.152 50.0574C270.436 49.0417 269.264 48.5339 267.636 48.5339C266.308 48.5339 265.273 49.1003 264.531 50.2332C263.802 51.3529 263.437 52.9871 263.437 55.1355C263.437 57.2839 263.808 58.8985 264.55 59.9792C265.292 61.047 266.354 61.5808 267.734 61.5808Z" fill="#D7282F"/>
<path d="M79.0112 89.7907C82.3756 83.036 87.3767 82.3303 93.1961 82.3303C160.029 82.5319 226.861 82.4311 293.694 82.4311C305.151 82.4311 308.242 78.9025 308.242 66.3006C308.242 54.7067 308.242 43.1129 308.242 31.5191C308.242 20.6309 304.696 16.5983 294.785 16.5983C229.134 16.5983 163.575 16.5983 97.9244 16.5983C96.2877 16.5983 94.6509 16.5983 92.2868 16.5983C95.3784 11.7591 98.1972 8.93628 103.744 8.93628C167.576 9.13791 231.317 9.0371 295.148 9.0371C308.515 9.0371 314.971 16.0942 314.971 30.9142C314.971 44.0202 315.062 57.1263 314.971 70.2324C314.88 82.1286 307.969 89.8915 297.331 89.8915C225.497 89.9923 153.664 89.8915 81.83 89.8915C80.9207 89.9923 80.1024 89.7907 79.0112 89.7907Z" fill="#D7282F"/>
<path d="M56.5112 48.8364C62.3112 54.4364 67.8112 59.5364 73.1112 64.8364C76.4112 68.1364 76.0112 69.7364 71.6112 70.8364C66.8112 72.0364 62.4112 71.4364 58.8112 67.4364C55.6112 63.8364 52.3112 60.3364 48.3112 56.0364C43.8112 60.8364 40.1112 64.9364 36.4112 68.8364C32.9112 72.5364 28.7112 73.2364 24.1112 71.5364C20.2112 70.1364 19.5112 67.9364 22.5112 64.9364C28.0112 59.4364 33.8112 54.1364 40.6112 47.6364C33.2112 41.0364 26.6112 35.0364 20.0112 29.1364C24.7112 24.0364 31.9112 23.7364 36.2112 28.0364C40.0112 31.7364 43.3112 35.8364 47.4112 40.4364C60.2112 27.5364 71.8112 15.3364 83.9112 3.73642C86.1112 1.53642 89.9112 0.336411 93.1112 0.0364109C95.2112 -0.163589 97.6112 2.13641 99.8112 3.33641C98.8112 5.13641 98.1112 7.23641 96.7112 8.63641C83.6112 21.7364 70.4112 34.9364 56.5112 48.8364Z" fill="#D7282F"/>
<path d="M71.8111 10.0363C69.4111 14.3363 66.7111 15.0363 61.8111 12.9363C44.1111 5.23629 23.9111 12.0363 13.3111 28.4363C3.2111 44.1363 5.8111 65.2363 19.4111 78.3363C33.1111 91.5363 54.1111 93.1363 69.9111 82.1363C85.3111 71.4363 90.9111 51.0363 83.4111 33.7363C81.2111 28.6363 81.2111 28.6363 86.1111 24.7363C98.8111 39.2363 95.8111 67.5363 80.1111 83.1363C62.4111 100.636 34.3111 101.336 15.7111 84.9363C-2.7889 68.5363 -5.2889 40.0363 10.0111 20.7363C25.1111 1.53629 52.9111 -3.16371 71.8111 10.0363Z" fill="#D7282F"/>
</svg>
