<svg width="51" height="49" viewBox="0 0 51 49" fill="none" xmlns="http://www.w3.org/2000/svg">
<rect x="0.302734" width="50.6398" height="49" rx="24.5" fill="#FF5960"/>
<path d="M29.9291 22.4167H21.3169V21.375H29.9291V22.4167ZM24.6864 33.875L25.8319 34.9167H16.4726C14.9891 34.9167 13.7812 33.2813 13.7812 31.2709C13.7812 29.2605 14.9891 27.625 16.4726 27.625H18.0873V17.9896C18.0873 15.8355 19.2952 14.0834 20.7787 14.0834H34.7735C36.2569 14.0834 37.411 15.7188 37.411 17.7292C37.411 19.7396 36.2569 21.375 34.7735 21.375H33.1587V28.8105L32.0822 29.8303V17.9896C32.0728 16.9953 32.309 16.0132 32.7711 15.125H20.7787C20.0165 15.125 19.1639 16.35 19.1639 17.9896V27.625H30.5427L29.7784 28.4855C29.1439 29.2812 28.8164 30.2664 28.8526 31.2709C28.8528 31.512 28.8697 31.7528 28.9032 31.9917L27.7922 30.9803C27.8188 30.1783 28.0175 29.3904 28.3757 28.6667H16.4726C15.6124 28.6667 14.8578 29.8834 14.8578 31.2709C14.8578 32.6584 15.6124 33.875 16.4726 33.875H24.6864ZM33.1587 20.3334H34.7735C35.6336 20.3334 36.4421 19.1167 36.4421 17.7292C36.4421 16.3417 35.6336 15.125 34.7735 15.125H34.0447C33.4425 15.9647 33.1322 16.968 33.1587 17.9896V20.3334ZM21.3169 25.5417H29.9291V24.5H21.3169V25.5417ZM29.9291 18.25H21.3169V19.2917H29.9291V18.25ZM36.9168 27.4365L29.3833 34.573L26.3346 31.799L25.5972 32.5573L29.3973 36.0167L37.6704 28.1813L36.9168 27.4365Z" fill="white"/>
</svg>
