<svg width="24" height="23" viewBox="0 0 24 23" fill="none" xmlns="http://www.w3.org/2000/svg">
<path d="M2.60674 4.334V20.4821H22.8594V22.8243H1.43781C0.791727 22.8243 0.267017 22.299 0.267017 21.6523V4.334H2.60674ZM7.85943 4.03493L7.66523 5.55647C7.60548 6.02564 7.17787 6.35649 6.70918 6.29854C6.24049 6.23873 5.90998 5.81068 5.96786 5.34151L6.4627 1.48719C6.48884 1.21615 6.64382 0.96194 6.89777 0.81988C7.12932 0.690904 7.39261 0.681558 7.62228 0.769411L11.3307 2.19936C11.7714 2.36946 11.9899 2.8648 11.82 3.30593C11.65 3.74707 11.1552 3.96577 10.7145 3.79567L9.4485 3.3078C10.8359 5.19197 12.4978 6.76585 14.2923 7.99205C16.8766 9.75846 19.7261 10.7959 22.4168 10.9903C22.8893 11.0239 23.2441 11.4333 23.2104 11.9062C23.1768 12.3791 22.7679 12.7342 22.2955 12.7006C19.3097 12.4894 16.1614 11.3492 13.3269 9.41078C11.2878 8.01822 9.40742 6.20882 7.85943 4.03493ZM21.8343 16.725V18.826H19.1808V16.725H21.8343ZM17.0913 14.5137V18.826H14.4398V14.5137H17.0913ZM12.3503 12.9922V18.826H9.69871V12.9922H12.3503ZM7.60921 10.6744V18.826H4.95579V10.6744H7.60921Z" fill="#D7282F"/>
</svg>
