<svg width="70" height="70" viewBox="0 0 70 70" fill="none" xmlns="http://www.w3.org/2000/svg">
<g clip-path="url(#clip0_730_1576)">
<path fill-rule="evenodd" clip-rule="evenodd" d="M2.02899 70C1.52175 70 1.01449 69.7464 0.507239 69.4927C-7.74752e-06 68.9855 0 68.4783 0 67.971C0 67.4638 0.253615 66.9565 0.507239 66.4493L66.4493 0.507239C66.9565 -7.74752e-06 67.4638 0 67.971 0C68.4783 0 68.9855 0.253615 69.4927 0.507239C70.2536 1.26811 70.2536 2.53624 69.4927 3.29711L3.55071 69.2391C3.04346 69.7464 2.53624 70 2.02899 70Z" fill="#9A9A9A"/>
<path fill-rule="evenodd" clip-rule="evenodd" d="M14.6704 70.0229C13.9405 70.0229 13.2106 69.5113 12.9674 68.9997C12.4808 67.9765 12.7241 66.6975 13.9405 66.1859L32.6733 56.4654C33.4031 55.9538 34.3763 55.698 35.3494 55.698C36.3225 55.698 37.2956 55.9538 38.0255 56.4654L53.109 64.3952L50.6762 46.7449C50.4329 45.7217 50.6762 44.9543 50.9195 43.9311C51.1628 43.1637 51.6493 42.1405 52.3792 41.6289L64.5433 28.8388L57.9747 27.8156C57.4881 27.8156 57.0015 27.304 56.7583 27.0482C56.515 26.5366 56.2717 26.025 56.515 25.5134C56.7583 24.4902 57.4881 23.7228 58.4613 23.7228H58.7045L68.9224 25.5134C69.6522 25.7692 70.1388 26.2808 70.3821 26.7924C70.6254 27.5598 70.3821 28.3272 69.8955 28.8388L55.2986 44.4427C55.0553 44.6985 54.812 44.9543 54.812 45.2101C54.812 45.4659 54.812 45.9775 54.812 46.2333L57.9747 67.9765C57.9747 68.7439 57.7314 69.5113 57.2449 70.0229C57.0016 70.2787 56.515 70.2787 56.0284 70.2787C55.7852 70.2787 55.2986 70.2787 55.0553 70.0229L36.3225 60.3024C36.0792 60.3024 35.8359 60.0466 35.5927 60.0466C35.3494 60.0466 35.1061 60.0466 34.8628 60.3024L16.13 70.0229C15.1569 70.0229 14.9137 70.0229 14.6704 70.0229Z" fill="#9A9A9A"/>
<path fill-rule="evenodd" clip-rule="evenodd" d="M16.8594 54.6747H16.6161C15.3997 54.4189 14.6698 53.3957 14.9131 52.3725L15.8863 45.9775C15.8863 45.7217 15.8863 45.2101 15.8863 44.9543C15.8863 44.6985 15.6429 44.4427 15.3997 44.1869L0.802703 28.5829C0.316138 28.0713 0.0728627 27.3039 0.316145 26.5365C0.559428 25.7691 1.04601 25.2575 1.77586 25.2575L22.4549 21.6763C22.6982 21.6763 22.9415 21.4205 23.1847 21.4205C23.428 21.1647 23.6713 20.9089 23.6713 20.6531L33.4026 1.21216C33.6459 0.444751 34.3757 0.188965 35.1056 0.188965C35.8354 0.188965 36.5653 0.700553 36.8086 1.21216L46.5399 20.6531C46.7831 20.9089 46.7831 21.1647 47.0264 21.4205C47.9996 22.1879 47.9996 23.4669 47.513 24.2343C47.0264 24.7459 46.5399 25.0017 45.81 25.0017C45.3234 25.0017 44.8369 24.7459 44.5936 24.4901C43.8637 23.9785 43.3772 23.2111 42.8906 22.4437L35.1056 6.58401L27.3205 22.4437C26.834 23.2111 26.3474 23.9785 25.6176 24.4901C24.8877 25.0017 23.9146 25.5133 23.1847 25.5133L6.39821 28.5829L18.5623 41.373C19.2922 42.1404 19.7788 42.9079 20.0221 43.6753C20.2653 44.4427 20.2653 45.4659 20.2653 46.4891L19.2922 52.8841C18.5624 53.9073 17.8325 54.6747 16.8594 54.6747Z" fill="#9A9A9A"/>
</g>
<defs>
<clipPath id="clip0_730_1576">
<rect width="70" height="70" fill="white"/>
</clipPath>
</defs>
</svg>
