<svg width="52" height="66" viewBox="0 0 52 66" fill="none" xmlns="http://www.w3.org/2000/svg">
<path d="M34.9522 65.9987H2.92921C2.14216 65.9987 1.39633 65.6715 0.86176 65.137C0.327185 64.6037 0 63.8836 0 63.0695V2.92921C0 2.11511 0.327185 1.39633 0.86176 0.86176C1.39633 0.327185 2.11511 0 2.92921 0H48.806C49.6201 0 50.3389 0.327185 50.8735 0.86176C51.408 1.39633 51.7352 2.11511 51.7352 2.92921V48.9413C51.7571 49.0572 51.7829 49.1525 51.7829 49.2685C51.7829 49.6652 51.5974 50.0143 51.3385 50.268L36.2055 65.5762C35.9492 65.8274 35.3553 66.0116 34.9522 65.9987ZM12.3674 14.847L11.1964 15.1639C9.65455 15.1639 8.61631 14.7697 8.08431 13.9801C7.80865 13.5846 7.61543 13.1415 7.50594 12.6507C7.39516 12.16 7.34106 11.5648 7.34106 10.868C7.34106 9.29773 7.63476 8.1513 8.22214 7.43123C8.80953 6.70988 9.8658 6.35049 11.3897 6.35049C12.9135 6.35049 13.9737 6.71245 14.5701 7.43767C15.1677 8.16289 15.4653 9.30675 15.4653 10.868C15.4653 12.0337 15.2219 12.9741 14.7362 13.6903L15.7281 14.2686L15.0119 15.853L12.3674 15.37V14.847ZM10.3012 13.0153H11.445C11.8212 13.0153 12.0943 12.9715 12.2643 12.8852C12.4343 12.7976 12.5181 12.5979 12.5181 12.2862V8.70519H11.3613C10.9942 8.70519 10.7263 8.74899 10.5562 8.83529C10.3862 8.92289 10.3012 9.12255 10.3012 9.43556V13.0153ZM19.2949 8.27753V13.3592H19.7226C20.0536 13.3592 20.2945 13.3244 20.4452 13.2562C20.5959 13.1892 20.6732 13.0295 20.6732 12.7808V8.27753H23.4272V15.1639H22.0502L21.2516 14.3794C20.7003 15.0402 19.9158 15.37 18.8969 15.37C18.0789 15.37 17.4812 15.1948 17.1064 14.847C16.7303 14.4992 16.5409 13.9157 16.5409 13.099V8.27753H19.2949ZM25.3904 14.4683C24.8171 13.868 24.5286 12.9509 24.5286 11.7207C24.5286 10.4905 24.8159 9.57468 25.3904 8.97313C25.9623 8.37286 26.8936 8.07143 28.1792 8.07143C29.4634 8.07143 30.3948 8.37286 30.9667 8.97313C31.5412 9.57468 31.8284 10.4905 31.8284 11.7207C31.8284 12.9509 31.5412 13.868 30.9667 14.4683C30.3948 15.0686 29.4634 15.37 28.1792 15.37C26.8936 15.37 25.9623 15.0686 25.3904 14.4683ZM27.49 10.6606V13.3592H27.9164C28.2474 13.3592 28.4896 13.3244 28.6403 13.2562C28.791 13.1892 28.867 13.0295 28.867 12.7808V10.0822H28.4407C28.1109 10.0822 27.8674 10.117 27.7167 10.1853C27.566 10.2535 27.49 10.4145 27.49 10.6606ZM32.5163 10.0552V8.27753H33.2055V7.17618L35.9595 6.48832V8.27753H36.9101V10.0552H35.9595V13.1943C36.1991 13.2407 36.4696 13.2729 36.7723 13.2909L36.6486 15.3159C35.3901 15.3159 34.5735 15.2437 34.1973 15.1085C33.731 14.9423 33.4347 14.7221 33.3149 14.4477C33.2441 14.2828 33.2055 14.0896 33.2055 13.8693V10.0552H32.5163ZM40.6277 12.6675V13.3051C41.7921 13.421 42.927 13.2858 44.0438 12.9328L44.3748 14.9578C43.3456 15.2334 42.3267 15.37 41.3168 15.37C40.0313 15.37 39.1012 15.0686 38.528 14.4683C37.9548 13.868 37.6675 12.9509 37.6675 11.7207C37.6675 10.4905 37.9548 9.57468 38.528 8.97313C39.1012 8.37286 40.03 8.07143 41.3104 8.07143C42.5908 8.07143 43.4744 8.24662 43.9614 8.59441C44.4483 8.9435 44.6904 9.59529 44.6904 10.5498C44.6904 11.3587 44.3993 11.7838 43.8171 12.1368C43.2336 12.491 42.1709 12.6675 40.6277 12.6675ZM40.6277 10.6606V11.2248H41.1932C41.5242 11.2248 41.7651 11.19 41.9158 11.1217C42.0665 11.0547 42.1438 10.895 42.1438 10.6464V9.77048H41.5783C41.2498 9.77048 41.0064 9.80526 40.8557 9.87353C40.705 9.9418 40.6277 10.4145 40.6277 10.6606ZM14.5456 50.0207C15.6031 50.0207 16.5615 50.4497 17.2545 51.144C17.6111 51.4991 17.894 51.9213 18.0868 52.3862C18.2795 52.8512 18.3784 53.3496 18.3778 53.8529C18.3778 54.9105 17.9488 55.8688 17.2545 56.5631L17.2133 56.6005C16.5229 57.2716 15.5812 57.6851 14.5456 57.6851C13.488 57.6851 12.5297 57.2562 11.8354 56.5631C11.1423 55.8688 10.7134 54.9105 10.7134 53.8529C10.7134 52.7954 11.1423 51.837 11.8354 51.144C12.5297 50.4497 13.488 50.0207 14.5456 50.0207ZM14.5456 46.8493C16.4765 46.8493 18.2271 47.6338 19.4959 48.9001L19.4997 48.9052C20.766 50.1727 21.5492 51.9233 21.5492 53.8529C21.5492 55.7864 20.7647 57.5383 19.4984 58.8058L19.4572 58.8431C18.1923 60.0875 16.4572 60.8578 14.5456 60.8578C12.6121 60.8578 10.8602 60.0733 9.59272 58.8058C8.32519 57.5383 7.54201 55.7864 7.54201 53.8529C7.54201 51.922 8.32648 50.1702 9.59529 48.9026C10.8602 47.6338 12.6121 46.8493 14.5456 46.8493ZM18.5143 49.8842C17.4993 48.8704 16.0965 48.2431 14.5456 48.2431C12.996 48.2431 11.5932 48.8704 10.5781 49.8855C10.0563 50.4058 9.64254 51.0242 9.36067 51.7052C9.07881 52.3861 8.9344 53.116 8.93577 53.8529C8.93577 55.4025 9.56309 56.8053 10.5781 57.8204C11.5932 58.8354 12.996 59.4627 14.5456 59.4627C16.018 59.4656 17.4321 58.8875 18.4808 57.8539L18.513 57.8204C19.5281 56.8053 20.1554 55.4025 20.1554 53.8529C20.1554 52.302 19.5281 50.8992 18.5143 49.8842ZM12.634 24.6239C12.1149 24.6239 11.6937 24.2027 11.6937 23.6836C11.6937 23.1632 12.1149 22.742 12.634 22.742H31.4948C32.0152 22.742 32.4364 23.1632 32.4364 23.6836C32.4364 24.2027 32.0152 24.6239 31.4948 24.6239H12.634ZM12.634 39.0639C12.1149 39.0639 11.6937 38.6427 11.6937 38.1235C11.6937 37.6044 12.1149 37.1819 12.634 37.1819H38.6427C39.1618 37.1819 39.583 37.6044 39.583 38.1235C39.583 38.6427 39.1618 39.0639 38.6427 39.0639H12.634ZM12.634 33.3162C12.1149 33.3162 11.6937 32.8963 11.6937 32.3759C11.6937 31.8568 12.1149 31.4356 12.634 31.4356H31.4948C32.0152 31.4356 32.4364 31.8568 32.4364 32.3759C32.4364 32.8963 32.0152 33.3162 31.4948 33.3162H12.634ZM42.6037 28.791H9.17923V41.6466H42.6037V28.791ZM9.17923 26.9091H42.6037V20.1876H9.17923V26.9091ZM8.2376 18.3056H43.544C44.0631 18.3056 44.4843 18.7269 44.4843 19.2473V42.5869C44.4843 43.106 44.0631 43.5273 43.544 43.5273H8.2376C7.71848 43.5273 7.29727 43.106 7.29727 42.5869V19.2473C7.29727 18.7269 7.71848 18.3056 8.2376 18.3056ZM33.8366 63.3709V51.913C33.8366 50.8181 34.281 49.8185 34.9998 49.0997C35.3693 48.7304 35.8079 48.4376 36.2907 48.238C36.7734 48.0385 37.2907 47.936 37.8131 47.9365H49.0598V2.92406C49.0598 2.85579 49.0379 2.76047 48.9645 2.71281C48.9168 2.66514 48.8485 2.61748 48.7532 2.61748H2.90345C2.83389 2.61748 2.73857 2.63938 2.6922 2.71281C2.64325 2.76047 2.59687 2.85064 2.59687 2.92406V63.0695C2.59687 63.1648 2.61748 63.2331 2.6922 63.2808C2.73857 63.3284 2.80813 63.3761 2.90345 63.3761H33.8366V63.3709ZM36.4644 51.913V61.5096L47.2719 50.5643H37.8131C37.4421 50.5643 37.1149 50.7279 36.8612 50.9611C36.6229 51.1929 36.4644 51.542 36.4644 51.913Z" fill="#9A9A9A"/>
</svg>
