<svg width="76" height="77" viewBox="0 0 76 77" fill="none" xmlns="http://www.w3.org/2000/svg">
<g clip-path="url(#clip0_2550_17576)">
<path d="M47.5814 34.8351H53.9148C54.7888 34.8351 55.4982 34.1257 55.4982 33.2517V26.9183C55.4982 26.0443 54.7888 25.335 53.9148 25.335H47.5814C46.7074 25.335 45.998 26.0443 45.998 26.9183V33.2517C45.998 34.1257 46.7074 34.8351 47.5814 34.8351ZM52.3314 28.5017V31.6683H49.1648V28.5017H52.3314Z" fill="#9A9A9A"/>
<path d="M22.2474 60.1689H28.5808C29.4548 60.1689 30.1642 59.4596 30.1642 58.5856V52.2523C30.1642 51.3783 29.4548 50.6689 28.5808 50.6689H22.2474C21.3734 50.6689 20.6641 51.3783 20.6641 52.2523V58.5857C20.6641 59.4597 21.3734 60.1689 22.2474 60.1689ZM23.8308 53.8357H26.9974V57.0023H23.8308V53.8357Z" fill="#9A9A9A"/>
<path d="M22.2474 22.1689H28.5808C29.4548 22.1689 30.1642 21.4596 30.1642 20.5856V14.2523C30.1642 13.3783 29.4548 12.6689 28.5808 12.6689H22.2474C21.3734 12.6689 20.6641 13.3783 20.6641 14.2523V20.5857C20.6641 21.4597 21.3734 22.1689 22.2474 22.1689ZM23.8308 15.8357H26.9974V19.0023H23.8308V15.8357Z" fill="#9A9A9A"/>
<path d="M66.4168 72.8353H61.8314V7.91857C61.8314 7.04457 61.122 6.33519 60.248 6.33519H55.498V1.58519C55.4982 0.711336 54.7888 0.00195312 53.9148 0.00195312H22.2482C21.3742 0.00195312 20.6648 0.711336 20.6648 1.58534V6.33534H15.9148C15.0408 6.33534 14.3314 7.04472 14.3314 7.91872V72.8353H9.58143C8.70743 72.8353 7.99805 73.5447 7.99805 74.4187C7.99805 75.2927 8.70743 76.0021 9.58143 76.0021H28.5814C29.4554 76.0021 30.1648 75.2927 30.1648 74.4187V66.502H45.9982V74.4186C45.9982 75.2926 46.7076 76.002 47.5816 76.002H66.417C67.291 76.002 68.0003 75.2926 68.0003 74.4186C68.0002 73.5446 67.2908 72.8353 66.4168 72.8353ZM23.8316 3.16857H52.3316V6.33519H23.8316V3.16857ZM58.6648 72.8353H49.1648V64.9187C49.1648 64.0447 48.4554 63.3353 47.5814 63.3353H28.5814C27.7074 63.3353 26.998 64.0447 26.998 64.9187V72.8353H17.498V9.50195H58.6647V72.8353H58.6648Z" fill="#9A9A9A"/>
<path d="M34.9154 60.1689H41.2488C42.1228 60.1689 42.8322 59.4596 42.8322 58.5856V52.2523C42.8322 51.3783 42.1228 50.6689 41.2488 50.6689H34.9154C34.0414 50.6689 33.332 51.3783 33.332 52.2523V58.5857C33.3322 59.4597 34.0414 60.1689 34.9154 60.1689ZM36.4988 53.8357H39.6654V57.0023H36.4988V53.8357Z" fill="#9A9A9A"/>
<path d="M47.5814 22.1689H53.9148C54.7888 22.1689 55.4982 21.4596 55.4982 20.5856V14.2523C55.4982 13.3783 54.7888 12.6689 53.9148 12.6689H47.5814C46.7074 12.6689 45.998 13.3783 45.998 14.2523V20.5857C45.998 21.4597 46.7074 22.1689 47.5814 22.1689ZM52.3314 15.8357V19.0023H49.1648V15.8357H52.3314Z" fill="#9A9A9A"/>
<path d="M22.2474 34.8351H28.5808C29.4548 34.8351 30.1642 34.1257 30.1642 33.2517V26.9183C30.1642 26.0443 29.4548 25.335 28.5808 25.335H22.2474C21.3734 25.335 20.6641 26.0443 20.6641 26.9183V33.2517C20.6641 34.1257 21.3734 34.8351 22.2474 34.8351ZM23.8308 28.5017H26.9974V31.6683H23.8308V28.5017Z" fill="#9A9A9A"/>
<path d="M34.9154 47.5021H41.2488C42.1228 47.5021 42.8322 46.7927 42.8322 45.9187V39.5853C42.8322 38.7113 42.1228 38.002 41.2488 38.002H34.9154C34.0414 38.002 33.332 38.7113 33.332 39.5853V45.9187C33.3322 46.7927 34.0414 47.5021 34.9154 47.5021ZM36.4988 41.1687H39.6654V44.3353H36.4988V41.1687Z" fill="#9A9A9A"/>
<path d="M34.9154 22.1689H41.2488C42.1228 22.1689 42.8322 21.4596 42.8322 20.5856V14.2523C42.8322 13.3783 42.1228 12.6689 41.2488 12.6689H34.9154C34.0414 12.6689 33.332 13.3783 33.332 14.2523V20.5857C33.3322 21.4597 34.0414 22.1689 34.9154 22.1689ZM36.4988 15.8357H39.6654V19.0023H36.4988V15.8357Z" fill="#9A9A9A"/>
<path d="M34.9154 34.8351H41.2488C42.1228 34.8351 42.8322 34.1257 42.8322 33.2517V26.9183C42.8322 26.0443 42.1228 25.335 41.2488 25.335H34.9154C34.0414 25.335 33.332 26.0443 33.332 26.9183V33.2517C33.3322 34.1257 34.0414 34.8351 34.9154 34.8351ZM36.4988 28.5017H39.6654V31.6683H36.4988V28.5017Z" fill="#9A9A9A"/>
<path d="M47.5814 60.1689H53.9148C54.7888 60.1689 55.4982 59.4596 55.4982 58.5856V52.2523C55.4982 51.3783 54.7888 50.6689 53.9148 50.6689H47.5814C46.7074 50.6689 45.998 51.3783 45.998 52.2523V58.5857C45.998 59.4597 46.7074 60.1689 47.5814 60.1689ZM52.3314 53.8357V57.0023H49.1648V53.8357H52.3314Z" fill="#9A9A9A"/>
<path d="M22.2474 47.5021H28.5808C29.4548 47.5021 30.1642 46.7927 30.1642 45.9187V39.5853C30.1642 38.7113 29.4548 38.002 28.5808 38.002H22.2474C21.3734 38.002 20.6641 38.7113 20.6641 39.5853V45.9187C20.6641 46.7927 21.3734 47.5021 22.2474 47.5021ZM23.8308 41.1687H26.9974V44.3353H23.8308V41.1687Z" fill="#9A9A9A"/>
<path d="M47.5814 47.5021H53.9148C54.7888 47.5021 55.4982 46.7927 55.4982 45.9187V39.5853C55.4982 38.7113 54.7888 38.002 53.9148 38.002H47.5814C46.7074 38.002 45.998 38.7113 45.998 39.5853V45.9187C45.998 46.7927 46.7074 47.5021 47.5814 47.5021ZM52.3314 41.1687V44.3353H49.1648V41.1687H52.3314Z" fill="#9A9A9A"/>
</g>
<defs>
<clipPath id="clip0_2550_17576">
<rect width="76" height="76" fill="white" transform="translate(0 0.00195312)"/>
</clipPath>
</defs>
</svg>
