<svg width="61" height="76" viewBox="0 0 61 76" fill="none" xmlns="http://www.w3.org/2000/svg">
<path d="M59.4168 72.8334H54.8314V7.91662C54.8314 7.04262 54.122 6.33323 53.248 6.33323H48.498V1.58323C48.4982 0.709383 47.7888 0 46.9148 0H15.2482C14.3742 0 13.6648 0.709383 13.6648 1.58338V6.33338H8.91481C8.04081 6.33338 7.33143 7.04277 7.33143 7.91677V72.8334H2.58143C1.70743 72.8334 0.998047 73.5428 0.998047 74.4168C0.998047 75.2908 1.70743 76.0001 2.58143 76.0001H21.5814C22.4554 76.0001 23.1648 75.2908 23.1648 74.4168V66.5H38.9982V74.4166C38.9982 75.2906 39.7076 76 40.5816 76H59.417C60.291 76 61.0003 75.2906 61.0003 74.4166C61.0002 73.5426 60.2908 72.8334 59.4168 72.8334ZM16.8316 3.16662H45.3316V6.33323H16.8316V3.16662ZM51.6648 72.8334H42.1648V64.9168C42.1648 64.0428 41.4554 63.3334 40.5814 63.3334H21.5814C20.7074 63.3334 19.998 64.0428 19.998 64.9168V72.8334H10.498V9.5H51.6647V72.8334H51.6648Z" fill="#9A9A9A"/>
</svg>
