<svg width="115" height="32" viewBox="0 0 115 32" fill="none" xmlns="http://www.w3.org/2000/svg">
<path d="M18.6702 26.498L19.6035 26.498L20.5198 26.498L30.8738 26.498L31.3566 26.498L101.813 26.498L102.328 26.498L103.218 26.498L103.218 27.2345L103.218 26.5052C103.389 26.5052 103.533 26.5261 103.7 26.5288C103.839 26.5319 103.97 26.5433 104.107 26.5497C108.906 26.7425 111.828 28.4177 113.572 30.2648C113.871 30.5798 114.142 30.8977 114.376 31.2163L114.376 11.7172L114.376 11.2488L114.376 9.70365C114.376 6.89 113.4 4.70281 111.477 3.19876C108.793 1.10047 104.96 0.88128 103.697 0.868223C103.436 0.865167 103.276 0.871001 103.269 0.871001L103.269 0.866834L103.217 0.144531L103.217 0.866834L0.589511 0.866834L13.351 13.7207L0.375488 26.4966L18.6702 26.4966L18.6702 26.498Z" fill="url(#paint0_linear_28_304)"/>
<defs>
<linearGradient id="paint0_linear_28_304" x1="22.5565" y1="13.0391" x2="104.332" y2="31.0211" gradientUnits="userSpaceOnUse">
<stop stop-color="#AC2A2C"/>
<stop offset="0.5" stop-color="#BC2D2F"/>
<stop offset="1" stop-color="#A92729"/>
</linearGradient>
</defs>
</svg>
