<svg width="10" height="10" viewBox="0 0 10 10" fill="none" xmlns="http://www.w3.org/2000/svg">
<path d="M9.86685 2.5657L7.43436 0.133152C7.34912 0.0479091 7.23352 3.0303e-05 7.11294 3.0303e-05H5.9097C5.90949 3.0303e-05 5.9093 0 5.90909 0H2.27273C2.27252 0 2.27233 3.0303e-05 2.27212 3.0303e-05H0.454545C0.203515 3.0303e-05 0 0.203545 0 0.454576V9.54545C0 9.79648 0.203515 10 0.454545 10H2.27273H7.72727H9.54545C9.79648 10 10 9.79648 10 9.54545V2.88709C10 2.76655 9.95212 2.65091 9.86685 2.5657ZM2.72727 0.909121H3.63636V2.12121C3.63636 2.37224 3.83988 2.57576 4.09091 2.57576C4.34194 2.57576 4.54545 2.37224 4.54545 2.12121V0.909121H5.45455V3.33333H2.72727V0.909121ZM7.27273 7.27273H2.72727V6.36364H7.27273V7.27273ZM2.72727 9.09091V8.18182H7.27273V9.09091H2.72727ZM9.09091 9.09091H8.18182V5.90909C8.18182 5.65806 7.9783 5.45455 7.72727 5.45455H2.27273C2.0217 5.45455 1.81818 5.65806 1.81818 5.90909V9.09091H0.909091V0.909121H1.81818V3.78788C1.81818 4.03891 2.0217 4.24242 2.27273 4.24242H5.90909C6.16012 4.24242 6.36364 4.03891 6.36364 3.78788V0.909121H6.9247L9.09091 3.07536V9.09091Z" fill="white"/>
</svg>
