<svg width="26" height="26" viewBox="0 0 26 26" fill="none" xmlns="http://www.w3.org/2000/svg">
<g clip-path="url(#clip0_2303_18339)">
<path d="M13.4235 3.90137C10.7262 3.90137 8.53174 6.09585 8.53174 8.79316C8.53174 11.4905 10.7262 13.6849 13.4235 13.6849C16.1209 13.6849 18.3153 11.4904 18.3153 8.79311C18.3153 6.09585 16.1209 3.90137 13.4235 3.90137ZM13.4235 12.6645C11.2888 12.6645 9.55215 10.9278 9.55215 8.79311C9.55215 6.6584 11.2888 4.92178 13.4235 4.92178C15.5583 4.92178 17.2949 6.65845 17.2949 8.79316C17.2949 10.9278 15.5583 12.6645 13.4235 12.6645Z" fill="#565656"/>
<path d="M21.1576 2.88105H21.0045V2.72798C21.0045 2.44619 20.776 2.21777 20.4943 2.21777C20.2125 2.21777 19.9841 2.44619 19.9841 2.72798V2.88105H19.831C19.5493 2.88105 19.3208 3.10947 19.3208 3.39126C19.3208 3.67305 19.5493 3.90147 19.831 3.90147H19.9841V4.05454C19.9841 4.33633 20.2125 4.56475 20.4943 4.56475C20.776 4.56475 21.0045 4.33633 21.0045 4.05454V3.90147H21.1576C21.4393 3.90147 21.6678 3.67305 21.6678 3.39126C21.6678 3.10947 21.4393 2.88105 21.1576 2.88105Z" fill="#565656"/>
<path d="M23.6786 9.97676H23.5255V9.82368C23.5255 9.54189 23.297 9.31348 23.0153 9.31348C22.7335 9.31348 22.5051 9.54189 22.5051 9.82368V9.97676H22.352C22.0703 9.97676 21.8418 10.2052 21.8418 10.487C21.8418 10.7688 22.0703 10.9972 22.352 10.9972H22.5051V11.1502C22.5051 11.432 22.7335 11.6604 23.0153 11.6604C23.297 11.6604 23.5255 11.432 23.5255 11.1502V10.9972H23.6786C23.9603 10.9972 24.1888 10.7688 24.1888 10.487C24.1888 10.2052 23.9603 9.97676 23.6786 9.97676Z" fill="#565656"/>
<path d="M4.08677 5.89082H3.93369V5.73774C3.93369 5.45596 3.70522 5.22754 3.42349 5.22754C3.14175 5.22754 2.91328 5.45596 2.91328 5.73774V5.89082H2.76021C2.47847 5.89082 2.25 6.11924 2.25 6.40103C2.25 6.68281 2.47847 6.91123 2.76021 6.91123H2.91328V7.06431C2.91328 7.34609 3.14175 7.57451 3.42349 7.57451C3.70522 7.57451 3.93369 7.34609 3.93369 7.06431V6.91123H4.08677C4.36851 6.91123 4.59697 6.68281 4.59697 6.40103C4.59697 6.11924 4.36851 5.89082 4.08677 5.89082Z" fill="#565656"/>
<path d="M6.67075 12.4211H6.51768V12.268C6.51768 11.9862 6.28921 11.7578 6.00747 11.7578C5.72573 11.7578 5.49727 11.9862 5.49727 12.268V12.4211H5.34419C5.06245 12.4211 4.83398 12.6495 4.83398 12.9313C4.83398 13.2131 5.06245 13.4415 5.34419 13.4415H5.49727V13.5946C5.49727 13.8764 5.72573 14.1048 6.00747 14.1048C6.28921 14.1048 6.51768 13.8764 6.51768 13.5946V13.4415H6.67075C6.95249 13.4415 7.18096 13.2131 7.18096 12.9313C7.18096 12.6495 6.95244 12.4211 6.67075 12.4211Z" fill="#565656"/>
<path d="M20.3471 17.7275H17.8095C17.5278 17.7275 17.2993 17.956 17.2993 18.2377C17.2993 18.5195 17.5278 18.7479 17.8095 18.7479H20.3471C20.6289 18.7479 20.8573 18.5195 20.8573 18.2377C20.8573 17.956 20.6288 17.7275 20.3471 17.7275Z" fill="#565656"/>
<path d="M16.0747 17.7275H6.44868C6.16694 17.7275 5.93848 17.956 5.93848 18.2377C5.93848 18.5195 6.16694 18.7479 6.44868 18.7479H16.0747C16.3564 18.7479 16.5849 18.5195 16.5849 18.2377C16.5849 17.956 16.3564 17.7275 16.0747 17.7275Z" fill="#565656"/>
<path d="M20.347 20.1768H19.5878C19.3061 20.1768 19.0776 20.4052 19.0776 20.687C19.0776 20.9688 19.3061 21.1972 19.5878 21.1972H20.347C20.6288 21.1972 20.8572 20.9688 20.8572 20.687C20.8572 20.4052 20.6288 20.1768 20.347 20.1768Z" fill="#565656"/>
<path d="M10.5692 20.1768H9.37642C9.09463 20.1768 8.86621 20.4052 8.86621 20.687C8.86621 20.9688 9.09463 21.1972 9.37642 21.1972H10.5692C10.851 21.1972 11.0794 20.9688 11.0794 20.687C11.0794 20.4052 10.851 20.1768 10.5692 20.1768Z" fill="#565656"/>
<path d="M7.64175 20.1768H6.49995C6.21821 20.1768 5.98975 20.4052 5.98975 20.687C5.98975 20.9688 6.21821 21.1972 6.49995 21.1972H7.64175C7.92349 21.1972 8.15195 20.9688 8.15195 20.687C8.15195 20.4052 7.92349 20.1768 7.64175 20.1768Z" fill="#565656"/>
<path d="M17.853 20.1768H12.3037C12.0219 20.1768 11.7935 20.4052 11.7935 20.687C11.7935 20.9688 12.0219 21.1972 12.3037 21.1972H17.853C18.1348 21.1972 18.3632 20.9688 18.3632 20.687C18.3632 20.4052 18.1348 20.1768 17.853 20.1768Z" fill="#565656"/>
<path d="M22.607 18.7477H24.1887C25.1452 18.7477 25.9234 17.9695 25.9234 17.013C25.9234 16.0565 25.1452 15.2783 24.1887 15.2783H2.65806C1.70151 15.2783 0.92334 16.0565 0.92334 17.013C0.92334 17.9696 1.70151 18.7477 2.65806 18.7477H3.88491C4.27881 18.7477 4.59922 19.0681 4.59922 19.462C4.59922 19.8559 4.27881 20.1763 3.88491 20.1763H3.83154C2.875 20.1763 2.09683 20.9545 2.09683 21.911C2.09683 22.8676 2.875 23.6458 3.83154 23.6458H23.0152C23.9718 23.6458 24.75 22.8676 24.75 21.911C24.75 20.9545 23.9718 20.1763 23.0152 20.1763H22.6071C22.2132 20.1763 21.8928 19.8559 21.8928 19.462C21.8927 19.0681 22.2131 18.7477 22.607 18.7477ZM22.607 21.1967H23.0152C23.4091 21.1967 23.7295 21.5171 23.7295 21.911C23.7295 22.3049 23.4091 22.6253 23.0152 22.6253H3.83149C3.4376 22.6253 3.11719 22.3049 3.11719 21.911C3.11719 21.5171 3.4376 21.1967 3.83149 21.1967H3.88486C4.84141 21.1967 5.61958 20.4185 5.61958 19.462C5.61958 18.5055 4.84141 17.7273 3.88486 17.7273H2.65806C2.26416 17.7273 1.94375 17.4069 1.94375 17.013C1.94375 16.6191 2.26416 16.2987 2.65806 16.2987H24.1887C24.5826 16.2987 24.903 16.6191 24.903 17.013C24.903 17.4069 24.5826 17.7273 24.1887 17.7273H22.607C21.6505 17.7273 20.8724 18.5055 20.8724 19.462C20.8724 20.4186 21.6505 21.1967 22.607 21.1967Z" fill="#565656"/>
</g>
<defs>
<clipPath id="clip0_2303_18339">
<rect width="25" height="25" fill="white" transform="translate(0.92334 0.431641)"/>
</clipPath>
</defs>
</svg>
