<svg width="106" height="106" viewBox="0 0 106 106" fill="none" xmlns="http://www.w3.org/2000/svg">
<circle cx="53.2893" cy="52.5703" r="52.5" fill="#FFF3F4"/>
<path d="M74.9177 55.0855L60.8718 53.0447L54.591 40.3184C54.4355 40.0025 54.1141 39.8026 53.7612 39.8026C53.4083 39.8026 53.0869 40.0025 52.9314 40.3184L46.6513 53.0447L32.6053 55.0855C32.2574 55.136 31.9674 55.3803 31.8582 55.7153C31.749 56.0503 31.8403 56.4186 32.0927 56.6641L42.2551 66.57L39.8565 80.5579C39.7967 80.9052 39.9398 81.2562 40.2248 81.4635C40.5105 81.6702 40.888 81.6973 41.1996 81.5339L53.7606 74.9292L66.3234 81.5339C66.4592 81.6048 66.6066 81.64 66.754 81.64C66.9459 81.64 67.1365 81.5801 67.2982 81.4635C67.5832 81.2562 67.7257 80.9052 67.6665 80.5579L65.2654 66.57L75.4291 56.6641C75.6814 56.4186 75.7721 56.0503 75.6635 55.7153C75.5556 55.3803 75.2656 55.136 74.9177 55.0855ZM63.6269 65.5841C63.4085 65.797 63.3092 66.1029 63.3604 66.4034L65.5264 79.0224L54.1924 73.0642C53.9222 72.923 53.6008 72.923 53.3312 73.0642L41.9991 79.0224L44.1626 66.4034C44.2138 66.1029 44.1145 65.797 43.8961 65.5841L34.7287 56.6481L47.4002 54.8072C47.7012 54.7634 47.9622 54.574 48.0967 54.3014L53.7624 42.8206L59.4288 54.3014C59.5633 54.574 59.8242 54.7634 60.1253 54.8072L72.7967 56.6481L63.6269 65.5841Z" fill="#231F20"/>
<path d="M38.0508 45.0186C38.3988 45.0186 38.7325 44.8212 38.8899 44.485C39.1064 44.0223 38.9059 43.4714 38.4426 43.2548L28.7157 38.71C28.2536 38.4947 27.7021 38.6946 27.4856 39.1573C27.269 39.62 27.4695 40.1709 27.9328 40.3874L37.6597 44.9322C37.7862 44.9908 37.9194 45.0186 38.0508 45.0186Z" fill="#D7282F"/>
<path d="M78.7839 39.1567C78.5668 38.694 78.0153 38.4941 77.5538 38.7094L67.8269 43.2542C67.3636 43.4714 67.1637 44.0217 67.3796 44.4844C67.5369 44.8206 67.8707 45.018 68.2186 45.018C68.35 45.018 68.4833 44.9902 68.6098 44.931L78.3367 40.3862C78.8006 40.1703 79.0005 39.6194 78.7839 39.1567Z" fill="#D7282F"/>
<path d="M53.7618 35.7494C54.2726 35.7494 54.6872 35.3349 54.6872 34.8241V24.1187C54.6872 23.6073 54.2726 23.1934 53.7618 23.1934C53.251 23.1934 52.8365 23.6073 52.8365 24.1187V34.8241C52.8365 35.3349 53.251 35.7494 53.7618 35.7494Z" fill="#D7282F"/>
</svg>
