<svg width="106" height="106" viewBox="0 0 106 106" fill="none" xmlns="http://www.w3.org/2000/svg">
<circle cx="53.1016" cy="52.5703" r="52.5" fill="#FFF3F4"/>
<path d="M54.171 23.0664C47.267 23.0743 40.6481 25.8162 35.7663 30.6904C30.8845 35.5646 28.1384 42.1732 28.1305 49.0664C28.1158 54.6115 29.8955 60.0129 33.2044 64.4664L34.8149 63.2784C31.9712 59.4411 30.3533 54.8365 30.1726 50.0664H39.8487C39.9053 53.9278 40.47 57.765 41.5283 61.4794L43.4493 60.9134C42.445 57.3828 41.9079 53.7362 41.8518 50.0664H53.1694V59.0664H55.1725V50.0664H66.4901C66.4323 53.7364 65.8936 57.3831 64.8876 60.9134L66.8086 61.4794C67.8686 57.7652 68.435 53.928 68.4932 50.0664H78.1733C77.9935 54.8379 76.3755 59.444 73.5311 63.2824L75.1376 64.4664C78.4464 60.0129 80.2261 54.6115 80.2114 49.0664C80.2035 42.1732 77.4574 35.5646 72.5756 30.6904C67.6938 25.8162 61.0749 23.0743 54.171 23.0664ZM39.8317 48.0664H30.1586C30.3407 43.584 31.7848 39.2437 34.3251 35.5434C36.5914 36.3598 38.923 36.9823 41.2949 37.4044C40.3765 40.8861 39.8852 44.4664 39.8317 48.0664ZM35.579 33.8724C38.6451 30.1359 42.7662 27.407 47.4064 26.0404C44.8264 28.695 42.9272 31.9329 41.8708 35.4784C39.7354 35.1051 37.6319 34.5682 35.579 33.8724ZM53.1694 48.0664H41.8348C41.8917 44.5765 42.3799 41.1069 43.288 37.7364C46.5603 38.2187 49.8618 38.4756 53.1694 38.5054V48.0664ZM53.1694 36.5054C50.0629 36.4765 46.9616 36.2426 43.886 35.8054C45.9261 29.8454 49.2984 25.7594 53.1694 25.1524V36.5054ZM55.1725 25.1524C59.0445 25.7594 62.4178 29.8524 64.458 35.8074C61.3813 36.2417 58.2796 36.4755 55.1725 36.5074V25.1524ZM55.1725 48.0664V38.5064C58.4802 38.4741 61.7819 38.2182 65.0549 37.7404C65.9621 41.1097 66.4499 44.5779 66.5071 48.0664H55.1725ZM66.4711 35.4774C65.4144 31.9324 63.5153 28.6948 60.9355 26.0404C65.5745 27.4052 69.6949 30.132 72.7609 33.8664C70.7098 34.5672 68.6067 35.1059 66.4711 35.4774ZM68.5103 48.0664C68.4569 44.4656 67.9652 40.8847 67.046 37.4024C69.4185 36.9838 71.7505 36.3615 74.0158 35.5424C76.5571 39.2426 78.0015 43.5835 78.1833 48.0664H68.5103Z" fill="#D7282F"/>
<path d="M72.199 83.0664H79.2099C79.4756 83.0664 79.7303 82.961 79.9181 82.7735C80.106 82.5859 80.2115 82.3316 80.2115 82.0664V76.4664C80.2104 75.6937 79.9457 74.9445 79.4611 74.3421C78.9764 73.7397 78.3008 73.3201 77.5453 73.1524C78.0732 72.6792 78.445 72.0573 78.6114 71.3687C78.7777 70.6802 78.731 69.9574 78.4773 69.296C78.2235 68.6345 77.7748 68.0655 77.1903 67.6641C76.6058 67.2627 75.9131 67.0478 75.2037 67.0478C74.4943 67.0478 73.8016 67.2627 73.2171 67.6641C72.6326 68.0655 72.1838 68.6345 71.9301 69.296C71.6764 69.9574 71.6296 70.6802 71.796 71.3687C71.9624 72.0573 72.3341 72.6792 72.8621 73.1524C72.3634 73.2664 71.8973 73.492 71.4989 73.8124C71.1829 73.3546 70.7745 72.9679 70.3 72.6768C69.8256 72.3858 69.2955 72.197 68.7436 72.1224C69.3789 71.5976 69.8365 70.8898 70.054 70.0958C70.2715 69.3017 70.2383 68.46 69.959 67.6854C69.6797 66.9109 69.1678 66.2412 68.4932 65.7679C67.8186 65.2946 67.0142 65.0406 66.1897 65.0406C65.3652 65.0406 64.5607 65.2946 63.8862 65.7679C63.2116 66.2412 62.6997 66.9109 62.4204 67.6854C62.141 68.46 62.1079 69.3017 62.3254 70.0958C62.5429 70.8898 63.0005 71.5976 63.6357 72.1224C63.0449 72.1993 62.479 72.4081 61.9801 72.7334C61.69 71.6823 61.0633 70.7549 60.1958 70.0928C59.3283 69.4307 58.2676 69.0702 57.1757 69.0664H56.9693C57.7029 68.4862 58.2374 67.6925 58.4987 66.7953C58.76 65.8982 58.7352 64.942 58.4275 64.0596C58.1199 63.1772 57.5449 62.4123 56.7821 61.871C56.0194 61.3296 55.1068 61.0388 54.171 61.0388C53.2352 61.0388 52.3226 61.3296 51.5599 61.871C50.7971 62.4123 50.222 63.1772 49.9144 64.0596C49.6068 64.942 49.5819 65.8982 49.8432 66.7953C50.1045 67.6925 50.6391 68.4862 51.3726 69.0664H51.1663C50.0739 69.0695 49.0125 69.4297 48.1444 70.0919C47.2762 70.7541 46.6491 71.6818 46.3588 72.7334C45.86 72.4081 45.2941 72.1993 44.7033 72.1224C45.3385 71.5976 45.7961 70.8898 46.0136 70.0958C46.2311 69.3017 46.1979 68.46 45.9186 67.6854C45.6393 66.9109 45.1274 66.2412 44.4528 65.7679C43.7782 65.2946 42.9738 65.0406 42.1493 65.0406C41.3248 65.0406 40.5204 65.2946 39.8458 65.7679C39.1712 66.2412 38.6593 66.9109 38.38 67.6854C38.1006 68.46 38.0675 69.3017 38.285 70.0958C38.5025 70.8898 38.9601 71.5976 39.5953 72.1224C39.0435 72.197 38.5134 72.3858 38.0389 72.6768C37.5645 72.9679 37.1561 73.3546 36.84 73.8124C36.4416 73.492 35.9755 73.2664 35.4769 73.1524C36.0048 72.6792 36.3765 72.0573 36.5429 71.3687C36.7093 70.6802 36.6626 69.9574 36.4089 69.296C36.1551 68.6345 35.7064 68.0655 35.1219 67.6641C34.5374 67.2627 33.8447 67.0478 33.1353 67.0478C32.4259 67.0478 31.7332 67.2627 31.1487 67.6641C30.5642 68.0655 30.1154 68.6345 29.8617 69.296C29.608 69.9574 29.5612 70.6802 29.7276 71.3687C29.894 72.0573 30.2657 72.6792 30.7936 73.1524C30.0388 73.3207 29.3638 73.7405 28.8797 74.3429C28.3957 74.9452 28.1315 75.6941 28.1305 76.4664V82.0664C28.1305 82.3316 28.236 82.5859 28.4238 82.7735C28.6117 82.961 28.8664 83.0664 29.1321 83.0664H36.143C36.143 83.3316 36.2485 83.5859 36.4363 83.7735C36.6241 83.961 36.8789 84.0664 37.1445 84.0664H46.1585C46.1585 84.3316 46.264 84.5859 46.4519 84.7735C46.6397 84.961 46.8945 85.0664 47.1601 85.0664H61.1819C61.4475 85.0664 61.7023 84.961 61.8901 84.7735C62.0779 84.5859 62.1834 84.3316 62.1834 84.0664H71.1975C71.4631 84.0664 71.7178 83.961 71.9057 83.7735C72.0935 83.5859 72.199 83.3316 72.199 83.0664ZM75.2037 69.0664C75.5008 69.0664 75.7913 69.1543 76.0383 69.3192C76.2854 69.484 76.478 69.7182 76.5917 69.9923C76.7054 70.2664 76.7351 70.568 76.6772 70.859C76.6192 71.15 76.4761 71.4172 76.266 71.627C76.0559 71.8368 75.7882 71.9797 75.4968 72.0375C75.2054 72.0954 74.9033 72.0657 74.6288 71.9522C74.3543 71.8386 74.1196 71.6464 73.9545 71.3997C73.7895 71.153 73.7014 70.863 73.7014 70.5664C73.7014 70.1685 73.8596 69.787 74.1414 69.5057C74.4231 69.2244 74.8052 69.0664 75.2037 69.0664ZM72.199 76.4664C72.199 76.0951 72.3467 75.739 72.6097 75.4764C72.8727 75.2139 73.2293 75.0664 73.6012 75.0664H76.8062C77.1781 75.0664 77.5347 75.2139 77.7977 75.4764C78.0606 75.739 78.2084 76.0951 78.2084 76.4664V81.0664H72.199V76.4664ZM33.1383 69.0664C33.4354 69.0664 33.7259 69.1543 33.9729 69.3192C34.22 69.484 34.4125 69.7182 34.5263 69.9923C34.64 70.2664 34.6697 70.568 34.6117 70.859C34.5538 71.15 34.4107 71.4172 34.2006 71.627C33.9905 71.8368 33.7228 71.9797 33.4314 72.0375C33.1399 72.0954 32.8379 72.0657 32.5634 71.9522C32.2888 71.8386 32.0542 71.6464 31.8891 71.3997C31.7241 71.153 31.6359 70.863 31.6359 70.5664C31.6359 70.1685 31.7942 69.787 32.076 69.5057C32.3577 69.2244 32.7398 69.0664 33.1383 69.0664ZM36.143 81.0664H30.1336V76.4664C30.1336 76.0951 30.2813 75.739 30.5443 75.4764C30.8073 75.2139 31.1639 75.0664 31.5358 75.0664H34.7408C35.1127 75.0664 35.4693 75.2139 35.7323 75.4764C35.9952 75.739 36.143 76.0951 36.143 76.4664V81.0664ZM42.1523 67.0664C42.5485 67.0664 42.9358 67.1837 43.2652 67.4034C43.5946 67.6232 43.8513 67.9355 44.0029 68.301C44.1545 68.6664 44.1942 69.0686 44.1169 69.4565C44.0396 69.8445 43.8489 70.2009 43.5687 70.4806C43.2886 70.7603 42.9317 70.9508 42.5431 71.0279C42.1545 71.1051 41.7518 71.0655 41.3857 70.9141C41.0197 70.7627 40.7069 70.5064 40.4868 70.1775C40.2667 69.8486 40.1492 69.4619 40.1492 69.0664C40.1492 68.5359 40.3602 68.0272 40.7359 67.6521C41.1115 67.2771 41.621 67.0664 42.1523 67.0664ZM46.1585 82.0664H38.1461V76.0664C38.1461 75.5359 38.3571 75.0272 38.7328 74.6521C39.1084 74.2771 39.6179 74.0664 40.1492 74.0664H44.1554C44.6867 74.0664 45.1962 74.2771 45.5718 74.6521C45.9475 75.0272 46.1585 75.5359 46.1585 76.0664V82.0664ZM54.171 63.0664C54.6662 63.0664 55.1503 63.213 55.5621 63.4877C55.9738 63.7624 56.2948 64.1528 56.4843 64.6097C56.6738 65.0665 56.7234 65.5691 56.6268 66.0541C56.5302 66.539 56.2917 66.9845 55.9415 67.3341C55.5913 67.6838 55.1452 67.9219 54.6595 68.0183C54.1738 68.1148 53.6703 68.0653 53.2128 67.8761C52.7553 67.6868 52.3642 67.3664 52.0891 66.9553C51.8139 66.5442 51.6671 66.0608 51.6671 65.5664C51.6671 64.9033 51.9309 64.2674 52.4005 63.7986C52.87 63.3298 53.5069 63.0664 54.171 63.0664ZM60.1803 83.0664H48.1616V74.0664C48.1616 73.2707 48.4782 72.5077 49.0417 71.945C49.6052 71.3824 50.3694 71.0664 51.1663 71.0664H57.1757C57.9725 71.0664 58.7368 71.3824 59.3003 71.945C59.8638 72.5077 60.1803 73.2707 60.1803 74.0664V83.0664ZM66.1897 67.0664C66.5859 67.0664 66.9731 67.1837 67.3025 67.4034C67.632 67.6232 67.8887 67.9355 68.0403 68.301C68.1919 68.6664 68.2316 69.0686 68.1543 69.4565C68.077 69.8445 67.8862 70.2009 67.6061 70.4806C67.326 70.7603 66.969 70.9508 66.5805 71.0279C66.1919 71.1051 65.7891 71.0655 65.4231 70.9141C65.0571 70.7627 64.7443 70.5064 64.5241 70.1775C64.304 69.8486 64.1866 69.4619 64.1866 69.0664C64.1866 68.5359 64.3976 68.0272 64.7733 67.6521C65.1489 67.2771 65.6584 67.0664 66.1897 67.0664ZM70.1959 82.0664H62.1834V76.0664C62.1834 75.5359 62.3945 75.0272 62.7701 74.6521C63.1458 74.2771 63.6553 74.0664 64.1866 74.0664H68.1928C68.7241 74.0664 69.2336 74.2771 69.6092 74.6521C69.9849 75.0272 70.1959 75.5359 70.1959 76.0664V82.0664Z" fill="#231F20"/>
</svg>
