<svg width="106" height="106" viewBox="0 0 106 106" fill="none" xmlns="http://www.w3.org/2000/svg">
<circle cx="52.7969" cy="52.5703" r="52.5" fill="#FFF3F4"/>
<path d="M54.3038 55.0664C54.3038 49.3284 50.556 44.4544 45.3789 42.7354C47.1417 41.4624 48.2945 39.3984 48.2945 37.0664C48.2945 33.2074 45.1486 30.0664 41.2836 30.0664C37.4185 30.0664 34.2727 33.2074 34.2727 37.0664C34.2727 39.3984 35.4254 41.4624 37.1882 42.7354C32.0111 44.4544 28.2633 49.3284 28.2633 55.0664V56.0664H54.3038V55.0664ZM36.2758 37.0664C36.2758 34.3094 38.5223 32.0664 41.2836 32.0664C44.0448 32.0664 46.2913 34.3094 46.2913 37.0664C46.2913 39.8234 44.0448 42.0664 41.2836 42.0664C38.5223 42.0664 36.2758 39.8234 36.2758 37.0664ZM30.3115 54.0664C30.8193 48.4674 35.5456 44.0664 41.2836 44.0664C47.0215 44.0664 51.7478 48.4674 52.2556 54.0664H30.3115Z" fill="#231F20"/>
<path d="M67.4132 64.7354C69.176 63.4624 70.3288 61.3984 70.3288 59.0664C70.3288 55.2074 67.1829 52.0664 63.3179 52.0664C59.4528 52.0664 56.307 55.2074 56.307 59.0664C56.307 61.3984 57.4597 63.4624 59.2225 64.7354C54.0454 66.4544 50.2976 71.3284 50.2976 77.0664V78.0664H76.3381V77.0664C76.3381 71.3284 72.5903 66.4544 67.4132 64.7354ZM58.3101 59.0664C58.3101 56.3094 60.5566 54.0664 63.3179 54.0664C66.0791 54.0664 68.3256 56.3094 68.3256 59.0664C68.3256 61.8234 66.0791 64.0664 63.3179 64.0664C60.5566 64.0664 58.3101 61.8234 58.3101 59.0664ZM52.3458 76.0664C52.8536 70.4674 57.5799 66.0664 63.3179 66.0664C69.0558 66.0664 73.7821 70.4674 74.2899 76.0664H52.3458Z" fill="#231F20"/>
<path d="M64.3193 48.0664V36.0664H55.7199L59.0181 32.7734L57.6019 31.3594L51.886 37.0664L57.6019 42.7734L59.0181 41.3594L55.7199 38.0664H62.3162V48.0664H64.3193Z" fill="#D7282F"/>
<path d="M39.5739 66.7734L42.8721 70.0664H36.2758V60.0664H34.2727V72.0664H42.8721L39.5739 75.3594L40.9902 76.7734L46.706 71.0664L40.9902 65.3594L39.5739 66.7734Z" fill="#D7282F"/>
</svg>
