<svg width="23" height="24" viewBox="0 0 23 24" fill="none" xmlns="http://www.w3.org/2000/svg">
<path d="M0 4.08862C0 1.87948 1.79086 0.088623 4 0.088623H23V23.9116H4C1.79086 23.9116 0 22.1207 0 19.9116V4.08862Z" fill="#D7282F"/>
<path d="M16.8433 8.75536L16.3339 8.246C16.1241 8.03617 15.7815 8.03617 15.5699 8.246L10.2287 13.589L7.43081 10.791C7.22098 10.5812 6.8784 10.5812 6.66676 10.791L6.15737 11.3004C5.94754 11.5103 5.94754 11.8528 6.15737 12.0644L9.84491 15.752C9.95074 15.8578 10.087 15.9116 10.2251 15.9116C10.3633 15.9116 10.5013 15.8578 10.6054 15.752L16.8379 9.51943C17.0531 9.30601 17.0531 8.96524 16.8433 8.75536Z" fill="white"/>
</svg>
