<svg width="23" height="22" viewBox="0 0 23 22" fill="none" xmlns="http://www.w3.org/2000/svg">
<path d="M16.5602 4.3999H9.5202C8.7942 4.3999 8.2002 4.9939 8.2002 5.7199V5.9399C8.2002 6.0719 8.2882 6.1599 8.4202 6.1599H14.8002C15.5262 6.1599 16.1202 6.7539 16.1202 7.4799V14.2999C16.1202 14.4319 16.2082 14.5199 16.3402 14.5199H16.5602C17.2862 14.5199 17.8802 13.9259 17.8802 13.1999V5.7199C17.8802 4.9939 17.2862 4.3999 16.5602 4.3999Z" fill="white"/>
<path d="M13.4801 7.47998H6.44012C5.71412 7.47998 5.12012 8.07398 5.12012 8.79998V16.28C5.12012 17.006 5.71412 17.6 6.44012 17.6H13.4801C14.2061 17.6 14.8001 17.006 14.8001 16.28V8.79998C14.8001 8.07398 14.2061 7.47998 13.4801 7.47998ZM12.8861 11.22L9.52012 14.586C9.38812 14.718 9.23412 14.784 9.05812 14.784C8.90412 14.784 8.72812 14.718 8.59612 14.586L6.96812 12.958C6.83612 12.826 6.83612 12.628 6.96812 12.496L7.43012 12.034C7.56212 11.902 7.76012 11.902 7.89212 12.034L9.05812 13.2L11.9621 10.296C12.0941 10.164 12.2921 10.164 12.4241 10.296L12.8861 10.758C12.9961 10.89 12.9961 11.11 12.8861 11.22Z" fill="white"/>
</svg>
