<svg width="66" height="66" viewBox="0 0 66 66" fill="none" xmlns="http://www.w3.org/2000/svg">
<path d="M64.1794 35.2572C65.3344 34.1022 65.9965 32.5033 65.9965 30.8703C65.9965 29.2373 65.3344 27.6384 64.1794 26.4834L55.3513 17.6554L45.33 27.6767L49.5881 31.9348L31.932 49.5909L27.6739 45.3328L17.6526 55.3542L26.4806 64.1822C27.6356 65.3372 29.2345 65.9993 30.8675 65.9993C32.5004 65.9993 34.0993 65.3372 35.2543 64.1822L37.7102 61.7264C40.8239 64.4792 44.7732 65.9993 48.9642 65.9993C58.3554 65.9993 65.9965 58.3582 65.9965 48.9671C65.9965 44.775 64.4764 40.8246 61.7235 37.713L64.1794 35.2572ZM48.3404 27.6767L55.3513 20.6658L57.0397 22.3542L50.0288 29.3651L48.3404 27.6767ZM20.663 55.3542L27.6739 48.3433L29.3622 50.0316L22.3513 57.0425L20.663 55.3542ZM33.7491 62.677C32.9901 63.436 31.9405 63.8703 30.8675 63.8703C29.7944 63.8703 28.7448 63.436 27.9858 62.677L23.8566 58.5477L30.8675 51.5368L31.932 52.6013L52.5985 31.9348L51.534 30.8703L58.5449 23.8594L62.6741 27.9886C63.4331 28.7476 63.8675 29.7973 63.8675 30.8703C63.8675 31.9433 63.4331 32.9929 62.6741 33.7519L33.7491 62.677ZM63.8675 48.9671C63.8675 57.1851 57.1823 63.8703 48.9642 63.8703C45.3406 63.8703 41.914 62.5854 39.2048 60.2318L60.229 39.2076C62.5826 41.9157 63.8675 45.3424 63.8675 48.9671Z" fill="#9A9A9A"/>
<path d="M27.6774 44.7087V40.7444C29.0389 40.3506 30.3515 39.8066 31.5948 39.12L34.3988 41.925L41.926 34.3978L39.121 31.5939C39.8086 30.3505 40.3515 29.039 40.7454 27.6764H44.7097V17.0313H40.7454C40.3515 15.6698 39.8076 14.3572 39.121 13.1139L41.926 10.3099L34.3988 2.78273L31.5948 5.58773C30.3515 4.90006 29.04 4.35715 27.6774 3.96328V-0.000976562H17.0323V3.96328C15.6707 4.35715 14.3582 4.90112 13.1148 5.58773L10.3109 2.78273L2.78371 10.3099L5.58871 13.1139C4.90103 14.3572 4.35813 15.6687 3.96426 17.0313H0V27.6764H3.96426C4.35813 29.038 4.9021 30.3505 5.58871 31.5939L2.78371 34.3978L10.3109 41.925L13.1148 39.12C14.3582 39.8077 15.6697 40.3506 17.0323 40.7444V44.7087H27.6774ZM13.497 36.8802L12.7816 36.4438L10.312 38.9145L5.79523 34.3978L8.26597 31.9281L7.82952 31.2128C6.90871 29.7054 6.23168 28.0735 5.81758 26.3628L5.62065 25.5474H2.12903V19.1603H5.62065L5.81758 18.3449C6.23168 16.6353 6.90765 15.0023 7.82952 13.495L8.26597 12.7796L5.79523 10.3099L10.312 5.79318L12.7816 8.26393L13.497 7.82747C15.0044 6.90667 16.6363 6.22964 18.3469 5.81554L19.1613 5.61967V2.12806H25.5484V5.61967L26.3638 5.8166C28.0734 6.2307 29.7064 6.90667 31.2137 7.82854L31.9291 8.26499L34.3988 5.79425L38.9155 10.311L36.4448 12.7807L36.8812 13.496C37.802 15.0034 38.4791 16.6353 38.8932 18.346L39.089 19.1603H42.5806V25.5474H39.089L38.8921 26.3628C38.478 28.0724 37.802 29.7054 36.8802 31.2128L36.4437 31.9281L38.9144 34.3978L34.3977 38.9145L31.928 36.4438L31.2127 36.8802C29.7053 37.8011 28.0734 38.4781 26.3627 38.8922L25.5484 39.0881V42.5797H19.1613V39.0881L18.3459 38.8911C16.6363 38.477 15.0044 37.8011 13.497 36.8802Z" fill="#9A9A9A"/>
<path d="M34.0655 22.3548C34.0655 15.8985 28.8121 10.6452 22.3558 10.6452C15.8995 10.6452 10.6461 15.8985 10.6461 22.3548C10.6461 28.8111 15.8995 34.0645 22.3558 34.0645C28.8121 34.0645 34.0655 28.8111 34.0655 22.3548ZM12.7752 22.3548C12.7752 17.0716 17.0726 12.7742 22.3558 12.7742C27.639 12.7742 31.9365 17.0716 31.9365 22.3548C31.9365 27.638 27.639 31.9355 22.3558 31.9355C17.0726 31.9355 12.7752 27.638 12.7752 22.3548Z" fill="#9A9A9A"/>
<path d="M32.2453 46.5269L33.7507 45.0214L31.622 42.8927L30.1166 44.3982L32.2453 46.5269Z" fill="#9A9A9A"/>
<path d="M42.8899 31.6248L45.0186 33.7535L46.5241 32.2481L44.3954 30.1194L42.8899 31.6248Z" fill="#9A9A9A"/>
</svg>
