<svg width="14" height="15" viewBox="0 0 14 15" fill="none" xmlns="http://www.w3.org/2000/svg">
<path d="M7.08393 10.105C7.57838 10.105 8.06173 9.95835 8.47285 9.68365C8.88397 9.40895 9.2044 9.0185 9.39362 8.56168C9.58284 8.10487 9.63235 7.6022 9.53589 7.11725C9.43942 6.6323 9.20132 6.18684 8.85169 5.83721C8.50206 5.48758 8.0566 5.24948 7.57165 5.15301C7.0867 5.05655 6.58403 5.10606 6.12722 5.29528C5.6704 5.4845 5.27996 5.80493 5.00525 6.21605C4.73055 6.62717 4.58393 7.11052 4.58393 7.60498C4.58393 8.26802 4.84732 8.9039 5.31616 9.37274C5.785 9.84158 6.42088 10.105 7.08393 10.105ZM7.08393 6.35498C7.33115 6.35498 7.57283 6.42829 7.77839 6.56564C7.98395 6.70299 8.14416 6.89821 8.23877 7.12662C8.33338 7.35503 8.35814 7.60636 8.30991 7.84884C8.26167 8.09131 8.14262 8.31404 7.96781 8.48886C7.79299 8.66367 7.57026 8.78273 7.32779 8.83096C7.08531 8.87919 6.83398 8.85443 6.60557 8.75982C6.37716 8.66522 6.18194 8.505 6.04459 8.29944C5.90724 8.09388 5.83393 7.8522 5.83393 7.60498C5.83393 7.27346 5.96562 6.95551 6.20004 6.72109C6.43446 6.48667 6.7524 6.35498 7.08393 6.35498ZM1.77143 8.1531L1.14643 8.51498C1.00422 8.597 0.879567 8.70624 0.779581 8.83644C0.679595 8.96665 0.606237 9.11528 0.563695 9.27383C0.521154 9.43239 0.510262 9.59778 0.531642 9.76055C0.553022 9.92332 0.606256 10.0803 0.688302 10.2225L1.61893 11.8337C1.7009 11.9761 1.81016 12.101 1.94044 12.2012C2.07072 12.3013 2.21947 12.3748 2.37818 12.4174C2.53689 12.46 2.70244 12.4709 2.86537 12.4495C3.02829 12.428 3.18539 12.3747 3.32768 12.2925L3.95893 11.9275C4.05526 11.8731 4.16424 11.8451 4.27485 11.8463C4.38546 11.8475 4.4938 11.8779 4.58893 11.9343C4.68287 11.9887 4.76089 12.0668 4.81518 12.1608C4.86947 12.2548 4.89813 12.3614 4.8983 12.47V13.23C4.8983 13.5615 5.03 13.8794 5.26442 14.1139C5.49884 14.3483 5.81678 14.48 6.1483 14.48H8.0233C8.35482 14.48 8.67276 14.3483 8.90718 14.1139C9.1416 13.8794 9.2733 13.5615 9.2733 13.23V12.4687C9.27497 12.3597 9.30489 12.2529 9.36014 12.1589C9.41539 12.0648 9.49409 11.9867 9.58854 11.9322C9.683 11.8777 9.78998 11.8486 9.89905 11.8477C10.0081 11.8469 10.1155 11.8744 10.2108 11.9275L10.8414 12.2912C11.1285 12.457 11.4697 12.5019 11.7899 12.4161C12.1101 12.3303 12.3832 12.1208 12.5489 11.8337L13.4789 10.2225C13.561 10.0803 13.6142 9.92332 13.6356 9.76055C13.657 9.59778 13.6461 9.43239 13.6035 9.27383C13.561 9.11528 13.4876 8.96665 13.3876 8.83644C13.2877 8.70624 13.163 8.597 13.0208 8.51498L12.3958 8.1531C12.2989 8.09664 12.2188 8.01531 12.1638 7.91751C12.1089 7.81971 12.0811 7.709 12.0833 7.59685C12.0835 7.48736 12.1125 7.37984 12.1673 7.28507C12.2222 7.1903 12.301 7.1116 12.3958 7.05685L13.0208 6.69498C13.163 6.61295 13.2877 6.50371 13.3876 6.37351C13.4876 6.2433 13.561 6.09468 13.6035 5.93612C13.6461 5.77756 13.657 5.61217 13.6356 5.4494C13.6142 5.28663 13.561 5.12967 13.4789 4.98748L12.5477 3.37623C12.4657 3.23397 12.3565 3.10926 12.2263 3.00921C12.0961 2.90916 11.9475 2.83574 11.789 2.79314C11.6304 2.75054 11.465 2.73959 11.3022 2.76093C11.1394 2.78226 10.9824 2.83546 10.8402 2.91748L10.2089 3.28185C10.1136 3.33516 10.0061 3.36278 9.89694 3.36201C9.78775 3.36124 9.68064 3.33211 9.58611 3.27747C9.49158 3.22283 9.41287 3.14456 9.3577 3.05033C9.30253 2.9561 9.2728 2.84916 9.27142 2.73998V1.97998C9.27142 1.64846 9.13973 1.33052 8.90531 1.0961C8.67089 0.861676 8.35295 0.72998 8.02142 0.72998H6.14643C5.81491 0.72998 5.49696 0.861676 5.26254 1.0961C5.02812 1.33052 4.89643 1.64846 4.89643 1.97998V2.78873C4.89641 2.88253 4.87167 2.97466 4.82471 3.05586C4.77775 3.13705 4.71022 3.20444 4.62893 3.25123L4.53268 3.30685C4.45133 3.3531 4.35937 3.37741 4.2658 3.37741C4.17223 3.37741 4.08027 3.3531 3.99893 3.30685L3.32768 2.91748C3.18549 2.83531 3.02851 2.78196 2.8657 2.76048C2.70289 2.739 2.53745 2.74982 2.37882 2.7923C2.22019 2.83479 2.07149 2.90812 1.94121 3.0081C1.81093 3.10807 1.70163 3.23274 1.61955 3.37498L0.689552 4.9881C0.523946 5.27507 0.479043 5.61604 0.564712 5.9361C0.650381 6.25616 0.859612 6.52911 1.14643 6.69498L1.77143 7.05623C1.86828 7.11293 1.94828 7.19441 2.0032 7.29228C2.05812 7.39016 2.08599 7.50089 2.08393 7.6131C2.08409 7.72267 2.05526 7.83034 2.00038 7.92517C1.9455 8.02001 1.86651 8.09865 1.77143 8.1531ZM2.39643 5.97373L1.77143 5.61248L2.70268 4.00123L3.37393 4.38873C3.64492 4.54446 3.952 4.62641 4.26455 4.62641C4.5771 4.62641 4.88419 4.54446 5.15518 4.38873L5.25143 4.33373C5.52282 4.17711 5.74833 3.95197 5.9054 3.68084C6.06247 3.4097 6.14558 3.10207 6.14643 2.78873V1.97998H8.02142V2.73998C8.02272 3.06862 8.11015 3.39119 8.27499 3.67551C8.43983 3.95982 8.67632 4.19596 8.96089 4.36038C9.24545 4.52479 9.56815 4.61174 9.89679 4.61255C10.2254 4.61335 10.5486 4.52799 10.8339 4.36498L11.4633 4.00123L12.3964 5.61248L11.7714 5.97373C11.4868 6.14038 11.2508 6.37859 11.0868 6.66471C10.9228 6.95082 10.8365 7.27487 10.8365 7.60466C10.8365 7.93445 10.9228 8.2585 11.0868 8.54462C11.2508 8.83073 11.4868 9.06895 11.7714 9.2356L12.3964 9.59747L11.4664 11.2087L10.8339 10.845C10.5486 10.682 10.2254 10.5966 9.89679 10.5974C9.56815 10.5982 9.24545 10.6852 8.96089 10.8496C8.67632 11.014 8.43983 11.2501 8.27499 11.5344C8.11015 11.8188 8.02272 12.1413 8.02142 12.47V13.23H6.14643V12.47C6.1455 12.1412 6.05831 11.8184 5.89356 11.5339C5.72881 11.2493 5.49227 11.013 5.20758 10.8485C4.92289 10.684 4.60002 10.5971 4.27122 10.5965C3.94243 10.5959 3.61923 10.6816 3.33393 10.845L2.70455 11.2087L1.77143 9.59747L2.39643 9.2356C2.68101 9.06895 2.91704 8.83073 3.08105 8.54462C3.24507 8.2585 3.33136 7.93445 3.33136 7.60466C3.33136 7.27487 3.24507 6.95082 3.08105 6.66471C2.91704 6.37859 2.68101 6.14038 2.39643 5.97373Z" fill="#7B7979"/>
</svg>
