<svg width="109" height="32" viewBox="0 0 109 32" fill="none" xmlns="http://www.w3.org/2000/svg">
<path d="M18.6242 26.3568L19.5575 26.3568L20.4738 26.3568L30.8278 26.3568L31.3106 26.3568L91.7666 26.3568L92.2817 26.3568L93.1724 26.3568L93.1724 27.0932L93.1724 26.364C93.3428 26.364 93.4872 26.3848 93.6542 26.3876C93.7933 26.3907 93.924 26.4021 94.0614 26.4084C98.8596 26.6012 101.782 28.2764 103.526 30.1236C103.825 30.4386 104.096 30.7564 104.33 31.0751L104.33 11.576L104.33 11.1076L104.33 9.56241C104.33 6.74877 103.354 4.56158 101.431 3.05752C98.7467 0.959235 94.9142 0.740044 93.6512 0.726987C93.3901 0.723931 93.2299 0.729766 93.2231 0.729766L93.2231 0.725599L93.1711 0.0032961L93.1711 0.725599L0.54349 0.725599L13.2558 12.3091L0.329468 26.3554L18.6242 26.3554L18.6242 26.3568Z" fill="url(#paint0_linear_660_3536)"/>
<path d="M26.2977 15.5656C26.2977 15.9887 26.1936 16.3533 25.9852 16.6593C25.7802 16.9653 25.4839 17.1997 25.0966 17.3624C24.7124 17.5252 24.2535 17.6066 23.7196 17.6066C23.4592 17.6066 23.2102 17.5919 22.9725 17.5626C22.7349 17.5333 22.5103 17.491 22.2987 17.4357C22.0904 17.3771 21.8999 17.3071 21.7274 17.2257V16.1222C22.0171 16.2491 22.341 16.3647 22.6991 16.4689C23.0572 16.5698 23.4218 16.6202 23.7928 16.6202C24.0956 16.6202 24.3462 16.5812 24.5448 16.5031C24.7466 16.4217 24.8964 16.3077 24.994 16.1613C25.0917 16.0115 25.1405 15.8374 25.1405 15.6388C25.1405 15.4272 25.0835 15.2482 24.9696 15.1017C24.8557 14.9552 24.6831 14.8217 24.452 14.7013C24.2242 14.5776 23.9377 14.4458 23.5927 14.3058C23.3583 14.2114 23.1337 14.104 22.9188 13.9835C22.7072 13.8631 22.5184 13.7215 22.3524 13.5587C22.1864 13.396 22.0546 13.2039 21.9569 12.9825C21.8625 12.7579 21.8153 12.4943 21.8153 12.1915C21.8153 11.7879 21.9113 11.4428 22.1034 11.1564C22.2987 10.8699 22.5721 10.6502 22.9237 10.4972C23.2785 10.3442 23.6919 10.2677 24.1639 10.2677C24.5383 10.2677 24.8899 10.3068 25.2186 10.3849C25.5507 10.463 25.8762 10.5737 26.1952 10.7169L25.8241 11.6593C25.5311 11.5389 25.2463 11.4428 24.9696 11.3712C24.6962 11.2996 24.4162 11.2638 24.1298 11.2638C23.8824 11.2638 23.6724 11.3012 23.4999 11.3761C23.3274 11.451 23.1955 11.5568 23.1044 11.6935C23.0165 11.8269 22.9725 11.9864 22.9725 12.172C22.9725 12.3803 23.023 12.5561 23.1239 12.6993C23.2281 12.8393 23.3876 12.9679 23.6024 13.0851C23.8205 13.2023 24.1005 13.3325 24.4423 13.4757C24.8361 13.6385 25.1698 13.8094 25.4432 13.9884C25.7199 14.1674 25.9315 14.3823 26.078 14.6329C26.2245 14.8803 26.2977 15.1912 26.2977 15.5656ZM28.705 12.1036L28.705 17.5089L27.5575 17.5089L27.5575 12.1036L28.705 12.1036ZM28.1386 10.0333C28.3143 10.0333 28.4657 10.0805 28.5927 10.1749C28.7229 10.2693 28.788 10.4321 28.788 10.6632C28.788 10.8911 28.7229 11.0538 28.5927 11.1515C28.4657 11.2459 28.3143 11.2931 28.1386 11.2931C27.9563 11.2931 27.8016 11.2459 27.6747 11.1515C27.551 11.0538 27.4891 10.8911 27.4891 10.6632C27.4891 10.4321 27.551 10.2693 27.6747 10.1749C27.8016 10.0805 27.9563 10.0333 28.1386 10.0333ZM36.4589 12.0011C37.0643 12.0011 37.5201 12.1573 37.8261 12.4698C38.1353 12.7823 38.2899 13.2837 38.2899 13.9738V17.5089H37.1425V14.1788C37.1425 13.7687 37.0627 13.4594 36.9032 13.2511C36.7437 13.0428 36.5012 12.9386 36.1757 12.9386C35.7199 12.9386 35.3912 13.0851 35.1893 13.3781C34.9908 13.6678 34.8915 14.0893 34.8915 14.6427V17.5089H33.744V14.1788C33.744 13.9054 33.7082 13.6775 33.6366 13.4952C33.5682 13.3097 33.4624 13.1713 33.3192 13.0802C33.176 12.9858 32.9953 12.9386 32.7772 12.9386C32.4615 12.9386 32.2092 13.0102 32.0204 13.1534C31.8348 13.2967 31.7014 13.5083 31.62 13.7882C31.5386 14.0649 31.4979 14.4051 31.4979 14.8087L31.4979 17.5089H30.3505L30.3505 12.1036H31.244L31.4052 12.8312H31.4686C31.5793 12.6424 31.716 12.4878 31.8788 12.3673C32.0448 12.2436 32.2287 12.1525 32.4305 12.0939C32.6324 12.032 32.8423 12.0011 33.0604 12.0011C33.4641 12.0011 33.8042 12.0727 34.0809 12.2159C34.3576 12.3559 34.5643 12.5708 34.7011 12.8605H34.7889C34.9582 12.5675 35.1942 12.351 35.497 12.2111C35.7997 12.0711 36.1203 12.0011 36.4589 12.0011ZM42.6649 12.0011C43.3062 12.0011 43.8205 12.2355 44.2079 12.7042C44.5985 13.173 44.7938 13.8696 44.7938 14.7941C44.7938 15.406 44.7027 15.922 44.5204 16.3419C44.3414 16.7586 44.0891 17.0743 43.7636 17.2892C43.4413 17.5008 43.0653 17.6066 42.6356 17.6066C42.3622 17.6066 42.1246 17.5708 41.9227 17.4991C41.7209 17.4275 41.5484 17.3348 41.4052 17.2208C41.2619 17.1036 41.1415 16.9767 41.0438 16.84H40.9755C40.9917 16.9702 41.0064 17.115 41.0194 17.2745C41.0357 17.4308 41.0438 17.574 41.0438 17.7042V19.9064H39.8915V12.1036H40.829L40.9901 12.8507H41.0438C41.1447 12.6977 41.2668 12.5561 41.41 12.4259C41.5565 12.2957 41.7323 12.1932 41.9374 12.1183C42.1457 12.0402 42.3882 12.0011 42.6649 12.0011ZM42.3573 12.9386C42.0415 12.9386 41.7876 13.0021 41.5956 13.129C41.4068 13.2527 41.2684 13.4399 41.1805 13.6906C41.0959 13.9412 41.0503 14.2553 41.0438 14.6329V14.7941C41.0438 15.1945 41.0845 15.5346 41.1659 15.8146C41.2505 16.0913 41.3889 16.3029 41.5809 16.4493C41.7762 16.5926 42.0399 16.6642 42.3719 16.6642C42.6519 16.6642 42.883 16.5877 43.0653 16.4347C43.2509 16.2817 43.3892 16.0636 43.4803 15.7804C43.5715 15.4972 43.6171 15.1635 43.6171 14.7794C43.6171 14.1967 43.5129 13.7443 43.3046 13.422C43.0995 13.0997 42.7837 12.9386 42.3573 12.9386ZM47.2743 17.5089H46.1219V9.91125H47.2743V17.5089ZM51.0682 12.0011C51.55 12.0011 51.9634 12.1004 52.3085 12.2989C52.6535 12.4975 52.9188 12.7791 53.1044 13.1437C53.2899 13.5083 53.3827 13.9445 53.3827 14.4523V15.0675H49.7743C49.7873 15.5916 49.9273 15.9952 50.1942 16.2784C50.4644 16.5616 50.842 16.7032 51.327 16.7032C51.6721 16.7032 51.9813 16.6707 52.2548 16.6056C52.5315 16.5372 52.8163 16.4379 53.1093 16.3077V17.2404C52.8391 17.3673 52.564 17.4601 52.2841 17.5187C52.0041 17.5773 51.6688 17.6066 51.2782 17.6066C50.7476 17.6066 50.2805 17.504 49.8768 17.2989C49.4764 17.0906 49.1623 16.7814 48.9344 16.3712C48.7098 15.9611 48.5975 15.4516 48.5975 14.8429C48.5975 14.2374 48.7001 13.7231 48.9052 13.2999C49.1102 12.8767 49.3983 12.5545 49.7694 12.3331C50.1405 12.1118 50.5734 12.0011 51.0682 12.0011ZM51.0682 12.8654C50.7069 12.8654 50.4139 12.9825 50.1893 13.2169C49.968 13.4513 49.8378 13.7947 49.7987 14.2472H52.2596C52.2564 13.977 52.2108 13.7378 52.1229 13.5294C52.0383 13.3211 51.9081 13.1583 51.7323 13.0411C51.5598 12.9239 51.3384 12.8654 51.0682 12.8654ZM59.4667 10.3702C60.3879 10.3702 61.0601 10.559 61.4833 10.9366C61.9065 11.3142 62.118 11.8432 62.118 12.5236C62.118 12.8328 62.0692 13.1274 61.9716 13.4073C61.8772 13.684 61.7209 13.9298 61.5028 14.1447C61.2847 14.3562 60.9966 14.5239 60.6386 14.6476C60.2837 14.7713 59.8459 14.8331 59.3251 14.8331H58.5634V17.5089H57.3915V10.3702H59.4667ZM59.3886 11.3419H58.5634V13.8566H59.203C59.5708 13.8566 59.8833 13.8142 60.1405 13.7296C60.3977 13.6417 60.593 13.5034 60.7264 13.3146C60.8599 13.1258 60.9266 12.8767 60.9266 12.5675C60.9266 12.1541 60.8013 11.8465 60.5507 11.6447C60.3033 11.4428 59.9159 11.3419 59.3886 11.3419ZM66.1659 12.0011C66.257 12.0011 66.3563 12.006 66.4637 12.0157C66.5712 12.0255 66.6639 12.0385 66.7421 12.0548L66.6346 13.129C66.5663 13.1095 66.4816 13.0948 66.3807 13.0851C66.2831 13.0753 66.1952 13.0704 66.1171 13.0704C65.912 13.0704 65.7167 13.1046 65.5311 13.173C65.3456 13.2381 65.1812 13.339 65.038 13.4757C64.8947 13.6092 64.7824 13.7768 64.7011 13.9786C64.6197 14.1805 64.579 14.4148 64.579 14.6818V17.5089H63.4266V12.1036H64.3251L64.4813 13.0558H64.535C64.6425 12.8637 64.7759 12.6879 64.9354 12.5284C65.0949 12.3689 65.2772 12.242 65.4823 12.1476C65.6906 12.0499 65.9185 12.0011 66.1659 12.0011ZM72.5282 14.7941C72.5282 15.2433 72.4696 15.642 72.3524 15.9904C72.2352 16.3387 72.0643 16.6333 71.8397 16.8741C71.6151 17.1118 71.3449 17.2941 71.0292 17.421C70.7134 17.5447 70.357 17.6066 69.9598 17.6066C69.5887 17.6066 69.2486 17.5447 68.9393 17.421C68.6301 17.2941 68.3615 17.1118 68.1337 16.8741C67.9091 16.6333 67.7349 16.3387 67.6112 15.9904C67.4875 15.642 67.4257 15.2433 67.4257 14.7941C67.4257 14.1984 67.5282 13.6938 67.7333 13.2804C67.9416 12.8637 68.2378 12.5463 68.6219 12.3282C69.0061 12.1101 69.4634 12.0011 69.994 12.0011C70.4921 12.0011 70.9315 12.1101 71.3124 12.3282C71.6932 12.5463 71.9911 12.8637 72.2059 13.2804C72.4208 13.6971 72.5282 14.2016 72.5282 14.7941ZM68.6073 14.7941C68.6073 15.1879 68.6545 15.5249 68.7489 15.8048C68.8466 16.0848 68.9963 16.2996 69.1981 16.4493C69.3999 16.5958 69.6604 16.6691 69.9794 16.6691C70.2984 16.6691 70.5588 16.5958 70.7606 16.4493C70.9624 16.2996 71.1106 16.0848 71.205 15.8048C71.2994 15.5249 71.3466 15.1879 71.3466 14.7941C71.3466 14.4002 71.2994 14.0665 71.205 13.7931C71.1106 13.5164 70.9624 13.3064 70.7606 13.1632C70.5588 13.0167 70.2968 12.9435 69.9745 12.9435C69.4992 12.9435 69.1525 13.103 68.9344 13.422C68.7163 13.741 68.6073 14.1984 68.6073 14.7941ZM75.663 17.6066C75.0184 17.6066 74.5009 17.3722 74.1102 16.9034C73.7229 16.4314 73.5292 15.7364 73.5292 14.8185C73.5292 13.8907 73.7261 13.1892 74.12 12.714C74.5171 12.2387 75.0396 12.0011 75.6874 12.0011C75.9608 12.0011 76.2001 12.0385 76.4051 12.1134C76.6102 12.185 76.786 12.2827 76.9325 12.4064C77.0822 12.5301 77.2092 12.6684 77.3134 12.8214H77.3671C77.3508 12.7205 77.3313 12.5756 77.3085 12.3868C77.2889 12.1948 77.2792 12.0174 77.2792 11.8546V9.91125H78.4315V17.5089H77.5331L77.328 16.7716H77.2792C77.1815 16.9279 77.0578 17.0695 76.9081 17.1964C76.7616 17.3201 76.5858 17.4194 76.3807 17.4943C76.1789 17.5691 75.9397 17.6066 75.663 17.6066ZM75.9852 16.6739C76.4768 16.6739 76.8234 16.5323 77.0253 16.2491C77.2271 15.9659 77.3313 15.5411 77.3378 14.9747V14.8234C77.3378 14.2179 77.2401 13.754 77.0448 13.4318C76.8495 13.1062 76.493 12.9435 75.9755 12.9435C75.562 12.9435 75.2463 13.1111 75.0282 13.4464C74.8134 13.7784 74.7059 14.2423 74.7059 14.838C74.7059 15.4337 74.8134 15.8894 75.0282 16.2052C75.2463 16.5177 75.5653 16.6739 75.9852 16.6739ZM84.7889 12.1036V17.5089H83.8856L83.7294 16.7814H83.6659C83.552 16.9669 83.4071 17.1215 83.2313 17.2452C83.0555 17.3657 82.8602 17.4552 82.6454 17.5138C82.4305 17.5756 82.2043 17.6066 81.9667 17.6066C81.5598 17.6066 81.2115 17.5382 80.9217 17.4015C80.6353 17.2615 80.4156 17.0467 80.2626 16.757C80.1096 16.4672 80.0331 16.0929 80.0331 15.6339V12.1036H81.1854V15.4191C81.1854 15.839 81.2701 16.1531 81.4393 16.3614C81.6119 16.5698 81.8788 16.6739 82.2401 16.6739C82.5884 16.6739 82.8651 16.6023 83.0702 16.4591C83.2753 16.3159 83.4201 16.1043 83.5048 15.8243C83.5926 15.5444 83.6366 15.201 83.6366 14.7941V12.1036H84.7889ZM88.6122 17.6066C88.1011 17.6066 87.6584 17.5073 87.2841 17.3087C86.9097 17.1101 86.6216 16.8058 86.4198 16.3956C86.218 15.9855 86.1171 15.4646 86.1171 14.8331C86.1171 14.1756 86.2277 13.6385 86.4491 13.2218C86.6704 12.8051 86.9764 12.4975 87.3671 12.2989C87.7609 12.1004 88.2118 12.0011 88.7196 12.0011C89.0419 12.0011 89.3332 12.0337 89.5936 12.0988C89.8573 12.1606 90.0803 12.2371 90.2626 12.3282L89.9208 13.2462C89.7222 13.1648 89.5188 13.0965 89.3104 13.0411C89.1021 12.9858 88.9019 12.9581 88.7098 12.9581C88.3941 12.9581 88.1304 13.0281 87.9188 13.1681C87.7105 13.3081 87.5542 13.5164 87.4501 13.7931C87.3492 14.0698 87.2987 14.4132 87.2987 14.8234C87.2987 15.2205 87.3508 15.5558 87.455 15.8292C87.5591 16.0994 87.7137 16.3045 87.9188 16.4445C88.1239 16.5812 88.3762 16.6495 88.6757 16.6495C88.9719 16.6495 89.2372 16.6137 89.4716 16.5421C89.7059 16.4705 89.9273 16.3777 90.1356 16.2638V17.2599C89.9305 17.3771 89.7108 17.4633 89.4764 17.5187C89.2421 17.5773 88.954 17.6066 88.6122 17.6066ZM93.4169 16.6788C93.5666 16.6788 93.7147 16.6658 93.8612 16.6398C94.0077 16.6105 94.1411 16.5763 94.2616 16.5372V17.4064C94.1346 17.4617 93.9703 17.5089 93.7684 17.548C93.5666 17.587 93.3566 17.6066 93.1385 17.6066C92.8326 17.6066 92.5575 17.5561 92.3133 17.4552C92.0692 17.351 91.8755 17.1736 91.7323 16.923C91.5891 16.6723 91.5175 16.3256 91.5175 15.8829V12.9777H90.7801V12.465L91.5712 12.0597L91.9471 10.9025H92.6698V12.1036H94.2176V12.9777H92.6698V15.8683C92.6698 16.1417 92.7382 16.3452 92.8749 16.4786C93.0116 16.6121 93.1923 16.6788 93.4169 16.6788Z" fill="white"/>
<defs>
<linearGradient id="paint0_linear_660_3536" x1="12.5105" y1="12.8979" x2="94.2864" y2="30.8798" gradientUnits="userSpaceOnUse">
<stop stop-color="#AC2A2C"/>
<stop offset="0.5" stop-color="#BC2D2F"/>
<stop offset="1" stop-color="#A92729"/>
</linearGradient>
</defs>
</svg>
