<svg width="109" height="33" viewBox="0 0 109 33" fill="none" xmlns="http://www.w3.org/2000/svg">
<path d="M18.3827 27.3127L19.3161 27.3127L20.2323 27.3127L30.5863 27.3127L31.0691 27.3127L91.5252 27.3127L92.0403 27.3127L92.931 27.3127L92.931 28.0492L92.931 27.3199C93.1013 27.3199 93.2458 27.3408 93.4128 27.3435C93.5519 27.3466 93.6826 27.358 93.82 27.3644C98.6182 27.5572 101.541 29.2324 103.284 31.0795C103.584 31.3945 103.855 31.7124 104.088 32.031L104.088 12.5319L104.088 12.0635L104.088 10.5183C104.088 7.7047 103.112 5.51751 101.19 4.01346C98.5053 1.91517 94.6727 1.69598 93.4097 1.68292C93.1487 1.67986 92.9884 1.6857 92.9817 1.6857L92.9817 1.68153L92.9296 0.959229L92.9296 1.68153L0.302035 1.68153L13.0143 13.265L0.0880126 27.3113L18.3827 27.3113L18.3827 27.3127Z" fill="url(#paint0_linear_642_3021)"/>
<path d="M26.0563 16.5215C26.0563 16.9447 25.9521 17.3092 25.7438 17.6152C25.5387 17.9212 25.2425 18.1556 24.8551 18.3184C24.471 18.4811 24.012 18.5625 23.4782 18.5625C23.2177 18.5625 22.9687 18.5479 22.7311 18.5186C22.4935 18.4893 22.2688 18.4469 22.0573 18.3916C21.8489 18.333 21.6585 18.263 21.486 18.1816V17.0781C21.7757 17.2051 22.0996 17.3206 22.4576 17.4248C22.8157 17.5257 23.1803 17.5762 23.5514 17.5762C23.8541 17.5762 24.1048 17.5371 24.3033 17.459C24.5052 17.3776 24.6549 17.2637 24.7526 17.1172C24.8502 16.9674 24.8991 16.7933 24.8991 16.5947C24.8991 16.3831 24.8421 16.2041 24.7282 16.0576C24.6142 15.9111 24.4417 15.7777 24.2106 15.6572C23.9827 15.5335 23.6963 15.4017 23.3512 15.2617C23.1168 15.1673 22.8922 15.0599 22.6774 14.9395C22.4658 14.819 22.277 14.6774 22.111 14.5146C21.9449 14.3519 21.8131 14.1598 21.7155 13.9385C21.6211 13.7139 21.5739 13.4502 21.5739 13.1475C21.5739 12.7438 21.6699 12.3988 21.8619 12.1123C22.0573 11.8258 22.3307 11.6061 22.6823 11.4531C23.0371 11.3001 23.4505 11.2236 23.9225 11.2236C24.2968 11.2236 24.6484 11.2627 24.9772 11.3408C25.3092 11.4189 25.6347 11.5296 25.9537 11.6729L25.5826 12.6152C25.2897 12.4948 25.0048 12.3988 24.7282 12.3271C24.4547 12.2555 24.1748 12.2197 23.8883 12.2197C23.6409 12.2197 23.431 12.2572 23.2584 12.332C23.0859 12.4069 22.9541 12.5127 22.8629 12.6494C22.775 12.7829 22.7311 12.9424 22.7311 13.1279C22.7311 13.3363 22.7815 13.512 22.8824 13.6553C22.9866 13.7952 23.1461 13.9238 23.361 14.041C23.5791 14.1582 23.859 14.2884 24.2008 14.4316C24.5947 14.5944 24.9283 14.7653 25.2018 14.9443C25.4785 15.1234 25.6901 15.3382 25.8366 15.5889C25.983 15.8363 26.0563 16.1471 26.0563 16.5215ZM28.4635 13.0596L28.4635 18.4648L27.316 18.4648L27.316 13.0596L28.4635 13.0596ZM27.8971 10.9893C28.0729 10.9893 28.2242 11.0365 28.3512 11.1309C28.4814 11.2253 28.5465 11.388 28.5465 11.6191C28.5465 11.847 28.4814 12.0098 28.3512 12.1074C28.2242 12.2018 28.0729 12.249 27.8971 12.249C27.7148 12.249 27.5602 12.2018 27.4332 12.1074C27.3095 12.0098 27.2477 11.847 27.2477 11.6191C27.2477 11.388 27.3095 11.2253 27.4332 11.1309C27.5602 11.0365 27.7148 10.9893 27.8971 10.9893ZM36.2174 12.957C36.8229 12.957 37.2786 13.1133 37.5846 13.4258C37.8938 13.7383 38.0485 14.2396 38.0485 14.9297V18.4648H36.901V15.1348C36.901 14.7246 36.8213 14.4154 36.6617 14.207C36.5022 13.9987 36.2597 13.8945 35.9342 13.8945C35.4785 13.8945 35.1497 14.041 34.9479 14.334C34.7493 14.6237 34.65 15.0452 34.65 15.5986V18.4648H33.5026V15.1348C33.5026 14.8613 33.4668 14.6335 33.3951 14.4512C33.3268 14.2656 33.221 14.1273 33.0778 14.0361C32.9345 13.9417 32.7539 13.8945 32.5358 13.8945C32.22 13.8945 31.9677 13.9661 31.7789 14.1094C31.5934 14.2526 31.4599 14.4642 31.3785 14.7441C31.2972 15.0208 31.2565 15.361 31.2565 15.7646L31.2565 18.4648H30.109L30.109 13.0596H31.0026L31.1637 13.7871H31.2272C31.3379 13.5983 31.4746 13.4437 31.6373 13.3232C31.8033 13.1995 31.9873 13.1084 32.1891 13.0498C32.3909 12.988 32.6009 12.957 32.819 12.957C33.2226 12.957 33.5628 13.0286 33.8395 13.1719C34.1162 13.3118 34.3229 13.5267 34.4596 13.8164H34.5475C34.7168 13.5234 34.9528 13.307 35.2555 13.167C35.5582 13.027 35.8789 12.957 36.2174 12.957ZM42.4235 12.957C43.0647 12.957 43.5791 13.1914 43.9664 13.6602C44.3571 14.1289 44.5524 14.8255 44.5524 15.75C44.5524 16.362 44.4612 16.8779 44.2789 17.2979C44.0999 17.7145 43.8476 18.0303 43.5221 18.2451C43.1998 18.4567 42.8239 18.5625 42.3942 18.5625C42.1207 18.5625 41.8831 18.5267 41.6813 18.4551C41.4795 18.3835 41.3069 18.2907 41.1637 18.1768C41.0205 18.0596 40.9 17.9326 40.8024 17.7959H40.734C40.7503 17.9261 40.7649 18.071 40.778 18.2305C40.7942 18.3867 40.8024 18.5299 40.8024 18.6602V20.8623H39.65V13.0596H40.5875L40.7487 13.8066H40.8024C40.9033 13.6536 41.0254 13.512 41.1686 13.3818C41.3151 13.2516 41.4908 13.1491 41.6959 13.0742C41.9043 12.9961 42.1468 12.957 42.4235 12.957ZM42.1158 13.8945C41.8001 13.8945 41.5462 13.958 41.3541 14.085C41.1653 14.2087 41.027 14.3958 40.9391 14.6465C40.8545 14.8971 40.8089 15.2113 40.8024 15.5889V15.75C40.8024 16.1504 40.8431 16.4906 40.9244 16.7705C41.0091 17.0472 41.1474 17.2588 41.3395 17.4053C41.5348 17.5485 41.7985 17.6201 42.1305 17.6201C42.4104 17.6201 42.6416 17.5436 42.8239 17.3906C43.0094 17.2376 43.1477 17.0195 43.2389 16.7363C43.33 16.4531 43.3756 16.1195 43.3756 15.7354C43.3756 15.1527 43.2714 14.7002 43.0631 14.3779C42.858 14.0557 42.5423 13.8945 42.1158 13.8945ZM47.0328 18.4648H45.8805V10.8672H47.0328V18.4648ZM50.8268 12.957C51.3086 12.957 51.722 13.0563 52.067 13.2549C52.4121 13.4534 52.6774 13.735 52.8629 14.0996C53.0485 14.4642 53.1412 14.9004 53.1412 15.4082V16.0234H49.5328C49.5459 16.5475 49.6858 16.9512 49.9528 17.2344C50.2229 17.5176 50.6005 17.6592 51.0856 17.6592C51.4306 17.6592 51.7399 17.6266 52.0133 17.5615C52.29 17.4932 52.5748 17.3939 52.8678 17.2637V18.1963C52.5976 18.3232 52.3226 18.416 52.0426 18.4746C51.7627 18.5332 51.4274 18.5625 51.0367 18.5625C50.5061 18.5625 50.039 18.46 49.6354 18.2549C49.235 18.0465 48.9209 17.7373 48.693 17.3271C48.4684 16.917 48.3561 16.4076 48.3561 15.7988C48.3561 15.1934 48.4586 14.679 48.6637 14.2559C48.8688 13.8327 49.1569 13.5104 49.528 13.2891C49.899 13.0677 50.332 12.957 50.8268 12.957ZM50.8268 13.8213C50.4655 13.8213 50.1725 13.9385 49.9479 14.1729C49.7265 14.4072 49.5963 14.7507 49.5573 15.2031H52.0182C52.0149 14.9329 51.9694 14.6937 51.8815 14.4854C51.7968 14.277 51.6666 14.1143 51.4908 13.9971C51.3183 13.8799 51.097 13.8213 50.8268 13.8213ZM59.2252 11.3262C60.1464 11.3262 60.8186 11.515 61.2418 11.8926C61.665 12.2702 61.8766 12.7992 61.8766 13.4795C61.8766 13.7887 61.8278 14.0833 61.7301 14.3633C61.6357 14.64 61.4795 14.8857 61.2614 15.1006C61.0433 15.3122 60.7552 15.4798 60.3971 15.6035C60.0423 15.7272 59.6045 15.7891 59.0836 15.7891H58.3219V18.4648H57.15V11.3262H59.2252ZM59.1471 12.2979H58.3219V14.8125H58.9615C59.3294 14.8125 59.6419 14.7702 59.899 14.6855C60.1562 14.5977 60.3515 14.4593 60.485 14.2705C60.6184 14.0817 60.6852 13.8327 60.6852 13.5234C60.6852 13.11 60.5599 12.8024 60.3092 12.6006C60.0618 12.3988 59.6744 12.2979 59.1471 12.2979ZM65.9244 12.957C66.0156 12.957 66.1149 12.9619 66.2223 12.9717C66.3297 12.9814 66.4225 12.9945 66.5006 13.0107L66.3932 14.085C66.3248 14.0654 66.2402 14.0508 66.1393 14.041C66.0416 14.0312 65.9537 14.0264 65.8756 14.0264C65.6705 14.0264 65.4752 14.0605 65.2897 14.1289C65.1041 14.194 64.9397 14.2949 64.7965 14.4316C64.6533 14.5651 64.541 14.7327 64.4596 14.9346C64.3782 15.1364 64.3375 15.3708 64.3375 15.6377V18.4648H63.1852V13.0596H64.0836L64.2399 14.0117H64.2936C64.401 13.8197 64.5345 13.6439 64.694 13.4844C64.8535 13.3249 65.0358 13.1979 65.2408 13.1035C65.4492 13.0059 65.677 12.957 65.9244 12.957ZM72.2867 15.75C72.2867 16.1992 72.2281 16.598 72.111 16.9463C71.9938 17.2946 71.8229 17.5892 71.5983 17.8301C71.3737 18.0677 71.1035 18.25 70.7877 18.377C70.472 18.5007 70.1155 18.5625 69.7184 18.5625C69.3473 18.5625 69.0071 18.5007 68.6979 18.377C68.3886 18.25 68.1201 18.0677 67.8922 17.8301C67.6676 17.5892 67.4934 17.2946 67.3698 16.9463C67.2461 16.598 67.1842 16.1992 67.1842 15.75C67.1842 15.1543 67.2867 14.6497 67.4918 14.2363C67.7002 13.8197 67.9964 13.5023 68.3805 13.2842C68.7646 13.0661 69.222 12.957 69.7526 12.957C70.2506 12.957 70.6901 13.0661 71.0709 13.2842C71.4518 13.5023 71.7496 13.8197 71.9645 14.2363C72.1793 14.653 72.2867 15.1576 72.2867 15.75ZM68.3658 15.75C68.3658 16.1439 68.413 16.4808 68.5074 16.7607C68.6051 17.0407 68.7548 17.2555 68.9567 17.4053C69.1585 17.5518 69.4189 17.625 69.7379 17.625C70.0569 17.625 70.3173 17.5518 70.5192 17.4053C70.721 17.2555 70.8691 17.0407 70.9635 16.7607C71.0579 16.4808 71.1051 16.1439 71.1051 15.75C71.1051 15.3561 71.0579 15.0225 70.9635 14.749C70.8691 14.4723 70.721 14.2624 70.5192 14.1191C70.3173 13.9727 70.0553 13.8994 69.733 13.8994C69.2578 13.8994 68.9111 14.0589 68.693 14.3779C68.4749 14.6969 68.3658 15.1543 68.3658 15.75ZM75.4215 18.5625C74.777 18.5625 74.2594 18.3281 73.8688 17.8594C73.4814 17.3874 73.2877 16.6924 73.2877 15.7744C73.2877 14.8467 73.4847 14.1452 73.8785 13.6699C74.2757 13.1947 74.7981 12.957 75.4459 12.957C75.7194 12.957 75.9586 12.9945 76.1637 13.0693C76.3688 13.1409 76.5446 13.2386 76.691 13.3623C76.8408 13.486 76.9677 13.6243 77.0719 13.7773H77.1256C77.1093 13.6764 77.0898 13.5316 77.067 13.3428C77.0475 13.1507 77.0377 12.9733 77.0377 12.8105V10.8672H78.1901V18.4648H77.2916L77.0865 17.7275H77.0377C76.9401 17.8838 76.8164 18.0254 76.6666 18.1523C76.5201 18.276 76.3444 18.3753 76.1393 18.4502C75.9375 18.5251 75.6982 18.5625 75.4215 18.5625ZM75.7438 17.6299C76.2353 17.6299 76.582 17.4883 76.7838 17.2051C76.9856 16.9219 77.0898 16.4971 77.0963 15.9307V15.7793C77.0963 15.1738 76.9987 14.71 76.8033 14.3877C76.608 14.0622 76.2516 13.8994 75.734 13.8994C75.3206 13.8994 75.0048 14.0671 74.7867 14.4023C74.5719 14.7344 74.4645 15.1982 74.4645 15.7939C74.4645 16.3896 74.5719 16.8454 74.7867 17.1611C75.0048 17.4736 75.3238 17.6299 75.7438 17.6299ZM84.5475 13.0596V18.4648H83.6442L83.4879 17.7373H83.4244C83.3105 17.9229 83.1656 18.0775 82.9899 18.2012C82.8141 18.3216 82.6188 18.4111 82.4039 18.4697C82.1891 18.5316 81.9628 18.5625 81.7252 18.5625C81.3183 18.5625 80.97 18.4941 80.6803 18.3574C80.3938 18.2174 80.1741 18.0026 80.0211 17.7129C79.8681 17.4232 79.7916 17.0488 79.7916 16.5898V13.0596H80.944V16.375C80.944 16.7949 81.0286 17.109 81.1979 17.3174C81.3704 17.5257 81.6373 17.6299 81.9987 17.6299C82.347 17.6299 82.6237 17.5583 82.8287 17.415C83.0338 17.2718 83.1787 17.0602 83.2633 16.7803C83.3512 16.5003 83.3951 16.1569 83.3951 15.75V13.0596H84.5475ZM88.3707 18.5625C87.8597 18.5625 87.4169 18.4632 87.0426 18.2646C86.6682 18.0661 86.3802 17.7617 86.1783 17.3516C85.9765 16.9414 85.8756 16.4206 85.8756 15.7891C85.8756 15.1315 85.9863 14.5944 86.2076 14.1777C86.429 13.7611 86.735 13.4534 87.1256 13.2549C87.5195 13.0563 87.9703 12.957 88.4781 12.957C88.8004 12.957 89.0918 12.9896 89.3522 13.0547C89.6158 13.1165 89.8388 13.193 90.0211 13.2842L89.6793 14.2021C89.4807 14.1208 89.2773 14.0524 89.069 13.9971C88.8606 13.9417 88.6604 13.9141 88.4684 13.9141C88.1526 13.9141 87.889 13.984 87.6774 14.124C87.469 14.264 87.3128 14.4723 87.2086 14.749C87.1077 15.0257 87.0572 15.3691 87.0572 15.7793C87.0572 16.1764 87.1093 16.5117 87.2135 16.7852C87.3177 17.0553 87.4723 17.2604 87.6774 17.4004C87.8824 17.5371 88.1347 17.6055 88.4342 17.6055C88.7304 17.6055 88.9957 17.5697 89.2301 17.498C89.4645 17.4264 89.6858 17.3337 89.8942 17.2197V18.2158C89.6891 18.333 89.4694 18.4193 89.235 18.4746C89.0006 18.5332 88.7125 18.5625 88.3707 18.5625ZM93.1754 17.6348C93.3251 17.6348 93.4733 17.6217 93.6197 17.5957C93.7662 17.5664 93.8997 17.5322 94.0201 17.4932V18.3623C93.8932 18.4176 93.7288 18.4648 93.527 18.5039C93.3251 18.543 93.1152 18.5625 92.8971 18.5625C92.5911 18.5625 92.316 18.512 92.0719 18.4111C91.8278 18.307 91.6341 18.1296 91.4908 17.8789C91.3476 17.6283 91.276 17.2816 91.276 16.8389V13.9336H90.5387V13.4209L91.3297 13.0156L91.7057 11.8584H92.4283V13.0596H93.9762V13.9336H92.4283V16.8242C92.4283 17.0977 92.4967 17.3011 92.6334 17.4346C92.7701 17.568 92.9508 17.6348 93.1754 17.6348Z" fill="white"/>
<defs>
<linearGradient id="paint0_linear_642_3021" x1="12.269" y1="13.8538" x2="94.045" y2="31.8358" gradientUnits="userSpaceOnUse">
<stop stop-color="#AC2A2C"/>
<stop offset="0.5" stop-color="#BC2D2F"/>
<stop offset="1" stop-color="#A92729"/>
</linearGradient>
</defs>
</svg>
