<svg width="109" height="32" viewBox="0 0 109 32" fill="none" xmlns="http://www.w3.org/2000/svg">
<path d="M18.5819 26.3568L19.5153 26.3568L20.4315 26.3568L30.7856 26.3568L31.2684 26.3568L91.7244 26.3568L92.2395 26.3568L93.1302 26.3568L93.1302 27.0932L93.1302 26.364C93.3005 26.364 93.445 26.3848 93.612 26.3876C93.7511 26.3907 93.8818 26.4021 94.0192 26.4084C98.8174 26.6012 101.74 28.2764 103.484 30.1236C103.783 30.4386 104.054 30.7564 104.288 31.0751L104.288 11.576L104.288 11.1076L104.288 9.56241C104.288 6.74877 103.312 4.56158 101.389 3.05752C98.7045 0.959235 94.8719 0.740044 93.609 0.726987C93.3479 0.723931 93.1876 0.729766 93.1809 0.729766L93.1809 0.725599L93.1288 0.0032961L93.1288 0.725599L0.501254 0.725599L13.2136 12.3091L0.287231 26.3554L18.5819 26.3554L18.5819 26.3568Z" fill="url(#paint0_linear_660_3661)"/>
<path d="M26.2555 15.5656C26.2555 15.9887 26.1513 16.3533 25.943 16.6593C25.7379 16.9653 25.4417 17.1997 25.0543 17.3624C24.6702 17.5252 24.2112 17.6066 23.6774 17.6066C23.417 17.6066 23.1679 17.5919 22.9303 17.5626C22.6927 17.5333 22.4681 17.491 22.2565 17.4357C22.0481 17.3771 21.8577 17.3071 21.6852 17.2257V16.1222C21.9749 16.2491 22.2988 16.3647 22.6569 16.4689C23.0149 16.5698 23.3795 16.6202 23.7506 16.6202C24.0533 16.6202 24.304 16.5812 24.5026 16.5031C24.7044 16.4217 24.8541 16.3077 24.9518 16.1613C25.0494 16.0115 25.0983 15.8374 25.0983 15.6388C25.0983 15.4272 25.0413 15.2482 24.9274 15.1017C24.8134 14.9552 24.6409 14.8217 24.4098 14.7013C24.1819 14.5776 23.8955 14.4458 23.5504 14.3058C23.316 14.2114 23.0914 14.104 22.8766 13.9835C22.665 13.8631 22.4762 13.7215 22.3102 13.5587C22.1442 13.396 22.0123 13.2039 21.9147 12.9825C21.8203 12.7579 21.7731 12.4943 21.7731 12.1915C21.7731 11.7879 21.8691 11.4428 22.0612 11.1564C22.2565 10.8699 22.5299 10.6502 22.8815 10.4972C23.2363 10.3442 23.6497 10.2677 24.1217 10.2677C24.4961 10.2677 24.8476 10.3068 25.1764 10.3849C25.5084 10.463 25.8339 10.5737 26.153 10.7169L25.7819 11.6593C25.4889 11.5389 25.2041 11.4428 24.9274 11.3712C24.6539 11.2996 24.374 11.2638 24.0875 11.2638C23.8401 11.2638 23.6302 11.3012 23.4576 11.3761C23.2851 11.451 23.1533 11.5568 23.0621 11.6935C22.9742 11.8269 22.9303 11.9864 22.9303 12.172C22.9303 12.3803 22.9808 12.5561 23.0817 12.6993C23.1858 12.8393 23.3453 12.9679 23.5602 13.0851C23.7783 13.2023 24.0582 13.3325 24.4 13.4757C24.7939 13.6385 25.1276 13.8094 25.401 13.9884C25.6777 14.1674 25.8893 14.3823 26.0358 14.6329C26.1823 14.8803 26.2555 15.1912 26.2555 15.5656ZM28.6627 12.1036L28.6627 17.5089L27.5153 17.5089L27.5153 12.1036L28.6627 12.1036ZM28.0963 10.0333C28.2721 10.0333 28.4235 10.0805 28.5504 10.1749C28.6806 10.2693 28.7457 10.4321 28.7457 10.6632C28.7457 10.8911 28.6806 11.0538 28.5504 11.1515C28.4235 11.2459 28.2721 11.2931 28.0963 11.2931C27.914 11.2931 27.7594 11.2459 27.6324 11.1515C27.5088 11.0538 27.4469 10.8911 27.4469 10.6632C27.4469 10.4321 27.5088 10.2693 27.6324 10.1749C27.7594 10.0805 27.914 10.0333 28.0963 10.0333ZM36.4166 12.0011C37.0221 12.0011 37.4778 12.1573 37.7838 12.4698C38.0931 12.7823 38.2477 13.2837 38.2477 13.9738V17.5089H37.1002V14.1788C37.1002 13.7687 37.0205 13.4594 36.861 13.2511C36.7015 13.0428 36.4589 12.9386 36.1334 12.9386C35.6777 12.9386 35.3489 13.0851 35.1471 13.3781C34.9485 13.6678 34.8492 14.0893 34.8492 14.6427V17.5089H33.7018V14.1788C33.7018 13.9054 33.666 13.6775 33.5944 13.4952C33.526 13.3097 33.4202 13.1713 33.277 13.0802C33.1338 12.9858 32.9531 12.9386 32.735 12.9386C32.4192 12.9386 32.167 13.0102 31.9782 13.1534C31.7926 13.2967 31.6591 13.5083 31.5778 13.7882C31.4964 14.0649 31.4557 14.4051 31.4557 14.8087L31.4557 17.5089H30.3082L30.3082 12.1036H31.2018L31.3629 12.8312H31.4264C31.5371 12.6424 31.6738 12.4878 31.8366 12.3673C32.0026 12.2436 32.1865 12.1525 32.3883 12.0939C32.5901 12.032 32.8001 12.0011 33.0182 12.0011C33.4218 12.0011 33.762 12.0727 34.0387 12.2159C34.3154 12.3559 34.5221 12.5708 34.6588 12.8605H34.7467C34.916 12.5675 35.152 12.351 35.4547 12.2111C35.7574 12.0711 36.0781 12.0011 36.4166 12.0011ZM42.6227 12.0011C43.264 12.0011 43.7783 12.2355 44.1657 12.7042C44.5563 13.173 44.7516 13.8696 44.7516 14.7941C44.7516 15.406 44.6604 15.922 44.4782 16.3419C44.2991 16.7586 44.0468 17.0743 43.7213 17.2892C43.399 17.5008 43.0231 17.6066 42.5934 17.6066C42.3199 17.6066 42.0823 17.5708 41.8805 17.4991C41.6787 17.4275 41.5061 17.3348 41.3629 17.2208C41.2197 17.1036 41.0992 16.9767 41.0016 16.84H40.9332C40.9495 16.9702 40.9642 17.115 40.9772 17.2745C40.9935 17.4308 41.0016 17.574 41.0016 17.7042V19.9064H39.8492V12.1036H40.7867L40.9479 12.8507H41.0016C41.1025 12.6977 41.2246 12.5561 41.3678 12.4259C41.5143 12.2957 41.6901 12.1932 41.8951 12.1183C42.1035 12.0402 42.346 12.0011 42.6227 12.0011ZM42.3151 12.9386C41.9993 12.9386 41.7454 13.0021 41.5533 13.129C41.3645 13.2527 41.2262 13.4399 41.1383 13.6906C41.0537 13.9412 41.0081 14.2553 41.0016 14.6329V14.7941C41.0016 15.1945 41.0423 15.5346 41.1237 15.8146C41.2083 16.0913 41.3466 16.3029 41.5387 16.4493C41.734 16.5926 41.9977 16.6642 42.3297 16.6642C42.6097 16.6642 42.8408 16.5877 43.0231 16.4347C43.2086 16.2817 43.347 16.0636 43.4381 15.7804C43.5293 15.4972 43.5748 15.1635 43.5748 14.7794C43.5748 14.1967 43.4707 13.7443 43.2623 13.422C43.0573 13.0997 42.7415 12.9386 42.3151 12.9386ZM47.2321 17.5089H46.0797V9.91125H47.2321V17.5089ZM51.026 12.0011C51.5078 12.0011 51.9212 12.1004 52.2662 12.2989C52.6113 12.4975 52.8766 12.7791 53.0621 13.1437C53.2477 13.5083 53.3405 13.9445 53.3405 14.4523V15.0675H49.7321C49.7451 15.5916 49.8851 15.9952 50.152 16.2784C50.4222 16.5616 50.7998 16.7032 51.2848 16.7032C51.6298 16.7032 51.9391 16.6707 52.2125 16.6056C52.4892 16.5372 52.774 16.4379 53.067 16.3077V17.2404C52.7968 17.3673 52.5218 17.4601 52.2418 17.5187C51.9619 17.5773 51.6266 17.6066 51.236 17.6066C50.7054 17.6066 50.2382 17.504 49.8346 17.2989C49.4342 17.0906 49.1201 16.7814 48.8922 16.3712C48.6676 15.9611 48.5553 15.4516 48.5553 14.8429C48.5553 14.2374 48.6578 13.7231 48.8629 13.2999C49.068 12.8767 49.3561 12.5545 49.7272 12.3331C50.0983 12.1118 50.5312 12.0011 51.026 12.0011ZM51.026 12.8654C50.6647 12.8654 50.3717 12.9825 50.1471 13.2169C49.9257 13.4513 49.7955 13.7947 49.7565 14.2472H52.2174C52.2142 13.977 52.1686 13.7378 52.0807 13.5294C51.9961 13.3211 51.8658 13.1583 51.6901 13.0411C51.5175 12.9239 51.2962 12.8654 51.026 12.8654ZM59.4244 10.3702C60.3457 10.3702 61.0179 10.559 61.441 10.9366C61.8642 11.3142 62.0758 11.8432 62.0758 12.5236C62.0758 12.8328 62.027 13.1274 61.9293 13.4073C61.8349 13.684 61.6787 13.9298 61.4606 14.1447C61.2425 14.3562 60.9544 14.5239 60.5963 14.6476C60.2415 14.7713 59.8037 14.8331 59.2828 14.8331H58.5211V17.5089H57.3492V10.3702H59.4244ZM59.3463 11.3419H58.5211V13.8566H59.1608C59.5286 13.8566 59.8411 13.8142 60.0983 13.7296C60.3554 13.6417 60.5507 13.5034 60.6842 13.3146C60.8177 13.1258 60.8844 12.8767 60.8844 12.5675C60.8844 12.1541 60.7591 11.8465 60.5084 11.6447C60.261 11.4428 59.8737 11.3419 59.3463 11.3419ZM66.1237 12.0011C66.2148 12.0011 66.3141 12.006 66.4215 12.0157C66.5289 12.0255 66.6217 12.0385 66.6998 12.0548L66.5924 13.129C66.524 13.1095 66.4394 13.0948 66.3385 13.0851C66.2408 13.0753 66.153 13.0704 66.0748 13.0704C65.8698 13.0704 65.6744 13.1046 65.4889 13.173C65.3033 13.2381 65.139 13.339 64.9957 13.4757C64.8525 13.6092 64.7402 13.7768 64.6588 13.9786C64.5774 14.1805 64.5367 14.4148 64.5367 14.6818V17.5089H63.3844V12.1036H64.2828L64.4391 13.0558H64.4928C64.6002 12.8637 64.7337 12.6879 64.8932 12.5284C65.0527 12.3689 65.235 12.242 65.4401 12.1476C65.6484 12.0499 65.8763 12.0011 66.1237 12.0011ZM72.486 14.7941C72.486 15.2433 72.4274 15.642 72.3102 15.9904C72.193 16.3387 72.0221 16.6333 71.7975 16.8741C71.5729 17.1118 71.3027 17.2941 70.9869 17.421C70.6712 17.5447 70.3147 17.6066 69.9176 17.6066C69.5465 17.6066 69.2063 17.5447 68.8971 17.421C68.5879 17.2941 68.3193 17.1118 68.0914 16.8741C67.8668 16.6333 67.6927 16.3387 67.569 15.9904C67.4453 15.642 67.3834 15.2433 67.3834 14.7941C67.3834 14.1984 67.486 13.6938 67.691 13.2804C67.8994 12.8637 68.1956 12.5463 68.5797 12.3282C68.9638 12.1101 69.4212 12.0011 69.9518 12.0011C70.4498 12.0011 70.8893 12.1101 71.2701 12.3282C71.651 12.5463 71.9489 12.8637 72.1637 13.2804C72.3785 13.6971 72.486 14.2016 72.486 14.7941ZM68.5651 14.7941C68.5651 15.1879 68.6123 15.5249 68.7067 15.8048C68.8043 16.0848 68.9541 16.2996 69.1559 16.4493C69.3577 16.5958 69.6181 16.6691 69.9371 16.6691C70.2561 16.6691 70.5166 16.5958 70.7184 16.4493C70.9202 16.2996 71.0683 16.0848 71.1627 15.8048C71.2571 15.5249 71.3043 15.1879 71.3043 14.7941C71.3043 14.4002 71.2571 14.0665 71.1627 13.7931C71.0683 13.5164 70.9202 13.3064 70.7184 13.1632C70.5166 13.0167 70.2545 12.9435 69.9323 12.9435C69.457 12.9435 69.1103 13.103 68.8922 13.422C68.6741 13.741 68.5651 14.1984 68.5651 14.7941ZM75.6207 17.6066C74.9762 17.6066 74.4586 17.3722 74.068 16.9034C73.6806 16.4314 73.4869 15.7364 73.4869 14.8185C73.4869 13.8907 73.6839 13.1892 74.0778 12.714C74.4749 12.2387 74.9974 12.0011 75.6451 12.0011C75.9186 12.0011 76.1578 12.0385 76.3629 12.1134C76.568 12.185 76.7438 12.2827 76.8903 12.4064C77.04 12.5301 77.1669 12.6684 77.2711 12.8214H77.3248C77.3085 12.7205 77.289 12.5756 77.2662 12.3868C77.2467 12.1948 77.2369 12.0174 77.2369 11.8546V9.91125H78.3893V17.5089H77.4908L77.2858 16.7716H77.2369C77.1393 16.9279 77.0156 17.0695 76.8658 17.1964C76.7194 17.3201 76.5436 17.4194 76.3385 17.4943C76.1367 17.5691 75.8974 17.6066 75.6207 17.6066ZM75.943 16.6739C76.4345 16.6739 76.7812 16.5323 76.983 16.2491C77.1849 15.9659 77.289 15.5411 77.2955 14.9747V14.8234C77.2955 14.2179 77.1979 13.754 77.0026 13.4318C76.8072 13.1062 76.4508 12.9435 75.9332 12.9435C75.5198 12.9435 75.2041 13.1111 74.986 13.4464C74.7711 13.7784 74.6637 14.2423 74.6637 14.838C74.6637 15.4337 74.7711 15.8894 74.986 16.2052C75.2041 16.5177 75.5231 16.6739 75.943 16.6739ZM84.7467 12.1036V17.5089H83.8434L83.6871 16.7814H83.6237C83.5097 16.9669 83.3649 17.1215 83.1891 17.2452C83.0133 17.3657 82.818 17.4552 82.6031 17.5138C82.3883 17.5756 82.1621 17.6066 81.9244 17.6066C81.5175 17.6066 81.1692 17.5382 80.8795 17.4015C80.5931 17.2615 80.3733 17.0467 80.2203 16.757C80.0673 16.4672 79.9908 16.0929 79.9908 15.6339V12.1036H81.1432V15.4191C81.1432 15.839 81.2278 16.1531 81.3971 16.3614C81.5696 16.5698 81.8365 16.6739 82.1979 16.6739C82.5462 16.6739 82.8229 16.6023 83.0279 16.4591C83.233 16.3159 83.3779 16.1043 83.4625 15.8243C83.5504 15.5444 83.5944 15.201 83.5944 14.7941V12.1036H84.7467ZM88.5699 17.6066C88.0589 17.6066 87.6162 17.5073 87.2418 17.3087C86.8675 17.1101 86.5794 16.8058 86.3776 16.3956C86.1757 15.9855 86.0748 15.4646 86.0748 14.8331C86.0748 14.1756 86.1855 13.6385 86.4069 13.2218C86.6282 12.8051 86.9342 12.4975 87.3248 12.2989C87.7187 12.1004 88.1696 12.0011 88.6774 12.0011C88.9996 12.0011 89.291 12.0337 89.5514 12.0988C89.8151 12.1606 90.038 12.2371 90.2203 12.3282L89.8785 13.2462C89.68 13.1648 89.4765 13.0965 89.2682 13.0411C89.0599 12.9858 88.8597 12.9581 88.6676 12.9581C88.3518 12.9581 88.0882 13.0281 87.8766 13.1681C87.6682 13.3081 87.512 13.5164 87.4078 13.7931C87.3069 14.0698 87.2565 14.4132 87.2565 14.8234C87.2565 15.2205 87.3085 15.5558 87.4127 15.8292C87.5169 16.0994 87.6715 16.3045 87.8766 16.4445C88.0817 16.5812 88.3339 16.6495 88.6334 16.6495C88.9296 16.6495 89.1949 16.6137 89.4293 16.5421C89.6637 16.4705 89.885 16.3777 90.0934 16.2638V17.2599C89.8883 17.3771 89.6686 17.4633 89.4342 17.5187C89.1998 17.5773 88.9117 17.6066 88.5699 17.6066ZM93.3746 16.6788C93.5244 16.6788 93.6725 16.6658 93.819 16.6398C93.9654 16.6105 94.0989 16.5763 94.2194 16.5372V17.4064C94.0924 17.4617 93.928 17.5089 93.7262 17.548C93.5244 17.587 93.3144 17.6066 93.0963 17.6066C92.7903 17.6066 92.5153 17.5561 92.2711 17.4552C92.027 17.351 91.8333 17.1736 91.6901 16.923C91.5468 16.6723 91.4752 16.3256 91.4752 15.8829V12.9777H90.7379V12.465L91.5289 12.0597L91.9049 10.9025H92.6276V12.1036H94.1754V12.9777H92.6276V15.8683C92.6276 16.1417 92.6959 16.3452 92.8326 16.4786C92.9694 16.6121 93.15 16.6788 93.3746 16.6788Z" fill="white"/>
<defs>
<linearGradient id="paint0_linear_660_3661" x1="12.4682" y1="12.8979" x2="94.2442" y2="30.8798" gradientUnits="userSpaceOnUse">
<stop stop-color="#AC2A2C"/>
<stop offset="0.5" stop-color="#BC2D2F"/>
<stop offset="1" stop-color="#A92729"/>
</linearGradient>
</defs>
</svg>
