<svg width="17" height="17" viewBox="0 0 17 17" fill="none" xmlns="http://www.w3.org/2000/svg">
<path d="M10.7243 8.3669C10.4406 8.18476 10.1328 8.04342 9.8098 7.94702C9.61162 7.88709 9.39222 7.82847 9.16493 7.77197C8.96723 7.71685 8.73191 7.66029 8.44087 7.5963C8.09431 7.52369 7.75415 7.42329 7.4237 7.29609C7.25344 7.22985 7.1032 7.12071 6.98757 6.97928C6.90317 6.86361 6.86315 6.72147 6.87481 6.57877C6.87443 6.42569 6.92532 6.27689 7.01938 6.15612C7.15133 6.00134 7.32254 5.88497 7.51501 5.81924C7.83921 5.70788 8.18088 5.6561 8.52352 5.66638C8.78822 5.66213 9.05209 5.6971 9.30656 5.77013C9.47552 5.81744 9.63469 5.8945 9.77659 5.99771C9.86828 6.06307 9.94649 6.14551 10.0069 6.24052C10.0508 6.32271 10.1105 6.39544 10.1825 6.45452C10.2546 6.51361 10.3376 6.5579 10.4268 6.58484C10.516 6.61179 10.6096 6.62087 10.7023 6.61156C10.7951 6.60225 10.885 6.57473 10.9671 6.53058C11.0491 6.48644 11.1217 6.42653 11.1805 6.3543C11.2394 6.28206 11.2834 6.19892 11.3101 6.10964C11.3367 6.02036 11.3455 5.92669 11.3359 5.83401C11.3263 5.74133 11.2985 5.65145 11.2541 5.56953C11.1047 5.30531 10.9028 5.07439 10.661 4.89095C10.3817 4.6764 10.0649 4.51572 9.72681 4.41711C9.3363 4.30165 8.93072 4.24523 8.52352 4.24971C8.00612 4.23871 7.49111 4.32289 7.00414 4.49804C6.56354 4.65797 6.17637 4.9378 5.88628 5.30598C5.60867 5.67225 5.45832 6.11919 5.4581 6.57877C5.44663 7.03631 5.59157 7.48408 5.86899 7.84811C6.1368 8.18544 6.48785 8.44721 6.88758 8.60762C7.18963 8.72382 7.49889 8.82033 7.81341 8.89655C7.81934 8.8985 7.82333 8.90325 7.82937 8.90505C7.96495 8.94586 8.1818 9.00051 8.49516 9.0683C8.61725 9.0945 8.7323 9.12347 8.84729 9.15221C8.85845 9.15554 8.87457 9.15905 8.8853 9.16238L8.8981 9.16432C9.07401 9.20915 9.2431 9.2555 9.39787 9.3028C9.5886 9.35847 9.77066 9.44042 9.9388 9.54629C10.0434 9.61216 10.1312 9.70144 10.1954 9.80707C10.2579 9.93592 10.2868 10.0784 10.2795 10.2214C10.2894 10.4066 10.236 10.5895 10.128 10.7402C9.98208 10.93 9.78471 11.0738 9.55939 11.1546C9.22395 11.284 8.86592 11.3447 8.50656 11.333C8.09067 11.3492 7.67695 11.2657 7.29984 11.0896C7.12581 10.9968 6.97632 10.8641 6.8637 10.7022C6.78473 10.5986 6.73536 10.4754 6.72086 10.3459C6.72086 10.1581 6.64623 9.97792 6.51339 9.84508C6.38055 9.71224 6.20038 9.63761 6.01252 9.63761C5.82466 9.63761 5.64449 9.71224 5.51166 9.84508C5.37882 9.97792 5.30419 10.1581 5.30419 10.3459C5.31607 10.7636 5.45333 11.1681 5.69814 11.5067C5.94282 11.8593 6.26882 12.1478 6.64857 12.3478C7.22637 12.6298 7.86387 12.7677 8.50656 12.7497C9.05267 12.7628 9.59577 12.6652 10.1031 12.4626C10.5747 12.2818 10.9841 11.9688 11.2825 11.5613C11.566 11.1639 11.7112 10.6844 11.6958 10.1965C11.7024 9.81833 11.6109 9.44487 11.4301 9.11258C11.2557 8.81276 11.0141 8.55751 10.7243 8.3669V8.3669ZM15.84 9.69779C16.0312 8.5335 15.9424 7.34041 15.581 6.21724C15.2196 5.09407 14.5959 4.0731 13.7616 3.23879C12.9273 2.40448 11.9063 1.78083 10.7832 1.41941C9.65998 1.058 8.4669 0.969229 7.3026 1.16043C6.44313 0.74837 5.47694 0.613251 4.5374 0.773726C3.59785 0.9342 2.73129 1.38236 2.05731 2.05633C1.38333 2.73031 0.935177 3.59688 0.774702 4.53642C0.614228 5.47596 0.749347 6.44215 1.16141 7.30163C0.970206 8.46592 1.05898 9.659 1.42039 10.7822C1.7818 11.9053 2.40546 12.9263 3.23977 13.7606C4.07407 14.5949 5.09505 15.2186 6.21822 15.58C7.34139 15.9414 8.53448 16.0302 9.69877 15.839C10.5582 16.251 11.5244 16.3862 12.464 16.2257C13.4035 16.0652 14.2701 15.6171 14.9441 14.9431C15.618 14.2691 16.0662 13.4025 16.2267 12.463C16.3871 11.5235 16.252 10.5573 15.84 9.69779V9.69779ZM11.6882 14.8747C11.1509 14.8745 10.6223 14.7386 10.1515 14.4797C10.0054 14.3991 9.83559 14.3724 9.67179 14.4043C8.7988 14.5785 7.89805 14.5567 7.03451 14.3405C6.17097 14.1244 5.36617 13.7193 4.67816 13.1544C3.99015 12.5895 3.43608 11.879 3.05593 11.0741C2.67578 10.2692 2.47903 9.38989 2.47985 8.49971C2.48058 8.10627 2.5195 7.71383 2.59606 7.32791C2.62804 7.16428 2.60148 6.99461 2.52101 6.84858C2.18808 6.24372 2.06057 5.5471 2.15768 4.86352C2.25479 4.17995 2.57125 3.54639 3.05946 3.05817C3.54767 2.56996 4.18122 2.25349 4.8648 2.15638C5.54837 2.05926 6.245 2.18676 6.84987 2.51969C6.99589 2.60058 7.16579 2.62729 7.32958 2.59508C8.20257 2.42095 9.10332 2.44274 9.96686 2.65889C10.8304 2.87504 11.6352 3.28016 12.3232 3.84502C13.0112 4.40988 13.5653 5.1204 13.9454 5.92533C14.3256 6.73026 14.5223 7.60953 14.5215 8.49971C14.5208 8.89315 14.4819 9.28559 14.4053 9.67151C14.3733 9.83515 14.3999 10.0048 14.4804 10.1509C14.7477 10.6361 14.8838 11.1827 14.8754 11.7366C14.8669 12.2905 14.7142 12.8327 14.4323 13.3096C14.1504 13.7865 13.7491 14.1817 13.2679 14.4562C12.7866 14.7306 12.2422 14.8749 11.6882 14.8747Z" fill="#00AFF0"/>
</svg>
