<svg width="21" height="21" viewBox="0 0 21 21" fill="none" xmlns="http://www.w3.org/2000/svg">
<path d="M18.3694 11.4277C18.4704 11.1092 18.4844 10.7787 18.4844 10.4702C18.4844 9.43768 17.8034 9.21468 17.2909 9.13668C16.8729 9.07268 15.3994 9.02818 14.5224 9.00618C14.5709 8.94568 14.6239 8.88318 14.6779 8.81818C15.1334 8.27568 15.8224 7.45518 15.7509 5.95518C15.7069 5.04918 15.4489 4.38968 14.9829 3.99418C14.5349 3.61218 14.0559 3.61718 13.9334 3.62518C13.0289 3.63568 12.8984 4.59618 12.8024 5.29768C12.7409 5.75368 12.6709 6.27018 12.4519 6.43818C11.6134 7.08218 10.7059 7.85568 10.3339 8.70218C9.93888 9.59918 9.53438 10.3422 8.57038 10.3422H8.08688V9.14118H2.98438V17.8987H8.08738V16.8097C9.18888 16.8432 9.67288 17.0587 10.0919 17.4127C10.7289 17.9517 11.2844 18.1237 12.3784 18.1237C13.7734 18.1237 15.6224 18.0857 16.5134 17.9047C16.8119 17.8442 17.2089 17.6837 17.4009 17.2687C17.5094 17.0337 17.5394 16.7877 17.5544 16.5997C17.5584 16.5487 17.5594 16.4952 17.5604 16.4437C17.5614 16.3882 17.5634 16.2937 17.5719 16.2392C17.5819 16.2292 17.5914 16.2197 17.6019 16.2077C17.7549 16.0372 17.9289 15.8427 18.0134 15.5387C18.0954 15.2492 18.1064 14.9532 18.1064 14.7047C18.1064 14.4942 18.0534 14.3377 18.0059 14.2002C17.9934 14.1627 17.9814 14.1277 17.9709 14.0927C17.9884 14.0562 18.0294 13.9987 18.0559 13.9602C18.1104 13.8812 18.1729 13.7917 18.2129 13.6892C18.3444 13.3552 18.3549 13.0007 18.3549 12.6937C18.3549 12.5577 18.3459 12.3557 18.2734 12.1602C18.2294 12.0422 18.1684 11.9582 18.1084 11.8937C18.1174 11.8857 18.1259 11.8772 18.1344 11.8682C18.2579 11.7417 18.3204 11.5817 18.3694 11.4277ZM7.34038 17.1572H3.73138V9.88318H7.34038V17.1572ZM17.6574 11.2037C17.6254 11.3042 17.6064 11.3407 17.5989 11.3507C17.5894 11.3607 17.5669 11.3787 17.5469 11.3962C17.4374 11.4892 17.2539 11.6432 17.2494 11.8917C17.2469 12.0362 17.3104 12.1747 17.4294 12.2832C17.4544 12.3067 17.4789 12.3277 17.5024 12.3472C17.5649 12.3997 17.5659 12.4027 17.5719 12.4187C17.6034 12.5027 17.6069 12.6157 17.6069 12.6942C17.6069 12.9337 17.5999 13.2057 17.5159 13.4202C17.5069 13.4427 17.4659 13.5017 17.4399 13.5397C17.3264 13.7022 17.1569 13.9462 17.2374 14.2477C17.2564 14.3192 17.2784 14.3822 17.2974 14.4377C17.3339 14.5452 17.3584 14.6167 17.3584 14.7047C17.3584 14.9042 17.3499 15.1357 17.2934 15.3407C17.2579 15.4672 17.1839 15.5567 17.0579 15.6977C17.0259 15.7222 16.9679 15.7702 16.9229 15.8512C16.8194 16.0372 16.8154 16.2542 16.8119 16.4297C16.8114 16.4722 16.8104 16.5127 16.8079 16.5427C16.7979 16.6687 16.7794 16.8307 16.7204 16.9582C16.7019 16.9987 16.6464 17.1202 16.3604 17.1777C15.7144 17.3097 14.2989 17.3817 12.3764 17.3817C11.3694 17.3817 11.0199 17.2247 10.5739 16.8477C10.0394 16.3967 9.41588 16.1077 8.08538 16.0682V11.0837H8.56888C10.1004 11.0837 10.6739 9.77968 11.0159 9.00018C11.3214 8.30468 12.1439 7.61118 12.9074 7.02468C13.3684 6.67118 13.4569 6.02368 13.5419 5.39718C13.5844 5.08618 13.6279 4.76468 13.7164 4.55918C13.7934 4.38018 13.8609 4.36668 13.9479 4.36668C13.9619 4.36668 13.9754 4.36568 13.9889 4.36468C13.9914 4.36368 14.2489 4.34768 14.4969 4.55718C14.7964 4.81068 14.9714 5.30618 15.0039 5.98968C15.0614 7.20168 14.5299 7.83468 14.1029 8.34418C13.8379 8.65968 13.5869 8.95818 13.5514 9.32818C13.5414 9.43118 13.5749 9.53268 13.6444 9.60968C13.7139 9.68718 13.8114 9.73218 13.9159 9.73418C14.9314 9.75468 16.7624 9.80618 17.1764 9.86868C17.6314 9.93818 17.7359 10.0512 17.7359 10.4697C17.7374 10.7197 17.7274 10.9817 17.6574 11.2037Z" fill="#5C5C5C"/>
</svg>
