<svg width="23" height="19" viewBox="0 0 23 19" fill="none" xmlns="http://www.w3.org/2000/svg">
<path d="M5.81109 6.26671C7.51564 6.26671 8.90245 4.87995 8.90245 3.17535C8.90245 1.47074 7.51564 0.0839844 5.81109 0.0839844C4.10654 0.0839844 2.71973 1.47074 2.71973 3.17535C2.71973 4.87995 4.10654 6.26671 5.81109 6.26671ZM5.81109 0.825911C7.10654 0.825911 8.16052 1.87989 8.16052 3.17535C8.16052 4.4708 7.10654 5.52478 5.81109 5.52478C4.51563 5.52478 3.46165 4.4708 3.46165 3.17535C3.46165 1.87989 4.51563 0.825911 5.81109 0.825911Z" fill="#D7282F"/>
<path d="M13.9722 6.26671C15.6768 6.26671 17.0636 4.87995 17.0636 3.17535C17.0636 1.47074 15.6768 0.0839844 13.9722 0.0839844C12.2677 0.0839844 10.8809 1.47074 10.8809 3.17535C10.8809 4.87995 12.2677 6.26671 13.9722 6.26671ZM13.9722 0.825911C15.2677 0.825911 16.3217 1.87989 16.3217 3.17535C16.3217 4.4708 15.2677 5.52478 13.9722 5.52478C12.6768 5.52478 11.6228 4.4708 11.6228 3.17535C11.6228 1.87989 12.6768 0.825911 13.9722 0.825911Z" fill="#D7282F"/>
<path d="M17.9867 10.4157C18.0598 10.5103 18.1695 10.5599 18.2805 10.5599C18.3597 10.5599 18.4395 10.5346 18.5071 10.4825C18.6692 10.3572 18.699 10.1242 18.5738 9.96207C17.4634 8.52521 15.7863 7.70117 13.9726 7.70117C12.808 7.70117 11.6843 8.04444 10.7229 8.69392C10.5531 8.80862 10.5085 9.03921 10.6232 9.20896C10.7379 9.37882 10.9685 9.42343 11.1382 9.30873C11.9765 8.74244 12.9566 8.4431 13.9726 8.4431C15.5548 8.4431 17.0179 9.16207 17.9867 10.4157Z" fill="#D7282F"/>
<path d="M5.81176 7.70117C2.60713 7.70117 0 10.3083 0 13.5129C0 13.7179 0.166093 13.8839 0.370963 13.8839C0.575834 13.8839 0.741927 13.7179 0.741927 13.5129C0.741927 10.7174 3.01623 8.4431 5.81176 8.4431C8.60729 8.4431 10.8816 10.7174 10.8816 13.5129C10.8816 13.7179 11.0477 13.8839 11.2526 13.8839C11.4574 13.8839 11.6235 13.7179 11.6235 13.5129C11.6235 10.3083 9.01639 7.70117 5.81176 7.70117Z" fill="#D7282F"/>
<path d="M19.4131 11.1641C17.4358 11.1641 15.8271 12.7727 15.8271 14.75C15.8271 16.7274 17.4358 18.336 19.4131 18.336C21.3905 18.336 22.9991 16.7274 22.9991 14.75C22.9991 12.7727 21.3905 11.1641 19.4131 11.1641ZM19.4131 17.5941C17.8449 17.5941 16.5691 16.3183 16.5691 14.75C16.5691 13.1818 17.8449 11.906 19.4131 11.906C20.9814 11.906 22.2572 13.1818 22.2572 14.75C22.2572 16.3183 20.9814 17.5941 19.4131 17.5941Z" fill="#D7282F"/>
<path d="M20.6497 14.3791H19.7841V13.5135C19.7841 13.3086 19.618 13.1426 19.4132 13.1426C19.2083 13.1426 19.0422 13.3086 19.0422 13.5135V14.3791H18.1766C17.9718 14.3791 17.8057 14.5452 17.8057 14.7501C17.8057 14.955 17.9718 15.121 18.1766 15.121H19.0422V15.9866C19.0422 16.1916 19.2083 16.3576 19.4132 16.3576C19.618 16.3576 19.7841 16.1916 19.7841 15.9866V15.121H20.6497C20.8546 15.121 21.0207 14.955 21.0207 14.7501C21.0207 14.5452 20.8546 14.3791 20.6497 14.3791Z" fill="#D7282F"/>
</svg>
