<svg width="20" height="21" viewBox="0 0 20 21" fill="none" xmlns="http://www.w3.org/2000/svg">
<mask id="path-1-inside-1_422_8864" fill="white">
<path d="M15.9427 12.5083C14.6172 12.5083 13.4499 13.1985 12.7814 14.2385L7.52067 11.4744C7.70949 11.0267 7.81396 10.5351 7.81396 10.0196C7.81396 9.50405 7.70949 9.01243 7.52067 8.56478L12.7814 5.80069C13.45 6.84061 14.6172 7.53089 15.9427 7.53089C18.0136 7.53089 19.6984 5.84611 19.6984 3.77527C19.6984 1.70431 18.0136 0.0195312 15.9427 0.0195312C13.8719 0.0195312 12.1871 1.70431 12.1871 3.77519C12.1871 4.29076 12.2916 4.78233 12.4804 5.22998L7.21972 7.99407C6.55112 6.95415 5.38385 6.26388 4.05835 6.26388C1.98751 6.26388 0.302734 7.94865 0.302734 10.0195C0.302734 12.0904 1.98751 13.7752 4.05835 13.7752C5.38385 13.7752 6.55116 13.0849 7.21972 12.045L12.4804 14.8091C12.2916 15.2567 12.1871 15.7483 12.1871 16.2639C12.1871 18.3348 13.8719 20.0195 15.9427 20.0195C18.0136 20.0195 19.6984 18.3348 19.6984 16.2639C19.6984 14.193 18.0136 12.5083 15.9427 12.5083ZM15.9427 0.664693C17.6579 0.664693 19.0532 2.06005 19.0532 3.77519C19.0532 5.49028 17.6579 6.88564 15.9427 6.88564C14.2276 6.88564 12.8323 5.49028 12.8323 3.77519C12.8322 2.06005 14.2276 0.664693 15.9427 0.664693ZM4.0583 13.13C2.34321 13.13 0.947853 11.7347 0.947853 10.0195C0.947853 8.30439 2.34321 6.90904 4.0583 6.90904C5.7734 6.90904 7.16876 8.30439 7.16876 10.0195C7.16876 11.7347 5.7734 13.13 4.0583 13.13ZM15.9427 19.3744C14.2276 19.3744 12.8323 17.979 12.8323 16.2639C12.8323 14.5488 14.2276 13.1534 15.9427 13.1534C17.6579 13.1534 19.0532 14.5488 19.0532 16.2639C19.0532 17.979 17.6579 19.3744 15.9427 19.3744Z"/>
</mask>
<path d="M15.9427 12.5083C14.6172 12.5083 13.4499 13.1985 12.7814 14.2385L7.52067 11.4744C7.70949 11.0267 7.81396 10.5351 7.81396 10.0196C7.81396 9.50405 7.70949 9.01243 7.52067 8.56478L12.7814 5.80069C13.45 6.84061 14.6172 7.53089 15.9427 7.53089C18.0136 7.53089 19.6984 5.84611 19.6984 3.77527C19.6984 1.70431 18.0136 0.0195312 15.9427 0.0195312C13.8719 0.0195312 12.1871 1.70431 12.1871 3.77519C12.1871 4.29076 12.2916 4.78233 12.4804 5.22998L7.21972 7.99407C6.55112 6.95415 5.38385 6.26388 4.05835 6.26388C1.98751 6.26388 0.302734 7.94865 0.302734 10.0195C0.302734 12.0904 1.98751 13.7752 4.05835 13.7752C5.38385 13.7752 6.55116 13.0849 7.21972 12.045L12.4804 14.8091C12.2916 15.2567 12.1871 15.7483 12.1871 16.2639C12.1871 18.3348 13.8719 20.0195 15.9427 20.0195C18.0136 20.0195 19.6984 18.3348 19.6984 16.2639C19.6984 14.193 18.0136 12.5083 15.9427 12.5083ZM15.9427 0.664693C17.6579 0.664693 19.0532 2.06005 19.0532 3.77519C19.0532 5.49028 17.6579 6.88564 15.9427 6.88564C14.2276 6.88564 12.8323 5.49028 12.8323 3.77519C12.8322 2.06005 14.2276 0.664693 15.9427 0.664693ZM4.0583 13.13C2.34321 13.13 0.947853 11.7347 0.947853 10.0195C0.947853 8.30439 2.34321 6.90904 4.0583 6.90904C5.7734 6.90904 7.16876 8.30439 7.16876 10.0195C7.16876 11.7347 5.7734 13.13 4.0583 13.13ZM15.9427 19.3744C14.2276 19.3744 12.8323 17.979 12.8323 16.2639C12.8323 14.5488 14.2276 13.1534 15.9427 13.1534C17.6579 13.1534 19.0532 14.5488 19.0532 16.2639C19.0532 17.979 17.6579 19.3744 15.9427 19.3744Z" fill="#5C5C5C"/>
<path d="M12.7814 14.2385L12.3162 15.1237L13.1271 15.5498L13.6225 14.7792L12.7814 14.2385ZM7.52067 11.4744L6.59928 11.0857L6.24222 11.9323L7.05554 12.3596L7.52067 11.4744ZM7.52067 8.56478L7.05554 7.67953L6.24222 8.10688L6.59928 8.95341L7.52067 8.56478ZM12.7814 5.80069L13.6225 5.25989L13.1271 4.48939L12.3162 4.91545L12.7814 5.80069ZM12.4804 5.22998L12.9455 6.11523L13.7589 5.68789L13.4018 4.84135L12.4804 5.22998ZM7.21972 7.99407L6.37858 8.53488L6.87396 9.30537L7.68485 8.87931L7.21972 7.99407ZM7.21972 12.045L7.68485 11.1597L6.87394 10.7337L6.37856 11.5042L7.21972 12.045ZM12.4804 14.8091L13.4018 15.1977L13.7589 14.3512L12.9455 13.9238L12.4804 14.8091ZM12.8323 3.77519H13.8323V3.77516L12.8323 3.77519ZM15.9427 11.5083C14.2617 11.5083 12.7843 12.3846 11.9402 13.6977L13.6225 14.7792C14.1155 14.0125 14.9727 13.5083 15.9427 13.5083V11.5083ZM13.2465 13.3532L7.9858 10.5891L7.05554 12.3596L12.3162 15.1237L13.2465 13.3532ZM8.44206 11.863C8.68169 11.2949 8.81396 10.6713 8.81396 10.0196H6.81396C6.81396 10.3989 6.73728 10.7586 6.59928 11.0857L8.44206 11.863ZM8.81396 10.0196C8.81396 9.36784 8.68169 8.74427 8.44206 8.17614L6.59928 8.95341C6.73728 9.2806 6.81396 9.64026 6.81396 10.0196H8.81396ZM7.9858 9.45002L13.2465 6.68594L12.3162 4.91545L7.05554 7.67953L7.9858 9.45002ZM11.9402 6.3415C12.7844 7.6545 14.2617 8.53089 15.9427 8.53089V6.53089C14.9728 6.53089 14.1155 6.02671 13.6225 5.25989L11.9402 6.3415ZM15.9427 8.53089C18.5659 8.53089 20.6984 6.3984 20.6984 3.77527H18.6984C18.6984 5.29382 17.4613 6.53089 15.9427 6.53089V8.53089ZM20.6984 3.77527C20.6984 1.15204 18.5659 -0.980469 15.9427 -0.980469V1.01953C17.4613 1.01953 18.6984 2.25658 18.6984 3.77527H20.6984ZM15.9427 -0.980469C13.3196 -0.980469 11.1871 1.15203 11.1871 3.77519H13.1871C13.1871 2.25658 14.4242 1.01953 15.9427 1.01953V-0.980469ZM11.1871 3.77519C11.1871 4.42697 11.3194 5.0505 11.559 5.61862L13.4018 4.84135C13.2638 4.51416 13.1871 4.15454 13.1871 3.77519H11.1871ZM12.0153 4.34474L6.7546 7.10883L7.68485 8.87931L12.9455 6.11523L12.0153 4.34474ZM8.06087 7.45326C7.21669 6.14026 5.73939 5.26388 4.05835 5.26388V7.26388C5.02832 7.26388 5.88556 7.76805 6.37858 8.53488L8.06087 7.45326ZM4.05835 5.26388C1.43522 5.26388 -0.697266 7.39637 -0.697266 10.0195H1.30273C1.30273 8.50093 2.5398 7.26388 4.05835 7.26388V5.26388ZM-0.697266 10.0195C-0.697266 12.6427 1.43522 14.7752 4.05835 14.7752V12.7752C2.5398 12.7752 1.30273 11.5381 1.30273 10.0195H-0.697266ZM4.05835 14.7752C5.73937 14.7752 7.21673 13.8988 8.06089 12.5858L6.37856 11.5042C5.8856 12.271 5.02834 12.7752 4.05835 12.7752V14.7752ZM6.7546 12.9302L12.0153 15.6943L12.9455 13.9238L7.68485 11.1597L6.7546 12.9302ZM11.559 14.4204C11.3194 14.9886 11.1871 15.6121 11.1871 16.2639H13.1871C13.1871 15.8846 13.2638 15.5249 13.4018 15.1977L11.559 14.4204ZM11.1871 16.2639C11.1871 18.887 13.3196 21.0195 15.9427 21.0195V19.0195C14.4242 19.0195 13.1871 17.7825 13.1871 16.2639H11.1871ZM15.9427 21.0195C18.5659 21.0195 20.6984 18.887 20.6984 16.2639H18.6984C18.6984 17.7825 17.4613 19.0195 15.9427 19.0195V21.0195ZM20.6984 16.2639C20.6984 13.6407 18.5659 11.5083 15.9427 11.5083V13.5083C17.4613 13.5083 18.6984 14.7453 18.6984 16.2639H20.6984ZM15.9427 1.66469C17.1056 1.66469 18.0532 2.61233 18.0532 3.77519H20.0532C20.0532 1.50776 18.2102 -0.335307 15.9427 -0.335307V1.66469ZM18.0532 3.77519C18.0532 4.93799 17.1056 5.88564 15.9427 5.88564V7.88564C18.2101 7.88564 20.0532 6.04258 20.0532 3.77519H18.0532ZM15.9427 5.88564C14.7799 5.88564 13.8323 4.93801 13.8323 3.77519H11.8323C11.8323 6.04256 13.6753 7.88564 15.9427 7.88564V5.88564ZM13.8323 3.77516C13.8323 2.61233 14.7799 1.66469 15.9427 1.66469V-0.335307C13.6753 -0.335307 11.8322 1.50776 11.8323 3.77521L13.8323 3.77516ZM4.0583 12.13C2.8955 12.13 1.94785 11.1824 1.94785 10.0195H-0.0521474C-0.0521474 12.2869 1.79091 14.13 4.0583 14.13V12.13ZM1.94785 10.0195C1.94785 8.85667 2.8955 7.90904 4.0583 7.90904V5.90904C1.79091 5.90904 -0.0521474 7.75212 -0.0521474 10.0195H1.94785ZM4.0583 7.90904C5.22111 7.90904 6.16876 8.85667 6.16876 10.0195H8.16876C8.16876 7.75212 6.3257 5.90904 4.0583 5.90904V7.90904ZM6.16876 10.0195C6.16876 11.1824 5.22111 12.13 4.0583 12.13V14.13C6.3257 14.13 8.16876 12.2869 8.16876 10.0195H6.16876ZM15.9427 18.3744C14.7799 18.3744 13.8323 17.4267 13.8323 16.2639H11.8323C11.8323 18.5313 13.6753 20.3744 15.9427 20.3744V18.3744ZM13.8323 16.2639C13.8323 15.1011 14.7799 14.1534 15.9427 14.1534V12.1534C13.6753 12.1534 11.8323 13.9965 11.8323 16.2639H13.8323ZM15.9427 14.1534C17.1056 14.1534 18.0532 15.1011 18.0532 16.2639H20.0532C20.0532 13.9965 18.2101 12.1534 15.9427 12.1534V14.1534ZM18.0532 16.2639C18.0532 17.4267 17.1056 18.3744 15.9427 18.3744V20.3744C18.2102 20.3744 20.0532 18.5313 20.0532 16.2639H18.0532Z" fill="#5C5C5C" mask="url(#path-1-inside-1_422_8864)"/>
</svg>
