<svg width="25" height="25" viewBox="0 0 25 25" fill="none" xmlns="http://www.w3.org/2000/svg">
<g clip-path="url(#clip0_287_12094)">
<path d="M6.80507 13.1379H9.43585V23.9684C9.43585 24.1822 9.60912 24.3555 9.82295 24.3555H14.2835C14.4974 24.3555 14.6706 24.1822 14.6706 23.9684V13.1889H17.6949C17.8916 13.1889 18.057 13.0413 18.0795 12.846L18.5388 8.85875C18.5514 8.74904 18.5167 8.63918 18.4433 8.55689C18.3698 8.47451 18.2647 8.42737 18.1544 8.42737H14.6708V5.92796C14.6708 5.17451 15.0765 4.79245 15.8767 4.79245C15.9907 4.79245 18.1544 4.79245 18.1544 4.79245C18.3682 4.79245 18.5415 4.61911 18.5415 4.40535V0.74543C18.5415 0.531598 18.3682 0.358333 18.1544 0.358333H15.0154C14.9932 0.357249 14.9441 0.355469 14.8716 0.355469C14.327 0.355469 12.4338 0.462385 10.9384 1.83813C9.28148 3.36267 9.5118 5.18806 9.56685 5.50455V8.42729H6.80507C6.59123 8.42729 6.41797 8.60055 6.41797 8.81439V12.7507C6.41797 12.9645 6.59123 13.1379 6.80507 13.1379Z" fill="white"/>
</g>
<defs>
<clipPath id="clip0_287_12094">
<rect width="24" height="24" fill="white" transform="translate(0.480469 0.355469)"/>
</clipPath>
</defs>
</svg>
