<svg width="25" height="25" viewBox="0 0 25 25" fill="none" xmlns="http://www.w3.org/2000/svg">
<g clip-path="url(#clip0_287_12097)">
<path d="M8.90092 13.938H12.6506C11.9924 15.7988 10.2098 17.133 8.12286 17.1176C5.59065 17.0989 3.49686 15.0732 3.39855 12.5428C3.29317 9.83042 5.46925 7.5902 8.15863 7.5902C9.38831 7.5902 10.5105 8.05873 11.3565 8.82647C11.5568 9.00837 11.8619 9.00952 12.0589 8.82401L13.4362 7.52782C13.6515 7.32508 13.6523 6.98271 13.4376 6.77929C12.0959 5.50824 10.2962 4.71598 8.31146 4.67723C4.07831 4.59458 0.510146 8.06533 0.48066 12.2992C0.450912 16.5649 3.89987 20.0321 8.15863 20.0321C12.2542 20.0321 15.5999 16.8253 15.824 12.7858C15.83 12.7352 15.8339 11.0235 15.8339 11.0235H8.90092C8.61674 11.0235 8.3864 11.2539 8.3864 11.5381V13.4235C8.3864 13.7076 8.6168 13.938 8.90092 13.938Z" fill="white"/>
<path d="M22.1867 11.1954V9.35323C22.1867 9.10419 21.9848 8.90234 21.7358 8.90234H20.1853C19.9363 8.90234 19.7344 9.10419 19.7344 9.35323V11.1954H17.8923C17.6433 11.1954 17.4414 11.3972 17.4414 11.6463V13.1967C17.4414 13.4458 17.6433 13.6476 17.8923 13.6476H19.7344V15.4897C19.7344 15.7388 19.9363 15.9406 20.1853 15.9406H21.7358C21.9848 15.9406 22.1867 15.7388 22.1867 15.4897V13.6476H24.0288C24.2778 13.6476 24.4797 13.4458 24.4797 13.1967V11.6463C24.4797 11.3972 24.2778 11.1954 24.0288 11.1954H22.1867Z" fill="white"/>
</g>
<defs>
<clipPath id="clip0_287_12097">
<rect width="24" height="24" fill="white" transform="translate(0.480469 0.355469)"/>
</clipPath>
</defs>
</svg>
