<svg width="25" height="25" viewBox="0 0 25 25" fill="none" xmlns="http://www.w3.org/2000/svg">
<g clip-path="url(#clip0_287_12101)">
<path d="M23.545 5.36007C22.6787 4.33023 21.0792 3.91016 18.0245 3.91016H6.93616C3.81159 3.91016 2.18501 4.35733 1.32194 5.45374C0.480469 6.52275 0.480469 8.09785 0.480469 10.2778V14.4328C0.480469 18.6561 1.47887 20.8004 6.93616 20.8004H18.0246C20.6736 20.8004 22.1415 20.4297 23.0911 19.5209C24.065 18.5889 24.4805 17.0673 24.4805 14.4328V10.2778C24.4805 7.97885 24.4154 6.39447 23.545 5.36007ZM15.8885 12.929L10.8533 15.5605C10.7408 15.6194 10.6177 15.6486 10.4947 15.6486C10.3555 15.6486 10.2166 15.6111 10.0936 15.5366C9.86199 15.3962 9.72055 15.1452 9.72055 14.8744V9.62812C9.72055 9.35777 9.8616 9.10693 10.0928 8.96649C10.324 8.82605 10.6116 8.81645 10.8516 8.9411L15.8868 11.5557C16.1429 11.6887 16.3038 11.9532 16.3042 12.2417C16.3045 12.5305 16.1443 12.7953 15.8885 12.929Z" fill="white"/>
</g>
<defs>
<clipPath id="clip0_287_12101">
<rect width="24" height="24" fill="white" transform="translate(0.480469 0.355469)"/>
</clipPath>
</defs>
</svg>
