<svg width="41" height="41" viewBox="0 0 41 41" fill="none" xmlns="http://www.w3.org/2000/svg">
<rect x="1.40039" y="1.49609" width="39" height="39" rx="19.5" stroke="#DDDDDD"/>
<g clip-path="url(#clip0_684_12482)">
<path d="M15.9256 17.6211H11.9004V29.9961H15.9256V17.6211Z" fill="#4A4A4A"/>
<path d="M26.8899 17.7662C26.8471 17.7527 26.8066 17.7381 26.7616 17.7257C26.7076 17.7133 26.6536 17.7032 26.5985 17.6942C26.3848 17.6515 26.1508 17.6211 25.8763 17.6211C23.5295 17.6211 22.0411 19.3277 21.5506 19.987V17.6211H17.5254V29.9961H21.5506V23.2461C21.5506 23.2461 24.5926 19.0093 25.8763 22.1211C25.8763 24.8987 25.8763 29.9961 25.8763 29.9961H29.9004V21.6452C29.9004 19.7755 28.619 18.2173 26.8899 17.7662Z" fill="#4A4A4A"/>
<path d="M13.8691 15.9336C14.9565 15.9336 15.8379 15.0522 15.8379 13.9648C15.8379 12.8775 14.9565 11.9961 13.8691 11.9961C12.7818 11.9961 11.9004 12.8775 11.9004 13.9648C11.9004 15.0522 12.7818 15.9336 13.8691 15.9336Z" fill="#4A4A4A"/>
</g>
<defs>
<clipPath id="clip0_684_12482">
<rect width="18" height="18" fill="white" transform="translate(11.9004 11.9961)"/>
</clipPath>
</defs>
</svg>
