<svg width="25" height="25" viewBox="0 0 25 25" fill="none" xmlns="http://www.w3.org/2000/svg">
<g clip-path="url(#clip0_287_12104)">
<path d="M23.9366 4.79894C23.5596 4.96617 23.1719 5.1073 22.7759 5.22188C23.2448 4.69156 23.6023 4.06756 23.8206 3.38472C23.8695 3.23166 23.8188 3.06413 23.693 2.96402C23.5673 2.86384 23.3927 2.85184 23.2544 2.93383C22.4132 3.43272 21.5057 3.79125 20.5542 4.0009C19.5956 3.06428 18.2937 2.53125 16.9479 2.53125C14.107 2.53125 11.7957 4.84245 11.7957 7.68328C11.7957 7.90702 11.8099 8.12952 11.8379 8.34893C8.31261 8.03941 5.03522 6.30668 2.78464 3.54599C2.70443 3.44759 2.58087 3.39455 2.45437 3.4047C2.32779 3.41461 2.21406 3.48599 2.15011 3.59569C1.69365 4.37894 1.45233 5.27476 1.45233 6.18622C1.45233 7.42764 1.89556 8.6055 2.6785 9.52586C2.44043 9.44341 2.20941 9.34036 1.98892 9.21796C1.87055 9.15208 1.72609 9.15308 1.60849 9.22052C1.49081 9.28795 1.41703 9.41197 1.41393 9.54753C1.41339 9.57037 1.41339 9.59321 1.41339 9.61636C1.41339 11.4694 2.4107 13.1377 3.93548 14.047C3.80449 14.0339 3.67357 14.0149 3.5435 13.9901C3.40941 13.9645 3.27153 14.0115 3.1811 14.1137C3.09052 14.2159 3.06056 14.3584 3.10229 14.4884C3.66668 16.2505 5.11976 17.5466 6.87641 17.9417C5.41945 18.8543 3.75331 19.3323 2.00425 19.3323C1.6393 19.3323 1.27225 19.3108 0.913027 19.2683C0.734575 19.2471 0.563943 19.3525 0.503169 19.5222C0.442395 19.6919 0.506808 19.8812 0.658627 19.9786C2.90557 21.4193 5.50369 22.1807 8.17194 22.1807C13.4174 22.1807 16.6988 19.7072 18.5279 17.6321C20.8086 15.0447 22.1167 11.6199 22.1167 8.23597C22.1167 8.0946 22.1145 7.95184 22.1102 7.80955C23.0101 7.13159 23.7848 6.3111 24.4152 5.36805C24.511 5.22482 24.5006 5.03553 24.3897 4.90369C24.2789 4.77177 24.0942 4.72911 23.9366 4.79894Z" fill="white"/>
</g>
<defs>
<clipPath id="clip0_287_12104">
<rect width="24" height="24" fill="white" transform="translate(0.480469 0.355469)"/>
</clipPath>
</defs>
</svg>
