<svg width="41" height="41" viewBox="0 0 41 41" fill="none" xmlns="http://www.w3.org/2000/svg">
<rect x="1.40039" y="1.49609" width="39" height="39" rx="19.5" stroke="#DDDDDD"/>
<g clip-path="url(#clip0_684_12494)">
<path d="M20.6972 13.3852C23.0632 13.3852 23.3409 13.3957 24.2761 13.4379C25.1409 13.4766 25.6085 13.6207 25.9214 13.7438C26.3362 13.9055 26.6315 14.0953 26.9409 14.4047C27.2503 14.7141 27.4437 15.0094 27.6019 15.4242C27.7214 15.7371 27.869 16.2047 27.9077 17.0695C27.9499 18.0047 27.9604 18.2824 27.9604 20.6484C27.9604 23.0145 27.9499 23.2922 27.9077 24.2273C27.869 25.0922 27.7249 25.5598 27.6019 25.8727C27.4401 26.2875 27.2503 26.5828 26.9409 26.8922C26.6315 27.2016 26.3362 27.3949 25.9214 27.5531C25.6085 27.6727 25.1409 27.8203 24.2761 27.859C23.3409 27.9012 23.0632 27.9117 20.6972 27.9117C18.3312 27.9117 18.0534 27.9012 17.1183 27.859C16.2534 27.8203 15.7858 27.6762 15.4729 27.5531C15.0581 27.3914 14.7628 27.2016 14.4534 26.8922C14.144 26.5828 13.9507 26.2875 13.7925 25.8727C13.6729 25.5598 13.5253 25.0922 13.4866 24.2273C13.4444 23.2922 13.4339 23.0145 13.4339 20.6484C13.4339 18.2824 13.4444 18.0047 13.4866 17.0695C13.5253 16.2047 13.6694 15.7371 13.7925 15.4242C13.9542 15.0094 14.144 14.7141 14.4534 14.4047C14.7628 14.0953 15.0581 13.902 15.4729 13.7438C15.7858 13.6242 16.2534 13.4766 17.1183 13.4379C18.0534 13.3922 18.3312 13.3852 20.6972 13.3852ZM20.6972 11.7891C18.2925 11.7891 17.9901 11.7996 17.0444 11.8418C16.1022 11.884 15.4589 12.0352 14.8964 12.2531C14.3128 12.4781 13.8206 12.784 13.3284 13.2762C12.8362 13.7684 12.5339 14.2641 12.3054 14.8441C12.0874 15.4066 11.9362 16.05 11.894 16.9957C11.8519 17.9379 11.8413 18.2402 11.8413 20.6449C11.8413 23.0496 11.8519 23.352 11.894 24.2977C11.9362 25.2398 12.0874 25.8832 12.3054 26.4492C12.5304 27.0328 12.8362 27.525 13.3284 28.0172C13.8206 28.5094 14.3163 28.8117 14.8964 29.0402C15.4589 29.2582 16.1022 29.4094 17.0479 29.4516C17.9937 29.4937 18.2925 29.5043 20.7007 29.5043C23.1089 29.5043 23.4077 29.4937 24.3534 29.4516C25.2956 29.4094 25.939 29.2582 26.505 29.0402C27.0886 28.8152 27.5808 28.5094 28.0729 28.0172C28.5651 27.525 28.8675 27.0293 29.096 26.4492C29.314 25.8867 29.4651 25.2434 29.5073 24.2977C29.5495 23.352 29.5601 23.0531 29.5601 20.6449C29.5601 18.2367 29.5495 17.9379 29.5073 16.9922C29.4651 16.05 29.314 15.4066 29.096 14.8406C28.871 14.257 28.5651 13.7648 28.0729 13.2727C27.5808 12.7805 27.0851 12.4781 26.505 12.2496C25.9425 12.0316 25.2991 11.8805 24.3534 11.8383C23.4042 11.7996 23.1019 11.7891 20.6972 11.7891Z" fill="#4A4A4A"/>
<path d="M20.6972 16.0957C18.187 16.0957 16.1479 18.1312 16.1479 20.6449C16.1479 23.1586 18.187 25.1941 20.6972 25.1941C23.2073 25.1941 25.2464 23.1551 25.2464 20.6449C25.2464 18.1348 23.2073 16.0957 20.6972 16.0957ZM20.6972 23.598C19.0659 23.598 17.744 22.2762 17.744 20.6449C17.744 19.0137 19.0659 17.6918 20.6972 17.6918C22.3284 17.6918 23.6503 19.0137 23.6503 20.6449C23.6503 22.2762 22.3284 23.598 20.6972 23.598Z" fill="#4A4A4A"/>
<path d="M25.4255 16.9789C26.0119 16.9789 26.4872 16.5036 26.4872 15.9172C26.4872 15.3308 26.0119 14.8555 25.4255 14.8555C24.8391 14.8555 24.3638 15.3308 24.3638 15.9172C24.3638 16.5036 24.8391 16.9789 25.4255 16.9789Z" fill="#4A4A4A"/>
</g>
<defs>
<clipPath id="clip0_684_12494">
<rect width="18" height="18" fill="white" transform="translate(11.6973 11.6445)"/>
</clipPath>
</defs>
</svg>
