<svg width="41" height="41" viewBox="0 0 41 41" fill="none" xmlns="http://www.w3.org/2000/svg">
<rect x="1.19727" y="1.49609" width="39" height="39" rx="19.5" stroke="#DDDDDD"/>
<g clip-path="url(#clip0_684_12511)">
<path d="M18.8408 23.3309L23.7064 20.8137L18.8408 18.2754V23.3309Z" fill="white"/>
<path opacity="0.12" d="M18.8408 18.2754L23.1088 21.123L23.7064 20.8137L18.8408 18.2754Z" fill="#420000"/>
<path d="M29.5075 17.3961C29.5075 17.3961 29.3318 16.1586 28.7906 15.6102C28.1088 14.893 27.3427 14.893 26.9843 14.8508C24.4751 14.668 20.7008 14.668 20.7008 14.668H20.6938C20.6938 14.668 16.9194 14.668 14.3962 14.8508C14.0448 14.893 13.2787 14.893 12.5899 15.6102C12.0557 16.1586 11.88 17.3961 11.88 17.3961C11.88 17.3961 11.6973 18.8586 11.6973 20.3141V21.6781C11.6973 23.1336 11.88 24.5891 11.88 24.5891C11.88 24.5891 12.0557 25.8266 12.5969 26.375C13.2787 27.0922 14.1783 27.0711 14.579 27.1414C16.0198 27.282 20.6938 27.3242 20.6938 27.3242C20.6938 27.3242 24.4751 27.3172 26.9913 27.1344C27.3427 27.0922 28.1088 27.0922 28.7976 26.375C29.3388 25.8266 29.5145 24.5891 29.5145 24.5891C29.5145 24.5891 29.6973 23.1336 29.6973 21.6781V20.3141C29.6902 18.8586 29.5075 17.3961 29.5075 17.3961ZM18.8382 23.3305V18.275L23.702 20.8133L18.8382 23.3305Z" fill="#4A4A4A"/>
</g>
<defs>
<clipPath id="clip0_684_12511">
<rect width="18" height="12.6562" fill="white" transform="translate(11.6973 14.668)"/>
</clipPath>
</defs>
</svg>
