<svg width="20" height="20" viewBox="0 0 20 20" fill="none" xmlns="http://www.w3.org/2000/svg">
<path d="M11.2251 6.27462C11.4691 6.5187 11.8648 6.5187 12.1089 6.27462L12.7086 5.6749V14.166C12.7086 14.5112 12.9885 14.791 13.3336 14.791C13.6788 14.791 13.9586 14.5112 13.9586 14.166V5.6749L14.5584 6.27462C14.8025 6.5187 15.1981 6.5187 15.4422 6.27462C15.6863 6.03055 15.6863 5.63481 15.4422 5.39074L13.7756 3.72407C13.5315 3.48 13.1358 3.48 12.8917 3.72407L11.2251 5.39074C10.981 5.63481 10.981 6.03055 11.2251 6.27462Z" fill="#231F20"/>
<path d="M11.2251 6.27462C11.4691 6.5187 11.8648 6.5187 12.1089 6.27462L12.7086 5.6749V14.166C12.7086 14.5112 12.9885 14.791 13.3336 14.791C13.6788 14.791 13.9586 14.5112 13.9586 14.166V5.6749L14.5584 6.27462C14.8025 6.5187 15.1981 6.5187 15.4422 6.27462C15.6863 6.03055 15.6863 5.63481 15.4422 5.39074L13.7756 3.72407C13.5315 3.48 13.1358 3.48 12.8917 3.72407L11.2251 5.39074C10.981 5.63481 10.981 6.03055 11.2251 6.27462Z" fill="black" fill-opacity="0.2"/>
<path d="M7.29166 14.3251L7.89139 13.7254C8.13546 13.4813 8.53116 13.4813 8.77525 13.7254C9.01933 13.9695 9.01933 14.3652 8.77525 14.6092L7.10861 16.2759C6.86453 16.52 6.4688 16.52 6.22472 16.2759L4.55806 14.6092C4.31398 14.3652 4.31398 13.9695 4.55806 13.7254C4.80213 13.4813 5.19786 13.4813 5.44194 13.7254L6.04166 14.3251V5.83398C6.04166 5.48881 6.32149 5.20898 6.66666 5.20898C7.01184 5.20898 7.29166 5.48881 7.29166 5.83398V14.3251Z" fill="#231F20"/>
<path d="M7.29166 14.3251L7.89139 13.7254C8.13546 13.4813 8.53116 13.4813 8.77525 13.7254C9.01933 13.9695 9.01933 14.3652 8.77525 14.6092L7.10861 16.2759C6.86453 16.52 6.4688 16.52 6.22472 16.2759L4.55806 14.6092C4.31398 14.3652 4.31398 13.9695 4.55806 13.7254C4.80213 13.4813 5.19786 13.4813 5.44194 13.7254L6.04166 14.3251V5.83398C6.04166 5.48881 6.32149 5.20898 6.66666 5.20898C7.01184 5.20898 7.29166 5.48881 7.29166 5.83398V14.3251Z" fill="black" fill-opacity="0.2"/>
</svg>
