<svg width="75" height="73" viewBox="0 0 75 73" fill="none" xmlns="http://www.w3.org/2000/svg">
<path d="M29.642 6.32013C31.6773 -1.73299 43.1191 -1.733 45.1543 6.32012L45.4013 7.29728C46.6229 12.1309 51.9201 14.6819 56.4608 12.6233L57.3787 12.2071C64.9439 8.77724 72.0778 17.7228 67.0505 24.3351L66.4405 25.1374C63.4231 29.1062 64.7314 34.8382 69.172 37.1048L70.0697 37.563C77.468 41.3391 74.922 52.4941 66.6179 52.6863L65.6103 52.7096C60.626 52.825 56.9602 57.4218 57.9568 62.3067L58.1583 63.2943C59.8188 71.4329 49.51 76.3974 44.1822 70.0248L43.5358 69.2516C40.3379 65.4266 34.4585 65.4266 31.2606 69.2516L30.6142 70.0248C25.2864 76.3974 14.9776 71.4329 16.6381 63.2943L16.8395 62.3067C17.8362 57.4218 14.1704 52.825 9.18613 52.7096L8.17852 52.6863C-0.125568 52.4941 -2.67163 41.3391 4.72671 37.563L5.62442 37.1048C10.065 34.8382 11.3733 29.1062 8.3559 25.1374L7.74589 24.3351C2.71864 17.7229 9.85252 8.77724 17.4176 12.2071L18.3356 12.6233C22.8763 14.6819 28.1735 12.1309 29.3951 7.29728L29.642 6.32013Z" fill="#D7282F"/>
</svg>
