<svg width="102" height="100" viewBox="0 0 102 100" fill="none" xmlns="http://www.w3.org/2000/svg">
<rect y="4" width="97" height="93" rx="46.5" fill="#F5F5F5"/>
<path d="M56.5002 40H41.4998C40.125 40 39 41.1257 39 42.5004V57.4996C39 58.8736 40.125 60 41.4998 60H56.5002C57.875 60 59 58.8736 59 57.4996V42.5004C59 41.1257 57.875 40 56.5002 40ZM54.0004 54.9993H43.9996V45H54.0004V54.9993Z" fill="#9A9A9A"/>
<path d="M69 43H64V58H69V43Z" fill="#9A9A9A"/>
<path d="M79 45H74V55H79V45Z" fill="#9A9A9A"/>
<path d="M34 43H29V58H34V43Z" fill="#9A9A9A"/>
<path d="M24 45H19V55H24V45Z" fill="#9A9A9A"/>
</svg>
