<svg width="22" height="21" viewBox="0 0 22 21" fill="none" xmlns="http://www.w3.org/2000/svg">
<rect x="1.49805" y="0.5" width="20" height="20" rx="9.99998" fill="white"/>
<path fill-rule="evenodd" clip-rule="evenodd" d="M11.4981 5C11.6601 5 11.8155 5.06439 11.9302 5.17899L14.3746 7.62342C14.6132 7.86208 14.6132 8.24901 14.3746 8.48766C14.136 8.72631 13.749 8.72631 13.5104 8.48766L12.1092 7.08645V12.3333C12.1092 12.6708 11.8356 12.9444 11.4981 12.9444C11.1605 12.9444 10.887 12.6708 10.887 12.3333V7.08645L9.48573 8.48766C9.24708 8.72631 8.86014 8.72631 8.62149 8.48766C8.38284 8.24901 8.38284 7.86208 8.62149 7.62342L11.0659 5.17899C11.1805 5.06439 11.336 5 11.4981 5ZM6.60918 11.7222C6.94668 11.7222 7.22029 11.9958 7.22029 12.3333C7.22029 12.9305 7.22325 13.1398 7.25551 13.3021C7.40017 14.0293 7.96868 14.5978 8.69595 14.7425C8.85816 14.7748 9.06752 14.7777 9.66472 14.7777H13.3314C13.9286 14.7777 14.1379 14.7748 14.3001 14.7425C15.0274 14.5978 15.5959 14.0293 15.7406 13.3021C15.7728 13.1398 15.7758 12.9305 15.7758 12.3333C15.7758 11.9958 16.0494 11.7222 16.3869 11.7222C16.7244 11.7222 16.998 11.9958 16.998 12.3333C16.998 12.3573 16.998 12.3808 16.998 12.404C16.9982 12.9037 16.9982 13.2442 16.9393 13.5405C16.6982 14.7526 15.7507 15.7001 14.5386 15.9412C14.2423 16.0002 13.9017 16.0001 13.4022 16C13.3789 16 13.3553 16 13.3314 16H9.66472C9.64078 16 9.6172 16 9.59397 16C9.09433 16.0001 8.75377 16.0002 8.4575 15.9412C7.2454 15.7001 6.29788 14.7526 6.05678 13.5405C5.99785 13.2442 5.99793 12.9037 5.99806 12.4041C5.99806 12.3808 5.99807 12.3573 5.99807 12.3333C5.99807 11.9958 6.27167 11.7222 6.60918 11.7222Z" fill="#231F20"/>
<rect x="1.49805" y="0.5" width="20" height="20" rx="9.99998" stroke="#CECECE"/>
</svg>
