<svg width="227" height="227" viewBox="0 0 227 227" fill="none" xmlns="http://www.w3.org/2000/svg">
<path fill-rule="evenodd" clip-rule="evenodd" d="M223.984 113.667C223.984 174.418 174.735 223.667 113.984 223.667C53.2326 223.667 3.98389 174.418 3.98389 113.667C3.98389 52.9154 53.2326 3.66675 113.984 3.66675C174.735 3.66675 223.984 52.9154 223.984 113.667ZM117.925 84.8736C107.227 89.3237 85.8434 98.534 53.7762 112.505C48.569 114.576 45.8412 116.603 45.5928 118.583C45.1732 121.931 49.3654 123.249 55.074 125.044C55.8505 125.288 56.6551 125.541 57.4798 125.809C63.0963 127.635 70.6514 129.771 74.5789 129.855C78.1416 129.932 82.118 128.464 86.508 125.449C116.469 105.224 131.936 95.0019 132.906 94.7808C133.591 94.6257 134.541 94.4299 135.184 95.0019C135.828 95.5739 135.764 96.6563 135.696 96.9467C135.281 98.7177 118.825 114.017 110.309 121.933C107.655 124.402 105.771 126.152 105.386 126.552C104.524 127.448 103.645 128.295 102.8 129.109C97.583 134.139 93.6692 137.911 103.017 144.071C107.508 147.031 111.103 149.478 114.689 151.92C118.605 154.588 122.511 157.248 127.566 160.561C128.853 161.405 130.082 162.281 131.28 163.135C135.838 166.384 139.932 169.304 144.991 168.837C147.93 168.568 150.966 165.803 152.508 157.56C156.152 138.079 163.316 95.8687 164.971 78.4757C165.116 76.9518 164.934 75.0015 164.786 74.1454C164.64 73.2893 164.334 72.0694 163.221 71.1664C161.903 70.097 159.868 69.8715 158.959 69.8868C154.821 69.9605 148.473 72.1676 117.925 84.8736Z" stroke="#40B3E0" stroke-width="6" stroke-linejoin="round"/>
</svg>
