<svg width="16" height="17" viewBox="0 0 16 17" fill="none" xmlns="http://www.w3.org/2000/svg">
<path fill-rule="evenodd" clip-rule="evenodd" d="M13.4423 12.1364C14.1615 11.06 14.5454 9.79452 14.5454 8.49996C14.5358 6.76695 13.8432 5.10764 12.6177 3.8822C11.3923 2.65676 9.73297 1.96409 7.99996 1.95454C6.7054 1.95454 5.43991 2.33842 4.36352 3.05764C3.28713 3.77686 2.44819 4.79912 1.95278 5.99514C1.45737 7.19115 1.32775 8.50722 1.58031 9.77691C1.83287 11.0466 2.45626 12.2129 3.37165 13.1283C4.28704 14.0437 5.45333 14.6671 6.72301 14.9196C7.9927 15.1722 9.30876 15.0425 10.5048 14.5471C11.7008 14.0517 12.7231 13.2128 13.4423 12.1364ZM14.6517 4.05542C15.5307 5.37101 15.9999 6.91772 15.9999 8.49996C16.0047 9.55188 15.8011 10.5943 15.4008 11.5671C15.0004 12.5399 14.4113 13.4237 13.6675 14.1675C12.9237 14.9113 12.0399 15.5004 11.0671 15.9008C10.0943 16.3011 9.05188 16.5047 7.99996 16.4999C6.41772 16.4999 4.87101 16.0307 3.55542 15.1517C2.23984 14.2726 1.21446 13.0232 0.608964 11.5614C0.00346629 10.0996 -0.15496 8.49109 0.15372 6.93925C0.462401 5.38741 1.22432 3.96195 2.34314 2.84314C3.46195 1.72432 4.88741 0.962401 6.43925 0.65372C7.99109 0.34504 9.59961 0.503466 11.0614 1.10896C12.5232 1.71446 13.7726 2.73984 14.6517 4.05542ZM9.45449 4.86362C9.45449 5.66694 8.80327 6.31816 7.99995 6.31816C7.19663 6.31816 6.54541 5.66694 6.54541 4.86362C6.54541 4.0603 7.19663 3.40908 7.99995 3.40908C8.80327 3.40908 9.45449 4.0603 9.45449 4.86362ZM7.99995 9.9545C8.80327 9.9545 9.45449 9.30328 9.45449 8.49996C9.45449 7.69664 8.80327 7.04542 7.99995 7.04542C7.19663 7.04542 6.54541 7.69664 6.54541 8.49996C6.54541 9.30328 7.19663 9.9545 7.99995 9.9545ZM9.45449 12.1363C9.45449 12.9396 8.80327 13.5908 7.99995 13.5908C7.19663 13.5908 6.54541 12.9396 6.54541 12.1363C6.54541 11.333 7.19663 10.6818 7.99995 10.6818C8.80327 10.6818 9.45449 11.333 9.45449 12.1363Z" fill="#00AF6A"/>
</svg>
