<svg width="19" height="19" viewBox="0 0 19 19" fill="none" xmlns="http://www.w3.org/2000/svg">
<path d="M6.49854 15.9941L6.90452 15.9795C8.03666 15.946 8.77538 17.6536 9.62502 17.6536H16.3216C17.1587 17.6536 17.3219 16.421 17.3115 15.9104C17.3115 15.9104 18.3453 15.4479 17.8723 13.5854C18.0705 13.398 18.2263 13.1703 18.3292 12.9176C18.4321 12.6649 18.4797 12.3931 18.4687 12.1206C18.4781 11.8572 18.4331 11.5948 18.3366 11.3496C18.2401 11.1044 18.0942 10.8817 17.9079 10.6954C18.2626 10.271 18.4607 9.73757 18.4687 9.18451C18.4687 8.28465 17.6777 7.77194 16.8364 7.77194H14.3775C12.2346 7.77194 12.4146 6.64189 12.4146 6.64189C12.4146 6.64189 12.1718 3.68492 11.4185 2.33095C10.4726 0.619124 8.57867 1.19043 9.28182 3.40031C9.80708 5.02842 7.39839 7.48106 6.52783 8.30767" fill="#FFDAC6"/>
<path d="M5.67 7.1629H1.23977C0.402693 7.1629 0.375488 7.79071 0.375488 8.55873V15.653C0.375488 16.4231 0.400601 17.0467 1.23977 17.0467H5.67C6.50707 17.0467 6.53428 16.4189 6.53428 15.653V8.55873C6.53428 7.78862 6.51126 7.1629 5.67 7.1629Z" fill="#D7282F"/>
<path d="M3.4558 15.4647C3.89036 15.4647 4.24265 15.1124 4.24265 14.6778C4.24265 14.2433 3.89036 13.891 3.4558 13.891C3.02123 13.891 2.66895 14.2433 2.66895 14.6778C2.66895 15.1124 3.02123 15.4647 3.4558 15.4647Z" fill="#FFEB97"/>
<path d="M16.3113 18.0303H9.62516C9.08315 18.0303 8.64369 17.595 8.21678 17.1744C7.78987 16.7538 7.3797 16.3373 6.9214 16.3561L6.51961 16.3687L6.48612 15.6174L6.88792 15.6049C7.65385 15.5672 8.23352 16.1427 8.73577 16.6387C9.05386 16.9526 9.38241 17.2665 9.6147 17.2665H16.3113C16.3624 17.2676 16.4132 17.2578 16.4601 17.2375C16.5071 17.2173 16.5491 17.1872 16.5834 17.1493C16.847 16.8814 16.9307 16.2452 16.9224 15.9083V15.6572L17.1526 15.5546C17.1756 15.5421 17.8829 15.1675 17.5 13.6712L17.4246 13.3803L17.6527 13.259C17.9393 12.9443 18.0898 12.529 18.0713 12.1038C18.0807 11.8957 18.0486 11.6879 17.9767 11.4924C17.9049 11.2969 17.7947 11.1177 17.6527 10.9654L17.3535 10.7122L17.6192 10.4234C17.9085 10.0679 18.0706 9.62595 18.0796 9.16775C18.0796 8.45624 17.4288 8.13187 16.824 8.13187H14.3777C13.3983 8.13187 12.7035 7.90586 12.3289 7.46221C12.1267 7.23154 12.0217 6.93154 12.0359 6.62513C12.0066 6.30914 11.7534 3.69536 11.09 2.49625C10.7092 1.82241 10.1839 1.60686 9.86164 1.74916C9.53936 1.89146 9.35939 2.41255 9.6419 3.28729C10.2027 5.02841 8.09331 7.35339 6.78747 8.58389L6.27686 8.02724C7.80033 6.59165 9.2987 4.65172 8.93039 3.51121C8.47418 2.09864 8.98898 1.30342 9.55819 1.0523C10.186 0.784431 11.1214 1.01044 11.7451 2.13631C12.5277 3.54469 12.7768 6.47655 12.7914 6.60002V6.64606V6.69001C12.7941 6.80365 12.8397 6.91206 12.9191 6.99345C13.0509 7.13994 13.4192 7.38478 14.3839 7.38478H16.824C17.9687 7.38478 18.833 8.1528 18.833 9.17403C18.8275 9.7046 18.6699 10.2225 18.3789 10.6661C18.6815 11.0869 18.8407 11.5939 18.833 12.1122C18.8421 12.6932 18.644 13.2585 18.2743 13.7068C18.5798 15.1717 18.0085 15.8497 17.6716 16.1155C17.6527 16.488 17.5586 17.2393 17.1212 17.6871C17.0166 17.7963 16.8908 17.8831 16.7516 17.9421C16.6123 18.0011 16.4625 18.0311 16.3113 18.0303Z" fill="#576065"/>
<path d="M5.67022 17.4234H1.23999C-0.000976562 17.4234 -0.000976562 16.3582 -0.000976562 15.653V8.55876C-0.000976562 7.85353 -0.000976562 6.78625 1.23999 6.78625H5.67022C6.91118 6.78625 6.91118 7.85353 6.91118 8.55876V15.653C6.9049 16.3582 6.9049 17.4234 5.67022 17.4234ZM1.23999 7.53962C0.844471 7.53962 0.752392 7.6338 0.752392 8.55876V15.653C0.752392 16.5759 0.844471 16.67 1.23999 16.67H5.67022C6.06573 16.67 6.15781 16.5759 6.15781 15.653V8.55876C6.15781 7.6338 6.06573 7.53962 5.67022 7.53962H1.23999Z" fill="#576065"/>
</svg>
