<svg width="31" height="31" viewBox="0 0 31 31" fill="none" xmlns="http://www.w3.org/2000/svg">
<path d="M13.9674 19.6071C13.7265 19.5887 13.5026 19.4765 13.3434 19.2946L9.5992 15.5446C9.51578 15.3697 9.48856 15.1732 9.5213 14.9821C9.55403 14.791 9.6451 14.6148 9.78198 14.4777C9.91885 14.3406 10.0948 14.2493 10.2856 14.2166C10.4763 14.1838 10.6726 14.2111 10.8473 14.2946L13.93 17.3821L24.5759 6.79465C24.7505 6.7111 24.9468 6.68384 25.1375 6.71663C25.3283 6.74942 25.5043 6.84063 25.6411 6.97772C25.778 7.1148 25.8691 7.29102 25.9018 7.48209C25.9345 7.67318 25.9073 7.86972 25.8239 8.04465L14.5914 19.2946C14.4322 19.4765 14.2082 19.5887 13.9674 19.6071Z" fill="#4A4A4A"/>
<path d="M15.8352 26.794C13.8277 26.7907 11.8577 26.2487 10.1302 25.2243C8.40281 24.1998 6.98108 22.7305 6.013 20.969C5.27712 19.6565 4.82232 18.2048 4.67758 16.7065C4.44916 14.5091 4.87179 12.293 5.89274 10.3346C6.9137 8.37619 8.48779 6.76221 10.4186 5.694C11.7291 4.95697 13.1785 4.50146 14.6745 4.3565C16.1648 4.19592 17.6722 4.34052 19.1051 4.7815C19.2329 4.80709 19.3541 4.85915 19.4607 4.93436C19.5673 5.00956 19.657 5.10625 19.7242 5.21822C19.7913 5.33019 19.8344 5.45497 19.8506 5.58457C19.8667 5.71416 19.8557 5.84571 19.8181 5.97079C19.7806 6.09586 19.7173 6.2117 19.6324 6.31086C19.5476 6.41004 19.443 6.49036 19.3254 6.54667C19.2077 6.603 19.0795 6.63407 18.9492 6.63791C18.8189 6.64176 18.6892 6.61829 18.5685 6.569C17.3561 6.2039 16.0832 6.0849 14.8243 6.219C13.58 6.34661 12.3743 6.72502 11.2798 7.3315C10.2254 7.91412 9.29307 8.69506 8.53408 9.6315C7.75262 10.5854 7.16906 11.686 6.8176 12.8686C6.46615 14.0513 6.35383 15.2923 6.48726 16.519C6.61468 17.7652 6.99251 18.9728 7.59803 20.069C8.17975 21.1251 8.95948 22.0588 9.89446 22.819C10.8469 23.6017 11.9457 24.1861 13.1266 24.5381C14.3074 24.8901 15.5464 25.0026 16.7713 24.869C18.0156 24.7413 19.2212 24.363 20.3157 23.7565C21.3702 23.1738 22.3024 22.393 23.0615 21.4565C23.8429 20.5026 24.4265 19.402 24.7779 18.2193C25.1294 17.0367 25.2417 15.7957 25.1083 14.569C25.0959 14.4401 25.1092 14.3101 25.147 14.1863C25.1849 14.0626 25.2467 13.9475 25.3291 13.8477C25.4113 13.7478 25.5124 13.6652 25.6266 13.6046C25.7408 13.5438 25.8657 13.5063 25.9944 13.494C26.1231 13.4817 26.2529 13.4948 26.3764 13.5328C26.5 13.5707 26.6149 13.6327 26.7145 13.7151C26.8142 13.7975 26.8967 13.8988 26.9573 14.0131C27.0179 14.1275 27.0554 14.2526 27.0677 14.3815C27.295 16.5802 26.8705 18.7972 25.8473 20.7558C24.824 22.7143 23.2473 24.3276 21.3142 25.394C19.9898 26.1612 18.5179 26.6383 16.9959 26.794C16.609 26.794 16.2096 26.794 15.8352 26.794Z" fill="#4A4A4A"/>
</svg>
