<svg width="93" height="67" viewBox="0 0 93 67" fill="none" xmlns="http://www.w3.org/2000/svg">
<path d="M46.5174 0.770508C28.7565 0.770508 14.3257 15.2013 14.3257 32.9621C14.3257 50.7229 28.7565 65.1567 46.5174 65.1567C64.2782 65.1567 78.712 50.7229 78.712 32.9621C78.712 15.2013 64.2782 0.770508 46.5174 0.770508ZM13.0772 2.16573C12.6849 2.16573 12.2927 2.31512 11.9934 2.61466C4.86519 10.7163 0.529297 21.3341 0.529297 32.9619C0.529297 44.7775 4.99976 55.5555 12.3347 63.7046H8.49038C7.64376 63.7046 6.95745 64.391 6.95745 65.2375C6.95745 66.0842 7.64376 66.7705 8.49038 66.7705H16.2449C17.0916 66.774 17.7807 66.0903 17.7838 65.2436V57.3873C17.7838 56.5406 17.0975 55.8543 16.2509 55.8543C15.4043 55.8543 14.7179 56.5406 14.7179 57.3873V61.7885C7.80944 54.1722 3.59816 44.0669 3.59816 32.9619C3.59816 22.1634 7.58343 12.3128 14.1551 4.77335C14.669 4.11541 14.7597 3.21333 14.1608 2.61466C13.8615 2.31512 13.4695 2.16573 13.0772 2.16573ZM76.7928 2.16573C75.9461 2.1622 75.257 2.84598 75.2539 3.69268V11.549C75.2539 12.3955 75.9402 13.0819 76.7868 13.0819C77.6335 13.0819 78.3198 12.3955 78.3198 11.549V7.14776C85.2283 14.7641 89.4396 24.8692 89.4396 35.9741C89.4396 46.7727 85.4543 56.6232 78.8827 64.1627C78.3688 64.8206 78.2778 65.7227 78.8769 66.3214C79.1762 66.6209 79.5684 66.7703 79.9607 66.7703C80.353 66.7703 80.7452 66.6204 81.0445 66.3214C88.1727 58.2198 92.5086 47.602 92.5086 35.9741C92.5086 24.1586 88.0382 13.3805 80.7032 5.23147H84.5475C85.3941 5.23147 86.0805 4.54516 86.0805 3.69851C86.0805 2.85187 85.3941 2.16573 84.5475 2.16573H76.7928ZM44.9874 3.91422C44.9874 4.96608 44.9874 6.01804 44.9874 7.06996C44.9428 9.15786 48.0966 9.15786 48.0503 7.06996C48.0503 6.01804 48.0503 4.96608 48.0503 3.91422C62.924 4.68769 74.7941 16.5556 75.5683 31.4292C74.5164 31.4292 73.4645 31.4292 72.4126 31.4292C70.3247 31.3828 70.3247 34.5414 72.4126 34.4951C73.4645 34.4951 74.5164 34.4951 75.5683 34.4951C74.7948 49.3683 62.9261 61.2381 48.0533 62.013C48.0533 60.9601 48.0533 59.9072 48.0533 58.8543C48.0979 56.7664 44.9428 56.7664 44.9874 58.8543C44.9874 59.9072 44.9874 60.9601 44.9874 62.013C30.1125 61.2402 18.2429 49.3698 17.4694 34.4951C18.5213 34.4951 19.5732 34.4951 20.6251 34.4951C22.713 34.5414 22.713 31.3828 20.6251 31.4292C19.5732 31.4292 18.5213 31.4292 17.4694 31.4292C18.2437 16.5552 30.113 4.68694 44.9874 3.91422ZM46.5233 11.7015C45.6803 11.7189 45.0074 12.4094 45.0174 13.2525L45.0353 33.1478C45.0631 33.7656 45.7087 34.4707 46.5174 34.4891H66.1102C67.2236 34.5893 67.7809 33.7756 67.7809 32.9621C67.7809 32.1487 67.2237 31.3352 66.1102 31.4352H48.0832V13.2525C48.0937 12.3883 47.3875 11.6864 46.5233 11.7015Z" fill="#D7282F"/>
</svg>
