<svg width="48" height="60" viewBox="0 0 48 60" fill="none" xmlns="http://www.w3.org/2000/svg">
<g clip-path="url(#clip0_112_580)">
<path d="M9.94187 60C4.46009 60 0 55.6681 0 50.3673V9.61368C0 4.31286 4.46009 0 9.94187 0H38.0385C43.5203 0 47.9803 4.31286 47.9803 9.61368V50.3673C47.9803 55.6681 43.5203 59.981 38.0385 59.981H9.94187V60ZM9.94187 2.26092C5.75686 2.26092 2.33811 5.56681 2.33811 9.61368V50.3673C2.33811 54.4142 5.75686 57.7201 9.94187 57.7391H38.0385C42.2235 57.7391 45.6422 54.4332 45.6619 50.3863V9.61368C45.6619 5.56681 42.2431 2.26092 38.0581 2.24193H9.94187V2.26092ZM11.7102 49.7973C11.0618 49.7973 10.551 49.2844 10.551 48.6764C10.551 48.0684 11.0815 47.5554 11.7102 47.5554H36.2898C36.9382 47.5554 37.449 48.0684 37.449 48.6764C37.449 49.2844 36.9185 49.7973 36.2898 49.7973H11.7102ZM11.7102 43.0146C11.0618 43.0146 10.551 42.5016 10.551 41.8936C10.551 41.2856 11.0815 40.7726 11.7102 40.7726H36.2898C36.9382 40.7726 37.449 41.2856 37.449 41.8936C37.449 42.5016 36.9185 43.0146 36.2898 43.0146H11.7102ZM24.3045 32.8119C23.7937 32.7929 23.4007 32.4129 23.3811 31.9189V31.558V29.772L22.8113 29.753C21.1019 29.677 19.4711 29.031 18.2137 27.9101L17.9975 27.6821C17.8011 27.4921 17.7028 27.2451 17.7028 26.9791C17.7028 26.7131 17.8207 26.4661 17.9975 26.2761C18.194 26.0861 18.4494 25.9911 18.7245 25.9911C18.9996 25.9911 19.255 26.0861 19.4515 26.2761L19.4908 26.3141L19.5104 26.3331C20.709 27.3591 22.2415 27.9291 23.8526 27.9291C23.9902 27.9291 24.1277 27.9291 24.2456 27.9101C27.625 27.9101 28.018 26.0291 28.018 25.1932C28.0573 24.4902 27.8019 23.8062 27.291 23.2932L27.2714 23.2742L27.2517 23.2552C26.7212 22.8182 26.0336 22.5522 25.3262 22.5143L23.1453 22.2293H23.1257C21.9468 22.1343 20.8661 21.6783 19.982 20.9373C19.1961 20.1393 18.8031 19.0374 18.8621 17.9354V17.9164V17.8974C18.8228 15.6175 20.5321 13.6605 22.8702 13.3566L23.3811 13.2996V11.0196C23.44 10.5446 23.833 10.2027 24.3438 10.2027C24.835 10.2217 25.228 10.5826 25.2869 11.0576V13.2426L25.8371 13.2806C27.3893 13.3756 28.8629 14.0025 29.9828 15.0475C30.1989 15.2375 30.3168 15.4845 30.3168 15.7505C30.3168 16.2635 29.8846 16.7004 29.3344 16.7004C29.079 16.7004 28.8236 16.6054 28.6271 16.4155L28.2145 15.9975L28.1555 16.0545C27.1928 15.3895 26.0532 15.0285 24.8743 15.0285C24.7368 15.0285 24.5993 15.0285 24.4617 15.0475C22.1433 15.0475 21.1019 16.4535 21.1019 17.8214C21.0823 18.4294 21.3573 19.0564 21.8092 19.4934L21.8289 19.5124C22.3987 19.9683 23.0864 20.2533 23.8133 20.3293L25.955 20.6333H25.9746C27.1142 20.7093 28.1948 21.1273 29.079 21.8303C29.9239 22.7042 30.3758 23.8822 30.2972 25.0982V25.1362C30.2775 27.5491 28.2931 29.563 25.8174 29.734L25.2673 29.772V31.7479V31.9759C25.2476 32.4699 24.835 32.8689 24.3242 32.8689L24.3045 32.8119Z" fill="#D7282F"/>
</g>
<defs>
<clipPath id="clip0_112_580">
<rect width="48" height="60" fill="white"/>
</clipPath>
</defs>
</svg>
