<svg width="60" height="60" viewBox="0 0 60 60" fill="none" xmlns="http://www.w3.org/2000/svg">
<g clip-path="url(#clip0_111_548)">
<path d="M29.9914 60C29.6808 60 29.3874 59.9136 29.025 59.7407C20.2761 55.3155 11.0785 50.7174 0.931838 45.6353C0.258844 45.2895 0 44.8747 0 44.1141C0.0172563 40.605 0.0172563 37.0614 0.0172563 33.6041C0.0172563 32.3941 0.0172563 31.1841 0.0172563 29.9741C0.0172563 28.7468 0.0172563 27.5194 0.0172563 26.2921C0.0172563 22.9559 0.0172563 19.4987 0 16.0933C0 15.1772 0.293356 14.6759 1.1044 14.2783C9.52545 10.0778 18.4124 5.63526 29.0423 0.259291C29.4047 0.0691443 29.7153 0 30.0259 0C30.3365 0 30.6299 0.0864304 30.975 0.259291C41.3115 5.47969 50.44 10.0605 58.8956 14.2783C59.7066 14.6759 60 15.1772 60 16.0933C59.9655 25.6353 59.9655 34.987 60 43.9067C60 44.8401 59.6894 45.3414 58.8438 45.7563C50.4918 49.9222 41.3805 54.4857 30.975 59.7407C30.6126 59.9136 30.302 60 29.9914 60ZM37.4461 27.4676C37.3598 27.5022 37.2735 27.5367 37.1872 27.5713C37.0319 27.6404 36.8939 27.6923 36.7731 27.7615C36.2554 28.0207 35.755 28.28 35.2545 28.522C34.1501 29.0752 33.0112 29.6629 31.8723 30.1988C31.2683 30.4927 31.0267 30.8729 31.0267 31.5298C31.044 38.1504 31.044 44.8747 31.044 51.3742V57.3207L31.5272 57.0959C31.6307 57.0441 31.717 57.0095 31.8033 56.9749C31.9758 56.9058 32.1139 56.8366 32.2519 56.7675L37.5151 54.1227C43.9344 50.9075 50.5781 47.5713 57.1182 44.3042C57.6704 44.0277 57.8947 43.6474 57.8947 43.0078C57.8775 36.3354 57.8775 29.5419 57.8775 22.9732V17.1651C57.8775 17.1651 56.497 17.8565 56.0483 18.0812C54.4607 18.8764 52.9767 19.6197 51.4754 20.3976C51.1475 20.5704 50.9922 21.0717 50.9922 21.3829C50.975 23.3708 50.975 25.4105 50.975 27.3639V30.7174C50.975 32.1348 50.975 33.6214 50.975 35.0562C50.975 35.592 50.7334 36.1798 50.0949 36.1971H50.0777C49.8016 36.1971 49.4564 36.0761 49.1803 35.8859C48.3348 35.3155 47.5237 34.7277 46.6609 34.1054C46.333 33.8807 46.0224 33.6387 45.6946 33.3967L45.4185 33.1893L45.2114 33.4659L45.0561 33.6733C44.9525 33.8116 44.849 33.9499 44.7627 34.0709C44.3486 34.6759 43.9344 35.2809 43.5203 35.8859C42.3641 37.5627 41.1734 39.2913 39.9827 40.9853C39.7412 41.3137 39.4133 41.5903 39.1544 41.6768C39.0509 41.7113 38.9474 41.7286 38.8438 41.7286C38.3089 41.7286 37.9293 41.2273 37.9293 40.5186C37.9293 37.6145 37.9293 34.7277 37.9293 31.8237V27.2429L37.4461 27.4676ZM2.13978 17.7355C2.13978 17.8047 2.12252 17.8565 2.12252 17.9084C2.10526 17.9948 2.10526 18.064 2.10526 18.1331V23.3708C2.10526 29.8704 2.10526 36.6119 2.08801 43.2325C2.08801 43.8894 2.51941 44.0968 2.79551 44.2351C8.92148 47.2947 15.0302 50.3717 21.1389 53.4313L27.8343 56.7848C27.9551 56.8539 28.0759 56.9058 28.2312 56.9749C28.3003 57.0095 28.3865 57.0441 28.4728 57.0787L28.956 57.3034V51.9965C28.956 45.255 28.956 38.2887 28.9733 31.4261C28.9733 30.8557 28.7662 30.5272 28.283 30.2679C21.7601 27.0009 15.1337 23.6819 8.71441 20.4667L3.22692 17.7182C3.10613 17.6664 2.98533 17.6145 2.84728 17.5454C2.77826 17.5108 2.70923 17.4935 2.62295 17.4589L2.19154 17.2688L2.13978 17.7355ZM48.4728 21.9533C48.4383 21.9706 48.4038 21.9706 48.3693 21.9879C48.3003 22.0052 48.214 22.0225 48.145 22.0743L46.9025 22.6966C44.8145 23.7511 42.6575 24.8228 40.5349 25.9118C40.2071 26.0847 40 26.5687 40 26.9144C39.9827 28.9023 39.9827 30.9075 39.9827 32.8436V37.2688L40.604 36.4564C40.6903 36.3526 40.742 36.2662 40.811 36.1971C40.9146 36.0588 41.0009 35.9378 41.0871 35.8341C41.5186 35.2118 41.95 34.5895 42.3814 33.9672C42.9681 33.1201 43.5548 32.2731 44.1415 31.4088C44.5729 30.7865 44.9008 30.7174 45.1079 30.7174C45.3667 30.7174 45.6601 30.8384 46.0052 31.0804C46.5401 31.4607 47.0578 31.8237 47.61 32.2213L48.9042 33.1547V21.8323L48.4728 21.9533ZM10.3883 12.1348C9.64625 12.1348 8.956 12.5497 8.283 12.9646C8.0069 13.1201 7.76531 13.2757 7.50647 13.3967C6.72994 13.777 5.93615 14.1746 5.12511 14.5895L3.55479 15.3846L3.9862 15.7131C4.03796 15.7476 4.07248 15.7822 4.10699 15.7995C4.15876 15.8341 4.19327 15.8686 4.24504 15.9032L5.67731 16.6119C13.4944 20.5359 21.5703 24.5981 29.5255 28.5739C29.6462 28.643 29.8016 28.6603 29.9741 28.6603C30.1639 28.6603 30.371 28.6085 30.5436 28.5393C32.1657 27.7442 33.805 26.9144 35.3753 26.1193L35.9103 25.8427C36.0138 25.7908 36.1173 25.7217 36.2036 25.6353C36.2381 25.6007 36.2899 25.5661 36.3244 25.5315L36.7731 25.2031L36.0311 24.8228C35.8758 24.7364 35.7377 24.6672 35.5824 24.5981L33.1665 23.3881C26.5056 20.0519 19.8447 16.6984 13.1838 13.3621C12.9422 13.2411 12.6833 13.0856 12.4245 12.93C11.786 12.5497 11.113 12.1348 10.3883 12.1348ZM21.415 6.62057C21.1907 6.62057 20.9664 6.67243 20.7938 6.75886C18.8956 7.69231 16.9629 8.66033 15.0992 9.59378L13.805 10.2506C13.7187 10.3025 13.6324 10.3544 13.5116 10.4062C13.4599 10.4408 13.3909 10.4754 13.3218 10.5099L12.8214 10.8038L13.3218 11.115C13.3909 11.1495 13.4254 11.1841 13.4771 11.2014C13.5634 11.2532 13.6152 11.2878 13.667 11.3224L15.7377 12.3596C23.2787 16.1452 31.0785 20.0691 38.7576 23.8894C38.9301 23.9758 39.1372 23.9931 39.2752 23.9931C39.4996 23.9931 39.7066 23.9412 39.8792 23.8548C41.7947 22.9213 43.7446 21.936 45.6083 20.9853L46.9198 20.3284C47.006 20.2766 47.0923 20.242 47.1959 20.1729C47.2476 20.1383 47.2994 20.121 47.3512 20.0864L47.8689 19.7926L47.3684 19.4987C47.3167 19.4641 47.2821 19.4468 47.2304 19.4123C47.1441 19.3604 47.0751 19.3258 47.006 19.2913L45.0043 18.2887C37.4461 14.4857 29.629 10.5618 21.9154 6.72429C21.7429 6.63786 21.5531 6.62057 21.415 6.62057ZM29.9741 2.36819C29.56 2.36819 29.1631 2.4892 28.6972 2.74849C27.7135 3.30164 26.7299 3.78565 25.6773 4.30423C25.2459 4.52895 24.7972 4.73639 24.3486 4.96111L23.7964 5.23768L24.3141 5.56612C24.3658 5.60069 24.4176 5.63526 24.4521 5.65255C24.5211 5.70441 24.5902 5.75627 24.6764 5.79084L26.3158 6.62057C33.9948 10.4754 41.9327 14.4685 49.767 18.3751C49.9569 18.4615 50.1639 18.4961 50.302 18.4961C50.5091 18.4961 50.7334 18.4443 50.8887 18.3751C52.1484 17.7701 53.4254 17.1305 54.6506 16.5082L55.5306 16.0588C55.6342 16.0069 55.7204 15.9551 55.824 15.8859C55.8758 15.8513 55.9275 15.8168 55.9793 15.7822L56.4625 15.4538L55.9448 15.1772L55.6514 15.0216C55.4616 14.9179 55.3063 14.8315 55.1337 14.7623C53.3046 13.8462 51.4582 12.9127 49.629 11.9965C43.6066 8.97148 37.377 5.85998 31.2683 2.74849C30.7852 2.47191 30.3883 2.36819 29.9741 2.36819Z" fill="#D7282F"/>
</g>
<defs>
<clipPath id="clip0_111_548">
<rect width="60" height="60" fill="white"/>
</clipPath>
</defs>
</svg>
