<svg width="60" height="60" viewBox="0 0 60 60" fill="none" xmlns="http://www.w3.org/2000/svg">
<g clip-path="url(#clip0_111_541)">
<path d="M12.6886 60C12.1147 60 11.6897 59.283 11.4559 58.6714C11.2221 58.1019 11.0095 57.5325 10.7757 56.9631C10.2019 55.5079 9.58552 53.9895 9.03291 52.4921C8.75661 51.754 8.28902 51.29 7.50263 50.9947C5.4835 50.2355 3.46437 49.4341 1.48775 48.6749L1.06267 48.5062C0.637589 48.3374 0.10624 48.0422 -3.04024e-05 47.536C-0.0850463 47.1564 0.127494 46.6714 0.616335 46.1863C3.69816 43.1072 6.5462 40.3023 9.28796 37.5817C9.37298 37.4974 9.5005 37.413 9.67053 37.3076C9.75555 37.2443 9.86182 37.181 9.96809 37.0967L10.4357 36.7592L9.96809 36.4218C9.69179 36.2109 9.43674 36.0422 9.20295 35.8524C8.73536 35.5149 8.31028 35.2197 7.92771 34.9033C6.24864 33.6169 5.61102 31.6555 6.20613 29.652C6.35491 29.1881 6.50369 28.703 6.67372 28.239C6.92877 27.5009 7.18382 26.7206 7.3751 25.9402C7.54513 25.2654 7.54513 24.464 7.3751 23.768C7.18382 22.9877 6.92877 22.2285 6.67372 21.4903C6.52494 21.0264 6.35491 20.5202 6.20613 20.0562C5.61102 18.0527 6.2699 16.0914 7.94896 14.8049C8.75661 14.1933 9.84057 13.3919 10.9458 12.6327C11.6897 12.1265 12.1572 11.4728 12.4336 10.587C12.7311 9.5747 13.0712 8.52021 13.56 7.14939C14.2614 5.10369 15.983 3.85941 18.1509 3.81723C18.3634 3.81723 18.5547 3.81723 18.7672 3.81723C19.0648 3.81723 19.3623 3.81723 19.6599 3.81723C19.9575 3.81723 20.255 3.81723 20.5738 3.81723C21.1689 3.81723 21.6365 3.79614 22.0829 3.77505C22.7417 3.73287 23.4431 3.50088 24.0382 3.14236C24.7396 2.72057 25.4197 2.21442 26.0574 1.72935C26.3337 1.51846 26.6312 1.30756 26.9075 1.09666C27.9702 0.337438 28.9904 -0.0421753 30.0319 -0.0421753C31.052 -0.0421753 32.0935 0.337438 33.1774 1.09666C33.4963 1.32865 33.8151 1.56064 34.1339 1.79262C34.7715 2.25659 35.4091 2.74166 36.1105 3.18454C36.6418 3.52197 37.3007 3.73287 37.9171 3.75396C38.3634 3.77505 38.8523 3.79614 39.4474 3.79614C39.7662 3.79614 40.085 3.79614 40.3825 3.79614C40.7014 3.79614 40.9989 3.79614 41.3177 3.79614C41.4665 3.79614 41.6153 3.79614 41.7428 3.79614C44.0807 3.81723 45.7598 5.04043 46.5037 7.21266C46.6525 7.61336 46.78 8.05624 46.9075 8.45695C47.1413 9.21617 47.3964 9.99649 47.6939 10.7557C47.949 11.3884 48.4165 12.0211 48.9479 12.464C49.5855 12.9912 50.2444 13.4763 50.9033 13.9192C51.2646 14.1722 51.6259 14.4253 51.966 14.6784C53.7726 16.0281 54.4527 18.0316 53.7938 20.1617C53.645 20.6257 53.4963 21.0685 53.3475 21.5325C53.0924 22.2707 52.8374 23.0299 52.6461 23.8102C52.4761 24.464 52.4761 25.2021 52.6461 25.8559C52.8374 26.6151 53.0924 27.3743 53.3475 28.1125C53.5175 28.6186 53.6875 29.1248 53.8363 29.6309C54.4314 31.6344 53.7938 33.5958 52.1147 34.8822C51.7109 35.1986 51.2858 35.4939 50.8608 35.8102C50.6482 35.9578 50.4357 36.1054 50.2231 36.2742L49.8406 36.5483L50.1594 36.8858C50.2231 36.949 50.2869 37.0334 50.3507 37.0967C50.4782 37.2443 50.6057 37.3708 50.7332 37.4974C51.9872 38.7417 53.2412 39.9859 54.4952 41.2513C56.1317 42.8752 57.7683 44.4991 59.3836 46.123C59.7449 46.4815 60.1487 47.0088 60.0425 47.5149C59.9362 48.0211 59.3623 48.3374 58.8948 48.5062L57.577 49.0123C55.8129 49.6872 54.0063 50.3831 52.221 51.1213C51.7747 51.3111 51.3496 51.7329 51.1583 52.1757C50.5419 53.652 49.9468 55.1494 49.3942 56.6257C49.0967 57.3849 48.7991 58.123 48.5016 58.8612C48.3315 59.2619 47.9702 59.9578 47.3539 59.9578C46.9925 59.9578 46.5887 59.7469 46.1849 59.3462C42.8693 56.0562 39.3411 52.5554 35.4516 48.6538C35.3241 48.5272 35.1966 48.3585 35.0478 48.1898C34.9628 48.0844 34.8778 47.9789 34.7927 47.8735L34.5164 47.536L34.1976 47.8313C32.8161 49.0756 31.4346 49.6872 30.0956 49.6872C28.7354 49.6872 27.3326 49.0334 25.9298 47.768L25.5685 47.4517L25.2922 47.8524C25.2072 47.9578 25.1434 48.0633 25.0797 48.1687C24.9734 48.3374 24.8884 48.4851 24.7821 48.5905C21.2114 52.0914 17.662 55.6344 14.0276 59.2408C13.5175 59.7469 13.0499 60 12.6886 60ZM38.8735 45.9121C38.5972 45.9121 38.3422 45.9121 38.0659 45.9121C37.8321 45.9121 37.6195 45.9332 37.407 45.9754C37.322 45.9965 37.237 45.9965 37.1519 45.9965L36.2593 46.0808L46.8225 56.6046L47.0563 56.0141C47.2476 55.5501 47.4389 55.0861 47.6302 54.6011C48.0765 53.5044 48.5653 52.3656 48.9266 51.1845C49.3092 50.0246 49.9468 49.3919 51.1583 48.9912C52.3273 48.6116 53.475 48.1476 54.5802 47.7047C55.0478 47.5149 55.5366 47.3251 56.0042 47.1353L56.5993 46.9033L47.8639 38.2355C47.8639 38.2355 47.3964 39.6274 47.2688 40.007C46.9925 40.8295 46.7375 41.6309 46.4612 42.4323C45.696 44.71 44.0807 45.8699 41.679 45.9121C41.254 45.9121 40.8289 45.9121 40.4038 45.9121C40.1913 45.9121 39.1286 45.9121 38.8735 45.9121ZM3.44312 46.9455L4.03823 47.1775C4.54832 47.3673 5.03716 47.5782 5.54726 47.768C6.8225 48.2531 8.11899 48.7803 9.43674 49.2654C10.1381 49.5185 10.5419 49.9192 10.797 50.6151C11.2858 51.9227 11.7959 53.2091 12.2848 54.4745C12.4761 54.9807 12.6886 55.4657 12.8799 55.9719L13.1137 56.5835L23.6769 46.0808L22.763 45.9965C22.6992 45.9965 22.6142 45.9754 22.5292 45.9754C22.3379 45.9543 22.1041 45.9332 21.8703 45.9332C21.509 45.9332 21.1264 45.9332 20.7651 45.9332H19.4049C19.1073 45.9332 18.8097 45.9332 18.5334 45.9332C15.8129 45.9121 14.2401 44.7522 13.39 42.1793L12.1147 38.2988L3.44312 46.9455ZM22.1679 43.5923C23.3368 43.5923 24.357 43.9086 25.2497 44.5835C26.2274 45.3005 27.2901 46.0808 28.3315 46.819C28.9266 47.2408 29.458 47.4306 29.9893 47.4306C30.5207 47.4306 31.0733 47.2408 31.6684 46.7979C32.8586 45.9543 33.8151 45.2583 34.7077 44.6046C35.6429 43.9086 36.6631 43.5923 37.8533 43.5923H39.6599C40.1913 43.5923 40.7439 43.5923 41.2752 43.5923C43.1456 43.5923 43.8257 43.1072 44.3995 41.3568C44.5271 40.9982 44.6333 40.6397 44.7609 40.2812C44.9947 39.5852 45.2284 38.8471 45.4622 38.1301C45.8023 37.0123 46.4612 36.1054 47.4601 35.4095C48.4803 34.6924 49.5005 33.9543 50.4782 33.2162C51.6046 32.3937 51.9022 31.4657 51.4771 30.116C51.1583 29.0826 50.797 28.0281 50.4782 27.0158L50.2656 26.362C49.9468 25.3708 49.9468 24.4218 50.2656 23.4306C50.6482 22.2707 51.0095 21.1318 51.3921 19.9719C51.9447 18.2636 51.6684 17.42 50.2444 16.3866C49.1392 15.5852 48.2465 14.9315 47.4176 14.341C46.4612 13.6661 45.8448 12.8225 45.5048 11.7469C45.1647 10.6714 44.8034 9.5747 44.4633 8.5413L44.3783 8.28823C43.8682 6.74869 43.0818 6.17927 41.4665 6.17927H40.7014C40.255 6.17927 39.8087 6.17927 39.3624 6.17927C38.7885 6.17927 38.3209 6.17927 37.8746 6.20036C37.8321 6.20036 37.7896 6.20036 37.747 6.20036C36.6206 6.20036 35.6217 5.86292 34.6652 5.14587C33.7088 4.44992 32.7311 3.73287 31.7109 2.99473C31.0946 2.55185 30.5632 2.34095 30.0319 2.34095C29.4792 2.34095 28.9692 2.55185 28.3103 2.99473C27.3751 3.6696 26.4612 4.32338 25.526 4.99825L25.2922 5.16696C24.3783 5.84183 23.4219 6.15818 22.3592 6.15818C22.3167 6.15818 22.2529 6.15818 22.2104 6.15818C21.9978 6.15818 21.7853 6.15818 21.5728 6.15818C21.3815 6.15818 21.2114 6.15818 21.0202 6.15818C20.8501 6.15818 20.6801 6.15818 20.5101 6.15818C20.2975 6.15818 19.4049 6.15818 19.1711 6.15818C18.8948 6.15818 18.6185 6.15818 18.3422 6.15818C16.9819 6.17927 16.153 6.76978 15.7279 8.07733C15.3453 9.19508 14.9415 10.3972 14.5589 11.6204C14.1976 12.7803 13.5388 13.6872 12.5186 14.4042C11.4984 15.1213 10.4569 15.8805 9.56426 16.5554C8.41655 17.3989 8.09774 18.348 8.54407 19.6977C8.9479 20.9631 9.33047 22.1019 9.67053 23.1564C10.0744 24.3163 10.0744 25.4552 9.67053 26.594C9.30922 27.6485 8.96915 28.7241 8.62909 29.7575L8.56533 29.9895C8.07648 31.5079 8.37404 32.3726 9.67053 33.3216C10.3719 33.8278 11.0946 34.355 11.7959 34.8612L12.6886 35.5149C13.5813 36.1476 14.1764 36.9701 14.5164 38.0035L14.5589 38.1301C14.9415 39.29 15.3241 40.4921 15.7279 41.6731C16.1743 43.0018 16.9394 43.5712 18.3634 43.5923C18.8948 43.5923 19.4261 43.5923 19.9575 43.5923C20.3188 43.5923 20.7014 43.5923 21.0627 43.5923C21.424 43.5923 21.7853 43.5923 22.1679 43.5923Z" fill="#D7282F"/>
<path d="M37.407 36.1898C37.152 36.1898 36.8332 36.0844 36.4081 35.8735C35.643 35.4728 34.8778 35.0721 34.1339 34.6714C33.05 34.102 31.9023 33.5114 30.8183 32.9209C30.542 32.7733 30.287 32.689 30.0107 32.689C29.7344 32.689 29.4793 32.7733 29.1818 32.942C26.9926 34.123 25.0585 35.1353 23.2944 36.0211C23.0606 36.1477 22.8268 36.1898 22.6143 36.1898C22.3167 36.1898 22.0617 36.0844 21.8704 35.8946C21.6366 35.6415 21.4878 35.2619 21.5091 34.819C21.5941 34.2918 21.7003 33.7434 21.7854 33.174C22.0192 31.7399 22.2742 30.2636 22.5718 28.7874C22.7843 27.7118 22.5505 26.9737 21.7641 26.2777C20.7864 25.413 19.8513 24.4851 18.9373 23.5993C18.4697 23.1353 18.0022 22.6714 17.5346 22.2285C16.9607 21.6802 16.8119 21.2795 17.0032 20.7944C17.1945 20.2882 17.5346 20.0563 18.2359 19.9719C20.8289 19.6345 22.8268 19.3392 24.6972 19.0229C25.1647 18.9385 25.6961 18.5589 25.9086 18.116C26.8651 16.2812 27.779 14.4253 28.7779 12.3796C29.118 11.6837 29.4368 11.4306 29.9894 11.4306C30.542 11.4306 30.8608 11.7048 31.2221 12.4007C32.2636 14.5308 33.135 16.3234 34.0914 18.1371C34.3252 18.5589 34.8353 18.9596 35.3242 19.0229C37.4708 19.3814 39.6812 19.6766 41.7854 19.9719H41.8491C42.4867 20.0563 42.8268 20.3093 42.9968 20.7944C43.1669 21.2795 43.0394 21.6591 42.5505 22.123C42.1679 22.4816 41.8066 22.8401 41.424 23.2197C40.2126 24.3796 38.9798 25.5817 37.7896 26.7839C37.4708 27.1002 37.3008 27.6485 37.3645 28.0703C37.6621 29.9895 38.0022 31.9086 38.321 33.7856L38.4272 34.3761C38.5548 35.1143 38.5335 35.5993 38.0447 35.9578C37.8534 36.1055 37.6408 36.1898 37.407 36.1898ZM29.6281 15.9227C29.4155 16.3656 29.203 16.7663 28.9905 17.1881C28.5229 18.116 28.0765 18.9807 27.6727 19.8875C27.3114 20.7311 26.7588 21.1107 25.7811 21.2162C24.8034 21.3216 23.8257 21.4693 22.8693 21.6169C22.4867 21.6802 22.0829 21.7434 21.7003 21.8067L20.8927 21.9332L21.4453 22.5237C21.7216 22.819 22.0192 23.1353 22.2955 23.4517C22.9331 24.1476 23.592 24.8858 24.3146 25.5396C25.0797 26.2355 25.2923 26.9315 25.0797 27.9438C24.8672 28.8717 24.7184 29.7997 24.5696 30.7698C24.5059 31.2127 24.4209 31.6556 24.3571 32.0984L24.2083 32.942L24.9735 32.5413C25.4198 32.3093 25.8661 32.0774 26.2912 31.8665C27.2901 31.3392 28.2466 30.8542 29.203 30.348C29.5006 30.1793 29.7769 30.116 30.0319 30.116C30.287 30.116 30.542 30.2004 30.8183 30.348C31.1159 30.5167 31.4347 30.6854 31.7535 30.8331C31.8598 30.8963 31.9873 30.9596 32.0935 31.0018L35.8343 32.9209L35.6855 32.0774C35.6005 31.5923 35.5154 31.1283 35.4517 30.6854C35.2816 29.652 35.1116 28.6819 34.9203 27.7118C34.7503 26.8471 34.9203 26.2566 35.5367 25.6872C36.2806 24.9912 37.0032 24.2109 37.6833 23.4728C37.9809 23.1564 38.2785 22.819 38.5973 22.5027L39.1499 21.9121L38.3422 21.7856C37.9596 21.7223 37.5558 21.6591 37.1732 21.5958C36.2381 21.4482 35.2604 21.2795 34.2827 21.1951C33.2838 21.1107 32.7312 20.71 32.3486 19.8243C31.966 18.9385 31.5197 18.0738 31.0521 17.167C30.8396 16.7663 30.627 16.3445 30.4145 15.9227L30.0319 15.1635L29.6281 15.9227Z" fill="#D7282F"/>
</g>
<defs>
<clipPath id="clip0_111_541">
<rect width="60" height="60" fill="white"/>
</clipPath>
</defs>
</svg>
