<svg width="56" height="63" viewBox="0 0 56 63" fill="none" xmlns="http://www.w3.org/2000/svg">
<path d="M5.1999 62.2998C2.8999 62.2998 0.899902 59.8998 0.899902 56.9998V5.5998C0.899902 2.6998 2.7999 0.299805 5.1999 0.299805H48.9999C51.2999 0.299805 53.2999 2.6998 53.2999 5.5998V30.7998C52.5999 30.4998 51.7999 30.1998 50.9999 29.9998V3.5998H3.1999V58.9998H25.6999C25.8999 60.0998 26.1999 61.1998 26.5999 62.2998H5.1999ZM36.6999 53.2998L37.6999 52.0998L42.6999 57.8998L53.7999 44.8998L55.0999 46.6998L42.7999 61.0998L36.6999 53.2998ZM13.4999 47.5998V44.2998H25.0999V47.5998H13.4999ZM13.4999 32.9998V29.6998H40.7999V29.9998C38.6999 30.5998 36.6999 31.5998 34.8999 32.8998H13.4999V32.9998ZM13.4999 18.2998V14.9998H40.7999V18.2998H13.4999Z" fill="#D7282F"/>
</svg>
