<svg width="90" height="90" viewBox="0 0 90 90" fill="none" xmlns="http://www.w3.org/2000/svg">
<path d="M22.7341 29.3746C22.7341 28.7262 23.2576 28.2027 23.906 28.2027H67.656C68.3045 28.2027 68.8279 28.7262 68.8279 29.3746C68.8279 30.0231 68.3045 30.5465 67.656 30.5465H23.906C23.2576 30.5465 22.7341 30.0231 22.7341 29.3746ZM23.906 19.609H67.656C68.3045 19.609 68.8279 19.0856 68.8279 18.4371C68.8279 17.7887 68.3045 17.2652 67.656 17.2652H23.906C23.2576 17.2652 22.7341 17.7887 22.7341 18.4371C22.7341 19.0856 23.2576 19.609 23.906 19.609ZM89.922 62.187C89.922 77.48 77.481 89.921 62.188 89.921H7.50002C3.40622 89.921 0.078125 86.5929 0.078125 82.4991V63.7491C0.078125 63.1007 0.601565 62.5772 1.25002 62.5772H12.578V3.96824C12.578 2.97996 13.0897 2.09714 13.9491 1.60494C14.8085 1.10494 15.8397 1.11275 16.6991 1.61275L21.5468 4.46045C21.6835 4.54248 21.8164 4.54248 21.9492 4.46435L28.3789 0.710454C29.2461 0.194824 30.2891 0.194824 31.1601 0.714361L37.5585 4.46046C37.6952 4.54249 37.828 4.54249 37.9608 4.46437L44.3749 0.710467C45.2421 0.194837 46.2851 0.194836 47.1601 0.714372L53.5585 4.46047C53.6991 4.5425 53.8319 4.5425 53.9648 4.46438L60.4101 0.710479C61.246 0.198759 62.3124 0.194848 63.1757 0.722196L69.6054 4.4605C69.7382 4.54253 69.8593 4.54253 69.9686 4.47612L74.8827 1.61672C75.7304 1.11672 76.7538 1.11281 77.6093 1.605C78.4726 2.09719 78.9882 2.9839 78.9882 3.9761V40.1751C85.621 45.2454 89.9262 53.2181 89.9262 62.1951L89.922 62.187ZM7.50002 87.578C10.3008 87.578 12.5781 85.3007 12.5781 82.4999V64.9219H2.42212V82.4999C2.42212 85.3007 4.69922 87.578 7.50002 87.578ZM51.07 87.578C45.0466 84.9296 40.156 80.1952 37.277 74.297H23.91C23.2616 74.297 22.7381 73.7736 22.7381 73.1251C22.7381 72.4767 23.2616 71.9532 23.91 71.9532H36.265C35.2455 69.2618 34.6439 66.3751 34.515 63.3594H23.91C23.2616 63.3594 22.7381 62.836 22.7381 62.1875C22.7381 61.5391 23.2616 61.0156 23.91 61.0156H34.515C34.64 58 35.2455 55.1133 36.265 52.4218H23.91C23.2616 52.4218 22.7381 51.8984 22.7381 51.2499C22.7381 50.6015 23.2616 50.078 23.91 50.078H37.277C38.8786 46.7968 41.0973 43.8866 43.8004 41.4842H23.9094C23.261 41.4842 22.7375 40.9608 22.7375 40.3123C22.7375 39.6639 23.261 39.1404 23.9094 39.1404H46.7844C51.1946 36.1834 56.4914 34.4529 62.1904 34.4529C67.4912 34.4529 72.4284 35.9724 76.6434 38.5623L76.6395 3.96834C76.6395 3.77303 76.5145 3.67537 76.4442 3.6324C76.3739 3.59333 76.2294 3.53474 76.0653 3.6324L71.1669 6.4801C70.3271 6.99182 69.2607 6.99182 68.4013 6.46447L61.9716 2.73007C61.8388 2.64804 61.7177 2.64804 61.6122 2.71445L55.1513 6.48005C54.288 6.99177 53.2411 6.99177 52.3701 6.47614L45.9717 2.73004C45.8311 2.64801 45.7022 2.64801 45.5694 2.72613L39.1553 6.48003C38.2881 6.99175 37.2451 6.99565 36.3741 6.47613L29.9718 2.73003C29.8351 2.64799 29.7022 2.64799 29.5694 2.72612L23.1397 6.48002C22.2725 6.99564 21.2295 6.99174 20.3585 6.47611L15.5187 3.63631C15.3469 3.53475 15.1945 3.59334 15.1203 3.63631C15.0461 3.67928 14.925 3.77693 14.925 3.96834V82.4993C14.925 84.4681 14.1398 86.2493 12.8859 87.5774L51.07 87.578ZM87.578 62.187C87.578 48.187 76.187 36.796 62.187 36.796C48.187 36.796 36.796 48.187 36.796 62.187C36.796 76.187 48.187 87.578 62.187 87.578C76.187 87.578 87.578 76.187 87.578 62.187ZM75.723 52.519L59.149 69.093C58.9967 69.2454 58.7506 69.2454 58.5982 69.093L48.6529 59.1477C48.1959 58.6907 47.4537 58.6907 46.9967 59.1477C46.5397 59.6048 46.5397 60.3469 46.9967 60.8039L56.942 70.7492C57.4733 71.2844 58.1764 71.55 58.8756 71.55C59.5748 71.55 60.2779 71.2844 60.8092 70.7492L77.3832 54.1752C77.8403 53.7182 77.8403 52.976 77.3832 52.519C76.9262 52.062 76.184 52.062 75.727 52.519H75.723Z" fill="#D7282F"/>
</svg>
