<svg width="51" height="60" viewBox="0 0 51 60" fill="none" xmlns="http://www.w3.org/2000/svg">
<g clip-path="url(#clip0_66_2947)">
<path d="M45.9866 23.8742C45.6813 23.8742 45.3742 23.8725 45.0689 23.8725C44.7618 23.8708 44.4531 23.8708 44.146 23.8708H4.23921C3.58928 23.8708 3.1884 23.7865 3.01099 23.6111C2.83358 23.4357 2.74829 23.0393 2.74829 22.3967C2.75 17.3672 5.00002 13.7898 9.6246 11.4572C9.70307 11.4185 9.7696 11.3763 9.83442 11.3358C9.86171 11.3189 9.89071 11.3004 9.92312 11.2801L10.5935 10.8737L10.0937 10.2749C7.1784 6.78529 8.67955 3.19784 10.3991 1.6394C11.5625 0.585259 13.0602 0.00337325 14.6142 0.00337325C16.0096 0.00337325 17.3675 0.485748 18.4422 1.35942C19.8171 2.47934 20.5779 3.9349 20.7024 5.68393C20.8218 7.35537 20.2777 8.85647 19.0426 10.2699L18.4422 10.9563L19.2815 11.3257C21.6816 12.3849 23.5256 14.0209 24.9193 16.3248L25.5061 17.2947L26.0912 16.3248C27.4798 14.026 29.3238 12.3916 31.7274 11.3307L32.5598 10.9631L31.9679 10.2766C30.535 8.61528 30.0266 6.85444 30.4105 4.8929C30.6902 3.45927 31.4289 2.26008 32.6059 1.32737C33.6994 0.458762 35.018 0 36.4151 0C37.9862 0 39.489 0.593692 40.6439 1.67145C42.7233 3.60938 43.4842 7.18502 40.9168 10.2682L40.3965 10.8939L41.113 11.2869C41.1693 11.3173 41.2239 11.3493 41.2785 11.3797C41.4047 11.4505 41.5344 11.5247 41.6742 11.5922C45.9713 13.7072 48.554 18.1295 48.252 22.8605C48.2077 23.5453 47.8836 23.8539 47.1978 23.8657C46.7935 23.8725 46.3892 23.8742 45.9866 23.8742ZM36.3486 12.1488C34.3834 12.1488 32.4609 12.7745 30.6339 14.0091C28.1519 15.6856 26.7343 18.1346 26.4188 21.2886L26.3454 22.029H46.3278L46.3585 21.3864C46.4984 18.4685 44.274 14.9755 41.2921 13.4357C39.6391 12.5805 37.9776 12.1488 36.3486 12.1488ZM14.5903 12.1977C14.5238 12.1977 14.459 12.1977 14.3942 12.1994C8.09615 12.3124 4.63156 17.6775 4.6452 21.3442L4.64691 22.0172H24.5406L24.5253 21.3291C24.4331 16.9185 20.4176 12.1977 14.5903 12.1977ZM14.5443 1.81987C12.1783 1.83842 10.2592 3.75443 10.2677 6.0904C10.2762 8.42469 12.209 10.3255 14.5767 10.3272C16.9444 10.3272 18.8789 8.42975 18.8908 6.09715C18.8976 4.96036 18.4524 3.88767 17.637 3.07809C16.8199 2.26682 15.735 1.81987 14.5801 1.81987H14.5443ZM36.4185 1.81987C35.2636 1.81987 34.1787 2.26851 33.3616 3.08146C32.5462 3.89273 32.101 4.96711 32.1095 6.10558C32.1266 8.43313 34.061 10.3272 36.4236 10.3272C38.7982 10.3221 40.7275 8.41963 40.7326 6.08197C40.7377 3.74768 38.8152 1.83505 36.4475 1.81818L36.4185 1.81987Z" fill="#D7282F"/>
<path d="M21.3283 60C21.1918 60 21.0554 59.9646 20.9087 59.8887C20.6545 59.7588 20.4191 59.5514 20.4208 58.9189C20.4242 57.5999 20.4242 56.281 20.4242 54.9637C20.4242 52.9651 20.4225 50.899 20.4379 48.8683C20.443 48.1869 20.1871 47.7011 19.6088 47.2896C17.4151 45.7278 15.2265 44.1592 13.0379 42.5923C10.242 40.5886 7.35053 38.5175 4.49663 36.4935C3.10806 35.5085 2.38648 34.1896 2.29266 32.4625C2.25684 31.8266 2.26707 31.1857 2.2756 30.5077C2.28072 30.1923 2.28413 29.8718 2.28413 29.5463V28.902L1.6325 28.8716C1.50967 28.8666 1.4022 28.8615 1.30668 28.8582C1.1378 28.8514 1.00815 28.8464 0.876801 28.8362C0.395749 28.8008 0.0358134 28.4618 0.00169629 28.0115C-0.0324208 27.5493 0.262692 27.1732 0.736921 27.0737C0.924565 27.0349 1.14633 27.0315 1.35785 27.0315C10.1533 27.0299 18.9504 27.0299 27.7458 27.0299C35.0366 27.0299 49.6865 27.0315 49.6865 27.0315C49.8895 27.0315 50.0549 27.0332 50.2017 27.0585C50.7066 27.1462 51.0273 27.524 50.9966 27.9997C50.9659 28.477 50.6076 28.8076 50.0839 28.8396C49.9509 28.848 49.8178 28.8548 49.6643 28.8632L48.7466 28.9138V29.5514C48.7466 29.6981 48.7483 29.8398 48.75 29.9798C48.7534 30.2699 48.7551 30.5431 48.7448 30.8113C48.7363 31.0187 48.7312 31.2262 48.7261 31.4353C48.7107 32.029 48.6971 32.589 48.6203 33.1371C48.4241 34.5252 47.7213 35.6333 46.4675 36.5239C43.733 38.4669 40.961 40.4503 38.2811 42.3697C35.9748 44.0209 33.6668 45.6721 31.3571 47.3183C30.7941 47.7197 30.5485 48.1953 30.5638 48.8598C30.5809 49.6306 30.5775 50.42 30.5758 51.1823C30.5741 51.8064 30.5724 52.4524 30.5809 53.0899C30.586 53.5402 30.4393 53.8286 30.0708 54.0867C27.4097 55.9454 24.694 57.8496 21.9953 59.7453C21.7531 59.9174 21.5347 60 21.3283 60ZM4.11281 29.5581C4.11281 29.8516 4.11111 30.1417 4.10769 30.4301C4.10258 31.1014 4.09746 31.7355 4.11963 32.3866C4.15546 33.4778 4.64845 34.3684 5.58326 35.0346C8.22393 36.9135 10.9021 38.8312 13.4916 40.6865C16.122 42.5704 18.8429 44.5185 21.5245 46.426C22.0635 46.8106 22.2717 47.2036 22.2648 47.8327C22.2427 49.7588 22.2461 51.6461 22.2512 53.6465C22.2529 54.4173 22.2546 55.1931 22.2546 55.9791V57.0771L23.2457 56.5812C23.3003 56.5542 23.3446 56.5323 23.3805 56.5154C23.4658 56.475 23.5459 56.4378 23.6346 56.3754L24.4995 55.7716C25.7055 54.93 26.9542 54.0614 28.1688 53.1843C28.5492 52.9094 28.73 52.3933 28.7351 52.029C28.7573 50.764 28.7795 49.2916 28.7369 47.8243C28.7198 47.212 28.9262 46.8207 29.4755 46.4311C34.2877 43.0089 39.4838 39.2882 45.3587 35.0565C45.9387 34.6382 46.3379 34.1913 46.5443 33.7258C46.9912 32.7188 46.9605 31.717 46.9298 30.7506C46.9179 30.3491 46.9059 29.9696 46.9281 29.5952L46.9708 28.8818H4.11281V29.5581Z" fill="#D7282F"/>
</g>
<defs>
<clipPath id="clip0_66_2947">
<rect width="51" height="60" fill="white"/>
</clipPath>
</defs>
</svg>
