<svg width="60" height="60" viewBox="0 0 60 60" fill="none" xmlns="http://www.w3.org/2000/svg">
<g clip-path="url(#clip0_111_564)">
<path d="M12.2012 24.4322C9.77741 24.4322 7.37016 24.4322 4.94641 24.4157C1.94559 24.4157 0 22.4691 0 19.4996C0 14.3195 0 9.53533 0.016488 4.86665C0.016488 2.37558 1.48392 0.544405 3.82523 0.0824856C4.15499 0.0164971 4.56719 0 5.01237 0C6.18302 0 7.35367 0 8.52432 0H12.366H16.8508C17.7741 0 18.7139 0 19.6373 0C22.6711 0 24.6331 1.97965 24.6331 5.01512C24.6331 9.65081 24.6331 14.501 24.6331 19.4006C24.6331 22.4526 22.6711 24.4157 19.6538 24.4322C17.1641 24.4322 14.6908 24.4322 12.2012 24.4322ZM8.11212 2.17762C7.08986 2.17762 6.08409 2.17762 5.06183 2.17762C3.18219 2.17762 2.19291 3.16745 2.19291 5.04812C2.19291 9.81578 2.19291 14.5999 2.19291 19.3676C2.19291 21.1988 3.19868 22.2216 5.01237 22.2216C7.40313 22.2216 9.77741 22.2216 12.1682 22.2216C14.6414 22.2216 17.1146 22.2216 19.5713 22.2216C21.418 22.2216 22.3908 21.2318 22.3908 19.3841C22.3908 14.5834 22.3908 9.79928 22.3908 4.99863C22.3908 3.15095 21.4015 2.17762 19.5548 2.17762C18.5326 2.17762 17.5268 2.17762 16.5045 2.17762H8.11212Z" fill="#D7282F"/>
<path d="M52.2506 60C51.4921 60 50.7337 60 49.9752 60C49.2168 60 48.4583 60 47.6999 60H43.1657C42.2258 60 41.3025 60 40.3627 60C37.3454 60 35.3833 58.0368 35.3833 55.0343C35.3833 49.8707 35.3833 45.1196 35.3833 40.5334C35.3833 37.5969 37.3454 35.6007 40.2638 35.5842C42.7205 35.5677 45.2267 35.5677 47.6999 35.5677C50.1566 35.5677 52.6628 35.5677 55.136 35.5842C58.0379 35.6007 60 37.5639 60 40.4674C60.0164 45.7465 60.0164 50.5471 60 55.1498C59.9835 58.0368 58.0214 59.9835 55.103 60C54.1467 60 53.2069 60 52.2506 60ZM51.9538 57.8224C52.976 57.8224 53.9818 57.8224 55.0041 57.8224C56.8013 57.8224 57.807 56.816 57.807 55.0013C57.807 50.1842 57.807 45.367 57.807 40.5499C57.807 38.7847 56.8013 37.7619 55.037 37.7619H52.0527C48.178 37.7619 44.2374 37.7619 40.3462 37.7784C38.5655 37.7784 37.5927 38.7682 37.5927 40.5499C37.5927 45.367 37.5927 50.1842 37.5927 55.0013C37.5927 56.849 38.582 57.8224 40.4286 57.8224C41.4344 57.8224 42.4237 57.8224 43.4295 57.8224H47.6504H51.9538Z" fill="#D7282F"/>
<path d="M7.8153 60C6.89197 60 5.98513 60 5.0618 60C2.028 60 0.0659218 58.0204 0.0659218 54.9849V53.7971C0.0659218 49.4089 0.0494337 44.8722 0.0659218 40.4179C0.0659218 37.9269 1.63229 36.0462 4.02305 35.6338C4.31984 35.5843 4.6496 35.5843 4.99585 35.5843H7.46905C9.57952 35.5843 11.69 35.5843 13.8005 35.5843C15.7955 35.5843 17.8071 35.5843 19.8021 35.6008C22.3248 35.6008 24.1714 37.0855 24.6166 39.4446C24.6826 39.7581 24.6826 40.121 24.6826 40.4014V43.107C24.6826 47.0663 24.6991 51.1741 24.6826 55.2159C24.6661 57.6574 23.1657 59.5216 20.8244 59.9505C20.4781 60.0165 20.0494 60.0165 19.6867 60.0165C18.4996 60.0165 17.3124 60.0165 16.1253 60.0165H12.3495L7.8153 60ZM12.4979 37.7619C10.0082 37.7619 7.53501 37.7619 5.04531 37.7619C3.2646 37.7619 2.29181 38.7517 2.29181 40.5499C2.29181 42.2656 2.29181 43.9648 2.29181 45.6805V49.8873C2.29181 51.5865 2.29181 53.3022 2.29181 55.0014C2.29181 56.8161 3.28109 57.8224 5.07829 57.8224C7.51852 57.8224 9.95875 57.8224 12.399 57.8224C14.8392 57.8224 17.2794 57.8224 19.7197 57.8224C21.5004 57.8224 22.5226 56.7996 22.5226 55.0014C22.5226 50.1842 22.5226 45.3671 22.5226 40.5499C22.5226 38.7847 21.5169 37.7619 19.7527 37.7619C17.3124 37.7784 14.9052 37.7619 12.4979 37.7619Z" fill="#D7282F"/>
<path d="M47.6174 24.4157C44.4187 24.3992 41.3849 23.1124 39.1095 20.7863C36.8177 18.4603 35.5811 15.4083 35.5976 12.1913C35.647 5.36154 41.0716 0.0164795 47.9471 0.0164795H47.9966C51.1623 0.0329766 54.1631 1.30325 56.455 3.61285C58.7633 5.93894 60.0164 8.99091 59.9999 12.2078C59.9834 15.4908 58.6973 18.5757 56.389 20.8688C54.0807 23.1619 50.9974 24.4322 47.6998 24.4322L47.6174 24.4157ZM47.8812 2.1941C45.1936 2.1941 42.6545 3.23342 40.7583 5.11409C38.8457 6.99476 37.807 9.51882 37.807 12.1913C37.807 17.7014 42.2752 22.2051 47.7493 22.2216H47.7987C50.4863 22.2216 52.9925 21.1658 54.9051 19.2686C56.8012 17.3714 57.84 14.8474 57.8235 12.1749C57.807 6.7803 53.2728 2.2106 47.9306 2.1941H47.8812Z" fill="#D7282F"/>
</g>
<defs>
<clipPath id="clip0_111_564">
<rect width="60" height="60" fill="white"/>
</clipPath>
</defs>
</svg>
