<svg width="72" height="66" viewBox="0 0 72 66" fill="none" xmlns="http://www.w3.org/2000/svg">
<g clip-path="url(#clip0_8419_11424)">
<path d="M69.3455 7.77264C66.8812 8.63146 64.561 7.88715 62.2409 7.68676C57.6726 7.27167 53.1331 6.62755 48.5648 6.32697C43.7083 5.99776 38.823 5.82599 33.9521 5.81168C27.8274 5.78305 21.7171 6.2554 15.6357 6.98539C12.1626 7.4148 8.67519 7.80127 5.18773 8.13048C4.20778 8.21636 3.19901 8.03029 2.14701 7.97303C2.14701 26.5235 2.14701 45.1741 2.14701 63.9106C2.44964 63.9106 2.72345 63.9106 3.01167 63.9106C10.8224 63.9106 18.6188 63.9106 26.4295 63.9106C27.5392 63.9106 28.0868 64.2684 28.0724 64.9698C28.058 65.6711 27.5392 66.0004 26.4151 66.0004C18.1576 66.0004 9.88571 66.0004 1.62821 66.0004C0.273579 66.0004 0.0141807 65.757 0.0141807 64.4259C0.0141807 45.0309 0.0141807 25.636 0.0141807 6.24109C0.0141807 6.06932 0.0141807 5.91187 0.0141807 5.74011C-0.0146413 3.49288 1.18147 2.13308 3.47282 1.90407C5.95151 1.67505 8.44461 1.50329 10.9377 1.33152C15.2466 1.01662 19.5555 0.716038 23.8644 0.415452C30.0323 -0.0282691 36.2002 -0.142778 42.3681 0.157808C47.2534 0.386825 52.1387 0.744665 57.0385 1.07388C60.6845 1.31721 64.316 1.60348 67.9476 1.91838C69.7634 2.07583 71.1036 3.16366 71.3918 4.66659C71.4927 5.19619 71.4207 5.75442 71.4207 6.29834C71.4207 15.6737 71.4207 25.0492 71.4207 34.4246C71.4207 34.6679 71.4207 34.8969 71.3918 35.1402C71.3198 35.7414 70.9739 36.0993 70.3398 36.0849C69.7202 36.0563 69.3743 35.6985 69.3599 35.0687C69.3455 34.0381 69.3455 33.0218 69.3455 31.9912C69.3455 24.1903 69.3455 16.3894 69.3455 8.58852C69.3455 8.3595 69.3455 8.13048 69.3455 7.77264ZM37.0504 1.97563C32.5398 2.11877 29.3406 2.1474 26.1557 2.34779C18.8493 2.82014 11.543 3.36405 4.2366 3.89366C3.78986 3.92228 3.3143 4.00817 2.9252 4.20856C2.60816 4.36601 2.23347 4.72385 2.19024 5.03874C2.16142 5.26776 2.59375 5.69717 2.89638 5.78305C3.50164 5.96913 4.16455 6.12658 4.78422 6.05501C8.48784 5.69717 12.1771 5.19619 15.8807 4.88129C20.8957 4.45189 25.9251 3.99385 30.9546 3.79346C38.3474 3.50719 45.7403 3.79346 53.1187 4.59502C56.9376 5.01012 60.7421 5.45384 64.561 5.85462C65.6995 5.96913 66.8524 6.01207 67.9908 5.95481C68.524 5.92619 69.2446 5.68286 69.2446 4.9958C69.2446 4.30875 68.5385 4.12267 67.9908 4.02248C67.0685 3.86503 66.1318 3.79346 65.1951 3.73621C60.8862 3.42131 56.5773 3.10641 52.2684 2.83445C46.7634 2.50524 41.244 2.21897 37.0504 1.97563Z" fill="#9A9A9A"/>
<path d="M39.4285 44.1581C39.2556 41.5388 39.4429 39.1341 41.9216 37.5596C40.9561 36.1139 40.6391 34.5823 41.2011 32.9363C41.5614 31.8771 42.2243 31.0612 43.161 30.46C45.0632 29.2434 47.5708 29.4867 49.1992 31.0469C50.5538 32.3494 51.4905 34.8257 49.7036 37.5166C50.7412 38.2323 51.6491 39.1198 51.9229 40.3794C52.1823 41.5817 52.2111 42.827 52.3408 44.1009C52.6867 44.1009 53.0757 44.1009 53.5801 44.1009C53.4504 41.5817 53.5225 39.1054 56.0732 37.5596C55.1221 36.1712 54.7907 34.7112 55.2662 33.1367C55.5833 32.0775 56.2173 31.2186 57.1252 30.5745C59.0131 29.2577 61.5206 29.4151 63.2355 30.961C64.6622 32.2349 65.6565 34.7827 63.8264 37.5596C66.3339 39.0625 66.5068 41.5244 66.3483 44.1725C67.3859 44.1725 68.337 44.1725 69.2881 44.1725C70.3689 44.1725 70.7148 44.5303 70.7148 45.5752C70.7148 51.9161 70.7148 58.2713 70.7148 64.6123C70.7148 65.6715 70.3689 66.015 69.2881 66.015C56.6209 66.015 43.968 66.015 31.3007 66.015C30.1334 66.015 29.8164 65.6858 29.8164 64.5264C29.8164 58.257 29.8164 51.9734 29.8164 45.704C29.8164 44.4874 30.1334 44.1725 31.344 44.1725C33.7218 44.1725 36.0996 44.1725 38.4774 44.1725C38.78 44.1581 39.0394 44.1581 39.4285 44.1581ZM32.0069 63.868C44.2562 63.868 56.4191 63.868 68.582 63.868C68.582 57.9708 68.582 52.1308 68.582 46.2909C56.3615 46.2909 44.1986 46.2909 32.0069 46.2909C32.0069 52.1594 32.0069 57.9851 32.0069 63.868ZM50.1071 44.1295C50.1071 43.2278 50.1791 42.3976 50.0927 41.5674C49.9774 40.4795 49.3433 39.6637 48.3634 39.177C48.1184 39.0625 47.7581 39.0196 47.5131 39.1054C46.3746 39.4633 45.265 39.4776 44.1265 39.1054C43.8959 39.0339 43.5501 39.0482 43.3339 39.1627C41.6911 39.9786 40.9705 42.0827 41.6334 44.1295C44.4292 44.1295 47.2393 44.1295 50.1071 44.1295ZM55.5833 44.1009C58.5808 44.1009 61.4197 44.1009 64.3163 44.1009C64.3163 43.4138 64.3163 42.7697 64.3163 42.1256C64.3019 40.7944 63.7255 39.7925 62.5149 39.177C62.27 39.0625 61.9097 39.0196 61.6647 39.1054C60.5262 39.4633 59.4166 39.4776 58.2781 39.0911C58.0764 39.0196 57.8026 39.0052 57.6152 39.0911C56.7361 39.4776 56.03 40.1074 55.8427 41.0378C55.6409 42.0254 55.6553 43.056 55.5833 44.1009ZM48.6083 34.5108C48.5939 32.9792 47.3546 31.7769 45.7982 31.7769C44.2418 31.7769 43.0169 33.0078 43.0169 34.5394C43.0169 36.0996 44.285 37.3306 45.8703 37.3162C47.4122 37.2876 48.6083 36.0566 48.6083 34.5108ZM59.9354 31.7769C58.379 31.7912 57.1685 32.9935 57.1685 34.5537C57.1685 36.0996 58.379 37.3162 59.9498 37.3162C61.535 37.3162 62.7743 36.0853 62.7455 34.5108C62.7311 32.9506 61.5062 31.7626 59.9354 31.7769Z" fill="#9A9A9A"/>
<path d="M61.2761 14.786C54.33 14.786 47.528 14.786 40.6251 14.786C40.6251 15.0723 40.6251 15.33 40.6251 15.5733C40.6251 18.7939 40.6251 22.0144 40.6251 25.235C40.6251 25.4783 40.6539 25.7216 40.5963 25.9507C40.4666 26.4659 40.1495 26.7808 39.5875 26.7952C39.0255 26.7952 38.7084 26.4803 38.5643 25.965C38.5211 25.7932 38.5355 25.5928 38.5355 25.3924C38.5355 21.6423 38.5355 17.9064 38.5355 14.1562C38.5355 12.9968 38.8814 12.6533 40.0198 12.6533C47.3262 12.6533 54.6182 12.6533 61.9246 12.6533C63.0342 12.6533 63.3945 12.9968 63.3945 14.1133C63.3945 17.8635 63.3945 21.5993 63.3945 25.3495C63.3945 25.5356 63.3945 25.7359 63.3512 25.922C63.2215 26.5089 62.8469 26.8524 62.2272 26.7808C61.6363 26.7236 61.3193 26.3514 61.3049 25.7789C61.2905 24.5193 61.2905 23.2454 61.2905 21.9858C61.2905 19.8674 61.2905 17.7346 61.2905 15.6162C61.2761 15.3586 61.2761 15.1009 61.2761 14.786Z" fill="#9A9A9A"/>
<path d="M27.3235 39.4914H11.2696C9.61236 39.4914 8.70446 39.4914 7.89745 39.0763C7.1769 38.7184 6.61487 38.1459 6.24018 37.4302C5.82227 36.6287 5.82227 35.7269 5.82227 34.0808V20.898C5.82227 19.2519 5.82227 18.3502 6.24018 17.5486C6.60046 16.8329 7.1769 16.2747 7.89745 15.9026C8.70446 15.4875 9.61236 15.4875 11.2696 15.4875H11.3705V13.7412C11.3705 13.183 11.8172 12.7393 12.3793 12.7393C12.9413 12.7393 13.388 13.183 13.388 13.7412V15.4875H25.2051V13.7412C25.2051 13.183 25.6518 12.7393 26.2138 12.7393C26.7759 12.7393 27.2226 13.183 27.2226 13.7412V15.4875H27.3235C28.9807 15.4875 29.8886 15.4875 30.6956 15.9026C31.4162 16.2604 31.9782 16.8329 32.3529 17.5486C32.7708 18.3502 32.7708 19.2519 32.7708 20.898V34.0951C32.7708 35.7412 32.7708 36.643 32.3529 37.4445C31.9926 38.1602 31.4162 38.7184 30.6956 39.0906C29.903 39.4914 28.9807 39.4914 27.3235 39.4914ZM7.85422 22.9878V34.0808C7.85422 35.412 7.85422 36.1563 8.04156 36.5285C8.21449 36.8577 8.47389 37.1296 8.80534 37.2871C9.18003 37.4732 9.91499 37.4732 11.2696 37.4732H27.3235C28.6637 37.4732 29.4131 37.4732 29.7877 37.2871C30.1192 37.1153 30.393 36.8577 30.5515 36.5285C30.7389 36.1563 30.7389 35.4263 30.7389 34.0808V22.9878H7.85422ZM7.85422 20.9839H30.7533V20.898C30.7533 19.5668 30.7533 18.8225 30.5659 18.4504C30.393 18.1212 30.1336 17.8492 29.8022 17.6918C29.4275 17.5057 28.6925 17.5057 27.3379 17.5057H11.2696C9.9294 17.5057 9.18003 17.5057 8.80534 17.6918C8.47389 17.8635 8.20008 18.1212 8.04156 18.4504C7.85422 18.8225 7.85422 19.5525 7.85422 20.898V20.9839ZM17.9131 33.995C17.6537 33.995 17.3943 33.8948 17.207 33.7087L14.44 30.9605C14.0509 30.574 14.0509 29.9299 14.44 29.5434C14.8291 29.157 15.4776 29.157 15.8667 29.5434L17.9275 31.5903L22.7552 26.7952C23.1443 26.4087 23.7928 26.4087 24.1819 26.7952C24.571 27.1817 24.571 27.8258 24.1819 28.2123L18.648 33.7087C18.4319 33.8948 18.1725 33.995 17.9131 33.995Z" fill="#9A9A9A"/>
</g>
<defs>
<clipPath id="clip0_8419_11424">
<rect width="71.4353" height="66" fill="white"/>
</clipPath>
</defs>
</svg>
