<svg width="59" height="76" viewBox="0 0 59 76" fill="none" xmlns="http://www.w3.org/2000/svg">
<path d="M58.5261 65.7913H55.0155V29.3431H57.4118V22.5016H46.7961V20.0214H47.9942C48.1836 20.0248 48.3707 19.9794 48.5374 19.8894C48.7041 19.7995 48.8448 19.6681 48.946 19.5079C49.0471 19.3478 49.1053 19.1642 49.1149 18.9751C49.1245 18.7859 49.0851 18.5974 49.0007 18.4279L47.455 15.3366H47.9942C48.259 15.3358 48.516 15.2473 48.7251 15.085C48.92 14.9342 49.0581 14.7218 49.1169 14.4825C49.1756 14.2431 49.1516 13.9909 49.0486 13.767L47.503 10.6638H47.9942C48.1836 10.6672 48.3707 10.6217 48.5374 10.5317C48.7041 10.4418 48.8448 10.3104 48.946 10.1503C49.0471 9.99011 49.1053 9.80659 49.1149 9.61741C49.1245 9.42823 49.0851 9.23977 49.0007 9.07021L46.6044 4.39738C46.5133 4.21448 46.3732 4.06048 46.1997 3.95258C46.0262 3.84467 45.8262 3.78711 45.6219 3.78631H44.4237V0.707031H42.3029V3.78631H41.1048C40.9002 3.78572 40.6995 3.84271 40.5258 3.95077C40.3521 4.05883 40.2122 4.2136 40.1223 4.39738L37.7859 9.07021C37.6724 9.28989 37.6378 9.5419 37.688 9.78403C37.7381 10.0262 37.87 10.2437 38.0614 10.4002C38.2662 10.5705 38.5261 10.66 38.7923 10.6518H39.3315L37.7379 13.767C37.6244 13.9867 37.5899 14.2387 37.64 14.4808C37.6902 14.723 37.8221 14.9405 38.0135 15.097C38.2227 15.2593 38.4797 15.3478 38.7444 15.3486H39.2836L37.7379 18.4398C37.6275 18.6582 37.5947 18.9076 37.6447 19.1471C37.6948 19.3866 37.8249 19.602 38.0135 19.7578C38.2171 19.9315 38.4769 20.0252 38.7444 20.0214H39.9426V22.5016H32.7536V20.0214H33.9517C34.2161 20.0279 34.4731 19.9337 34.6706 19.7578C34.8623 19.6016 34.9951 19.3849 35.0473 19.1432C35.0996 18.9016 35.0682 18.6493 34.9582 18.4279L33.4006 15.3366H33.9517C34.1429 15.3486 34.3339 15.3106 34.5059 15.2263C34.6779 15.142 34.8249 15.0143 34.9325 14.8559C35.0402 14.6975 35.1047 14.5138 35.1197 14.3228C35.1347 14.1319 35.0997 13.9403 35.0181 13.767L33.4605 10.6518H34.0117C34.2746 10.6628 34.5318 10.5728 34.7305 10.4002C34.9222 10.2439 35.055 10.0272 35.1073 9.78555C35.1595 9.5439 35.1281 9.29166 35.0181 9.07021L32.6218 4.39738C32.5327 4.21542 32.3948 4.06187 32.2234 3.95393C32.0519 3.846 31.8538 3.78796 31.6513 3.78631H30.4531V0.707031H28.2605V3.78631H27.0623C26.8583 3.78846 26.6588 3.84658 26.4855 3.95433C26.3123 4.06208 26.1719 4.21533 26.0798 4.39738L23.6835 9.07021C23.5822 9.29847 23.5614 9.55437 23.6245 9.79599C23.6876 10.0376 23.8309 10.2506 24.031 10.4002C24.2357 10.5705 24.4957 10.66 24.7618 10.6518H25.2291L23.6955 13.767C23.5959 13.9926 23.5749 14.245 23.6357 14.4839C23.6965 14.7228 23.8357 14.9345 24.031 15.085C24.2401 15.2473 24.4971 15.3358 24.7618 15.3366H25.2291L23.6835 18.4279C23.599 18.5974 23.5597 18.7859 23.5693 18.9751C23.5789 19.1642 23.637 19.3478 23.7382 19.5079C23.8393 19.6681 23.9801 19.7995 24.1468 19.8894C24.3135 19.9794 24.5005 20.0248 24.6899 20.0214H25.8881V22.5016H18.6991V20.0214H19.8973C20.0867 20.0248 20.2738 19.9794 20.4405 19.8894C20.6072 19.7995 20.7479 19.6681 20.849 19.5079C20.9502 19.3478 21.0084 19.1642 21.0179 18.9751C21.0275 18.7859 20.9882 18.5974 20.9037 18.4279L19.3581 15.3366H19.8973C20.162 15.3358 20.419 15.2473 20.6282 15.085C20.8272 14.9375 20.9701 14.7266 21.0332 14.487C21.0964 14.2474 21.0761 13.9935 20.9756 13.767L19.43 10.6518H19.9692C20.1582 10.6576 20.3454 10.6141 20.5125 10.5257C20.6796 10.4372 20.8209 10.3069 20.9224 10.1473C21.0239 9.98783 21.0822 9.80466 21.0915 9.61582C21.1008 9.42698 21.0609 9.23896 20.9756 9.07021L18.6392 4.39738C18.5482 4.21448 18.4081 4.06048 18.2346 3.95258C18.0611 3.84467 17.861 3.78711 17.6567 3.78631H16.4586V0.707031H14.23V3.78631H13.0318C12.8272 3.78572 12.6266 3.84271 12.4528 3.95077C12.2791 4.05883 12.1393 4.2136 12.0493 4.39738L9.65299 9.07021C9.53948 9.28989 9.50491 9.5419 9.55508 9.78403C9.60525 10.0262 9.73711 10.2437 9.92857 10.4002C10.1333 10.5705 10.3933 10.66 10.6594 10.6518H11.2106L9.65299 13.767C9.53948 13.9867 9.50491 14.2387 9.55508 14.4808C9.60525 14.723 9.73711 14.9405 9.92857 15.097C10.1377 15.2593 10.3947 15.3478 10.6594 15.3486H11.2106L9.65299 18.4279C9.5408 18.6488 9.50815 18.9017 9.56052 19.1439C9.61289 19.3862 9.74709 19.6029 9.94055 19.7578C10.1441 19.9315 10.4039 20.0252 10.6714 20.0214H11.8696V22.5016H1.3617V29.3431H3.66217V65.7913H0.1875V74.9932H58.5261V65.7913ZM41.7278 5.97895H45.0587L46.2569 8.47113H40.4817L41.7278 5.97895ZM41.7278 10.6638H45.0587L46.2569 13.144H40.4817L41.7278 10.6638ZM41.7278 15.3366H45.0587L46.2569 17.8288H40.4817L41.7278 15.3366ZM44.6394 20.0214V22.5016H42.1472V20.0214H44.6394ZM27.6973 5.97895H31.0162L32.2144 8.47113H26.4273L27.6973 5.97895ZM27.6973 10.6638H31.0162L32.2144 13.144H26.4273L27.6973 10.6638ZM27.6973 15.3366H31.0162L32.2144 17.8288H26.4273L27.6973 15.3366ZM30.5969 20.0214V22.5016H28.1047V20.0214H30.5969ZM13.6549 5.97895H16.9858L18.1839 8.47113H12.4088L13.6549 5.97895ZM13.6549 10.6638H16.9858L18.1839 13.144H12.4088L13.6549 10.6638ZM13.6549 15.3366H16.9858L18.1839 17.8288H12.4088L13.6549 15.3366ZM16.5664 20.0214V22.5016H14.0742V20.0214H16.5664ZM56.2616 72.8005H2.46401C2.4541 72.8028 2.44377 72.8026 2.43399 72.7998C2.42422 72.797 2.41531 72.7917 2.40812 72.7845C2.40093 72.7773 2.39569 72.7684 2.39289 72.7587C2.39009 72.7489 2.38982 72.7385 2.39212 72.7286V68.0558C2.39212 68.0558 2.39212 67.9719 2.46401 67.9719H7.688V65.7913H5.89076V29.3431H14.2779V31.4998H16.4586V29.3431H28.3084V31.4998H30.501V29.3431H42.3509V31.4998H44.5315V29.3431H46.9279V27.1864H3.54236V24.6943H55.1832V27.1864H50.2707V29.3431H52.7869V65.7913H10.4558V67.9719H56.2616C56.2817 67.9748 56.3 67.9849 56.3133 68.0004C56.3265 68.0158 56.3336 68.0355 56.3334 68.0558V72.7286C56.3334 72.7477 56.3259 72.766 56.3124 72.7795C56.2989 72.793 56.2806 72.8005 56.2616 72.8005Z" fill="#231F20" stroke="white" stroke-width="0.2" stroke-linecap="round" stroke-linejoin="round"/>
<path d="M42.2854 56.6218L31.2503 37.4152C31.0639 37.1051 30.8005 36.8484 30.4855 36.6702C30.1706 36.4921 29.8149 36.3984 29.4531 36.3984C29.0912 36.3984 28.7355 36.4921 28.4206 36.6702C28.1057 36.8484 27.8422 37.1051 27.6558 37.4152L16.5608 56.5858C16.3789 56.9057 16.2839 57.2676 16.2852 57.6356C16.2865 58.0036 16.384 58.3649 16.5681 58.6835C16.7523 59.0021 17.0166 59.267 17.3348 59.4518C17.653 59.6366 18.0141 59.7349 18.382 59.737H40.4762C40.8431 59.7329 41.2027 59.633 41.5192 59.4473C41.8358 59.2617 42.0984 58.9966 42.2811 58.6784C42.4639 58.3601 42.5604 57.9996 42.5611 57.6327C42.5619 57.2657 42.4668 56.9048 42.2854 56.5858V56.6218ZM18.4539 57.5803L29.3812 38.6493L40.3204 57.5803H18.4539Z" fill="#D7282F" stroke="white" stroke-width="0.2" stroke-linecap="round" stroke-linejoin="round"/>
<path d="M31.6551 49.3337C31.5509 49.1971 31.4168 49.0861 31.2631 49.0093C31.1094 48.9324 30.9402 48.8918 30.7684 48.8904H29.3426L30.361 45.6314L28.2643 44.9844L26.8145 49.6932C26.7617 49.8557 26.7483 50.0285 26.7753 50.1972C26.8024 50.3659 26.8692 50.5258 26.9702 50.6637C27.0712 50.8046 27.2043 50.9194 27.3585 50.9986C27.5127 51.0777 27.6835 51.119 27.8569 51.119H29.2827L28.2643 54.378L30.361 55.025L31.8108 50.3402C31.8698 50.1726 31.8864 49.993 31.8592 49.8174C31.8321 49.6418 31.7619 49.4757 31.6551 49.3337Z" fill="#D7282F" stroke="white" stroke-width="0.2" stroke-linecap="round" stroke-linejoin="round"/>
</svg>
