<svg width="42" height="24" viewBox="0 0 42 24" fill="none" xmlns="http://www.w3.org/2000/svg">
<mask id="mask0_1611_138" style="mask-type:luminance" maskUnits="userSpaceOnUse" x="0" y="1" width="42" height="23">
<path d="M41.1602 1.37988H0.910156V23.4216H41.1602V1.37988Z" fill="white"/>
</mask>
<g mask="url(#mask0_1611_138)">
<path d="M38.5577 2.26172H3.51005C2.60272 2.26172 1.86719 2.93841 1.86719 3.77315V21.0286C1.86719 21.8634 2.60272 22.5401 3.51005 22.5401H38.5577C39.465 22.5401 40.2005 21.8634 40.2005 21.0286V3.77315C40.2005 2.93841 39.465 2.26172 38.5577 2.26172Z" fill="white"/>
<mask id="mask1_1611_138" style="mask-type:luminance" maskUnits="userSpaceOnUse" x="2" y="3" width="38" height="19">
<path d="M37.598 3.14355H4.46708C3.55975 3.14355 2.82422 3.82025 2.82422 4.65499V20.1472C2.82422 20.9819 3.55975 21.6585 4.46708 21.6585H37.598C38.5054 21.6585 39.2409 20.9819 39.2409 20.1472V4.65499C39.2409 3.82025 38.5054 3.14355 37.598 3.14355Z" fill="white"/>
</mask>
<g mask="url(#mask1_1611_138)">
<path d="M16.5435 8.47559L14.8927 17.251H12.8094L14.4668 8.47559H16.5435ZM19.3606 8.47559L19.0723 10.0004H11.4141L11.7088 8.47559H19.3606ZM24.3656 8.4816L18.712 17.9984H17.9848L23.6384 8.4816H24.3656ZM29.8554 8.47559L28.2045 17.251H26.1212L27.7787 8.47559H29.8554ZM32.6724 8.47559L32.3841 10.0004H24.7259L25.0207 8.47559H32.6724Z" fill="#3467BD"/>
</g>
</g>
</svg>
