<svg width="38" height="43" viewBox="0 0 38 43" fill="none" xmlns="http://www.w3.org/2000/svg">
<path d="M37.5727 26.7218C37.5975 26.6634 37.5924 26.5965 37.5591 26.542C37.526 26.487 37.4683 26.4522 37.4049 26.4476L34.9655 26.2604C34.9733 26.2186 34.9813 26.1772 34.9883 26.1354C37.1988 22.3452 37.2417 17.2912 37.2417 17.2406C37.2421 17.188 37.2208 17.1378 37.1837 17.1004C37.1466 17.0633 37.0959 17.0422 37.0437 17.0422H35.3088C35.9338 12.3079 34.1548 9.34233 34.0775 9.21647C34.03 9.13874 33.9352 9.10468 33.8486 9.1312L32.4738 9.56996C32.222 8.71026 31.184 5.36122 29.8847 3.76612L29.8839 3.76421C29.8792 3.75709 29.8726 3.75344 29.8676 3.74698C29.6967 3.53949 29.5215 3.35951 29.3428 3.22238C29.2756 3.17059 29.1823 3.1681 29.1112 3.21558L27.9773 3.98711C25.2601 1.64833 21.9776 0.27737 18.4444 0.27737V0.274635C18.0239 0.235027 17.6009 0.277784 17.1724 0.277784C7.8346 0.277784 0.238281 9.84092 0.238281 21.5962C0.238281 33.351 7.83493 42.9143 17.1724 42.9143C17.6009 42.9143 18.0238 42.9472 18.4444 42.9073V42.9143C21.8176 42.9143 24.9602 41.6613 27.603 39.5135C27.6161 39.5162 27.6288 39.52 27.6432 39.52C27.6587 39.52 27.6745 39.5184 27.6903 39.5143C31.9354 38.4716 34.0898 34.8191 34.1795 34.664C34.2123 34.6071 34.2151 34.5379 34.1865 34.4792C34.1586 34.42 34.103 34.3786 34.038 34.369L32.3179 34.1051C35.4485 31.7148 37.4854 26.9298 37.5727 26.7218ZM37.0954 26.8208C37.0267 26.9728 36.923 27.1924 36.7938 27.4543C36.7686 27.4299 36.7397 27.4102 36.7037 27.4017L34.8346 26.9604C34.8555 26.8587 34.8729 26.7547 34.8926 26.6522L37.0954 26.8208ZM35.172 24.917C35.3074 23.8345 35.3789 22.7258 35.3789 21.5962C35.3789 20.3985 35.2961 19.2256 35.1441 18.0814L36.7753 18.4664C36.6446 19.9565 36.2633 22.5618 35.172 24.917ZM35.0819 17.4379H36.8411C36.836 17.5788 36.8256 17.7979 36.807 18.0667L35.0841 17.6604C35.0729 17.5844 35.0637 17.5071 35.0516 17.4314C35.0621 17.433 35.0714 17.4379 35.0819 17.4379ZM34.2175 10.4583C34.6854 11.6705 35.2756 13.8897 34.9372 16.7809C34.52 14.5151 33.8184 12.3854 32.8764 10.4583H34.2175ZM33.8146 9.55778C33.871 9.66392 33.9561 9.83735 34.0551 10.0622H32.6749C32.6544 10.0219 32.6343 9.98104 32.6134 9.94101L33.8146 9.55778ZM29.6704 4.12972C30.4651 5.16732 31.1716 6.9317 31.6257 8.23264C30.7818 6.9172 29.8178 5.73111 28.7531 4.69915L29.6704 4.12972ZM29.2118 3.62683C29.279 3.68574 29.3456 3.75303 29.4121 3.82404L28.4569 4.41692C28.3989 4.36339 28.3401 4.31226 28.2817 4.26006L29.2118 3.62683ZM17.1724 42.5184C8.05361 42.5184 0.634363 33.1325 0.634363 21.5962C0.63428 10.0596 8.05328 0.673783 17.1724 0.673783C26.2916 0.673783 33.7113 10.0596 33.7113 21.5962C33.7113 33.1325 26.2916 42.5184 17.1724 42.5184ZM28.2855 38.9287C29.4971 37.8358 30.5908 36.5507 31.5356 35.1025L33.0411 35.5584C32.1644 36.6165 30.5691 38.1669 28.2855 38.9287ZM33.6773 34.715C33.5903 34.8442 33.4642 35.0208 33.3071 35.2255L31.7525 34.7548C31.8164 34.653 31.8813 34.5526 31.9436 34.4497L33.6773 34.715ZM22.0117 42.023C28.9982 39.3947 34.1069 31.2345 34.1069 21.5961C34.1069 11.9576 28.9983 3.79711 22.0117 1.16905C29.4213 3.23895 34.9828 11.6091 34.9828 21.5961C34.9828 31.5829 29.4213 39.9528 22.0117 42.023ZM32.5287 33.4164C33.5074 31.5752 34.2608 29.5306 34.748 27.3463L36.6137 27.7868C36.6179 27.7876 36.6218 27.7876 36.626 27.788C35.8673 29.2726 34.4105 31.7775 32.5287 33.4164ZM17.1622 24.968L17.1879 24.9684L17.2133 24.9626C18.4145 24.6757 19.2859 23.2629 19.2859 21.602C19.2859 19.941 18.4145 18.528 17.2133 18.2413L17.1879 18.2355L17.1622 18.2359C15.8007 18.2714 14.7347 19.7497 14.7347 21.602C14.7347 23.454 15.8011 24.9324 17.1622 24.968ZM17.1467 18.633C18.1423 18.8888 18.8898 20.1588 18.8898 21.6022C18.8898 23.0459 18.1423 24.3159 17.1467 24.5715C16.0328 24.5224 15.1306 23.1983 15.1306 21.6022C15.1307 20.0063 16.0328 18.6822 17.1467 18.633ZM32.5376 21.7009C32.5376 20.8515 32.4897 20.0162 32.4046 19.1953L32.3683 18.8349C31.8002 14.0409 29.829 9.81664 26.9982 6.84619C26.9874 6.8307 26.9751 6.81736 26.9603 6.80501C24.3004 4.03186 20.8887 2.36235 17.1725 2.36235C10.7556 2.36235 5.24805 7.34088 2.95144 14.3881C2.90081 14.438 2.88532 14.5078 2.89369 14.5728C2.31672 16.3972 1.95436 18.3562 1.84581 20.4027C1.8265 20.4503 1.82335 20.503 1.83711 20.5504C1.81929 20.9315 1.80753 21.3146 1.80753 21.7009C1.80753 32.3641 8.69993 41.0391 17.1725 41.0391C21.4263 41.0391 25.2815 38.8514 28.0664 35.324C28.0737 35.324 28.0811 35.324 28.0881 35.324L28.2791 35.0735C28.2768 35.0665 28.2729 35.0615 28.2706 35.0545C30.9106 31.5806 32.5376 26.8768 32.5376 21.7009ZM30.7625 29.63C30.2721 29.2541 29.7535 28.9644 29.2129 28.7312C30.3186 27.5632 30.4821 25.6147 31.9344 24.8295C31.7115 26.5149 31.3132 28.1249 30.7625 29.63ZM29.037 23.9211C28.7005 23.9768 28.3579 24.0371 28.0064 24.0812C26.1894 24.3094 24.4496 23.6125 22.6978 23.2234C22.7845 22.6991 22.8339 22.1557 22.8339 21.5965C22.8339 21.0574 22.7895 20.5326 22.7086 20.0262C24.3151 20.1426 25.9308 20.901 27.5461 20.5991C28.7458 20.3749 29.8089 19.7541 30.9587 19.4277C30.5244 19.7814 30.1996 20.2261 29.9826 20.8228C29.6008 21.8742 29.6139 22.9365 29.037 23.9211ZM29.3089 24.2429C30.1546 24.1237 30.9829 24.0866 31.7594 24.4819C30.1769 25.3532 30.1035 27.3533 28.8188 28.5699C28.1386 28.3131 27.4258 28.128 26.6888 27.957C24.8426 27.5301 23.2658 26.9144 22.0333 25.4456C22.2878 24.8778 22.4881 24.2631 22.6239 23.6105C23.9686 23.9053 25.2756 24.3523 26.652 24.4915C27.4359 24.5708 28.2356 24.4092 29.0242 24.2855L29.3089 24.2429ZM22.632 19.6254C22.4739 18.8465 22.2287 18.1158 21.9042 17.4601C25.0011 17.0941 27.2994 14.393 30.4578 14.3839C29.7316 14.998 29.329 15.7197 29.1198 16.653C28.8699 17.7662 28.6832 19.1363 27.9713 20.1037C26.203 20.6112 24.4074 19.7292 22.632 19.6254ZM25.5943 28.097C27.2023 28.5448 28.8096 28.7784 30.201 29.7139C26.9712 30.1154 22.5524 30.6057 20.8384 27.3325C21.2232 26.8994 21.5624 26.397 21.8482 25.8405C22.856 26.9975 24.0992 27.6805 25.5943 28.097ZM32.1415 21.7009C32.1415 22.5362 32.0944 23.3572 32.0113 24.1636C31.1972 23.7127 30.3834 23.7274 29.5343 23.8446C29.8645 23.1886 30.0199 22.4933 30.1608 21.757C30.3897 20.5549 30.9099 19.7776 32.012 19.2456C32.0948 20.05 32.1415 20.8685 32.1415 21.7009ZM30.9844 14.4017C31.4485 15.8035 31.7845 17.2897 31.9706 18.8378C31.9543 18.8405 31.938 18.8424 31.921 18.8492C30.7361 18.9546 29.7062 19.486 28.6021 19.8939C29.6818 18.2064 29.0979 15.9948 30.8011 14.6076C30.8795 14.5438 30.8815 14.4626 30.8447 14.3964C30.892 14.4002 30.9373 14.3975 30.9844 14.4017ZM30.8441 14.0008C29.8428 13.9332 28.9333 14.1379 28.067 14.4734C28.077 14.452 28.0852 14.4289 28.0871 14.4017C28.2789 12.0241 27.1219 9.82749 27.0391 7.47354C28.6518 9.26676 29.9573 11.4895 30.8441 14.0008ZM27.6915 14.4017C27.6841 14.495 27.7329 14.5529 27.7986 14.5778C25.7776 15.4265 23.96 16.8914 21.6981 17.0803C21.348 16.4614 20.9312 15.9161 20.457 15.4693C22.2398 15.4031 23.6035 14.6171 24.3684 12.8378C25.1425 11.0372 25.2787 8.889 26.6415 7.41015C26.7054 9.7883 27.8845 12.0087 27.6915 14.4017ZM23.6592 4.63153C24.6925 5.26269 25.6585 6.04326 26.5441 6.9453C25.9315 7.53469 25.5239 8.25129 25.2133 9.02041C25.2059 9.00732 25.202 8.99415 25.1912 8.98155C24.1894 7.81502 23.5616 6.18188 23.6592 4.63153ZM24.9113 9.26196C24.9685 9.3285 25.0381 9.33637 25.0993 9.31375C24.8317 10.0361 24.633 10.7937 24.4125 11.5238C24.1298 12.4617 23.7837 13.3993 23.0984 14.1217C22.2967 14.9676 21.1014 15.1177 19.9907 15.0746C19.4812 14.6892 18.9227 14.4104 18.3307 14.2578C19.9501 13.6556 20.8485 12.4224 21.2166 10.6385C21.6568 8.50625 21.5048 6.1204 23.2666 4.5514C23.1316 6.22986 23.8281 8.0003 24.9113 9.26196ZM3.74742 14.4761C5.37417 13.8413 7.04584 13.3346 8.80633 13.2731C10.7845 13.2039 12.6081 13.9514 14.2235 15.0346C13.9537 15.2333 13.7002 15.4662 13.4599 15.7204C10.7698 13.4739 6.88011 15.3395 3.74742 14.4761ZM13.1984 16.0171C13.0911 16.1461 12.9863 16.2779 12.8863 16.4177C11.2791 15.5874 9.51712 15.3225 7.76375 14.9886C9.74126 14.8515 11.6989 14.7589 13.1984 16.0171ZM16.7764 17.9884C18.2694 17.9884 19.4839 19.6092 19.4839 21.602C19.4839 23.5947 18.2694 25.2155 16.7764 25.2155C15.2834 25.2155 14.069 23.5946 14.069 21.602C14.0689 19.6091 15.2834 17.9884 16.7764 17.9884ZM14.5961 10.097C15.0178 11.4355 14.9989 12.8593 15.0744 14.2929C14.2768 12.8146 12.9047 11.887 11.4538 11.0907C9.98927 10.2871 8.08849 9.55529 7.31157 7.97602C9.7058 8.70951 12.8037 8.05838 14.583 10.0868C14.5866 10.0917 14.5912 10.0928 14.5961 10.097ZM11.744 5.12498C12.6093 5.62812 13.5929 5.83651 14.6059 6.05005C16.5147 6.45301 17.6215 7.36242 18.0298 9.3391C18.0374 9.37449 18.0521 9.401 18.0703 9.42263C17.9308 11.0016 17.0549 12.5223 16.9903 14.1289C16.9518 14.1266 16.9147 14.1209 16.8758 14.1209C16.391 14.1209 15.9235 14.2136 15.4747 14.3719C15.3703 12.5127 15.4161 10.7599 14.5931 9.03549C13.8959 7.57447 12.6897 6.43362 11.744 5.12498ZM23.0032 4.25484C22.1393 5.01477 21.6922 5.98136 21.4215 7.02534C20.8616 5.09208 19.1849 3.42763 17.2733 2.76191C19.3037 2.7789 21.2398 3.30756 23.0032 4.25484ZM21.1972 7.83789C21.2019 7.87285 21.2142 7.89937 21.2305 7.92067C21.1655 8.28667 21.1129 8.65739 21.0642 9.02762C20.7479 11.4207 20.1991 13.4411 17.5736 14.079C17.5324 14.0888 17.5038 14.11 17.4812 14.1345C17.4493 14.1328 17.418 14.1285 17.3859 14.1277C17.4642 12.2185 18.7172 10.4888 18.4556 8.55348C18.1794 6.51333 16.6758 4.94707 16.3732 2.92929C18.7133 3.38528 20.8662 5.45982 21.1972 7.83789ZM15.9618 2.82605C16.1904 4.62739 17.3447 6.02213 17.8769 7.71426C17.4422 6.91273 16.7812 6.30775 15.7928 5.95211C14.2341 5.39171 12.5658 5.45709 11.2728 4.29403C12.732 3.49955 14.3097 2.99393 15.9618 2.82605ZM10.8747 4.5224C11.7436 6.02693 13.0158 7.23158 13.9476 8.69361C14.0652 8.87806 14.1664 9.06541 14.2589 9.25433C12.3323 7.789 9.48538 8.302 7.24835 7.53652C8.32912 6.32242 9.54927 5.30379 10.8747 4.5224ZM6.88343 7.96235C7.47705 9.32253 8.77476 10.0998 10.0455 10.7885C11.8794 11.7816 13.8551 12.6978 14.8258 14.6575C14.7398 14.7039 14.6554 14.7542 14.5716 14.806C14.5584 14.7894 14.5455 14.7728 14.5252 14.7589C12.8774 13.6339 11.0953 12.9303 9.08798 12.8762C7.14527 12.824 5.22883 13.4593 3.43851 14.1751C4.24882 11.8167 5.42795 9.70784 6.88343 7.96235ZM3.25596 14.7372C4.21675 15.082 5.2783 15.1201 6.3662 15.0742C6.38849 15.0947 6.41534 15.1121 6.45262 15.1207C8.54747 15.6071 10.7246 15.756 12.6634 16.7486C12.6505 16.7694 12.6357 16.7883 12.6228 16.809C11.3465 16.4798 9.95563 16.3888 8.69347 16.82C7.52055 17.2212 6.66086 18.2318 5.6119 18.8642C4.55019 19.4771 3.49245 20.0863 2.25167 20.2479C2.36817 18.3157 2.71371 16.4649 3.25596 14.7372ZM12.4203 17.1659C12.2619 17.4545 12.1146 17.7554 11.9879 18.0739C10.6039 17.3404 9.2329 17.2668 7.78613 17.7833C7.88879 17.7096 7.98815 17.6332 8.09396 17.5634C9.34858 16.7396 11.0132 16.8189 12.4203 17.1659ZM2.22797 20.6431C3.74974 20.4582 5.04272 19.6579 6.35742 18.9079C8.19091 17.862 9.93848 17.4111 11.8548 18.4469C11.8093 18.5784 11.7654 18.7107 11.7253 18.8462C11.6895 18.8296 11.6488 18.8204 11.601 18.8311C8.64607 19.4806 5.29736 21.7791 2.22623 20.6745C2.22623 20.6637 2.22756 20.6535 2.22797 20.6431ZM2.20344 21.7009C2.20344 21.4948 2.2104 21.2906 2.21562 21.0858C5.33183 22.143 8.62884 19.9204 11.6196 19.2346C11.5255 19.614 11.456 20.0077 11.408 20.4114C11.4009 20.4107 11.3962 20.4079 11.3891 20.4079C9.97925 20.4366 8.66381 20.8225 7.40753 21.4357C6.55015 21.6581 5.79064 22.1054 5.27358 22.9412C4.15999 24.7402 4.96027 27.5192 3.37595 29.0491C2.62115 26.7887 2.20344 24.3055 2.20344 21.7009ZM11.3634 20.8051C11.3467 21.0146 11.3408 21.228 11.3376 21.4426C10.5701 21.3359 9.71823 21.2347 8.8819 21.2504C9.6763 20.9837 10.4985 20.8258 11.3634 20.8051ZM3.52046 29.4559C4.89548 28.2884 4.82214 26.1084 5.15359 24.4826C5.78045 21.4081 8.81279 21.4898 11.3404 21.8404C11.3427 21.9348 11.3465 22.0288 11.351 22.1223C9.15253 21.8598 7.7031 22.977 6.72847 24.8932C5.98603 26.3535 5.47203 29.2381 3.5831 29.6302C3.56164 29.5727 3.5415 29.5143 3.52046 29.4559ZM3.72256 30.007C5.30134 29.6633 5.91319 27.7749 6.46174 26.4561C7.38557 24.2359 8.5787 22.1395 11.3366 22.513C11.3511 22.5149 11.3635 22.5115 11.3774 22.5108C11.3955 22.7115 11.4157 22.9122 11.4454 23.1079C8.75388 24.1767 7.93279 27.0296 7.8607 29.7147C7.78546 32.5122 8.41472 35.5286 9.64233 38.0625C7.09605 36.1783 5.02574 33.3731 3.72256 30.007ZM8.25877 30.376C8.1779 27.7304 8.82937 24.6026 11.5214 23.5027C11.6484 24.1525 11.8373 24.7666 12.0822 25.3343C12.0569 25.3439 12.0316 25.3594 12.0081 25.3835C10.5099 26.9338 9.72047 28.7425 9.55648 30.8865C9.39134 33.0414 9.77068 35.2008 9.75079 37.3611C8.79771 35.181 8.33028 32.7272 8.25877 30.376ZM10.0629 38.3668C10.1235 38.3103 10.1561 38.2226 10.1081 38.1286C10.1006 38.1135 10.0942 38.0977 10.0866 38.0825C10.1127 38.052 10.133 38.0149 10.1354 37.9646C10.2312 35.9574 9.95845 33.9674 9.92555 31.9626C9.88627 29.5572 10.5766 27.4584 12.2495 25.7054C12.5457 26.3086 12.9042 26.8516 13.3136 27.3157C8.99484 30.3279 13.6273 36.8341 14.946 40.4331C13.2025 40.1021 11.5562 39.3909 10.0629 38.3668ZM12.8042 34.4807C11.9729 32.2628 11.2304 29.2301 13.5351 27.6411C13.555 27.6271 13.5679 27.6101 13.5812 27.5935C13.7951 27.8074 14.0166 28.0065 14.2524 28.1787C14.2464 28.1891 14.2385 28.1972 14.2341 28.21C13.6968 29.7975 13.0022 31.2446 13.3402 32.9458C13.5783 34.1419 14.1283 35.2793 14.4934 36.4394C14.8162 37.4655 15.0095 38.5084 15.0405 39.5696C14.3516 37.8529 13.4538 36.2147 12.8042 34.4807ZM17.1724 40.6435C16.5791 40.6435 15.9951 40.5947 15.4198 40.5093C15.571 38.0621 14.6997 35.9239 13.9417 33.6404C13.3011 31.7103 13.9688 30.2128 14.5881 28.3968C14.7778 28.5132 14.9721 28.6188 15.1731 28.7065C15.1686 28.7169 15.1615 28.7251 15.1587 28.7379C14.6838 30.7917 14.9493 32.9218 16.2877 34.6123C17.1303 35.6761 18.2448 36.467 19.0677 37.5518C19.6723 38.3488 20.1201 39.2646 20.6209 40.1305C19.5133 40.4625 18.3593 40.6435 17.1724 40.6435ZM20.867 39.7734C19.9845 38.2779 19.1782 36.892 17.8693 35.6857C15.8403 33.8155 14.9045 31.5968 15.5405 28.8426C15.8989 28.9625 16.2704 29.0348 16.6525 29.0553C16.4882 31.0075 17.5563 32.6626 18.6772 34.1933C19.8259 35.7623 21.6393 37.723 20.867 39.7734ZM21.2305 39.9299C21.8424 38.3107 21.0186 36.7782 20.0572 35.406C18.7383 33.523 16.7927 31.5349 17.0458 29.0587C17.098 29.0544 17.1506 29.0521 17.2027 29.0478C17.2292 29.0614 17.258 29.0706 17.2897 29.0706C17.57 29.0706 17.8437 29.0336 18.1133 28.9786C18.6208 30.9931 19.2159 33.1398 20.9691 34.4229C22.7411 35.72 25.4204 35.3371 27.5605 35.3205C25.8062 37.4635 23.6413 39.0696 21.2305 39.9299ZM21.3875 34.2204C19.5512 33.2106 18.9706 30.789 18.4979 28.8866C18.7508 28.8105 18.9957 28.7081 19.2345 28.5866C19.9032 30.1969 21.2081 31.045 22.8436 31.6259C24.848 32.3379 26.8876 32.8375 27.7902 34.9239C25.681 34.9033 23.2864 35.2645 21.3875 34.2204ZM24.5053 31.7628C22.4881 31.0484 20.4334 30.5457 19.5761 28.3979C19.9215 28.186 20.2467 27.9272 20.5499 27.6287C22.4348 31.0856 27.2387 30.475 30.6017 30.0601C29.9443 31.7442 29.0938 33.2861 28.0888 34.6427C27.3791 33.136 26.0944 32.3258 24.5053 31.7628Z" fill="#231F20"/>
<ellipse cx="17.0795" cy="21.5833" rx="5.83726" ry="7.49733" fill="#D7282F"/>
<ellipse cx="16.7641" cy="21.6182" rx="2.70164" ry="3.64556" fill="white"/>
<path d="M19.0452 21.6042C19.0452 22.471 18.8022 23.2449 18.4222 23.7952C18.0414 24.3466 17.5404 24.6537 17.0168 24.6537C16.4931 24.6537 15.9921 24.3466 15.6113 23.7952C15.2313 23.2449 14.9883 22.471 14.9883 21.6042C14.9883 20.7373 15.2313 19.9635 15.6113 19.4131C15.9921 18.8618 16.4931 18.5547 17.0168 18.5547C17.5404 18.5547 18.0414 18.8618 18.4222 19.4131C18.8022 19.9635 19.0452 20.7373 19.0452 21.6042Z" stroke="#231F20" stroke-width="0.5"/>
</svg>
