<svg width="38" height="38" viewBox="0 0 38 38" fill="none" xmlns="http://www.w3.org/2000/svg">
<path d="M14.7962 1.8125C13.8202 1.8125 13.043 2.60231 13.043 3.56215C13.043 3.89556 12.7745 4.14678 12.4615 4.14689L8.95842 4.14802C7.9213 4.14836 7.05745 4.4929 6.42883 5.12145C5.8002 5.75 5.45529 6.64566 5.45529 7.65074V9.98057C4.80955 9.98057 4.28794 10.5112 4.28794 11.1478V13.8275L3.30757 14.4111C2.62559 14.8046 3.22993 15.8244 3.90265 15.4153L8.95842 12.4107L14.0165 15.4176C14.6892 15.8267 15.2935 14.8068 14.6115 14.4134L9.25595 11.2298C9.17213 11.1801 9.07751 11.1514 8.98008 11.1478C8.86803 11.1436 8.75733 11.1726 8.66089 11.2298L7.7911 11.7462V11.1478C7.7911 10.5112 7.27518 9.98057 6.62262 9.98057V8.81794C6.62262 8.48453 6.89223 8.23206 7.20971 8.23206H14.7962C15.7562 8.23206 16.5461 7.44225 16.5461 6.48241C16.5461 6.149 16.794 5.8965 17.1275 5.89654L27.6357 5.89767C28.6548 5.89778 29.5249 5.35597 30.1346 4.68147C30.7442 4.00696 31.1398 3.19431 31.1389 2.39382C31.1385 2.07151 30.8753 1.8125 30.5529 1.8125H14.7962ZM14.7962 2.98083H29.8453C29.7492 3.2444 29.5079 3.6379 29.2693 3.90182C28.824 4.39451 28.2334 4.72934 27.6357 4.72934H17.1275C16.1675 4.72934 15.3776 5.52257 15.3776 6.48241C15.3776 6.81582 15.1297 7.06373 14.7962 7.06373H7.20971C6.88894 7.06373 6.69261 7.14035 6.66131 7.15425C6.69859 6.92122 6.82144 6.37932 7.25645 5.9444C7.64922 5.55166 8.21263 5.31521 8.95842 5.31521H12.4615C13.4215 5.31521 14.2103 4.53794 14.2103 3.56214C14.2103 3.22355 14.4792 2.98083 14.7962 2.98083ZM5.45642 11.15H6.62377V12.4403L5.45642 13.1334V11.15ZM28.4155 11.932C27.8748 12.0108 27.3469 12.3067 26.8651 12.7891C26.3299 13.3251 26.0949 14.1127 25.9862 14.72C25.8925 15.2443 25.883 15.7229 25.8847 15.8268C25.8936 16.3192 26.4723 16.5806 26.848 16.2622C27.1169 16.0344 28.1665 15.219 29.0322 14.9867C29.7313 14.7992 30.1735 14.3417 30.2816 13.7466C30.3776 13.2182 30.2274 12.741 29.8849 12.3982C29.5124 12.0257 29.0032 11.8463 28.4155 11.932ZM29.0618 13.22C29.0901 13.2482 29.1631 13.3903 29.136 13.5391C29.1139 13.6583 29.0197 13.7823 28.7279 13.8606C28.1169 14.0245 27.5534 14.35 27.2174 14.5639C27.3246 14.1515 27.4744 13.8342 27.6916 13.6167C28.0548 13.2536 28.3583 13.1202 28.5842 13.0866C28.8163 13.0518 28.971 13.1291 29.0618 13.22ZM4.58549 16.4776C4.4033 16.5817 4.28794 16.7762 4.28794 16.986V21.6559H2.53924C1.76344 21.6559 1.74837 22.8231 2.53924 22.8231H18.2948V28.5417C17.9208 28.4057 17.5237 28.1572 17.0841 27.8726C16.4082 27.4349 15.5978 26.9026 14.6503 26.9026C13.6869 26.9026 12.8959 27.4349 12.2199 27.8726C11.5439 28.3102 10.9904 28.6522 10.4187 28.6522C9.85165 28.6522 9.29812 28.3102 8.62214 27.8726C7.94616 27.4349 7.14712 26.9026 6.19284 26.9026C5.26823 26.9026 4.13895 27.3886 3.24147 27.8418C2.34399 28.295 1.64209 28.7468 1.64209 28.7468C1.01401 29.202 1.609 30.1207 2.28046 29.7294C2.28046 29.7294 2.93101 29.3069 3.76698 28.8848C4.60294 28.4627 5.58245 28.0698 6.19284 28.0698C6.75309 28.0698 7.31347 28.4129 7.98945 28.8506C8.66544 29.2882 9.45307 29.8194 10.4187 29.8194C11.389 29.8194 12.1777 29.2882 12.8537 28.8506C13.5297 28.4129 14.0912 28.0698 14.6503 28.0698C15.2255 28.0698 15.7709 28.4129 16.4469 28.8506C17.1229 29.2882 17.9265 29.8194 18.8808 29.8194C19.8396 29.8194 20.6352 29.2882 21.3112 28.8506C21.9872 28.4129 22.5544 28.0698 23.1123 28.0698C23.668 28.0698 24.2329 28.4129 24.9089 28.8506C25.5849 29.2882 26.352 29.8194 27.3382 29.8194C28.3084 29.8194 29.0972 29.2882 29.7732 28.8506C30.4492 28.4129 31.0301 28.0698 31.5698 28.0698C32.187 28.0698 33.1597 28.4627 33.9957 28.8848C34.8316 29.3069 35.5209 29.7499 35.5209 29.7499C36.1587 30.0884 36.7209 29.2269 36.1513 28.7696C36.1513 28.7696 35.9447 28.6373 35.8094 28.5542V25.447C35.8094 20.7437 31.7144 16.986 26.7055 16.986H24.1326C24.1326 16.3495 23.6201 15.8177 22.9653 15.8177H21.7979C21.1477 15.8177 20.6306 16.3495 20.6306 16.986H13.6289C13.6288 16.7753 13.5151 16.581 13.3314 16.4776L9.25824 14.149C9.08296 14.0449 8.84346 14.0442 8.68462 14.1359L4.58549 16.4776ZM31.979 15.4997C31.6127 15.6274 31.2477 15.7941 31.0272 15.9214C30.5912 16.1731 30.6499 16.8187 31.1264 16.9815C31.4623 17.0962 32.6025 17.5552 33.1818 18.1144C33.6722 18.5879 34.2667 18.7257 34.8017 18.5408C35.2842 18.3739 35.6363 17.9751 35.741 17.5844C35.8769 17.0952 35.7697 16.5826 35.4173 16.1539C35.0892 15.7549 34.5914 15.4746 33.9695 15.3139C33.3193 15.1377 32.5449 15.2975 31.979 15.4997ZM8.95842 15.323L12.4615 17.3257C12.4615 18.7691 12.4604 20.2114 12.4604 21.6548H11.2942V18.7345C11.2942 18.4118 11.03 18.1532 10.7072 18.1532H7.20971C6.88691 18.1532 6.62262 18.4118 6.62262 18.7345V21.6559H5.45529V17.3257L8.95842 15.323ZM33.681 16.4434C34.1252 16.5582 34.3918 16.743 34.5166 16.8948C34.6265 17.0284 34.6481 17.1546 34.6135 17.2789C34.5914 17.3159 34.5325 17.4003 34.422 17.4385C34.3225 17.473 34.1816 17.4584 33.9911 17.2744C33.5369 16.8394 33.0004 16.5498 32.8315 16.4662C33.2199 16.3888 33.4817 16.39 33.681 16.4434ZM21.7979 16.986H22.9653V22.8231H21.7979V16.986ZM13.6289 18.1532H20.6306V21.6559C18.2967 21.6559 15.9628 21.6559 13.6289 21.6559V18.1532ZM24.1337 18.1532H26.7055C31.1349 18.1532 34.6456 21.4209 34.642 25.447L34.6398 27.9034C34.5933 27.8793 34.569 27.866 34.5211 27.8418C33.9533 27.5551 33.3171 27.2665 32.6767 27.0849V25.7445C32.6767 24.7904 32.5203 23.8791 32.2332 23.0476C31.9461 22.2162 31.5275 21.4611 31.0055 20.8238C30.8943 20.6851 30.7261 20.6091 30.5483 20.6095C30.074 20.6095 29.78 21.1846 30.1003 21.5647C30.5297 22.0889 30.8856 22.719 31.1297 23.4261C31.3739 24.1332 31.5093 24.9187 31.5093 25.7445V26.9049C30.5527 26.9265 29.7693 27.4647 29.1393 27.8726C28.8117 28.0847 28.4836 28.2918 28.2194 28.4186L28.2172 26.278C28.2172 23.7753 26.4829 21.6548 24.2193 21.6548H24.1337V21.0712H25.1847C25.7578 21.0712 26.2977 21.2036 26.7955 21.445C27.2934 21.6865 27.7473 22.0368 28.1316 22.4789C28.6246 23.0353 29.5034 22.3639 29.0242 21.7277C28.5429 21.1743 27.9524 20.7075 27.3038 20.393C26.6552 20.0785 25.9378 19.904 25.1846 19.904H24.1335L24.1337 18.1532ZM7.7911 19.3204H10.1257V21.6559H7.7911V19.3204ZM19.4621 22.8231H20.6306C20.6306 23.4596 21.1499 23.9903 21.7979 23.9903H22.9653C23.6178 23.9903 24.1326 23.4596 24.1326 22.8231H24.2193C25.7423 22.8231 27.0498 24.3053 27.0498 26.278V28.6249C26.5916 28.5321 26.099 28.2334 25.5417 27.8726C24.8657 27.4349 24.0695 26.9026 23.1124 26.9026C22.152 26.9026 21.3534 27.4349 20.6774 27.8726C20.2358 28.1585 19.8377 28.4083 19.4622 28.544L19.4621 22.8231Z" fill="#231F20"/>
<path d="M3.24144 31.349C4.13892 30.8958 5.26145 30.4097 6.19281 30.4097C7.1562 30.4097 7.94613 30.941 8.62211 31.3786C9.29809 31.8163 9.85161 32.1582 10.4187 32.1582C10.9835 32.1582 11.5439 31.8163 12.2199 31.3786C12.8958 30.941 13.6892 30.4097 14.6503 30.4097C15.6114 30.4097 16.4081 30.941 17.0841 31.3786C17.7601 31.8163 18.3182 32.1582 18.8807 32.1582C19.4478 32.1582 20.0013 31.8163 20.6773 31.3786C21.3533 30.941 22.1466 30.4097 23.1123 30.4097C24.0802 30.4097 24.8656 30.941 25.5416 31.3786C26.2176 31.8163 26.762 32.1582 27.3382 32.1582C27.9098 32.1582 28.4633 31.8163 29.1393 31.3786C29.8153 30.941 30.6061 30.4097 31.5697 30.4097C32.4882 30.4097 33.6237 30.8958 34.5211 31.349C35.4186 31.8021 36.1399 32.2688 36.1399 32.2688C36.7229 32.712 36.1695 33.5886 35.5232 33.2582C35.5232 33.2582 34.8316 32.8095 33.9956 32.3874C33.1596 31.9652 32.1893 31.5769 31.5697 31.5769C31.0027 31.5769 30.4491 31.9189 29.7732 32.3566C29.0972 32.7942 28.305 33.3254 27.3382 33.3254C26.3778 33.3254 25.5849 32.7942 24.9089 32.3566C24.2329 31.9189 23.6794 31.5769 23.1123 31.5769C22.5452 31.5769 21.9871 31.9189 21.3111 32.3566C20.6351 32.7942 19.8487 33.3254 18.8807 33.3254C17.9173 33.3254 17.1229 32.7942 16.4469 32.3566C15.7709 31.9189 15.2219 31.5769 14.6503 31.5769C14.0741 31.5769 13.5297 31.9189 12.8537 32.3566C12.1777 32.7942 11.3889 33.3254 10.4187 33.3254C9.45759 33.3254 8.66541 32.7942 7.98942 32.3566C7.31344 31.9189 6.75762 31.5769 6.19281 31.5769C5.58472 31.5769 4.60291 31.9652 3.76695 32.3874C2.93098 32.8095 2.28043 33.2308 2.28043 33.2308C1.61691 33.6404 1.00822 32.6989 1.64206 32.2529C1.64206 32.2529 2.34396 31.8021 3.24144 31.349Z" fill="#D7282F"/>
<path d="M30.957 14.275C30.957 13.9527 31.2183 13.6914 31.5407 13.6914C31.863 13.6914 32.1244 13.9527 32.1244 14.275C32.1244 14.5973 31.863 14.8586 31.5407 14.8586C31.2183 14.8586 30.957 14.5973 30.957 14.275Z" fill="#D7282F"/>
<path d="M3.24244 34.8393C4.13992 34.3861 5.28514 33.9023 6.19381 33.9023C7.15492 33.9023 7.94713 34.4358 8.62311 34.8735C9.29909 35.3111 9.86386 35.6531 10.4197 35.6531C10.9885 35.6531 11.5449 35.3111 12.2209 34.8735C12.8968 34.4358 13.6833 33.9023 14.649 33.9023C15.6124 33.9023 16.4091 34.4358 17.0851 34.8735C17.7611 35.3111 18.3169 35.6531 18.8817 35.6531C19.4397 35.6531 20.0023 35.3111 20.6783 34.8735C21.3543 34.4358 22.1432 33.9046 23.1133 33.9046C24.0834 33.9046 24.8666 34.4358 25.5426 34.8735C26.2186 35.3111 26.7721 35.6531 27.3392 35.6531C27.9108 35.6531 28.4643 35.3111 29.1403 34.8735C29.8163 34.4358 30.6142 33.9023 31.573 33.9023C32.4818 33.9023 33.6247 34.3861 34.5221 34.8393C35.4196 35.2925 36.1363 35.7591 36.1363 35.7591C36.7313 36.1997 36.1816 37.0898 35.5196 36.7485C35.5196 36.7485 34.8326 36.3044 33.9966 35.8822C33.1606 35.4601 32.1943 35.0718 31.5707 35.0718C30.9946 35.0718 30.4501 35.4138 29.7742 35.8515L29.7329 35.8782C29.0657 36.3104 28.2786 36.8203 27.3392 36.8203C26.3803 36.8203 25.5859 36.2891 24.9099 35.8515C24.2339 35.4138 23.6853 35.0718 23.1133 35.0718C22.5371 35.0718 21.9881 35.4138 21.3121 35.8515L21.2751 35.8755C20.6069 36.3083 19.8164 36.8203 18.8817 36.8203C17.9229 36.8203 17.1239 36.2891 16.4479 35.8515C15.7719 35.4138 15.2343 35.0718 14.6513 35.0718C14.0774 35.0718 13.5307 35.4138 12.8547 35.8515C12.1787 36.2891 11.3865 36.8203 10.4197 36.8203C9.45607 36.8203 8.66641 36.2891 7.99042 35.8515C7.31444 35.4138 6.76546 35.0718 6.19381 35.0718C5.57659 35.0718 4.60391 35.4601 3.76795 35.8822C2.93198 36.3044 2.28143 36.7257 2.28143 36.7257C1.61791 37.1239 1.00695 36.1961 1.64306 35.7477C1.64306 35.7477 2.34496 35.2925 3.24244 34.8393Z" fill="#231F20"/>
</svg>
