<svg width="39" height="39" viewBox="0 0 39 39" fill="none" xmlns="http://www.w3.org/2000/svg">
<g clip-path="url(#clip0_287_10291)">
<path d="M3.24931 21.5918C3.65224 21.5918 3.9788 21.2652 3.9788 20.8623C3.9788 20.4594 3.65224 20.1328 3.24931 20.1328H3.24874C2.84581 20.1328 2.51953 20.4594 2.51953 20.8623C2.51953 21.2652 2.84666 21.5918 3.24931 21.5918Z" fill="#D7282F"/>
<path d="M2.5187 27.6061L1.16686 28.2265C0.908402 28.3453 0.742271 28.6035 0.741701 28.8881L0.738282 30.5708C0.737997 30.8261 0.870502 31.0629 1.08878 31.1954L1.83594 31.6502C2.18017 31.8597 2.62898 31.7505 2.83842 31.4063C3.04786 31.0621 2.93844 30.6133 2.59421 30.4038L2.19812 30.1628L2.19983 29.3578L3.2499 28.8759L4.29797 29.3609L4.29627 30.1659L3.89932 30.4058C3.55423 30.6141 3.44367 31.0627 3.65198 31.4075C3.78904 31.6343 4.03011 31.7599 4.27717 31.7599C4.40569 31.7599 4.53563 31.726 4.6536 31.6545L5.40219 31.2023C5.62046 31.0704 5.75411 30.8341 5.75439 30.5794L5.75781 28.8967C5.75838 28.6117 5.59311 28.3527 5.33465 28.233L3.9774 27.605V23.7803C3.9774 23.3773 3.65084 23.0508 3.24791 23.0508C2.84526 23.0508 2.51841 23.3773 2.51841 23.7803V27.6061H2.5187Z" fill="#D7282F"/>
<path d="M36.8227 35.4904C36.0379 36.3407 34.9252 36.8285 33.7697 36.8285C32.7088 36.8285 31.6844 36.4162 30.9161 35.6907V29.5521C31.1082 29.4207 31.2341 29.2002 31.2341 28.95V26.1779H32.0334C32.4364 26.1779 32.7629 25.8514 32.7629 25.4484C32.7629 25.0455 32.4364 24.7189 32.0334 24.7189H29.0354V8.67525C29.0354 8.27232 28.7085 7.94575 28.3059 7.94575H23.0578C22.6549 7.94575 22.3283 8.27232 22.3283 8.67525V13.0471H20.8694V6.81162C20.8694 6.40869 20.5425 6.08213 20.1399 6.08213H17.9514V4.60462C17.9514 3.387 18.9419 2.39648 20.1595 2.39648H26.234C26.6369 2.39648 26.9635 2.06992 26.9635 1.66699C26.9635 1.26406 26.6369 0.9375 26.234 0.9375H20.1595C18.1375 0.9375 16.4924 2.58256 16.4924 4.60462V13.0471H14.3039C13.901 13.0471 13.5744 13.3736 13.5744 13.7766V14.0778L10.6283 9.38707C10.2191 8.73537 9.58047 8.282 8.83046 8.11074C8.08016 7.93948 7.30821 8.07057 6.6568 8.47976C5.90366 8.9528 5.44516 9.71933 5.33517 10.5383L1.54979 14.1538C1.04313 14.638 0.755042 15.2905 0.739084 15.991C0.722842 16.692 0.980729 17.3568 1.46487 17.8637C1.97979 18.4026 2.67081 18.6738 3.36297 18.6738C4.01496 18.6738 4.6678 18.4331 5.17502 17.9486L7.69205 15.5447L10.6659 20.2796C10.0455 20.919 9.66253 21.7901 9.66253 22.7493V24.7189H6.79301C6.39037 24.7189 6.06352 25.0455 6.06352 25.4484C6.06352 25.8514 6.39037 26.1779 6.79301 26.1779H7.59859V28.95C7.59859 29.1999 7.72482 29.4205 7.9166 29.5521V35.6847C7.14778 36.4142 6.1208 36.8285 5.05705 36.8285C3.90154 36.8285 2.78878 36.3407 2.00373 35.4904C1.73074 35.1943 1.26911 35.1758 0.973035 35.449C0.676964 35.722 0.658441 36.1837 0.931716 36.4797C1.99204 37.6287 3.49548 38.2875 5.05705 38.2875C6.37099 38.2875 7.64389 37.821 8.64609 36.9887C9.64829 37.821 10.9212 38.2875 12.2351 38.2875C13.5491 38.2875 14.822 37.821 15.8242 36.9887C16.8264 37.821 18.0993 38.2875 19.4132 38.2875C20.7272 38.2875 22.0001 37.821 23.0023 36.9887C24.0047 37.821 25.2776 38.2875 26.5916 38.2875C27.9055 38.2875 29.1784 37.821 30.1806 36.9887C31.1828 37.821 32.4557 38.2875 33.7697 38.2875C35.331 38.2875 36.8347 37.6287 37.8947 36.4797C38.168 36.1837 38.1495 35.7223 37.8537 35.449C37.5573 35.1758 37.096 35.1943 36.8227 35.4904ZM28.0554 36.5604L25.8316 34.3368L29.4571 30.7113V35.6793C29.0513 36.0657 28.5735 36.3646 28.0554 36.5604ZM10.7713 36.5604C10.2558 36.3657 9.78022 36.0685 9.37558 35.685V30.7173L12.9948 34.3368L10.7713 36.5604ZM14.0264 33.305L10.4009 29.6795H17.6522L14.0264 33.305ZM21.1745 29.6795H28.4256L24.8001 33.305L21.1745 29.6795ZM27.5764 15.7245L24.2455 13.0733L27.5764 10.2499V15.7245ZM27.1387 17.2408L23.7873 19.9086V14.5733L27.1387 17.2408ZM27.5764 18.7573V23.9356L24.3236 21.3465L27.5764 18.7573ZM23.7873 22.7844L26.218 24.7189H23.7873V22.7844ZM26.3169 9.40474L23.7873 11.5493V9.40474H26.3169ZM17.9514 7.54111H19.4104V13.0471H17.9514V7.54111ZM22.3283 14.5061V24.7189H15.0334V22.2874H18.5478C18.9504 22.2874 19.2773 21.9608 19.2773 21.5579C19.2773 21.155 18.9504 20.8284 18.5478 20.8284H15.0334V18.3966H18.5478C18.9504 18.3966 19.2773 18.07 19.2773 17.6674C19.2773 17.2644 18.9504 16.9379 18.5478 16.9379H15.0334V14.5061H22.3283ZM7.43274 9.71534C7.75446 9.51331 8.13545 9.44862 8.50561 9.53325C8.87577 9.6176 9.19065 9.84129 9.39268 10.163L13.5325 16.7541C13.5457 16.7752 13.5596 16.7951 13.5744 16.8139V19.199H13.2125C12.7395 19.199 12.2881 19.2928 11.8749 19.4615L8.4546 14.0156C8.45346 14.0136 8.45203 14.0114 8.45061 14.0094L6.98507 11.6756C6.56789 11.0119 6.76879 10.1325 7.43274 9.71534ZM4.16741 16.8934C3.70293 17.3374 2.96375 17.3203 2.51979 16.8558C2.30493 16.631 2.19037 16.3355 2.1975 16.0246C2.20462 15.7134 2.33257 15.4236 2.55768 15.2088L5.64178 12.2632C5.67541 12.3267 5.71074 12.3897 5.7495 12.4518L6.89987 14.2835L4.16741 16.8934ZM11.1215 22.7493C11.1215 21.5961 12.0596 20.658 13.2125 20.658H13.5744V24.7189H11.1215V22.7493ZM28.3045 26.1779H29.7751V28.2205C29.7751 28.2205 19.4132 28.2205 19.4129 28.2205H9.05757V26.1779H28.3045ZM16.3602 35.4904C16.2223 35.3408 16.0279 35.2555 15.8242 35.2555C15.6207 35.2555 15.4261 35.3408 15.2882 35.4904C14.5823 36.2552 13.6112 36.7254 12.5825 36.8126L18.6837 30.7113V36.7621C17.7989 36.6028 16.978 36.1597 16.3602 35.4904ZM23.5386 35.4904C23.4003 35.3408 23.206 35.2555 23.0023 35.2555C22.7988 35.2555 22.6045 35.3408 22.4663 35.4904C21.8485 36.1597 21.0275 36.6031 20.1427 36.7621V30.7113L26.2439 36.8126C25.2152 36.7251 24.2444 36.2552 23.5386 35.4904Z" fill="#474747"/>
<path d="M29.1514 2.39648C29.3431 2.39648 29.5315 2.31841 29.6671 2.18277C29.8028 2.04713 29.8809 1.85877 29.8809 1.66699C29.8809 1.47522 29.8028 1.28686 29.6671 1.15122C29.5315 1.01558 29.3431 0.9375 29.1514 0.9375C28.9596 0.9375 28.7712 1.01558 28.6356 1.15122C28.5 1.28686 28.4219 1.47522 28.4219 1.66699C28.4219 1.85877 28.5 2.04713 28.6356 2.18277C28.7715 2.31841 28.9596 2.39648 29.1514 2.39648Z" fill="#D7282F"/>
<path d="M28.249 5.31445H37.358C37.7609 5.31445 38.0875 4.98789 38.0875 4.58496C38.0875 4.18203 37.7609 3.85547 37.358 3.85547H28.249C27.8461 3.85547 27.5195 4.18203 27.5195 4.58496C27.5195 4.98789 27.8461 5.31445 28.249 5.31445Z" fill="#D7282F"/>
<path d="M23.1123 3.85547C22.7094 3.85547 22.3828 4.18203 22.3828 4.58496C22.3828 4.98789 22.7094 5.31445 23.1123 5.31445H25.1113C25.5139 5.31445 25.8408 4.98789 25.8408 4.58496C25.8408 4.18203 25.5139 3.85547 25.1113 3.85547H23.1123Z" fill="#D7282F"/>
</g>
<defs>
<clipPath id="clip0_287_10291">
<rect width="37.3501" height="37.35" fill="white" transform="translate(0.738281 0.9375)"/>
</clipPath>
</defs>
</svg>
