<svg width="35" height="38" viewBox="0 0 35 38" fill="none" xmlns="http://www.w3.org/2000/svg">
<path d="M20.0115 32.6438C20.3517 32.6438 20.6268 32.3688 20.6268 32.0286V29.2012C20.6268 28.861 20.3517 28.5859 20.0115 28.5859H14.209C13.8688 28.5859 13.5938 28.861 13.5938 29.2012V32.0286C13.5938 32.3688 13.8688 32.6438 14.209 32.6438H20.0115ZM14.8242 29.8164H19.3963V31.4134H14.8242V29.8164Z" fill="#D7282F"/>
<path d="M28.9959 32.6438C29.336 32.6438 29.6111 32.3688 29.6111 32.0286V29.2012C29.6111 28.861 29.336 28.5859 28.9959 28.5859H23.1934C22.8532 28.5859 22.5781 28.861 22.5781 29.2012V32.0286C22.5781 32.3688 22.8532 32.6438 23.1934 32.6438H28.9959ZM23.8095 29.8164H28.3815V31.4134H23.8095V29.8164Z" fill="#D7282F"/>
<path d="M9.40537 8.54727C10.076 9.0043 10.8705 9.25215 11.6914 9.25215C12.0324 9.25215 12.3664 9.20996 12.6916 9.12734C13.6443 11.7676 16.1562 13.5597 19.0136 13.5597C22.7208 13.5597 25.7363 10.5441 25.7363 6.83691C25.7363 3.12969 22.7217 0.113281 19.0145 0.113281C17.2268 0.113281 15.5349 0.816406 14.2807 2.0627C13.5573 1.46328 12.6441 1.1293 11.6923 1.1293C10.3713 1.1293 9.15137 1.76562 8.39375 2.82119C8.10723 2.73945 7.81016 2.69815 7.50605 2.69815C5.72363 2.69815 4.27344 4.14834 4.27344 5.93076C4.27344 7.71318 5.72363 9.16338 7.50605 9.16338C8.19951 9.16338 8.85781 8.94805 9.40537 8.54727ZM5.50391 5.93076C5.50391 4.82686 6.40215 3.92861 7.50605 3.92861C7.81191 3.92861 8.10635 3.99629 8.37969 4.129C8.67764 4.27402 9.03623 4.15713 9.1918 3.86445C9.68574 2.93633 10.6438 2.36064 11.6923 2.36064C12.5176 2.36064 13.2998 2.721 13.8395 3.34854C13.9563 3.48477 14.1269 3.56299 14.3062 3.56299C14.3079 3.56299 14.3097 3.56299 14.3123 3.56299C14.4934 3.56123 14.6647 3.47949 14.7808 3.33975C15.8293 2.07236 17.3727 1.34463 19.0153 1.34463C22.044 1.34463 24.5076 3.8082 24.5076 6.83691C24.5076 9.86563 22.044 12.3292 19.0153 12.3292C17.08 12.3292 15.3397 11.3229 14.3571 9.75049C14.3545 9.74522 14.3519 9.73994 14.3483 9.73467C14.1805 9.46484 14.0372 9.18272 13.9194 8.89004C13.9186 8.88828 13.9177 8.88652 13.9168 8.88477C13.901 8.84609 13.8869 8.80654 13.872 8.76787C13.8605 8.73887 13.85 8.70899 13.8395 8.67998C13.828 8.64746 13.8166 8.61494 13.8061 8.58242C13.7929 8.54375 13.7806 8.50508 13.7691 8.46641C13.7604 8.43916 13.7524 8.41104 13.7437 8.38291C13.7296 8.33457 13.7164 8.28535 13.7032 8.23613C13.5846 7.78262 13.5222 7.31328 13.5222 6.83779C13.5222 6.36846 13.5811 5.90176 13.698 5.45176C13.7832 5.12305 13.5863 4.7873 13.2567 4.70117C12.928 4.61592 12.5923 4.81279 12.5062 5.14238C12.3629 5.69346 12.2908 6.26387 12.2908 6.83779C12.2908 7.20781 12.3216 7.5752 12.3813 7.93731C12.1572 7.99356 11.9261 8.02344 11.6905 8.02344C11.0542 8.02344 10.4407 7.80986 9.94414 7.41875C9.91074 7.39238 9.87734 7.36514 9.84482 7.33701C9.82988 7.32383 9.81494 7.31152 9.8 7.29834C9.44404 6.9793 9.1751 6.57764 9.01689 6.12588C8.90527 5.80508 8.55371 5.63545 8.23291 5.74795C7.91211 5.85957 7.74248 6.21113 7.85498 6.53193C8.00088 6.94941 8.21445 7.33526 8.48252 7.68067C8.18721 7.84678 7.85322 7.93555 7.5043 7.93555C6.40215 7.93291 5.50391 7.03467 5.50391 5.93076Z" fill="#D7282F"/>
<path d="M1.17811 29.1308L0.300964 36.7799C0.280749 36.9539 0.33612 37.1288 0.453014 37.2598C0.569909 37.3907 0.736901 37.4654 0.911804 37.4654H10.6756H33.7214C34.0615 37.4654 34.3366 37.1903 34.3366 36.8502V20.7179C34.3366 20.3777 34.0615 20.1026 33.7214 20.1026H30.0265C29.6863 20.1026 29.4112 20.3777 29.4112 20.7179V23.1981L27.3686 20.3584C27.2526 20.1976 27.0672 20.1026 26.8694 20.1026H23.193C22.8528 20.1026 22.5777 20.3777 22.5777 20.7179V23.1981L20.5351 20.3584C20.4191 20.1976 20.2337 20.1026 20.0359 20.1026H16.3595C16.0193 20.1026 15.7442 20.3777 15.7442 20.7179V23.1973L13.7025 20.3584C13.5865 20.1976 13.4011 20.1026 13.2033 20.1026H11.456C11.1159 20.1026 10.8408 20.3777 10.8408 20.7179C10.8408 21.058 11.1159 21.3331 11.456 21.3331H12.8887L15.8611 25.4657C16.0167 25.6828 16.2953 25.7742 16.5493 25.6925C16.8033 25.6107 16.9756 25.3743 16.9756 25.1071V21.3331H19.7213L22.6946 25.4666C22.8502 25.6837 23.1288 25.7751 23.3828 25.6925C23.6368 25.6107 23.8091 25.3743 23.8091 25.1071V21.3331H26.5548L29.5281 25.4666C29.6837 25.6837 29.9623 25.7751 30.2163 25.6925C30.4703 25.6107 30.6426 25.3743 30.6426 25.1071V21.3331H33.107V36.235H11.224L9.43632 20.6476C9.43632 20.6458 9.43544 20.6449 9.43544 20.6432L8.71561 14.3722C8.71561 14.3687 8.71473 14.3643 8.72001 14.359C8.72528 14.3537 8.72968 14.3537 8.73231 14.3537C9.4205 14.3537 9.98036 13.7938 9.98036 13.1065V10.6465C9.98036 10.3063 9.70526 10.0312 9.36512 10.0312H2.22225C1.88212 10.0312 1.60702 10.3063 1.60702 10.6465V13.1065C1.60702 13.7947 2.16688 14.3537 2.85507 14.3537C2.85858 14.3537 2.86298 14.3537 2.86825 14.359C2.87352 14.3643 2.87264 14.3687 2.87264 14.3722L1.75028 24.1447C1.71161 24.4822 1.95419 24.7872 2.29169 24.8259C2.62919 24.8646 2.93417 24.622 2.97284 24.2845L4.09432 14.5119C4.13475 14.1586 4.02225 13.8044 3.78583 13.539C3.5494 13.2735 3.21014 13.1215 2.85507 13.1215C2.8454 13.1215 2.83837 13.1136 2.83837 13.1048V11.26H8.75077V13.1048C8.75077 13.1145 8.74286 13.1215 8.73319 13.1215C8.37811 13.1215 8.03886 13.2735 7.80243 13.539C7.566 13.8044 7.4535 14.1586 7.49393 14.5119L9.98651 36.2341H1.60174L2.40067 29.2696C2.43934 28.9321 2.19676 28.6271 1.85926 28.5885C1.52176 28.5498 1.21678 28.7933 1.17811 29.1308Z" fill="#231F20"/>
<path d="M1.56465 27.0509C1.58662 27.0843 1.61299 27.1159 1.64111 27.144C1.66924 27.173 1.70088 27.1985 1.73428 27.2205C1.76768 27.2434 1.80371 27.2618 1.84063 27.2776C1.87842 27.2926 1.91709 27.3049 1.95576 27.3128C1.99531 27.3207 2.03662 27.3242 2.07617 27.3242C2.23789 27.3242 2.39697 27.2583 2.51123 27.144C2.53936 27.1159 2.56572 27.0843 2.5877 27.0509C2.60967 27.0175 2.629 26.9814 2.64395 26.9445C2.65977 26.9076 2.67119 26.8689 2.6791 26.8294C2.68701 26.7898 2.69141 26.7494 2.69141 26.709C2.69141 26.6694 2.68701 26.629 2.6791 26.5886C2.67119 26.5499 2.65977 26.5112 2.64395 26.4743C2.629 26.4365 2.60967 26.4014 2.5877 26.368C2.56572 26.3337 2.53936 26.3029 2.51123 26.2739C2.39697 26.1597 2.23789 26.0938 2.07617 26.0938C1.91445 26.0938 1.75537 26.1597 1.64111 26.2739C1.61299 26.3029 1.58662 26.3337 1.56465 26.368C1.54268 26.4014 1.52334 26.4365 1.5084 26.4743C1.49258 26.5112 1.48115 26.5499 1.47324 26.5886C1.46533 26.629 1.46094 26.6694 1.46094 26.709C1.46094 26.7494 1.46533 26.7898 1.47324 26.8294C1.48115 26.8689 1.49258 26.9076 1.5084 26.9445C1.52334 26.9814 1.54268 27.0175 1.56465 27.0509Z" fill="#474747"/>
</svg>
