<svg width="46" height="46" viewBox="0 0 46 46" fill="none" xmlns="http://www.w3.org/2000/svg">
<path d="M39.582 30.1758H38.1758V25.957H38.8789V24.5508H30.4414V25.957H31.1445V30.1758H26.9258V25.2539H25.5195V30.1758H21.3008V25.2539H19.8945V30.1758H12.8633V27.3633C12.8633 27.1768 12.7892 26.9979 12.6573 26.8661C12.5255 26.7343 12.3466 26.6602 12.1602 26.6602H3.01953V25.957C3.01953 25.7706 3.09361 25.5917 3.22547 25.4599C3.35733 25.328 3.53617 25.2539 3.72266 25.2539H7.23828C7.79769 25.2539 8.33424 25.0316 8.72982 24.6361C9.1254 24.2405 9.34766 23.7039 9.34766 23.1445C9.34766 22.5851 9.1254 22.0486 8.72982 21.653C8.33424 21.2574 7.79769 21.0352 7.23828 21.0352H5.12891C4.94242 21.0352 4.76358 20.961 4.63172 20.8292C4.49986 20.6974 4.42578 20.5185 4.42578 20.332V19.6289H5.12891C5.68835 19.6289 6.22487 19.4066 6.62046 19.0111C7.01604 18.6155 7.23828 18.0789 7.23828 17.5195V16.0887L9.51922 17.7487C9.72516 18.3781 10.1529 18.9111 10.7228 19.2485C11.2926 19.5859 11.9656 19.7046 12.6165 19.5825L17.082 21.4985V22.4414C17.082 22.6279 17.1561 22.8067 17.288 22.9386C17.4198 23.0704 17.5987 23.1445 17.7852 23.1445H19.1914C19.3779 23.1445 19.5567 23.0704 19.6885 22.9385L21.0948 21.5323L20.1005 20.538L18.9003 21.7383H18.4883V17.5195H18.9003L20.1005 18.7198L21.0948 17.7255L19.6885 16.3193C19.5567 16.1874 19.3779 16.1134 19.1914 16.1133H17.7852C17.5987 16.1133 17.4198 16.1874 17.288 16.3192C17.1561 16.4511 17.082 16.6299 17.082 16.8164V17.7263L14.9438 16.5309C14.8746 15.84 14.5517 15.1993 14.0376 14.7325C13.5234 14.2657 12.8546 14.0062 12.1602 14.0039C11.9469 14.0054 11.7346 14.0315 11.5273 14.082L7.23828 10.1775V7.67578C7.23828 7.11634 7.01604 6.57981 6.62046 6.18423C6.22487 5.78864 5.68835 5.56641 5.12891 5.56641H2.31641C2.12992 5.56641 1.95108 5.64049 1.81922 5.77234C1.68736 5.90421 1.61328 6.08305 1.61328 6.26953V18.9258C1.61328 19.1123 1.68736 19.2911 1.81922 19.423C1.95108 19.5548 2.12992 19.6289 2.31641 19.6289H3.01953V20.332C3.01953 20.8914 3.24177 21.428 3.63735 21.8236C4.03294 22.2191 4.56946 22.4414 5.12891 22.4414H7.23828C7.42475 22.4414 7.60362 22.5155 7.73546 22.6474C7.8673 22.7792 7.94141 22.9581 7.94141 23.1445C7.94141 23.331 7.8673 23.5099 7.73546 23.6417C7.60362 23.7735 7.42475 23.8477 7.23828 23.8477H3.72266C3.16321 23.8477 2.62669 24.0699 2.2311 24.4655C1.83552 24.8611 1.61328 25.3976 1.61328 25.957V43.5352C1.61328 43.7216 1.68736 43.9005 1.81922 44.0323C1.95108 44.1642 2.12992 44.2383 2.31641 44.2383H12.1602C12.3466 44.2383 12.5255 44.1642 12.6573 44.0323C12.7892 43.9005 12.8633 43.7216 12.8633 43.5352V38.6133H36.7695V40.7227H36.0664C35.9507 40.7227 35.8368 40.7512 35.7347 40.8058C35.6326 40.8603 35.5456 40.9393 35.4814 41.0355L34.0752 43.1449C34.0045 43.2508 33.9639 43.3739 33.9577 43.5011C33.9515 43.6282 33.98 43.7546 34.0401 43.8669C34.1001 43.9791 34.1896 44.0729 34.2988 44.1384C34.4079 44.2038 34.5329 44.2383 34.6602 44.2383H40.2852C40.4124 44.2383 40.5374 44.2038 40.6466 44.1384C40.7558 44.0729 40.8452 43.9791 40.9052 43.8669C40.9653 43.7546 40.9938 43.6282 40.9876 43.5011C40.9814 43.3739 40.9408 43.2508 40.8702 43.1449L39.4639 41.0355C39.3997 40.9393 39.3127 40.8603 39.2106 40.8058C39.1085 40.7512 38.9946 40.7227 38.8789 40.7227H38.1758V38.6133H39.582C40.7009 38.6133 41.774 38.1688 42.5651 37.3776C43.3563 36.5865 43.8008 35.5134 43.8008 34.3945C43.8008 33.2756 43.3563 32.2026 42.5651 31.4115C41.774 30.6202 40.7009 30.1758 39.582 30.1758ZM5.12891 18.2227H3.01953V15.0192C3.444 15.275 3.9302 15.4102 4.42578 15.4102C4.92136 15.4102 5.40756 15.275 5.83203 15.0192V17.5195C5.83203 17.706 5.75795 17.8849 5.62609 18.0167C5.49423 18.1485 5.31539 18.2227 5.12891 18.2227ZM3.01953 12.5977C3.01953 12.3195 3.10201 12.0477 3.25653 11.8164C3.41105 11.5852 3.63067 11.4049 3.88763 11.2984C4.14459 11.192 4.42734 11.1642 4.70013 11.2184C4.97291 11.2727 5.22348 11.4066 5.42015 11.6033C5.61682 11.8 5.75075 12.0506 5.80501 12.3233C5.85927 12.5961 5.83142 12.8788 5.72499 13.1358C5.61855 13.3927 5.43831 13.6124 5.20705 13.7669C4.97579 13.9214 4.70391 14.0039 4.42578 14.0039C4.05282 14.0039 3.69514 13.8558 3.43141 13.592C3.16769 13.3283 3.01953 12.9706 3.01953 12.5977ZM17.082 19.9685L14.2055 18.7345C14.4071 18.5185 14.5731 18.2719 14.6977 18.004L17.082 19.3378V19.9685ZM13.5664 16.8164C13.5664 17.0946 13.4839 17.3664 13.3294 17.5976C13.1749 17.8289 12.9552 18.0092 12.6983 18.1156C12.4413 18.222 12.1586 18.2499 11.8858 18.1957C11.6131 18.1414 11.3625 18.0074 11.1658 17.8108C10.9691 17.6141 10.8352 17.3635 10.7809 17.0908C10.7267 16.818 10.7545 16.5352 10.8609 16.2782C10.9674 16.0213 11.1477 15.8017 11.3789 15.6472C11.6102 15.4926 11.882 15.4102 12.1602 15.4102C12.5331 15.4102 12.8908 15.5583 13.1545 15.822C13.4183 16.0858 13.5664 16.4435 13.5664 16.8164ZM10.2181 14.7914C9.87697 15.1214 9.62532 15.5327 9.48688 15.9867L7.23828 14.3491V12.0795L10.2181 14.7914ZM5.12891 6.97266C5.31539 6.97266 5.49423 7.04674 5.62609 7.17859C5.75795 7.31046 5.83203 7.4893 5.83203 7.67578V10.1761C5.40756 9.9203 4.92136 9.78516 4.42578 9.78516C3.9302 9.78516 3.444 9.9203 3.01953 10.1761V6.97266H5.12891ZM11.457 42.832H3.01953V28.0664H11.457V42.832ZM38.971 42.832H35.9743L36.4426 42.1289H38.5027L38.971 42.832ZM32.5508 25.957H36.7695V30.1758H32.5508V25.957ZM39.582 37.207H12.8633V31.582H39.582C40.328 31.582 41.0433 31.8783 41.5708 32.4058C42.0982 32.9332 42.3945 33.6486 42.3945 34.3945C42.3945 35.1405 42.0982 35.8558 41.5708 36.3832C41.0433 36.9107 40.328 37.207 39.582 37.207Z" fill="#474747"/>
<path d="M20.5977 34.3945C20.5977 33.8383 20.4327 33.2945 20.1237 32.832C19.8147 32.3695 19.3753 32.009 18.8614 31.7961C18.3475 31.5832 17.7821 31.5275 17.2364 31.6361C16.6909 31.7446 16.1898 32.0125 15.7964 32.4058C15.4031 32.7991 15.1352 33.3003 15.0267 33.8458C14.9182 34.3914 14.9739 34.9569 15.1868 35.4708C15.3996 35.9847 15.7601 36.424 16.2226 36.7331C16.6851 37.0421 17.2289 37.207 17.7852 37.207C18.5311 37.207 19.2465 36.9107 19.7739 36.3833C20.3014 35.8558 20.5977 35.1405 20.5977 34.3945ZM17.7852 35.8008C17.507 35.8008 17.2352 35.7183 17.0039 35.5638C16.7727 35.4093 16.5924 35.1896 16.4859 34.9327C16.3795 34.6757 16.3517 34.393 16.4059 34.1202C16.4602 33.8474 16.5941 33.5968 16.7908 33.4002C16.9875 33.2035 17.2381 33.0696 17.5108 33.0153C17.7836 32.9611 18.0663 32.9889 18.3233 33.0953C18.5803 33.2018 18.7999 33.382 18.9544 33.6133C19.1089 33.8445 19.1914 34.1164 19.1914 34.3945C19.1914 34.7675 19.0433 35.1251 18.7795 35.3889C18.5158 35.6526 18.1581 35.8008 17.7852 35.8008Z" fill="#474747"/>
<path d="M40.2852 34.3945C40.2852 33.8383 40.1202 33.2945 39.8112 32.832C39.5022 32.3695 39.0628 32.009 38.5489 31.7961C38.035 31.5832 37.4696 31.5275 36.9239 31.6361C36.3784 31.7446 35.8773 32.0125 35.4839 32.4058C35.0906 32.7991 34.8227 33.3003 34.7142 33.8458C34.6057 34.3914 34.6614 34.9569 34.8743 35.4708C35.0871 35.9847 35.4476 36.424 35.9101 36.7331C36.3726 37.0421 36.9164 37.207 37.4727 37.207C38.2186 37.207 38.934 36.9107 39.4614 36.3833C39.9889 35.8558 40.2852 35.1405 40.2852 34.3945ZM37.4727 35.8008C37.1945 35.8008 36.9227 35.7183 36.6914 35.5638C36.4602 35.4093 36.2799 35.1896 36.1734 34.9327C36.067 34.6757 36.0392 34.393 36.0934 34.1202C36.1477 33.8474 36.2816 33.5968 36.4783 33.4002C36.675 33.2035 36.9256 33.0696 37.1983 33.0153C37.4711 32.9611 37.7538 32.9889 38.0108 33.0953C38.2678 33.2018 38.4874 33.382 38.6419 33.6133C38.7964 33.8445 38.8789 34.1164 38.8789 34.3945C38.8789 34.7675 38.7308 35.1251 38.467 35.3889C38.2033 35.6526 37.8456 35.8008 37.4727 35.8008Z" fill="#474747"/>
<path d="M30.4414 34.3945C30.4414 33.8383 30.2765 33.2945 29.9674 32.832C29.6584 32.3695 29.2191 32.009 28.7052 31.7961C28.1913 31.5832 27.6258 31.5275 27.0802 31.6361C26.5346 31.7446 26.0335 32.0125 25.6402 32.4058C25.2469 32.7991 24.979 33.3003 24.8705 33.8458C24.7619 34.3914 24.8176 34.9569 25.0305 35.4708C25.2433 35.9847 25.6038 36.424 26.0664 36.7331C26.5289 37.0421 27.0727 37.207 27.6289 37.207C28.3749 37.207 29.0902 36.9107 29.6176 36.3833C30.1451 35.8558 30.4414 35.1405 30.4414 34.3945ZM27.6289 35.8008C27.3508 35.8008 27.0789 35.7183 26.8477 35.5638C26.6164 35.4093 26.4361 35.1896 26.3297 34.9327C26.2233 34.6757 26.1954 34.393 26.2497 34.1202C26.3039 33.8474 26.4379 33.5968 26.6345 33.4002C26.8312 33.2035 27.0818 33.0696 27.3545 33.0153C27.6274 32.9611 27.9101 32.9889 28.1671 33.0953C28.424 33.2018 28.6437 33.382 28.7981 33.6133C28.9527 33.8445 29.0352 34.1164 29.0352 34.3945C29.0352 34.7675 28.887 35.1251 28.6233 35.3889C28.3595 35.6526 28.0018 35.8008 27.6289 35.8008Z" fill="#474747"/>
<path d="M18.4883 33.6914H17.082V35.0977H18.4883V33.6914Z" fill="#D7282F"/>
<path d="M28.332 33.6914H26.9258V35.0977H28.332V33.6914Z" fill="#D7282F"/>
<path d="M38.1758 33.6914H36.7695V35.0977H38.1758V33.6914Z" fill="#D7282F"/>
<path d="M27.6289 18.9258H19.1914V20.332H27.6289V18.9258Z" fill="#474747"/>
<path d="M4.42578 35.0977H10.0508C10.2372 35.0977 10.4161 35.0235 10.548 34.8917C10.6798 34.7599 10.7539 34.581 10.7539 34.3945V30.1758C10.7539 29.9893 10.6798 29.8104 10.548 29.6786C10.4161 29.5468 10.2372 29.4727 10.0508 29.4727H4.42578C4.2393 29.4727 4.06046 29.5468 3.92859 29.6786C3.79674 29.8104 3.72266 29.9893 3.72266 30.1758V34.3945C3.72266 34.581 3.79674 34.7599 3.92859 34.8917C4.06046 35.0235 4.2393 35.0977 4.42578 35.0977ZM5.12891 30.8789H9.34766V33.6914H5.12891V30.8789Z" fill="#474747"/>
<path d="M16.8181 12.0368C17.4468 11.1913 17.7863 10.1657 17.7863 9.11218C17.7863 8.05854 17.4468 7.03299 16.8181 6.1875L15.6875 7.02422C16.1372 7.62732 16.3801 8.35948 16.3801 9.11183C16.3801 9.8641 16.1372 10.5963 15.6875 11.1994L16.8181 12.0368Z" fill="#D7282F"/>
<path d="M17.7695 5.11781C18.6877 6.2451 19.189 7.65451 19.189 9.10839C19.189 10.5623 18.6877 11.9717 17.7695 13.099L18.8608 13.987C19.983 12.6089 20.5957 10.886 20.5957 9.10874C20.5957 7.33151 19.983 5.60861 18.8608 4.23047L17.7695 5.11781Z" fill="#D7282F"/>
<path d="M19.8398 15.0091L20.9128 15.9182C22.5262 14.0164 23.4118 11.6035 23.4118 9.10948C23.4118 6.61553 22.5262 4.2026 20.9128 2.30078L19.8398 3.20922C21.238 4.85713 22.0055 6.94802 22.0055 9.10913C22.0055 11.2703 21.238 13.3611 19.8398 15.0091Z" fill="#D7282F"/>
<path d="M42.3945 2.75391C42.3945 2.56742 42.3204 2.38858 42.1886 2.25672C42.0568 2.12486 41.8779 2.05078 41.6914 2.05078H29.0352C28.8487 2.05078 28.6698 2.12486 28.538 2.25672C28.4061 2.38858 28.332 2.56742 28.332 2.75391V10.4883H26.9258V11.8945H43.8008V10.4883H42.3945V2.75391ZM29.7383 3.45703H40.9883V10.4883H29.7383V3.45703Z" fill="#474747"/>
<path d="M6.53516 36.5039H5.12891V37.9102H6.53516V36.5039Z" fill="#474747"/>
<path d="M6.53516 39.3164H5.12891V40.7227H6.53516V39.3164Z" fill="#D7282F"/>
<path d="M9.34766 36.5039H7.94141V37.9102H9.34766V36.5039Z" fill="#D7282F"/>
<path d="M9.34766 39.3164H7.94141V40.7227H9.34766V39.3164Z" fill="#474747"/>
<path d="M38.3828 4.36719L35.8516 6.89844L33.4258 6.29164C33.3079 6.26214 33.1845 6.26367 33.0674 6.29608C32.9503 6.32848 32.8437 6.39067 32.7578 6.47656L31.3516 7.88283L32.3458 8.87705L33.4708 7.75205L35.8966 8.35885C36.0143 8.38831 36.1378 8.38676 36.2549 8.35442C36.3719 8.32201 36.4786 8.25978 36.5645 8.17393L39.377 5.36141L38.3828 4.36719Z" fill="#D7282F"/>
</svg>
