<svg width="38" height="38" viewBox="0 0 38 38" fill="none" xmlns="http://www.w3.org/2000/svg">
<path d="M35.807 22.2368H29.9711V21.0696C29.9711 20.9148 29.9096 20.7663 29.8002 20.6569C29.6907 20.5475 29.5423 20.486 29.3875 20.486H25.8859C25.7312 20.486 25.5827 20.5475 25.4733 20.6569C25.3639 20.7663 25.3023 20.9148 25.3023 21.0696V22.2368H24.1352V20.4043C24.6848 20.2628 25.164 19.9256 25.4827 19.4559C25.8014 18.9863 25.9377 18.4164 25.866 17.8534C25.7944 17.2904 25.5197 16.7728 25.0936 16.3979C24.6675 16.023 24.1192 15.8165 23.5516 15.8172H22.3844V12.8993C22.3844 12.7445 22.3229 12.596 22.2134 12.4866C22.104 12.3772 21.9556 12.3157 21.8008 12.3157H21.2172V11.1485H24.1352C24.2432 11.1497 24.3495 11.1202 24.4414 11.0634C24.5334 11.0065 24.6073 10.9247 24.6546 10.8275L25.6642 8.8141H32.3055C32.4602 8.8141 32.6087 8.75259 32.7181 8.64317C32.8276 8.53374 32.8891 8.38527 32.8891 8.23051V5.89613C32.8891 5.74136 32.8276 5.59291 32.7181 5.48347C32.6087 5.37402 32.4602 5.31254 32.3055 5.31254H24.1352C24.0271 5.3113 23.9209 5.34081 23.8289 5.39764C23.7369 5.45447 23.663 5.53628 23.6158 5.63351L22.6061 7.64691H21.2172V5.89613C21.2172 5.74136 21.1557 5.59291 21.0463 5.48347C20.9368 5.37402 20.7884 5.31254 20.6336 5.31254H17.132C16.9773 5.31254 16.8288 5.37402 16.7194 5.48347C16.6099 5.59291 16.5484 5.74136 16.5484 5.89613V7.64691H14.7977C14.6429 7.64691 14.4944 7.70842 14.385 7.81785C14.2756 7.92727 14.2141 8.07574 14.2141 8.23051V10.5649C14.2141 10.7196 14.2756 10.8681 14.385 10.9775C14.4944 11.087 14.6429 11.1485 14.7977 11.1485H16.5484V12.3157H15.9648C15.8101 12.3157 15.6616 12.3772 15.5522 12.4866C15.4428 12.596 15.3812 12.7445 15.3812 12.8993V15.8172H14.2141C13.6465 15.8165 13.0982 16.023 12.672 16.3979C12.2459 16.7728 11.9712 17.2904 11.8996 17.8534C11.8279 18.4164 11.9642 18.9863 12.283 19.4559C12.6017 19.9256 13.0808 20.2628 13.6305 20.4043V22.2368H12.4633V21.0696C12.4633 20.9148 12.4018 20.7663 12.2923 20.6569C12.1829 20.5475 12.0345 20.486 11.8797 20.486H8.37812C8.22336 20.486 8.07489 20.5475 7.96547 20.6569C7.85604 20.7663 7.79453 20.9148 7.79453 21.0696V22.2368H1.95859C1.80381 22.2368 1.65538 22.2983 1.54593 22.4077C1.43649 22.5171 1.375 22.6656 1.375 22.8203V30.9907C1.375 31.1454 1.43649 31.2939 1.54593 31.4033C1.65538 31.5127 1.80381 31.5743 1.95859 31.5743H7.79453V32.7414C7.79453 32.8962 7.85604 33.0447 7.96547 33.1541C8.07489 33.2635 8.22336 33.325 8.37812 33.325H11.8797C12.0345 33.325 12.1829 33.2635 12.2923 33.1541C12.4018 33.0447 12.4633 32.8962 12.4633 32.7414V31.5743H25.3023V32.7414C25.3023 32.8962 25.3639 33.0447 25.4733 33.1541C25.5827 33.2635 25.7312 33.325 25.8859 33.325H29.3875C29.5423 33.325 29.6907 33.2635 29.8002 33.1541C29.9096 33.0447 29.9711 32.8962 29.9711 32.7414V31.5743H35.807C35.9618 31.5743 36.1103 31.5127 36.2197 31.4033C36.3291 31.2939 36.3906 31.1454 36.3906 30.9907V22.8203C36.3906 22.6656 36.3291 22.5171 36.2197 22.4077C36.1103 22.2983 35.9618 22.2368 35.807 22.2368ZM7.79453 30.4071H2.54219V23.4039H7.79453V30.4071ZM11.2961 32.1578H8.96172V21.6532H11.2961V32.1578ZM13.6305 30.4071H12.4633V23.4039H13.6305V30.4071ZM17.7156 6.47972H20.05V7.64691H17.7156V6.47972ZM15.3812 9.98129V8.8141H22.968C23.076 8.81533 23.1823 8.78585 23.2742 8.72901C23.3662 8.67217 23.4402 8.59035 23.4874 8.49312L24.497 6.47972H31.7219V7.64691H25.3023C25.1943 7.64569 25.088 7.67522 24.9961 7.732C24.9041 7.78884 24.8302 7.87066 24.7829 7.96789L23.7733 9.98129H15.3812ZM20.05 11.1485V12.3157H17.7156V11.1485H20.05ZM16.5484 13.4828H21.2172V15.8172H16.5484V13.4828ZM22.968 30.4071H14.7977V20.486H22.968V30.4071ZM14.2141 19.3188C13.9045 19.3188 13.6076 19.1958 13.3887 18.9769C13.1698 18.758 13.0469 18.4611 13.0469 18.1516C13.0469 17.8421 13.1698 17.5452 13.3887 17.3263C13.6076 17.1074 13.9045 16.9844 14.2141 16.9844H23.5516C23.8611 16.9844 24.158 17.1074 24.3769 17.3263C24.5958 17.5452 24.7188 17.8421 24.7188 18.1516C24.7188 18.4611 24.5958 18.758 24.3769 18.9769C24.158 19.1958 23.8611 19.3188 23.5516 19.3188H14.2141ZM25.3023 30.4071H24.1352V23.4039H25.3023V30.4071ZM28.8039 32.1578H26.4695V21.6532H28.8039V32.1578ZM35.2234 30.4071H29.9711V23.4039H35.2234V30.4071Z" fill="black"/>
<path d="M4.87422 24.5703H3.70703V25.7375H4.87422V24.5703Z" fill="#D7282F"/>
<path d="M34.0547 24.5703H31.1367V25.7375H34.0547V24.5703Z" fill="#D7282F"/>
<path d="M17.132 28.0742H15.9648V29.2414H17.132V28.0742Z" fill="#D7282F"/>
<path d="M20.6312 28.0742H18.2969V29.2414H20.6312V28.0742Z" fill="#D7282F"/>
</svg>
