<svg width="15" height="13" viewBox="0 0 15 13" fill="none" xmlns="http://www.w3.org/2000/svg">
<path d="M14.0499 2.08454C13.83 2.18209 13.6039 2.26442 13.3728 2.33125C13.6464 2.0219 13.8549 1.6579 13.9822 1.25958C14.0108 1.17029 13.9812 1.07256 13.9078 1.01417C13.8345 0.955732 13.7327 0.948732 13.652 0.996558C13.1613 1.28758 12.6319 1.49672 12.0768 1.61902C11.5177 1.07265 10.7583 0.761719 9.97318 0.761719C8.31599 0.761719 6.96775 2.10992 6.96775 3.76707C6.96775 3.89758 6.97601 4.02738 6.99236 4.15536C4.93594 3.97481 3.02413 2.96405 1.71129 1.35365C1.6645 1.29625 1.59242 1.26531 1.51863 1.27123C1.44479 1.27701 1.37845 1.31865 1.34115 1.38264C1.07487 1.83954 0.934107 2.3621 0.934107 2.89378C0.934107 3.61794 1.19266 4.30503 1.64937 4.84191C1.5105 4.79381 1.37574 4.7337 1.24712 4.6623C1.17807 4.62387 1.0938 4.62445 1.0252 4.66379C0.956552 4.70313 0.913513 4.77547 0.911707 4.85455C0.911391 4.86787 0.911391 4.8812 0.911391 4.8947C0.911391 5.97564 1.49316 6.94882 2.38261 7.47923C2.3062 7.4716 2.22983 7.46054 2.15396 7.44604C2.07574 7.43109 1.99531 7.45851 1.94256 7.51816C1.88972 7.57778 1.87224 7.66087 1.89658 7.73674C2.22581 8.76462 3.07344 9.52066 4.09815 9.75116C3.24826 10.2835 2.27635 10.5623 1.25606 10.5623C1.04317 10.5623 0.829062 10.5498 0.619513 10.525C0.515416 10.5126 0.415881 10.5741 0.380429 10.6731C0.344978 10.7721 0.382552 10.8825 0.471113 10.9393C1.78183 11.7797 3.2974 12.2239 4.85388 12.2239C7.91374 12.2239 9.8279 10.781 10.8948 9.57056C12.2253 8.06123 12.9883 6.06343 12.9883 4.08947C12.9883 4.00701 12.9871 3.92373 12.9845 3.84073C13.5094 3.44525 13.9614 2.96663 14.3291 2.41652C14.385 2.33297 14.3789 2.22255 14.3142 2.14564C14.2496 2.06869 14.1419 2.0438 14.0499 2.08454Z" fill="#1DA1F2"/>
</svg>
