<svg width="30" height="31" viewBox="0 0 30 31" fill="none" xmlns="http://www.w3.org/2000/svg">
<rect x="-0.5" y="0.5" width="29" height="29" rx="14.5" transform="matrix(-1 0 0 1 29 0.356201)" fill="white" stroke="#D7282F" stroke-dasharray="2 2"/>
<g clip-path="url(#clip0_3515_26800)">
<path d="M21.6233 21.2583L20.6227 21.0083L20.5807 20.841C20.8407 20.5544 21.0247 20.189 21.1013 19.8091C21.2787 19.7177 21.408 19.5424 21.4346 19.3324L21.5073 18.7525C21.5293 18.5771 21.4746 18.3998 21.3586 18.2665C21.3227 18.2252 21.2813 18.1892 21.2367 18.1592L21.254 17.8058L21.3153 17.7445C21.4867 17.5619 21.72 17.1719 21.3513 16.6086C21.1767 16.3419 20.8167 16.0233 20.0961 16.0233C19.8841 16.0233 19.4048 16.0233 18.9395 16.3146C17.5676 16.3632 17.4062 17.1025 17.4062 17.6605C17.4062 17.7705 17.4262 17.9765 17.4449 18.1485C17.3955 18.1798 17.3502 18.2178 17.3109 18.2625C17.1929 18.3965 17.1376 18.5745 17.1596 18.7524L17.2322 19.3324C17.2596 19.5497 17.3969 19.7297 17.6002 19.8184C17.6762 20.1817 17.8495 20.5337 18.0928 20.813L18.0442 21.009L17.0436 21.259C16.233 21.4616 15.667 22.1869 15.667 23.0228C15.667 23.1115 15.7016 23.1968 15.7643 23.2588C15.827 23.3208 15.9117 23.3562 16.0003 23.3562L22.6666 23.3555C22.8506 23.3555 22.9999 23.2062 22.9999 23.0222C22.9999 22.1869 22.4339 21.4616 21.6233 21.2583ZM16.3823 22.6889C16.4976 22.3089 16.8042 22.0063 17.2049 21.9056L18.3995 21.607C18.5188 21.5776 18.6128 21.4843 18.6421 21.365L18.7841 20.7964C18.8141 20.679 18.7767 20.555 18.6887 20.4724C18.4294 20.229 18.2574 19.8724 18.2294 19.5184C18.2154 19.3451 18.0674 19.2498 17.8935 19.2498L17.8088 18.7178C17.9048 18.7178 17.9954 18.6772 18.0588 18.6052C18.1221 18.5338 18.1514 18.4385 18.1394 18.3432C18.1141 18.1419 18.0734 17.7779 18.0734 17.6606C18.0734 17.3153 18.0734 16.9893 19.0474 16.9793C19.1154 16.9786 19.1827 16.9573 19.238 16.9173C19.556 16.6899 19.9206 16.6899 20.096 16.6899C20.6073 16.6899 20.7479 16.9039 20.7926 16.9746C20.9286 17.1819 20.8726 17.2406 20.8359 17.2806L20.6906 17.4252C20.6319 17.4839 20.5973 17.5626 20.5933 17.6452L20.5579 18.3705C20.5539 18.4612 20.5653 18.5245 20.6273 18.5905C20.6899 18.6565 20.7546 18.6698 20.8452 18.6705L20.8019 19.2125C20.6279 19.2125 20.4833 19.3458 20.4693 19.5191C20.4413 19.8784 20.2566 20.251 19.9886 20.491C19.8966 20.5737 19.858 20.7004 19.888 20.8204L20.0246 21.365C20.0546 21.4836 20.148 21.5776 20.2673 21.607L21.4619 21.9056C21.8632 22.0063 22.1698 22.3089 22.2845 22.6896L16.3823 22.6889Z" fill="#D7282F"/>
<path d="M16.3278 19.9611C16.2944 19.7804 16.1218 19.6617 15.9391 19.6951L10.9374 20.633L9.05422 9.96366L20.3949 8.07377L21.7968 16.0153C21.8281 16.1966 22.0014 16.3166 22.1828 16.2853C22.3641 16.2533 22.4847 16.0806 22.4527 15.8993L20.9942 7.63246C20.9628 7.45247 20.7902 7.32913 20.6115 7.36182L16.4318 8.05843L8.02828 7.35782C7.93828 7.34847 7.84963 7.37981 7.78164 7.43847C7.71364 7.49781 7.6723 7.5818 7.66764 7.6718L7.00103 19.6711C6.99103 19.8477 7.12102 20.0017 7.29701 20.021L10.2088 20.345L10.3388 21.081C10.3542 21.1683 10.4042 21.2463 10.4775 21.297C10.5341 21.3356 10.6001 21.3563 10.6675 21.3563C10.6881 21.3563 10.7088 21.3543 10.7288 21.3497L16.0618 20.3497C16.2431 20.3164 16.3618 20.1417 16.3278 19.9611ZM7.68496 19.3931L8.31492 8.05112L13.7552 8.50443L8.61224 9.36169C8.52425 9.37635 8.44625 9.42635 8.39491 9.49834C8.34357 9.57034 8.32357 9.66099 8.33892 9.74833L10.0882 19.6604L7.68496 19.3931Z" fill="#71717A"/>
</g>
<defs>
<clipPath id="clip0_3515_26800">
<rect width="16" height="16" fill="white" transform="translate(7 7.3562)"/>
</clipPath>
</defs>
</svg>
