<svg width="41" height="41" viewBox="0 0 41 41" fill="none" xmlns="http://www.w3.org/2000/svg">
<rect x="1.40039" y="1.49609" width="39" height="39" rx="19.5" stroke="#DDDDDD"/>
<g clip-path="url(#clip0_684_12475)">
<path d="M29.9004 15.415C29.231 15.7086 28.5178 15.9032 27.7741 15.9977C28.5391 15.541 29.123 14.8232 29.3975 13.9581C28.6843 14.3833 27.8968 14.6837 27.0575 14.8513C26.3803 14.1302 25.415 13.6836 24.362 13.6836C22.319 13.6836 20.6743 15.3418 20.6743 17.3747C20.6743 17.6672 20.699 17.9485 20.7598 18.2162C17.6919 18.0666 14.9773 16.5962 13.1536 14.3563C12.8353 14.9087 12.6485 15.541 12.6485 16.2216C12.6485 17.4996 13.3066 18.6325 14.2876 19.2883C13.6948 19.2771 13.1131 19.105 12.6204 18.8338C12.6204 18.8451 12.6204 18.8597 12.6204 18.8743C12.6204 20.6676 13.8995 22.1571 15.5769 22.5002C15.2765 22.5823 14.9491 22.6217 14.6094 22.6217C14.3731 22.6217 14.1346 22.6082 13.9108 22.5587C14.3889 24.0201 15.7456 25.0945 17.3589 25.1293C16.1034 26.1115 14.5093 26.7032 12.7835 26.7032C12.4809 26.7032 12.1906 26.6897 11.9004 26.6526C13.535 27.7067 15.4723 28.3086 17.5614 28.3086C24.3519 28.3086 28.0644 22.6836 28.0644 17.8078C28.0644 17.6447 28.0588 17.4872 28.0509 17.3308C28.7833 16.8111 29.3986 16.162 29.9004 15.415Z" fill="#4A4A4A"/>
</g>
<defs>
<clipPath id="clip0_684_12475">
<rect width="18" height="18" fill="white" transform="translate(11.9004 11.9961)"/>
</clipPath>
</defs>
</svg>
