<svg width="50" height="50" viewBox="0 0 50 50" fill="none" xmlns="http://www.w3.org/2000/svg">
<path d="M21.1407 11.2574V11.2597V15.1389C21.1407 17.2804 20.5768 18.8338 19.5569 19.8537C18.5369 20.8737 16.9835 21.4376 14.842 21.4376H10.9628C8.82126 21.4376 7.26789 20.8737 6.24793 19.8537C5.22797 18.8338 4.66406 17.2804 4.66406 15.1389V11.2597C4.66406 9.11814 5.22795 7.56505 6.25009 6.5452C7.2724 5.52516 8.83088 4.96094 10.9832 4.96094H14.8624C17.0041 4.96094 18.5571 5.52492 19.5743 6.54441C20.5913 7.56369 21.1506 9.11627 21.1407 11.2574Z" stroke="#D7282F"/>
<path d="M34.3183 4.96094H38.1974C40.339 4.96094 41.8924 5.52484 42.9123 6.5448C43.9323 7.56476 44.4962 9.11814 44.4962 11.2597V15.1389C44.4962 17.2804 43.9323 18.8338 42.9123 19.8537C41.8924 20.8737 40.339 21.4376 38.1974 21.4376H34.3183C32.1767 21.4376 30.6234 20.8737 29.6034 19.8537C28.5834 18.8338 28.0195 17.2804 28.0195 15.1389V11.2597C28.0195 9.11814 28.5834 7.56476 29.6034 6.5448C30.6234 5.52484 32.1767 4.96094 34.3183 4.96094Z" stroke="#231F20"/>
<path d="M34.3183 28.3008H38.1974C40.339 28.3008 41.8924 28.8647 42.9123 29.8846C43.9323 30.9046 44.4962 32.458 44.4962 34.5995V38.4787C44.4962 40.6202 43.9323 42.1736 42.9123 43.1936C41.8924 44.2135 40.339 44.7774 38.1974 44.7774H34.3183C32.1767 44.7774 30.6234 44.2135 29.6034 43.1936C28.5834 42.1736 28.0195 40.6202 28.0195 38.4787V34.5995C28.0195 32.458 28.5834 30.9046 29.6034 29.8846C30.6234 28.8647 32.1767 28.3008 34.3183 28.3008Z" stroke="#D7282F"/>
<path d="M21.1407 34.6177V34.62V38.4991C21.1407 40.6407 20.5768 42.194 19.5569 43.214C18.5369 44.234 16.9835 44.7979 14.842 44.7979H10.9628C8.82127 44.7979 7.26818 44.234 6.24832 43.2118C5.22828 42.1895 4.66406 40.631 4.66406 38.4787V34.5995C4.66406 32.458 5.22795 30.9049 6.25009 29.885C7.2724 28.865 8.83088 28.3008 10.9832 28.3008H14.8624C17.0041 28.3008 18.5568 28.8648 19.5739 29.8864C20.591 30.908 21.1506 32.4657 21.1407 34.6177Z" stroke="#231F20"/>
</svg>
