<svg width="42" height="57" viewBox="0 0 42 57" fill="none" xmlns="http://www.w3.org/2000/svg">
<g clip-path="url(#clip0_112_583)">
<path d="M20.9166 41.5327C20.4526 41.3131 19.9701 41.1666 19.5989 40.8921C18.5225 40.105 17.4089 39.867 16.1097 40.3063C14.8477 40.7456 14.0311 40.4894 13.2887 39.4277C12.5278 38.3295 11.4884 37.8169 10.1522 37.8352C8.81587 37.8535 8.20341 37.3959 7.7951 36.0963C7.44247 34.9248 6.68154 34.1743 5.51229 33.7716C3.97186 33.2591 3.60067 32.7283 3.60067 31.1724C3.60067 30.0009 3.11813 29.0674 2.13448 28.3718C0.928113 27.5298 0.7054 26.8526 1.16939 25.4614C1.55913 24.2716 1.3921 23.1917 0.612602 22.1849C-0.204013 21.1233 -0.204013 20.2813 0.631162 19.2013C1.3921 18.1946 1.55913 17.1146 1.15083 15.9248C0.68684 14.5886 0.928113 13.8747 2.0788 13.0876C3.13669 12.3738 3.61923 11.3853 3.60067 10.1406C3.58211 8.73119 4.08322 8.10883 5.43806 7.68783C6.57018 7.34005 7.34968 6.62618 7.72087 5.4913C8.20341 4.00864 8.79731 3.56934 10.3377 3.56934C11.5812 3.56934 12.5463 3.07512 13.233 2.06837C14.0125 0.951802 14.792 0.713844 16.1097 1.13485C17.3532 1.53754 18.4853 1.3728 19.5247 0.585713C20.5269 -0.183073 21.4177 -0.201377 22.4014 0.549105C23.4778 1.3728 24.6285 1.53754 25.8906 1.13485C27.1712 0.732149 27.895 0.951802 28.693 2.03176C29.454 3.07512 30.4376 3.60594 31.7739 3.55103C33.0545 3.49612 33.834 4.06356 34.1681 5.25334C34.5393 6.55296 35.3744 7.34005 36.655 7.70614C37.8428 8.05392 38.4182 8.74949 38.3811 9.97589C38.3439 11.3853 38.8636 12.447 40.07 13.1975C40.9423 13.7466 41.2763 14.6984 40.9237 15.6869C40.404 17.078 40.6082 18.2861 41.5547 19.4393C42.1486 20.1532 42.1486 21.2331 41.5362 21.9836C40.5896 23.1368 40.404 24.3632 40.9237 25.7543C41.2949 26.7794 40.9423 27.6763 40.0143 28.2803C38.8822 29.0125 38.3625 30.0375 38.3996 31.3738C38.4182 32.6551 37.8985 33.314 36.655 33.7167C35.3744 34.1194 34.5392 34.8882 34.1866 36.2061C33.8711 37.3593 33.1473 37.8901 31.9595 37.8718C30.549 37.8352 29.454 38.3295 28.6745 39.5192C28.062 40.4345 27.1155 40.7456 26.0761 40.3612C24.6842 39.8487 23.4964 40.0867 22.3457 40.9653C21.9374 41.2216 21.4177 41.3314 20.9166 41.5327ZM20.8795 36.8651C30.0479 36.8651 37.3974 29.7264 37.3974 20.8304C37.3974 11.6599 30.1221 4.53947 20.7496 4.53947C11.8782 4.53947 4.58432 11.9162 4.60288 20.867C4.62144 29.6532 11.971 36.8651 20.8795 36.8651Z" fill="#D7282F"/>
<path d="M20.1927 42.8141C18.4666 47.4817 16.7592 52.131 14.9589 56.9817C14.1794 55.3526 13.4741 53.9065 12.7875 52.4422C12.2307 51.2524 11.6553 50.0809 11.1171 48.8728C10.8944 48.3786 10.6531 48.2688 10.1149 48.525C7.47945 49.7697 4.80689 50.9595 1.91162 52.2774C3.69333 47.4268 5.4008 42.7957 7.1825 37.9634C8.25895 39.0799 9.53955 39.1898 10.8758 39.263C11.3027 39.2813 11.8038 39.7389 12.1008 40.1233C13.3442 41.6975 14.662 42.1002 16.5736 41.551C17.1489 41.3863 17.8913 41.551 18.4852 41.7707C19.0791 41.972 19.5616 42.4114 20.1927 42.8141Z" fill="#D7282F"/>
<path d="M21.7888 42.7592C22.2899 42.4846 22.6797 42.3382 22.9766 42.1002C23.8304 41.368 24.7212 41.2582 25.8162 41.6426C27.2267 42.1551 28.7486 41.6609 29.5838 40.4345C30.2334 39.501 31.0129 39.1898 32.145 39.1349C33.0173 39.0983 33.871 38.6224 34.8918 38.2746C36.5436 42.7592 38.2696 47.4085 40.0699 52.2775C38.7336 51.6734 37.5829 51.1609 36.4508 50.6484C34.9475 49.9528 33.4256 49.2756 31.9223 48.5434C31.3284 48.2505 31.0685 48.3603 30.8087 48.9461C29.6209 51.5453 28.3774 54.1262 27.0226 56.9817C25.2223 52.1127 23.5148 47.4634 21.7888 42.7592Z" fill="#D7282F"/>
<path d="M20.9723 35.3093C12.8247 35.3459 6.21758 28.8295 6.18046 20.7206C6.1619 12.7765 12.7876 6.13199 20.7682 6.11369C28.9714 6.09538 35.7456 12.5385 35.7828 20.4094C35.8384 28.7746 29.3797 35.2726 20.9723 35.3093ZM24.8141 20.8121C25.0183 20.5559 25.1853 20.3362 25.3524 20.1349C26.5402 18.817 27.728 17.499 28.8972 16.1628C29.5839 15.3574 29.5468 14.7351 28.7858 14.0029C28.3033 13.5453 27.7836 13.106 27.264 12.6667C26.1133 11.6599 25.5194 11.6965 24.4615 12.8314C23.3108 14.0944 22.1416 15.3391 20.7682 16.8401C20.5269 16.474 20.3784 16.1628 20.1557 15.9249C19.1535 14.8449 18.1327 13.7832 17.112 12.7216C16.0726 11.6416 15.4602 11.605 14.3837 12.5935C13.994 12.9412 13.6228 13.3073 13.233 13.6551C12.0267 14.7534 12.0267 15.3574 13.1588 16.5655C14.4951 17.9567 15.8128 19.3661 17.1491 20.7755C17.0006 20.9769 16.8893 21.1233 16.7593 21.2515C15.5344 22.5877 14.3095 23.9056 13.1031 25.2601C12.3422 26.1204 12.3979 26.7794 13.233 27.5482C13.6785 27.9692 14.1425 28.3902 14.5879 28.7746C15.8499 29.8728 16.3881 29.8179 17.5017 28.5549C18.5967 27.3285 19.6917 26.1021 20.8424 24.8208C21.1394 25.0954 21.3621 25.2967 21.5662 25.5164C22.6984 26.6696 23.8305 27.841 24.9812 28.9942C25.7421 29.763 26.4474 29.7813 27.2454 29.0857C27.7836 28.6281 28.2847 28.1339 28.7858 27.6397C29.7881 26.6879 29.8066 26.0106 28.823 25.0039C27.5424 23.6127 26.2061 22.2399 24.8141 20.8121Z" fill="#D7282F"/>
</g>
<defs>
<clipPath id="clip0_112_583">
<rect width="42" height="57" fill="white"/>
</clipPath>
</defs>
</svg>
