<svg width="36" height="36" viewBox="0 0 36 36" fill="none" xmlns="http://www.w3.org/2000/svg">
<rect width="36" height="36" rx="18" fill="#5B5B5B"/>
<path fill-rule="evenodd" clip-rule="evenodd" d="M17.7346 10.1539C17.869 9.98354 18.1278 9.98354 18.2621 10.1539L20.4242 12.8959C20.5979 13.1154 20.4406 13.4397 20.1622 13.4397H19.3104V18.6289C19.3104 19.3529 18.724 19.9393 18 19.9393C17.276 19.9393 16.6896 19.3529 16.6896 18.6289V13.443H15.8378C15.5594 13.443 15.4021 13.1187 15.5758 12.8992L17.7346 10.1539ZM23.5659 16.1525L25.8428 19.6709C25.9476 19.8314 26 20.0149 26 20.2049V25.1058C26 25.5841 25.6102 25.9739 25.1319 25.9739H18H10.8681C10.3898 25.9739 10 25.5841 10 25.1058V20.2049C10 20.0149 10.0557 19.8281 10.1572 19.6709L12.4308 16.1525C12.6077 15.8805 12.9058 15.7167 13.2301 15.7167H14.2359C14.38 15.7167 14.4685 15.8773 14.3898 16.0018L11.9328 19.8019C11.9034 19.8511 11.9361 19.9166 11.9951 19.9166H13.1941H13.9476H14.7895C14.8911 19.9166 14.9697 19.9952 14.9762 20.0968C15.0713 21.6824 16.3849 22.9403 17.9967 22.9403C19.6085 22.9403 20.9222 21.6824 21.0172 20.0968C21.0238 19.9985 21.1024 19.9166 21.2039 19.9166H22.0459H22.9238H24.0016C24.0606 19.9166 24.0966 19.8511 24.0639 19.8019L21.6069 16.0018C21.525 15.8805 21.6134 15.7167 21.7609 15.7167H22.7666C23.0909 15.7167 23.389 15.8805 23.5659 16.1525Z" fill="white"/>
</svg>
