<svg width="35" height="35" viewBox="0 0 35 35" fill="none" xmlns="http://www.w3.org/2000/svg">
<rect x="0.25" width="34" height="34.0043" rx="17" fill="#FF6066"/>
<path fill-rule="evenodd" clip-rule="evenodd" d="M16.047 13.6078L14.7039 14.9509C14.234 15.4208 13.4721 15.4208 13.0023 14.9509C12.5324 14.481 12.5324 13.7192 13.0023 13.2493L16.3994 9.85221C16.8692 9.38227 17.6311 9.38227 18.101 9.85221L21.4981 13.2493C21.968 13.7192 21.968 14.4809 21.4981 14.9508C21.2631 15.1858 20.9552 15.3033 20.6473 15.3033C20.3393 15.3033 20.0314 15.1858 19.7965 14.9508L18.4534 13.6077V18.0907C18.4534 18.7552 17.9147 19.2939 17.2502 19.2939C16.5857 19.2939 16.047 18.7552 16.047 18.0907V13.6078ZM22.3436 19.0254C22.3436 18.3609 22.8823 17.8222 23.5468 17.8222C24.2113 17.8222 24.75 18.3609 24.75 19.0254V23.3011C24.75 23.9656 24.2113 24.5043 23.5468 24.5043H10.9532C10.2887 24.5043 9.75 23.9656 9.75 23.3011V19.0254C9.75 18.3609 10.2887 17.8222 10.9532 17.8222C11.6177 17.8222 12.1564 18.3609 12.1564 19.0254V22.0979H22.3436V19.0254Z" fill="white"/>
</svg>
