<svg width="32" height="32" viewBox="0 0 32 32" fill="none" xmlns="http://www.w3.org/2000/svg">
<rect x="1.0531" y="1.05652" width="30.0364" height="30.0364" rx="15.0182" stroke="#DBDBDB"/>
<path d="M19.963 23.2095V21.624C19.963 20.783 19.635 19.9764 19.0511 19.3817C18.4673 18.787 17.6754 18.453 16.8496 18.453H10.6229C9.79717 18.453 9.00527 18.787 8.4214 19.3817C7.83753 19.9764 7.50952 20.783 7.50952 21.624V23.2095" stroke="#231F20" stroke-linecap="round" stroke-linejoin="round"/>
<path d="M13.7362 15.2819C15.4557 15.2819 16.8496 13.8622 16.8496 12.1109C16.8496 10.3596 15.4557 8.9399 13.7362 8.9399C12.0168 8.9399 10.6229 10.3596 10.6229 12.1109C10.6229 13.8622 12.0168 15.2819 13.7362 15.2819Z" stroke="#231F20" stroke-linecap="round" stroke-linejoin="round"/>
<path d="M19.963 15.282H24.633" stroke="#D7282F" stroke-linecap="round" stroke-linejoin="round"/>
<path d="M22.2981 12.9037V17.6603" stroke="#D7282F" stroke-linecap="round" stroke-linejoin="round"/>
</svg>
