<svg width="40" height="32" viewBox="0 0 40 32" fill="none" xmlns="http://www.w3.org/2000/svg">
<path fill-rule="evenodd" clip-rule="evenodd" d="M32.6667 19.3334V18C32.6667 17.8232 32.5964 17.6536 32.4714 17.5286C32.3464 17.4036 32.1768 17.3334 32 17.3334H28C27.8232 17.3334 27.6536 17.4036 27.5286 17.5286C27.4036 17.6536 27.3333 17.8232 27.3333 18V19.3334H26V17.24C26.6279 17.0784 27.1753 16.6932 27.5393 16.1567C27.9034 15.6202 28.0591 14.9692 27.9773 14.326C27.8955 13.6829 27.5817 13.0916 27.0949 12.6634C26.6081 12.2351 25.9817 11.9992 25.3333 12H24V8.66671C24 8.48991 23.9297 8.32031 23.8047 8.19531C23.6797 8.07031 23.5101 8.00004 23.3333 8.00004H22.6667V6.66671H26C26.1235 6.66811 26.2448 6.63444 26.3499 6.56951C26.4549 6.50458 26.5394 6.41111 26.5933 6.30004L27.7467 4.00004H35.3333C35.5101 4.00004 35.6797 3.92978 35.8047 3.80478C35.9297 3.67978 36 3.51018 36 3.33338V0.666709C36 0.489903 35.9297 0.320329 35.8047 0.195309C35.6797 0.0702827 35.5101 4.26813e-05 35.3333 4.26813e-05H26C25.8765 -0.00137065 25.7552 0.0323428 25.6501 0.0972628C25.5451 0.162183 25.4606 0.255636 25.4067 0.36671L24.2533 2.66671H22.6667V0.666709C22.6667 0.489903 22.5964 0.320329 22.4714 0.195309C22.3464 0.0702827 22.1768 4.26813e-05 22 4.26813e-05H18C17.8232 4.26813e-05 17.6536 0.0702827 17.5286 0.195309C17.4036 0.320329 17.3333 0.489903 17.3333 0.666709V2.66671H15.3333C15.1565 2.66671 14.9869 2.73698 14.8619 2.86198C14.7369 2.98698 14.6667 3.15658 14.6667 3.33338V6.00004C14.6667 6.17684 14.7369 6.34644 14.8619 6.47144C14.9869 6.59644 15.1565 6.66671 15.3333 6.66671H17.3333V8.00004H16.6667C16.4899 8.00004 16.3203 8.07031 16.1953 8.19531C16.0703 8.32031 16 8.48991 16 8.66671V12H14.6667C14.0183 11.9992 13.3919 12.2351 12.9051 12.6634C12.4183 13.0916 12.1045 13.6829 12.0227 14.326C11.9409 14.9692 12.0966 15.6202 12.4607 16.1567C12.8247 16.6932 13.3721 17.0784 14 17.24V19.3334H12.6667V18C12.6667 17.8232 12.5964 17.6536 12.4714 17.5286C12.3464 17.4036 12.1768 17.3334 12 17.3334H8C7.8232 17.3334 7.6536 17.4036 7.5286 17.5286C7.4036 17.6536 7.33333 17.8232 7.33333 18V19.3334H0.666667C0.489853 19.3334 0.320287 19.4036 0.19526 19.5286C0.0702401 19.6536 0 19.8232 0 20V29.3334C0 29.5102 0.0702401 29.6798 0.19526 29.8048C0.320287 29.9298 0.489853 30 0.666667 30H7.33333V31.3334C7.33333 31.5102 7.4036 31.6798 7.5286 31.8048C7.6536 31.9298 7.8232 32 8 32H12C12.1768 32 12.3464 31.9298 12.4714 31.8048C12.5964 31.6798 12.6667 31.5102 12.6667 31.3334V30H27.3333V31.3334C27.3333 31.5102 27.4036 31.6798 27.5286 31.8048C27.6536 31.9298 27.8232 32 28 32H32C32.1768 32 32.3464 31.9298 32.4714 31.8048C32.5964 31.6798 32.6667 31.5102 32.6667 31.3334V30H39.3333C39.5101 30 39.6797 29.9298 39.8047 29.8048C39.9297 29.6798 40 29.5102 40 29.3334V20C40 19.8232 39.9297 19.6536 39.8047 19.5286C39.6797 19.4036 39.5101 19.3334 39.3333 19.3334H32.6667ZM7.33333 28.6667H1.33333V20.6667H7.33333V28.6667ZM11.3333 30.6667H8.66667V18.6667H11.3333V30.6667ZM12.6667 28.6667V20.6667H14V28.6667H12.6667ZM18.6667 1.33338H21.3333V2.66671H18.6667V1.33338ZM16 5.33338V4.00004H24.6667C24.7901 4.00144 24.9115 3.96778 25.0165 3.90284C25.1216 3.83791 25.2061 3.74444 25.26 3.63338L26.4133 1.33338H34.6667V2.66671H27.3333C27.2099 2.66531 27.0885 2.69904 26.9835 2.76391C26.8784 2.82884 26.7939 2.92231 26.74 3.03338L25.5867 5.33338H16ZM21.3333 6.66671V8.00004H18.6667V6.66671H21.3333ZM17.3333 9.33338H22.6667V12H17.3333V9.33338ZM24.6667 28.6667H15.3333V17.3334H24.6667V28.6667ZM14.6667 16C14.3131 16 13.9739 15.8596 13.7239 15.6095C13.4738 15.3594 13.3333 15.0203 13.3333 14.6667C13.3333 14.3131 13.4738 13.974 13.7239 13.7239C13.9739 13.4738 14.3131 13.3334 14.6667 13.3334H25.3333C25.6869 13.3334 26.0261 13.4738 26.2761 13.7239C26.5262 13.974 26.6667 14.3131 26.6667 14.6667C26.6667 15.0203 26.5262 15.3594 26.2761 15.6095C26.0261 15.8596 25.6869 16 25.3333 16H14.6667ZM26 28.6667V20.6667H27.3333V28.6667H26ZM31.3333 30.6667H28.6667V18.6667H31.3333V30.6667ZM38.6667 28.6667H32.6667V20.6667H38.6667V28.6667ZM4 22.0001H2.66667V23.3334H4V22.0001ZM34 22.0001H37.3333V23.3334H34V22.0001ZM18 26.0001H16.6667V27.3334H18V26.0001ZM19.3333 26.0001H22V27.3334H19.3333V26.0001Z" fill="black"/>
</svg>
