<svg width="25" height="25" viewBox="0 0 25 25" fill="none" xmlns="http://www.w3.org/2000/svg">
<path d="M22.5 18.3254V17.0524V15.0524H20.5H13.5V13.1509H18.5465H19.7165H20.3085V3.81838H19.7165H18.5465H17.9735H16.8035C16.472 1.74088 14.677 0.150879 12.505 0.150879C10.3345 0.150879 8.539 1.74088 8.208 3.81838H6.435H4.6925V5.43388V11.4074H4.692V13.1509H11.5V15.0524H4.5H2.5V15.0809V17.0524V18.3254C1.3355 18.7379 0.5 19.8454 0.5 21.1509C0.5 22.8074 1.8435 24.1509 3.5 24.1509C5.1565 24.1509 6.5 22.8074 6.5 21.1509C6.5 19.8454 5.6645 18.7374 4.5 18.3254V17.0524H6.7395H11.5V18.3254C10.3355 18.7379 9.5 19.8454 9.5 21.1509C9.5 22.8074 10.8435 24.1509 12.5 24.1509C14.157 24.1509 15.5 22.8074 15.5 21.1509C15.5 19.8454 14.6645 18.7374 13.5 18.3254V17.0524H20.5V18.3254C19.3355 18.7379 18.5 19.8454 18.5 21.1509C18.5 22.8074 19.8435 24.1509 21.5 24.1509C23.157 24.1509 24.5 22.8074 24.5 21.1509C24.5 19.8454 23.6645 18.7374 22.5 18.3254ZM12.505 1.96638C13.683 1.96638 14.6755 2.74688 15.0015 3.81838H10.009C10.335 2.74688 11.327 1.96638 12.505 1.96638ZM6.435 11.4079V5.43438H8.148V7.16638H9.8945V5.43438H15.116V7.16638H16.8505V5.43438H16.8625H17.973H18.546V11.4079H17.973H16.8505H6.435Z" fill="#231F20"/>
</svg>
