<svg width="113" height="70" viewBox="0 0 113 70" fill="none" xmlns="http://www.w3.org/2000/svg">
<g clip-path="url(#clip0_1190_55)">
<path d="M56.4644 0C50.8543 0 45.1302 1.07042 39.4631 3.21127C30.5781 6.53521 22.0632 11.9718 13.4059 19.7465C8.90644 23.8028 4.69172 28.3099 0.875693 33.1268C-0.291898 34.6197 -0.291898 35.3521 0.875693 36.8169C9.64686 47.831 19.13 56.1408 29.8661 62.2817C38.9221 67.493 47.6363 70 56.4359 70C57.0909 70 57.7744 69.9718 58.4579 69.9437C65.1786 69.662 71.9563 67.8592 78.5917 64.6479C91.008 58.6197 102 49.4648 112.252 36.6761C112.452 36.4225 112.651 36.0282 112.85 35.6056C112.907 35.493 112.964 35.3803 113.021 35.2676V34.7887C112.907 34.6197 112.822 34.4225 112.708 34.2535C112.366 33.662 112.053 33.0704 111.683 32.6197C102.969 21.831 93.5995 13.662 83.0057 7.6338C75.0319 3.09859 67.3145 0.61972 59.4261 0.0845032C58.4294 0.0281677 57.4327 0 56.4644 0ZM56.5214 65.7746C49.345 65.7746 42.1116 63.8592 34.451 59.9437C26.9044 56.0845 19.7565 50.7324 12.5801 43.5493C10.9568 41.9155 9.39056 40.1972 7.85276 38.5352C7.14081 37.7746 6.42887 36.9859 5.71692 36.2253L4.69172 35.1268L5.65997 33.9718C5.80236 33.8028 5.91627 33.662 6.03018 33.5211C6.28648 33.2113 6.5143 32.9296 6.79908 32.6479C7.85276 31.5775 8.93492 30.4507 9.96012 29.3803C12.3807 26.8732 14.8868 24.2535 17.5352 21.8592C25.6799 14.5352 33.91 9.52113 42.7096 6.56338C47.3515 5.01408 51.9649 4.22535 56.4644 4.22535C57.8598 4.22535 59.2837 4.30986 60.6791 4.45071C67.7986 5.21127 74.8611 7.71831 82.2368 12.1127C90.0113 16.7324 97.387 22.9014 104.706 30.9859C105.304 31.6338 105.845 32.2817 106.443 32.9859C106.728 33.3239 107.013 33.6338 107.297 33.9718L108.294 35.1268L107.269 36.2253C106.557 36.9859 105.873 37.7183 105.19 38.4789C103.738 40.0563 102.228 41.7183 100.662 43.2676C92.0617 51.8873 83.4899 57.9718 74.4624 61.8592C68.9377 64.2254 63.6978 65.493 58.4009 65.7465C57.7744 65.7746 57.1479 65.7746 56.5214 65.7746Z" fill="#9A9A9A"/>
<g clip-path="url(#clip1_1190_55)">
<path d="M56.5098 54C56.2163 54 55.9032 53.9406 55.5705 53.8021C51.3633 52.1995 47.0582 50.577 42.9097 49.0139C41.3442 48.4203 39.7787 47.8267 38.2132 47.2332C37.2544 46.877 37 46.4813 37 45.4524C37 38.8043 37 32.1759 37 25.5278C37 24.4791 37.2544 24.123 38.2132 23.7471C40.1701 23.015 42.1074 22.2631 44.0642 21.531C47.8605 20.1262 51.7742 18.6422 55.6292 17.1781C55.9423 17.0594 56.2163 17 56.4902 17C56.7642 17 57.0381 17.0594 57.3512 17.1781C61.0497 18.5829 64.8068 20.0075 68.4466 21.3925C70.5208 22.184 72.6147 22.9556 74.6889 23.7471C75.7456 24.1428 75.9804 24.4989 75.9804 25.6267C75.9804 27.9813 75.9804 30.3358 75.9804 32.6904V38.3888C75.9804 40.7433 75.9804 43.1176 75.9804 45.4722C75.9804 46.5209 75.726 46.8968 74.7672 47.2529C72.4777 48.1235 70.1686 48.9941 67.8791 49.8647C64.435 51.1706 60.854 52.516 57.3512 53.8615C57.0773 53.9604 56.7837 54 56.5098 54ZM72.008 27.8428C71.9298 27.8626 71.8515 27.9021 71.7928 27.9219C71.6362 27.9615 71.4992 28.0209 71.3818 28.0604C70.3056 28.4759 69.2293 28.8717 68.153 29.2872C65.2178 30.3952 62.1651 31.5626 59.1711 32.6706C58.0948 33.0663 57.9579 33.8578 57.9579 34.4909C57.9774 37.6963 57.9774 40.961 57.9774 44.107V50.3198L58.9754 50.023C59.0928 49.9834 59.1907 49.9636 59.2689 49.9438C59.4451 49.8845 59.6016 49.8449 59.7582 49.7856C60.9127 49.3503 62.0672 48.915 63.2218 48.4797C66.0592 47.4112 68.9945 46.2834 71.8906 45.215C72.7125 44.9182 73.0843 44.3444 73.0843 43.454C73.0647 40.0706 73.0647 36.6476 73.0647 33.3235C73.0647 32.0176 73.0647 30.7118 73.0647 29.3861C73.0647 29.208 73.0452 29.0299 73.0452 28.8321C73.0452 28.7529 73.0256 28.654 73.0256 28.5749L72.9669 27.5658L72.008 27.8428ZM40.0135 28.4166C39.994 28.4759 39.994 28.5155 39.9744 28.5551C39.9548 28.654 39.9157 28.7727 39.9157 28.9112V30.7909C39.9157 35.0251 39.9157 39.4176 39.9353 43.7112C39.9353 44.3642 40.5615 44.9578 41.0115 45.116C44.6317 46.5209 48.3302 47.9059 51.9112 49.2513L53.281 49.7658C53.4571 49.8251 53.6136 49.8647 53.7702 49.9043C53.8289 49.9241 53.8876 49.9439 53.9659 49.9636L54.7486 50.2011L54.9443 49.3898C54.9443 49.3503 54.9639 49.3107 54.9639 49.2909C54.9834 49.192 55.0226 49.0733 55.0226 48.9348V47.2727C55.0226 42.9594 55.0226 38.5075 55.003 34.115C55.003 33.5214 54.4747 32.9476 54.005 32.7497C53.0266 32.354 52.009 31.9583 51.0306 31.6021C50.6979 31.4834 50.3457 31.3449 50.013 31.2262L40.2092 27.5064L40.0135 28.4166ZM56.5489 20.1856C56.275 20.1856 55.9619 20.2449 55.6879 20.3439C52.5961 21.4914 49.4651 22.6786 46.4516 23.8262L45.4732 24.2021C45.297 24.2615 45.1209 24.3406 44.9644 24.4198C44.8861 24.4594 44.8078 24.4989 44.7296 24.5385L43.3598 25.1519L44.6513 25.9433C44.6904 25.9631 44.7296 25.9829 44.7491 26.0027C44.8274 26.062 44.9252 26.1016 45.0426 26.161L46.8429 26.8337C49.7978 27.9615 52.87 29.1091 55.8836 30.2369C56.0597 30.2963 56.275 30.3358 56.4902 30.3358C56.7837 30.3358 57.0968 30.2765 57.3708 30.1775C60.3843 29.0497 63.437 27.9021 66.3723 26.7743L67.6443 26.2995C67.8008 26.2401 67.9573 26.161 68.0943 26.1016C68.153 26.062 68.2313 26.0422 68.29 26.0027L69.6402 25.3893L68.3683 24.6176C68.3292 24.5979 68.3096 24.5781 68.29 24.5583C68.2117 24.5187 68.1335 24.4396 67.9965 24.4L66.3527 23.7668C63.3196 22.6193 60.1887 21.4321 57.0968 20.2845C56.9403 20.2053 56.7446 20.1856 56.5489 20.1856Z" fill="#9A9A9A"/>
</g>
</g>
<defs>
<clipPath id="clip0_1190_55">
<rect width="113" height="70" fill="white" transform="matrix(1 0 0 -1 0 70)"/>
</clipPath>
<clipPath id="clip1_1190_55">
<rect width="39" height="37" fill="white" transform="translate(37 17)"/>
</clipPath>
</defs>
</svg>
