<svg width="24" height="9" viewBox="0 0 24 9" fill="none" xmlns="http://www.w3.org/2000/svg">
<path fill-rule="evenodd" clip-rule="evenodd" d="M6.24594 8.24999H4.19946L2.66484 2.22315C2.592 1.94591 2.43734 1.70082 2.20985 1.58531C1.6421 1.29502 1.01648 1.06399 0.333984 0.947468V0.715435H3.63071C4.08571 0.715435 4.42695 1.06399 4.48383 1.46879L5.28007 5.81615L7.32556 0.715435H9.31517L6.24594 8.24999ZM10.4528 8.24999H8.52002L10.1115 0.715435H12.0442L10.4528 8.24999ZM14.5445 2.80272C14.6014 2.39692 14.9427 2.16488 15.3408 2.16488C15.9664 2.10663 16.6479 2.22314 17.2166 2.51243L17.5579 0.890209C16.9891 0.658175 16.3635 0.541656 15.7958 0.541656C13.9199 0.541656 12.5549 1.5853 12.5549 3.03375C12.5549 4.13566 13.5218 4.71424 14.2043 5.06279C14.9427 5.41034 15.227 5.64237 15.1702 5.98992C15.1702 6.51124 14.6014 6.74327 14.0337 6.74327C13.3512 6.74327 12.6687 6.5695 12.044 6.27921L11.7028 7.90243C12.3853 8.19172 13.1237 8.30824 13.8062 8.30824C15.9095 8.3655 17.2166 7.32285 17.2166 5.75788C17.2166 3.78711 14.5445 3.67159 14.5445 2.80272ZM23.9811 8.24999L22.4465 0.715435H20.7981C20.4569 0.715435 20.1156 0.947468 20.0019 1.29502L17.1602 8.24999H19.1498L19.5469 7.14908H21.9915L22.219 8.24999H23.9811ZM21.0819 2.74452L21.6496 5.58417H20.0581L21.0819 2.74452Z" fill="#172B85"/>
</svg>
