<svg width="14" height="14" viewBox="0 0 14 14" fill="none" xmlns="http://www.w3.org/2000/svg">
<path fill-rule="evenodd" clip-rule="evenodd" d="M12.834 0.905975H1.16607C0.523079 0.905975 0 1.42909 0 2.07208V9.67666C0 10.3196 0.523079 10.8428 1.16607 10.8428H4.92552L4.21197 12.4162C4.13829 12.5787 4.15215 12.7675 4.24882 12.9174C4.34549 13.0674 4.51167 13.158 4.69007 13.158H9.30997H9.31066C9.60064 13.158 9.83567 12.923 9.83567 12.633C9.83567 12.5457 9.81449 12.4633 9.77666 12.3909L9.07448 10.8428H12.8339C13.4769 10.8428 14 10.3196 14 9.67666V2.07208C14.0001 1.42909 13.477 0.905975 12.834 0.905975ZM12.9501 9.67669C12.9501 9.74071 12.898 9.79275 12.834 9.79275H1.16607C1.10209 9.79275 1.05001 9.74071 1.05001 9.67669V2.07208C1.05001 2.00806 1.10209 1.95598 1.16607 1.95598H12.834C12.898 1.95598 12.9501 2.00806 12.9501 2.07208L12.9501 9.67669ZM8.61699 3.4072C8.58 3.37024 8.51476 3.3757 8.47118 3.41924L7.90163 3.98873C7.85798 4.03237 7.85262 4.09779 7.88944 4.13471L8.69806 4.94333C8.71643 4.96174 8.74219 4.96961 8.76851 4.96741C8.79497 4.9652 8.82206 4.95295 8.84401 4.93108L9.4135 4.36155C9.45704 4.31798 9.4625 4.25267 9.4255 4.21574L8.61699 3.4072ZM5.02411 6.9291C5.06062 6.91654 5.09786 6.92347 5.1218 6.94741L5.88536 7.71094C5.90927 7.73491 5.91627 7.77222 5.9036 7.80866C5.89107 7.84509 5.86069 7.87523 5.82415 7.88762L4.67145 8.27682C4.66259 8.27987 4.65367 8.28169 4.64499 8.28242C4.618 8.28473 4.59252 8.27626 4.5746 8.25817C4.5508 8.2344 4.54363 8.19758 4.55598 8.16128L4.94512 7.00859C4.95754 6.97201 4.98764 6.94167 5.02411 6.9291ZM8.0327 6.41001C8.08349 6.38684 8.12055 6.34124 8.13277 6.28685C8.14502 6.23242 8.13112 6.17537 8.09528 6.13267C8.02808 6.05276 7.95776 5.97153 7.88538 5.88973L8.51812 5.25703C8.53898 5.23614 8.55214 5.20891 8.55427 5.18154C8.55655 5.15427 8.5478 5.12886 8.53016 5.11119L7.72151 4.30265C7.68455 4.26562 7.61931 4.27104 7.5757 4.31469L6.95865 4.93185C6.5448 4.53953 6.12918 4.18952 5.76286 3.92622C5.50495 3.74086 5.03311 3.42925 4.77043 3.42526C4.72248 3.42442 4.67611 3.44318 4.64205 3.47702C4.60789 3.51083 4.58888 3.557 4.58927 3.60502C4.59063 3.78401 4.74775 4.10696 5.03164 4.51422C5.30184 4.90185 5.67305 5.3473 6.09656 5.79394L5.29155 6.59901C5.24787 6.64266 5.24244 6.7079 5.27944 6.74482L6.08805 7.55337C6.10643 7.57195 6.13194 7.57979 6.15844 7.57755C6.18476 7.57535 6.21209 7.56306 6.23386 7.54132L7.05448 6.72067C7.12612 6.78406 7.19717 6.84566 7.26724 6.90506C7.29976 6.9326 7.34064 6.94737 7.38261 6.94737C7.39209 6.94737 7.40161 6.9466 7.41113 6.9451C7.46262 6.93673 7.50791 6.90628 7.535 6.86169C7.58288 6.78301 7.64525 6.70492 7.72053 6.62978C7.81489 6.53524 7.92 6.46129 8.0327 6.41001ZM7.90642 6.81556C8.07407 6.64794 8.27245 6.55936 8.48028 6.55936C8.72777 6.55936 8.96864 6.68854 9.14116 6.91377C9.36471 7.20578 9.45361 7.622 9.39148 8.08544C9.38318 8.14676 9.34374 8.19947 9.28728 8.22464C9.26404 8.23507 9.23923 8.24018 9.21452 8.24018C9.17934 8.24018 9.14427 8.22978 9.11428 8.20931C8.96934 8.11099 8.80649 8.08516 8.63386 8.05793L8.63349 8.05787C8.46967 8.03195 8.28392 8.00256 8.08012 7.90788C7.84303 7.79784 7.68718 7.62204 7.65242 7.42589C7.61742 7.22776 7.70524 7.01674 7.90642 6.81556Z" fill="#333333"/>
</svg>
