<svg width="17" height="17" viewBox="0 0 17 17" fill="none" xmlns="http://www.w3.org/2000/svg">
<g clip-path="url(#clip0_362_2126)">
<path d="M3.89648 5.66699C3.31069 5.66699 2.83398 5.19028 2.83398 4.60449C2.83398 4.0187 3.31069 3.54199 3.89648 3.54199C4.48228 3.54199 4.95898 4.0187 4.95898 4.60449C4.95898 5.19028 4.48228 5.66699 3.89648 5.66699ZM3.89648 4.25033C3.80237 4.25051 3.71218 4.28808 3.64576 4.35477C3.57934 4.42145 3.54213 4.51179 3.54232 4.60591C3.54251 4.70003 3.58007 4.79022 3.64676 4.85664C3.71344 4.92306 3.80378 4.96026 3.8979 4.96008C3.99211 4.95989 4.08239 4.92228 4.14888 4.85553C4.21536 4.78878 4.25261 4.69835 4.25242 4.60414C4.25223 4.50993 4.21463 4.41965 4.14788 4.35316C4.08113 4.28667 3.9907 4.24943 3.89648 4.24962V4.25033ZM8.14648 5.66699C7.56069 5.66699 7.08398 5.19028 7.08398 4.60449C7.08398 4.0187 7.56069 3.54199 8.14648 3.54199C8.73228 3.54199 9.20898 4.0187 9.20898 4.60449C9.20898 5.19028 8.73228 5.66699 8.14648 5.66699ZM8.14648 4.25033C8.09988 4.25042 8.05375 4.25969 8.01073 4.27761C7.96771 4.29553 7.92864 4.32175 7.89576 4.35477C7.86287 4.38779 7.83681 4.42696 7.81906 4.47005C7.80131 4.51314 7.79222 4.55931 7.79232 4.60591C7.79241 4.65251 7.80168 4.69864 7.8196 4.74166C7.83752 4.78468 7.86374 4.82375 7.89676 4.85664C7.92978 4.88952 7.96895 4.91559 8.01204 4.93333C8.05513 4.95108 8.1013 4.96017 8.1479 4.96008C8.24211 4.95989 8.33239 4.92228 8.39888 4.85553C8.46536 4.78878 8.50261 4.69835 8.50242 4.60414C8.50223 4.50993 8.46463 4.41965 8.39788 4.35316C8.33113 4.28667 8.2407 4.24943 8.14648 4.24962V4.25033ZM15.2298 15.5837C15.1747 15.5837 15.1204 15.5709 15.0712 15.5461L13.3152 14.6678C12.7837 14.8051 12.237 14.8745 11.6882 14.8746C8.75848 14.8746 6.37565 12.9685 6.37565 10.6246C6.37565 8.28074 8.75848 6.37462 11.6882 6.37462C14.6178 6.37462 17.0007 8.28074 17.0007 10.6246C17.0007 11.8876 16.2874 13.091 15.0775 13.8943L15.5585 15.0977C15.5797 15.1515 15.5874 15.2096 15.5811 15.267C15.5748 15.3244 15.5546 15.3795 15.5222 15.4273C15.4898 15.4752 15.4463 15.5144 15.3953 15.5416C15.3444 15.5689 15.2876 15.5833 15.2298 15.5837V15.5837ZM13.3534 13.9375C13.408 13.9375 13.4618 13.9502 13.5121 13.975L14.5555 14.4964L14.3097 13.883C14.278 13.8042 14.2757 13.7167 14.3032 13.6364C14.3308 13.5561 14.3864 13.4885 14.4599 13.4459C15.6244 12.7659 16.2923 11.7381 16.2923 10.6253C16.2923 8.67245 14.2268 7.08366 11.6882 7.08366C9.14948 7.08366 7.08398 8.67245 7.08398 10.6253C7.08398 12.5782 9.14948 14.167 11.6882 14.167C12.2173 14.167 12.745 14.094 13.2578 13.9502C13.289 13.9418 13.3211 13.9375 13.3534 13.9375V13.9375Z" fill="#44D600"/>
<path d="M1.77083 12.7503C1.71052 12.7501 1.65127 12.7345 1.59866 12.705C1.54604 12.6755 1.50178 12.6331 1.47005 12.5819C1.43831 12.5306 1.42014 12.4721 1.41725 12.4118C1.41435 12.3516 1.42683 12.2916 1.4535 12.2375L2.18521 10.7734C0.792625 9.76116 0 8.3027 0 6.72949C0 3.79983 2.78021 1.41699 6.19792 1.41699C8.95617 1.41699 11.3411 2.93708 12.1323 5.20091C12.1513 5.25475 12.1569 5.31237 12.1487 5.36885C12.1406 5.42534 12.1189 5.47902 12.0856 5.52533C12.0169 5.61953 11.9057 5.66203 11.7923 5.67195L11.6995 5.35249L11.6875 5.35674V5.66699C8.36754 5.66699 5.66667 7.89116 5.66667 10.6253C5.66667 10.9313 5.70421 11.2458 5.77717 11.5596C5.78952 11.6148 5.78854 11.6722 5.77432 11.727C5.7601 11.7817 5.73304 11.8323 5.69538 11.8745C5.65772 11.9168 5.61055 11.9494 5.55776 11.9698C5.50498 11.9902 5.4481 11.9977 5.39183 11.9917C4.85589 11.9325 4.3285 11.812 3.82004 11.6326L1.94579 12.7036C1.89272 12.7346 1.83229 12.7507 1.77083 12.7503V12.7503ZM6.19792 2.12533C3.17121 2.12533 0.708333 4.19083 0.708333 6.72949C0.708333 8.15466 1.48325 9.47783 2.83404 10.3604C2.90678 10.4079 2.95953 10.4805 2.98225 10.5643C3.00498 10.6482 2.99609 10.7374 2.95729 10.8152L2.61092 11.5086L3.61321 10.9356C3.65901 10.9099 3.70985 10.8945 3.76221 10.8904C3.81457 10.8864 3.86718 10.8938 3.91637 10.9122C4.25921 11.0447 4.62117 11.1467 4.99658 11.2168C4.97124 11.0206 4.95846 10.8231 4.95833 10.6253C4.95833 7.61916 7.752 5.15274 11.2675 4.96928C10.4274 3.27353 8.41925 2.12533 6.19792 2.12533V2.12533Z" fill="#44D600"/>
<path d="M9.91732 9.91764C10.3085 9.91764 10.6257 9.60051 10.6257 9.20931C10.6257 8.81811 10.3085 8.50098 9.91732 8.50098C9.52612 8.50098 9.20898 8.81811 9.20898 9.20931C9.20898 9.60051 9.52612 9.91764 9.91732 9.91764Z" fill="#44D600"/>
<path d="M13.4583 9.91764C13.8495 9.91764 14.1667 9.60051 14.1667 9.20931C14.1667 8.81811 13.8495 8.50098 13.4583 8.50098C13.0671 8.50098 12.75 8.81811 12.75 9.20931C12.75 9.60051 13.0671 9.91764 13.4583 9.91764Z" fill="#44D600"/>
</g>
<defs>
<clipPath id="clip0_362_2126">
<rect width="17" height="17" fill="white"/>
</clipPath>
</defs>
</svg>
