<svg width="17" height="17" viewBox="0 0 17 17" fill="none" xmlns="http://www.w3.org/2000/svg">
<path fill-rule="evenodd" clip-rule="evenodd" d="M14.5221 2.47047C12.9241 0.878221 10.799 0.000894949 8.53485 0C3.86969 0 0.0728343 3.77871 0.0709674 8.42336C0.070345 9.90803 0.460101 11.3573 1.20073 12.6347L0 17L4.48682 15.8286C5.72303 16.4997 7.1149 16.8533 8.53146 16.8539H8.53494C13.1996 16.8539 16.9968 13.0748 16.9987 8.43008C16.9996 6.17921 16.1201 4.06273 14.5221 2.47047M8.53494 15.4312H8.53206C7.26976 15.4307 6.03165 15.0932 4.95158 14.4552L4.69468 14.3035L2.03217 14.9986L2.74286 12.4149L2.57557 12.1501C1.87138 11.0353 1.49944 9.7468 1.5 8.42388C1.50154 4.56344 4.65736 1.42274 8.53773 1.42274C10.4167 1.42345 12.183 2.1527 13.5112 3.47612C14.8394 4.79954 15.5704 6.55869 15.5697 8.42953C15.5681 12.2902 12.4123 15.4312 8.53494 15.4312M12.3937 10.1874C12.1822 10.082 11.1424 9.57279 10.9486 9.50255C10.7547 9.43231 10.6138 9.3972 10.4727 9.60792C10.3318 9.81863 9.92649 10.2927 9.80308 10.4332C9.67975 10.5737 9.55639 10.5913 9.3449 10.4859C9.13342 10.3805 8.45201 10.1583 7.64422 9.44119C7.01556 8.88311 6.59109 8.19377 6.46773 7.98306C6.34438 7.77234 6.45462 7.6584 6.56048 7.55349C6.65561 7.45917 6.77196 7.30765 6.8777 7.18472C6.98343 7.06182 7.01867 6.97402 7.08915 6.83356C7.15966 6.69307 7.12442 6.57014 7.07154 6.46479C7.01867 6.35944 6.59575 5.32341 6.41949 4.90198C6.24785 4.49154 6.07348 4.54708 5.94367 4.54065C5.82045 4.53455 5.67933 4.53324 5.53836 4.53324C5.39737 4.53324 5.16826 4.58593 4.9744 4.79663C4.78056 5.00736 4.23426 5.51658 4.23426 6.55259C4.23426 7.5886 4.99203 8.58947 5.09778 8.72996C5.20351 8.87044 6.58902 10.9965 8.71048 11.9082C9.21504 12.1251 9.60897 12.2546 9.91609 12.3516C10.4227 12.5118 10.8838 12.4892 11.2482 12.435C11.6545 12.3746 12.4994 11.9258 12.6756 11.4341C12.8518 10.9425 12.8518 10.521 12.799 10.4332C12.7461 10.3454 12.6051 10.2927 12.3937 10.1874" fill="#44D600"/>
</svg>
