<svg width="149" height="107" viewBox="0 0 149 107" fill="none" xmlns="http://www.w3.org/2000/svg">
<path d="M1.03639 102.834C1.74601 101.676 2.63757 101.024 4.11139 101.386C6.54956 101.966 8.6784 101.06 10.134 98.9243C11.808 96.4805 13.1544 96.5167 14.883 98.9243C17.4849 102.527 21.2149 102.545 23.8351 98.9424C25.6 96.5348 26.8919 96.5167 28.6022 98.9062C31.2223 102.563 35.1707 102.617 37.5907 98.8157C38.8644 96.8063 41.066 96.752 42.3942 98.8519C44.8142 102.653 48.7626 102.545 51.3827 98.87C53.0385 96.5529 54.4395 96.5529 56.0771 98.87C58.6972 102.545 62.5 102.545 65.1201 98.8881C66.7941 96.5529 68.2315 96.5167 69.7963 98.8519C72.2527 102.509 76.474 102.472 78.9303 98.7976C80.4224 96.5529 82.0053 96.5529 83.5337 98.8338C85.9901 102.49 90.2114 102.491 92.6678 98.8157C94.178 96.5529 95.761 96.5529 97.2712 98.8157C99.7275 102.491 103.949 102.509 106.405 98.8338C107.934 96.5529 109.517 96.5348 111.009 98.7795C113.501 102.527 117.704 102.509 120.215 98.7252C121.653 96.571 123.309 96.571 124.746 98.7614C127.239 102.527 131.442 102.509 133.953 98.7433C135.39 96.571 137.046 96.571 138.483 98.7433C140.03 101.079 141.995 101.911 144.688 101.368C146.125 101.079 147.272 101.712 147.599 102.979C147.909 104.138 147.254 105.242 145.925 105.731C143.16 106.726 140.576 106.238 138.12 104.753C137.483 104.355 136.9 103.848 136.191 103.305C134.299 105.079 132.061 106.238 129.349 106.238C126.693 106.22 124.455 105.188 122.508 103.269C120.543 105.115 118.305 106.256 115.576 106.238C112.901 106.22 110.699 105.133 108.734 103.269C106.769 105.115 104.513 106.256 101.802 106.238C99.1453 106.22 96.9255 105.115 95.0513 103.341C89.52 107.233 85.8991 107.233 81.2593 103.323C76.7469 107.179 72.1617 107.306 67.4491 103.305C65.5568 105.043 63.3188 106.238 60.6077 106.22C57.933 106.22 55.7132 105.152 53.7299 103.251C51.783 105.079 49.545 106.238 46.8339 106.22C44.1774 106.202 41.9394 105.152 39.9925 103.251C38.0092 105.097 35.7712 106.238 33.0601 106.22C30.4036 106.202 28.1837 105.115 26.2186 103.251C24.2717 105.043 22.0701 106.202 19.4136 106.202C16.7571 106.22 14.5009 105.152 12.8451 103.577C10.7527 104.464 8.89675 105.55 6.87707 106.039C4.73003 106.545 2.47382 106.364 1 104.228C1.03639 103.776 1.03639 103.305 1.03639 102.834Z" fill="url(#paint0_linear_1054_766)" stroke="url(#paint1_linear_1054_766)" stroke-miterlimit="10"/>
<path d="M140.649 72.5851C96.471 72.5851 52.4202 72.5851 8.24211 72.5851C9.02451 75.1557 10.5529 77.1469 12.427 78.9572C13.8099 80.3149 14.9744 81.8717 16.3026 83.2837C16.6301 83.6276 17.2306 83.8811 17.7036 83.8992C20.3784 83.9535 23.0531 83.9173 25.7278 83.9354C27.5109 83.9354 28.5662 84.8405 28.5298 86.2706C28.4934 87.6464 27.4745 88.4791 25.7642 88.4972C23.144 88.5153 20.5057 88.5334 17.8856 88.4791C16.9758 88.461 16.43 88.642 16.0115 89.5472C15.593 90.4885 14.9562 91.3574 14.2829 92.1539C13.3914 93.222 12.1177 93.3306 11.0988 92.5522C10.098 91.7738 9.89788 90.5066 10.6985 89.3842C13.4096 85.6008 12.7181 85.7094 9.95246 82.7949C8.29669 81.039 6.65912 79.2287 5.25808 77.2737C3.87524 75.3548 3.38397 73.0377 3.32939 70.6663C3.31119 68.8922 4.16637 68.0233 5.91311 67.969C6.24063 67.9509 6.58634 67.969 6.91385 67.969C51.8744 67.969 96.8531 67.969 141.814 67.969C144.889 67.969 145.562 68.6026 145.362 71.68C144.779 80.3149 140.922 87.1576 133.753 92.1177C132.025 93.3125 130.86 93.3306 129.932 92.2625C129.04 91.2488 129.204 90.1807 130.551 88.4972C129.95 88.4972 129.441 88.4972 128.931 88.4972C98.3269 88.4972 67.7406 88.4972 37.1362 88.4972C36.8087 88.4972 36.463 88.4972 36.1355 88.4972C34.2068 88.4791 33.1332 87.6826 33.1332 86.2163C33.1332 84.75 34.1886 83.9354 36.1355 83.9354C68.8869 83.9354 101.62 83.9354 134.372 83.9535C135.573 83.9535 136.282 83.5914 136.937 82.632C138.975 79.6089 140.303 76.3685 140.649 72.5851Z" fill="url(#paint2_linear_1054_766)" stroke="url(#paint3_linear_1054_766)" stroke-width="1.5" stroke-miterlimit="10"/>
<path d="M133.935 37.0501C127.785 37.0501 121.781 37.0501 115.612 37.0501C115.612 37.5751 115.612 38.082 115.612 38.5889C115.612 45.2868 115.612 51.9666 115.612 58.6645C115.612 59.099 115.631 59.5153 115.594 59.9498C115.449 61.1989 114.502 62.0678 113.32 62.0678C112.119 62.0678 111.155 61.1989 111.064 59.9317C110.991 58.7007 111.027 57.4698 111.027 56.2388C111.027 49.3055 111.027 42.3904 111.027 35.4571C111.027 33.2124 111.773 32.4702 114.029 32.4702C121.18 32.4702 128.331 32.4702 135.5 32.4702C137.756 32.4702 138.52 33.2305 138.538 35.439C138.538 43.3679 138.538 51.2968 138.538 59.2076C138.538 61.0179 137.701 62.0678 136.3 62.0859C134.827 62.1221 133.971 61.036 133.971 59.1533C133.935 51.8037 133.935 44.5084 133.935 37.0501Z" fill="url(#paint4_linear_1054_766)" stroke="url(#paint5_linear_1054_766)" stroke-width="1.5" stroke-miterlimit="10"/>
<path d="M127.057 10.041C131.642 10.3306 131.642 10.3306 131.642 14.7295C131.642 17.5716 131.66 20.4318 131.642 23.2739C131.642 25.0299 130.732 26.0979 129.313 26.0617C127.93 26.0255 127.075 25.0118 127.075 23.3282C127.057 20.4861 127.075 17.6621 127.075 14.7476C125.528 14.7476 124.109 14.7476 122.49 14.7476C122.49 15.9967 122.49 17.2639 122.49 18.513C122.49 20.2689 122.526 22.0248 122.472 23.7808C122.435 25.1385 121.453 26.0617 120.215 26.0617C119.033 26.0617 117.977 25.1928 117.959 23.9437C117.905 20.0517 117.886 16.1596 117.959 12.2676C117.977 10.9461 118.869 10.222 120.197 10.1315C120.907 10.0772 121.616 10.1315 122.508 10.1315C122.508 7.88679 122.49 5.71449 122.508 3.5603C122.526 1.80435 123.873 0.645794 125.365 1.09836C126.565 1.46041 127.093 2.34743 127.075 3.5784C127.057 5.69639 127.057 7.83248 127.057 10.041Z" fill="url(#paint6_linear_1054_766)" stroke="url(#paint7_linear_1054_766)" stroke-width="1.5" stroke-miterlimit="10"/>
<path d="M124.71 46.0828C123.891 46.0828 123.09 46.1371 122.272 46.0647C121.034 45.9561 120.125 44.9423 120.197 43.7657C120.27 42.5166 120.998 41.6839 122.235 41.5934C123.891 41.4848 125.583 41.5029 127.239 41.5934C128.476 41.6477 129.386 42.7157 129.313 43.8924C129.24 45.1415 128.513 45.9199 127.275 46.0828C126.438 46.1733 125.565 46.0828 124.71 46.0828Z" fill="url(#paint8_linear_1054_766)" stroke="url(#paint9_linear_1054_766)" stroke-width="0.5" stroke-miterlimit="10"/>
<path d="M124.764 55.2064C123.945 55.2064 123.144 55.2607 122.326 55.1883C121.07 55.0797 120.197 54.1202 120.197 52.9255C120.197 51.7307 121.07 50.7532 122.344 50.6808C123.963 50.6084 125.583 50.6084 127.202 50.6808C128.476 50.7351 129.331 51.7488 129.331 52.9436C129.331 54.1202 128.457 55.0797 127.184 55.1883C126.383 55.2607 125.564 55.2064 124.764 55.2064Z" fill="url(#paint10_linear_1054_766)" stroke="url(#paint11_linear_1054_766)" stroke-width="0.5" stroke-miterlimit="10"/>
<path d="M24.0874 52.5027C24.2237 52.035 24.3339 51.5555 24.5022 51.0997C25.7928 47.5801 28.3859 45.7767 32.0652 45.4557C31.7987 44.5123 31.4199 43.5651 31.2716 42.5841C30.5502 37.8041 34.2415 33.4324 39.1312 33.3551C43.9287 33.2778 48.7302 33.3333 53.5297 33.3313C53.8263 33.3313 54.1229 33.3313 54.5217 33.3313C54.5217 33.0202 54.5217 32.7566 54.5217 32.4951C54.5217 28.5573 54.5418 24.6176 54.5077 20.6799C54.4977 19.6256 54.9506 18.9379 55.8383 18.4663C57.4195 17.628 59.1549 17.412 60.9044 17.2832C63.4875 17.0929 66.0425 17.2515 68.6317 18.0125C68.6317 17.6954 68.6317 17.4358 68.6317 17.1742C68.6317 12.9887 68.6557 8.80133 68.6156 4.61588C68.6056 3.50214 69.0705 2.78079 70.0204 2.29526C71.5655 1.50653 73.2488 1.28655 74.9462 1.15378C77.4792 0.95362 79.9922 1.07847 82.439 1.81568C82.9821 1.97818 83.5072 2.23581 83.9961 2.52316C84.6875 2.92942 85.0222 3.54772 85.0202 4.37609C85.0041 8.73593 85.0161 13.0938 85.0121 17.4536C85.0121 18.3375 84.6013 18.8131 83.8859 18.8052C83.1845 18.7972 82.7697 18.3038 82.7677 17.4259C82.7617 14.0827 82.7657 10.7375 82.7657 7.39429C82.7657 7.12675 82.7657 6.85723 82.7657 6.52034C78.7838 7.53301 74.864 7.57066 70.9162 6.51439C70.9162 15.4402 70.9162 24.3263 70.9162 33.2719C74.8239 33.2719 78.7337 33.2719 82.7657 33.2719C82.7657 33.0361 82.7657 32.7784 82.7657 32.5188C82.7657 29.4967 82.7657 26.4745 82.7677 23.4543C82.7677 23.2066 82.7517 22.951 82.8098 22.7151C82.9601 22.1087 83.3669 21.7718 84.0081 21.8313C84.6073 21.8848 84.964 22.2435 85.0021 22.8479C85.0322 23.3176 85.0161 23.7893 85.0161 24.2589C85.0161 26.9838 85.0161 29.7087 85.0161 32.4336C85.0161 32.7012 85.0161 32.9687 85.0161 33.3056C88.2365 33.2897 90.8277 34.451 92.539 37.1502C94.2344 39.8235 94.2044 42.6138 92.7755 45.4715C94.6673 45.5468 96.3105 46.1077 97.7494 47.2214C100.465 49.326 101.557 52.9229 100.463 56.1551C99.3566 59.419 96.3406 61.6624 92.8978 61.7079C89.7976 61.7476 86.6975 61.7238 83.5993 61.7198C82.7717 61.7178 82.2887 61.3017 82.2827 60.6239C82.2767 59.9204 82.7717 59.4983 83.6514 59.4963C86.7015 59.4884 89.7515 59.5122 92.8016 59.4844C95.3687 59.4606 97.5911 57.7881 98.3606 55.3683C99.1221 52.9764 98.2784 50.3882 96.2424 48.8801C95.0741 48.0161 93.7495 47.7089 92.3006 47.7109C83.926 47.7267 75.5514 47.7188 67.1768 47.7188C66.9383 47.7188 66.6998 47.7188 66.3632 47.7188C69.6056 51.6823 69.6176 55.5526 66.3431 59.4923C66.6518 59.4923 66.8882 59.4923 67.1267 59.4923C70.6757 59.4923 74.2268 59.4824 77.7758 59.5062C78.1505 59.5082 78.6235 59.5954 78.87 59.8292C79.1084 60.0532 79.2768 60.5724 79.1806 60.8677C79.0744 61.2006 78.6716 61.486 78.3329 61.6822C78.1245 61.8031 77.7958 61.7218 77.5213 61.7218C62.6478 61.7218 47.7743 61.7218 32.8989 61.7218C28.2296 61.7218 25.2738 59.3873 24.1996 54.8511C24.1776 54.758 24.1275 54.6708 24.0914 54.5816C24.0874 53.89 24.0874 53.1963 24.0874 52.5027ZM60.72 45.4616C60.9004 45.4735 61.0226 45.4874 61.1448 45.4874C70.5675 45.4893 79.9882 45.4933 89.4109 45.4656C89.7375 45.4656 90.1784 45.2198 90.3748 44.9503C91.7675 43.0419 91.986 40.965 90.9319 38.8584C89.8497 36.6964 87.9961 35.5747 85.5612 35.5687C76.9642 35.543 68.3672 35.5568 59.7701 35.5608C59.6158 35.5608 59.4615 35.6024 59.2691 35.6302C61.9745 38.8505 62.3152 41.1553 60.72 45.4616ZM46.4197 47.7248C43.1352 47.7307 40.4478 50.4061 40.4819 53.6383C40.514 56.8646 43.1692 59.4844 46.4156 59.4904C49.7002 59.4983 52.3915 56.8487 52.3915 53.6046C52.3935 50.3545 49.7142 47.7188 46.4197 47.7248ZM53.4837 47.3344C56.7722 47.3462 59.4635 44.7066 59.4675 41.4644C59.4715 38.258 56.8102 35.5905 53.5758 35.5648C50.2833 35.537 47.606 38.143 47.5699 41.4109C47.5339 44.6649 50.1871 47.3225 53.4837 47.3344ZM39.3797 47.3344C42.6782 47.3264 45.3275 44.6808 45.2994 41.4188C45.2714 38.1827 42.6322 35.5707 39.3797 35.5648C36.1032 35.5588 33.4079 38.2163 33.4059 41.4565C33.4039 44.6986 36.0892 47.3423 39.3797 47.3344ZM54.654 53.6244C54.664 56.8903 57.3293 59.5082 60.6258 59.4904C63.8702 59.4725 66.5275 56.8309 66.5335 53.6165C66.5395 50.3605 63.8722 47.7208 60.5817 47.7228C57.2792 47.7248 54.642 50.3486 54.654 53.6244ZM38.2194 53.6303C38.2314 50.3506 35.6002 47.7267 32.2957 47.7248C29.0312 47.7228 26.3659 50.3228 26.3399 53.5392C26.3138 56.7972 28.9631 59.4725 32.2396 59.4923C35.5381 59.5122 38.2074 56.8943 38.2194 53.6303ZM68.5816 33.2937C68.5816 29.7167 68.5816 26.1971 68.5816 22.6656C64.6338 23.6644 60.738 23.6763 56.8123 22.6597C56.8123 26.205 56.8123 29.7325 56.8123 33.2937C60.744 33.2937 64.6338 33.2937 68.5816 33.2937ZM71.2308 4.08081C73.329 5.39867 81.1986 5.29166 82.3088 4.04712C78.6295 3.02652 75.0163 3.02454 71.2308 4.08081ZM68.3852 20.3925C65.8081 19.1282 59.0226 19.1639 57.1149 20.4302C60.8903 21.4171 64.5376 21.4746 68.3852 20.3925ZM47.7463 35.6203C46.8405 35.6203 46.0028 35.6203 45.1151 35.6203C45.592 36.2029 46.0169 36.7221 46.4457 37.2493C46.8946 36.6864 47.2934 36.1851 47.7463 35.6203ZM40.6963 59.4666C40.2013 58.8542 39.7805 58.335 39.3496 57.8019C38.8988 58.3786 38.496 58.8919 38.0471 59.4666C38.9549 59.4666 39.7685 59.4666 40.6963 59.4666ZM53.5117 57.8019C53.0728 58.3528 52.654 58.878 52.2031 59.4428C53.1069 59.4428 53.9325 59.4428 54.8163 59.4428C54.3614 58.8661 53.9526 58.3528 53.5117 57.8019Z" fill="url(#paint12_linear_1054_766)" stroke="url(#paint13_linear_1054_766)" stroke-width="2" stroke-miterlimit="10"/>
<path d="M74.0883 53.5431C73.5653 53.5431 73.0402 53.5649 72.5172 53.5372C71.8639 53.5015 71.5092 53.0933 71.4831 52.4809C71.4591 51.8963 71.7938 51.4207 72.3849 51.387C73.5252 51.3196 74.6775 51.3137 75.8177 51.3929C76.441 51.4365 76.7536 51.932 76.6915 52.5681C76.6334 53.1705 76.2646 53.5055 75.6594 53.5392C75.1364 53.5669 74.6113 53.5431 74.0883 53.5431Z" fill="url(#paint14_linear_1054_766)" stroke="url(#paint15_linear_1054_766)" stroke-width="0.5" stroke-miterlimit="10"/>
<path d="M78.0212 13.7306C78.0212 14.2498 78.0493 14.769 78.0132 15.2862C77.9731 15.8847 77.6164 16.2414 77.0092 16.285C76.3679 16.3306 75.887 16.0115 75.8449 15.3893C75.7728 14.2835 75.7748 13.1677 75.8369 12.0599C75.873 11.4377 76.3519 11.0889 76.9792 11.1246C77.5984 11.1602 77.9912 11.5308 78.0212 12.1749C78.0453 12.6921 78.0252 13.2113 78.0252 13.7306C78.0232 13.7306 78.0212 13.7306 78.0212 13.7306Z" fill="url(#paint16_linear_1054_766)" stroke="url(#paint17_linear_1054_766)" stroke-width="0.5" stroke-miterlimit="10"/>
<path d="M66.8905 40.6286C66.3915 40.6286 65.8905 40.6563 65.3936 40.6227C64.7122 40.5751 64.3094 40.149 64.3014 39.5386C64.2934 38.9203 64.6841 38.4626 65.3655 38.4368C66.4116 38.3972 67.4617 38.4011 68.5057 38.4427C69.147 38.4665 69.5177 38.8926 69.5277 39.5089C69.5378 40.1292 69.169 40.5454 68.5358 40.6068C67.9927 40.6583 67.4396 40.6167 66.8905 40.6167C66.8905 40.6187 66.8905 40.6246 66.8905 40.6286Z" fill="url(#paint18_linear_1054_766)" stroke="url(#paint19_linear_1054_766)" stroke-width="0.5" stroke-miterlimit="10"/>
<path d="M65.1207 28.0863C65.1207 28.5817 65.1408 29.0771 65.1167 29.5706C65.0846 30.2206 64.6358 30.6625 64.0406 30.6784C63.4474 30.6942 62.9264 30.2701 62.8983 29.63C62.8542 28.5936 62.8522 27.5512 62.9003 26.5147C62.9304 25.8726 63.4534 25.4624 64.0546 25.4842C64.6518 25.506 65.0746 25.948 65.1227 26.6019C65.1267 26.6515 65.1267 26.701 65.1267 26.7506C65.1267 27.1965 65.1267 27.6423 65.1267 28.0863C65.1227 28.0863 65.1207 28.0863 65.1207 28.0863Z" fill="url(#paint20_linear_1054_766)" stroke="url(#paint21_linear_1054_766)" stroke-width="0.5" stroke-miterlimit="10"/>
<ellipse cx="63.3491" cy="21.5" rx="5" ry="1.5" fill="white"/>
<ellipse cx="76.8491" cy="5" rx="5.5" ry="1" fill="white"/>
<defs>
<linearGradient id="paint0_linear_1054_766" x1="147.675" y1="101.69" x2="1" y2="101.69" gradientUnits="userSpaceOnUse">
<stop stop-color="#231F20"/>
<stop offset="1" stop-color="#D7282F"/>
</linearGradient>
<linearGradient id="paint1_linear_1054_766" x1="147.675" y1="101.69" x2="1" y2="101.69" gradientUnits="userSpaceOnUse">
<stop stop-color="#231F20"/>
<stop offset="1" stop-color="#D7282F"/>
</linearGradient>
<linearGradient id="paint2_linear_1054_766" x1="145.394" y1="80.5097" x2="3.3291" y2="80.5097" gradientUnits="userSpaceOnUse">
<stop stop-color="#231F20"/>
<stop offset="1" stop-color="#D7282F"/>
</linearGradient>
<linearGradient id="paint3_linear_1054_766" x1="3.3291" y1="80.5097" x2="145.394" y2="80.5097" gradientUnits="userSpaceOnUse">
<stop stop-color="#D7282F"/>
<stop offset="1" stop-color="#231F20"/>
</linearGradient>
<linearGradient id="paint4_linear_1054_766" x1="124.778" y1="32.4702" x2="124.778" y2="62.0868" gradientUnits="userSpaceOnUse">
<stop stop-color="#D7282F"/>
<stop offset="1" stop-color="#231F20"/>
</linearGradient>
<linearGradient id="paint5_linear_1054_766" x1="124.778" y1="32.4702" x2="124.778" y2="62.0868" gradientUnits="userSpaceOnUse">
<stop stop-color="#D7282F"/>
<stop offset="1" stop-color="#231F20"/>
</linearGradient>
<linearGradient id="paint6_linear_1054_766" x1="124.781" y1="1" x2="124.781" y2="26.0626" gradientUnits="userSpaceOnUse">
<stop stop-color="#D7282F"/>
<stop offset="1" stop-color="#231F20"/>
</linearGradient>
<linearGradient id="paint7_linear_1054_766" x1="124.781" y1="1" x2="124.781" y2="26.0626" gradientUnits="userSpaceOnUse">
<stop stop-color="#D7282F"/>
<stop offset="1" stop-color="#231F20"/>
</linearGradient>
<linearGradient id="paint8_linear_1054_766" x1="124.755" y1="41.5186" x2="124.755" y2="46.123" gradientUnits="userSpaceOnUse">
<stop/>
<stop offset="1" stop-color="#666666"/>
</linearGradient>
<linearGradient id="paint9_linear_1054_766" x1="124.755" y1="41.5186" x2="124.755" y2="46.123" gradientUnits="userSpaceOnUse">
<stop/>
<stop offset="1" stop-color="#666666"/>
</linearGradient>
<linearGradient id="paint10_linear_1054_766" x1="124.764" y1="50.6265" x2="124.764" y2="55.2259" gradientUnits="userSpaceOnUse">
<stop/>
<stop offset="1" stop-color="#666666"/>
</linearGradient>
<linearGradient id="paint11_linear_1054_766" x1="124.764" y1="50.6265" x2="124.764" y2="55.2259" gradientUnits="userSpaceOnUse">
<stop/>
<stop offset="1" stop-color="#666666"/>
</linearGradient>
<linearGradient id="paint12_linear_1054_766" x1="62.4851" y1="1.06836" x2="62.4851" y2="61.7485" gradientUnits="userSpaceOnUse">
<stop stop-color="#D7282F"/>
<stop offset="1" stop-color="#231F20"/>
</linearGradient>
<linearGradient id="paint13_linear_1054_766" x1="62.4851" y1="1.06836" x2="62.4851" y2="61.7485" gradientUnits="userSpaceOnUse">
<stop stop-color="#D7282F"/>
<stop offset="1" stop-color="#231F20"/>
</linearGradient>
<linearGradient id="paint14_linear_1054_766" x1="74.0906" y1="51.335" x2="74.0906" y2="53.5526" gradientUnits="userSpaceOnUse">
<stop stop-color="#D7282F"/>
<stop offset="1" stop-color="#231F20"/>
</linearGradient>
<linearGradient id="paint15_linear_1054_766" x1="74.0906" y1="51.335" x2="74.0906" y2="53.5526" gradientUnits="userSpaceOnUse">
<stop stop-color="#D7282F"/>
<stop offset="1" stop-color="#231F20"/>
</linearGradient>
<linearGradient id="paint16_linear_1054_766" x1="76.9118" y1="11.1221" x2="76.9118" y2="16.2893" gradientUnits="userSpaceOnUse">
<stop stop-color="#D7282F"/>
<stop offset="1" stop-color="#231F20"/>
</linearGradient>
<linearGradient id="paint17_linear_1054_766" x1="76.9118" y1="11.1221" x2="76.9118" y2="16.2893" gradientUnits="userSpaceOnUse">
<stop stop-color="#D7282F"/>
<stop offset="1" stop-color="#231F20"/>
</linearGradient>
<linearGradient id="paint18_linear_1054_766" x1="66.9146" y1="38.4092" x2="66.9146" y2="40.6393" gradientUnits="userSpaceOnUse">
<stop stop-color="#D7282F"/>
<stop offset="1" stop-color="#231F20"/>
</linearGradient>
<linearGradient id="paint19_linear_1054_766" x1="66.9146" y1="38.4092" x2="66.9146" y2="40.6393" gradientUnits="userSpaceOnUse">
<stop stop-color="#D7282F"/>
<stop offset="1" stop-color="#231F20"/>
</linearGradient>
<linearGradient id="paint20_linear_1054_766" x1="63.9966" y1="25.4834" x2="63.9966" y2="30.6788" gradientUnits="userSpaceOnUse">
<stop stop-color="#D7282F"/>
<stop offset="1" stop-color="#231F20"/>
</linearGradient>
<linearGradient id="paint21_linear_1054_766" x1="63.9966" y1="25.4834" x2="63.9966" y2="30.6788" gradientUnits="userSpaceOnUse">
<stop stop-color="#D7282F"/>
<stop offset="1" stop-color="#231F20"/>
</linearGradient>
</defs>
</svg>
