<svg width="66" height="66" viewBox="0 0 66 66" fill="none" xmlns="http://www.w3.org/2000/svg">
<path d="M51.5419 43.2094L45.0037 46.2069C44.6737 46.3581 44.4606 46.6881 44.4606 47.0594V50.8406C44.4606 51.1569 44.6256 51.4525 44.8938 51.6244C45.045 51.7206 45.2237 51.7756 45.3956 51.7756C45.5262 51.7756 45.6637 51.7481 45.7875 51.6931L52.3256 48.6956C52.6556 48.5444 52.8688 48.2144 52.8688 47.8431V44.0619C52.8688 43.7456 52.7037 43.45 52.4356 43.2781C52.1675 43.0994 51.8306 43.0719 51.5419 43.2094ZM50.9919 47.2381L46.3237 49.3762V47.6506L50.9919 45.5125V47.2381ZM66 13.6812C66 6.13937 59.8606 0 52.3187 0C45.0244 0 39.0637 5.74062 38.6719 12.9387L28.875 9.63875C28.6825 9.57688 28.4694 9.57688 28.2769 9.63875L0.639375 18.9544C0.254375 19.085 0 19.4425 0 19.8413V50.435C0 50.7788 0.1925 51.1019 0.495 51.26L28.1394 65.89C28.2769 65.9656 28.4281 66 28.5794 66C28.7306 66 28.8819 65.9656 29.0194 65.89L56.6637 51.26C56.9731 51.095 57.1587 50.7788 57.1587 50.435V26.4619C62.3219 24.5025 66 19.5181 66 13.6812ZM28.5794 30.7931L19.855 27.0119L39.8337 19.25C40.7069 21.2025 42.02 22.9213 43.6562 24.2619L28.5794 30.7931ZM10.835 25.1488L16.4588 27.5825V37.0631L10.835 34.6294V25.1488ZM12.3612 23.7669L36.7812 14.2794L38.6994 14.9256C38.7819 15.8125 38.9469 16.665 39.1875 17.4969L17.4144 25.9531L12.3612 23.7669ZM28.5794 11.5156L34.0106 13.3444L9.92063 22.7081L3.5475 19.9444L28.5794 11.5156ZM1.87 21.2644L8.965 24.3375V34.8012C8.965 35.4475 9.33625 36.0112 9.93438 36.2725L16.0944 38.94C16.3006 39.0294 16.5206 39.0775 16.7338 39.0775C17.0363 39.0775 17.3388 38.9881 17.6069 38.8094C18.0675 38.5069 18.3287 38.0188 18.3287 37.4688V28.3937L27.6444 32.4294V63.5112L1.87 49.8713V21.2644ZM55.2887 49.8713L29.5144 63.5112V32.4225L45.4781 25.5131C47.4925 26.6819 49.8231 27.3625 52.3187 27.3625C53.3431 27.3625 54.3331 27.2388 55.2956 27.0256V49.8713H55.2887ZM52.3187 25.4925C45.8081 25.4925 40.5075 20.1919 40.5075 13.6812C40.5075 7.17062 45.8081 1.87 52.3187 1.87C58.8294 1.87 64.13 7.17062 64.13 13.6812C64.13 20.1919 58.8294 25.4925 52.3187 25.4925ZM55.9006 6.84062C54.1544 6.84062 53.0819 7.61062 52.3119 8.64187C51.5419 7.60375 50.4763 6.84062 48.7231 6.84062C46.2275 6.84062 44.1994 8.86875 44.1994 11.3644C44.1994 14.4994 46.4888 16.5619 49.1356 18.9406C49.8025 19.5387 50.4969 20.1644 51.1912 20.8381C51.5006 21.1406 51.9063 21.2919 52.305 21.2919C52.7038 21.2919 53.1094 21.1406 53.4187 20.8381C54.1131 20.1644 54.8075 19.5456 55.4744 18.9406C58.1213 16.555 60.4106 14.4994 60.4106 11.3644C60.4244 8.86875 58.3962 6.84062 55.9006 6.84062ZM54.2369 17.5519C53.6181 18.1088 52.9719 18.6863 52.3187 19.3119C51.6656 18.6863 51.0194 18.1088 50.4006 17.5519C47.8912 15.2969 46.0831 13.6675 46.0831 11.3644C46.0831 9.9 47.2725 8.71063 48.7369 8.71063C50.0087 8.71063 50.655 9.21937 51.4869 10.8831C51.645 11.1994 51.9681 11.3987 52.3256 11.3987C52.6831 11.3987 53.0063 11.1994 53.1644 10.8831C53.9963 9.21937 54.6425 8.71063 55.9144 8.71063C57.3788 8.71063 58.5681 9.9 58.5681 11.3644C58.5544 13.6675 56.7462 15.2969 54.2369 17.5519Z" fill="#D7282F"/>
</svg>
