<svg width="163" height="30" viewBox="0 0 163 30" fill="none" xmlns="http://www.w3.org/2000/svg">
<path d="M9.512 18.0875L5.87775 29.272L15.3897 22.3562L24.8967 29.272L21.27 18.0875L30.777 11.1794H19.024L15.3897 0L11.7555 11.1794H0L9.512 18.0875ZM51.9353 11.1794L48.3011 0L44.6668 11.1794H32.9113L42.4233 18.0875L38.7891 29.272L48.3011 22.3562L57.8131 29.272L54.1788 18.0875L63.6934 11.1794H51.9353ZM84.8466 11.1794L81.2124 0L77.5781 11.1794H65.8226L75.3346 18.0875L71.7004 29.272L81.2124 22.3562L90.7244 29.272L87.0901 18.0875L96.6021 11.1794H84.8466ZM117.758 11.1794L114.124 0L110.489 11.1794H98.7314L108.246 18.0875L104.612 29.272L114.124 22.3562L123.636 29.272L120.001 18.0875L129.513 11.1794H117.758Z" fill="url(#paint0_linear_188_873)"/>
<path d="M150.67 11.1794L147.036 0L143.401 11.1794H131.648L141.155 18.0875L137.521 29.272L147.036 22.3562L156.548 29.272L152.913 18.0875L162.425 11.1794H150.67Z" fill="#F2CD0C"/>
<defs>
<linearGradient id="paint0_linear_188_873" x1="64.7567" y1="0" x2="64.7567" y2="29.272" gradientUnits="userSpaceOnUse">
<stop stop-color="#E2C21B"/>
<stop offset="1" stop-color="#FFD600"/>
</linearGradient>
</defs>
</svg>
