<svg width="33" height="33" viewBox="0 0 33 33" fill="none" xmlns="http://www.w3.org/2000/svg">
<g clip-path="url(#clip0_188_808)">
<path d="M23.9975 32.999C23.7666 32.999 23.5301 32.9702 23.2963 32.9083L2.03467 27.2144C1.33368 27.0199 0.737136 26.5578 0.37349 25.9277C0.00984512 25.2976 -0.0918067 24.55 0.0904246 23.8457L2.77305 13.8467C2.82249 13.6732 2.93811 13.5262 3.09497 13.4372C3.25182 13.3482 3.43737 13.3244 3.61161 13.3709C3.78584 13.4175 3.93482 13.5306 4.02642 13.686C4.11802 13.8413 4.14491 14.0264 4.1013 14.2014L1.42005 24.1977C1.22892 24.9264 1.66617 25.6854 2.3963 25.8875L23.6497 31.5787C23.9999 31.6719 24.3729 31.6223 24.6866 31.4408C25.0003 31.2593 25.2292 30.9608 25.3231 30.6107L26.3969 26.6314C26.4204 26.5442 26.4608 26.4625 26.5159 26.3909C26.5709 26.3193 26.6396 26.2592 26.7178 26.2142C26.7961 26.1691 26.8825 26.1399 26.972 26.1282C27.0616 26.1165 27.1526 26.1226 27.2398 26.146C27.327 26.1695 27.4088 26.2099 27.4803 26.265C27.5519 26.3201 27.612 26.3887 27.6571 26.467C27.7021 26.5452 27.7313 26.6316 27.743 26.7212C27.7547 26.8107 27.7486 26.9017 27.7252 26.9889L26.6527 30.9627C26.4963 31.5472 26.1513 32.0638 25.6711 32.432C25.191 32.8003 24.6026 32.9996 23.9975 32.999Z" fill="white"/>
<path d="M30.25 24.75H8.25C6.73338 24.75 5.5 23.5166 5.5 22V5.5C5.5 3.98338 6.73338 2.75 8.25 2.75H30.25C31.7666 2.75 33 3.98338 33 5.5V22C33 23.5166 31.7666 24.75 30.25 24.75ZM8.25 4.125C7.49238 4.125 6.875 4.74238 6.875 5.5V22C6.875 22.7576 7.49238 23.375 8.25 23.375H30.25C31.0076 23.375 31.625 22.7576 31.625 22V5.5C31.625 4.74238 31.0076 4.125 30.25 4.125H8.25Z" fill="white"/>
<path d="M12.3753 12.375C10.8587 12.375 9.62529 11.1416 9.62529 9.625C9.62529 8.10837 10.8587 6.875 12.3753 6.875C13.8919 6.875 15.1253 8.10837 15.1253 9.625C15.1253 11.1416 13.8919 12.375 12.3753 12.375ZM12.3753 8.25C11.6177 8.25 11.0003 8.86738 11.0003 9.625C11.0003 10.3826 11.6177 11 12.3753 11C13.1329 11 13.7503 10.3826 13.7503 9.625C13.7503 8.86738 13.1329 8.25 12.3753 8.25ZM6.28403 23.2788C6.14816 23.2787 6.01535 23.2384 5.90236 23.163C5.78937 23.0875 5.70127 22.9803 5.64919 22.8548C5.59711 22.7293 5.58338 22.5912 5.60974 22.4579C5.6361 22.3246 5.70136 22.2021 5.79728 22.1059L12.2914 15.6117C13.0697 14.8335 14.4295 14.8335 15.2078 15.6117L17.141 17.545L22.4925 11.1238C22.6846 10.8934 22.9246 10.7076 23.1958 10.5794C23.467 10.4512 23.7628 10.3836 24.0628 10.3813H24.0779C24.3754 10.3811 24.6694 10.4453 24.9397 10.5694C25.21 10.6935 25.4503 10.8747 25.644 11.1004L32.8353 19.4906C32.8952 19.559 32.941 19.6386 32.97 19.7247C32.999 19.8109 33.0106 19.902 33.0041 19.9926C32.9977 20.0833 32.9733 20.1718 32.9324 20.253C32.8915 20.3342 32.8349 20.4065 32.7659 20.4657C32.6969 20.5249 32.6169 20.5698 32.5304 20.5978C32.4439 20.6259 32.3527 20.6365 32.2621 20.6291C32.1715 20.6216 32.0833 20.5963 32.0025 20.5545C31.9218 20.5128 31.8501 20.4554 31.7917 20.3857L24.6004 11.9955C24.536 11.9199 24.4559 11.8594 24.3657 11.818C24.2754 11.7767 24.1772 11.7556 24.0779 11.7563C23.9776 11.7589 23.8789 11.7823 23.7881 11.8249C23.6972 11.8675 23.6161 11.9284 23.5499 12.0037L17.7158 19.0039C17.6546 19.0774 17.5787 19.1373 17.493 19.1797C17.4072 19.222 17.3136 19.246 17.218 19.25C17.1225 19.256 17.0267 19.2411 16.9375 19.2064C16.8482 19.1718 16.7675 19.1181 16.701 19.0492L14.2357 16.5839C14.1044 16.4595 13.9304 16.3902 13.7496 16.3902C13.5688 16.3902 13.3948 16.4595 13.2635 16.5839L6.76941 23.078C6.7057 23.1418 6.63003 23.1923 6.54674 23.2268C6.46344 23.2612 6.37417 23.2789 6.28403 23.2788Z" fill="white"/>
</g>
<defs>
<clipPath id="clip0_188_808">
<rect width="33" height="33" fill="white"/>
</clipPath>
</defs>
</svg>
