<svg width="36" height="26" viewBox="0 0 36 26" fill="none" xmlns="http://www.w3.org/2000/svg">
<path d="M8.61045 26C6.32743 26 4.13791 25.1138 2.52357 23.5363C0.909229 21.9589 0.00230408 19.8194 0.00230408 17.5885C0.00230408 14.1567 1.83036 10.838 4.55836 10.1972C5.61168 9.9494 6.44902 8.62957 6.26903 7.12315C6.028 5.10746 4.16239 3.07036 0.467144 1.46453C-0.356106 1.10667 -0.0117836 -0.103056 0.881901 0.00705719C10.5121 1.18466 17.1873 7.31891 17.2186 15.998C17.2186 21.9671 13.6094 26 8.61045 26ZM27.3919 26C25.1088 26 22.9193 25.1138 21.305 23.5363C19.6906 21.9589 18.7837 19.8194 18.7837 17.5885C18.7837 14.1567 20.6118 10.838 23.3398 10.1972C24.3931 9.9494 25.2304 8.62957 25.0504 7.12315C24.8094 5.10746 22.9438 3.07036 19.2486 1.46453C18.4253 1.10667 18.7696 -0.103056 19.6633 0.00705719C29.2935 1.18466 35.9687 7.31891 36 15.998C36 21.9671 32.3908 26 27.3919 26Z" fill="#F59300" fill-opacity="0.5"/>
</svg>
