<svg width="56" height="56" viewBox="0 0 56 56" fill="none" xmlns="http://www.w3.org/2000/svg">
<g clip-path="url(#clip0_188_743)">
<path d="M40.6134 55.8473C40.2225 55.8473 39.8222 55.7985 39.4267 55.6938L3.44403 46.0576C2.25769 45.7283 1.24811 44.9464 0.632686 43.88C0.0172624 42.8137 -0.15477 41.5483 0.153633 40.3564L4.69364 23.4344C4.77732 23.1408 4.97297 22.892 5.23844 22.7414C5.5039 22.5908 5.81792 22.5505 6.11279 22.6292C6.40766 22.708 6.65978 22.8995 6.81481 23.1624C6.96983 23.4253 7.01534 23.7386 6.94153 24.0347L2.40386 40.9521C2.0804 42.1854 2.82039 43.4699 4.05604 43.812L40.0247 53.4435C40.6175 53.6013 41.2486 53.5174 41.7796 53.2102C42.3105 52.9031 42.6979 52.3978 42.8567 51.8053L44.6741 45.0709C44.7138 44.9233 44.7822 44.785 44.8754 44.6638C44.9686 44.5427 45.0847 44.4411 45.2172 44.3648C45.3496 44.2885 45.4958 44.2391 45.6474 44.2193C45.799 44.1995 45.9529 44.2098 46.1005 44.2495C46.2481 44.2892 46.3865 44.3576 46.5076 44.4508C46.6288 44.544 46.7304 44.6601 46.8067 44.7926C46.883 44.9251 46.9324 45.0712 46.9522 45.2228C46.972 45.3744 46.9617 45.5284 46.922 45.676L45.1069 52.401C44.8423 53.3903 44.2583 54.2645 43.4457 54.8877C42.6332 55.5109 41.6375 55.8483 40.6134 55.8473Z" fill="#444444"/>
<path d="M51.1949 41.8865H13.9626C11.3959 41.8865 9.30859 39.7992 9.30859 37.2325V9.30833C9.30859 6.74163 11.3959 4.6543 13.9626 4.6543H51.1949C53.7615 4.6543 55.8489 6.74163 55.8489 9.30833V37.2325C55.8489 39.7992 53.7615 41.8865 51.1949 41.8865ZM13.9626 6.98131C12.6804 6.98131 11.6356 8.02614 11.6356 9.30833V37.2325C11.6356 38.5147 12.6804 39.5595 13.9626 39.5595H51.1949C52.477 39.5595 53.5219 38.5147 53.5219 37.2325V9.30833C53.5219 8.02614 52.477 6.98131 51.1949 6.98131H13.9626Z" fill="#444444"/>
<path d="M20.9446 20.9448C18.3779 20.9448 16.2906 18.8574 16.2906 16.2907C16.2906 13.7241 18.3779 11.6367 20.9446 11.6367C23.5113 11.6367 25.5986 13.7241 25.5986 16.2907C25.5986 18.8574 23.5113 20.9448 20.9446 20.9448ZM20.9446 13.9637C19.6624 13.9637 18.6176 15.0086 18.6176 16.2907C18.6176 17.5729 19.6624 18.6178 20.9446 18.6178C22.2268 18.6178 23.2716 17.5729 23.2716 16.2907C23.2716 15.0086 22.2268 13.9637 20.9446 13.9637ZM10.6359 39.398C10.406 39.3979 10.1812 39.3298 9.98998 39.2021C9.79876 39.0743 9.64966 38.8928 9.56152 38.6805C9.47339 38.4681 9.45015 38.2344 9.49476 38.0088C9.53937 37.7832 9.64981 37.5759 9.81216 37.413L20.8026 26.4226C22.1197 25.1055 24.4212 25.1055 25.7382 26.4226L29.01 29.6943L38.0668 18.8272C38.3919 18.4373 38.798 18.1229 39.257 17.9059C39.7159 17.6889 40.2166 17.5745 40.7242 17.5706H40.7498C41.2532 17.5703 41.7508 17.679 42.2082 17.889C42.6657 18.0991 43.0724 18.4056 43.4003 18.7876L55.5706 32.9871C55.672 33.1028 55.7495 33.2374 55.7985 33.3833C55.8476 33.5291 55.8672 33.6832 55.8563 33.8367C55.8454 33.9901 55.8041 34.1399 55.7349 34.2773C55.6657 34.4148 55.57 34.5371 55.4532 34.6373C55.3364 34.7374 55.2009 34.8134 55.0546 34.8609C54.9082 34.9083 54.7539 34.9263 54.6005 34.9137C54.4472 34.9011 54.2979 34.8583 54.1612 34.7876C54.0245 34.7169 53.9033 34.6198 53.8044 34.502L41.6341 20.3025C41.5251 20.1746 41.3895 20.0721 41.2368 20.0022C41.084 19.9322 40.9178 19.8965 40.7498 19.8976C40.5801 19.9022 40.4131 19.9417 40.2593 20.0138C40.1055 20.0859 39.9683 20.1889 39.8562 20.3165L29.9827 32.1633C29.8792 32.2877 29.7507 32.3891 29.6056 32.4608C29.4606 32.5325 29.3021 32.5731 29.1403 32.5798C28.9786 32.5899 28.8166 32.5648 28.6655 32.5061C28.5145 32.4475 28.3779 32.3567 28.2654 32.2401L24.093 28.0678C23.8709 27.8573 23.5765 27.74 23.2704 27.74C22.9644 27.74 22.67 27.8573 22.4478 28.0678L11.4574 39.0583C11.3495 39.1662 11.2215 39.2517 11.0805 39.31C10.9395 39.3683 10.7885 39.3982 10.6359 39.398Z" fill="#444444"/>
</g>
<defs>
<clipPath id="clip0_188_743">
<rect width="55.8483" height="55.8483" fill="white"/>
</clipPath>
</defs>
</svg>
