<svg width="1919" height="412" viewBox="0 0 1919 412" fill="none" xmlns="http://www.w3.org/2000/svg">
<path d="M1549.13 411.696V395.68H1524.75V140.027C1524.75 136.877 1523.32 133.855 1520.78 131.628C1518.24 129.4 1514.8 128.149 1511.21 128.149C1507.62 128.149 1504.18 129.4 1501.64 131.628C1499.11 133.855 1497.68 136.877 1497.68 140.027V163.404C1491.53 166.633 1486.44 171.208 1482.9 176.68C1479.36 182.153 1477.51 188.337 1477.5 194.628V215.198C1473.33 210.408 1467.59 206.845 1461.05 204.98C1454.52 203.115 1447.49 203.035 1440.9 204.752V187.736C1440.91 179.715 1437.9 171.916 1432.34 165.55C1426.78 159.184 1418.99 154.606 1410.16 152.527C1401.33 150.448 1391.97 150.984 1383.53 154.052C1375.09 157.12 1368.03 162.548 1363.46 169.494V164.336C1363.46 154.669 1359.09 145.398 1351.3 138.562C1343.51 131.726 1332.95 127.886 1321.94 127.886C1321.71 127.886 1321.49 127.886 1321.3 127.914V115.039C1321.27 110.799 1319.98 106.639 1317.55 102.972C1318.66 102.099 1319.57 101.039 1320.21 99.8562C1320.85 98.673 1321.22 97.3893 1321.3 96.08V90.4305H1309.62V78.6289H1277.07V90.4531H1265.3V96.1025C1265.37 97.4113 1265.74 98.6944 1266.38 99.8775C1267.02 101.061 1267.92 102.12 1269.03 102.995C1266.61 106.663 1265.32 110.822 1265.3 115.062V286.454H1257.75V265.659L1253.38 267.286V206.837C1253.38 203.221 1252.57 199.641 1250.99 196.301C1249.41 192.96 1247.1 189.925 1244.19 187.369C1241.28 184.812 1237.82 182.784 1234.02 181.401C1230.21 180.018 1226.13 179.306 1222.01 179.307H1221.08C1221.47 178.789 1221.68 178.179 1221.68 177.556V171.076C1221.68 170.661 1221.59 170.251 1221.41 169.867C1221.23 169.484 1220.96 169.136 1220.63 168.843C1220.3 168.55 1219.9 168.317 1219.46 168.158C1219.03 168 1218.56 167.918 1218.09 167.918H1206.44C1205.49 167.918 1204.57 168.251 1203.9 168.843C1203.23 169.435 1202.85 170.238 1202.85 171.076V177.533C1202.85 178.157 1203.06 178.766 1203.45 179.285H1202.67C1198.55 179.284 1194.47 179.995 1190.67 181.379C1186.86 182.762 1183.4 184.789 1180.49 187.346C1177.58 189.902 1175.27 192.937 1173.69 196.278C1172.11 199.618 1171.3 203.198 1171.3 206.814V276.98L1145.82 286.454H1145.75V265.659L1089.82 286.454H1089.76V265.659L1033.83 286.454H1018.74V395.68H992.311V411.696H1549.13ZM1497.68 395.669H1484.6V280.771C1487.09 274.615 1491.65 269.27 1497.68 265.45V395.669ZM1497.68 260.083C1492.47 262.822 1488.01 266.526 1484.6 270.935V241.214C1487.09 235.059 1491.65 229.715 1497.68 225.892V260.083ZM1482.56 194.617C1482.56 189.562 1483.94 184.581 1486.57 180.083C1489.2 175.586 1493.01 171.701 1497.68 168.748V220.525C1492.42 223.295 1487.92 227.046 1484.49 231.513C1484.3 228.701 1483.65 225.928 1482.56 223.277L1482.56 194.617ZM1416.47 395.68H1393.95V305.091C1395.44 302.944 1397.54 301.17 1400.04 299.937C1402.54 298.703 1405.36 298.053 1408.23 298.047H1416.49L1416.47 395.68ZM1416.47 293.612H1408.21C1402.95 293.627 1397.87 295.32 1393.93 298.374V286.454H1392.15C1393.17 283.41 1395.29 280.738 1398.18 278.833C1401.08 276.929 1404.59 275.895 1408.21 275.884H1416.47V293.612ZM1416.47 233.423V271.449H1408.21C1404.98 271.458 1401.79 272.097 1398.88 273.32C1395.97 274.543 1393.4 276.32 1391.37 278.522V244.473C1391.38 240.556 1393.15 236.8 1396.31 234.03C1399.46 231.26 1403.74 229.703 1408.21 229.7H1416.76C1416.58 230.934 1416.48 232.178 1416.47 233.423ZM1363.46 182.33C1365 174.425 1369.87 167.316 1377.1 162.41C1384.32 157.504 1393.38 155.159 1402.49 155.839C1411.59 156.519 1420.07 160.174 1426.25 166.081C1432.43 171.988 1435.85 179.717 1435.85 187.736V206.475C1431.49 208.307 1427.63 210.93 1424.52 214.17C1421.4 217.41 1419.11 221.194 1417.78 225.271H1408.21C1402.4 225.271 1396.84 227.295 1392.73 230.897C1388.63 234.499 1386.32 239.385 1386.32 244.479V286.454H1381V225.638C1381 221.542 1379.16 217.612 1375.87 214.701C1372.59 211.791 1368.13 210.134 1363.46 210.091V182.33ZM1321.27 132.349C1321.49 132.349 1321.71 132.315 1321.91 132.315C1331.58 132.326 1340.85 135.703 1347.69 141.706C1354.53 147.709 1358.38 155.847 1358.39 164.336V170.302C1354.82 164.546 1349.54 159.742 1343.13 156.396C1336.71 153.049 1329.38 151.284 1321.91 151.286C1321.69 151.286 1321.47 151.314 1321.27 151.314V132.349ZM1321.27 155.749C1321.49 155.749 1321.71 155.721 1321.91 155.721C1330.8 155.732 1339.38 158.589 1346.03 163.755C1352.69 168.921 1356.97 176.042 1358.08 183.782C1357.92 185.095 1357.83 186.415 1357.83 187.736V210.899C1354.26 211.894 1351.14 213.859 1348.93 216.509C1346.72 219.159 1345.52 222.358 1345.51 225.644V233.852C1338.58 229.63 1330.35 227.371 1321.91 227.378C1321.69 227.378 1321.47 227.378 1321.27 227.406V155.749ZM1321.27 231.841C1321.49 231.841 1321.71 231.807 1321.91 231.807C1330.57 231.806 1338.93 234.519 1345.51 239.457V286.454H1321.24L1321.27 231.841ZM1177.03 332.169H1236.89V354.959H1177.03V332.169ZM1106.04 332.169H1165.89V354.959H1106.04V332.169ZM1035.03 332.169H1094.89V354.959H1035.03V332.169Z" fill="black"/>
<path d="M1540.21 311.033L1615.18 245.223L1690.16 311.033H1540.21Z" fill="black"/>
<path d="M1831.9 341.7H1805.2L1809.96 137.717H1827.13L1831.9 341.7Z" fill="black"/>
<path d="M1719.14 316.36H1692.44L1697.21 112.377H1714.37L1719.14 316.36Z" fill="black"/>
<path d="M1706.77 316.362H1680.04L1684.81 224.627H1701.98L1706.77 316.362Z" fill="black"/>
<path d="M1674.34 316.362H1647.63L1652.4 224.627H1669.57L1674.34 316.362Z" fill="black"/>
<path d="M1633.89 310.322H1614.64L1618.08 90.6445H1630.46L1633.89 310.322Z" fill="black"/>
<path d="M1610.54 310.322H1591.23L1594.67 90.6445H1607.05L1610.54 310.322Z" fill="black"/>
<path d="M1918.43 399.209H1511.19V411.7H1918.43V399.209Z" fill="black"/>
<path d="M1857.9 289.73H1704.79V310.961H1857.9V289.73Z" fill="black"/>
<path d="M1843.17 258.998L1744.7 277.466V290.301H1843.17V258.998Z" fill="black"/>
<path d="M1901.99 384.106H1898.55V339.938C1898.54 334.8 1896.21 329.874 1892.07 326.241C1887.93 322.608 1882.32 320.565 1876.46 320.561H1858.28V309.115H1538.75V320.73H1775.23V323.832H1528.16V384.106H1526.61V399.975H1902.01L1901.99 384.106ZM1580.73 367.022H1540.92V354.446H1580.73V367.022ZM1580.73 346.836H1540.92V334.261H1580.73V346.836ZM1630.24 367.022H1590.43V354.446H1630.24V367.022ZM1630.24 346.836H1590.43V334.261H1630.24V346.836ZM1679.75 367.022H1639.94V354.446H1679.75V367.022ZM1679.75 346.836H1639.94V334.261H1679.75V346.836ZM1729.26 367.022H1689.45V354.446H1729.26V367.022ZM1729.26 346.836H1689.45V334.261H1729.26V346.836ZM1778.77 367.022H1738.96V354.446H1778.77V367.022ZM1778.77 346.836H1738.96V334.261H1778.77V346.836ZM1881.37 384.123H1858.28V362.564H1864.81C1869.21 362.564 1873.42 364.096 1876.52 366.822C1879.63 369.548 1881.37 373.245 1881.37 377.1V384.123ZM1893.02 384.123H1886.9V377.117C1886.89 371.978 1884.56 367.052 1880.42 363.418C1876.28 359.784 1870.67 357.74 1864.81 357.734H1858.28V325.386H1876.46C1880.86 325.386 1885.07 326.917 1888.17 329.643C1891.28 332.369 1893.02 336.066 1893.02 339.921V384.123Z" fill="black"/>
<path d="M1547.46 309.76H1591.41L1581.9 254.396H1585.49V247.758H1553.38V254.385H1556.98L1547.46 309.76ZM1556.87 273.039L1566.99 278.897L1554.63 286.05L1556.87 273.039ZM1556.05 288.1L1569.47 280.332L1582.89 288.1H1556.05ZM1581.69 290.496L1569.35 296.755L1557.12 290.473L1581.69 290.496ZM1559.59 271.745H1579.35L1569.47 277.462L1559.59 271.745ZM1553.69 291.518L1566.69 298.168L1551.19 306.077L1553.69 291.518ZM1553 307.902L1569.4 299.523L1585.8 307.902H1553ZM1587.69 306.099L1572.09 298.139L1585.15 291.462L1587.69 306.099ZM1582.02 273.05L1584.24 285.987L1571.92 278.875L1582.02 273.05ZM1560.06 254.407H1578.81L1581.38 269.35H1557.5L1560.06 254.407Z" fill="black"/>
<path d="M1555.39 235.076V241.33L1569.43 248.448L1583.47 241.33V235.076H1555.39Z" fill="black"/>
<path d="M1811.42 169.814V173.441C1805.43 174.969 1800.18 178.157 1796.43 182.529C1792.69 186.901 1790.66 192.22 1790.65 197.689V345.455H1786.67V197.689C1786.67 191.288 1789.11 185.07 1793.59 180.021C1798.07 174.972 1804.35 171.38 1811.42 169.814Z" fill="black"/>
<path d="M1790.65 273.921V284.186H1786.67V273.921C1786.67 267.521 1789.11 261.303 1793.59 256.255C1798.07 251.207 1804.35 247.616 1811.42 246.053V249.68C1805.43 251.205 1800.18 254.392 1796.43 258.763C1792.69 263.134 1790.66 268.453 1790.65 273.921Z" fill="black"/>
<path d="M1790.65 242.739V252.999H1786.67V242.739C1786.67 236.338 1789.11 230.121 1793.59 225.072C1798.07 220.023 1804.35 216.431 1811.42 214.865V218.487C1805.43 220.014 1800.17 223.203 1796.43 227.576C1792.69 231.949 1790.66 237.27 1790.65 242.739Z" fill="black"/>
<path d="M605.121 351.047C605.122 353.115 604.659 355.163 603.758 357.074C602.857 358.985 601.535 360.721 599.87 362.184C598.204 363.647 596.226 364.807 594.05 365.599C591.873 366.39 589.54 366.798 587.184 366.798C582.425 366.798 577.861 365.138 574.496 362.184C571.131 359.231 569.24 355.224 569.24 351.047V172.881C569.24 168.704 571.131 164.698 574.496 161.744C577.861 158.79 582.425 157.131 587.184 157.131C589.54 157.131 591.873 157.538 594.05 158.33C596.226 159.122 598.204 160.282 599.87 161.744C601.535 163.207 602.857 164.943 603.758 166.854C604.659 168.765 605.122 170.813 605.121 172.881V351.047Z" fill="black"/>
<path d="M581.621 404.535H577.83C572.281 404.531 566.96 402.594 563.036 399.15C559.112 395.705 556.906 391.035 556.9 386.164V231.279C556.906 226.408 559.112 221.738 563.036 218.293C566.96 214.849 572.281 212.912 577.83 212.907H581.621V208.309H577.824C570.886 208.31 564.234 210.73 559.329 215.037C554.424 219.343 551.668 225.184 551.668 231.273V386.164C551.668 392.253 554.424 398.094 559.329 402.4C564.234 406.707 570.886 409.127 577.824 409.128H581.621V404.535Z" fill="black"/>
<path d="M608.19 185.68H593.008V190.273H608.178C613.726 190.277 619.046 192.213 622.969 195.657C626.893 199.1 629.101 203.769 629.108 208.639V363.523C629.101 368.394 626.893 373.064 622.97 376.508C619.046 379.952 613.726 381.889 608.178 381.895H593.008V386.488H608.178C615.116 386.488 621.771 384.069 626.677 379.762C631.584 375.455 634.34 369.614 634.34 363.523V208.645C634.34 202.556 631.585 196.716 626.682 192.41C621.778 188.104 615.127 185.683 608.19 185.68Z" fill="black"/>
<path d="M856.815 300.09H641.729V406.757H856.815V300.09Z" fill="black"/>
<path d="M720.127 369.419H684.445L691.879 108.664H712.693L720.127 369.419Z" fill="black"/>
<path d="M780.095 397.15H734.264L743.815 62.2188H770.55L780.095 397.15Z" fill="black"/>
<path d="M978.064 395.678H461.559V411.705H978.064V395.678Z" fill="black"/>
<path d="M1257.11 395.678H740.605V411.705H1257.11V395.678Z" fill="black"/>
<path d="M723.57 279.829V212.33H618.752V279.829L613.301 298.297L612.226 294.653V233.176H519.952V294.648L487.895 403.314H760.01L723.57 279.829Z" fill="black"/>
<path d="M1033.54 319.949C1033.54 319.949 1050.98 303.645 1050.98 307.707L1096.33 295.358H1166.88L1156.32 250.422V166.867H1052.93V250.422L1047.56 273.28L1046.5 268.76V192.702H955.517V268.76L923.896 403.29H1030.09L1033.54 319.949Z" fill="black"/>
<path d="M847.776 400.104L852.816 399.437L822.972 225.825H828.99V214.752H775.397V225.825H781.408L751.57 399.46L756.603 400.126L758.386 389.788H846L847.776 400.104ZM834.55 354.547L802.673 366.806L770.795 354.547H834.55ZM769.546 350.547L802.299 335.661L835.046 350.547H769.546ZM840.343 356.631L844.848 383.025L808.272 368.958L840.343 356.631ZM807.223 333.424L856.858 300.092L838.837 347.796L807.223 333.424ZM828.899 319.097L802.299 331.186L775.693 319.097H828.899ZM774.837 315.097L802.196 301.115L829.556 315.097H774.837ZM806.714 298.804L828.513 287.663L832.71 312.091L806.714 298.804ZM822.701 286.019L802.196 296.493L781.691 286.019H822.701ZM779.915 282.02L802.306 269.06L824.697 282.02H779.915ZM806.444 266.67L823.236 256.953L826.943 278.528L806.444 266.67ZM802.306 264.275L785.817 254.733H818.788L802.306 264.275ZM781.215 256.897L798.109 266.67L777.514 278.602L781.215 256.897ZM775.918 287.714L797.62 298.804L771.741 312.029L775.918 287.714ZM797.337 333.424L765.582 347.852L770.183 321.074L797.337 333.424ZM797.08 368.958L759.474 383.421L764.134 356.304L797.08 368.958ZM802.673 371.105L840.787 385.794H764.558L802.673 371.105ZM817.823 225.825L822.109 250.761H782.277L786.557 225.825H817.823Z" fill="black"/>
<path d="M778.799 193.59V204.019L802.226 215.882L825.653 204.019V193.59H778.799Z" fill="black"/>
<path d="M966.163 402.145L972.342 401.326L935.702 188.117H943.084V174.559H877.282V188.117H884.664L848.023 401.326L854.208 402.145L856.39 389.445H963.975L966.163 402.145ZM949.919 346.216L910.775 361.272L871.631 346.216H949.919ZM870.06 341.307L910.273 323.031L950.485 341.307H870.06ZM956.986 348.781L962.553 381.186L917.642 363.916L956.986 348.781ZM916.316 320.28L949.501 305.201L955.119 337.917L916.316 320.28ZM942.936 302.687L910.273 317.534L877.61 302.659L942.936 302.687ZM876.522 297.778L910.118 280.604L943.714 297.778H876.522ZM915.666 277.773L942.434 264.091L947.583 294.083L915.666 277.773ZM935.296 262.068L910.118 274.932L884.941 262.068H935.296ZM882.759 257.159L910.254 241.25L937.748 257.159H882.759ZM915.332 238.307L935.927 226.381L940.477 252.876L915.332 238.307ZM910.254 235.369L890.006 223.658H930.495L910.254 235.369ZM884.426 226.33L905.169 238.329L879.843 252.944L884.426 226.33ZM877.925 264.181L904.57 277.802L872.789 294.038L877.925 264.181ZM904.223 320.308L865.259 337.991L870.91 305.111L904.223 320.308ZM903.875 363.899L857.697 381.655L863.418 348.323L903.875 363.899ZM910.743 366.537L957.539 384.536H863.972L910.743 366.537ZM929.349 188.117L934.608 218.731H885.694L890.952 188.117H929.349Z" fill="black"/>
<path d="M881.461 148.562V161.37L910.224 175.945L938.986 161.37V148.562H881.461Z" fill="black"/>
<path d="M518.654 404.034V147.387C518.654 144.236 520.08 141.214 522.619 138.986C525.157 136.758 528.6 135.506 532.189 135.506C535.779 135.506 539.222 136.758 541.76 138.986C544.298 141.214 545.724 144.236 545.724 147.387V404.034H518.654Z" fill="black"/>
<path d="M529.867 166.643V171.247C522.28 173.181 515.611 177.224 510.863 182.767C506.114 188.31 503.542 195.056 503.531 201.991V389.405H498.479V201.991C498.48 193.873 501.569 185.987 507.255 179.584C512.941 173.181 520.899 168.626 529.867 166.643Z" fill="black"/>
<path d="M503.543 298.702V311.695H498.49V298.702C498.492 290.583 501.58 282.696 507.266 276.292C512.952 269.888 520.91 265.332 529.879 263.348V267.952C522.29 269.887 515.621 273.93 510.873 279.474C506.124 285.019 503.552 291.765 503.543 298.702Z" fill="black"/>
<path d="M503.543 259.124V272.117H498.49V259.124C498.491 251.005 501.579 243.119 507.265 236.716C512.951 230.312 520.91 225.758 529.879 223.775V228.374C522.291 230.311 515.623 234.354 510.875 239.898C506.127 245.442 503.554 252.188 503.543 259.124Z" fill="black"/>
<path d="M788.977 411.688V395.671H763.876V178.299C763.876 171.055 760.599 164.109 754.764 158.986C748.93 153.864 741.016 150.985 732.764 150.984H731.838C732.228 150.47 732.436 149.867 732.436 149.25V142.843C732.434 142.012 732.057 141.216 731.388 140.63C730.718 140.043 729.81 139.713 728.864 139.713H717.318C716.372 139.713 715.464 140.043 714.794 140.63C714.125 141.216 713.747 142.012 713.746 142.843V149.25C713.745 149.868 713.956 150.472 714.351 150.984H713.572C705.32 150.985 697.407 153.864 691.572 158.986C685.738 164.109 682.46 171.055 682.46 178.299V223.127C677.149 224.569 672.502 227.463 669.198 231.387C665.893 235.311 664.104 240.06 664.092 244.939V312.258H657.482V179.497C657.482 172.253 654.204 165.306 648.37 160.184C642.535 155.062 634.622 152.183 626.37 152.182H625.443C625.833 151.668 626.041 151.064 626.042 150.447V144.046C626.04 143.215 625.663 142.419 624.994 141.831C624.324 141.243 623.417 140.912 622.47 140.911H610.924C609.977 140.912 609.069 141.243 608.4 141.831C607.73 142.419 607.353 143.215 607.352 144.046V150.453C607.352 151.071 607.563 151.675 607.957 152.187H607.159C600.04 152.189 593.137 154.334 587.602 158.263C582.066 162.193 578.233 167.669 576.742 173.779H572.043C568.608 173.779 565.207 174.372 562.033 175.525C558.859 176.679 555.975 178.37 553.547 180.502C551.118 182.634 549.191 185.166 547.877 187.952C546.562 190.737 545.887 193.723 545.887 196.739V248.261L529.006 233.443L508.41 251.521L492.803 237.815V187.536C492.803 181.445 490.047 175.604 485.14 171.297C480.234 166.99 473.579 164.571 466.64 164.571H462.476L459.13 25.4199H419.87L415.686 242.358L405.472 233.386L396.056 241.77L392.71 82.8801H353.45L348.893 283.434L307.368 320.156V395.688H272.484V411.688H788.977ZM674.557 244.939C674.565 242.523 675.3 240.151 676.688 238.064C678.076 235.976 680.067 234.248 682.46 233.053V312.258H674.557V244.939ZM556.372 196.739C556.375 193.086 558.029 189.584 560.971 187.001C563.913 184.417 567.902 182.964 572.063 182.96H576.066V212.444H572.063C566.388 212.46 560.876 214.109 556.372 217.139V196.739ZM556.372 235.409C556.375 231.756 558.029 228.254 560.971 225.671C563.913 223.088 567.902 221.634 572.063 221.63H576.066V273.39H574.534L556.372 257.458V235.409ZM489.186 328.217H549.479V339.477H489.186V328.217ZM466.66 173.791C470.821 173.795 474.811 175.248 477.754 177.831C480.697 180.414 482.352 183.916 482.357 187.57V238.25L467.233 251.527L464.523 249.154L462.714 173.791H466.66ZM405.82 328.217H466.106V339.477H405.82V328.217ZM322.441 328.217H382.727V339.477H322.441V328.217Z" fill="black"/>
<path d="M408.508 395.125H0V411.7H408.508V395.125Z" fill="black"/>
<path d="M195.856 282.862V273.665H256.773V282.862H195.856ZM195.856 287.681V401.296H256.773V287.681H195.856ZM190.321 296.206V401.285H146.343V298.466C146.052 294.786 144.181 291.341 141.109 288.824C138.037 286.308 133.992 284.908 129.79 284.907H110.025C109.671 284.907 109.33 284.907 108.982 284.952C117.091 288.442 124.004 293.751 129.021 300.342C134.039 306.932 136.981 314.57 137.552 322.481H35.4246C35.8871 315.792 38.0513 309.279 41.7583 303.421C45.4653 297.562 50.6208 292.507 56.8458 288.628C63.0709 284.748 70.2072 282.142 77.7304 281.002C85.2536 279.861 92.9723 280.215 100.319 282.037C103.339 280.732 106.659 280.052 110.025 280.049H129.764C133.646 280.051 137.46 280.95 140.822 282.654C144.183 284.359 146.975 286.809 148.918 289.76C150.03 288.492 151.458 287.465 153.092 286.757C154.726 286.049 156.524 285.679 158.347 285.675H165.426V229.848C165.435 224.7 167.765 219.765 171.908 216.122C176.052 212.479 181.67 210.425 187.534 210.408H207.273C213.145 210.414 218.775 212.464 222.928 216.108C227.081 219.752 229.418 224.693 229.426 229.848V236.627H240.142C244.547 236.629 248.771 238.165 251.886 240.9C255.001 243.634 256.752 247.342 256.754 251.208V268.84H195.836V253.677C192.827 254.793 190.259 256.664 188.454 259.054C186.648 261.445 185.686 264.249 185.687 267.117V287.975C187.12 288.948 188.283 290.195 189.085 291.621C189.888 293.047 190.311 294.615 190.321 296.206ZM180.165 267.117C180.178 262.909 181.744 258.818 184.629 255.457C187.513 252.096 191.561 249.646 196.165 248.474C196.896 245.149 198.923 242.151 201.897 239.994C204.872 237.837 208.609 236.657 212.467 236.655H223.904V229.876C223.904 227.961 223.474 226.065 222.64 224.296C221.805 222.527 220.581 220.92 219.039 219.566C217.496 218.212 215.665 217.138 213.65 216.405C211.634 215.672 209.474 215.295 207.293 215.295H187.534C183.128 215.295 178.902 216.831 175.786 219.565C172.669 222.3 170.918 226.008 170.916 229.876V285.704H178.298C178.918 285.715 179.536 285.77 180.145 285.867L180.165 267.117ZM137.687 337.368V327.136H35.2637V337.368H137.687ZM35.2637 342.209V401.296H137.713V342.209H35.2637ZM342.038 310.228V300.324L314.079 310.205V300.324L284.281 311.183H268.628V401.296H369.996V300.324L342.038 310.228ZM308.943 349.446H286.81V340.865H308.943V349.446ZM308.943 334.628H286.81V326.04H308.943V334.628ZM336.335 349.446H314.195V340.865H336.335V349.446ZM336.335 334.628H314.195V326.04H336.335V334.628ZM363.721 349.446H341.587V340.865H363.721V349.446ZM363.721 334.628H341.587V326.04H363.721V334.628Z" fill="black"/>
<path d="M86.4886 297.389C91.0783 297.401 95.6379 298.04 100.004 299.281C103.078 297.807 106.522 297.03 110.025 297.022H111.19L108.506 197.541H85.3365L82.627 297.575C83.9142 297.496 85.2014 297.389 86.4886 297.389Z" fill="black"/>
<path d="M153.692 406.074L151.118 160.324H127.948L125.303 406.074H153.692Z" fill="black"/>
<path d="M1120.76 281.684H1096.3L1100.66 3.06641H1116.36L1120.76 281.684Z" fill="black"/>
<path d="M1091.1 281.684H1066.7L1071.06 3.06641H1086.75L1091.1 281.684Z" fill="black"/>
<path d="M691.709 278.618H667.291L671.655 0H687.352L691.709 278.618Z" fill="black"/>
<path d="M662.069 278.618H637.65L642.008 0H657.705L662.069 278.618Z" fill="black"/>
<path d="M1539.31 344.449H1323.05V399.559H1539.31V344.449Z" fill="black"/>
</svg>
