<svg width="36" height="26" viewBox="0 0 36 26" fill="none" xmlns="http://www.w3.org/2000/svg">
<path d="M27.3896 0C29.6726 0 31.8621 0.886205 33.4764 2.46366C35.0908 4.04111 35.9977 6.1806 35.9977 8.41146C35.9977 11.8433 34.1696 15.162 31.4416 15.8028C30.3883 16.0506 29.551 17.3704 29.731 18.8768C29.972 20.8925 31.8376 22.9296 35.5329 24.5355C36.3561 24.8933 36.0118 26.1031 35.1181 25.9929C25.4879 24.8153 18.8127 18.6811 18.7814 10.002C18.7814 4.03291 22.3906 0 27.3896 0ZM8.60814 0C10.8912 0 13.0807 0.886205 14.695 2.46366C16.3094 4.04111 17.2163 6.1806 17.2163 8.41146C17.2163 11.8433 15.3882 15.162 12.6602 15.8028C11.6069 16.0506 10.7696 17.3704 10.9496 18.8768C11.1906 20.8925 13.0562 22.9296 16.7514 24.5355C17.5747 24.8933 17.2304 26.1031 16.3367 25.9929C6.70653 24.8153 0.0313023 18.6811 0 10.002C0 4.03291 3.60916 0 8.60814 0Z" fill="#F59300" fill-opacity="0.5"/>
</svg>
