<svg width="60" height="60" viewBox="0 0 60 60" fill="none" xmlns="http://www.w3.org/2000/svg">
<g clip-path="url(#clip0_1765_8078)">
<path d="M12.6886 60.0002C12.1147 60.0002 11.6897 59.2831 11.4559 58.6715C11.2221 58.1021 11.0095 57.5327 10.7757 56.9633C10.2019 55.5081 9.58552 53.9896 9.03291 52.4923C8.75661 51.7541 8.28902 51.2902 7.50263 50.9949C5.4835 50.2357 3.46437 49.4343 1.48775 48.6751L1.06267 48.5063C0.637589 48.3376 0.10624 48.0424 -3.04021e-05 47.5362C-0.0850463 47.1566 0.127494 46.6715 0.616335 46.1865C3.69816 43.1074 6.5462 40.3025 9.28796 37.5819C9.37298 37.4975 9.5005 37.4132 9.67053 37.3077C9.75555 37.2445 9.86182 37.1812 9.96809 37.0968L10.4357 36.7594L9.96809 36.422C9.69179 36.2111 9.43674 36.0424 9.20295 35.8526C8.73536 35.5151 8.31028 35.2199 7.92771 34.9035C6.24864 33.6171 5.61102 31.6557 6.20613 29.6522C6.35491 29.1882 6.50369 28.7032 6.67372 28.2392C6.92877 27.5011 7.18382 26.7207 7.3751 25.9404C7.54514 25.2656 7.54514 24.4642 7.3751 23.7682C7.18382 22.9879 6.92877 22.2287 6.67372 21.4905C6.52494 21.0265 6.35491 20.5204 6.20613 20.0564C5.61102 18.0529 6.2699 16.0916 7.94896 14.8051C8.75661 14.1935 9.84056 13.3921 10.9458 12.6329C11.6897 12.1267 12.1572 11.4729 12.4336 10.5872C12.7311 9.57488 13.0712 8.5204 13.56 7.14957C14.2614 5.10388 15.983 3.85959 18.1509 3.81741C18.3634 3.81741 18.5547 3.81741 18.7672 3.81741C19.0648 3.81741 19.3624 3.81741 19.6599 3.81741C19.9575 3.81741 20.255 3.81741 20.5738 3.81741C21.1689 3.81741 21.6365 3.79632 22.0829 3.77523C22.7417 3.73305 23.4431 3.50107 24.0382 3.14254C24.7396 2.72075 25.4197 2.2146 26.0574 1.72954C26.3337 1.51864 26.6312 1.30774 26.9075 1.09685C27.9702 0.337621 28.9904 -0.0419922 30.0319 -0.0419922C31.052 -0.0419922 32.0935 0.337621 33.1774 1.09685C33.4963 1.32883 33.8151 1.56082 34.1339 1.79281C34.7715 2.25678 35.4091 2.74184 36.1105 3.18472C36.6418 3.52216 37.3007 3.73305 37.9171 3.75414C38.3634 3.77523 38.8523 3.79632 39.4474 3.79632C39.7662 3.79632 40.085 3.79632 40.3825 3.79632C40.7014 3.79632 40.9989 3.79632 41.3177 3.79632C41.4665 3.79632 41.6153 3.79632 41.7428 3.79632C44.0807 3.81741 45.7598 5.04061 46.5037 7.21284C46.6525 7.61354 46.78 8.05643 46.9075 8.45713C47.1413 9.21636 47.3964 9.99667 47.6939 10.7559C47.949 11.3886 48.4165 12.0213 48.9479 12.4642C49.5855 12.9914 50.2444 13.4765 50.9033 13.9193C51.2646 14.1724 51.6259 14.4255 51.966 14.6786C53.7726 16.0283 54.4527 18.0318 53.7938 20.1619C53.645 20.6258 53.4963 21.0687 53.3475 21.5327C53.0924 22.2708 52.8374 23.0301 52.6461 23.8104C52.4761 24.4642 52.4761 25.2023 52.6461 25.8561C52.8374 26.6153 53.0924 27.3745 53.3475 28.1127C53.5175 28.6188 53.6875 29.125 53.8363 29.6311C54.4314 31.6346 53.7938 33.596 52.1147 34.8824C51.7109 35.1988 51.2858 35.494 50.8608 35.8104C50.6482 35.958 50.4357 36.1056 50.2231 36.2743L49.8406 36.5485L50.1594 36.8859C50.2231 36.9492 50.2869 37.0336 50.3507 37.0968C50.4782 37.2445 50.6057 37.371 50.7332 37.4975C51.9872 38.7418 53.2412 39.9861 54.4952 41.2515C56.1317 42.8754 57.7683 44.4993 59.3836 46.1232C59.7449 46.4817 60.1487 47.009 60.0425 47.5151C59.9362 48.0213 59.3624 48.3376 58.8948 48.5063L57.577 49.0125C55.8129 49.6874 54.0063 50.3833 52.221 51.1214C51.7747 51.3113 51.3496 51.733 51.1583 52.1759C50.5419 53.6522 49.9468 55.1496 49.3942 56.6258C49.0967 57.3851 48.7991 58.1232 48.5016 58.8613C48.3315 59.2621 47.9702 59.958 47.3539 59.958C46.9925 59.958 46.5887 59.7471 46.1849 59.3464C42.8693 56.0564 39.3411 52.5555 35.4516 48.654C35.3241 48.5274 35.1966 48.3587 35.0478 48.19C34.9628 48.0845 34.8778 47.9791 34.7927 47.8736L34.5164 47.5362L34.1976 47.8315C32.8161 49.0758 31.4346 49.6874 30.0956 49.6874C28.7354 49.6874 27.3326 49.0336 25.9298 47.7682L25.5685 47.4519L25.2922 47.8526C25.2072 47.958 25.1434 48.0634 25.0797 48.1689C24.9734 48.3376 24.8884 48.4852 24.7821 48.5907C21.2114 52.0916 17.662 55.6346 14.0276 59.241C13.5175 59.7471 13.0499 60.0002 12.6886 60.0002ZM38.8735 45.9123C38.5972 45.9123 38.3422 45.9123 38.0659 45.9123C37.8321 45.9123 37.6195 45.9334 37.407 45.9756C37.322 45.9967 37.237 45.9967 37.1519 45.9967L36.2593 46.081L46.8225 56.6048L47.0563 56.0142C47.2476 55.5503 47.4389 55.0863 47.6302 54.6012C48.0765 53.5046 48.5653 52.3657 48.9266 51.1847C49.3092 50.0248 49.9468 49.3921 51.1583 48.9914C52.3273 48.6118 53.475 48.1478 54.5802 47.7049C55.0478 47.5151 55.5366 47.3253 56.0042 47.1355L56.5993 46.9035L47.8639 38.2357C47.8639 38.2357 47.3964 39.6276 47.2688 40.0072C46.9925 40.8297 46.7375 41.6311 46.4612 42.4325C45.696 44.7102 44.0807 45.8701 41.679 45.9123C41.254 45.9123 40.8289 45.9123 40.4038 45.9123C40.1913 45.9123 39.1286 45.9123 38.8735 45.9123ZM3.44312 46.9457L4.03823 47.1777C4.54832 47.3675 5.03716 47.5784 5.54726 47.7682C6.8225 48.2533 8.11899 48.7805 9.43674 49.2656C10.1381 49.5186 10.5419 49.9193 10.797 50.6153C11.2858 51.9229 11.7959 53.2093 12.2848 54.4747C12.4761 54.9809 12.6886 55.4659 12.8799 55.9721L13.1137 56.5837L23.6769 46.081L22.763 45.9967C22.6992 45.9967 22.6142 45.9756 22.5292 45.9756C22.3379 45.9545 22.1041 45.9334 21.8703 45.9334C21.509 45.9334 21.1264 45.9334 20.7651 45.9334H19.4049C19.1073 45.9334 18.8097 45.9334 18.5334 45.9334C15.8129 45.9123 14.2401 44.7524 13.39 42.1794L12.1147 38.299L3.44312 46.9457ZM22.1679 43.5924C23.3368 43.5924 24.357 43.9088 25.2497 44.5837C26.2274 45.3007 27.2901 46.081 28.3315 46.8192C28.9266 47.241 29.458 47.4308 29.9893 47.4308C30.5207 47.4308 31.0733 47.241 31.6684 46.7981C32.8586 45.9545 33.8151 45.2585 34.7077 44.6048C35.6429 43.9088 36.6631 43.5924 37.8533 43.5924H39.6599C40.1913 43.5924 40.7439 43.5924 41.2752 43.5924C43.1456 43.5924 43.8257 43.1074 44.3995 41.357C44.5271 40.9984 44.6333 40.6399 44.7609 40.2814C44.9947 39.5854 45.2285 38.8473 45.4622 38.1302C45.8023 37.0125 46.4612 36.1056 47.4601 35.4097C48.4803 34.6926 49.5005 33.9545 50.4782 33.2164C51.6046 32.3939 51.9022 31.4659 51.4771 30.1162C51.1583 29.0828 50.797 28.0283 50.4782 27.016L50.2656 26.3622C49.9468 25.371 49.9468 24.422 50.2656 23.4308C50.6482 22.2708 51.0095 21.132 51.3921 19.9721C51.9447 18.2638 51.6684 17.4202 50.2444 16.3868C49.1392 15.5854 48.2465 14.9316 47.4176 14.3411C46.4612 13.6663 45.8448 12.8227 45.5048 11.7471C45.1647 10.6715 44.8034 9.57488 44.4633 8.54149L44.3783 8.28841C43.8682 6.74887 43.0818 6.17945 41.4665 6.17945H40.7014C40.255 6.17945 39.8087 6.17945 39.3624 6.17945C38.7885 6.17945 38.3209 6.17945 37.8746 6.20054C37.8321 6.20054 37.7896 6.20054 37.7471 6.20054C36.6206 6.20054 35.6217 5.8631 34.6652 5.14606C33.7088 4.4501 32.7311 3.73305 31.7109 2.99491C31.0946 2.55203 30.5632 2.34114 30.0319 2.34114C29.4792 2.34114 28.9692 2.55203 28.3103 2.99491C27.3751 3.66978 26.4612 4.32356 25.526 4.99843L25.2922 5.16715C24.3783 5.84201 23.4219 6.15836 22.3592 6.15836C22.3167 6.15836 22.2529 6.15836 22.2104 6.15836C21.9978 6.15836 21.7853 6.15836 21.5728 6.15836C21.3815 6.15836 21.2114 6.15836 21.0202 6.15836C20.8501 6.15836 20.6801 6.15836 20.5101 6.15836C20.2975 6.15836 19.4049 6.15836 19.1711 6.15836C18.8948 6.15836 18.6185 6.15836 18.3422 6.15836C16.9819 6.17945 16.153 6.76996 15.7279 8.07752C15.3453 9.19527 14.9415 10.3974 14.5589 11.6206C14.1976 12.7805 13.5388 13.6874 12.5186 14.4044C11.4984 15.1215 10.4569 15.8807 9.56426 16.5555C8.41655 17.3991 8.09774 18.3482 8.54407 19.6979C8.9479 20.9633 9.33047 22.1021 9.67053 23.1566C10.0744 24.3165 10.0744 25.4554 9.67053 26.5942C9.30922 27.6487 8.96915 28.7243 8.62909 29.7577L8.56533 29.9896C8.07648 31.5081 8.37404 32.3728 9.67053 33.3218C10.3719 33.828 11.0946 34.3552 11.7959 34.8613L12.6886 35.5151C13.5813 36.1478 14.1764 36.9703 14.5164 38.0037L14.5589 38.1302C14.9415 39.2902 15.3241 40.4923 15.7279 41.6733C16.1743 43.0019 16.9394 43.5714 18.3634 43.5924C18.8948 43.5924 19.4261 43.5924 19.9575 43.5924C20.3188 43.5924 20.7014 43.5924 21.0627 43.5924C21.424 43.5924 21.7853 43.5924 22.1679 43.5924Z" fill="#9A9A9A"/>
<path d="M37.407 36.1899C37.152 36.1899 36.8332 36.0844 36.4081 35.8735C35.643 35.4728 34.8778 35.0721 34.1339 34.6714C33.05 34.102 31.9023 33.5115 30.8183 32.921C30.542 32.7734 30.287 32.689 30.0107 32.689C29.7344 32.689 29.4793 32.7734 29.1818 32.9421C26.9926 34.1231 25.0585 35.1354 23.2944 36.0212C23.0606 36.1477 22.8268 36.1899 22.6143 36.1899C22.3167 36.1899 22.0617 36.0844 21.8704 35.8946C21.6366 35.6416 21.4878 35.2619 21.5091 34.8191C21.5941 34.2918 21.7003 33.7435 21.7854 33.1741C22.0192 31.74 22.2742 30.2637 22.5718 28.7874C22.7843 27.7119 22.5505 26.9737 21.7641 26.2778C20.7864 25.4131 19.8513 24.4851 18.9373 23.5994C18.4697 23.1354 18.0022 22.6714 17.5346 22.2286C16.9607 21.6802 16.8119 21.2795 17.0032 20.7945C17.1945 20.2883 17.5346 20.0563 18.2359 19.972C20.8289 19.6345 22.8268 19.3393 24.6972 19.0229C25.1647 18.9386 25.6961 18.559 25.9086 18.1161C26.8651 16.2813 27.779 14.4254 28.7779 12.3797C29.118 11.6837 29.4368 11.4307 29.9894 11.4307C30.542 11.4307 30.8608 11.7048 31.2221 12.4008C32.2636 14.5308 33.135 16.3235 34.0914 18.1372C34.3252 18.559 34.8353 18.9597 35.3242 19.0229C37.4708 19.3815 39.6812 19.6767 41.7854 19.972H41.8491C42.4867 20.0563 42.8268 20.3094 42.9968 20.7945C43.1669 21.2795 43.0394 21.6591 42.5505 22.1231C42.1679 22.4816 41.8066 22.8402 41.424 23.2198C40.2126 24.3797 38.9798 25.5818 37.7896 26.7839C37.4708 27.1003 37.3008 27.6486 37.3645 28.0704C37.6621 29.9895 38.0022 31.9087 38.321 33.7857L38.4272 34.3762C38.5548 35.1143 38.5335 35.5994 38.0447 35.9579C37.8534 36.1055 37.6408 36.1899 37.407 36.1899ZM29.6281 15.9228C29.4155 16.3656 29.203 16.7663 28.9905 17.1881C28.5229 18.1161 28.0765 18.9808 27.6727 19.8876C27.3114 20.7312 26.7588 21.1108 25.7811 21.2163C24.8034 21.3217 23.8257 21.4693 22.8693 21.617C22.4867 21.6802 22.0829 21.7435 21.7003 21.8068L20.8927 21.9333L21.4453 22.5238C21.7216 22.8191 22.0192 23.1354 22.2955 23.4518C22.9331 24.1477 23.592 24.8858 24.3146 25.5396C25.0797 26.2356 25.2923 26.9315 25.0797 27.9438C24.8672 28.8718 24.7184 29.7997 24.5696 30.7699C24.5059 31.2127 24.4209 31.6556 24.3571 32.0985L24.2083 32.9421L24.9735 32.5414C25.4198 32.3094 25.8661 32.0774 26.2912 31.8665C27.2901 31.3393 28.2466 30.8542 29.203 30.3481C29.5006 30.1793 29.7769 30.1161 30.0319 30.1161C30.287 30.1161 30.542 30.2004 30.8183 30.3481C31.1159 30.5168 31.4347 30.6855 31.7535 30.8331C31.8598 30.8964 31.9873 30.9597 32.0935 31.0018L35.8343 32.921L35.6855 32.0774C35.6005 31.5924 35.5154 31.1284 35.4517 30.6855C35.2816 29.6521 35.1116 28.682 34.9203 27.7119C34.7503 26.8472 34.9203 26.2567 35.5367 25.6873C36.2806 24.9913 37.0032 24.211 37.6833 23.4728C37.9809 23.1565 38.2785 22.8191 38.5973 22.5027L39.1499 21.9122L38.3422 21.7857C37.9596 21.7224 37.5558 21.6591 37.1733 21.5959C36.2381 21.4482 35.2604 21.2795 34.2827 21.1952C33.2838 21.1108 32.7312 20.7101 32.3486 19.8243C31.966 18.9386 31.5197 18.0739 31.0521 17.167C30.8396 16.7663 30.627 16.3445 30.4145 15.9228L30.0319 15.1635L29.6281 15.9228Z" fill="#9A9A9A"/>
</g>
<defs>
<clipPath id="clip0_1765_8078">
<rect width="60" height="60" fill="white"/>
</clipPath>
</defs>
</svg>
