<svg width="60" height="60" viewBox="0 0 60 60" fill="none" xmlns="http://www.w3.org/2000/svg">
<g clip-path="url(#clip0_1765_7365)">
<path d="M12.2012 24.4322C9.77741 24.4322 7.37016 24.4322 4.94641 24.4157C1.94559 24.4157 0 22.4691 0 19.4996C0 14.3195 0 9.53533 0.016488 4.86665C0.016488 2.37558 1.48392 0.544405 3.82523 0.0824856C4.15499 0.0164971 4.56719 0 5.01237 0C6.18302 0 7.35367 0 8.52432 0H12.366H16.8508C17.7741 0 18.7139 0 19.6373 0C22.6711 0 24.6331 1.97965 24.6331 5.01512C24.6331 9.65081 24.6331 14.501 24.6331 19.4006C24.6331 22.4526 22.6711 24.4157 19.6538 24.4322C17.1641 24.4322 14.6909 24.4322 12.2012 24.4322ZM8.11212 2.17762C7.08986 2.17762 6.08409 2.17762 5.06183 2.17762C3.18219 2.17762 2.19291 3.16745 2.19291 5.04812C2.19291 9.81578 2.19291 14.5999 2.19291 19.3676C2.19291 21.1988 3.19868 22.2216 5.01237 22.2216C7.40313 22.2216 9.77741 22.2216 12.1682 22.2216C14.6414 22.2216 17.1146 22.2216 19.5713 22.2216C21.418 22.2216 22.3908 21.2318 22.3908 19.3841C22.3908 14.5834 22.3908 9.79928 22.3908 4.99863C22.3908 3.15095 21.4015 2.17762 19.5548 2.17762C18.5326 2.17762 17.5268 2.17762 16.5045 2.17762H8.11212Z" fill="#9A9A9A"/>
<path d="M52.2506 60.0001C51.4921 60.0001 50.7337 60.0001 49.9752 60.0001C49.2168 60.0001 48.4583 60.0001 47.6999 60.0001H43.1657C42.2258 60.0001 41.3025 60.0001 40.3627 60.0001C37.3454 60.0001 35.3833 58.0369 35.3833 55.0345C35.3833 49.8709 35.3833 45.1197 35.3833 40.5335C35.3833 37.597 37.3454 35.6009 40.2638 35.5844C42.7205 35.5679 45.2267 35.5679 47.6999 35.5679C50.1566 35.5679 52.6628 35.5679 55.136 35.5844C58.0379 35.6009 60 37.564 60 40.4675C60.0164 45.7466 60.0164 50.5472 60 55.1499C59.9835 58.0369 58.0214 59.9836 55.103 60.0001C54.1467 60.0001 53.2069 60.0001 52.2506 60.0001ZM51.9538 57.8225C52.976 57.8225 53.9818 57.8225 55.0041 57.8225C56.8013 57.8225 57.807 56.8162 57.807 55.0015C57.807 50.1843 57.807 45.3672 57.807 40.55C57.807 38.7848 56.8013 37.762 55.0371 37.762H52.0527C48.178 37.762 44.2374 37.762 40.3462 37.7785C38.5655 37.7785 37.5927 38.7683 37.5927 40.55C37.5927 45.3672 37.5927 50.1843 37.5927 55.0015C37.5927 56.8491 38.582 57.8225 40.4286 57.8225C41.4344 57.8225 42.4237 57.8225 43.4295 57.8225H47.6504H51.9538Z" fill="#9A9A9A"/>
<path d="M7.8153 60.0002C6.89197 60.0002 5.98513 60.0002 5.0618 60.0002C2.028 60.0002 0.0659218 58.0205 0.0659218 54.9851V53.7973C0.0659218 49.4091 0.0494337 44.8723 0.0659218 40.4181C0.0659218 37.9271 1.63229 36.0464 4.02305 35.634C4.31984 35.5845 4.6496 35.5845 4.99585 35.5845H7.46905C9.57952 35.5845 11.69 35.5845 13.8005 35.5845C15.7955 35.5845 17.8071 35.5845 19.8021 35.601C22.3248 35.601 24.1714 37.0857 24.6166 39.4448C24.6826 39.7582 24.6826 40.1212 24.6826 40.4016V43.1072C24.6826 47.0665 24.6991 51.1742 24.6826 55.216C24.6661 57.6576 23.1657 59.5218 20.8244 59.9507C20.4781 60.0167 20.0494 60.0167 19.6867 60.0167C18.4996 60.0167 17.3124 60.0167 16.1253 60.0167H12.3495L7.8153 60.0002ZM12.4979 37.7621C10.0082 37.7621 7.53501 37.7621 5.04531 37.7621C3.2646 37.7621 2.29181 38.7519 2.29181 40.5501C2.29181 42.2658 2.29181 43.965 2.29181 45.6807V49.8875C2.29181 51.5867 2.29181 53.3024 2.29181 55.0016C2.29181 56.8163 3.28109 57.8226 5.07829 57.8226C7.51852 57.8226 9.95875 57.8226 12.399 57.8226C14.8392 57.8226 17.2794 57.8226 19.7197 57.8226C21.5004 57.8226 22.5226 56.7998 22.5226 55.0016C22.5226 50.1844 22.5226 45.3673 22.5226 40.5501C22.5226 38.7849 21.5169 37.7621 19.7527 37.7621C17.3124 37.7786 14.9052 37.7621 12.4979 37.7621Z" fill="#9A9A9A"/>
<path d="M47.6174 24.4158C44.4187 24.3993 41.3849 23.1126 39.1095 20.7865C36.8177 18.4604 35.5811 15.4084 35.5976 12.1915C35.647 5.36167 41.0716 0.0166016 47.9471 0.0166016H47.9966C51.1623 0.0330987 54.1631 1.30338 56.455 3.61297C58.7633 5.93906 60.0164 8.99103 59.9999 12.208C59.9834 15.4909 58.6973 18.5759 56.389 20.8689C54.0807 23.162 50.9974 24.4323 47.6998 24.4323L47.6174 24.4158ZM47.8812 2.19422C45.1936 2.19422 42.6545 3.23354 40.7583 5.11421C38.8457 6.99488 37.807 9.51894 37.807 12.1915C37.807 17.7015 42.2752 22.2052 47.7493 22.2217H47.7987C50.4863 22.2217 52.9925 21.1659 54.9051 19.2687C56.8012 17.3716 57.84 14.8475 57.8235 12.175C57.807 6.78042 53.2728 2.21072 47.9306 2.19422H47.8812Z" fill="#9A9A9A"/>
</g>
<defs>
<clipPath id="clip0_1765_7365">
<rect width="60" height="60" fill="white"/>
</clipPath>
</defs>
</svg>
