<svg width="59" height="59" viewBox="0 0 59 59" fill="none" xmlns="http://www.w3.org/2000/svg">
<path d="M1.20147 58.9999C0.741334 58.9999 0.383449 58.8724 0.178943 58.6684C0.0511265 58.5155 0 58.3625 0 58.133C0.0255633 57.4701 0.639081 57.3426 1.17591 57.3426C1.84055 57.3426 2.47964 57.3426 3.16984 57.3426H6.7487V17.9243C6.7487 16.318 6.82539 16.2415 8.46144 16.2415H26.6625V10.5556C26.6625 7.547 26.6625 4.53836 26.6625 1.52971C26.6625 0.178372 26.8159 0.0253906 28.1963 0.0253906H39.4952H50.7942C52.2002 0.0253906 52.3536 0.178373 52.3536 1.6062V57.3681H52.8648C53.3505 57.3681 53.8107 57.3681 54.2708 57.3681C54.7309 57.3681 55.1911 57.3681 55.6257 57.3681C56.5204 57.3681 57.2106 57.3681 57.8752 57.3936C58.2587 57.3936 58.6677 57.5211 58.8466 57.6995C59.1023 57.929 59.1023 58.2095 59.0511 58.3625C59 58.5919 58.7955 58.8724 58.412 58.9744C58.2331 59.0254 58.0286 59.0254 57.8497 59.0254H57.4918C43.8665 59.0254 30.2413 59.0254 16.6161 59.0254H1.40598C1.30373 58.9999 1.2526 58.9999 1.20147 58.9999ZM8.46144 57.2661H26.5858V17.9498H8.46144V57.2661ZM35.5074 57.2661H43.3808V44.6451H35.5074V57.2661ZM39.393 42.9113C40.9012 42.9113 42.3839 42.9113 43.8666 42.9113C44.9402 42.9113 45.0936 43.0898 45.0936 44.1861C45.0936 46.3789 45.0936 48.5716 45.0936 50.7644C45.0936 52.4217 45.0936 54.079 45.0936 55.7363C45.0936 55.9912 45.1192 56.2207 45.1192 56.4502C45.1192 56.5522 45.1192 56.6287 45.1447 56.7307L45.1703 57.2151H50.5386V1.70819H28.3752V57.2661H33.7946V52.3452C33.7946 49.617 33.7946 46.8888 33.7946 44.1861C33.7946 43.1408 33.9736 42.9623 34.9961 42.9623C36.4532 42.9368 37.9359 42.9113 39.393 42.9113Z" fill="#9A9A9A"/>
<path d="M39.4441 30.8769C37.4757 30.8769 35.4818 30.8769 33.5134 30.8514C32.772 30.8514 32.5164 30.5709 32.4909 29.7805C32.4653 28.3272 32.4653 27.0268 32.4909 25.7775C32.4909 25.0636 32.772 24.8086 33.4623 24.8086C34.3058 24.8086 35.1494 24.8086 35.993 24.8086C36.5298 24.8086 39.4696 24.8086 39.4696 24.8086C39.4696 24.8086 42.3071 24.8086 42.9207 24.8086C43.6876 24.8086 44.4545 24.8086 45.1958 24.8086C46.1416 24.8086 46.3461 25.0381 46.3461 25.9815C46.3461 27.2818 46.3717 28.5312 46.3461 29.806C46.3461 30.5709 46.0649 30.8514 45.3236 30.8514C43.4064 30.8769 41.438 30.8769 39.4441 30.8769ZM34.2292 29.1176H44.7357V26.5424H34.2292V29.1176Z" fill="#9A9A9A"/>
<path d="M39.393 21.1878H35.9931C35.2518 21.1878 34.4849 21.1878 33.7435 21.1878C32.721 21.1878 32.5165 20.9838 32.5165 19.9894C32.5165 18.7401 32.4909 17.4652 32.5165 16.1904C32.5421 15.349 32.8999 15.1705 33.4623 15.1705C35.4563 15.145 37.5269 15.145 39.5975 15.145C41.4892 15.145 43.4576 15.145 45.4259 15.1705C46.065 15.1705 46.3973 15.349 46.4229 16.2414C46.4485 17.5672 46.4485 18.8676 46.4229 20.1424C46.4229 20.9583 46.1673 21.1878 45.3237 21.1878C44.5057 21.1878 43.6876 21.1878 42.8952 21.1878C42.3072 21.1878 39.393 21.1878 39.393 21.1878ZM34.2292 19.454H44.7357V16.8788H34.2292V19.454Z" fill="#9A9A9A"/>
<path d="M39.4697 11.5756H36.0187C35.2262 11.5756 34.4337 11.5756 33.6413 11.5756C32.7721 11.5756 32.5165 11.3206 32.5165 10.4537C32.4909 9.17889 32.4909 7.90404 32.5165 6.62919C32.5165 5.78779 32.7977 5.50732 33.6668 5.50732C35.6096 5.50732 37.5524 5.50732 39.4953 5.50732C41.4381 5.50732 43.3809 5.50732 45.3237 5.50732C46.1417 5.50732 46.3973 5.76229 46.3973 6.5782C46.4229 7.87854 46.4229 9.20439 46.3973 10.4792C46.3973 11.2696 46.1161 11.5501 45.2981 11.5501C44.5057 11.5501 43.7132 11.5501 42.8952 11.5501C42.3328 11.6011 40.0576 11.5756 39.4697 11.5756ZM34.2037 9.86731H44.7102V7.26662H34.2037V9.86731Z" fill="#9A9A9A"/>
<path d="M17.4852 27.8427H14.6221C13.983 27.8427 13.3439 27.8427 12.7304 27.8427C11.7846 27.8427 11.5545 27.5877 11.5289 26.6698C11.5034 25.2675 11.5034 24.0181 11.5289 22.8708C11.5545 22.0294 11.7846 21.7999 12.6026 21.7744C14.2386 21.7744 15.8747 21.7744 17.5107 21.7744C19.1468 21.7744 20.7828 21.7744 22.4445 21.7744C23.2625 21.7744 23.5181 22.0039 23.5181 22.8453C23.5437 24.1201 23.5437 25.4205 23.5181 26.7463C23.5181 27.6132 23.2625 27.8427 22.3678 27.8427C21.7287 27.8427 21.064 27.8427 20.425 27.8427C19.9137 27.8427 17.9709 27.8427 17.4852 27.8427ZM13.2417 26.1344H21.8054V23.5082H13.2417V26.1344Z" fill="#9A9A9A"/>
<path d="M20.4761 46.787C19.9904 46.787 19.5047 46.787 19.019 46.787C18.5333 46.787 17.5108 46.787 17.5108 46.787H14.5454C13.9064 46.787 13.2673 46.787 12.6282 46.787C11.7335 46.787 11.4778 46.5576 11.4523 45.6907C11.4267 44.3393 11.4267 43.039 11.4523 41.7896C11.4778 40.9737 11.7335 40.7188 12.5515 40.7188C14.1875 40.7188 15.8236 40.7188 17.4341 40.7188C19.0701 40.7188 20.7317 40.7188 22.3678 40.7188C23.1347 40.7188 23.3903 40.9737 23.4159 41.7131C23.4414 43.1155 23.4414 44.4923 23.4159 45.7927C23.3903 46.5066 23.1603 46.736 22.4445 46.7615C21.831 46.787 21.1663 46.787 20.4761 46.787ZM13.2161 45.0532H21.7543V42.427H13.2161V45.0532Z" fill="#9A9A9A"/>
<path d="M20.4251 37.3276C19.965 37.3276 19.4793 37.3276 19.0191 37.3276C18.559 37.3276 18.0733 37.3276 17.6132 37.3276H17.5365C17.0763 37.3276 16.6162 37.3276 16.1561 37.3276C15.6448 37.3276 15.1591 37.3276 14.6478 37.3276C14.0087 37.3276 13.3952 37.3276 12.7561 37.3276C11.7336 37.3021 11.5291 37.0981 11.5035 36.1037C11.478 34.5994 11.478 33.452 11.5035 32.3811C11.5291 31.5142 11.7592 31.2848 12.5772 31.2848C14.2133 31.2848 15.8493 31.2593 17.5109 31.2593C19.1725 31.2593 20.783 31.2593 22.4446 31.2848C23.2882 31.2848 23.4927 31.4888 23.5183 32.3556C23.5438 33.6815 23.5438 35.0073 23.5183 36.2567C23.4927 37.0981 23.2882 37.3021 22.4191 37.3276C21.8311 37.3276 21.192 37.3276 20.4251 37.3276ZM13.1907 35.5938H21.78V32.9931H13.1907V35.5938Z" fill="#9A9A9A"/>
</svg>
