<svg width="60" height="60" viewBox="0 0 60 60" fill="none" xmlns="http://www.w3.org/2000/svg">
<path d="M58.4763 59.9999C58.381 59.9404 58.2858 59.8809 58.1786 59.8214C57.8929 59.6547 57.631 59.4999 57.4048 59.3095C56.012 58.1547 54.631 56.9999 53.2382 55.8452C51.3096 54.238 49.3096 52.5714 47.3334 50.9404C46.9763 50.6428 46.4405 50.4523 45.9763 50.4523C41.4048 50.4404 36.762 50.4404 32.2739 50.4404C30.2382 50.4404 28.2025 50.4404 26.1548 50.4404C25.4882 50.4404 24.8215 50.4166 24.1667 50.369C19.5477 50.0238 15.512 45.8452 15.3453 41.2499C15.3096 40.1428 15.2977 38.9999 15.2977 37.9047C15.2977 37.3571 15.2977 36.8095 15.2858 36.2619C15.2858 36.1071 15.2739 35.9523 15.262 35.8095C15.262 35.7499 15.2501 35.6904 15.2501 35.6428L15.2263 35.2738L14.8691 35.2023C14.5953 35.1428 14.3572 35.119 14.1191 35.119C13.381 35.119 12.7739 35.3928 12.262 35.9523C12.0834 36.1428 11.8691 36.3095 11.6429 36.488C11.5358 36.5714 11.4167 36.6666 11.3096 36.7499L8.92864 38.7261C6.77388 40.5238 4.53578 42.3809 2.35721 44.2142C1.95245 44.5476 1.60721 44.7142 1.29769 44.7142C1.14293 44.7142 0.988165 44.6666 0.821498 44.5833C0.595308 44.4523 0.404832 44.2023 0.190546 43.9285C0.119117 43.8333 0.0476888 43.738 -0.0356445 43.6428V8.88089C-0.0356445 8.86899 -0.0237398 8.85708 -0.0237398 8.83328C0.0119745 8.73804 0.0476888 8.61899 0.0714983 8.49994C0.738165 4.69042 2.88102 2.04756 6.44055 0.630894C6.95245 0.428513 7.50007 0.297561 8.0834 0.166609C8.3334 0.107085 8.5834 0.0475609 8.8334 -0.0119629H35.8334C35.8453 -0.0119629 35.8572 -5.81278e-05 35.8691 -5.81278e-05C35.9644 0.0356562 36.0834 0.0832752 36.2144 0.09518C40.0834 0.797561 42.6548 2.91661 44.0715 6.54756C44.6905 8.13089 44.6786 9.82137 44.6667 11.4642C44.6667 11.7738 44.6667 12.0714 44.6667 12.4047V13.3571H45.881C46.2858 13.3571 46.6905 13.3571 47.0953 13.3571C47.5001 13.3571 47.9048 13.3571 48.3096 13.3571C48.7977 13.3571 49.2977 13.3571 49.7858 13.369C54.4048 13.4166 58.012 15.9523 59.4524 20.1666C59.6072 20.6071 59.7144 21.0714 59.8215 21.5595C59.8691 21.7618 59.9167 21.9761 59.9644 22.1785V59.0357C59.7501 59.4404 59.4405 59.7499 59.012 59.9761H58.4763V59.9999ZM46.7382 47.8214C47.4048 47.8214 47.9286 48.0118 48.4286 48.4404C50.3572 50.0714 52.3334 51.7142 54.2382 53.2976C54.881 53.8214 55.512 54.3571 56.1429 54.8809C56.2263 54.9523 56.3096 55.0118 56.4167 55.0952C56.4763 55.1309 56.5358 55.1785 56.6072 55.238L57.3691 55.8214V47.6785C57.3691 41.7738 57.3691 35.869 57.3691 29.9642C57.3691 29.2976 57.3691 28.619 57.3691 27.9523C57.381 26.3452 57.381 24.6904 57.3453 23.0476C57.262 19.3333 54.3096 16.2618 50.6191 16.0595C49.9048 16.0238 49.1548 15.9999 48.1548 15.9999C47.762 15.9999 47.3572 15.9999 46.9644 15.9999C46.5715 15.9999 46.1786 15.9999 45.7739 15.9999C45.6548 15.9999 45.4167 15.9999 45.4167 15.9999C45.2739 15.9999 45.1667 16.0357 45.0953 16.0714C45.0834 16.0714 45.0715 16.0833 45.0477 16.0833L44.7024 16.1785V22.9404H45.9763C46.2739 22.9404 46.5715 22.9404 46.8572 22.9404C47.1548 22.9404 47.4405 22.9404 47.7382 22.9404C48.2739 22.9404 48.7144 22.9404 49.1191 22.9523C49.5477 22.9642 49.9286 23.1666 50.1548 23.488C50.3929 23.8214 50.4525 24.2499 50.3215 24.6666C50.1429 25.2261 49.631 25.5476 48.9167 25.5595C48.4167 25.5595 47.9048 25.5595 47.4167 25.5595C47.0358 25.5595 46.6548 25.5595 46.2858 25.5595C45.9286 25.5595 45.5834 25.5595 45.2382 25.5595H44.881L43.4644 30.5952H44.7501C45.1667 30.5952 45.5715 30.5952 45.9882 30.5952C46.3929 30.5952 46.8096 30.5952 47.2144 30.5952C47.9286 30.5952 48.5001 30.5952 49.0358 30.6071C49.7024 30.619 50.2144 30.9761 50.3691 31.5476C50.4882 31.9642 50.4167 32.3809 50.1786 32.6904C49.9286 33.0238 49.512 33.2142 49.0239 33.2142C48.1191 33.2142 47.2144 33.2142 46.3215 33.2142H44.8096C43.6905 33.2142 42.4763 33.2142 41.2977 33.2261C40.881 33.2261 40.4286 33.3571 40.1072 33.5714C38.4763 34.619 36.6429 35.1309 34.4882 35.1309H34.4405C32.5358 35.119 30.4763 35.119 27.9644 35.119C26.4882 35.119 25.0001 35.119 23.5239 35.119C22.0715 35.119 20.6072 35.119 19.1548 35.119H17.9763V35.5952C17.9763 36.119 17.9763 36.6309 17.9763 37.1428C17.9763 38.4761 17.9644 39.7499 18.0001 41.0357C18.012 41.5714 18.1191 42.1666 18.3334 42.7976C19.3453 45.8928 22.1191 47.8095 25.5834 47.8095C28.7144 47.8095 31.8453 47.8095 34.9882 47.8095C39.3215 47.8333 43.1786 47.8214 46.7382 47.8214ZM23.2263 2.61899C18.8929 2.61899 14.5715 2.61899 10.2382 2.61899C5.76198 2.61899 2.63102 5.76185 2.61912 10.238C2.61912 16.9999 2.61912 23.7618 2.61912 30.5238V40.5118L3.38102 39.9166C3.46436 39.8452 3.54769 39.7857 3.61912 39.738C3.75007 39.6309 3.86912 39.5476 3.98816 39.4523C4.60721 38.9404 5.22626 38.4166 5.84531 37.9047C7.69055 36.369 9.60721 34.7738 11.4763 33.1904C12.0358 32.7142 12.631 32.4999 13.381 32.4999C17.5596 32.5118 21.3215 32.5119 25.1667 32.5119C28.762 32.5119 31.9644 32.4999 34.9405 32.488C38.7739 32.4642 41.9524 29.4047 42.0239 25.6547C42.131 20.3928 42.131 15.0357 42.0477 9.74994C41.9763 5.63089 38.8334 2.61899 34.5834 2.61899C30.7977 2.61899 27.012 2.61899 23.2263 2.61899Z" fill="#9A9A9A"/>
<path d="M22.369 21.7381C22.3452 21.7381 22.3214 21.7381 22.3095 21.7381C21.5714 21.7024 21.0833 21.1548 21.0595 20.3453C21.0595 20.1548 21.0595 19.9643 21.0595 19.7738C21.0595 19.6786 21.0595 19.5715 21.0595 19.4762C21.0595 19.3572 21.0595 19.2381 21.0595 19.1191C21.0595 17.631 21.2976 17.3572 22.7738 17.1667C24.5833 16.9405 25.9286 15.3691 25.8214 13.5953C25.7143 11.7619 24.25 10.3334 22.4167 10.2738C22.3809 10.2738 22.3452 10.2738 22.3214 10.2738C20.5714 10.2738 19.119 11.6191 18.9286 13.4167C18.7857 14.8095 18.1786 15.0119 17.6547 15.0357C17.6309 15.0357 17.6071 15.0357 17.5833 15.0357C16.8214 15.0357 16.2857 14.4643 16.2857 13.6548C16.2738 10.9524 18.1905 8.51193 20.8214 7.84526C21.3214 7.71431 21.8452 7.65479 22.3571 7.65479C25.0238 7.65479 27.3571 9.36907 28.1667 11.9286C29.1547 15.0238 27.5476 18.2619 24.4405 19.4405C23.9286 19.631 23.7024 19.9405 23.6547 20.4643C23.5833 21.2143 23.0595 21.7381 22.369 21.7381Z" fill="#9A9A9A"/>
<path d="M22.3453 27.488C21.6429 27.488 21.0596 26.9047 21.0596 26.1904C21.0596 25.4642 21.6191 24.8809 22.3334 24.8809C23.0596 24.8809 23.6429 25.4523 23.6548 26.1666C23.6548 26.4999 23.5239 26.8332 23.2739 27.0832C23.0239 27.3332 22.6905 27.488 22.3572 27.488H22.3453Z" fill="#9A9A9A"/>
<path d="M31.3572 40.869C29.7024 40.869 28.0358 40.869 26.381 40.869C25.8691 40.869 25.4644 40.7261 25.2024 40.4404C24.9763 40.2023 24.8691 39.8809 24.881 39.488C24.9048 38.9166 25.2977 38.4404 25.8453 38.3095C26.0477 38.2618 26.2858 38.238 26.5715 38.238C31.0239 38.238 35.4644 38.238 39.9167 38.238C42.8572 38.238 45.8096 38.238 48.7501 38.238C50.0001 38.238 50.2858 38.8095 50.3929 39.2261C50.4882 39.619 50.4167 39.9999 50.2025 40.3095C49.9882 40.619 49.6429 40.7976 49.2501 40.8333C49.0834 40.8452 48.9167 40.8452 48.7501 40.8452C48.7501 40.8452 44.5477 40.8452 42.5358 40.8452H37.512L31.3572 40.869Z" fill="#9A9A9A"/>
</svg>
