<svg width="15" height="18" viewBox="0 0 15 18" fill="none" xmlns="http://www.w3.org/2000/svg">
<path d="M7.78223 0.0869141C3.88751 0.0869141 0.721191 3.29276 0.721191 7.23609C0.721191 11.0515 3.68683 14.1821 7.4106 14.3777V17.0869L8.47347 16.5677C12.2864 14.7089 14.8433 10.9612 14.8433 7.23609C14.8433 3.29276 11.677 0.0869141 7.78223 0.0869141ZM8.89714 14.611V12.8802H7.78223C4.70511 12.8802 2.20773 10.3516 2.20773 7.23609C2.20773 4.12056 4.70511 1.592 7.78223 1.592C10.8594 1.592 13.3567 4.12056 13.3567 7.23609C13.3567 10.0431 11.6026 12.8877 8.89714 14.611ZM7.03897 10.2463H8.5255V11.7514H7.03897V10.2463ZM7.78223 2.34455C6.13961 2.34455 4.80916 3.69161 4.80916 5.35473H6.2957C6.2957 4.52693 6.96464 3.84964 7.78223 3.84964C8.59983 3.84964 9.26877 4.52693 9.26877 5.35473C9.26877 6.85982 7.03897 6.67169 7.03897 9.11746H8.5255C8.5255 7.42423 10.7553 7.23609 10.7553 5.35473C10.7553 3.69161 9.42486 2.34455 7.78223 2.34455Z" fill="white"/>
</svg>
