<svg width="61" height="59" viewBox="0 0 61 59" fill="none" xmlns="http://www.w3.org/2000/svg">
<g clip-path="url(#clip0_1765_7037)">
<path d="M30.5 3.25069C31.235 3.25069 31.8306 3.85307 31.8306 4.59653V6.48506V8.1348L33.4454 8.36815C35.8972 8.72089 37.8394 9.4318 39.3898 10.5497C40.7257 11.5157 41.7558 12.7856 42.5445 14.4353C43.2365 15.8897 43.7569 17.6805 44.1271 19.9055C44.4705 21.9731 44.6636 24.2198 44.846 26.3959C45.4469 33.5159 46.1229 41.5367 52.8613 45.2323V47.4301H30.8756H30.1299H8.13873V45.2269C14.8825 41.5312 15.5585 33.5104 16.1594 26.3905C16.3418 24.2144 16.5296 21.9677 16.8783 19.9001C17.2485 17.6751 17.7689 15.8842 18.461 14.4299C19.2496 12.7801 20.2797 11.5103 21.6156 10.5443C23.1607 9.42637 25.1029 8.71547 27.56 8.36272L29.1749 8.12937V6.47963V4.59653C29.1695 3.85307 29.7704 3.25069 30.5 3.25069ZM30.5 1.35132C28.7296 1.35132 27.2918 2.8057 27.2918 4.59653V6.48506C6.26099 9.50235 21.1757 37.5642 6.26099 44.0438V49.3295H30.1245H30.8702H54.7337V44.0384C39.819 37.5642 54.7337 9.49692 33.7029 6.47963V4.59653C33.7083 2.80027 32.2705 1.35132 30.5 1.35132Z" fill="#9A9A9A"/>
<path d="M9.27071 0C9.15805 0.113962 9.04002 0.227925 8.92735 0.341887C6.12682 3.17467 3.92718 6.47415 2.38742 10.1481C0.895954 13.7243 0.0912049 17.5068 0 21.4032H1.87775C2.08162 13.5453 5.38645 6.45787 10.6066 1.35127L9.27071 0Z" fill="#9A9A9A"/>
<path d="M14.7 5.49731C14.5874 5.61128 14.4693 5.71981 14.3567 5.8392C12.259 7.96107 10.6119 10.4303 9.4638 13.1762C8.36934 15.7919 7.77382 18.5542 7.68262 21.4032H9.56037C9.75887 15.6888 12.2053 10.5442 16.0306 6.84858L14.7 5.49731Z" fill="#9A9A9A"/>
<path d="M50.3933 1.35138C55.6135 6.45256 58.9183 13.5454 59.1222 21.3979H60.9999C60.9087 17.5015 60.104 13.719 58.6125 10.1428C57.0781 6.46884 54.8784 3.16935 52.0726 0.331145C51.9599 0.217183 51.8472 0.10322 51.7292 -0.0107422L50.3933 1.35138Z" fill="#9A9A9A"/>
<path d="M44.9641 6.84858C48.7894 10.5442 51.2358 15.6888 51.4343 21.4032H53.312C53.2208 18.5542 52.6253 15.7919 51.5309 13.1762C50.3828 10.4248 48.7357 7.95565 46.638 5.8392C46.5253 5.72524 46.4127 5.61128 46.2946 5.49731L44.9641 6.84858Z" fill="#9A9A9A"/>
<path d="M37.1794 51.2288C36.7234 54.5391 33.9014 57.1005 30.5 57.1005C27.0986 57.1005 24.282 54.5391 23.826 51.2288H21.9321C22.3989 55.5919 26.0632 58.9999 30.5 58.9999C34.9369 58.9999 38.6012 55.5919 39.0679 51.2288H37.1794Z" fill="#9A9A9A"/>
</g>
<defs>
<clipPath id="clip0_1765_7037">
<rect width="61" height="59" fill="white"/>
</clipPath>
</defs>
</svg>
