<svg width="60" height="60" viewBox="0 0 60 60" fill="none" xmlns="http://www.w3.org/2000/svg">
<g clip-path="url(#clip0_1769_8103)">
<path d="M6.81964 25.3112C5.70488 25.3112 4.62291 25.344 3.54095 25.3112C1.50816 25.2457 0.0655378 23.9998 0.0655378 21.967C-3.60198e-05 15.8031 -3.60198e-05 9.60633 0.0655378 3.4424C0.0655378 1.4424 1.50816 0.0653469 3.54095 0.03256C9.6721 -0.0330138 15.7705 -0.0330138 21.9016 0.03256C24 0.0653469 25.2787 1.50797 25.3114 3.63912C25.3442 4.65551 25.3114 5.70469 25.3114 6.81945C28.4918 6.81945 31.5082 6.81945 34.6885 6.81945C34.6885 5.70469 34.6885 4.6883 34.6885 3.63912C34.7213 1.4424 36 0.03256 38.2295 -0.000226904C44.2295 -0.0658007 50.2623 -0.0330138 56.2623 -0.000226904C58.4918 -0.000226904 59.9344 1.34404 59.9672 3.54076C60.0327 9.6719 60.0327 15.7703 59.9672 21.9014C59.9344 23.9998 58.459 25.2457 56.3278 25.2785C55.3114 25.3112 54.295 25.2785 53.1803 25.2785C53.1803 28.4588 53.1803 31.4096 53.1803 34.6555C54.2295 34.6555 55.2459 34.6555 56.2623 34.6555C58.5246 34.6883 59.9672 35.9014 60 38.0981C60.0655 44.2293 60.0655 50.3276 60 56.4588C59.9672 58.5571 58.5573 59.9014 56.3934 59.9342C50.3278 59.9998 44.2623 59.9998 38.1967 59.9342C36 59.9014 34.7541 58.4916 34.7213 56.2293C34.7213 55.2457 34.7213 54.2621 34.7213 53.1473C31.6065 53.1473 28.5901 53.1473 25.3442 53.1473C25.3442 54.1637 25.3442 55.1801 25.3442 56.1965C25.3114 58.4916 24 59.9014 21.7049 59.9014C15.7049 59.9342 9.67209 59.9342 3.6721 59.9014C1.47537 59.8686 0.0983246 58.4916 0.0655378 56.2621C0.0327509 50.2621 0.0327509 44.2293 0.0655378 38.2293C0.0655378 35.967 1.47537 34.6555 3.80324 34.6227C4.78685 34.6227 5.73767 34.6227 6.85242 34.6227C6.81964 31.5408 6.81964 28.5244 6.81964 25.3112ZM25.5082 16.1637C25.4098 16.426 25.3442 16.5571 25.3442 16.6555C25.3114 18.2293 25.3114 19.8358 25.3114 21.4096C25.2787 24.1309 24.1311 25.3112 21.4426 25.344C19.7049 25.344 17.9672 25.344 16.2295 25.344C16.2295 28.5899 16.2295 31.5735 16.2295 34.7211C18.0655 34.7211 19.7377 34.7211 21.4098 34.7211C24.0983 34.7539 25.2787 35.9014 25.2787 38.6227C25.2787 40.3604 25.2787 42.0653 25.2787 43.8358C28.4918 43.8358 31.4754 43.8358 34.6557 43.8358C34.6557 41.9998 34.6557 40.2949 34.6557 38.5571C34.6885 35.9342 35.836 34.7539 38.4262 34.7211C40.1967 34.7211 42 34.7211 43.7377 34.7211C43.7377 31.4752 43.7377 28.4916 43.7377 25.5735C43.5409 25.4752 43.4426 25.4096 43.3442 25.4096C41.7705 25.3768 40.1639 25.3768 38.5901 25.3768C35.7705 25.344 34.6557 24.2293 34.6229 21.4096C34.6229 19.7047 34.6229 17.967 34.6229 16.2293C31.4426 16.1637 28.4918 16.1637 25.5082 16.1637ZM2.29505 12.6883C2.29505 15.5408 2.32783 18.3604 2.29505 21.2129C2.26226 22.5244 2.75406 23.1473 4.09832 23.1473C9.83603 23.1473 15.5737 23.1473 21.3114 23.1473C22.4918 23.1473 23.1803 22.6555 23.1803 21.4096C23.1803 15.6063 23.1803 9.83584 23.1803 4.03256C23.1803 2.81945 22.6229 2.26207 21.377 2.29486C15.6393 2.32764 9.9016 2.32764 4.1639 2.29486C2.78685 2.29486 2.26226 2.85223 2.29505 4.16371C2.32783 7.01617 2.29505 9.83584 2.29505 12.6883ZM47.2786 57.7047C50.0655 57.7047 52.8524 57.6719 55.6393 57.7375C57.0819 57.7703 57.7377 57.2785 57.7049 55.7703C57.6393 50.1309 57.6721 44.5244 57.7049 38.885C57.7049 37.508 57.2131 36.885 55.8032 36.885C50.1311 36.9178 44.4262 36.9178 38.7541 36.885C37.4754 36.885 36.8196 37.3768 36.8196 38.7211C36.8524 44.4588 36.8196 50.1965 36.8196 55.9342C36.8196 57.2457 37.4098 57.7703 38.7213 57.7703C41.6065 57.6391 44.4262 57.7047 47.2786 57.7047ZM12.6229 57.7047C15.5082 57.7047 18.3934 57.6719 21.2787 57.7375C22.6229 57.7703 23.1475 57.1473 23.1475 55.8686C23.1475 50.1309 23.1475 44.426 23.1475 38.6883C23.1475 37.4752 22.6229 36.8522 21.377 36.8522C15.6065 36.8522 9.80324 36.8522 4.03275 36.8522C2.81964 36.8522 2.26226 37.3768 2.29505 38.6555C2.32783 44.3932 2.32783 50.0981 2.29505 55.8358C2.29505 57.2785 2.918 57.7375 4.29505 57.7047C7.04914 57.6719 9.83603 57.7047 12.6229 57.7047ZM47.3114 2.29486C44.4918 2.29486 41.6393 2.36043 38.8196 2.29486C37.4098 2.26207 36.8524 2.85223 36.8524 4.22928C36.8852 9.90141 36.8852 15.5735 36.8524 21.2457C36.8524 22.5244 37.3442 23.1801 38.6885 23.1801C44.4262 23.1801 50.1311 23.1801 55.8688 23.1801C57.1475 23.1801 57.7377 22.6883 57.7377 21.3112C57.7049 15.5735 57.7049 9.86863 57.7377 4.13092C57.7377 2.78666 57.1475 2.29486 55.8688 2.29486C52.9836 2.32764 50.1639 2.29486 47.3114 2.29486ZM25.377 13.7703C28.5246 13.7703 31.5082 13.7703 34.5573 13.7703C34.5573 12.2293 34.5573 10.7867 34.5573 9.31125C31.4426 9.31125 28.4262 9.31125 25.377 9.31125C25.377 10.8522 25.377 12.2293 25.377 13.7703ZM13.8032 25.4424C12.1967 25.4424 10.7541 25.4424 9.31144 25.4424C9.31144 28.5571 9.31144 31.5408 9.31144 34.5899C10.8524 34.5899 12.295 34.5899 13.8032 34.5899C13.8032 31.508 13.8032 28.5244 13.8032 25.4424ZM46.1967 34.5899C47.7377 34.5899 49.1803 34.5899 50.6557 34.5899C50.6557 31.4752 50.6557 28.4588 50.6557 25.4424C49.0819 25.4424 47.6721 25.4424 46.1967 25.4424C46.1967 28.5571 46.1967 31.508 46.1967 34.5899ZM25.4426 46.1965C25.4426 47.8358 25.4426 49.2785 25.4426 50.6883C28.5573 50.6883 31.5409 50.6883 34.5901 50.6883C34.5901 49.1473 34.5901 47.7047 34.5901 46.1965C31.5082 46.1965 28.5246 46.1965 25.4426 46.1965Z" fill="#9A9A9A"/>
<path d="M17.3771 47.1803C17.3771 46.7541 17.2459 46.2295 17.4098 45.9016C17.6066 45.541 18.0656 45.1475 18.459 45.082C18.7541 45.0164 19.3771 45.4426 19.4098 45.7049C19.541 46.6885 19.5738 47.7377 19.4754 48.7213C19.4426 49.0164 18.7213 49.5082 18.4262 49.4426C18.0328 49.3443 17.6066 48.8525 17.4098 48.459C17.2459 48.0984 17.3771 47.6065 17.3771 47.1803Z" fill="#9A9A9A"/>
<path d="M13.7706 47.4095C13.7706 47.8358 13.9017 48.3276 13.7378 48.6882C13.5411 49.0489 13.1148 49.4423 12.7214 49.4751C12.4263 49.5079 11.8034 49.1145 11.7706 48.8522C11.6394 47.8686 11.6066 46.8194 11.7378 45.8358C11.7706 45.5407 12.4263 45.0817 12.787 45.1145C13.1476 45.1472 13.6066 45.6063 13.7706 45.9997C13.9017 46.3604 13.7706 46.9177 13.7706 47.4095Z" fill="#9A9A9A"/>
<path d="M5.86871 47.3115C5.86871 46.8852 5.73756 46.3607 5.90149 46.0328C6.131 45.6066 6.55723 45.1475 6.98346 45.082C7.24575 45.0164 7.86871 45.5738 7.93428 45.9016C8.09821 46.623 8.19657 47.4426 7.99985 48.1312C7.86871 48.6557 7.21297 49.0492 6.81953 49.5082C6.49166 49.0492 6.131 48.5902 5.83592 48.0984C5.77035 47.9016 5.83592 47.5738 5.86871 47.3115Z" fill="#9A9A9A"/>
<path d="M42.5901 12.8196C42.5901 13.2458 42.7213 13.7704 42.5573 14.0983C42.3606 14.4589 41.9016 14.8524 41.5082 14.9179C41.2131 14.9507 40.5901 14.5573 40.5573 14.295C40.4262 13.3114 40.3934 12.2622 40.4918 11.2458C40.5245 10.9507 41.2459 10.4589 41.5409 10.5245C41.9344 10.6229 42.3606 11.1147 42.5573 11.5081C42.7541 11.9016 42.6229 12.3934 42.5901 12.8196C42.6229 12.8196 42.6229 12.8196 42.5901 12.8196Z" fill="#9A9A9A"/>
<path d="M46.2294 12.59C46.2294 12.1637 46.0983 11.6719 46.2622 11.3113C46.4262 10.9506 46.8852 10.5572 47.2786 10.5244C47.5737 10.4916 48.1966 10.885 48.2294 11.1473C48.3606 12.1309 48.3934 13.1801 48.2622 14.1637C48.2294 14.4588 47.5737 14.9178 47.213 14.885C46.8524 14.8523 46.3934 14.3932 46.2294 14.0326C46.0983 13.6391 46.2294 13.0818 46.2294 12.59Z" fill="#9A9A9A"/>
<path d="M54.1312 12.8852C54.1312 13.2131 54.2296 13.6065 54.0984 13.836C53.8689 14.2623 53.3771 14.918 53.1476 14.8852C52.6886 14.7869 52.1312 14.295 52.0001 13.8688C51.8033 13.1803 51.8033 12.3278 51.9673 11.6393C52.0656 11.1803 52.6558 10.8524 53.0165 10.459C53.3771 10.8852 53.8361 11.2787 54.0984 11.7705C54.2624 12.0655 54.1312 12.5246 54.1312 12.8852Z" fill="#9A9A9A"/>
</g>
<defs>
<clipPath id="clip0_1769_8103">
<rect width="60" height="60" fill="white"/>
</clipPath>
</defs>
</svg>
