<svg width="16" height="14" viewBox="0 0 16 14" fill="none" xmlns="http://www.w3.org/2000/svg">
<mask id="path-1-inside-1_11_827" fill="white">
<path d="M1.08291 5.47545C1.14537 5.46532 1.2086 5.46064 1.27187 5.46146H12.0434L11.8085 5.35221C11.579 5.24354 11.3701 5.09566 11.1913 4.91523L8.1707 1.89462C7.77288 1.51486 7.70603 0.903943 8.01229 0.44713C8.36874 -0.0396565 9.0523 -0.145351 9.53912 0.211094C9.57846 0.239904 9.61582 0.271314 9.65096 0.305113L15.1132 5.76734C15.5401 6.19374 15.5404 6.88543 15.114 7.3123L15.1132 7.31315L9.65096 12.7754C9.22375 13.2014 8.53206 13.2004 8.10601 12.7732C8.07248 12.7396 8.04118 12.7038 8.01229 12.6661C7.70603 12.2093 7.77288 11.5984 8.1707 11.2186L11.1858 8.19257C11.3461 8.03211 11.5304 7.89759 11.7321 7.79383L12.0598 7.64635H1.33199C0.773919 7.66707 0.284299 7.27724 0.179458 6.72869C0.0828791 6.13314 0.487358 5.57207 1.08291 5.47545Z"/>
</mask>
<path d="M1.08291 5.47545C1.14537 5.46532 1.2086 5.46064 1.27187 5.46146H12.0434L11.8085 5.35221C11.579 5.24354 11.3701 5.09566 11.1913 4.91523L8.1707 1.89462C7.77288 1.51486 7.70603 0.903943 8.01229 0.44713C8.36874 -0.0396565 9.0523 -0.145351 9.53912 0.211094C9.57846 0.239904 9.61582 0.271314 9.65096 0.305113L15.1132 5.76734C15.5401 6.19374 15.5404 6.88543 15.114 7.3123L15.1132 7.31315L9.65096 12.7754C9.22375 13.2014 8.53206 13.2004 8.10601 12.7732C8.07248 12.7396 8.04118 12.7038 8.01229 12.6661C7.70603 12.2093 7.77288 11.5984 8.1707 11.2186L11.1858 8.19257C11.3461 8.03211 11.5304 7.89759 11.7321 7.79383L12.0598 7.64635H1.33199C0.773919 7.66707 0.284299 7.27724 0.179458 6.72869C0.0828791 6.13314 0.487358 5.57207 1.08291 5.47545Z" fill="#4A4A4A"/>
<path d="M1.08291 5.47545L2.04391 11.398L2.0437 11.398L1.08291 5.47545ZM1.27187 5.46146V11.4615H1.23293L1.19398 11.461L1.27187 5.46146ZM12.0434 5.46146L14.5738 0.0211294L12.0434 11.4615V5.46146ZM11.8085 5.35221L9.27816 10.7925L9.25979 10.784L9.24149 10.7753L11.8085 5.35221ZM11.1913 4.91523L15.434 0.672593L15.4437 0.682351L15.4534 0.692153L11.1913 4.91523ZM8.1707 1.89462L12.3137 -2.44539L12.3641 -2.39728L12.4133 -2.34802L8.1707 1.89462ZM8.01229 0.44713L3.02866 -2.89404L3.09789 -2.9973L3.17134 -3.09761L8.01229 0.44713ZM9.53912 0.211094L13.0837 -4.62998L13.0845 -4.62942L9.53912 0.211094ZM9.65096 0.305113L13.8102 -4.01931L13.8523 -3.97883L13.8936 -3.93753L9.65096 0.305113ZM15.1132 5.76734L10.8729 10.0124L10.8706 10.01L15.1132 5.76734ZM15.114 7.3123L19.3591 11.5526L19.3574 11.5542L15.114 7.3123ZM15.1132 7.31315L19.3566 11.5551L19.3558 11.5558L15.1132 7.31315ZM9.65096 12.7754L13.8936 17.018L13.8877 17.024L9.65096 12.7754ZM8.10601 12.7732L3.8576 17.0101L3.85684 17.0093L8.10601 12.7732ZM8.01229 12.6661L3.24979 16.3156L3.13435 16.1649L3.02866 16.0073L8.01229 12.6661ZM8.1707 11.2186L12.421 15.4536L12.368 15.5068L12.3137 15.5587L8.1707 11.2186ZM11.1858 8.19257L6.93554 3.95761L6.94082 3.95232L11.1858 8.19257ZM11.7321 7.79383L8.987 2.45861L9.12666 2.38675L9.26988 2.3223L11.7321 7.79383ZM12.0598 7.64635V1.64635L14.522 13.1179L12.0598 7.64635ZM1.33199 7.64635L1.10935 1.65048L1.22063 1.64635H1.33199V7.64635ZM0.179458 6.72869L-5.71387 7.85506L-5.72968 7.77231L-5.74317 7.68915L0.179458 6.72869ZM0.121913 -0.447086C0.527776 -0.512942 0.938604 -0.543375 1.34976 -0.538038L1.19398 11.461C1.47859 11.4646 1.76297 11.4436 2.04391 11.398L0.121913 -0.447086ZM1.27187 -0.538543H12.0434V11.4615H1.27187V-0.538543ZM9.51304 10.9018L9.27816 10.7925L14.3389 -0.088115L14.5738 0.0211294L9.51304 10.9018ZM9.24149 10.7753C8.38143 10.3682 7.59894 9.81425 6.9292 9.13832L15.4534 0.692153C15.1412 0.377081 14.7765 0.118861 14.3756 -0.0709064L9.24149 10.7753ZM6.94867 9.15787L3.92806 6.13726L12.4133 -2.34802L15.434 0.672593L6.94867 9.15787ZM4.02771 6.23463C1.51876 3.83958 1.0973 -0.0132503 3.02866 -2.89404L12.9959 3.7883C14.3148 1.82114 14.027 -0.809856 12.3137 -2.44539L4.02771 6.23463ZM3.17134 -3.09761C5.48538 -6.25783 9.9232 -6.94406 13.0837 -4.62998L5.99455 5.05217C8.1814 6.65335 11.2521 6.17852 12.8532 3.99187L3.17134 -3.09761ZM13.0845 -4.62942C13.3397 -4.44247 13.5822 -4.23865 13.8102 -4.01931L5.49172 4.62954C5.64948 4.78127 5.81721 4.92228 5.99378 5.0516L13.0845 -4.62942ZM13.8936 -3.93753L19.3558 1.5247L10.8706 10.01L5.40832 4.54775L13.8936 -3.93753ZM19.3535 1.52233C22.1249 4.29064 22.1272 8.78132 19.3591 11.5526L10.869 3.07204C8.95368 4.98953 8.95526 8.09684 10.8729 10.0124L19.3535 1.52233ZM19.3574 11.5542L19.3566 11.5551L10.8698 3.07124L10.8707 3.07039L19.3574 11.5542ZM19.3558 11.5558L13.8936 17.018L5.40832 8.53274L10.8706 3.07051L19.3558 11.5558ZM13.8877 17.024C11.114 19.7898 6.62348 19.7835 3.8576 17.0101L12.3544 8.53636C10.4406 6.61738 7.33348 6.61296 5.41427 8.5268L13.8877 17.024ZM3.85684 17.0093C3.63967 16.7915 3.43689 16.5598 3.24979 16.3156L12.7748 9.01668C12.6455 8.8479 12.5053 8.68771 12.3552 8.53712L3.85684 17.0093ZM3.02866 16.0073C1.0973 13.1265 1.51876 9.27369 4.02771 6.87864L12.3137 15.5587C14.027 13.9231 14.3148 11.2921 12.9959 9.32497L3.02866 16.0073ZM3.92039 6.98369L6.93554 3.95761L15.4362 12.4275L12.421 15.4536L3.92039 6.98369ZM6.94082 3.95232C7.54123 3.35123 8.23156 2.8473 8.987 2.45861L14.4771 13.129C14.8293 12.9479 15.151 12.713 15.4309 12.4328L6.94082 3.95232ZM9.26988 2.3223L9.59762 2.17482L14.522 13.1179L14.1943 13.2654L9.26988 2.3223ZM12.0598 13.6463H1.33199V1.64635H12.0598V13.6463ZM1.55463 13.6422C-1.96497 13.7729 -5.05271 11.3144 -5.71387 7.85506L6.07279 5.60233C5.6213 3.2401 3.5128 1.56123 1.10935 1.65048L1.55463 13.6422ZM-5.74317 7.68915C-6.37019 3.82263 -3.74413 0.180079 0.122127 -0.447121L2.0437 11.398C4.71885 10.9641 6.53595 8.44365 6.10209 5.76824L-5.74317 7.68915Z" fill="#231F20" mask="url(#path-1-inside-1_11_827)"/>
</svg>
