<svg width="18" height="16" viewBox="0 0 18 16" fill="none" xmlns="http://www.w3.org/2000/svg">
<mask id="path-1-inside-1_11_878" fill="white">
<path d="M1.05702 6.53149C1.12902 6.51981 1.20191 6.51441 1.27484 6.51536H13.6916L13.4209 6.38943C13.1562 6.26416 12.9155 6.0937 12.7094 5.88571L9.22739 2.40373C8.76881 1.96596 8.69175 1.26174 9.04479 0.735151C9.45568 0.174013 10.2436 0.0521754 10.8048 0.463063C10.8502 0.496273 10.8932 0.53248 10.9337 0.571442L17.2303 6.86796C17.7223 7.35949 17.7228 8.15682 17.2313 8.6489L17.2303 8.64988L10.9337 14.9464C10.4413 15.4375 9.64394 15.4364 9.15281 14.9439C9.11417 14.9052 9.07808 14.8639 9.04479 14.8205C8.69175 14.2939 8.76881 13.5897 9.22739 13.1519L12.7031 9.66362C12.8878 9.47865 13.1003 9.32358 13.3327 9.20397L13.7105 9.03397H1.34414C0.700836 9.05785 0.136431 8.60848 0.0155773 7.97615C-0.0957527 7.28963 0.370506 6.64286 1.05702 6.53149Z"/>
</mask>
<path d="M1.05702 6.53149C1.12902 6.51981 1.20191 6.51441 1.27484 6.51536H13.6916L13.4209 6.38943C13.1562 6.26416 12.9155 6.0937 12.7094 5.88571L9.22739 2.40373C8.76881 1.96596 8.69175 1.26174 9.04479 0.735151C9.45568 0.174013 10.2436 0.0521754 10.8048 0.463063C10.8502 0.496273 10.8932 0.53248 10.9337 0.571442L17.2303 6.86796C17.7223 7.35949 17.7228 8.15682 17.2313 8.6489L17.2303 8.64988L10.9337 14.9464C10.4413 15.4375 9.64394 15.4364 9.15281 14.9439C9.11417 14.9052 9.07808 14.8639 9.04479 14.8205C8.69175 14.2939 8.76881 13.5897 9.22739 13.1519L12.7031 9.66362C12.8878 9.47865 13.1003 9.32358 13.3327 9.20397L13.7105 9.03397H1.34414C0.700836 9.05785 0.136431 8.60848 0.0155773 7.97615C-0.0957527 7.28963 0.370506 6.64286 1.05702 6.53149Z" fill="white"/>
<path d="M1.05702 6.53149L2.01802 12.454L2.01781 12.4541L1.05702 6.53149ZM1.27484 6.51536V12.5154H1.2359L1.19696 12.5149L1.27484 6.51536ZM13.6916 6.51536L16.222 1.07503L13.6916 12.5154V6.51536ZM13.4209 6.38943L10.8905 11.8298L10.8721 11.8212L10.8538 11.8125L13.4209 6.38943ZM12.7094 5.88571L16.952 1.64307L16.9618 1.65282L16.9715 1.66262L12.7094 5.88571ZM9.22739 2.40373L13.3704 -1.93628L13.4208 -1.88817L13.47 -1.83891L9.22739 2.40373ZM9.04479 0.735151L4.06116 -2.60602L4.13039 -2.70928L4.20384 -2.80959L9.04479 0.735151ZM10.8048 0.463063L14.3494 -4.37801L14.3502 -4.37745L10.8048 0.463063ZM10.9337 0.571442L15.093 -3.75298L15.1351 -3.7125L15.1764 -3.6712L10.9337 0.571442ZM17.2303 6.86796L12.99 11.113L12.9876 11.1106L17.2303 6.86796ZM17.2313 8.6489L21.4763 12.8892L21.4746 12.8908L17.2313 8.6489ZM17.2303 8.64988L21.4736 12.8918L21.4729 12.8925L17.2303 8.64988ZM10.9337 14.9464L15.1764 19.189L15.1704 19.195L10.9337 14.9464ZM9.15281 14.9439L4.90441 19.1808L4.90365 19.18L9.15281 14.9439ZM9.04479 14.8205L4.28229 18.4699L4.16685 18.3193L4.06116 18.1616L9.04479 14.8205ZM9.22739 13.1519L13.4777 17.3869L13.4247 17.44L13.3704 17.4919L9.22739 13.1519ZM12.7031 9.66362L8.45276 5.42865L8.45805 5.42336L12.7031 9.66362ZM13.3327 9.20397L10.5876 3.86875L10.7273 3.7969L10.8705 3.73244L13.3327 9.20397ZM13.7105 9.03397V3.03397L16.1727 14.5055L13.7105 9.03397ZM1.34414 9.03397L1.1215 3.0381L1.23279 3.03397H1.34414V9.03397ZM0.0155773 7.97615L-5.87775 9.10251L-5.89356 9.01976L-5.90705 8.9366L0.0155773 7.97615ZM0.0960255 0.608953C0.511427 0.541549 0.931913 0.510401 1.35273 0.515864L1.19696 12.5149C1.4719 12.5184 1.74662 12.4981 2.01802 12.454L0.0960255 0.608953ZM1.27484 0.515358H13.6916V12.5154H1.27484V0.515358ZM11.1612 11.9557L10.8905 11.8298L15.9513 0.9491L16.222 1.07503L11.1612 11.9557ZM10.8538 11.8125C9.95869 11.3888 9.14431 10.8123 8.44726 10.1088L16.9715 1.66262C16.6866 1.37511 16.3538 1.13948 15.9879 0.966309L10.8538 11.8125ZM8.46673 10.1283L4.98475 6.64637L13.47 -1.83891L16.952 1.64307L8.46673 10.1283ZM5.0844 6.74374C2.51469 4.29068 2.08302 0.344543 4.06116 -2.60602L14.0284 4.07632C15.3005 2.17893 15.0229 -0.358753 13.3704 -1.93628L5.0844 6.74374ZM4.20384 -2.80959C6.57232 -6.04416 11.1145 -6.74653 14.3494 -4.37801L7.26025 5.30414C9.37275 6.85088 12.339 6.39219 13.8857 4.27989L4.20384 -2.80959ZM14.3502 -4.37745C14.6114 -4.1861 14.8596 -3.97748 15.093 -3.75298L6.7745 4.89587C6.92689 5.04244 7.08892 5.17865 7.25948 5.30357L14.3502 -4.37745ZM15.1764 -3.6712L21.4729 2.62532L12.9876 11.1106L6.69111 4.81408L15.1764 -3.6712ZM21.4705 2.62295C24.3071 5.45639 24.3095 10.0527 21.4763 12.8892L12.9862 4.40863C11.136 6.26093 11.1375 9.26258 12.99 11.113L21.4705 2.62295ZM21.4746 12.8908L21.4736 12.8918L12.9869 4.40797L12.9879 4.40698L21.4746 12.8908ZM21.4729 12.8925L15.1764 19.189L6.69111 10.7038L12.9876 4.40724L21.4729 12.8925ZM15.1704 19.195C12.3316 22.0259 7.73536 22.0195 4.90441 19.1808L13.4012 10.7071C11.5525 8.85332 8.55101 8.84905 6.69705 10.6978L15.1704 19.195ZM4.90365 19.18C4.68136 18.9571 4.4738 18.7199 4.28229 18.4699L13.8073 11.171C13.6824 11.008 13.547 10.8533 13.402 10.7078L4.90365 19.18ZM4.06116 18.1616C2.08302 15.2111 2.51469 11.2649 5.0844 8.81189L13.3704 17.4919C15.0229 15.9144 15.3005 13.3767 14.0284 11.4793L4.06116 18.1616ZM4.97708 8.91693L8.45276 5.42866L16.9534 13.8986L13.4777 17.3869L4.97708 8.91693ZM8.45805 5.42336C9.08293 4.79777 9.8014 4.27329 10.5876 3.86875L16.0778 14.5392C16.3991 14.3739 16.6927 14.1595 16.9481 13.9039L8.45805 5.42336ZM10.8705 3.73244L11.2483 3.56244L16.1727 14.5055L15.7949 14.6755L10.8705 3.73244ZM13.7105 15.034H1.34414V3.03397H13.7105V15.034ZM1.56678 15.0298C-2.03805 15.1637 -5.20057 12.6456 -5.87775 9.10251L5.90891 6.84979C5.47344 4.57134 3.43972 2.95202 1.1215 3.0381L1.56678 15.0298ZM-5.90705 8.9366C-6.54882 4.97912 -3.86098 1.25087 0.0962391 0.608918L2.01781 12.4541C4.60199 12.0349 6.35732 9.60014 5.93821 7.0157L-5.90705 8.9366Z" fill="white" mask="url(#path-1-inside-1_11_878)"/>
</svg>
