<svg width="76" height="57" viewBox="0 0 76 57" fill="none" xmlns="http://www.w3.org/2000/svg">
<path opacity="0.2" d="M18.1776 56.9961C13.3579 56.9961 8.73559 55.0873 5.32754 51.6897C1.91949 48.2922 0.00486755 43.684 0.00486755 38.8791C0.00486755 31.4874 3.8641 24.3394 9.62321 22.9592C11.8469 22.4256 13.6146 19.5829 13.2346 16.3383C12.7258 11.9968 8.78726 7.60917 0.986198 4.15047C-0.751778 3.37968 -0.0248718 0.774124 1.86179 1.01129C22.1921 3.54767 36.2843 16.7599 36.3504 35.4533C36.3504 48.3098 28.731 56.9961 18.1776 56.9961ZM57.8273 56.9961C53.0075 56.9961 48.3852 55.0873 44.9772 51.6897C41.5691 48.2922 39.6545 43.684 39.6545 38.8791C39.6545 31.4874 43.5137 24.3394 49.2728 22.9592C51.4965 22.4256 53.2642 19.5829 52.8843 16.3383C52.3754 11.9968 48.4369 7.60917 40.6358 4.15047C38.8979 3.37968 39.6248 0.774124 41.5114 1.01129C61.8418 3.54767 75.9339 16.7599 76 35.4533C76 48.3098 68.3807 56.9961 57.8273 56.9961Z" fill="#C9C9C9"/>
</svg>
