<svg width="604" height="306" viewBox="0 0 604 306" fill="none" xmlns="http://www.w3.org/2000/svg">
<rect width="604" height="306" fill="#F3F4F6"/>
<path d="M347 188.688C347 194.359 342.351 199 336.668 199H233.332C227.649 199 223 194.36 223 188.688V110.311C223 104.64 227.649 100 233.332 100H336.668C342.351 100 347 104.64 347 110.311V188.688ZM233.332 108.25C232.235 108.25 231.267 109.219 231.267 110.31V188.687C231.267 189.782 232.236 190.748 233.332 190.748H336.668C337.762 190.748 338.735 189.782 338.735 188.687V110.31C338.735 109.219 337.762 108.25 336.668 108.25H233.332ZM251.935 141.249C245.089 141.249 239.531 135.706 239.531 128.876C239.531 122.046 245.089 116.5 251.935 116.5C258.778 116.5 264.33 122.046 264.33 128.876C264.33 135.706 258.779 141.249 251.935 141.249ZM330.465 182.501H239.531V170.123L260.199 149.502L270.532 159.811L303.598 126.815L330.465 153.628V182.501Z" fill="#BABEC9"/>
</svg>
