<svg width="610" height="300" viewBox="0 0 610 300" fill="none" xmlns="http://www.w3.org/2000/svg">
<rect width="609.98" height="300" fill="#F3F4F6"/>
<path d="M367 188.688C367 194.359 362.351 199 356.668 199H253.332C247.649 199 243 194.36 243 188.688V110.311C243 104.64 247.649 100 253.332 100H356.668C362.351 100 367 104.64 367 110.311V188.688ZM253.332 108.25C252.235 108.25 251.267 109.219 251.267 110.31V188.687C251.267 189.782 252.236 190.748 253.332 190.748H356.668C357.762 190.748 358.735 189.782 358.735 188.687V110.31C358.735 109.219 357.762 108.25 356.668 108.25H253.332ZM271.935 141.249C265.089 141.249 259.531 135.706 259.531 128.876C259.531 122.046 265.089 116.5 271.935 116.5C278.778 116.5 284.33 122.046 284.33 128.876C284.33 135.706 278.779 141.249 271.935 141.249ZM350.465 182.501H259.531V170.123L280.199 149.502L290.532 159.811L323.598 126.815L350.465 153.628V182.501Z" fill="#BABEC9"/>
</svg>
