<svg width="1631" height="1505" viewBox="0 0 1631 1505" fill="none" xmlns="http://www.w3.org/2000/svg">
<rect width="1630.59" height="1504.16" fill="#F3F4F6"/>
<path d="M1130.59 951.645C1130.59 980.528 1106.95 1004.16 1078.05 1004.16H552.544C523.643 1004.16 500 980.532 500 951.645V552.511C500 523.628 523.643 500 552.544 500H1078.05C1106.95 500 1130.59 523.628 1130.59 552.511V951.645ZM552.544 542.011C546.963 542.011 542.043 546.947 542.043 552.506V951.64C542.043 957.218 546.968 962.135 552.544 962.135H1078.05C1083.61 962.135 1088.56 957.218 1088.56 951.64V552.506C1088.56 546.947 1083.61 542.011 1078.05 542.011H552.544ZM647.145 710.062C612.33 710.062 584.067 681.835 584.067 647.052C584.067 612.268 612.33 584.027 647.145 584.027C681.947 584.027 710.182 612.268 710.182 647.052C710.182 681.835 681.951 710.062 647.145 710.062ZM1046.51 920.137H584.067V857.104L689.174 752.092L741.719 804.589L909.876 636.557L1046.51 773.1V920.137Z" fill="#BABEC9"/>
</svg>
