<svg width="45" height="42" viewBox="0 0 45 42" fill="none" xmlns="http://www.w3.org/2000/svg">
<path d="M39.2463 27.5057H37.8726V23.7088H38.5594V22.4432H30.3168V23.7088H31.0037V27.5057H26.8823V23.076H25.5085V27.5057H21.3872V23.076H20.0134V27.5057H13.1445V24.9744C13.1445 24.8066 13.0721 24.6456 12.9433 24.527C12.8145 24.4083 12.6398 24.3416 12.4576 24.3416H3.52808V23.7088C3.52808 23.541 3.60045 23.38 3.72926 23.2614C3.85808 23.1427 4.03279 23.076 4.21497 23.076H7.64941C8.1959 23.076 8.72007 22.876 9.10651 22.52C9.49296 22.164 9.71008 21.6811 9.71008 21.1776C9.71008 20.6741 9.49296 20.1912 9.10651 19.8352C8.72007 19.4792 8.1959 19.2792 7.64941 19.2792H5.58874C5.40657 19.2792 5.23186 19.2125 5.10304 19.0938C4.97423 18.9752 4.90186 18.8142 4.90186 18.6464V18.0136H5.58874C6.13527 18.0136 6.65941 17.8135 7.04586 17.4575C7.43231 17.1015 7.64941 16.6186 7.64941 16.1151V14.8274L9.87768 16.3214C10.0789 16.8879 10.4968 17.3675 11.0534 17.6712C11.6101 17.9748 12.2676 18.0817 12.9034 17.9718L17.2659 19.6962V20.5448C17.2659 20.7126 17.3383 20.8736 17.4671 20.9923C17.5958 21.1109 17.7706 21.1776 17.9528 21.1776H19.3265C19.5087 21.1775 19.6834 21.1109 19.8122 20.9922L21.1859 19.7266L20.2147 18.8318L19.0422 19.912H18.6396V16.1151H19.0422L20.2147 17.1953L21.1859 16.3006L19.8122 15.0349C19.6834 14.9162 19.5087 14.8496 19.3265 14.8495H17.9528C17.7706 14.8495 17.5958 14.9162 17.4671 15.0349C17.3383 15.1535 17.2659 15.3145 17.2659 15.4823V16.3012L15.177 15.2254C15.1094 14.6036 14.794 14.0269 14.2917 13.6068C13.7895 13.1868 13.136 12.9531 12.4576 12.9511C12.2493 12.9524 12.0419 12.976 11.8394 13.0213L7.64941 9.50737V7.25584C7.64941 6.75235 7.43231 6.26948 7.04586 5.91346C6.65941 5.55743 6.13527 5.35742 5.58874 5.35742H2.84119C2.65901 5.35742 2.4843 5.42409 2.35548 5.54276C2.22667 5.66144 2.1543 5.8224 2.1543 5.99023V17.3808C2.1543 17.5486 2.22667 17.7096 2.35548 17.8282C2.4843 17.9469 2.65901 18.0136 2.84119 18.0136H3.52808V18.6464C3.52808 19.1498 3.74518 19.6327 4.13163 19.9887C4.51808 20.3448 5.04222 20.5448 5.58874 20.5448H7.64941C7.83158 20.5448 8.00632 20.6115 8.13511 20.7301C8.26391 20.8488 8.3363 21.0098 8.3363 21.1776C8.3363 21.3454 8.26391 21.5064 8.13511 21.6251C8.00632 21.7437 7.83158 21.8104 7.64941 21.8104H4.21497C3.66844 21.8104 3.1443 22.0104 2.75785 22.3665C2.3714 22.7225 2.1543 23.2054 2.1543 23.7088V39.529C2.1543 39.6968 2.22667 39.8578 2.35548 39.9765C2.4843 40.0951 2.65901 40.1618 2.84119 40.1618H12.4576C12.6398 40.1618 12.8145 40.0951 12.9433 39.9765C13.0721 39.8578 13.1445 39.6968 13.1445 39.529V35.0994H36.4988V36.9978H35.8119C35.6988 36.9978 35.5875 37.0235 35.4878 37.0726C35.3881 37.1217 35.3031 37.1927 35.2404 37.2794L33.8666 39.1778C33.7976 39.2731 33.7579 39.3839 33.7519 39.4983C33.7459 39.6127 33.7737 39.7265 33.8323 39.8276C33.891 39.9286 33.9784 40.013 34.085 40.0719C34.1917 40.1307 34.3138 40.1618 34.4381 40.1618H39.9332C40.0576 40.1618 40.1796 40.1307 40.2863 40.0719C40.393 40.013 40.4803 39.9286 40.539 39.8276C40.5977 39.7265 40.6255 39.6127 40.6194 39.4983C40.6134 39.3839 40.5737 39.2731 40.5047 39.1778L39.1309 37.2794C39.0682 37.1927 38.9832 37.1217 38.8835 37.0726C38.7838 37.0235 38.6725 36.9978 38.5594 36.9978H37.8726V35.0994H39.2463C40.3394 35.0994 41.3876 34.6994 42.1605 33.9873C42.9335 33.2752 43.3677 32.3095 43.3677 31.3025C43.3677 30.2955 42.9335 29.3298 42.1605 28.6178C41.3876 27.9057 40.3394 27.5057 39.2463 27.5057ZM5.58874 16.748H3.52808V13.8649C3.94274 14.0951 4.41771 14.2167 4.90186 14.2167C5.386 14.2167 5.86097 14.0951 6.27563 13.8649V16.1151C6.27563 16.283 6.20326 16.4439 6.07445 16.5626C5.94563 16.6813 5.77092 16.748 5.58874 16.748ZM3.52808 11.6855C3.52808 11.4352 3.60865 11.1905 3.7596 10.9824C3.91055 10.7743 4.12511 10.612 4.37613 10.5162C4.62716 10.4204 4.90338 10.3954 5.16987 10.4442C5.43635 10.493 5.68114 10.6136 5.87326 10.7906C6.06539 10.9676 6.19623 11.1931 6.24924 11.4386C6.30224 11.6841 6.27504 11.9386 6.17106 12.1698C6.06708 12.4011 5.891 12.5988 5.66509 12.7378C5.43917 12.8769 5.17356 12.9511 4.90186 12.9511C4.53751 12.9511 4.18808 12.8178 3.93045 12.5804C3.67281 12.343 3.52808 12.0211 3.52808 11.6855ZM17.2659 18.3192L14.4558 17.2086C14.6527 17.0142 14.8149 16.7922 14.9366 16.5511L17.2659 17.7516V18.3192ZM13.8314 15.4823C13.8314 15.7327 13.7508 15.9773 13.5999 16.1854C13.449 16.3936 13.2344 16.5558 12.9834 16.6516C12.7323 16.7474 12.4561 16.7724 12.1896 16.7236C11.9232 16.6748 11.6784 16.5542 11.4862 16.3773C11.2941 16.2003 11.1633 15.9747 11.1102 15.7293C11.0573 15.4837 11.0845 15.2293 11.1884 14.998C11.2924 14.7668 11.4685 14.5691 11.6944 14.43C11.9204 14.2909 12.1859 14.2167 12.4576 14.2167C12.822 14.2167 13.1714 14.3501 13.429 14.5874C13.6867 14.8248 13.8314 15.1467 13.8314 15.4823ZM10.5605 13.6599C10.2272 13.9568 9.98134 14.327 9.84609 14.7356L7.64941 13.2618V11.2191L10.5605 13.6599ZM5.58874 6.62304C5.77092 6.62304 5.94563 6.68971 6.07445 6.80838C6.20326 6.92706 6.27563 7.08801 6.27563 7.25584V9.50611C5.86097 9.27589 5.386 9.15426 4.90186 9.15426C4.41771 9.15426 3.94274 9.27589 3.52808 9.50611V6.62304H5.58874ZM11.7708 38.8962H3.52808V25.6073H11.7708V38.8962ZM38.6494 38.8962H35.7219L36.1794 38.2634H38.192L38.6494 38.8962ZM32.3774 23.7088H36.4988V27.5057H32.3774V23.7088ZM39.2463 33.8337H13.1445V28.7713H39.2463C39.9751 28.7713 40.6739 29.038 41.1891 29.5127C41.7044 29.9874 41.9939 30.6312 41.9939 31.3025C41.9939 31.9739 41.7044 32.6177 41.1891 33.0923C40.6739 33.5671 39.9751 33.8337 39.2463 33.8337Z" fill="#231F20"/>
<path d="M20.7002 31.3027C20.7002 30.8021 20.5391 30.3127 20.2372 29.8964C19.9353 29.4802 19.5061 29.1557 19.0041 28.9642C18.502 28.7726 17.9496 28.7224 17.4166 28.8201C16.8836 28.9178 16.3941 29.1589 16.0098 29.5129C15.6256 29.8669 15.3639 30.3179 15.2579 30.8089C15.1518 31.2999 15.2062 31.8088 15.4142 32.2714C15.6222 32.7339 15.9743 33.1292 16.4262 33.4074C16.878 33.6855 17.4092 33.8339 17.9526 33.8339C18.6814 33.8339 19.3802 33.5673 19.8954 33.0925C20.4107 32.6179 20.7002 31.9741 20.7002 31.3027ZM17.9526 32.5683C17.6809 32.5683 17.4154 32.4941 17.1894 32.355C16.9635 32.216 16.7874 32.0183 16.6834 31.7871C16.5795 31.5558 16.5523 31.3013 16.6052 31.0558C16.6583 30.8103 16.7891 30.5848 16.9812 30.4078C17.1734 30.2308 17.4182 30.1103 17.6846 30.0614C17.9511 30.0126 18.2273 30.0377 18.4784 30.1334C18.7294 30.2292 18.944 30.3915 19.0949 30.5996C19.2458 30.8077 19.3264 31.0524 19.3264 31.3027C19.3264 31.6384 19.1817 31.9603 18.924 32.1976C18.6664 32.435 18.317 32.5683 17.9526 32.5683Z" fill="#231F20"/>
<path d="M39.9346 31.3027C39.9346 30.8021 39.7734 30.3127 39.4715 29.8964C39.1697 29.4802 38.7405 29.1557 38.2384 28.9642C37.7364 28.7726 37.184 28.7224 36.651 28.8201C36.118 28.9178 35.6285 29.1589 35.2442 29.5129C34.86 29.8669 34.5983 30.3179 34.4923 30.8089C34.3862 31.2999 34.4406 31.8088 34.6486 32.2714C34.8565 32.7339 35.2087 33.1292 35.6605 33.4074C36.1124 33.6855 36.6436 33.8339 37.187 33.8339C37.9157 33.8339 38.6146 33.5673 39.1298 33.0925C39.6451 32.6179 39.9346 31.9741 39.9346 31.3027ZM37.187 32.5683C36.9153 32.5683 36.6497 32.4941 36.4238 32.355C36.1979 32.216 36.0218 32.0183 35.9178 31.7871C35.8139 31.5558 35.7867 31.3013 35.8396 31.0558C35.8926 30.8103 36.0235 30.5848 36.2156 30.4078C36.4077 30.2308 36.6525 30.1103 36.919 30.0614C37.1855 30.0126 37.4617 30.0377 37.7128 30.1334C37.9637 30.2292 38.1783 30.3915 38.3292 30.5996C38.4802 30.8077 38.5608 31.0524 38.5608 31.3027C38.5608 31.6384 38.4161 31.9603 38.1584 32.1976C37.9008 32.435 37.5513 32.5683 37.187 32.5683Z" fill="#231F20"/>
<path d="M30.3174 31.3027C30.3174 30.8021 30.1562 30.3127 29.8544 29.8964C29.5525 29.4802 29.1233 29.1557 28.6212 28.9642C28.1192 28.7726 27.5668 28.7224 27.0338 28.8201C26.5008 28.9178 26.0113 29.1589 25.627 29.5129C25.2428 29.8669 24.9811 30.3179 24.8751 30.8089C24.769 31.2999 24.8234 31.8088 25.0314 32.2714C25.2393 32.7339 25.5915 33.1292 26.0434 33.4074C26.4952 33.6855 27.0264 33.8339 27.5698 33.8339C28.2985 33.8339 28.9974 33.5673 29.5126 33.0925C30.0279 32.6179 30.3174 31.9741 30.3174 31.3027ZM27.5698 32.5683C27.2981 32.5683 27.0325 32.4941 26.8066 32.355C26.5807 32.216 26.4046 32.0183 26.3006 31.7871C26.1967 31.5558 26.1695 31.3013 26.2224 31.0558C26.2755 30.8103 26.4063 30.5848 26.5984 30.4078C26.7905 30.2308 27.0354 30.1103 27.3018 30.0614C27.5683 30.0126 27.8445 30.0377 28.0956 30.1334C28.3466 30.2292 28.5611 30.3915 28.7121 30.5996C28.863 30.8077 28.9436 31.0524 28.9436 31.3027C28.9436 31.6384 28.7989 31.9603 28.5412 32.1976C28.2836 32.435 27.9342 32.5683 27.5698 32.5683Z" fill="#231F20"/>
<path d="M18.6394 30.6699H17.2656V31.9355H18.6394V30.6699Z" fill="#D7282F"/>
<path d="M28.2566 30.6699H26.8828V31.9355H28.2566V30.6699Z" fill="#D7282F"/>
<path d="M37.8738 30.6699H36.5V31.9355H37.8738V30.6699Z" fill="#D7282F"/>
<path d="M27.5708 17.3809H19.3281V18.6465H27.5708V17.3809Z" fill="#231F20"/>
<path d="M4.90173 31.9355H10.3969C10.579 31.9355 10.7538 31.8688 10.8825 31.7502C11.0113 31.6315 11.0837 31.4705 11.0837 31.3027V27.5059C11.0837 27.338 11.0113 27.177 10.8825 27.0584C10.7538 26.9397 10.579 26.873 10.3969 26.873H4.90173C4.71956 26.873 4.54485 26.9397 4.41603 27.0584C4.28721 27.177 4.21484 27.338 4.21484 27.5059V31.3027C4.21484 31.4705 4.28721 31.6315 4.41603 31.7502C4.54485 31.8688 4.71956 31.9355 4.90173 31.9355ZM5.58862 28.1387H9.70996V30.6699H5.58862V28.1387Z" fill="#231F20"/>
<path d="M17.0088 11.1784C17.623 10.4175 17.9547 9.49445 17.9547 8.54625C17.9547 7.59799 17.623 6.67499 17.0088 5.91406L15.9043 6.6671C16.3436 7.20989 16.581 7.86883 16.581 8.54593C16.581 9.22297 16.3436 9.88192 15.9043 10.4247L17.0088 11.1784Z" fill="#D7282F"/>
<path d="M17.9395 4.9529C18.8364 5.96745 19.3261 7.23591 19.3261 8.54439C19.3261 9.85291 18.8364 11.1214 17.9395 12.1359L19.0055 12.9351C20.1018 11.6948 20.7003 10.1442 20.7003 8.54471C20.7003 6.94521 20.1018 5.39462 19.0055 4.1543L17.9395 4.9529Z" fill="#D7282F"/>
<path d="M19.959 13.8553L21.0072 14.6735C22.5833 12.9619 23.4485 10.7903 23.4485 8.54575C23.4485 6.30121 22.5833 4.12959 21.0072 2.41797L19.959 3.23556C21.3249 4.71867 22.0746 6.60045 22.0746 8.54543C22.0746 10.4904 21.3249 12.3722 19.959 13.8553Z" fill="#D7282F"/>
<path d="M41.9944 2.82617C41.9944 2.65833 41.922 2.49738 41.7932 2.3787C41.6644 2.26003 41.4897 2.19336 41.3075 2.19336H28.9435C28.7613 2.19336 28.5866 2.26003 28.4578 2.3787C28.329 2.49738 28.2566 2.65833 28.2566 2.82617V9.78705H26.8828V11.0527H43.3682V9.78705H41.9944V2.82617ZM29.6304 3.45897H40.6206V9.78705H29.6304V3.45897Z" fill="#231F20"/>
<path d="M6.96362 33.2012H5.58984V34.4668H6.96362V33.2012Z" fill="#231F20"/>
<path d="M6.96362 35.7324H5.58984V36.998H6.96362V35.7324Z" fill="#D7282F"/>
<path d="M9.71167 33.2012H8.33789V34.4668H9.71167V33.2012Z" fill="#D7282F"/>
<path d="M9.71167 35.7324H8.33789V36.998H9.71167V35.7324Z" fill="#231F20"/>
<path d="M38.074 4.27734L35.6012 6.55545L33.2314 6.00934C33.1163 5.98279 32.9957 5.98416 32.8813 6.01333C32.7669 6.0425 32.6627 6.09846 32.5789 6.17577L31.2051 7.4414L32.1763 8.33619L33.2754 7.3237L35.6451 7.86981C35.7602 7.89632 35.8808 7.89493 35.9952 7.86582C36.1095 7.83665 36.2137 7.78065 36.2977 7.70338L39.0452 5.17213L38.074 4.27734Z" fill="#D7282F"/>
</svg>
