<svg width="707" height="190" viewBox="0 0 707 190" fill="none" xmlns="http://www.w3.org/2000/svg">
<rect width="706.5" height="190" fill="#F3F4F6"/>
<path d="M432 136.959C432 143.031 426.076 148 418.835 148H287.165C279.924 148 274 143.032 274 136.959V53.0404C274 46.9679 279.924 42 287.165 42H418.835C426.076 42 432 46.9679 432 53.0404V136.959ZM287.165 50.8329C285.767 50.8329 284.534 51.8706 284.534 53.0395V136.958C284.534 138.13 285.768 139.164 287.165 139.164H418.835C420.228 139.164 421.469 138.13 421.469 136.958V53.0395C421.469 51.8706 420.228 50.8329 418.835 50.8329H287.165ZM310.868 86.1656C302.145 86.1656 295.064 80.231 295.064 72.9177C295.064 65.6044 302.145 59.6668 310.868 59.6668C319.588 59.6668 326.663 65.6044 326.663 72.9177C326.663 80.231 319.589 86.1656 310.868 86.1656ZM410.932 130.334H295.064V117.081L321.399 95.0024L334.565 106.04L376.698 70.7111L410.932 99.4194V130.334Z" fill="#BABEC9"/>
</svg>
