<svg width="11" height="13" viewBox="0 0 11 13" fill="none" xmlns="http://www.w3.org/2000/svg">
<path d="M8.15096 12.6914C8.15033 12.6914 8.1497 12.6914 8.14915 12.6914H1.00456C0.888771 12.6914 0.794922 12.6011 0.794922 12.4897V0.475189C0.794922 0.363755 0.888771 0.273438 1.00456 0.273438H10.6749C10.7907 0.273438 10.8845 0.363755 10.8845 0.475189V9.99448C10.8846 10.0027 10.8841 10.011 10.8831 10.0191C10.8831 10.0192 10.8832 10.019 10.8831 10.0191C10.8831 10.0192 10.8831 10.0198 10.8831 10.0198C10.8831 10.02 10.8831 10.0196 10.8831 10.0198C10.8831 10.02 10.883 10.0206 10.883 10.0207C10.8819 10.029 10.8803 10.0371 10.8783 10.0451C10.8783 10.0452 10.8781 10.0459 10.8781 10.046C10.8694 10.0785 10.8523 10.1091 10.8274 10.1344C10.8273 10.1346 10.8276 10.1343 10.8274 10.1344C10.8273 10.1346 10.8267 10.1351 10.8266 10.1352C10.8265 10.1353 10.826 10.1359 10.8258 10.136C10.8257 10.1361 10.8254 10.1364 10.8253 10.1365L8.30141 12.6303C8.30114 12.6306 8.30079 12.6309 8.30051 12.6312C8.30037 12.6314 8.30072 12.631 8.30051 12.6312C8.30037 12.6314 8.29974 12.632 8.2996 12.6321C8.29953 12.6322 8.29974 12.632 8.2996 12.6321C8.29953 12.6322 8.29883 12.6328 8.29876 12.6329C8.29869 12.633 8.2982 12.6334 8.29806 12.6335C8.27067 12.6593 8.23699 12.677 8.20121 12.6854C8.20093 12.6855 8.20142 12.6853 8.20121 12.6854C8.20114 12.6854 8.2003 12.6856 8.20002 12.6856C8.19981 12.6856 8.20023 12.6856 8.20002 12.6856C8.19988 12.6857 8.19904 12.6858 8.1989 12.6859C8.19869 12.6859 8.19771 12.6861 8.19771 12.6861C8.19583 12.6865 8.19394 12.6869 8.19198 12.6872C8.19177 12.6872 8.19219 12.6872 8.19198 12.6872C8.19205 12.6874 8.191 12.6874 8.19072 12.6874C8.19059 12.6874 8.19093 12.6874 8.19072 12.6874C8.19031 12.6875 8.18975 12.6876 8.18954 12.6876C8.1894 12.6876 8.18975 12.6876 8.18954 12.6876C8.1894 12.6876 8.18863 12.6878 8.18835 12.6878C8.18814 12.6879 8.18856 12.6879 8.18835 12.6878C8.17591 12.6903 8.16319 12.6914 8.15096 12.6914ZM1.2142 12.2879H7.94139V9.99589C7.94139 9.88445 8.03524 9.79414 8.15103 9.79414H10.4652V0.67694H1.2142V12.2879ZM8.36067 10.1976V11.9934L10.178 10.1976H8.36067ZM8.68701 9.09601H2.23193C2.11614 9.09601 2.02229 9.00569 2.02229 8.89426C2.02229 8.78283 2.11614 8.69251 2.23193 8.69251H8.68708C8.80287 8.69251 8.89672 8.78283 8.89672 8.89426C8.89672 9.00569 8.8028 9.09601 8.68701 9.09601ZM9.41292 8.18531H2.23193C2.11614 8.18531 2.02229 8.09499 2.02229 7.98355C2.02229 7.87212 2.11614 7.7818 2.23193 7.7818H9.41292C9.52871 7.7818 9.62256 7.87212 9.62256 7.98355C9.62256 8.09499 9.52871 8.18531 9.41292 8.18531ZM3.64833 6.91723C3.63882 6.91723 3.62932 6.91663 3.61974 6.91535L2.01936 6.70344C1.96171 6.69578 1.90992 6.66545 1.87645 6.61958C1.84298 6.57372 1.83082 6.51662 1.84284 6.46181L2.34136 4.19319C1.98735 3.85445 1.78449 3.37375 1.82782 2.85854C1.90594 1.93015 2.75386 1.23579 3.71897 1.31118C4.68367 1.38636 5.40496 2.20278 5.32684 3.13117C5.2912 3.55472 5.09519 3.92957 4.80099 4.20482L5.28135 6.0103C5.29602 6.06537 5.28582 6.12388 5.25333 6.17136C5.22083 6.21884 5.16898 6.25092 5.11063 6.25966L3.86446 6.44675L3.85796 6.72006C3.85657 6.77755 3.8298 6.83176 3.78431 6.86901C3.74616 6.90035 3.69787 6.91723 3.64833 6.91723ZM2.29964 6.33316L3.44414 6.48475L3.48697 4.68176C3.46992 4.68089 3.45287 4.67981 3.43575 4.67847C3.17202 4.65789 2.92647 4.58196 2.71054 4.46347L2.29964 6.33316ZM3.87599 5.95972L3.89388 6.03397L4.8179 5.89523L4.43783 4.4665C4.27459 4.5552 4.0957 4.61936 3.90702 4.65419L3.87599 5.95972ZM3.57509 1.70903C3.25868 1.70903 2.95568 1.81589 2.71194 2.01529C2.44003 2.23775 2.27449 2.54879 2.2457 2.89109C2.18623 3.59769 2.73528 4.21915 3.46957 4.27638C4.20366 4.33388 4.84949 3.80522 4.90896 3.09862C4.96843 2.39202 4.41945 1.77056 3.68515 1.71333C3.64833 1.71044 3.61164 1.70903 3.57509 1.70903ZM9.41292 4.52413H6.45072C6.33493 4.52413 6.24108 4.43381 6.24108 4.32238C6.24108 4.21094 6.33493 4.12063 6.45072 4.12063H9.41292C9.52871 4.12063 9.62256 4.21094 9.62256 4.32238C9.62256 4.43381 9.52871 4.52413 9.41292 4.52413ZM8.98987 3.45028H6.45072C6.33493 3.45028 6.24108 3.35996 6.24108 3.24853C6.24108 3.13709 6.33493 3.04677 6.45072 3.04677H8.9898C9.10559 3.04677 9.19944 3.13709 9.19944 3.24853C9.19944 3.35996 9.10559 3.45028 8.98987 3.45028ZM9.41292 2.31119H6.45072C6.33493 2.31119 6.24108 2.22087 6.24108 2.10944C6.24108 1.99801 6.33493 1.90769 6.45072 1.90769H9.41292C9.52871 1.90769 9.62256 1.99801 9.62256 2.10944C9.62256 2.22087 9.52871 2.31119 9.41292 2.31119Z" fill="#D7282F"/>
</svg>
