<svg width="337" height="306" viewBox="0 0 337 306" fill="none" xmlns="http://www.w3.org/2000/svg">
<rect width="336.75" height="306" fill="#F3F4F6"/>
<path d="M236 193.375C236 199.219 230.901 204 224.668 204H111.332C105.099 204 100 199.22 100 193.375V112.624C100 106.78 105.099 102 111.332 102H224.668C230.901 102 236 106.78 236 112.624V193.375ZM111.332 110.5C110.129 110.5 109.067 111.498 109.067 112.623V193.374C109.067 194.503 110.13 195.498 111.332 195.498H224.668C225.867 195.498 226.936 194.503 226.936 193.374V112.623C226.936 111.498 225.867 110.5 224.668 110.5H111.332ZM131.735 144.499C124.226 144.499 118.131 138.788 118.131 131.751C118.131 124.714 124.226 119 131.735 119C139.241 119 145.33 124.714 145.33 131.751C145.33 138.788 139.242 144.499 131.735 144.499ZM217.865 187.001H118.131V174.248L140.799 153.002L152.132 163.623L188.398 129.628L217.865 157.253V187.001Z" fill="#BABEC9"/>
</svg>
