<svg width="749" height="400" viewBox="0 0 749 400" fill="none" xmlns="http://www.w3.org/2000/svg">
<rect width="748.5" height="400" fill="#F3F4F6"/>
<path d="M466 252.938C466 260.672 459.101 267 450.668 267H297.332C288.899 267 282 260.673 282 252.938V146.061C282 138.327 288.899 132 297.332 132H450.668C459.101 132 466 138.327 466 146.061V252.938ZM297.332 143.249C295.703 143.249 294.268 144.571 294.268 146.06V252.937C294.268 254.43 295.705 255.747 297.332 255.747H450.668C452.291 255.747 453.736 254.43 453.736 252.937V146.06C453.736 144.571 452.291 143.249 450.668 143.249H297.332ZM324.935 188.249C314.777 188.249 306.53 180.69 306.53 171.376C306.53 162.062 314.777 154.5 324.935 154.5C335.09 154.5 343.329 162.062 343.329 171.376C343.329 180.69 335.091 188.249 324.935 188.249ZM441.465 244.501H306.53V227.622L337.199 199.503L352.531 213.56L401.598 168.566L441.465 205.128V244.501Z" fill="#BABEC9"/>
</svg>
