<svg width="704" height="628" viewBox="0 0 704 628" fill="none" xmlns="http://www.w3.org/2000/svg">
<rect width="703.5" height="628" fill="#F3F4F6"/>
<path d="M485 387.459C485 397.656 474.989 406 462.752 406H240.248C228.011 406 218 397.658 218 387.459V246.54C218 236.342 228.011 228 240.248 228H462.752C474.989 228 485 236.342 485 246.54V387.459ZM240.248 242.833C237.885 242.833 235.801 244.575 235.801 246.538V387.457C235.801 389.426 237.887 391.162 240.248 391.162H462.752C465.107 391.162 467.204 389.426 467.204 387.457V246.538C467.204 244.575 465.107 242.833 462.752 242.833H240.248ZM280.303 302.165C265.562 302.165 253.595 292.199 253.595 279.918C253.595 267.637 265.562 257.667 280.303 257.667C295.038 257.667 306.993 267.637 306.993 279.918C306.993 292.199 295.04 302.165 280.303 302.165ZM449.397 376.335H253.595V354.08L298.099 317.004L320.346 335.539L391.546 276.213L449.397 324.421V376.335Z" fill="#BABEC9"/>
</svg>
