<svg width="345" height="275" viewBox="0 0 345 275" fill="none" xmlns="http://www.w3.org/2000/svg">
<rect width="344.25" height="274.23" fill="#F3F4F6"/>
<path d="M236 185.292C236 192.281 231.163 198 225.251 198H117.749C111.837 198 107 192.282 107 185.292V88.7069C107 81.7177 111.837 76 117.749 76H225.251C231.163 76 236 81.7177 236 88.7069V185.292ZM117.749 86.1662C116.607 86.1662 115.601 87.3605 115.601 88.7058V185.291C115.601 186.641 116.608 187.83 117.749 187.83H225.251C226.389 187.83 227.402 186.641 227.402 185.291V88.7058C227.402 87.3605 226.389 86.1662 225.251 86.1662H117.749ZM137.101 126.832C129.979 126.832 124.198 120.002 124.198 111.584C124.198 103.167 129.979 96.3335 137.101 96.3335C144.221 96.3335 149.997 103.167 149.997 111.584C149.997 120.002 144.222 126.832 137.101 126.832ZM218.799 177.668H124.198V162.414L145.699 137.003L156.448 149.706L190.848 109.045L218.799 142.086V177.668Z" fill="#BABEC9"/>
</svg>
