<svg width="31" height="31" viewBox="0 0 31 31" fill="none" xmlns="http://www.w3.org/2000/svg">
<path d="M14.0173 19.1169C13.7761 19.0985 13.5518 18.9862 13.3923 18.8044L9.64231 15.0544C9.55876 14.8795 9.5315 14.683 9.56429 14.4919C9.59707 14.3007 9.68829 14.1246 9.82537 13.9875C9.96246 13.8504 10.1387 13.7591 10.3297 13.7264C10.5208 13.6936 10.7174 13.7209 10.8923 13.8044L13.9798 16.8919L24.6423 6.30442C24.8172 6.22087 25.0138 6.19361 25.2048 6.22639C25.396 6.25918 25.5722 6.35039 25.7092 6.48748C25.8463 6.62457 25.9376 6.80078 25.9703 6.99186C26.0031 7.18294 25.9758 7.37948 25.8923 7.55442L14.6423 18.8044C14.4828 18.9862 14.2585 19.0985 14.0173 19.1169Z" fill="#4A4A4A"/>
<path d="M15.8918 26.3037C13.8811 26.3005 11.908 25.7585 10.1779 24.7341C8.44776 23.7096 7.02383 22.2402 6.05424 20.4787C5.31721 19.1662 4.8617 17.7146 4.71674 16.2162C4.48796 14.0189 4.91125 11.8027 5.93379 9.84434C6.95634 7.88595 8.53288 6.27198 10.4667 5.20376C11.7793 4.46674 13.2309 4.01123 14.7293 3.86626C16.2219 3.70569 17.7316 3.85029 19.1668 4.29126C19.2948 4.31685 19.4161 4.36891 19.5229 4.44413C19.6296 4.51933 19.7195 4.61601 19.7868 4.72799C19.854 4.83995 19.8971 4.96474 19.9134 5.09434C19.9295 5.22393 19.9185 5.35548 19.8809 5.48055C19.8433 5.60563 19.7799 5.72146 19.6949 5.82063C19.6099 5.9198 19.5051 6.00013 19.3874 6.05644C19.2695 6.11276 19.1411 6.14384 19.0106 6.14768C18.8801 6.15153 18.7501 6.12805 18.6293 6.07876C17.415 5.71366 16.1401 5.59466 14.8793 5.72876C13.633 5.85638 12.4254 6.23479 11.3292 6.84126C10.2732 7.42389 9.33941 8.20483 8.57924 9.14127C7.79656 10.0952 7.2121 11.1957 6.86009 12.3784C6.50809 13.5611 6.3956 14.8021 6.52924 16.0287C6.65685 17.275 7.03528 18.4826 7.64174 19.5787C8.22436 20.6349 9.0053 21.5686 9.94174 22.3287C10.8957 23.1115 11.9962 23.6959 13.1789 24.0479C14.3615 24.3999 15.6025 24.5124 16.8293 24.3787C18.0755 24.2511 19.283 23.8727 20.3793 23.2662C21.4354 22.6836 22.369 21.9027 23.1293 20.9662C23.9119 20.0124 24.4964 18.9117 24.8484 17.7291C25.2004 16.5465 25.3129 15.3055 25.1793 14.0787C25.1669 13.9499 25.1801 13.8199 25.218 13.6961C25.256 13.5724 25.3179 13.4572 25.4004 13.3575C25.4828 13.2576 25.584 13.175 25.6984 13.1144C25.8128 13.0536 25.9379 13.0161 26.0668 13.0037C26.1956 12.9915 26.3256 13.0046 26.4494 13.0426C26.5731 13.0805 26.6883 13.1425 26.788 13.2249C26.8879 13.3072 26.9705 13.4086 27.0311 13.5229C27.0919 13.6372 27.1294 13.7624 27.1418 13.8912C27.3694 16.09 26.9443 18.307 25.9194 20.2656C24.8945 22.2241 23.3154 23.8374 21.3793 24.9037C20.0528 25.671 18.5786 26.1481 17.0543 26.3037C16.6668 26.3037 16.2668 26.3037 15.8918 26.3037Z" fill="#4A4A4A"/>
</svg>
