<svg width="22" height="17" viewBox="0 0 22 17" fill="none" xmlns="http://www.w3.org/2000/svg">
<path d="M1.19965 10.823L0.0154812 3.12619C-0.0721148 2.55779 0.575447 2.16977 1.03549 2.51497L4.7249 5.2817C4.8208 5.35354 4.93033 5.40509 5.04682 5.43318C5.1633 5.46128 5.28429 5.46534 5.40239 5.44512C5.5205 5.4249 5.63324 5.38082 5.73374 5.31557C5.83424 5.25033 5.92039 5.16528 5.98693 5.06563L9.05863 0.458733C9.38306 -0.0279111 10.0981 -0.0279111 10.4225 0.458733L13.4942 5.06563C13.5608 5.16528 13.6469 5.25033 13.7474 5.31557C13.8479 5.38082 13.9607 5.4249 14.0788 5.44512C14.1969 5.46534 14.3179 5.46128 14.4343 5.43318C14.5508 5.40509 14.6604 5.35354 14.7563 5.2817L18.4457 2.51497C18.9064 2.16977 19.5533 2.55779 19.4657 3.12619L18.2815 10.823H1.19965ZM17.3906 15.0938H2.09053C1.97354 15.0938 1.85769 15.0707 1.74961 15.0259C1.64152 14.9812 1.54331 14.9155 1.46058 14.8328C1.29351 14.6657 1.19965 14.4391 1.19965 14.2029V12.2466H18.2815V14.2029C18.2815 14.6947 17.8825 15.0938 17.3906 15.0938Z" fill="#FFB743"/>
</svg>
