<svg width="135" height="157" viewBox="0 0 135 157" fill="none" xmlns="http://www.w3.org/2000/svg">
<path d="M61.6446 3.58687C63.7362 2.35265 64.782 1.73554 65.8889 1.49357C66.8698 1.27949 67.8802 1.27949 68.8611 1.49357C69.968 1.73554 71.0138 2.35265 73.1054 3.58687L127.68 35.7906C129.89 37.094 130.994 37.7458 131.799 38.6728C132.51 39.4928 133.049 40.4648 133.378 41.5237C133.75 42.7206 133.75 44.0627 133.75 46.7467V110.33C133.75 113.015 133.75 114.357 133.378 115.554C133.049 116.613 132.51 117.585 131.799 118.404C130.994 119.332 129.89 119.983 127.68 121.287L73.1054 153.49C71.0138 154.725 69.968 155.342 68.8611 155.584C67.8802 155.798 66.8698 155.798 65.8889 155.584C64.782 155.342 63.7362 154.725 61.6446 153.49L7.0694 121.287C4.86044 119.983 3.75596 119.332 2.95165 118.404C2.24018 117.585 1.70173 116.613 1.37229 115.554C0.999999 114.357 1 113.015 1 110.33V46.7467C1 44.0627 0.999999 42.7206 1.37229 41.5237C1.70173 40.4648 2.24018 39.4928 2.95165 38.6728C3.75596 37.7458 4.86044 37.094 7.0694 35.7906L61.6446 3.58687Z" fill="white" stroke="#CCCCCC" stroke-linecap="round" stroke-linejoin="round"/>
</svg>
