<svg width="164" height="190" viewBox="0 0 164 190" fill="none" xmlns="http://www.w3.org/2000/svg">
<path d="M150.111 117.067C153.505 117.067 156.704 117.063 159.902 117.067C163.047 117.07 163.998 117.994 163.998 121.079C164.002 142.519 164.002 163.956 163.998 185.396C163.998 188.44 163.016 189.381 159.863 189.381C107.917 189.381 55.9715 189.381 4.02573 189.381C0.827605 189.381 -0.158863 188.291 0.0201761 185.182C1.01366 167.979 1.98258 150.775 2.96203 133.571C4.21179 111.65 5.46857 89.7291 6.72184 67.8079C6.95705 63.7232 7.16768 59.6351 7.43448 55.5538C7.59597 53.067 8.6035 52.1193 11.0679 52.1159C18.0294 52.0986 24.9908 52.0951 31.9522 52.1159C34.378 52.1228 35.4523 53.1638 35.5892 55.5918C36.6704 74.5213 37.7376 93.4507 38.8154 112.38C38.8996 113.871 39.012 115.361 39.1208 116.952C41.7678 116.952 44.3164 116.952 47.0722 116.952C47.1003 116.347 47.153 115.738 47.153 115.126C47.16 109.997 47.1916 104.868 47.1354 99.7386C47.1179 98.2167 47.6655 97.1273 48.8486 96.1692C59.1977 87.7888 69.5223 79.3842 79.8398 70.9657C81.0018 70.018 82.1954 69.4231 83.6769 70.146C85.0741 70.8274 85.3795 72.0656 85.376 73.4837C85.3584 79.1317 85.3689 84.7797 85.3689 90.4278C85.3689 91.04 85.3689 91.6487 85.3689 92.6206C86.208 91.9946 86.7556 91.6072 87.2752 91.1887C95.6619 84.4512 104.042 77.7067 112.428 70.9692C114.247 69.5096 115.942 69.3851 117.052 70.8308C117.596 71.5364 117.859 72.6155 117.87 73.5321C117.943 79.1801 117.905 84.8282 117.905 90.4762C117.905 91.0434 117.905 91.6106 117.905 92.5825C118.653 92.0291 119.144 91.6937 119.6 91.3236C127.949 84.5411 136.3 77.762 144.634 70.9588C145.8 70.0077 146.993 69.4266 148.471 70.1564C149.872 70.8481 150.125 72.0829 150.125 73.5044C150.104 87.2804 150.111 101.053 150.111 114.829C150.111 115.507 150.111 116.181 150.111 117.067ZM157.869 123.102C118.365 123.102 78.9727 123.102 39.4332 123.102C40.5882 143.294 41.7327 163.337 42.8771 183.366C64.9024 183.366 86.6363 183.366 108.57 183.366C108.57 182.588 108.57 181.91 108.57 181.232C108.57 168.781 108.567 156.333 108.574 143.882C108.574 140.89 109.536 139.929 112.537 139.929C123.301 139.925 134.067 139.925 144.831 139.929C148.082 139.929 149.012 140.842 149.015 144.031C149.019 156.482 149.015 168.93 149.015 181.381C149.015 182.042 149.015 182.706 149.015 183.359C152.143 183.359 154.976 183.359 157.873 183.359C157.869 163.202 157.869 143.169 157.869 123.102ZM36.8705 183.37C34.4869 141.575 32.1102 99.8908 29.7371 58.255C29.379 58.1478 29.2175 58.0544 29.0525 58.0544C24.1974 58.0406 19.3423 58.0648 14.4872 58.0095C13.248 57.9956 13.2445 58.6943 13.1953 59.5555C12.1386 78.3708 11.0679 97.1861 10.0007 116.001C8.80009 137.175 7.60299 158.35 6.40238 179.524C6.33217 180.772 6.23738 182.017 6.14611 183.37C16.4496 183.37 26.5354 183.37 36.8705 183.37ZM114.682 145.929C114.682 158.377 114.682 170.728 114.682 183.093C124.164 183.093 133.53 183.093 142.893 183.093C142.893 170.621 142.893 158.315 142.893 145.929C133.446 145.929 124.119 145.929 114.682 145.929ZM79.2079 117.001C79.2079 104.408 79.2079 91.9531 79.2079 79.3461C78.8463 79.564 78.6357 79.6609 78.4602 79.7992C70.2946 86.433 62.122 93.0598 53.9986 99.742C53.5176 100.14 53.2017 100.994 53.1911 101.644C53.1209 105.905 53.156 110.17 53.156 114.435C53.156 115.272 53.156 116.109 53.156 117.001C61.9605 117.001 70.4877 117.001 79.2079 117.001ZM85.3689 116.946C94.3806 116.946 103.059 116.946 111.758 116.946C111.758 104.387 111.758 91.9496 111.758 79.27C111.101 79.7577 110.638 80.0794 110.199 80.4287C103.585 85.7378 97.1539 91.289 90.2943 96.266C86.4642 99.0434 84.6879 102.014 85.2882 106.715C85.7095 110.049 85.3689 113.473 85.3689 116.946ZM144.02 79.3358C143.616 79.5744 143.409 79.6678 143.241 79.8061C135.075 86.4434 126.902 93.0702 118.775 99.7524C118.287 100.154 117.954 101.008 117.943 101.658C117.873 106.324 117.901 110.993 117.912 115.659C117.912 116.098 118.014 116.534 118.07 116.963C126.783 116.963 135.356 116.963 144.02 116.963C144.02 104.432 144.02 92.0119 144.02 79.3358Z" fill="white"/>
<path d="M126.378 30.4874C130.149 31.4454 133.786 32.2686 137.349 33.3442C138.321 33.6382 139.388 34.5271 139.834 35.4229C140.54 36.841 139.599 38.01 138.472 39.0027C131.363 45.2629 124.279 51.5542 117.188 57.8352C111.75 62.6532 106.322 67.4815 100.853 72.2649C100.179 72.8529 99.3013 73.4512 98.4588 73.548C97.5355 73.6553 96.2085 73.4789 95.6714 72.884C95.0605 72.213 94.8008 70.8814 94.9798 69.9475C95.222 68.6851 95.9979 67.5126 96.6052 66.3332C99.849 60.0073 103.114 53.6952 106.358 47.3692C106.666 46.7674 106.888 46.1172 107.225 45.3113C103.833 44.4224 100.583 43.5405 97.3143 42.7277C95.8294 42.3576 94.4813 41.901 94.0706 40.2339C93.6739 38.6257 94.6639 37.6572 95.7381 36.6957C107.937 25.7559 120.126 14.7987 132.332 3.86582C133.105 3.17408 133.937 2.49618 134.849 2.01542C135.997 1.41015 137.25 1.38594 138.286 2.32324C139.353 3.28822 139.553 4.52989 139.002 5.8096C138.342 7.34526 137.612 8.86017 136.833 10.3405C133.789 16.12 130.703 21.8752 127.653 27.6512C127.196 28.5055 126.852 29.4221 126.378 30.4874ZM108.018 57.6208C108.106 57.6865 108.194 57.7522 108.278 57.8214C115.717 51.2084 123.156 44.5919 130.851 37.7506C127.698 36.9551 125.041 36.298 122.39 35.6062C119.729 34.9145 118.802 33.5068 119.806 31.0062C121.309 27.2673 123.096 23.6357 124.763 19.9591C125.013 19.4092 125.283 18.8662 125.543 18.3231C125.444 18.254 125.346 18.1813 125.248 18.1122C117.939 24.6802 110.626 31.2448 103.051 38.055C106.098 38.8574 108.79 39.5457 111.469 40.272C113.758 40.8946 114.649 42.3714 113.874 44.5884C113.073 46.8712 112.108 49.0986 111.111 51.3087C110.149 53.4427 109.054 55.5179 108.018 57.6208Z" fill="#D7282F"/>
<path d="M46.9288 11.0686C48.0522 11.2865 49.1756 11.3833 50.2182 11.7222C55.621 13.4654 58.8402 17.1835 59.6441 22.6759C60.4094 27.8985 58.4364 32.1389 54.1325 35.3347C53.5497 35.7671 52.8722 36.4553 52.7844 37.0987C51.3767 47.4021 39.4794 50.8193 32.3495 44.5936C32.2231 44.483 32.0581 44.4138 31.7843 44.2478C29.1092 46.5063 26.0164 47.8344 22.3795 47.6338C17.0645 47.3398 13.1642 44.7908 10.7946 40.17C8.44253 35.5872 8.72689 31.0252 11.7038 26.7572C12.3463 25.8372 12.4902 25.263 11.8548 24.215C8.16871 18.1381 12.5499 9.58823 19.8975 8.23934C20.6277 8.10445 21.4913 7.58911 21.902 6.99076C25.1001 2.30077 29.527 0.0629978 35.2141 0.733984C40.9819 1.41189 44.8295 4.59388 46.5778 10.1209C46.6796 10.446 46.8165 10.7642 46.9288 11.0686ZM53.8657 24.8341C53.8903 20.1545 49.9514 16.5955 45.7422 17.1766C42.3405 17.647 41.5015 16.9898 41.161 13.5934C40.7888 9.84072 38.6193 7.32971 35.1614 6.6518C31.2928 5.89089 27.712 7.94535 26.3008 11.7326C25.374 14.2229 24.5104 14.6621 21.9652 14.2921C21.1613 14.1745 20.1854 14.3128 19.4692 14.676C16.559 16.1459 15.0986 20.2929 18.581 22.9111C20.9577 24.6993 20.8418 26.4251 18.5389 28.2652C18.3107 28.445 18.0755 28.618 17.8543 28.8047C14.6562 31.4956 14.4386 36.2063 17.3699 39.2742C20.3749 42.4181 24.9843 42.5392 27.9718 39.5301C28.7055 38.79 29.3198 37.9357 30.0641 37.2024C31.7281 35.5665 33.8941 35.9573 34.9473 38.0394C36.341 40.796 39.1283 42.1518 42.186 41.5604C44.6154 41.09 46.8972 38.6793 46.7603 35.9469C46.6234 33.2042 47.9223 31.8657 50.1269 30.7347C52.6194 29.455 53.7779 27.2656 53.8657 24.8341Z" fill="#D7282F"/>
<path d="M100.465 151.348C100.465 153.942 100.479 156.536 100.461 159.13C100.444 161.886 99.4151 162.941 96.6769 162.952C91.411 162.972 86.1487 162.972 80.8829 162.952C78.1271 162.941 77.0915 161.89 77.0844 159.151C77.0739 154.021 77.0739 148.892 77.0844 143.763C77.0915 141.006 78.1271 139.955 80.8583 139.948C86.1241 139.934 91.3865 139.934 96.6523 139.948C99.3941 139.955 100.437 140.996 100.458 143.742C100.482 146.277 100.465 148.813 100.465 151.348ZM94.3037 156.94C94.3037 153.146 94.3037 149.556 94.3037 145.99C90.5158 145.99 86.8719 145.99 83.2209 145.99C83.2209 149.708 83.2209 153.292 83.2209 156.94C86.9667 156.94 90.565 156.94 94.3037 156.94Z" fill="#D7282F"/>
<path d="M48.2555 151.379C48.2555 148.73 48.2344 146.077 48.2625 143.428C48.2871 141.045 49.3894 139.962 51.8363 139.952C57.218 139.931 62.5997 139.935 67.9778 139.952C70.509 139.959 71.5727 141.021 71.5867 143.566C71.6113 148.81 71.6113 154.053 71.5867 159.296C71.5762 161.921 70.5265 162.942 67.8374 162.952C62.5751 162.973 57.3092 162.973 52.0469 162.952C49.2771 162.942 48.2696 161.911 48.2555 159.158C48.2485 156.564 48.2555 153.973 48.2555 151.379ZM54.3463 156.906C58.1097 156.906 61.7431 156.906 65.4643 156.906C65.4643 153.209 65.4643 149.626 65.4643 145.963C61.7115 145.963 58.0781 145.963 54.3463 145.963C54.3463 149.612 54.3463 153.15 54.3463 156.906Z" fill="#D7282F"/>
</svg>
