<svg width="40" height="27" viewBox="0 0 40 27" fill="none" xmlns="http://www.w3.org/2000/svg">
<path opacity="0.5" d="M31.2188 17.1818C29.4899 17.1818 27.7999 16.678 26.3624 15.734C24.9249 14.79 23.8045 13.4483 23.1429 11.8785C22.4813 10.3087 22.3082 8.58138 22.6455 6.91491C22.9828 5.24844 23.8153 3.71768 25.0378 2.51622C26.2603 1.31476 27.8178 0.496558 29.5134 0.165076C31.2091 -0.166406 32.9667 0.0037223 34.5639 0.653948C36.1612 1.30417 37.5264 2.40529 38.4869 3.81806C39.4474 5.23083 39.96 6.89179 39.96 8.59091L40 9.81818C40 12.0745 39.5478 14.3088 38.6692 16.3934C37.7906 18.478 36.5029 20.3721 34.8795 21.9676C33.2561 23.563 31.3288 24.8286 29.2078 25.6921C27.0867 26.5556 24.8133 27 22.5175 27V22.0909C24.1581 22.0952 25.7833 21.7799 27.2991 21.1631C28.8149 20.5463 30.1913 19.6403 31.3487 18.4975C31.7985 18.0562 32.2134 17.5819 32.5899 17.0787C32.1363 17.1488 31.6779 17.1841 31.2188 17.1843V17.1818ZM8.74126 17.1818C7.0124 17.1818 5.32237 16.678 3.88488 15.734C2.44739 14.79 1.327 13.4483 0.665393 11.8785C0.00378751 10.3087 -0.169319 8.58138 0.167965 6.91491C0.505248 5.24844 1.33777 3.71768 2.56026 2.51622C3.78275 1.31476 5.34029 0.496558 7.03593 0.165076C8.73156 -0.166406 10.4891 0.0037223 12.0864 0.653948C13.6837 1.30417 15.0488 2.40529 16.0094 3.81806C16.9699 5.23083 17.4825 6.89179 17.4825 8.59091L17.5225 9.81818C17.5225 14.3751 15.6806 18.7453 12.402 21.9676C9.12336 25.1898 4.67662 27 0.039964 27V22.0909C1.68057 22.0952 3.30577 21.7799 4.8216 21.1631C6.33742 20.5463 7.7138 19.6403 8.87113 18.4975C9.32094 18.0562 9.7359 17.5819 10.1124 17.0787C9.65882 17.1488 9.2004 17.1841 8.74126 17.1843V17.1818Z" fill="#E8E8E8"/>
</svg>
