<svg width="31" height="23" viewBox="0 0 31 23" fill="none" xmlns="http://www.w3.org/2000/svg">
<path fill-rule="evenodd" clip-rule="evenodd" d="M30.127 2.22758L30.157 2.29771C30.5005 3.10086 30.1266 4.03379 29.3234 4.37727L20.225 8.26936L20.628 9.21137C20.7242 9.4362 20.6199 9.69641 20.3951 9.79256L19.0087 10.3856L18.1581 10.7495C17.8407 10.8853 17.5104 10.9496 17.1852 10.9496C16.5616 10.9496 15.958 10.7122 15.4997 10.2908L11.2133 12.1244C10.7057 12.3415 10.1679 12.4504 9.62926 12.4504C9.15424 12.4504 8.67846 12.3657 8.22219 12.1958L3.68012 10.5046C3.6009 10.4751 3.53563 10.425 3.48699 10.3631L2.50168 10.7846C2.36305 10.8438 2.21867 10.8719 2.07664 10.8719C1.65541 10.8719 1.25392 10.6251 1.07809 10.214C0.842948 9.66424 1.09883 9.02563 1.64861 8.79037L2.34406 8.49284L0.32035 3.76215C0.252616 3.60371 0.28285 3.42043 0.397987 3.29223C0.513124 3.16402 0.692069 3.11416 0.856894 3.16467L2.92408 3.79707C3.63898 4.01574 4.2176 4.53535 4.51162 5.22272C4.65002 5.54604 5.02566 5.6968 5.34904 5.55828L7.25955 4.74102C7.3976 4.6819 7.55621 4.6969 7.6809 4.7808L10.247 6.50826L23.4654 0.853671H23.4655L24.3339 0.482187C25.4597 0.0005458 26.7884 0.324569 27.565 1.2701C27.6852 1.41635 27.879 1.46621 28.0473 1.39414C28.8505 1.05043 29.7835 1.42443 30.127 2.22758ZM26.8808 1.83213C26.3524 1.18877 25.4483 0.968456 24.6821 1.29623L24.2207 1.49369L24.7766 2.79324L26.9202 1.87625C26.9163 1.87191 26.9124 1.86763 26.9084 1.86334C26.8991 1.85313 26.8897 1.84294 26.8808 1.83213ZM2.66504 4.64381L1.50928 4.29037L3.15811 8.14479L6.76684 6.60108C7.31656 6.36582 7.9553 6.62182 8.19043 7.1716C8.21721 7.23418 8.23678 7.29793 8.25113 7.36209L9.27735 6.92305L7.38623 5.64998L5.69727 6.37244C4.92494 6.70291 4.02787 6.34326 3.69752 5.571C3.50621 5.12399 3.12992 4.78602 2.66504 4.64381ZM1.89219 9.86586C1.93455 9.965 2.05414 10.0129 2.15346 9.97051L5.75727 8.42903L5.75732 8.42897L7.27156 7.78116C7.3707 7.73873 7.41869 7.61908 7.37627 7.51989C7.34434 7.4453 7.26881 7.39971 7.19111 7.39971C7.16545 7.39971 7.13961 7.40469 7.115 7.41518L3.09928 9.13297L1.99684 9.60459C1.89775 9.64702 1.84976 9.76666 1.89219 9.86586ZM8.53115 11.366C9.29088 11.6489 10.1197 11.6291 10.8651 11.3103L14.9547 9.56077C14.9516 9.55445 14.9485 9.54815 14.9454 9.54184C14.9295 9.50945 14.9136 9.47701 14.8992 9.44346C14.6574 8.87815 14.6349 8.255 14.832 7.6741L13.0115 8.45293C12.8728 8.51217 12.7285 8.5403 12.5864 8.5403C12.1652 8.5403 11.7637 8.29344 11.5879 7.88235C11.4392 7.53471 11.4873 7.15174 11.6814 6.85754L7.6202 8.59485L7.61984 8.59502L4.58088 9.8951L8.53115 11.366ZM12.4021 7.53424C12.4445 7.63332 12.5641 7.68131 12.6634 7.63889L19.8222 4.57654C19.9214 4.53412 19.9693 4.41447 19.9269 4.31527C19.899 4.25024 19.8465 4.22111 19.8177 4.20957C19.8008 4.20283 19.7741 4.19486 19.7419 4.19486C19.7188 4.19486 19.6927 4.19902 19.6656 4.21063L12.5068 7.27297C12.4077 7.31539 12.3597 7.43504 12.4021 7.53424ZM15.9482 9.48096C16.3875 10.0149 17.1429 10.2208 17.8099 9.93547L18.2533 9.74569L16.9971 6.80914L16.5536 6.99887C16.1635 7.16574 15.8609 7.47653 15.7016 7.87397C15.5424 8.27141 15.5466 8.70512 15.7135 9.09524C15.7733 9.2351 15.8512 9.36172 15.9427 9.47422C15.9439 9.47548 15.9449 9.47683 15.9459 9.47815C15.9467 9.47911 15.9474 9.48005 15.9482 9.48096ZM17.8114 6.46092L19.0675 9.39746L19.6399 9.1526L18.3837 6.21606L17.8114 6.46092ZM28.9752 3.56316C29.1457 3.49022 29.278 3.35422 29.3478 3.18014C29.4175 3.00606 29.4158 2.81633 29.3428 2.64582L29.3128 2.57568C29.1613 2.22148 28.7499 2.0566 28.3956 2.20818L24.7178 3.78143C24.6622 3.80522 24.6029 3.81711 24.5437 3.81711C24.4878 3.81711 24.4319 3.80656 24.379 3.78535C24.27 3.74164 24.1828 3.6565 24.1366 3.54852L23.4066 1.84186L19.9357 3.32668C20.0072 3.33981 20.0779 3.35996 20.147 3.38762C20.4163 3.49555 20.6273 3.70133 20.7409 3.96699C20.9761 4.51678 20.7202 5.15539 20.1704 5.39059L19.1756 5.81615L19.8768 7.45526L28.9752 3.56316ZM27.7708 19.404H29.7469C29.9914 19.404 30.1896 19.6022 30.1896 19.8468V21.7255C30.1896 21.97 29.9914 22.1682 29.7469 22.1682H0.727403C0.482891 22.1682 0.284668 21.97 0.284668 21.7255V19.8468C0.284668 19.6022 0.482891 19.404 0.727403 19.404H25.3688V14.8641H24.4569C24.2285 14.8641 24.0376 14.6903 24.0161 14.4629L23.7685 11.8372L23.7684 11.8362L23.7681 11.8331C23.7678 11.8301 23.7678 11.8271 23.7677 11.8241C23.7676 11.8219 23.7676 11.8198 23.7675 11.8177C23.767 11.809 23.7662 11.8004 23.7662 11.7916V10.3133C23.7662 10.0687 23.9644 9.87053 24.2089 9.87053H26.1271V8.57484C26.1271 8.33033 26.3253 8.13211 26.5698 8.13211C26.8143 8.13211 27.0126 8.33033 27.0126 8.57484V9.87053H28.9308C29.1753 9.87053 29.3735 10.0687 29.3735 10.3133V11.7916C29.3735 11.7983 29.373 11.8049 29.3726 11.8115C29.3725 11.8135 29.3723 11.8156 29.3722 11.8177C29.3721 11.8198 29.372 11.8219 29.372 11.824C29.3719 11.827 29.3718 11.8301 29.3716 11.8331L29.3713 11.8362L29.3711 11.8372L29.1235 14.4629C29.1021 14.6903 28.9111 14.8641 28.6827 14.8641H27.7708V19.404ZM28.488 10.7559H24.6517V11.3488H28.488V10.7559ZM24.6954 12.2343L24.86 13.9786H25.8116H27.3281H28.2797L28.4443 12.2343H24.6954ZM26.8853 19.404V14.8641H26.2542V19.404H26.8853ZM1.17014 21.2827H29.3042V20.2895H27.328H25.8115H1.17014V21.2827Z" fill="#565656"/>
</svg>
