<svg width="21" height="26" viewBox="0 0 21 26" fill="none" xmlns="http://www.w3.org/2000/svg">
<ellipse cx="10.5" cy="21.6553" rx="10.5" ry="4" fill="#F59815"/>
<ellipse cx="10.5" cy="20.6553" rx="10" ry="4" fill="#FCC803"/>
<path d="M10.5 22.6553V19.7857V11.6553" stroke="#F59815" stroke-miterlimit="10"/>
<path d="M17.1991 5.67858C17.1442 5.50733 17.045 5.35366 16.9115 5.23319C16.778 5.11272 16.615 5.02975 16.439 4.9927L13.1052 4.27083L11.4376 1.40433C11.3422 1.2406 11.2055 1.10474 11.0412 1.01032C10.8769 0.9159 10.6907 0.866211 10.5012 0.866211C10.3117 0.866211 10.1256 0.9159 9.96125 1.01032C9.79695 1.10474 9.66027 1.2406 9.56487 1.40433L7.89611 4.2697L4.56161 4.9927C4.38606 5.03095 4.22359 5.11451 4.09038 5.23507C3.95716 5.35562 3.85784 5.50897 3.80231 5.67984C3.74678 5.85072 3.73698 6.03315 3.77388 6.20899C3.81077 6.38483 3.89308 6.54794 4.01261 6.68208L6.28512 9.2257L5.94124 12.6187C5.92217 12.7979 5.95068 12.979 6.0239 13.1437C6.09712 13.3084 6.21246 13.4509 6.35829 13.5568C6.50412 13.6627 6.6753 13.7283 6.85456 13.7469C7.03383 13.7656 7.21484 13.7367 7.37936 13.6631L10.5001 12.288L13.6212 13.6631C13.7858 13.7357 13.9666 13.7639 14.1454 13.7448C14.3243 13.7257 14.495 13.66 14.6406 13.5543C14.7861 13.4487 14.9014 13.3066 14.9749 13.1424C15.0484 12.9783 15.0775 12.7977 15.0594 12.6187L14.7155 9.2257L16.988 6.68208C17.1087 6.54839 17.1919 6.38509 17.2289 6.20881C17.266 6.03254 17.2557 5.84958 17.1991 5.67858Z" fill="url(#paint0_radial_2910_841)"/>
<path d="M3.01067 10.4635C2.92139 10.4635 2.83505 10.4317 2.76717 10.3737C2.69929 10.3157 2.65433 10.2354 2.64036 10.1472C2.62639 10.059 2.64435 9.96876 2.69099 9.89264C2.73763 9.81651 2.80989 9.75953 2.8948 9.73192L4.3198 9.26842C4.41285 9.24272 4.51223 9.25389 4.59726 9.29961C4.68228 9.34533 4.7464 9.42209 4.77626 9.51389C4.80612 9.6057 4.79942 9.70548 4.75757 9.79247C4.71571 9.87947 4.64192 9.94697 4.55155 9.98092L3.12655 10.4444C3.08919 10.457 3.05007 10.4634 3.01067 10.4635Z" fill="url(#paint1_linear_2910_841)"/>
<path d="M17.9894 10.4635C17.95 10.4636 17.9109 10.4574 17.8735 10.4451L16.4485 9.98158C16.3997 9.96809 16.3541 9.94484 16.3145 9.91324C16.2749 9.88164 16.2421 9.84235 16.2181 9.79773C16.1941 9.7531 16.1794 9.70408 16.1748 9.65362C16.1703 9.60316 16.1761 9.5523 16.1917 9.50413C16.2074 9.45595 16.2327 9.41144 16.266 9.3733C16.2994 9.33515 16.3401 9.30416 16.3858 9.2822C16.4314 9.26023 16.481 9.24774 16.5317 9.24549C16.5823 9.24323 16.6328 9.25126 16.6802 9.26908L18.1052 9.73258C18.1901 9.76018 18.2624 9.81717 18.3091 9.8933C18.3557 9.96942 18.3736 10.0597 18.3597 10.1479C18.3457 10.236 18.3007 10.3163 18.2329 10.3743C18.165 10.4323 18.0786 10.4642 17.9894 10.4642V10.4635Z" fill="url(#paint2_linear_2910_841)"/>
<path d="M14.2467 2.87265C14.1776 2.87259 14.1098 2.85341 14.0509 2.81725C13.992 2.78108 13.9442 2.72933 13.9128 2.6677C13.8815 2.60608 13.8678 2.53699 13.8732 2.46807C13.8787 2.39915 13.9031 2.33307 13.9437 2.27715L14.8254 1.06365C14.8839 0.983186 14.972 0.929272 15.0703 0.913766C15.1686 0.898259 15.269 0.922429 15.3494 0.980959C15.4299 1.03949 15.4838 1.12758 15.4993 1.22586C15.5148 1.32415 15.4907 1.42456 15.4321 1.50502L14.5501 2.71777C14.5154 2.7657 14.4698 2.80472 14.417 2.83164C14.3643 2.85856 14.306 2.87261 14.2467 2.87265Z" fill="url(#paint3_linear_2910_841)"/>
<path d="M6.75314 2.87332C6.69387 2.87335 6.63544 2.85933 6.58264 2.83241C6.52984 2.80548 6.48418 2.76643 6.44939 2.71845L5.56776 1.5057C5.50928 1.42524 5.48516 1.32484 5.5007 1.2266C5.51624 1.12835 5.57018 1.04031 5.65064 0.981825C5.7311 0.923345 5.83149 0.899222 5.92974 0.914764C6.02798 0.930307 6.11603 0.98424 6.17451 1.0647L7.05614 2.2782C7.09679 2.33412 7.12119 2.4002 7.12665 2.46912C7.1321 2.53805 7.11839 2.60714 7.08704 2.66876C7.05568 2.73038 7.0079 2.78213 6.94898 2.8183C6.89005 2.85447 6.82228 2.87364 6.75314 2.8737V2.87332Z" fill="url(#paint4_linear_2910_841)"/>
<defs>
<radialGradient id="paint0_radial_2910_841" cx="0" cy="0" r="1" gradientUnits="userSpaceOnUse" gradientTransform="translate(9.24124 5.91408) scale(8.01188)">
<stop stop-color="#FED200"/>
<stop offset="1" stop-color="#F59815"/>
</radialGradient>
<linearGradient id="paint1_linear_2910_841" x1="4.7818" y1="9.41467" x2="2.7628" y2="10.2584" gradientUnits="userSpaceOnUse">
<stop stop-color="#FED200"/>
<stop offset="1" stop-color="#F59815"/>
</linearGradient>
<linearGradient id="paint2_linear_2910_841" x1="16.1717" y1="9.40858" x2="18.253" y2="10.2531" gradientUnits="userSpaceOnUse">
<stop stop-color="#FED200"/>
<stop offset="1" stop-color="#F59815"/>
</linearGradient>
<linearGradient id="paint3_linear_2910_841" x1="14.0071" y1="2.8089" x2="15.3031" y2="1.06102" gradientUnits="userSpaceOnUse">
<stop stop-color="#FED200"/>
<stop offset="1" stop-color="#F59815"/>
</linearGradient>
<linearGradient id="paint4_linear_2910_841" x1="6.98076" y1="2.78333" x2="5.62476" y2="0.975075" gradientUnits="userSpaceOnUse">
<stop stop-color="#FED200"/>
<stop offset="1" stop-color="#F59815"/>
</linearGradient>
</defs>
</svg>
