<svg width="23" height="23" viewBox="0 0 23 23" fill="none" xmlns="http://www.w3.org/2000/svg">
<rect width="22.2239" height="22.2239" rx="3" fill="url(#paint0_linear_121_54405)"/>
<g clip-path="url(#clip0_121_54405)">
<path fill-rule="evenodd" clip-rule="evenodd" d="M9.13794 11.4866L10.6969 3.0274C6.30725 3.16834 2.79248 6.77125 2.79248 11.1954C2.79248 15.2325 5.72007 18.5859 9.56769 19.2486L9.90914 17.2805C7.00127 16.7796 4.78932 14.2457 4.78932 11.1954C4.78932 8.95763 5.97945 6.99796 7.76142 5.91483C7.81981 5.87932 7.87884 5.84479 7.93849 5.81122C8.17053 5.7048 8.43396 5.68891 8.67711 5.76668C8.92025 5.84444 9.12557 6.01024 9.25279 6.23156C9.38001 6.45288 9.41995 6.71375 9.36477 6.96299C9.3096 7.21224 9.16329 7.43188 8.95455 7.57882C8.90289 7.60755 8.85191 7.63735 8.80162 7.66823C7.61717 8.39603 6.82727 9.70358 6.82727 11.1955C6.82727 13.2393 8.30922 14.9369 10.2571 15.2724L10.9643 11.1954L9.13794 11.4866Z" fill="white"/>
<path fill-rule="evenodd" clip-rule="evenodd" d="M13.3164 3.33896L10.9762 9.42646L13.4048 8.71997L11.4459 15.3046C13.504 15.0661 15.1017 13.3172 15.1017 11.1952C15.1017 9.69673 14.3047 8.38428 13.1119 7.65838C13.0733 7.63471 13.0343 7.61198 12.9948 7.58965C12.784 7.44653 12.6342 7.22994 12.5745 6.98223C12.5149 6.73451 12.5498 6.47346 12.6724 6.25009C12.795 6.02673 12.9964 5.8571 13.2374 5.77435C13.4784 5.6916 13.7416 5.70169 13.9755 5.80263C14.0476 5.84304 14.1188 5.88478 14.1891 5.92787C15.959 7.01368 17.1397 8.96656 17.1397 11.1952C17.1397 14.6056 14.375 17.3703 10.9645 17.3703C10.9203 17.3703 10.8761 17.3698 10.8319 17.3689L10.2466 19.3364C10.4833 19.357 10.7227 19.3673 10.9647 19.3675C15.4784 19.3675 19.137 15.7086 19.137 11.1952C19.137 7.60243 16.8185 4.55095 13.5961 3.45575L13.3164 3.33896Z" fill="white"/>
</g>
<defs>
<linearGradient id="paint0_linear_121_54405" x1="11.1119" y1="0" x2="11.1119" y2="22.2239" gradientUnits="userSpaceOnUse">
<stop stop-color="#D7282F"/>
<stop offset="1" stop-color="#231F20"/>
</linearGradient>
<clipPath id="clip0_121_54405">
<rect width="17" height="17" fill="white" transform="translate(2.54785 2.68091)"/>
</clipPath>
</defs>
</svg>
