<svg width="13" height="16" viewBox="0 0 13 16" fill="none" xmlns="http://www.w3.org/2000/svg">
<path d="M3.82295 4.48835L4.18802 4.27854L4.91396 3.85892C5.21608 3.68688 5.31679 3.30083 5.14475 2.9987L4.0957 1.18176C3.92366 0.879631 3.53761 0.778923 3.23549 0.950966L2.50955 1.37058L1.78361 1.7902C0.0799605 2.77211 -0.507505 4.95832 0.478597 6.66197L4.67478 13.9298C5.33358 15.0711 6.53788 15.7131 7.77156 15.7131C8.37581 15.7131 8.98845 15.5579 9.55074 15.2348L10.2767 14.8151L11.0026 14.3955C11.3047 14.2235 11.4054 13.8374 11.2334 13.5353L10.1844 11.7184C10.0123 11.4162 9.62627 11.3155 9.32414 11.4876L8.59821 11.9072L8.23314 12.117C7.93521 12.289 7.54916 12.1883 7.37292 11.8862L3.59636 5.34437C3.42012 5.04644 3.52502 4.66039 3.82295 4.48835ZM3.4453 1.31603C3.546 1.25729 3.67189 1.29086 3.73064 1.39157L4.77968 3.20851C4.83843 3.30922 4.80486 3.4393 4.70415 3.49385L4.15865 3.80856L2.89979 1.62655L3.4453 1.31603ZM9.52976 11.8526C9.63047 11.7939 9.75635 11.8275 9.8151 11.9282L10.8641 13.7451C10.9229 13.8458 10.8893 13.9717 10.7886 14.0305L10.2431 14.3452L8.98425 12.1632L9.52976 11.8526ZM3.23129 5.55837L7.00785 12.1002C7.20088 12.4359 7.55336 12.6247 7.91842 12.6247C8.09466 12.6247 8.2751 12.5786 8.44295 12.4863L8.62338 12.3814L9.88224 14.5634L9.33673 14.8781C7.8345 15.7467 5.90426 15.2264 5.03565 13.7241L0.839469 6.45635C-0.0291401 4.95412 0.491186 3.02388 1.99342 2.15527L2.53892 1.84056L3.79778 4.02257L3.61734 4.12747C3.1138 4.41281 2.94175 5.05483 3.23129 5.55837Z" fill="#231F20"/>
<path d="M1.33926 4.28349C1.49871 3.68763 1.88056 3.19248 2.41348 2.88197C2.51419 2.82322 2.54776 2.69733 2.48901 2.59663C2.43026 2.49592 2.30438 2.46235 2.20367 2.52109C1.57424 2.88616 1.12106 3.47363 0.932227 4.17859C0.743399 4.88354 0.839912 5.61788 1.20498 6.2473L4.56192 12.0632C4.59969 12.1303 4.67102 12.1681 4.74236 12.1681C4.77593 12.1681 4.81369 12.1597 4.84726 12.1387C4.94797 12.08 4.98154 11.9541 4.9228 11.8534L1.56585 6.03749C1.25953 5.50038 1.1798 4.87935 1.33926 4.28349Z" fill="#231F20"/>
<path d="M5.19184 13.15C5.22961 13.2172 5.30094 13.2549 5.37228 13.2549C5.40585 13.2549 5.44361 13.2465 5.47718 13.2255C5.57789 13.1668 5.61146 13.0409 5.55271 12.9402L5.3429 12.5751C5.28416 12.4744 5.15827 12.4409 5.05756 12.4996C4.95686 12.5584 4.92329 12.6842 4.98203 12.785L5.19184 13.15Z" fill="#231F20"/>
<path d="M9.85319 9.51497C11.5904 9.51497 13.0003 8.10506 13.0003 6.36784C13.0003 4.63062 11.5904 3.2207 9.85319 3.2207C8.11597 3.2207 6.70605 4.63062 6.70605 6.36784C6.70605 8.10506 8.11597 9.51497 9.85319 9.51497ZM9.85319 3.64032C11.3554 3.64032 12.5807 4.86561 12.5807 6.36784C12.5807 7.87007 11.3554 9.09536 9.85319 9.09536C8.35096 9.09536 7.12567 7.87007 7.12567 6.36784C7.12567 4.86561 8.35096 3.64032 9.85319 3.64032Z" fill="#231F20"/>
<path d="M9.43247 6.8224H10.2717C10.3892 6.8224 10.4815 6.73008 10.4815 6.61259V4.5145C10.4815 4.397 10.3892 4.30469 10.2717 4.30469H9.43247C9.31497 4.30469 9.22266 4.397 9.22266 4.5145V6.61259C9.22266 6.73008 9.31497 6.8224 9.43247 6.8224ZM9.64227 4.72431H10.0619V6.40278H9.64227V4.72431Z" fill="#D7282F"/>
<path d="M9.85208 8.49909C10.2004 8.49909 10.4815 8.21794 10.4815 7.86966C10.4815 7.52138 10.2004 7.24023 9.85208 7.24023C9.5038 7.24023 9.22266 7.52138 9.22266 7.86966C9.22266 8.21794 9.5038 8.49909 9.85208 8.49909ZM9.85208 7.65985C9.96958 7.65985 10.0619 7.75217 10.0619 7.86966C10.0619 7.98715 9.96958 8.07947 9.85208 8.07947C9.73459 8.07947 9.64227 7.98715 9.64227 7.86966C9.64227 7.75217 9.73459 7.65985 9.85208 7.65985Z" fill="#D7282F"/>
</svg>
