<svg width="66" height="66" viewBox="0 0 66 66" fill="none" xmlns="http://www.w3.org/2000/svg">
<g clip-path="url(#clip0_3815_26900)">
<path d="M33 52.25C35.277 52.25 37.125 54.098 37.125 56.375C37.125 58.652 35.277 60.5 33 60.5C30.723 60.5 28.875 58.652 28.875 56.375C28.875 54.098 30.723 52.25 33 52.25ZM33 5.5C42.1135 5.5 49.5 12.8865 49.5 22C49.5 27.9537 47.4293 31.0475 42.1465 35.5382C36.8472 40.04 35.75 42.0667 35.75 46.75H30.25C30.25 39.9465 32.4143 36.5887 38.5853 31.3472C42.757 27.8025 44 25.9435 44 22C44 15.9225 39.0775 11 33 11C26.9225 11 22 15.9225 22 22V24.75H16.5V22C16.5 12.8865 23.8865 5.5 33 5.5Z" fill="#9A9A9A"/>
</g>
<defs>
<clipPath id="clip0_3815_26900">
<rect width="66" height="66" fill="white"/>
</clipPath>
</defs>
</svg>
