<svg width="52" height="66" viewBox="0 0 52 66" fill="none" xmlns="http://www.w3.org/2000/svg">
<g clip-path="url(#clip0_3817_27035)">
<path d="M34.9522 65.9987H2.92921C2.14216 65.9987 1.39633 65.6715 0.86176 65.137C0.327185 64.6037 0 63.8836 0 63.0695V2.92921C0 2.11511 0.327185 1.39633 0.86176 0.86176C1.39633 0.327185 2.11511 0 2.92921 0H48.806C49.6201 0 50.3389 0.327185 50.8735 0.86176C51.408 1.39633 51.7352 2.11511 51.7352 2.92921V48.9413C51.7571 49.0572 51.7829 49.1525 51.7829 49.2685C51.7829 49.6652 51.5974 50.0143 51.3385 50.268L36.2055 65.5762C35.9492 65.8274 35.3553 66.0116 34.9522 65.9987ZM14.5456 50.0207C15.6031 50.0207 16.5615 50.4497 17.2545 51.144C17.6111 51.4991 17.894 51.9213 18.0868 52.3862C18.2795 52.8512 18.3784 53.3496 18.3778 53.8529C18.3778 54.9105 17.9488 55.8688 17.2545 56.5631L17.2133 56.6005C16.5229 57.2716 15.5812 57.6851 14.5456 57.6851C13.488 57.6851 12.5297 57.2562 11.8354 56.5631C11.1423 55.8688 10.7134 54.9105 10.7134 53.8529C10.7134 52.7954 11.1423 51.837 11.8354 51.144C12.5297 50.4497 13.488 50.0207 14.5456 50.0207ZM14.5456 46.8493C16.4765 46.8493 18.2271 47.6338 19.4959 48.9001L19.4997 48.9052C20.766 50.1727 21.5492 51.9233 21.5492 53.8529C21.5492 55.7864 20.7647 57.5383 19.4984 58.8058L19.4572 58.8431C18.1923 60.0875 16.4572 60.8578 14.5456 60.8578C12.6121 60.8578 10.8602 60.0733 9.59272 58.8058C8.32519 57.5383 7.54201 55.7864 7.54201 53.8529C7.54201 51.922 8.32648 50.1702 9.59529 48.9026C10.8602 47.6338 12.6121 46.8493 14.5456 46.8493ZM18.5143 49.8842C17.4993 48.8704 16.0965 48.2431 14.5456 48.2431C12.996 48.2431 11.5932 48.8704 10.5781 49.8855C10.0563 50.4058 9.64254 51.0242 9.36067 51.7052C9.07881 52.3861 8.9344 53.116 8.93577 53.8529C8.93577 55.4025 9.56309 56.8053 10.5781 57.8204C11.5932 58.8354 12.996 59.4627 14.5456 59.4627C16.018 59.4656 17.4321 58.8875 18.4808 57.8539L18.513 57.8204C19.5281 56.8053 20.1554 55.4025 20.1554 53.8529C20.1554 52.302 19.5281 50.8992 18.5143 49.8842ZM12.634 24.6239C12.1149 24.6239 11.6937 24.2027 11.6937 23.6836C11.6937 23.1632 12.1149 22.742 12.634 22.742H31.4948C32.0152 22.742 32.4364 23.1632 32.4364 23.6836C32.4364 24.2027 32.0152 24.6239 31.4948 24.6239H12.634ZM12.634 39.0639C12.1149 39.0639 11.6937 38.6427 11.6937 38.1235C11.6937 37.6044 12.1149 37.1819 12.634 37.1819H38.6427C39.1618 37.1819 39.583 37.6044 39.583 38.1235C39.583 38.6427 39.1618 39.0639 38.6427 39.0639H12.634ZM12.634 33.3162C12.1149 33.3162 11.6937 32.8963 11.6937 32.3759C11.6937 31.8568 12.1149 31.4356 12.634 31.4356H31.4948C32.0152 31.4356 32.4364 31.8568 32.4364 32.3759C32.4364 32.8963 32.0152 33.3162 31.4948 33.3162H12.634ZM42.6037 28.791H9.17923V41.6466H42.6037V28.791ZM9.17923 26.9091H42.6037V20.1876H9.17923V26.9091ZM8.2376 18.3056H43.544C44.0631 18.3056 44.4843 18.7269 44.4843 19.2473V42.5869C44.4843 43.106 44.0631 43.5273 43.544 43.5273H8.2376C7.71849 43.5273 7.29727 43.106 7.29727 42.5869V19.2473C7.29727 18.7269 7.71849 18.3056 8.2376 18.3056ZM33.8366 63.3709V51.913C33.8366 50.8181 34.281 49.8185 34.9998 49.0997C35.3693 48.7304 35.8079 48.4376 36.2907 48.238C36.7734 48.0385 37.2907 47.936 37.8131 47.9365H49.0598V2.92406C49.0598 2.85579 49.0379 2.76047 48.9645 2.71281C48.9168 2.66514 48.8485 2.61748 48.7532 2.61748H2.90345C2.83389 2.61748 2.73857 2.63938 2.69219 2.71281C2.64325 2.76047 2.59687 2.85064 2.59687 2.92406V63.0695C2.59687 63.1648 2.61748 63.2331 2.69219 63.2808C2.73857 63.3284 2.80813 63.3761 2.90345 63.3761H33.8366V63.3709ZM36.4644 51.913V61.5096L47.2719 50.5643H37.8131C37.4421 50.5643 37.1149 50.7279 36.8612 50.9611C36.6229 51.1929 36.4644 51.542 36.4644 51.913Z" fill="#9A9A9A"/>
<path d="M16.5742 5.23358C17.3516 5.23358 17.9922 5.32733 18.4961 5.51483C19.0039 5.70233 19.3809 5.98553 19.627 6.36444C19.873 6.74335 19.9961 7.22186 19.9961 7.79999C19.9961 8.19061 19.9219 8.53241 19.7734 8.82538C19.625 9.11835 19.4297 9.36639 19.1875 9.56952C18.9453 9.77264 18.6836 9.93866 18.4023 10.0676L20.9219 13.8H18.9062L16.8613 10.5129H15.8945V13.8H14.0781V5.23358H16.5742ZM16.4453 6.72186H15.8945V9.03632H16.4805C17.082 9.03632 17.5117 8.93671 17.7695 8.73749C18.0312 8.53436 18.1621 8.23749 18.1621 7.84686C18.1621 7.44061 18.0215 7.15155 17.7402 6.97968C17.4629 6.8078 17.0312 6.72186 16.4453 6.72186ZM23.7871 13.8H22V5.23358H26.9102V6.72186H23.7871V8.93085H26.6934V10.4133H23.7871V13.8ZM36.3613 9.50507C36.3613 10.1418 36.2852 10.7258 36.1328 11.257C35.9844 11.7844 35.7539 12.2414 35.4414 12.6281C35.1289 13.0148 34.7324 13.3176 34.252 13.5363L36.3145 15.8391H33.9883L32.418 13.9172C32.3906 13.9172 32.3672 13.9172 32.3477 13.9172C32.3281 13.9172 32.3066 13.9172 32.2832 13.9172C31.584 13.9172 30.9785 13.8137 30.4668 13.6066C29.9551 13.3957 29.5312 13.0949 29.1953 12.7043C28.8633 12.3137 28.6152 11.8469 28.4512 11.3039C28.2871 10.7609 28.2051 10.1574 28.2051 9.49335C28.2051 8.60663 28.3496 7.83514 28.6387 7.17889C28.9316 6.51874 29.3809 6.00702 29.9863 5.64374C30.5918 5.28046 31.3613 5.09882 32.2949 5.09882C33.2246 5.09882 33.9883 5.28046 34.5859 5.64374C35.1875 6.00702 35.6328 6.51874 35.9219 7.17889C36.2148 7.83905 36.3613 8.61444 36.3613 9.50507ZM30.1094 9.50507C30.1094 10.1027 30.1836 10.6183 30.332 11.0519C30.4844 11.4816 30.7207 11.8137 31.041 12.048C31.3613 12.2785 31.7754 12.3937 32.2832 12.3937C32.7988 12.3937 33.2168 12.2785 33.5371 12.048C33.8574 11.8137 34.0898 11.4816 34.2344 11.0519C34.3828 10.6183 34.457 10.1027 34.457 9.50507C34.457 8.60663 34.2891 7.8996 33.9531 7.38397C33.6172 6.86835 33.0645 6.61053 32.2949 6.61053C31.7832 6.61053 31.3652 6.72772 31.041 6.9621C30.7207 7.19257 30.4844 7.5246 30.332 7.95819C30.1836 8.38788 30.1094 8.9035 30.1094 9.50507Z" fill="#9A9A9A"/>
</g>
<defs>
<clipPath id="clip0_3817_27035">
<rect width="51.7829" height="66" fill="white"/>
</clipPath>
</defs>
</svg>
