<?xml version="1.0" encoding="utf-8"?>
<!-- Generator: Adobe Illustrator 24.0.1, SVG Export Plug-In . SVG Version: 6.00 Build 0)  -->
<svg version="1.1" id="Layer_1" xmlns="http://www.w3.org/2000/svg" xmlns:xlink="http://www.w3.org/1999/xlink" x="0px" y="0px"
	 viewBox="0 0 66 66" style="enable-background:new 0 0 66 66;" xml:space="preserve">
<style type="text/css">
	.st0{clip-path:url(#SVGID_4_);}
	.st1{fill:#9A9A9A;}
</style>
<g>
	<g>
		<defs>
			<rect id="SVGID_1_" width="66" height="66"/>
		</defs>
		<clipPath id="SVGID_2_">
			<use xlink:href="#SVGID_1_"  style="overflow:visible;"/>
		</clipPath>
	</g>
	<g>
		<defs>
			<rect id="SVGID_3_" width="66" height="66"/>
		</defs>
		<clipPath id="SVGID_4_">
			<use xlink:href="#SVGID_3_"  style="overflow:visible;"/>
		</clipPath>
		<g class="st0">
			<g>
				<path class="st1" d="M5.9,63.6c-0.3,0-0.6,0-1-0.1c-0.8-0.2-1.5-0.6-2.2-1.3c-0.4-0.5-0.8-1.1-1-1.6c-0.3-0.7-0.4-1.4-0.4-2.1
					V12.2c0-0.7,0.1-1.3,0.4-2C2,9.5,2.4,9,2.8,8.5C3.4,7.8,4.2,7.3,5,7.1C5.3,7.1,5.6,7,5.9,7h13.6l0.3-1c1.1-3.3,3.9-5.6,7-5.6
					s5.9,2.2,7,5.6l0.3,1h13.6c2.5,0,4.5,2.3,4.5,5.1v46.3c0,2.8-2,5.1-4.5,5.1H5.9z M4.4,60h45V10.7h-45V60z M26.9,2.2
					c-2.1,0-3.7,1.8-3.7,4s1.7,4,3.7,4c2.1,0,3.7-1.8,3.7-4S29,2.2,26.9,2.2z M13.4,50.4v-3.6h18v3.6H13.4z M13.4,37.1v-3.6h27v3.6
					H13.4z M13.4,23.9v-3.6h27v3.6H13.4z"/>
			</g>
		</g>
	</g>
	<g>
		<defs>
			<rect id="SVGID_5_" width="66" height="66"/>
		</defs>
		<clipPath id="SVGID_6_">
			<use xlink:href="#SVGID_5_"  style="overflow:visible;"/>
		</clipPath>
	</g>
</g>
</svg>
