<svg width="56" height="56" viewBox="0 0 56 56" fill="none" xmlns="http://www.w3.org/2000/svg">
<g clip-path="url(#clip0_1191_26)">
<path d="M13.4375 56L13.0949 55.9407C12.8267 55.8963 12.5437 55.8519 12.2755 55.8074C5.97386 54.7852 1.10235 49.837 0.148904 43.4667C-0.774746 37.3333 2.53252 31.1259 8.1787 28.3852C9.66846 27.6593 11.2476 27.2 13.0055 26.963L13.3929 26.9185V20.1037C13.3929 14.9778 13.3929 9.86667 13.3929 4.74074C13.3929 2.99259 14.0781 1.67407 15.4487 0.785185C15.8361 0.533333 16.283 0.385185 16.7746 0.222222C16.9683 0.148148 17.1768 0.0888889 17.3854 0H43.9031C44.0074 0.0740741 44.1117 0.162963 44.2159 0.237037C44.5288 0.474074 44.8118 0.696296 45.0651 0.933333C46.7187 2.57778 48.3724 4.22222 50.026 5.86667C51.769 7.6 53.5716 9.40741 55.3593 11.1704C55.8063 11.6148 55.9999 12.0889 55.9999 12.7259C55.985 18.6519 55.985 24.6667 55.985 30.4889V35.4815C55.985 36.9926 55.985 38.5037 55.985 40.0148C55.985 43.7185 55.985 47.5407 55.9701 51.3037C55.9701 53.3185 55.0167 54.7852 53.1545 55.6296C52.9161 55.7333 52.648 55.8074 52.3649 55.8963C52.2457 55.9259 52.1266 55.9556 52.0074 56H13.4375ZM29.1545 43.0519C28.6331 46.963 26.8901 50.1482 23.8063 52.7704L22.8826 53.5556H51.0986C52.7225 53.5556 53.5567 52.7407 53.5567 51.1111V13.5556H47.5083C46.3016 13.5556 45.0949 13.5556 43.8882 13.5556C42.8454 13.5556 42.3984 13.1111 42.3984 12.0444C42.3984 10.0148 42.3984 7.98519 42.3984 5.95556V2.44444H18.3389C16.6703 2.44444 15.851 3.24444 15.851 4.9037V26.8889L16.3575 26.963C16.432 26.9778 16.4916 26.9778 16.5511 26.9926C19.039 27.3481 21.3482 28.2815 23.3891 29.7778C23.7467 30.0296 24.2234 30.1926 24.6554 30.1926C29.1992 30.2222 33.7578 30.2222 37.9888 30.2222H44.7225C44.9608 30.2222 45.1843 30.2222 45.4077 30.2222C45.6312 30.2222 45.8547 30.2222 46.0781 30.2222C46.4357 30.2222 46.7187 30.2222 46.9869 30.237C47.6126 30.2519 48.134 30.7407 48.1787 31.363C48.2234 31.9556 47.8063 32.5037 47.2104 32.637C47.0763 32.6667 46.9124 32.6667 46.7485 32.6667H46.5847C42.2197 32.6667 37.8547 32.6667 33.4897 32.6667H26.3091L26.756 33.3481C28.067 35.3333 28.8416 37.4519 29.1396 39.8222L29.1843 40.2074H45.7504C45.8845 40.2074 46.0037 40.2074 46.1377 40.2074C46.2569 40.2074 46.391 40.2074 46.5102 40.2074C46.7038 40.2074 46.8677 40.2074 47.0167 40.2222C47.6424 40.2519 48.1489 40.7556 48.1787 41.3778C48.2085 41.9852 47.7616 42.5481 47.1359 42.6519C47.0316 42.6667 46.9124 42.6667 46.823 42.6667C46.7783 42.6667 46.5847 42.6667 46.54 42.6667C42.9199 42.6667 32.9683 42.6667 32.9683 42.6667H29.1992L29.1545 43.0519ZM14.6294 29.3333C7.94034 29.3333 2.48782 34.7556 2.47293 41.4074C2.47293 44.6519 3.73922 47.7037 6.03345 50C8.32768 52.2963 11.3817 53.5556 14.6294 53.5556C21.3333 53.5556 26.7858 48.1185 26.7858 41.4519C26.7858 34.7852 21.3482 29.3481 14.6443 29.3333H14.6294ZM44.8565 11.0667H51.5456L44.8714 4.41481V11.0667H44.8565Z" fill="#9A9A9A"/>
<path d="M46.7782 22.6666C44.9905 22.6666 43.2028 22.6666 41.4151 22.6666H27.8881C26.1004 22.6666 24.3127 22.6666 22.5399 22.6666C22.0334 22.6666 21.5864 22.4444 21.363 22.0592C21.1544 21.7185 21.1395 21.3036 21.3332 20.9185C21.5715 20.4444 21.944 20.2222 22.5101 20.2222H37.6907C40.7298 20.2222 43.7689 20.2222 46.808 20.2222C47.3146 20.2222 47.7764 20.4444 48.0147 20.8148C48.2233 21.1407 48.2531 21.5407 48.0743 21.9111C47.8509 22.4296 47.4337 22.6666 46.7782 22.6666Z" fill="#9A9A9A"/>
<path d="M14.6143 50.4443C14.0482 50.4443 13.5417 50.2962 13.3481 48.5481L13.3183 48.2518L13.0352 48.1629C11.6497 47.7481 10.8602 46.9036 10.6367 45.5406C10.5622 45.0814 10.6665 44.6369 10.9346 44.311C11.1581 44.0443 11.471 43.911 11.7987 43.911C11.9328 43.911 12.0669 43.9258 12.2009 43.9703C12.6926 44.1332 12.9756 44.4592 13.0352 44.9777C13.1246 45.6295 13.5566 45.7629 13.8993 45.7629C13.9142 45.7629 13.9291 45.7629 13.9589 45.7629C14.1674 45.7629 14.376 45.748 14.6143 45.748C14.8527 45.748 15.0911 45.748 15.3294 45.7629H15.3741C15.6423 45.7629 15.836 45.6888 15.9849 45.5406C16.1339 45.3925 16.2084 45.1851 16.1935 44.9184C16.1786 44.3851 16.1786 43.9258 16.1935 43.4962C16.2084 43.2295 16.1339 43.0221 15.9849 42.8592C15.7615 42.6221 15.4486 42.6221 15.3443 42.6221H15.2996C15.0315 42.6221 14.7484 42.6369 14.4803 42.6369C14.1972 42.6369 13.9291 42.6369 13.6609 42.6221C12.0073 42.5777 10.6814 41.2592 10.6367 39.6147C10.6218 39.2592 10.6367 38.9036 10.6367 38.5629C10.6367 38.4147 10.6367 38.2666 10.6367 38.1332C10.6367 36.2369 11.3071 35.3036 13.0948 34.6666L13.3778 34.5629L13.3927 34.2666C13.5119 32.5629 14.0929 32.3999 14.6292 32.3999H14.659C15.24 32.3999 15.7913 32.6221 15.9104 34.2814L15.9253 34.5777L16.2084 34.6666C16.2531 34.6814 16.3127 34.6962 16.3574 34.711C16.4616 34.7406 16.5808 34.7851 16.6851 34.8295C17.8471 35.274 18.6367 36.3851 18.6665 37.5851C18.6814 38.2814 18.2345 38.8295 17.5641 38.9184C17.5194 38.9184 17.4598 38.9332 17.4151 38.9332C16.849 38.9332 16.3425 38.5036 16.2531 37.9258C16.1637 37.3629 15.8508 37.0666 15.3145 37.0666C15.2698 37.0666 15.2103 37.0666 15.1507 37.0666C15.0911 37.0666 15.0464 37.0666 14.9868 37.0666C14.8825 37.0666 14.7782 37.0666 14.659 37.0518C14.5399 37.0518 14.4207 37.0369 14.3015 37.0369C14.0035 37.0369 13.6162 37.0666 13.3481 37.3184C13.0054 37.6147 13.0352 38.1036 13.065 38.5777C13.0799 38.7555 13.0948 38.948 13.0799 39.0814C13.065 39.3036 13.065 39.6443 13.2885 39.8962C13.5417 40.1777 13.9291 40.1777 14.0631 40.1777H14.1674C14.4058 40.1777 14.659 40.1629 14.8974 40.1629C15.4486 40.1629 15.8657 40.1925 16.2531 40.2666C17.6237 40.5184 18.6218 41.7036 18.6665 43.1555C18.6814 43.4666 18.6814 43.7777 18.6665 44.0888C18.6665 44.2221 18.6665 44.3406 18.6665 44.474C18.6665 46.5777 18.1302 47.3629 16.1935 48.1629L15.9402 48.2666L15.9104 48.5332C15.7168 50.2962 15.1656 50.4443 14.6143 50.4443Z" fill="#9A9A9A"/>
</g>
<defs>
<clipPath id="clip0_1191_26">
<rect width="56" height="56" fill="white"/>
</clipPath>
</defs>
</svg>
