<svg width="59" height="43" viewBox="0 0 59 43" fill="none" xmlns="http://www.w3.org/2000/svg">
<path d="M55.6991 21.9289C55.6991 21.9151 55.6991 21.9014 55.6991 21.8876C55.6991 21.8738 55.6961 21.8655 55.6949 21.8541C55.6937 21.8427 55.6913 21.8284 55.6889 21.8152C55.6865 21.8021 55.6835 21.7913 55.6805 21.7793C55.6776 21.7674 55.6752 21.7566 55.6716 21.7452C55.668 21.7339 55.6638 21.7195 55.659 21.707L55.6482 21.6771C55.6429 21.6633 55.6363 21.6501 55.6303 21.637L55.6177 21.6107C55.6106 21.5969 55.6022 21.5831 55.5944 21.57L55.5836 21.5514L52.091 16.1322C51.8677 15.7745 51.5566 15.4799 51.1874 15.2763C50.8181 15.0727 50.403 14.9668 49.9813 14.9688H46.0521V14.5614C46.0511 13.842 45.7649 13.1522 45.2562 12.6435C44.7474 12.1348 44.0577 11.8485 43.3382 11.8476H40.9803C41.4026 11.3567 41.6243 10.7247 41.601 10.0776C41.5777 9.43048 41.3112 8.81598 40.8547 8.35676L37.4452 4.94728C36.9633 4.46805 36.3113 4.19904 35.6316 4.19904C34.952 4.19904 34.2999 4.46805 33.818 4.94728L31.5875 7.1748C30.8433 6.79582 30.0705 6.47582 29.2762 6.21776V3.06489C29.2754 2.38498 29.005 1.73314 28.5243 1.25232C28.0436 0.771502 27.3918 0.50095 26.7119 0.5H21.8884C21.2084 0.500792 20.5565 0.771274 20.0756 1.25211C19.5948 1.73295 19.3243 2.38488 19.3235 3.06489V6.21596C18.5294 6.47429 17.7566 6.79428 17.0123 7.17301L14.7853 4.94548C14.3034 4.46643 13.6515 4.19754 12.972 4.19754C12.2925 4.19754 11.6406 4.46643 11.1587 4.94548L7.74925 8.35496C7.26886 8.83628 6.99905 9.48853 6.99905 10.1686C6.99905 10.8486 7.26886 11.5009 7.74925 11.9822L9.97798 14.2109C9.59945 14.9553 9.27947 15.7281 9.02093 16.5222H5.86507C5.18496 16.5231 4.533 16.7938 4.05226 17.2749C3.57152 17.756 3.30126 18.4081 3.30078 19.0882V23.9118C3.30157 24.5917 3.57197 25.2435 4.05268 25.7243C4.53339 26.2051 5.18516 26.4757 5.86507 26.4766H9.01555C9.27408 27.2707 9.59407 28.0435 9.97259 28.7879L7.74566 31.0166C7.26527 31.4979 6.99546 32.1502 6.99546 32.8302C6.99546 33.5103 7.26527 34.1625 7.74566 34.6438L11.1551 38.0533C11.6364 38.5337 12.2885 38.8035 12.9684 38.8035C13.6484 38.8035 14.3005 38.5337 14.7818 38.0533L17.0111 35.8246C17.7554 36.2033 18.5282 36.5233 19.3223 36.7816V39.9351C19.3231 40.6151 19.5936 41.267 20.0745 41.7479C20.5553 42.2287 21.2072 42.4992 21.8872 42.5H26.7107C27.3906 42.4991 28.0424 42.2285 28.5231 41.7477C29.0038 41.2669 29.2742 40.615 29.275 39.9351V36.784C30.0693 36.526 30.8421 36.206 31.5863 35.827L33.8156 38.0563C34.2968 38.5367 34.949 38.8065 35.6289 38.8065C36.3089 38.8065 36.961 38.5367 37.4422 38.0563L40.8517 34.6468C41.33 34.165 41.5985 33.5136 41.5985 32.8347C41.5985 32.1558 41.33 31.5044 40.8517 31.0226L39.3348 29.4901H46.4833C46.7043 30.2946 47.1834 31.0042 47.8468 31.51C48.5103 32.0157 49.3215 32.2896 50.1557 32.2896C50.9899 32.2896 51.8011 32.0157 52.4646 31.51C53.128 31.0042 53.607 30.2946 53.8281 29.4901H54.1271C54.5446 29.4892 54.9446 29.3226 55.2393 29.027C55.534 28.7314 55.6994 28.3309 55.6991 27.9134V21.954C55.6991 21.9456 55.6991 21.9372 55.6991 21.9289ZM49.9795 16.454C50.1527 16.4523 50.3234 16.496 50.4745 16.5807C50.6256 16.6654 50.7519 16.7881 50.8409 16.9367L53.596 21.2117H46.0521V16.454H49.9795ZM44.5668 14.5614V23.2945H27.5422V22.85H28.2079C28.4048 22.85 28.5936 22.7718 28.7328 22.6326C28.872 22.4934 28.9502 22.3046 28.9502 22.1077C28.9502 21.9109 28.872 21.722 28.7328 21.5828C28.5936 21.4436 28.4048 21.3654 28.2079 21.3654H27.5422V20.7397H31.8447C31.9422 20.7397 32.0387 20.7205 32.1288 20.6832C32.2188 20.6459 32.3007 20.5913 32.3696 20.5223C32.4385 20.4534 32.4932 20.3716 32.5305 20.2815C32.5678 20.1914 32.587 20.0949 32.587 19.9974C32.587 19.9 32.5678 19.8034 32.5305 19.7134C32.4932 19.6233 32.4385 19.5415 32.3696 19.4725C32.3007 19.4036 32.2188 19.3489 32.1288 19.3116C32.0387 19.2743 31.9422 19.2551 31.8447 19.2551H27.5422V16.8685H29.205C29.3983 16.863 29.5819 16.7824 29.7167 16.6437C29.8515 16.505 29.9269 16.3193 29.9269 16.1259C29.9269 15.9325 29.8515 15.7467 29.7167 15.6081C29.5819 15.4694 29.3983 15.3888 29.205 15.3833H27.5422V14.5614C27.5427 14.2356 27.6723 13.9233 27.9028 13.693C28.1332 13.4626 28.4456 13.3331 28.7714 13.3328H43.3382C43.6639 13.3333 43.9762 13.4629 44.2065 13.6932C44.4368 13.9235 44.5664 14.2357 44.5668 14.5614ZM26.0576 14.5614V15.3839H24.3947C24.2014 15.3894 24.0178 15.47 23.8831 15.6087C23.7483 15.7473 23.6729 15.9331 23.6729 16.1265C23.6729 16.3199 23.7483 16.5056 23.8831 16.6443C24.0178 16.783 24.2014 16.8636 24.3947 16.8691H26.0576V19.2557H25.3338C25.1369 19.2557 24.9481 19.3339 24.8089 19.4731C24.6697 19.6124 24.5915 19.8012 24.5915 19.998C24.5915 20.1949 24.6697 20.3837 24.8089 20.5229C24.9481 20.6621 25.1369 20.7403 25.3338 20.7403H26.0576V21.3642H23.632C23.4352 21.3642 23.2464 21.4424 23.1071 21.5816C22.9679 21.7208 22.8897 21.9097 22.8897 22.1065C22.8897 22.3034 22.9679 22.4922 23.1071 22.6314C23.2464 22.7706 23.4352 22.8488 23.632 22.8488H26.0576V26.7739C26.0585 27.4927 26.3443 28.1818 26.8522 28.6904C27.3602 29.1989 28.049 29.4854 28.7678 29.4872C28.8339 29.7275 28.9237 29.9607 29.0358 30.1834C27.591 30.9712 25.9724 31.3859 24.3268 31.3901C22.6812 31.3944 21.0606 30.9879 19.6118 30.2076C18.163 29.4272 16.9317 28.2977 16.0297 26.9213C15.1277 25.545 14.5834 23.9653 14.4461 22.3254C14.3088 20.6856 14.5829 19.0373 15.2435 17.5302C15.9041 16.023 16.9303 14.7044 18.2292 13.6941C19.5281 12.6837 21.0586 12.0134 22.682 11.7439C24.3054 11.4744 25.9703 11.6143 27.526 12.1508C27.0838 12.3795 26.713 12.7252 26.454 13.1504C26.195 13.5755 26.0579 14.0636 26.0576 14.5614ZM30.116 28.4781C30.1159 28.0183 30.2521 27.5689 30.5075 27.1865C30.7628 26.8042 31.1258 26.5062 31.5505 26.3301C31.9752 26.1541 32.4426 26.108 32.8936 26.1976C33.3445 26.2873 33.7587 26.5086 34.0839 26.8336C34.409 27.1587 34.6304 27.5729 34.7202 28.0238C34.8099 28.4747 34.7639 28.9421 34.588 29.3669C34.4121 29.7916 34.1142 30.1547 33.7319 30.4101C33.3496 30.6656 32.9002 30.8019 32.4405 30.8019C31.8243 30.8013 31.2335 30.5562 30.7978 30.1206C30.362 29.685 30.1168 29.0942 30.116 28.4781ZM28.6625 27.9995C28.3569 27.9721 28.0725 27.8314 27.8652 27.6051C27.658 27.3788 27.5427 27.0832 27.5422 26.7763V24.7779H31.539C30.7908 24.9614 30.1156 25.3671 29.6021 25.9416C29.0887 26.5161 28.7612 27.2324 28.6625 27.9966V27.9995ZM39.8019 32.067C40.0034 32.2707 40.1163 32.5456 40.1163 32.832C40.1163 33.1185 40.0034 33.3934 39.8019 33.5971L36.3925 37.0066C36.1897 37.2085 35.9151 37.3219 35.6289 37.3219C35.3427 37.3219 35.0682 37.2085 34.8654 37.0066L32.2514 34.3872C32.1375 34.273 31.9895 34.199 31.8297 34.1765C31.6699 34.1541 31.5072 34.1844 31.3662 34.2628C30.4056 34.7952 29.3875 35.2166 28.3317 35.5189C28.1767 35.5633 28.0402 35.6569 27.9431 35.7856C27.846 35.9144 27.7934 36.0713 27.7934 36.2325V39.9351C27.7931 40.2208 27.6796 40.4948 27.4779 40.6972C27.2761 40.8995 27.0025 41.0137 26.7167 41.0148H21.8884C21.6027 41.0137 21.329 40.8995 21.1273 40.6972C20.9255 40.4948 20.8121 40.2208 20.8117 39.9351V36.2349C20.8116 36.0737 20.759 35.9168 20.6619 35.7881C20.5648 35.6594 20.4284 35.5657 20.2734 35.5213C19.2174 35.2189 18.1992 34.7974 17.2384 34.2652C17.0973 34.187 16.9346 34.1568 16.7749 34.1792C16.6152 34.2017 16.4671 34.2755 16.3531 34.3896L13.7356 37.0072C13.5328 37.2091 13.2582 37.3225 12.972 37.3225C12.6858 37.3225 12.4113 37.2091 12.2085 37.0072L8.79901 33.5977C8.59677 33.395 8.48318 33.1204 8.48318 32.8341C8.48318 32.5478 8.59677 32.2732 8.79901 32.0706L11.4165 29.4531C11.5306 29.3391 11.6045 29.191 11.627 29.0313C11.6494 28.8715 11.6192 28.7088 11.541 28.5678C11.0081 27.6069 10.5857 26.5887 10.2818 25.5328C10.2375 25.3777 10.1439 25.2413 10.0152 25.1441C9.8864 25.047 9.72952 24.9944 9.56824 24.9944H5.86507C5.57882 24.9941 5.30439 24.8802 5.10198 24.6778C4.89957 24.4754 4.78572 24.201 4.7854 23.9147V19.0882C4.78572 18.802 4.89957 18.5276 5.10198 18.3252C5.30439 18.1227 5.57882 18.0089 5.86507 18.0086H9.56465C9.72593 18.0085 9.88281 17.956 10.0116 17.8589C10.1403 17.7617 10.2339 17.6253 10.2782 17.4702C10.582 16.4144 11.0044 15.3965 11.5374 14.4358C11.6156 14.2948 11.6458 14.1321 11.6234 13.9723C11.6009 13.8126 11.5271 13.6645 11.4129 13.5505L8.79543 10.933C8.59321 10.7305 8.47964 10.456 8.47964 10.1698C8.47964 9.88356 8.59321 9.60906 8.79543 9.40652L12.2049 5.99704C12.408 5.79566 12.6824 5.68268 12.9684 5.68268C13.2545 5.68268 13.5289 5.79566 13.732 5.99704L16.3495 8.61456C16.4636 8.72848 16.6117 8.80217 16.7714 8.82451C16.9311 8.84685 17.0938 8.81662 17.2348 8.73838C18.1957 8.20614 19.2139 7.78473 20.2698 7.48225C20.4248 7.43785 20.5612 7.34421 20.6583 7.21548C20.7554 7.08675 20.808 6.92991 20.8082 6.76866V3.06489C20.8093 2.77967 20.923 2.50646 21.1247 2.30478C21.3264 2.1031 21.5996 1.98931 21.8848 1.98821H26.7083C26.9936 1.98931 27.2668 2.1031 27.4685 2.30478C27.6701 2.50646 27.7839 2.77967 27.785 3.06489V6.76507C27.7851 6.92635 27.8376 7.08323 27.9347 7.21198C28.0319 7.34073 28.1683 7.43435 28.3234 7.47867C29.3792 7.78104 30.3972 8.20245 31.3578 8.73479C31.4988 8.81303 31.6614 8.84326 31.8211 8.82092C31.9808 8.79858 32.1289 8.72489 32.2431 8.61097L34.8606 5.99345C35.0638 5.79222 35.3382 5.67933 35.6241 5.67933C35.9101 5.67933 36.1845 5.79222 36.3877 5.99345L39.7972 9.40293C39.9984 9.606 40.1112 9.88031 40.1112 10.1662C40.1112 10.452 39.9984 10.7263 39.7972 10.9294L38.891 11.847H30.3152C28.6081 10.7833 26.6493 10.1914 24.6388 10.1315C22.6283 10.0717 20.6378 10.5461 18.8704 11.5064C17.103 12.4667 15.6219 13.8785 14.578 15.5978C13.5342 17.3172 12.965 19.2826 12.9284 21.2937C12.8919 23.3048 13.3893 25.2897 14.37 27.0458C15.3507 28.802 16.7795 30.2667 18.5109 31.2905C20.2422 32.3144 22.2141 32.8608 24.2255 32.874C26.2369 32.8873 28.2158 32.3669 29.9605 31.366C30.4472 31.7848 31.0319 32.0737 31.6603 32.2058C32.2886 32.3378 32.9402 32.3087 33.5543 32.1212C34.1684 31.9337 34.7251 31.5938 35.1725 31.1333C35.6199 30.6727 35.9435 30.1064 36.1131 29.4872H37.2496L39.8019 32.067ZM36.2184 28.0019C36.1209 27.2368 35.7939 26.5192 35.2804 25.9436C34.7669 25.3681 34.091 24.9616 33.3419 24.7779H44.5668V28.0019H36.2184ZM50.1554 30.8019C49.6958 30.8019 49.2465 30.6656 48.8643 30.4103C48.4822 30.1549 48.1843 29.792 48.0085 29.3674C47.8326 28.9427 47.7866 28.4755 47.8762 28.0247C47.9659 27.5739 48.1872 27.1599 48.5122 26.8349C48.8372 26.5099 49.2513 26.2886 49.702 26.1989C50.1528 26.1092 50.6201 26.1552 51.0447 26.3311C51.4693 26.507 51.8322 26.8049 52.0876 27.187C52.3429 27.5692 52.4792 28.0185 52.4792 28.4781C52.4784 29.094 52.2334 29.6846 51.7979 30.1202C51.3624 30.5558 50.7714 30.8009 50.1554 30.8019ZM54.2139 27.9134C54.2133 27.9367 54.2037 27.9589 54.1873 27.9753C54.1708 27.9918 54.1486 28.0013 54.1253 28.0019H53.9333C53.8179 27.0813 53.3702 26.2346 52.6745 25.6207C51.9788 25.0068 51.0829 24.668 50.1551 24.668C49.2273 24.668 48.3314 25.0068 47.6357 25.6207C46.94 26.2346 46.4923 27.0813 46.3769 28.0019H46.0515V22.6963H54.2145L54.2139 27.9134ZM31.6976 28.4984V28.4589C31.703 28.2656 31.7837 28.0821 31.9224 27.9473C32.061 27.8125 32.2468 27.7371 32.4402 27.7371C32.6335 27.7371 32.8193 27.8125 32.958 27.9473C33.0966 28.0821 33.1773 28.2656 33.1828 28.4589V28.4984C33.1773 28.6917 33.0966 28.8753 32.958 29.01C32.8193 29.1448 32.6335 29.2202 32.4402 29.2202C32.2468 29.2202 32.061 29.1448 31.9224 29.01C31.7837 28.8753 31.703 28.6917 31.6976 28.4984ZM50.8983 28.4589V28.4984C50.8928 28.6917 50.8122 28.8753 50.6735 29.01C50.5348 29.1448 50.3491 29.2202 50.1557 29.2202C49.9623 29.2202 49.7766 29.1448 49.6379 29.01C49.4992 28.8753 49.4186 28.6917 49.4131 28.4984V28.4589C49.4186 28.2656 49.4992 28.0821 49.6379 27.9473C49.7766 27.8125 49.9623 27.7371 50.1557 27.7371C50.3491 27.7371 50.5348 27.8125 50.6735 27.9473C50.8122 28.0821 50.8928 28.2656 50.8983 28.4589ZM22.4603 17.4361H25.216C25.3152 17.4333 25.4141 17.4504 25.5067 17.4865C25.5992 17.5225 25.6836 17.5768 25.7548 17.646C25.8261 17.7153 25.8827 17.7981 25.9214 17.8896C25.96 17.9811 25.9799 18.0794 25.9799 18.1787C25.9799 18.2781 25.96 18.3764 25.9214 18.4679C25.8827 18.5594 25.8261 18.6422 25.7548 18.7115C25.6836 18.7807 25.5992 18.8349 25.5067 18.871C25.4141 18.9071 25.3152 18.9242 25.216 18.9214H22.4603C22.267 18.9159 22.0834 18.8352 21.9486 18.6966C21.8138 18.5579 21.7384 18.3721 21.7384 18.1787C21.7384 17.9854 21.8138 17.7996 21.9486 17.6609C22.0834 17.5223 22.267 17.4416 22.4603 17.4361Z" fill="url(#paint0_linear_1218_71)" stroke="url(#paint1_linear_1218_71)" stroke-width="0.2"/>
<defs>
<linearGradient id="paint0_linear_1218_71" x1="0.489924" y1="11.9298" x2="54.922" y2="29.2762" gradientUnits="userSpaceOnUse">
<stop stop-color="#231F20"/>
<stop offset="1" stop-color="#D7282F"/>
</linearGradient>
<linearGradient id="paint1_linear_1218_71" x1="50.5003" y1="38.1923" x2="4.73107" y2="0.500004" gradientUnits="userSpaceOnUse">
<stop stop-color="#D7282F"/>
<stop offset="1" stop-color="#231F20"/>
</linearGradient>
</defs>
</svg>
