<svg width="67" height="67" viewBox="0 0 67 67" fill="none" xmlns="http://www.w3.org/2000/svg">
<path d="M17.8134 34.8988L18.622 32.7513L16.7341 27.7363C16.5985 27.3746 16.589 26.9769 16.7072 26.6089C16.8254 26.241 17.0641 25.925 17.3839 25.7132L21.8204 22.7799L23.2048 17.6004C23.3048 17.2269 23.528 16.8993 23.8373 16.6719C24.1466 16.4445 24.5234 16.331 24.9051 16.3503L30.1972 16.6227L34.3233 13.2507C34.6211 13.0076 34.9921 12.875 35.3748 12.875C35.7573 12.875 36.1284 13.0076 36.4261 13.2507L40.5522 16.6227L45.8444 16.3558C46.2262 16.3365 46.6029 16.45 46.9121 16.6774C47.2214 16.9048 47.4446 17.2324 47.5447 17.6059L48.929 22.7854L53.3656 25.7187C53.6857 25.9302 53.9246 26.2462 54.0427 26.6142C54.161 26.9823 54.1512 27.3801 54.0153 27.7418L52.1292 32.7567L54.0153 37.7699C54.1514 38.1318 54.1612 38.5301 54.0429 38.8983C53.9247 39.2666 53.6857 39.5831 53.3656 39.7949L48.929 42.719L47.5374 47.9004C47.438 48.2743 47.2151 48.6026 46.9057 48.8304C46.5963 49.0582 46.2192 49.1718 45.8371 49.1521L40.5449 48.8853L36.4672 52.2106" stroke="#9A9A9A" stroke-width="2" stroke-linecap="round" stroke-linejoin="round"/>
<path d="M13.3403 45.4464L18.0188 52.4641" stroke="#9A9A9A" stroke-width="2" stroke-linecap="round" stroke-linejoin="round"/>
<path d="M42.4813 42.635L16.625 50.375L14.75 47.5625L31.9212 26L42.4813 42.635Z" stroke="#9A9A9A" stroke-width="2" stroke-linecap="round" stroke-linejoin="round"/>
<path d="M30.6875 24.125L43.8125 44.75" stroke="#9A9A9A" stroke-width="2" stroke-linecap="round" stroke-linejoin="round"/>
<path d="M22.25 49.0925L23.8925 51.6162C24.1641 52.0616 24.5238 52.4465 24.9496 52.7478C25.3753 53.0489 25.8582 53.2599 26.3685 53.3677C26.8787 53.4755 27.4056 53.4779 27.9168 53.3746C28.4281 53.2715 28.9128 53.0649 29.3412 52.7675C30.2172 52.1371 30.8191 51.1959 31.0237 50.1361C31.2283 49.0766 31.0201 47.9787 30.4419 47.0675" stroke="#9A9A9A" stroke-width="2" stroke-linecap="round" stroke-linejoin="round"/>
</svg>
