<svg width="72" height="49" viewBox="0 0 72 49" fill="none" xmlns="http://www.w3.org/2000/svg">
<path fill-rule="evenodd" clip-rule="evenodd" d="M26.9891 0.961426H44.7121V19.2414H26.9891V0.961426ZM23.6714 31.6233C26.6573 31.2925 27.2335 29.1186 27.0123 26.335H44.8867C44.6946 29.6479 45.5735 31.4816 48.2276 31.4012H50.9574V46.0516H20.6623V31.6233H23.6714ZM53.6871 46.7464V30.7679C53.6871 30.0496 54.4147 29.4589 55.2994 29.4589C56.184 29.4589 56.9116 30.0496 56.9116 30.7679V46.7464C56.9116 47.4647 56.184 48.0554 55.2994 48.0554C54.4088 48.0554 53.6871 47.4647 53.6871 46.7464ZM14.6906 46.7464V30.7679C14.6906 30.0496 15.4182 29.4589 16.3029 29.4589C17.1876 29.4589 17.9151 30.0496 17.9151 30.7679V46.7464C17.9151 47.4647 17.1876 48.0554 16.3029 48.0554C15.4123 48.0554 14.6906 47.4647 14.6906 46.7464ZM59.7403 46.0942V31.7037H71.5207V46.0942H59.7403ZM0 46.0469V31.6564H11.8677V46.0469H0ZM25.953 21.5996H45.6317C46.5164 21.5996 47.244 22.1904 47.244 22.9087C47.244 23.627 46.5164 24.2178 45.6317 24.2178H25.953C25.0683 24.2178 24.3408 23.627 24.3408 22.9087C24.3408 22.1856 25.0625 21.5996 25.953 21.5996Z" fill="black"/>
</svg>
