<svg width="43" height="43" viewBox="0 0 43 43" fill="none" xmlns="http://www.w3.org/2000/svg">
<g clip-path="url(#clip0_456_3253)">
<path d="M2.01979 43C1.70424 42.8633 1.35712 42.7686 1.07312 42.5794C0.368374 42.1167 0.010742 41.4226 0.010742 40.5918C0.000223423 35.6493 -0.0102952 30.7068 0.010742 25.7642C0.010742 24.4813 0.894304 23.4612 2.17757 23.4192C4.13403 23.3456 6.09049 23.3981 8.04695 23.4192C8.57288 23.4192 9.02517 23.661 9.38281 24.0291C9.5511 24.1974 9.67733 24.2289 9.8877 24.1027C10.3926 23.8083 10.9185 23.5454 11.4339 23.2509C12.8434 22.4517 13.8217 21.2949 14.3686 19.7701C14.9577 18.1401 15.5467 16.5101 16.1357 14.8802C16.4408 14.0494 16.7563 13.8811 17.6083 14.1546C18.1763 14.3333 18.7654 14.5016 19.3018 14.7645C20.2695 15.2272 20.9743 15.9738 21.4266 16.9413C21.5528 17.2042 21.6896 17.3094 21.9841 17.2989C23.9405 17.2883 25.9075 17.2988 27.864 17.2883C28.3058 17.2883 28.6423 17.425 28.9474 17.7405C29.7784 18.5923 30.6198 19.4336 31.4929 20.3064C31.6401 20.1697 31.7558 20.0646 31.8716 19.9489C32.6184 19.2128 33.3652 18.4661 34.091 17.7195C34.3855 17.4145 34.7116 17.2883 35.1428 17.2883C36.8363 17.2988 38.5298 17.2988 40.2233 17.2883C41.0438 17.2883 41.3278 16.9939 41.3278 16.1736C41.3278 11.7043 41.3278 7.24554 41.3278 2.77623C41.3278 1.95598 41.0332 1.67205 40.2128 1.67205C29.2419 1.68256 18.2921 1.68256 7.33168 1.68256C6.51123 1.68256 6.21671 1.97701 6.21671 2.79726C6.21671 7.26657 6.21671 11.7254 6.21671 16.1947C6.21671 17.0149 6.51123 17.2989 7.33168 17.3094C7.72087 17.3094 8.12058 17.2989 8.50976 17.3094C9.03569 17.3304 9.39333 17.6669 9.40384 18.1296C9.41436 18.6028 9.04621 18.9604 8.49925 18.9814C8.04695 18.9919 7.60517 18.9919 7.15287 18.9814C5.60663 18.9604 4.54425 17.8983 4.53374 16.3524C4.52322 14.6909 4.53374 13.0188 4.53374 11.3573C4.53374 8.49694 4.53374 5.6471 4.53374 2.78674C4.54425 1.03057 5.57508 0 7.33168 0C18.1658 0 29 0 39.8341 0C41.7275 0 42.306 0.378577 43.0107 2.1032C43.0107 7.03522 43.0107 11.9567 43.0107 16.8887C42.306 18.6134 41.738 18.9919 39.8341 18.9919C38.4246 18.9919 37.0046 19.0024 35.5951 18.9814C35.3217 18.9814 35.1323 19.0655 34.943 19.2548C34.0699 20.1487 33.1864 21.0215 32.3028 21.8944C31.7138 22.4727 31.3036 22.4832 30.7355 21.9049C29.8415 21.0215 28.9579 20.1171 28.0533 19.2443C27.906 19.0971 27.6536 18.9919 27.4432 18.9919C25.8339 18.9709 24.2245 18.9814 22.6152 18.9814C22.3943 18.9814 22.1734 18.9814 21.9525 18.9814C21.9946 19.0024 22.0262 19.034 22.0682 19.055C21.6475 20.4747 21.2162 21.9049 20.785 23.3561C20.9427 23.3561 21.09 23.3561 21.2478 23.3561C23.2463 23.3561 25.2448 23.3456 27.2539 23.3561C28.8738 23.3666 30.0413 24.2079 30.441 25.6801C30.6619 26.4688 30.5462 27.226 30.157 27.9621C31.5034 28.4879 32.3028 29.4343 32.3344 30.875C32.3659 32.3157 31.577 33.2727 30.3043 33.8616C30.7776 34.7449 30.8513 35.6178 30.5147 36.5221C30.1675 37.437 29.4733 38.0049 28.5898 38.373C29.1472 39.4666 29.1157 40.5182 28.5056 41.5278C28.0007 42.3585 27.2118 42.7687 26.2967 42.979C22.0998 42.979 17.9029 42.979 13.6954 42.979C12.3911 42.8002 11.1394 42.4742 9.92977 41.9694C9.85614 41.9379 9.70888 41.9905 9.65629 42.0536C9.25658 42.5794 8.68858 42.8212 8.06798 42.979C6.04841 43 4.03936 43 2.01979 43ZM17.5558 15.9318C17.0193 17.404 16.4934 18.8447 15.978 20.2854C15.3889 21.9469 14.4002 23.314 12.9276 24.292C12.1597 24.8073 11.3393 25.2279 10.5293 25.6591C10.2558 25.8063 10.1612 25.9641 10.1612 26.269C10.1717 30.2125 10.1717 34.1665 10.1717 38.1101C10.1717 38.741 10.1612 39.372 10.1822 40.0029C10.1822 40.1186 10.2769 40.2974 10.3821 40.3394C11.7495 40.9389 13.1695 41.3385 14.6842 41.3174C16.0832 41.3069 17.4821 41.3174 18.8811 41.3174C21.1741 41.3174 23.4672 41.3174 25.7708 41.3174C26.3283 41.3174 26.7911 41.1281 27.0961 40.6549C27.6641 39.7716 27.0961 38.5938 26.0443 38.5412C25.0345 38.4886 24.0247 38.5307 23.0254 38.5097C22.4259 38.4991 22.0893 38.1521 22.1103 37.6473C22.1313 37.1636 22.4679 36.8586 23.0465 36.8481C23.5093 36.8376 23.9721 36.8481 24.4349 36.8481C25.4447 36.8481 26.4545 36.8481 27.4537 36.8481C27.8955 36.8481 28.3268 36.7745 28.6423 36.438C29.0526 36.0068 29.1893 35.4916 28.9579 34.9342C28.716 34.3453 28.2426 34.0509 27.6115 34.0509C26.1705 34.0404 24.7294 34.0509 23.2884 34.0509C22.4995 34.0509 22.1208 33.788 22.1103 33.2306C22.0998 32.6522 22.4995 32.3683 23.2989 32.3683C25.2554 32.3683 27.2223 32.3683 29.1788 32.3683C29.6416 32.3683 30.0413 32.2421 30.3464 31.8951C30.725 31.4534 30.8197 30.9381 30.5778 30.4123C30.3358 29.8655 29.8835 29.5816 29.284 29.5816C27.296 29.5816 25.308 29.5816 23.3199 29.5816C23.1306 29.5816 22.9308 29.571 22.7414 29.529C22.1734 29.3818 21.942 28.7403 22.2681 28.2671C22.4785 27.9621 22.7835 27.9095 23.1201 27.9095C24.477 27.9095 25.8339 27.9095 27.1908 27.9095C27.4117 27.9095 27.6431 27.899 27.8535 27.8464C28.5477 27.6782 28.9895 26.9946 28.8738 26.2795C28.7475 25.5224 28.1795 25.0912 27.296 25.0912C24.8451 25.0912 22.3943 25.0912 19.9435 25.0912C18.8811 25.0912 18.5761 24.6706 18.9127 23.6716C19.3018 22.5148 19.7015 21.3685 20.0697 20.2118C20.6693 18.1822 19.5858 16.3103 17.5558 15.9318ZM5.92219 25.0492C5.92219 25.2805 5.92219 25.4593 5.92219 25.6381C5.92219 28.7298 5.92219 31.8215 5.92219 34.9132C5.92219 35.0394 5.92219 35.1656 5.92219 35.2918C5.89063 35.8701 5.57508 36.2066 5.09122 36.2066C4.60737 36.2066 4.28129 35.8701 4.24973 35.3023C4.23922 35.1656 4.24973 35.0183 4.24973 34.8816C4.24973 31.7899 4.24973 28.6982 4.24973 25.6065C4.24973 25.4277 4.24973 25.249 4.24973 25.0386C3.67121 25.0386 3.1558 25.0386 2.64039 25.0386C1.93564 25.0492 1.6832 25.3015 1.6832 26.0166C1.6832 30.7909 1.6832 35.5652 1.6832 40.3394C1.6832 41.0756 1.92513 41.3174 2.66143 41.3174C4.27077 41.3174 5.88012 41.3174 7.48946 41.3174C8.25732 41.3174 8.47821 41.0861 8.47821 40.3079C8.47821 37.7841 8.47821 35.2707 8.47821 32.7469C8.47821 30.4754 8.47821 28.2145 8.47821 25.943C8.47821 25.3752 8.2468 25.0807 7.75243 25.0492C7.1739 25.0281 6.59538 25.0492 5.92219 25.0492Z" fill="#9A9A9A"/>
<path d="M34.7429 4.94265C35.2899 4.95316 35.6685 5.21606 35.921 5.67877C36.1103 6.03631 36.2681 6.41489 36.4785 6.76192C36.5521 6.88811 36.7309 7.0143 36.8782 7.04585C37.2463 7.12998 37.625 7.16153 37.9931 7.22462C38.5506 7.30875 38.9503 7.59268 39.1397 8.13952C39.329 8.68635 39.1607 9.15957 38.7715 9.55918C38.498 9.84311 38.2035 10.0955 37.9406 10.3899C37.8459 10.4951 37.7828 10.6844 37.7933 10.8211C37.8354 11.2417 37.9406 11.6519 37.9826 12.062C38.0983 13.2188 37.0885 13.9338 36.0262 13.4396C35.658 13.2713 35.3109 13.0505 34.9428 12.8822C34.8165 12.8297 34.6167 12.8297 34.4905 12.8822C34.1223 13.0505 33.7752 13.2503 33.407 13.4396C32.8916 13.7025 32.3973 13.6604 31.945 13.3134C31.5137 12.9769 31.2928 12.4931 31.4611 11.9779C31.7872 10.9683 31.5768 10.2007 30.6932 9.56969C30.2304 9.23318 30.0937 8.69686 30.2935 8.129C30.4829 7.57165 30.9036 7.22462 31.4821 7.22462C32.5235 7.23514 33.1441 6.77243 33.4596 5.78393C33.649 5.23709 34.1223 4.93213 34.7429 4.94265ZM36.2155 11.6308C35.7948 10.4425 36.1208 9.52763 37.1201 8.79151C35.8368 8.82306 35.09 8.22364 34.7219 7.03533C34.3642 8.25519 33.5753 8.81254 32.3131 8.80202C33.365 9.51711 33.6174 10.4425 33.2493 11.6203C34.2485 10.8737 35.2057 10.8947 36.2155 11.6308Z" fill="#9A9A9A"/>
<path d="M10.0768 12.0935C10.1294 11.7781 10.1715 11.3364 10.2767 10.9052C10.3398 10.6423 10.2661 10.4846 10.0768 10.3268C9.80332 10.085 9.55088 9.83259 9.28791 9.56969C8.87769 9.15956 8.73043 8.66531 8.93028 8.10796C9.11961 7.57164 9.54036 7.23513 10.0978 7.23513C11.1287 7.23513 11.7703 6.81449 12.0859 5.80495C12.2647 5.2476 12.7275 4.93212 13.3481 4.94264C13.9687 4.94264 14.421 5.26863 14.5998 5.82598C14.9048 6.82501 15.557 7.22461 16.5563 7.23513C17.1348 7.24565 17.566 7.57164 17.7554 8.12899C17.9552 8.69686 17.829 9.25421 17.3452 9.60123C16.4826 10.2217 16.2723 10.9683 16.5878 11.9673C16.7666 12.5037 16.5457 13.0295 16.0619 13.366C15.5991 13.7025 15.0942 13.692 14.5998 13.4396C14.1791 13.2293 13.7583 12.8507 13.327 12.8507C12.9063 12.8507 12.4856 13.2398 12.0648 13.4501C11.0761 13.9128 10.0663 13.2924 10.0768 12.0935ZM13.4112 7.08791C13.0746 7.57164 12.8642 8.08693 12.475 8.37086C12.0859 8.65479 11.5179 8.70737 10.9393 8.88614C12.0227 9.53814 12.2226 10.4741 11.886 11.6413C12.8853 10.8316 13.8425 10.9157 14.8417 11.6203C14.4315 10.432 14.7576 9.52762 15.7463 8.80202C14.4841 8.83356 13.7268 8.24467 13.4112 7.08791Z" fill="#9A9A9A"/>
<path d="M25.739 13.5973C25.4655 13.4606 24.9922 13.2818 24.5714 13.0295C24.1928 12.7981 23.8772 12.7771 23.5091 13.04C23.2566 13.2188 22.9726 13.3344 22.6991 13.4711C22.1942 13.713 21.7104 13.6604 21.2791 13.3344C20.8584 13.0084 20.7006 12.5562 20.7742 12.0304C20.8268 11.6413 20.932 11.2628 20.9636 10.8737C20.9741 10.7054 20.911 10.4951 20.8058 10.3689C20.5533 10.0745 20.2483 9.82208 19.9748 9.53815C19.5856 9.14905 19.4594 8.67583 19.6277 8.15003C19.796 7.6032 20.2062 7.24565 20.7637 7.23514C21.8261 7.22462 22.4887 6.8145 22.8148 5.77341C22.9831 5.23709 23.4459 4.93213 24.0455 4.94265C24.6451 4.94265 25.1079 5.23709 25.2867 5.77341C25.6128 6.8145 26.286 7.23514 27.3378 7.23514C27.8743 7.23514 28.274 7.58217 28.4633 8.10797C28.6526 8.64428 28.5159 9.12802 28.1267 9.53815C27.8427 9.83259 27.5377 10.0955 27.2642 10.4005C27.1695 10.5056 27.1169 10.6949 27.1274 10.8316C27.1695 11.3154 27.2957 11.7991 27.3168 12.2828C27.3378 13.04 26.7067 13.6289 25.739 13.5973ZM25.434 11.6308C25.434 11.0419 25.3182 10.4951 25.4655 10.0324C25.6128 9.58021 26.044 9.21215 26.3175 8.84409C25.8547 8.69686 25.2867 8.64428 24.8975 8.36035C24.5083 8.07642 24.2979 7.55062 24.0245 7.16153C23.7615 7.55062 23.5511 8.07642 23.1619 8.34984C22.7622 8.64428 22.1942 8.68635 21.6052 8.87564C22.6886 9.5066 22.899 10.4425 22.5519 11.6098C23.5722 10.8737 24.5294 10.8947 25.434 11.6308Z" fill="#9A9A9A"/>
<path d="M12.9589 18.1612C12.9484 18.6134 12.5592 18.992 12.1174 18.971C11.6651 18.9604 11.3075 18.5714 11.318 18.1192C11.3285 17.667 11.7177 17.2884 12.1595 17.3094C12.6118 17.3199 12.9694 17.709 12.9589 18.1612Z" fill="#9A9A9A"/>
<path d="M5.091 37.5742C5.5433 37.5847 5.90093 37.9528 5.91145 38.4155C5.91145 38.8887 5.53278 39.2568 5.05944 39.2463C4.59663 39.2358 4.26003 38.8572 4.27055 38.3945C4.27055 37.9423 4.64922 37.5742 5.091 37.5742Z" fill="#9A9A9A"/>
</g>
<defs>
<clipPath id="clip0_456_3253">
<rect width="43" height="43" fill="white"/>
</clipPath>
</defs>
</svg>
