<svg width="22" height="27" viewBox="0 0 22 27" fill="none" xmlns="http://www.w3.org/2000/svg">
<path d="M11.2737 26.8876C9.29976 26.8876 7.33174 26.8876 5.35775 26.8876C2.40572 26.8876 0.264751 24.4962 0.592755 21.562C0.950577 18.3655 2.63234 16.147 5.59034 14.9065C6.4014 14.5666 7.26614 14.3996 8.14877 14.3937C10.2301 14.3817 12.3174 14.3698 14.3987 14.3937C18.0843 14.4414 21.3285 17.298 21.8951 20.9418C22.068 22.0689 22.074 23.1722 21.5432 24.2159C20.6845 25.9155 19.289 26.8399 17.3806 26.8816C15.347 26.9234 13.3074 26.8876 11.2737 26.8876ZM11.2797 25.1045C13.2775 25.1045 15.2814 25.1164 17.2792 25.0985C18.5316 25.0866 19.4381 24.4902 19.9688 23.3571C20.2849 22.6832 20.2551 21.9616 20.1298 21.2519C19.5931 18.2343 17.142 16.1828 14.0767 16.1768C12.21 16.1768 10.3374 16.1708 8.47081 16.1768C8.11895 16.1768 7.76112 16.1947 7.41523 16.2543C4.61229 16.7612 2.65023 18.8843 2.36397 21.723C2.16717 23.6732 3.4613 25.0985 5.42335 25.0985C7.37348 25.1045 9.32958 25.1045 11.2797 25.1045Z" fill="#231F20"/>
<path d="M11.2733 0.0976658C14.7203 0.0917021 17.5233 2.88868 17.5352 6.3357C17.5412 9.79465 14.7382 12.6035 11.2733 12.6035C7.82628 12.5976 5.02931 9.80061 5.02931 6.35359C5.02334 2.90061 7.82628 0.103629 11.2733 0.0976658ZM11.2912 1.88081C8.82222 1.87485 6.81842 3.87269 6.81245 6.34166C6.81245 8.79871 8.80433 10.8025 11.2554 10.8085C13.7244 10.8204 15.7401 8.82256 15.7461 6.35955C15.752 3.89654 13.7542 1.88678 11.2912 1.88081Z" fill="#D7282F"/>
</svg>
