<svg width="51" height="49" viewBox="0 0 51 49" fill="none" xmlns="http://www.w3.org/2000/svg">
<g clip-path="url(#clip0_1218_67)">
<path d="M52.1353 27.8435C52.0079 28.77 51.1419 29.5257 50.2067 29.5257H45.383C44.4477 29.5257 43.4779 30.1209 43.2274 30.8489C42.9768 31.5761 42.6317 33.9102 43.2906 34.5695L46.703 37.9796C47.3627 38.6403 47.413 39.7665 46.8155 40.4849L42.8038 44.4989C42.085 45.0969 40.9592 45.0471 40.2985 44.385L36.8889 40.9744C36.2291 40.3137 35.1287 40.0475 34.444 40.3839C33.7603 40.7198 31.8423 42.1325 31.8423 43.0654V47.8901C31.8423 48.8244 31.0847 49.6918 30.1601 49.8219C30.1601 49.8219 28.8613 50 27.3134 50C27.2981 50 27.282 50 27.2663 49.9995V34.1478C27.2802 34.1478 27.2963 34.1497 27.3125 34.1497C32.3651 34.1497 36.4635 30.0531 36.4635 24.9977C36.4635 19.9446 32.366 15.8476 27.3125 15.8476C27.2972 15.8476 27.2811 15.8494 27.2663 15.8494V0C27.2802 0 27.2963 0 27.3134 0C28.8604 0 30.1601 0.179478 30.1601 0.179478C31.0847 0.305896 31.8423 1.17376 31.8423 2.10713V6.93042C31.8423 7.86565 32.4361 8.83409 33.1646 9.086C33.8918 9.33653 36.2273 9.68303 36.8861 9.02141L40.2953 5.60995C40.9564 4.95017 42.0831 4.90126 42.8011 5.49829L46.8123 9.50955C47.4098 10.2275 47.3609 11.3542 46.6988 12.0162L43.2887 15.4263C42.629 16.0866 42.3614 17.1851 42.6968 17.8693C43.0336 18.5531 44.4459 20.4702 45.3802 20.4702H50.2039H50.2058C51.1401 20.4702 52.0079 21.2287 52.1344 22.1524C52.1344 22.1524 52.3143 23.4507 52.3143 24.9995C52.3148 26.5447 52.1353 27.8435 52.1353 27.8435ZM3.87838 15.1947C3.87838 13.8184 4.994 12.7005 6.37261 12.7005H20.0807C21.4603 12.7005 22.575 13.8184 22.575 15.1947C22.575 16.5715 21.4603 17.6885 20.0807 17.6885H6.37261C4.994 17.6889 3.87838 16.5719 3.87838 15.1947ZM20.0807 28.118H2.49423C1.11608 28.118 0 27.0001 0 25.6238C0 24.2479 1.11608 23.1305 2.49423 23.1305H20.0807C21.4603 23.1305 22.575 24.2479 22.575 25.6238C22.575 27.0001 21.4603 28.118 20.0807 28.118ZM9.97093 4.76562C9.97093 3.38885 11.0875 2.27231 12.4652 2.27231H20.1527C21.5309 2.27231 22.6465 3.38885 22.6465 4.76562C22.6465 6.14284 21.5309 7.25985 20.1527 7.25985H12.4652C11.0875 7.25985 9.97093 6.14284 9.97093 4.76562ZM20.0807 38.549H6.37261C4.994 38.549 3.87838 37.4329 3.87838 36.0556C3.87838 34.6793 4.994 33.5619 6.37261 33.5619H20.0807C21.4603 33.5619 22.575 34.6793 22.575 36.0556C22.575 37.4329 21.4603 38.549 20.0807 38.549ZM22.647 46.4833C22.647 47.8606 21.5313 48.9785 20.1532 48.9785H12.4652C11.0875 48.9785 9.97093 47.8606 9.97093 46.4833C9.97093 45.1066 11.0875 43.99 12.4652 43.99H20.1527C21.5313 43.9896 22.647 45.1057 22.647 46.4833Z" fill="url(#paint0_linear_1218_67)"/>
</g>
<defs>
<linearGradient id="paint0_linear_1218_67" x1="54.9027" y1="22.6037" x2="-2.30871" y2="25.1413" gradientUnits="userSpaceOnUse">
<stop stop-color="#D7282F"/>
<stop offset="1" stop-color="#231F20"/>
</linearGradient>
<clipPath id="clip0_1218_67">
<rect width="51" height="49" fill="white"/>
</clipPath>
</defs>
</svg>
