<svg width="127" height="127" viewBox="0 0 127 127" fill="none" xmlns="http://www.w3.org/2000/svg">
<g clip-path="url(#clip0_1046_361)">
<path d="M36.6459 37.401L36.7166 37.3303L36.6459 37.2596L18.0172 18.6295L17.9465 18.5588L17.8758 18.6295C16.2379 20.2675 14.7108 21.9857 13.2844 23.7437L13.2389 23.7998L13.2779 23.8607L19.5717 33.6662C17.8823 36.0932 16.4073 38.6277 15.1758 41.2503L3.54578 40.7117L3.47387 40.7084L3.44789 40.7755C1.78004 45.0861 0.59444 49.5375 -0.0988399 54.0492L-0.109754 54.1202L-0.0459195 54.1532L10.2975 59.4999C10.0537 62.4109 10.0537 65.3412 10.2975 68.2522L-0.0459195 73.5989L-0.109754 73.6319L-0.0988399 73.7029C0.59444 78.2146 1.78004 82.666 3.44789 86.9766L3.47387 87.0437L3.54578 87.0404L15.1658 86.5017C16.3973 89.1244 17.8722 91.6588 19.5617 94.0859L13.2679 103.891L13.2289 103.952L13.2742 104.008C14.7009 105.777 16.228 107.485 17.8658 109.123C19.5037 110.761 21.2217 112.288 22.9796 113.714L23.0357 113.76L23.0966 113.721L32.9013 107.427C35.3282 109.116 37.8624 110.591 40.4848 111.823L39.9462 123.444L39.9429 123.516L40.01 123.542C44.3203 125.21 48.7713 126.395 53.2827 127.089L53.3537 127.1L53.3867 127.036L58.733 116.691C61.6438 116.935 64.5738 116.935 67.4846 116.691L72.8308 127.036L72.8638 127.1L72.9349 127.089C77.4462 126.395 81.8972 125.21 86.2075 123.542L86.2746 123.516L86.2713 123.444L85.7327 111.823C88.3552 110.591 90.8894 109.116 93.3162 107.427L103.121 113.711L103.182 113.75L103.238 113.704C105.006 112.278 106.714 110.75 108.352 109.113L108.422 109.042L108.352 108.971L89.7331 90.351L89.6624 90.2803L89.5917 90.351C74.9746 104.969 51.273 104.969 36.6459 90.351C22.0288 75.7328 22.0288 52.0293 36.6459 37.401Z" fill="url(#paint0_linear_1046_361)" stroke="url(#paint1_linear_1046_361)" stroke-width="0.2"/>
<path d="M50.3991 51.1654L50.4698 51.0947L50.3991 51.024L41.4208 42.045L41.3501 41.9743L41.2794 42.045C40.4842 42.8403 39.7496 43.6656 39.0654 44.5107L39.02 44.5669L39.059 44.6276L42.0726 49.3269C41.2756 50.4799 40.5733 51.6894 39.9841 52.928L34.4229 52.6702L34.3509 52.6669L34.325 52.7341C33.5199 54.8174 32.9462 56.9613 32.614 59.1356L32.6032 59.2066L32.667 59.2396L37.6235 61.7973C37.51 63.1831 37.51 64.5689 37.6235 65.9546L32.667 68.5124L32.6032 68.5453L32.614 68.6163C32.9462 70.7905 33.5199 72.9445 34.325 75.018L34.3511 75.085L34.4229 75.0817L39.9839 74.824C40.5733 76.0721 41.2757 77.2724 42.0726 78.4251L39.059 83.1243L39.0202 83.1847L39.0651 83.2408C39.7497 84.0966 40.4945 84.922 41.2794 85.7069C42.0746 86.5022 42.8998 87.2369 43.7449 87.9211L43.801 87.9665L43.8618 87.9275L48.5607 84.9137C49.7136 85.7107 50.923 86.413 52.1615 87.0023L51.9038 92.564L51.9004 92.6359L51.9676 92.6619C54.0508 93.467 56.1945 94.0408 58.3686 94.373L58.4397 94.3838L58.4726 94.32L61.0301 89.3631C62.4158 89.4766 63.8015 89.4766 65.1871 89.3631L67.7446 94.32L67.7776 94.3838L67.8486 94.373C70.0226 94.0408 72.1765 93.4671 74.2498 92.6618L74.3168 92.6358L74.3135 92.564L74.0558 87.0025C75.3038 86.4131 76.504 85.7106 77.6566 84.9137L82.3554 87.9275L82.4158 87.9663L82.4719 87.9214C83.3277 87.2367 84.153 86.4919 84.9379 85.7069L85.0086 85.6362L84.9379 85.5655L75.9596 76.5865L75.8887 76.5157L75.818 76.5867C68.815 83.6202 57.4223 83.6204 50.3991 76.5966C43.3759 69.5728 43.3759 58.1892 50.3991 51.1654Z" fill="url(#paint2_linear_1046_361)" stroke="url(#paint3_linear_1046_361)" stroke-width="0.2"/>
<path d="M45.3495 14.1709L45.2746 14.3717L45.4766 14.3C64.0102 7.72115 85.4971 11.8369 100.336 26.6765C119.079 45.4215 120.721 74.7907 105.262 95.4081L105.21 95.4775L105.271 95.5388L113.226 103.495L113.306 103.574L113.375 103.486C133.219 78.3655 131.561 41.8207 108.372 18.6396C90.0957 0.351971 63.5205 -4.54122 40.7838 3.90911L40.5814 3.98432L40.7696 4.09004L42.7769 5.21736L45.9771 12.503L45.945 12.5873C45.9146 12.6673 45.87 12.7846 45.8136 12.9339C45.7007 13.2325 45.5401 13.6591 45.3495 14.1709Z" fill="url(#paint4_linear_1046_361)" stroke="url(#paint5_linear_1046_361)" stroke-width="0.2"/>
<path d="M32.647 19.7252L32.5076 19.7973L32.6319 19.8932C35.8612 22.3836 40.3668 22.9613 44.2251 20.9662L44.2252 20.9662C49.5407 18.212 51.6265 11.6708 48.8725 6.3447L48.8725 6.34463C46.1185 1.02867 39.5778 -1.05725 34.2521 1.69694L34.252 1.69698C30.3838 3.70211 28.2579 7.70217 28.43 11.7822L28.4366 11.9389L28.5758 11.8668L37.6171 7.18614L42.2866 9.74672L41.6882 15.0445L32.647 19.7252Z" fill="url(#paint6_linear_1046_361)" stroke="url(#paint7_linear_1046_361)" stroke-width="0.2"/>
<path d="M50.5286 40.7823L50.5814 40.835L50.6469 40.7995C60.5906 35.4125 73.2723 36.9119 81.6767 45.3169C87.0031 50.6437 89.5315 57.6894 89.3216 64.6659L89.3163 64.8446L89.4713 64.7557L93.5355 62.4246L98.9956 63.0787L100.566 64.6494L100.733 64.8158L100.737 64.5805C100.918 54.7128 97.2567 44.7843 89.7331 37.26L89.733 37.2599C76.8583 24.3943 56.9932 22.795 42.3784 32.4719L42.2763 32.5395L42.3629 32.626L50.5286 40.7823Z" fill="url(#paint8_linear_1046_361)" stroke="url(#paint9_linear_1046_361)" stroke-width="0.2"/>
<path d="M102.375 62.022L102.375 62.022C98.2744 57.6679 91.4299 57.4553 87.066 61.546L87.0659 61.5462C82.7121 65.6471 82.4995 72.4922 86.59 76.8564L86.5902 76.8565C90.6908 81.2106 97.5353 81.4232 101.899 77.3324L101.899 77.3323C106.253 73.2314 106.466 66.3763 102.375 62.022ZM93.8978 74.9576L89.4067 71.6947L89.9865 66.1714L95.0573 63.9208L99.5484 67.1838L98.9686 72.7071L93.8978 74.9576Z" fill="url(#paint10_linear_1046_361)" stroke="url(#paint11_linear_1046_361)" stroke-width="0.2"/>
</g>
<defs>
<linearGradient id="paint0_linear_1046_361" x1="54.1405" y1="18.7002" x2="54.1405" y2="126.99" gradientUnits="userSpaceOnUse">
<stop stop-color="#CA252C"/>
<stop offset="1" stop-color="#231F20"/>
</linearGradient>
<linearGradient id="paint1_linear_1046_361" x1="54.1405" y1="18.7002" x2="54.1405" y2="126.99" gradientUnits="userSpaceOnUse">
<stop stop-color="#CE262D"/>
<stop offset="1"/>
</linearGradient>
<linearGradient id="paint2_linear_1046_361" x1="58.79" y1="42.1157" x2="58.79" y2="94.2741" gradientUnits="userSpaceOnUse">
<stop stop-color="#CA252C"/>
<stop offset="1" stop-color="#231F20"/>
</linearGradient>
<linearGradient id="paint3_linear_1046_361" x1="58.79" y1="42.1157" x2="58.79" y2="94.2741" gradientUnits="userSpaceOnUse">
<stop stop-color="#CE262D"/>
<stop offset="1"/>
</linearGradient>
<linearGradient id="paint4_linear_1046_361" x1="83.9131" y1="-0.00292969" x2="83.9131" y2="103.424" gradientUnits="userSpaceOnUse">
<stop stop-color="#CA252C"/>
<stop offset="1" stop-color="#231F20"/>
</linearGradient>
<linearGradient id="paint5_linear_1046_361" x1="83.9131" y1="-0.00292969" x2="83.9131" y2="103.424" gradientUnits="userSpaceOnUse">
<stop stop-color="#CE262D"/>
<stop offset="1"/>
</linearGradient>
<linearGradient id="paint6_linear_1046_361" x1="39.254" y1="0.581543" x2="39.254" y2="22.0682" gradientUnits="userSpaceOnUse">
<stop stop-color="#CA252C"/>
<stop offset="1" stop-color="#231F20"/>
</linearGradient>
<linearGradient id="paint7_linear_1046_361" x1="39.254" y1="0.581543" x2="39.254" y2="22.0682" gradientUnits="userSpaceOnUse">
<stop stop-color="#CE262D"/>
<stop offset="1"/>
</linearGradient>
<linearGradient id="paint8_linear_1046_361" x1="71.5384" y1="26.3428" x2="71.5384" y2="64.6689" gradientUnits="userSpaceOnUse">
<stop stop-color="#CA252C"/>
<stop offset="1" stop-color="#231F20"/>
</linearGradient>
<linearGradient id="paint9_linear_1046_361" x1="71.5384" y1="26.3428" x2="71.5384" y2="64.6689" gradientUnits="userSpaceOnUse">
<stop stop-color="#CE262D"/>
<stop offset="1"/>
</linearGradient>
<linearGradient id="paint10_linear_1046_361" x1="94.4826" y1="58.7119" x2="94.4826" y2="80.1666" gradientUnits="userSpaceOnUse">
<stop stop-color="#CA252C"/>
<stop offset="1" stop-color="#231F20"/>
</linearGradient>
<linearGradient id="paint11_linear_1046_361" x1="94.4826" y1="58.7119" x2="94.4826" y2="80.1666" gradientUnits="userSpaceOnUse">
<stop stop-color="#CE262D"/>
<stop offset="1"/>
</linearGradient>
<clipPath id="clip0_1046_361">
<rect width="127" height="127" fill="white"/>
</clipPath>
</defs>
</svg>
