<svg width="67" height="67" viewBox="0 0 67 67" fill="none" xmlns="http://www.w3.org/2000/svg">
<g clip-path="url(#clip0_8509_11290)">
<path d="M62.5575 11.9314H59.5525V10.0552C59.5525 7.98005 57.8646 6.29283 55.7908 6.29283H53.2227V3.88058C53.2227 1.80615 51.5355 0.118164 49.4603 0.118164H4.36593C2.2907 0.118164 0.603516 1.80615 0.603516 3.88058V58.0354C0.603516 62.8721 4.53821 66.8068 9.37494 66.8068H58.7863C62.9875 66.8068 66.3199 62.6015 66.3199 57.5486V15.6945C66.3199 13.6194 64.632 11.9314 62.5575 11.9314ZM9.37494 64.836C5.62481 64.836 2.57438 61.7848 2.57438 58.0354V3.88058C2.57438 2.8927 3.37806 2.08902 4.36593 2.08902H49.4603C50.4481 2.08902 51.2518 2.8927 51.2518 3.88058V57.5486C51.2518 60.4936 52.3766 63.1345 54.1412 64.836H9.37494ZM64.3491 57.5486C64.3491 59.5758 63.7128 61.4054 62.6966 62.7231C61.6805 64.0405 60.2951 64.836 58.7863 64.836C57.2774 64.836 55.892 64.0405 54.8759 62.7231C53.8597 61.4054 53.2234 59.5758 53.2234 57.5486V8.26369H55.7916C56.7786 8.26369 57.5824 9.06799 57.5824 10.0552V58.0839C57.5824 58.6287 58.0231 59.0694 58.5678 59.0694C59.1126 59.0694 59.5533 58.6287 59.5533 58.0839V13.9022H62.5583C63.5453 13.9022 64.3491 14.7065 64.3491 15.6938V57.5486Z" fill="#9A9A9A" stroke="#9A9A9A" stroke-width="0.5"/>
<path d="M9.17205 45.5922H26.5944C27.8753 45.5922 28.9168 44.5507 28.9168 43.2698V25.6437C28.9168 24.3628 27.8753 23.3213 26.5944 23.3213H9.17205C7.89112 23.3213 6.84961 24.3628 6.84961 25.6437V43.2698C6.84961 44.5499 7.89106 45.5922 9.17205 45.5922ZM8.82047 25.6437C8.82047 25.4501 8.97844 25.2921 9.17205 25.2921H26.5944C26.788 25.2921 26.946 25.4501 26.946 25.6437V43.2698C26.946 43.4634 26.788 43.6214 26.5944 43.6214H9.17205C8.97844 43.6214 8.82047 43.4634 8.82047 43.2698V25.6437Z" fill="#9A9A9A" stroke="#9A9A9A" stroke-width="0.5"/>
<path d="M34.4522 25.2921H45.7845C46.3294 25.2921 46.7699 24.8506 46.7699 24.3067C46.7699 23.7629 46.3294 23.3213 45.7845 23.3213H34.4522C33.9082 23.3213 33.4668 23.7627 33.4668 24.3067C33.4668 24.8507 33.9082 25.2921 34.4522 25.2921Z" fill="#9A9A9A" stroke="#9A9A9A" stroke-width="0.5"/>
<path d="M34.4522 32.0587H45.7845C46.3294 32.0587 46.7699 31.6172 46.7699 31.0733C46.7699 30.5295 46.3294 30.0879 45.7845 30.0879H34.4522C33.9082 30.0879 33.4668 30.5293 33.4668 31.0733C33.4668 31.6173 33.9082 32.0587 34.4522 32.0587Z" fill="#9A9A9A" stroke="#9A9A9A" stroke-width="0.5"/>
<path d="M34.4522 38.8254H45.7845C46.3292 38.8254 46.7699 38.3847 46.7699 37.8399C46.7699 37.2952 46.3292 36.8545 45.7845 36.8545H34.4522C33.9084 36.8545 33.4668 37.295 33.4668 37.8399C33.4668 38.3848 33.9084 38.8254 34.4522 38.8254Z" fill="#9A9A9A" stroke="#9A9A9A" stroke-width="0.5"/>
<path d="M34.4522 45.592H45.7845C46.3292 45.592 46.7699 45.1513 46.7699 44.6065C46.7699 44.0618 46.3292 43.6211 45.7845 43.6211H34.4522C33.9084 43.6211 33.4668 44.0616 33.4668 44.6065C33.4668 45.1515 33.9084 45.592 34.4522 45.592Z" fill="#9A9A9A" stroke="#9A9A9A" stroke-width="0.5"/>
<path d="M7.83504 52.3586H45.7847C46.3294 52.3586 46.7701 51.9179 46.7701 51.3731C46.7701 50.8284 46.3294 50.3877 45.7847 50.3877H7.83504C7.29117 50.3877 6.84961 50.8282 6.84961 51.3731C6.84961 51.9181 7.29117 52.3586 7.83504 52.3586Z" fill="#9A9A9A" stroke="#9A9A9A" stroke-width="0.5"/>
<path d="M7.83504 59.1261H45.7847C46.3294 59.1261 46.7701 58.6855 46.7701 58.1407C46.7701 57.5959 46.3294 57.1553 45.7847 57.1553H7.83504C7.29117 57.1553 6.84961 57.5958 6.84961 58.1407C6.84961 58.6856 7.29117 59.1261 7.83504 59.1261Z" fill="#9A9A9A" stroke="#9A9A9A" stroke-width="0.5"/>
</g>
<defs>
<clipPath id="clip0_8509_11290">
<rect width="67" height="67" fill="white"/>
</clipPath>
</defs>
</svg>
