<svg width="67" height="67" viewBox="0 0 67 67" fill="none" xmlns="http://www.w3.org/2000/svg">
<g clip-path="url(#clip0_8465_11343)">
<path d="M64.2481 30.6866H55.9981V4.99607C55.9981 2.32229 54.1123 0.436523 51.4385 0.436523H5.8435C3.16702 0.436523 0.998047 2.6055 0.998047 5.28198V61.5909C0.998047 64.2675 3.16702 66.4365 5.8435 66.4365H58.748C63.3055 66.4365 66.998 62.744 66.998 58.1865V33.4365C66.998 31.9178 65.7669 30.6866 64.2481 30.6866ZM6.49809 5.93657H50.498V33.4365V58.1865C50.498 58.31 50.5014 58.433 50.5073 58.5556C50.5439 59.3874 50.704 60.1866 50.9691 60.9366H6.49809V5.93657ZM61.498 58.1865C61.498 59.7065 60.268 60.9365 58.748 60.9365C58.686 60.9365 58.6255 60.9312 58.5646 60.9272C57.3267 60.8161 56.1185 59.6078 56.0074 58.37C56.0034 58.309 55.9981 58.2484 55.9981 58.1865V36.1865H61.4981L61.498 58.1865Z" fill="#9A9A9A"/>
<path d="M11.998 27.9365H28.498C30.0168 27.9365 31.248 26.7053 31.248 25.1865V11.4365C31.248 9.91771 30.0168 8.68652 28.498 8.68652H11.998C10.4792 8.68652 9.24805 9.91771 9.24805 11.4365V25.1865C9.24805 26.7053 10.4792 27.9365 11.998 27.9365ZM14.7481 14.1866H25.748V22.4366H14.7481V14.1866Z" fill="#9A9A9A"/>
<path d="M44.998 33.4365H11.998C10.4792 33.4365 9.24805 34.6677 9.24805 36.1865C9.24805 37.7053 10.4792 38.9364 11.998 38.9364H44.998C46.5168 38.9364 47.748 37.7053 47.748 36.1865C47.7481 34.6677 46.5168 33.4365 44.998 33.4365Z" fill="#9A9A9A"/>
<path d="M22.9981 41.6865H11.998C10.4792 41.6865 9.24805 42.9177 9.24805 44.4365C9.24805 45.9553 10.4792 47.1864 11.998 47.1864H22.998C24.5167 47.1864 25.7479 45.9553 25.7479 44.4365C25.748 42.9177 24.5169 41.6865 22.9981 41.6865Z" fill="#9A9A9A"/>
<path d="M44.998 11.4414H36.748C35.2292 11.4414 33.998 12.6726 33.998 14.1914C33.998 15.7101 35.2292 16.9413 36.748 16.9413H44.998C46.5168 16.9413 47.748 15.7101 47.748 14.1914C47.7481 12.6727 46.5168 11.4414 44.998 11.4414Z" fill="#9A9A9A"/>
<path d="M44.998 19.6875H36.748C35.2292 19.6875 33.998 20.9187 33.998 22.4375C33.998 23.9562 35.2292 25.1874 36.748 25.1874H44.998C46.5168 25.1874 47.748 23.9562 47.748 22.4375C47.7481 20.9188 46.5168 19.6875 44.998 19.6875Z" fill="#9A9A9A"/>
<path d="M45.0077 41.6865H34.0078C32.489 41.6865 31.2578 42.9177 31.2578 44.4365C31.2578 45.9553 32.489 47.1864 34.0078 47.1864H45.0077C46.5265 47.1864 47.7577 45.9553 47.7577 44.4365C47.7578 42.9177 46.5265 41.6865 45.0077 41.6865Z" fill="#9A9A9A"/>
<path d="M22.9981 49.9365H11.998C10.4792 49.9365 9.24805 51.1677 9.24805 52.6865C9.24805 54.2053 10.4792 55.4364 11.998 55.4364H22.998C24.5167 55.4364 25.7479 54.2053 25.7479 52.6865C25.748 51.1677 24.5169 49.9365 22.9981 49.9365Z" fill="#9A9A9A"/>
<path d="M45.0077 49.9365H34.0078C32.489 49.9365 31.2578 51.1677 31.2578 52.6865C31.2578 54.2053 32.489 55.4364 34.0078 55.4364H45.0077C46.5265 55.4364 47.7577 54.2053 47.7577 52.6865C47.7578 51.1677 46.5265 49.9365 45.0077 49.9365Z" fill="#9A9A9A"/>
</g>
<defs>
<clipPath id="clip0_8465_11343">
<rect width="67" height="67" fill="white"/>
</clipPath>
</defs>
</svg>
