<svg width="78" height="105" viewBox="0 0 78 105" fill="none" xmlns="http://www.w3.org/2000/svg">
<g clip-path="url(#clip0_1188_20)">
<path d="M55.7588 7.53249C55.7588 7.72502 55.7588 7.91754 55.7588 8.11007C55.7588 14.0183 55.7588 19.9265 55.7588 25.8467C55.7588 27.411 56.4024 28.0728 57.9639 28.0728C60.7053 28.0728 63.4468 28.0728 66.1763 28.0728C66.4743 28.0728 66.7722 28.0849 67.0583 28.145C67.8807 28.3255 68.5005 29.0836 68.4886 29.8417C68.4767 30.7923 67.9403 31.5504 67.0821 31.767C66.8199 31.8271 66.5339 31.8512 66.2597 31.8512C63.4587 31.8512 60.6576 31.8632 57.8685 31.8512C54.3881 31.8392 52.04 29.4687 52.04 25.9671C52.04 18.7954 52.028 11.6237 52.0519 4.45204C52.0519 3.82632 51.8731 3.69396 51.289 3.69396C37.3554 3.70599 23.4217 3.70599 9.49992 3.70599C6.06716 3.71802 3.67138 6.13666 3.67138 9.62623C3.67138 30.3832 3.67138 51.1401 3.67138 71.897C3.67138 72.2099 3.67138 72.5468 3.59986 72.8476C3.3734 73.7742 2.5748 74.3036 1.63318 74.2074C0.751148 74.1231 0.083666 73.4132 0.0240694 72.4867C0.0121501 72.3302 0.0121501 72.1618 0.0121501 72.0053C0.0121501 51.1642 0.0121501 30.335 0.0121501 9.49387C0.0121501 4.71676 3.13501 0.950433 7.78354 0.120156C8.28415 0.023892 8.8086 -0.000174025 9.32113 -0.000174025C24.0415 -0.000174025 38.7738 -0.000174025 53.4941 -0.012207C54.3285 -0.012207 54.9721 0.240486 55.4966 0.914334C62.815 10.1797 70.1573 19.4211 77.4519 28.6745C77.7618 29.0595 77.9645 29.6492 77.9645 30.1545C77.9883 52.0305 77.9883 73.9065 77.9883 95.7946C77.9883 100.752 73.9715 104.855 69.0607 105C68.6793 105.012 68.3098 105.012 67.9284 105.012C48.4642 105.012 28.988 105.012 9.52376 105.012C5.36392 105.012 1.94308 102.702 0.596197 98.8871C0.250536 97.9244 0.0598274 96.8655 0.0359887 95.8427C-0.0355271 92.4614 0.0121501 89.0681 0.0121501 85.6869C0.0121501 84.9408 0.310133 84.3632 0.953776 84.0022C1.59742 83.6412 2.25298 83.6773 2.87279 84.0985C3.46875 84.5076 3.6833 85.0972 3.6833 85.8072C3.67138 88.9959 3.67138 92.1726 3.6833 95.3614C3.6833 98.9232 6.05524 101.306 9.59528 101.306C29.2026 101.306 48.8098 101.306 68.4171 101.306C72.0048 101.306 74.341 98.8991 74.341 95.2531C74.341 73.9306 74.341 52.6202 74.3291 31.2977C74.3291 30.9367 74.198 30.5035 73.9715 30.2147C71.5042 27.0861 69.0011 23.9816 66.51 20.853C63.0653 16.5211 59.6445 12.1893 56.2117 7.85738C56.1164 7.73705 56.0091 7.61672 55.9137 7.49639C55.8541 7.50842 55.8065 7.52045 55.7588 7.53249Z" fill="#9A9A9A"/>
<path d="M28.8805 37.4705C27.7482 37.4705 26.6158 37.4705 25.4835 37.4705C22.4679 37.4705 20.4297 35.846 19.6907 32.8859C18.6657 28.7586 17.6287 24.6192 16.6036 20.4919C16.2699 19.1563 15.9361 18.8554 14.6012 18.687C13.6238 18.5666 12.9563 17.7243 13.0159 16.7015C13.0874 15.6186 13.8383 14.9688 14.9826 14.9928C17.3069 15.053 19.357 16.6534 20.0006 18.9156C20.1079 19.3006 20.2271 19.6857 20.2867 20.0828C20.3582 20.54 20.5847 20.6363 21.0138 20.6363C25.3166 20.6243 29.6195 20.6243 33.9224 20.6243C36.9499 20.6363 39.2503 22.6699 39.5721 25.6902C39.6556 26.4242 39.5245 27.2184 39.3457 27.9403C38.8927 29.7212 38.3683 31.4901 37.8558 33.2589C37.1048 35.8821 35.0786 37.4464 32.3729 37.4705C31.2167 37.4825 30.0486 37.4705 28.8805 37.4705ZM21.419 24.3304C21.4309 24.5109 21.419 24.6192 21.4429 24.7035C22.0746 27.2424 22.6944 29.7814 23.3499 32.3204C23.5764 33.2228 24.2797 33.7523 25.2332 33.7523C27.6171 33.7643 29.989 33.7643 32.3729 33.7523C33.3979 33.7523 34.0416 33.2349 34.3157 32.2361C34.8044 30.5034 35.2931 28.7706 35.7818 27.0499C36.2347 25.4134 35.4242 24.3304 33.7317 24.3304C29.846 24.3304 25.9603 24.3304 22.0746 24.3304C21.872 24.3304 21.6693 24.3304 21.419 24.3304Z" fill="#9A9A9A"/>
<path d="M50.1567 60.0324C53.8279 60.0324 57.499 60.0204 61.1702 60.0324C62.3383 60.0324 63.113 60.7785 63.1249 61.8374C63.1369 62.8241 62.4575 63.6062 61.4801 63.7145C61.3251 63.7266 61.1583 63.7266 61.0033 63.7266C53.7564 63.7266 46.5213 63.7266 39.2744 63.7266C38.0348 63.7266 37.2243 63.0527 37.1766 61.9938C37.117 60.8748 37.8798 60.0324 39.0241 60.0204C40.8716 59.9963 42.7191 60.0084 44.5547 60.0084C46.426 60.0324 48.2973 60.0324 50.1567 60.0324Z" fill="#9A9A9A"/>
<path d="M50.1447 78.792C53.8159 78.792 57.487 78.792 61.1582 78.792C62.362 78.792 63.1606 79.5982 63.1248 80.7173C63.0891 81.6438 62.3978 82.3899 61.4919 82.4861C61.3727 82.4982 61.2535 82.4982 61.1343 82.4982C53.8159 82.4982 46.4855 82.4982 39.167 82.4982C37.8678 82.4982 37.0215 81.5716 37.1884 80.3683C37.3195 79.4297 38.0824 78.804 39.1313 78.804C42.8024 78.792 46.4736 78.792 50.1447 78.792Z" fill="#9A9A9A"/>
<path d="M18.5584 63.0529C19.8934 61.6932 21.1687 60.3936 22.4322 59.1061C23.1473 58.3841 23.8506 57.6501 24.5777 56.9401C25.4001 56.1219 26.5444 56.0858 27.2953 56.8198C28.07 57.6019 28.0223 58.721 27.1522 59.5874C24.7803 61.982 22.4084 64.3765 20.0364 66.7711C19.059 67.7578 18.0578 67.7578 17.0804 66.7711C15.9481 65.628 14.8038 64.4848 13.6715 63.3296C12.8252 62.4753 12.7895 61.3201 13.5642 60.55C14.3151 59.804 15.4475 59.8641 16.2699 60.6944C17.0089 61.4405 17.736 62.2106 18.5584 63.0529Z" fill="#9A9A9A"/>
<path d="M18.5228 81.8364C20.3941 79.9472 22.1344 78.1664 23.8865 76.3975C24.1606 76.1087 24.4348 75.8199 24.7328 75.5552C25.4598 74.8813 26.5683 74.8813 27.2716 75.5552C27.9987 76.2531 28.0702 77.4083 27.3431 78.1543C24.852 80.7053 22.337 83.2443 19.8101 85.7592C19.1188 86.4451 18.0341 86.4571 17.3309 85.7712C16.0317 84.5077 14.7563 83.2202 13.5048 81.9086C12.8015 81.1746 12.8611 80.0555 13.5525 79.3576C14.2557 78.6356 15.3523 78.6116 16.127 79.3215C16.5561 79.7066 16.9495 80.1277 17.3547 80.5489C17.7242 80.9339 18.0937 81.3551 18.5228 81.8364Z" fill="#9A9A9A"/>
<path d="M23.1953 43.0899C22.8734 43.0899 22.5635 43.1019 22.2417 43.0899C21.2047 43.0538 20.4419 42.2716 20.4419 41.2488C20.4419 40.2621 21.1809 39.4439 22.1821 39.3957C22.8496 39.3596 23.529 39.3596 24.1965 39.3957C25.2335 39.4439 25.9844 40.2501 25.9725 41.2729C25.9605 42.2957 25.1977 43.0538 24.1488 43.0899C23.827 43.1019 23.5171 43.0899 23.1953 43.0899Z" fill="#9A9A9A"/>
<path d="M34.3397 43.0902C34.0179 43.0902 33.708 43.1022 33.3862 43.0902C32.3969 43.0541 31.6579 42.3321 31.5983 41.3695C31.5387 40.3828 32.23 39.5164 33.2193 39.4201C33.9702 39.36 34.7212 39.36 35.4721 39.4201C36.4375 39.4923 37.1408 40.3346 37.1289 41.2852C37.105 42.2719 36.3541 43.0421 35.3529 43.0902C35.0072 43.1022 34.6735 43.0902 34.3397 43.0902Z" fill="#9A9A9A"/>
</g>
<defs>
<clipPath id="clip0_1188_20">
<rect width="78" height="105" fill="white"/>
</clipPath>
</defs>
</svg>
