<svg width="65" height="83" viewBox="0 0 65 83" fill="none" xmlns="http://www.w3.org/2000/svg">
<path d="M32.436 82.8998C30.4697 82.8998 28.5034 82.7219 26.633 82.3821C22.5404 81.6379 18.4639 80.0039 14.8509 77.6579C11.3819 75.4091 8.29647 72.416 5.93047 69.0023C3.45257 65.4268 1.66208 61.3821 0.766838 57.2889C0.30323 55.1695 0.0314602 52.953 -0.000512787 50.7042C-0.0484722 48.4391 0.111393 46.2226 0.495068 44.0871C1.98181 35.6903 6.79374 28.0377 13.7159 23.1194C18.7356 19.5601 24.3629 17.5539 30.4218 17.1818H30.4697V17.2304C30.5017 17.473 30.5337 17.7319 30.5816 17.9746C30.7095 18.7997 30.8854 19.641 31.1092 20.4985L31.1252 20.5632H31.0612C30.5656 20.5794 30.5496 20.5794 30.086 20.8382C29.6704 21.0809 29.1268 21.453 28.5034 21.9707C27.8 22.537 27.1765 23.0062 26.617 23.4106C26.3292 23.621 26.0415 23.8151 25.7857 23.9769C26.2333 24.1063 26.553 24.4622 26.8088 25.6433C26.8248 25.708 26.8408 25.7727 26.8568 25.8374C27.0646 26.7111 27.3364 27.8921 26.3772 28.3613L22.0129 30.4969C21.837 31.7103 21.2295 32.7619 20.7499 33.5709C20.7979 33.5385 20.8459 33.5062 20.9098 33.4576C21.6292 32.9399 22.988 31.953 25.6418 30.9176C25.8017 30.8367 25.9775 30.8043 26.1534 30.8043C26.4731 30.8043 26.7928 30.9337 27.0166 31.1764C28.6153 32.8105 30.2139 33.5871 31.4769 34.2018C32.8357 34.8652 33.9867 35.4314 34.818 36.5963L36.6725 36.386C36.7524 36.3698 36.8323 36.3698 36.9123 36.3698C37.216 36.3698 37.5038 36.4831 37.7436 36.6934C37.9834 36.9199 38.1272 37.2435 38.1432 37.5832C38.1592 38.651 38.0953 40.0586 37.6636 40.7704C37.2799 41.3852 36.6405 41.822 35.7932 42C35.3935 42.0971 35.0259 42.1294 34.6901 42.1294C33.8109 42.1294 33.1075 41.8382 32.2442 41.4661L31.9884 41.3529V41.369C31.9405 41.6441 31.8925 41.8544 31.7007 42.0971C31.4609 42.3883 31.1252 42.5501 30.7575 42.5501C30.5976 42.5501 30.4377 42.5177 30.2939 42.453L26.9207 41.0455C26.4251 40.8837 26.0894 40.4145 26.0734 39.8968L26.0415 38.7157C24.7945 38.829 23.8833 39.0878 23.0999 39.5408C22.0768 40.1394 21.1496 41.1263 20.0305 42.8413C19.9506 42.9869 19.8227 43.1163 19.6948 43.2134C17.4567 44.8313 17.5367 47.3875 17.6166 50.0732C17.6326 50.3644 17.6326 50.5747 17.6326 50.7203C17.6326 50.8498 17.6326 50.9307 17.6486 51.0116L17.6645 51.0277C17.6965 51.0601 17.7605 51.1086 17.8404 51.2704C18.256 52.047 19.0554 53.4545 19.7428 54.0855C19.8547 54.1826 19.9186 54.2473 19.9506 54.2635C20.654 54.2473 21.3734 54.134 22.0608 54.0208C22.7482 53.9075 23.4676 53.7943 24.171 53.7781C24.235 53.7781 24.2829 53.7781 24.3469 53.7781C26.2173 53.7781 28.1357 54.3282 28.2316 58.47C28.2955 58.5832 28.903 59.6025 28.935 59.651C29.8782 61.2527 30.182 62.7088 29.9262 64.3752C29.8462 64.9091 29.7183 65.2488 29.6064 65.5401C29.3986 66.1063 29.2547 66.4784 29.5905 67.7565C29.7663 68.4199 30.0061 69.067 30.2459 69.698C30.5177 70.426 30.8054 71.1864 30.9973 71.9954C31.0772 72.3189 31.1411 72.6425 31.1891 72.9661C31.285 72.9661 31.3809 72.9661 31.4769 72.9661C32.0044 72.9661 32.548 72.9661 32.9956 72.7396C33.8269 72.319 34.6262 71.1541 34.7061 70.2481C34.7221 69.7465 34.9779 69.4068 35.4895 69.1479C35.4735 69.0832 35.4575 69.0185 35.4415 68.9376C35.3136 68.4684 35.1857 67.983 35.4735 67.5139C35.9211 66.7535 36.6085 66.074 37.5357 65.4268C37.7595 65.265 37.9354 65.1194 38.0153 65.0062C38.0153 64.99 38.0313 64.99 38.0313 64.99L37.3439 60.6055C37.2799 60.282 37.3279 59.9584 37.5038 59.6834C37.8395 59.1333 38.2711 58.4861 38.7507 57.7581C39.2463 57.03 39.7898 56.2696 40.3494 55.4769C40.9409 54.6518 41.7402 53.5516 41.8041 53.3736C41.7082 53.3251 41.5324 53.2442 41.3565 53.1795C40.733 52.9368 40.0456 52.6618 39.55 51.9823C39.2463 51.5616 38.9745 50.8821 39.1823 50.3159C39.3102 49.9761 39.614 49.7334 40.0456 49.6364C42.1239 49.151 43.3069 48.6333 43.6586 48.0508C43.7705 47.8567 43.8024 47.6626 43.7545 47.4361C43.6106 46.7727 43.0191 45.8991 42.3956 44.9769L42.3796 44.9445C41.7562 44.0062 41.1007 43.0354 40.6531 41.9515C40.5412 41.725 40.4932 41.4661 40.5412 41.2072C40.6371 40.6086 41.1487 40.1556 41.7402 40.1556C41.8041 40.1556 41.8681 40.1556 41.932 40.1718L48.3906 41.1911C48.6623 41.2396 48.9341 41.272 49.1739 41.4337L51.4919 43.0193C51.8117 43.1972 52.0355 43.5046 52.0994 43.8606L53.0266 48.5686L55.8243 43.2296C56.0161 42.7766 56.4477 42.5015 56.9433 42.5015C57.4709 42.5015 57.9185 42.8251 58.0943 43.3428C58.9097 45.7858 59.5651 47.6949 60.2046 49.5231C60.2365 48.7627 60.2845 48.0508 60.3644 47.4199C60.4763 46.4168 60.6202 45.6079 60.7961 45.0092C60.9399 44.5077 61.1318 44.0871 61.3716 43.7958C61.1797 42.6795 60.908 41.5793 60.5882 40.5116C60.2046 39.2173 59.709 37.9391 59.1335 36.6934C58.6219 35.6256 58.0624 34.574 57.4389 33.5709L57.4229 33.5385L57.4389 33.5062C58.0464 32.7619 58.6219 31.9854 59.1495 31.2088L59.1814 31.1441L59.2134 31.2088C61.6114 34.7196 63.3379 38.6995 64.2332 42.7119C64.6968 44.8313 64.9525 47.0478 65.0005 49.2966C65.0485 51.5455 64.8886 53.7781 64.5049 55.9137C63.7695 60.0555 62.1709 64.181 59.8369 67.8374C57.6147 71.3482 54.6573 74.4707 51.2841 76.8652C47.7671 79.3729 43.7545 81.1687 39.7099 82.0909C37.3439 82.641 34.914 82.8998 32.436 82.8998ZM8.00871 67.7242C10.1829 70.8143 12.9965 73.5485 16.1618 75.5871C19.519 77.755 23.2758 79.2758 27.0646 79.9553C28.8071 80.2627 30.6136 80.4245 32.452 80.4245C34.7381 80.4245 37.0082 80.1818 39.1664 79.6965C42.9072 78.8552 46.6161 77.1888 49.8773 74.8752C52.9947 72.6587 55.7283 69.7789 57.7746 66.527C59.9168 63.1294 61.4195 59.3274 62.091 55.4931C62.3308 54.1017 62.4906 52.6618 62.5386 51.2057C62.3947 51.5778 62.091 51.869 61.6913 51.9661C61.5474 52.0146 61.3876 52.0632 61.2437 52.1279C60.7001 52.322 60.1246 52.5324 59.5651 52.5485H59.5331C58.9896 52.5485 58.51 52.1764 58.3501 51.6425L57.1352 48.1479C56.9753 47.7111 56.8314 47.2743 56.6875 46.8374L54.5453 50.9468C54.3535 51.319 53.7141 51.7234 53.2504 51.9985C53.1385 52.0632 53.0426 52.1279 52.9627 52.1764C52.7549 52.3059 52.5311 52.3867 52.2913 52.3867C51.8756 52.3867 51.5079 52.1764 51.2681 51.8367C51.1722 51.6911 51.1083 51.5455 51.0923 51.3837L49.7974 44.8475L48.0389 43.6502L44.0262 43.0193C44.1541 43.2134 44.282 43.4075 44.4099 43.5855C45.1613 44.718 45.8807 45.7696 46.1365 46.886C46.5841 48.876 45.6249 50.2835 43.083 51.2866C43.147 51.319 43.2109 51.3675 43.2589 51.3998C43.9303 51.9014 44.2181 52.4838 44.1382 53.2604C44.0582 54.1664 43.4507 55.3798 42.3157 56.9492C41.7082 57.7904 41.1807 58.5347 40.749 59.1818C40.3813 59.7319 40.0616 60.2011 39.8058 60.6217L40.4453 64.6988C40.5412 65.265 40.4133 65.8151 40.0616 66.349C39.7259 66.8667 39.2783 67.1903 38.8626 67.5139C38.5908 67.708 38.3191 67.9183 38.0633 68.1772C37.9834 68.2581 37.9034 68.3552 37.8235 68.4361L38.0953 69.5847C38.2072 70.0216 38.0633 70.4746 37.7276 70.782C37.5677 70.9276 37.3279 71.0408 37.1201 71.1379C37.0881 71.1541 37.0561 71.1703 37.0242 71.1864C36.9442 71.51 36.8323 71.8336 36.6885 72.1733C36.1289 73.3867 35.1378 74.4545 34.0827 74.9723C33.0595 75.4738 31.9245 75.4738 30.8214 75.49C30.5816 75.49 30.3418 75.49 30.118 75.49H30.086C29.4306 75.49 28.8711 74.9399 28.8711 74.2766C28.8551 73.7427 28.7911 73.1764 28.6473 72.5778C28.4714 71.8174 28.1836 71.0732 27.9279 70.3613C27.6881 69.7304 27.4483 69.0832 27.2724 68.4199C27.0006 67.4168 26.6809 65.5239 27.4962 64.2619C27.5921 64.1325 27.6081 63.3883 27.5921 63.0647C27.5762 62.4337 27.3364 61.7381 26.8728 60.9453L26.8088 60.8482C26.4411 60.2334 25.8336 59.198 25.8176 58.567C25.7697 56.5609 25.0663 56.2858 24.3149 56.2858H24.251C23.5636 56.302 22.8601 56.4153 22.1727 56.5285C21.4693 56.6418 20.7499 56.755 20.0146 56.7712H19.9666C19.3591 56.7712 18.7356 56.4961 18.1441 55.9461C17.2329 55.121 16.3377 53.6002 15.7302 52.4676C15.2506 51.5616 15.2506 51.3028 15.2346 50.4291V50.1864C15.1387 46.886 15.0428 43.7635 18.1441 41.3852C19.455 39.3952 20.6061 38.2142 21.9489 37.4376C23.3238 36.6448 24.9064 36.2727 27.2564 36.2242H27.2884C27.9438 36.2242 28.4874 36.7743 28.5034 37.4376L28.5353 39.0878L29.8782 39.6379V39.6055C30.0061 38.9584 30.4058 38.6348 31.0772 38.6348C31.5408 38.6348 32.0364 38.7804 32.516 38.9422C32.8037 39.0393 33.0595 39.1687 33.2993 39.282C33.7629 39.5085 34.1786 39.6864 34.7221 39.6864C34.914 39.6864 35.0898 39.6703 35.2976 39.6217C35.6333 39.5408 35.6333 39.4761 35.6493 39.2011C35.6493 39.1525 35.6493 39.0878 35.6653 39.0231L34.3384 39.1687C34.2905 39.1687 34.2585 39.1687 34.2105 39.1687C33.9068 39.1687 33.6031 39.0555 33.3792 38.8451C33.2354 38.7157 33.1554 38.5701 33.0755 38.4083C33.0275 38.3274 32.9796 38.2465 32.9316 38.1656C32.4201 37.4214 31.5568 37.0008 30.4537 36.4669C29.1109 35.8035 27.5762 35.0593 25.8816 33.5062C22.2686 34.8814 20.4462 35.4314 19.3591 35.4314C18.6557 35.4314 18.2241 35.1888 18.0322 34.6549C17.7445 33.8945 18.1282 33.2635 18.6237 32.4707L18.6717 32.4869L18.6237 32.4545C19.0714 31.7103 19.6948 30.7072 19.6629 29.7527C19.6469 29.235 19.9666 28.7496 20.4462 28.5716L24.9544 26.3713C23.9472 26.1772 23.5476 24.4137 23.3717 23.621C23.1639 22.6826 23.9952 22.1972 24.7306 21.7442C24.9224 21.631 25.0983 21.5339 25.2421 21.4206C25.7057 21.0809 26.2813 20.6441 26.9207 20.1425C22.7802 20.9191 18.7197 22.6664 15.1547 25.1903C8.76008 29.7365 4.29985 36.7904 2.941 44.5724C2.5893 46.5462 2.44542 48.6171 2.47739 50.7042C2.52535 52.7912 2.76515 54.8459 3.19678 56.8035C3.21277 56.9168 3.24474 56.9977 3.26073 57.0948L8.71212 59.6025C9.17572 59.8128 9.41552 60.2334 9.43151 60.832C9.47947 62.3205 9.11178 63.4206 8.7281 64.6017C8.44035 65.4915 8.1366 66.3975 8.10463 67.4653C8.05667 67.5139 8.04069 67.6271 8.00871 67.7242ZM4.58761 60.379C5.05121 61.6733 5.62673 62.9515 6.26619 64.1163C6.29816 64.0031 6.34612 63.8898 6.37809 63.7766C6.61789 63.0485 6.87367 62.2881 6.93762 61.463L4.58761 60.379ZM47.831 36.8875C47.3834 36.8875 46.9678 36.7581 46.5841 36.5316C43.5946 34.6063 41.0048 32.2604 38.8786 29.5747C36.081 26.0316 34.2745 22.0516 33.635 18.0878C32.9636 13.9137 33.651 10.0632 35.6174 6.9245C36.4327 5.6302 37.4718 4.46533 38.7027 3.47843C41.5164 1.19723 44.6977 0 47.9269 0H48.0229C51.3001 0.0323575 54.4015 1.2943 56.9913 3.68875C57.9185 4.54622 58.7178 5.53313 59.3893 6.64946C61.4515 10.0955 62.059 14.5932 61.0838 19.3174C60.1726 23.8313 57.9025 28.2643 54.6892 31.8236C53.0586 33.6356 51.2042 35.1888 49.1899 36.4507C48.8062 36.7257 48.3266 36.8875 47.831 36.8875ZM47.9269 2.39445C45.2412 2.39445 42.5555 3.41371 40.1735 5.3228C37.1041 7.79815 35.5534 11.5516 35.7772 15.9037C36.1449 22.812 40.765 29.9307 47.831 34.4931C54.0018 30.6911 58.4141 23.7342 59.1015 16.7288C59.5491 12.0693 58.2382 8.05701 55.4086 5.45223C53.2345 3.44607 50.6446 2.39445 47.9269 2.39445ZM47.4633 20.7411C44.0103 20.7411 41.1966 17.8937 41.1966 14.3991C41.1966 10.9045 44.0103 8.05701 47.4633 8.05701C50.9164 8.05701 53.73 10.9045 53.73 14.3991C53.746 17.8937 50.9324 20.7411 47.4633 20.7411Z" fill="#9A9A9A"/>
</svg>
