<svg width="80" height="80" viewBox="0 0 80 80" fill="none" xmlns="http://www.w3.org/2000/svg">
<g clip-path="url(#clip0_579_4037)">
<path d="M40.1183 21.6674C38.9728 21.6674 38.0392 20.7339 38.0392 19.5886V13.3127C38.0392 12.1674 38.9728 11.2339 40.1183 11.2339C41.2637 11.2339 42.1973 12.1674 42.1973 13.3127V19.5886C42.1998 20.7339 41.2662 21.6674 40.1183 21.6674Z" fill="#9A9A9A"/>
<path d="M40.1183 68.766C38.9728 68.766 38.0392 67.8325 38.0392 66.6872V60.4113C38.0392 59.266 38.9728 58.3325 40.1183 58.3325C41.2637 58.3325 42.1973 59.266 42.1973 60.4113V66.6872C42.1998 67.835 41.2662 68.766 40.1183 68.766Z" fill="#9A9A9A"/>
<path d="M30.8635 39.0221C29.7426 38.2315 28.7499 37.2808 27.9099 36.1872C26.2299 33.9729 25.4736 31.4261 25.7249 28.8251C26.0156 25.7734 27.6931 22.9409 30.4496 20.8448C33.0386 18.8743 36.4331 17.6798 40.0074 17.4803C40.372 17.4606 40.7415 17.4482 41.1061 17.4482C41.4707 17.4482 41.8402 17.4581 42.2048 17.4803C42.3821 17.4901 46.2791 17.7413 49.8412 20.0418L46.8112 23.0714C44.4686 21.8177 42.089 21.6379 41.9781 21.6305H41.9633C41.6776 21.6133 41.3869 21.6059 41.0987 21.6059C40.8105 21.6059 40.5198 21.6133 40.2341 21.6305C37.4825 21.7857 34.9009 22.6822 32.9622 24.1551C31.1418 25.5369 30.0407 27.3349 29.8584 29.2216C29.6071 31.8325 31.1196 34.3497 33.8663 36.0221L30.8635 39.0221Z" fill="#9A9A9A"/>
<path d="M39.1575 62.5543C38.7806 62.5543 38.4037 62.5445 38.0367 62.5223C37.8889 62.5124 36.5291 62.4238 34.721 61.8991C33.6864 61.5986 32.6986 61.2144 31.7847 60.7538C30.9964 60.3573 30.2623 59.9016 29.5898 59.3967L32.5705 56.4164C35.1521 58.1331 38.1254 58.3597 38.2633 58.3696H38.2781C38.5639 58.3844 38.8545 58.3942 39.1403 58.3942C39.426 58.3942 39.7167 58.3868 40.0025 58.3696C42.754 58.2169 45.3381 57.3203 47.2768 55.8474C49.0996 54.4582 50.2008 52.6578 50.3806 50.7784C50.5801 48.6775 49.6268 47.0395 48.7917 46.0371C47.9468 45.0223 46.8235 44.1578 45.4957 43.4927L48.5552 40.4312C49.851 41.2218 51.0014 42.2119 51.9842 43.3794C53.881 45.6578 54.7801 48.4262 54.5166 51.175C54.2259 54.2267 52.5483 57.0617 49.7918 59.1578C47.2004 61.1282 43.8034 62.3228 40.2315 62.5223C39.8744 62.5445 39.532 62.5543 39.1575 62.5543Z" fill="#9A9A9A"/>
<path d="M40.0219 80C36.1519 80 32.3042 79.436 28.582 78.3251C24.887 77.2217 21.3743 75.5961 18.1448 73.4926C11.4469 69.133 6.26156 62.9187 3.14541 55.5246C2.09356 53.0222 1.29297 50.4187 0.765807 47.7808C0.253429 45.2118 -0.00522385 42.5788 -0.000297137 39.9606C0.00462958 37.3892 0.258355 34.8005 0.76088 32.2685C1.25848 29.7611 1.99749 27.2882 2.96312 24.9187C3.92876 22.5493 5.12595 20.2611 6.52267 18.1207C7.93171 15.9606 9.55753 13.9286 11.3509 12.0862C13.1787 10.2094 15.2011 8.50739 17.3639 7.02463C19.5834 5.50493 21.9753 4.19951 24.4781 3.14778C29.4368 1.05911 34.6542 0 39.9874 0C43.8573 0 47.7051 0.564039 51.4272 1.67488C55.1222 2.77833 58.635 4.40394 61.8645 6.50739C68.5623 10.867 73.7477 17.0813 76.8638 24.4754C77.8985 26.9212 78.6892 29.4778 79.2139 32.0788C79.7386 34.6798 80.0046 37.3448 79.9997 39.9975C79.9997 43.9606 79.4159 47.8867 78.2606 51.665C77.1299 55.3695 75.4696 58.8842 73.324 62.1158C71.1784 65.3473 68.582 68.2414 65.6088 70.7217C62.5739 73.2512 59.1819 75.3153 55.5312 76.8522C50.5724 78.9409 45.355 80 40.0219 80ZM17.4304 65.8768L18.268 66.5665C24.3894 71.6158 32.1342 74.3965 40.0687 74.3965H40.1204C59.0883 74.3965 74.5187 58.9655 74.5187 40C74.531 32.0468 71.7499 24.2882 66.6877 18.1502L65.998 17.3128L17.4304 65.8768ZM40.1179 5.60345C21.1501 5.60345 5.71716 21.0345 5.71716 40C5.70484 47.5887 8.26427 55.069 12.9225 61.0616L13.6073 61.9433L62.0665 13.4926L61.1846 12.8079C55.2035 8.16256 47.7396 5.60345 40.1672 5.60345H40.1179Z" fill="#9A9A9A"/>
</g>
<defs>
<clipPath id="clip0_579_4037">
<rect width="80" height="80" fill="white"/>
</clipPath>
</defs>
</svg>
