<svg width="200" height="200" viewBox="0 0 200 200" fill="none" xmlns="http://www.w3.org/2000/svg">
<rect width="200" height="200" fill="white"/>
<path d="M144.2 48H22V152.867H40.677L45.416 147.792H27.0177V53.0742H139.637L144.2 48Z" fill="#D8D8D8"/>
<ellipse cx="53.2002" cy="71.8334" rx="13" ry="12.5667" fill="#D8D8D8"/>
<path d="M178 26.4932L174.08 22.8667L22.8667 173.507L26.507 177.133L178 26.4932Z" fill="#D8D8D8"/>
<path d="M32.3999 141.6L79.1414 59.2667L99.1332 93.8025L50.9839 141.6H32.3999Z" fill="#D8D8D8"/>
<path d="M178 48H159.071L154.339 52.7923H172.989L173.268 147.792H60.5319L55.7998 152.867H178V48Z" fill="#D8D8D8"/>
<path d="M116.9 125.742L136.679 99.1333L167.6 141.6L66.2002 141.331L104.364 104.24L116.9 125.742Z" fill="#D8D8D8"/>
</svg>
