<svg width="71" height="71" viewBox="0 0 71 71" fill="none" xmlns="http://www.w3.org/2000/svg">
<path d="M57.8109 11.0809C60.8349 7.98926 63.8784 4.89761 66.9219 1.79614C67.2719 1.44281 67.622 1.08948 67.972 0.736149C68.7305 -0.0392178 69.7028 -0.37292 70.3349 0.588927C70.6557 1.08948 70.5099 2.35558 70.082 2.82669C67.8262 5.30983 65.4147 7.65556 63.0422 10.0405C43.3811 29.8762 23.7201 49.7118 4.06872 69.5475C3.84508 69.7732 3.62144 69.9793 3.40752 70.2149C2.67825 70.9902 1.8323 71.3632 0.986349 70.5289C0.140398 69.6947 0.490447 68.8408 1.23916 68.0851C2.91162 66.4067 4.56462 64.7186 6.22735 63.0501C7.9387 61.3325 9.65977 59.6247 11.4975 57.809C4.62296 49.7216 1.69617 40.4859 3.39779 29.9841C4.60352 22.5151 8.12345 16.2533 13.6173 11.1005C24.2451 1.12874 43.0602 -1.80588 57.8109 11.0809ZM29.3792 33.4978C25.5092 29.9154 24.0701 25.7442 26.1023 20.8957C27.7845 16.8618 31.003 14.5848 35.3592 14.5259C40.8822 14.4474 44.2368 17.5783 45.8995 22.5936C49.0305 19.4333 52.1129 16.322 55.1953 13.2009C46.2204 4.08298 27.7748 1.64892 15.1439 13.8487C2.30875 26.2447 3.98121 45.3835 13.6367 55.3848C15.4453 54.0205 17.0983 52.6072 16.6899 49.9376C16.6219 49.4664 16.7872 48.9463 16.8844 48.4555C18.3332 41.2809 22.5435 36.4226 29.3792 33.4978ZM28.2512 24.9982C28.2415 28.7573 31.0419 32.0452 34.766 32.3691C35.6606 32.4477 36.808 31.9962 37.5081 31.3975C39.1514 29.994 40.6877 28.4334 42.0879 26.7845C42.6519 26.1171 43.0408 25.0179 42.963 24.1542C42.6324 20.1988 39.0833 17.2838 35.1453 17.5488C31.2947 17.804 28.261 21.092 28.2512 24.9982ZM32.7046 35.9613C26.4621 36.776 19.9959 43.4206 20.2293 48.5635C24.3229 44.4315 28.4846 40.2209 32.7046 35.9613Z" fill="#9A9A9A"/>
<path d="M15.9216 61.6662C16.6508 60.989 17.2731 60.4001 18.0316 59.6934C25.3243 64.7676 33.3559 66.6815 42.1266 64.748C48.3691 63.3739 53.5907 60.194 57.8788 55.4142C65.4048 47.0225 69.2262 31.8293 59.6096 17.5684C60.3194 17.0679 61.0681 16.5477 61.8071 16.0275C69.586 24.9786 72.3086 43.7641 60.018 57.5538C47.6301 71.4319 28.0274 71.373 15.9216 61.6662Z" fill="#9A9A9A"/>
<path d="M41.2223 36.4815C42.992 33.9395 43.1476 33.8511 45.5979 35.4411C51.1792 39.0628 54.2422 44.2351 54.6894 50.9386C54.7672 52.0968 54.8061 53.4119 53.2406 53.4512C51.8502 53.4806 51.7335 52.2931 51.6654 51.1644C51.2667 44.7553 48.1649 40.1129 42.5544 37.1587C42.1071 36.9231 41.6696 36.7072 41.2223 36.4815Z" fill="#9A9A9A"/>
</svg>
