<svg width="55" height="53" viewBox="0 0 55 53" fill="none" xmlns="http://www.w3.org/2000/svg">
<path d="M36.624 7.92635L18.7075 1.88542V42.428L36.624 50.3246V7.92635ZM40.6581 10.3856L50.1503 6.66093V17.7009L40.6581 22.5703V10.3856ZM33.7543 10.1755L21.5991 6.08411V40.4248L33.7368 45.8979V10.1755H33.7543ZM41.8798 43.0406C41.7016 43.1271 41.4971 43.1391 41.3103 43.0741C41.1234 43.0091 40.969 42.8723 40.88 42.693C40.791 42.5136 40.7745 42.3059 40.834 42.1143C40.8936 41.9228 41.0245 41.7625 41.1987 41.6679L49.8867 37.1786C49.9757 37.1237 50.0749 37.0882 50.178 37.0741C50.2812 37.0601 50.3861 37.0679 50.4861 37.097C50.5862 37.1262 50.6792 37.176 50.7595 37.2435C50.8397 37.3109 50.9054 37.3944 50.9524 37.4889C50.9995 37.5834 51.0268 37.6867 51.0328 37.7924C51.0387 37.8981 51.0232 38.004 50.9871 38.1033C50.951 38.2026 50.8951 38.2933 50.8229 38.3696C50.7508 38.4459 50.6639 38.5062 50.5678 38.5468L41.8754 43.0183L41.8798 43.0406ZM41.8798 37.7956C41.7016 37.882 41.4971 37.8941 41.3103 37.8291C41.1234 37.7641 40.969 37.6273 40.88 37.4479C40.791 37.2686 40.7745 37.0609 40.834 36.8693C40.8936 36.6778 41.0245 36.5175 41.1987 36.4229L49.8911 31.9514C50.0693 31.865 50.2737 31.853 50.4606 31.918C50.6475 31.9829 50.8019 32.1197 50.8909 32.2991C50.9799 32.4785 50.9964 32.6862 50.9368 32.8777C50.8773 33.0693 50.7464 33.2295 50.5722 33.3242L41.8622 37.7956H41.8798ZM41.8798 32.5506C41.7007 32.6413 41.4937 32.6564 41.3037 32.5928C41.1136 32.5292 40.9559 32.3919 40.8647 32.2108C40.7744 32.0287 40.7589 31.8177 40.8215 31.624C40.8841 31.4303 41.0198 31.2698 41.1987 31.1779L49.8911 26.7064C50.0693 26.62 50.2737 26.608 50.4606 26.673C50.6475 26.7379 50.8019 26.8747 50.8909 27.0541C50.9799 27.2335 50.9964 27.4411 50.9368 27.6327C50.8773 27.8243 50.7464 27.9845 50.5722 28.0792L41.8622 32.5506H41.8798ZM41.8798 27.3056C41.7913 27.3539 41.6943 27.384 41.5944 27.3939C41.4944 27.4039 41.3935 27.3936 41.2975 27.3637C41.2015 27.3337 41.1122 27.2847 41.0349 27.2195C40.9576 27.1543 40.8938 27.0741 40.8471 26.9837C40.7568 26.8016 40.7413 26.5905 40.8039 26.3969C40.8666 26.2032 41.0022 26.0427 41.1811 25.9508L49.8867 21.4391C49.9755 21.3908 50.0729 21.3611 50.1732 21.3517C50.2735 21.3422 50.3746 21.3533 50.4707 21.3842C50.5667 21.4151 50.6557 21.4653 50.7324 21.5317C50.8091 21.5981 50.872 21.6794 50.9174 21.7709C50.9628 21.8623 50.9898 21.9621 50.9967 22.0644C51.0037 22.1666 50.9905 22.2692 50.9579 22.3662C50.9254 22.4632 50.8741 22.5525 50.8071 22.6291C50.7401 22.7056 50.6587 22.7677 50.5678 22.8118L41.8754 27.2832L41.8798 27.3056ZM5.42719 44.7442C5.33162 44.797 5.22664 44.8297 5.11844 44.8404C5.01024 44.8511 4.90103 44.8397 4.79726 44.8067C4.69349 44.7737 4.59727 44.7199 4.5143 44.6485C4.43132 44.577 4.36328 44.4893 4.31419 44.3906C4.26511 44.2919 4.23597 44.1842 4.22851 44.0739C4.22105 43.9635 4.23542 43.8527 4.27077 43.7481C4.30612 43.6435 4.36172 43.5472 4.4343 43.4649C4.50687 43.3825 4.59494 43.3158 4.6933 43.2687L14.0493 38.4261C14.2421 38.3271 14.4658 38.3101 14.671 38.3788C14.8762 38.4476 15.0462 38.5965 15.1435 38.7928C15.2408 38.989 15.2575 39.2166 15.1899 39.4254C15.1224 39.6342 14.976 39.8071 14.7831 39.9061L5.40961 44.7487L5.42719 44.7442ZM5.42719 39.0879C5.23429 39.1869 5.01064 39.2039 4.80543 39.1351C4.60023 39.0664 4.43027 38.9175 4.33295 38.7212C4.23563 38.5249 4.21892 38.2974 4.2865 38.0886C4.35408 37.8798 4.50041 37.7068 4.6933 37.6078L14.0493 32.7697C14.1448 32.7207 14.2488 32.6913 14.3555 32.6832C14.4622 32.675 14.5694 32.6884 14.671 32.7225C14.7726 32.7565 14.8666 32.8106 14.9477 32.8816C15.0288 32.9526 15.0953 33.0392 15.1435 33.1364C15.1917 33.2336 15.2206 33.3394 15.2286 33.448C15.2365 33.5565 15.2234 33.6656 15.1899 33.769C15.1565 33.8724 15.1033 33.9681 15.0335 34.0505C14.9637 34.133 14.8787 34.2007 14.7831 34.2498L5.40961 39.0923L5.42719 39.0879ZM5.42719 33.4315C5.23429 33.5305 5.01064 33.5475 4.80543 33.4787C4.60023 33.41 4.43027 33.2611 4.33295 33.0648C4.23563 32.8686 4.21892 32.641 4.2865 32.4322C4.35408 32.2234 4.50041 32.0505 4.6933 31.9514L14.0493 27.1133C14.1448 27.0643 14.2488 27.0349 14.3555 27.0268C14.4622 27.0187 14.5694 27.032 14.671 27.0661C14.7726 27.1001 14.8666 27.1542 14.9477 27.2252C15.0288 27.2962 15.0953 27.3828 15.1435 27.48C15.1917 27.5772 15.2206 27.6831 15.2286 27.7916C15.2365 27.9002 15.2234 28.0092 15.1899 28.1126C15.1565 28.216 15.1033 28.3117 15.0335 28.3942C14.9637 28.4767 14.8787 28.5443 14.7831 28.5934L5.40961 33.436L5.42719 33.4315ZM5.42719 27.7751C5.33168 27.8241 5.22761 27.8535 5.12093 27.8617C5.01425 27.8698 4.90704 27.8564 4.80543 27.8224C4.70383 27.7883 4.6098 27.7342 4.52873 27.6632C4.44766 27.5922 4.38113 27.5056 4.33295 27.4084C4.28476 27.3113 4.25586 27.2054 4.24789 27.0968C4.23992 26.9883 4.25304 26.8792 4.2865 26.7758C4.31996 26.6724 4.37311 26.5768 4.44291 26.4943C4.51271 26.4118 4.59779 26.3441 4.6933 26.2951L14.0493 21.4569C14.1462 21.4079 14.2517 21.3788 14.3597 21.3713C14.4677 21.3637 14.5761 21.3779 14.6788 21.413C14.7814 21.448 14.8762 21.5034 14.9579 21.5757C15.0395 21.6481 15.1063 21.7361 15.1545 21.8348C15.2027 21.9334 15.2313 22.0408 15.2387 22.1507C15.2461 22.2606 15.2322 22.3709 15.1977 22.4753C15.1632 22.5797 15.1089 22.6762 15.0377 22.7593C14.9666 22.8423 14.8801 22.9103 14.7831 22.9594L5.40961 27.7796L5.42719 27.7751ZM4.96136 10.7836L14.4536 7.05889V18.0944L4.94379 22.9594V10.7791L4.96136 10.7836ZM37.3403 6.6341L53.6967 0.204158C53.8733 0.135518 54.0695 0.140714 54.2423 0.218612C54.4152 0.296511 54.5508 0.440795 54.6196 0.620003C54.6504 0.702921 54.6668 0.790692 54.6679 0.879347V42.911C54.6676 43.0543 54.6258 43.1945 54.5476 43.3138C54.4694 43.4331 54.3584 43.5263 54.2285 43.5817L37.6611 52.0774C37.5623 52.1281 37.4531 52.1545 37.3425 52.1545C37.2318 52.1545 37.1227 52.1281 37.0239 52.0774L18.0175 43.6979L1.70062 52.073C1.53214 52.1585 1.3372 52.1727 1.15848 52.1124C0.979751 52.052 0.8318 51.9221 0.747009 51.751C0.695213 51.6503 0.668077 51.5383 0.667908 51.4246V7.39872C0.668263 7.24159 0.718513 7.08879 0.811168 6.96309C0.903822 6.83738 1.03392 6.74551 1.18207 6.70117L17.6923 0.222044C17.858 0.144514 18.0463 0.133339 18.2197 0.190744L37.3227 6.62963L37.3403 6.6341ZM53.2397 1.94355L38.0566 7.89505V50.2352L53.2397 42.4549V1.94355ZM17.2792 1.94355L2.09613 7.89505V50.2352L17.2792 42.4549V1.94355Z" fill="#9A9A9A"/>
</svg>
