<svg width="67" height="66" viewBox="0 0 67 66" fill="none" xmlns="http://www.w3.org/2000/svg">
<path d="M44.4721 30.1465C44.4545 30.1597 44.4281 30.1773 44.4105 30.1993C43.9617 30.6481 43.5084 31.1013 43.0552 31.5502C42.976 31.6294 43.02 31.6734 43.0728 31.7306C43.7152 32.373 44.3577 33.0155 45.0001 33.6579C45.0793 33.7371 45.1277 33.7415 45.2113 33.6579C45.6426 33.2179 46.0782 32.7823 46.5182 32.351C46.6018 32.2674 46.5974 32.219 46.5182 32.1398C45.8802 31.5062 45.2421 30.8681 44.6041 30.2301C44.5645 30.1949 44.5381 30.1465 44.4721 30.1465ZM31.72 42.8985C31.6804 42.9337 31.6452 42.9601 31.6144 42.9909C31.1832 43.4222 30.7564 43.8534 30.3208 44.2758C30.2151 44.377 30.2415 44.4342 30.3296 44.5178C30.9588 45.1427 31.588 45.7675 32.2085 46.3968C32.3141 46.5068 32.3713 46.4848 32.4681 46.388C32.8817 45.9655 33.3041 45.5431 33.7266 45.1295C33.819 45.0371 33.8322 44.9843 33.731 44.8875C33.0929 44.2626 32.4637 43.6246 31.8345 42.9953C31.8036 42.9645 31.764 42.9337 31.72 42.8985Z" fill="#FEFEFE"/>
<path d="M30.4084 65.9955C30.0035 65.8987 29.5899 65.8635 29.1939 65.7359C28.2346 65.4323 27.3766 64.9659 26.6593 64.2486C23.7375 61.3312 20.8201 58.4094 17.8983 55.4964C17.7839 55.382 17.7751 55.3204 17.8939 55.206C21.1369 51.9674 24.38 48.7288 27.6142 45.4858C27.733 45.367 27.799 45.3582 27.9222 45.4814C29.2203 46.7882 30.5228 48.0863 31.8208 49.3932C31.9705 49.5428 32.0497 49.5736 32.2169 49.402C37.9725 43.6376 43.7324 37.8777 49.4968 32.1221C49.6464 31.9725 49.6464 31.8933 49.4968 31.7436C48.1899 30.45 46.8919 29.1431 45.585 27.845C45.4574 27.7174 45.4486 27.6514 45.5806 27.5194C48.8192 24.2896 52.0534 21.0509 55.2876 17.8123C55.402 17.6979 55.468 17.6759 55.5956 17.8035C58.5086 20.7253 61.4348 23.6383 64.3478 26.5645C65.3335 27.5546 65.8747 28.7691 66.0463 30.1507C66.0507 30.1947 66.0419 30.2387 66.0903 30.2651C66.0903 30.692 66.0903 31.1144 66.0903 31.5412C66.0419 31.5632 66.0507 31.6116 66.0419 31.6556C65.8307 33.1121 65.2059 34.3486 64.1542 35.3827C63.415 36.1043 62.6933 36.8436 61.9585 37.5696C61.8573 37.6708 61.8397 37.7324 61.9409 37.8557C63.0805 39.1713 64.0002 40.6234 64.6954 42.2207C65.4039 43.8489 65.8351 45.5474 66.0111 47.3119C66.0287 47.5099 66.0023 47.7167 66.0903 47.9103C66.0903 48.6276 66.0903 49.3492 66.0903 50.0665C66.0463 50.0929 66.0507 50.1413 66.0463 50.1853C66.0023 50.8497 65.9143 51.5098 65.7867 52.161C64.9331 56.4425 62.7681 59.9143 59.3007 62.5589C56.7793 64.4862 53.9147 65.5863 50.7553 65.9207C50.5441 65.9427 50.3197 65.8899 50.1173 65.9955C49.4 65.9955 48.6784 65.9955 47.9611 65.9955C47.9215 65.9339 47.8555 65.9559 47.7983 65.9515C46.9535 65.8899 46.113 65.7667 45.2857 65.5775C42.54 64.9439 40.0978 63.703 37.9637 61.8637C37.8272 61.7448 37.7568 61.7713 37.6468 61.8857C36.89 62.6513 36.1287 63.4126 35.3631 64.1694C34.527 64.9967 33.537 65.5555 32.3929 65.8283C32.1289 65.8899 31.8605 65.9427 31.592 65.9999C31.2004 65.9955 30.8044 65.9955 30.4084 65.9955ZM63.9694 30.8636C63.9298 29.7415 63.5382 28.7646 62.7417 27.9638C61.4348 26.6481 60.1147 25.3412 58.8122 24.0255C58.667 23.8759 58.5966 23.9111 58.469 24.0387C56.5109 26.0013 54.5528 27.9594 52.5902 29.9219C52.3086 30.2035 52.0358 30.4852 51.7498 30.758C51.653 30.8504 51.6486 30.9076 51.7498 31.0044C52.005 31.2464 52.2382 31.5104 52.5022 31.7436C52.6782 31.8977 52.6606 31.9901 52.4978 32.1485C45.739 38.8985 38.9845 45.6574 32.2257 52.4118C32.1993 52.4382 32.1685 52.4602 32.1465 52.491C32.0629 52.6098 31.9925 52.579 31.9045 52.4866C31.6448 52.2182 31.372 51.963 31.1168 51.6902C31.0068 51.5714 30.9408 51.567 30.822 51.6858C28.5822 53.9343 26.3337 56.1785 24.0851 58.4226C23.9751 58.5326 23.9751 58.5942 24.0851 58.6998C24.5736 59.1751 25.0488 59.6635 25.5328 60.1431C26.4569 61.054 27.3369 62.0089 28.3006 62.8801C29.0839 63.5886 30.0387 63.9142 31.086 63.8746C32.1993 63.835 33.1409 63.3818 33.9374 62.5853C43.5124 53.0059 53.0875 43.4308 62.6669 33.8514C62.7197 33.7986 62.7725 33.7502 62.8209 33.693C63.5822 32.8965 63.9386 31.9461 63.9694 30.8636ZM49.8444 63.8394C50.3813 63.8394 50.8169 63.7734 51.2569 63.7074C52.7222 63.4874 54.1259 63.0649 55.4592 62.4225C57.3954 61.494 59.0631 60.2135 60.4448 58.5678C62.7637 55.8001 63.9122 52.601 63.9694 49.0016C63.9738 48.5924 63.921 48.1875 63.899 47.7783C63.8594 47.0831 63.7626 46.3966 63.6086 45.719C63.0849 43.3824 62.0597 41.2967 60.5284 39.453C60.326 39.2109 60.3303 39.2065 60.1015 39.4354C53.2503 46.2866 46.3946 53.1423 39.5434 59.9935C39.5082 60.0287 39.473 60.0727 39.4334 60.1035C39.3057 60.2003 39.341 60.2663 39.451 60.3588C41.0483 61.7008 42.8392 62.6777 44.8413 63.2674C45.827 63.5578 46.8347 63.747 47.8555 63.8306C48.542 63.8834 49.2416 63.9318 49.8444 63.8394ZM57.1093 22.3358C57.0873 22.3094 57.0609 22.2742 57.0301 22.2478C56.5373 21.755 56.0445 21.2665 55.556 20.7693C55.4592 20.6681 55.4064 20.7033 55.3272 20.7825C53.0699 23.0443 50.8125 25.3016 48.5464 27.559C48.4452 27.6602 48.4584 27.7086 48.5508 27.801C49.0392 28.2806 49.5188 28.7603 49.9985 29.2487C50.0909 29.3455 50.1437 29.3499 50.2405 29.2531C52.4978 26.9913 54.7552 24.734 57.0169 22.4722C57.0521 22.4326 57.1005 22.4062 57.1093 22.3358ZM29.4315 50.0445C29.4271 49.9741 29.3787 49.9477 29.3479 49.9125C28.8595 49.424 28.371 48.94 27.8914 48.4472C27.7858 48.3416 27.733 48.3724 27.6494 48.4604C25.3964 50.7177 23.1435 52.9707 20.8861 55.2236C20.7805 55.3292 20.7893 55.382 20.8905 55.4832C21.3702 55.9541 21.8498 56.4337 22.3206 56.9133C22.4174 57.0145 22.4746 57.0233 22.5802 56.9177C24.8332 54.6604 27.0861 52.4074 29.3391 50.1545C29.3699 50.1149 29.4051 50.0797 29.4315 50.0445Z" fill="#9A9A9A"/>
<path d="M27.7687 0C27.7687 1.24528 27.7731 2.49497 27.7643 3.74025C27.7643 3.90746 27.8127 3.97786 27.9755 4.03067C29.2076 4.40029 30.3912 4.88433 31.5177 5.50477C31.6629 5.58397 31.7377 5.53117 31.8345 5.43436C32.6574 4.60711 33.4846 3.78865 34.3031 2.957C34.4439 2.81179 34.5187 2.81179 34.6639 2.957C37.0489 5.35076 39.4382 7.74012 41.8364 10.1251C41.986 10.2747 41.986 10.3539 41.8364 10.5035C41.0091 11.3132 40.1951 12.1404 39.3722 12.9545C39.2534 13.0733 39.2358 13.1613 39.315 13.3109C39.9267 14.4418 40.4195 15.621 40.7803 16.8575C40.8243 17.0115 40.9035 17.0423 41.0443 17.0379C42.2192 17.0335 43.3897 17.0379 44.5646 17.0291C44.7406 17.0291 44.8022 17.0643 44.8022 17.2535C44.7978 20.655 44.7978 24.0564 44.8022 27.4622C44.8022 27.6338 44.7626 27.6866 44.5866 27.6822C43.4205 27.6734 42.2544 27.6822 41.0883 27.6734C40.9079 27.6734 40.8199 27.7174 40.7671 27.9023C40.4063 29.1343 39.9091 30.3136 39.293 31.4445C39.2138 31.5853 39.2754 31.6557 39.3634 31.7437C40.1819 32.5622 41.0003 33.385 41.8232 34.1991C41.9728 34.3487 41.9992 34.4235 41.832 34.5907C39.4426 36.9625 37.0577 39.3474 34.6771 41.7368C34.5319 41.882 34.4527 41.8996 34.2987 41.7456C33.4978 40.9271 32.6838 40.1263 31.8785 39.3122C31.7421 39.1714 31.6409 39.1318 31.4517 39.2374C30.3384 39.8447 29.1635 40.3243 27.9491 40.6851C27.7951 40.7291 27.7643 40.7995 27.7643 40.9491C27.7687 42.1284 27.7643 43.3121 27.7731 44.4914C27.7731 44.6674 27.7247 44.707 27.553 44.707C24.1516 44.7026 20.7502 44.7026 17.3444 44.707C17.1551 44.707 17.1155 44.6454 17.1199 44.4694C17.1287 43.2945 17.1199 42.124 17.1287 40.9491C17.1287 40.7863 17.0759 40.7247 16.9263 40.6763C15.6898 40.3067 14.4974 39.8139 13.3665 39.1934C13.2301 39.1186 13.1553 39.1714 13.0673 39.2594C12.2444 40.0867 11.4172 40.9051 10.5987 41.7368C10.4491 41.8908 10.3699 41.8864 10.2203 41.7368C7.83533 39.343 5.44597 36.9537 3.04781 34.5643C2.9026 34.4191 2.9114 34.3443 3.05221 34.2035C3.86186 33.407 4.65831 32.593 5.46797 31.8009C5.63078 31.6425 5.66158 31.5325 5.54717 31.3213C4.95313 30.23 4.4779 29.0903 4.13468 27.8979C4.08188 27.7174 4.00267 27.6646 3.81786 27.6646C2.57697 27.6734 1.34049 27.669 0.0996094 27.669C0.0996094 24.118 0.0996094 20.5714 0.0996094 17.0203C1.35369 17.0203 2.60778 17.0203 3.86186 17.0247C4.01147 17.0247 4.07307 16.9807 4.12148 16.8355C4.4999 15.6078 4.96633 14.4198 5.59558 13.2933C5.67478 13.1525 5.64838 13.0645 5.53837 12.9545C4.71552 12.1404 3.90146 11.3132 3.07421 10.5035C2.9246 10.3539 2.9026 10.2747 3.06541 10.1119C5.45477 7.73572 7.83973 5.35076 10.2203 2.957C10.3875 2.78979 10.4667 2.81619 10.6119 2.9658C11.426 3.79305 12.2488 4.60711 13.0673 5.42556C13.1553 5.51357 13.2213 5.57957 13.3665 5.50037C14.5062 4.87552 15.703 4.38269 16.9483 4.00867C17.0979 3.96466 17.1419 3.89866 17.1375 3.74905C17.1199 2.50817 17.1243 1.25408 17.1243 0C20.671 0 24.222 0 27.7687 0ZM22.4927 2.12094C21.5026 2.12094 20.5126 2.12534 19.5225 2.11654C19.3245 2.11654 19.2629 2.17374 19.2585 2.38056C19.2321 3.39263 19.2453 4.40469 19.2497 5.41676C19.2497 5.57957 19.1969 5.64558 19.0385 5.68078C18.4444 5.80399 17.8592 5.9624 17.2784 6.14281C15.7955 6.60924 14.4138 7.29129 13.1069 8.12734C12.9353 8.23735 12.8341 8.24175 12.6844 8.08334C11.9804 7.35729 11.2544 6.64884 10.5459 5.9316C10.4403 5.82599 10.3831 5.81719 10.2731 5.92719C8.86059 7.34849 7.4481 8.76098 6.0268 10.1735C5.9168 10.2835 5.9212 10.3407 6.0268 10.4463C6.73525 11.1459 7.4349 11.8588 8.14775 12.554C8.32816 12.7256 8.33256 12.8445 8.20055 13.0469C7.02127 14.8686 6.20722 16.8399 5.76719 18.9609C5.73638 19.1149 5.66158 19.1501 5.51197 19.1501C4.4911 19.1501 3.47463 19.1633 2.45377 19.1633C2.28215 19.1633 2.22935 19.2073 2.22935 19.3833C2.22935 20.2633 2.23375 21.1434 2.22055 22.0235C2.19855 23.1235 2.22055 24.2236 2.21175 25.3237C2.21175 25.5085 2.26015 25.5569 2.44497 25.5569C3.47023 25.5481 4.4999 25.5569 5.52517 25.5481C5.68358 25.5481 5.74079 25.6009 5.77159 25.7461C5.8992 26.3402 6.05321 26.9254 6.23362 27.5062C6.70005 28.9891 7.3821 30.3708 8.21815 31.6777C8.33696 31.8581 8.32816 31.9637 8.16975 32.1177C7.4525 32.8174 6.74845 33.539 6.0312 34.2431C5.9124 34.3619 5.9168 34.4191 6.03561 34.5335C7.4481 35.9416 8.86059 37.3497 10.2643 38.7666C10.3831 38.8898 10.4403 38.8722 10.5503 38.7622C11.272 38.0317 12.0024 37.3101 12.7241 36.5796C12.8297 36.474 12.9089 36.452 13.0409 36.5356C13.6041 36.8921 14.1761 37.2353 14.7702 37.5345C16.1255 38.2209 17.5468 38.7006 19.0297 39.0218C19.1925 39.057 19.2497 39.123 19.2497 39.299C19.2409 40.3111 19.2497 41.3232 19.2409 42.3352C19.2409 42.5024 19.2761 42.5684 19.4609 42.564C19.8129 42.5552 20.1649 42.5772 20.517 42.5772C22.1539 42.5772 23.7864 42.5772 25.4233 42.5816C25.6081 42.5816 25.6565 42.5332 25.6565 42.3484C25.6477 41.3452 25.6565 40.3375 25.6477 39.3342C25.6477 39.1406 25.6917 39.057 25.8941 39.013C26.431 38.8986 26.9634 38.7578 27.487 38.5994C29.0359 38.1241 30.4792 37.4157 31.8433 36.5444C31.9841 36.4564 32.0633 36.4696 32.1777 36.584C32.8994 37.3145 33.6298 38.0361 34.3515 38.7666C34.4527 38.8722 34.5099 38.8898 34.6243 38.7754C36.028 37.3629 37.4405 35.9504 38.853 34.5467C38.9806 34.4191 38.963 34.3487 38.8486 34.2343C38.1269 33.5214 37.4185 32.8042 36.6969 32.0913C36.578 31.9725 36.5516 31.8889 36.6484 31.7393C37.0005 31.1893 37.3305 30.6304 37.6297 30.0496C38.3206 28.6899 38.8046 27.2598 39.1258 25.7725C39.161 25.6053 39.227 25.5525 39.403 25.5525C40.4019 25.5613 41.3964 25.5569 42.3952 25.5569C42.6857 25.5569 42.6857 25.5569 42.6813 25.2797C42.6769 24.0124 42.6681 22.7451 42.6637 21.4734C42.6593 20.7782 42.6593 20.0785 42.6637 19.3833C42.6637 19.2469 42.6504 19.1633 42.4788 19.1677C42.2808 19.1765 42.0828 19.1545 41.8848 19.1501C41.0575 19.1501 40.2259 19.1413 39.3986 19.1545C39.2226 19.1589 39.161 19.0929 39.1214 18.9301C39.0026 18.4328 38.8794 17.9356 38.7386 17.4428C38.2722 15.8411 37.5417 14.3626 36.6484 12.9589C36.5516 12.8049 36.5824 12.7256 36.6969 12.6068C37.4229 11.8896 38.1357 11.1635 38.8662 10.4507C38.985 10.3363 38.9806 10.2791 38.8662 10.1603C37.4537 8.75658 36.0412 7.34409 34.6375 5.9316C34.5187 5.81279 34.4615 5.82159 34.3471 5.936C33.6386 6.65764 32.917 7.36609 32.2042 8.08774C32.0765 8.21975 31.9841 8.24615 31.8169 8.14054C29.9732 6.94366 27.9799 6.11201 25.8237 5.66758C25.6741 5.63678 25.6477 5.55757 25.6477 5.42116C25.6521 4.39589 25.6477 3.36622 25.6565 2.34096C25.6565 2.15614 25.5993 2.10774 25.4233 2.11214C24.442 2.12534 23.4696 2.12094 22.4927 2.12094Z" fill="#9A9A9A"/>
<path d="M44.4731 30.1465C44.5391 30.1465 44.5699 30.1949 44.6051 30.2301C45.2431 30.8681 45.8768 31.5062 46.5192 32.1398C46.5984 32.219 46.6028 32.2674 46.5192 32.351C46.0792 32.7823 45.6435 33.2179 45.2123 33.6579C45.1287 33.7415 45.0803 33.7371 45.0011 33.6579C44.363 33.0111 43.7206 32.373 43.0738 31.7306C43.0166 31.6734 42.9726 31.6294 43.0562 31.5502C43.5094 31.1013 43.9582 30.6525 44.4115 30.1993C44.4291 30.1773 44.4555 30.1597 44.4731 30.1465Z" fill="#9B9B9B"/>
<path d="M31.7196 42.8984C31.7636 42.9336 31.8032 42.9644 31.8384 42.9996C32.472 43.6289 33.1012 44.2669 33.7349 44.8918C33.8361 44.993 33.8229 45.0458 33.7305 45.1338C33.3081 45.5474 32.8856 45.9698 32.472 46.3923C32.3752 46.4891 32.318 46.5067 32.2124 46.4011C31.5919 45.7674 30.9627 45.1426 30.3335 44.5221C30.2455 44.4341 30.2191 44.3813 30.3247 44.2801C30.7603 43.8577 31.1871 43.4221 31.6183 42.9952C31.6447 42.96 31.6799 42.9336 31.7196 42.8984Z" fill="#9B9B9B"/>
<path d="M22.4829 34.0587C15.9133 34.0587 11.3414 28.9719 10.7958 23.652C10.4569 20.3474 11.3238 17.3508 13.4887 14.8074C15.7857 12.1056 18.7471 10.7063 22.3025 10.6535C28.8854 10.5611 34.2185 15.9427 34.1525 22.4815C34.0865 28.8399 28.8678 34.0499 22.4829 34.0587ZM22.4565 31.9377C24.1683 31.9201 25.8536 31.4801 27.4025 30.5384C28.815 29.6804 29.937 28.5363 30.7555 27.1106C31.7016 25.4561 32.1108 23.6696 32.0052 21.7599C31.7368 17.0075 27.8117 12.8141 22.4873 12.7745C17.1366 12.7349 12.9475 17.0251 12.8683 22.2043C12.7847 27.6342 17.1366 31.8761 22.4565 31.9377Z" fill="#9A9A9A"/>
</svg>
