<svg width="115" height="115" viewBox="0 0 115 115" fill="none" xmlns="http://www.w3.org/2000/svg">
<path d="M57.5 114C42.3923 114 28.2075 108.123 17.5433 97.4617C6.87901 86.7666 1 72.586 1 57.4829C1 42.3798 6.87901 28.1993 17.5433 17.5383C28.2417 6.87723 42.4265 1 57.5 1C72.6077 1 86.7925 6.87723 97.4567 17.5383C108.121 28.1993 114 42.3798 114 57.4829C114 72.586 108.121 86.7666 97.4567 97.4276C86.7925 108.123 72.6077 114 57.5 114ZM57.5 7.5948C44.1697 7.5948 31.6255 12.7886 22.1918 22.2195C12.758 31.6504 7.56261 44.1908 7.56261 57.5171C7.56261 70.8434 12.758 83.3837 22.1918 92.8146C31.6255 102.246 44.1697 107.439 57.5 107.439C70.8303 107.439 83.3745 102.246 92.8082 92.8146C102.242 83.3837 107.437 70.8434 107.437 57.5171C107.437 44.1908 102.242 31.6504 92.8082 22.2195C83.3745 12.7886 70.8303 7.5948 57.5 7.5948ZM84.5541 68.0756C81.7172 68.0756 79.0853 66.9822 77.0687 64.9661C75.0862 62.9843 73.9583 60.319 73.9583 57.4829C73.9583 54.6468 75.052 52.0157 77.0687 49.9997C79.0511 48.0178 81.7172 46.8902 84.5541 46.8902C87.3911 46.8902 90.023 47.9837 92.0396 49.9997C94.0221 51.9816 95.15 54.6468 95.15 57.4829C95.15 60.319 94.0563 62.9501 92.0396 64.9661C90.023 66.948 87.3911 68.0756 84.5541 68.0756ZM84.5541 53.5192C83.4946 53.5192 82.5033 53.9292 81.7514 54.681C80.9994 55.4327 80.5892 56.4236 80.5892 57.4829C80.5892 58.5422 80.9994 59.5331 81.7514 60.2849C82.5033 61.0366 83.4946 61.4466 84.5541 61.4466C85.6137 61.4466 86.605 61.0366 87.3569 60.2849C88.1089 59.5331 88.5191 58.5422 88.5191 57.4829C88.5191 56.4236 88.1089 55.4327 87.3569 54.681C86.605 53.9292 85.6137 53.5192 84.5541 53.5192ZM57.5 68.0756C54.663 68.0756 52.0312 66.9822 50.0145 64.9661C48.0321 62.9843 46.9041 60.319 46.9041 57.4829C46.9041 54.6468 47.9979 52.0157 50.0145 49.9997C51.997 48.0178 54.663 46.8902 57.5 46.8902C60.337 46.8902 62.9688 47.9837 64.9855 49.9997C66.9679 51.9816 68.0959 54.6468 68.0959 57.4829C68.0959 60.319 67.0021 62.9501 64.9855 64.9661C62.9688 66.948 60.337 68.0756 57.5 68.0756ZM57.5 53.5192C56.4404 53.5192 55.4492 53.9292 54.6972 54.681C53.9453 55.4327 53.5351 56.4236 53.5351 57.4829C53.5351 58.5422 53.9453 59.5331 54.6972 60.2849C55.4492 61.0366 56.4404 61.4466 57.5 61.4466C58.5596 61.4466 59.5508 61.0366 60.3028 60.2849C61.0547 59.5331 61.4649 58.5422 61.4649 57.4829C61.4649 56.4236 61.0547 55.4327 60.3028 54.681C59.5508 53.9292 58.5596 53.5192 57.5 53.5192ZM30.4459 68.0756C27.6089 68.0756 24.977 66.9822 22.9604 64.9661C20.9779 62.9843 19.85 60.319 19.85 57.4829C19.85 54.6468 20.9437 52.0157 22.9604 49.9997C24.9428 48.0178 27.6089 46.8902 30.4459 46.8902C33.2828 46.8902 35.9147 47.9837 37.9313 49.9997C39.9138 51.9816 41.0417 54.6468 41.0417 57.4829C41.0417 60.319 39.948 62.9501 37.9313 64.9661C35.9147 66.9822 33.2828 68.0756 30.4459 68.0756ZM30.4459 53.5192C29.3863 53.5192 28.395 53.9292 27.6431 54.681C26.8911 55.4327 26.4809 56.4236 26.4809 57.4829C26.4809 58.5422 26.8911 59.5331 27.6431 60.2849C28.395 61.0366 29.3863 61.4466 30.4459 61.4466C31.5054 61.4466 32.4967 61.0366 33.2486 60.2849C34.0006 59.5331 34.4108 58.5422 34.4108 57.4829C34.4108 56.4236 34.0006 55.4327 33.2486 54.681C32.4967 53.9292 31.5054 53.5192 30.4459 53.5192Z" fill="url(#paint0_linear_1052_716)" stroke="url(#paint1_linear_1052_716)" stroke-miterlimit="10"/>
<defs>
<linearGradient id="paint0_linear_1052_716" x1="57.5" y1="1" x2="57.5" y2="114" gradientUnits="userSpaceOnUse">
<stop stop-color="#D7282F"/>
<stop offset="1" stop-color="#231F20"/>
</linearGradient>
<linearGradient id="paint1_linear_1052_716" x1="57.5" y1="1" x2="57.5" y2="114" gradientUnits="userSpaceOnUse">
<stop stop-color="#D7282F"/>
<stop offset="1" stop-color="#231F20"/>
</linearGradient>
</defs>
</svg>
