<svg width="58" height="50" viewBox="0 0 58 50" fill="none" xmlns="http://www.w3.org/2000/svg">
<g clip-path="url(#clip0_1228_270)">
<path fill-rule="evenodd" clip-rule="evenodd" d="M15.22 6.52145C15.22 7.12251 14.733 7.60835 14.1331 7.60835C13.5331 7.60835 13.0461 7.12251 13.0461 6.52145V5.43454C13.0461 2.43793 15.4841 0 18.4807 0H32.6105C35.6071 0 38.045 2.43793 38.045 5.43454V6.52145C38.045 7.12251 37.5592 7.60835 36.9581 7.60835C36.3571 7.60835 35.8712 7.12251 35.8712 6.52145V5.43454C35.8712 3.63679 34.4082 2.17382 32.6105 2.17382H18.4807C16.6829 2.17382 15.22 3.63679 15.22 5.43454V6.52145ZM9.78217 11.9584C5.58671 11.9584 2.17382 15.3724 2.17382 19.5668V20.6537H20.6512V19.5668C20.6512 17.769 22.1142 16.3061 23.912 16.3061H28.2596C30.0573 16.3061 31.5203 17.769 31.5203 19.5668V20.6537H47.8239V19.5668C47.8239 15.3724 44.41 11.9584 40.2156 11.9584H9.78217ZM28.2596 28.262C28.8585 28.262 29.3465 27.7751 29.3465 27.1751V19.5668C29.3465 18.9668 28.8585 18.4799 28.2596 18.4799H23.912C23.3131 18.4799 22.8251 18.9668 22.8251 19.5668V27.1751C22.8251 27.7751 23.3131 28.262 23.912 28.262H28.2596ZM9.78217 47.8264H36.9549C37.5559 47.8264 38.0418 48.3122 38.0418 48.9133C38.0418 49.5143 37.5559 50.0002 36.9549 50.0002H9.78217C4.38893 50.0002 0 45.6123 0 40.218V19.5668C0 14.1725 4.38893 9.78461 9.78217 9.78461H40.2156C45.6099 9.78461 49.9977 14.1725 49.9977 19.5668V25.0013C49.9977 25.6024 49.5119 26.0882 48.9108 26.0882C48.3098 26.0882 47.8239 25.6024 47.8239 25.0013V22.8275H31.5203V27.1751C31.5203 28.9729 30.0573 30.4359 28.2596 30.4359H23.912C22.1142 30.4359 20.6512 28.9729 20.6512 27.1751V22.8275H2.17382V40.218C2.17382 44.4124 5.58671 47.8264 9.78217 47.8264ZM52.0941 33.6935C52.0941 35.4912 50.6312 36.9542 48.8334 36.9542C47.0357 36.9542 45.5727 35.4912 45.5727 33.6935C45.5727 31.8957 47.0357 30.4327 48.8334 30.4327C50.6312 30.4327 52.0941 31.8957 52.0941 33.6935ZM43.3989 33.6935C43.3989 36.6901 45.8368 39.128 48.8334 39.128C51.83 39.128 54.268 36.6901 54.268 33.6935C54.268 30.6969 51.83 28.2589 48.8334 28.2589C45.8368 28.2589 43.3989 30.6969 43.3989 33.6935ZM40.2143 48.9093C40.2143 44.7856 44.1956 41.3009 48.9096 41.3009C53.6615 41.3009 57.5287 44.6899 57.5287 48.8549C57.5287 49.456 57.0418 49.9418 56.4418 49.9418C55.8408 49.9418 55.3549 49.456 55.3549 48.8549C55.3549 45.8888 52.4638 43.4747 48.9096 43.4747C45.3749 43.4747 42.3881 45.9638 42.3881 48.9093C42.3881 49.5103 41.9023 49.9962 41.3012 49.9962C40.7002 49.9962 40.2143 49.5103 40.2143 48.9093Z" fill="url(#paint0_linear_1228_270)"/>
<path d="M2.17382 20.6537H1.97382V20.8537H2.17382V20.6537ZM20.6512 20.6537V20.8537H20.8512V20.6537H20.6512ZM31.5203 20.6537H31.3203V20.8537H31.5203V20.6537ZM47.8239 20.6537V20.8537H48.0239V20.6537H47.8239ZM47.8239 22.8275H48.0239V22.6275H47.8239V22.8275ZM31.5203 22.8275V22.6275H31.3203V22.8275H31.5203ZM20.6512 22.8275H20.8512V22.6275H20.6512V22.8275ZM2.17382 22.8275V22.6275H1.97382V22.8275H2.17382ZM14.1331 7.80835C14.8434 7.80835 15.42 7.23309 15.42 6.52145H15.02C15.02 7.01192 14.6227 7.40835 14.1331 7.40835V7.80835ZM12.8461 6.52145C12.8461 7.23309 13.4228 7.80835 14.1331 7.80835V7.40835C13.6434 7.40835 13.2461 7.01192 13.2461 6.52145H12.8461ZM12.8461 5.43454V6.52145H13.2461V5.43454H12.8461ZM18.4807 -0.2C15.3736 -0.2 12.8461 2.32748 12.8461 5.43454H13.2461C13.2461 2.54839 15.5945 0.2 18.4807 0.2V-0.2ZM32.6105 -0.2H18.4807V0.2H32.6105V-0.2ZM38.245 5.43454C38.245 2.32748 35.7175 -0.2 32.6105 -0.2V0.2C35.4966 0.2 37.845 2.54839 37.845 5.43454H38.245ZM38.245 6.52145V5.43454H37.845V6.52145H38.245ZM36.9581 7.80835C37.6696 7.80835 38.245 7.23296 38.245 6.52145H37.845C37.845 7.01205 37.4487 7.40835 36.9581 7.40835V7.80835ZM35.6712 6.52145C35.6712 7.23296 36.2466 7.80835 36.9581 7.80835V7.40835C36.4675 7.40835 36.0712 7.01205 36.0712 6.52145H35.6712ZM35.6712 5.43454V6.52145H36.0712V5.43454H35.6712ZM32.6105 2.37382C34.2978 2.37382 35.6712 3.74725 35.6712 5.43454H36.0712C36.0712 3.52634 34.5187 1.97382 32.6105 1.97382V2.37382ZM18.4807 2.37382H32.6105V1.97382H18.4807V2.37382ZM15.42 5.43454C15.42 3.74725 16.7934 2.37382 18.4807 2.37382V1.97382C16.5725 1.97382 15.02 3.52634 15.02 5.43454H15.42ZM15.42 6.52145V5.43454H15.02V6.52145H15.42ZM2.37382 19.5668C2.37382 15.4828 5.69718 12.1584 9.78217 12.1584V11.7584C5.47623 11.7584 1.97382 15.262 1.97382 19.5668H2.37382ZM2.37382 20.6537V19.5668H1.97382V20.6537H2.37382ZM20.6512 20.4537H2.17382V20.8537H20.6512V20.4537ZM20.4512 19.5668V20.6537H20.8512V19.5668H20.4512ZM23.912 16.1061C22.0038 16.1061 20.4512 17.6586 20.4512 19.5668H20.8512C20.8512 17.8795 22.2247 16.5061 23.912 16.5061V16.1061ZM28.2596 16.1061H23.912V16.5061H28.2596V16.1061ZM31.7203 19.5668C31.7203 17.6586 30.1678 16.1061 28.2596 16.1061V16.5061C29.9469 16.5061 31.3203 17.8795 31.3203 19.5668H31.7203ZM31.7203 20.6537V19.5668H31.3203V20.6537H31.7203ZM47.8239 20.4537H31.5203V20.8537H47.8239V20.4537ZM47.6239 19.5668V20.6537H48.0239V19.5668H47.6239ZM40.2156 12.1584C44.2995 12.1584 47.6239 15.4829 47.6239 19.5668H48.0239C48.0239 15.2619 44.5204 11.7584 40.2156 11.7584V12.1584ZM9.78217 12.1584H40.2156V11.7584H9.78217V12.1584ZM29.1465 27.1751C29.1465 27.6645 28.7482 28.062 28.2596 28.062V28.462C28.9688 28.462 29.5465 27.8857 29.5465 27.1751H29.1465ZM29.1465 19.5668V27.1751H29.5465V19.5668H29.1465ZM28.2596 18.6799C28.7482 18.6799 29.1465 19.0774 29.1465 19.5668H29.5465C29.5465 18.8562 28.9688 18.2799 28.2596 18.2799V18.6799ZM23.912 18.6799H28.2596V18.2799H23.912V18.6799ZM23.0251 19.5668C23.0251 19.0774 23.4234 18.6799 23.912 18.6799V18.2799C23.2028 18.2799 22.6251 18.8562 22.6251 19.5668H23.0251ZM23.0251 27.1751V19.5668H22.6251V27.1751H23.0251ZM23.912 28.062C23.4234 28.062 23.0251 27.6645 23.0251 27.1751H22.6251C22.6251 27.8857 23.2028 28.462 23.912 28.462V28.062ZM28.2596 28.062H23.912V28.462H28.2596V28.062ZM36.9549 47.6264H9.78217V48.0264H36.9549V47.6264ZM38.2418 48.9133C38.2418 48.2018 37.6664 47.6264 36.9549 47.6264V48.0264C37.4455 48.0264 37.8418 48.4227 37.8418 48.9133H38.2418ZM36.9549 50.2002C37.6664 50.2002 38.2418 49.6248 38.2418 48.9133H37.8418C37.8418 49.4039 37.4455 49.8002 36.9549 49.8002V50.2002ZM9.78217 50.2002H36.9549V49.8002H9.78217V50.2002ZM-0.2 40.218C-0.2 45.7228 4.27849 50.2002 9.78217 50.2002V49.8002C4.49938 49.8002 0.2 45.5019 0.2 40.218H-0.2ZM-0.2 19.5668V40.218H0.2V19.5668H-0.2ZM9.78217 9.58461C4.27849 9.58461 -0.2 14.062 -0.2 19.5668H0.2C0.2 14.2829 4.49938 9.98461 9.78217 9.98461V9.58461ZM40.2156 9.58461H9.78217V9.98461H40.2156V9.58461ZM50.1977 19.5668C50.1977 14.062 45.7204 9.58461 40.2156 9.58461V9.98461C45.4994 9.98461 49.7977 14.2829 49.7977 19.5668H50.1977ZM50.1977 25.0013V19.5668H49.7977V25.0013H50.1977ZM48.9108 26.2882C49.6224 26.2882 50.1977 25.7128 50.1977 25.0013H49.7977C49.7977 25.4919 49.4014 25.8882 48.9108 25.8882V26.2882ZM47.6239 25.0013C47.6239 25.7128 48.1993 26.2882 48.9108 26.2882V25.8882C48.4202 25.8882 48.0239 25.4919 48.0239 25.0013H47.6239ZM47.6239 22.8275V25.0013H48.0239V22.8275H47.6239ZM31.5203 23.0275H47.8239V22.6275H31.5203V23.0275ZM31.7203 27.1751V22.8275H31.3203V27.1751H31.7203ZM28.2596 30.6359C30.1678 30.6359 31.7203 29.0833 31.7203 27.1751H31.3203C31.3203 28.8624 29.9469 30.2359 28.2596 30.2359V30.6359ZM23.912 30.6359H28.2596V30.2359H23.912V30.6359ZM20.4512 27.1751C20.4512 29.0833 22.0038 30.6359 23.912 30.6359V30.2359C22.2247 30.2359 20.8512 28.8624 20.8512 27.1751H20.4512ZM20.4512 22.8275V27.1751H20.8512V22.8275H20.4512ZM2.17382 23.0275H20.6512V22.6275H2.17382V23.0275ZM2.37382 40.218V22.8275H1.97382V40.218H2.37382ZM9.78217 47.6264C5.69718 47.6264 2.37382 44.302 2.37382 40.218H1.97382C1.97382 44.5228 5.47623 48.0264 9.78217 48.0264V47.6264ZM48.8334 37.1542C50.7416 37.1542 52.2941 35.6017 52.2941 33.6935H51.8941C51.8941 35.3808 50.5207 36.7542 48.8334 36.7542V37.1542ZM45.3727 33.6935C45.3727 35.6017 46.9252 37.1542 48.8334 37.1542V36.7542C47.1461 36.7542 45.7727 35.3808 45.7727 33.6935H45.3727ZM48.8334 30.2327C46.9252 30.2327 45.3727 31.7853 45.3727 33.6935H45.7727C45.7727 32.0062 47.1461 30.6327 48.8334 30.6327V30.2327ZM52.2941 33.6935C52.2941 31.7853 50.7416 30.2327 48.8334 30.2327V30.6327C50.5207 30.6327 51.8941 32.0062 51.8941 33.6935H52.2941ZM48.8334 38.928C45.9473 38.928 43.5989 36.5796 43.5989 33.6935H43.1989C43.1989 36.8005 45.7264 39.328 48.8334 39.328V38.928ZM54.068 33.6935C54.068 36.5796 51.7196 38.928 48.8334 38.928V39.328C51.9405 39.328 54.468 36.8005 54.468 33.6935H54.068ZM48.8334 28.4589C51.7196 28.4589 54.068 30.8073 54.068 33.6935H54.468C54.468 30.5864 51.9405 28.0589 48.8334 28.0589V28.4589ZM43.5989 33.6935C43.5989 30.8073 45.9473 28.4589 48.8334 28.4589V28.0589C45.7264 28.0589 43.1989 30.5864 43.1989 33.6935H43.5989ZM48.9096 41.1009C44.1111 41.1009 40.0143 44.6509 40.0143 48.9093H40.4143C40.4143 44.9202 44.2802 41.5009 48.9096 41.5009V41.1009ZM57.7287 48.8549C57.7287 44.5555 53.7464 41.1009 48.9096 41.1009V41.5009C53.5767 41.5009 57.3287 44.8243 57.3287 48.8549H57.7287ZM56.4418 50.1418C57.1521 50.1418 57.7287 49.5666 57.7287 48.8549H57.3287C57.3287 49.3454 56.9315 49.7418 56.4418 49.7418V50.1418ZM55.1549 48.8549C55.1549 49.5665 55.7303 50.1418 56.4418 50.1418V49.7418C55.9512 49.7418 55.5549 49.3455 55.5549 48.8549H55.1549ZM48.9096 43.6747C52.3886 43.6747 55.1549 46.0315 55.1549 48.8549H55.5549C55.5549 45.746 52.5389 43.2747 48.9096 43.2747V43.6747ZM42.5881 48.9093C42.5881 46.1068 45.4497 43.6747 48.9096 43.6747V43.2747C45.3002 43.2747 42.1881 45.8207 42.1881 48.9093H42.5881ZM41.3012 50.1962C42.0127 50.1962 42.5881 49.6208 42.5881 48.9093H42.1881C42.1881 49.3999 41.7918 49.7962 41.3012 49.7962V50.1962ZM40.0143 48.9093C40.0143 49.6208 40.5897 50.1962 41.3012 50.1962V49.7962C40.8106 49.7962 40.4143 49.3999 40.4143 48.9093H40.0143Z" fill="url(#paint1_linear_1228_270)"/>
</g>
<defs>
<linearGradient id="paint0_linear_1228_270" x1="-3.80409" y1="9.78265" x2="53.8034" y2="49.9964" gradientUnits="userSpaceOnUse">
<stop stop-color="#231F20"/>
<stop offset="1" stop-color="#D7282F"/>
</linearGradient>
<linearGradient id="paint1_linear_1228_270" x1="61.838" y1="50.0002" x2="-3.95074" y2="-2.62704" gradientUnits="userSpaceOnUse">
<stop stop-color="#D7282F"/>
<stop offset="1" stop-color="#231F20"/>
</linearGradient>
<clipPath id="clip0_1228_270">
<rect width="57.5287" height="50.0002" fill="white"/>
</clipPath>
</defs>
</svg>
