<svg width="52" height="52" viewBox="0 0 52 52" fill="none" xmlns="http://www.w3.org/2000/svg">
<path d="M26 49.5C39.2548 49.5 50 38.7548 50 25.5C50 12.2452 39.2548 1.5 26 1.5C12.7452 1.5 2 12.2452 2 25.5C2 38.7548 12.7452 49.5 26 49.5Z" stroke="#D7282F"/>
<path fill-rule="evenodd" clip-rule="evenodd" d="M16.8229 36.4968H14.8944C14.126 36.4968 13.3916 36.1801 12.8485 35.6171C12.3055 35.0573 12 34.2927 12 33.4961V17.5007C12 16.7073 12.3055 15.9427 12.8485 15.3797C13.3885 14.8167 14.126 14.5 14.8944 14.5H16.8229V14.5511V36.4968ZM34.1801 14.5032H36.1087C36.8771 14.5032 37.6115 14.8199 38.1545 15.3829C38.6976 15.9459 39 16.7073 39 17.5039V33.4993C39 34.2959 38.6976 35.0573 38.1545 35.6203C37.6115 36.1833 36.8771 36.5 36.1087 36.5H34.1801V14.5543V14.5032Z" fill="#D7282F"/>
<path fill-rule="evenodd" clip-rule="evenodd" d="M32.997 36.4987C32.997 38.1562 31.7373 39.5 30.1836 39.5H20.8134C19.2598 39.5 18 38.1562 18 36.4987V14.5013C18 12.8438 19.2598 11.5 20.8134 11.5H30.1866C31.7402 11.5 33 12.8438 33 14.5013V36.4987H32.997ZM22.688 17.4993H28.312C28.8309 17.4993 29.2508 17.0514 29.2508 16.4978C29.2508 15.9442 28.8309 15.4963 28.312 15.4963H22.688C22.1691 15.4963 21.7523 15.9442 21.7523 16.4978C21.7523 17.0514 22.1691 17.4993 22.688 17.4993ZM22.688 26.4999H28.312C28.8309 26.4999 29.2508 26.052 29.2508 25.4984C29.2508 24.9448 28.8309 24.4969 28.312 24.4969H22.688C22.1691 24.4969 21.7523 24.9448 21.7523 25.4984C21.7523 26.052 22.1691 26.4999 22.688 26.4999ZM22.688 21.4988H28.312C28.8309 21.4988 29.2508 21.0509 29.2508 20.4974C29.2508 19.9438 28.8309 19.4991 28.312 19.4991H22.688C22.1691 19.4991 21.7523 19.947 21.7523 20.5006C21.7523 21.0542 22.1691 21.4988 22.688 21.4988ZM22.688 35.4972H28.312C28.8309 35.4972 29.2508 35.0493 29.2508 34.4958C29.2508 33.9423 28.8309 33.4943 28.312 33.4943H22.688C22.1691 33.4943 21.7523 33.9423 21.7523 34.4958C21.7523 35.0493 22.1691 35.4972 22.688 35.4972ZM22.688 31.4977H28.312C28.8309 31.4977 29.2508 31.0498 29.2508 30.4962C29.2508 29.9426 28.8309 29.4947 28.312 29.4947H22.688C22.1691 29.4947 21.7523 29.9426 21.7523 30.4962C21.7523 31.0498 22.1691 31.4977 22.688 31.4977Z" fill="#D7282F"/>
</svg>
