<svg width="27" height="28" viewBox="0 0 27 28" fill="none" xmlns="http://www.w3.org/2000/svg">
<path fill-rule="evenodd" clip-rule="evenodd" d="M4.78003 25H2.85004C2.47517 24.9921 2.10553 24.9103 1.76233 24.7593C1.41913 24.6083 1.10913 24.391 0.850037 24.12C0.304588 23.549 0.000127396 22.7897 0 22V6C0.000127396 5.21031 0.304588 4.45105 0.850037 3.88C1.10913 3.60897 1.41913 3.39173 1.76233 3.24072C2.10553 3.08972 2.47517 3.00791 2.85004 3H4.78003V25ZM22.14 3H24.07C24.4451 3.00681 24.815 3.08812 25.1584 3.2392C25.5017 3.39027 25.8116 3.60809 26.07 3.88C26.6218 4.44695 26.9273 5.2089 26.92 6V22C26.9273 22.7911 26.6218 23.553 26.07 24.12C25.8116 24.3919 25.5017 24.6097 25.1584 24.7608C24.815 24.9119 24.4451 24.9932 24.07 25H22.14V3Z" fill="#D7282F"/>
<path fill-rule="evenodd" clip-rule="evenodd" d="M20.96 25C20.972 25.3822 20.9086 25.763 20.7733 26.1207C20.638 26.4783 20.4336 26.8058 20.1717 27.0844C19.9098 27.3631 19.5956 27.5873 19.247 27.7444C18.8984 27.9015 18.5222 27.9884 18.14 28H8.77C7.99986 27.9739 7.27152 27.6434 6.74473 27.081C6.21795 26.5186 5.93573 25.7702 5.96 25V3C5.93573 2.2298 6.21795 1.48141 6.74473 0.919006C7.27152 0.356601 7.99986 0.0260982 8.77 0H18.15C18.9201 0.0260982 19.6485 0.356601 20.1753 0.919006C20.7021 1.48141 20.9843 2.2298 20.96 3V25ZM10.65 6H16.27C16.5352 6 16.7896 5.89463 16.9771 5.70709C17.1646 5.51956 17.27 5.26522 17.27 5C17.27 4.73478 17.1646 4.48044 16.9771 4.29291C16.7896 4.10537 16.5352 4 16.27 4H10.65C10.3848 4 10.1304 4.10537 9.94291 4.29291C9.75538 4.48044 9.65001 4.73478 9.65001 5C9.65001 5.26522 9.75538 5.51956 9.94291 5.70709C10.1304 5.89463 10.3848 6 10.65 6ZM10.65 15H16.27C16.5352 15 16.7896 14.8946 16.9771 14.7071C17.1646 14.5196 17.27 14.2652 17.27 14C17.27 13.7348 17.1646 13.4804 16.9771 13.2929C16.7896 13.1054 16.5352 13 16.27 13H10.65C10.3848 13 10.1304 13.1054 9.94291 13.2929C9.75538 13.4804 9.65001 13.7348 9.65001 14C9.65001 14.2652 9.75538 14.5196 9.94291 14.7071C10.1304 14.8946 10.3848 15 10.65 15ZM10.65 10H16.27C16.5352 10 16.7896 9.89463 16.9771 9.70709C17.1646 9.51956 17.27 9.26522 17.27 9C17.27 8.73478 17.1646 8.48044 16.9771 8.29291C16.7896 8.10537 16.5352 8 16.27 8H10.65C10.3848 8 10.1304 8.10537 9.94291 8.29291C9.75538 8.48044 9.65001 8.73478 9.65001 9C9.65001 9.26522 9.75538 9.51956 9.94291 9.70709C10.1304 9.89463 10.3848 10 10.65 10ZM10.65 24H16.27C16.5352 24 16.7896 23.8946 16.9771 23.7071C17.1646 23.5196 17.27 23.2652 17.27 23C17.27 22.7348 17.1646 22.4804 16.9771 22.2929C16.7896 22.1054 16.5352 22 16.27 22H10.65C10.3848 22 10.1304 22.1054 9.94291 22.2929C9.75538 22.4804 9.65001 22.7348 9.65001 23C9.65001 23.2652 9.75538 23.5196 9.94291 23.7071C10.1304 23.8946 10.3848 24 10.65 24ZM10.65 20H16.27C16.5352 20 16.7896 19.8946 16.9771 19.7071C17.1646 19.5196 17.27 19.2652 17.27 19C17.27 18.7348 17.1646 18.4804 16.9771 18.2929C16.7896 18.1054 16.5352 18 16.27 18H10.65C10.3848 18 10.1304 18.1054 9.94291 18.2929C9.75538 18.4804 9.65001 18.7348 9.65001 19C9.65001 19.2652 9.75538 19.5196 9.94291 19.7071C10.1304 19.8946 10.3848 20 10.65 20Z" fill="#D7282F"/>
</svg>
