<svg width="76" height="49" viewBox="0 0 76 49" fill="none" xmlns="http://www.w3.org/2000/svg">
<path fill-rule="evenodd" clip-rule="evenodd" d="M26.7221 46.8655L19.5602 41.0553H14.6303C12.9073 41.0553 11.497 39.9102 11.497 38.5112V34.1797H8.51084V39.248C8.51084 40.3284 7.41939 41.2146 6.0888 41.2146H2.42203C1.09145 41.2146 0 40.3284 0 39.248V22.0713C0 20.9909 1.09145 20.1047 2.42203 20.1047H6.0888C7.41939 20.1047 8.51084 20.9909 8.51084 22.0713V27.1397H11.497V22.4796C11.497 21.0806 12.9073 19.9355 14.6303 19.9355H19.8668L27.2678 13.5477C28.1262 12.9403 29.2667 12.7262 30.5973 12.771H61.0904C62.145 12.8656 62.9483 13.1942 63.4388 13.8116C63.9294 14.419 63.8497 14.7625 63.8497 15.4446V27.1397H66.8358V22.0713C66.8358 20.9909 67.9273 20.1047 69.2578 20.1047H72.9246C74.2552 20.1047 75.3466 20.9909 75.3466 22.0713V39.248C75.3466 40.3284 74.2552 41.2146 72.9246 41.2146H69.2578C67.9273 41.2146 66.8358 40.3284 66.8358 39.248V34.1797H63.8497V34.6377C63.8497 35.9969 63.8987 36.8184 62.8318 37.9436C62.6295 38.1577 62.4026 38.3618 62.1512 38.551L51.2183 47.2439C50.6726 47.7368 49.8448 48.0057 48.7534 48.0554H30.1129C28.721 48.0057 27.5866 47.6173 26.7221 46.8655ZM39.0652 31.7202L31.3147 31.1277L37.7408 19.6965H46.5275L41.5424 26.2535L50.507 27.06L34.0495 43.1016L39.0652 31.7202ZM31.8727 0.961426H53.0272C54.3578 0.961426 55.4492 1.84764 55.4492 2.92803V5.90533C55.4492 6.98572 54.3578 7.87193 53.0272 7.87193H46.7851V10.3762H38.1148V7.87193H31.8727C30.5421 7.87193 29.4507 6.98572 29.4507 5.90533V2.92803C29.4507 1.84764 30.5421 0.961426 31.8727 0.961426Z" fill="black"/>
</svg>
