<svg width="25" height="31" viewBox="0 0 25 31" fill="none" xmlns="http://www.w3.org/2000/svg">
<path d="M9.10945 13.817C9.14861 13.9108 9.20649 13.996 9.27974 14.0679L9.27343 14.0741C9.95318 14.7364 10.8636 15.127 11.825 15.1687V15.9591H11.8294C11.834 16.1482 11.9145 16.3282 12.0537 16.4604C12.1929 16.5926 12.3798 16.6666 12.5744 16.6666C12.769 16.6666 12.9559 16.5926 13.0951 16.4604C13.2344 16.3282 13.3149 16.1482 13.3194 15.9591H13.3238V15.1341C13.9855 15.0883 14.6053 14.8023 15.0602 14.3328C15.5151 13.8633 15.7718 13.2447 15.7793 12.5998C15.8014 12.2667 15.7521 11.9327 15.6347 11.619C15.5172 11.3054 15.3341 11.0188 15.0969 10.7774C14.6202 10.3881 14.0287 10.1557 13.4075 10.1138L12.3641 9.9694C12.0622 9.93893 11.7768 9.82074 11.5451 9.63025C11.4604 9.5505 11.3934 9.45462 11.3486 9.34858C11.3037 9.24254 11.2818 9.12864 11.2843 9.014C11.2843 8.4243 11.7302 7.92878 12.6492 7.92878C12.9767 7.90424 13.3059 7.94379 13.6174 8.04507C13.929 8.14636 14.2164 8.30733 14.4629 8.51848L14.4648 8.51667C14.5715 8.62271 14.7083 8.69541 14.8577 8.72549C15.0071 8.75557 15.1624 8.74166 15.3036 8.68553C15.4449 8.6294 15.5657 8.53361 15.6507 8.41039C15.7356 8.28717 15.7809 8.14212 15.7807 7.99377C15.7801 7.8904 15.7573 7.78829 15.7136 7.69405C15.6699 7.59981 15.6063 7.51554 15.527 7.4467C14.927 6.89447 14.1481 6.56247 13.3238 6.50767V5.68878C13.3084 5.50427 13.2234 5.33182 13.085 5.20464C12.9466 5.07747 12.7648 5.00457 12.5744 5C12.3855 5.00048 12.2036 5.06957 12.0643 5.19371C11.9251 5.31785 11.8386 5.48808 11.8217 5.67103L11.8249 6.56103C11.2046 6.64573 10.6378 6.94834 10.2313 7.41169C9.82495 7.87504 9.60716 8.46705 9.61912 9.07588C9.60083 9.38463 9.64762 9.69375 9.75661 9.98429C9.86561 10.2748 10.0345 10.5406 10.253 10.7654C10.7317 11.1743 11.3319 11.4243 11.9666 11.479L13.0342 11.6236C13.322 11.6375 13.597 11.7432 13.8168 11.9244C13.9121 12.0199 13.9857 12.1338 14.0327 12.2588C14.0797 12.3838 14.0992 12.5169 14.0898 12.6497C14.0898 13.3369 13.5439 13.7114 12.5247 13.7114C12.1412 13.7353 11.7567 13.6849 11.3935 13.5629C11.0303 13.441 10.6957 13.25 10.4093 13.001C10.3375 12.9277 10.2515 12.869 10.1562 12.8283C10.061 12.7875 9.95837 12.7655 9.85432 12.7636C9.75027 12.7616 9.64685 12.7797 9.55005 12.8168C9.45324 12.854 9.36496 12.9094 9.29032 12.9799C9.21568 13.0504 9.15615 13.1346 9.11518 13.2276C9.07421 13.3206 9.05261 13.4206 9.05163 13.5217C9.05064 13.6229 9.0703 13.7233 9.10945 13.817Z" fill="#D7282F"/>
<path d="M6.41671 20H18.4167C18.644 20 18.8621 20.0878 19.0228 20.2441C19.1836 20.4004 19.2739 20.6123 19.2739 20.8333C19.2739 21.0543 19.1836 21.2663 19.0228 21.4226C18.8621 21.5789 18.644 21.6667 18.4167 21.6667H6.41671C6.18938 21.6667 5.97137 21.5789 5.81062 21.4226C5.64988 21.2663 5.55957 21.0543 5.55957 20.8333C5.55957 20.6123 5.64988 20.4004 5.81062 20.2441C5.97137 20.0878 6.18938 20 6.41671 20Z" fill="#D7282F"/>
<path d="M6.41671 23.3333H18.4167C18.644 23.3333 18.8621 23.4211 19.0228 23.5774C19.1836 23.7337 19.2739 23.9457 19.2739 24.1667C19.2739 24.3877 19.1836 24.5996 19.0228 24.7559C18.8621 24.9122 18.644 25 18.4167 25H6.41671C6.18938 25 5.97137 24.9122 5.81062 24.7559C5.64988 24.5996 5.55957 24.3877 5.55957 24.1667C5.55957 23.9457 5.64988 23.7337 5.81062 23.5774C5.97137 23.4211 6.18938 23.3333 6.41671 23.3333Z" fill="#D7282F"/>
<path d="M24.5596 5.5V25.5C24.5596 26.8261 24.0177 28.0979 23.0533 29.0355C22.0888 29.9732 20.7807 30.5 19.4167 30.5H5.70243C4.33846 30.5 3.03035 29.9732 2.06588 29.0355C1.10141 28.0979 0.55957 26.8261 0.55957 25.5V5.5C0.55957 4.17392 1.10141 2.90215 2.06588 1.96447C3.03035 1.02678 4.33846 0.5 5.70243 0.5H19.4167C20.7807 0.5 22.0888 1.02678 23.0533 1.96447C24.0177 2.90215 24.5596 4.17392 24.5596 5.5ZM22.8453 5.5C22.8442 4.61626 22.4827 3.769 21.8399 3.1441C21.1972 2.5192 20.3257 2.16768 19.4167 2.16667H5.70243C4.79343 2.16768 3.92197 2.5192 3.27921 3.1441C2.63646 3.769 2.2749 4.61626 2.27386 5.5V25.5C2.2749 26.3837 2.63646 27.231 3.27921 27.8559C3.92197 28.4808 4.79343 28.8323 5.70243 28.8333H19.4167C20.3257 28.8323 21.1972 28.4808 21.8399 27.8559C22.4827 27.231 22.8442 26.3837 22.8453 25.5V5.5Z" fill="#231F20"/>
</svg>
