<svg width="80" height="52" viewBox="0 0 80 52" fill="none" xmlns="http://www.w3.org/2000/svg">
<g clip-path="url(#clip0_1225_189)">
<path fill-rule="evenodd" clip-rule="evenodd" d="M79.7424 6.82613L66.0901 0L52.5335 6.82613V21.2838L66.0901 28.102L79.7424 21.2838V6.82613ZM66.5606 4.58531L74.6148 8.62038L71.9832 9.92022L64.0088 5.86919L66.5606 4.58531ZM65.6834 22.7511L57.7807 18.7639V10.3987L65.6834 14.3859V22.7511ZM58.5064 8.62038L61.5686 7.08131L69.6308 11.1164L66.5526 12.6555L58.5064 8.62038ZM75.3484 19.027L67.4458 22.9744V14.2822L70.9545 12.5119V13.3094C70.9545 13.3094 71.2735 14.3939 71.8397 14.3939C72.4059 14.3939 72.7089 13.3094 72.7089 13.3094V11.555L75.3484 10.2312V19.027ZM44.103 26.4842C42.9693 25.787 41.653 25.445 40.3234 25.5023C38.5946 25.54 36.9516 26.2625 35.7553 27.5111C34.5591 28.7597 33.9075 30.4322 33.9438 32.161C33.9435 33.4919 34.3415 34.7923 35.0865 35.8951C35.8316 36.9978 36.8896 37.8523 38.1245 38.3486C39.3594 38.8449 40.7145 38.9602 42.0154 38.6797C43.3164 38.3992 44.5036 37.7358 45.4243 36.7749C46.345 35.8139 46.957 34.5993 47.1816 33.2876C47.4061 31.9758 47.2329 30.6269 46.6842 29.4144C46.1356 28.2019 45.2366 27.1814 44.103 26.4842ZM25.3732 36.028L25.363 36.0173L25.445 36.028H25.3732ZM25.363 36.0173L20.8517 31.3071C20.6129 31.0504 20.4802 30.7128 20.4802 30.3622C20.4802 30.0116 20.6129 29.6739 20.8517 29.4172C20.9674 29.2928 21.1075 29.1936 21.2632 29.1258C21.4189 29.0579 21.587 29.0229 21.7568 29.0229C21.9267 29.0229 22.0947 29.0579 22.2504 29.1258C22.4062 29.1936 22.5462 29.2928 22.6619 29.4172L27.1834 34.1381L27.1356 33.7553C27.0899 33.411 27.1814 33.0626 27.3902 32.7852C27.5991 32.5077 27.9086 32.3234 28.252 32.272C28.4216 32.2522 28.5934 32.2666 28.7573 32.3143C28.9212 32.3621 29.0739 32.4423 29.2062 32.5501C29.3386 32.6579 29.448 32.7912 29.5279 32.942C29.6078 33.0929 29.6566 33.2583 29.6715 33.4283L30.2058 37.6628C30.2341 37.8614 30.2164 38.0638 30.154 38.2545C30.0916 38.4452 29.9861 38.6189 29.8458 38.7623C29.7055 38.9057 29.5341 39.0149 29.3449 39.0814C29.1556 39.1479 28.9536 39.1701 28.7544 39.146L24.7672 38.6277C24.4236 38.5745 24.1148 38.3882 23.9074 38.1092C23.7 37.8302 23.6107 37.4808 23.6587 37.1365C23.6746 36.9668 23.7242 36.802 23.8044 36.6517C23.8846 36.5013 23.994 36.3685 24.1261 36.2609C24.2583 36.1532 24.4105 36.073 24.5739 36.0248C24.7374 35.9766 24.9088 35.9614 25.0782 35.9802L25.363 36.0173ZM57.9867 29.4172L53.4652 34.1381L53.513 33.7553C53.5587 33.411 53.4673 33.0626 53.2584 32.7852C53.0496 32.5077 52.7401 32.3234 52.3966 32.272C52.2271 32.2522 52.0552 32.2666 51.8913 32.3143C51.7274 32.3621 51.5748 32.4423 51.4424 32.5501C51.31 32.6579 51.2007 32.7912 51.1208 32.942C51.0408 33.0929 50.992 33.2583 50.9772 33.4283L50.4748 37.6628C50.4464 37.8614 50.4641 38.0638 50.5265 38.2545C50.589 38.4452 50.6944 38.6189 50.8347 38.7623C50.975 38.9057 51.1464 39.0149 51.3357 39.0814C51.5249 39.1479 51.727 39.1701 51.9261 39.146L55.9532 38.6277C56.2961 38.5764 56.6049 38.3918 56.8125 38.114C57.0201 37.8363 57.1096 37.4878 57.0617 37.1444C57.0468 36.9741 56.998 36.8084 56.9182 36.6572C56.8383 36.5059 56.7291 36.3721 56.5969 36.2637C56.4647 36.1552 56.3121 36.0743 56.1482 36.0256C55.9842 35.9769 55.8122 35.9615 55.6422 35.9802L55.2754 36.028L59.7969 31.3071C60.0357 31.0504 60.1684 30.7128 60.1684 30.3622C60.1684 30.0116 60.0357 29.6739 59.7969 29.4172C59.6812 29.2928 59.5412 29.1936 59.3854 29.1258C59.2297 29.0579 59.0617 29.0229 58.8918 29.0229C58.722 29.0229 58.5539 29.0579 58.3982 29.1258C58.2425 29.1936 58.1024 29.2928 57.9867 29.4172ZM52.0413 51.8588C51.89 51.9358 51.7235 51.9785 51.5539 51.9839H29.1138V51.9999C28.9424 51.9949 28.7743 51.9519 28.6215 51.874C28.4688 51.7961 28.3354 51.6852 28.2308 51.5493C28.1262 51.4134 28.0532 51.256 28.0169 51.0884C27.9807 50.9209 27.9822 50.7473 28.0213 50.5804C28.5334 47.6871 30.0481 45.0665 32.2996 43.1786C34.5511 41.2906 37.3955 40.2558 40.3338 40.2558C43.2721 40.2558 46.1166 41.2906 48.368 43.1786C50.6195 45.0665 52.1342 47.6871 52.6464 50.5804C52.6827 50.7462 52.6822 50.918 52.6447 51.0836C52.6072 51.2492 52.5336 51.4045 52.4294 51.5385C52.3251 51.6724 52.1926 51.7818 52.0413 51.8588ZM13.6124 0.0317385L27.2248 6.85787V21.2836L13.6124 28.0938L0 21.2836V6.85787L13.6124 0.0317385ZM22.1052 8.65212L14.051 4.61705L11.4912 5.90093L19.4656 9.95195L22.1052 8.65212ZM5.26314 18.7956L13.1738 22.7828V14.4176L5.26314 10.4304V18.7956ZM9.05897 7.10507L5.99679 8.65212L14.051 12.6872L17.1211 11.1401L9.05897 7.10507ZM14.9282 23.0061L22.8308 19.0189V10.2311L20.1993 11.5548V13.3092C20.1993 13.3092 19.9042 14.3937 19.3301 14.3937C18.7559 14.3937 18.4369 13.3092 18.4369 13.3092V12.5117L14.9282 14.306V23.0061Z" fill="url(#paint0_linear_1225_189)"/>
</g>
<defs>
<linearGradient id="paint0_linear_1225_189" x1="79.7432" y1="33.8907" x2="-3.58831" y2="-0.000336411" gradientUnits="userSpaceOnUse">
<stop stop-color="#D7282F"/>
<stop offset="1" stop-color="#231F20"/>
</linearGradient>
<clipPath id="clip0_1225_189">
<rect width="79.7424" height="51.9999" fill="white"/>
</clipPath>
</defs>
</svg>
