<svg width="16" height="16" viewBox="0 0 16 16" fill="none" xmlns="http://www.w3.org/2000/svg">
<g clip-path="url(#clip0_4963_7686)">
<path d="M10.9297 5.17217C10.9916 5.23408 11.0408 5.30761 11.0744 5.38854C11.1079 5.46947 11.1252 5.55623 11.1252 5.64384C11.1252 5.73145 11.1079 5.8182 11.0744 5.89913C11.0408 5.98006 10.9916 6.05359 10.9297 6.1155L8.94165 8.10284L10.7257 9.88617C10.8507 10.0113 10.921 10.1809 10.921 10.3578C10.921 10.5347 10.8507 10.7044 10.7257 10.8295C10.6006 10.9546 10.4309 11.0249 10.254 11.0249C10.0771 11.0249 9.90741 10.9546 9.78232 10.8295L7.99899 9.0455L6.21565 10.8295C6.09056 10.9546 5.9209 11.0249 5.74399 11.0249C5.56708 11.0249 5.39741 10.9546 5.27232 10.8295C5.14723 10.7044 5.07695 10.5347 5.07695 10.3578C5.07695 10.1809 5.14723 10.0113 5.27232 9.88617L7.05632 8.10284L5.06832 6.1155C5.00638 6.05352 4.95725 5.97994 4.92375 5.89897C4.89024 5.818 4.87302 5.73123 4.87305 5.6436C4.87308 5.55597 4.89037 5.46921 4.92393 5.38826C4.95749 5.30732 5.00667 5.23378 5.06865 5.17184C5.13064 5.1099 5.20421 5.06077 5.28518 5.02727C5.36615 4.99376 5.45293 4.97653 5.54056 4.97656C5.62818 4.97659 5.71495 4.99388 5.79589 5.02745C5.87684 5.06101 5.95038 5.11019 6.01232 5.17217L7.99899 7.16084L9.98632 5.17284C10.0482 5.11085 10.1218 5.06168 10.2027 5.02813C10.2836 4.99458 10.3704 4.97731 10.458 4.97731C10.5456 4.97731 10.6323 4.99458 10.7133 5.02813C10.7942 5.06168 10.8677 5.11018 10.9297 5.17217Z" fill="white"/>
<path fill-rule="evenodd" clip-rule="evenodd" d="M2.66602 0.664062C2.13558 0.664063 1.62687 0.874776 1.2518 1.24985C0.876729 1.62492 0.666016 2.13363 0.666016 2.66406V13.3307C0.666016 13.8612 0.876729 14.3699 1.2518 14.7449C1.62687 15.12 2.13558 15.3307 2.66602 15.3307H13.3327C13.8631 15.3307 14.3718 15.12 14.7469 14.7449C15.122 14.3699 15.3327 13.8612 15.3327 13.3307V2.66406C15.3327 2.13363 15.122 1.62492 14.7469 1.24985C14.3718 0.874776 13.8631 0.664063 13.3327 0.664062H2.66602ZM13.3327 1.9974H2.66602C2.4892 1.9974 2.31964 2.06763 2.19461 2.19266C2.06959 2.31768 1.99935 2.48725 1.99935 2.66406V13.3307C1.99935 13.5075 2.06959 13.6771 2.19461 13.8021C2.31964 13.9272 2.4892 13.9974 2.66602 13.9974H13.3327C13.5095 13.9974 13.6791 13.9272 13.8041 13.8021C13.9291 13.6771 13.9993 13.5075 13.9993 13.3307V2.66406C13.9993 2.48725 13.9291 2.31768 13.8041 2.19266C13.6791 2.06763 13.5095 1.9974 13.3327 1.9974Z" fill="white"/>
</g>
<defs>
<clipPath id="clip0_4963_7686">
<rect width="16" height="16" fill="white"/>
</clipPath>
</defs>
</svg>
