<svg width="134" height="136" viewBox="0 0 134 136" fill="none" xmlns="http://www.w3.org/2000/svg">
<path d="M62.9953 19.5853C70.8495 19.5856 77.2145 25.9506 77.2148 33.8047L87.1998 33.8051C87.1997 32.9237 87.1495 32.0591 87.0602 31.2112L82.7203 30.2628C82.5195 29.1471 82.2294 28.0538 81.8556 27.0106L85.1299 24.0264C84.4214 22.4254 83.5511 20.9193 82.5302 19.5302L78.302 20.88C77.5768 20.0209 76.7847 19.2288 75.9256 18.5036L77.2754 14.2754C75.8863 13.2545 74.3746 12.3786 72.7792 11.6757L69.795 14.95C68.7463 14.5707 67.6585 14.2861 66.5428 14.0853L65.5944 9.74537C64.7409 9.65051 63.8707 9.60585 63.0005 9.60582C62.1191 9.60578 61.2545 9.65595 60.4066 9.74517L59.4585 14.085C58.3429 14.2858 57.2495 14.5758 56.2064 14.9495L53.222 11.675C51.621 12.3833 50.1149 13.2535 48.726 14.2742L50.0761 18.5026C49.2171 19.2277 48.425 20.0198 47.6999 20.8788L43.4715 19.5287C42.4508 20.9176 41.5751 22.4293 40.8723 24.0246L44.1468 27.0091C43.7675 28.0578 43.4831 29.1456 43.2823 30.2612L38.9425 31.2093C38.8477 32.0628 38.8031 32.933 38.8031 33.8032L48.7881 33.8036C48.7711 25.955 55.1412 19.5849 62.9953 19.5853Z" fill="url(#paint0_linear_1050_698)"/>
<path d="M100.631 104.446L98.0499 101.876L106.241 93.7374C106.668 93.3091 106.881 92.8807 106.881 92.4524L107.734 89.0257C108.822 89.6682 110.102 89.4541 110.977 88.5974L125.631 74.0341C126.698 72.9632 126.698 71.2499 125.631 70.1791L92.2265 36.9833C91.1599 35.9125 89.4321 35.9125 88.3441 36.9833L73.6895 51.5466C73.4761 51.7608 73.4761 51.9749 73.2628 51.9749C69.8071 50.4758 66.1595 49.8333 62.7038 50.9041C59.696 51.7608 57.5416 53.9024 54.9391 55.6158C54.9391 54.9733 54.7258 54.5449 54.0859 54.1166L39.4312 39.5533C38.3646 38.4825 36.6367 38.4825 35.5488 39.5533L2.16516 72.9632C1.09859 74.0341 1.09859 75.7474 2.16516 76.8182L16.8199 91.3815C17.0332 91.5957 17.4598 92.024 17.8864 92.024L19.401 96.9499C19.6143 97.3782 19.8276 97.8065 20.0409 98.0207L23.9232 101.876L12.7242 112.798C9.50317 116.011 9.50317 121.579 12.7242 124.792C15.9666 128.004 21.5554 128.004 24.7978 124.792C26.9523 129.932 33.629 131.645 37.938 128.218C40.3058 133.572 47.6224 135.071 51.9314 131.002L52.5713 130.36C54.7258 135.928 62.2558 137.427 66.5648 133.144L78.1904 121.365C82.286 122.436 86.8083 120.508 88.5361 116.439C91.9918 119.866 97.794 119.652 101.036 116.011C104.065 113.012 103.852 107.658 100.631 104.446ZM90.2853 42.7658L120.021 72.3207L109.249 83.0291L79.5129 53.4741L90.2853 42.7658ZM59.9093 58.6141C62.0638 56.9008 64.2183 55.4016 67.226 55.8299C68.5272 56.0441 69.8071 56.4724 71.1084 56.9008C72.4096 57.5433 73.4761 58.1858 74.7774 57.5433L75.4173 57.1149L103.212 84.7424L101.698 90.5249L94.1676 98.2349L62.7038 66.9666C62.2771 66.5383 61.4025 66.1099 60.7626 66.1099C58.3948 66.1099 55.6004 67.3949 53.4459 68.0374C50.6515 68.6799 47.8358 69.3224 45.0413 69.1083C43.7401 69.1083 39.0045 68.2516 39.2179 66.1099C39.4312 65.0391 40.9457 64.3966 41.5856 63.9683C42.6522 63.5399 43.7401 63.1116 44.828 62.8974C46.1292 62.4691 47.8358 62.6833 49.137 62.0408C51.0781 61.8266 53.2326 61.8266 55.1738 61.1841C57.1149 60.7558 58.6081 59.6849 59.9093 58.6141C62.0638 57.1149 57.7549 60.1133 59.9093 58.6141ZM7.98864 74.8907L37.7247 45.1216L48.497 55.8299C48.2837 55.8299 48.2837 56.0441 48.0704 56.2583L47.4305 56.9008L47.2171 57.1149L47.0038 57.3291C41.6283 57.9716 30.1947 61.8266 34.5036 69.5366L18.3557 85.8132L7.98864 74.8907ZM39.8791 119.009L35.1436 123.721C32.7758 126.077 28.4668 123.292 29.9814 120.294C30.6213 118.795 32.1358 117.938 30.8346 116.225C29.9813 114.726 27.8269 114.512 26.739 115.797L21.1288 121.365C18.1211 124.149 13.5988 119.866 16.6065 116.867L27.8055 105.945L40.7324 118.795C40.3058 118.581 40.0924 118.795 39.8791 119.009ZM48.0704 127.147C46.7692 128.432 44.8494 128.218 43.5481 127.147C42.4602 126.076 42.2469 124.149 43.5481 122.864C43.7615 122.65 43.9748 122.436 43.9748 122.221L46.5559 125.006C47.1958 125.648 47.8571 126.076 48.7103 126.505L48.0704 127.147ZM62.7038 129.503C60.336 131.859 56.4537 129.289 57.3282 126.291C58.8428 125.434 60.1227 123.935 60.7839 122.221L61.4239 122.864C62.9384 124.363 64.8796 125.22 67.034 125.434L62.7038 129.503ZM96.962 112.798C95.6608 114.083 93.7197 113.869 92.4398 112.798L86.8296 107.23C85.763 106.159 84.0352 106.159 82.9473 107.23C81.4328 108.729 82.5207 110.014 83.3739 111.513C85.5284 114.512 81.0061 117.938 78.425 115.368L73.6895 110.657C71.3217 108.301 67.4393 111.942 69.8071 114.512C71.1083 115.797 70.895 117.51 69.8071 118.795C68.5059 119.866 66.5861 120.08 65.2849 118.795L59.2481 112.798C57.5202 111.085 54.5125 112.37 54.7258 114.726C54.7258 116.011 56.027 116.867 56.2403 117.938C56.4537 119.009 56.2403 120.294 55.1738 121.151C54.9605 121.365 54.7471 121.579 54.5338 121.579C54.3205 121.579 54.1072 121.793 54.1072 121.793C53.0406 122.222 51.5261 121.793 50.6515 120.937L44.6147 114.726L29.5334 99.734L24.3712 94.594L22.6433 89.2399L32.9891 78.9599L38.8126 72.9632C45.276 76.3899 53.4673 73.6057 59.9307 71.8924L92.0345 103.803L96.7701 108.301C98.2633 109.586 98.2633 111.727 96.962 112.798C98.2633 111.727 96.3221 113.441 96.962 112.798Z" fill="url(#paint1_linear_1050_698)"/>
<path d="M18.9744 78.5317C23.2833 78.5317 23.2833 71.8926 18.9744 71.8926C14.6654 71.8926 14.6654 78.5317 18.9744 78.5317Z" fill="#D7282F"/>
<path d="M112.257 72.1068C112.257 67.8235 105.793 68.0377 105.793 72.1068C105.793 76.176 112.257 76.176 112.257 72.1068C112.257 72.9635 112.257 71.2502 112.257 72.1068Z" fill="#D7282F"/>
<path d="M10.7831 47.4773C15.092 47.4773 18.9743 43.8365 18.9743 39.339C18.9743 35.0557 15.3053 31.2007 10.7831 31.2007C6.2608 31.2007 2.5918 34.8415 2.5918 39.339C2.82644 43.8365 6.47412 47.4773 10.7831 47.4773ZM10.7831 36.769C14.2388 36.769 14.2388 42.1232 10.7831 42.1232C7.34871 42.1232 7.34871 36.769 10.7831 36.769Z" fill="url(#paint2_linear_1050_698)"/>
<path d="M63.5 43C67.5878 43 71 39.5909 71 35.5C71 31.4091 67.6047 28 63.5 28C59.3953 28 56 31.4091 56 35.5C56 39.5909 59.4122 43 63.5 43ZM63.5 32.2614C67.5878 32.2614 67.5878 38.7386 63.5 38.7386C59.4122 38.7386 59.4122 32.2614 63.5 32.2614Z" fill="url(#paint3_linear_1050_698)"/>
<path d="M111.592 101C108.136 101 108.136 106.354 111.592 106.354H130.555C134.011 106.354 134.011 101 130.555 101H111.592Z" fill="url(#paint4_linear_1050_698)"/>
<path d="M130.555 108.924H111.592C108.136 108.924 108.136 114.278 111.592 114.278H130.555C133.99 114.278 133.99 108.924 130.555 108.924Z" fill="url(#paint5_linear_1050_698)"/>
<path d="M2.82646 95.6647H10.5911C14.0468 95.6647 14.0468 90.3105 10.5911 90.3105H2.82646C-0.842545 90.3105 -0.842545 95.6647 2.82646 95.6647Z" fill="url(#paint6_linear_1050_698)"/>
<path d="M13.1508 101.019C13.1508 99.5199 11.8496 98.2349 10.3564 98.2349H2.59177C-0.863923 98.2349 -0.863923 103.589 2.59177 103.589H10.3564C11.8709 103.589 13.1508 102.518 13.1508 101.019Z" fill="url(#paint7_linear_1050_698)"/>
<defs>
<linearGradient id="paint0_linear_1050_698" x1="77.5024" y1="43.5025" x2="48.5001" y2="14.5001" gradientUnits="userSpaceOnUse">
<stop/>
<stop offset="1" stop-color="#CB262C"/>
</linearGradient>
<linearGradient id="paint1_linear_1050_698" x1="63.8983" y1="36.1802" x2="63.8983" y2="135.619" gradientUnits="userSpaceOnUse">
<stop stop-color="#CB262C"/>
<stop offset="1" stop-color="#231F20"/>
</linearGradient>
<linearGradient id="paint2_linear_1050_698" x1="10.7831" y1="31.2007" x2="10.7831" y2="47.4773" gradientUnits="userSpaceOnUse">
<stop stop-color="#CB262C"/>
<stop offset="1" stop-color="#231F20"/>
</linearGradient>
<linearGradient id="paint3_linear_1050_698" x1="63.5" y1="28" x2="63.5" y2="43" gradientUnits="userSpaceOnUse">
<stop stop-color="#CB262C"/>
<stop offset="1" stop-color="#231F20"/>
</linearGradient>
<linearGradient id="paint4_linear_1050_698" x1="121.074" y1="101" x2="121.074" y2="106.354" gradientUnits="userSpaceOnUse">
<stop stop-color="#CB262C"/>
<stop offset="1" stop-color="#231F20"/>
</linearGradient>
<linearGradient id="paint5_linear_1050_698" x1="121.066" y1="108.924" x2="121.066" y2="114.278" gradientUnits="userSpaceOnUse">
<stop stop-color="#CB262C"/>
<stop offset="1" stop-color="#231F20"/>
</linearGradient>
<linearGradient id="paint6_linear_1050_698" x1="6.62879" y1="90.3105" x2="6.62879" y2="95.6647" gradientUnits="userSpaceOnUse">
<stop stop-color="#CB262C"/>
<stop offset="1" stop-color="#231F20"/>
</linearGradient>
<linearGradient id="paint7_linear_1050_698" x1="6.57541" y1="98.2349" x2="6.57541" y2="103.589" gradientUnits="userSpaceOnUse">
<stop stop-color="#CB262C"/>
<stop offset="1" stop-color="#231F20"/>
</linearGradient>
</defs>
</svg>
