<svg width="34" height="39" viewBox="0 0 34 39" fill="none" xmlns="http://www.w3.org/2000/svg">
<g clip-path="url(#clip0_1227_256)">
<path d="M32.2851 25.0472H32.2317V11.1851C33.0855 10.4835 33.6315 9.41987 33.6315 8.23121C33.6315 8.15321 33.6158 8.07605 33.5849 8.00484L31.2152 2.49179C30.5344 0.908032 29.316 0 27.873 0H5.7585C4.31506 0 3.09714 0.908032 2.41633 2.49179L0.0466308 8.00484C0.0156848 8.07648 0 8.15363 0 8.23121C0 9.41987 0.545582 10.4835 1.39978 11.1851V25.0468H1.34636C0.604083 25.0468 0.000423685 25.6504 0.000423685 26.3927V37.6541C0.000423685 38.3963 0.604083 39 1.34636 39H32.2856C33.0278 39 33.6315 38.3963 33.6315 37.6541V26.3931C33.6311 25.6508 33.0274 25.0472 32.2851 25.0472ZM1.20944 8.80477H6.4338C6.17055 10.0049 5.09973 10.9061 3.82162 10.9061C2.54351 10.9061 1.47269 10.0049 1.20944 8.80477ZM20.6151 7.65765L20.3523 1.14712H25.1256L25.9141 7.65765H20.6151ZM19.4667 7.65765H14.1644L14.4272 1.14712H19.2043L19.4667 7.65765ZM13.016 7.65765H7.717L8.50548 1.14712H13.2788L13.016 7.65765ZM12.9308 8.80477C12.6675 10.0049 11.5967 10.9061 10.3186 10.9061C9.04047 10.9061 7.96965 10.0049 7.7064 8.80477H12.9308ZM19.4277 8.80477C19.1645 10.0049 18.0937 10.9061 16.8155 10.9061C15.5374 10.9061 14.4666 10.0049 14.2029 8.80477H19.4277ZM25.9247 8.80477C25.6614 10.0049 24.5902 10.9061 23.3121 10.9061C22.034 10.9061 20.9632 10.0049 20.6999 8.80477H25.9247ZM29.8095 10.9061C28.5314 10.9061 27.4605 10.0049 27.1973 8.80477H32.4221C32.1584 10.0049 31.0876 10.9061 29.8095 10.9061ZM30.1613 2.94496L32.1872 7.65807H27.0693L26.2808 1.14754H27.8726C29.1914 1.14712 29.8726 2.27347 30.1613 2.94496ZM3.46977 2.94496C3.75845 2.27347 4.43969 1.14712 5.75807 1.14712H7.34988L6.5614 7.65765H1.44386L3.46977 2.94496ZM2.54647 11.8337C2.9458 11.9753 3.37481 12.0533 3.82162 12.0533C5.1913 12.0533 6.39522 11.3288 7.0701 10.2431C7.74498 11.3288 8.9489 12.0533 10.3186 12.0533C11.6883 12.0533 12.8922 11.3288 13.5671 10.2431C14.2419 11.3288 15.4459 12.0533 16.8155 12.0533C18.1852 12.0533 19.3891 11.3288 20.064 10.2431C20.7389 11.3288 21.9428 12.0533 23.3125 12.0533C24.6822 12.0533 25.8861 11.3288 26.561 10.2431C27.2359 11.3288 28.4398 12.0533 29.8095 12.0533C30.2567 12.0533 30.6857 11.9753 31.0846 11.8337V25.0472H15.6608V24.5851C15.6608 23.315 15.2055 22.0806 14.3784 21.109C13.8197 20.4523 13.1156 19.9424 12.3326 19.6172C13.0033 18.9131 13.4153 17.9656 13.4153 16.9241C13.4153 14.7561 11.6327 12.9927 9.44192 12.9927C7.25111 12.9927 5.46854 14.7561 5.46854 16.9241C5.46854 17.9656 5.88059 18.9131 6.55122 19.6172C5.76825 19.9424 5.06412 20.4523 4.5054 21.109C3.67833 22.081 3.22305 23.3155 3.22305 24.5851V25.0472H2.54647V11.8337ZM9.44192 19.7079C7.8836 19.7079 6.61566 18.4586 6.61566 16.9236C6.61566 15.3882 7.8836 14.1393 9.44192 14.1393C11.0002 14.1393 12.2682 15.3886 12.2682 16.9236C12.2682 18.4586 11.0002 19.7079 9.44192 19.7079ZM7.69538 20.4536C8.22273 20.7101 8.81579 20.8551 9.44192 20.8551C10.0685 20.8551 10.6611 20.7105 11.1885 20.4536C13.1258 20.8775 14.5132 22.5859 14.5132 24.5851V25.0472H4.37017V24.5851C4.37017 22.5859 5.75765 20.8775 7.69538 20.4536ZM32.484 37.6545C32.484 37.7622 32.3928 37.8533 32.2851 37.8533H1.34594C1.23784 37.8533 1.14712 37.7622 1.14712 37.6545V26.3931C1.14712 26.2854 1.23826 26.1943 1.34594 26.1943H32.2851C32.3928 26.1943 32.484 26.2854 32.484 26.3931V37.6545ZM24.5156 29.5653H9.1155C8.79884 29.5653 8.54194 29.8222 8.54194 30.1388V33.9087C8.54194 34.2254 8.79884 34.4823 9.1155 34.4823H24.5156C24.8323 34.4823 25.0891 34.2254 25.0891 33.9087V30.1388C25.0891 29.8218 24.8323 29.5653 24.5156 29.5653ZM23.942 33.3352H9.68906V30.712H23.942V33.3352ZM17.2611 24.1654H29.3911C29.7077 24.1654 29.9646 23.9085 29.9646 23.5919V15.6642C29.9646 15.5981 29.9532 15.5323 29.9307 15.47L29.0439 13.0049C28.9621 12.7773 28.7459 12.6255 28.5042 12.6255H18.1479C17.9059 12.6255 17.6901 12.7773 17.6083 13.0049L16.7214 15.47C16.699 15.5323 16.6875 15.5981 16.6875 15.6642V23.5919C16.6875 23.9085 16.9444 24.1654 17.2611 24.1654ZM17.8346 23.0183V16.2373H21.2311V17.8834C21.2311 18.0928 21.3451 18.2857 21.5287 18.3862C21.7122 18.4866 21.936 18.4794 22.1128 18.3671L23.3261 17.5934L24.5393 18.3671C24.633 18.4269 24.7403 18.457 24.8475 18.457C24.9425 18.457 25.037 18.4336 25.1235 18.3862C25.307 18.2857 25.4211 18.0928 25.4211 17.8834V16.2373H28.8175V23.0183H17.8346ZM24.274 16.2373V16.8376L23.6343 16.4298C23.446 16.3098 23.2057 16.3098 23.0175 16.4298L22.3778 16.8376V16.2373H24.274ZM18.5511 13.7727H28.1011L28.575 15.0906H18.0771L18.5511 13.7727ZM21.5965 19.9784H19.1437C18.827 19.9784 18.5701 20.2353 18.5701 20.552V22.0365C18.5701 22.3532 18.827 22.6101 19.1437 22.6101H21.5965C21.9132 22.6101 22.17 22.3532 22.17 22.0365V20.552C22.17 20.2353 21.9132 19.9784 21.5965 19.9784ZM21.0229 21.463H19.7173V21.1255H21.0229V21.463Z" fill="url(#paint0_linear_1227_256)" stroke="url(#paint1_linear_1227_256)" stroke-width="0.2"/>
</g>
<defs>
<linearGradient id="paint0_linear_1227_256" x1="37.9406" y1="36.033" x2="-0.635875" y2="-0.847836" gradientUnits="userSpaceOnUse">
<stop stop-color="#D7282F"/>
<stop offset="1" stop-color="#231F20"/>
</linearGradient>
<linearGradient id="paint1_linear_1227_256" x1="40" y1="38" x2="-9.5" y2="-12" gradientUnits="userSpaceOnUse">
<stop stop-color="#D7282F"/>
<stop offset="1"/>
</linearGradient>
<clipPath id="clip0_1227_256">
<rect width="33.6315" height="39" fill="white"/>
</clipPath>
</defs>
</svg>
