<svg width="99" height="100" viewBox="0 0 99 100" fill="none" xmlns="http://www.w3.org/2000/svg">
<path d="M74.3946 86.0377C75.0934 86.7466 75.711 87.3843 76.3402 88.0102C77.0275 88.6934 77.6045 88.6911 78.2929 88.0032C78.9105 87.3878 79.5188 86.7618 80.2873 85.9816C80.6518 86.4184 80.9862 86.84 81.3449 87.2383C81.6432 87.5699 81.9277 87.9507 82.3003 88.1656C82.6335 88.3583 83.0955 88.4645 83.4705 88.4085C83.943 88.3372 84.1786 87.9051 84.232 87.4193C84.2506 87.2464 84.2413 87.0689 84.2413 86.8937C84.2413 78.3122 84.2413 69.7306 84.2413 61.1491C84.2413 59.8329 83.9116 59.5059 82.5859 59.5059C77.1122 59.5059 71.6374 59.5059 66.1638 59.5059C64.9866 59.5059 64.6302 59.8586 64.6302 61.0241C64.6291 69.6839 64.6302 78.3437 64.6302 87.0024C64.6302 87.0608 64.6326 87.1191 64.6302 87.1775C64.6035 87.7358 64.7962 88.1772 65.3256 88.405C65.8805 88.6444 66.3368 88.4482 66.7326 88.0301C67.3467 87.3843 67.9678 86.7454 68.6411 86.047C69.3029 86.7197 69.9065 87.3422 70.5183 87.9565C71.2648 88.7051 71.822 88.7133 72.5522 87.9705C73.1605 87.3527 73.7526 86.7139 74.3946 86.0377ZM80.1445 84.3887C79.1728 85.3919 78.2383 86.3565 77.1958 87.431C76.2242 86.4464 75.2908 85.5005 74.2831 84.4786C73.3799 85.3954 72.4489 86.3413 71.4366 87.3679C70.5009 86.4149 69.5699 85.4654 68.5401 84.4167C67.6381 85.344 66.7419 86.2678 65.819 87.2161C65.819 78.3589 65.819 69.5403 65.819 60.7134C71.5852 60.7134 77.3131 60.7134 83.0421 60.7134C83.0421 69.5741 83.0421 78.3881 83.0421 87.3329C82.0507 86.3262 81.1452 85.4059 80.1445 84.3887Z" fill="url(#paint0_linear_1050_699)" stroke="url(#paint1_linear_1050_699)" stroke-miterlimit="10"/>
<path d="M74.4471 77.4923C72.6094 77.4923 70.7717 77.4958 68.934 77.49C68.5149 77.4888 68.111 77.532 68.111 78.0657C68.111 78.5925 68.5091 78.6555 68.9305 78.6555C72.606 78.6532 76.2814 78.6532 79.9579 78.6555C80.391 78.6555 80.7741 78.5516 80.7578 78.0412C80.7427 77.5671 80.3712 77.4865 79.9614 77.4888C78.1226 77.497 76.2849 77.4923 74.4471 77.4923Z" fill="url(#paint2_linear_1050_699)" stroke="url(#paint3_linear_1050_699)" stroke-miterlimit="10"/>
<path d="M74.4622 81.5575C76.2418 81.5575 78.0215 81.5586 79.8011 81.5551C79.9927 81.5551 80.2307 81.5878 80.3642 81.4909C80.5418 81.3613 80.7496 81.1102 80.7357 80.9268C80.7217 80.7446 80.471 80.5496 80.2818 80.4234C80.1726 80.3499 79.9811 80.3978 79.8267 80.3978C76.229 80.3966 72.6314 80.3966 69.0326 80.3978C68.8968 80.3978 68.7261 80.351 68.6344 80.4153C68.4359 80.5554 68.1248 80.768 68.1387 80.9233C68.1596 81.1417 68.3976 81.4243 68.6112 81.5154C68.8585 81.6217 69.1812 81.5551 69.4703 81.5551C71.135 81.5575 72.7986 81.5575 74.4622 81.5575Z" fill="url(#paint4_linear_1050_699)" stroke="url(#paint5_linear_1050_699)" stroke-miterlimit="10"/>
<path d="M73.4669 75.1772C73.2475 75.1146 73.18 74.952 73.181 74.7326C73.1823 74.4717 73.1773 74.2105 73.1643 73.9499C73.1563 73.7862 73.1115 73.7385 72.9529 73.7032C72.6529 73.6361 72.3462 73.5952 72.053 73.507C71.7487 73.4153 71.45 73.2952 71.1608 73.1603C70.8989 73.0378 70.8544 72.9122 70.9276 72.6267C71.0144 72.2883 71.1107 71.9523 71.2045 71.6157C71.2185 71.5651 71.2393 71.516 71.261 71.4683C71.3324 71.3125 71.4099 71.2769 71.5653 71.3423C71.7036 71.4008 71.8362 71.4731 71.9728 71.5357C72.4668 71.7627 72.9869 71.8873 73.5234 71.9357C73.8464 71.9648 74.1601 71.9087 74.4577 71.7741C75.0974 71.4849 75.2096 70.7309 74.6855 70.2513C74.4056 69.9952 74.0628 69.8579 73.7248 69.7129C73.2017 69.4883 72.6683 69.2873 72.1913 68.9613C71.7286 68.6451 71.3378 68.261 71.1304 67.715C70.6754 66.5174 71.1728 65.1243 72.2821 64.5018C72.5229 64.3665 72.7825 64.2652 73.038 64.16C73.2007 64.0932 73.2856 63.9897 73.2849 63.8032C73.2839 63.5299 73.2909 63.2565 73.3006 62.9832C73.3093 62.7427 73.3737 62.6582 73.6019 62.6482C73.8965 62.6351 74.1928 62.6382 74.4871 62.6562C74.7112 62.67 74.7784 62.7496 74.7937 62.9787C74.8084 63.1942 74.8084 63.4105 74.8138 63.6267C74.8214 63.9191 74.8705 63.9866 75.1471 64.0319C75.576 64.1022 75.9966 64.2018 76.3984 64.3762C76.4348 64.3921 76.4709 64.4077 76.507 64.4243C76.7522 64.5392 76.815 64.6742 76.7398 64.9427C76.6456 65.279 76.5527 65.616 76.4492 65.9496C76.3583 66.2416 76.2608 66.2849 75.9912 66.1517C75.4337 65.8769 74.8485 65.7395 74.2315 65.7534C73.9907 65.7589 73.7515 65.7797 73.5321 65.9001C73.039 66.1703 72.9706 66.7534 73.3908 67.1344C73.655 67.3738 73.9733 67.5164 74.2903 67.6631C74.7997 67.8991 75.3295 68.1032 75.8052 68.3987C76.7856 69.0077 77.2729 69.9312 77.1443 71.1215C77.0304 72.1752 76.4365 72.9011 75.5159 73.3426C75.3703 73.4125 75.2136 73.4572 75.0609 73.5105C74.8288 73.5918 74.7433 73.7108 74.7423 73.9617C74.7413 74.2188 74.7373 74.4759 74.7419 74.7329C74.746 74.9513 74.6818 75.116 74.4604 75.1772C74.129 75.1772 73.798 75.1772 73.4669 75.1772Z" fill="url(#paint6_linear_1050_699)"/>
<path d="M10.3059 86.7597C10.3059 86.2391 10.3059 85.8833 10.3059 85.5302C10.3059 72.8342 10.2955 60.1383 10.3294 47.4423C10.332 46.5921 10.0581 46.218 9.31199 45.8517C5.80849 44.1304 3.49455 41.4358 2.81368 37.4802C2.62846 36.4102 2.77977 35.4658 3.36673 34.5031C7.11545 28.3553 10.825 22.1839 14.5164 16.002C14.7981 15.5285 14.9703 14.919 14.9807 14.367C15.0277 11.5285 14.9912 8.68741 15.0042 5.84894C15.0172 2.91891 16.919 1.00392 19.8355 1.00392C39.0357 0.998692 58.2358 0.998692 77.436 1.00392C80.3551 1.00392 82.2412 2.89537 82.2673 5.84894C82.2908 8.49121 82.249 11.1361 82.2934 13.781C82.3012 14.3016 82.4551 14.8823 82.7212 15.3271C86.4465 21.5639 90.1535 27.8163 93.9883 33.9851C94.9509 35.5338 95.0552 36.9858 94.5883 38.6208C93.6022 42.0819 91.3378 44.426 88.1656 45.9433C87.5604 46.2337 87.2943 46.545 87.3178 47.2461C87.3752 48.9414 87.3673 50.6418 87.3204 52.3371C87.3021 52.9728 87.5421 53.3312 88.0274 53.7053C94.9039 59.016 98.2561 66.0428 97.9848 74.7387C97.8596 78.7492 96.6752 82.4955 94.6457 85.9644C94.4813 86.2443 94.3144 86.5217 94.0952 86.8905C95.5248 87.5419 95.757 88.7506 95.7074 90.145C95.6474 91.8062 95.697 93.4726 95.6918 95.1391C95.6865 97.2581 94.7839 98.1581 92.6526 98.1581C71.2403 98.1581 49.8279 98.1581 28.4156 98.1581C20.639 98.1581 12.8598 98.1581 5.08326 98.1581C2.83716 98.1581 1.9502 97.2738 1.94759 95.0345C1.94498 93.2058 1.93715 91.3798 1.9502 89.5511C1.96324 87.7408 2.9102 86.7859 4.72848 86.7676C6.54153 86.744 8.3572 86.7597 10.3059 86.7597ZM26.5191 41.5169C25.0399 43.7065 23.133 45.2239 20.7982 46.2102C18.4712 47.1912 16.032 47.3926 13.4938 47.1703C13.4938 60.4025 13.4938 73.5301 13.4938 86.6943C19.2329 86.6943 24.9069 86.6943 30.6669 86.6943C30.6669 86.247 30.6669 85.8598 30.6669 85.4752C30.6669 77.5772 30.6669 69.6792 30.6669 61.7812C30.6669 58.3384 32.4591 56.5464 35.9078 56.5438C42.1557 56.5411 48.4036 56.5307 54.6515 56.5568C55.3636 56.5594 55.841 56.3266 56.3549 55.8479C63.0698 49.6085 70.8907 47.5313 79.7916 49.7288C81.2603 50.0924 82.6717 50.6837 84.1299 51.1781C84.1299 49.857 84.1299 48.5437 84.1299 47.186C78.7638 47.6098 74.329 46.0035 71.0837 41.5299C68.3263 45.3782 64.5881 47.233 59.9628 47.2357C55.3141 47.2383 51.5653 45.3468 48.8079 41.5352C43.6218 49.1402 31.7522 49.148 26.5191 41.5169ZM72.8159 51.9996C60.8158 52.5411 51.4767 62.5006 52.0062 74.192C52.5567 86.3673 62.5219 95.5551 74.5716 94.9978C86.2639 94.4589 95.3996 84.3058 94.8804 72.4287C94.377 60.8682 84.2421 51.4842 72.8159 51.9996ZM79.1473 13.2394C79.1473 10.8719 79.1499 8.62201 79.1473 6.37478C79.1447 4.50688 78.7795 4.13278 76.9403 4.13278C58.0689 4.13278 39.2 4.13278 20.3286 4.13278C20.1329 4.13278 19.9373 4.12755 19.7442 4.1354C18.6668 4.17725 18.1451 4.69001 18.1321 5.78616C18.1138 7.54679 18.1268 9.31005 18.1268 11.0733C18.1268 11.7796 18.1268 12.4886 18.1268 13.2394C38.5009 13.2394 58.755 13.2394 79.1473 13.2394ZM47.214 59.6778C43.3792 59.6778 39.6409 59.6752 35.9026 59.6778C34.2017 59.6805 33.7922 60.1017 33.7922 61.8309C33.7922 69.7577 33.7922 77.6845 33.7922 85.6113C33.7922 85.9592 33.7922 86.3071 33.7922 86.6839C38.3418 86.6839 42.774 86.6839 47.2166 86.6839C47.214 77.6766 47.214 68.7479 47.214 59.6778ZM68.8846 34.4612C68.8846 34.3095 68.9003 34.2389 68.882 34.1813C67.1472 28.4808 65.3968 22.7856 63.6907 17.0746C63.4924 16.4128 63.1063 16.4206 62.6002 16.4232C58.8254 16.4311 55.0532 16.4258 51.2784 16.4311C50.9993 16.4311 50.7201 16.4729 50.441 16.4965C50.441 22.524 50.441 28.4756 50.441 34.4639C56.6132 34.4612 62.7202 34.4612 68.8846 34.4612ZM47.2166 16.4729C46.8618 16.4546 46.5749 16.4285 46.2905 16.4285C42.5496 16.4258 38.8087 16.4468 35.0678 16.4075C34.3374 16.3997 34.0713 16.6561 33.873 17.3284C32.7409 21.1714 31.5591 24.9962 30.393 28.8288C29.8269 30.6888 29.2582 32.5489 28.6817 34.4377C34.9139 34.4377 41.047 34.4377 47.2192 34.4377C47.2166 28.4494 47.2166 22.5214 47.2166 16.4729ZM25.4025 34.4455C27.2156 28.4965 29.0339 22.5292 30.8626 16.5226C30.6617 16.4808 30.5417 16.4337 30.4191 16.4337C26.4539 16.4285 22.486 16.4101 18.5208 16.4572C18.1764 16.4625 17.7147 16.8287 17.5164 17.1531C14.1642 22.6574 10.8459 28.1826 7.52241 33.7052C7.39458 33.9197 7.28241 34.1447 7.11806 34.4455C13.2616 34.4455 19.2903 34.4455 25.4025 34.4455ZM90.4691 34.4952C90.4169 34.2755 90.4143 34.2049 90.3856 34.1525C86.9291 28.4076 83.4778 22.6574 79.9873 16.9334C79.8177 16.6561 79.3116 16.4546 78.9595 16.4468C76.8464 16.4023 74.7333 16.4232 72.6203 16.4232C70.7055 16.4232 68.7933 16.4232 66.8289 16.4232C66.8576 16.6351 66.8602 16.7633 66.8942 16.8784C68.6159 22.5449 70.3481 28.2088 72.0464 33.8831C72.2264 34.4874 72.5759 34.4979 73.0559 34.4979C76.7942 34.49 80.5325 34.4926 84.2734 34.4926C86.3134 34.4953 88.356 34.4952 90.4691 34.4952ZM61.288 94.9717C60.8706 94.6917 60.5993 94.54 60.3593 94.3464C58.8202 93.0959 57.255 91.8768 55.7758 90.5609C55.2775 90.1188 54.8471 89.8755 54.1715 89.8781C38.1644 89.8964 22.1547 89.8912 6.14762 89.8912C5.80588 89.8912 5.46413 89.8912 5.13805 89.8912C5.13805 91.6858 5.13805 93.3314 5.13805 94.9717C23.8373 94.9717 42.4635 94.9717 61.288 94.9717ZM72.9333 37.6764C73.5986 41.318 77.6551 44.1147 82.2256 44.1173C86.796 44.1199 90.8787 41.3102 91.523 37.6764C85.3247 37.6764 79.1342 37.6764 72.9333 37.6764ZM6.08762 37.6555C6.98241 41.6529 11.1616 44.2978 16.1312 44.1016C20.2608 43.9394 24.2286 40.9596 24.6878 37.6555C18.5077 37.6555 12.3277 37.6555 6.08762 37.6555ZM50.6419 37.6581C51.5027 41.6006 55.6584 44.2664 60.5732 44.1042C64.7707 43.9655 68.7516 41.0172 69.242 37.6581C63.0619 37.6581 56.8845 37.6581 50.6419 37.6581ZM46.9975 37.6974C40.7574 37.6974 34.567 37.6974 28.3634 37.6974C29.2556 41.475 33.1661 44.1304 37.7339 44.1173C42.2496 44.1016 46.1314 41.4332 46.9975 37.6974ZM92.5222 89.7238C92.0422 89.9906 91.6535 90.1397 91.3483 90.3883C89.7126 91.7094 88.1004 93.0567 86.4752 94.3909C86.2456 94.5792 85.9873 94.731 85.6404 94.969C88.03 94.969 90.2552 94.969 92.5222 94.969C92.5222 93.2738 92.5222 91.6309 92.5222 89.7238ZM50.4514 59.7328C50.4514 61.3731 50.4514 62.9558 50.4514 64.5647C51.2888 62.9427 52.1001 61.3705 52.948 59.7328C52.0688 59.7328 51.2758 59.7328 50.4514 59.7328ZM50.4384 82.3751C50.4384 83.9134 50.4384 85.2869 50.4384 86.6865C51.1793 86.6865 51.8601 86.6865 52.601 86.6865C51.8784 85.2502 51.2001 83.8951 50.4384 82.3751Z" fill="url(#paint7_linear_1050_699)" stroke="url(#paint8_linear_1050_699)" stroke-width="2" stroke-miterlimit="10"/>
<path d="M62.1646 10.2542C60.0855 10.2542 58.009 10.2647 55.9298 10.2516C54.7559 10.2438 54.0855 9.66821 54.0855 8.71072C54.0828 7.76107 54.7663 7.13582 55.9194 7.13059C60.1403 7.11489 64.3612 7.11228 68.5847 7.13321C69.7299 7.13844 70.403 7.78985 70.3795 8.74996C70.356 9.67082 69.7012 10.2438 68.5951 10.2516C66.4508 10.2647 64.3064 10.2542 62.1646 10.2542Z" fill="url(#paint9_linear_1050_699)" stroke="url(#paint10_linear_1050_699)" stroke-miterlimit="10"/>
<path d="M35.4436 10.2539C33.3332 10.2539 31.2227 10.2618 29.1123 10.2513C27.9358 10.2461 27.2731 9.67575 27.2705 8.71564C27.2653 7.7503 27.9279 7.13552 29.0914 7.13029C33.281 7.11459 37.468 7.11459 41.6576 7.12767C42.8811 7.13029 43.575 7.7503 43.5541 8.7418C43.5333 9.6993 42.8733 10.2461 41.6811 10.2513C39.6019 10.2618 37.5228 10.2539 35.4436 10.2539Z" fill="url(#paint11_linear_1050_699)" stroke="url(#paint12_linear_1050_699)" stroke-miterlimit="10"/>
<defs>
<linearGradient id="paint0_linear_1050_699" x1="74.4357" y1="59.5059" x2="74.4357" y2="88.5228" gradientUnits="userSpaceOnUse">
<stop stop-color="#D7282F"/>
<stop offset="1" stop-color="#231F20"/>
</linearGradient>
<linearGradient id="paint1_linear_1050_699" x1="74.4357" y1="59.5059" x2="74.4357" y2="88.5228" gradientUnits="userSpaceOnUse">
<stop stop-color="#D7282F"/>
<stop offset="1" stop-color="#231F20"/>
</linearGradient>
<linearGradient id="paint2_linear_1050_699" x1="74.4346" y1="77.4888" x2="74.4346" y2="78.6555" gradientUnits="userSpaceOnUse">
<stop stop-color="#D7282F"/>
<stop offset="1" stop-color="#231F20"/>
</linearGradient>
<linearGradient id="paint3_linear_1050_699" x1="74.4346" y1="77.4888" x2="74.4346" y2="78.6555" gradientUnits="userSpaceOnUse">
<stop stop-color="#D7282F"/>
<stop offset="1" stop-color="#231F20"/>
</linearGradient>
<linearGradient id="paint4_linear_1050_699" x1="74.4373" y1="80.3813" x2="74.4373" y2="81.5757" gradientUnits="userSpaceOnUse">
<stop stop-color="#D7282F"/>
<stop offset="1" stop-color="#231F20"/>
</linearGradient>
<linearGradient id="paint5_linear_1050_699" x1="74.4373" y1="80.3813" x2="74.4373" y2="81.5757" gradientUnits="userSpaceOnUse">
<stop stop-color="#D7282F"/>
<stop offset="1" stop-color="#231F20"/>
</linearGradient>
<linearGradient id="paint6_linear_1050_699" x1="74.0303" y1="62.6401" x2="74.0303" y2="75.1772" gradientUnits="userSpaceOnUse">
<stop stop-color="#D7282F"/>
<stop offset="1" stop-color="#231F20"/>
</linearGradient>
<linearGradient id="paint7_linear_1050_699" x1="49.9715" y1="1" x2="49.9715" y2="98.1581" gradientUnits="userSpaceOnUse">
<stop stop-color="#D7282F"/>
<stop offset="1" stop-color="#231F20"/>
</linearGradient>
<linearGradient id="paint8_linear_1050_699" x1="49.9715" y1="1" x2="49.9715" y2="98.1581" gradientUnits="userSpaceOnUse">
<stop stop-color="#D7282F"/>
<stop offset="1" stop-color="#231F20"/>
</linearGradient>
<linearGradient id="paint9_linear_1050_699" x1="62.2328" y1="7.11816" x2="62.2328" y2="10.2582" gradientUnits="userSpaceOnUse">
<stop stop-color="#D7282F"/>
<stop offset="1" stop-color="#231F20"/>
</linearGradient>
<linearGradient id="paint10_linear_1050_699" x1="62.2328" y1="7.11816" x2="62.2328" y2="10.2582" gradientUnits="userSpaceOnUse">
<stop stop-color="#D7282F"/>
<stop offset="1" stop-color="#231F20"/>
</linearGradient>
<linearGradient id="paint11_linear_1050_699" x1="35.4126" y1="7.11816" x2="35.4126" y2="10.2567" gradientUnits="userSpaceOnUse">
<stop stop-color="#D7282F"/>
<stop offset="1" stop-color="#231F20"/>
</linearGradient>
<linearGradient id="paint12_linear_1050_699" x1="35.4126" y1="7.11816" x2="35.4126" y2="10.2567" gradientUnits="userSpaceOnUse">
<stop stop-color="#D7282F"/>
<stop offset="1" stop-color="#231F20"/>
</linearGradient>
</defs>
</svg>
