<svg width="21" height="20" viewBox="0 0 21 20" fill="none" xmlns="http://www.w3.org/2000/svg">
<g clip-path="url(#clip0_169_1537)">
<path d="M20.5 13.125V11.875C20.5 10.3831 19.9074 8.9524 18.8525 7.89751C17.7976 6.84262 16.3669 6.24998 14.875 6.24998H5.39254L7.89254 3.74998L6.12504 1.98248L0.607544 7.49998L6.12504 13.0175L7.89254 11.25L5.39254 8.74998H14.875C15.7038 8.74998 16.4987 9.07922 17.0848 9.66527C17.6708 10.2513 18 11.0462 18 11.875C18 12.7038 17.6708 13.4986 17.0848 14.0847C16.4987 14.6707 15.7038 15 14.875 15H5.50004V17.5H14.875C16.15 17.5004 17.3872 17.0677 18.384 16.2728C19.3808 15.478 20.078 14.368 20.3613 13.125H20.5Z" fill="#D7282F"/>
</g>
<defs>
<clipPath id="clip0_169_1537">
<rect width="20" height="20" fill="white" transform="translate(0.5)"/>
</clipPath>
</defs>
</svg>
