<svg width="31" height="27" viewBox="0 0 31 27" fill="none" xmlns="http://www.w3.org/2000/svg">
<path fill-rule="evenodd" clip-rule="evenodd" d="M24.3818 1.15336H24.5655C24.9036 1.15336 25.1778 1.42746 25.1778 1.7656C25.1778 2.10375 24.9036 2.37785 24.5655 2.37785H24.3818V2.56154C24.3818 2.89968 24.1077 3.17378 23.7696 3.17378C23.4315 3.17378 23.1574 2.89968 23.1574 2.56154V2.37785H22.9737C22.6356 2.37785 22.3614 2.10375 22.3614 1.7656C22.3614 1.42746 22.6356 1.15336 22.9737 1.15336H23.1574V0.969667C23.1574 0.631523 23.4315 0.357422 23.7696 0.357422C24.1077 0.357422 24.3818 0.631523 24.3818 0.969667V1.15336ZM9.4145 8.24875C9.4145 5.01198 12.0478 2.37861 15.2846 2.37861C18.5215 2.37861 21.1548 5.01198 21.1548 8.24869C21.1548 11.4855 18.5215 14.1188 15.2846 14.1188C12.0478 14.1188 9.4145 11.4855 9.4145 8.24875ZM10.639 8.24869C10.639 10.8103 12.723 12.8943 15.2846 12.8943C17.8463 12.8943 19.9303 10.8103 19.9303 8.24875C19.9303 5.6871 17.8463 3.6031 15.2846 3.6031C12.723 3.6031 10.639 5.68704 10.639 8.24869ZM27.5907 9.66855H27.407V9.48486C27.407 9.14671 27.1329 8.87261 26.7948 8.87261C26.4567 8.87261 26.1825 9.14671 26.1825 9.48486V9.66855H25.9989C25.6608 9.66855 25.3866 9.94265 25.3866 10.2808C25.3866 10.6189 25.6608 10.893 25.9989 10.893H26.1825V11.0767C26.1825 11.4149 26.4567 11.689 26.7948 11.689C27.1329 11.689 27.407 11.4149 27.407 11.0767V10.893H27.5907C27.9288 10.893 28.203 10.6189 28.203 10.2808C28.203 9.94265 27.9288 9.66855 27.5907 9.66855ZM3.89693 4.76558H4.08063C4.41871 4.76558 4.69287 5.03968 4.69287 5.37782C4.69287 5.71597 4.41871 5.99007 4.08063 5.99007H3.89693V6.17376C3.89693 6.5119 3.62278 6.786 3.28469 6.786C2.9466 6.786 2.67245 6.5119 2.67245 6.17376V5.99007H2.48875C2.15067 5.99007 1.87651 5.71597 1.87651 5.37782C1.87651 5.03968 2.15067 4.76558 2.48875 4.76558H2.67245V4.58189C2.67245 4.24375 2.9466 3.96964 3.28469 3.96964C3.62278 3.96964 3.89693 4.24375 3.89693 4.58189V4.76558ZM7.1814 12.6023H6.99771V12.4186C6.99771 12.0805 6.72355 11.8064 6.38546 11.8064C6.04738 11.8064 5.77322 12.0805 5.77322 12.4186V12.6023H5.58953C5.25144 12.6023 4.97728 12.8764 4.97728 13.2146C4.97728 13.5527 5.25144 13.8268 5.58953 13.8268H5.77322V14.0105C5.77322 14.3487 6.04738 14.6228 6.38546 14.6228C6.72355 14.6228 6.99771 14.3487 6.99771 14.0105V13.8268H7.1814C7.51948 13.8268 7.79364 13.5527 7.79364 13.2146C7.79364 12.8764 7.51943 12.6023 7.1814 12.6023ZM20.5479 18.9696H23.5929C23.931 18.9696 24.2052 19.2437 24.2052 19.5819C24.2052 19.92 23.9311 20.1941 23.5929 20.1941H20.5479C20.2098 20.1941 19.9356 19.92 19.9356 19.5819C19.9356 19.2437 20.2098 18.9696 20.5479 18.9696ZM18.4663 18.9696H6.91514C6.57705 18.9696 6.30289 19.2437 6.30289 19.5819C6.30289 19.92 6.57705 20.1941 6.91514 20.1941H18.4663C18.8044 20.1941 19.0785 19.92 19.0785 19.5819C19.0785 19.2437 18.8044 18.9696 18.4663 18.9696ZM22.6819 21.9084H23.593C23.931 21.9084 24.2052 22.1825 24.2052 22.5206C24.2052 22.8588 23.9311 23.1329 23.593 23.1329H22.6819C22.3439 23.1329 22.0697 22.8588 22.0697 22.5206C22.0697 22.1825 22.3439 21.9084 22.6819 21.9084ZM11.8595 21.9084H10.4281C10.09 21.9084 9.81587 22.1825 9.81587 22.5206C9.81587 22.8588 10.09 23.1329 10.4281 23.1329H11.8595C12.1976 23.1329 12.4717 22.8588 12.4717 22.5206C12.4717 22.1825 12.1976 21.9084 11.8595 21.9084ZM6.97637 21.9084H8.34652C8.6846 21.9084 8.95876 22.1825 8.95876 22.5206C8.95876 22.8588 8.6846 23.1329 8.34652 23.1329H6.97637C6.63828 23.1329 6.36412 22.8588 6.36412 22.5206C6.36412 22.1825 6.63828 21.9084 6.97637 21.9084ZM20.6004 21.9084H13.9412C13.6031 21.9084 13.3289 22.1825 13.3289 22.5206C13.3289 22.8588 13.6031 23.1329 13.9412 23.1329H20.6003C20.9385 23.1329 21.2126 22.8588 21.2126 22.5206C21.2126 22.1825 20.9385 21.9084 20.6004 21.9084ZM28.203 20.1941H26.305C25.8324 20.1941 25.4479 20.5786 25.4479 21.0513C25.4479 21.5239 25.8324 21.9084 26.3051 21.9084H26.7949C27.9427 21.9084 28.8765 22.8422 28.8765 23.9901C28.8765 25.1379 27.9427 26.0717 26.7949 26.0717H3.7745C2.62665 26.0717 1.69285 25.1379 1.69285 23.9901C1.69285 22.8422 2.62665 21.9084 3.7745 21.9084H3.83855C4.31122 21.9084 4.69571 21.5239 4.69571 21.0513C4.69571 20.5786 4.31122 20.1941 3.83855 20.1941H2.36632C1.21847 20.1941 0.284668 19.2603 0.284668 18.1125C0.284668 16.9647 1.21847 16.0308 2.36632 16.0308H28.203C29.3508 16.0308 30.2847 16.9647 30.2847 18.1125C30.2847 19.2603 29.3508 20.1941 28.203 20.1941ZM26.7948 23.1329H26.305C25.1572 23.1329 24.2234 22.1991 24.2234 21.0513C24.2234 19.9034 25.1572 18.9696 26.305 18.9696H28.203C28.6757 18.9696 29.0602 18.5851 29.0602 18.1124C29.0602 17.6398 28.6757 17.2553 28.203 17.2553H2.36632C1.89365 17.2553 1.50916 17.6398 1.50916 18.1124C1.50916 18.5851 1.89365 18.9696 2.36632 18.9696H3.83849C4.98634 18.9696 5.92014 19.9035 5.92014 21.0513C5.92014 22.1991 4.98634 23.1329 3.83849 23.1329H3.77444C3.30177 23.1329 2.91728 23.5174 2.91728 23.99C2.91728 24.4627 3.30177 24.8472 3.77444 24.8472H26.7948C27.2675 24.8472 27.652 24.4627 27.652 23.99C27.652 23.5174 27.2675 23.1329 26.7948 23.1329Z" fill="#565656"/>
</svg>
