<svg width="30" height="30" viewBox="0 0 30 30" fill="none" xmlns="http://www.w3.org/2000/svg">
<path d="M14.9988 0C17.3255 0 19.5273 0.530071 21.4947 1.47554C20.6894 2.11264 19.9427 2.72426 19.247 3.31295C17.9218 2.83129 16.4922 2.56881 15.0013 2.56881C11.5686 2.56881 8.45953 3.96024 6.21183 6.2105C3.96157 8.46075 2.57014 11.5673 2.57014 15C2.57014 18.4327 3.96157 21.5392 6.21183 23.7895C8.46208 26.0398 11.5686 27.4312 15.0013 27.4312C18.434 27.4312 21.5431 26.0398 23.7908 23.7895C26.0411 21.5392 27.4325 18.4327 27.4325 15C27.4325 14.1845 27.3535 13.3843 27.2032 12.6121C27.8479 11.7712 28.508 10.9327 29.1833 10.1019C29.7134 11.6361 30.0013 13.2849 30.0013 15C30.0013 19.1412 28.3219 22.8925 25.6079 25.6065C22.8938 28.3206 19.1425 30 15.0013 30C10.8601 30 7.10887 28.3206 4.3948 25.6065C1.67819 22.8925 -0.0012207 19.1412 -0.0012207 15C-0.0012207 10.8588 1.67819 7.10754 4.39226 4.39348C7.10632 1.67941 10.8576 0 14.9988 0ZM8.01101 12.5357L11.6705 12.4873L11.9432 12.5586C12.6823 12.9842 13.378 13.4709 14.0278 14.0214C14.4967 14.419 14.9453 14.8522 15.3708 15.3211C16.6833 13.2085 18.0824 11.2691 19.5605 9.48522C21.1787 7.53058 22.8963 5.75688 24.7006 4.13863L25.0574 4.00102H29.0508L28.2455 4.89551C25.771 7.64526 23.5258 10.4867 21.4973 13.4174C19.4687 16.3507 17.6542 19.3782 16.0411 22.4949L15.539 23.4633L15.0778 22.4771C14.2266 20.6498 13.2072 18.973 11.9916 17.4745C10.776 15.976 9.36168 14.6458 7.71285 13.5143L8.01101 12.5357Z" fill="#01A601"/>
</svg>
