<svg width="30" height="30" viewBox="0 0 30 30" fill="none" xmlns="http://www.w3.org/2000/svg">
<g clip-path="url(#clip0_3540_1041)">
<path d="M29.5406 15.3046H24.2315C24.127 18.4864 22.4224 21.2546 19.8906 22.8364L22.7815 27.2864C26.7679 24.7591 29.4361 20.3455 29.5406 15.3046Z" fill="#ED87C0"/>
<path d="M29.5412 15.3046C29.4412 20.3455 26.7731 24.7591 22.7867 27.2864L21.7549 25.7C25.2412 23.4046 27.6731 19.65 28.1912 15.3046H29.5412Z" fill="#D870AD"/>
<path d="M15.0044 24.2455C12.3908 24.2455 10.0362 23.1546 8.3544 21.4092L4.44531 24.9955C7.09531 27.7955 10.8453 29.5455 15.0044 29.5455C17.868 29.5455 20.5362 28.7137 22.7862 27.2865L19.8953 22.8365C18.4771 23.7228 16.8044 24.2455 15.0044 24.2455Z" fill="#49CFAE"/>
<path d="M22.7862 27.2864C20.4601 28.7646 17.7605 29.5483 15.0044 29.5455C10.8453 29.5455 7.09531 27.7955 4.44531 24.9955L5.36804 24.15C7.84531 26.1137 10.9726 27.2864 14.3817 27.2864C16.9908 27.2864 19.4362 26.6 21.5544 25.3909L22.7862 27.2864Z" fill="#36BB9B"/>
<path d="M15.0042 5.75914V0.45459H14.9997C10.2497 0.45459 6.0315 2.73641 3.37695 6.26368L7.57241 9.52732C9.25423 7.2455 11.9497 5.75914 15.0042 5.75914Z" fill="#FB6E52"/>
<path d="M5.76354 15.0001C5.76354 12.9455 6.44081 11.0592 7.57263 9.52279L3.37718 6.25916C1.4797 8.77788 0.455196 11.8466 0.458995 15.0001C0.458995 18.8728 1.97718 22.391 4.44536 24.9955L8.35445 21.4092C6.7499 19.7455 5.76354 17.491 5.76354 15.0001Z" fill="#FFCE54"/>
<path opacity="0.15" d="M1.3679 15.2273C1.24063 15.2273 1.14062 15.1273 1.14062 15C1.14062 12.3 1.9179 9.6864 3.38153 7.44094C3.41492 7.39131 3.46619 7.3565 3.52464 7.34379C3.58309 7.33109 3.64419 7.34146 3.69517 7.37276C3.79972 7.44094 3.83153 7.58185 3.76335 7.68639C2.34414 9.86126 1.5906 12.4031 1.59517 15C1.59517 15.1273 1.49063 15.2273 1.3679 15.2273Z" fill="white"/>
<path d="M29.0268 3.04551C29.0268 3.70006 28.7768 4.36369 28.2722 4.86824L25.8177 7.31824L22.1768 3.67279L24.6268 1.22278C24.8655 0.98258 25.1493 0.791873 25.462 0.661599C25.7746 0.531325 26.1099 0.464047 26.4485 0.463625C26.7872 0.463203 27.1227 0.529644 27.4356 0.659138C27.7485 0.788632 28.0329 0.978631 28.2722 1.21824C28.5124 1.45793 28.7027 1.7428 28.8322 2.05642C28.9617 2.37004 29.0278 2.70621 29.0268 3.04551Z" fill="#646D78"/>
<path d="M29.0268 3.04554C29.0268 3.70008 28.7768 4.36372 28.2722 4.86827L25.8177 7.31827L22.1768 3.67281L22.6631 3.18645L23.3631 3.89099C24.0144 4.54151 24.8972 4.9069 25.8177 4.9069C26.7381 4.9069 27.621 4.54151 28.2722 3.89099C28.6365 3.5298 28.8836 3.06731 28.9813 2.56372C29.0131 2.72281 29.0268 2.88645 29.0268 3.04554Z" fill="#434A54"/>
<path d="M24.3956 8.9L16.0683 17.2273C15.4979 17.7989 14.7416 18.1472 13.9365 18.2091C13.1274 18.2727 12.3728 18.6182 11.8046 19.1909L11.1092 19.8864C10.9903 20.0045 10.8467 20.0947 10.6887 20.1504C10.5307 20.2062 10.3622 20.2261 10.1956 20.2087C10.0289 20.1913 9.86823 20.137 9.72514 20.0498C9.58205 19.9626 9.46015 19.8447 9.36828 19.7045C9.06828 19.2545 9.16373 18.6455 9.5501 18.2591L10.2092 17.6C10.7819 17.0286 11.1303 16.2704 11.191 15.4636C11.2501 14.6545 11.6001 13.9 12.1728 13.3273L16.4728 9.02273L20.4956 5L24.3956 8.9Z" fill="#E7E9EE"/>
<path d="M26.1594 9.12279C25.9458 9.33642 25.6685 9.44097 25.3912 9.44097C25.1139 9.44097 24.8367 9.33642 24.623 9.12279L20.2776 4.77733C20.0736 4.57282 19.959 4.29575 19.959 4.00688C19.959 3.71801 20.0736 3.44093 20.2776 3.23642C20.4912 3.02279 20.7685 2.91824 21.0503 2.9137C21.3276 2.9137 21.6094 3.02279 21.8185 3.23188L26.1639 7.57733C26.5867 8.00915 26.5821 8.69552 26.1594 9.12279Z" fill="#646D78"/>
<path d="M26.1587 9.12278C25.9451 9.33642 25.6678 9.44551 25.386 9.44551C25.1087 9.44551 24.8314 9.33642 24.6178 9.12278L20.2723 4.78187C20.0314 4.54096 19.9269 4.21369 19.9587 3.89551C20.0087 3.98187 20.0678 4.06369 20.1405 4.13642L24.486 8.48187C24.6996 8.69096 24.9769 8.80005 25.2541 8.80005C25.5314 8.80005 25.8132 8.69096 26.0269 8.48187C26.2132 8.29551 26.3132 8.06369 26.3405 7.82278C26.5723 8.23642 26.5087 8.76823 26.1587 9.12278Z" fill="#434A54"/>
<path d="M19.1046 14.191L16.0683 17.2274C15.4979 17.799 14.7416 18.1473 13.9365 18.2092C13.1274 18.2728 12.3728 18.6183 11.8046 19.191L11.1092 19.8865C10.9903 20.0046 10.8467 20.0948 10.6887 20.1505C10.5307 20.2063 10.3622 20.2262 10.1956 20.2088C10.0289 20.1914 9.86823 20.1371 9.72514 20.0499C9.58205 19.9627 9.46015 19.8448 9.36828 19.7046C9.06828 19.2546 9.16373 18.6456 9.5501 18.2592L10.2092 17.6001C10.7819 17.0287 11.1303 16.2705 11.191 15.4637C11.2501 14.6546 11.6001 13.9001 12.1728 13.3274L16.4728 9.02283C16.8092 9.49555 17.1001 9.97283 17.0683 10.5365C17.041 10.991 16.791 11.4365 16.8865 11.8819C16.9637 12.2319 17.241 12.5046 17.541 12.7001C17.841 12.9001 18.1728 13.0456 18.4546 13.2683C18.7513 13.5109 18.976 13.83 19.1046 14.191Z" fill="#FB6E52"/>
</g>
<defs>
<clipPath id="clip0_3540_1041">
<rect width="30" height="30" fill="white"/>
</clipPath>
</defs>
</svg>
