<svg width="25" height="24" viewBox="0 0 25 24" fill="none" xmlns="http://www.w3.org/2000/svg">
<g clip-path="url(#clip0_169_1543)">
<path d="M16.5 14H18V16.82L20.44 18.23L19.69 19.53L16.5 17.69V14ZM17.5 12C16.1739 12 14.9021 12.5268 13.9645 13.4645C13.0268 14.4021 12.5 15.6739 12.5 17C12.5 18.3261 13.0268 19.5979 13.9645 20.5355C14.9021 21.4732 16.1739 22 17.5 22C18.8261 22 20.0979 21.4732 21.0355 20.5355C21.9732 19.5979 22.5 18.3261 22.5 17C22.5 15.6739 21.9732 14.4021 21.0355 13.4645C20.0979 12.5268 18.8261 12 17.5 12ZM17.5 10C19.3565 10 21.137 10.7375 22.4497 12.0503C23.7625 13.363 24.5 15.1435 24.5 17C24.5 18.8565 23.7625 20.637 22.4497 21.9497C21.137 23.2625 19.3565 24 17.5 24C14.71 24 12.3 22.36 11.17 20H1.5V17C1.5 14.34 6.83 13 9.5 13C10.1 13 10.84 13.07 11.62 13.2C12.2541 12.2173 13.1247 11.4094 14.152 10.8503C15.1793 10.2913 16.3304 9.99888 17.5 10ZM10.5 17C10.5 16.3 10.6 15.62 10.79 15C10.37 14.93 9.93 14.9 9.5 14.9C6.53 14.9 3.4 16.36 3.4 17V18.1H10.59C10.5311 17.7363 10.501 17.3685 10.5 17ZM9.5 4C10.5609 4 11.5783 4.42143 12.3284 5.17157C13.0786 5.92172 13.5 6.93913 13.5 8C13.5 9.06087 13.0786 10.0783 12.3284 10.8284C11.5783 11.5786 10.5609 12 9.5 12C8.43913 12 7.42172 11.5786 6.67157 10.8284C5.92143 10.0783 5.5 9.06087 5.5 8C5.5 6.93913 5.92143 5.92172 6.67157 5.17157C7.42172 4.42143 8.43913 4 9.5 4ZM9.5 5.9C8.94305 5.9 8.4089 6.12125 8.01508 6.51508C7.62125 6.9089 7.4 7.44305 7.4 8C7.4 8.55695 7.62125 9.0911 8.01508 9.48492C8.4089 9.87875 8.94305 10.1 9.5 10.1C10.057 10.1 10.5911 9.87875 10.9849 9.48492C11.3788 9.0911 11.6 8.55695 11.6 8C11.6 7.44305 11.3788 6.9089 10.9849 6.51508C10.5911 6.12125 10.057 5.9 9.5 5.9Z" fill="#D7282F"/>
</g>
<defs>
<clipPath id="clip0_169_1543">
<rect width="24" height="24" fill="white" transform="translate(0.5)"/>
</clipPath>
</defs>
</svg>
