<svg width="22" height="26" viewBox="0 0 22 26" fill="none" xmlns="http://www.w3.org/2000/svg">
<path fill-rule="evenodd" clip-rule="evenodd" d="M9.38612 6.77257C9.66765 6.6318 9.99902 6.6318 10.2805 6.77257L14.4241 8.84432C14.4401 8.8518 14.4559 8.85971 14.4715 8.86803L18.6139 10.9392C18.9527 11.1086 19.1667 11.4549 19.1667 11.8337V20.167C19.1667 20.5458 18.9527 20.892 18.6139 21.0614L10.2805 25.2281C9.99902 25.3688 9.66765 25.3688 9.38612 25.2281L1.05279 21.0614C0.714002 20.892 0.5 20.5458 0.5 20.167V11.8337C0.5 11.4549 0.714002 11.1086 1.05279 10.9392L9.38612 6.77257ZM11.7636 9.75016L9.83333 8.78503L3.73614 11.8336L5.66649 12.7987L11.7636 9.75016ZM7.90264 13.9167L13.9997 10.8682L15.9305 11.8336L9.83333 14.882L7.90264 13.9167ZM8.83333 16.6181L2.5 13.4516V19.549L8.83333 22.7156V16.6181ZM10.8333 22.7156L17.1667 19.549V13.4516L10.8333 16.6181V22.7156Z" fill="#D7282F"/>
<path d="M20.584 8.59377C20.5365 8.59378 20.4896 8.58296 20.4469 8.56215C20.4043 8.54133 20.3669 8.51107 20.3377 8.47366C19.8912 7.90198 19.4769 7.46076 18.9056 7.16506C18.3769 6.89221 17.7129 6.74983 16.834 6.72326V8.28127C16.8338 8.34227 16.8157 8.40188 16.7821 8.45275C16.7484 8.50362 16.7006 8.54353 16.6445 8.56756C16.5885 8.59158 16.5266 8.59867 16.4666 8.58796C16.4065 8.57724 16.3509 8.54919 16.3066 8.50725L12.8691 5.226C12.8386 5.19682 12.8142 5.16175 12.7976 5.12291C12.781 5.08407 12.7725 5.04227 12.7725 5.00002C12.7725 4.95778 12.781 4.91597 12.7976 4.87713C12.8142 4.83829 12.8386 4.80322 12.8691 4.77405L16.3066 1.4928C16.3509 1.45086 16.4065 1.4228 16.4666 1.41209C16.5266 1.40137 16.5885 1.40846 16.6445 1.43249C16.7006 1.45651 16.7484 1.49642 16.7821 1.54729C16.8157 1.59817 16.8338 1.65777 16.834 1.71877V3.2883C18.282 3.35491 19.3609 3.89201 20.0439 4.88733C20.6097 5.71174 20.8965 6.85354 20.8965 8.28127C20.8965 8.36415 20.8635 8.44364 20.8049 8.50224C20.7463 8.56085 20.6668 8.59377 20.584 8.59377Z" fill="#D7282F"/>
</svg>
