<svg width="16" height="16" viewBox="0 0 16 16" fill="none" xmlns="http://www.w3.org/2000/svg">
<g clip-path="url(#clip0_169_1605)">
<path d="M12.3858 0.000260416C12.4905 0.0335937 12.5952 0.0627604 12.6957 0.104427C13.441 0.429427 13.6923 1.32526 13.2317 1.99193C13.2107 2.02109 13.1898 2.05026 13.1647 2.08776C13.2023 2.11276 13.2358 2.13359 13.2735 2.15859C13.9686 2.58359 14.3329 3.20026 14.3581 4.01276C14.3623 4.09609 14.3748 4.15026 14.4544 4.20443C14.6679 4.35026 14.7684 4.56276 14.7684 4.81693C14.7684 4.98776 14.7726 5.15859 14.7684 5.33359C14.7642 5.67109 14.5758 5.92943 14.2576 6.04609C14.1906 6.07109 14.1236 6.10443 14.0691 6.15026C12.6119 7.36693 11.1547 8.58359 9.69751 9.80026C9.60538 9.87526 9.56351 9.95859 9.56351 10.0794C9.5677 10.5669 9.5677 11.0586 9.56351 11.5461C9.56351 11.9003 9.32902 12.0419 9.01078 11.8836C8.35754 11.5628 7.70431 11.5628 7.05527 11.8919C6.75796 12.0419 6.51928 11.9003 6.51509 11.5669C6.51091 11.0711 6.51091 10.5794 6.51509 10.0836C6.51509 9.96693 6.48578 9.87943 6.38947 9.80026C4.94482 8.59609 3.50018 7.38776 2.05134 6.18359C1.97597 6.12109 1.88803 6.07526 1.8001 6.03776C1.51117 5.92526 1.32274 5.66693 1.31436 5.35443C1.31017 5.17109 1.31436 4.99193 1.31436 4.80859C1.31436 4.55026 1.42742 4.35026 1.6326 4.19609C1.67448 4.16276 1.72054 4.10026 1.72054 4.05026C1.74147 3.17943 2.13509 2.53776 2.88882 2.11276C2.89719 2.10859 2.90138 2.09609 2.88463 2.11693C2.7967 1.88359 2.67945 1.67526 2.64176 1.45443C2.5287 0.78776 2.95582 0.183594 3.61742 0.0294271C3.64673 0.0210937 3.67605 0.00859375 3.70536 0.000260416C3.83098 0.000260416 3.9566 0.000260416 4.08222 0.000260416C4.10735 0.00859375 4.12828 0.0210937 4.15341 0.0294271C4.82758 0.18776 5.2505 0.779427 5.14163 1.45443C5.10395 1.67526 4.9867 1.88359 4.89876 2.11276C5.40125 2.37526 5.76136 2.80443 5.97073 3.39609C6.17592 2.79609 6.5444 2.37526 7.0762 2.09193C7.04689 2.04609 7.02177 2.01276 7.00083 1.97943C6.59047 1.37943 6.75377 0.571094 7.37351 0.196094C7.51588 0.108594 7.68756 0.0627604 7.84249 0.000260416C7.96812 0.000260416 8.09374 0.000260416 8.21936 0.000260416C8.25705 0.0127604 8.29892 0.0252604 8.33661 0.0335937C8.79303 0.158594 9.10709 0.43776 9.25364 0.88776C9.39601 1.32526 9.29133 1.71693 9.00659 2.08776C9.54676 2.36693 9.91106 2.79609 10.1162 3.39193C10.3214 2.79609 10.6899 2.37109 11.2217 2.08776C11.1924 2.04609 11.1715 2.01276 11.1463 1.97943C10.6648 1.27526 10.9872 0.329427 11.7996 0.0585937C11.8666 0.0377604 11.9378 0.0169271 12.0089 -0.00390625C12.1388 0.000260416 12.2644 0.000260416 12.3858 0.000260416ZM8.88515 11.1044C8.88934 11.0419 8.89353 11.0044 8.89353 10.9628C8.89353 10.6461 8.89353 10.3294 8.89353 10.0086C8.89353 9.72526 8.99821 9.50026 9.22014 9.31693C10.4429 8.30026 11.6614 7.27943 12.8799 6.25859C12.9385 6.20859 12.993 6.16276 13.0684 6.10026C9.70169 6.10026 6.36854 6.10026 3.00606 6.10026C3.06888 6.15443 3.10656 6.18776 3.14844 6.22109C4.3544 7.22943 5.55199 8.23776 6.76215 9.23776C7.05527 9.47943 7.19764 9.75026 7.18089 10.1253C7.16833 10.4461 7.1767 10.7669 7.1767 11.1086C7.75456 10.9336 8.31148 10.9253 8.88515 11.1044ZM8.04349 4.72943C6.16754 4.72943 4.29159 4.72943 2.41983 4.72943C1.98853 4.72943 1.98853 4.72943 1.98853 5.16693C1.98853 5.40859 1.98853 5.40859 2.22302 5.40859C6.10473 5.40859 9.98225 5.40859 13.864 5.40859C13.8891 5.40859 13.9184 5.40443 13.9435 5.40859C14.0733 5.42526 14.111 5.36276 14.1026 5.24609C14.0984 5.14609 14.1026 5.05026 14.1026 4.95026C14.1026 4.73359 14.1026 4.73359 13.8891 4.73359C11.9378 4.72943 9.99062 4.72943 8.04349 4.72943ZM5.3845 4.04609C5.36775 3.46693 5.13326 3.02526 4.64333 2.74193C4.11991 2.43776 3.58392 2.45026 3.07306 2.77943C2.62083 3.07109 2.40308 3.50026 2.39052 4.04609C3.3913 4.04609 4.37534 4.04609 5.3845 4.04609ZM9.54257 4.04609C9.52164 3.47943 9.29552 3.03776 8.81397 2.75026C8.29054 2.43776 7.74618 2.44609 7.23114 2.77943C6.7789 3.07109 6.55697 3.49609 6.55278 4.04609C7.54938 4.04609 8.53341 4.04609 9.54257 4.04609ZM13.6881 4.05026C13.6755 3.46276 13.4327 3.02109 12.9344 2.73776C12.4067 2.43776 11.8708 2.45859 11.3641 2.79193C10.9202 3.08359 10.7109 3.51276 10.6941 4.05026C11.6991 4.05026 12.6831 4.05026 13.6881 4.05026ZM11.5986 1.27526C11.6028 1.60443 11.8749 1.87109 12.2016 1.86693C12.5282 1.86276 12.7962 1.59609 12.7962 1.26693C12.7962 0.933594 12.5156 0.658594 12.1848 0.666927C11.854 0.679427 11.5944 0.941927 11.5986 1.27526ZM3.29499 1.26276C3.29081 1.59193 3.55461 1.85859 3.88542 1.86693C4.21203 1.87109 4.4884 1.60443 4.49259 1.27943C4.49677 0.941927 4.22878 0.671094 3.89379 0.666927C3.56299 0.666927 3.29499 0.933594 3.29499 1.26276ZM8.64647 1.26276C8.64229 0.93776 8.37011 0.666927 8.04349 0.666927C7.71269 0.666927 7.43213 0.95026 7.44469 1.27943C7.45307 1.60443 7.73362 1.87109 8.05605 1.86693C8.37848 1.85859 8.65066 1.58776 8.64647 1.26276Z" fill="#D7282F"/>
<path d="M7.93594 16.0007C7.85219 15.9215 7.79357 15.834 7.79776 15.7049C7.79776 15.6674 7.73495 15.6132 7.68889 15.5965C7.51302 15.5382 7.32458 15.5049 7.14871 15.4424C6.96447 15.3757 6.89328 15.2174 6.96028 15.059C7.02309 14.9049 7.16965 14.8549 7.35389 14.9132C7.49627 14.959 7.63864 15.0007 7.80194 15.0549C7.80194 14.8382 7.80613 14.659 7.79776 14.4799C7.79776 14.4465 7.7517 14.4049 7.7182 14.3882C7.63026 14.3465 7.52976 14.3215 7.44183 14.284C6.7551 13.9715 6.88909 13.1965 7.30783 12.9132C7.42508 12.834 7.57164 12.7924 7.70145 12.7257C7.74332 12.7049 7.79357 12.659 7.79776 12.6215C7.82707 12.409 7.89407 12.3174 8.03644 12.3174C8.18718 12.3174 8.27093 12.4215 8.27931 12.634C8.27931 12.6507 8.28349 12.6632 8.28768 12.6799C8.47611 12.7257 8.66455 12.7632 8.8446 12.8257C9.0456 12.8924 9.10003 13.1257 8.96604 13.2799C8.89067 13.3674 8.79854 13.3965 8.68548 13.359C8.56405 13.3215 8.43424 13.2965 8.29187 13.259C8.29187 13.4882 8.29187 13.6965 8.29187 13.9257C8.75248 14.0507 9.17959 14.234 9.14191 14.834C9.1126 15.2507 8.85717 15.4799 8.35887 15.6049C8.26674 15.7632 8.19556 15.884 8.12437 16.0049C8.06156 16.0007 7.99875 16.0007 7.93594 16.0007ZM8.28768 15.0257C8.45099 14.9924 8.56405 14.9215 8.55986 14.759C8.55149 14.6007 8.4133 14.5882 8.28768 14.5507C8.28768 14.7174 8.28768 14.8674 8.28768 15.0257ZM7.79357 13.7799C7.79357 13.6132 7.79357 13.4632 7.79357 13.309C7.65539 13.3507 7.56326 13.4132 7.56326 13.5549C7.55908 13.7007 7.67214 13.7382 7.79357 13.7799Z" fill="#D7282F"/>
<path d="M1.22707 12.979C1.22707 12.8915 1.22707 12.829 1.22707 12.7706C1.22707 11.504 1.22288 10.2415 1.23125 8.97479C1.23125 8.59146 1.41969 8.30396 1.75886 8.13312C2.08967 7.96229 2.42885 7.98312 2.73871 8.19146C3.04439 8.39562 3.17001 8.69979 3.17001 9.06229C3.17001 10.2998 3.17001 11.5415 3.17001 12.779C3.17001 12.8415 3.17001 12.8998 3.17001 12.979C3.42963 12.979 3.67669 12.9665 3.91956 12.9831C4.0368 12.9915 4.1708 13.029 4.26292 13.0956C4.44717 13.2373 4.43879 13.4706 4.26711 13.6748C3.72275 14.3331 3.1742 14.9915 2.62984 15.6498C2.60053 15.6873 2.57122 15.7206 2.54191 15.7581C2.33672 15.9998 2.06873 16.004 1.86355 15.7581C1.382 15.1831 0.904638 14.604 0.423089 14.0248C0.322591 13.904 0.226282 13.7831 0.121597 13.6623C0.00853748 13.529 -0.029149 13.379 0.0420366 13.2123C0.117409 13.0373 0.263968 12.9706 0.444026 12.9706C0.695269 12.979 0.950699 12.979 1.22707 12.979ZM3.41707 13.654C3.26214 13.654 3.14908 13.654 3.03602 13.654C2.62565 13.654 2.49166 13.5206 2.49166 13.1123C2.49166 11.7831 2.49166 10.4581 2.49166 9.12896C2.49166 9.07062 2.49166 9.01229 2.48747 8.95812C2.47072 8.81646 2.36185 8.70812 2.21948 8.69562C2.08129 8.68312 1.95148 8.77062 1.9138 8.91229C1.89705 8.97479 1.89286 9.04562 1.89286 9.11229C1.89286 10.4706 1.89286 11.829 1.89286 13.1873C1.89286 13.504 1.73793 13.654 1.41969 13.654C1.2815 13.654 1.14332 13.654 0.971636 13.654C1.39037 14.1581 1.78818 14.6331 2.19435 15.1248C2.60053 14.6331 2.99414 14.1581 3.41707 13.654Z" fill="#D7282F"/>
<path d="M12.8336 12.9799C12.8336 12.8966 12.8336 12.8382 12.8336 12.7757C12.8336 11.5299 12.8336 10.2882 12.8336 9.04239C12.8336 8.56739 13.1015 8.19239 13.5161 8.06739C14.14 7.87572 14.7681 8.33406 14.7681 8.99239C14.7723 10.2507 14.7681 11.5132 14.7681 12.7716C14.7681 12.8341 14.7681 12.8924 14.7681 12.9799C14.9607 12.9799 15.1408 12.9799 15.325 12.9799C15.4088 12.9799 15.4925 12.9799 15.5763 12.9799C15.7522 12.9882 15.8903 13.0549 15.9615 13.2257C16.0285 13.3841 15.995 13.5299 15.8862 13.6632C15.6098 13.9966 15.3334 14.3299 15.0571 14.6632C14.7598 15.0216 14.4666 15.3757 14.1693 15.7341C13.9306 16.0216 13.6752 16.0216 13.4407 15.7382C12.8796 15.0591 12.3185 14.3799 11.7532 13.7049C11.6318 13.5591 11.5606 13.4049 11.6485 13.2174C11.7365 13.0341 11.8956 12.9757 12.0882 12.9799C12.3269 12.9799 12.5656 12.9799 12.8336 12.9799ZM15.0236 13.6549C14.8896 13.6549 14.7933 13.6507 14.6969 13.6549C14.2991 13.6841 14.094 13.5466 14.0981 13.0716C14.1149 11.7549 14.1023 10.4382 14.1023 9.11739C14.1023 9.05906 14.1023 9.00072 14.094 8.94656C14.0646 8.78822 13.9348 8.68406 13.7883 8.69239C13.6375 8.70072 13.5203 8.81739 13.5077 8.97572C13.5035 9.03406 13.5035 9.08822 13.5035 9.14656C13.5035 10.4132 13.4952 11.6757 13.5077 12.9424C13.5119 13.4924 13.4365 13.6882 12.8001 13.6507C12.7372 13.6466 12.6744 13.6507 12.5781 13.6507C13.001 14.1591 13.3989 14.6382 13.8008 15.1216C14.2112 14.6341 14.6048 14.1549 15.0236 13.6549Z" fill="#D7282F"/>
</g>
<defs>
<clipPath id="clip0_169_1605">
<rect width="16" height="16" fill="white"/>
</clipPath>
</defs>
</svg>
