<svg width="31" height="31" viewBox="0 0 31 31" fill="none" xmlns="http://www.w3.org/2000/svg">
<g clip-path="url(#clip0_273_29063)">
<path fill-rule="evenodd" clip-rule="evenodd" d="M24.5579 19.7174C22.2514 19.7174 20.3749 21.6172 20.3749 23.9522C20.375 26.2872 22.2514 28.187 24.5579 28.187C26.8638 28.1869 28.7402 26.2872 28.7402 23.9522C28.7402 21.6171 26.8637 19.7174 24.5579 19.7174ZM24.5579 28.9669C21.8267 28.9669 19.6045 26.7172 19.6045 23.9522C19.6046 21.1871 21.8267 18.9375 24.5578 18.9375C27.289 18.9375 29.5104 21.1871 29.5104 23.9522C29.5106 26.7172 27.289 28.9669 24.5579 28.9669Z" fill="#231F20" stroke="#231F20" stroke-width="0.5" stroke-miterlimit="10"/>
<path fill-rule="evenodd" clip-rule="evenodd" d="M24.557 26.7943C23.6756 26.7943 22.958 26.0683 22.958 25.176C22.958 24.9605 23.1305 24.786 23.3432 24.786C23.5559 24.786 23.7283 24.9606 23.7283 25.176C23.7283 25.6383 24.1001 26.0144 24.5569 26.0144C25.013 26.0144 25.3848 25.6383 25.3848 25.176C25.3848 24.5721 25.12 24.4842 24.4673 24.3269C23.8662 24.182 22.958 23.963 22.958 22.7191C22.958 21.6674 23.7625 21.1172 24.557 21.1172C25.3509 21.1172 26.1553 21.6674 26.1553 22.7191C26.1553 22.9344 25.9828 23.109 25.7701 23.109C25.5575 23.109 25.385 22.9345 25.385 22.7191C25.385 22.0703 24.8647 21.8972 24.5571 21.8972C24.2495 21.8972 23.7285 22.0703 23.7285 22.7191C23.7285 23.3229 23.9933 23.4109 24.646 23.5682C25.2472 23.713 26.1553 23.9321 26.1553 25.176C26.1552 26.0683 25.4383 26.7943 24.557 26.7943Z" fill="#D7282F"/>
<path fill-rule="evenodd" clip-rule="evenodd" d="M24.5581 21.8938C24.3454 21.8938 24.1729 21.7192 24.1729 21.5038L24.1729 20.5345C24.1729 20.3192 24.3455 20.1445 24.5581 20.1445C24.7707 20.1444 24.9433 20.3191 24.9433 20.5345L24.9433 21.5038C24.9433 21.7191 24.7707 21.8938 24.5581 21.8938Z" fill="#D7282F"/>
<path fill-rule="evenodd" clip-rule="evenodd" d="M24.5581 27.7606C24.3454 27.7606 24.1729 27.586 24.1729 27.3709L24.1729 26.4017C24.1729 26.1862 24.3455 26.0117 24.5581 26.0117C24.7707 26.0117 24.9433 26.1863 24.9433 26.4017L24.9433 27.3709C24.9433 27.5859 24.7707 27.7606 24.5581 27.7606Z" fill="#D7282F"/>
<path fill-rule="evenodd" clip-rule="evenodd" d="M12.7756 16.0113C11.5913 16.0113 10.4524 15.465 9.48142 14.4315C8.56392 13.4542 7.83897 12.0869 7.38489 10.4777C7.32681 10.2706 7.44511 10.0548 7.64971 9.99556C7.85373 9.93642 8.06703 10.0564 8.12585 10.2635C8.97714 13.2813 10.8021 15.2314 12.7756 15.2314C14.7484 15.2313 16.5734 13.2813 17.4254 10.2635C17.4835 10.0564 17.6968 9.93659 17.9015 9.99556C18.1062 10.0546 18.2245 10.2706 18.1657 10.4777C17.7116 12.0869 16.9866 13.4542 16.0691 14.4315C15.0988 15.465 13.96 16.0113 12.7756 16.0113Z" fill="#231F20" stroke="#231F20" stroke-width="0.5" stroke-miterlimit="10"/>
<path fill-rule="evenodd" clip-rule="evenodd" d="M24.5573 30.4491H0.993643C0.780265 30.4491 0.608398 30.2745 0.608398 30.0592L0.60848 23.953C0.60848 20.3711 3.67395 17.4571 7.44231 17.4571H8.87008C8.98649 17.4571 9.0974 17.5109 9.17033 17.6031L12.7755 22.1553L16.3801 17.603C16.4529 17.5108 16.564 17.457 16.6803 17.457H18.1081C19.9625 17.457 21.7005 18.1578 23.0026 19.4301C23.1558 19.5797 23.1597 19.8266 23.0119 19.9816C22.8642 20.1365 22.6207 20.1408 22.4676 19.9913C21.3101 18.86 19.7619 18.237 18.1081 18.237H16.8656L13.0759 23.0226C13.003 23.1149 12.8919 23.1687 12.7756 23.1687C12.6586 23.1687 12.5483 23.115 12.4747 23.0226L8.685 18.2369H7.44223C4.09857 18.2369 1.37872 20.8011 1.37872 23.9529L1.37881 29.669H24.1721V28.5775C24.1721 28.3623 24.3439 28.1876 24.5572 28.1876C24.7699 28.1875 24.9424 28.3623 24.9424 28.5775L24.9425 30.0589C24.9425 30.1618 24.9016 30.2613 24.8294 30.3344C24.7573 30.4079 24.659 30.4491 24.5573 30.4491Z" fill="#231F20" stroke="#231F20" stroke-width="0.5" stroke-miterlimit="10"/>
<path fill-rule="evenodd" clip-rule="evenodd" d="M16.0134 4.21914C16.1044 4.21914 16.194 4.25203 16.2642 4.31357C17.1417 5.07794 17.6893 7.40925 17.9655 8.94638C18.8984 6.24729 18.4771 4.03143 16.7316 2.62362C14.587 0.894469 10.9645 0.894469 8.82042 2.62354C7.07443 4.03126 6.65301 6.24729 7.58593 8.94638C7.86215 7.40925 8.40983 5.07802 9.28721 4.31357C9.37819 4.2345 9.49985 4.20253 9.61692 4.22736C9.73464 4.25211 9.83358 4.33068 9.88575 4.43998C10.3746 5.46864 11.8298 5.79281 12.9278 5.75718C14.2668 5.71415 15.3634 5.19389 15.6563 4.46258C15.7031 4.34613 15.8021 4.25967 15.9224 4.2301C15.9526 4.22271 15.9826 4.21914 16.0134 4.21914ZM17.7963 10.7626C17.7756 10.7626 17.7548 10.761 17.7341 10.7575C17.5656 10.7298 17.4352 10.5929 17.4138 10.4213C17.2741 9.29754 16.7851 6.45776 16.0609 5.27736C15.4644 6.01498 14.3168 6.49289 12.952 6.53674C11.7416 6.57561 10.2844 6.24937 9.49723 5.26673C8.76899 6.44065 8.27816 9.29422 8.13771 10.4213C8.1163 10.5929 7.98595 10.7299 7.81736 10.7575C7.64886 10.7854 7.48232 10.6972 7.40808 10.5411C6.51002 8.6443 6.17293 6.90975 6.40698 5.38558C6.61503 4.03184 7.28305 2.86573 8.34034 2.01332C9.51002 1.07022 11.0848 0.550781 12.7761 0.550781C14.4667 0.550781 16.0415 1.07022 17.2111 2.01332C18.2685 2.86581 18.9365 4.03193 19.1445 5.38558C19.3786 6.90975 19.0415 8.64439 18.1434 10.5411C18.0785 10.678 17.9421 10.7627 17.7963 10.7626Z" fill="#231F20" stroke="#231F20" stroke-width="0.5" stroke-miterlimit="10"/>
<path fill-rule="evenodd" clip-rule="evenodd" d="M16.6813 18.2396C16.597 18.2396 16.5115 18.2116 16.4405 18.1539C15.3766 17.2898 14.9525 15.8088 15.3077 14.1922C15.3539 13.9819 15.5598 13.8495 15.7671 13.896C15.9751 13.9426 16.1055 14.1511 16.0593 14.3613C15.951 14.8558 15.6928 16.5469 16.9226 17.5454C17.0885 17.6802 17.1153 17.9257 16.9822 18.0937C16.906 18.1897 16.7943 18.2397 16.6813 18.2396Z" fill="#231F20" stroke="#231F20" stroke-width="0.5" stroke-miterlimit="10"/>
<path fill-rule="evenodd" clip-rule="evenodd" d="M8.871 18.2397C8.75804 18.2397 8.6463 18.1898 8.57001 18.0937C8.43695 17.9256 8.46369 17.6803 8.62949 17.5455C9.86004 16.547 9.60121 14.8559 9.49284 14.3614C9.44674 14.1511 9.57775 13.9428 9.78506 13.8961C9.9931 13.8494 10.1984 13.982 10.2445 14.1922C10.5996 15.8089 10.1756 17.2899 9.11162 18.154C9.0409 18.2117 8.95525 18.2397 8.871 18.2397Z" fill="#231F20" stroke="#231F20" stroke-width="0.5" stroke-miterlimit="10"/>
<path fill-rule="evenodd" clip-rule="evenodd" d="M12.8092 30.4492C12.7021 30.4492 12.5958 30.4046 12.5196 30.3166L7.27004 24.2826C7.16905 24.1672 7.14493 24.0028 7.20851 23.8628L8.15481 21.7656L6.6094 20.8823C6.44557 20.7886 6.37198 20.5889 6.43613 20.4098L7.40113 17.7143C7.47333 17.5118 7.69401 17.407 7.89467 17.4805C8.09467 17.5539 8.19763 17.7775 8.12535 17.98L7.27143 20.3651L8.84162 21.2622C9.01619 21.3618 9.08568 21.5798 9.00274 21.764L8.01305 23.9569L13.0981 29.8013C13.2385 29.9631 13.2231 30.2088 13.0633 30.3517C12.9905 30.4167 12.8994 30.4492 12.8092 30.4492Z" fill="#231F20" stroke="#231F20" stroke-width="0.5" stroke-miterlimit="10"/>
<path fill-rule="evenodd" clip-rule="evenodd" d="M12.8086 30.4492C12.719 30.4492 12.6294 30.4175 12.5564 30.3531C12.396 30.2116 12.3786 29.9658 12.5183 29.8033L17.5385 23.9584L16.5482 21.764C16.4652 21.5797 16.5354 21.3617 16.7093 21.2622L18.2796 20.365L17.4256 17.98C17.3534 17.7775 17.4569 17.5538 17.6569 17.4805C17.8569 17.4071 18.0776 17.5117 18.1498 17.7143L19.1148 20.4097C19.1789 20.5888 19.1061 20.7885 18.9423 20.8822L17.3962 21.7655L18.3424 23.8627C18.4053 24.0019 18.3819 24.1654 18.2828 24.2807L13.0994 30.3151C13.0232 30.4038 12.9162 30.4492 12.8086 30.4492Z" fill="#231F20" stroke="#231F20" stroke-width="0.5" stroke-miterlimit="10"/>
</g>
<defs>
<clipPath id="clip0_273_29063">
<rect width="30" height="31" fill="white" transform="translate(0.55957)"/>
</clipPath>
</defs>
</svg>
