<svg width="18" height="19" viewBox="0 0 18 19" fill="none" xmlns="http://www.w3.org/2000/svg">
<path fill-rule="evenodd" clip-rule="evenodd" d="M7.9834 10.9306C8.34668 11.7031 9.44824 11.7315 9.79688 10.9351C9.70166 10.8365 9.63135 10.7319 9.56104 10.6273C9.54932 10.6109 9.5376 10.593 9.52588 10.5765C9.35742 10.7125 9.15381 10.7992 8.88867 10.7992C8.60156 10.7977 8.38623 10.6871 8.20899 10.5212C8.19873 10.5108 8.18848 10.5018 8.17822 10.4914C8.15332 10.5631 8.12109 10.6497 8.08594 10.7289C8.05371 10.8051 8.01856 10.8784 7.9834 10.9306ZM16.9204 6.10604V12.3949H17.6558C17.7759 12.3949 17.8755 12.495 17.8755 12.6175V18.2759C17.8755 18.3984 17.7773 18.4985 17.6558 18.4985H0.218262C0.0981445 18.4985 0 18.3984 0 18.2759V12.6175C0 12.495 0.0981445 12.3949 0.218262 12.3949H0.953613V5.91778C0.880371 5.861 0.811524 5.79974 0.745606 5.734C0.389648 5.37092 0.169922 4.87038 0.169922 4.32054V3.54358V3.53312V3.53163C0.169922 3.49278 0.178711 3.45393 0.197754 3.41956L1.74023 0.616544C1.78125 0.541836 1.85742 0.5 1.93506 0.5H16.1118C16.2012 0.5 16.2773 0.552295 16.314 0.628497L17.9678 3.41209C17.9883 3.44497 17.9985 3.48232 18 3.51818C18.0015 3.52565 18.0015 3.53312 18.0015 3.54208V4.31904C18.0015 4.86889 17.7803 5.36943 17.4258 5.73251C17.2764 5.88341 17.1079 6.00892 16.9204 6.10604ZM15.2095 12.3949V6.13294C15.0015 6.03283 14.8125 5.89686 14.6528 5.734C14.5122 5.59056 14.3936 5.42621 14.2998 5.24541C14.2075 5.42621 14.0874 5.59056 13.9468 5.734C13.5908 6.09708 13.1001 6.3212 12.561 6.3212C12.022 6.3212 11.5313 6.09558 11.1753 5.734C11.0347 5.59056 10.916 5.42621 10.8223 5.24541C10.73 5.42621 10.6099 5.59056 10.4692 5.734C10.1133 6.09708 9.62256 6.3212 9.0835 6.3212C8.54443 6.3212 8.05371 6.09558 7.69775 5.734C7.55713 5.59056 7.43848 5.42621 7.34473 5.24541C7.25244 5.42621 7.13232 5.59056 6.9917 5.734C6.63574 6.09708 6.14502 6.3212 5.60596 6.3212C5.0669 6.3212 4.57617 6.09558 4.22022 5.734C4.07959 5.59056 3.96094 5.42621 3.86719 5.24541C3.7749 5.42621 3.65479 5.59056 3.51416 5.734C3.27979 5.97306 2.98828 6.15236 2.66162 6.24649V12.3964H5.58838C5.61621 12.123 5.76856 11.8077 5.86524 11.6762C5.95313 11.5582 6.06152 11.4715 6.18164 11.4028C6.54346 11.1981 7.48242 11.1294 7.87207 10.8515C7.90137 10.8081 7.93213 10.7439 7.96143 10.6751C8.00684 10.5706 8.04639 10.457 8.07275 10.3793C7.96289 10.2478 7.87061 10.0999 7.78125 9.95497L7.48535 9.47535C7.37695 9.31099 7.32129 9.16008 7.31836 9.03756C7.3169 8.97929 7.32568 8.92699 7.34766 8.88067C7.36963 8.83286 7.40332 8.79103 7.44873 8.75965C7.4707 8.74471 7.49414 8.73275 7.52051 8.7223C7.50147 8.46231 7.49414 8.13509 7.50586 7.86017C7.51172 7.79443 7.5249 7.73018 7.54248 7.66444C7.61865 7.38952 7.80762 7.16838 8.04199 7.01598C8.1709 6.93231 8.31299 6.86806 8.46094 6.82622C8.55469 6.79933 8.44776 6.58417 8.54443 6.57371C9.01318 6.5244 9.70606 6.87105 10.0342 7.23263C10.1982 7.41342 10.3008 7.65398 10.3228 7.97074L10.3037 8.75367C10.3857 8.77907 10.4385 8.83137 10.459 8.91803C10.4824 9.01365 10.4575 9.14663 10.3784 9.33041C10.377 9.3334 10.3755 9.33639 10.374 9.34087L10.0371 9.90715C9.91406 10.1148 9.78809 10.324 9.62402 10.4884C9.63867 10.5093 9.65332 10.5317 9.66797 10.5541C9.73535 10.6542 9.80127 10.7543 9.8877 10.8425C9.89063 10.8455 9.89356 10.8485 9.89502 10.8515C10.2832 11.1309 11.2266 11.1981 11.5884 11.4043C11.7085 11.473 11.8169 11.5597 11.9048 11.6777C12.0029 11.8092 12.1538 12.1245 12.1816 12.3979H15.2095V12.3949ZM0.767578 3.31497H3.69287L4.23047 0.955715H2.06543L0.767578 3.31497ZM10.8003 0.955715L11.0244 3.31497H14.0098L13.3989 0.955715H10.8003ZM10.5762 3.31497L10.3535 0.955715H7.81055L7.59082 3.31497H10.5762ZM7.14404 3.31497L7.36377 0.955715H4.68897L4.15137 3.31497H7.14404ZM13.8604 0.955715L14.4712 3.31497H17.3877L15.9858 0.955715H13.8604ZM14.5239 3.77069V4.31904C14.5239 4.74338 14.6938 5.13036 14.9692 5.40977C15.2432 5.68918 15.6226 5.86399 16.0386 5.86399C16.4546 5.86399 16.834 5.69067 17.1079 5.40977C17.3818 5.13036 17.5532 4.74338 17.5532 4.31904V3.77069H14.5239ZM11.0464 3.77069V4.31904C11.0464 4.74338 11.2163 5.13036 11.4917 5.40977C11.7656 5.68918 12.145 5.86399 12.561 5.86399C12.9771 5.86399 13.3564 5.69067 13.6304 5.40977C13.9043 5.13036 14.0757 4.74338 14.0757 4.31904V3.77069H11.0464ZM7.57031 3.77069V4.31904C7.57031 4.74338 7.74024 5.13036 8.01563 5.40977C8.28955 5.68918 8.66895 5.86399 9.08496 5.86399C9.50098 5.86399 9.88037 5.69067 10.1543 5.40977C10.4282 5.13036 10.5996 4.74338 10.5996 4.31904V3.77069H7.57031ZM4.09424 3.77069V4.31904C4.09424 4.74338 4.26416 5.13036 4.53955 5.40977C4.81348 5.68918 5.19287 5.86399 5.60889 5.86399C6.0249 5.86399 6.4043 5.69067 6.67822 5.40977C6.95215 5.13036 7.12354 4.74338 7.12354 4.31904V3.77069H4.09424ZM3.646 3.77069H0.616699V4.31904C0.616699 4.74338 0.786621 5.13036 1.06201 5.40977C1.33594 5.68918 1.71533 5.86399 2.13135 5.86399C2.54736 5.86399 2.92676 5.69067 3.20068 5.40977C3.47461 5.13036 3.646 4.74338 3.646 4.31904V3.77069ZM7.07373 12.3949H10.7622L10.8618 11.2623C10.5571 11.2011 10.2349 11.1548 9.89649 10.956C9.68848 11.8899 8.2749 12.0229 7.86768 10.9814C7.56445 11.1368 7.27002 11.2265 6.91846 11.2818L7.07373 12.3949ZM1.03564 13.3302H16.8369C16.9072 13.3302 16.9658 13.39 16.9658 13.4617V17.4347C16.9658 17.5064 16.9072 17.5662 16.8369 17.5662H1.03564C0.965332 17.5662 0.906738 17.5079 0.906738 17.4347V13.4617C0.908203 13.3885 0.965332 13.3302 1.03564 13.3302ZM7.69336 8.86125C7.62744 8.86424 7.57764 8.87769 7.54395 8.90159C7.5249 8.91504 7.51025 8.93148 7.50147 8.95239C7.49121 8.97481 7.48682 9.0017 7.48682 9.03308C7.48975 9.12422 7.53662 9.24525 7.62744 9.38271L7.62891 9.3842L7.92481 9.86382C8.04346 10.0566 8.16797 10.2523 8.32178 10.3957C8.46973 10.5347 8.6499 10.6273 8.88867 10.6288C9.14649 10.6288 9.33545 10.5317 9.48779 10.3853C9.64746 10.2329 9.77197 10.0252 9.89649 9.81751L10.229 9.25869C10.2905 9.11376 10.314 9.01814 10.2993 8.96136C10.2905 8.92699 10.2539 8.91056 10.1924 8.90757C10.1792 8.90757 10.166 8.90608 10.1514 8.90757C10.1367 8.90757 10.1206 8.90906 10.1045 8.91056C10.0957 8.91205 10.0869 8.91056 10.0781 8.90906C10.0488 8.91056 10.0181 8.90906 9.98731 8.90458L10.1016 8.39059C9.25635 8.52656 8.62354 7.88557 7.72852 8.2621L7.79297 8.86872C7.75928 8.86723 7.72559 8.86573 7.69336 8.86125Z" fill="#9A9A9A"/>
</svg>
