<svg width="66" height="49" viewBox="0 0 66 49" fill="none" xmlns="http://www.w3.org/2000/svg">
<path d="M32.669 0.96151C20.3374 0.946583 13.3655 2.90782 0.369141 6.86934V19.4429C6.44163 17.9846 10.9755 17.9731 17.1979 17.9731C25.683 17.9731 25.683 31.0633 17.1979 31.0633C10.9755 31.0633 6.44163 31.0518 0.369141 29.5935V42.167C16.1514 46.9668 23.0667 48.804 41.4935 47.7821C38.7076 46.4845 36.2186 44.4636 34.2105 41.9718C30.5619 37.4477 28.3699 31.293 28.3699 24.5182C28.3699 17.7434 30.5619 11.5887 34.2105 7.06455C36.2186 4.56247 38.6934 2.55071 41.4935 1.24743C38.2268 1.06141 35.3135 0.96151 32.669 0.96151ZM48.8755 1.6608C44.0956 1.6608 39.6551 4.06757 36.3459 8.18985C33.0226 12.3121 30.9154 18.1109 30.9154 24.5182C30.9154 30.9255 33.0226 36.7243 36.3459 40.8465C39.6551 44.9573 44.0956 47.3687 48.8755 47.3687C53.6555 47.3687 58.096 44.9573 61.4052 40.8465C63.2012 38.6074 64.6578 35.8745 65.5911 32.8316C64.8416 34.7722 63.8376 36.5405 62.6072 38.0677C59.7789 41.5929 55.7343 43.9239 51.1382 43.9239C46.5421 43.9239 42.4976 41.5929 39.6692 38.0677C36.855 34.5426 35.158 29.7773 35.158 24.5182C35.158 19.2591 36.855 14.4938 39.6692 10.9687C42.4976 7.44347 46.5421 5.1056 51.1382 5.1056C55.7343 5.1056 59.7789 7.44347 62.6072 10.9687C63.8376 12.4958 64.8416 14.2642 65.5911 16.2047C64.6578 13.1618 63.2012 10.429 61.4052 8.18985C58.096 4.06757 53.6555 1.6608 48.8755 1.6608ZM51.1382 7.17937C49.9079 7.17937 48.7058 7.39754 47.5603 7.81092C46.924 11.9102 48.1402 15.0909 49.6533 18.2716C50.0917 18.0879 50.6008 17.9731 51.1382 17.9731C51.2655 17.9731 51.3928 17.9731 51.5201 17.9846C52.2837 14.7235 53.2736 11.3935 55.9606 8.3506C54.4474 7.58127 52.8211 7.17937 51.1382 7.17937ZM44.8593 9.2118C43.7562 9.96966 42.7239 10.9457 41.8046 12.094C41.0268 13.0585 40.348 14.1493 39.7682 15.3321C40.8571 17.2152 42.3703 18.4898 44.0956 19.5806C44.8875 20.0859 45.7502 20.5452 46.627 20.993C46.726 20.8437 46.825 20.6945 46.9381 20.5452C47.1361 20.2696 47.3624 19.994 47.6028 19.7414C46.0896 16.6181 44.6613 13.3111 44.8593 9.2118ZM57.9829 9.62518C55.6212 12.3466 54.7585 15.4239 53.9949 18.6506C54.0232 18.662 54.0373 18.662 54.0656 18.6735C54.504 18.8458 54.9424 19.041 55.3949 19.2591C57.3323 17.5367 59.4819 15.9062 62.2961 14.9187C61.7729 13.8967 61.1506 12.9437 60.4718 12.094C59.7082 11.1409 58.8738 10.3141 57.9829 9.62518ZM63.1729 16.8707C61.0516 17.663 59.3122 18.9721 57.601 20.4418C58.5202 20.993 59.3546 21.5901 60.0334 22.1872C60.1607 22.302 60.2738 22.4169 60.4011 22.5317C60.5991 22.5202 60.8112 22.5087 61.0092 22.5087C62.1547 22.4972 63.3143 22.5661 64.5022 22.7728C64.3325 20.66 63.8658 18.6735 63.1729 16.8707ZM38.7076 17.9616C38.1136 19.8103 37.7601 21.8312 37.7177 23.9326C39.6409 24.7823 41.4935 24.7938 43.5865 24.5297C44.1663 24.4608 44.7461 24.3574 45.3542 24.2541C45.3825 23.8292 45.4815 23.3814 45.6371 22.9451C44.5906 22.4169 43.5441 21.8657 42.54 21.2227C41.14 20.3385 39.8248 19.2936 38.7076 17.9616ZM17.1979 20.04C10.7195 20.04 6.49961 20.0514 0.369141 21.6131V27.4233C6.49961 28.9849 10.7195 28.9964 17.1979 28.9964C22.2889 28.9964 22.2889 20.04 17.1979 20.04ZM51.1382 20.04C50.9968 20.04 50.6998 20.1203 50.3039 20.3959C49.922 20.66 49.4978 21.0964 49.1159 21.6016C48.3664 22.6121 47.8856 23.9441 47.8856 24.5182C47.8856 25.0923 48.3664 26.4243 49.1159 27.4348C49.4978 27.94 49.922 28.3764 50.3039 28.6405C50.6998 28.9161 50.9968 28.9964 51.1382 28.9964C51.2796 28.9964 52.0857 28.8357 52.9484 28.4912C53.8252 28.1582 54.8434 27.6644 55.7767 27.1248C56.7101 26.5851 57.5727 25.988 58.1526 25.4598C58.6758 25.0005 58.8738 24.5641 58.9162 24.5182C58.8738 24.4723 58.6758 24.0359 58.1526 23.5766C57.5727 23.0484 56.7101 22.4513 55.7767 21.9116C54.8434 21.3719 53.8252 20.8782 52.9484 20.5452C52.0857 20.2007 51.2796 20.04 51.1382 20.04ZM61.4617 24.6101C61.4193 25.5401 60.7688 26.1832 60.0334 26.8492C59.7647 27.0903 59.4678 27.32 59.1566 27.5611C60.7688 28.4682 62.3385 29.4672 63.682 30.7073C64.2194 28.9046 64.5305 26.9525 64.5729 24.9086C63.5406 24.6904 62.4941 24.6101 61.4617 24.6101ZM37.7742 26.2176C37.9722 28.9046 38.6651 31.4193 39.7116 33.601C42.5259 32.2345 44.534 30.1447 46.528 27.8941C46.1886 27.3774 45.9199 26.8377 45.7078 26.3095C45.1421 26.4014 44.5623 26.4932 43.9825 26.5736C42.0168 26.8147 39.8813 26.8492 37.7742 26.2176ZM56.9929 28.939C56.4838 29.2376 55.9464 29.5131 55.4232 29.7658C56.9788 32.5216 58.4354 35.3808 58.9728 38.5615C59.496 38.0677 60.0051 37.528 60.4718 36.9424C61.3627 35.8171 62.1547 34.5311 62.7769 33.1187C61.3062 31.4308 59.2556 30.1562 56.9929 28.939ZM48.0695 29.7428C46.1037 31.936 43.8976 34.0603 40.7723 35.4956C41.0975 36.0009 41.4369 36.4831 41.8046 36.9424C43.1764 38.6534 44.7744 39.9624 46.528 40.8006C48.5503 37.3328 48.8755 33.9684 49.1442 30.5236C48.9745 30.4318 48.8048 30.3284 48.6493 30.2136C48.4513 30.0643 48.2533 29.915 48.0695 29.7428ZM53.1039 30.7073C52.6231 30.8681 52.1706 30.9829 51.6898 31.0289C51.4352 34.4277 51.0109 37.9299 48.8897 41.6159C49.6251 41.7766 50.3746 41.857 51.1382 41.857C53.0757 41.857 54.9282 41.3173 56.6252 40.3298C56.4131 36.931 54.8575 33.8421 53.1039 30.7073Z" fill="black"/>
</svg>
