<svg width="75" height="75" viewBox="0 0 75 75" fill="none" xmlns="http://www.w3.org/2000/svg">
<path d="M35.4797 16.8869C35.141 16.8869 34.8023 16.7417 34.5724 16.4756L25.9959 10.3184H0V72.5802C0 73.9108 1.0887 74.9995 2.41934 74.9995H72.5803C73.911 74.9995 74.9997 73.9108 74.9997 72.5802V16.8869H35.4797ZM70.7658 70.7657H4.23385V21.1207H70.7658V70.7657Z" fill="#231F20"/>
<path d="M72.5803 0H2.41934C1.0887 0 0 1.0887 0 2.41934V6.68949H27.1692L36.3144 13.258H74.9997V2.41934C74.9997 1.0887 73.911 0 72.5803 0ZM47.0925 9.65318C45.4232 9.65318 44.0684 8.29835 44.0684 6.629C44.0684 4.95966 45.4232 3.60482 47.0925 3.60482C48.7619 3.60482 50.1167 4.95966 50.1167 6.629C50.1167 8.29835 48.7619 9.65318 47.0925 9.65318ZM57.4231 9.65318C55.7538 9.65318 54.399 8.29835 54.399 6.629C54.399 4.95966 55.7538 3.60482 57.4231 3.60482C59.0925 3.60482 60.4473 4.95966 60.4473 6.629C60.4473 8.29835 59.0925 9.65318 57.4231 9.65318ZM67.7537 9.65318C66.0844 9.65318 64.7295 8.29835 64.7295 6.629C64.7295 4.95966 66.0844 3.60482 67.7537 3.60482C69.4231 3.60482 70.7779 4.95966 70.7779 6.629C70.7779 8.29835 69.4231 9.65318 67.7537 9.65318Z" fill="#231F20"/>
<path d="M15.0951 42.3263C15.0951 41.4432 15.458 40.5965 16.1112 39.9916L20.6475 35.7457L16.0991 31.5118C13.9701 29.528 15.3733 25.9715 18.2766 25.9715C19.1596 25.9715 20.0064 26.3344 20.6112 26.9877L24.9902 31.6691L30.3733 26.6248C31.6071 25.5361 33.0345 25.911 33.845 26.7215C34.6555 27.532 35.0305 28.9594 33.9418 30.1933L28.7886 35.7336L33.9539 41.2497C35.0426 42.4836 34.6676 43.911 33.8571 44.7215C33.0466 45.5319 31.6192 45.9069 30.3854 44.8182L24.9902 39.7981L20.6233 44.4916C18.6395 46.6206 15.083 45.2174 15.083 42.3142L15.0951 42.3263Z" fill="#231F20"/>
<path d="M52.1493 65.9268H48.7138C48.1937 65.9268 47.734 65.6002 47.5163 65.1284C45.7501 61.3059 41.8429 58.7172 37.5123 58.7172C33.1816 58.7172 29.2623 61.2575 27.4962 65.1163C27.2784 65.6002 26.8188 65.9268 26.2986 65.9268H22.8752C21.9801 65.9268 21.339 65.0438 21.6293 64.197C23.9518 57.4712 30.23 52.9229 37.5123 52.9229C44.7945 52.9229 51.0727 57.568 53.3953 64.1849C53.6977 65.0317 53.0445 65.9147 52.1493 65.9147V65.9268Z" fill="#231F20"/>
<path d="M59.1641 44.7335C58.3537 45.544 56.9263 45.919 55.6924 44.8303L50.2973 39.8102L45.9303 44.5037C43.9465 46.6327 40.39 45.2295 40.39 42.3263C40.39 41.4432 40.7529 40.5965 41.4062 39.9916L45.9424 35.7457L41.3941 31.5118C39.265 29.528 40.6683 25.9715 43.5715 25.9715C44.4545 25.9715 45.3013 26.3344 45.9061 26.9877L50.2852 31.6691L55.6682 26.6248C56.9021 25.5361 58.3295 25.911 59.14 26.7215C59.9504 27.532 60.3254 28.9594 59.2367 30.1933L54.0835 35.7336L59.2488 41.2497C60.3375 42.4836 59.9625 43.911 59.1521 44.7215L59.1641 44.7335Z" fill="#231F20"/>
</svg>
