<svg width="50" height="31" viewBox="0 0 50 31" fill="none" xmlns="http://www.w3.org/2000/svg">
<g clip-path="url(#clip0_1225_73)">
<path fill-rule="evenodd" clip-rule="evenodd" d="M4.71753 0V7.92103C4.72389 8.06971 4.78917 8.21032 4.89986 8.31374C5.01054 8.41716 5.15815 8.47546 5.31209 8.47656H13.5219C13.6 8.47912 13.6779 8.46677 13.751 8.44023C13.8242 8.41369 13.8912 8.37347 13.9482 8.32188C14.0053 8.27029 14.0513 8.20833 14.0835 8.13955C14.1158 8.07077 14.1337 7.99652 14.1363 7.92103V0H11.7828V3.43851C11.779 3.54733 11.753 3.65436 11.7064 3.75346C11.6597 3.85257 11.5933 3.94181 11.5109 4.01609C11.4285 4.09036 11.3318 4.14822 11.2263 4.18635C11.1208 4.22447 11.0085 4.24212 10.896 4.23828H7.96282C7.85024 4.24212 7.73798 4.22447 7.63246 4.18635C7.52694 4.14822 7.43024 4.09036 7.34787 4.01609C7.2655 3.94181 7.19909 3.85257 7.15243 3.75346C7.10577 3.65436 7.07978 3.54733 7.07594 3.43851V0H4.71753ZM20.7303 0H18.8466V0.189056V2.82563H20.7303V0ZM16.0128 10.3602H14.129V12.2439H16.0128V10.3602ZM15.0821 7.92103V0H17.4417V3.43851C17.4456 3.54733 17.4716 3.65436 17.5183 3.75346C17.5649 3.85256 17.6314 3.94181 17.7138 4.01608C17.7962 4.09036 17.893 4.14822 17.9985 4.18634C18.1041 4.22447 18.2164 4.24212 18.3291 4.23828H21.2638C21.3764 4.24212 21.4887 4.22447 21.5943 4.18634C21.6999 4.14822 21.7966 4.09036 21.879 4.01608C21.9614 3.94181 22.0279 3.85256 22.0746 3.75346C22.1213 3.65436 22.1473 3.54733 22.1511 3.43851V0H24.5008V7.92103C24.4957 8.07262 24.4287 8.21608 24.3144 8.32015C24.2002 8.42421 24.048 8.48043 23.8911 8.47656H15.7017C15.5435 8.48174 15.3895 8.42624 15.2734 8.32217C15.1573 8.2181 15.0885 8.0739 15.0821 7.92103ZM30.1595 18.281V10.3602H27.8259V13.8007C27.8215 13.9113 27.7943 14.0199 27.7458 14.1201C27.6973 14.2204 27.6285 14.3102 27.5436 14.3844C27.4586 14.4585 27.3591 14.5154 27.2511 14.5518C27.143 14.5882 27.0285 14.6032 26.9143 14.5961H23.9811C23.7546 14.6039 23.5341 14.5246 23.3679 14.3755C23.2016 14.2264 23.1033 14.0197 23.0942 13.8007V10.3602H20.7408V18.281C20.7472 18.4331 20.8153 18.5767 20.9302 18.6807C21.0452 18.7847 21.1978 18.8408 21.3552 18.8369H29.5452C29.7025 18.8408 29.8551 18.7847 29.9701 18.6807C30.085 18.5767 30.1531 18.4331 30.1595 18.281ZM19.1698 18.8367H10.9848C10.8274 18.8406 10.6748 18.7845 10.5598 18.6805C10.4449 18.5765 10.3768 18.433 10.3704 18.2809V10.3602H12.7238V13.8006C12.7329 14.0163 12.8285 14.22 12.9904 14.3686C13.1523 14.5171 13.3677 14.5987 13.5909 14.596H16.5637C16.6763 14.6005 16.7887 14.5835 16.8944 14.546C17.0002 14.5084 17.0973 14.451 17.1801 14.3772C17.263 14.3033 17.3299 14.2143 17.3772 14.1154C17.4244 14.0165 17.4511 13.9095 17.4555 13.8006V10.3602H19.7892V18.2809C19.7827 18.4338 19.714 18.5781 19.5979 18.6822C19.4819 18.7864 19.328 18.8419 19.1698 18.8367ZM25.442 10.3602H24.5001V12.2439H25.442V10.3602ZM45.7043 4.27527L49.7649 13.5424C49.8761 13.8028 49.9343 14.0847 49.9358 14.3701V20.3162H48.1367C47.9933 20.3099 47.853 20.3608 47.7439 20.4586C47.6348 20.5564 47.5651 20.6938 47.5487 20.8434V21.8397C47.5716 22.1181 47.7862 22.3266 48.0559 22.5886C48.0824 22.6143 48.1093 22.6405 48.1367 22.6673H49.9358V25.8301C49.9214 26.2352 49.7547 26.6178 49.4722 26.8943C49.1897 27.1709 48.8144 27.319 48.4281 27.3061H46.9205C46.9205 24.1433 44.252 21.5603 41.0005 21.5603C37.749 21.5603 35.0554 24.1327 35.0554 27.3167H32.0401V2.8309H43.3223C43.8096 2.8066 44.2933 2.92985 44.7156 3.18596C45.138 3.44206 45.4812 3.8202 45.7043 4.27527ZM35.0051 5.746V13.321H45.9204L42.6237 5.746H35.0051ZM12.0751 22.6077C12.8985 22.6598 13.6869 22.9248 14.3434 23.37C15 23.8152 15.4962 24.4213 15.771 25.1139C16.0458 25.8065 16.0874 26.5554 15.8905 27.2687C15.6937 27.982 15.267 28.6287 14.6629 29.1292C14.0587 29.6298 13.3035 29.9625 12.4898 30.0865C11.6762 30.2105 10.8395 30.1203 10.0826 29.8272C9.32575 29.534 8.68155 29.0506 8.22913 28.4362C7.77671 27.8218 7.53577 27.1033 7.5359 26.3688C7.58026 25.3354 8.08265 24.3596 8.93323 23.6549C9.78381 22.9501 10.9134 22.5736 12.0751 22.6077ZM12.0751 27.6562C12.355 27.6385 12.6232 27.5487 12.8469 27.3979C13.0705 27.247 13.24 27.0415 13.3347 26.8064C13.4294 26.5713 13.4452 26.3167 13.3802 26.0738C13.3152 25.8309 13.1721 25.61 12.9685 25.4381C12.7649 25.2662 12.5095 25.1507 12.2334 25.1057C11.9573 25.0607 11.6725 25.0882 11.4136 25.1847C11.1547 25.2812 10.933 25.4426 10.7754 25.6493C10.6178 25.8559 10.5312 26.0989 10.5261 26.3486C10.5297 26.5252 10.5729 26.6993 10.6531 26.8608C10.7333 27.0224 10.8489 27.168 10.9931 27.2893C11.1374 27.4106 11.3073 27.5051 11.4931 27.5672C11.6789 27.6293 11.8767 27.6579 12.0751 27.6511V27.6562ZM2.6023 14.3754C2.43609 14.2263 2.33771 14.0197 2.32868 13.8006V10.3602H0V18.2809C0.00645263 18.433 0.0744987 18.5765 0.189447 18.6805C0.304395 18.7845 0.457021 18.8406 0.614374 18.8367H8.79944C8.95763 18.8419 9.11153 18.7864 9.22756 18.6822C9.34358 18.5781 9.41232 18.4338 9.41877 18.2809V10.3602H7.06531V13.8006C7.06085 13.9095 7.03423 14.0165 6.98698 14.1154C6.93972 14.2143 6.87277 14.3033 6.78993 14.3772C6.7071 14.451 6.61001 14.5084 6.50424 14.546C6.39846 14.5835 6.28606 14.6005 6.17348 14.596H3.21556C2.98902 14.6038 2.76852 14.5245 2.6023 14.3754ZM30.1595 19.7806V27.3145H17.7794C17.7794 23.9787 15.1989 21.2783 12.0168 21.2783C8.90937 21.2783 6.32892 23.8766 6.25931 27.1727V27.3145H2.00828C1.49907 27.3329 1.00416 27.1207 0.631564 26.7243C0.258965 26.3279 0.0389349 25.7793 0.0194946 25.1984V19.7806H30.1595ZM10.3716 0H8.48787V0.189056V2.82563H10.3716V0ZM3.77618 10.3602H5.65994V12.2439H3.77618V10.3602ZM42.5809 22.8278C42.0683 22.6536 41.5234 22.5805 40.9798 22.6131C40.4362 22.5805 39.8913 22.6536 39.3787 22.8278C38.8661 23.002 38.3967 23.2736 37.9995 23.626C37.6024 23.9783 37.2858 24.4039 37.0694 24.8764C36.853 25.3488 36.7413 25.8582 36.7413 26.3731C36.7413 26.8879 36.853 27.3973 37.0694 27.8698C37.2858 28.3423 37.6024 28.7678 37.9995 29.1202C38.3967 29.4725 38.8661 29.7442 39.3787 29.9184C39.8913 30.0926 40.4362 30.1656 40.9798 30.133C41.5234 30.1656 42.0683 30.0926 42.5809 29.9184C43.0935 29.7442 43.5629 29.4725 43.96 29.1202C44.3572 28.7678 44.6738 28.3423 44.8902 27.8698C45.1066 27.3973 45.2182 26.8879 45.2182 26.3731C45.2182 25.8582 45.1066 25.3488 44.8902 24.8764C44.6738 24.4039 44.3572 23.9783 43.96 23.626C43.5629 23.2736 43.0935 23.002 42.5809 22.8278ZM41.7056 27.3986C41.4953 27.5493 41.2431 27.639 40.9798 27.6567V27.6516C40.7933 27.6584 40.6072 27.6299 40.4325 27.5678C40.2578 27.5057 40.0979 27.4114 39.9623 27.2902C39.8266 27.169 39.7179 27.0235 39.6425 26.8621C39.5671 26.7007 39.5265 26.5268 39.5231 26.3504C39.5279 26.1009 39.6093 25.8582 39.7575 25.6517C39.9057 25.4453 40.1143 25.284 40.3577 25.1876C40.6012 25.0912 40.869 25.0638 41.1287 25.1087C41.3883 25.1537 41.6285 25.2691 41.82 25.4408C42.0115 25.6125 42.146 25.8331 42.2072 26.0758C42.2683 26.3186 42.2535 26.5728 42.1644 26.8077C42.0754 27.0426 41.9159 27.2479 41.7056 27.3986Z" fill="url(#paint0_linear_1225_73)"/>
</g>
<defs>
<linearGradient id="paint0_linear_1225_73" x1="-7" y1="-4" x2="27.6729" y2="44.7984" gradientUnits="userSpaceOnUse">
<stop offset="0.0160061" stop-color="#231F20"/>
<stop offset="1" stop-color="#D7282F"/>
</linearGradient>
<clipPath id="clip0_1225_73">
<rect width="49.9358" height="30.1406" fill="white"/>
</clipPath>
</defs>
</svg>
