<svg width="33" height="27" viewBox="0 0 33 27" fill="none" xmlns="http://www.w3.org/2000/svg">
<rect width="33" height="27" fill="#FBFBFB"/>
<path opacity="0.5" d="M24.3421 24.9922C26.2489 24.9922 28.0775 24.217 29.4258 22.8371C30.7741 21.4573 31.5315 19.5858 31.5315 17.6343C31.5315 14.6323 30.0048 11.7293 27.7264 11.1688C26.8467 10.9521 26.1473 9.79757 26.2977 8.47985C26.499 6.71665 28.0571 4.93471 31.1433 3.53003C31.8309 3.21699 31.5433 2.1588 30.7969 2.25512C22.7539 3.28522 17.1789 8.65109 17.1527 16.243C17.1527 21.4644 20.1671 24.9922 24.3421 24.9922ZM8.65619 24.9922C10.5629 24.9922 12.3916 24.217 13.7399 22.8371C15.0881 21.4573 15.8456 19.5858 15.8456 17.6343C15.8456 14.6323 14.3188 11.7293 12.0404 11.1688C11.1607 10.9521 10.4614 9.79757 10.6117 8.47985C10.813 6.71665 12.3711 4.93471 15.4574 3.53003C16.1449 3.21699 15.8573 2.1588 15.111 2.25512C7.06799 3.28522 1.49294 8.65109 1.4668 16.243C1.4668 21.4644 4.48111 24.9922 8.65619 24.9922Z" fill="#231F20"/>
</svg>
