<svg width="29" height="24" viewBox="0 0 29 24" fill="none" xmlns="http://www.w3.org/2000/svg">
<g opacity="0.5">
<rect width="29" height="24" transform="matrix(-1 0 0 -1 29 24)" fill="#FBFBFB"/>
<path d="M7.60836 1.78516C5.93274 1.78516 4.32574 2.47422 3.14089 3.70077C1.95605 4.92731 1.29041 6.59086 1.29041 8.32546C1.29041 10.9939 2.63211 13.5744 4.63433 14.0726C5.40741 14.2652 6.02198 15.2915 5.88988 16.4628C5.71297 18.0301 4.3437 19.614 1.63158 20.8626C1.02735 21.1409 1.28007 22.0815 1.93599 21.9959C9.00405 21.0802 13.9033 16.3106 13.9263 9.56217C13.9263 4.92093 11.2774 1.78516 7.60836 1.78516ZM21.393 1.78516C19.7174 1.78516 18.1104 2.47422 16.9255 3.70077C15.7407 4.92731 15.075 6.59086 15.075 8.32546C15.075 10.9939 16.4167 13.5744 18.419 14.0726C19.192 14.2652 19.8066 15.2915 19.6745 16.4628C19.4976 18.0301 18.1283 19.614 15.4162 20.8626C14.812 21.1409 15.0647 22.0815 15.7206 21.9959C22.7887 21.0802 27.688 16.3106 27.7109 9.56217C27.7109 4.92093 25.062 1.78516 21.393 1.78516Z" fill="#231F20"/>
</g>
</svg>
