<svg width="343" height="201" viewBox="0 0 343 201" fill="none" xmlns="http://www.w3.org/2000/svg">
<g clip-path="url(#clip0_2384_418)">
<path d="M141.725 198.926C139.391 196.683 137.219 194.279 135.225 191.732C122.258 175.236 133.983 150.401 145.399 136.437C155.875 123.624 167.652 120.086 183.465 124.245C188.605 125.593 193.823 126.999 199.133 126.77C215.479 126.077 222.32 106.121 231.476 95.5386C241.334 84.099 254.025 79.756 268.852 79.187C285.086 78.5329 306.84 79.9196 318.19 93.2167C330.677 107.868 323.329 122.427 319.958 138.694C317.783 149.159 318.302 160.932 323.303 170.625C324.749 173.418 326.589 175.995 327.95 178.847C329.462 182.124 330.263 185.682 330.3 189.289C330.338 192.895 329.611 196.469 328.167 199.777L141.725 198.926Z" fill="#FFEEEF"/>
<path d="M334.713 77.5781L340.168 76.1326L338.196 68.8659L332.735 70.3114C332.167 69.347 331.482 68.4553 330.697 67.6559L333.53 62.7897L326.997 59.0158L324.164 63.8754C323.075 63.5975 321.956 63.4504 320.832 63.4372L319.386 58.002L312.084 59.9641L313.53 65.3994C312.561 65.9647 311.665 66.6456 310.862 67.427L305.979 64.608L302.187 71.1094L307.07 73.9284C306.785 75.0114 306.635 76.1251 306.623 77.2445L301.168 78.6834L303.14 85.9566L308.595 84.5111C309.165 85.4741 309.849 86.3657 310.632 87.1666L307.799 92.0263L314.339 95.8002L317.171 90.9406C318.258 91.2234 319.374 91.3728 320.497 91.3853L321.949 96.814L329.251 94.8519L327.805 89.4231C328.772 88.8542 329.668 88.1736 330.474 87.3955L335.357 90.2145L339.149 83.7066L334.266 80.8876C334.544 79.8056 334.694 78.6948 334.713 77.5781ZM322.272 83.3469C321.088 83.6593 319.838 83.6155 318.679 83.2209C317.521 82.8263 316.506 82.0986 315.763 81.13C315.02 80.1613 314.582 78.9952 314.505 77.779C314.428 76.5628 314.715 75.3512 315.33 74.2974C315.945 73.2437 316.86 72.395 317.96 71.8588C319.06 71.3226 320.294 71.1229 321.508 71.2851C322.721 71.4472 323.86 71.9638 324.778 72.7696C325.697 73.5754 326.354 74.6342 326.668 75.8121C326.878 76.5942 326.93 77.4096 326.822 78.2118C326.714 79.014 326.449 79.7872 326.04 80.4871C325.632 81.1869 325.089 81.7998 324.442 82.2905C323.795 82.7812 323.058 83.1402 322.272 83.3469Z" fill="#FEDCDE"/>
<path d="M339.832 37.7658C339.475 36.8917 338.874 36.1378 338.099 35.5937C337.324 35.0495 336.409 34.738 335.462 34.696C334.515 34.654 333.575 34.8833 332.755 35.3567C331.935 35.8301 331.268 36.5278 330.835 37.3668C330.453 36.5814 329.857 35.9191 329.114 35.4562C328.371 34.9933 327.512 34.7487 326.635 34.7506C325.906 34.7508 325.187 34.9234 324.538 35.2542C323.949 33.8939 322.972 32.7353 321.728 31.9216C320.484 31.1079 319.028 30.6748 317.539 30.6758C316.503 30.6744 315.479 30.8859 314.529 31.2971C314.225 28.5159 312.879 25.9507 310.76 24.1133C308.64 22.2758 305.902 21.3012 303.092 21.3838C300.282 21.4663 297.606 22.5999 295.599 24.5586C293.592 26.5173 292.4 29.157 292.262 31.9512C291.221 30.8636 289.924 30.0526 288.487 29.5923C287.051 29.132 285.521 29.0371 284.039 29.3161C282.556 29.5951 281.167 30.2392 279.998 31.1896C278.83 32.14 277.919 33.3665 277.35 34.7571C276.589 34.1067 275.673 33.6614 274.69 33.4639C273.706 33.2663 272.689 33.3232 271.734 33.629C270.779 33.9349 269.919 34.4794 269.236 35.2105C268.553 35.9417 268.07 36.835 267.833 37.8051C267.719 38.2586 267.662 38.7242 267.662 39.1917C267.661 40.2084 267.929 41.2075 268.438 42.0892H339.563C339.929 41.4415 340.144 40.7197 340.19 39.9778C340.237 39.236 340.115 38.4932 339.832 37.8051V37.7658Z" fill="white"/>
<path d="M164.122 198.959H150.84V162.05L164.122 149.819V198.959Z" fill="#FEDCDE"/>
<path d="M220.374 152.521V132.265H217.896V152.521H213.164V161.992L204.22 154.66V177.519H193.908V169.599H187.947V158.735H177.477V152.521H172.738V132.265H170.267V152.521H165.535V198.959H177.365H177.477H187.947H193.908H204.22H207.276H213.164H217.588H225.106V152.521H220.374Z" fill="#FEDCDE"/>
<path d="M315.712 169.664L309.744 169.618L309.803 158.755L308.318 158.741V132.402H301.45V158.689L300.175 158.676V150.095H289.593V189.463H288.351V155.916H284.848V140.912H283.015V155.916H279.511V189.463H277.625V169.599H268.878V135.516L254.787 145.045V169.599H250.396V143.567H239.815V158.735H229.24V198.96H239.815H245.106H250.396H277.625H307.338L309.599 198.979L315.56 199.025V198.96H315.659V189.463H315.606L315.712 169.664Z" fill="#FEDCDE"/>
<path d="M333.668 170.527C332.748 175.596 330.638 180.449 328.305 185.015C325.914 189.775 323.08 194.301 319.84 198.534C319.426 199.07 320.293 199.672 320.707 199.136C323.994 194.834 326.87 190.235 329.297 185.401C331.67 180.744 333.779 175.819 334.719 170.651C334.838 169.997 333.786 169.893 333.668 170.553V170.527Z" fill="#FC8F93"/>
<path d="M342.021 172.672C347.049 177.682 331.006 181.456 331.006 181.456C331.006 181.456 338.249 168.911 342.021 172.672Z" fill="#FC8F93"/>
<path d="M324.762 170.331C317.887 172.143 329.855 183.413 329.855 183.413C329.855 183.413 329.927 168.964 324.762 170.331Z" fill="#FC8F93"/>
<path d="M319.649 178.082C313.077 180.823 326.504 190.365 326.504 190.365C326.504 190.365 324.572 176.035 319.649 178.082Z" fill="#FC8F93"/>
<path d="M314.726 184.269C308.515 187.716 322.915 195.715 322.915 195.715C322.915 195.715 319.392 181.679 314.726 184.269Z" fill="#FC8F93"/>
<path d="M340.982 182.497C344.084 188.867 327.68 187.206 327.68 187.206C327.68 187.206 338.623 177.715 340.982 182.497Z" fill="#FC8F93"/>
<path d="M335.508 162.901C342.586 163.555 332.655 176.636 332.655 176.636C332.655 176.636 330.191 162.397 335.508 162.901Z" fill="#FC8F93"/>
<path d="M337.617 191.633C339.516 198.455 323.684 193.877 323.684 193.877C323.684 193.877 336.197 186.499 337.617 191.633Z" fill="#FC8F93"/>
<path d="M131.137 169.206C132.129 174.668 134.423 179.9 136.914 184.825C139.499 189.956 142.559 194.834 146.056 199.398C146.503 199.973 145.57 200.621 145.123 200.052C141.569 195.4 138.464 190.424 135.849 185.192C133.293 180.168 131.012 174.864 130 169.291C129.875 168.578 131.005 168.48 131.137 169.187V169.206Z" fill="#FC8F93"/>
<path d="M122.126 171.521C116.71 176.917 134.009 180.992 134.009 180.992C134.009 180.992 126.201 167.466 122.126 171.521Z" fill="#FC8F93"/>
<path d="M140.488 169.096C147.901 171.059 135 183.224 135 183.224C135 183.224 134.921 167.638 140.488 169.096Z" fill="#FC8F93"/>
<path d="M146.246 177.342C153.317 180.299 138.858 190.587 138.858 190.587C138.858 190.587 140.935 175.132 146.246 177.342Z" fill="#FC8F93"/>
<path d="M151.827 184.344C158.517 188.059 143 196.68 143 196.68C143 196.68 146.799 181.551 151.827 184.344Z" fill="#FC8F93"/>
<path d="M123.25 182.111C119.911 188.979 137.59 187.187 137.59 187.187C137.59 187.187 125.767 176.951 123.25 182.111Z" fill="#FC8F93"/>
<path d="M129.152 160.991C121.522 161.71 132.228 175.825 132.228 175.825C132.228 175.825 134.883 160.448 129.152 160.991Z" fill="#FC8F93"/>
<path d="M126.878 191.961C124.834 199.313 141.902 194.375 141.902 194.375C141.902 194.375 128.409 186.434 126.878 191.961Z" fill="#FC8F93"/>
<path d="M330.73 198.92H136.46V201H330.73V198.92Z" fill="#FC8F93"/>
<path d="M308.45 67.7082H167.803C163.927 67.7082 160.209 66.1757 157.468 63.4477C154.726 60.7197 153.187 57.0198 153.187 53.1619C153.188 49.3051 154.729 45.6068 157.47 42.8803C160.211 40.1537 163.928 38.6221 167.803 38.6221H308.45C310.368 38.6221 312.268 38.9982 314.041 39.7288C315.813 40.4595 317.424 41.5305 318.781 42.8807C320.137 44.2308 321.214 45.8337 321.948 47.5977C322.682 49.3618 323.06 51.2525 323.06 53.1619C323.06 57.0187 321.521 60.7176 318.781 63.4454C316.041 66.1732 312.325 67.7065 308.45 67.7082Z" fill="#FEDCDE"/>
<path d="M156.972 53.1619C156.972 49.3057 158.512 45.6074 161.252 42.8807C163.991 40.1539 167.708 38.6221 171.582 38.6221H167.784C163.908 38.6221 160.191 40.1537 157.45 42.8803C154.709 45.6068 153.169 49.3051 153.167 53.1619C153.167 57.0198 154.707 60.7197 157.448 63.4477C160.189 66.1757 163.907 67.7082 167.784 67.7082H171.582C167.707 67.7065 163.991 66.1732 161.251 63.4454C158.511 60.7176 156.972 57.0187 156.972 53.1619Z" fill="#FC8F93"/>
<path d="M250.555 52.2727C250.817 52.0175 251.002 51.6947 251.09 51.3405C251.177 50.9863 251.164 50.6148 251.052 50.2676C250.939 49.9205 250.731 49.6114 250.452 49.3752C250.173 49.139 249.833 48.985 249.47 48.9304L244.469 48.2044C244.155 48.1569 243.857 48.0345 243.601 47.8478C243.344 47.661 243.137 47.4154 242.997 47.1318L240.736 42.6056C240.569 42.2876 240.318 42.0211 240.01 41.8351C239.702 41.6491 239.348 41.5508 238.988 41.5508C238.627 41.5508 238.274 41.6491 237.965 41.8351C237.657 42.0211 237.406 42.2876 237.239 42.6056L234.998 47.1514C234.858 47.435 234.651 47.6806 234.394 47.8674C234.138 48.0541 233.84 48.1765 233.526 48.224L228.524 48.95C228.162 49.0046 227.822 49.1586 227.543 49.3948C227.263 49.6311 227.056 49.9401 226.943 50.2872C226.83 50.6344 226.817 51.0059 226.905 51.3601C226.993 51.7143 227.178 52.0371 227.44 52.2923L231.061 55.8308C231.289 56.0527 231.46 56.3263 231.558 56.6282C231.657 56.9301 231.68 57.2512 231.627 57.5641L230.772 62.5611C230.714 62.9181 230.756 63.2841 230.894 63.6188C231.032 63.9535 231.26 64.2438 231.553 64.4576C231.846 64.6715 232.192 64.8006 232.555 64.8306C232.917 64.8607 233.28 64.7905 233.605 64.6279L238.067 62.2275C238.346 62.0792 238.658 62.0016 238.974 62.0016C239.291 62.0016 239.602 62.0792 239.881 62.2275L244.357 64.5887C244.682 64.753 245.046 64.8246 245.409 64.7954C245.773 64.7662 246.121 64.6374 246.415 64.4233C246.709 64.2092 246.938 63.9182 247.076 63.5825C247.213 63.2469 247.255 62.8797 247.196 62.5218L246.335 57.5248C246.282 57.212 246.305 56.8908 246.403 56.5889C246.502 56.287 246.672 56.0134 246.901 55.7915L250.555 52.2727Z" fill="#FC8F93"/>
<path d="M244.324 97.4227C245.198 97.39 246.598 97.3442 247.084 97.3573C246.598 97.3246 243.483 97.4423 243.483 97.4423C242.177 98.3862 240.612 98.9107 238.998 98.9458C237.385 98.9809 235.799 98.5248 234.452 97.6385V97.6778C234.452 97.6778 230.923 97.9002 230.805 97.9525H230.91C230.969 97.9525 232.546 97.8086 233.611 97.7432C233.309 102.106 232.461 119.851 233.986 131.604L244.376 131.519C244.422 131.231 244.462 130.956 244.501 130.701C246.394 118.667 244.692 101.072 244.324 97.4227Z" fill="white"/>
<path d="M239.651 131.519L226.645 131.63L227.078 192.687H233.269L239.881 142.383L244.081 192.687H250.305L251.974 131.421L239.651 131.519Z" fill="#22307F"/>
<path d="M235.005 201V198.553L233.579 192.687H226.566L224.877 198.553V201H235.005Z" fill="#0F1744"/>
<path d="M252.086 201V198.553L250.66 192.687H243.654L241.965 198.553V201H252.086Z" fill="#0F1744"/>
<path d="M243.483 97.4353L243.391 91.7188H234.473V97.6053C235.814 98.491 237.395 98.9491 239.005 98.9188C240.614 98.8884 242.176 98.3709 243.483 97.4353Z" fill="#FDBAB3"/>
<path d="M246.217 82.4254C246.178 81.7714 246.125 81.1173 246.04 80.3847C245.277 74.0207 239.007 74.3216 239.007 74.3216C235.425 74.3216 233.611 76.0352 232.698 77.5919C232.246 78.3709 231.945 79.2272 231.811 80.1166C231.743 80.9432 231.716 81.7727 231.732 82.602C231.732 82.9683 231.732 83.3673 231.771 83.7859C231.82 84.6931 231.919 85.5971 232.067 86.4937C232.724 90.2872 234.466 94.4144 239.086 94.6891C239.462 94.7122 239.838 94.6656 240.197 94.5517C241.728 94.1004 245.382 92.3672 246.112 86.0489C246.244 84.8458 246.279 83.6341 246.217 82.4254Z" fill="#FDBAB3"/>
<path d="M239.086 95.526C239.464 95.5424 239.841 95.496 240.203 95.3886C241.434 95.0093 242.542 94.3145 243.417 93.3741V92.5892C242.542 93.523 241.436 94.2129 240.21 94.5906C239.849 94.7044 239.471 94.751 239.093 94.728C238.208 94.6918 237.34 94.4697 236.547 94.0763C235.754 93.6829 235.054 93.1271 234.492 92.4453V93.2367C235.052 93.9192 235.751 94.476 236.543 94.8706C237.335 95.2651 238.202 95.4885 239.086 95.526Z" fill="#FFA6A4"/>
<path d="M229.937 83.8113C229.739 84.2856 229.726 84.8163 229.9 85.3C230.073 85.7837 230.422 86.1856 230.877 86.4275C231.249 86.6028 231.672 86.6354 232.067 86.5191C231.856 85.2213 231.744 83.9094 231.731 82.5947C231.339 82.5723 230.951 82.6795 230.627 82.8995C230.302 83.1195 230.06 83.44 229.937 83.8113Z" fill="#FFA6A4"/>
<path d="M247.643 81.9278C247.41 81.8229 247.158 81.7686 246.903 81.7686C246.648 81.7686 246.396 81.8229 246.164 81.9278C246.242 83.2496 246.206 84.5756 246.059 85.8915C246.3 86.0002 246.562 86.0571 246.828 86.0585C247.093 86.0599 247.356 86.0059 247.598 85.8998C247.841 85.7937 248.059 85.638 248.238 85.4428C248.416 85.2475 248.552 85.0171 248.635 84.7665C248.85 84.2548 248.868 83.682 248.685 83.1581C248.502 82.6342 248.13 82.196 247.643 81.9278Z" fill="#FFA6A4"/>
<path d="M247.064 84.9367H246.157L246.453 80.2471L247.064 80.2863V84.9367Z" fill="#171C23"/>
<path d="M231.554 86.6631H232.396L232.1 82.2285L231.403 82.3397L231.554 86.6631Z" fill="#171C23"/>
<g style="mix-blend-mode:overlay">
<path d="M246.256 82.1893C245.704 80.94 245.31 80.0112 244.042 79.9785C242.737 80.0418 241.457 80.3596 240.276 80.9138C238.212 81.6987 235.734 82.876 233.703 81.4305C233.291 81.1365 232.935 80.7709 232.652 80.3513C232.573 80.5803 232.501 80.7896 232.422 81.0054C232.733 81.5218 233.149 81.9675 233.644 82.3135C235.747 83.7721 238.291 82.5882 240.407 81.7837C241.62 81.2147 242.933 80.8881 244.272 80.8223C245.376 80.8223 245.829 81.5417 246.289 82.5359C246.263 82.4247 246.263 82.307 246.256 82.1893Z" fill="#6D6D6D"/>
</g>
<path d="M233.237 77.4085C233.237 77.4085 233.178 76.1592 232.12 76.2116C231.061 76.2639 230.89 77.4085 230.89 77.4085C230.89 77.4085 230.187 79.4557 231.587 83.609C232.673 81.7214 233.242 79.5834 233.237 77.4085Z" fill="#171C23"/>
<path d="M247.327 78.6702C247.363 78.3441 247.363 78.0151 247.327 77.6891C247.131 76.5536 246.582 75.5081 245.757 74.7C244.862 73.7978 243.784 73.0955 242.595 72.6397C240.577 71.9135 238.381 71.829 236.312 72.3977C234.901 72.7113 233.634 73.4819 232.711 74.5888C231.948 75.641 231.624 76.9456 231.805 78.2303C231.986 79.5149 232.659 80.6802 233.683 81.4827C235.74 82.9085 238.218 81.7508 240.256 80.9659C241.437 80.4117 242.717 80.0939 244.022 80.0306C245.336 80.0633 245.711 81.051 246.296 82.3656C246.131 81.9994 246.677 81.0575 246.834 80.7305C247.134 80.0827 247.301 79.3826 247.327 78.6702Z" fill="#1C212B"/>
<path d="M247.301 77.6891C247.102 76.5546 246.553 75.5099 245.73 74.7C244.834 73.7963 243.754 73.0938 242.562 72.6397C240.544 71.9135 238.348 71.829 236.279 72.3977C234.869 72.7141 233.603 73.4842 232.677 74.5888C231.973 75.5275 231.64 76.6919 231.744 77.8591C231.885 77.5463 232.064 77.252 232.277 76.9827C233.201 75.8793 234.464 75.1093 235.872 74.7916C237.941 74.2214 240.137 74.3083 242.155 75.0401C243.347 75.4892 244.428 76.1898 245.323 77.0939C246.144 77.9048 246.693 78.949 246.893 80.083C246.893 80.2203 246.893 80.3577 246.926 80.495C247.163 79.9024 247.298 79.2746 247.327 78.6375C247.352 78.3213 247.343 78.0034 247.301 77.6891Z" fill="#303842"/>
<path d="M234.459 97.75C234.459 97.75 234.347 100.51 235.846 101.452L238.967 98.2602C237.451 98.2411 235.941 98.0701 234.459 97.75Z" fill="#AEB7F4"/>
<path d="M243.476 97.75C241.996 98.0699 240.488 98.2408 238.974 98.2602L242.115 101.452C243.607 100.51 243.476 97.75 243.476 97.75Z" fill="#AEB7F4"/>
<path d="M234.459 97.4229C234.459 97.4229 234.268 99.6728 235.773 100.615L238.974 98.2273C237.44 98.2019 235.92 97.9302 234.472 97.4229H234.459Z" fill="white"/>
<path d="M243.476 97.4229C242.028 97.9293 240.508 98.2009 238.974 98.2273L242.174 100.615C243.666 99.6728 243.476 97.4229 243.476 97.4229Z" fill="white"/>
<path d="M239.854 102.204L241.274 99.9407L238.967 98.2598L236.627 99.9734L238.152 102.204L234.813 119.491L238.967 129.55L243.121 119.491L239.854 102.204Z" fill="#FF2B53"/>
<path d="M251.974 131.421H226.645V134.364H251.974V131.421Z" fill="#FC8F93"/>
<path d="M241.452 131.421H237.357V134.364H241.452V131.421Z" fill="#FFBABE"/>
<path d="M230.181 97.9591H230.838H230.292C228.545 97.8921 226.813 97.6019 225.14 97.0957V97.1284C226.777 97.6217 228.471 97.9009 230.181 97.9591Z" fill="#1F2966"/>
<path d="M231.843 67.9115C232.474 67.1537 233.252 66.5307 234.13 66.0801C234.344 65.9683 234.517 65.792 234.623 65.5765C234.667 65.4985 234.69 65.4107 234.69 65.3214C234.69 65.2321 234.667 65.1443 234.623 65.0663C234.522 64.9341 234.374 64.8453 234.209 64.8178C233.421 64.679 232.61 64.7746 231.876 65.0925C231.413 65.2388 230.962 65.4226 230.529 65.6419C228.169 67.3163 227.302 71.4631 227.124 72.4507L226.283 73.458L229.044 75.6295L230.463 73.5692C231.068 72.9609 231.778 72.2022 232.093 71.9798C232.606 71.607 233.131 71.2407 233.664 70.894C233.973 70.6847 234.683 70.397 234.683 69.9784C234.679 69.8964 234.659 69.816 234.624 69.7418C234.589 69.6676 234.54 69.6011 234.479 69.5462C234.417 69.4914 234.346 69.4493 234.268 69.4224C234.19 69.3955 234.108 69.3844 234.025 69.3897C233.759 69.4684 233.506 69.5875 233.276 69.7429C232.826 69.929 232.36 70.0734 231.883 70.1746C231.62 70.24 231.147 70.3185 231.074 69.9457C231.041 69.6063 231.096 69.2642 231.232 68.9515C231.372 68.5714 231.579 68.2192 231.843 67.9115Z" fill="#FDBAB3"/>
<path d="M234.512 134.861C234.308 133.841 234.137 132.742 233.986 131.591C232.461 119.818 233.329 102.093 233.612 97.7301C232.547 97.7955 230.983 97.9067 230.91 97.9394H230.838H230.181C228.471 97.8813 226.777 97.6021 225.14 97.1088C221.893 96.2389 218.607 95.1466 218.607 95.1466L217.595 94.656C217.432 94.5761 217.289 94.4605 217.177 94.3178C217.066 94.1751 216.988 94.0091 216.95 93.8322C216.912 93.6553 216.915 93.4722 216.958 93.2965C217.002 93.1209 217.085 92.9573 217.201 92.8181L229.445 75.9629L225.646 73L210.977 90.5616C208.735 92.8443 209.419 96.9779 211.706 99.2083L212.219 99.7577C213.567 101.196 215.151 102.395 216.905 103.303L223.747 106.848C224.494 107.254 225.143 107.819 225.646 108.503L226.303 134.966C228.853 140.689 236.819 141.945 236.819 141.945C235.687 139.716 234.909 137.327 234.512 134.861Z" fill="#1F2966"/>
<path d="M267.038 90.15L252.579 72.8369L249.405 75.754L260.998 92.256C261.116 92.3948 261.199 92.5583 261.244 92.7342C261.288 92.9101 261.291 93.0937 261.253 93.271C261.215 93.4483 261.136 93.6145 261.024 93.7572C260.912 93.8998 260.768 94.015 260.604 94.094L259.335 94.7022C255.516 96.3955 251.391 97.3011 247.21 97.3643H247.078C246.592 97.3643 245.192 97.3643 244.318 97.4297C244.686 101.079 246.388 118.674 244.495 130.695C244.456 130.95 244.416 131.225 244.37 131.513C243.904 134.639 243.247 139.571 242.333 141.285C242.333 141.285 250.18 139.976 252.566 134.208L252.651 107.731V107.548C252.949 107.107 253.334 106.731 253.782 106.443L259.48 103.512C262.027 102.201 264.374 100.539 266.453 98.5743C268.754 96.3374 269.279 92.4261 267.038 90.15Z" fill="#1F2966"/>
<path d="M236.864 142.88C236.667 142.54 236.49 142.161 236.312 141.775C234.564 141.389 229.122 139.891 226.717 135.666V136.673C229.615 141.742 236.864 142.88 236.864 142.88Z" fill="#142466"/>
<path d="M242.812 141.16C242.701 141.533 242.558 141.897 242.385 142.246C242.385 142.246 248.918 141.173 251.875 136.575V135.528C249.411 139.459 244.31 140.833 242.812 141.16Z" fill="#142466"/>
<path d="M251.054 71.8356C250.876 70.848 250.009 66.7012 247.649 65.0203C247.213 64.8076 246.763 64.624 246.302 64.4709C245.571 64.1606 244.766 64.063 243.982 64.1896C243.82 64.2238 243.676 64.3142 243.575 64.4447C243.531 64.5227 243.508 64.6105 243.508 64.6998C243.508 64.7891 243.531 64.8769 243.575 64.9549C243.683 65.1688 243.855 65.3445 244.067 65.4585C244.946 65.9091 245.724 66.532 246.355 67.2899C246.609 67.6009 246.809 67.9525 246.946 68.3299C247.077 68.6442 247.131 68.9849 247.104 69.324C247.032 69.6903 246.552 69.6184 246.289 69.5529C245.814 69.4527 245.35 69.3082 244.902 69.1213C244.669 68.9663 244.414 68.8452 244.146 68.7615C243.985 68.758 243.829 68.8179 243.712 68.9281C243.596 69.0383 243.527 69.19 243.522 69.3502C243.522 69.7753 244.225 70.0631 244.541 70.2724C245.073 70.6191 245.592 70.9788 246.105 71.3582C246.401 71.574 247.137 72.3393 247.735 72.941L249.575 75.6096L252.125 73.0783L251.054 71.8356Z" fill="#FDBAB3"/>
<path d="M252.434 72.9675L251.35 71.751L248.359 74.3869L249.549 75.623L252.434 72.9675Z" fill="white"/>
<path d="M226.086 73.3074L227.065 72.0059L230.259 74.3932L229.168 75.7144L226.086 73.3074Z" fill="white"/>
<path d="M252.605 74.3994C252.761 74.3994 252.887 74.2735 252.887 74.1182C252.887 73.9628 252.761 73.8369 252.605 73.8369C252.449 73.8369 252.322 73.9628 252.322 74.1182C252.322 74.2735 252.449 74.3994 252.605 74.3994Z" fill="white"/>
<path d="M225.652 74.5957C225.808 74.5957 225.934 74.4698 225.934 74.3145C225.934 74.1591 225.808 74.0332 225.652 74.0332C225.496 74.0332 225.369 74.1591 225.369 74.3145C225.369 74.4698 225.496 74.5957 225.652 74.5957Z" fill="white"/>
<path d="M250.725 60.7825C250.987 60.5273 251.173 60.2045 251.26 59.8503C251.348 59.4961 251.335 59.1246 251.222 58.7774C251.11 58.4303 250.902 58.1212 250.623 57.885C250.343 57.6488 250.003 57.4948 249.641 57.4402L244.639 56.7142C244.325 56.6667 244.028 56.5443 243.771 56.3575C243.515 56.1708 243.308 55.9251 243.167 55.6415L240.933 51.0631C240.767 50.7434 240.515 50.4753 240.207 50.2881C239.898 50.1009 239.543 50.002 239.181 50.002C238.82 50.002 238.465 50.1009 238.156 50.2881C237.847 50.4753 237.596 50.7434 237.43 51.0631L235.189 55.6415C235.048 55.9251 234.841 56.1708 234.585 56.3575C234.328 56.5443 234.03 56.6667 233.716 56.7142L228.715 57.4402C228.352 57.4948 228.012 57.6488 227.733 57.885C227.454 58.1212 227.246 58.4303 227.133 58.7774C227.021 59.1246 227.008 59.4961 227.095 59.8503C227.183 60.2045 227.369 60.5273 227.63 60.7825L231.252 64.3209C231.48 64.5428 231.65 64.8164 231.749 65.1183C231.847 65.4202 231.871 65.7414 231.817 66.0542L230.963 71.0513C230.906 71.4078 230.949 71.7729 231.087 72.1066C231.226 72.4402 231.454 72.7295 231.747 72.9424C232.039 73.1554 232.386 73.2839 232.747 73.3137C233.108 73.3436 233.471 73.2736 233.795 73.1116L238.271 70.7569C238.55 70.6086 238.862 70.5311 239.178 70.5311C239.494 70.5311 239.806 70.6086 240.085 70.7569L244.561 73.1116C244.885 73.2754 245.248 73.3467 245.611 73.3177C245.973 73.2887 246.321 73.1605 246.615 72.9473C246.909 72.7341 247.137 72.4441 247.276 72.1095C247.415 71.7749 247.457 71.4086 247.4 71.0513L246.545 66.0542C246.491 65.7419 246.513 65.4211 246.611 65.1192C246.708 64.8174 246.877 64.5435 247.104 64.3209L250.725 60.7825Z" fill="#D7282F"/>
<path d="M250.725 60.7816C250.987 60.5264 251.173 60.2036 251.26 59.8494C251.348 59.4952 251.335 59.1237 251.222 58.7765C251.11 58.4294 250.902 58.1203 250.623 57.8841C250.343 57.6479 250.003 57.4939 249.641 57.4393L244.64 56.7133C244.325 56.6658 244.028 56.5434 243.771 56.3566C243.515 56.1699 243.308 55.9242 243.167 55.6406L240.933 51.0622C240.809 50.8174 240.635 50.6011 240.421 50.4274C240.208 50.2537 239.961 50.1264 239.695 50.0537C239.429 49.9809 239.151 49.9644 238.879 50.0052C238.607 50.046 238.346 50.1432 238.113 50.2904C238.434 50.3259 238.74 50.4418 239.003 50.6271C239.266 50.8124 239.478 51.0611 239.618 51.35L241.859 55.9284C242 56.21 242.207 56.4538 242.462 56.6393C242.717 56.8249 243.013 56.9467 243.325 56.9946L248.333 57.7206C248.695 57.7761 249.034 57.9309 249.313 58.1675C249.591 58.4041 249.798 58.7132 249.91 59.0602C250.022 59.4072 250.034 59.7783 249.946 60.1321C249.858 60.4858 249.673 60.8081 249.411 61.0628L245.79 64.6013C245.563 64.8238 245.393 65.0977 245.296 65.3996C245.199 65.7014 245.177 66.0222 245.231 66.3346L246.085 71.3316C246.146 71.7085 246.095 72.0948 245.939 72.4433C245.783 72.7919 245.527 73.0874 245.205 73.2938C245.51 73.3327 245.82 73.3 246.11 73.1983C246.4 73.0966 246.662 72.9288 246.876 72.7082C247.089 72.4877 247.248 72.2205 247.339 71.9281C247.43 71.6357 247.451 71.3261 247.4 71.0242L246.545 66.0272C246.491 65.7148 246.513 65.394 246.611 65.0922C246.708 64.7903 246.877 64.5164 247.104 64.2939L250.725 60.7816Z" fill="#B90E15"/>
<path d="M232.093 71.9732C232.606 71.6004 233.132 71.2407 233.664 70.8875C233.973 70.6782 234.683 70.3904 234.683 69.9718C234.68 69.8898 234.66 69.8094 234.625 69.7352C234.59 69.661 234.54 69.5945 234.479 69.5397C234.418 69.4848 234.346 69.4427 234.268 69.4158C234.19 69.3889 234.108 69.3778 234.026 69.3831C233.759 69.4618 233.506 69.5809 233.276 69.7363C232.825 69.9216 232.359 70.0682 231.883 70.1745C231.647 70.2269 231.226 70.2923 231.108 70.0306L230.937 71.0444C230.886 71.3233 230.899 71.6098 230.972 71.8834C231.046 72.157 231.18 72.411 231.364 72.6273C231.596 72.3969 231.839 72.1786 232.093 71.9732Z" fill="#FDBAB3"/>
<path d="M247.4 71.0439L247.085 69.2059C247.085 69.2452 247.085 69.2844 247.085 69.3237C247.013 69.69 246.533 69.618 246.27 69.5526C245.795 69.4524 245.331 69.3079 244.883 69.1209C244.651 68.9655 244.396 68.8463 244.127 68.7677C243.966 68.7642 243.81 68.824 243.693 68.9343C243.577 69.0445 243.508 69.1962 243.503 69.3564C243.503 69.775 244.206 70.0628 244.522 70.2721C245.054 70.6187 245.573 70.985 246.086 71.3578C246.462 71.6773 246.82 72.018 247.157 72.3782C247.398 71.9775 247.485 71.5033 247.4 71.0439Z" fill="#FDBAB3"/>
<path d="M280.301 52.2722C280.563 52.0175 280.748 51.6952 280.836 51.3415C280.924 50.9878 280.912 50.6166 280.8 50.2696C280.688 49.9226 280.481 49.6135 280.203 49.3769C279.924 49.1403 279.585 48.9855 279.223 48.93L274.215 48.204C273.901 48.1564 273.603 48.0341 273.347 47.8473C273.09 47.6605 272.883 47.4149 272.743 47.1313L270.508 42.5856C270.342 42.2658 270.091 41.9977 269.782 41.8106C269.473 41.6234 269.118 41.5244 268.757 41.5244C268.395 41.5244 268.04 41.6234 267.731 41.8106C267.422 41.9977 267.171 42.2658 267.005 42.5856L264.764 47.1313C264.627 47.4161 264.422 47.663 264.166 47.85C263.91 48.0371 263.612 48.1587 263.298 48.204L258.29 48.93C257.928 48.9855 257.589 49.1403 257.311 49.3769C257.032 49.6135 256.825 49.9226 256.713 50.2696C256.602 50.6166 256.589 50.9878 256.677 51.3415C256.765 51.6952 256.951 52.0175 257.212 52.2722L260.834 55.8107C261.061 56.0332 261.23 56.3071 261.327 56.609C261.425 56.9108 261.447 57.2317 261.392 57.544L260.538 62.541C260.48 62.898 260.522 63.2641 260.66 63.5987C260.797 63.9334 261.025 64.2237 261.318 64.4376C261.611 64.6514 261.958 64.7805 262.32 64.8105C262.683 64.8406 263.046 64.7704 263.371 64.6079L267.846 62.2467C268.127 62.1011 268.44 62.0251 268.757 62.0251C269.074 62.0251 269.386 62.1011 269.667 62.2467L274.143 64.6079C274.467 64.7704 274.831 64.8406 275.193 64.8105C275.555 64.7805 275.902 64.6514 276.195 64.4376C276.488 64.2237 276.716 63.9334 276.854 63.5987C276.991 63.2641 277.033 62.898 276.975 62.541L276.121 57.544C276.066 57.2317 276.089 56.9108 276.186 56.609C276.283 56.3071 276.453 56.0332 276.679 55.8107L280.301 52.2722Z" fill="#D7282F"/>
<path d="M281.115 52.273C281.377 52.0178 281.562 51.695 281.65 51.3408C281.738 50.9866 281.725 50.6151 281.612 50.2679C281.499 49.9208 281.292 49.6117 281.012 49.3755C280.733 49.1393 280.393 48.9853 280.031 48.9307L275.029 48.2047C274.715 48.1572 274.417 48.0348 274.161 47.8481C273.905 47.6613 273.697 47.4157 273.557 47.1321L271.316 42.6059C271.192 42.362 271.018 42.1466 270.805 41.9735C270.592 41.8005 270.346 41.6735 270.081 41.6009C269.816 41.5282 269.539 41.5114 269.267 41.5516C268.995 41.5917 268.735 41.688 268.503 41.8342C268.823 41.8697 269.13 41.9855 269.393 42.1708C269.656 42.3561 269.868 42.6048 270.008 42.8937L272.249 47.4722C272.386 47.757 272.592 48.0038 272.847 48.1909C273.103 48.378 273.401 48.4995 273.715 48.5448L278.723 49.2774C279.083 49.3338 279.421 49.4888 279.698 49.7249C279.976 49.9611 280.182 50.2693 280.293 50.6151C280.405 50.9609 280.418 51.3307 280.331 51.6835C280.244 52.0363 280.061 52.3581 279.801 52.6131L276.186 56.0993C275.959 56.3218 275.79 56.5957 275.692 56.8975C275.595 57.1994 275.573 57.5202 275.627 57.8325L276.482 62.8296C276.543 63.2064 276.492 63.5928 276.335 63.9413C276.179 64.2898 275.924 64.5854 275.601 64.7917C275.906 64.8306 276.216 64.7979 276.506 64.6962C276.796 64.5946 277.059 64.4267 277.272 64.2062C277.485 63.9856 277.644 63.7185 277.735 63.4261C277.826 63.1336 277.847 62.8241 277.796 62.5222L276.935 57.5251C276.881 57.2123 276.905 56.8911 277.003 56.5892C277.102 56.2873 277.272 56.0137 277.5 55.7918L281.115 52.273Z" fill="#B90E15"/>
<path d="M311.282 52.2727C311.544 52.0175 311.729 51.6947 311.817 51.3405C311.905 50.9863 311.892 50.6148 311.779 50.2676C311.666 49.9205 311.459 49.6114 311.179 49.3752C310.9 49.139 310.56 48.985 310.198 48.9304L305.196 48.2044C304.882 48.1569 304.584 48.0345 304.328 47.8478C304.072 47.661 303.864 47.4154 303.724 47.1318L301.483 42.6056C301.316 42.2876 301.065 42.0211 300.757 41.8351C300.449 41.6491 300.095 41.5508 299.735 41.5508C299.374 41.5508 299.021 41.6491 298.712 41.8351C298.404 42.0211 298.153 42.2876 297.986 42.6056L295.745 47.1514C295.605 47.435 295.398 47.6806 295.141 47.8674C294.885 48.0541 294.587 48.1765 294.273 48.224L289.272 48.95C288.909 49.0046 288.569 49.1586 288.29 49.3948C288.01 49.6311 287.803 49.9401 287.69 50.2872C287.577 50.6344 287.564 51.0059 287.652 51.3601C287.74 51.7143 287.925 52.0371 288.187 52.2923L291.808 55.8308C292.036 56.0527 292.207 56.3263 292.305 56.6282C292.404 56.93 292.427 57.2512 292.374 57.564L291.513 62.5611C291.454 62.9189 291.495 63.2861 291.633 63.6217C291.771 63.9574 292 64.2484 292.294 64.4625C292.588 64.6766 292.936 64.8054 293.3 64.8346C293.663 64.8638 294.027 64.7923 294.352 64.6279L298.828 62.2668C299.107 62.1185 299.418 62.0409 299.735 62.0409C300.051 62.0409 300.362 62.1185 300.642 62.2668L305.117 64.6279C305.442 64.7905 305.805 64.8607 306.168 64.8306C306.53 64.8006 306.876 64.6715 307.169 64.4576C307.463 64.2438 307.691 63.9535 307.828 63.6188C307.966 63.2841 308.008 62.9181 307.95 62.5611L307.096 57.564C307.042 57.2512 307.065 56.93 307.164 56.6282C307.262 56.3263 307.433 56.0527 307.661 55.8308L311.282 52.2727Z" fill="#D7282F"/>
<path d="M312.091 52.273C312.353 52.0182 312.538 51.6959 312.626 51.3422C312.714 50.9885 312.702 50.6174 312.59 50.2704C312.478 49.9234 312.271 49.6143 311.993 49.3776C311.714 49.141 311.375 48.9863 311.013 48.9307L306.005 48.2047C305.692 48.1562 305.396 48.0334 305.14 47.8467C304.885 47.66 304.679 47.4148 304.539 47.1321L302.298 42.6059C302.174 42.362 302 42.1466 301.788 41.9735C301.575 41.8005 301.328 41.6735 301.063 41.6009C300.799 41.5282 300.521 41.5114 300.25 41.5516C299.978 41.5917 299.718 41.688 299.485 41.8342C299.805 41.8707 300.109 41.987 300.371 42.1723C300.633 42.3575 300.844 42.6057 300.984 42.8937L303.225 47.4722C303.365 47.7558 303.573 48.0014 303.829 48.1882C304.085 48.3749 304.383 48.4973 304.697 48.5448L309.699 49.2774C310.06 49.3328 310.398 49.487 310.676 49.7228C310.955 49.9586 311.161 50.2667 311.274 50.6126C311.386 50.9586 311.4 51.3288 311.313 51.6821C311.227 52.0353 311.043 52.3577 310.783 52.6131L307.162 56.1516C306.934 56.3735 306.763 56.6471 306.665 56.949C306.566 57.2508 306.543 57.572 306.597 57.8848L307.458 62.8819C307.518 63.2588 307.468 63.6451 307.311 63.9936C307.155 64.3421 306.899 64.6377 306.577 64.8441C306.881 64.8818 307.191 64.8483 307.48 64.7461C307.769 64.6439 308.031 64.476 308.243 64.2555C308.456 64.0351 308.614 63.7684 308.704 63.4765C308.795 63.1847 308.816 62.8758 308.765 62.5745L307.911 57.5774C307.857 57.2651 307.879 56.9443 307.976 56.6424C308.073 56.3406 308.243 56.0667 308.47 55.8442L312.091 52.273Z" fill="#B90E15"/>
<path d="M217.693 52.2731C217.955 52.0179 218.14 51.6951 218.228 51.3409C218.315 50.9867 218.302 50.6152 218.19 50.268C218.077 49.9209 217.869 49.6119 217.59 49.3757C217.311 49.1395 216.971 48.9854 216.608 48.9309L211.6 48.2049C211.287 48.1563 210.991 48.0335 210.736 47.8468C210.481 47.6601 210.274 47.415 210.135 47.1322L207.834 42.6061C207.668 42.2863 207.417 42.0182 207.108 41.8311C206.799 41.6439 206.444 41.5449 206.083 41.5449C205.721 41.5449 205.366 41.6439 205.057 41.8311C204.749 42.0182 204.497 42.2863 204.331 42.6061L202.097 47.1518C201.956 47.4354 201.749 47.681 201.493 47.8678C201.236 48.0546 200.939 48.1769 200.625 48.2245L195.616 48.9505C195.255 49.006 194.915 49.1608 194.637 49.3974C194.358 49.634 194.152 49.9431 194.04 50.2901C193.928 50.6371 193.915 51.0083 194.003 51.362C194.091 51.7157 194.277 52.038 194.539 52.2927L198.16 55.8312C198.387 56.0537 198.556 56.3276 198.653 56.6295C198.751 56.9313 198.773 57.2522 198.719 57.5645L197.864 62.5615C197.806 62.9185 197.848 63.2846 197.986 63.6193C198.124 63.9539 198.352 64.2442 198.645 64.4581C198.938 64.6719 199.284 64.801 199.647 64.831C200.009 64.8611 200.372 64.791 200.697 64.6284L205.205 62.228C205.486 62.0824 205.799 62.0063 206.116 62.0063C206.433 62.0063 206.745 62.0824 207.026 62.228L211.502 64.5891C211.826 64.7517 212.19 64.8218 212.552 64.7918C212.914 64.7617 213.261 64.6327 213.554 64.4188C213.847 64.205 214.075 63.9147 214.213 63.58C214.35 63.2453 214.392 62.8793 214.334 62.5223L213.48 57.5252C213.425 57.2129 213.448 56.8921 213.545 56.5902C213.642 56.2884 213.812 56.0145 214.039 55.792L217.693 52.2731Z" fill="#D7282F"/>
<path d="M218.469 52.2723C218.731 52.0171 218.916 51.6943 219.004 51.3401C219.091 50.9859 219.078 50.6144 218.966 50.2672C218.853 49.9201 218.645 49.6111 218.366 49.3748C218.087 49.1386 217.747 48.9846 217.384 48.93L212.383 48.204C212.069 48.1565 211.771 48.0341 211.514 47.8474C211.258 47.6606 211.051 47.415 210.911 47.1314L208.676 42.5856C208.552 42.3408 208.378 42.1246 208.165 41.9508C207.951 41.7771 207.704 41.6498 207.438 41.5771C207.173 41.5044 206.895 41.4879 206.622 41.5287C206.35 41.5694 206.089 41.6666 205.856 41.8138C206.177 41.8493 206.483 41.9652 206.746 42.1505C207.009 42.3358 207.221 42.5845 207.361 42.8734L209.603 47.4519C209.742 47.7347 209.949 47.9798 210.204 48.1665C210.459 48.3532 210.755 48.476 211.068 48.5245L216.076 49.2571C216.437 49.3125 216.776 49.4667 217.054 49.7025C217.332 49.9383 217.539 50.2464 217.652 50.5923C217.764 50.9383 217.778 51.3085 217.691 51.6618C217.604 52.015 217.421 52.3374 217.161 52.5928L213.539 56.1313C213.311 56.3531 213.141 56.6268 213.042 56.9286C212.944 57.2305 212.921 57.5517 212.974 57.8645L213.829 62.8616C213.889 63.2384 213.839 63.6248 213.682 63.9733C213.526 64.3218 213.271 64.6174 212.948 64.8238C213.253 64.8626 213.563 64.8299 213.853 64.7283C214.143 64.6266 214.406 64.4588 214.619 64.2382C214.832 64.0177 214.991 63.7505 215.082 63.4581C215.173 63.1657 215.194 62.8561 215.143 62.5542L214.289 57.5571C214.234 57.2448 214.257 56.924 214.354 56.6221C214.451 56.3203 214.62 56.0464 214.847 55.8239L218.469 52.2723Z" fill="#B90E15"/>
<path d="M185.542 52.2731C185.804 52.0179 185.989 51.6951 186.077 51.3409C186.165 50.9867 186.151 50.6152 186.039 50.268C185.926 49.9209 185.718 49.6119 185.439 49.3757C185.16 49.1395 184.82 48.9854 184.457 48.9309L179.449 48.2049C179.136 48.1563 178.84 48.0335 178.585 47.8468C178.33 47.6601 178.123 47.415 177.984 47.1322L175.742 42.6061C175.576 42.2863 175.325 42.0182 175.016 41.8311C174.707 41.6439 174.353 41.5449 173.991 41.5449C173.629 41.5449 173.275 41.6439 172.966 41.8311C172.657 42.0182 172.406 42.2863 172.239 42.6061L170.005 47.1518C169.864 47.4354 169.657 47.681 169.401 47.8678C169.145 48.0546 168.847 48.1769 168.533 48.2245L163.525 48.9505C163.163 49.006 162.824 49.1608 162.545 49.3974C162.267 49.634 162.06 49.9431 161.948 50.2901C161.836 50.6371 161.823 51.0083 161.911 51.362C162 51.7157 162.185 52.038 162.447 52.2927L166.068 55.8312C166.295 56.0537 166.464 56.3276 166.562 56.6295C166.659 56.9313 166.681 57.2522 166.627 57.5645L165.772 62.5615C165.714 62.9185 165.756 63.2846 165.894 63.6193C166.032 63.9539 166.26 64.2442 166.553 64.4581C166.846 64.6719 167.193 64.801 167.555 64.831C167.917 64.8611 168.28 64.791 168.605 64.6284L173.081 62.2672C173.362 62.1216 173.674 62.0456 173.991 62.0456C174.308 62.0456 174.62 62.1216 174.901 62.2672L179.377 64.6284C179.702 64.791 180.065 64.8611 180.427 64.831C180.789 64.801 181.136 64.6719 181.429 64.4581C181.722 64.2442 181.95 63.9539 182.088 63.6193C182.226 63.2846 182.268 62.9185 182.21 62.5615L181.355 57.5645C181.302 57.2516 181.325 56.9305 181.423 56.6286C181.522 56.3267 181.692 56.0531 181.92 55.8312L185.542 52.2731Z" fill="#D7282F"/>
<path d="M186.35 52.2723C186.612 52.0175 186.798 51.6952 186.886 51.3415C186.974 50.9878 186.961 50.6167 186.849 50.2697C186.738 49.9227 186.531 49.6136 186.252 49.377C185.974 49.1403 185.635 48.9856 185.273 48.93L180.265 48.204C179.95 48.1565 179.653 48.0341 179.396 47.8474C179.14 47.6606 178.933 47.415 178.792 47.1314L176.558 42.5856C176.434 42.3408 176.26 42.1246 176.046 41.9508C175.833 41.7771 175.586 41.6498 175.32 41.5771C175.054 41.5044 174.776 41.4879 174.504 41.5287C174.232 41.5694 173.971 41.6666 173.738 41.8138C174.059 41.8493 174.365 41.9652 174.628 42.1505C174.891 42.3358 175.103 42.5845 175.243 42.8734L177.484 47.4519C177.625 47.7355 177.832 47.9811 178.088 48.1679C178.345 48.3546 178.643 48.477 178.957 48.5245L183.958 49.2571C184.319 49.3125 184.658 49.4667 184.936 49.7025C185.214 49.9383 185.421 50.2464 185.533 50.5923C185.646 50.9383 185.66 51.3085 185.573 51.6618C185.486 52.015 185.303 52.3374 185.043 52.5928L181.421 56.1313C181.193 56.3531 181.023 56.6268 180.924 56.9286C180.826 57.2305 180.802 57.5517 180.856 57.8645L181.71 62.8616C181.772 63.2378 181.722 63.6237 181.567 63.9722C181.412 64.3206 181.158 64.6165 180.836 64.8238C181.141 64.8615 181.45 64.828 181.739 64.7258C182.029 64.6236 182.29 64.4557 182.503 64.2352C182.715 64.0148 182.873 63.7481 182.964 63.4562C183.054 63.1644 183.075 62.8555 183.025 62.5542L182.171 57.5571C182.116 57.2448 182.138 56.924 182.236 56.6221C182.333 56.3203 182.502 56.0464 182.729 55.8239L186.35 52.2723Z" fill="#B90E15"/>
<path d="M204.641 135.582C210.9 127.29 209.218 115.518 200.886 109.29C192.553 103.062 180.725 104.735 174.467 113.027C168.208 121.32 169.89 133.091 178.222 139.319C186.554 145.548 198.383 143.874 204.641 135.582Z" fill="#FC8F93"/>
<path d="M199.948 126.62C199.979 126.285 199.915 125.948 199.762 125.647C199.61 125.347 199.376 125.095 199.087 124.92C199.47 124.772 199.791 124.5 199.998 124.147C200.206 123.795 200.287 123.383 200.23 122.979C200.173 122.575 199.981 122.202 199.684 121.92C199.387 121.638 199.003 121.464 198.594 121.427H198.299L193.876 121.12C193.876 121.12 195.19 117.3 195.013 115.168C194.835 113.035 192.101 111.852 191.838 114.193C191.575 116.535 191.181 117.287 189.209 119.171C188.306 119.996 187.501 120.922 186.81 121.931C186.633 122.199 186.527 122.507 186.501 122.827L185.686 131.702C185.676 131.818 185.688 131.934 185.722 132.045C185.757 132.156 185.813 132.259 185.887 132.348C185.962 132.438 186.053 132.512 186.156 132.566C186.259 132.62 186.372 132.653 186.488 132.664L197.188 133.638H197.484C197.718 133.673 197.956 133.66 198.185 133.599C198.413 133.538 198.626 133.431 198.811 133.284C198.996 133.137 199.149 132.954 199.26 132.746C199.371 132.538 199.437 132.31 199.455 132.075C199.455 131.258 198.489 130.859 198.489 130.859C198.823 130.854 199.144 130.729 199.392 130.507C199.64 130.284 199.798 129.979 199.837 129.649C199.878 129.481 199.883 129.306 199.851 129.136C199.82 128.966 199.752 128.805 199.654 128.663C199.555 128.521 199.427 128.401 199.278 128.312C199.13 128.222 198.964 128.165 198.792 128.144C199.108 128.023 199.385 127.816 199.589 127.547C199.794 127.278 199.918 126.957 199.948 126.62Z" fill="white"/>
<path d="M179.59 119.864L178.678 129.95C178.621 130.582 179.089 131.141 179.724 131.198L183.602 131.545C184.237 131.602 184.798 131.136 184.856 130.503L185.768 120.418C185.825 119.786 185.356 119.227 184.721 119.17L180.843 118.823C180.208 118.766 179.647 119.232 179.59 119.864Z" fill="white"/>
<path d="M159.725 136.483H156.111V133.128C156.111 132.954 156.041 132.788 155.918 132.665C155.795 132.543 155.628 132.474 155.453 132.474C155.279 132.474 155.112 132.543 154.989 132.665C154.865 132.788 154.796 132.954 154.796 133.128V136.483H151.175C151 136.483 150.833 136.552 150.71 136.675C150.587 136.797 150.518 136.964 150.518 137.137C150.518 137.311 150.587 137.477 150.71 137.6C150.833 137.722 151 137.791 151.175 137.791H154.796V141.637C154.796 141.811 154.865 141.977 154.989 142.1C155.112 142.222 155.279 142.291 155.453 142.291C155.628 142.291 155.795 142.222 155.918 142.1C156.041 141.977 156.111 141.811 156.111 141.637V137.791H159.725C159.9 137.791 160.067 137.722 160.19 137.6C160.313 137.477 160.383 137.311 160.383 137.137C160.383 136.964 160.313 136.797 160.19 136.675C160.067 136.552 159.9 136.483 159.725 136.483Z" fill="#FC8F93"/>
<path d="M342.047 51.8602H338.669V48.7273C338.653 48.576 338.582 48.4359 338.468 48.334C338.355 48.2321 338.207 48.1758 338.055 48.1758C337.902 48.1758 337.754 48.2321 337.641 48.334C337.527 48.4359 337.456 48.576 337.44 48.7273V51.8602H334.062C333.91 51.8759 333.769 51.9471 333.667 52.06C333.564 52.173 333.508 52.3197 333.508 52.4718C333.508 52.6239 333.564 52.7706 333.667 52.8835C333.769 52.9965 333.91 53.0677 334.062 53.0833H337.44V56.6676C337.456 56.8189 337.527 56.959 337.641 57.0608C337.754 57.1627 337.902 57.2191 338.055 57.2191C338.207 57.2191 338.355 57.1627 338.468 57.0608C338.582 56.959 338.653 56.8189 338.669 56.6676V53.0702H342.047C342.199 53.0546 342.34 52.9834 342.442 52.8704C342.545 52.7575 342.601 52.6108 342.601 52.4587C342.601 52.3066 342.545 52.1599 342.442 52.047C342.34 51.934 342.199 51.8628 342.047 51.8471V51.8602Z" fill="#FC8F93"/>
<path d="M210.102 73.7587H206.724V70.6257C206.708 70.4744 206.637 70.3343 206.523 70.2325C206.41 70.1306 206.262 70.0742 206.109 70.0742C205.956 70.0742 205.809 70.1306 205.696 70.2325C205.582 70.3343 205.511 70.4744 205.495 70.6257V73.7587H202.117C201.965 73.7743 201.824 73.8455 201.722 73.9585C201.619 74.0714 201.562 74.2181 201.562 74.3702C201.562 74.5223 201.619 74.669 201.722 74.782C201.824 74.8949 201.965 74.9661 202.117 74.9818H205.495V78.5791C205.511 78.7304 205.582 78.8705 205.696 78.9724C205.809 79.0742 205.956 79.1306 206.109 79.1306C206.262 79.1306 206.41 79.0742 206.523 78.9724C206.637 78.8705 206.708 78.7304 206.724 78.5791V74.9818H210.102C210.254 74.9661 210.395 74.8949 210.497 74.782C210.599 74.669 210.656 74.5223 210.656 74.3702C210.656 74.2181 210.599 74.0714 210.497 73.9585C210.395 73.8455 210.254 73.7743 210.102 73.7587Z" fill="#FC8F93"/>
<path d="M313.313 143.907C313.288 143.629 313.342 143.349 313.468 143.099C313.595 142.849 313.789 142.64 314.029 142.495C313.71 142.373 313.441 142.147 313.267 141.854C313.093 141.561 313.024 141.218 313.071 140.881C313.118 140.544 313.279 140.233 313.527 139.998C313.775 139.764 314.096 139.62 314.437 139.59H314.68L318.36 139.335C318.36 139.335 317.289 136.157 317.414 134.384C317.539 132.612 319.832 131.631 320.043 133.573C320.253 135.516 320.562 136.144 322.231 137.713C322.973 138.402 323.635 139.172 324.203 140.009C324.347 140.234 324.435 140.489 324.459 140.755L325.117 148.133C325.133 148.325 325.074 148.515 324.951 148.665C324.828 148.814 324.652 148.909 324.459 148.93L315.62 149.715H315.376C315.181 149.746 314.98 149.735 314.789 149.685C314.597 149.634 314.418 149.545 314.263 149.422C314.108 149.299 313.98 149.145 313.888 148.97C313.796 148.796 313.741 148.604 313.727 148.407C313.727 147.72 314.535 147.387 314.535 147.387C314.257 147.386 313.99 147.283 313.783 147.099C313.575 146.914 313.443 146.661 313.411 146.386C313.377 146.246 313.372 146.101 313.398 145.959C313.424 145.818 313.48 145.683 313.562 145.565C313.644 145.446 313.75 145.346 313.874 145.271C313.997 145.196 314.135 145.148 314.279 145.13C314.02 145.035 313.793 144.87 313.623 144.654C313.452 144.438 313.345 144.18 313.313 143.907Z" fill="#FEDCDE"/>
<path d="M329.647 139.69L326.433 139.982C325.909 140.03 325.523 140.491 325.571 141.013L326.338 149.37C326.386 149.891 326.85 150.275 327.374 150.228L330.588 149.936C331.112 149.888 331.498 149.427 331.45 148.905L330.683 140.548C330.635 140.026 330.171 139.642 329.647 139.69Z" fill="#FEDCDE"/>
<path d="M265.854 130.571L262.292 132.121L260.741 135.66L259.184 132.121L255.628 130.571L259.184 129.021L260.741 125.482L262.463 128.857L265.854 130.571Z" fill="#FC8F93"/>
<path d="M298.894 95.3365L296.942 96.1868L296.087 98.1293L295.233 96.1868L293.274 95.3365L295.233 94.4862L296.087 92.5371L297.034 94.3947L298.894 95.3365Z" fill="#FC8F93"/>
<path d="M149.145 119.458L147.193 120.308L146.338 122.257L145.484 120.308L143.525 119.458L145.484 118.608L146.338 116.665L147.285 118.516L149.145 119.458Z" fill="white"/>
<path d="M199.087 154.359L195.525 155.909L193.974 159.448L192.416 155.909L188.86 154.359L192.416 152.816L193.974 149.271L195.696 152.645L199.087 154.359Z" fill="#FC8F93"/>
<path d="M342.113 98.2595L338.558 99.8096L337 103.348L335.449 99.8096L331.887 98.2595L335.449 96.7094L337 93.1709L338.722 96.5459L342.113 98.2595Z" fill="white"/>
</g>
<defs>
<clipPath id="clip0_2384_418">
<rect width="343" height="201" fill="white"/>
</clipPath>
</defs>
</svg>
