<svg width="14" height="14" viewBox="0 0 14 14" fill="none" xmlns="http://www.w3.org/2000/svg">
<path d="M10.3922 0.983395L13.0186 3.61049L13.4561 3.17229C13.6285 2.99984 13.7653 2.79511 13.8586 2.56979C13.952 2.34447 14 2.10298 14 1.85909C14 1.61521 13.952 1.37371 13.8586 1.1484C13.7653 0.923077 13.6285 0.718348 13.4561 0.545897C13.2836 0.373445 13.0789 0.236649 12.8536 0.143319C12.6282 0.0499894 12.3867 0.00195313 12.1429 0.00195312C11.6503 0.00195313 11.1779 0.197615 10.8297 0.545897L10.3922 0.983395ZM11.8125 4.81378L9.18607 2.18669L0.852597 10.5209L0 13.9999L3.47899 13.148L11.8125 4.81378Z" fill="white"/>
</svg>
