<svg width="94" height="53" viewBox="0 0 94 53" fill="none" xmlns="http://www.w3.org/2000/svg">
<path d="M46.939 28.6621C34.772 28.6621 24.873 38.5598 24.873 50.7264C24.873 51.5544 25.544 52.2264 26.373 52.2264H67.504C68.332 52.2264 69.004 51.5544 69.004 50.7264C69.004 38.5598 59.105 28.6621 46.939 28.6621ZM27.932 49.2265C28.7 39.4128 36.932 31.662 46.939 31.662C56.946 31.662 65.178 39.4128 65.945 49.2265H27.932Z" fill="black"/>
<path d="M46.579 26.6812C53.722 26.6812 59.533 20.8703 59.533 13.7275C59.533 6.58475 53.721 0.773926 46.579 0.773926C39.436 0.773926 33.625 6.58475 33.625 13.7275C33.625 20.8703 39.436 26.6812 46.579 26.6812ZM46.579 3.77384C52.067 3.77384 56.533 8.2387 56.533 13.7275C56.533 19.2154 52.067 23.6812 46.579 23.6812C41.09 23.6812 36.625 19.2164 36.625 13.7275C36.625 8.2387 41.09 3.77384 46.579 3.77384Z" fill="black"/>
<path d="M17.6132 36.9389C20.0742 36.9389 22.4912 37.5949 24.6032 38.8368C25.3172 39.2588 26.2372 39.0178 26.6562 38.3048C27.0762 37.5909 26.8382 36.6709 26.1232 36.2509C23.5512 34.7379 20.6082 33.939 17.6132 33.939C8.3562 33.939 0.825195 41.4697 0.825195 50.7265C0.825195 51.5544 1.4962 52.2264 2.3252 52.2264H21.3372C22.1662 52.2264 22.8372 51.5544 22.8372 50.7265C22.8372 49.8985 22.1662 49.2265 21.3372 49.2265H3.9062C4.6562 42.3267 10.5172 36.9389 17.6132 36.9389Z" fill="black"/>
<path d="M17.347 31.544C22.868 31.544 27.361 27.0521 27.361 21.5303C27.361 16.0085 22.869 11.5166 17.347 11.5166C11.825 11.5166 7.33301 16.0085 7.33301 21.5303C7.33301 27.0511 11.825 31.544 17.347 31.544ZM17.347 14.5165C21.214 14.5165 24.361 17.6624 24.361 21.5303C24.361 25.3972 21.215 28.5441 17.347 28.5441C13.479 28.5441 10.333 25.3982 10.333 21.5303C10.333 17.6624 13.479 14.5165 17.347 14.5165Z" fill="black"/>
<path d="M76.3861 33.939C73.3921 33.939 70.4491 34.7389 67.8761 36.2509C67.1611 36.6709 66.9231 37.5899 67.3431 38.3038C67.7631 39.0198 68.6851 39.2568 69.3961 38.8368C71.5091 37.5949 73.9261 36.9389 76.3861 36.9389C83.4821 36.9389 89.3431 42.3267 90.0931 49.2265H72.6651C71.8371 49.2265 71.1651 49.8985 71.1651 50.7265C71.1651 51.5544 71.8371 52.2264 72.6651 52.2264H91.6741C92.5021 52.2264 93.1741 51.5544 93.1741 50.7265C93.1741 41.4697 85.6431 33.939 76.3861 33.939Z" fill="black"/>
<path d="M76.6537 31.544C82.1747 31.544 86.6677 27.0521 86.6677 21.5303C86.6677 16.0085 82.1757 11.5166 76.6537 11.5166C71.1317 11.5166 66.6387 16.0085 66.6387 21.5303C66.6397 27.0511 71.1317 31.544 76.6537 31.544ZM76.6537 14.5165C80.5207 14.5165 83.6677 17.6624 83.6677 21.5303C83.6677 25.3972 80.5217 28.5441 76.6537 28.5441C72.7857 28.5441 69.6387 25.3982 69.6387 21.5303C69.6397 17.6624 72.7857 14.5165 76.6537 14.5165Z" fill="black"/>
</svg>
