<svg width="26" height="26" viewBox="0 0 26 26" fill="none" xmlns="http://www.w3.org/2000/svg">
<path d="M13.9186 13.1466C12.7599 12.1638 11.284 11.6226 9.76304 11.6226C6.21802 11.6226 3.33398 14.5066 3.33398 18.0516V19.3996C3.33398 20.6024 4.18774 21.6325 5.36729 21.8573H14.1588C15.3383 21.6325 16.1921 20.6024 16.1921 19.3996V18.4616V18.0516C16.192 16.1597 15.3634 14.3719 13.9186 13.1466Z" fill="#231F20"/>
<path d="M20.6483 7.99726C20.6628 6.6639 19.5937 5.57122 18.2604 5.55668C16.927 5.54215 15.8343 6.61127 15.8198 7.94463C15.8052 9.27799 16.8744 10.3707 18.2077 10.3852C19.5411 10.3997 20.6338 9.33062 20.6483 7.99726Z" fill="#231F20"/>
<path d="M9.76299 11.1343C11.6354 11.1343 13.1587 9.61098 13.1587 7.73857C13.1587 5.86616 11.6354 4.34277 9.76299 4.34277C7.89053 4.34277 6.36719 5.86611 6.36719 7.73852C6.36719 9.61094 7.89053 11.1343 9.76299 11.1343Z" fill="#231F20"/>
<path d="M18.2352 10.8735C16.68 10.8735 15.2597 11.633 14.3958 12.9154C14.4189 12.9364 14.4416 12.9578 14.4644 12.979C14.4843 12.9975 14.5045 13.0158 14.5243 13.0345C14.5518 13.0605 14.5786 13.0871 14.6056 13.1135C14.6229 13.1305 14.6405 13.1472 14.6576 13.1643C14.6904 13.1973 14.7227 13.2307 14.7548 13.2642C14.7654 13.2753 14.7764 13.2861 14.787 13.2973C14.8295 13.3423 14.8715 13.3877 14.9127 13.4338C14.9211 13.4431 14.9291 13.4526 14.9374 13.4619C14.9701 13.4988 15.0027 13.5357 15.0346 13.5732C15.0478 13.5888 15.0606 13.6047 15.0737 13.6204C15.1001 13.652 15.1265 13.6835 15.1522 13.7155C15.1669 13.7337 15.1811 13.7522 15.1956 13.7706C15.2192 13.8005 15.2429 13.8304 15.266 13.8606C15.281 13.8803 15.2955 13.9004 15.3103 13.9202C15.3322 13.9496 15.3541 13.9788 15.3755 14.0085C15.3906 14.0293 15.4051 14.0504 15.4199 14.0714C15.4404 14.1005 15.461 14.1295 15.481 14.159C15.4958 14.1806 15.5101 14.2026 15.5246 14.2244C15.544 14.2535 15.5635 14.2826 15.5824 14.3121C15.5968 14.3344 15.6107 14.3569 15.6248 14.3794C15.6432 14.4087 15.6616 14.438 15.6795 14.4677C15.6934 14.4906 15.707 14.5137 15.7206 14.5367C15.738 14.5662 15.7555 14.5958 15.7725 14.6255C15.7858 14.649 15.7989 14.6727 15.8121 14.6963C15.8286 14.726 15.845 14.7558 15.8611 14.7858C15.874 14.8098 15.8865 14.8339 15.8991 14.858C15.9146 14.888 15.9302 14.918 15.9454 14.9482C15.9577 14.9727 15.9696 14.9973 15.9816 15.0218C15.9964 15.0521 16.011 15.0823 16.0253 15.1128C16.037 15.1377 16.0485 15.1626 16.0599 15.1877C16.0737 15.2182 16.0874 15.2487 16.1008 15.2794C16.112 15.3047 16.1228 15.3301 16.1336 15.3556C16.1466 15.3863 16.1594 15.4171 16.172 15.4481C16.1824 15.4737 16.1926 15.4994 16.2027 15.5251C16.2149 15.5563 16.2269 15.5874 16.2387 15.6187C16.2484 15.6446 16.258 15.6706 16.2674 15.6966C16.2788 15.728 16.2898 15.7594 16.3008 15.7909C16.3098 15.8172 16.3188 15.8436 16.3276 15.8699C16.3381 15.9015 16.3483 15.9333 16.3583 15.9649C16.3667 15.9915 16.3751 16.0181 16.3832 16.0447C16.3928 16.0766 16.4021 16.1086 16.4113 16.1407C16.419 16.1675 16.4267 16.1943 16.4341 16.2211C16.4429 16.2533 16.4514 16.2856 16.4597 16.3179C16.4667 16.3449 16.4737 16.3719 16.4803 16.399C16.4883 16.4314 16.4959 16.4641 16.5034 16.4967C16.5097 16.5239 16.516 16.551 16.5219 16.5783C16.5291 16.6111 16.5357 16.644 16.5424 16.677C16.5479 16.7042 16.5536 16.7314 16.5587 16.7588C16.565 16.7921 16.5708 16.8255 16.5767 16.859C16.5814 16.8862 16.5863 16.9133 16.5907 16.9405C16.5962 16.9744 16.6011 17.0084 16.6061 17.0423C16.6101 17.0694 16.6143 17.0963 16.6179 17.1234C16.6226 17.158 16.6266 17.1926 16.6307 17.2271C16.6339 17.2539 16.6374 17.2806 16.6403 17.3074C16.6441 17.3429 16.6472 17.3786 16.6505 17.4142C16.6529 17.4402 16.6556 17.4662 16.6577 17.4924C16.6607 17.5296 16.663 17.567 16.6654 17.6044C16.6669 17.629 16.6689 17.6535 16.6703 17.6781C16.6725 17.7195 16.6738 17.7609 16.6753 17.8023C16.6761 17.8231 16.6772 17.8438 16.6778 17.8646C16.6794 17.9269 16.6804 17.9894 16.6804 18.0519V18.2177H21.4396C22.267 18.057 22.8653 17.3331 22.8653 16.4883V15.5036C22.8653 12.9506 20.7882 10.8735 18.2352 10.8735Z" fill="#231F20"/>
</svg>
