<svg width="20" height="18" viewBox="0 0 20 18" fill="none" xmlns="http://www.w3.org/2000/svg">
<path d="M10.9186 9.14663C9.75986 8.16382 8.28403 7.62256 6.76304 7.62256C3.21802 7.62256 0.333984 10.5066 0.333984 14.0516V15.3996C0.333984 16.6024 1.18774 17.6325 2.36729 17.8573H11.1588C12.3383 17.6325 13.1921 16.6024 13.1921 15.3996V14.4616V14.0516C13.192 12.1597 12.3634 10.3719 10.9186 9.14663Z" fill="#231F20"/>
<path d="M17.6483 3.99726C17.6628 2.6639 16.5937 1.57122 15.2604 1.55668C13.927 1.54215 12.8343 2.61127 12.8198 3.94463C12.8052 5.27799 13.8744 6.37067 15.2077 6.3852C16.5411 6.39974 17.6338 5.33062 17.6483 3.99726Z" fill="#231F20"/>
<path d="M6.76299 7.13432C8.6354 7.13432 10.1587 5.61098 10.1587 3.73857C10.1587 1.86616 8.6354 0.342773 6.76299 0.342773C4.89053 0.342773 3.36719 1.86611 3.36719 3.73852C3.36719 5.61094 4.89053 7.13432 6.76299 7.13432Z" fill="#231F20"/>
<path d="M15.235 6.87354C13.6797 6.87354 12.2594 7.63296 11.3955 8.91543C11.4187 8.93638 11.4413 8.95781 11.4642 8.979C11.4841 8.99751 11.5043 9.01577 11.524 9.03447C11.5515 9.06055 11.5783 9.08711 11.6053 9.11353C11.6226 9.13052 11.6402 9.14717 11.6573 9.16431C11.6902 9.19727 11.7224 9.23067 11.7545 9.26421C11.7652 9.27529 11.7761 9.28613 11.7867 9.29731C11.8293 9.34229 11.8713 9.38775 11.9125 9.43379C11.9208 9.44307 11.9289 9.45264 11.9372 9.46191C11.9699 9.49878 12.0024 9.53574 12.0343 9.57324C12.0476 9.58877 12.0604 9.60474 12.0735 9.62041C12.0999 9.652 12.1263 9.68355 12.152 9.71548C12.1667 9.73369 12.1809 9.75225 12.1954 9.77061C12.2189 9.80049 12.2427 9.83037 12.2657 9.86065C12.2808 9.88032 12.2953 9.90039 12.3101 9.92022C12.3319 9.94956 12.3539 9.97881 12.3753 10.0085C12.3903 10.0293 12.4048 10.0504 12.4196 10.0714C12.4401 10.1005 12.4607 10.1295 12.4808 10.159C12.4956 10.1806 12.5099 10.2026 12.5244 10.2244C12.5437 10.2535 12.5632 10.2826 12.5822 10.3121C12.5965 10.3344 12.6104 10.3569 12.6246 10.3794C12.643 10.4087 12.6614 10.438 12.6793 10.4677C12.6932 10.4906 12.7067 10.5137 12.7203 10.5367C12.7377 10.5662 12.7552 10.5958 12.7722 10.6255C12.7856 10.649 12.7987 10.6727 12.8118 10.6963C12.8283 10.726 12.8448 10.7558 12.8608 10.7858C12.8737 10.8098 12.8863 10.8339 12.8988 10.858C12.9144 10.888 12.93 10.918 12.9451 10.9482C12.9574 10.9727 12.9694 10.9973 12.9814 11.0218C12.9961 11.0521 13.0108 11.0823 13.0251 11.1128C13.0368 11.1377 13.0482 11.1626 13.0596 11.1877C13.0734 11.2182 13.0872 11.2487 13.1006 11.2794C13.1117 11.3047 13.1226 11.3301 13.1334 11.3556C13.1464 11.3863 13.1592 11.4171 13.1717 11.4481C13.1822 11.4737 13.1924 11.4994 13.2025 11.5251C13.2147 11.5563 13.2267 11.5874 13.2384 11.6187C13.2481 11.6446 13.2578 11.6706 13.2672 11.6966C13.2785 11.728 13.2896 11.7594 13.3005 11.7909C13.3096 11.8172 13.3186 11.8436 13.3274 11.8699C13.3379 11.9015 13.348 11.9333 13.3581 11.9649C13.3665 11.9915 13.3749 12.0181 13.3829 12.0447C13.3926 12.0766 13.4019 12.1086 13.4111 12.1407C13.4188 12.1675 13.4265 12.1943 13.4339 12.2211C13.4427 12.2533 13.4511 12.2856 13.4594 12.3179C13.4665 12.3449 13.4734 12.3719 13.4801 12.399C13.4881 12.4314 13.4956 12.4641 13.5031 12.4967C13.5094 12.5239 13.5157 12.551 13.5217 12.5783C13.5289 12.6111 13.5354 12.644 13.5421 12.677C13.5476 12.7042 13.5533 12.7314 13.5584 12.7588C13.5648 12.7921 13.5706 12.8255 13.5764 12.859C13.5812 12.8862 13.586 12.9133 13.5905 12.9405C13.5959 12.9744 13.6009 13.0084 13.6059 13.0423C13.6098 13.0694 13.614 13.0963 13.6177 13.1234C13.6223 13.158 13.6263 13.1926 13.6305 13.2271C13.6336 13.2539 13.6372 13.2806 13.64 13.3074C13.6438 13.3429 13.647 13.3786 13.6502 13.4142C13.6527 13.4402 13.6554 13.4662 13.6575 13.4924C13.6605 13.5296 13.6627 13.567 13.6651 13.6044C13.6667 13.629 13.6687 13.6535 13.67 13.6781C13.6722 13.7195 13.6736 13.7609 13.6751 13.8023C13.6758 13.8231 13.677 13.8438 13.6775 13.8646C13.6792 13.9269 13.6801 13.9894 13.6801 14.0519V14.2177H18.4394C19.2667 14.057 19.865 13.3331 19.865 12.4883V11.5036C19.865 8.95059 17.788 6.87354 15.235 6.87354Z" fill="#231F20"/>
</svg>
