<svg width="20" height="20" viewBox="0 0 75 75" fill="none" xmlns="http://www.w3.org/2000/svg">
<path d="M14.5385 0C6.5091 0 0 6.50912 0 14.5385V39.4615C0 47.4909 6.5091 54 14.5385 54H16.5992V45.6923H14.5385C11.0973 45.6923 8.30772 42.9026 8.30772 39.4615V14.5385C8.30772 11.0973 11.0973 8.30769 14.5385 8.30769H39.4615C42.903 8.30769 45.6923 11.0973 45.6923 14.5385V39.4615C45.6923 42.9026 42.903 45.6923 39.4615 45.6923H33.2029V54H39.4615C47.4909 54 54 47.4909 54 39.4615V14.5385C54 6.50912 47.4909 0 39.4615 0H14.5385Z" fill="#666666"/>
<path d="M29.3077 35.5385C29.3077 32.0974 32.0974 29.3077 35.5385 29.3077H41.7642V21H35.5385C27.5091 21 21 27.5091 21 35.5385V60.4615C21 68.4909 27.5091 75 35.5385 75H60.4615C68.4909 75 75 68.4909 75 60.4615V35.5385C75 27.5091 68.4909 21 60.4615 21H58.405V29.3077H60.4615C63.9026 29.3077 66.6923 32.0974 66.6923 35.5385V60.4615C66.6923 63.9026 63.9026 66.6923 60.4615 66.6923H35.5385C32.0974 66.6923 29.3077 63.9026 29.3077 60.4615V35.5385Z" fill="#666666"/>
</svg>
