<svg width="22" height="18" viewBox="0 0 22 18" fill="none" xmlns="http://www.w3.org/2000/svg">
<path d="M13.1003 11.5766L13.1002 11.5765C11.8822 10.0651 10.0754 9.19912 8.14182 9.19912C4.62937 9.19912 1.77135 12.0571 1.77135 15.5696C1.77135 15.9316 2.06632 16.2266 2.42836 16.2266H13.771C14.0392 16.2266 14.2567 16.4441 14.2567 16.7123C14.2567 16.9804 14.0392 17.198 13.771 17.198H2.42836C1.53031 17.198 0.8 16.4677 0.8 15.5696C0.8 12.2888 2.96327 9.50621 5.93698 8.56754C4.74211 7.82762 3.94212 6.50695 3.94212 4.99942C3.94212 2.68357 5.82568 0.8 8.14153 0.8C10.4574 0.8 12.341 2.68357 12.341 4.99942C12.341 6.50649 11.5416 7.82675 10.3473 8.56688C11.7108 8.99572 12.9317 9.81953 13.8564 10.9669L13.1003 11.5766ZM13.1003 11.5766C13.2683 11.785 13.5745 11.8181 13.7831 11.6499L13.7832 11.6498M13.1003 11.5766L13.7832 11.6498M13.7832 11.6498C13.9917 11.4815 14.025 11.176 13.8564 10.967L13.7832 11.6498ZM4.91375 4.9997C4.91375 3.21986 6.36198 1.77163 8.14182 1.77163C9.92166 1.77163 11.3699 3.21986 11.3699 4.9997C11.3699 6.77954 9.92166 8.22778 8.14182 8.22778C6.36198 8.22778 4.91375 6.77954 4.91375 4.9997Z" fill="white" stroke="white" stroke-width="0.4"/>
<path d="M14.798 13.8572C14.798 15.7003 16.2974 17.1996 18.1404 17.1996C19.9835 17.1996 21.4828 15.7003 21.4828 13.8572C21.4828 12.0142 19.9835 10.5148 18.1404 10.5148C16.2974 10.5148 14.798 12.0142 14.798 13.8572ZM15.7694 13.8572C15.7694 12.5502 16.8334 11.4862 18.1404 11.4862C19.4475 11.4862 20.5115 12.5502 20.5115 13.8572C20.5115 15.1643 19.4475 16.2283 18.1404 16.2283C16.8334 16.2283 15.7694 15.1643 15.7694 13.8572Z" fill="white" stroke="white" stroke-width="0.4"/>
<path d="M19.282 13.5704H18.425V12.7134C18.425 12.5557 18.297 12.4277 18.1393 12.4277C17.9816 12.4277 17.8536 12.5557 17.8536 12.7134V13.5704H16.9966C16.8389 13.5704 16.7109 13.6984 16.7109 13.8561C16.7109 14.0138 16.8389 14.1418 16.9966 14.1418H17.8536V14.9988C17.8536 15.1565 17.9816 15.2845 18.1393 15.2845C18.297 15.2845 18.425 15.1565 18.425 14.9988V14.1418H19.282C19.4397 14.1418 19.5677 14.0138 19.5677 13.8561C19.5677 13.6984 19.4397 13.5704 19.282 13.5704Z" fill="white" stroke="white" stroke-width="0.4"/>
</svg>
