<svg width="441" height="436" viewBox="0 0 441 436" fill="none" xmlns="http://www.w3.org/2000/svg">
<g clip-path="url(#clip0_6827_60905)">
<path d="M375.82 222.339C462.16 271.189 462.61 350.339 376.82 399.229C291.03 448.119 151.52 448.069 65.18 399.229C-21.16 350.389 -21.62 271.229 64.18 222.339C149.98 173.449 289.5 173.489 375.82 222.339Z" fill="#FFF7F7"/>
<path d="M93.44 8.09943C88.77 10.7994 84.73 16.2294 82.79 21.8694C81.5557 22.0079 80.3673 22.4177 79.31 23.0694L78.56 23.5294C74.3418 26.6262 71.4772 31.2275 70.56 36.3794C70.3332 37.7031 70.3332 39.0557 70.56 40.3794C70.5711 40.5067 70.5471 40.6345 70.4907 40.7491C70.4343 40.8636 70.3476 40.9606 70.24 41.0294L65.4 43.7994C64.2947 44.521 63.3747 45.4927 62.7145 46.6358C62.0544 47.7789 61.6726 49.0614 61.6 50.3794C61.6 52.7994 63.32 53.7794 65.43 52.5594L112.55 25.3494C113.659 24.632 114.582 23.6613 115.243 22.5173C115.904 21.3733 116.283 20.0888 116.35 18.7694C116.35 16.3494 114.63 15.3794 112.53 16.5994L104.81 21.0494C104.57 21.1894 104.41 21.0494 104.5 20.7094C105.208 18.4645 105.499 16.1091 105.36 13.7594C104.85 7.37943 100.13 4.75943 94.36 7.62943C94.03 7.76943 93.73 7.92943 93.44 8.09943Z" fill="#DCFDFF"/>
<path d="M56.61 2.09935C53.1472 4.33841 50.5538 7.69392 49.26 11.6094C48.4094 11.7026 47.5899 11.9826 46.86 12.4294C46.6809 12.5299 46.5073 12.64 46.34 12.7594C43.4207 14.8912 41.4391 18.0696 40.81 21.6294C40.6548 22.5395 40.6548 23.4693 40.81 24.3794C40.8183 24.4673 40.8022 24.5559 40.7634 24.6353C40.7245 24.7147 40.6646 24.7819 40.59 24.8293L37.26 26.7494C36.4976 27.2473 35.8631 27.9178 35.4079 28.7065C34.9527 29.4952 34.6897 30.3801 34.64 31.2893C34.64 32.9593 35.83 33.6293 37.28 32.7893L69.8 14.0094C70.5625 13.5114 71.197 12.8409 71.6521 12.0522C72.1073 11.2635 72.3704 10.3786 72.42 9.46935C72.42 7.79935 71.23 7.12935 69.78 7.96935L64.5 11.0394C64.34 11.1394 64.23 11.0394 64.29 10.8094C64.7786 9.2589 64.9786 7.63197 64.88 6.00935C64.53 1.60935 61.27 -0.200646 57.27 1.77935C57.01 1.87935 56.81 1.98935 56.61 2.09935Z" fill="#DCFDFF"/>
<path d="M77.77 334.779L91.64 343.079C92.6968 343.715 93.9068 344.051 95.14 344.051C96.3733 344.051 97.5832 343.715 98.64 343.079L211.41 275.549C211.762 275.334 212.052 275.032 212.254 274.672C212.455 274.312 212.561 273.907 212.561 273.494C212.561 273.082 212.455 272.676 212.254 272.317C212.052 271.957 211.762 271.655 211.41 271.439L197.5 263.139C196.443 262.504 195.233 262.168 194 262.168C192.767 262.168 191.557 262.504 190.5 263.139L77.77 330.699C77.425 330.916 77.1407 331.217 76.9436 331.574C76.7466 331.931 76.6432 332.332 76.6432 332.739C76.6432 333.147 76.7466 333.548 76.9436 333.905C77.1407 334.261 77.425 334.562 77.77 334.779Z" fill="#E0E0E0"/>
<path d="M340.26 314.459C363.56 327.919 363.69 349.729 340.54 363.179C317.39 376.629 279.73 376.639 256.43 363.179C233.13 349.719 233 327.919 256.15 314.459C279.3 300.999 316.96 301.009 340.26 314.459Z" fill="#E0E0E0"/>
<path d="M63.68 261.179C61.11 258.719 58.16 256.029 57.98 252.469C57.99 250.878 58.4856 249.327 59.4005 248.024C60.3154 246.721 61.6061 245.729 63.1 245.179C64.6068 244.671 66.2005 244.471 67.7862 244.591C69.3719 244.711 70.9172 245.149 72.33 245.879C75.1457 247.363 77.6535 249.369 79.72 251.789C85.9456 258.708 90.4522 266.996 92.8743 275.983C95.2963 284.969 95.5655 294.4 93.66 303.509C93.4 304.709 93 306.039 91.92 306.609C90.2 307.519 88.24 305.919 87.06 304.369C84.5012 300.971 82.5677 297.145 81.35 293.069C80.35 289.619 80.79 285.819 79.49 282.569C76.31 274.599 69.8 267.029 63.68 261.179Z" fill="#BA68C8"/>
<path d="M63.68 261.179C61.11 258.719 58.16 256.029 57.98 252.469C57.99 250.878 58.4856 249.327 59.4005 248.024C60.3154 246.721 61.6061 245.729 63.1 245.179C64.6068 244.671 66.2005 244.471 67.7862 244.591C69.3719 244.711 70.9172 245.149 72.33 245.879C75.1457 247.363 77.6535 249.369 79.72 251.789C85.9456 258.708 90.4522 266.996 92.8743 275.983C95.2963 284.969 95.5655 294.4 93.66 303.509C93.4 304.709 93 306.039 91.92 306.609C90.2 307.519 88.24 305.919 87.06 304.369C84.5012 300.971 82.5677 297.145 81.35 293.069C80.35 289.619 80.79 285.819 79.49 282.569C76.31 274.599 69.8 267.029 63.68 261.179Z" fill="#FC8F93"/>
<path d="M90.42 301.959C90.3299 301.959 90.2406 301.941 90.1575 301.907C90.0743 301.872 89.9989 301.821 89.9356 301.757C89.8724 301.692 89.8225 301.616 89.7889 301.532C89.7553 301.449 89.7387 301.359 89.74 301.269C89.658 291.29 87.3558 281.455 83.0005 272.476C78.6453 263.498 72.3461 255.601 64.56 249.359C64.4851 249.302 64.4224 249.231 64.3756 249.15C64.3288 249.068 64.299 248.978 64.2878 248.885C64.2766 248.791 64.2843 248.697 64.3104 248.606C64.3366 248.516 64.3807 248.432 64.44 248.359C64.4984 248.286 64.5705 248.225 64.6524 248.18C64.7343 248.135 64.8243 248.107 64.9172 248.097C65.0101 248.086 65.1041 248.095 65.1938 248.121C65.2836 248.147 65.3672 248.191 65.44 248.249C73.3892 254.622 79.8198 262.685 84.2651 271.852C88.7104 281.019 91.0588 291.061 91.14 301.249C91.1429 301.344 91.1261 301.439 91.0908 301.527C91.0555 301.615 91.0024 301.695 90.9348 301.761C90.8672 301.828 90.7866 301.88 90.6981 301.914C90.6095 301.948 90.5148 301.963 90.42 301.959Z" fill="white"/>
<path d="M81.99 329.239C77.66 330.629 72.23 329.719 69.72 325.919C66.72 321.459 68.61 314.579 64.66 310.919C62.45 308.919 59.2 308.699 56.27 308.099C53.34 307.499 50.09 305.869 49.65 302.909C49.07 298.989 53.89 295.729 53.22 291.819C52.55 287.909 47.22 286.759 45.65 283.179C44.22 279.919 46.75 275.969 50.11 274.749C53.47 273.529 57.2 274.369 60.54 275.609C63.88 276.849 67.13 278.489 70.67 278.929C74.21 279.369 78.61 278.659 81.31 281.189C84.93 284.569 82.86 291.019 85.65 295.099C87.53 297.839 91.06 298.789 93.76 300.709C95.4383 301.928 96.8005 303.531 97.7329 305.384C98.6654 307.236 99.141 309.285 99.12 311.359C99.03 315.849 96.67 319.099 93.27 321.679C89.67 324.479 86.5 327.799 81.99 329.239Z" fill="#FC8F93"/>
<path d="M80.04 298.529L79.99 298.459C79.34 297.519 78.67 296.589 77.99 295.699C71.5816 287.76 62.89 281.979 53.09 279.139C53.0006 279.104 52.9047 279.088 52.8086 279.092C52.7124 279.095 52.6182 279.119 52.5319 279.162C52.4455 279.204 52.369 279.264 52.3073 279.338C52.2455 279.412 52.1998 279.498 52.1732 279.59C52.1466 279.683 52.1396 279.78 52.1527 279.875C52.1658 279.97 52.1987 280.062 52.2492 280.144C52.2998 280.225 52.3669 280.296 52.4462 280.35C52.5256 280.405 52.6155 280.442 52.71 280.459C62.2388 283.219 70.6899 288.839 76.92 296.559C77.11 296.799 77.28 297.069 77.47 297.309C69.71 294.459 61.79 296.079 57.57 299.479C57.4942 299.536 57.4309 299.608 57.3843 299.69C57.3376 299.772 57.3087 299.863 57.2993 299.957C57.2899 300.051 57.3002 300.146 57.3296 300.236C57.359 300.326 57.4068 300.409 57.47 300.479C57.5257 300.556 57.5968 300.62 57.6787 300.668C57.7606 300.715 57.8516 300.745 57.9457 300.756C58.0399 300.766 58.1351 300.756 58.2254 300.728C58.3157 300.699 58.399 300.652 58.47 300.589C62.65 297.219 71.28 295.719 79.1 299.509C83.9647 306.689 86.8106 315.043 87.34 323.699C87.3503 323.873 87.4264 324.036 87.5528 324.155C87.6793 324.274 87.8464 324.34 88.02 324.339C88.1103 324.336 88.1988 324.314 88.2805 324.275C88.3622 324.237 88.4355 324.183 88.496 324.116C88.5565 324.049 88.6031 323.97 88.6329 323.885C88.6628 323.8 88.6754 323.71 88.67 323.619C88.1152 314.63 85.1327 305.958 80.04 298.529Z" fill="white"/>
<path d="M345.21 283.099C347.3 281.099 349.69 278.919 349.83 276.039C349.825 274.748 349.424 273.49 348.682 272.433C347.94 271.377 346.893 270.573 345.68 270.129C344.458 269.714 343.164 269.55 341.877 269.648C340.589 269.746 339.335 270.104 338.19 270.699C335.902 271.898 333.866 273.524 332.19 275.489C327.129 281.104 323.466 287.835 321.499 295.133C319.532 302.432 319.317 310.092 320.87 317.489C320.917 317.986 321.067 318.466 321.312 318.901C321.556 319.335 321.89 319.713 322.29 320.009C323.69 320.749 325.29 319.449 326.23 318.189C328.31 315.431 329.878 312.322 330.86 309.009C331.7 306.219 331.32 303.129 332.37 300.499C334.96 293.999 340.24 287.849 345.21 283.099Z" fill="#FC8F93"/>
<path d="M323.5 316.189C323.649 316.189 323.791 316.13 323.896 316.025C324.001 315.92 324.06 315.778 324.06 315.629C324.128 307.532 325.997 299.551 329.533 292.266C333.068 284.98 338.181 278.573 344.5 273.509C344.595 273.412 344.65 273.283 344.657 273.147C344.664 273.012 344.621 272.878 344.536 272.772C344.452 272.665 344.332 272.593 344.198 272.569C344.065 272.545 343.927 272.57 343.81 272.639C337.362 277.811 332.146 284.352 328.539 291.79C324.933 299.227 323.027 307.374 322.96 315.639C322.962 315.783 323.02 315.92 323.12 316.022C323.221 316.124 323.357 316.184 323.5 316.189Z" fill="white"/>
<path d="M330.35 338.319C333.87 339.449 338.28 338.709 340.35 335.629C342.74 332.009 341.25 326.429 344.45 323.499C346.25 321.869 348.88 321.699 351.26 321.209C353.64 320.719 356.26 319.409 356.63 317.009C357.1 313.819 353.19 311.179 353.74 308.009C354.29 304.839 358.6 303.909 359.88 301.009C361.04 298.359 358.98 295.149 356.26 294.169C353.54 293.189 350.51 293.859 347.8 294.859C345.09 295.859 342.45 297.199 339.58 297.549C336.71 297.899 333.14 297.329 330.95 299.389C328.01 302.129 329.69 307.389 327.42 310.679C325.9 312.899 323.04 313.679 320.85 315.219C319.486 316.208 318.379 317.51 317.622 319.015C316.865 320.52 316.48 322.185 316.5 323.869C316.57 327.509 318.5 330.139 321.24 332.239C324.13 334.459 326.74 337.159 330.35 338.319Z" fill="#FC8F93"/>
<path d="M331.94 313.409V313.349C332.47 312.589 333.01 311.839 333.59 311.119C338.797 304.672 345.864 299.986 353.83 297.699C353.9 297.678 353.973 297.671 354.045 297.679C354.117 297.687 354.188 297.709 354.251 297.744C354.315 297.78 354.37 297.828 354.415 297.885C354.459 297.943 354.492 298.009 354.51 298.079C354.531 298.15 354.538 298.223 354.531 298.296C354.523 298.369 354.501 298.44 354.466 298.504C354.43 298.569 354.382 298.625 354.325 298.671C354.267 298.716 354.201 298.75 354.13 298.769C346.404 300.999 339.551 305.552 334.5 311.809C334.34 312.009 334.2 312.219 334.05 312.419C340.34 310.099 346.76 311.419 350.19 314.179C350.282 314.251 350.349 314.351 350.381 314.463C350.414 314.575 350.411 314.694 350.372 314.804C350.334 314.914 350.262 315.01 350.166 315.077C350.071 315.144 349.957 315.18 349.84 315.179C349.711 315.18 349.587 315.134 349.49 315.049C346.1 312.319 339.1 311.109 332.75 314.179C328.786 320.008 326.462 326.795 326.02 333.829C326.01 333.971 325.946 334.103 325.843 334.2C325.739 334.296 325.602 334.35 325.46 334.349C325.387 334.345 325.315 334.327 325.249 334.295C325.183 334.263 325.124 334.219 325.076 334.164C325.027 334.109 324.991 334.045 324.967 333.975C324.944 333.906 324.935 333.832 324.94 333.759C325.387 326.467 327.806 319.433 331.94 313.409Z" fill="white"/>
<path d="M251.5 66.8593C251.96 66.5893 252.33 66.8593 252.33 67.3393V72.9493C252.314 73.2363 252.231 73.5154 252.087 73.764C251.943 74.0125 251.741 74.2234 251.5 74.3793C251.04 74.6493 250.67 74.3793 250.67 73.9093V68.2993C250.686 68.011 250.769 67.7304 250.913 67.4802C251.057 67.2301 251.258 67.0174 251.5 66.8593Z" fill="#FF5B62"/>
<path d="M240.83 77.5194C240.924 77.4554 241.036 77.4211 241.15 77.4211C241.264 77.4211 241.376 77.4554 241.47 77.5194L244.62 79.9994C244.92 80.2394 244.87 80.8694 244.52 81.4094C244.389 81.6263 244.207 81.8082 243.99 81.9394C243.896 82.0048 243.784 82.0399 243.67 82.0399C243.556 82.0399 243.444 82.0048 243.35 81.9394L240.2 79.4594C239.9 79.2194 239.94 78.5894 240.3 78.0494C240.433 77.8335 240.614 77.6519 240.83 77.5194Z" fill="#FF5B62"/>
<path d="M237.13 84.7594C237.246 84.7075 237.374 84.6868 237.5 84.6994L241.74 85.0694C242.14 85.0694 242.28 85.6094 242.05 86.1994C241.909 86.564 241.657 86.8753 241.33 87.0894C241.205 87.1696 241.058 87.2081 240.91 87.1994L236.67 86.8394C236.28 86.8394 236.14 86.2994 236.37 85.7094C236.505 85.3137 236.774 84.9776 237.13 84.7594Z" fill="#FF5B62"/>
<path d="M241.4 98.6995C241.69 98.5295 241.97 98.5395 242.12 98.7595C242.218 99.0088 242.242 99.2812 242.189 99.5438C242.135 99.8063 242.007 100.048 241.82 100.239L237.6 105.489C237.487 105.634 237.348 105.756 237.19 105.849C236.9 106.019 236.62 106.009 236.46 105.789C236.365 105.54 236.342 105.268 236.395 105.006C236.448 104.744 236.575 104.502 236.76 104.309L240.98 99.0595C241.097 98.9148 241.239 98.7928 241.4 98.6995Z" fill="#FF5B62"/>
<path d="M239.99 95.0493C240.39 94.8293 240.74 94.9493 240.81 95.3693C240.828 95.6549 240.776 95.9405 240.66 96.2018C240.543 96.463 240.365 96.6921 240.14 96.8693L235.33 100.619L235.19 100.719C234.79 100.949 234.44 100.829 234.37 100.399C234.35 100.113 234.4 99.827 234.517 99.5653C234.634 99.3036 234.813 99.0748 235.04 98.8993L239.84 95.1493L239.99 95.0493Z" fill="#FF5B62"/>
<path d="M262.25 65.1593C262.328 65.1053 262.416 65.0692 262.51 65.0536C262.603 65.0381 262.699 65.0434 262.79 65.0693C263.14 65.2093 263.19 65.7793 262.9 66.3593L259.77 72.4693C259.628 72.7617 259.406 73.0078 259.13 73.1793C259.051 73.2309 258.962 73.2655 258.869 73.281C258.776 73.2965 258.681 73.2925 258.59 73.2693C258.24 73.1293 258.19 72.5493 258.49 71.9693L261.61 65.8693C261.752 65.5769 261.974 65.3307 262.25 65.1593Z" fill="#FF5B62"/>
<path d="M257.23 64.6994C257.32 64.6486 257.418 64.6147 257.52 64.5994C257.95 64.5294 258.17 64.9494 258.02 65.5394L256.36 71.7694C256.246 72.2151 255.967 72.6009 255.58 72.8494C255.494 72.903 255.399 72.9403 255.3 72.9594C254.87 73.0294 254.64 72.6094 254.8 72.0194L256.45 65.7894C256.566 65.3422 256.844 64.9539 257.23 64.6994Z" fill="#FF5B62"/>
<path d="M254.14 346.319C255.389 347.552 256.882 348.508 258.524 349.126C260.166 349.745 261.919 350.011 263.67 349.909C267.162 349.668 270.579 348.783 273.75 347.299C276.97 345.939 281.01 342.139 284.5 342.209C287.908 342.184 291.311 341.947 294.69 341.499C294.813 336.74 294.326 331.985 293.24 327.349L276.97 326.909C272.58 333.079 264.04 338.209 257.58 340.129C256.58 340.43 255.68 340.996 254.975 341.767C254.271 342.538 253.789 343.486 253.58 344.509C253.575 344.546 253.575 344.583 253.58 344.619C253.696 345.207 253.884 345.778 254.14 346.319Z" fill="#455A64"/>
<path d="M284.5 342.209C281.01 342.139 276.97 345.939 273.75 347.299C270.579 348.783 267.162 349.667 263.67 349.909C261.919 350.011 260.166 349.745 258.524 349.126C256.882 348.508 255.389 347.551 254.14 346.319C253.884 345.778 253.696 345.207 253.58 344.619C253.575 344.583 253.575 344.546 253.58 344.509C253.425 345.241 253.425 345.997 253.58 346.729C253.696 347.317 253.884 347.888 254.14 348.429C255.387 349.664 256.88 350.621 258.523 351.24C260.165 351.858 261.918 352.124 263.67 352.019C267.162 351.781 270.579 350.9 273.75 349.419C276.97 348.059 281.01 344.259 284.5 344.329C287.843 344.354 291.184 344.154 294.5 343.729C294.58 342.989 294.63 342.239 294.66 341.499C291.291 341.945 287.898 342.182 284.5 342.209Z" fill="#37474F"/>
<path d="M327.25 347.349C327.262 349.048 327.098 350.744 326.76 352.409C326.245 355.349 324.633 357.983 322.25 359.779C320.079 361.069 317.605 361.759 315.08 361.779C312.872 362.016 310.638 361.777 308.53 361.079C306.918 360.484 305.562 359.35 304.69 357.869C304.69 357.869 304.69 357.929 304.69 357.959C304.994 359.042 305.555 360.035 306.324 360.854C307.094 361.674 308.049 362.297 309.11 362.669C311.221 363.369 313.459 363.604 315.67 363.359C318.188 363.358 320.659 362.685 322.83 361.409C325.22 359.615 326.834 356.975 327.34 354.029C327.678 352.367 327.842 350.675 327.83 348.979C327.836 347.824 328.073 346.682 328.528 345.621C328.984 344.559 329.647 343.6 330.48 342.799C330.886 342.415 331.27 342.008 331.63 341.579C331.889 341.276 332.085 340.925 332.207 340.546C332.329 340.166 332.374 339.766 332.34 339.369C332.34 339.059 332.28 338.749 332.24 338.449C331.65 339.169 330.24 340.869 329.88 341.209C329.057 342.008 328.401 342.961 327.949 344.015C327.498 345.069 327.26 346.203 327.25 347.349Z" fill="#37474F"/>
<path d="M314.81 329.699C315.336 333.184 314.883 336.747 313.5 339.989C312.134 343.181 310.355 346.18 308.21 348.909C307.156 350.2 306.226 351.586 305.43 353.049C304.659 354.516 304.385 356.193 304.65 357.829C305.522 359.31 306.878 360.444 308.49 361.039C310.598 361.737 312.832 361.976 315.04 361.739C317.565 361.719 320.039 361.029 322.21 359.739C324.593 357.943 326.205 355.309 326.72 352.369C327.058 350.704 327.222 349.008 327.21 347.309C327.216 346.155 327.453 345.014 327.906 343.953C328.359 342.891 329.02 341.931 329.85 341.129C330.21 340.789 331.62 339.129 332.21 338.369C331.889 335.847 331.063 333.415 329.78 331.219L314.81 329.699Z" fill="#455A64"/>
<path d="M271.16 180.699L272.39 266.769L276.39 326.999C286.39 333.499 293.69 328.189 293.69 328.189C297.5 299.649 298.02 282.099 295.94 270.189L297.84 223.749L303.5 271.999L313.1 331.109C323.39 337.949 330.66 331.109 330.66 331.109C330.66 309.229 332.56 284.769 326.66 268.989C330.81 220.239 323.89 181.599 323.89 181.599L271.16 180.699Z" fill="#37474F"/>
<path d="M295.7 206.049L297.8 223.789L296.91 245.539L293.05 209.779C284.05 206.189 282.93 201.139 282.93 201.139C286.695 203.845 291.092 205.536 295.7 206.049Z" fill="#263238"/>
<path d="M278.77 81.2294L276.48 80.0294H276.43H276.34C276.151 79.943 275.945 79.9033 275.738 79.9137C275.531 79.9242 275.329 79.9844 275.15 80.0894L254.66 91.9194C254.258 92.1514 253.925 92.4852 253.693 92.8873C253.461 93.2893 253.339 93.7453 253.34 94.2094V104.129C253.337 104.337 253.385 104.541 253.479 104.726C253.573 104.911 253.711 105.07 253.88 105.189C253.958 105.242 254.042 105.286 254.13 105.319L256.35 106.499L256.24 104.689L275.77 93.4194C276.173 93.1878 276.508 92.8544 276.742 92.4524C276.975 92.0505 277.099 91.5942 277.1 91.1294V82.4894L278.77 81.2294Z" fill="#455A64"/>
<path d="M278.12 94.5892L257.63 106.419C257.429 106.537 257.2 106.599 256.967 106.6C256.733 106.601 256.504 106.541 256.301 106.426C256.099 106.31 255.93 106.144 255.812 105.942C255.694 105.741 255.632 105.512 255.63 105.279V95.3492C255.632 94.8858 255.755 94.431 255.987 94.0294C256.218 93.6279 256.55 93.2936 256.95 93.0592L277.5 81.2292C277.702 81.108 277.932 81.0429 278.167 81.0406C278.403 81.0383 278.634 81.0989 278.838 81.2162C279.042 81.3335 279.211 81.5032 279.327 81.7076C279.444 81.9121 279.503 82.144 279.5 82.3792V92.2992C279.496 92.7695 279.365 93.2299 279.123 93.6327C278.88 94.0354 278.534 94.3658 278.12 94.5892Z" fill="#455A64"/>
<path d="M256.96 95.3494C256.962 95.1184 257.023 94.8918 257.139 94.6919C257.255 94.4921 257.42 94.3257 257.62 94.2094L278.12 82.3794V92.2994C278.12 92.5321 278.059 92.7607 277.944 92.9625C277.828 93.1643 277.661 93.3322 277.46 93.4494L256.97 105.269L256.96 95.3494Z" fill="#FEDCDE"/>
<path d="M269.21 110.019C269.485 109.369 269.948 108.815 270.54 108.429C272.278 107.341 273.604 105.705 274.31 103.779C274.885 101.723 275.2 99.6037 275.25 97.4694C275.307 95.3229 276.066 93.2542 277.41 91.5794C273.77 90.1094 272.29 93.4194 270.97 98.7194L258.78 105.719L258.95 106.119C259.127 106.509 259.218 106.932 259.218 107.359C259.218 107.787 259.127 108.21 258.95 108.599L255.4 115.809C257.119 117.038 259.124 117.808 261.225 118.044C263.325 118.28 265.451 117.976 267.4 117.159C267.859 114.745 268.464 112.361 269.21 110.019Z" fill="#FFA8A7"/>
<path d="M266.75 124.619C267.39 122.029 268.16 118.619 268.66 115.619C266.405 116.406 264 116.67 261.628 116.389C259.256 116.108 256.979 115.291 254.97 113.999C253.524 116.445 252.229 118.976 251.09 121.579C253.282 123.273 255.84 124.431 258.559 124.959C261.278 125.487 264.084 125.37 266.75 124.619Z" fill="#E0E0E0"/>
<path d="M265.62 128.939C265.62 128.939 266.12 127.159 266.75 124.619C264.081 125.366 261.275 125.478 258.555 124.945C255.836 124.411 253.279 123.249 251.09 121.549C247.643 129.537 245.512 138.03 244.78 146.699C244.451 149.231 244.577 151.801 245.15 154.289C245.45 155.533 246.013 156.698 246.801 157.705C247.589 158.713 248.585 159.539 249.72 160.129C252.95 161.609 256.82 160.329 259.72 158.319C265.23 154.539 268.72 148.509 271.97 142.689L280.84 111.019C275.59 111.599 271.29 114.549 265.62 128.939Z" fill="#F0F0F0"/>
<path opacity="0.1" d="M265.62 128.939C263.54 136.299 260.29 148.049 260.29 148.049C267.69 140.529 265.62 128.939 265.62 128.939Z" fill="black"/>
<path opacity="0.1" d="M279.56 115.699C276.858 117.541 274.595 119.955 272.93 122.769C270.03 127.769 269.18 133.589 268.39 139.289C267.83 143.289 267.273 147.289 266.72 151.289C268.642 148.529 270.405 145.661 272 142.699L279.56 115.699Z" fill="black"/>
<path d="M290.33 110.049L280.87 111.049C273.12 117.879 269.12 132.209 270.79 148.049C271.772 158.909 271.896 169.83 271.16 180.709C292.16 196.049 320.59 184.909 323.92 181.579L321.23 162.129C321.063 159.945 321.427 157.753 322.29 155.739C324.29 151.129 327.81 142.069 328.29 135.049C328.59 128.795 327.285 122.568 324.5 116.959L310.75 110.959L290.33 110.049Z" fill="#F0F0F0"/>
<path opacity="0.1" d="M322.29 155.699C324.04 151.639 326.99 144.129 327.99 137.599C326.04 138.779 323.99 139.939 323.17 141.879C320.578 148.149 319.9 155.045 321.22 161.699C321.116 159.644 321.482 157.592 322.29 155.699Z" fill="black"/>
<path d="M287.7 123.839C279.79 142.049 279.92 160.839 279.92 160.839L283.81 169.209L289.92 161.209C289.446 148.942 289.69 136.658 290.65 124.419L287.7 123.839Z" fill="#FF8186"/>
<path d="M287.37 116.959C287.204 119.258 287.314 121.568 287.7 123.839C288.614 124.289 289.636 124.476 290.65 124.379C292.51 122.733 294.103 120.806 295.37 118.669L290.65 116.959H287.37Z" fill="#FF5B62"/>
<path d="M290.65 116.959C294.72 118.459 298.34 125.709 298.34 125.709C309.04 116.629 310.71 110.959 310.71 110.959C307.96 107.049 304.96 106.419 304.96 106.419L290.65 116.959Z" fill="#E0E0E0"/>
<path d="M290.65 116.959C287.54 117.049 284.79 121.379 284.79 121.379C284.29 113.799 290.65 107.959 290.65 107.959V116.959Z" fill="#E0E0E0"/>
<path d="M305.21 97.9294L290.65 103.129V108.519C293.926 108.055 297.069 106.914 299.88 105.169C302.395 103.399 304.266 100.857 305.21 97.9294Z" fill="#F28F8F"/>
<path d="M305.21 97.9294C304.266 100.857 302.395 103.399 299.88 105.169C297.069 106.914 293.926 108.055 290.65 108.519V116.959C290.65 116.959 306.04 110.049 306.04 106.799V97.6294L305.21 97.9294Z" fill="#FFA8A7"/>
<path d="M277.16 76.5793C275.541 76.6392 273.938 76.2506 272.526 75.4565C271.114 74.6624 269.949 73.4937 269.16 72.0793C269.056 71.8771 269.011 71.6498 269.031 71.4233C269.05 71.1968 269.133 70.9804 269.27 70.7988C269.406 70.6172 269.592 70.4778 269.804 70.3965C270.016 70.3153 270.247 70.2955 270.47 70.3394C271.585 70.5341 272.725 70.5341 273.84 70.3394C272.556 68.66 271.617 66.7429 271.078 64.6986C270.539 62.6544 270.411 60.5236 270.7 58.4294C270.736 58.1959 270.826 57.974 270.963 57.7817C271.1 57.5894 271.281 57.432 271.49 57.322C271.699 57.2121 271.931 57.1528 272.167 57.1489C272.404 57.1449 272.637 57.1965 272.85 57.2994C277.485 59.5891 282.64 60.6235 287.8 60.2994C290.55 60.1094 293.26 59.5194 296.01 59.2994C298.762 58.9669 301.552 59.3922 304.08 60.5294C305.331 61.1161 306.4 62.0297 307.174 63.1739C307.949 64.318 308.4 65.6501 308.48 67.0294C308.795 66.5854 309.202 66.2145 309.673 65.9419C310.144 65.6692 310.668 65.5012 311.21 65.4494C311.776 65.3826 312.35 65.4315 312.896 65.5931C313.443 65.7547 313.951 66.0256 314.39 66.3894C312.8 67.2694 311.25 68.1494 309.66 69.0194C311.29 68.4394 313.34 69.7094 314.15 71.2394C314.837 72.8331 315.136 74.5676 315.02 76.2994C315.117 78.594 315.013 80.8928 314.71 83.1694C314.41 85.4609 313.514 87.6334 312.11 89.4694C310.877 90.9784 309.229 92.0941 307.37 92.6793C304.844 93.3768 302.165 93.2896 299.69 92.4293C297.217 91.5746 294.864 90.405 292.69 88.9494C287.149 85.3052 281.951 81.1648 277.16 76.5793Z" fill="#263238"/>
<path d="M276.81 71.9994C275.212 81.5134 276.249 91.2833 279.81 100.249C280.63 102.319 281.71 104.459 283.64 105.569C285.57 106.679 288.18 106.479 290.49 106.129C294.236 105.724 297.89 104.711 301.31 103.129C304.755 101.507 307.439 98.6154 308.8 95.0594C310.025 95.3095 311.296 95.1999 312.46 94.7439C313.624 94.2879 314.631 93.5049 315.36 92.4894C316.799 90.3794 317.544 87.8729 317.49 85.3194C317.49 83.6994 317.19 81.7894 315.73 81.0794C314.27 80.3694 312.73 81.1594 311.58 82.0794C309.673 83.6559 308.28 85.7661 307.58 88.1394C306.51 84.1994 304.84 80.3894 303.77 76.4394C303.35 74.8794 302.83 73.1894 301.47 72.3194C299.82 71.2594 297.66 71.8694 295.75 72.3194C289.512 73.8247 282.993 73.7145 276.81 71.9994Z" fill="#FFA8A7"/>
<path d="M288.32 83.9893L283.7 91.7593L289.21 92.7893L288.32 83.9893Z" fill="#F28F8F"/>
<path d="M294.5 95.4692L290.31 97.4692C290.67 97.9454 291.174 98.2916 291.748 98.4558C292.322 98.6199 292.933 98.5931 293.49 98.3792C293.96 98.0778 294.316 97.627 294.499 97.0992C294.682 96.5713 294.683 95.9973 294.5 95.4692Z" fill="#F28F8F"/>
<path opacity="0.3" d="M294.5 95.4692L290.31 97.4692C290.67 97.9454 291.174 98.2916 291.748 98.4558C292.322 98.6199 292.933 98.5931 293.49 98.3792C293.96 98.0778 294.316 97.627 294.499 97.0992C294.682 96.5713 294.683 95.9973 294.5 95.4692Z" fill="black"/>
<path d="M292.05 98.5395C292.539 98.6394 293.046 98.5942 293.51 98.4095C293.892 98.1907 294.2 97.8645 294.398 97.4715C294.595 97.0785 294.672 96.6361 294.62 96.1995C294.025 96.1991 293.447 96.4 292.98 96.7695C292.452 97.2167 292.119 97.8513 292.05 98.5395Z" fill="#F28F8F"/>
<path d="M296.3 84.2893C296.321 84.4962 296.301 84.7051 296.241 84.9042C296.182 85.1034 296.083 85.2888 295.952 85.4499C295.82 85.611 295.659 85.7447 295.476 85.8432C295.293 85.9418 295.092 86.0033 294.885 86.0243C294.678 86.0454 294.469 86.0254 294.27 85.9657C294.071 85.9059 293.886 85.8076 293.724 85.6762C293.563 85.5448 293.43 85.3829 293.331 85.1999C293.233 85.0168 293.171 84.8162 293.15 84.6093C293.128 84.403 293.147 84.1943 293.206 83.9953C293.265 83.7963 293.363 83.6111 293.494 83.4502C293.625 83.2893 293.787 83.156 293.97 83.058C294.153 82.96 294.353 82.8993 294.56 82.8793C294.977 82.8373 295.394 82.9619 295.72 83.226C296.046 83.4901 296.255 83.8723 296.3 84.2893Z" fill="#263238"/>
<path d="M283.04 85.1193C283.07 85.4297 283.007 85.7419 282.86 86.0168C282.713 86.2916 282.487 86.5167 282.212 86.6637C281.937 86.8108 281.625 86.8732 281.315 86.843C281.004 86.8129 280.71 86.6917 280.468 86.4945C280.227 86.2974 280.049 86.0332 279.957 85.7352C279.865 85.4372 279.864 85.1187 279.953 84.8198C280.042 84.521 280.217 84.2551 280.457 84.0557C280.697 83.8563 280.99 83.7323 281.3 83.6993C281.719 83.6574 282.137 83.7834 282.464 84.0496C282.79 84.3158 282.997 84.7005 283.04 85.1193Z" fill="#263238"/>
<path d="M280.87 79.0094L277.63 81.7694C277.435 81.3542 277.372 80.8893 277.449 80.4371C277.526 79.9849 277.739 79.567 278.06 79.2394C278.46 78.9416 278.935 78.7622 279.432 78.7215C279.929 78.6808 280.427 78.7806 280.87 79.0094Z" fill="#263238"/>
<path d="M294.33 77.4594C295.57 78.1494 296.81 78.8394 298.06 79.5194C298.168 79.0722 298.136 78.6029 297.97 78.174C297.804 77.7452 297.511 77.3773 297.13 77.1194C296.677 76.9124 296.176 76.8347 295.682 76.8947C295.188 76.9547 294.72 77.1501 294.33 77.4594Z" fill="#263238"/>
<path d="M356.62 151.129L361.62 148.649C363.186 147.875 364.49 146.658 365.37 145.149L366.94 142.459C368.025 140.616 369.623 139.128 371.54 138.179C374.423 136.763 377.112 134.982 379.54 132.879C380.049 133.691 380.263 134.652 380.147 135.603C380.03 136.554 379.59 137.435 378.9 138.099C377.869 139.045 376.773 139.917 375.62 140.709L378.03 141.319C379.77 141.766 381.607 141.654 383.28 140.999L390.16 138.329C390.357 138.254 390.571 138.233 390.78 138.267C390.988 138.301 391.184 138.389 391.347 138.523C391.511 138.657 391.636 138.832 391.71 139.029C391.784 139.227 391.805 139.441 391.77 139.649C391.135 142.7 389.982 145.619 388.36 148.279C387.614 149.552 386.603 150.649 385.395 151.497C384.187 152.344 382.811 152.921 381.36 153.189C377.85 153.849 374.45 154.369 372.52 154.639C371.414 154.805 370.341 155.142 369.34 155.639L361.96 159.309L356.62 151.129Z" fill="#FFA8A7"/>
<path d="M351.84 158.859C350.966 156.798 350.662 154.539 350.96 152.319L341.5 156.799C339.792 149.916 338.457 142.946 337.5 135.919C336.38 126.429 336.63 120.049 324.42 116.919L323.13 141.919C323.13 141.919 324.63 172.419 333.38 175.799C340.62 178.589 345.73 171.699 356.78 164.559C354.585 163.214 352.86 161.223 351.84 158.859Z" fill="#F0F0F0"/>
<path opacity="0.1" d="M335.21 163.049C335.54 161.629 337.87 158.379 341.54 156.799C341.54 156.799 341.26 155.689 340.85 153.889C338.95 154.829 334.27 157.699 335.21 163.049Z" fill="black"/>
<path d="M359.42 148.299L350.96 152.299C350.628 154.689 351.007 157.124 352.049 159.301C353.091 161.477 354.75 163.299 356.82 164.539C359.307 162.93 361.885 161.464 364.54 160.149C364.54 160.149 360.04 156.549 359.42 148.299Z" fill="#E0E0E0"/>
<path d="M394.06 26.1391C394.059 25.9144 394 25.6938 393.888 25.4991C393.775 25.3044 393.614 25.1424 393.42 25.0291L387.64 21.8191H387.59C387.401 21.7113 387.187 21.6545 386.97 21.6545C386.753 21.6545 386.539 21.7113 386.35 21.8191L346.82 44.6391C346.234 44.9808 345.748 45.4698 345.409 46.0574C345.071 46.645 344.892 47.311 344.89 47.9891V62.6791L331.21 76.8291C329.99 78.0991 329.86 80.0091 330.81 80.3091L336.26 83.3091C336.356 83.4067 336.475 83.4794 336.606 83.5212C336.736 83.563 336.875 83.5726 337.01 83.5491L344.95 82.5491V93.3291C344.947 93.552 345.004 93.7715 345.115 93.9649C345.226 94.1583 345.386 94.3186 345.58 94.4291L351.32 97.6191H351.4H351.46C351.646 97.707 351.851 97.7484 352.056 97.7397C352.262 97.7309 352.462 97.6724 352.64 97.5691L392.16 74.7491C392.749 74.4113 393.238 73.9233 393.577 73.3348C393.916 72.7462 394.093 72.0783 394.09 71.3991L394.06 26.1391ZM351.99 48.3591C352.034 48.3163 352.081 48.2762 352.13 48.2391C352.082 48.26 352.035 48.2834 351.99 48.3091V48.3591Z" fill="#FC8F93"/>
<path d="M380.5 40.3592C380.324 40.4476 380.168 40.57 380.04 40.7192C379.938 40.8403 379.86 40.9794 379.81 41.1292C379.38 41.9953 379.013 42.8909 378.71 43.8092C378.38 44.6192 378.07 45.4292 377.79 46.2492C377.715 46.3949 377.658 46.5494 377.62 46.7092C377.525 46.9039 377.451 47.1085 377.4 47.3192C377.22 47.7792 377.04 48.2292 376.87 48.6892C376.8 48.8192 376.74 48.9392 376.68 49.0692C376.501 49.4498 376.354 49.8444 376.24 50.2492C376.165 50.4224 376.136 50.6124 376.157 50.8002C376.178 50.9879 376.248 51.1669 376.36 51.3192C376.792 51.7283 377.322 52.0178 377.9 52.1592L378.05 52.2092L378.53 52.3392L379.36 52.7492L379.52 52.8492C379.57 52.9192 379.63 52.9792 379.68 53.0392C379.734 53.1128 379.778 53.1936 379.81 53.2792C379.842 53.414 379.842 53.5543 379.81 53.6892C379.76 53.8892 379.71 54.0992 379.67 54.2992C379.63 54.4992 379.42 54.9792 379.3 55.2992L379.12 55.7392L378.5 57.1992C378.29 57.6692 378.14 58.0592 377.99 58.4492C377.845 58.7273 377.718 59.0146 377.61 59.3092L377.4 59.7392C377.23 60.0992 377.05 60.4592 376.88 60.8292L376.73 61.1492L376.17 62.1492L375.96 62.5492L375.31 63.6892L375.14 63.9792L374.5 65.1992L374.3 65.4992L372.8 67.6792L372.2 68.4892L372.03 68.7192L370.2 71.0392L369.5 71.6992C369.367 71.8583 369.208 71.9936 369.03 72.0992C368.917 72.1692 368.788 72.2063 368.655 72.2063C368.522 72.2063 368.393 72.1692 368.28 72.0992L367.83 71.8692C367.83 71.7992 367.77 71.7892 367.72 71.7792C367.099 71.2332 366.429 70.7445 365.72 70.3192C365.587 70.2347 365.433 70.1898 365.275 70.1898C365.117 70.1898 364.963 70.2347 364.83 70.3192C364.748 70.3684 364.671 70.4253 364.6 70.4892C364.301 70.7384 364.041 71.0318 363.83 71.3592C363.751 71.4073 363.691 71.4816 363.66 71.5692C363.11 72.3392 362.5 73.0292 361.93 73.7692C361.36 74.5092 360.88 74.9992 360.37 75.6392C360.08 75.9692 359.8 76.3092 359.53 76.6392C359.26 76.9692 358.92 77.3892 358.63 77.7992C358.513 77.9323 358.409 78.0763 358.32 78.2292C358.173 78.3949 358.064 78.5911 358.002 78.8038C357.94 79.0164 357.925 79.2403 357.96 79.4592C357.962 79.7273 357.985 79.9948 358.03 80.2592C358.05 80.601 358.121 80.938 358.24 81.2592C358.27 81.4702 358.331 81.6757 358.42 81.8692C358.449 81.9312 358.483 81.9913 358.52 82.0492C358.51 82.0952 358.51 82.1431 358.52 82.1892C358.551 82.2463 358.588 82.2999 358.63 82.3492C358.653 82.4214 358.69 82.4881 358.74 82.545C358.79 82.6018 358.851 82.6475 358.92 82.6792C359.013 82.8052 359.137 82.9051 359.28 82.9692L359.53 83.0692H359.7L359.91 83.1492H360.01C360.125 83.1743 360.245 83.1743 360.36 83.1492C360.386 83.1641 360.415 83.1719 360.445 83.1719C360.475 83.1719 360.504 83.1641 360.53 83.1492C360.675 83.1843 360.825 83.1843 360.97 83.1492C361.128 83.1838 361.292 83.1838 361.45 83.1492C361.609 83.1734 361.771 83.1734 361.93 83.1492H362.22C362.448 83.1256 362.672 83.0786 362.89 83.0092H363L363.24 82.9492C363.301 82.939 363.359 82.9151 363.41 82.8792L363.66 82.7892C363.911 82.7161 364.155 82.6225 364.39 82.5092L364.59 82.4092L364.75 82.3192C364.892 82.241 365.029 82.1542 365.16 82.0592C365.322 81.9643 365.479 81.8608 365.63 81.7492C365.812 81.6313 365.986 81.501 366.15 81.3592C366.297 81.2592 366.447 81.1492 366.6 81.0292L366.78 80.8692L366.87 80.7892L367.12 80.5792C367.379 80.3556 367.626 80.1186 367.86 79.8692C368.054 79.7115 368.235 79.5375 368.4 79.3492C368.462 79.3047 368.514 79.2466 368.55 79.1792C368.907 78.8706 369.241 78.5364 369.55 78.1792C369.818 77.9444 370.072 77.694 370.31 77.4292C370.512 77.2508 370.699 77.0569 370.87 76.8492L371.18 76.5292C371.274 76.4594 371.352 76.3709 371.41 76.2692C371.459 76.242 371.497 76.1999 371.52 76.1492L371.69 75.9892C371.782 75.887 371.869 75.7802 371.95 75.6692C372.13 75.4887 372.301 75.2984 372.46 75.0992L372.62 74.8992L372.78 74.6992C373.098 74.35 373.395 73.9827 373.67 73.5992C373.818 73.4538 373.946 73.289 374.05 73.1092C374.236 72.8989 374.407 72.6749 374.56 72.4392C374.817 72.121 375.054 71.787 375.27 71.4392C375.41 71.2592 375.47 71.1692 375.54 71.0892L375.72 70.8292C375.85 70.6492 375.96 70.4692 376.08 70.2792L376.31 69.9692C376.382 69.8628 376.449 69.7526 376.51 69.6392C376.661 69.4533 376.791 69.2522 376.9 69.0392C377.091 68.7841 377.264 68.5168 377.42 68.2392C377.479 68.1631 377.532 68.0829 377.58 67.9992C377.607 67.9614 377.63 67.9212 377.65 67.8792L377.72 67.7492L377.89 67.5092C378.05 67.2592 378.2 67.0092 378.34 66.7392L378.54 66.4092L379.17 65.3192C379.259 65.2148 379.33 65.0965 379.38 64.9692C379.54 64.7092 379.69 64.4492 379.84 64.1692L379.98 63.8992C380.064 63.7773 380.135 63.6465 380.19 63.5092L380.73 62.5092C380.82 62.3192 380.92 62.1392 381.01 61.9492C381.164 61.6983 381.294 61.4338 381.4 61.1592C381.83 60.3692 382.21 59.5692 382.56 58.7492L382.72 58.3792C382.869 58.0927 382.996 57.7952 383.1 57.4892C383.511 56.5716 383.875 55.6338 384.19 54.6792L384.28 54.4392C384.488 53.8998 384.665 53.3489 384.81 52.7892C385.03 52.1092 385.21 51.4392 385.38 50.7892C385.44 50.5692 385.5 50.3492 385.55 50.1192C385.596 50.0557 385.618 49.9774 385.61 49.8992C385.613 49.8459 385.613 49.7924 385.61 49.7392L385.69 49.4392C385.937 48.6259 386.13 47.7975 386.27 46.9592V46.8292C386.288 46.7569 386.288 46.6814 386.27 46.6092C386.27 46.6092 386.27 46.5192 386.27 46.4792C386.27 46.4392 386.27 46.3192 386.27 46.2492C386.265 46.1659 386.265 46.0824 386.27 45.9992C386.333 45.6461 386.364 45.2879 386.36 44.9292C386.36 44.7892 386.36 44.6392 386.36 44.4892C386.386 44.3874 386.386 44.2809 386.36 44.1792C386.36 44.1292 386.36 44.0692 386.36 44.0092C386.357 43.6959 386.303 43.3852 386.2 43.0892C386.121 42.6449 385.979 42.214 385.78 41.8092C385.548 41.153 385.18 40.5532 384.7 40.0492C384.574 39.8627 384.397 39.7168 384.19 39.6292C384.19 39.6292 384.14 39.5492 384.08 39.5592C383.914 39.433 383.708 39.3693 383.5 39.3792C382.871 39.3545 382.244 39.4635 381.66 39.6992L381.45 39.7892C381.269 39.8341 381.094 39.9013 380.93 39.9892L380.83 40.0492C380.78 40.1992 380.63 40.2592 380.5 40.3592Z" fill="white"/>
<path opacity="0.1" d="M350.81 96.5992C350.808 96.8182 350.863 97.0339 350.97 97.2251C351.077 97.4162 351.232 97.5762 351.42 97.6892L345.68 94.4992C345.486 94.3886 345.326 94.2284 345.215 94.035C345.104 93.8416 345.047 93.622 345.05 93.3992V82.6192L350.82 81.9092L350.81 96.5992Z" fill="black"/>
<path opacity="0.2" d="M346.82 44.6391L386.35 21.8191C386.539 21.7113 386.753 21.6545 386.97 21.6545C387.187 21.6545 387.401 21.7113 387.59 21.8191H387.64L393.42 25.0291C393.223 24.9188 393.001 24.8608 392.775 24.8608C392.549 24.8608 392.327 24.9188 392.13 25.0291L352.61 47.8491C351.876 48.2699 351.3 48.9197 350.97 49.6991L345.23 46.3891C345.563 45.6531 346.119 45.0407 346.82 44.6391Z" fill="white"/>
<path opacity="0.1" d="M344.93 62.6992V48.0092C344.93 47.4643 345.046 46.9257 345.27 46.4292L350.97 49.6992C350.779 50.1728 350.681 50.6786 350.68 51.1892V65.8792L344.93 62.6992Z" fill="white"/>
<path opacity="0.05" d="M331.25 76.8292L344.93 62.6992L350.72 65.9192L337.04 80.0592C335.98 81.1592 335.74 82.7292 336.3 83.3392L330.85 80.3392C329.9 80.0092 330.03 78.0992 331.25 76.8292Z" fill="white"/>
<path d="M205.39 17.5092C204.63 14.6192 199.24 9.13919 193.88 9.24919C193.361 9.26817 192.85 9.37993 192.37 9.57919L88.2 73.9892C86.4321 75.1092 85.0391 76.7319 84.2 78.6492C83.5332 80.1471 83.1923 81.7696 83.2 83.4092V328.349C83.2 334.589 89.82 340.539 96.04 337.679C96.177 337.628 96.3106 337.567 96.44 337.499L200.62 272.969C202.182 271.953 203.461 270.556 204.336 268.91C205.21 267.264 205.652 265.423 205.62 263.559V18.6992C205.631 18.2905 205.553 17.8843 205.39 17.5092Z" fill="#37474F"/>
<path d="M97.7 109.299C97.6862 108.365 97.9103 107.442 98.3511 106.618C98.7919 105.794 99.4351 105.096 100.22 104.589L196.95 44.7692C197.343 44.548 197.789 44.4373 198.24 44.4488C198.69 44.4603 199.13 44.5935 199.511 44.8344C199.892 45.0753 200.201 45.4148 200.405 45.8171C200.609 46.2193 200.701 46.6692 200.67 47.1192V244.639C200.683 245.572 200.459 246.493 200.018 247.315C199.577 248.137 198.934 248.834 198.15 249.339L101.42 309.259C101.027 309.48 100.581 309.591 100.131 309.58C99.6796 309.568 99.2403 309.435 98.859 309.194C98.4777 308.953 98.1686 308.614 97.9646 308.211C97.7606 307.809 97.6691 307.359 97.7 306.909V109.299Z" fill="#FEDCDE"/>
<path d="M83.16 83.4092V328.349C83.16 334.589 89.78 340.539 96 337.679C95.6091 337.813 95.1913 337.848 94.7835 337.782C94.3756 337.716 93.9903 337.551 93.6613 337.301C93.3324 337.051 93.0699 336.724 92.8971 336.349C92.7242 335.974 92.6462 335.562 92.67 335.149V90.1792C92.6702 88.0618 93.2551 85.9855 94.36 84.1792L84.2 78.6992C83.5263 80.1787 83.172 81.7836 83.16 83.4092Z" fill="#263238"/>
<path d="M193.89 9.23918C193.371 9.25816 192.86 9.36992 192.38 9.56918L88.2 73.9892C86.4321 75.1092 85.0391 76.7319 84.2 78.6492L94.4 84.1892C95.2304 82.7976 96.3784 81.6222 97.75 80.7592L201.93 16.3392C202.228 16.1593 202.561 16.0466 202.907 16.0088C203.252 15.9711 203.602 16.0092 203.932 16.1206C204.261 16.232 204.562 16.414 204.814 16.6538C205.066 16.8937 205.263 17.1856 205.39 17.5092C204.64 14.6092 199.25 9.12918 193.89 9.23918Z" fill="#455A64"/>
<path d="M162.02 56.7793C162.76 56.3193 163.36 56.6793 163.36 57.5893C163.342 58.0809 163.213 58.5621 162.983 58.9968C162.752 59.4315 162.427 59.8084 162.03 60.0993L141.59 72.9293C140.86 73.3893 140.27 72.9993 140.27 72.0893C140.286 71.6037 140.413 71.1282 140.64 70.6987C140.867 70.2691 141.188 69.8966 141.58 69.6093L162.02 56.7793Z" fill="#263238"/>
<path d="M136.34 72.8993C137.07 72.4393 137.66 72.8093 137.66 73.7193C137.644 74.2088 137.517 74.6883 137.288 75.1214C137.059 75.5545 136.735 75.9299 136.34 76.2193C135.61 76.6793 135.01 76.3093 135 75.3893C135.021 74.9 135.152 74.4217 135.384 73.9904C135.616 73.5591 135.943 73.1861 136.34 72.8993Z" fill="#263238"/>
<path d="M149.42 54.9193C150.88 53.9993 152.06 54.7293 152.06 56.5593C152.029 57.5364 151.777 58.4937 151.323 59.3596C150.869 60.2255 150.226 60.9775 149.44 61.5593C147.97 62.4693 146.76 61.7193 146.76 59.8993C146.797 58.9218 147.055 57.9656 147.516 57.1028C147.977 56.24 148.628 55.4933 149.42 54.9193Z" fill="#263238"/>
<path d="M149.43 285.509C152.43 283.639 154.81 285.129 154.82 288.849C154.83 292.569 152.44 297.139 149.46 299.009C146.48 300.879 144.02 299.349 144.01 295.629C144.091 293.643 144.621 291.7 145.559 289.948C146.498 288.195 147.821 286.678 149.43 285.509Z" fill="#263238"/>
<path d="M159.26 147.559C159 147.71 158.767 147.902 158.57 148.129C158.414 148.322 158.295 148.543 158.22 148.779C157.563 150.149 157.002 151.562 156.54 153.009C156.04 154.279 155.54 155.559 155.15 156.839C155.032 157.07 154.945 157.316 154.89 157.569C154.742 157.89 154.628 158.225 154.55 158.569L153.74 160.709C153.65 160.919 153.55 161.119 153.46 161.319C153.19 161.92 152.969 162.542 152.8 163.179C152.687 163.451 152.643 163.747 152.673 164.041C152.703 164.334 152.805 164.615 152.97 164.859C153.625 165.494 154.43 165.951 155.31 166.189L155.55 166.259C155.79 166.339 156.03 166.399 156.27 166.469L157.53 167.109L157.77 167.279C157.859 167.375 157.942 167.475 158.02 167.579C158.106 167.686 158.171 167.808 158.21 167.939C158.261 168.153 158.261 168.376 158.21 168.589L158 169.589C157.82 170.129 157.63 170.669 157.44 171.199L157.17 171.899C156.89 172.649 156.6 173.409 156.31 174.159C156.02 174.909 155.76 175.519 155.53 176.159C155.312 176.595 155.119 177.042 154.95 177.499C154.84 177.729 154.74 177.959 154.64 178.179C154.37 178.749 154.11 179.319 153.85 179.889L153.61 180.399L152.77 182.059C152.67 182.269 152.56 182.479 152.45 182.689L151.45 184.489C151.37 184.639 151.28 184.789 151.19 184.939C150.83 185.549 150.47 186.169 150.1 186.779L149.8 187.249C149.04 188.399 148.28 189.549 147.51 190.699L146.61 191.969L146.36 192.319L143.57 195.969L142.63 197.039C142.426 197.283 142.186 197.495 141.92 197.669C141.756 197.786 141.562 197.855 141.36 197.867C141.159 197.88 140.958 197.835 140.78 197.739L140.09 197.359C140.09 197.259 140 197.239 139.93 197.229C138.974 196.368 137.939 195.598 136.84 194.929C136.639 194.799 136.405 194.729 136.165 194.729C135.925 194.729 135.691 194.799 135.49 194.929C135.366 195.005 135.249 195.092 135.14 195.189C134.688 195.592 134.292 196.053 133.96 196.559C133.848 196.651 133.765 196.772 133.72 196.909C132.88 198.119 131.96 199.199 131.09 200.359C130.28 201.309 129.48 202.289 128.71 203.309C128.27 203.829 127.85 204.359 127.45 204.939C126.961 205.517 126.504 206.122 126.08 206.749C125.898 206.96 125.74 207.192 125.61 207.439C125.384 207.704 125.217 208.014 125.122 208.349C125.027 208.684 125.006 209.035 125.06 209.379C125.052 209.798 125.085 210.217 125.16 210.629C125.199 211.138 125.306 211.639 125.48 212.119C125.521 212.465 125.615 212.802 125.76 213.119C125.801 213.215 125.847 213.309 125.9 213.399C125.905 213.475 125.922 213.549 125.95 213.619C125.995 213.713 126.052 213.8 126.12 213.879C126.192 214.104 126.35 214.291 126.56 214.399C126.697 214.594 126.884 214.749 127.1 214.849C127.226 214.911 127.357 214.965 127.49 215.009L127.75 215.079C127.852 215.133 127.959 215.176 128.07 215.209H128.22C128.395 215.24 128.575 215.24 128.75 215.209C128.787 215.235 128.83 215.248 128.875 215.248C128.92 215.248 128.963 215.235 129 215.209C129.22 215.265 129.45 215.265 129.67 215.209C129.911 215.254 130.159 215.254 130.4 215.209C130.649 215.225 130.899 215.201 131.14 215.139H131.58C131.92 215.093 132.254 215.016 132.58 214.909H132.73C132.859 214.89 132.986 214.86 133.11 214.819C133.195 214.795 133.276 214.758 133.35 214.709C133.64 214.619 133.69 214.589 133.75 214.569C134.123 214.449 134.488 214.301 134.84 214.129L135.16 213.969L135.39 213.829C135.607 213.705 135.815 213.565 136.01 213.409L136.74 212.929C137.013 212.74 137.27 212.529 137.51 212.299C137.754 212.145 137.988 211.974 138.21 211.789C138.3 211.719 138.39 211.629 138.48 211.549L138.61 211.409L138.99 211.079C139.37 210.729 139.75 210.369 140.11 209.969C140.411 209.718 140.689 209.44 140.94 209.139C141.036 209.074 141.112 208.984 141.16 208.879C141.681 208.403 142.172 207.896 142.63 207.359C143.033 206.982 143.417 206.585 143.78 206.169C144.086 205.888 144.37 205.584 144.63 205.259L145.09 204.749C145.232 204.638 145.354 204.502 145.45 204.349C145.519 204.301 145.574 204.235 145.61 204.159C145.702 204.074 145.789 203.984 145.87 203.889C146.016 203.737 146.15 203.573 146.27 203.399C146.545 203.113 146.806 202.813 147.05 202.499L147.29 202.179L147.54 201.879C148 201.309 148.46 200.759 148.88 200.129C149.105 199.902 149.3 199.646 149.46 199.369C149.745 199.037 150.002 198.683 150.23 198.309C150.618 197.816 150.979 197.302 151.31 196.769C151.52 196.479 151.62 196.349 151.71 196.209C151.8 196.069 151.9 195.939 152 195.799C152.1 195.659 152.36 195.239 152.53 194.949L152.88 194.459C152.996 194.288 153.103 194.112 153.2 193.929C153.425 193.635 153.623 193.32 153.79 192.989C154.077 192.583 154.337 192.159 154.57 191.719C154.668 191.606 154.752 191.482 154.82 191.349L154.93 191.159C154.967 191.091 155.001 191.021 155.03 190.949C155.12 190.829 155.2 190.699 155.28 190.569C155.533 190.183 155.763 189.783 155.97 189.369L156.28 188.849L157.28 187.129C157.408 186.958 157.513 186.769 157.59 186.569C157.84 186.169 158.07 185.749 158.29 185.319L158.5 184.889C158.623 184.695 158.731 184.491 158.82 184.279L159.64 182.719C159.78 182.419 159.93 182.129 160.07 181.839C160.302 181.442 160.503 181.028 160.67 180.599C161.32 179.349 161.89 178.079 162.42 176.799L162.66 176.219C162.888 175.76 163.085 175.285 163.25 174.799C163.87 173.339 164.43 171.859 164.9 170.379C164.9 170.249 164.99 170.129 165.04 170.009C165.358 169.157 165.622 168.285 165.83 167.399C166.18 166.329 166.45 165.269 166.71 164.219C166.79 163.859 166.88 163.509 166.97 163.159C167.031 163.049 167.062 162.925 167.06 162.799C167.06 162.719 167.11 162.639 167.13 162.559L167.25 162.089C167.628 160.803 167.922 159.494 168.13 158.169V157.969C168.162 157.858 168.162 157.74 168.13 157.629V157.419C168.13 157.299 168.13 157.179 168.18 157.049V156.669C168.279 156.115 168.326 155.552 168.32 154.989C168.32 154.759 168.32 154.519 168.32 154.289C168.351 154.127 168.351 153.961 168.32 153.799C168.315 153.709 168.315 153.619 168.32 153.529C168.31 153.036 168.225 152.547 168.07 152.079C167.954 151.385 167.739 150.712 167.43 150.079C167.083 149.051 166.528 148.104 165.8 147.299C165.61 147.01 165.339 146.784 165.02 146.649C165.02 146.589 164.95 146.509 164.85 146.539C164.601 146.34 164.289 146.237 163.97 146.249C163.014 146.208 162.06 146.383 161.18 146.759L160.86 146.889C160.586 146.969 160.322 147.076 160.07 147.209L159.92 147.309C159.74 147.309 159.5 147.419 159.26 147.559Z" fill="#FC8F93"/>
</g>
<defs>
<clipPath id="clip0_6827_60905">
<rect width="440.74" height="434.88" fill="white" transform="translate(0.130005 0.979248)"/>
</clipPath>
</defs>
</svg>
