<svg width="335" height="246" viewBox="0 0 335 246" fill="none" xmlns="http://www.w3.org/2000/svg">
<path d="M265.936 149.979C266.294 148.64 267.67 147.844 269.01 148.202L293.958 154.871C295.297 155.23 296.093 156.606 295.735 157.945L291.721 172.959C291.363 174.299 289.987 175.095 288.647 174.736L263.7 168.068C262.36 167.71 261.564 166.334 261.923 164.995L265.936 149.979Z" fill="#FC8F93"/>
<path fill-rule="evenodd" clip-rule="evenodd" d="M283.782 162.49L291.006 159.068L290.29 157.555L281.033 161.94C279.517 162.658 277.704 162.143 276.792 160.736L271.484 152.546L270.079 153.457L274.291 159.954L268.465 164.138L269.441 165.497L275.202 161.36L275.387 161.645C276.755 163.757 279.476 164.53 281.751 163.452L282.269 163.207L285.588 169.839L287.084 169.09L283.782 162.49Z" fill="#F1F1F1"/>
<path d="M74.9653 164.502C74.3313 163.268 74.8172 161.755 76.0503 161.122L108.351 144.517C109.584 143.884 111.098 144.369 111.732 145.603L122.036 165.648C122.669 166.881 122.184 168.395 120.951 169.028L88.6497 185.632C87.4166 186.266 85.903 185.78 85.2691 184.547L74.9653 164.502Z" fill="#F1F1F1"/>
<path fill-rule="evenodd" clip-rule="evenodd" d="M103.964 161.793L108.172 151.625L106.625 150.984L100.9 164.82C100.258 166.37 98.5683 167.206 96.9469 166.775L83.1026 163.095L82.6726 164.713L92.9647 167.448L90.8854 177.111L92.5217 177.463L94.584 167.878L96.517 168.392C98.9491 169.038 101.484 167.785 102.446 165.46L103.324 163.339L112.848 167.042L113.453 165.482L103.964 161.793Z" fill="#F1F1F1"/>
<path d="M183.955 30.8421L111.633 89.5794C111.021 90.076 111.372 91.0657 112.161 91.0657H258.917C259.704 91.0657 260.056 90.076 259.444 89.5794L187.121 30.8421C186.198 30.093 184.878 30.093 183.955 30.8421Z" fill="#FFCCCE"/>
<path fill-rule="evenodd" clip-rule="evenodd" d="M186.594 31.4916C185.979 30.9923 185.099 30.9923 184.483 31.4916L112.161 90.2295H258.917L186.594 31.4916ZM183.429 30.1924C184.658 29.1937 186.419 29.1937 187.649 30.1924L259.971 88.9303C261.195 89.9234 260.492 91.9029 258.917 91.9029H112.161C110.585 91.9029 109.882 89.9234 111.105 88.9303L183.429 30.1924Z" fill="white"/>
<path d="M108.547 189.815V93.158C108.547 91.7719 109.671 90.6475 111.058 90.6475H260.019C261.406 90.6475 262.53 91.7719 262.53 93.158V189.815C262.53 191.203 261.406 192.326 260.019 192.326H111.058C109.671 192.326 108.547 191.203 108.547 189.815Z" fill="#FFCCCE"/>
<path fill-rule="evenodd" clip-rule="evenodd" d="M111.058 91.485C110.134 91.485 109.384 92.2343 109.384 93.1583V189.816C109.384 190.74 110.134 191.489 111.058 191.489H260.019C260.943 191.489 261.693 190.74 261.693 189.816V93.1583C261.693 92.2343 260.943 91.485 260.019 91.485H111.058ZM107.71 93.1583C107.71 91.3091 109.209 89.8105 111.058 89.8105H260.019C261.868 89.8105 263.367 91.3091 263.367 93.1583V189.816C263.367 191.665 261.868 193.164 260.019 193.164H111.058C109.209 193.164 107.71 191.665 107.71 189.816V93.1583Z" fill="white"/>
<path fill-rule="evenodd" clip-rule="evenodd" d="M164.728 145.234L116.665 98.001L115.493 99.1945L163.43 146.305L115.546 185.823L116.612 187.113L180.176 134.654C183.283 132.09 187.776 132.103 190.868 134.686L253.624 187.111L254.697 185.826L207.284 146.218L254.75 99.1923L253.572 98.0032L205.994 145.141L191.941 133.402C188.231 130.302 182.84 130.287 179.111 133.363L164.728 145.234Z" fill="white"/>
<path d="M78.0141 21.4643C77.5452 20.1593 78.2228 18.7214 79.5278 18.2525L127.216 1.11541C128.521 0.646478 129.96 1.32417 130.428 2.6291L141.288 32.8466C141.756 34.1515 141.078 35.5895 139.774 36.0584L92.0845 53.1955C90.7797 53.6643 89.3417 52.9866 88.8728 51.6818L78.0141 21.4643ZM248.668 2.31659C249.316 1.09092 250.835 0.622765 252.061 1.27095L283.325 17.8046C284.55 18.4528 285.018 19.9719 284.37 21.1976L274.13 40.5604C273.482 41.786 271.963 42.2542 270.737 41.606L239.474 25.0723C238.248 24.424 237.779 22.905 238.428 21.6792L248.668 2.31659Z" fill="#FE4F56"/>
<path fill-rule="evenodd" clip-rule="evenodd" d="M117.123 23.8324L124.666 10.7249L123.215 9.89016L112.518 28.4772C111.682 29.9313 109.898 30.5414 108.346 29.9041L89.3155 22.0902L88.6797 23.6385L102.208 29.1934L97.6525 42.0004L99.2294 42.5614L103.758 29.8299L107.71 31.4524C110.038 32.4082 112.714 31.4932 113.969 29.312L116.288 25.2834L128.615 32.0279L129.417 30.5595L117.123 23.8324ZM267.109 23.9926L277.588 21.6806L277.227 20.0462L263.025 23.1797C261.386 23.5412 259.734 22.634 259.159 21.0579L254.392 7.98926L252.82 8.56284L256.379 18.3198L247.493 22.0513L248.141 23.5945L256.953 19.8939L257.587 21.6314C258.448 23.9955 260.928 25.3563 263.386 24.8141L265.473 24.3534L267.829 34.0347L269.456 33.639L267.109 23.9926Z" fill="#FC8F93"/>
<path d="M296.423 95.25C296.423 113.044 281.998 127.47 264.203 127.47C246.41 127.47 231.984 113.044 231.984 95.25C231.984 77.4556 246.41 63.0312 264.203 63.0312C281.998 63.0312 296.423 77.4556 296.423 95.25Z" fill="#FC8F93"/>
<path d="M276.242 98.483C276.242 103.42 275.221 107.195 273.177 109.81C271.134 112.425 268.143 113.733 264.203 113.733C260.313 113.733 257.338 112.45 255.28 109.884C253.22 107.317 252.166 103.64 252.117 98.8504V92.2806C252.117 87.2951 253.147 83.5109 255.206 80.9291C257.281 78.3462 260.264 77.0547 264.154 77.0547C268.045 77.0547 271.019 78.3384 273.079 80.9046C275.138 83.4541 276.193 87.1237 276.242 91.9121V98.483ZM269.156 91.2753C269.156 88.3161 268.748 86.1673 267.93 84.8269C267.129 83.4708 265.871 82.7917 264.154 82.7917C262.487 82.7917 261.254 83.4374 260.452 84.7289C259.667 86.0037 259.251 88.0065 259.202 90.7353V99.4149C259.202 102.324 259.594 104.489 260.379 105.912C261.179 107.317 262.455 108.021 264.203 108.021C265.937 108.021 267.187 107.342 267.955 105.986C268.723 104.629 269.123 102.553 269.156 99.7578V91.2753Z" fill="white"/>
<path d="M57.8054 83.8055C54.19 88.6118 57.6895 90.5212 59.8912 90.8741C70.5524 91.4631 92.7089 92.1466 96.0463 90.1671C100.218 87.6933 97.0892 84.5125 94.6556 83.0986C92.2221 81.6847 91.5268 73.9102 83.5311 73.9102C75.5352 73.9102 71.7112 83.8055 68.9301 83.0986C66.1489 82.3916 62.3248 77.7969 57.8054 83.8055ZM266.628 63.672C261.9 69.4925 266.628 72.1601 269.582 72.7657C283.37 73.171 312.011 73.4939 316.265 71.5533C321.583 69.1285 320.992 63.672 314.492 61.8528C307.992 60.0333 307.992 52.1514 298.537 52.1514C289.083 52.1514 286.128 61.8528 281.992 62.4585C277.855 63.0653 272.536 56.3956 266.628 63.672Z" fill="#FE4F56"/>
<path d="M93.2646 120.435C94.7337 127.948 102.204 132.907 105.755 134.446C112.85 130.216 128.382 120.515 133.752 115.565C139.121 110.616 136.662 102.402 134.761 98.9144C136.292 97.3958 138.079 90.9519 137.162 86.2569C136.243 81.5609 132.479 84.1249 129.302 86.5753C126.124 89.0247 118.035 88.1685 110.761 88.3723C104.943 88.5348 101.285 91.8503 100.183 93.488C99.3622 93.4446 97.1309 94.0848 94.7726 96.9828C91.8248 100.607 91.4281 111.044 93.2646 120.435Z" fill="#231F20"/>
<path d="M105.093 124.826C104.928 135.317 104.664 141.04 101.611 148.834L111.635 158.283L123.502 153.524L127.464 146.012C125.089 142.095 124.39 140.746 124.053 134.525C128.519 132.433 130.766 128.337 132.681 119.432C134.189 112.415 132.628 106.629 131.618 104.509C131.61 104.473 131.593 104.441 131.572 104.413C131.587 104.444 131.603 104.477 131.618 104.509C131.718 104.916 130.839 105.776 126.518 106.62C121.823 107.538 114.244 106.177 111.041 105.381C110.412 106.317 109.124 109.291 109.011 113.701C108.899 118.109 107.782 117.8 107.238 117.094C105.49 114.389 103.499 113.559 101.611 116.366C100.1 118.611 103.303 122.941 105.093 124.826ZM35.1956 154.33C38.0896 155.199 42.1893 160.963 43.8775 163.736L39.1747 170.61C38.4513 170.73 36.6426 170.393 35.1956 168.077C33.387 165.183 29.046 160.119 21.4493 160.119C13.8526 160.119 3.00034 157.225 1.55336 155.778C0.106381 154.33 1.55336 151.437 5.89429 153.246C9.36704 154.692 16.5055 154.572 19.6406 154.33C18.1936 152.884 17.8319 151.075 19.6406 150.713C21.4494 150.351 31.5781 153.246 35.1956 154.33ZM197.799 154.33C194.906 155.199 190.806 160.963 189.118 163.736L193.82 170.61C194.544 170.73 196.352 170.393 197.799 168.077C199.609 165.183 203.95 160.119 211.546 160.119C219.142 160.119 229.995 157.225 231.442 155.778C232.888 154.33 231.442 151.437 227.101 153.246C223.628 154.692 216.49 154.572 213.355 154.33C214.801 152.884 215.163 151.075 213.355 150.713C211.546 150.351 201.417 153.246 197.799 154.33Z" fill="#EFCB96"/>
<path d="M79.7672 184.17C81.1189 194.841 79.2039 228.994 78.0776 244.736H151.743C149.311 231.18 150.73 203.758 151.743 191.742C156.136 198.47 166.68 211.137 173.708 207.964C180.737 204.791 195.11 181.166 201.417 169.75L190.266 158.935C184.859 166.265 173.708 180.637 172.357 179.484C170.667 178.042 160.53 152.806 155.461 147.038C151.406 142.423 133.182 139.828 126.536 139.106C125.636 142.952 124.331 147.868 114.599 147.868C104.867 147.868 103.289 142.952 101.938 139.106C97.9952 139.828 85.9848 142.279 79.7672 146.316C71.9951 151.364 59.4922 179.123 57.4647 177.32C55.8426 175.879 47.5524 164.944 43.61 159.655L32.1208 170.471C37.3023 182.728 49.1518 207.242 55.0993 207.242C61.0466 207.242 74.0226 191.861 79.7672 184.17Z" fill="#FF8084"/>
<path fill-rule="evenodd" clip-rule="evenodd" d="M79.9827 174.141L80.7062 184.992L79.0362 185.104L78.3127 174.252L79.9827 174.141ZM153.417 179.324L152.331 193.432L150.662 193.304L151.748 179.196L153.417 179.324Z" fill="white"/>
<path d="M228.018 202.306C228.018 199.163 231.201 199.092 232.793 199.449C235.977 200.374 242.618 203.579 243.709 209.006C244.801 214.434 244.164 218.703 243.709 220.16C242.686 219.921 240.162 218.874 238.251 216.589C235.863 213.732 236.204 210.162 235.181 208.019C234.158 205.877 228.018 206.234 228.018 202.306ZM261.091 213.09C260.033 210.184 257.56 210.184 256.457 210.548C255.021 215.874 252.483 225.802 253.808 222.896C255.463 219.265 262.416 216.722 261.091 213.09Z" fill="white"/>
<path d="M243.721 216.326C243.721 219.711 242.574 225.727 242 228.312H254.393C253.819 225.845 253.704 219.288 257.835 212.8C262.999 204.692 261.622 199.403 261.277 195.878C260.933 192.352 262.999 182.128 268.162 177.192C273.326 172.256 273.326 168.378 271.605 169.083C269.883 169.789 263.688 170.141 259.556 174.724C255.426 179.308 255.426 182.481 252.671 186.006C249.918 189.532 246.132 192.705 243.721 199.403C241.312 206.101 243.721 212.095 243.721 216.326Z" fill="#FC8F93"/>
<path d="M244.833 193.41C245.946 194.521 246.687 195.493 246.919 195.841C246.687 206.835 245.737 227.922 243.791 224.311C241.359 219.797 242.749 213.894 240.664 208.34C238.579 202.784 231.28 202.09 227.109 197.576C222.94 193.063 225.372 189.59 219.464 184.035C213.555 178.48 204.867 177.786 205.215 176.05C205.563 174.313 212.513 170.842 218.073 173.62C223.634 176.396 231.28 173.272 236.841 177.786C242.401 182.299 243.444 192.021 244.833 193.41Z" fill="#FC8F93"/>
<path fill-rule="evenodd" clip-rule="evenodd" d="M215.907 175.699C232.267 181.35 241.759 195.021 244.142 200.747L242.597 201.39C240.356 196.002 231.173 182.743 215.36 177.281L215.907 175.699ZM251.474 204.627C248.8 214.442 247.787 223.752 247.672 229.302L245.999 229.267C246.116 223.587 247.148 214.14 249.859 204.187C252.569 194.243 256.975 183.712 263.891 175.934L265.143 177.046C258.468 184.551 254.151 194.802 251.474 204.627Z" fill="#FE4F56"/>
<path d="M260.859 219.759C261.07 218.249 259.897 216.9 258.373 216.9H235.4C233.898 216.9 232.732 218.211 232.907 219.702L235.438 241.404C235.586 242.67 236.658 243.624 237.932 243.624H255.334C256.587 243.624 257.647 242.701 257.82 241.462L260.859 219.759Z" fill="#FF8084"/>
<path fill-rule="evenodd" clip-rule="evenodd" d="M0.173828 244.461C0.173828 243.999 0.548504 243.624 1.01069 243.624H333.663C334.125 243.624 334.5 243.999 334.5 244.461C334.5 244.923 334.125 245.297 333.663 245.297H1.01069C0.548504 245.297 0.173828 244.923 0.173828 244.461Z" fill="white"/>
</svg>
