<svg width="184" height="117" viewBox="0 0 184 117" fill="none" xmlns="http://www.w3.org/2000/svg">
<g clip-path="url(#clip0_7058_3370)">
<path d="M179.85 116.773C188.331 100.967 183.383 79.2669 168.884 68.6967C162.563 64.0866 154.797 61.4226 149.31 55.8544C142.749 49.1895 140.532 39.5249 136.151 31.2663C128.454 16.7281 113.189 6.41149 96.7998 4.9659C80.4102 3.52032 63.4466 11.0742 53.8135 24.394C49.6105 30.2027 46.4435 37.2626 40.1621 40.7301C34.1744 44.023 26.7911 43.2261 20.2195 45.1327C6.30089 49.1731 -1.44193 65.3313 0.22078 79.7081C1.88349 94.0849 10.8931 106.598 21.1894 116.773H179.85Z" fill="#FEE8E9"/>
<g style="mix-blend-mode:multiply" opacity="0.75">
<path d="M117.706 0.329102H59.7945C55.7642 0.329102 52.4971 3.59021 52.4971 7.613V109.716C52.4971 113.739 55.7642 117 59.7945 117H117.706C121.736 117 125.003 113.739 125.003 109.716V7.613C125.003 3.59021 121.736 0.329102 117.706 0.329102Z" fill="#C7C7C7"/>
<path d="M121.038 14.6533H56.4629V102.103H121.038V14.6533Z" fill="#C7C7C7"/>
<path d="M97.1163 112.42H80.3836C79.6145 112.417 78.8775 112.111 78.3337 111.568C77.7898 111.025 77.4831 110.29 77.4805 109.522C77.4831 108.754 77.7898 108.019 78.3337 107.476C78.8775 106.933 79.6145 106.627 80.3836 106.624H97.1163C97.8854 106.627 98.6223 106.933 99.1662 107.476C99.7101 108.019 100.017 108.754 100.019 109.522C100.017 110.29 99.7101 111.025 99.1662 111.568C98.6223 112.111 97.8854 112.417 97.1163 112.42Z" fill="#C7C7C7" stroke="#C7C7C7" stroke-miterlimit="10"/>
<path d="M95.4109 8.79227H82.0894C81.8634 8.7914 81.6469 8.70116 81.4874 8.54131C81.3278 8.38147 81.2383 8.16504 81.2383 7.93941C81.2392 7.71436 81.3291 7.49877 81.4885 7.33963C81.648 7.1805 81.864 7.09071 82.0894 7.08984H95.4109C95.6364 7.09071 95.8524 7.1805 96.0118 7.33963C96.1712 7.49877 96.2612 7.71436 96.262 7.93941C96.262 8.16504 96.1725 8.38147 96.013 8.54131C95.8534 8.70116 95.6369 8.7914 95.4109 8.79227Z" fill="#C7C7C7" stroke="#C7C7C7" stroke-miterlimit="10"/>
<path d="M114.024 10.1585C114.968 10.1585 115.733 9.39484 115.733 8.45279C115.733 7.51075 114.968 6.74707 114.024 6.74707C113.081 6.74707 112.315 7.51075 112.315 8.45279C112.315 9.39484 113.081 10.1585 114.024 10.1585Z" fill="#C7C7C7" stroke="#C7C7C7" stroke-miterlimit="10"/>
</g>
<path d="M118.366 0H60.4547C56.4244 0 53.1572 3.26111 53.1572 7.28389V109.387C53.1572 113.41 56.4244 116.671 60.4547 116.671H118.366C122.396 116.671 125.663 113.41 125.663 109.387V7.28389C125.663 3.26111 122.396 0 118.366 0Z" fill="#DEDEDE"/>
<path d="M121.697 14.3242H57.1221V101.774H121.697V14.3242Z" fill="white"/>
<path d="M97.7764 112.09H81.0438C80.2746 112.088 79.5377 111.782 78.9938 111.239C78.4499 110.696 78.1432 109.96 78.1406 109.193C78.1432 108.425 78.4499 107.689 78.9938 107.147C79.5377 106.604 80.2746 106.298 81.0438 106.295H97.7764C98.5456 106.298 99.2825 106.604 99.8264 107.147C100.37 107.689 100.677 108.425 100.68 109.193C100.677 109.96 100.37 110.696 99.8264 111.239C99.2825 111.782 98.5456 112.088 97.7764 112.09Z" fill="#CCCCCC" stroke="#BFBFBF" stroke-miterlimit="10"/>
<path d="M96.0711 8.46317H82.7496C82.5235 8.4623 82.3071 8.37206 82.1475 8.21221C81.988 8.05237 81.8984 7.83593 81.8984 7.61031C81.8993 7.38526 81.9893 7.16967 82.1487 7.01053C82.3081 6.8514 82.5241 6.76161 82.7496 6.76074H96.0711C96.2965 6.76161 96.5125 6.8514 96.6719 7.01053C96.8314 7.16967 96.9213 7.38526 96.9222 7.61031C96.9222 7.83593 96.8326 8.05237 96.6731 8.21221C96.5136 8.37206 96.2971 8.4623 96.0711 8.46317Z" fill="#CCCCCC" stroke="#BFBFBF" stroke-miterlimit="10"/>
<path d="M114.684 9.82941C115.627 9.82941 116.392 9.06574 116.392 8.12369C116.392 7.18165 115.627 6.41797 114.684 6.41797C113.74 6.41797 112.975 7.18165 112.975 8.12369C112.975 9.06574 113.74 9.82941 114.684 9.82941Z" fill="#CCCCCC" stroke="#BFBFBF" stroke-miterlimit="10"/>
<g style="mix-blend-mode:multiply" opacity="0.75">
<path d="M107.671 54.1387H69.834C68.0321 54.1387 66.5713 55.5967 66.5713 57.3953V82.2567C66.5713 84.0553 68.0321 85.5134 69.834 85.5134H107.671C109.473 85.5134 110.933 84.0553 110.933 82.2567V57.3953C110.933 55.5967 109.473 54.1387 107.671 54.1387Z" stroke="#CECECE" stroke-width="3" stroke-miterlimit="10" stroke-linecap="round"/>
<path d="M67.6367 55.3804L88.668 73.5308L109.732 54.9951" stroke="#CECECE" stroke-width="3" stroke-miterlimit="10" stroke-linecap="round"/>
<path d="M66.5713 82.2597L83.6735 69.3252" stroke="#CECECE" stroke-width="3" stroke-miterlimit="10" stroke-linecap="round"/>
<path d="M110.934 82.2596L93.5049 69.167" stroke="#CECECE" stroke-width="3" stroke-miterlimit="10" stroke-linecap="round"/>
</g>
<path d="M108.33 53.8096H70.4932C68.6912 53.8096 67.2305 55.2676 67.2305 57.0662V81.9276C67.2305 83.7262 68.6912 85.1843 70.4932 85.1843H108.33C110.132 85.1843 111.593 83.7262 111.593 81.9276V57.0662C111.593 55.2676 110.132 53.8096 108.33 53.8096Z" stroke="#A2A9AA" stroke-width="3" stroke-miterlimit="10" stroke-linecap="round"/>
<path d="M68.2959 55.0503L89.3272 73.2008L110.392 54.665" stroke="#A2A9AA" stroke-width="3" stroke-miterlimit="10" stroke-linecap="round"/>
<path d="M67.2305 81.9306L84.3326 68.9961" stroke="#A2A9AA" stroke-width="3" stroke-miterlimit="10" stroke-linecap="round"/>
<path d="M111.593 81.9304L94.1641 68.8379" stroke="#A2A9AA" stroke-width="3" stroke-miterlimit="10" stroke-linecap="round"/>
<path d="M46.3681 3.37891C46.3681 4.98913 44.3887 4.98913 44.3887 6.59936C44.3887 8.20959 46.3681 8.21288 46.3681 9.82311C46.3681 11.4333 44.3887 11.4366 44.3887 13.0469C44.3887 14.6571 46.3681 14.6604 46.3681 16.2706C46.3681 17.8808 44.3887 17.8841 44.3887 19.4944C44.3887 21.1046 46.3681 21.1079 46.3681 22.7181C46.3681 24.3283 44.3887 24.3316 44.3887 25.9419C44.3887 27.5521 46.3681 27.5521 46.3681 29.1656C46.3681 30.7791 44.3887 30.7791 44.3887 32.3894C44.3887 33.9996 46.3681 34.0029 46.3681 35.6131C46.3681 37.2233 44.3887 37.2266 44.3887 38.8401C44.3887 40.4537 46.3681 40.4537 46.3681 42.0672" stroke="#FF7D95" stroke-width="2" stroke-miterlimit="10" stroke-linecap="round"/>
<path d="M49.8749 3.37891C49.8749 4.98913 47.8955 4.98913 47.8955 6.59936C47.8955 8.20959 49.8749 8.21288 49.8749 9.82311C49.8749 11.4333 47.8955 11.4366 47.8955 13.0469C47.8955 14.6571 49.8749 14.6604 49.8749 16.2706C49.8749 17.8808 47.8955 17.8841 47.8955 19.4944C47.8955 21.1046 49.8749 21.1079 49.8749 22.7181C49.8749 24.3283 47.8955 24.3316 47.8955 25.9419C47.8955 27.5521 49.8749 27.5521 49.8749 29.1656C49.8749 30.7791 47.8955 30.7791 47.8955 32.3894C47.8955 33.9996 49.8749 34.0029 49.8749 35.6131C49.8749 37.2233 47.8955 37.2266 47.8955 38.8401C47.8955 40.4537 49.8749 40.4537 49.8749 42.0672" stroke="#FF7D95" stroke-width="2" stroke-miterlimit="10" stroke-linecap="round"/>
<path d="M89.4096 45.4125H79.0012C78.6084 45.4129 78.2223 45.3101 77.8819 45.1144C77.5415 44.9186 77.2587 44.6368 77.0621 44.2974C76.8654 43.9579 76.7618 43.5727 76.7617 43.1806C76.7616 42.7884 76.865 42.4032 77.0614 42.0636L82.2673 33.0641L87.4731 24.0679C87.6688 23.7279 87.9509 23.4454 88.2909 23.249C88.6309 23.0526 89.0168 22.9492 89.4096 22.9492C89.8025 22.9492 90.1884 23.0526 90.5284 23.249C90.8684 23.4454 91.1505 23.7279 91.3462 24.0679L96.552 33.0641L101.758 42.0636C101.954 42.4032 102.058 42.7884 102.058 43.1806C102.057 43.5727 101.954 43.9579 101.757 44.2974C101.561 44.6368 101.278 44.9186 100.937 45.1144C100.597 45.3101 100.211 45.4129 99.8181 45.4125H89.4096Z" fill="#FFC931"/>
<path d="M87.8429 41.0591C87.829 40.8485 87.8593 40.6373 87.9319 40.4391C88.0044 40.2409 88.1175 40.0599 88.264 39.9078C88.4106 39.7556 88.5873 39.6356 88.7829 39.5555C88.9784 39.4753 89.1886 39.4368 89.4 39.4423C90.3567 39.4423 90.9571 40.1009 90.9769 41.0591C90.9904 41.2713 90.9593 41.4839 90.8854 41.6833C90.8115 41.8827 90.6965 42.0645 90.548 42.2168C90.3994 42.3692 90.2204 42.4887 90.0227 42.5678C89.825 42.6469 89.6129 42.6837 89.4 42.6759C89.1882 42.6829 88.9773 42.6454 88.781 42.5658C88.5847 42.4862 88.4074 42.3662 88.2605 42.2138C88.1137 42.0613 88.0006 41.8797 87.9287 41.6808C87.8567 41.4818 87.8275 41.27 87.8429 41.0591ZM88.4235 38.135L88.0507 28.4736H90.7493L90.3765 38.135H88.4235Z" fill="#232528"/>
<path d="M37.9385 38.8926V47.3059" stroke="#FFC931" stroke-miterlimit="10"/>
<path d="M42.1513 43.1006H33.7256" stroke="#FFC931" stroke-miterlimit="10"/>
<path d="M40.918 40.124L34.96 46.0743" stroke="#FFC931" stroke-miterlimit="10"/>
<path d="M40.918 46.0743L34.96 40.124" stroke="#FFC931" stroke-miterlimit="10"/>
<path d="M147.453 105.781V114.191" stroke="#FFC931" stroke-miterlimit="10"/>
<path d="M151.666 109.986H143.237" stroke="#FFC931" stroke-miterlimit="10"/>
<path d="M150.433 107.013L144.475 112.96" stroke="#FFC931" stroke-miterlimit="10"/>
<path d="M150.433 112.96L144.475 107.013" stroke="#FFC931" stroke-miterlimit="10"/>
<path d="M135.395 23.7947C135.396 24.2644 135.257 24.7238 134.996 25.1146C134.735 25.5055 134.363 25.8103 133.929 25.9905C133.494 26.1707 133.016 26.2182 132.554 26.127C132.093 26.0357 131.669 25.8099 131.336 25.478C131.003 25.1461 130.776 24.723 130.684 24.2624C130.592 23.8018 130.639 23.3242 130.818 22.8902C130.998 22.4562 131.303 22.0852 131.694 21.8242C132.086 21.5632 132.546 21.4238 133.016 21.4238C133.647 21.4238 134.251 21.6735 134.697 22.118C135.143 22.5626 135.394 23.1656 135.395 23.7947Z" stroke="#FFC931" stroke-miterlimit="10"/>
<path d="M17.9246 77.5169C18.3888 75.5446 17.1633 73.5702 15.1874 73.1069C13.2114 72.6436 11.2334 73.8668 10.7692 75.8391C10.305 77.8113 11.5305 79.7857 13.5064 80.2491C15.4824 80.7124 17.4604 79.4891 17.9246 77.5169Z" stroke="#FFC931" stroke-width="1.55" stroke-miterlimit="10"/>
<path d="M139.067 30.591C139.067 30.9537 138.959 31.3084 138.757 31.61C138.555 31.9116 138.268 32.1467 137.932 32.2855C137.597 32.4243 137.227 32.4607 136.871 32.3899C136.514 32.3191 136.187 32.1444 135.93 31.8879C135.673 31.6314 135.498 31.3046 135.427 30.9488C135.356 30.593 135.392 30.2242 135.531 29.8891C135.671 29.5539 135.906 29.2675 136.208 29.066C136.51 28.8644 136.866 28.7568 137.229 28.7568C137.471 28.7564 137.71 28.8036 137.933 28.8956C138.156 28.9876 138.359 29.1227 138.529 29.2931C138.7 29.4635 138.836 29.6658 138.928 29.8886C139.02 30.1113 139.067 30.35 139.067 30.591Z" fill="#FFC931"/>
<path d="M163.345 95.5398C163.346 95.9027 163.238 96.2577 163.037 96.5597C162.835 96.8618 162.549 97.0974 162.213 97.2367C161.877 97.376 161.508 97.4128 161.151 97.3424C160.794 97.272 160.467 97.0976 160.209 96.8412C159.952 96.5849 159.777 96.258 159.705 95.9022C159.634 95.5463 159.671 95.1773 159.809 94.842C159.948 94.5067 160.184 94.22 160.486 94.0183C160.789 93.8166 161.144 93.709 161.507 93.709C161.994 93.709 162.461 93.9018 162.806 94.245C163.15 94.5883 163.344 95.054 163.345 95.5398Z" fill="#FFC931"/>
<path d="M25.9244 85.7019C26.2834 84.1776 25.3365 82.6514 23.8093 82.2931C22.2822 81.9347 20.7532 82.8799 20.3942 84.4041C20.0352 85.9284 20.9821 87.4546 22.5092 87.8129C24.0363 88.1713 25.5653 87.2261 25.9244 85.7019Z" fill="#FFC931"/>
<path d="M133.168 33.3994L134.508 36.0337L135.847 38.6648L132.891 38.51L129.938 38.3519L131.552 35.8757L133.168 33.3994Z" fill="#39EDDE"/>
<path d="M49.6935 46.957L48.6246 49.7099L47.5558 52.4628L45.7017 50.161L43.8477 47.8593L46.7706 47.4082L49.6935 46.957Z" fill="#39EDDE"/>
<path d="M166.561 84.9004L165.707 87.4491L164.849 89.9978L163.068 87.9826L161.286 85.9673L163.925 85.4338L166.561 84.9004Z" fill="#39EDDE"/>
<path d="M23.6902 73.32C24.9656 73.32 25.9995 72.288 25.9995 71.015C25.9995 69.742 24.9656 68.71 23.6902 68.71C22.4148 68.71 21.3809 69.742 21.3809 71.015C21.3809 72.288 22.4148 73.32 23.6902 73.32Z" fill="#FF7D95"/>
<path d="M41.1588 54.3061C41.1588 54.6012 41.0712 54.8896 40.907 55.1349C40.7428 55.3802 40.5094 55.5714 40.2363 55.6843C39.9632 55.7972 39.6627 55.8267 39.3728 55.7692C39.0829 55.7116 38.8166 55.5695 38.6076 55.3609C38.3986 55.1523 38.2563 54.8865 38.1986 54.5971C38.141 54.3078 38.1706 54.0079 38.2837 53.7353C38.3968 53.4627 38.5883 53.2298 38.8341 53.0658C39.0799 52.9019 39.3688 52.8145 39.6644 52.8145C40.0607 52.8145 40.4409 52.9716 40.7211 53.2514C41.0014 53.5311 41.1588 53.9105 41.1588 54.3061Z" fill="#FF7D95"/>
<path d="M168.366 96.3798C169.191 96.3798 169.86 95.712 169.86 94.8882C169.86 94.0643 169.191 93.3965 168.366 93.3965C167.54 93.3965 166.871 94.0643 166.871 94.8882C166.871 95.712 167.54 96.3798 168.366 96.3798Z" fill="#FF7D95"/>
<path d="M147.559 49.9531L154.292 64.9226L161.735 60.5628L164.743 62.9239L166.228 57.9944L171.305 55.1164L147.559 49.9531Z" fill="#DFE4EF"/>
<g style="mix-blend-mode:multiply">
<path d="M162.76 59.8613L161.734 60.5627L164.743 62.9237L162.76 59.8613Z" fill="#CAD1DD"/>
</g>
<path d="M162.761 59.8615L147.559 49.9531L166.228 57.9944L164.743 62.9239L162.761 59.8615Z" fill="#CAD1DD"/>
<path d="M41.6406 25.8398C31.826 27.753 22.1764 34.4409 20.1508 44.2175C17.9305 54.8865 25.7591 65.7531 35.7716 70.0635C45.7842 74.3739 57.3176 73.4091 67.9668 70.9526C78.6161 68.4961 88.9388 64.6236 99.7662 63.2472C113.882 61.4877 128.201 64.0315 140.842 70.5442C145.86 73.1456 150.703 76.4978 153.662 81.3087C156.622 86.1197 157.291 92.6363 154.164 97.3287C151.036 102.021 143.567 103.638 139.46 99.7589C136.534 96.9961 136.029 92.2379 137.754 88.6025C139.48 84.9671 143.096 82.458 146.992 81.4042C150.888 80.3505 155.028 80.6205 159.069 80.3538C163.111 80.0871 167.383 79.1223 170.174 76.1916C172.965 73.2609 173.407 67.8869 170.174 65.46" stroke="#303D44" stroke-miterlimit="10" stroke-dasharray="5 5"/>
<path d="M131.189 71.709C131.189 73.3192 129.21 73.3192 129.21 74.9294C129.21 76.5397 131.189 76.543 131.189 78.1532C131.189 79.7634 129.21 79.7667 129.21 81.3802C129.21 82.9938 131.189 82.9905 131.189 84.6007C131.189 86.2109 129.21 86.2142 129.21 87.8277C129.21 89.4413 131.189 89.438 131.189 91.0482C131.189 92.6584 129.21 92.6617 129.21 94.2719C129.21 95.8822 131.189 95.8855 131.189 97.4957C131.189 99.1059 129.21 99.1092 129.21 100.723C129.21 102.336 131.189 102.333 131.189 103.946C131.189 105.56 129.21 105.557 129.21 107.17C129.21 108.784 131.189 108.784 131.189 110.397" stroke="#FF7D95" stroke-width="2" stroke-miterlimit="10" stroke-linecap="round"/>
<path d="M134.696 71.709C134.696 73.3192 132.717 73.3192 132.717 74.9294C132.717 76.5397 134.696 76.543 134.696 78.1532C134.696 79.7634 132.717 79.7667 132.717 81.3802C132.717 82.9938 134.696 82.9905 134.696 84.6007C134.696 86.2109 132.717 86.2142 132.717 87.8277C132.717 89.4413 134.696 89.438 134.696 91.0482C134.696 92.6584 132.717 92.6617 132.717 94.2719C132.717 95.8822 134.696 95.8855 134.696 97.4957C134.696 99.1059 132.717 99.1092 132.717 100.723C132.717 102.336 134.696 102.333 134.696 103.946C134.696 105.56 132.717 105.557 132.717 107.17C132.717 108.784 134.696 108.784 134.696 110.397" stroke="#FF7D95" stroke-width="2" stroke-miterlimit="10" stroke-linecap="round"/>
</g>
<defs>
<clipPath id="clip0_7058_3370">
<rect width="184" height="117" fill="white"/>
</clipPath>
</defs>
</svg>
