<svg width="28" height="37" viewBox="0 0 28 37" fill="none" xmlns="http://www.w3.org/2000/svg">
<path d="M19.7762 0.111328H1.11921C0.599782 0.111328 0.178711 0.5324 0.178711 1.34947V35.4685C0.178711 35.6903 0.599782 36.1113 1.11921 36.1113H26.8811C27.4005 36.1113 27.8216 35.6903 27.8216 35.4685V8.45433C27.8216 8.0069 27.7618 7.8629 27.6564 7.75683L20.1761 0.276542C20.07 0.171114 19.926 0.111328 19.7762 0.111328Z" fill="#E9E9E0"/>
<path d="M20.1074 0.208008V7.82522H27.7246L20.1074 0.208008Z" fill="#D9D7CA"/>
<path d="M8.54504 21.5335C8.32132 21.5335 8.10661 21.4608 7.92339 21.3239C7.25418 20.8218 7.16418 20.2632 7.20661 19.8826C7.32361 18.836 8.61768 17.7406 11.0541 16.6246C12.021 14.5058 12.9409 11.8951 13.4892 9.7139C12.8477 8.31761 12.2241 6.50604 12.6786 5.4434C12.838 5.07119 13.0367 4.78576 13.4076 4.66233C13.5542 4.61347 13.9245 4.55176 14.0607 4.55176C14.3847 4.55176 14.6695 4.96897 14.8714 5.22611C15.061 5.46783 15.4911 5.98019 14.6316 9.59883C15.4982 11.3885 16.726 13.2117 17.9025 14.4601C18.7452 14.3078 19.4704 14.23 20.0612 14.23C21.0679 14.23 21.678 14.4646 21.9268 14.948C22.1325 15.3479 22.0482 15.8153 21.676 16.3366C21.318 16.8374 20.8242 17.1023 20.2489 17.1023C19.4672 17.1023 18.5569 16.6085 17.5418 15.6333C15.718 16.0145 13.5882 16.6947 11.8667 17.4475C11.3292 18.5879 10.8143 19.5065 10.3347 20.1803C9.67582 21.1028 9.10754 21.5335 8.54504 21.5335ZM10.2563 18.2382C8.88254 19.0103 8.32261 19.6448 8.28211 20.0022C8.27568 20.0613 8.25832 20.2169 8.55918 20.447C8.65496 20.4168 9.21425 20.1616 10.2563 18.2382ZM19.023 15.3826C19.5469 15.7857 19.6748 15.9895 20.0175 15.9895C20.1679 15.9895 20.5967 15.983 20.7953 15.706C20.8911 15.5716 20.9284 15.4855 20.9432 15.4392C20.8641 15.3974 20.7593 15.3125 20.1878 15.3125C19.8632 15.3132 19.455 15.3273 19.023 15.3826ZM14.2208 11.1513C13.7612 12.7418 13.1543 14.4588 12.5018 16.0139C13.8454 15.4925 15.306 15.0374 16.6778 14.7153C15.81 13.7073 14.9427 12.4486 14.2208 11.1513ZM13.8306 5.71147C13.7676 5.73269 12.9756 6.84097 13.8923 7.7789C14.5024 6.41926 13.8582 5.70247 13.8306 5.71147Z" fill="#CC4B4C"/>
<path d="M26.8811 36.1112H1.11921C0.599782 36.1112 0.178711 35.6901 0.178711 35.1707V25.1826H27.8216V35.1707C27.8216 35.6901 27.4005 36.1112 26.8811 36.1112Z" fill="#CC4B4C"/>
<path d="M7.17602 34.1825H6.12109V27.7051H7.98409C8.25924 27.7051 8.53181 27.7488 8.80116 27.8369C9.07052 27.9249 9.31224 28.0567 9.52631 28.2322C9.74038 28.4077 9.91331 28.6205 10.0451 28.8693C10.1769 29.1181 10.2431 29.3977 10.2431 29.7089C10.2431 30.0374 10.1872 30.3344 10.076 30.6012C9.96474 30.8679 9.80916 31.0923 9.60988 31.2736C9.41059 31.4549 9.17016 31.5956 8.88924 31.6953C8.60831 31.7949 8.29716 31.8444 7.95774 31.8444H7.17538L7.17602 34.1825ZM7.17602 28.5048V31.0711H8.14288C8.27145 31.0711 8.39874 31.0492 8.52538 31.0049C8.65138 30.9611 8.76709 30.8891 8.87252 30.7895C8.97795 30.6899 9.06281 30.551 9.12709 30.3723C9.19138 30.1936 9.22352 29.9724 9.22352 29.7089C9.22352 29.6034 9.20874 29.4813 9.17981 29.3444C9.15024 29.2068 9.09045 29.075 8.99981 28.949C8.90852 28.823 8.78124 28.7176 8.61731 28.6327C8.45338 28.5479 8.23609 28.5054 7.96674 28.5054L7.17602 28.5048Z" fill="white"/>
<path d="M16.7121 30.7638C16.7121 31.2967 16.6549 31.7525 16.5404 32.1305C16.426 32.5085 16.2814 32.8248 16.1052 33.08C15.9291 33.3352 15.7317 33.5358 15.5119 33.6824C15.292 33.8289 15.0799 33.9382 14.8748 34.0121C14.6697 34.0854 14.482 34.1324 14.3123 34.1529C14.1426 34.1722 14.0166 34.1825 13.9343 34.1825H11.4824V27.7051H13.4335C13.9786 27.7051 14.4576 27.7919 14.8703 27.9641C15.283 28.1364 15.6263 28.3672 15.8989 28.6539C16.1714 28.9407 16.3746 29.2679 16.5096 29.6336C16.6446 30.0001 16.7121 30.3768 16.7121 30.7638ZM13.5833 33.4092C14.2981 33.4092 14.8137 33.1809 15.13 32.7239C15.4463 32.2668 15.6044 31.6046 15.6044 30.7374C15.6044 30.4681 15.5723 30.2013 15.508 29.9377C15.4431 29.6741 15.319 29.4357 15.1345 29.2216C14.95 29.0075 14.6993 28.8346 14.383 28.7028C14.0667 28.571 13.6566 28.5048 13.1526 28.5048H12.5374V33.4092H13.5833Z" fill="white"/>
<path d="M19.314 28.5048V30.5439H22.0211V31.2646H19.314V34.1825H18.2417V27.7051H22.293V28.5048H19.314Z" fill="white"/>
</svg>
