<svg width="28" height="28" viewBox="0 0 28 28" fill="none" xmlns="http://www.w3.org/2000/svg">
<path fill-rule="evenodd" clip-rule="evenodd" d="M13.7074 7.99523C12.3334 7.99523 11.2196 9.10905 11.2196 10.483C11.2196 11.8533 12.3275 12.9649 13.6964 12.9708L13.7074 12.9708L13.7126 12.9708C15.0842 12.968 16.1952 11.8552 16.1952 10.483C16.1952 9.10905 15.0813 7.99523 13.7074 7.99523ZM10.3416 10.483C10.3416 11.6763 10.9626 12.7246 11.8991 13.3223C10.3705 13.9369 9.0655 15.3482 8.47816 17.4843L8.01582 19.1657C7.95154 19.3995 8.08895 19.6411 8.32273 19.7054C8.55652 19.7697 8.79816 19.6323 8.86244 19.3985L9.32478 17.7171C10.0428 15.1057 11.9023 13.8541 13.696 13.8488L13.7074 13.8488C15.5663 13.8488 17.0732 12.3419 17.0732 10.483C17.0732 8.62412 15.5663 7.11719 13.7074 7.11719C11.8485 7.11719 10.3416 8.62412 10.3416 10.483ZM14.1464 17.5167C14.1464 16.1427 15.2602 15.0289 16.6342 15.0289C18.0081 15.0289 19.122 16.1427 19.122 17.5167C19.122 18.8906 18.0081 20.0044 16.6342 20.0044C15.2602 20.0044 14.1464 18.8906 14.1464 17.5167ZM16.6342 14.1508C14.7753 14.1508 13.2684 15.6578 13.2684 17.5167C13.2684 19.3756 14.7753 20.8825 16.6342 20.8825C18.4931 20.8825 20 19.3756 20 17.5167C20 15.6578 18.4931 14.1508 16.6342 14.1508ZM16.6342 16.6916C16.8766 16.6916 17.0732 16.8881 17.0732 17.1306V18.9863C17.0732 19.2288 16.8766 19.4253 16.6342 19.4253C16.3917 19.4253 16.1952 19.2288 16.1952 18.9863V17.1306C16.1952 16.8881 16.3917 16.6916 16.6342 16.6916ZM17.0732 16.0595C17.0732 15.817 16.8766 15.6204 16.6342 15.6204C16.3917 15.6204 16.1952 15.817 16.1952 16.0595V16.1093C16.1952 16.3517 16.3917 16.5483 16.6342 16.5483C16.8766 16.5483 17.0732 16.3517 17.0732 16.1093V16.0595Z" fill="white"/>
</svg>
