<svg width="402" height="283" viewBox="0 0 402 283" fill="none" xmlns="http://www.w3.org/2000/svg">
<path d="M294.282 7.21595C301.556 4.88463 309.325 4.43707 316.954 4.87795C327.916 5.54595 339.305 8.21795 347.361 15.6929C352.445 20.3689 355.811 26.6013 359.893 32.1858C371.736 48.3915 390.04 59.9879 398.029 78.398C404.856 94.1361 402.291 113.922 390.541 126.421C378.791 138.919 358.096 142.453 343.547 133.374C329.579 124.65 323.407 107.282 310.648 96.8682C301.53 89.4267 289.746 86.1067 279.84 79.7474C269.699 73.2477 261.456 63.0474 259.586 51.1169C258.043 41.2372 261.59 30.5024 269.299 24.0028C276.834 17.6301 284.763 10.242 294.282 7.21595Z" fill="#FFEEEF"/>
<path d="M357.582 128.124C344.983 130.128 332.665 126.888 320.08 124.57C308.003 122.339 295.965 118.158 286.366 110.262C281.971 106.641 278.076 102.146 276.346 96.7214C273.888 88.986 276.132 80.6293 276.112 72.5064C276.112 62.974 273.707 53.8024 267.094 46.7617C263.086 42.4865 258.41 38.7457 255.224 33.7824C248.637 23.4552 253.734 9.62756 264.048 3.8026C273.44 -1.5414 285.424 0.589519 295.15 5.19872C304.876 9.80792 313.487 16.6883 323.286 21.2441C334.028 26.2006 345.778 28.1445 357.628 29.2601C366.686 30.1151 375.918 29.073 383.306 34.3836C388.597 38.1779 392.338 43.8759 394.509 50.0148C398.617 61.6314 397.795 75.2853 395.898 87.2759C394.629 95.2919 392.077 103.261 387.414 109.928C381.696 118.111 372.952 124.003 363.366 126.855C361.468 127.404 359.536 127.828 357.582 128.124Z" fill="#FEDCDE"/>
<path d="M337.749 282.833H44.7905C22.6664 265.945 7.30236 241.864 3.1474 214.349C1.444 202.94 2.40592 189.353 11.7312 182.506C26.0665 171.965 47.5894 185.251 63.7884 177.89C74.2226 173.147 79.3662 160.822 79.4731 149.359C79.58 137.897 75.7122 126.835 72.7931 115.739C69.8739 104.644 67.9835 92.673 71.898 81.8981C75.8124 71.1233 87.3488 62.3859 98.451 65.2449C107.963 67.6965 114.002 77.3357 123.12 80.9963C132.606 84.8106 143.621 81.3437 152.045 75.5455C160.468 69.7472 167.168 61.8114 175.044 55.285C188.858 43.8288 207.108 36.8081 224.863 39.4801C242.619 42.1521 259.038 55.9063 261.81 73.6417C264.075 88.1506 257.976 104.917 266.867 116.601C276.887 129.78 297.862 126.08 312.358 134.082C324.155 140.595 330.454 155.699 326.78 168.665C323.026 181.904 310.267 193.02 312.345 206.62C313.834 216.38 322.485 223.113 328.57 230.876C340.3 245.792 345.598 265.571 337.749 282.833Z" fill="#FFEEEF"/>
<path d="M323.994 282.833H73.0002C65.3649 275.872 56.8012 269.473 52.4659 260.121C48.1305 250.769 48.1439 238.571 55.2715 231.096C63.882 222.058 78.264 223.287 90.3682 220.308C104.323 216.868 117.015 205.659 118.798 191.397C121.11 172.987 105.685 156.16 106.647 137.63C107.402 123.02 119.807 109.894 134.343 108.304C144.176 107.229 154.383 110.83 163.868 108.077C172.672 105.519 179.025 98.0573 186.674 93.0006C195.652 87.0754 207.121 84.4969 217.469 87.4428C227.816 90.3887 236.573 99.3399 237.963 110.008C239.446 121.364 233.287 134.243 239.82 143.622C244.696 150.616 254.429 151.965 262.946 151.691C271.463 151.417 280.548 150.275 288.029 154.363C294.99 158.151 299.132 165.986 299.906 173.875C300.681 181.764 298.484 189.68 295.23 196.908C292.391 203.227 288.737 209.199 286.6 215.786C284.462 222.372 284.028 229.941 287.502 235.933C291.162 242.232 298.263 245.512 304.055 249.961C314.288 257.716 323.226 269.974 323.994 282.833Z" fill="#FEDCDE"/>
<path d="M302.986 38.9131L317.481 75.7733L348.37 58.3385L302.986 38.9131Z" fill="#FAFAFA"/>
<path d="M302.986 38.9131L331.476 67.8709L339.232 63.4955L302.986 38.9131Z" fill="#D9D9D9"/>
<path d="M339.232 63.4951L333.834 76.8618L331.476 67.8705L339.232 63.4951Z" fill="#D9D9D9"/>
<path d="M333.834 76.8614L327.167 70.3083L331.476 67.8701L333.834 76.8614Z" fill="#B0B0B0"/>
<path d="M113.361 271.397C80.6688 262.786 52.1586 239.453 37.2488 209.119C31.0965 196.594 27.1487 182.693 28.0772 168.772C29.0057 154.851 35.2381 140.943 46.4138 132.593C57.5894 124.243 73.8686 122.433 85.6855 129.848C97.1083 137.009 102.546 150.749 112.405 159.908C124.229 170.849 142.993 174.042 157.248 166.541C171.503 159.039 179.519 140.803 174.322 125.559C169.506 111.444 155.899 102.673 144.075 93.5886C132.252 84.5038 120.495 71.7383 122.185 56.9221C123.641 44.19 134.877 34.6242 146.667 29.661C169.312 20.142 198.504 24.3704 213.868 43.4552C230.454 63.9895 227.261 93.9493 219.786 119.26C212.312 144.57 201.296 170.208 205.017 196.327C208.11 218.037 221.57 237.556 239.426 250.288C257.281 263.02 279.192 269.326 301.082 270.669C322.972 272.011 346.366 267.95 362.538 253.194C378.71 238.438 384.155 210.903 369.886 194.33C362.491 185.753 351.449 181.397 340.828 177.456C330.207 173.515 319.131 169.387 311.436 161.077C303.741 152.767 300.748 138.886 307.996 130.168C316.379 120.081 338.724 118.973 346.606 108.498C352.238 101.023 345.658 86.628 339.258 79.5606" stroke="#D7282F" stroke-width="2.54" stroke-miterlimit="10" stroke-dasharray="7.62 7.62"/>
<path d="M95.1711 232.726C81.019 223.421 68.4806 211.869 58.0503 198.524C53.695 192.94 49.687 187.001 47.0417 180.428C44.3964 173.855 43.174 166.587 44.4699 159.627C45.4051 154.63 48.1172 149.433 52.9401 147.837C56.7076 146.587 60.9561 147.883 64.1024 150.315C67.2487 152.746 69.4464 156.173 71.3903 159.627C78.9053 172.987 83.5212 187.683 89.0789 201.971C91.6782 208.854 94.7241 215.559 98.1971 222.045C99.9462 225.254 101.873 228.363 103.969 231.357C105.879 234.029 109.346 236.975 110.548 239.9C107.803 242.078 97.7362 234.409 95.1711 232.726Z" fill="#FC8F93"/>
<path d="M55.3983 155.412C62.4308 184.894 78.409 211.479 101.143 231.524" stroke="white" stroke-width="2.02" stroke-miterlimit="10"/>
<path d="M283.213 232.873C295.359 226.963 306.459 219.109 316.072 209.62C320.08 205.652 323.881 201.363 326.646 196.433C329.412 191.504 331.135 185.879 330.821 180.234C330.601 176.186 328.984 171.798 325.33 170.034C322.478 168.658 318.978 169.252 316.246 170.849C313.514 172.445 311.416 174.93 309.526 177.469C302.178 187.255 297.041 198.437 291.176 209.159C288.407 214.336 285.306 219.327 281.89 224.102C280.179 226.463 278.335 228.725 276.366 230.875C274.576 232.819 271.536 234.77 270.287 236.961C272.258 238.972 281.015 233.942 283.213 232.873Z" fill="#FC8F93"/>
<path d="M322.632 175.786C314.039 198.389 298.664 217.781 278.617 231.304" stroke="white" stroke-width="1.61" stroke-miterlimit="10"/>
<path d="M101.277 213.562C108.872 176.107 100.776 135.72 79.3328 104.09" stroke="#FC8F93" stroke-width="2.54" stroke-miterlimit="10"/>
<path d="M81.604 107.79C75.4191 105.762 70.1667 101.583 66.8009 96.0124C63.435 90.4414 62.1789 83.848 63.2607 77.4297C69.7537 79.1732 75.8525 83.2079 79.2927 88.9727C82.7329 94.7376 83.1003 101.237 81.604 107.79Z" fill="#FC8F93"/>
<path d="M88.4109 119.915C86.9975 115.092 87.3599 109.923 89.4325 105.345C91.5051 100.767 95.1505 97.0844 99.7068 94.9648C101.444 99.8613 101.544 105.506 99.3862 110.229C97.2285 114.951 93.2472 118.018 88.4109 119.915Z" fill="#FC8F93"/>
<path d="M88.8451 119.44C85.0587 116.134 80.2119 114.298 75.1858 114.263C70.1598 114.229 65.2883 115.999 61.4571 119.253C65.1779 122.873 70.2614 125.331 75.4851 125.351C80.7089 125.371 85.0976 123.06 88.8451 119.44Z" fill="#FC8F93"/>
<path d="M96.1263 139.153C95.5723 134.158 96.829 129.13 99.6681 124.983C102.507 120.836 106.74 117.845 111.597 116.555C112.452 121.678 111.564 127.243 108.618 131.531C105.672 135.82 101.216 138.144 96.1263 139.153Z" fill="#FC8F93"/>
<path d="M96.634 138.812C93.4833 134.896 89.0315 132.241 84.0886 131.33C79.1456 130.419 74.0398 131.313 69.7002 133.849C72.7329 138.064 77.3087 141.37 82.3922 142.292C87.4757 143.214 92.292 141.671 96.634 138.812Z" fill="#FC8F93"/>
<path d="M101.237 158.397C101.117 153.374 102.804 148.474 105.991 144.589C109.179 140.705 113.654 138.093 118.605 137.229C119.012 142.406 117.643 147.917 114.336 151.925C111.029 155.933 106.393 157.823 101.237 158.397Z" fill="#FC8F93"/>
<path d="M101.771 158.077C98.972 153.903 94.7682 150.872 89.9237 149.534C85.0791 148.197 79.9155 148.642 75.3716 150.789C78.0436 155.251 82.2987 158.946 87.3087 160.308C92.3187 161.671 97.2218 160.575 101.771 158.077Z" fill="#FC8F93"/>
<path d="M104.189 179.56C104.852 174.578 107.282 169.999 111.035 166.656C114.789 163.313 119.618 161.428 124.643 161.344C124.242 166.521 122.038 171.724 118.15 175.165C114.263 178.605 109.379 179.807 104.189 179.56Z" fill="#61A9B8"/>
<path d="M104.77 179.34C102.655 174.78 98.9727 171.131 94.3934 169.058C89.8142 166.984 84.6426 166.625 79.8204 168.044C81.751 172.867 85.3982 177.175 90.1344 179.3C94.8705 181.424 99.8871 181.103 104.77 179.34Z" fill="#D7282F"/>
<path d="M278.136 226.473C269.913 189.152 277.335 148.638 298.243 116.647" stroke="#FC8F93" stroke-width="2.54" stroke-miterlimit="10"/>
<path d="M296.032 120.389C302.185 118.262 307.369 113.997 310.642 108.37C313.916 102.742 315.06 96.1273 313.868 89.7275C307.401 91.5779 301.369 95.7395 298.009 101.538C294.649 107.336 294.429 113.862 296.032 120.389Z" fill="#FC8F93"/>
<path d="M289.425 132.626C290.764 127.782 290.319 122.618 288.171 118.075C286.023 113.531 282.315 109.91 277.722 107.87C276.065 112.793 276.065 118.438 278.297 123.127C280.528 127.817 284.562 130.796 289.425 132.626Z" fill="#FC8F93"/>
<path d="M288.985 132.186C292.712 128.811 297.528 126.888 302.555 126.765C307.581 126.642 312.485 128.329 316.373 131.518C312.719 135.205 307.689 137.744 302.485 137.851C297.281 137.957 292.792 135.713 288.985 132.186Z" fill="#FC8F93"/>
<path d="M282.037 151.991C282.51 146.987 281.17 141.98 278.262 137.881C275.354 133.781 271.071 130.862 266.192 129.653C265.424 134.79 266.399 140.341 269.419 144.576C272.438 148.812 276.927 151.049 282.037 151.991Z" fill="#FC8F93"/>
<path d="M281.523 151.631C284.61 147.664 289.018 144.936 293.946 143.943C298.874 142.95 303.994 143.758 308.377 146.22C305.411 150.489 300.888 153.869 295.798 154.904C290.708 155.94 285.892 154.443 281.523 151.631Z" fill="#FC8F93"/>
<path d="M277.255 171.324C277.29 166.297 275.52 161.425 272.266 157.592C269.013 153.76 264.492 151.223 259.526 150.442C259.205 155.626 260.668 161.084 264.041 165.032C267.415 168.979 272.084 170.83 277.255 171.324Z" fill="#61A9B8"/>
<path d="M276.713 171.003C279.442 166.783 283.595 163.683 288.416 162.266C293.238 160.848 298.408 161.209 302.986 163.281C300.407 167.784 296.199 171.551 291.209 172.994C286.219 174.437 281.336 173.428 276.713 171.003Z" fill="#FC8F93"/>
<path d="M274.656 192.546C273.909 187.576 271.403 183.039 267.595 179.76C263.786 176.48 258.927 174.677 253.901 174.677C254.396 179.847 256.68 185.011 260.628 188.384C264.576 191.758 269.466 192.86 274.656 192.546Z" fill="#61A9B8"/>
<path d="M274.068 192.319C276.108 187.725 279.729 184.016 284.272 181.866C288.815 179.716 293.978 179.268 298.824 180.602C296.981 185.459 293.4 189.827 288.697 192.032C283.995 194.236 278.978 194.002 274.068 192.319Z" fill="#FC8F93"/>
<path d="M95.3715 251.61C97.449 247.836 100.201 244.336 102.011 240.455C97.0969 234.34 91.4932 228.812 85.3114 223.982C81.3315 220.818 77.1959 217.855 72.92 215.104L61.1365 224.456C61.8045 219.005 62.2186 214.263 62.7864 209.092C54.0487 204.352 44.8776 200.457 35.3984 197.462C33.2208 200.976 31.3904 204.704 28.4245 207.716C28.4158 203.532 28.119 199.354 27.5361 195.211C18.8104 192.959 9.89441 191.521 0.902916 190.916C0.882631 194.539 1.0834 198.159 1.50411 201.758C3.84879 201.05 5.66575 199.086 8.18411 198.698C6.54083 202.666 5.06455 207.022 3.11399 211.05C5.26295 220.638 8.9033 229.83 13.9022 238.291C18.0304 235.859 21.9182 232.512 26.8814 230.448C26.013 238.057 25.9997 246.019 25.345 253.721C27.9656 256.576 30.7729 259.254 33.7485 261.737C39.0002 266.101 44.7359 269.846 50.8426 272.9C52.0784 268.184 53.361 263.488 56.4204 259.54C60.0276 266.393 63.9354 272.499 67.2086 279.272C80.8906 283.2 95.2993 283.886 109.293 281.276C111.604 280.835 113.534 277.148 114.256 274.91C114.977 272.673 114.83 270.234 114.51 267.923C113.419 260.675 110.845 253.73 106.948 247.522C102.866 248.471 98.7449 249.606 95.3715 251.61Z" fill="#FC8F93"/>
<path d="M99.2793 274.169C67.1435 255.26 37.9101 231.804 12.486 204.53" stroke="white" stroke-width="2.54" stroke-miterlimit="10"/>
<path d="M284.95 259.165C283.006 256.574 280.581 254.269 278.818 251.57C281.827 246.498 285.414 241.79 289.506 237.542C292.131 234.761 294.896 232.115 297.789 229.613L307.562 235.331C306.466 231.323 305.665 227.856 304.689 224.069C310.68 219.607 317.084 215.728 323.814 212.486C325.818 214.87 327.595 217.449 330.1 219.373C329.663 216.259 329.44 213.118 329.432 209.974C335.687 207.359 342.173 205.333 348.804 203.922C349.196 206.611 349.419 209.321 349.472 212.038C347.655 211.764 346.092 210.488 344.208 210.475C345.845 213.247 347.415 216.34 349.292 219.159C348.719 226.524 346.992 233.753 344.175 240.582C340.835 239.212 337.602 237.142 333.674 236.133C335.137 241.704 335.998 247.629 337.308 253.287C335.662 255.693 333.859 257.987 331.91 260.154C328.465 263.964 324.594 267.366 320.374 270.294C318.951 266.914 317.495 263.554 314.796 260.942C312.846 266.433 310.588 271.397 308.871 276.787C299.1 281.171 288.442 283.218 277.742 282.766C275.979 282.686 274.148 280.141 273.373 278.558C272.682 276.925 272.362 275.159 272.438 273.387C272.478 267.876 273.653 262.432 275.892 257.395C279.038 257.629 282.224 258.037 284.95 259.165Z" fill="#FC8F93"/>
<path d="M284.449 276.367C306.349 258.865 325.604 238.289 341.616 215.278" stroke="white" stroke-width="1.91" stroke-miterlimit="10"/>
<path d="M282.111 148.999H95.9994C92.0113 148.999 88.7783 152.232 88.7783 156.22V275.612C88.7783 279.6 92.0113 282.833 95.9994 282.833H282.111C286.099 282.833 289.332 279.6 289.332 275.612V156.22C289.332 152.232 286.099 148.999 282.111 148.999Z" fill="#101439"/>
<path d="M286.845 217.345C287.622 214.068 285.595 210.781 282.318 210.003C279.041 209.226 275.754 211.253 274.976 214.531C274.199 217.808 276.226 221.095 279.504 221.872C282.781 222.649 286.068 220.622 286.845 217.345Z" fill="#1C2363"/>
<path d="M93.0535 238.544C92.7994 238.544 92.5478 238.494 92.3132 238.397C92.0785 238.299 91.8654 238.157 91.6861 237.977C91.5067 237.797 91.3647 237.583 91.268 237.348C91.1714 237.113 91.1221 236.861 91.123 236.607V195.191C91.123 194.679 91.3264 194.188 91.6884 193.826C92.0505 193.464 92.5415 193.261 93.0535 193.261C93.5655 193.261 94.0566 193.464 94.4186 193.826C94.7806 194.188 94.984 194.679 94.984 195.191V236.607C94.9849 236.861 94.9356 237.113 94.839 237.348C94.7424 237.583 94.6003 237.797 94.421 237.977C94.2416 238.157 94.0285 238.299 93.7938 238.397C93.5592 238.494 93.3076 238.544 93.0535 238.544Z" fill="#1C2363"/>
<path d="M272.452 153.936H97.7295V277.89H272.452V153.936Z" fill="#DCE8F4"/>
<path d="M272.452 153.936H97.7295V162.265H272.452V153.936Z" fill="#A6AFB8"/>
<path d="M102.806 158.444H100.595V161.257H102.806V158.444Z" fill="#FC6047"/>
<path d="M105.679 156.487H103.468V161.257H105.679V156.487Z" fill="#FC6047"/>
<path d="M108.718 155.131H106.507V161.256H108.718V155.131Z" fill="#FC6047"/>
<path d="M258.571 155.639V156.039C258.571 156.195 258.509 156.345 258.398 156.455C258.288 156.565 258.139 156.627 257.983 156.627H257.315C257.237 156.626 257.16 156.641 257.089 156.67C257.017 156.699 256.952 156.743 256.897 156.797C256.842 156.852 256.799 156.917 256.77 156.989C256.741 157.061 256.726 157.138 256.727 157.215V158.992C256.727 159.069 256.742 159.145 256.772 159.216C256.801 159.287 256.845 159.351 256.899 159.405C256.954 159.459 257.019 159.502 257.09 159.531C257.162 159.56 257.238 159.574 257.315 159.573H257.983C258.138 159.575 258.287 159.637 258.396 159.747C258.506 159.857 258.569 160.006 258.571 160.161V160.568C258.571 160.723 258.632 160.87 258.741 160.979C258.85 161.088 258.998 161.15 259.152 161.15H268.257C268.411 161.15 268.559 161.088 268.668 160.979C268.777 160.87 268.838 160.723 268.838 160.568V155.639C268.839 155.562 268.824 155.485 268.795 155.414C268.767 155.343 268.724 155.278 268.67 155.223C268.616 155.169 268.551 155.125 268.481 155.096C268.41 155.066 268.333 155.051 268.257 155.051H259.152C259.075 155.051 258.999 155.066 258.928 155.096C258.857 155.125 258.792 155.169 258.738 155.223C258.684 155.278 258.642 155.343 258.613 155.414C258.584 155.485 258.57 155.562 258.571 155.639Z" fill="#DCE8F4"/>
<path d="M268.283 155.352H266.653C266.535 155.352 266.44 155.447 266.44 155.565V160.629C266.44 160.747 266.535 160.843 266.653 160.843H268.283C268.401 160.843 268.497 160.747 268.497 160.629V155.565C268.497 155.447 268.401 155.352 268.283 155.352Z" fill="#B7FC47"/>
<path d="M265.765 155.352H264.135C264.017 155.352 263.921 155.447 263.921 155.565V160.629C263.921 160.747 264.017 160.843 264.135 160.843H265.765C265.883 160.843 265.979 160.747 265.979 160.629V155.565C265.979 155.447 265.883 155.352 265.765 155.352Z" fill="#B7FC47"/>
<path d="M263.247 155.352H261.617C261.499 155.352 261.403 155.447 261.403 155.565V160.629C261.403 160.747 261.499 160.843 261.617 160.843H263.247C263.365 160.843 263.46 160.747 263.46 160.629V155.565C263.46 155.447 263.365 155.352 263.247 155.352Z" fill="#B7FC47"/>
<path d="M254.001 158.103C254.001 158.567 253.864 159.021 253.606 159.406C253.349 159.792 252.982 160.092 252.554 160.27C252.126 160.447 251.654 160.494 251.199 160.403C250.745 160.313 250.327 160.089 249.999 159.761C249.671 159.433 249.448 159.016 249.357 158.561C249.267 158.106 249.313 157.635 249.491 157.206C249.668 156.778 249.969 156.412 250.354 156.154C250.74 155.896 251.193 155.759 251.657 155.759C252.279 155.759 252.875 156.006 253.315 156.446C253.754 156.885 254.001 157.482 254.001 158.103Z" fill="#DCE8F4"/>
<path d="M261.403 171.624H108.778V268.337H261.403V171.624Z" fill="#C3CED9"/>
<path d="M261.403 171.624H108.778V179.961H261.403V171.624Z" fill="#A7B1BA"/>
<path d="M258.317 184.283H158.397V188.251H258.317V184.283Z" fill="#E0EDFA"/>
<path d="M213.541 191.838H158.397V195.806H213.541V191.838Z" fill="#E0EDFA"/>
<path d="M188.07 199.387H158.397V203.355H188.07V199.387Z" fill="#E0EDFA"/>
<path d="M258.317 212.479H158.397V216.447H258.317V212.479Z" fill="#E0EDFA"/>
<path d="M213.541 220.034H158.397V224.002H213.541V220.034Z" fill="#E0EDFA"/>
<path d="M188.07 227.583H158.397V231.551H188.07V227.583Z" fill="#E0EDFA"/>
<path d="M258.317 240.014H158.397V243.982H258.317V240.014Z" fill="#E0EDFA"/>
<path d="M213.541 247.569H158.397V251.537H213.541V247.569Z" fill="#E0EDFA"/>
<path d="M188.07 255.117H158.397V259.085H188.07V255.117Z" fill="#E0EDFA"/>
<path d="M153.514 184.283H114.764V206.1H153.514V184.283Z" fill="#E0EDFA"/>
<path d="M114.764 206.1L134.136 195.191L153.514 206.1H114.764Z" fill="#CEDAE6"/>
<path d="M153.514 184.283L134.136 195.192L114.764 184.283H153.514Z" fill="#CEDAE6"/>
<path d="M153.514 212.353H114.764V234.169H153.514V212.353Z" fill="#E0EDFA"/>
<path d="M114.764 234.169L134.136 223.261L153.514 234.169H114.764Z" fill="#CEDAE6"/>
<path d="M153.514 212.353L134.136 223.261L114.764 212.353H153.514Z" fill="#CEDAE6"/>
<path d="M153.514 240.422H114.764V262.239H153.514V240.422Z" fill="#E0EDFA"/>
<path d="M114.764 262.239L134.136 251.33L153.514 262.239H114.764Z" fill="#CEDAE6"/>
<path d="M153.514 240.422L134.136 251.33L114.764 240.422H153.514Z" fill="#CEDAE6"/>
<g opacity="0.44">
<path d="M160.167 153.936L97.7295 216.373V161.811L105.612 153.936H160.167Z" fill="white"/>
<path d="M198.056 153.936L97.7295 254.262V226.353L170.147 153.936H198.056Z" fill="white"/>
</g>
<g opacity="0.44">
<path d="M272.452 167.423V221.985L216.54 277.89H161.991L272.452 167.423Z" fill="white"/>
<path d="M272.452 231.958V259.874L254.429 277.89H226.52L272.452 231.958Z" fill="white"/>
</g>
<path d="M144.062 147.574L180.558 119.12C181.68 118.245 183.059 117.771 184.478 117.771C185.898 117.771 187.277 118.245 188.399 119.12L224.89 147.574V195.259H144.062V147.574Z" fill="#FC8F93"/>
<path d="M215.538 122.446H153.414V191.25H215.538V122.446Z" fill="#FAFAFA"/>
<path d="M212.198 126.454H157.422V128.458H212.198V126.454Z" fill="#DBDBDB"/>
<path d="M203.514 130.462H157.422V132.466H203.514V130.462Z" fill="#DBDBDB"/>
<path d="M196.166 135.138H157.422V137.142H196.166V135.138Z" fill="#DBDBDB"/>
<path d="M196.166 143.154H157.422V145.158H196.166V143.154Z" fill="#DBDBDB"/>
<path d="M186.146 147.162H157.422V149.166H186.146V147.162Z" fill="#DBDBDB"/>
<path d="M213.534 155.178H184.81V157.85H213.534V155.178Z" fill="#DBDBDB"/>
<path d="M213.534 159.854H190.154V161.858H213.534V159.854Z" fill="#DBDBDB"/>
<path d="M184.81 171.544L144.062 147.83V195.258L184.81 171.544Z" fill="#FE4F56"/>
<path d="M184.81 171.544L224.89 147.83V195.258L184.81 171.544Z" fill="#FE4F56"/>
<path d="M180.558 166.557L144.062 195.258H224.89L188.394 166.557C187.273 165.676 185.894 165.198 184.476 165.198C183.058 165.198 181.679 165.676 180.558 166.557Z" fill="#FC8F93"/>
<path d="M229.151 152.611C230.263 148.61 227.921 144.466 223.921 143.354C219.921 142.243 215.777 144.585 214.665 148.585C213.553 152.585 215.895 156.729 219.895 157.841C223.896 158.953 228.04 156.611 229.151 152.611Z" fill="#FC6D5F"/>
<path d="M94.0555 70.8499C95.4974 70.8901 96.9004 71.327 98.1103 72.1124C99.313 72.9006 100.269 74.0119 100.869 75.3188C101.314 76.1911 101.571 77.1468 101.624 78.1244C101.665 78.9096 101.482 79.6904 101.096 80.3756C100.719 81.0174 100.152 81.5262 99.473 81.8318C98.9491 82.0994 98.3638 82.2238 97.7763 82.1925C97.2324 82.1368 96.7224 81.9018 96.3267 81.5245C96.2874 82.1234 96.0779 82.6987 95.7229 83.1826C95.3679 83.6666 94.8822 84.0392 94.3227 84.2566C93.6762 84.5714 92.9522 84.692 92.2386 84.604C91.4884 84.519 90.7753 84.2328 90.1744 83.7757C89.5042 83.2684 88.9733 82.5997 88.6314 81.8318C88.2535 81.083 88.0676 80.2521 88.0903 79.4136C88.1103 78.6613 88.3418 77.9297 88.7583 77.3028C89.1514 76.6948 89.7067 76.2089 90.3615 75.9C90.7847 75.6743 91.2523 75.5441 91.7313 75.5187C92.2102 75.4933 92.689 75.5733 93.1337 75.753L92.7462 74.9314L95.465 73.6421L97.8832 78.7256C97.9886 79.0078 98.1895 79.2441 98.451 79.3936C98.5541 79.4475 98.6686 79.4756 98.785 79.4756C98.9013 79.4756 99.0159 79.4475 99.119 79.3936C99.8181 79.0596 99.758 78.0309 98.9386 76.3074C98.486 75.3103 97.7672 74.4574 96.8611 73.8425C95.966 73.2512 94.9211 72.9268 93.8484 72.9073C92.6523 72.8917 91.47 73.1643 90.4016 73.7022C89.305 74.1957 88.3546 74.9642 87.6427 75.9334C86.9855 76.8334 86.5965 77.901 86.5205 79.0128C86.4471 80.1654 86.6774 81.3171 87.1885 82.3528C87.671 83.415 88.4186 84.3351 89.3595 85.0248C90.2545 85.677 91.3197 86.0553 92.4256 86.1137C93.6178 86.1685 94.8043 85.9178 95.8725 85.3856C97.0247 84.8487 98.0391 84.0559 98.8384 83.0676L100.308 84.5639C99.8576 85.1066 99.3415 85.5913 98.7716 86.0068C98.1469 86.4833 97.4755 86.8951 96.7676 87.2359C95.3009 87.9727 93.6717 88.3266 92.0315 88.2646C90.5414 88.1956 89.1001 87.7121 87.8698 86.8685C86.6181 85.9932 85.6239 84.7983 84.9908 83.4083C84.3184 82.046 84.0275 80.5271 84.1491 79.0128C84.2754 77.521 84.8195 76.0949 85.7189 74.898C86.7174 73.5803 88.0314 72.5351 89.5398 71.8586C90.9415 71.1625 92.4909 70.8164 94.0555 70.8499ZM94.9106 80.6094C95.0484 80.0564 94.972 79.4718 94.6968 78.9728C94.4859 78.4485 94.0818 78.0253 93.5679 77.7904C93.3378 77.7059 93.0931 77.6682 92.8483 77.6794C92.6034 77.6906 92.3633 77.7505 92.1418 77.8556C91.9204 77.9607 91.7221 78.1089 91.5587 78.2916C91.3952 78.4742 91.2698 78.6876 91.1898 78.9193C91.0907 79.4689 91.1662 80.0357 91.4059 80.5402C91.6455 81.0446 92.0372 81.4612 92.5258 81.7316C92.7533 81.8287 92.9994 81.8742 93.2465 81.865C93.4937 81.8557 93.7357 81.7919 93.9553 81.6782C94.1822 81.5794 94.385 81.4327 94.5498 81.2482C94.7147 81.0638 94.8378 80.8458 94.9106 80.6094Z" fill="#FC8F93"/>
<path d="M246.266 74.3969L245.404 77.1758L247.876 77.63L247.408 80.1818L244.623 79.6674L243.701 82.5398L241.029 82.0455L241.951 79.1731L239.519 78.7256L238.604 81.598L235.932 81.1036L236.854 78.2312L234.362 77.7703L234.83 75.2252L237.635 75.7396L238.497 72.9607L236.006 72.4998L236.473 69.9547L239.279 70.4691L240.201 67.5967L242.873 68.091L241.951 70.9634L244.382 71.411L245.297 68.5386L247.969 69.0329L247.048 71.9053L249.539 72.3595L249.072 74.9113L246.266 74.3969ZM243.594 73.9026L241.162 73.455L240.301 76.2339L242.732 76.6815L243.594 73.9026Z" fill="#FC8F93"/>
<path d="M117.462 246.293H84.2092C79.362 246.293 74.7133 244.368 71.2858 240.94C67.8583 237.513 65.9327 232.864 65.9327 228.017C65.9327 225.617 66.4055 223.241 67.3241 221.024C68.2426 218.807 69.589 216.792 71.2862 215.096C72.9834 213.399 74.9982 212.054 77.2156 211.136C79.433 210.218 81.8094 209.746 84.2092 209.747H99.1924C101.592 209.746 103.968 210.218 106.185 211.136C108.402 212.054 110.416 213.4 112.113 215.096C113.81 216.793 115.155 218.807 116.073 221.024C116.991 223.241 117.463 225.617 117.462 228.017V246.293Z" fill="#101439"/>
<path d="M91.6975 214.202C88.9636 214.202 86.2913 215.013 84.0183 216.532C81.7453 218.051 79.9738 220.21 78.9279 222.736C77.8821 225.261 77.6088 228.041 78.1426 230.722C78.6764 233.403 79.9934 235.866 81.927 237.798C83.8605 239.731 86.3238 241.047 89.0052 241.579C91.6867 242.112 94.4658 241.837 96.9911 240.79C99.5164 239.743 101.675 237.97 103.192 235.697C104.71 233.423 105.52 230.75 105.518 228.016C105.513 224.353 104.055 220.841 101.464 218.252C98.8731 215.662 95.3607 214.206 91.6975 214.202ZM79.6735 228.016C79.6765 227.117 79.7818 226.22 79.9874 225.344C81.0901 224.848 82.2346 224.45 83.4076 224.155C82.9912 226.421 82.9326 228.738 83.2339 231.022C82.1384 230.735 81.0028 230.388 79.8405 229.974C79.7308 229.327 79.6727 228.672 79.6668 228.016H79.6735ZM85.2312 223.728C89.2698 223 93.4086 223.032 97.4356 223.821C97.992 226.441 98.0914 229.137 97.7295 231.791C93.5147 232.478 89.2074 232.358 85.0375 231.437C84.5982 228.879 84.6617 226.261 85.2245 223.728H85.2312ZM99.3126 224.222C100.714 224.555 102.096 224.96 103.454 225.438C103.642 226.285 103.738 227.149 103.741 228.016C103.736 228.688 103.673 229.359 103.554 230.02C102.267 230.601 100.924 231.048 99.5465 231.356C99.8049 228.979 99.7239 226.577 99.306 224.222H99.3126ZM102.793 223.334C101.457 222.913 100.161 222.566 98.9119 222.292C98.5052 220.613 97.9669 218.969 97.302 217.375C99.76 218.673 101.697 220.777 102.786 223.334H102.793ZM94.9105 216.433C95.7888 218.189 96.4871 220.028 96.9947 221.924C93.2682 221.265 89.4585 221.224 85.7189 221.804C86.2602 219.977 87.0229 218.222 87.9901 216.58C89.1892 216.188 90.4426 215.988 91.7041 215.986C92.7862 215.988 93.8628 216.138 94.9039 216.433H94.9105ZM85.3715 217.803C84.7361 219.216 84.2199 220.679 83.8284 222.178C82.7811 222.414 81.7502 222.717 80.7423 223.087C81.7266 220.907 83.3353 219.068 85.3648 217.803H85.3715ZM80.3682 232.024C81.477 232.378 82.5459 232.692 83.5879 232.926C84.0526 234.888 84.8068 236.771 85.8257 238.511C83.2813 237.079 81.3405 234.775 80.3615 232.024H80.3682ZM88.7315 239.68C87.2817 237.785 86.1905 235.641 85.5118 233.354C87.8187 233.799 90.1629 234.023 92.5124 234.022C94.1266 234.023 95.7387 233.905 97.3354 233.668C96.7718 235.84 95.7917 237.881 94.4496 239.68C92.5683 240.134 90.604 240.115 88.7315 239.626V239.68ZM97.2419 238.698C98.1741 237.027 98.8497 235.225 99.2459 233.354C100.507 233.085 101.747 232.721 102.953 232.265C101.901 235.034 99.8683 237.321 97.2419 238.691V238.698Z" fill="#FAFAFA"/>
<path d="M281.556 268.832H248.297V250.556C248.297 245.708 250.222 241.06 253.65 237.632C257.077 234.205 261.726 232.279 266.573 232.279H281.556C286.404 232.279 291.052 234.205 294.48 237.632C297.907 241.06 299.833 245.708 299.833 250.556C299.833 255.403 297.907 260.051 294.48 263.479C291.052 266.906 286.404 268.832 281.556 268.832Z" fill="#101439"/>
<path d="M287.755 245.331C287.755 240.161 279.532 235.718 274.068 240.181C268.604 235.718 260.381 240.181 260.381 245.331C260.381 245.331 258.617 255.465 274.068 262.819C289.519 255.465 287.755 245.331 287.755 245.331Z" stroke="#FAFAFA" stroke-width="3.81" stroke-linejoin="round"/>
<path d="M237.388 27.5095C237.175 27.4293 236.961 27.3625 236.72 27.3024C236.665 27.0897 236.598 26.88 236.52 26.6745C236.158 25.7141 235.58 24.8501 234.83 24.1494C234.082 24.8508 233.506 25.7148 233.146 26.6745C233.066 26.8882 233 27.102 232.939 27.3425C232.726 27.4026 232.519 27.4694 232.305 27.5495C231.344 27.9114 230.48 28.4897 229.78 29.2396C230.481 29.987 231.345 30.563 232.305 30.9229C232.512 31.0031 232.726 31.0699 232.933 31.13C232.993 31.3371 233.06 31.5509 233.14 31.798C233.502 32.7583 234.08 33.6224 234.83 34.3231C235.613 33.612 236.213 32.723 236.58 31.7312C236.654 31.5175 236.727 31.3104 236.78 31.1033C236.994 31.0432 237.201 30.9764 237.415 30.8962C238.368 30.5316 239.225 29.9535 239.92 29.2062C239.22 28.4506 238.353 27.8695 237.388 27.5095Z" fill="#FC8F93"/>
<path d="M10.0278 168.872C9.8207 168.792 9.60694 168.725 9.39318 168.665C9.33527 168.452 9.26614 168.242 9.1861 168.037C8.82786 167.076 8.25163 166.212 7.50274 165.512C6.75534 166.213 6.17936 167.077 5.81939 168.037C5.73932 168.245 5.6702 168.456 5.6123 168.671C5.39854 168.731 5.18478 168.798 4.9777 168.878C4.01564 169.241 3.14951 169.819 2.44598 170.568C3.15556 171.3 4.02094 171.861 4.9777 172.212C5.18478 172.292 5.39855 172.359 5.60563 172.419C5.66575 172.633 5.73254 172.84 5.8127 173.087C6.17461 174.047 6.75291 174.911 7.50274 175.612C8.25257 174.911 8.83088 174.047 9.19278 173.087C9.27294 172.88 9.33975 172.666 9.39987 172.459C9.61363 172.399 9.8207 172.332 10.0278 172.252C10.9905 171.891 11.8569 171.312 12.5595 170.562C11.8585 169.809 10.9916 169.231 10.0278 168.872Z" fill="#FC8F93"/>
<path d="M254.81 127.93C254.596 127.85 254.382 127.783 254.142 127.723C254.086 127.511 254.019 127.301 253.941 127.095C253.579 126.135 253.001 125.271 252.251 124.57C251.504 125.272 250.928 126.136 250.568 127.095C250.488 127.309 250.421 127.523 250.361 127.73C250.147 127.79 249.94 127.857 249.726 127.937C248.766 128.299 247.902 128.877 247.201 129.627C247.903 130.374 248.767 130.95 249.726 131.31C249.933 131.391 250.147 131.457 250.354 131.518C250.414 131.725 250.481 131.938 250.561 132.152C250.923 133.112 251.501 133.976 252.251 134.677C253.009 133.974 253.59 133.102 253.948 132.132C254.021 131.918 254.095 131.711 254.148 131.504C254.362 131.444 254.569 131.377 254.816 131.297C255.777 130.935 256.641 130.357 257.341 129.607C256.639 128.859 255.773 128.285 254.81 127.93Z" fill="#FC8F93"/>
<path d="M342.732 40.616C342.627 40.5765 342.52 40.5431 342.411 40.5158C342.385 40.409 342.351 40.3041 342.311 40.2018C342.13 39.7189 341.84 39.2845 341.463 38.9326C341.088 39.2852 340.8 39.7196 340.621 40.2018C340.581 40.302 340.548 40.4089 340.514 40.5158C340.481 40.6227 340.307 40.5826 340.2 40.6227C339.718 40.8017 339.284 41.0898 338.931 41.4643C339.283 41.8413 339.717 42.1317 340.2 42.3127C340.303 42.3521 340.408 42.3856 340.514 42.4129C340.544 42.5217 340.579 42.6287 340.621 42.7335C340.804 43.1983 341.09 43.6161 341.456 43.956C341.834 43.6079 342.125 43.1753 342.304 42.6935C342.344 42.5866 342.378 42.4797 342.411 42.3728C342.518 42.3455 342.623 42.3121 342.725 42.2726C343.208 42.0916 343.642 41.8012 343.994 41.4243C343.639 41.0644 343.207 40.7883 342.732 40.616Z" fill="#FC8F93"/>
<path d="M368.75 115.799C368.648 115.759 368.543 115.725 368.437 115.699C368.437 115.592 368.37 115.485 368.33 115.385C368.161 114.896 367.88 114.455 367.508 114.096C367.131 114.448 366.841 114.882 366.66 115.365C366.619 115.467 366.586 115.572 366.559 115.679C366.451 115.708 366.344 115.744 366.239 115.786C365.759 115.966 365.327 116.254 364.976 116.627C365.326 117.004 365.758 117.294 366.239 117.476L366.553 117.576C366.586 117.683 366.62 117.79 366.66 117.897C366.839 118.378 367.13 118.811 367.508 119.159C367.884 118.809 368.174 118.377 368.356 117.897C368.396 117.792 368.429 117.685 368.457 117.576C368.563 117.55 368.668 117.516 368.771 117.476C369.255 117.298 369.69 117.007 370.04 116.627C369.68 116.255 369.239 115.972 368.75 115.799Z" fill="#DBF6FF"/>
<path d="M367.762 114.036C367.657 113.996 367.55 113.963 367.441 113.936C367.415 113.829 367.381 113.724 367.341 113.622C367.16 113.139 366.87 112.704 366.493 112.353C366.118 112.705 365.83 113.139 365.651 113.622C365.611 113.729 365.577 113.829 365.544 113.936L365.23 114.043C364.748 114.222 364.314 114.51 363.961 114.884C364.313 115.261 364.747 115.552 365.23 115.733C365.333 115.772 365.438 115.806 365.544 115.833C365.571 115.942 365.605 116.049 365.644 116.153C365.83 116.634 366.12 117.067 366.493 117.423C366.87 117.071 367.16 116.636 367.341 116.153C367.381 116.047 367.414 115.94 367.448 115.839L367.762 115.733C368.245 115.552 368.679 115.261 369.031 114.884C368.676 114.511 368.242 114.221 367.762 114.036Z" fill="#FC8F93"/>
<path d="M62.7263 137.022C62.6215 136.98 62.5145 136.945 62.4057 136.915C62.3784 136.809 62.3449 136.704 62.3055 136.601C62.1224 136.119 61.8323 135.685 61.4571 135.332C61.0837 135.686 60.7958 136.12 60.6155 136.601C60.5754 136.708 60.542 136.815 60.5086 136.922C60.4021 136.949 60.2972 136.983 60.1946 137.022C59.7117 137.203 59.2773 137.493 58.9254 137.87C59.2797 138.243 59.7136 138.531 60.1946 138.712C60.2972 138.752 60.4021 138.785 60.5086 138.812C60.5359 138.921 60.5693 139.028 60.6088 139.133C60.7927 139.614 61.0827 140.048 61.4571 140.402C61.8358 140.052 62.1265 139.617 62.3055 139.133C62.3456 139.026 62.379 138.926 62.4124 138.819C62.4458 138.712 62.6195 138.752 62.7263 138.712C63.2079 138.532 63.642 138.244 63.9955 137.87C63.6436 137.493 63.2092 137.203 62.7263 137.022Z" fill="#FC8F93"/>
<path d="M16.2803 270.549C16.1776 270.509 16.0728 270.476 15.9663 270.448C15.9663 270.342 15.8995 270.235 15.8594 270.134C15.6823 269.651 15.394 269.216 15.0177 268.865C14.6408 269.217 14.3504 269.652 14.1694 270.134C14.129 270.237 14.0955 270.342 14.0692 270.448C13.9604 270.478 13.8533 270.514 13.7485 270.555C13.2687 270.735 12.8367 271.023 12.486 271.397C12.836 271.773 13.2681 272.063 13.7485 272.245L14.0625 272.346C14.0625 272.452 14.1293 272.559 14.1694 272.666C14.3487 273.148 14.6394 273.581 15.0177 273.929C15.3939 273.579 15.6842 273.147 15.8661 272.666C15.9056 272.561 15.939 272.454 15.9663 272.346C16.0731 272.319 16.178 272.286 16.2803 272.245C16.765 272.068 17.2002 271.777 17.5495 271.397C17.1976 271.02 16.7632 270.73 16.2803 270.549Z" fill="#BCDFEB"/>
<path d="M196.019 70.0086C195.914 69.9691 195.807 69.9356 195.698 69.9084C195.665 69.8015 195.632 69.6946 195.592 69.5877C195.412 69.1079 195.124 68.6759 194.75 68.3252C194.376 68.6769 194.086 69.1084 193.901 69.5877C193.862 69.6926 193.829 69.7997 193.801 69.9084C193.692 69.9379 193.585 69.9736 193.481 70.0152C193.001 70.1952 192.569 70.4832 192.218 70.8569C192.569 71.2306 193.001 71.5186 193.481 71.6986C193.588 71.7387 193.694 71.7788 193.795 71.8055C193.895 71.8322 193.861 72.0192 193.901 72.1261C194.081 72.608 194.371 73.0406 194.75 73.3886C195.126 73.0386 195.416 72.6066 195.598 72.1261C195.638 72.0212 195.671 71.9142 195.698 71.8055C195.807 71.7782 195.914 71.7447 196.019 71.7053C196.5 71.5234 196.932 71.233 197.282 70.8569C196.932 70.4808 196.5 70.1905 196.019 70.0086Z" fill="#FC8F93"/>
<path d="M73.3408 27.0027L73.0202 26.8958C73.0202 26.7956 72.9534 26.6887 72.9133 26.5819C72.7333 26.102 72.4453 25.67 72.0716 25.3193C71.6971 25.6719 71.409 26.1063 71.23 26.5885C71.1854 26.6922 71.1496 26.7995 71.1231 26.9092C71.0144 26.9365 70.9073 26.9699 70.8024 27.0094C70.3219 27.1913 69.8899 27.4816 69.5399 27.8577C69.8906 28.2314 70.3226 28.5194 70.8024 28.6994L71.1231 28.8063C71.1494 28.9131 71.1829 29.018 71.2233 29.1203C71.4043 29.6031 71.6947 30.0376 72.0716 30.3895C72.4486 30.0376 72.739 29.6031 72.92 29.1203C72.9604 29.018 72.9939 28.9131 73.0202 28.8063C73.1289 28.779 73.2359 28.7456 73.3408 28.7061C73.8213 28.5242 74.2534 28.2339 74.6034 27.8577C74.256 27.4769 73.8234 27.1839 73.3408 27.0027Z" fill="#FC8F93"/>
<path d="M335.497 140.889L335.177 140.782C335.177 140.682 335.117 140.575 335.077 140.468C334.893 139.987 334.603 139.553 334.228 139.199C333.855 139.553 333.567 139.987 333.387 140.468C333.346 140.575 333.313 140.682 333.28 140.789C333.173 140.816 333.068 140.85 332.966 140.889C332.483 141.07 332.048 141.361 331.697 141.738C332.049 142.112 332.483 142.4 332.966 142.579L333.28 142.686C333.307 142.793 333.34 142.898 333.38 143C333.564 143.482 333.854 143.915 334.228 144.269C334.607 143.919 334.898 143.484 335.077 143C335.117 142.9 335.15 142.793 335.183 142.686L335.497 142.586C335.978 142.4 336.411 142.111 336.767 141.738C336.415 141.361 335.98 141.07 335.497 140.889Z" fill="#FC8F93"/>
<path d="M210.141 96.6482L209.82 96.548C209.793 96.4393 209.759 96.3323 209.72 96.2274C209.538 95.7469 209.247 95.3148 208.871 94.9648C208.499 95.3168 208.211 95.7484 208.03 96.2274C207.99 96.3342 207.956 96.4411 207.923 96.548C207.889 96.6549 207.716 96.6148 207.609 96.6549C207.127 96.834 206.692 97.122 206.34 97.4966C206.694 97.871 207.127 98.161 207.609 98.3449C207.711 98.3844 207.816 98.4178 207.923 98.4451C207.952 98.5539 207.988 98.661 208.03 98.7658C208.21 99.2456 208.498 99.6776 208.871 100.028C209.25 99.6802 209.54 99.2476 209.72 98.7658C209.761 98.661 209.797 98.5539 209.827 98.4451C209.933 98.4178 210.038 98.3844 210.141 98.3449C210.623 98.1639 211.058 97.8735 211.41 97.4966C211.056 97.1214 210.622 96.8313 210.141 96.6482Z" fill="#FC8F93"/>
<path d="M162.385 46.5276C162.202 46.4554 162.015 46.3952 161.824 46.3472C161.776 46.1587 161.716 45.9735 161.644 45.7928C161.328 44.9466 160.821 44.1852 160.161 43.5684C159.505 44.1871 159 44.9481 158.685 45.7928C158.611 45.9798 158.551 46.1669 158.497 46.3472C158.317 46.4007 158.13 46.4608 157.943 46.5343C157.109 46.8544 156.359 47.3618 155.752 48.0172C156.371 48.6731 157.132 49.1781 157.976 49.4935C158.157 49.5657 158.342 49.6259 158.531 49.6739C158.579 49.8646 158.639 50.0521 158.711 50.235C159.029 51.08 159.537 51.8409 160.194 52.4594C160.856 51.8429 161.366 51.0815 161.684 50.235C161.756 50.0543 161.816 49.8691 161.864 49.6806C162.053 49.6326 162.238 49.5723 162.419 49.5002C163.264 49.1822 164.025 48.6749 164.643 48.0172C164.017 47.3514 163.244 46.8412 162.385 46.5276Z" fill="#FC8F93"/>
<path d="M48.9789 100.462C48.7918 100.389 48.6048 100.329 48.4178 100.275C48.3697 100.089 48.3095 99.9058 48.2374 99.7274C47.9246 98.8814 47.4192 98.1198 46.7611 97.5029C46.1014 98.1197 45.5938 98.8812 45.2781 99.7274C45.2047 99.9144 45.1445 100.095 45.0911 100.282C44.9107 100.335 44.7237 100.395 44.5367 100.469C43.6907 100.782 42.9291 101.287 42.3122 101.945C42.929 102.605 43.6905 103.112 44.5367 103.428C44.7174 103.5 44.9026 103.56 45.0911 103.608C45.1391 103.799 45.1993 103.987 45.2715 104.17C45.5884 105.015 46.0985 105.774 46.7611 106.387C47.4198 105.772 47.9273 105.013 48.2441 104.17C48.3162 103.989 48.3765 103.804 48.4244 103.615C48.6115 103.562 48.7918 103.502 48.9789 103.435C49.8254 103.117 50.5867 102.607 51.2033 101.945C50.5884 101.283 49.8264 100.775 48.9789 100.462Z" fill="#FC8F93"/>
<path d="M288.684 82.5198C288.497 82.4463 288.31 82.3862 288.123 82.3327C288.069 82.1524 288.009 81.9653 287.943 81.785C287.625 80.94 287.117 80.1791 286.46 79.5605C285.802 80.1791 285.295 80.94 284.977 81.785C284.91 81.972 284.85 82.1524 284.796 82.3394C284.609 82.3929 284.422 82.453 284.235 82.5198C283.385 82.8476 282.622 83.3664 282.004 84.0361C282.621 84.6921 283.38 85.1992 284.222 85.5191C284.403 85.5903 284.588 85.6505 284.776 85.6995C284.83 85.8865 284.89 86.0735 284.957 86.2606C285.274 87.1058 285.784 87.8653 286.446 88.4783C287.109 87.8653 287.619 87.1058 287.936 86.2606C288.003 86.0735 288.063 85.8932 288.116 85.7061L288.671 85.5258C289.514 85.2056 290.273 84.696 290.888 84.0361C290.282 83.3656 289.527 82.8462 288.684 82.5198Z" fill="#FC8F93"/>
<path d="M399.679 57.5629C399.492 57.4961 399.311 57.4293 399.124 57.3826C399.071 57.1955 399.011 57.0152 398.944 56.8281C398.627 55.9844 398.12 55.2254 397.461 54.6104C396.802 55.2254 396.295 55.9844 395.978 56.8281C395.906 57.0111 395.846 57.1985 395.798 57.3892C395.607 57.4372 395.42 57.4974 395.237 57.5696C394.392 57.8837 393.632 58.3916 393.019 59.0526C393.632 59.7116 394.392 60.2173 395.237 60.5288C395.424 60.6023 395.604 60.6624 395.791 60.7159C395.845 60.8962 395.905 61.0833 395.971 61.2703C396.29 62.1168 396.8 62.8782 397.461 63.4948C398.123 62.8799 398.631 62.1179 398.944 61.2703C399.017 61.09 399.077 60.9047 399.124 60.7159C399.313 60.6689 399.499 60.6086 399.679 60.5355C400.526 60.2226 401.288 59.7145 401.903 59.0526C401.287 58.391 400.525 57.8811 399.679 57.5629Z" fill="#FC8F93"/>
<path d="M283.206 23.2483C283.025 23.1771 282.84 23.1169 282.652 23.0679C282.599 22.8809 282.538 22.7005 282.465 22.5135C282.152 21.6675 281.647 20.9059 280.989 20.2891C280.329 20.9059 279.821 21.6673 279.506 22.5135C279.435 22.6945 279.374 22.8797 279.325 23.0679C279.138 23.1214 278.951 23.1815 278.764 23.255C277.919 23.5691 277.16 24.077 276.546 24.7379C277.162 25.3949 277.921 25.9003 278.764 26.2142C278.945 26.2864 279.13 26.3466 279.319 26.3946C279.367 26.5853 279.427 26.7728 279.499 26.9557C279.817 27.8022 280.327 28.5636 280.989 29.1801C281.651 28.5653 282.159 27.8033 282.472 26.9557C282.544 26.775 282.604 26.5898 282.652 26.4013C282.841 26.3543 283.026 26.294 283.206 26.2209C284.051 25.9029 284.812 25.3956 285.431 24.7379C284.814 24.0764 284.053 23.5665 283.206 23.2483Z" fill="#FC8F93"/>
</svg>
