<svg width="879" height="878" viewBox="0 0 879 878" fill="none" xmlns="http://www.w3.org/2000/svg">
<g clip-path="url(#clip0_2409_5439)">
<path d="M382.3 766C376.2 801.3 370.1 836.1 364.1 871C181.4 843.9 -2.30011 675.6 -0.000109328 434.1C2.39989 190.9 197.9 6.5 424.7 0C410.8 75.8 396.9 151.3 382.9 226.9C369 302.4 355 377.9 340.9 454.3C373.7 449.1 406.1 444 439 438.7C426.2 512.3 413.6 584.9 401 657.8C363.3 651.1 329.8 636.3 300.5 612.7C251.5 573.1 222.3 521.7 217.8 458.9C211.1 366.6 248.6 295.5 327.3 246.6C351.7 231.4 361.3 200.7 348.3 174.9C335.3 149.2 303.7 136.6 278.3 149.1C263.2 156.5 249 166.4 235.7 176.8C169.7 228.7 127.3 295.9 113 378.8C93.6999 491.1 124 589.5 203.2 671.6C251.5 721.7 310.9 752.2 379.3 765.1C380.1 765.3 380.9 765.6 382.3 766Z" fill="#231F20"/>
<path d="M400.8 875.499C404.9 861.699 408.9 848.399 412.9 834.999C418.8 815.299 427.9 770.799 431.8 770.699C520.8 770.299 603.2 740.099 667.8 678.999C719 630.599 751.4 571.399 764.8 502.099C778.9 428.799 769.6 358.299 736.5 291.399C706.5 230.699 661.6 183.499 602.7 149.999C574.2 133.799 534.9 151.799 525.9 184.699C519.3 208.899 529.4 233.799 550.8 246.699C608.2 281.299 644.7 331.199 657.2 397.099C679.6 515.699 605.9 624.699 495.2 653.699C485.6 656.199 475.8 657.699 465.1 659.899C500.4 541.299 535.2 424.199 570.5 305.599C526.7 318.299 483.9 330.699 440.1 343.399C482 234.099 523.6 125.599 565.3 17.1992C807.5 95.3992 928.3 339.699 858.7 566.599C786.8 800.999 564.3 894.399 400.8 875.499Z" fill="#D7282F"/>
</g>
<defs>
<clipPath id="clip0_2409_5439">
<rect width="878.3" height="877.9" fill="white"/>
</clipPath>
</defs>
</svg>
