<svg width="49" height="49" viewBox="0 0 49 49" fill="none" xmlns="http://www.w3.org/2000/svg">
<g clip-path="url(#clip0_2900_5946)">
<path d="M24.4999 14.6406C19.0806 14.6406 14.6418 19.0794 14.6418 24.4987C14.6418 29.9181 19.0806 34.3568 24.4999 34.3568C29.9193 34.3568 34.358 29.9181 34.358 24.4987C34.358 19.0794 29.9193 14.6406 24.4999 14.6406ZM24.4999 32.8084C19.9064 32.8084 16.1902 29.0923 16.1902 24.4987C16.1902 19.9052 19.9064 16.189 24.4999 16.189C29.0935 16.189 32.8096 19.9052 32.8096 24.4987C32.8096 29.0923 29.0935 32.8084 24.4999 32.8084Z" fill="#D7282F"/>
<path d="M47.7258 19.7516H42.1C41.6871 18.2548 41.0677 16.8097 40.2935 15.4161L44.2677 11.4419C44.5774 11.1323 44.5774 10.6677 44.2677 10.3581L38.6419 4.73226C38.3323 4.42258 37.8677 4.42258 37.5581 4.73226L33.5839 8.70645C32.2419 7.93226 30.7968 7.3129 29.2484 6.9V1.27419C29.2484 0.86129 28.8871 0.5 28.4742 0.5H20.5258C20.1129 0.5 19.7516 0.86129 19.7516 1.27419V6.9C18.2548 7.3129 16.8097 7.93226 15.4161 8.70645L11.4419 4.73226C11.1323 4.42258 10.6677 4.42258 10.3581 4.73226L4.73226 10.3581C4.42258 10.6677 4.42258 11.1323 4.73226 11.4419L8.70645 15.4161C7.93226 16.7581 7.3129 18.2032 6.9 19.7516H1.27419C0.86129 19.7516 0.5 20.1129 0.5 20.5258V28.4742C0.5 28.8871 0.86129 29.2484 1.27419 29.2484H6.9C7.3129 30.7452 7.93226 32.1903 8.70645 33.5839L4.73226 37.5581C4.42258 37.8677 4.42258 38.3323 4.73226 38.6419L10.3581 44.2677C10.6677 44.5774 11.1323 44.5774 11.4419 44.2677L15.4161 40.2935C16.7581 41.0677 18.2032 41.6871 19.7516 42.1V47.7258C19.7516 48.1387 20.1129 48.5 20.5258 48.5H28.4742C28.8871 48.5 29.2484 48.1387 29.2484 47.7258V42.1C30.7452 41.6871 32.1903 41.0677 33.5839 40.2935L37.5581 44.2677C37.8677 44.5774 38.3323 44.5774 38.6419 44.2677L44.2677 38.6419C44.5774 38.3323 44.5774 37.8677 44.2677 37.5581L40.2935 33.5839C41.0677 32.2419 41.6871 30.7968 42.1 29.2484H47.7258C48.1387 29.2484 48.5 28.8871 48.5 28.4742V20.5258C48.5 20.0613 48.1387 19.7516 47.7258 19.7516ZM46.9516 27.7H41.4806C41.1194 27.7 40.8097 27.9581 40.7065 28.3194C40.2935 30.0742 39.6226 31.7774 38.6419 33.3258C38.4355 33.6355 38.4871 34.0484 38.7452 34.3064L42.6161 38.1774L38.0742 42.7194L34.2032 38.8484C33.9452 38.5903 33.5323 38.5387 33.2226 38.7452C31.6742 39.7258 30.0226 40.3968 28.2161 40.8097C27.8548 40.9129 27.5968 41.2226 27.5968 41.5839V47.0548H21.3V41.4806C21.3 41.1194 21.0419 40.8097 20.6806 40.7065C18.9258 40.2935 17.2226 39.6226 15.6742 38.6419C15.3645 38.4355 14.9516 38.4871 14.6935 38.7452L10.8226 42.6161L6.28064 38.0742L10.1516 34.2032C10.4097 33.9452 10.4613 33.5323 10.2548 33.2226C9.27419 31.6742 8.60323 30.0226 8.19032 28.2161C8.0871 27.8548 7.77742 27.5968 7.41613 27.5968H2.04839V21.3H7.51935C7.88065 21.3 8.19032 21.0419 8.29355 20.6806C8.70645 18.9258 9.37742 17.2226 10.3581 15.6742C10.5645 15.3645 10.5129 14.9516 10.2548 14.6935L6.38387 10.8226L10.9258 6.28064L14.7968 10.1516C15.0548 10.4097 15.4677 10.4613 15.7774 10.2548C17.3258 9.27419 18.9774 8.60323 20.7839 8.19032C21.1452 8.0871 21.4032 7.77742 21.4032 7.41613V2.04839H27.8032V7.51935C27.8032 7.88065 28.0613 8.19032 28.4226 8.29355C30.1774 8.70645 31.8806 9.37742 33.429 10.3581C33.7387 10.5645 34.1516 10.5129 34.4097 10.2548L38.2806 6.38387L42.8226 10.9258L38.9516 14.7968C38.6935 15.0548 38.6419 15.4677 38.8484 15.7774C39.829 17.3258 40.5 18.9774 40.9129 20.7839C41.0161 21.1452 41.3258 21.4032 41.6871 21.4032H47.1581V27.7H46.9516Z" fill="#D7282F"/>
</g>
<defs>
<clipPath id="clip0_2900_5946">
<rect width="48" height="48" fill="white" transform="translate(0.5 0.5)"/>
</clipPath>
</defs>
</svg>
