<svg width="50" height="50" viewBox="0 0 50 50" fill="none" xmlns="http://www.w3.org/2000/svg">
<g clip-path="url(#clip0_2900_5951)">
<path d="M16.9307 17.2053C17.3034 16.8346 17.5988 16.3938 17.8 15.9082C18.0011 15.4226 18.1039 14.9019 18.1024 14.3763V5.67838C18.105 4.93491 17.8991 4.20561 17.5082 3.57317C17.1174 2.94073 16.5571 2.43045 15.891 2.10019L12.8595 0.584485C12.7375 0.523487 12.602 0.494682 12.4657 0.500807C12.3295 0.506932 12.1971 0.547783 12.0811 0.61948C11.965 0.691177 11.8693 0.791341 11.8029 0.91046C11.7364 1.02958 11.7016 1.1637 11.7016 1.30008V11.3702L9.30123 13.7705L6.9009 11.3702V1.30008C6.9009 1.1637 6.86603 1.02958 6.79961 0.91046C6.73319 0.791341 6.63743 0.691177 6.52141 0.61948C6.40539 0.547783 6.27297 0.506932 6.13672 0.500807C6.00048 0.494682 5.86493 0.523487 5.74294 0.584485L2.71143 2.10019C2.04533 2.43045 1.48508 2.94073 1.09422 3.57317C0.703357 4.20561 0.497511 4.93491 0.500023 5.67838V14.3764C0.498583 14.9019 0.601406 15.4226 0.802539 15.9081C1.00367 16.3937 1.29912 16.8346 1.67178 17.2052L3.58115 19.1146C4.356 19.8849 4.94423 20.8224 5.30075 21.8552C5.65726 22.888 5.7726 23.9888 5.63793 25.073L3.58015 42.0501C3.482 42.8595 3.55672 43.6806 3.79939 44.459C4.04206 45.2374 4.44715 45.9555 4.98788 46.5657C5.52862 47.176 6.1927 47.6646 6.93624 47.9992C7.67978 48.3338 8.48587 48.5068 9.30123 48.5068C10.1166 48.5068 10.9227 48.3338 11.6662 47.9992C12.4098 47.6646 13.0738 47.176 13.6146 46.5657C14.1553 45.9555 14.5604 45.2374 14.8031 44.459C15.0457 43.6806 15.1205 42.8595 15.0223 42.0501L12.9645 25.073C12.8299 23.9888 12.9452 22.888 13.3017 21.8552C13.6582 20.8224 14.2465 19.8849 15.0213 19.1146L16.9307 17.2053ZM11.3759 25.2656L13.4338 42.2427C13.5047 42.8274 13.4508 43.4205 13.2755 43.9828C13.1003 44.5451 12.8077 45.0638 12.4171 45.5047C12.0265 45.9455 11.5468 46.2984 11.0097 46.5402C10.4726 46.7819 9.89032 46.9069 9.30133 46.9069C8.71235 46.9069 8.13007 46.7819 7.59297 46.5402C7.05587 46.2984 6.57617 45.9455 6.18558 45.5047C5.79499 45.0638 5.5024 44.5451 5.32713 43.9828C5.15187 43.4205 5.09792 42.8274 5.16886 42.2427L7.22665 25.2656C7.39126 23.9403 7.25029 22.595 6.81455 21.3327C6.37881 20.0704 5.65986 18.9246 4.7128 17.9831L2.80334 16.0737C2.57975 15.8513 2.40249 15.5868 2.2818 15.2955C2.16112 15.0042 2.09941 14.6918 2.10024 14.3765V5.67828C2.09876 5.23222 2.22229 4.79466 2.45681 4.41522C2.69134 4.03578 3.02748 3.72963 3.42712 3.53149L5.30068 2.59466V11.7015C5.30067 11.8066 5.32136 11.9106 5.36157 12.0077C5.40178 12.1048 5.46071 12.193 5.53501 12.2673L8.73545 15.4677C8.80975 15.542 8.89796 15.601 8.99503 15.6412C9.09211 15.6814 9.19616 15.7021 9.30123 15.7021C9.40631 15.7021 9.51035 15.6814 9.60743 15.6412C9.70451 15.601 9.79271 15.542 9.86701 15.4677L13.0674 12.2673C13.1417 12.193 13.2007 12.1048 13.2409 12.0077C13.2811 11.9106 13.3018 11.8066 13.3018 11.7015V2.59466L15.1753 3.53149C15.575 3.72964 15.9112 4.0358 16.1457 4.41526C16.3802 4.79472 16.5037 5.2323 16.5022 5.67838V14.3764C16.5031 14.6917 16.4413 15.0041 16.3207 15.2954C16.2 15.5867 16.0227 15.8512 15.7991 16.0736L13.8899 17.9831C12.9428 18.9246 12.2238 20.0704 11.7881 21.3327C11.3523 22.595 11.2113 23.9403 11.3759 25.2656Z" fill="#D7282F"/>
<path d="M9.30097 40.5055C8.82623 40.5055 8.36215 40.6463 7.96741 40.9101C7.57268 41.1738 7.26503 41.5487 7.08335 41.9873C6.90167 42.4259 6.85414 42.9085 6.94676 43.3741C7.03937 43.8398 7.26798 44.2674 7.60368 44.6031C7.93937 44.9388 8.36707 45.1674 8.83268 45.2601C9.2983 45.3527 9.78093 45.3051 10.2195 45.1235C10.6581 44.9418 11.033 44.6341 11.2968 44.2394C11.5605 43.8447 11.7013 43.3806 11.7013 42.9059C11.7006 42.2695 11.4475 41.6593 10.9975 41.2094C10.5475 40.7594 9.93735 40.5062 9.30097 40.5055ZM9.30097 43.706C9.14272 43.706 8.98803 43.659 8.85645 43.5711C8.72487 43.4832 8.62232 43.3582 8.56176 43.212C8.5012 43.0658 8.48536 42.905 8.51623 42.7498C8.5471 42.5946 8.62331 42.452 8.7352 42.3401C8.8471 42.2282 8.98967 42.152 9.14487 42.1211C9.30008 42.0902 9.46095 42.1061 9.60715 42.1666C9.75336 42.2272 9.87832 42.3298 9.96623 42.4613C10.0542 42.5929 10.1011 42.7476 10.1011 42.9059C10.1008 43.118 10.0164 43.3213 9.86644 43.4713C9.71644 43.6213 9.51309 43.7057 9.30097 43.706ZM26.1296 29.8911C26.104 29.291 25.8539 28.7224 25.4288 28.298L24.9315 27.8009C24.7976 27.6673 24.6544 27.5433 24.5031 27.4298V2.90036C24.5031 2.79528 24.4824 2.69124 24.4422 2.59416C24.402 2.49708 24.343 2.40888 24.2687 2.33458L22.6685 0.734361C22.5942 0.66006 22.506 0.601121 22.4089 0.560909C22.3118 0.520697 22.2078 0.5 22.1027 0.5C21.9976 0.5 21.8936 0.520697 21.7965 0.560909C21.6994 0.601121 21.6112 0.66006 21.5369 0.734361L19.9367 2.33458C19.8624 2.40888 19.8035 2.49708 19.7633 2.59416C19.7231 2.69124 19.7024 2.79528 19.7024 2.90036V27.4298C19.551 27.5433 19.4078 27.6673 19.2739 27.8009L18.7767 28.298C18.3515 28.7224 18.1014 29.291 18.0759 29.8911L17.4766 43.675C17.4493 44.2994 17.5488 44.923 17.769 45.508C17.9892 46.093 18.3256 46.6274 18.7578 47.0789C19.1901 47.5304 19.7093 47.8898 20.2842 48.1353C20.859 48.3808 21.4776 48.5073 22.1027 48.5073C22.7278 48.5073 23.3464 48.3808 23.9213 48.1353C24.4961 47.8898 25.0153 47.5304 25.4476 47.0789C25.8799 46.6274 26.2162 46.093 26.4364 45.508C26.6566 44.923 26.7561 44.2994 26.7289 43.675L26.1296 29.8911ZM21.3026 3.2317L22.1027 2.43159L22.9028 3.2317V26.7118C22.3748 26.6049 21.8307 26.6049 21.3026 26.7118V3.2317ZM24.2914 45.9718C23.8653 46.4168 23.3136 46.7213 22.71 46.8448C22.1063 46.9682 21.4794 46.9048 20.9128 46.6628C20.3461 46.4208 19.8667 46.0119 19.5384 45.4905C19.2101 44.9691 19.0486 44.36 19.0753 43.7445L19.6746 29.9606C19.6831 29.7605 19.7665 29.5709 19.9082 29.4295L20.4054 28.9324C20.8559 28.4829 21.4663 28.2305 22.1027 28.2305C22.7391 28.2305 23.3495 28.4829 23.8001 28.9324L24.2972 29.4295C24.439 29.5709 24.5224 29.7605 24.5309 29.9606L25.1301 43.7445C25.1494 44.1533 25.085 44.5617 24.9408 44.9447C24.7965 45.3277 24.5756 45.6772 24.2914 45.9718Z" fill="#D7282F"/>
<path d="M21.3027 30.1066H22.903V45.3087H21.3027V30.1066ZM45.306 30.1066H44.2062C45.3731 29.3343 46.3569 28.3161 47.0889 27.1235C47.8208 25.9309 48.2831 24.5926 48.4433 23.2025C48.6035 21.8124 48.4578 20.4041 48.0163 19.0762C47.5749 17.7483 46.8484 16.5331 45.8878 15.5156L44.7243 16.614C45.3576 17.2846 45.87 18.0597 46.239 18.905H44.7598C44.6185 18.5064 44.4511 18.1174 44.2587 17.7408L42.8339 18.4691C43.4108 19.5942 43.7098 20.8411 43.7058 22.1055C43.7055 23.3506 43.4147 24.5784 42.8564 25.6913C42.2981 26.8042 41.4878 27.7715 40.4899 28.5161C39.492 29.2608 38.3342 29.7623 37.1084 29.9807C35.8826 30.1991 34.6227 30.1285 33.4291 29.7744C32.2354 29.4202 31.1409 28.7924 30.2325 27.9409C29.3242 27.0893 28.6271 26.0375 28.1967 24.8692C27.7664 23.7008 27.6146 22.4481 27.7536 21.2108C27.8925 19.9735 28.3183 18.7857 28.9971 17.7419L27.6566 16.8678C26.2683 19.0013 25.7844 21.5989 26.3112 24.0893C26.838 26.5796 28.3324 28.7588 30.4657 30.1474C29.9149 30.2504 29.4175 30.5425 29.0592 30.9734C28.701 31.4042 28.5045 31.9466 28.5037 32.5069V34.9072C28.5033 35.4981 28.7217 36.0682 29.1168 36.5075C28.7217 36.9468 28.5033 37.5168 28.5037 38.1077V40.508C28.5033 41.0989 28.7217 41.6689 29.1168 42.1082C28.7217 42.5475 28.5033 43.1176 28.5037 43.7085V46.1088C28.5044 46.7452 28.7576 47.3553 29.2076 47.8053C29.6575 48.2553 30.2677 48.5084 30.9041 48.5091H45.306C45.9424 48.5084 46.5525 48.2553 47.0025 47.8053C47.4525 47.3553 47.7056 46.7452 47.7064 46.1088V43.7085C47.7068 43.1176 47.4884 42.5475 47.0933 42.1082C47.4884 41.6689 47.7068 41.0989 47.7064 40.508V38.1077C47.7068 37.5168 47.4884 36.9468 47.0933 36.5075C47.4884 36.0682 47.7068 35.4981 47.7064 34.9072V32.5069C47.7056 31.8705 47.4525 31.2604 47.0025 30.8104C46.5525 30.3604 45.9424 30.1073 45.306 30.1066ZM45.1737 20.5053H46.7445C47.016 21.8347 46.9449 23.2114 46.5379 24.5058H45.0023C45.2045 23.7217 45.3066 22.9152 45.306 22.1055C45.3062 21.5693 45.2619 21.0341 45.1737 20.5053ZM44.4318 26.106H45.8298C44.8969 27.7154 43.4351 28.9517 41.6931 29.6045C42.8655 28.667 43.8032 27.4692 44.4318 26.106ZM46.1061 46.1088C46.1059 46.3209 46.0215 46.5243 45.8715 46.6743C45.7215 46.8243 45.5182 46.9086 45.306 46.9089H30.9041C30.6919 46.9086 30.4886 46.8243 30.3386 46.6743C30.1886 46.5243 30.1042 46.3209 30.1039 46.1088V43.7085C30.1042 43.4963 30.1886 43.293 30.3386 43.143C30.4886 42.993 30.6919 42.9086 30.9041 42.9083H45.306C45.5182 42.9086 45.7215 42.993 45.8715 43.143C46.0215 43.293 46.1059 43.4963 46.1061 43.7085V46.1088ZM46.1061 40.508C46.1059 40.7201 46.0215 40.9235 45.8715 41.0735C45.7215 41.2235 45.5182 41.3079 45.306 41.3081H30.9041C30.6919 41.3079 30.4886 41.2235 30.3386 41.0735C30.1886 40.9235 30.1042 40.7201 30.1039 40.508V38.1077C30.1042 37.8956 30.1886 37.6922 30.3386 37.5422C30.4886 37.3922 30.6919 37.3078 30.9041 37.3076H45.306C45.5182 37.3078 45.7215 37.3922 45.8715 37.5422C46.0215 37.6922 46.1059 37.8956 46.1061 38.1077V40.508ZM46.1061 34.9072C46.1059 35.1194 46.0215 35.3227 45.8715 35.4727C45.7215 35.6227 45.5182 35.7071 45.306 35.7074H30.9041C30.6919 35.7071 30.4886 35.6227 30.3386 35.4727C30.1886 35.3227 30.1042 35.1194 30.1039 34.9072V32.5069C30.1042 32.2948 30.1886 32.0914 30.3386 31.9414C30.4886 31.7915 30.6919 31.7071 30.9041 31.7068H45.306C45.5182 31.7071 45.7215 31.7915 45.8715 31.9414C46.0215 32.0914 46.1059 32.2948 46.1061 32.5069V34.9072Z" fill="#D7282F"/>
<path d="M35.7044 28.5038V26.9036C35.2399 26.904 34.7778 26.8371 34.3324 26.705L33.876 28.2387C34.4695 28.415 35.0853 28.5043 35.7044 28.5038ZM29.9199 19.3593C29.5118 20.2162 29.3012 21.1538 29.3036 22.103C29.3042 23.1347 29.5539 24.151 30.0314 25.0655C30.5088 25.9801 31.2 26.7659 32.0462 27.3561L32.9618 26.0436C32.3269 25.6009 31.8083 25.0114 31.45 24.3254C31.0917 23.6393 30.9044 22.8769 30.9038 22.103C30.9018 21.3914 31.0596 20.6885 31.3653 20.046L29.9199 19.3593ZM35.9388 21.8686C36.0131 21.9429 36.1013 22.0019 36.1983 22.0421C36.2954 22.0823 36.3995 22.103 36.5045 22.103C36.6096 22.103 36.7137 22.0823 36.8107 22.0421C36.9078 22.0019 36.996 21.9429 37.0703 21.8686L44.2713 14.6676C44.3832 14.5557 44.4594 14.4132 44.4903 14.258C44.5212 14.1028 44.5053 13.9419 44.4448 13.7957C44.3842 13.6495 44.2816 13.5245 44.1501 13.4366C44.0185 13.3487 43.8638 13.3018 43.7055 13.3018H40.5051V1.30011C40.5051 1.08791 40.4208 0.884396 40.2707 0.734347C40.1207 0.584297 39.9172 0.5 39.705 0.5H33.3041C33.0919 0.5 32.8884 0.584297 32.7383 0.734347C32.5883 0.884396 32.504 1.08791 32.504 1.30011V13.3018H29.3036C29.1453 13.3018 28.9906 13.3487 28.859 13.4366C28.7274 13.5245 28.6249 13.6495 28.5643 13.7957C28.5038 13.9419 28.4879 14.1028 28.5188 14.258C28.5497 14.4132 28.6259 14.5557 28.7378 14.6676L35.9388 21.8686ZM33.3041 14.902C33.5163 14.902 33.7198 14.8177 33.8699 14.6676C34.0199 14.5176 34.1042 14.3141 34.1042 14.1019V2.10022H38.9049V14.1019C38.9049 14.3141 38.9892 14.5176 39.1392 14.6676C39.2893 14.8177 39.4928 14.902 39.705 14.902H41.7739L36.5045 20.1713L31.2352 14.902H33.3041Z" fill="#D7282F"/>
</g>
<defs>
<clipPath id="clip0_2900_5951">
<rect width="49" height="49" fill="white" transform="translate(0.5 0.5)"/>
</clipPath>
</defs>
</svg>
