<svg width="40" height="49" viewBox="0 0 40 49" fill="none" xmlns="http://www.w3.org/2000/svg">
<g clip-path="url(#clip0_2900_5949)">
<path d="M8.20642 34.9464L5.51842 35.5448C4.09354 35.854 2.81813 36.6432 1.90572 37.7805C0.993313 38.9178 0.49931 40.334 0.506423 41.792V43.0864C0.507655 43.9633 0.796316 44.8156 1.32819 45.5128C1.86006 46.2099 2.60582 46.7135 3.45122 46.9464C6.04722 47.6544 10.9744 48.5 19.7064 48.5C28.4384 48.5 33.3656 47.6544 35.9616 46.9464C36.807 46.7135 37.5528 46.2099 38.0847 45.5128C38.6165 44.8156 38.9052 43.9633 38.9064 43.0864V41.792C38.9135 40.334 38.4195 38.9178 37.5071 37.7805C36.5947 36.6432 35.3193 35.854 33.8944 35.5448L31.2064 34.9464L27.5392 32.7472L26.0648 29.3072L26.5448 28.7544L26.9056 28.8512C27.2831 28.9511 27.6719 29.0019 28.0624 29.0024C29.2421 28.9999 30.3725 28.5294 31.2057 27.6943C32.0388 26.8592 32.5066 25.7276 32.5064 24.548V23.588C33.1916 23.4111 33.7988 23.0121 34.2331 22.4533C34.6673 21.8946 34.9041 21.2076 34.9064 20.5V17.3C34.9038 16.5926 34.6668 15.9061 34.2326 15.3477C33.7984 14.7892 33.1913 14.3904 32.5064 14.2136V13.3C32.5064 9.90523 31.1579 6.6495 28.7574 4.24903C26.3569 1.84857 23.1012 0.5 19.7064 0.5C16.3117 0.5 13.0559 1.84857 10.6555 4.24903C8.25499 6.6495 6.90642 9.90523 6.90642 13.3V14.2136C6.22151 14.3904 5.61449 14.7892 5.18026 15.3477C4.74604 15.9061 4.50908 16.5926 4.50642 17.3V20.5C4.50642 21.3487 4.84357 22.1626 5.44368 22.7627C6.0438 23.3629 6.85773 23.7 7.70642 23.7H9.30643C9.57958 23.6973 9.85022 23.6476 10.1064 23.5528V23.8288C10.106 24.9709 10.5205 26.0743 11.2728 26.9336L13.3528 29.3056L11.8776 32.7456L8.20642 34.9464ZM12.2792 34.3696C13.7262 36.2762 15.7075 37.7095 17.9712 38.4872C17.1998 39.2426 16.5589 40.1207 16.0744 41.0856C13.5561 39.91 11.3601 38.1417 9.67442 35.932L12.2792 34.3696ZM37.3064 41.792V43.0864C37.3068 43.6132 37.1341 44.1255 36.815 44.5447C36.4958 44.9638 36.0479 45.2666 35.54 45.4064C33.0384 46.0856 28.2608 46.9 19.7064 46.9C11.152 46.9 6.37442 46.0856 3.87282 45.4024C3.36559 45.2627 2.91815 44.9606 2.5991 44.5423C2.28004 44.1239 2.10697 43.6125 2.10642 43.0864V41.792C2.10094 40.6984 2.47152 39.6361 3.15607 38.7832C3.84062 37.9302 4.79752 37.3385 5.86642 37.1072L8.16562 36.596C9.06722 37.8064 11.8008 41.1288 15.6712 42.6472C16.0024 42.7745 16.3695 42.7715 16.6985 42.6387C17.0275 42.506 17.2939 42.2534 17.444 41.932C17.9688 40.8216 18.7431 39.8475 19.7064 39.0856C20.67 39.8473 21.4448 40.8211 21.9704 41.9312C22.0838 42.1727 22.2635 42.377 22.4886 42.5202C22.7137 42.6634 22.9748 42.7396 23.2416 42.74C23.4136 42.7402 23.5841 42.7079 23.744 42.6448C27.6136 41.1248 30.3472 37.804 31.2488 36.5936L33.548 37.1048C34.617 37.3365 35.5739 37.9287 36.2582 38.7821C36.9424 39.6355 37.3125 40.6982 37.3064 41.792ZM23.3384 41.0856C22.8544 40.1204 22.2134 39.2423 21.4416 38.4872C23.7053 37.7095 25.6866 36.2762 27.1336 34.3696L29.7384 35.932C28.0526 38.1415 25.8567 39.9098 23.3384 41.0856ZM29.7944 26.808C29.2141 27.2499 28.4855 27.4505 27.7608 27.368L28.14 26.9344C28.8923 26.0747 29.3068 24.9711 29.3064 23.8288V23.5528C29.5626 23.6476 29.8333 23.6973 30.1064 23.7H30.9064V24.548C30.908 24.985 30.8084 25.4164 30.6155 25.8084C30.4226 26.2005 30.1416 26.5426 29.7944 26.808ZM27.7064 14.088C20.3568 13.8672 18.8592 10.6264 18.8496 10.6032C18.7903 10.4546 18.6877 10.3273 18.5552 10.2376C18.4228 10.1479 18.2664 10.0999 18.1064 10.1C15.7788 10.1037 13.5396 10.9919 11.8424 12.5848C12.5584 8.6144 15.9848 5.3 19.7064 5.3C21.8274 5.30233 23.8609 6.14593 25.3607 7.64572C26.8605 9.1455 27.7041 11.179 27.7064 13.3V14.088ZM33.3064 17.3V20.5C33.3064 20.9243 33.1379 21.3313 32.8378 21.6314C32.5377 21.9314 32.1308 22.1 31.7064 22.1H30.1064C29.8943 22.1 29.6908 22.0157 29.5407 21.8657C29.3907 21.7157 29.3064 21.5122 29.3064 21.3V16.5C29.3064 16.2878 29.3907 16.0843 29.5407 15.9343C29.6908 15.7843 29.8943 15.7 30.1064 15.7H31.7064C32.1308 15.7 32.5377 15.8686 32.8378 16.1686C33.1379 16.4687 33.3064 16.8757 33.3064 17.3ZM19.7064 2.1C22.6759 2.10318 25.5228 3.28419 27.6225 5.38391C29.7222 7.48363 30.9033 10.3306 30.9064 13.3V14.1H30.1064C29.8333 14.1027 29.5626 14.1524 29.3064 14.2472V13.3C29.3037 10.7548 28.2914 8.31457 26.4916 6.51482C24.6919 4.71506 22.2517 3.70275 19.7064 3.7C14.592 3.7 10.1064 8.56 10.1064 14.1V14.2472C9.85022 14.1524 9.57958 14.1027 9.30643 14.1H8.50642V13.3C8.5096 10.3306 9.69062 7.48363 11.7903 5.38391C13.8901 3.28419 16.737 2.10318 19.7064 2.1ZM9.30643 22.1H7.70642C7.28208 22.1 6.87511 21.9314 6.57505 21.6314C6.275 21.3313 6.10642 20.9243 6.10642 20.5V17.3C6.10642 16.8757 6.275 16.4687 6.57505 16.1686C6.87511 15.8686 7.28208 15.7 7.70642 15.7H9.30643C9.5186 15.7 9.72208 15.7843 9.87211 15.9343C10.0221 16.0843 10.1064 16.2878 10.1064 16.5V21.3C10.1064 21.5122 10.0221 21.7157 9.87211 21.8657C9.72208 22.0157 9.5186 22.1 9.30643 22.1ZM11.7064 23.8288V15.14C12.3808 14.164 13.2639 13.3504 14.2917 12.758C15.3195 12.1657 16.4663 11.8095 17.6488 11.7152C18.404 12.8584 20.8904 15.4872 27.7064 15.6824V23.8288C27.7065 24.5837 27.4325 25.3129 26.9352 25.8808L25.9992 26.9504L23.7592 26.352L23.7832 26.2528C23.8322 26.0484 23.8403 25.8363 23.8073 25.6287C23.7742 25.4211 23.7005 25.222 23.5905 25.0429C23.4805 24.8638 23.3362 24.7081 23.166 24.5847C22.9958 24.4614 22.8029 24.3728 22.5984 24.324L20.2648 23.764C19.6455 23.6157 18.9926 23.7195 18.4498 24.0525C17.907 24.3856 17.5187 24.9207 17.3704 25.54C17.2221 26.1593 17.3259 26.8122 17.659 27.355C17.992 27.8978 18.5271 28.2861 19.1464 28.4344L21.48 28.9944C21.6032 29.0239 21.7294 29.039 21.856 29.0392C22.1974 29.0394 22.5297 28.9294 22.8036 28.7256C23.0774 28.5218 23.2782 28.2351 23.376 27.908L24.8232 28.2952L23.6264 29.66C23.2859 30.0494 22.866 30.3615 22.3949 30.5754C21.9239 30.7893 21.4126 30.8999 20.8952 30.9H18.5176C18.0003 30.8997 17.4891 30.7889 17.0181 30.575C16.5471 30.3612 16.1271 30.0492 15.7864 29.66L12.4792 25.88C11.9814 25.3126 11.7067 24.5836 11.7064 23.8288ZM22.2264 25.8808L21.8552 27.436L19.5208 26.876C19.4174 26.8528 19.3197 26.8092 19.2332 26.7479C19.1468 26.6866 19.0734 26.6087 19.0173 26.5188C18.9613 26.4288 18.9236 26.3287 18.9066 26.2241C18.8895 26.1195 18.8935 26.0125 18.9181 25.9094C18.9427 25.8064 18.9876 25.7092 19.0501 25.6236C19.1126 25.538 19.1915 25.4657 19.2822 25.4109C19.3729 25.356 19.4736 25.3198 19.5784 25.3042C19.6832 25.2886 19.7901 25.2939 19.8928 25.32L22.2264 25.8808ZM14.58 30.7136C15.071 31.2749 15.6764 31.7248 16.3555 32.0329C17.0347 32.341 17.7719 32.5003 18.5176 32.5H20.8952C21.641 32.5002 22.3782 32.3409 23.0573 32.0328C23.7364 31.7247 24.3418 31.2749 24.8328 30.7136L24.8968 30.6408L25.9984 33.2128C24.4806 35.3061 22.2374 36.759 19.7064 37.288C17.1754 36.759 14.9322 35.3061 13.4144 33.2128L14.5168 30.6408L14.58 30.7136Z" fill="#D7282F"/>
</g>
<defs>
<clipPath id="clip0_2900_5949">
<rect width="39" height="48" fill="white" transform="translate(0.5 0.5)"/>
</clipPath>
</defs>
</svg>
