<svg width="438" height="426" viewBox="0 0 438 426" fill="none" xmlns="http://www.w3.org/2000/svg">
<g clip-path="url(#clip0_3752_9152)">
<path d="M93.5059 78.0422L20.583 87.9856L26.8922 134.256L99.8151 124.313L93.5059 78.0422Z" fill="#EBEBEB"/>
<path d="M93.5 78C90.9 81.2 88.3 84.3 85.7 87.5C83.1 90.6 80.4 93.7 77.8 96.8C75 100 72.3 103.2 69.5 106.4C69.4 106.5 69.3 106.6 69.3 106.7C66.8 109.5 64.4 112.3 61.9 115.1L61.5 115.5L61 115.2C57.9 113.2 54.7 111.1 51.6 109C51.5 108.9 51.4 108.9 51.3 108.8C47.8 106.5 44.2 104.1 40.7 101.7C37.3 99.4 34 97.1 30.6 94.8C27.3 92.4 23.9 90.1 20.5 87.7C24 89.7 27.4 91.8 30.8 93.9C34.2 96 37.7 98.1 41.1 100.2C44.9 102.6 48.7 105 52.5 107.4C55.3 109.2 58.2 111 61 112.9C63.2 110.4 65.5 107.8 67.8 105.3C70.8 101.9 73.8 98.6 76.9 95.3C79.6 92.3 82.4 89.4 85.1 86.4C88 83.8 90.7 80.9 93.5 78Z" fill="white"/>
<path d="M52.9004 108.7C52.8004 108.8 52.8004 108.8 52.9004 108.7C52.5004 109.2 52.1004 109.6 51.8004 109.9C50.2004 111.7 48.5004 113.4 46.8004 115.1C44.7004 117.2 42.6004 119.2 40.4004 121.2C38.2004 123.2 36.0004 125.2 33.8004 127.1C31.5004 129 29.3004 130.9 26.9004 132.7C28.8004 130.5 30.9004 128.3 33.0004 126.3C35.1004 124.2 37.2004 122.2 39.4004 120.2C41.6004 118.2 43.8004 116.2 46.0004 114.3C47.8004 112.8 49.6004 111.3 51.5004 109.8C51.9004 109.5 52.4004 109.1 52.8004 108.8C52.8004 108.8 52.8004 108.8 52.9004 108.7Z" fill="white"/>
<path d="M99.5 122.8C96.7 121.7 94 120.5 91.4 119.3C88.7 118.1 86.1 116.7 83.4 115.4C80.8 114 78.2 112.7 75.6 111.2C73.5 110 71.4 108.8 69.4 107.5C69 107.2 68.5 106.9 68.1 106.7C68.1 106.7 68 106.7 68 106.6H68.1C68.6 106.8 69.1 107 69.6 107.2C71.8 108.1 73.9 109.1 76.1 110C78.8 111.2 81.4 112.6 84 113.9C86.6 115.3 89.2 116.6 91.8 118.1C94.4 119.7 97 121.2 99.5 122.8Z" fill="white"/>
<path d="M329.083 -0.051437L317.256 56.0166L405.614 74.6545L417.441 18.5865L329.083 -0.051437Z" fill="#EBEBEB"/>
<path d="M417.4 18.5999C413.1 21.2999 408.8 23.7999 404.5 26.3999C400.2 28.8999 395.9 31.3999 391.5 33.8999C387 36.4999 382.4 38.9999 377.9 41.5999C377.8 41.6999 377.6 41.7999 377.5 41.8999C373.5 44.0999 369.5 46.3999 365.5 48.5999L364.9 48.8999L364.5 48.3999C361.7 44.6999 359 41.0999 356.2 37.3999C356.1 37.2999 356 37.1999 355.9 36.9999C352.8 32.7999 349.7 28.6999 346.6 24.4999C343.6 20.4999 340.7 16.3999 337.8 12.3999C334.9 8.29985 332 4.19985 329.1 0.0998535C332.3 3.79985 335.4 7.69985 338.5 11.4999C341.6 15.2999 344.7 19.1999 347.8 23.0999C351.2 27.3999 354.6 31.7999 358 36.1999C360.5 39.4999 363.1 42.7999 365.6 45.9999C369.2 43.9999 372.9 41.9999 376.5 40.0999C381.4 37.4999 386.2 34.8999 391.1 32.2999C395.5 29.9999 399.8 27.6999 404.2 25.4999C408.6 22.9999 413 20.7999 417.4 18.5999Z" fill="white"/>
<path d="M357.799 37.2998L357.699 37.3998C357.199 37.6998 356.599 37.9998 356.099 38.2998C353.499 39.6998 350.799 40.9998 348.199 42.2998C344.899 43.8998 341.599 45.2998 338.299 46.6998C334.999 48.0998 331.599 49.4998 328.199 50.6998C324.799 51.9998 321.399 53.1998 317.899 54.2998C321.099 52.4998 324.299 50.8998 327.599 49.3998C330.899 47.7998 334.199 46.3998 337.499 44.9998C340.799 43.5998 344.199 42.1998 347.599 40.8998C350.299 39.8998 352.999 38.8998 355.799 37.9998C356.399 37.7998 357.099 37.5998 357.699 37.3998C357.599 37.2998 357.699 37.2998 357.799 37.2998Z" fill="white"/>
<path d="M405.799 72.7999C402.999 70.3999 400.399 67.8999 397.799 65.3999C395.199 62.8999 392.699 60.2999 390.199 57.5999C387.699 54.8999 385.299 52.2999 382.899 49.4999C380.999 47.2999 379.099 44.9999 377.299 42.6999C376.899 42.1999 376.499 41.6999 376.099 41.1999C376.599 41.6999 377.099 42.0999 377.599 42.4999C379.799 44.3999 381.899 46.3999 383.899 48.4999C386.499 50.9999 388.999 53.5999 391.499 56.2999C393.999 58.9999 396.399 61.5999 398.799 64.3999C401.199 67.0999 403.599 69.8999 405.799 72.7999Z" fill="white"/>
<path d="M390.701 260.6C389.301 265 389.101 269.8 389.701 274.4C391.101 284.1 398.401 291.8 400.001 301.3C399.801 302.4 399.601 303.6 399.301 304.8C399.301 304.8 399.301 304.8 399.301 304.9C399.301 305 399.301 305 399.401 305C399.501 304.9 399.501 304.7 399.601 304.6C399.701 304.4 399.801 304.1 399.901 303.9C400.101 303.6 400.201 303.2 400.301 302.9L400.401 302.7C404.001 292.9 400.701 282 399.001 272.1C398.001 266.4 398.401 260.7 397.601 255C397.401 253.6 397.401 251.1 395.501 251.6C393.301 252.1 391.301 258.8 390.701 260.6Z" fill="#5F98E6"/>
<path d="M392.201 268.9C391.601 280.7 402.501 291 399.901 302.8C399.801 303.1 399.701 303.5 399.601 303.8C399.501 304 399.501 304.3 399.401 304.5C399.401 304.6 399.301 304.7 399.301 304.8C399.301 304.8 399.301 304.8 399.301 304.9C399.301 305 399.301 305 399.401 305C399.401 305 399.501 305 399.501 304.9C399.601 304.6 399.801 304.2 399.901 303.8C400.201 302.9 400.401 302.1 400.501 301.2C401.601 296 401.401 290.9 400.301 285.4C399.001 278.7 397.201 272.2 396.001 265.5C395.801 264.7 395.801 261.4 394.501 261.8C392.801 262.4 392.301 267.6 392.201 268.9ZM392.801 267.2C392.901 266.5 393.801 262.1 394.901 262.6C395.601 262.9 395.601 266.2 395.701 266.7C396.101 268.5 396.501 270.3 396.901 272.2C397.701 276 398.601 279.9 399.401 283.7C400.401 288.4 401.001 293.2 400.701 297.9C400.101 287.5 391.001 277.9 392.801 267.2Z" fill="white"/>
<path d="M387.901 373.7C387.901 373.9 388.001 374.1 388.201 373.9C397.101 368.2 408.301 372.8 417.501 367.7C421.201 365.6 424.401 362.7 427.401 359.8C429.601 357.6 431.801 355.3 433.401 352.6C433.601 352.2 434.701 350.8 434.601 350.1C433.201 344.6 418.901 353.9 416.501 355.2C407.101 360.3 398.601 365 390.401 371.5C389.501 372.2 388.701 372.9 387.801 373.6C387.901 373.7 387.901 373.7 387.901 373.7Z" fill="#5F98E6"/>
<path d="M387.9 373.7C388.2 373.5 388.5 373.3 388.9 373.1C395 370.2 401.9 369.1 408.5 367.4C415.2 365.7 420.8 362.9 425.8 358.1C426.7 357.2 430.3 354 429.2 352.3C428.2 350.8 424.6 353.7 423.7 354.2C417.1 357.9 410.6 361.7 403.6 364.9C399.2 366.9 394.7 369 390.5 371.5C389.6 372.2 388.8 372.9 387.9 373.6C387.9 373.7 387.9 373.7 387.9 373.7ZM392.1 371.3C397 368.6 402.1 366.3 407.2 363.9C410.7 362.2 414.1 360.5 417.5 358.5C419.3 357.4 421.1 356.3 423 355.3C423.9 354.8 424.8 354.3 425.8 353.8C426.3 353.5 427.8 352.7 428.2 353.4C429.3 355.3 419 365 406.3 367.6C401.4 368.4 396.6 369.5 392.1 371.3Z" fill="white"/>
<path d="M402.801 356.8V356.9H402.901C403.101 356.7 403.301 356.5 403.501 356.4C404.201 355.7 404.801 355.1 405.501 354.4C405.601 354.3 405.701 354.2 405.801 354H405.901C413.001 346.7 423.801 344.5 429.901 336C432.601 332.2 434.301 327.9 435.601 323.5C436.201 321.6 438.901 315.8 436.501 314.2C434.601 313 431.701 315.6 430.501 316.7C426.601 320.1 423.901 325 421.201 329.3C418.501 333.6 416.101 338 413.601 342.3C411.301 346.3 408.501 349.9 405.601 353.5C404.701 354.6 403.701 355.7 402.801 356.8Z" fill="#5F98E6"/>
<path d="M402.801 356.8V356.9C403.401 356.3 404.001 355.7 404.601 355.1C404.201 355.5 403.901 356 403.501 356.4C404.201 355.7 404.801 355.1 405.501 354.4C405.801 354 406.101 353.7 406.401 353.3C410.501 349.3 414.901 345.7 419.501 342.4C421.801 340.7 423.801 338.9 425.401 336.5C428.401 332.2 433.001 322.1 432.101 320.6C431.201 319 429.301 322.3 428.801 323C424.601 328.7 421.301 334.8 416.801 340.3C413.801 344 410.701 347.6 407.701 351.2C406.901 351.9 406.201 352.7 405.501 353.5C404.701 354.6 403.701 355.7 402.801 356.8ZM431.501 321C432.301 321.3 431.101 324 430.801 324.8C429.301 328.2 427.601 331.7 425.801 335C423.801 338.5 421.001 340.8 417.801 343C415.201 344.9 412.601 346.9 410.101 349.1C413.101 345.7 416.101 342.2 418.901 338.6C421.201 335.6 423.201 332.4 425.301 329.3C426.301 327.7 427.301 326.1 428.401 324.6C428.601 324.2 430.801 320.7 431.501 321Z" fill="white"/>
<path d="M349.601 401.8C349.601 401.9 349.601 401.9 349.601 401.8C349.701 401.9 349.801 401.9 349.801 401.8C349.801 401.6 349.901 401.4 349.901 401.1C350.101 400.3 350.201 399.4 350.301 398.6C350.301 398.4 350.301 398.3 350.401 398.1C350.401 398.1 350.401 398.1 350.501 398C352.101 389 358.901 381.9 359.101 372.7C359.201 368.6 358.301 364.5 357.001 360.6C356.401 358.9 355.501 353.2 353.001 353.3C351.001 353.4 350.201 356.7 349.801 358.2C348.701 362.7 349.101 367.6 349.301 372.2C349.501 376.7 349.901 381.1 350.301 385.6C350.601 389.7 350.401 393.8 350.101 397.8C349.901 399.2 349.801 400.5 349.601 401.8Z" fill="#5F98E6"/>
<path d="M349.601 401.8C349.601 401.9 349.601 401.9 349.601 401.8C349.801 401.1 349.901 400.4 350.001 399.7C349.901 400.2 349.901 400.7 349.901 401.2C350.101 400.4 350.201 399.5 350.301 398.7C350.301 398.3 350.401 397.8 350.401 397.4C351.401 392.4 352.801 387.5 354.601 382.8C355.501 380.4 356.001 378 356.001 375.5C356.001 370.8 354.401 361.1 352.901 360.4C351.401 359.7 351.701 363 351.701 363.8C351.501 370.1 352.101 376.3 351.601 382.5C351.201 386.7 350.801 390.9 350.401 395.1C350.201 396 350.001 397 349.901 397.9C349.901 399.2 349.801 400.5 349.601 401.8ZM351.101 392.5C351.601 388.5 352.101 384.4 352.301 380.4C352.501 377 352.401 373.7 352.301 370.3C352.301 368.6 352.201 366.9 352.201 365.3C352.201 364.8 352.001 361.2 352.701 361C353.401 360.8 353.901 363.4 354.101 364.1C354.701 367.4 355.301 370.8 355.601 374.1C355.901 377.7 355.001 380.8 353.801 384.1C352.701 386.8 351.801 389.6 351.101 392.5Z" fill="white"/>
<path d="M348.601 409.3C348.801 409.3 349.001 409.2 349.301 409.1C358.401 405.6 368.401 405.4 377.601 402C381.601 400.5 385.401 398.2 388.301 395C389.501 393.6 393.801 388.8 392.801 386.6C390.001 379.9 359.201 401 349.101 408.5C348.901 408.6 348.701 408.7 348.601 408.8C348.301 409 348.301 409.3 348.601 409.3Z" fill="#5F98E6"/>
<path d="M348.601 409.3C349.301 408.9 350.001 408.5 350.601 408.2C352.801 407.3 355.101 406.5 357.301 405.7C360.901 404.6 364.601 403.9 368.301 403C374.001 401.6 379.401 398.8 383.701 394.8C384.601 393.9 387.501 391.6 386.801 390C386.201 388.5 383.901 390 383.101 390.4C371.501 395.9 360.201 402.3 349.001 408.5C348.801 408.6 348.601 408.7 348.401 408.8C348.301 409 348.301 409.3 348.601 409.3ZM354.001 406.3C358.401 403.9 362.801 401.5 367.201 399.2C370.701 397.4 374.101 395.5 377.601 393.7C379.301 392.8 381.001 391.9 382.701 391C383.401 390.7 386.001 389.3 386.301 390.3C386.501 391.2 384.701 393 384.401 393.4C379.201 398.8 372.501 401.5 365.401 403.1C361.501 403.9 357.601 405 354.001 406.3Z" fill="white"/>
<path d="M392.301 332.1C392.201 332.2 392.201 332.3 392.301 332.5C392.401 332.7 392.501 332.8 392.701 332.8C392.801 332.8 392.901 332.8 393.001 332.8C393.101 332.8 393.101 332.8 393.201 332.7C397.501 328.5 404.101 324.6 408.501 320.5C411.901 317.4 414.701 313.7 417.101 309.7C419.701 305.3 421.901 300.6 423.401 295.7C424.101 293.4 426.101 287.8 424.201 285.5C420.301 280.8 412.401 298 411.301 299.9C404.901 310.6 398.601 321.3 392.301 332.1Z" fill="#5F98E6"/>
<path d="M392.301 332.5C392.401 332.7 392.501 332.8 392.701 332.8C393.001 332.4 393.201 332.1 393.501 331.7C395.201 329.7 396.901 327.7 398.701 325.8C401.601 322.7 405.001 320.1 407.801 316.9C412.701 311.4 421.901 293.8 419.301 292C417.901 291.1 416.201 294.7 415.701 295.6C413.701 299 412.201 302.6 410.101 306C408.001 309.5 405.701 313 403.301 316.4C399.701 321.7 396.101 326.9 392.601 332.2C392.501 332.2 392.401 332.3 392.301 332.5ZM395.801 328.2C399.001 323.6 402.101 318.9 405.301 314.2C407.501 311 409.601 307.7 411.601 304.3C412.701 302.4 413.601 300.5 414.601 298.5C415.101 297.6 415.501 296.6 416.101 295.7C416.601 294.9 418.301 291.6 419.101 292.8C419.801 294 417.501 299.2 417.001 300.4C416.101 302.4 415.201 304.3 414.201 306.2C412.201 310 410.001 313.6 407.101 316.8C404.201 319.9 400.901 322.6 398.001 325.7C397.301 326.6 396.501 327.4 395.801 328.2Z" fill="white"/>
<path d="M340.601 340.7C348.501 349.3 361.301 351.7 366.001 366.8C366.001 366.9 366.101 366.9 366.101 366.8C366.101 366.8 366.101 366.8 366.101 366.7C365.801 365.2 365.501 363.7 365.101 362.2C362.901 354.1 359.201 346.2 354.101 339.6C351.101 335.6 347.501 332 343.401 329.1C341.301 327.6 336.801 323.8 334.201 324.4C328.601 325.7 339.201 339.1 340.601 340.7Z" fill="#5F98E6"/>
<path d="M341.101 335.4C344.301 341.7 350.601 345.7 355.501 350.6C358.801 354 361.901 357.6 364.301 361.7C365.001 363.4 365.601 365.1 366.201 366.8C366.201 366.8 366.201 366.8 366.201 366.7C365.901 365.2 365.601 363.7 365.201 362.2C365.101 362.1 365.101 362 365.101 362C363.401 357.4 361.101 352.9 358.501 348.8C354.901 343.1 350.501 337.8 345.401 333.3C344.501 332.5 341.601 329.1 340.101 330C338.601 330.8 340.701 334.5 341.101 335.4ZM340.601 330.5C341.701 330.1 346.801 335.1 348.801 337.2C353.101 341.6 356.801 346.6 359.901 352C361.201 354.4 362.401 356.8 363.401 359.2C361.701 356.7 359.801 354.3 357.701 352C353.301 347.3 347.901 343.6 343.901 338.5C342.901 337.2 342.001 335.8 341.301 334.2C340.801 333.7 339.601 330.9 340.601 330.5Z" fill="white"/>
<path d="M350.501 293.7C350.001 297.9 349.901 302.2 350.401 306.4C351.301 314.6 354.201 322.3 358.701 329.3C358.801 329.4 358.901 329.5 358.901 329.7C359.001 330.1 359.001 330.5 359.101 330.9C359.101 331 359.101 331.1 359.201 331.2C359.201 331.2 359.201 331.2 359.201 331.3C359.301 331.4 359.401 331.3 359.401 331.2C359.401 330.7 359.401 330.2 359.401 329.7C359.601 319.5 361.401 309.5 360.101 299.3C359.801 297.1 358.301 282.5 353.201 285C350.901 285.9 350.701 291.5 350.501 293.7Z" fill="#5F98E6"/>
<path d="M352.501 295.7C352.101 302 353.801 308.7 355.101 314.9C356.101 319.7 357.201 324.5 358.701 329.2C358.801 329.6 358.901 330 359.101 330.4C359.101 330.5 359.201 330.7 359.201 330.8C359.201 330.9 359.201 331 359.301 331.1C359.401 331.2 359.501 331.1 359.501 331C359.501 330.5 359.501 330 359.501 329.5C359.401 329.1 359.301 328.8 359.201 328.4C358.501 322.8 358.501 317.3 358.601 311.6C358.601 308.6 358.601 305.5 358.301 302.5C358.001 299.6 357.901 296.5 357.001 293.7C356.601 292.5 355.801 290.1 354.101 291C352.501 291.7 352.601 294.4 352.501 295.7ZM356.301 293.6C357.401 296.9 357.501 300.8 357.801 304.2C358.001 307.5 358.001 310.8 358.001 314.2C358.001 317.7 357.901 321.3 358.201 324.8C357.001 320.4 355.801 315.9 355.001 311.4C354.301 307.8 353.701 304.3 353.301 300.7C353.101 298.8 353.001 297 353.101 295.1C353.201 294.4 353.201 293.8 353.401 293.1C353.801 291.1 355.801 292.1 356.301 293.6Z" fill="white"/>
<path d="M413.201 267.1C413.201 267.3 413.101 267.4 413.101 267.6C413.101 267.9 413.301 268 413.501 267.9C413.601 267.9 413.701 267.8 413.701 267.7C413.801 267.4 413.801 267.1 413.901 266.8C414.001 266.6 414.001 266.3 414.101 266.1C414.301 265.7 414.601 265.3 414.801 264.9C417.501 260.8 422.201 257.3 425.401 253.8C428.301 250.6 431.001 247.3 433.301 243.6C435.501 239.9 437.301 235.8 437.901 231.4C438.001 230.2 438.601 227.3 437.101 226.5C435.201 225.6 432.401 229.1 431.401 230C428.001 233.2 425.001 237 422.601 241C417.501 249.2 415.001 258 413.201 267.1Z" fill="#5F98E6"/>
<path d="M414.001 265.1C413.701 265.8 413.401 266.4 413.201 267.1C413.201 267.3 413.101 267.4 413.101 267.6C413.101 267.9 413.301 268 413.501 267.9C413.501 267.8 413.601 267.7 413.601 267.6C413.701 267.3 413.801 267.1 413.901 266.8C414.201 266.2 414.501 265.5 414.801 264.9C415.901 262.7 417.201 260.7 418.801 258.6C421.401 255.1 424.101 251.8 426.601 248.2C427.801 246.4 437.401 232.6 433.601 231.3C432.901 231 432.201 232 431.801 232.4C430.501 233.8 429.401 235.4 428.401 237C426.001 240.7 423.801 244.6 421.601 248.4C418.701 253.9 416.101 259.4 414.001 265.1ZM420.801 250.9C422.601 247.5 424.501 244.1 426.601 240.7C427.601 239.1 428.601 237.4 429.601 235.9C430.101 235.1 432.801 231.6 433.501 232.1C434.601 232.8 432.001 238.2 431.301 239.7C430.401 241.4 429.401 243 428.401 244.6C426.401 247.8 424.101 250.9 421.801 253.9C419.801 256.6 417.301 259.4 415.401 262.5C417.001 258.5 418.801 254.7 420.801 250.9Z" fill="white"/>
<path d="M380.501 315C380.601 315.2 380.601 315.3 380.701 315.5C380.801 315.7 381.101 315.7 381.201 315.6C381.301 315.5 381.301 315.4 381.301 315.3C381.201 315 381.101 314.7 381.001 314.4C380.901 314.2 380.901 313.9 380.801 313.7C380.801 313.2 380.801 312.8 380.801 312.3C381.101 307.4 383.401 302 384.401 297.4C385.301 293.2 386.001 288.9 386.101 284.6C386.201 280.2 385.601 275.8 383.901 271.8C383.401 270.7 382.401 267.9 380.801 268C378.701 268.1 378.101 272.6 377.701 273.9C376.301 278.4 375.701 283.1 375.601 287.8C375.201 297.3 377.401 306.2 380.501 315Z" fill="#5F98E6"/>
<path d="M380.2 312.9C380.3 313.6 380.4 314.4 380.5 315.1C380.6 315.3 380.6 315.4 380.7 315.6C380.8 315.8 381.1 315.8 381.2 315.7C381.2 315.6 381.1 315.5 381.1 315.3C381.1 315 381 314.8 381 314.5C380.9 313.8 380.9 313.1 380.8 312.4C380.7 310 380.8 307.5 381.1 304.9C381.6 300.6 382.3 296.3 382.6 292C382.8 289.8 384.1 273.2 380.2 273.9C379.5 274 379.4 275.2 379.2 275.7C378.7 277.6 378.6 279.5 378.6 281.4C378.4 285.8 378.4 290.3 378.5 294.7C378.6 300.8 379.1 306.9 380.2 312.9ZM378.9 297.2C378.7 293.3 378.7 289.4 378.8 285.5C378.8 283.6 378.9 281.7 379 279.8C379.1 278.9 379.6 274.5 380.5 274.5C381.8 274.5 382.3 280.5 382.4 282.2C382.5 284.1 382.5 286 382.4 287.9C382.3 291.7 381.9 295.5 381.4 299.3C381 302.6 380.3 306.3 380.2 309.9C379.5 305.7 379.1 301.4 378.9 297.2Z" fill="white"/>
<path d="M358.201 321.9C359.601 330.8 361.201 339.4 363.601 348.1C365.401 354.8 367.201 361.6 367.501 368.5C367.801 376.8 365.401 386 361.201 394C363.601 391.3 366.001 388.5 368.401 385.7C373.301 380 378.101 374.1 381.501 367.5C381.801 366.8 382.101 366.2 382.501 365.5C382.501 365.5 382.501 365.4 382.501 365.3C384.501 356.2 385.001 347.4 384.201 338.4C382.701 333.7 380.801 329.4 378.301 324.9C375.901 320.5 373.501 316.2 372.201 311.2C372.101 310.9 372.501 310.8 372.601 311C375.101 317.5 380.201 323.8 383.201 330.6C383.001 329.5 382.801 328.4 382.601 327.3C380.601 316.6 376.901 305.9 380.901 295.2C381.001 294.8 381.501 295.1 381.401 295.4C377.701 307.3 383.501 320.4 385.201 332.2C386.501 341 386.901 350.5 384.801 359.2C386.401 354.4 387.601 349.4 388.701 344.4C395.401 314.4 403.201 284.6 417.801 257.3C417.901 257 418.401 257.2 418.201 257.5C403.301 287.1 397.401 319.2 389.601 351.1C389.501 351.5 389.401 351.8 389.301 352.2C391.901 348 395.301 344.1 398.701 340.9C398.901 340.7 399.101 340.9 399.001 341.1C394.701 346.6 391.501 352.6 387.601 358.3C386.201 362.8 384.401 367.1 382.001 371.1C379.101 375.9 375.701 380.4 372.101 384.7C378.201 379.6 384.301 374.6 390.101 369C398.701 360.6 407.001 351.7 414.401 342.2C414.501 342.1 414.701 342.2 414.601 342.4C407.201 352.7 399.301 362.4 390.401 371.3C382.801 378.8 374.701 386.5 365.601 392.3C356.901 402.3 347.601 412.4 336.601 419.7C336.101 420 335.601 419.3 336.001 418.9C338.001 417.1 340.001 415.3 341.901 413.4C343.801 409.2 346.401 405.3 348.101 400.9C350.101 395.7 351.401 390.4 352.101 384.9C352.201 384.5 352.701 384.6 352.701 385C352.201 392.5 350.601 401.7 346.601 408.8C349.401 406 352.101 403.3 354.801 400.4C361.901 389.5 366.601 376.5 365.001 363.5C364.201 356.8 362.301 350.3 360.701 343.8C358.901 336.5 358.001 329.2 357.401 321.7C357.701 321.6 358.101 321.6 358.201 321.9Z" fill="#5F98E6"/>
<path d="M95.0001 279.6C96.5001 283.8 96.2001 289.1 96.0001 293.5C95.8001 298.6 95.1001 303.6 94.2001 308.6C93.4001 313.3 92.3001 317.9 91.1001 322.4V322.5C91.0001 322.8 91.0001 323.1 90.9001 323.4C90.9001 323.8 90.8001 324.1 90.7001 324.5C90.7001 324.6 90.6001 324.7 90.5001 324.7C90.4001 324.7 90.2001 324.7 90.3001 324.5C90.3001 324.3 90.3001 324.1 90.4001 323.9C91.1001 315.3 86.2001 307.5 85.9001 299C85.7001 294.3 86.9001 289.7 87.7001 285.1C88.2001 282.6 88.3001 279.3 89.3001 276.9C89.6001 276.3 89.6001 275.6 90.3001 275.3C92.5001 274.3 94.4001 278.1 95.0001 279.6Z" fill="#5F98E6"/>
<path d="M92.8997 282.8C91.5997 281.7 90.7997 284.8 90.4997 285.6C88.6997 291.3 87.6997 298 88.7997 303.9C89.8997 310.3 91.0997 316.8 90.5997 323.3C90.4997 323.5 90.4997 323.7 90.3997 323.9C90.3997 324.1 90.3997 324.3 90.2997 324.5C90.2997 324.7 90.3997 324.7 90.4997 324.7C90.4997 324.6 90.4997 324.4 90.5997 324.3C90.7997 323.7 90.9997 323.1 91.0997 322.5V322.4C92.1997 318 92.6997 313.4 93.3997 309C94.2997 302.7 94.8997 296.4 94.3997 290.1C94.2997 288.6 94.0997 287.1 93.7997 285.5C93.6997 284.8 93.5997 283.3 92.8997 282.8ZM93.6997 286.6C93.8997 288.2 94.0997 289.8 94.1997 291.4C94.4997 297 93.9997 302.5 93.1997 308C92.5997 312.7 91.9997 317.6 90.7997 322.3C91.0997 318.6 90.8997 314.9 90.2997 311.1C89.8997 308.3 89.2997 305.6 88.8997 302.8C88.3997 299.7 88.7997 296.6 89.1997 293.4C89.5997 290.5 89.9997 287.4 91.0997 284.7C91.2997 284.1 91.8997 282.9 92.3997 283C93.3997 283.3 93.5997 286 93.6997 286.6Z" fill="white"/>
<path d="M90.8004 404.5C90.9004 404.6 90.9004 404.7 90.9004 404.8C90.9004 404.9 90.8004 405 90.7004 405C90.6004 405 90.6004 405 90.5004 405C85.2004 402.3 80.2004 398.1 74.1004 397.8C69.3004 397.5 65.2004 398.1 60.7004 396.2C56.1004 394.2 51.9004 391.2 48.6004 387.5C47.1004 385.8 45.7004 384 44.5004 382C43.9004 381.1 42.0004 378.8 42.3004 377.6C43.5004 372 60.1004 382 62.3004 383.3C72.0004 389.2 82.0004 395.9 90.1004 404V404.1C90.1004 404.1 90.1004 404.2 90.0004 404.2C90.4004 404.2 90.6004 404.4 90.8004 404.5Z" fill="#5F98E6"/>
<path d="M90.8004 404.5C90.6004 404.3 90.4004 404.2 90.2004 404.1L90.3004 404C84.9004 399.9 79.2004 396.2 73.5004 392.6C67.3004 388.8 61.0004 384.9 54.4004 381.9C53.5004 381.5 49.7004 379.2 48.9004 380.7C48.1004 382.1 52.0004 385.5 52.9004 386.3C57.8004 390.7 64.2004 392.7 70.4004 394.5C74.4004 395.7 78.4004 396.8 82.0004 399C85.0004 400.9 87.8004 403.1 90.8004 405C90.9004 405 91.0004 404.9 91.0004 404.8C90.9004 404.7 90.9004 404.6 90.8004 404.5ZM77.2004 396.2C71.2004 393.8 64.7004 392.8 58.9004 389.8C56.1004 388.4 53.5004 386.6 51.4004 384.2C51.0004 383.8 49.0004 381.8 49.5004 381C49.8004 380.5 51.4004 381 51.6004 381C53.3004 381.6 55.0004 382.4 56.6004 383.2C62.3004 386.1 67.8004 389.4 73.2004 392.7C76.2004 394.6 79.1004 396.5 82.1004 398.5C80.5004 397.8 78.9004 396.9 77.2004 396.2Z" fill="white"/>
<path d="M66.8008 288.9C67.5008 293.9 66.4008 299.2 65.1008 304C61.9008 315.2 55.8008 325.6 53.8008 337.2C53.7008 337.7 53.7008 338.1 53.6008 338.6C53.7008 339.2 53.6008 339.1 53.4008 338.4C52.6008 335.3 49.6008 321.8 51.0008 312C51.8008 305.9 53.9008 300.2 56.0008 294.5C57.2008 291.2 58.4008 288 59.6008 284.7C60.0008 283.7 60.5008 280.7 62.1008 280.4C65.2008 279.9 66.6008 286.9 66.8008 288.9Z" fill="#5F98E6"/>
<path d="M61.5005 289.9C60.9005 289.6 60.5005 289.8 60.1005 290.3C59.7005 290.8 59.6005 291.7 59.4005 292.3C59.1005 293.5 58.8005 294.7 58.5005 295.9C56.4005 304.1 53.5005 312.5 52.7005 321C52.2005 326.6 52.5005 332.3 53.3005 337.9C53.3005 338.1 53.3005 338.3 53.3005 338.5C53.5005 339.2 53.6005 339.3 53.5005 338.7C53.6005 338.2 53.6005 337.8 53.7005 337.3C53.7005 336.7 53.7005 336 53.8005 335.4C54.1005 331 55.3005 326.8 56.7005 322.7C59.2005 314.8 61.5005 306.8 62.5005 298.5C62.7005 296.7 62.9005 294.8 62.7005 292.9C62.6005 292 62.4005 290.4 61.5005 289.9ZM62.3005 292.6C62.4005 293 62.4005 293.4 62.4005 293.8C62.4005 294.7 62.4005 295.6 62.3005 296.4C62.2005 298.5 61.8005 300.6 61.5005 302.7C60.2005 310.1 58.0005 317.2 55.8005 324.4C54.7005 328 53.8005 331.6 53.5005 335.3C53.2005 332.2 53.0005 329.1 53.0005 325.9C53.0005 317.9 55.3005 310.3 57.2005 302.6C57.7005 300.7 58.2005 298.8 58.7005 296.9C58.9005 295.9 59.2005 295 59.4005 294L59.8005 292.6C60.0005 291.6 59.9005 291.2 61.0005 291C62.3005 290.7 62.1005 291.5 62.3005 292.6Z" fill="white"/>
<path d="M74.8002 335.8C76.2002 339.5 77.2002 343.4 77.9002 347.3C79.2002 355.2 78.0002 364.3 80.1002 372.1C80.3002 372.6 80.4002 373.1 80.6002 373.7C80.7002 373.9 80.7002 374.1 80.8002 374.3C80.8002 374.4 80.7002 374.5 80.6002 374.4C80.4002 374.1 80.3002 373.7 80.1002 373.4C80.0002 373.2 79.9002 373.1 79.8002 372.9C75.9002 365.3 70.9002 358.3 69.2002 349.7C68.2002 344.4 66.5002 329.9 70.0002 328.8C71.5002 328.2 74.0002 333.5 74.8002 335.8Z" fill="#5F98E6"/>
<path d="M71.6004 336.6C70.8004 337 70.8004 338.6 70.7004 339.3C70.6004 341.1 70.7004 343 70.9004 344.7C71.2004 348.1 72.0004 351.3 72.9004 354.6C74.6004 360.8 76.8004 367 79.7004 372.8C79.8004 373 79.9004 373.1 80.0004 373.3C80.2004 373.6 80.3004 374 80.5004 374.3C80.5004 374.4 80.7004 374.3 80.7004 374.2C80.7004 374 80.6004 373.8 80.5004 373.6C77.9004 366.9 76.9004 359.8 76.0004 352.7C75.8004 351.1 74.5004 335.2 71.6004 336.6ZM74.2004 343C74.4004 344.5 74.7004 346 74.9004 347.5C75.4004 351 75.8004 354.5 76.3004 358.1C76.9004 361.9 77.6004 365.8 78.7004 369.5C76.9004 365.2 75.3004 361 73.9004 356.5C73.0004 353.6 72.2004 350.6 71.7004 347.6C71.4004 346 71.2004 344.3 71.2004 342.7C71.2004 341.9 70.8004 337.4 71.8004 337C73.0004 336.5 74.1004 342.4 74.2004 343Z" fill="white"/>
<path d="M108.101 320.3C110.001 322.7 109.101 327.4 108.101 329.9C106.601 333.5 103.901 336.2 100.901 338.6C96.6012 342 91.7012 344.7 88.1012 348.9C84.5012 353.1 85.6012 351.8 83.1012 357.2C83.1012 357.3 82.9012 357.3 82.9012 357.2C82.8012 357.1 82.7012 356.8 82.7012 356.3V356.2C85.0012 347.4 89.6012 340.4 95.6012 333.5C99.0012 329.6 101.101 324.6 104.601 320.9C105.901 319.5 106.701 318.6 108.101 320.3Z" fill="#5F98E6"/>
<path d="M106.001 324.9C104.701 324.3 103.101 326.9 102.401 327.9C100.501 330.7 98.6008 333.4 96.2008 335.8C94.1008 337.9 92.0008 339.9 90.1008 342.3C87.3008 345.9 85.1008 349.9 83.5008 354.1C83.2008 354.8 82.8008 355.6 82.6008 356.3C82.5008 356.7 82.6008 357 82.8008 357.2C82.8008 357.1 82.9008 357 82.9008 356.9C85.0008 351.2 88.6008 346.9 93.6008 343.1C98.5008 339.4 103.201 335.2 105.901 329.4C106.301 328.4 107.201 325.5 106.001 324.9ZM105.801 328.7C105.401 329.7 104.901 330.7 104.301 331.6C103.301 333.3 102.101 334.8 100.801 336.3C98.5008 338.9 95.8008 341 93.0008 343.1C89.8008 345.6 86.9008 348.4 84.8008 351.8C86.4008 348.2 88.4008 344.8 90.9008 341.8C93.1008 339.1 95.9008 336.9 98.2008 334.2C99.3008 333 100.201 331.7 101.101 330.3C101.601 329.6 102.101 328.9 102.601 328.2C103.001 327.6 104.501 325.3 105.401 325.5C106.701 325.6 106.001 328.3 105.801 328.7Z" fill="white"/>
<path d="M27.2005 298C35.0005 306.8 42.3005 316.1 49.2005 325.6C49.3005 325.7 49.3005 325.9 49.2005 326C49.2005 326 49.2005 326 49.2005 326.1C49.2005 326.2 49.3005 326.2 49.3005 326.3C49.3005 326.4 49.3005 326.4 49.3005 326.5H49.2005C44.3005 321.7 39.8005 317.3 33.6005 314.1C28.0005 311.2 22.5005 308.8 17.6005 304.7C13.4005 301.2 1.70048 283.9 3.60048 279.7C4.70048 276.9 20.9005 291 27.2005 298Z" fill="#5F98E6"/>
<path d="M17.5009 292.1C16.5009 291.1 13.5009 287.2 11.6009 288C9.70095 288.8 12.7009 292.7 13.3009 293.5C15.4009 296.5 17.6009 299.5 20.2009 302.1C22.8009 304.7 26.0009 306.4 29.0009 308.4C36.5009 313.4 43.1009 319.8 49.1009 326.4C49.2009 326.4 49.2009 326.3 49.1009 326.2C49.1009 326.1 49.0009 326.1 49.0009 326C49.0009 326 49.0009 326 49.0009 325.9C39.7009 313.7 28.6009 302.8 17.5009 292.1ZM48.5009 325.6C44.4009 321 39.9009 316.6 35.2009 312.7C29.7009 308.1 23.0009 305.1 18.3009 299.6C16.0009 297 13.6009 294 12.1009 290.9C11.9009 290.5 11.1009 289.1 11.6009 288.5C12.1009 288 13.4009 288.6 15.1009 290.2C16.5009 291.5 17.8009 292.8 19.2009 294.2C24.5009 299.4 29.8009 304.6 34.9009 310C39.6009 315 44.1009 320.2 48.5009 325.6Z" fill="white"/>
<path d="M59.6003 362.6V362.7C59.6003 362.8 59.5003 362.9 59.3003 362.8C59.1003 362.7 58.8003 362.6 58.6003 362.6C58.6003 362.6 58.6003 362.6 58.5003 362.6C52.9003 361.9 48.4003 362.8 43.0003 364.2C39.0003 365.2 34.9003 365.2 30.9003 364.2C26.6003 363.1 22.5003 361.1 18.7003 358.7C17.2003 357.7 12.3003 355.5 13.1003 352.8C14.4003 348.4 29.3003 354.1 31.9003 355C36.5003 356.5 41.1003 357.8 45.8003 358.7C50.5003 359.6 55.1003 360.4 59.5003 362.4C59.6003 362.5 59.7003 362.5 59.6003 362.6Z" fill="#5F98E6"/>
<path d="M56.7001 361.9C54.0001 361.3 51.3001 360.5 48.6001 360.1C45.6001 359.6 42.4001 359.6 39.4001 359.1C33.7001 358.1 28.2001 356 22.6001 354.8C21.9001 354.6 20.4001 354.4 20.8001 355.6C21.0001 356.1 21.8001 356.6 22.2001 356.9C23.5001 357.8 24.8001 358.6 26.2001 359.2C30.9001 361.5 36.4001 363.1 41.7001 362.9C47.8001 362.6 53.7001 361.5 59.8001 362.8V362.7C58.7001 362.3 57.7001 362.1 56.7001 361.9ZM43.5001 362.3C36.9001 362.8 30.0001 361.1 24.3001 357.8C23.8001 357.5 22.3001 356.6 21.8001 356.2C21.3001 355.8 20.6001 355 22.4001 355.2C22.8001 355.3 23.2001 355.4 23.6001 355.5C25.1001 355.9 26.5001 356.3 28.0001 356.7C31.1001 357.6 34.2001 358.5 37.3001 359.2C40.1001 359.8 42.9001 360 45.8001 360.2C49.3001 360.4 52.6001 361.2 56.0001 362C51.9001 361.3 47.6001 362 43.5001 362.3Z" fill="white"/>
<path d="M43.6004 350.5C43.6004 350.6 43.6004 350.7 43.6004 350.8V350.9C43.6004 351 43.5004 351 43.5004 351C43.4004 351.1 43.3004 351.1 43.1004 351C42.3004 350.7 41.5004 350.3 40.7004 349.9C31.4004 346.4 22.0004 342.6 14.4004 336.1C10.6004 332.8 7.20044 328.9 4.30044 324.7C2.90044 322.7 -0.999564 318.3 0.300436 315.5C1.60044 312.7 4.10044 314.5 5.80044 315.6C10.3004 318.6 14.7004 321.8 18.8004 325.4C22.9004 328.9 26.5004 332.8 29.6004 337.2C33.4004 342.4 37.0004 347.7 43.3004 350.1C43.4004 350.2 43.5004 350.3 43.6004 350.5Z" fill="#5F98E6"/>
<path d="M26.5 337.4C21.3 331.9 15.5 326.8 9.60002 322.1C8.80002 321.5 6.60001 319.9 6.30001 321.7C5.90001 323.8 9.00001 326.3 10.2 327.5C14.7 332.2 19.5 336.7 24.7 340.6C30.5 345 36.8 348.5 43.7 350.9V350.8C32.5 346.6 22.8 339.4 14.3 331.1C12.3 329.1 10.2 327.1 8.30001 324.9C8.00001 324.6 6.30001 322.2 7.00001 321.6C7.60001 321 10 323 10.3 323.2C11.6 324.3 13 325.4 14.3 326.6C19.3 330.9 24 335.4 28.5 340.2C32.9 344.8 37.8 348.4 43.6 350.9C43.6 350.8 43.6 350.7 43.6 350.6C36.8 347.5 31.5 342.8 26.5 337.4Z" fill="white"/>
<path d="M26.5007 254.3C29.6007 258.6 32.3007 263.1 33.8007 268.2C36.1007 276 35.9007 284.2 37.0007 292.2V292.3C37.3007 294.5 37.7007 296.6 38.3007 298.8C38.4007 299.3 38.5007 299.7 38.7007 300.2C38.7007 300.3 38.7007 300.4 38.7007 300.5C38.6007 300.5 38.6007 300.6 38.5007 300.6C38.4007 300.6 38.4007 300.6 38.3007 300.6C38.2007 300.6 38.1007 300.5 38.1007 300.4C37.9007 299.8 37.7007 299.1 37.5007 298.5C37.5007 298.5 37.4007 298.5 37.4007 298.4C32.6007 288.4 27.2007 278.3 21.8007 268.5C19.4007 264.1 17.2007 259.6 15.6007 254.9C14.7007 252.1 13.6007 247.8 15.6007 245.2C15.7007 245 15.9007 244.9 16.1007 244.9C20.7007 245.3 24.1007 250.9 26.5007 254.3Z" fill="#5F98E6"/>
<path d="M21.6011 254.9C19.4011 254.2 19.9011 256.8 20.2011 258.1C21.1011 261.5 22.7011 264.9 24.0011 268.2C25.5011 271.9 27.1011 275.6 28.7011 279.3C31.8011 286.2 36.0011 293.1 38.3011 300.4C38.4011 300.4 38.4011 300.4 38.5011 300.4C38.6011 300.4 38.6011 300.4 38.7011 300.3C38.6011 299.8 38.5011 299.2 38.4011 298.7C38.0011 296.6 37.6011 294.4 37.1011 292.2V292.1C35.1011 281.7 32.8011 271.5 27.4011 262C26.1011 259.8 24.2011 255.8 21.6011 254.9ZM28.0011 264C31.2011 270 33.4011 276.4 34.9011 283C36.1011 288.2 36.9011 293.5 38.0011 298.8C36.5011 294.6 34.3011 290.6 32.4011 286.5C29.4011 280.1 26.6011 273.6 24.0011 267.1C23.4011 265.5 22.7011 263.9 22.1011 262.4C21.6011 261 20.4011 258.8 20.4011 257.3C20.4011 254.3 22.9011 256.3 23.7011 257.2C24.4011 258 25.0011 258.9 25.5011 259.7C26.4011 261 27.2011 262.5 28.0011 264Z" fill="white"/>
<path d="M92.5 308.1C91.1 317.9 89.3 327.4 86.6 336.9C84.2 345.6 81.7 354.3 80.5 363.2C78.9 375.1 80 388.1 86.1 398.5C76 386.8 68 373.2 62.2 358.6C52.4 334.1 43.6 308.8 31.7 285.2C31.5 284.8 31 285.1 31.1 285.5C36 298.4 41.7 311 46.7 323.9C51.6 336.7 56.2 349.6 61.4 362.3C62 363.7 62.5 365 63.1 366.4C55.5 357 44.4 350 33.5 346C33.4 345.9 33.3 346.2 33.4 346.2C41.1 349.6 48.2 354.4 54.4 360.2C59.8 365.2 64 371 68.3 376.9C78.2 394.5 92 409.1 109.6 419.9C109.8 420 110 419.7 109.8 419.6C102.8 414.9 96.5 409.5 90.7 403.6C80.9 390.7 80.5 373.5 83.4 357.8C84.9 349.6 87.1 341.5 89 333.4C91 325.2 93.1 316.6 92.9 308.1C93 307.8 92.6 307.8 92.5 308.1Z" fill="#5F98E6"/>
<path d="M400.6 420H37.4004V135.4L219 20.1001L400.6 135.4V420Z" fill="#FFC727"/>
<path opacity="0.1" d="M400.6 420H37.4004V135.4L219 20.1001L400.6 135.4V420Z" fill="black"/>
<path d="M389.3 420H48.7002V141.3L219 33.2002L389.3 141.3V420Z" fill="#455A64"/>
<path d="M380.1 46H57.9004V420H380.1V46Z" fill="white" stroke="#DBDBDB" stroke-miterlimit="10"/>
<path d="M364.7 61.8999H73.2002V404.1H364.7V61.8999Z" stroke="#FFC727" stroke-miterlimit="10"/>
<path d="M358.7 68H79.4004V397.9H358.7V68Z" stroke="#FFC727" stroke-miterlimit="10"/>
<path d="M79.4006 55.7H67.1006V68H79.4006V55.7Z" stroke="#FFC727" stroke-miterlimit="10"/>
<path d="M79.4006 398H67.1006V410.3H79.4006V398Z" stroke="#FFC727" stroke-miterlimit="10"/>
<path d="M370.901 398H358.601V410.3H370.901V398Z" stroke="#FFC727" stroke-miterlimit="10"/>
<path d="M370.901 55.7H358.601V68H370.901V55.7Z" stroke="#FFC727" stroke-miterlimit="10"/>
<path d="M400.6 178.8V420H37.4004V178.8C37.4004 178.8 206.3 281.2 219 289.2C231.7 281.2 400.6 178.8 400.6 178.8Z" fill="#FFC727"/>
<g opacity="0.1">
<path d="M203.3 279.6L37.4004 420L193.5 273.6C197.1 275.8 200.4 277.8 203.3 279.6Z" fill="black"/>
<path d="M400.6 420L234.7 279.6C237.6 277.8 240.9 275.8 244.5 273.6L400.6 420Z" fill="black"/>
</g>
<path d="M400.6 420H37.4004L197.7 281.2C203.6 276.1 211.2 273.3 219 273.3C226.8 273.3 234.4 276.1 240.3 281.2L400.6 420Z" fill="#FFC727"/>
<path d="M27.0996 420C150 419.4 287.9 419.4 410.8 420C287.9 420.6 150.1 420.6 27.0996 420Z" fill="#263238"/>
<path d="M120.1 164L120 165C120 165.2 120.1 165.3 120.3 165.4C120.5 165.5 120.7 165.6 120.9 165.5C121.1 165.5 121.3 165.3 121.4 165.1C124.9 158.8 127.7 153.3 129.9 148.6C132.1 143.9 133.7 140.4 134.7 138.2C135.7 136 136.5 134.2 137.1 132.9C138.7 129.5 140.4 126.3 142 123.5C134.5 126.6 128.6 128.4 124.2 129C119.8 129.6 116.6 129.8 114.6 129.5C112.6 129.2 111.2 128.8 110.5 128.1C109.8 127.5 109.4 126.8 109.3 126.1C109.2 125.4 109.1 124.7 109.1 124C109 122.6 109.7 121.3 111.2 120.1C112.7 119 114 118.3 115 118.1C116.1 117.9 116.6 118 116.7 118.3C116.7 118.6 116.6 119.1 116.2 119.7C115.8 120.3 115.6 120.7 115.6 120.9C115.7 121.8 119.1 121.8 125.7 120.9C132.3 120 139.8 118 148.2 115C152.6 110.3 156.5 107.7 160.1 107.2C162.5 106.9 164.2 107.3 165.1 108.5C165.7 109.2 166.1 110 166.2 110.8C166.3 111.6 166 112.5 165.1 113.4C164.3 114.3 163.1 115.2 161.6 116C158.9 117.4 155.6 118.7 151.8 119.9C150.5 122.2 148.6 125.8 146.3 130.7C143.9 135.5 142.3 138.8 141.5 140.5C140.6 142.2 139.3 145.2 137.4 149.5C135.5 153.8 133.9 157.5 132.6 160.7C131.2 163.8 129.7 167 128.1 170C124.8 176.4 121.6 179.8 118.4 180.3C117.1 180.5 115.8 180.3 114.8 179.7C113.7 179.1 113.1 178 112.8 176.4C112.6 174.8 113.2 172.6 114.6 170C116 167.3 117.1 165.6 117.9 164.8C118.6 164 119.1 163.6 119.4 163.5C119.8 163.5 120 163.6 120.1 164Z" fill="#37474F"/>
<path d="M187.7 155.4C188.1 156.7 188.3 157.7 188.4 158.5C188.5 159.3 188.5 159.9 188.3 160.5C188.1 161.1 187.6 162 186.8 163.1C186 164.3 185 165.4 183.9 166.7C181.1 169.6 178.1 171.4 174.8 171.8C170.1 172.5 167.4 170.7 166.8 166.5C166.3 162.9 168.4 155.2 173.2 143.4C173.4 143 173.5 142.7 173.5 142.5C171.5 144.4 167.9 149.2 162.6 157C157.4 164.8 153.9 170.3 152.2 173.4C152.1 173.7 151.7 174 151 174.4C150.4 174.8 149.8 175 149.5 175.1C149.1 175.2 148.7 175.1 148.2 174.9C147.7 174.7 147.4 174.6 147.3 174.7C146.9 174.8 146.7 174.7 146.7 174.4C146.7 174.2 147 172.8 147.7 170.2C148.4 167.7 149.3 164.5 150.4 160.7C153.6 150.2 158.5 136.5 165.3 119.5C167.7 113.5 169.6 109.3 171 106.7C172 104.9 174 103.8 177 103.3C177.6 103.2 178 103.3 178.2 103.7C178.3 104.1 178.4 104.5 178.5 104.9C178.6 105.3 178.5 105.8 178.4 106.2L174.8 114C167.7 129.5 162.5 142.3 159.3 152.3C163 146.2 166.7 141.4 170.5 137.8C172.8 135.6 174.7 134.4 176 134.2C177.3 134 178.5 134.1 179.6 134.3C180.7 134.6 181.4 135.5 181.6 137.1C181.7 137.7 181.1 139.9 179.7 143.9C175.7 155.7 173.8 162.2 173.9 163.4C174.1 164.6 174.7 165.2 175.7 165C177.2 164.8 179.2 163 181.8 159.8C183.8 157.3 185 155.7 185.6 155C185.9 154.7 186.2 154.5 186.5 154.5C187.2 154.6 187.6 154.8 187.7 155.4Z" fill="#37474F"/>
<path d="M214.401 131.1C216.601 130.8 217.801 131.4 218.001 132.9C218.101 133.7 218.001 134.3 217.701 134.7C217.401 135.1 216.801 136.5 215.801 138.8C214.901 141.1 213.901 144 212.901 147.5C211.901 151 211.301 153.9 211.201 156.3C211.201 156.6 211.201 157 211.201 157.5C211.401 159.1 212.001 159.8 212.801 159.7C213.701 159.6 214.601 159 215.701 158C216.801 157 217.701 156 218.501 154.9C219.301 153.8 220.001 152.8 220.801 151.7C221.501 150.6 222.001 150 222.101 149.8C222.301 149.6 222.501 149.5 222.801 149.5C223.301 149.4 223.701 149.8 224.001 150.6C224.201 151.4 224.401 152.3 224.501 153.2C224.601 154.1 224.601 154.7 224.501 155.1C223.901 156.9 222.401 159.1 219.901 161.8C217.401 164.5 215.001 166 212.701 166.3C210.401 166.6 208.601 166.2 207.301 164.9C206.001 163.7 205.201 162.2 205.001 160.5C204.801 158.8 204.801 157.3 205.201 155.9C203.301 159.3 200.901 162.4 198.101 164.9C195.301 167.5 193.001 168.9 191.001 169.2C189.101 169.5 187.401 169.1 186.001 168.1C184.201 166.9 183.101 164.9 182.801 162.4C182.401 159.8 182.601 157.1 183.401 154.3C184.201 151.5 185.401 148.9 187.001 146.5C188.601 144.1 190.401 141.8 192.401 139.7C196.601 135.3 200.701 132.8 204.801 132.2C206.301 132 207.601 132.1 208.701 132.4C209.701 132.8 210.501 133.3 210.801 134.1C211.301 133 211.801 132.2 212.301 131.9C212.801 131.5 213.501 131.3 214.401 131.1ZM209.401 136.7C204.501 137.4 199.801 140.9 195.301 147C193.701 149.2 192.301 151.8 191.201 154.7C190.001 157.6 189.501 159.6 189.701 160.6C189.801 161.6 190.201 162.1 190.801 162C191.601 161.9 193.601 160 196.801 156.3C200.001 152.6 202.101 149.9 203.101 148.3C204.201 146.5 206.301 142.6 209.401 136.7Z" fill="#37474F"/>
<path d="M243.7 153.5C243.9 154.8 244.8 155.3 246.6 155C247.5 154.9 248.6 154.2 249.9 153.1C251.2 152 252.3 150.8 253.2 149.6C255.8 146.2 257.2 144.5 257.6 144.4C258.3 144.3 258.9 145.3 259.2 147.5C259.5 149.6 259 151.2 257.8 152.2C254.2 156.5 251.4 159.2 249.3 160.3C248.1 160.9 246.7 161.3 245.2 161.5C243.7 161.7 242.1 161.2 240.4 160.2C238.7 159.1 237.8 157.7 237.5 155.8C237.2 154 237.4 151.8 238.1 149.3C238.7 146.8 239.4 144.7 240.2 142.8C241 141 242 138.8 243.1 136.4C244.3 134 244.9 132.5 244.9 131.9L244.8 131.8C243.9 132 241.8 134.2 238.6 138.4C235.4 142.6 232.7 146.2 230.7 149.2C228.6 152.2 226.3 156.3 223.5 161.2C222.7 162.6 222 163.3 221.4 163.4C220.8 163.5 220 163.4 218.9 163.2C217.8 163 217.2 162.8 216.9 162.6C216.6 162.5 216.5 162.2 216.4 161.9C216.4 161.6 216.4 161.1 216.5 160.6C216.6 160.1 216.8 159.6 216.9 159.3C217 158.9 217.3 158.4 217.6 157.6C217.9 156.9 218.6 155.3 219.5 152.9C220.5 150.5 221.9 146.9 223.9 142.1C225.9 137.3 227.1 134.4 227.5 133.4C228.3 131.4 229 129.8 229.6 128.9C230.7 127.1 232.7 126 235.8 125.5C236.5 125.4 236.9 125.8 237 126.6C237.2 127.9 236.3 130.7 234.3 134.7L232.9 137.7C237.1 131.5 240.8 127.4 244 125.5C245.6 124.5 247 124 248.3 123.8C249.6 123.6 250.7 123.8 251.6 124.4C252.5 125 253 125.7 253.1 126.6C253.2 127.5 253.1 128.6 252.6 129.9C252.2 131.2 251.7 132.4 251.2 133.4C250.7 134.4 250.1 135.8 249.3 137.4C248.5 139 248.1 139.9 248 140C247.9 140.1 247.8 140.5 247.5 141.1C247.2 141.7 247 142.2 246.9 142.4C246.8 142.7 246.5 143.2 246.2 143.9C245.9 144.6 245.6 145.2 245.5 145.7C245.3 146.2 245.1 146.7 244.8 147.4C244.5 148.1 244.3 148.7 244.2 149.2C244.1 149.7 243.9 150.2 243.7 150.8C243.7 152 243.6 152.9 243.7 153.5Z" fill="#37474F"/>
<path d="M257.4 159.4L254.6 159.2C253.8 159.2 253 158.8 252.3 157.9C252.1 157.7 252 157.5 252 157.5C251.9 157.4 251.9 157.4 251.9 157.3C251.9 157.2 251.9 157.1 251.9 156.9C251.9 156.7 252 156.5 252.1 156.2C252.2 155.9 252.2 155.6 252.3 155.3C252.6 153.2 256.3 142.9 263.3 124.4C270.3 105.9 274 96.4 274.4 95.8C274.8 95.2 275 94.8 275.2 94.5C275.4 94.2 275.6 94 275.8 93.8C276 93.6 276.2 93.4 276.4 93.4C276.5 93.3 276.8 93.2 277.1 93C277.5 92.8 277.9 92.6 278.2 92.4C278.6 92.2 279 91.9 279.4 91.6C279.8 91.3 280.1 91.1 280.3 90.9C280.5 90.8 280.7 90.7 280.9 90.7C281.2 90.7 281.4 90.8 281.7 91C282 91.2 282.2 91.5 282.2 91.9V92.2C282.1 92.8 279.4 100.1 273.9 114.2C268.4 128.3 265.5 136 265 137.3C267.1 136.1 270.1 133.4 274 129.3C277.9 125.2 279.7 122.5 279.6 121.4C279.5 120.2 279.8 119.4 280.4 118.7C281.1 118.1 281.8 117.7 282.7 117.6C283.6 117.5 284.4 117.7 285.1 118.2C285.8 118.7 286.2 119.6 286.4 121C286.6 122.3 286.1 124.1 284.9 126.4C283.7 128.7 282.3 130.8 280.5 132.8C276.6 137.2 273.3 140.1 270.6 141.8C273.8 147.7 276.9 150.5 279.9 150.1C281.5 149.6 283.3 148 285.3 145.2C286.1 144.2 286.8 143.2 287.5 142.1C288.2 141.1 288.6 140.5 288.8 140.3C289 140.1 289.2 140 289.6 139.9C290.1 139.8 290.5 140.2 290.8 141C291 141.8 291.2 142.7 291.3 143.6C291.4 144.5 291.4 145.1 291.3 145.5C290.7 147.2 289.2 149.4 286.7 152.2C284.2 154.9 281.7 156.4 279.2 156.8C277.4 157.1 275.9 156.9 274.8 156.4C273.6 155.9 272.7 155.4 272.1 155C271.4 154.6 270.7 154.1 270 153.4C269.3 152.7 268.6 152.1 268.2 151.7C267.7 151.2 267.1 150.6 266.5 149.8C265.8 149 265.4 148.4 265.1 148C264.8 147.6 264.4 147.1 263.8 146.3C263.2 145.5 262.9 145 262.8 145C262.4 146.1 262 147.4 261.6 148.7C261.1 150 260.7 151.3 260.4 152.4C260 153.5 259.7 154.6 259.4 155.5C259.1 156.4 258.8 157.2 258.7 157.8C258.5 158.4 258.4 158.7 258.4 158.8C258 159.1 257.8 159.3 257.4 159.4Z" fill="#37474F"/>
<path d="M201.1 236C201 236.2 200.6 236.9 200.1 238.4C199.6 239.8 199 241.2 198.3 242.7C197.7 244.2 196.8 245.6 195.8 246.9C194.8 248.3 193.8 249.1 193 249.3C192.2 249.5 191.7 249.6 191.5 249.7C188.9 250.1 187.4 248.9 187 246.3C186.6 243.2 187.7 239.3 190.3 234.6C191.3 232.8 192.6 230.9 194.2 228.8C195.8 226.7 196.7 225.5 196.8 225.3C196.9 225 198.5 220.7 201.5 212.3C199.2 215.7 197 218.5 194.9 220.7C192.8 222.9 190.7 224.3 188.6 224.8H188.3C187.2 225 186 224.8 184.8 224.2C183.6 223.6 182.9 222.4 182.6 220.6C182.2 217.9 182.6 215.1 183.7 212.4C184.1 211.4 184.8 209.8 185.7 207.5C186.7 205.2 187.6 203 188.4 200.8C189.2 199.1 190 197.1 190.8 194.8C191.6 192.6 192.2 190.9 192.7 189.9C193.1 188.9 193.6 188.4 194.1 188.3C194.6 188.2 195.3 188.5 196.2 189C197.1 189.5 197.6 190.2 197.8 191.1C197.9 192 196.6 196.1 193.8 203.5C191 210.9 189.7 215 189.8 216C189.8 216.2 190 216.3 190.2 216.3C191 216.2 192.5 214.8 194.9 212.3C197.2 209.7 199.8 206.5 202.5 202.6C205.5 198.3 207.8 194.4 209.4 190.9C209.6 190.5 209.8 190.1 209.9 189.9C210 189.7 210.2 189.3 210.4 189C210.6 188.6 210.8 188.3 210.9 188.1C211 187.9 211.2 187.6 211.4 187.3C211.6 187 211.7 186.8 211.9 186.6C212.1 186.4 212.2 186.3 212.4 186.1C212.7 185.8 213 185.6 213.4 185.5C213.8 185.4 214.4 185.4 215.2 185.5C216 185.6 216.5 185.7 216.7 185.9C216.9 186.1 217.1 186.2 217.3 186.4C217.6 186.7 217.8 186.9 217.9 187.2C217.9 187.5 217.9 187.8 217.7 188.3C217.5 188.8 216.5 191.2 214.7 195.7C209.3 208.8 205.6 218.4 203.7 224.3C207.5 220 212.9 213.7 219.8 205.4C220.1 205.1 220.4 204.9 220.7 204.9C221.6 204.8 222.2 206.1 222.6 208.8C222.7 209.6 222.6 210.2 222.4 210.5C214.5 218.3 207.5 226.8 201.1 236Z" fill="#37474F"/>
<path d="M244.9 181.7C245.8 181.6 246.7 181.8 247.7 182.5C248.7 183.1 249.3 184.3 249.6 185.9C249.8 187.5 249.6 189.6 248.8 192.3C248 195 246.9 197.8 245.3 200.7C243.7 203.6 241.9 206.4 239.9 209C237.9 211.6 235.6 213.9 233.1 215.8C230.6 217.7 228.2 218.8 226 219.1C223.8 219.4 221.9 219 220.4 217.8C218.9 216.6 217.9 214.8 217.6 212.3C217.2 209.8 217.5 207 218.3 203.8C219.1 200.6 220.3 197.7 221.9 195.1C223.5 192.5 225.3 190.1 227.2 188C231.3 183.6 235.2 181.1 238.7 180.6C240.3 180.4 241.5 180.6 242.4 181.3C242.7 181.5 242.9 181.7 242.9 181.9V182.2C243.4 182 244 181.9 244.9 181.7ZM241.4 188.1H241.1C240.1 188.2 239.5 187.6 239.3 186.1C237.3 187.1 235.3 188.6 233.2 190.7C231.2 192.7 229.4 195.1 227.9 197.7C224.9 202.9 223.6 207.2 224 210.4C224.2 212 224.9 212.7 226.1 212.6C227.3 212.4 228.9 211.4 231 209.5C233.1 207.6 235.1 205.1 237 201.9C238.9 198.7 240.2 196 241.1 193.7C241.9 191.4 242.3 189.9 242.2 189.2C242 188.4 241.8 188 241.4 188.1Z" fill="#37474F"/>
<path d="M287.1 195.4C287.6 195.3 288 195.7 288.3 196.5C288.5 197.3 288.7 198.2 288.8 199.1C288.9 200 288.9 200.6 288.8 201C288.2 202.7 286.7 204.9 284.2 207.7C281.7 210.4 279.2 211.9 276.7 212.3C275.2 212.5 273.7 212.3 272.2 211.5C270.7 210.8 269.9 209.2 269.5 206.9C269.2 204.6 269.5 202.2 270.4 199.8C264.6 209.7 259.6 215 255.6 215.6C254 215.8 252.6 215.4 251.5 214.4C250.3 213.4 249.7 212.3 249.5 211.1C249.3 209.9 249.3 208.6 249.5 207.2C249.7 205.8 249.9 204.6 250.1 203.5C250.3 202.4 250.7 201.1 251.3 199.4C251.8 197.8 252.3 196.6 252.5 195.8C252.8 195.1 253.2 193.9 253.8 192.4C254.4 190.9 255.2 188.9 256.2 186.3C257.2 183.8 258.1 181.9 258.8 180.6C259.5 179.3 260.3 178.6 261.1 178.5C261.9 178.4 262.7 178.6 263.4 179.2C264.1 179.8 264.5 180.3 264.6 180.7C264.7 181.1 264 183.2 262.5 186.9C258.3 198 256.3 204.4 256.5 206.1C256.6 206.5 256.7 206.7 257.1 206.7C258.5 206.5 261.5 203 266.1 196.3C270.7 189.6 273.3 185.3 274 183.5C274.6 181.7 275.3 180.2 275.9 178.9C276.6 177.6 277.1 176.8 277.4 176.5C278.5 175.5 280 174.9 282 174.5C282.3 174.5 282.6 174.4 282.7 174.4C282.9 174.4 283.1 174.6 283.4 175C283.7 175.4 283.9 175.8 283.9 176C283.8 176.8 282.9 179.1 281.4 182.9C279.9 186.7 279 188.8 278.9 189.3C276.5 196.8 275.5 201.6 275.8 203.7C276 204.9 276.5 205.4 277.4 205.3C279 204.8 280.8 203.2 282.8 200.4C283.5 199.4 284.3 198.4 285 197.3C285.7 196.3 286.2 195.6 286.3 195.5C286.6 195.5 286.9 195.4 287.1 195.4Z" fill="#37474F"/>
<path d="M291.3 208.7C291 206.9 291.6 205.1 292.9 203.4C294.2 201.7 295.7 200.7 297.4 200.5C299.1 200.3 300 201 300.3 202.6C300.5 204.3 300 206 298.7 207.9C297.4 209.8 295.9 210.8 294.3 211C292.5 211.3 291.5 210.5 291.3 208.7ZM324.2 137.7H327.6C328.3 137.6 328.7 137.8 328.8 138.2C328.8 138.3 328.8 138.5 328.7 138.8C321.7 153.1 314 169.9 305.6 189.1C305.1 190.2 304.6 190.9 304.1 191.1C304.1 191.1 304 191.1 304 191.2L303.9 191.3C303.8 191.4 303.7 191.4 303.6 191.4C303.2 191.6 302.7 191.8 302.1 191.9C301.5 192 301.1 192.1 300.9 192.3C300.7 192.5 300.3 192.7 299.6 192.7C298.5 192.9 297.9 192.4 297.8 191.3C297.5 189.4 299.3 184.1 303.1 175.5C306.9 166.9 310.7 158.9 314.4 151.4C318.2 143.9 320.6 139.6 321.8 138.4C322.2 138.1 323 137.9 324.2 137.7Z" fill="#37474F"/>
<path d="M349.1 421.6C346.1 422.8 260 425.2 256.6 423.3C256.2 423.1 256.3 419.3 254.9 409.5C254.8 409 252.8 407.2 249.8 404.7C238.2 395.2 210.9 375.1 210.9 375.1L253.5 337.3L295.6 377.9L306.5 388.4C306.5 388.4 341.9 407.1 345.4 409.5C348.9 411.9 352 420.4 349.1 421.6Z" fill="#D3766A"/>
<path d="M349.101 421.6C346.101 422.8 260.001 425.2 256.601 423.3C256.201 423.1 256.301 419.3 254.901 409.5C254.801 409 252.901 407.2 249.801 404.7C245.801 401.4 243.801 399.9 237.801 395.3L292.301 374.7L295.601 377.9L306.501 388.4C306.501 388.4 341.901 407.1 345.401 409.5C348.901 411.9 352.001 420.4 349.101 421.6Z" fill="#EBEBEB"/>
<path d="M355 422.7C352 423.8 260.2 425.7 256.9 423.7C256.1 423.2 255.4 417.9 254.7 410.6C254.6 409.7 245.2 402.3 244 401L300.1 381.5L307.3 388.1C307.3 388.1 348.9 407 352.3 409.6C355.6 412.1 358 421.6 355 422.7Z" fill="#FFC727"/>
<path opacity="0.4" d="M355 422.7C352 423.8 260.2 425.7 256.9 423.7C256.1 423.2 255.4 417.9 254.7 410.6C254.6 409.7 245.2 402.3 244 401L300.1 381.5L307.3 388.1C307.3 388.1 348.9 407 352.3 409.6C355.6 412.1 358 421.6 355 422.7Z" fill="black"/>
<path d="M353.7 419.3C339.3 419.3 275.3 420.5 261 421.5C260.9 421.5 260.9 421.6 261 421.6C275.3 422 339.3 420.3 353.7 419.5C354 419.5 354 419.3 353.7 419.3Z" fill="#263238"/>
<path d="M311.799 388.6C306.099 387.7 299.199 388.7 294.899 392.8C294.699 393 294.999 393.2 295.099 393.1C300.699 391.2 305.899 390 311.699 389.3C312.199 389.3 312.199 388.7 311.799 388.6Z" fill="#263238"/>
<path d="M316 391C310.3 390.1 303.4 391.1 299.1 395.2C298.9 395.4 299.199 395.6 299.299 395.5C304.899 393.6 310.099 392.4 315.899 391.7C316.399 391.7 316.4 391.1 316 391Z" fill="#263238"/>
<path d="M320.099 393.4C314.399 392.5 307.499 393.5 303.199 397.6C302.999 397.8 303.299 398 303.399 397.9C308.999 396 314.199 394.8 319.999 394.1C320.499 394.1 320.499 393.5 320.099 393.4Z" fill="#263238"/>
<path d="M324.299 395.8C318.599 394.9 311.699 395.9 307.399 400C307.199 400.2 307.499 400.4 307.599 400.3C313.199 398.4 318.399 397.2 324.199 396.5C324.699 396.4 324.699 395.8 324.299 395.8Z" fill="#263238"/>
<path d="M322 375.3C319.7 372.3 315.6 373.7 313.3 375.8C309.5 379.1 306.3 384.2 304.8 389C304.8 389.1 304.8 389.2 304.9 389.2C304.9 389.6 305.3 390.1 305.8 389.9C310.4 388.1 315.6 386.7 319.6 383.5C321.9 381.5 324.2 378.1 322 375.3ZM312.3 385.6C310 386.6 307.7 387.4 305.5 388.4C307.2 385.8 308.7 383.2 310.6 380.8C311.5 379.7 312.5 378.5 313.5 377.5C315.2 375.9 321.8 372.5 320.9 378.8C320.5 382.3 315 384.5 312.3 385.6Z" fill="#263238"/>
<path d="M290.4 387.8C295.1 389.7 300.5 389.5 305.5 389.9C306 389.9 306.3 389.4 306.2 389C306.3 389 306.3 388.9 306.3 388.8C303.5 384.7 298.9 380.8 294.3 378.7C291.5 377.4 287.1 377.3 285.8 380.8C284.5 384.1 287.6 386.7 290.4 387.8ZM287.7 383.8C285 378.1 292.3 379.4 294.4 380.4C295.7 381 297 381.9 298.2 382.7C300.7 384.4 303 386.5 305.3 388.4C302.9 388.1 300.4 387.9 298 387.7C295.1 387.4 289.2 386.9 287.7 383.8Z" fill="#263238"/>
<path d="M296.1 375.4L243.2 403.5C243.2 403.5 187.3 353.9 182.3 353.6C177.4 353.3 103.2 404.6 65.7 405.1C26.9 405.6 24.5 365 24.5 365L81 351.3C121.7 330.8 163.9 294.2 191.7 297.3C222 300.7 296.1 375.4 296.1 375.4Z" fill="#263238"/>
<path d="M283.1 368.5C274.2 373 276.7 371.6 267.8 376.2C263.5 378.5 241.6 389.8 237.9 392.5C237.8 392.6 237.9 392.7 238 392.7C242.4 391.2 264 379.4 268.3 377.1C277.1 372.3 274.5 373.6 283.3 368.7C283.4 368.7 283.2 368.4 283.1 368.5Z" fill="#2C54AF"/>
<path d="M233.7 390.9C223.2 381.8 188.9 352.3 187.5 351.2C186.4 350.3 185.2 349.2 183.9 348.6C182.8 348.1 181.7 348.4 180.6 348.9C179 349.6 177.5 350.5 175.9 351.2C172.8 352.7 169.8 354.3 166.7 355.8C154.8 361.7 143.1 367.8 131.1 373.5C119.6 379 111.4 384.2 99.3996 388.5C87.4996 392.8 75.0996 396 62.4996 397.7C60.8996 397.9 59.3996 398.1 57.7996 398.2C57.6996 398.2 57.6996 398.4 57.7996 398.4C70.1996 397.7 82.2996 395 94.0996 391.3C106 387.5 114.1 382.7 125.4 377.3C137.1 371.8 148.6 365.9 160.2 360C166.3 356.9 172.4 353.8 178.5 350.7C179.9 350 181.9 348.5 183.4 349.2C184.1 349.5 184.7 350.1 185.2 350.5C185.9 351.1 186.6 351.6 187.3 352.2C190 354.4 232 389.9 233.4 390.9C233.7 391.1 233.8 391 233.7 390.9Z" fill="#2C54AF"/>
<path opacity="0.1" d="M288 379.7L243.2 403.4C243.2 403.4 187.3 353.8 182.3 353.5C177.4 353.2 103.2 404.5 65.7 405C26.8 405.5 24.5 364.9 24.5 364.9L81 351.3C95.6 343.9 110.3 334.5 124.5 325.6L288 379.7Z" fill="black"/>
<path d="M24.4999 358.2C24.4999 358.2 16.5999 403.1 35.3999 417C54.1999 430.9 188.7 425.6 209 418.5C229.2 411.4 229 378.4 206.5 371.3C185.1 364.6 94.5999 363.5 92.3999 362.6C91.7999 362.4 100.3 357 100.2 356.7L79.2999 351L24.4999 358.2Z" fill="#263238"/>
<path d="M52.7002 365.5C52.7002 365.3 52.4002 365.4 52.4002 365.6C52.5002 369.8 51.1002 374.2 48.5002 377.4C45.5002 381.1 40.9002 383.2 36.8002 385.5C36.4002 385.7 36.7002 386.3 37.1002 386.2C39.6002 385.4 42.1002 384.2 44.4002 382.8C46.5002 381.6 48.4002 380 49.8002 378C52.5002 374.3 53.6002 369.9 52.7002 365.5Z" fill="#3A62BB"/>
<path d="M90.7004 358.8C89.7004 357.6 88.7004 356.5 87.7004 355.4C85.3004 352.7 82.9004 350 80.5004 347.5C80.3004 347.3 79.8004 347.6 80.0004 347.9C81.7004 350 83.5004 352 85.2004 354C86.1004 355 87.0004 356.1 87.9004 357.1C88.7004 358.1 89.8004 359 90.4004 360.1C91.1004 361.3 90.3004 362.3 89.0004 362.5C87.9004 362.6 86.9004 362.1 86.0004 361.5C84.1004 360.1 82.5004 358 80.9004 356.3C79.9004 355.2 78.9004 354.2 77.9004 353.1C76.8004 352 75.7004 350.9 74.6004 349.8C74.5004 349.7 74.4004 349.8 74.5004 349.9C75.4004 351.1 76.3004 352.4 77.3004 353.6C78.2004 354.8 79.2004 356 80.2004 357.2C81.1004 358.3 82.1004 359.5 83.1004 360.5C83.9004 361.4 84.9004 362.3 86.0004 362.9C87.8004 363.9 90.8004 364 91.7004 361.7C92.0004 360.8 91.4004 359.7 90.7004 358.8Z" fill="#3A62BB"/>
<path d="M204.9 418.6C197.9 418.9 190.9 419.5 183.8 419.9C176.8 420.2 169.9 420.5 162.9 420.6C148.9 420.8 134.9 420.7 120.9 420.1C106.7 419.5 91.5 418.5 77.4 416.9C70.7 416.1 63.8 415.6 57.2 414.3C51.2 413.2 45.7 410.8 41.1 406.6C31.8 398 29.3 382.1 29.7 363.1C29.7 363 29.5 363 29.5 363.1C28.9 375.9 28.8 393.7 37.1 403.6C40.7 407.9 45.2 411.4 50.4 413.4C56.8 415.8 63.7 416.2 70.4 416.9C84.5 418.4 99.9 419.5 114.1 420.2C128.4 420.9 142.7 421.2 157 421.1C171.3 420.9 185.6 420.3 199.9 419.3C201.6 419.2 203.4 419 205.1 418.8C205 418.8 205 418.6 204.9 418.6Z" fill="#3A62BB"/>
<path d="M160.3 365.8C155.9 365.3 151.4 364.8 147 364.4C142.5 364.1 138 363.8 133.5 363.5C124.6 363 115.6 362.5 106.7 362.4C101.6 362.3 96.6002 362.4 91.5002 362.6C91.3002 362.6 91.4002 362.8 91.5002 362.8C100.4 363.4 109.4 363.7 118.4 364.1C127.3 364.5 136.3 365 145.2 365.6C150.3 365.9 155.3 366.2 160.4 366.5C160.6 366.5 160.7 365.9 160.3 365.8Z" fill="#3A62BB"/>
<path d="M101.1 356.3C97.4996 357.9 94.1996 359.9 90.9996 362.1C87.7996 364.2 84.5996 366.4 81.6996 369C81.5996 369.1 81.6996 369.2 81.7996 369.1C85.1996 367.4 88.4996 365.3 91.7996 363.3C95.0996 361.3 98.2996 359.2 101.3 356.8C101.5 356.6 101.4 356.2 101.1 356.3Z" fill="#3A62BB"/>
<path d="M74.8005 286.7C76.0005 307.6 82.1005 340.9 92.7005 342.7C102.3 344.3 127 331.3 137 327.4C147.1 323.5 131 297.7 125.2 300.3C116.2 304.3 102.4 312 100.5 310.9C98.1005 309.6 96.1005 302.8 85.1005 281.9C80.6005 273.4 74.3005 277.8 74.8005 286.7Z" fill="#D3766A"/>
<path d="M136.401 293.6C140.901 292.9 146.001 291.7 150.701 292.7C155.401 293.7 158.101 300.6 157.801 302.4C157.501 304.2 153.601 314.9 148.901 314.1C144.201 313.2 148.601 305.2 148.601 304.2C148.601 303.2 148.701 301.9 147.801 301.8C146.901 301.7 130.001 306.2 130.001 306.2L136.401 293.6Z" fill="#D3766A"/>
<path d="M136.501 294.3C136.801 294.3 150.301 291.7 155.001 292.7C159.701 293.7 162.401 300.6 162.101 302.4C161.801 304.2 157.901 314.9 153.201 314.1C148.501 313.2 152.901 305.2 152.901 304.2C152.901 303.2 153.001 301.9 152.101 301.8C151.201 301.7 134.301 306.2 134.301 306.2L136.501 294.3Z" fill="#D3766A"/>
<path d="M151.801 313.2C151.401 312.3 151.501 311.2 151.501 310.3C151.601 309.3 151.801 308.3 152.201 307.3C152.501 306.5 153.101 305.7 153.301 304.8C153.501 304 153.401 303 153.101 302.2C152.901 301.5 152.101 301.6 151.501 301.7C150.601 301.8 149.601 302.1 148.701 302.4C147.701 302.7 146.701 303 145.801 303.3C144.801 303.6 143.701 303.9 142.801 304.3C142.701 304.3 142.701 304.5 142.801 304.4C143.701 304.3 144.501 304 145.401 303.8C146.401 303.5 147.301 303.3 148.301 303.1C149.201 302.9 150.101 302.6 151.001 302.4C151.301 302.3 152.001 302.1 152.301 302.3C152.601 302.4 152.701 303.4 152.701 303.7C152.801 304.6 152.501 305.4 152.101 306.2C151.701 307 151.401 307.8 151.101 308.7C150.901 309.5 150.801 310.4 150.801 311.2C150.901 312 151.301 312.7 151.501 313.4C151.701 313.3 151.801 313.3 151.801 313.2Z" fill="#263238"/>
<path d="M119.301 303.9C119.301 303.9 134.601 294.4 137.701 292.6C144.001 288.9 168.701 283.8 172.001 284C175.301 284.3 175.201 291 158.401 294.9C149.501 297 147.201 301.4 146.901 304C146.601 306.6 148.201 312 152.601 312.6C157.001 313.3 161.001 307.4 165.201 307.5C169.401 307.5 165.301 314.4 161.701 318.2C158.101 321.9 152.301 324.5 148.201 325.2C144.101 325.9 131.501 328.8 131.501 328.8L119.301 303.9Z" fill="#D3766A"/>
<path d="M158.501 310.6C156.601 311.6 154.401 312.9 152.201 312.6C149.901 312.3 148.801 310.5 148.101 308.5C147.401 306.5 147.201 304.2 148.101 302.2C148.901 300.4 150.401 298.9 152.001 297.8C154.101 296.5 156.301 295.6 158.701 295C158.801 295 158.701 294.8 158.601 294.8C156.401 295.3 149.701 296.7 147.401 302C146.501 304.2 146.801 306.3 147.501 308.4C148.101 310.3 149.201 312.3 151.301 312.8C153.801 313.5 156.501 311.8 158.601 310.6C158.701 310.7 158.601 310.6 158.501 310.6Z" fill="#263238"/>
<path d="M119.6 302.2L133.5 336.1C133.5 336.1 99.3001 347.7 91.1001 343.3C82.9001 338.9 74.3001 311.3 73.0001 288.3C71.7001 265.3 83.6001 276.2 87.6001 284C91.6001 291.8 100 309.6 100.7 309.6C101.3 309.4 119.6 302.2 119.6 302.2Z" fill="#2C54AF"/>
<path d="M123.7 339.1C121.6 339.7 119.3 340.3 116.9 341L105.6 307.7C107.6 307 109.9 306 112.1 305.2C115.7 315.6 120 328.3 123.7 339.1Z" fill="#407BFF"/>
<path d="M114.3 341.6C113.6 341.8 112.8 341.9 112.1 342.1L101 309.4C101.4 309.3 102.1 309 103.1 308.6C106.6 318.9 110.7 331.1 114.3 341.6Z" fill="#407BFF"/>
<path d="M109.7 342.7C102.1 344.3 94.7999 345.1 91.3999 343.5C91.2999 343.5 91.1999 343.4 91.0999 343.4C82.8999 339 74.2999 311.4 72.9999 288.4C72.7999 284.3 72.8999 281.3 73.3999 279.1C73.3999 279 73.4999 278.9 73.4999 278.8C73.4999 278.6 73.5999 278.5 73.5999 278.3C73.5999 278.2 73.5999 278.2 73.6999 278.1C73.6999 277.9 73.7999 277.8 73.8999 277.6L109.7 342.7Z" fill="#263238"/>
<path d="M123.2 331.1C122.8 329.9 122.4 328.7 121.9 327.5C121 325.1 115.8 311 113.6 306.6C113.5 306.5 113.4 306.6 113.4 306.7C114.7 311.5 120.2 325.4 121.1 327.7C121.6 328.9 122 330 122.5 331.2C123 332.4 123.6 333.5 124.1 334.7C124.1 334.8 124.3 334.8 124.3 334.6C123.8 333.6 123.6 332.3 123.2 331.1Z" fill="#263238"/>
<path d="M100.4 361.6L21 366.3C21.1 364.7 34.6 305.4 56.5 277.8C62.3 270.4 75 265 81 278C87.4 291.7 101.5 360.6 100.4 361.6Z" fill="#407BFF"/>
<path d="M75.9996 288.9C71.3996 289 65.1996 280.6 63.3996 274.5C63.2996 274.1 64.6996 270.2 66.1996 265.5C67.0996 262.6 68.0996 259.4 68.6996 256.4C68.7996 255.8 86.5996 265.1 86.5996 265.1C86.5996 265.1 83.3996 271 82.2996 276.3C82.1996 276.7 82.1996 277.2 82.1996 277.6C82.1996 277.7 82.1996 277.7 82.1996 277.8C81.9996 280 80.4996 288.8 75.9996 288.9Z" fill="#D3766A"/>
<path d="M69.8997 256.6C69.6997 261.9 70.1997 274.9 80.1997 277.3C80.8997 277.5 81.4997 277.6 82.1997 277.6C82.1997 277.5 82.1997 277.5 82.1997 277.4C82.1997 277 82.1997 276.6 82.2997 276.1C83.3997 270.8 86.5997 264.9 86.5997 264.9C86.5997 264.9 73.7997 258.3 69.8997 256.6Z" fill="#263238"/>
<path d="M98.0996 233.1C98.0996 233.1 102.2 235.5 102.8 239.8C103.8 246.4 99.1996 254.5 99.1996 254.5L98.0996 233.1Z" fill="#263238"/>
<path d="M71.4002 233.1C67.7002 239.2 66.3002 259.3 70.0002 264.8C75.3002 272.7 86.3002 276.2 93.7002 269.3C100.8 262.6 102.1 236.5 97.9002 231.2C91.5002 223.4 76.9002 224 71.4002 233.1Z" fill="#D3766A"/>
<path d="M87.1996 249.5C87.1996 249.4 87.0996 249.6 87.0996 249.6C87.0996 251 86.8996 252.5 85.5996 252.9V253C87.1996 252.9 87.3996 250.8 87.1996 249.5Z" fill="#263238"/>
<path d="M86.1 248.1C83.9 247.9 83.6 252.2 85.6 252.4C87.6 252.7 87.9 248.3 86.1 248.1Z" fill="#263238"/>
<path d="M94.7997 250.1C94.7997 250 94.8997 250.2 94.8997 250.2C94.7997 251.5 94.7997 253.1 95.9997 253.7V253.8C94.4997 253.5 94.3997 251.4 94.7997 250.1Z" fill="#263238"/>
<path d="M96.0998 248.8C98.2998 248.8 98.0998 253.2 96.0998 253.2C94.0998 253.2 94.2998 248.8 96.0998 248.8Z" fill="#263238"/>
<path d="M84.7002 245.2C85.3002 245.1 85.8002 244.9 86.4002 244.7C87.1002 244.5 87.6002 244.4 88.1002 243.9C88.4002 243.6 88.3002 243 88.0002 242.8C87.4002 242.2 86.5002 242.2 85.7002 242.4C84.8002 242.6 84.2002 243 83.7002 243.7C83.2002 244.4 83.9002 245.4 84.7002 245.2Z" fill="#263238"/>
<path d="M98.2999 246.8C97.6999 246.7 97.1999 246.5 96.5999 246.4C95.8999 246.2 95.3999 246.1 94.8999 245.6C94.5999 245.3 94.6999 244.7 94.9999 244.5C95.5999 243.9 96.4999 243.9 97.2999 244.1C98.1999 244.3 98.7999 244.7 99.3999 245.4C99.7999 246 99.0999 246.9 98.2999 246.8Z" fill="#263238"/>
<path d="M83.6001 261.4C83.8001 261.8 83.9001 262.4 84.3001 262.6C84.7001 262.8 85.3001 262.9 85.8001 262.9C85.8001 262.9 85.9001 263 85.8001 263C85.3001 263.3 84.5001 263.3 83.9001 263C83.4001 262.6 83.3001 262 83.4001 261.5C83.5001 261.3 83.6001 261.4 83.6001 261.4Z" fill="#263238"/>
<path d="M85.8003 258C86.5003 259.2 87.5003 260 88.7003 260.3C89.2003 260.4 89.8003 260.5 90.3003 260.5C90.4003 260.5 90.5003 260.5 90.6003 260.5C90.7003 260.5 90.8003 260.5 90.9003 260.5C91.1003 260.5 91.2003 260.4 91.2003 260.2V260.1V260C91.3003 259 91.3003 257.4 91.3003 257.4C91.7003 257.6 93.5003 258.6 93.5003 258.1C93.6003 253.6 93.6003 248.6 92.7003 244.1C92.7003 243.9 92.4003 244 92.5003 244.1C92.3003 248.4 92.8003 252.8 92.6003 257.2C92.0003 256.9 91.0003 256.4 90.5003 256.4C90.3003 256.4 90.5003 259.5 90.4003 259.9C88.6003 260 87.4003 259.4 85.8003 258.1C85.8003 257.8 85.7003 257.9 85.8003 258Z" fill="#263238"/>
<path d="M89.1998 260.3C89.1998 260.3 88.0998 261.3 86.8998 261.4C86.3998 261.5 85.9998 261.4 85.4998 261.2C84.5998 260.7 84.6998 259.8 85.0998 259.1C85.3998 258.5 85.7998 258 85.7998 258C85.7998 258 86.9998 259.6 89.1998 260.3Z" fill="#263238"/>
<path d="M86.8998 261.4C86.3998 261.5 85.9998 261.4 85.4998 261.2C84.5998 260.7 84.6998 259.8 85.0998 259.1C86.0998 259.4 86.9998 260.3 86.8998 261.4Z" fill="#FF9BBC"/>
<path d="M70.1002 252.1C72.0002 252.6 73.6002 243.3 73.6002 243.3C73.6002 243.3 80.3002 239.5 81.6002 233.1C81.6002 233.1 84.3002 236.4 88.8002 237.7C92.2002 238.7 101.6 235.8 102.4 235.1C103 234.6 100.5 224.4 92.9002 221.5C87.9002 219.6 82.6002 221.2 77.2002 225.5C77.2002 225.5 68.1002 227.3 66.0002 233C63.8002 238.8 66.9002 251.3 70.1002 252.1Z" fill="#263238"/>
<path d="M96.8 237.9C93.2 238.5 89 239.6 85.8 237.3C83.4 235.6 81.8 233.2 80.2 230.7C80 230.4 79.5 230.6 79.6 231C80.7 234 83.1 236.9 86 238.4C89.3 240.2 93.5 238.8 96.9 237.9C97 238 96.9 237.9 96.8 237.9Z" fill="#263238"/>
<path d="M71.6 249.7C71.6 249.7 68.7 242.5 65.5 243.4C62.3 244.3 63.5 254.1 66.5 256.1C69.5 258.1 71.4 255.3 71.4 255.3L71.6 249.7Z" fill="#D3766A"/>
<path d="M65.9002 246.2C65.8002 246.2 65.8002 246.2 65.9002 246.2C68.0002 247.8 68.7002 250.2 69.0002 252.6C68.5002 251.6 67.7002 250.9 66.3002 251.4C66.2002 251.4 66.3002 251.5 66.3002 251.5C67.3002 251.5 67.9002 251.8 68.4002 252.8C68.7002 253.4 68.9002 254.2 69.1002 254.9C69.2002 255.1 69.6002 255.1 69.5002 254.9C69.5002 254.9 69.5002 254.9 69.5002 254.8C70.3002 251.9 69.0002 247.2 65.9002 246.2Z" fill="#263238"/>
<path d="M53.6996 295.3C55.6996 316.3 70.2996 356.2 81.3996 360.7C94.1996 365.9 140.7 354.6 150.1 348.7C153.8 346.4 136.5 322.1 132 323.4C113 328.9 96.2996 331.2 93.9996 329.4C90.4996 326.6 77.0996 304.2 68.2996 290.2C57.3996 272.5 52.6996 285.9 53.6996 295.3Z" fill="#D3766A"/>
<path d="M148.9 349.2C151 348.6 165.6 339.5 170.1 335.1C172.9 332.3 177.8 327.3 182 319.3C186.8 310 189.3 303.1 188.5 299.8C187.6 296 187.3 295.4 176.5 310.7C170.4 319.4 165.1 320 160.6 319.6C142.1 317.9 128.1 324.5 128.1 324.5C128.1 324.5 140.9 351.4 148.9 349.2Z" fill="#D3766A"/>
<path d="M168.8 321.4C157.3 315.4 145.1 310.7 132.6 307.3C139.6 298.7 147.1 289.5 155.2 279.7C165.2 277.2 175.3 274.9 185.6 272.9C188.3 279.5 190.9 286.4 193.3 293.5C184.5 303.3 176.3 312.7 168.8 321.4Z" fill="#FFC727"/>
<path opacity="0.2" d="M168.8 321.4C157.3 315.4 145.1 310.7 132.6 307.3C139.6 298.7 147.1 289.5 155.2 279.7C165.2 277.2 175.3 274.9 185.6 272.9C188.3 279.5 190.9 286.4 193.3 293.5C184.5 303.3 176.3 312.7 168.8 321.4Z" fill="black"/>
<path d="M166.799 320.4C156.499 315.2 145.799 311.1 134.699 307.9C144.199 296.2 154.699 283.3 166.499 269.4C178.399 272.4 189.899 276.5 201.099 281.5C188.399 295.5 177.099 308.5 166.799 320.4Z" fill="white"/>
<path d="M166.8 320.5C156.5 315.3 145.7 311.1 134.6 308C144.2 296.3 154.7 283.4 166.5 269.4C178.4 272.4 190 276.5 201.2 281.6C188.5 295.5 177.1 308.6 166.8 320.5ZM134.8 307.9C145.8 311 156.5 315.2 166.8 320.3C177 308.5 188.3 295.5 200.9 281.5C189.8 276.5 178.3 272.4 166.5 269.4C154.8 283.4 144.4 296.2 134.8 307.9Z" fill="#DBDBDB"/>
<path d="M166.7 318.2C157.3 313.6 147.5 309.8 137.5 306.9C146.4 296.1 156 284.3 166.8 271.5C177.5 274.3 188 278 198.1 282.5C186.5 295.3 176.1 307.2 166.7 318.2ZM137.6 306.8C147.6 309.7 157.3 313.5 166.6 318C176 307.1 186.3 295.2 197.7 282.5C187.7 278 177.3 274.4 166.6 271.6C156.1 284.3 146.5 296.1 137.6 306.8Z" fill="#FFC727"/>
<path d="M166.6 317.3C157.6 312.9 148.2 309.3 138.6 306.5C147.2 296 156.5 284.6 166.8 272.4C177 275.1 187.1 278.7 196.7 283C185.7 295.2 175.7 306.7 166.6 317.3ZM138.8 306.4C148.3 309.2 157.6 312.8 166.6 317.2C175.7 306.6 185.6 295.2 196.6 283C187 278.7 177.1 275.2 166.9 272.5C156.6 284.7 147.3 296 138.8 306.4Z" fill="#FFC727"/>
<path d="M166.8 272.5C166.3 272.4 165.8 272.2 165.3 272.1C165.7 271.6 166.1 271.1 166.5 270.6C167 270.7 167.5 270.9 168 271C167.7 271.5 167.2 272 166.8 272.5ZM165.6 272C166 272.1 166.4 272.2 166.8 272.3C167.2 271.9 167.5 271.5 167.9 271C167.5 270.9 167.1 270.8 166.7 270.7C166.3 271.2 165.9 271.6 165.6 272Z" fill="#FFC727"/>
<path d="M137.7 307.7C137.2 307.6 136.8 307.4 136.3 307.3C136.6 306.9 137 306.5 137.3 306C137.8 306.1 138.2 306.3 138.7 306.4C138.4 306.9 138.1 307.3 137.7 307.7ZM136.5 307.2C136.9 307.3 137.3 307.4 137.7 307.5C138 307.1 138.3 306.8 138.6 306.4C138.2 306.3 137.8 306.2 137.4 306.1C137.1 306.5 136.8 306.9 136.5 307.2Z" fill="#FFC727"/>
<path d="M166.8 319.1C166.4 318.9 165.9 318.7 165.5 318.5C165.9 318.1 166.2 317.7 166.6 317.2C167 317.4 167.5 317.6 167.9 317.8C167.5 318.2 167.1 318.7 166.8 319.1ZM165.7 318.4C166.1 318.6 166.4 318.8 166.8 318.9C167.1 318.5 167.4 318.2 167.7 317.8C167.3 317.6 167 317.4 166.6 317.3C166.3 317.7 166 318.1 165.7 318.4Z" fill="#FFC727"/>
<path d="M197.9 283.6C197.4 283.4 197 283.2 196.5 283C196.9 282.5 197.4 282 197.8 281.5C198.3 281.7 198.7 281.9 199.2 282.1C198.8 282.6 198.4 283.1 197.9 283.6ZM196.7 282.9C197.1 283.1 197.5 283.2 197.9 283.4C198.3 283 198.7 282.6 199 282.1C198.6 281.9 198.2 281.8 197.8 281.6C197.5 282.1 197.1 282.5 196.7 282.9Z" fill="#FFC727"/>
<path d="M190.1 297C182.5 305.6 175.4 313.7 168.8 321.4C157.3 315.4 145.1 310.7 132.6 307.3C138.7 299.8 145.2 291.8 152.2 283.3C152.3 283.1 161.3 299.1 161.8 300.6C163.7 300.1 190 296.9 190.1 297Z" fill="#FFC727"/>
<path opacity="0.1" d="M190.1 297C182.5 305.6 175.4 313.7 168.8 321.4C157.3 315.4 145.1 310.7 132.6 307.3C138.7 299.8 145.2 291.8 152.2 283.3C152.3 283.1 161.3 299.1 161.8 300.6C163.7 300.1 190 296.9 190.1 297Z" fill="black"/>
<g opacity="0.1">
<path d="M161.099 299C151.399 301.7 141.999 304.5 132.699 307.3C141.799 304.2 151.099 301.1 160.599 298.1C160.699 298.4 160.899 298.7 161.099 299Z" fill="black"/>
<path d="M168.799 321.4C167.399 314.2 165.899 307.2 164.299 300.2C164.799 300.1 165.299 300.1 165.799 300C166.799 307 167.899 314.2 168.799 321.4Z" fill="black"/>
</g>
<path d="M168.8 321.4C157.3 315.4 145.1 310.7 132.6 307.3C141.6 304.5 150.9 301.7 160.3 299C161.3 298.7 162.4 298.7 163.2 299C164 299.3 164.5 299.9 164.7 300.6C166.1 307.4 167.5 314.3 168.8 321.4Z" fill="#FFC727"/>
<path opacity="0.1" d="M168.8 321.4C157.3 315.4 145.1 310.7 132.6 307.3C141.6 304.5 150.9 301.7 160.3 299C161.3 298.7 162.4 298.7 163.2 299C164 299.3 164.5 299.9 164.7 300.6C166.1 307.4 167.5 314.3 168.8 321.4Z" fill="black"/>
<path d="M163.099 283.3C163.099 283.4 163.099 283.4 163.099 283.3C162.999 283.4 162.999 283.4 162.999 283.5C162.999 283.5 162.999 283.5 163.099 283.5H163.199C164.099 282.9 164.899 282.4 165.599 282C166.299 281.6 166.799 281.2 167.099 281C167.399 280.8 167.699 280.6 167.799 280.5C168.299 280.2 168.799 279.9 169.199 279.6C168.099 279.7 167.299 279.7 166.799 279.6C166.299 279.5 165.899 279.4 165.699 279.4C165.499 279.3 165.399 279.2 165.399 279.1C165.399 279 165.399 278.9 165.499 278.8C165.599 278.7 165.599 278.6 165.699 278.6C165.799 278.4 165.999 278.3 166.299 278.2C166.599 278.1 166.799 278.1 166.899 278.1C166.999 278.1 167.099 278.1 167.099 278.2C167.099 278.2 166.999 278.3 166.899 278.3C166.799 278.4 166.699 278.4 166.699 278.4C166.599 278.5 166.999 278.6 167.799 278.7C168.599 278.8 169.599 278.8 170.799 278.8C171.699 278.4 172.399 278.3 172.799 278.3C173.099 278.3 173.199 278.5 173.199 278.6C173.199 278.7 173.199 278.8 173.099 278.9C172.999 279 172.899 279.1 172.699 279.1C172.499 279.2 172.299 279.2 172.099 279.3C171.699 279.4 171.199 279.4 170.699 279.4C170.299 279.6 169.799 279.9 169.099 280.4C168.399 280.8 167.899 281.1 167.699 281.3C167.499 281.5 166.999 281.7 166.399 282.1C165.799 282.5 165.299 282.8 164.899 283.1C164.499 283.4 163.999 283.7 163.599 284C162.699 284.6 161.999 284.8 161.599 284.8C161.399 284.8 161.299 284.7 161.299 284.6C161.199 284.5 161.299 284.4 161.399 284.2C161.499 284 161.799 283.8 162.199 283.6C162.599 283.4 162.899 283.2 162.999 283.1C162.999 283.3 163.099 283.2 163.099 283.3C163.199 283.3 163.199 283.3 163.099 283.3Z" fill="#2C54AF"/>
<path d="M171.099 284.7C170.999 284.9 170.999 285 170.899 285.1C170.799 285.2 170.799 285.3 170.699 285.3C170.599 285.4 170.499 285.4 170.299 285.5C170.099 285.6 169.899 285.7 169.699 285.8C169.099 286 168.699 286.1 168.299 286C167.699 285.9 167.599 285.6 167.899 285.2C168.199 284.8 169.099 284 170.699 282.9C170.799 282.9 170.799 282.8 170.799 282.8C170.399 282.9 169.599 283.3 168.299 284C166.999 284.7 166.199 285.1 165.699 285.4C165.699 285.4 165.599 285.4 165.499 285.5C165.399 285.5 165.299 285.5 165.299 285.5C165.299 285.5 165.199 285.5 165.199 285.4L165.099 285.3C165.099 285.3 164.999 285.3 165.099 285.2C165.099 285.2 165.299 285 165.599 284.8C165.899 284.6 166.299 284.2 166.799 283.9C168.099 282.9 169.899 281.6 172.199 280C172.999 279.4 173.599 279 173.999 278.8C174.299 278.6 174.599 278.6 174.999 278.6C175.099 278.6 175.099 278.6 175.099 278.7C175.099 278.7 175.099 278.8 174.999 278.8L174.899 278.9C174.499 279.1 174.199 279.4 173.799 279.6C171.599 281.1 169.899 282.3 168.599 283.2C169.499 282.7 170.399 282.3 171.099 282C171.599 281.8 171.899 281.8 171.999 281.8C172.199 281.8 172.299 281.9 172.399 281.9C172.499 282 172.499 282.1 172.399 282.3C172.399 282.4 172.099 282.6 171.599 283C170.099 284.1 169.299 284.8 169.199 284.9C169.099 285 169.099 285.1 169.199 285.1C169.399 285.1 169.699 285 170.299 284.8C170.699 284.6 170.999 284.5 171.099 284.4C171.199 284.4 171.199 284.4 171.199 284.4C171.099 284.6 171.099 284.6 171.099 284.7Z" fill="#2C54AF"/>
<path d="M176.199 283C176.499 283 176.499 283.2 176.399 283.3C176.299 283.4 176.299 283.5 176.199 283.5C176.099 283.5 175.899 283.7 175.599 283.9C175.299 284.1 174.899 284.4 174.499 284.7C174.099 285 173.699 285.3 173.499 285.6L173.399 285.7C173.299 285.9 173.299 286 173.399 286C173.499 286 173.699 286 173.899 285.9C174.099 285.8 174.299 285.8 174.499 285.7C174.699 285.6 174.899 285.5 174.999 285.4C175.199 285.3 175.299 285.3 175.299 285.2H175.399C175.499 285.2 175.499 285.3 175.399 285.4C175.299 285.5 175.299 285.6 175.199 285.7C175.099 285.8 175.099 285.9 174.999 285.9C174.799 286.1 174.399 286.2 173.899 286.4C173.399 286.6 172.999 286.7 172.699 286.6C172.399 286.5 172.299 286.4 172.299 286.3C172.299 286.1 172.299 285.9 172.499 285.7C172.599 285.5 172.799 285.3 172.899 285.2C172.399 285.5 171.899 285.7 171.299 285.9C170.799 286.1 170.399 286.1 170.199 286.1C169.999 286.1 169.799 286 169.799 285.8C169.699 285.6 169.799 285.4 169.999 285.1C170.199 284.8 170.499 284.5 170.799 284.3C171.099 284 171.499 283.8 171.899 283.6C172.299 283.4 172.699 283.2 173.099 283.1C173.999 282.8 174.599 282.7 175.099 282.7C175.299 282.7 175.399 282.8 175.499 282.9C175.599 283 175.599 283.1 175.599 283.2C175.799 283.1 175.899 283 175.999 283C175.999 283 176.099 283 176.199 283ZM175.099 283.5C174.499 283.4 173.699 283.6 172.699 284.1C172.299 284.3 171.899 284.5 171.499 284.8C171.099 285.1 170.899 285.3 170.799 285.4C170.699 285.5 170.699 285.6 170.799 285.6C170.899 285.6 171.299 285.5 171.999 285.2C172.699 284.9 173.099 284.7 173.399 284.6C173.699 284.3 174.199 284 175.099 283.5Z" fill="#2C54AF"/>
<path d="M177.2 286.6C177.1 286.7 177.2 286.8 177.4 286.9C177.5 286.9 177.7 286.9 177.9 286.8C178.1 286.7 178.4 286.6 178.6 286.5C179.2 286.2 179.5 286.1 179.5 286.1C179.6 286.1 179.5 286.3 179.4 286.5C179.2 286.7 179 286.9 178.8 287C178 287.3 177.5 287.5 177.2 287.5C177 287.5 176.8 287.5 176.7 287.5C176.5 287.5 176.4 287.3 176.3 287.2C176.2 287 176.3 286.8 176.4 286.6C176.5 286.4 176.8 286.2 177.1 285.9C177.4 285.7 177.7 285.5 177.9 285.3C178.2 285.1 178.5 284.9 178.8 284.7C179.2 284.5 179.4 284.3 179.4 284.3C179.3 284.3 178.9 284.4 178.1 284.8C177.4 285.1 176.8 285.4 176.3 285.7C175.8 286 175.2 286.3 174.4 286.7C174.2 286.8 174.1 286.9 174 286.9C173.9 286.9 173.8 286.8 173.8 286.8C173.7 286.7 173.7 286.7 173.6 286.7V286.6L173.7 286.5C173.8 286.4 173.8 286.4 173.9 286.4C173.9 286.4 174 286.3 174.1 286.2C174.2 286.1 174.4 286 174.7 285.8C175 285.6 175.5 285.2 176.2 284.8C176.9 284.4 177.3 284.1 177.4 284C177.7 283.8 177.9 283.7 178 283.6C178.3 283.4 178.6 283.4 179 283.5C179.1 283.5 179.1 283.6 179 283.7C178.9 283.9 178.5 284.1 178 284.5C177.9 284.6 177.7 284.7 177.6 284.8C178.6 284.3 179.4 284 179.9 283.9C180.2 283.9 180.4 283.9 180.5 283.9C180.7 283.9 180.8 284 180.8 284.1C180.8 284.2 180.8 284.3 180.7 284.4C180.6 284.5 180.5 284.6 180.3 284.7C180.1 284.8 180 284.9 179.8 285C179.7 285.1 179.5 285.2 179.2 285.4C179 285.5 178.8 285.6 178.8 285.6C178.8 285.6 178.7 285.6 178.6 285.7C178.5 285.8 178.4 285.8 178.4 285.8C178.4 285.8 178.3 285.9 178.2 285.9C178.1 286 178 286 178 286.1C177.9 286.1 177.9 286.2 177.8 286.3C177.7 286.4 177.6 286.4 177.6 286.5C177.5 286.5 177.5 286.6 177.4 286.7C177.3 286.4 177.2 286.5 177.2 286.6Z" fill="#2C54AF"/>
<path d="M178 287.8C177.9 287.8 177.8 287.7 177.7 287.7C177.6 287.7 177.6 287.6 177.6 287.5V287.4C177.6 287.4 177.6 287.4 177.7 287.3L177.8 287.2C178 287 179.4 286 181.9 284.3C184.4 282.6 185.7 281.7 185.8 281.6C185.9 281.5 186 281.5 186 281.5C186 281.5 186.1 281.5 186.1 281.4H186.2H186.3C186.4 281.4 186.4 281.4 186.5 281.4C186.6 281.4 186.6 281.4 186.7 281.4C186.8 281.4 186.8 281.4 186.9 281.4H187C187 281.4 187.1 281.4 187.1 281.5V281.6C187 281.7 186 282.4 184.1 283.7C182.2 285 181.1 285.7 181 285.9C181.3 285.9 181.9 285.7 182.7 285.4C183.5 285.1 183.9 284.9 184 284.8C184.1 284.7 184.2 284.6 184.3 284.5C184.4 284.5 184.5 284.5 184.6 284.5C184.7 284.5 184.8 284.6 184.8 284.7C184.8 284.8 184.8 284.9 184.7 285.1C184.6 285.3 184.4 285.4 184 285.6C183.7 285.8 183.3 286 182.9 286.1C182.1 286.4 181.5 286.6 181 286.7C180.8 287.5 180.8 287.9 181.2 288C181.4 288 181.8 287.9 182.2 287.7C182.4 287.6 182.5 287.5 182.7 287.5C182.9 287.4 183 287.4 183 287.4H183.1C183.2 287.4 183.2 287.5 183.1 287.6C183 287.7 183 287.8 182.9 287.9C182.8 288 182.8 288.1 182.7 288.1C182.5 288.3 182.1 288.4 181.6 288.6C181.1 288.8 180.7 288.8 180.4 288.8C180.2 288.8 180 288.7 180 288.6C179.9 288.5 179.9 288.4 179.8 288.3C179.8 288.2 179.7 288.1 179.7 288C179.7 287.9 179.7 287.8 179.7 287.7C179.7 287.6 179.7 287.5 179.7 287.4C179.7 287.3 179.7 287.2 179.7 287.1C179.7 287.1 179.7 287 179.7 286.9C179.7 286.8 179.7 286.7 179.7 286.7C179.6 286.8 179.4 286.9 179.2 287C179 287.1 178.9 287.2 178.7 287.3C178.6 287.4 178.4 287.5 178.3 287.6C178.2 287.7 178.1 287.8 178 287.8C177.9 287.9 177.9 287.9 177.9 287.9C178.1 287.8 178.1 287.8 178 287.8Z" fill="#2C54AF"/>
<path d="M165.299 293.7C165.299 293.7 165.199 293.8 164.999 293.9C164.799 294 164.599 294.2 164.399 294.3C164.199 294.4 163.999 294.5 163.799 294.6C163.599 294.7 163.399 294.8 163.299 294.7C163.199 294.7 163.099 294.7 163.099 294.7C162.799 294.6 162.699 294.5 162.899 294.2C163.099 293.9 163.599 293.5 164.299 293.1C164.599 293 164.899 292.8 165.199 292.6C165.599 292.4 165.699 292.4 165.799 292.3C165.799 292.3 166.399 291.9 167.399 291.1C166.899 291.4 166.399 291.6 165.999 291.7C165.599 291.9 165.199 291.9 164.999 291.9C164.899 291.9 164.799 291.8 164.699 291.7C164.599 291.6 164.699 291.4 164.799 291.2C164.999 290.9 165.299 290.6 165.599 290.4C165.699 290.3 165.899 290.2 166.199 290C166.499 289.8 166.799 289.6 167.099 289.4C167.299 289.2 167.599 289.1 167.899 288.9C168.199 288.7 168.399 288.5 168.499 288.5C168.599 288.4 168.699 288.4 168.799 288.4C168.899 288.4 168.899 288.5 168.999 288.6C168.999 288.7 168.999 288.8 168.999 288.9C168.899 289 168.399 289.4 167.499 290.1C166.599 290.8 165.999 291.2 165.999 291.3C166.099 291.3 166.399 291.2 166.799 291C167.299 290.8 167.799 290.6 168.499 290.3C169.199 290 169.799 289.6 170.299 289.3C170.399 289.3 170.399 289.2 170.399 289.2C170.399 289.2 170.499 289.2 170.499 289.1C170.599 289.1 170.599 289 170.599 289C170.599 289 170.699 289 170.699 288.9C170.699 288.9 170.799 288.9 170.799 288.8H170.899C170.999 288.8 170.999 288.8 171.099 288.8C171.099 288.8 171.199 288.8 171.299 288.9C171.399 288.9 171.399 289 171.399 289V289.1V289.2L171.299 289.3C171.199 289.3 170.899 289.6 170.299 290C168.499 291.2 167.299 292 166.599 292.6C167.399 292.3 168.499 291.8 169.999 291.2C170.099 291.2 170.099 291.2 170.099 291.2C170.199 291.2 170.199 291.4 169.899 291.7C169.799 291.8 169.799 291.8 169.699 291.9C168.199 292.4 166.699 293 165.299 293.7Z" fill="#2C54AF"/>
<path d="M174.699 289.7C174.799 289.7 174.899 289.8 174.899 289.9C174.899 290 174.899 290.2 174.799 290.3C174.699 290.5 174.499 290.7 174.099 291C173.799 291.3 173.399 291.5 172.999 291.8C172.599 292 172.099 292.3 171.699 292.5C171.299 292.7 170.799 292.8 170.399 292.9C169.999 293 169.599 293 169.399 293C169.099 292.9 168.999 292.8 168.899 292.6C168.799 292.4 168.899 292.2 169.099 291.9C169.299 291.6 169.599 291.3 169.899 291C170.299 290.7 170.699 290.4 171.099 290.2C171.499 290 171.899 289.8 172.299 289.7C173.099 289.4 173.799 289.3 174.199 289.4C174.399 289.4 174.499 289.5 174.499 289.6V289.7C174.499 289.6 174.599 289.6 174.699 289.7ZM173.699 290.2C173.499 290.2 173.499 290.1 173.699 289.9C173.399 289.9 173.099 290 172.699 290.1C172.299 290.2 171.899 290.4 171.499 290.6C170.699 291 170.199 291.4 169.999 291.8C169.899 292 169.899 292.1 169.999 292.1C170.099 292.1 170.399 292.1 170.799 292C171.199 291.9 171.599 291.7 172.099 291.4C172.599 291.1 172.999 290.9 173.299 290.7C173.599 290.5 173.799 290.3 173.799 290.3C173.799 290.3 173.799 290.2 173.699 290.2Z" fill="#2C54AF"/>
<path d="M177.799 292.8C177.899 292.8 177.899 292.9 177.799 293C177.699 293.1 177.699 293.2 177.599 293.3C177.499 293.4 177.499 293.5 177.399 293.5C177.199 293.7 176.799 293.8 176.299 294C175.799 294.2 175.399 294.2 175.099 294.2C174.899 294.2 174.799 294.1 174.699 293.9C174.599 293.8 174.699 293.6 174.799 293.3C174.999 293 175.199 292.8 175.499 292.6C173.999 293.4 172.999 293.8 172.499 293.7C172.299 293.7 172.199 293.6 172.199 293.4C172.199 293.2 172.199 293.1 172.299 293C172.399 292.9 172.499 292.7 172.599 292.6C172.699 292.5 172.899 292.3 172.999 292.2C173.099 292.1 173.299 292 173.499 291.8C173.699 291.6 173.899 291.5 173.999 291.5C174.099 291.4 174.199 291.3 174.399 291.2C174.599 291.1 174.899 290.9 175.199 290.7C175.499 290.5 175.799 290.3 175.999 290.2C176.199 290.1 176.299 290.1 176.399 290.1C176.499 290.1 176.599 290.2 176.599 290.3C176.599 290.4 176.599 290.5 176.599 290.5C176.599 290.5 176.299 290.7 175.799 291.1C174.299 292.1 173.599 292.7 173.399 292.9V293C173.599 293 174.199 292.8 175.299 292.3C176.399 291.8 177.099 291.4 177.299 291.3C177.499 291.1 177.699 291 177.899 290.9C178.099 290.8 178.199 290.7 178.299 290.7C178.499 290.6 178.699 290.6 178.999 290.7H179.099C179.099 290.7 179.099 290.7 179.099 290.8C179.099 290.9 179.099 290.9 179.099 290.9C178.999 291 178.699 291.2 178.199 291.5C177.699 291.8 177.399 292 177.399 292.1C176.499 292.8 175.899 293.3 175.799 293.5C175.699 293.6 175.699 293.7 175.799 293.7C175.999 293.7 176.299 293.6 176.799 293.4C176.999 293.3 177.099 293.2 177.299 293.2C177.499 293.1 177.599 293.1 177.599 293.1C177.699 292.8 177.799 292.8 177.799 292.8Z" fill="#2C54AF"/>
<path d="M176.999 294.4C177.099 294.2 177.399 294 177.599 293.9C177.899 293.8 178.099 293.7 178.299 293.8C178.499 293.8 178.499 294 178.399 294.1C178.299 294.3 178.099 294.4 177.799 294.6C177.499 294.7 177.299 294.8 177.099 294.7C176.899 294.7 176.899 294.6 176.999 294.4ZM186.999 288.2C187.099 288.2 187.199 288.3 187.399 288.3C187.499 288.3 187.499 288.4 187.499 288.4C187.499 288.4 187.499 288.4 187.399 288.5C185.299 289.7 182.899 291.2 180.299 292.9C180.199 293 179.999 293 179.999 293C179.899 293 179.899 293 179.799 293C179.699 293 179.699 293 179.599 293C179.599 293 179.499 293 179.399 293C179.299 293 179.299 292.9 179.299 292.8C179.399 292.6 180.099 292.1 181.299 291.3C182.499 290.5 183.599 289.8 184.699 289.2C185.799 288.6 186.499 288.2 186.699 288.1C186.799 288.2 186.899 288.2 186.999 288.2Z" fill="#2C54AF"/>
<path d="M162.9 319.6C158.2 319.3 174.1 311 174.7 305.7C175.3 300.4 170 301.7 165.7 304.4C150.8 313.8 140.2 312.5 132.3 321.9C124.4 331.3 162.9 319.6 162.9 319.6Z" fill="#D3766A"/>
<path d="M148.599 312.4C146.999 313 145.399 313.7 143.899 314.4C142.399 315.1 140.899 315.9 139.399 316.8C137.899 317.6 136.499 318.6 135.299 319.6C133.999 320.7 132.899 321.9 131.999 323.3L131.899 323.4H131.799C130.699 323.8 129.499 324.2 128.399 324.6C127.199 324.9 126.099 325.2 124.899 325.3C126.099 325 127.199 324.6 128.299 324.1C129.399 323.7 130.499 323.2 131.599 322.7L131.399 322.9C132.199 321.3 133.399 320 134.799 318.9C136.099 317.8 137.599 316.8 139.099 316C140.599 315.2 142.199 314.5 143.799 313.9C145.199 313.2 146.899 312.7 148.599 312.4Z" fill="#263238"/>
<path d="M95.0996 328.1C98.5996 329.3 124.4 324.2 124.4 324.2L136.1 359.5C136.1 359.5 91.3996 366.6 81.3996 362.3C71.3996 358 57.8996 322 54.1996 301.4C50.6996 282 58.0996 270.1 70.1996 290.8C70.2996 290.8 93.2996 327.5 95.0996 328.1Z" fill="#2C54AF"/>
<path d="M127.999 360.7C125.099 361.1 121.699 361.5 117.999 361.9L107.499 327.1C110.899 326.6 114.399 326 117.299 325.5C120.499 336.2 124.399 349 127.999 360.7Z" fill="#407BFF"/>
<path d="M113.999 362.4C112.899 362.5 111.899 362.6 110.799 362.7L100.399 328.1C101.399 328 102.399 327.9 103.499 327.8C106.699 338.1 110.499 350.8 113.999 362.4Z" fill="#407BFF"/>
<path d="M80.9996 361.2C72.6996 356.2 63.7996 332.4 62.0996 327.7C60.9996 324.7 59.9996 321.7 59.0996 318.7C57.1996 312.6 55.4996 306.5 53.7996 300.3C53.7996 300.2 53.5996 300.2 53.5996 300.3C54.3996 305 55.3996 309.7 56.6996 314.3C55.7996 312.5 54.9996 310.7 54.2996 308.9C54.2996 308.8 54.0996 308.9 54.0996 309C54.7996 311.2 55.7996 313.3 56.8996 315.3C58.1996 320 59.6996 324.6 61.3996 329.1C61.8996 330.4 72.0996 359.5 81.4996 362.8C84.7996 364 96.2996 363.9 98.6996 363.6C98.7996 363.6 98.7996 363.5 98.6996 363.4C95.4996 363.1 83.8996 363 80.9996 361.2Z" fill="#263238"/>
<path d="M126.899 354.7C126.599 353.5 126.199 352.3 125.899 351.1C125.199 348.7 120.899 334.3 118.899 329.7C118.799 329.6 118.699 329.7 118.699 329.8C119.599 334.7 124.299 348.9 124.999 351.3C125.399 352.5 125.799 353.7 126.199 354.9C126.599 356.1 127.199 357.3 127.599 358.5C127.599 358.6 127.799 358.6 127.799 358.5C127.499 357.2 127.299 355.9 126.899 354.7Z" fill="#263238"/>
<path d="M124.4 324.3C122.3 324.2 103.1 327.3 98.8998 327.9C97.8998 328.1 96.7998 328.3 95.7998 328.1C94.6998 327.9 94.0998 326.9 93.4998 326.1C92.2998 324.5 78.8998 303.9 77.8998 302.8C77.4998 302.4 77.1998 302.3 77.4998 303C78.0998 304.1 91.0998 324.4 92.1998 326C93.2998 327.5 94.2998 329.1 96.3998 329.1C97.2998 329.1 123.2 325.2 124.5 324.8C124.7 324.7 124.7 324.3 124.4 324.3Z" fill="#263238"/>
<path d="M166.001 214.8C166.001 230 153.701 242.3 138.501 242.3C132.401 242.3 126.701 240.3 122.101 236.9L108.601 240.3L114.201 227.8C112.101 223.9 110.901 219.5 110.901 214.8C110.901 199.6 123.201 187.3 138.401 187.3C153.601 187.3 166.001 199.7 166.001 214.8Z" fill="white"/>
<path d="M166 214.8C165.9 219.8 164.6 224.9 161.9 229.2C161.3 230.3 160.5 231.3 159.7 232.3C158.8 233.2 158 234.2 157.1 235C155.3 236.7 153.1 238.2 150.9 239.4C148.7 240.6 146.2 241.4 143.7 241.9C142.4 242.1 141.2 242.3 139.9 242.4C138.6 242.5 137.4 242.5 136.1 242.4C131 242 126 240.2 121.9 237.1L122.2 237.2L108.8 240.7L107.9 240.9L108.3 240.1L113.9 227.5V227.9C109.8 220.5 109.6 211.1 113 203.4C114.7 199.5 117.4 196.1 120.6 193.4C123.8 190.7 127.7 188.8 131.8 187.8C135.9 186.8 140.2 186.7 144.3 187.6C148.4 188.5 152.2 190.4 155.5 192.9C162.1 198.2 166 206.5 166 214.8ZM166 214.8C166 206.5 162 198.2 155.4 193.2C152.1 190.7 148.3 188.9 144.2 188.1C140.1 187.3 135.9 187.4 131.9 188.4C127.9 189.4 124.2 191.3 121.1 194C118 196.7 115.5 200.1 113.8 203.8C112.1 207.5 111.4 211.7 111.5 215.7C111.7 219.8 112.8 223.8 114.7 227.4L114.8 227.6L114.7 227.8L109.1 240.3L108.6 239.7L122.1 236.3H122.3L122.4 236.4C126.4 239.4 131.2 241.3 136.2 241.8C137.4 241.9 138.7 241.9 140 241.9C141.3 241.9 142.5 241.7 143.7 241.5C146.1 241 148.6 240.3 150.8 239.1C153 238 155.2 236.6 157 234.9C158 234.1 158.8 233.1 159.6 232.2C160.3 231.2 161.2 230.2 161.8 229.1C164.6 224.9 165.9 219.9 166 214.8Z" fill="#263238"/>
<path d="M125.001 218.7C129.001 226.8 138.501 231.5 138.501 231.5C138.501 231.5 148.001 226.7 152.001 218.7C155.301 212 153.201 204.7 148.001 203.1C140.501 200.8 138.501 208.7 138.501 208.7C138.501 208.7 136.601 200.8 129.001 203.1C123.801 204.7 121.701 212 125.001 218.7Z" fill="#F76D72"/>
</g>
<defs>
<clipPath id="clip0_3752_9152">
<rect width="438" height="425.7" fill="white"/>
</clipPath>
</defs>
</svg>
