<svg width="577" height="315" viewBox="0 0 577 315" fill="none" xmlns="http://www.w3.org/2000/svg">
<g clip-path="url(#clip0_3752_8742)">
<path d="M536.3 314.3C542.1 300.5 547.4 286.6 549.8 271.9C552.6 254.6 550.8 236 541.3 221.3C536.1 213.3 528.8 206.7 524.4 198.2C512.6 175.2 525.6 147.1 520.9 121.7C515.6 93 488.1 72.7 459.6 66.6C431.1 60.4 401.5 65.5 372.8 70.2C344 74.9 314.2 79.1 286.1 71.3C264.2 65.2 244.8 52.3 223.6 43.9C202.4 35.5 176.9 32.3 158 45.1C137.9 58.8 132.3 85.5 128.6 109.5C124.8 133.5 119.7 160.2 100 174.4C82.3 187.2 56.9 186.6 40.6 201C21.9 217.5 22.5 248 35 269.4C46.2 288.5 64.6 302 83.1 314.4H536.3V314.3Z" fill="#EEF4FD"/>
<path d="M104.4 146C108.1 139.8 110.7 132.7 110.7 125.5C110.7 118.3 108 110.8 102.6 106C97.1998 101.2 88.8998 99.5 82.3998 102.5C76.6998 105.2 73.0998 110.8 68.8998 115.5C63.3998 121.6 56.5998 126.4 48.9998 129.5C42.2998 132.2 34.5998 133.8 29.8998 139.3C24.3998 145.7 24.8998 155.9 29.6998 162.9C43.6998 183.1 75.1998 173.8 91.0998 161.2C96.2998 157 100.9 151.9 104.4 146Z" fill="#ECF3FD"/>
<path d="M557.5 43.5999C561.8 43.5999 565.7 40.8999 567.2 36.7999C567.6 35.5999 568 34.4999 568.2 33.5999C569 30.0999 567.7 25.7999 564.4 24.4999C560.7 22.9999 556.4 25.5999 552.5 24.9999C547.3 24.1999 544.5 18.4999 542.9 13.3999C541.1 7.79995 539 1.19995 532.6 0.199948C529.7 -0.300052 526.7 0.699948 524.4 2.59995C518.3 7.49995 516.9 15.1999 512.9 21.2999C509.9 25.7999 504.3 29.5999 499.1 27.8999C493.5 26.0999 490.6 18.6999 484.7 18.1999C479.2 17.7999 475.5 23.4999 473.5 28.5999C471.5 33.6999 468.9 39.6999 463.5 40.7999C458.2 41.7999 452.9 37.1999 447.7 38.2999C445 38.8999 442.8 41.0999 442 43.6999H557.5V43.5999Z" fill="#C5DDFD"/>
<path d="M114.9 63.2999C116.3 63.2999 117.3 61.6999 116.4 60.4999C113.5 56.1999 107.1 54.4999 102.5 57.4999C101.7 57.9999 100.9 58.3999 99.9999 58.4999C89.2999 60.3999 91.9999 51.1999 87.7999 47.3999C84.5999 44.3999 78.9999 46.1999 75.5999 47.8999C74.9999 48.1999 74.2999 48.4999 73.5999 48.5999C61.4999 51.8999 61.0999 39.1999 54.9999 33.1999C49.0999 27.3999 37.4999 30.0999 34.7999 37.8999C32.7999 43.7999 34.4999 51.9999 28.9999 54.7999C26.1999 56.2999 22.6999 55.3999 19.5999 55.8999C16.8999 56.3999 14.3999 58.0999 12.8999 60.4999C12.0999 61.6999 12.9999 63.2999 14.3999 63.2999H114.9Z" fill="#C5DDFD"/>
<path d="M103.1 32.1001L123.9 44.4001L127 39.9001L126.9 34.7001L129.1 31.6001L108.1 31.4001L103.1 32.1001Z" fill="#1B7BF6"/>
<path d="M103.1 32.1001L132.2 35.0001L136.7 44.3001L103.1 32.1001Z" fill="#CEE8F0"/>
<path d="M126.6 25.3L129.1 31.6L103.1 32.1L126.6 25.3Z" fill="#CEE8F0"/>
<path d="M546.2 99.4001L522.5 103.8L521.1 98.5001L522.9 93.6001L522 89.9001L541.8 97.0001L546.2 99.4001Z" fill="#1B7BF6"/>
<path d="M546.2 99.4001L517.8 92.1001L510.5 99.2001L546.2 99.4001Z" fill="#CEE8F0"/>
<path d="M526.5 84.9001L522 89.9001L546.2 99.4001L526.5 84.9001Z" fill="#CEE8F0"/>
<path d="M128.5 293C123.8 284 123.6 272.9 127.9 263.7C131.3 256.5 137.3 250.2 137.8 242.2C138.2 236 135 230.1 130.8 225.5C126.6 220.9 121.5 217.4 116.8 213.3C108.6 206.2 101.7 197.2 98.2002 186.9C94.7002 176.6 94.9002 164.8 100.1 155.2C103.8 148.3 111 142.4 118.7 143.5C125.9 144.5 131 151.3 133.7 158.1C136.3 164.9 137.4 172.4 141 178.7C147.5 190.4 161 196.5 168.4 207.6C181.2 226.6 172.3 253.1 180.2 274.6C182.7 281.3 186.8 287.8 185.9 294.9C184.2 308.7 167.2 313.5 155.5 312.4C144.9 311.4 133.3 302.2 128.5 293Z" fill="#EB5C62"/>
<path d="M146.2 308.3C146 308.3 145.8 308.2 145.6 308.1C110.6 277.1 102.2 219.5 102.2 219C102.1 218.5 102.5 218.1 102.9 218.1C103.4 218 103.8 218.4 103.8 218.8C103.9 219.4 112.1 276.3 146.7 306.9C147 307.2 147.1 307.7 146.8 308.1C146.7 308.2 146.4 308.3 146.2 308.3Z" fill="#F16B5F"/>
<path d="M106.4 234.8C106.4 234.8 84.7998 202.2 95.4998 189C106.2 175.8 106.4 234.8 106.4 234.8Z" fill="#F16B5F"/>
<path d="M111.1 248.9C111.1 248.9 74.1003 236.3 74.5003 219.3C74.9003 202.3 111.1 248.9 111.1 248.9Z" fill="#F16B5F"/>
<path d="M110.1 248.5C110.1 248.5 133.5 217.2 123.5 203.4C113.6 189.6 110.1 248.5 110.1 248.5Z" fill="#F16B5F"/>
<path d="M114.3 260.8C114.3 260.8 143.4 234.8 136.4 219.3C129.4 203.8 114.3 260.8 114.3 260.8Z" fill="#F16B5F"/>
<path d="M120.9 274.4C120.9 274.4 151.6 250.2 145.6 234.3C139.5 218.4 120.9 274.4 120.9 274.4Z" fill="#F16B5F"/>
<path d="M128.7 288.1C128.7 288.1 159.4 263.9 153.4 248C147.4 232.1 128.7 288.1 128.7 288.1Z" fill="#F16B5F"/>
<path d="M139.101 301.1C139.101 301.1 169.801 276.9 163.801 261C157.801 245.1 139.101 301.1 139.101 301.1Z" fill="#F16B5F"/>
<path d="M115.7 261.6C115.7 261.6 76.7001 259.2 72.6001 242.6C68.5001 226.2 115.7 261.6 115.7 261.6Z" fill="#F16B5F"/>
<path d="M122.301 275.2C122.301 275.2 83.5006 279.7 76.5006 264.2C69.5006 248.7 122.301 275.2 122.301 275.2Z" fill="#F16B5F"/>
<path d="M130 288.1C130 288.1 92.9004 300.5 83.0004 286.7C73.0004 272.9 130 288.1 130 288.1Z" fill="#F16B5F"/>
<path d="M140.5 301.1C140.5 301.1 105.6 318.8 93.7999 306.6C81.8999 294.4 140.5 301.1 140.5 301.1Z" fill="#F16B5F"/>
<path d="M386.1 264.2C390.8 255.2 399.8 248.7 409.7 246.9C417.5 245.5 426.2 246.9 433 242.7C438.3 239.5 441.3 233.5 442.7 227.4C444.1 221.4 444 215.1 444.6 209C445.7 198.2 449.1 187.4 455.5 178.6C462 169.8 471.8 163.3 482.6 161.9C490.3 161 499.3 163.4 502.8 170.4C506.1 176.9 503.5 185 499.4 191C495.3 197.1 489.9 202.2 486.7 208.8C480.9 220.8 483.6 235.4 478.7 247.9C470.4 269.3 443.7 277.1 430.6 296C426.5 301.8 423.5 309 417.3 312.3C405 318.9 391.3 307.6 385.5 297.4C380.3 288.2 381.3 273.4 386.1 264.2Z" fill="#F16B5F"/>
<path d="M409.1 307.8L408.4 307.1C443.1 276.4 451.3 219.4 451.4 218.8L452.4 218.9C452.3 219.4 444 276.8 409.1 307.8Z" fill="#F8958C"/>
<path d="M448.601 234.8C448.601 234.8 470.201 202.2 459.501 189C448.701 175.8 448.601 234.8 448.601 234.8Z" fill="#F8958C"/>
<path d="M443.9 248.9C443.9 248.9 480.9 236.3 480.5 219.3C480.1 202.3 443.9 248.9 443.9 248.9Z" fill="#F8958C"/>
<path d="M444.901 248.5C444.901 248.5 421.501 217.2 431.501 203.4C441.401 189.6 444.901 248.5 444.901 248.5Z" fill="#F8958C"/>
<path d="M440.701 260.8C440.701 260.8 411.601 234.8 418.601 219.3C425.601 203.8 440.701 260.8 440.701 260.8Z" fill="#F8958C"/>
<path d="M434.1 274.4C434.1 274.4 403.4 250.2 409.4 234.3C415.4 218.4 434.1 274.4 434.1 274.4Z" fill="#F8958C"/>
<path d="M426.301 288.1C426.301 288.1 395.601 263.9 401.601 248C407.601 232.1 426.301 288.1 426.301 288.1Z" fill="#F8958C"/>
<path d="M415.801 301.1C415.801 301.1 385.101 276.9 391.101 261C397.201 245.1 415.801 301.1 415.801 301.1Z" fill="#F8958C"/>
<path d="M439.2 261.6C439.2 261.6 478.2 259.2 482.3 242.6C486.4 226.2 439.2 261.6 439.2 261.6Z" fill="#F8958C"/>
<path d="M432.7 275.2C432.7 275.2 471.5 279.7 478.5 264.2C485.4 248.7 432.7 275.2 432.7 275.2Z" fill="#F8958C"/>
<path d="M425.001 288.1C425.001 288.1 462.101 300.5 472.001 286.7C482.001 272.9 425.001 288.1 425.001 288.1Z" fill="#F8958C"/>
<path d="M414.501 301.1C414.501 301.1 449.401 318.8 461.201 306.6C473.101 294.4 414.501 301.1 414.501 301.1Z" fill="#F8958C"/>
<path d="M423.301 145.2C423.101 144.9 422.901 144.6 422.601 144.3L290.701 38.2001C285.901 34.4001 279.101 34.4001 274.301 38.2001L143.301 144.4C143.001 144.7 142.801 145 142.501 145.4C141.601 146.6 141.101 148 141.101 149.5V307.4C141.101 309.5 142.101 311.4 143.601 312.7C144.801 313.7 146.301 314.3 148.001 314.3H417.801C419.501 314.3 421.001 313.7 422.201 312.7C423.701 311.4 424.701 309.5 424.701 307.4V149.5C424.801 147.9 424.201 146.4 423.301 145.2Z" fill="#D68C34"/>
<path d="M387.601 295.3H178.401C175.201 295.3 172.601 292.7 172.601 289.5V64.5002C172.601 61.3002 175.201 58.7002 178.401 58.7002H387.601C390.801 58.7002 393.401 61.3002 393.401 64.5002V289.5C393.401 292.7 390.801 295.3 387.601 295.3Z" fill="white"/>
<path d="M242.801 72.3003H187.101V77.6003H242.801V72.3003Z" fill="#C5DDFD"/>
<path d="M205.401 90.7002H187.101V96.0002H205.401V90.7002Z" fill="#C5DDFD"/>
<path d="M257.601 90.7002H207.801V96.0002H257.601V90.7002Z" fill="#C5DDFD"/>
<path d="M273.101 90.7002H259.301V96.0002H273.101V90.7002Z" fill="#C5DDFD"/>
<path d="M227.401 100.7H187.101V106H227.401V100.7Z" fill="#C5DDFD"/>
<path d="M282.601 100.7H229.301V106H282.601V100.7Z" fill="#C5DDFD"/>
<path d="M355.301 100.7H284.801V106H355.301V100.7Z" fill="#C5DDFD"/>
<path d="M244.801 110.7H187.101V116H244.801V110.7Z" fill="#C5DDFD"/>
<path d="M214.101 130.7H187.101V136H214.101V130.7Z" fill="#C5DDFD"/>
<path d="M230.801 140.7H187.101V146H230.801V140.7Z" fill="#C5DDFD"/>
<path d="M259.4 140.7H233.7V146H259.4V140.7Z" fill="#C5DDFD"/>
<path d="M274.101 140.7H262.101V146H274.101V140.7Z" fill="#C5DDFD"/>
<path d="M204.801 150.7H187.101V156H204.801V150.7Z" fill="#C5DDFD"/>
<path d="M244.8 150.7H207.4V156H244.8V150.7Z" fill="#C5DDFD"/>
<path d="M267.6 150.7H247.4V156H267.6V150.7Z" fill="#C5DDFD"/>
<path d="M315.1 150.7H269.9V156H315.1V150.7Z" fill="#C5DDFD"/>
<path d="M213.901 160.7H187.101V166H213.901V160.7Z" fill="#C5DDFD"/>
<path d="M261.101 160.7H215.801V166H261.101V160.7Z" fill="#C5DDFD"/>
<path d="M302.301 160.7H263.801V166H302.301V160.7Z" fill="#C5DDFD"/>
<path d="M376.101 160.7H305.101V166H376.101V160.7Z" fill="#C5DDFD"/>
<path d="M230.601 170.7H187.101V176H230.601V170.7Z" fill="#C5DDFD"/>
<path d="M291.301 170.7H234.801V176H291.301V170.7Z" fill="#C5DDFD"/>
<path d="M375.901 170.7H295.601V176H375.901V170.7Z" fill="#C5DDFD"/>
<path d="M213.401 180.7H187.101V186H213.401V180.7Z" fill="#C5DDFD"/>
<path d="M241.901 180.7H215.601V186H241.901V180.7Z" fill="#C5DDFD"/>
<path d="M424.8 149.5V307.4C424.8 309.5 423.8 311.4 422.3 312.7C421.1 313.7 419.6 314.3 417.9 314.3H148.1C146.4 314.3 144.9 313.7 143.7 312.7C142.2 311.4 141.2 309.5 141.2 307.4V149.5C141.2 147.5 142.1 145.6 143.5 144.3L262.8 242L273.9 250.4C279.2 254.4 286.6 254.4 292 250.4L303.1 242L422.4 144.4C423.9 145.6 424.8 147.5 424.8 149.5Z" fill="#FBAC4D"/>
<path d="M422.3 312.7C421.1 313.7 419.6 314.3 417.9 314.3H148.1C146.4 314.3 144.9 313.7 143.7 312.7L277.4 224.7C280.8 222.4 285.3 222.4 288.7 224.7L422.3 312.7Z" fill="#FBBC71"/>
<path d="M439.669 167.465C448.898 155.893 446.998 139.031 435.427 129.803C423.855 120.574 406.993 122.473 397.764 134.045C388.536 145.617 390.435 162.479 402.007 171.707C413.579 180.936 430.44 179.036 439.669 167.465Z" fill="#F16B5F"/>
<path d="M424.101 138V163.4H418.201V142.7H413.101V138H424.101Z" fill="white"/>
<path d="M167.8 77.6C167.8 72.7 163.8 68.8 159 68.8C163.9 68.8 167.8 64.8 167.8 60C167.8 64.9 171.8 68.8 176.6 68.8C171.8 68.7 167.8 72.7 167.8 77.6Z" fill="white"/>
<path d="M159.8 64.6001C159.8 62.1001 157.8 60.1001 155.3 60.1001C157.8 60.1001 159.8 58.1001 159.8 55.6001C159.8 58.1001 161.8 60.1001 164.3 60.1001C161.9 60.1001 159.8 62.1001 159.8 64.6001Z" fill="white"/>
<path d="M467.901 160.1C467.901 155.2 463.901 151.3 459.101 151.3C464.001 151.3 467.901 147.3 467.901 142.5C467.901 147.4 471.901 151.3 476.701 151.3C471.901 151.2 467.901 155.2 467.901 160.1Z" fill="white"/>
<path d="M478.8 146.7C478.8 143.8 476.4 141.4 473.5 141.4C476.4 141.4 478.8 139 478.8 136.1C478.8 139 481.2 141.4 484.1 141.4C481.1 141.3 478.8 143.7 478.8 146.7Z" fill="white"/>
<path d="M63.0002 229.6C63.0002 224.7 59.0002 220.8 54.2002 220.8C59.1002 220.8 63.0002 216.8 63.0002 212C63.0002 216.9 67.0002 220.8 71.8002 220.8C67.0002 220.7 63.0002 224.7 63.0002 229.6Z" fill="white"/>
<path d="M53.1002 215.8C53.1002 212.8 50.7002 210.4 47.7002 210.4C50.7002 210.4 53.1002 208 53.1002 205C53.1002 208 55.5002 210.4 58.5002 210.4C55.6002 210.4 53.1002 212.8 53.1002 215.8Z" fill="white"/>
<path d="M419.6 98.7001C419.6 93.8001 415.6 89.9001 410.8 89.9001C415.7 89.9001 419.6 85.9001 419.6 81.1001C419.6 86.0001 423.6 89.9001 428.4 89.9001C423.5 89.9001 419.6 93.9001 419.6 98.7001Z" fill="white"/>
<path d="M151.101 302.1C151.101 302.1 150.501 302.2 149.401 302.2C146.501 302.4 140.301 302.8 136.101 302.7C134.801 302.6 133.601 302.5 132.801 302.3C128.801 301.3 119.301 195.3 119.301 195.3L142.601 191C142.601 191 147.601 199.8 147.901 211.8C148.201 223.8 151.101 302.1 151.101 302.1Z" fill="#EBEBEB"/>
<path d="M140.701 252.7C141.801 252.1 142.701 251.2 143.201 250" stroke="#0E293A" stroke-width="0.5" stroke-miterlimit="10" stroke-linecap="round" stroke-linejoin="round"/>
<path d="M131.2 248.5C131.8 254.1 123.9 303.7 123.9 303.7C123.2 303.7 122.4 303.7 121.5 303.6C117.3 303.3 111.3 302.1 108.4 301.6C107.3 301.4 106.7 301.2 106.7 301.2L110.3 254.5C110.3 254.5 97.4003 207 96.9003 198.5C96.4003 190 101 183.9 101 183.9L140.3 182.5L142.9 193.2L123.3 200C123.3 200 130.6 242.8 131.2 248.5Z" fill="white"/>
<path d="M123.7 254.7C124.7 254.6 125.6 254 126.2 253.2" stroke="#0E293A" stroke-width="0.5" stroke-miterlimit="10" stroke-linecap="round" stroke-linejoin="round"/>
<path d="M123.7 200.6C123.7 200.6 130.8 244.9 131.2 248.5C131.6 252.1 128.2 277.1 128.2 277.1" stroke="#0E293A" stroke-width="0.5" stroke-miterlimit="10" stroke-linecap="round" stroke-linejoin="round"/>
<path d="M100.3 192.2C100.3 192.2 99.3004 200.9 101.1 207.2C102.9 213.5 112.6 255.5 112.6 255.5L109.6 300.7" stroke="#0E293A" stroke-width="0.5" stroke-miterlimit="10" stroke-linecap="round" stroke-linejoin="round"/>
<path d="M136.9 313.8C136.7 314 136.4 314.2 136.1 314.2H109.7C108.7 314.2 107.9 313.5 107.7 312.5C107.5 311.3 107.4 308.6 108.2 306.1C108.2 305.5 108.3 303.9 108.4 301.6C111.3 302.2 117.3 303.3 121.5 303.6L121 306.7H121.2C121.2 306.7 129.5 312.4 136.1 311.6C136.5 311.5 136.9 311.7 137.1 312C137.4 312.3 137.6 313 136.9 313.8Z" fill="#D48F65"/>
<path d="M136.5 314.2C136.9 314.2 137.2 313.9 137.2 313.5C137.2 312.7 137.3 311.8 136.8 311.4C136 310.6 134.9 310.1 134 309.6C132.8 308.9 131.6 308.3 130.4 307.9C128.5 307.2 126.4 306.6 124.4 306.8C124.8 306.1 125.2 305.4 125.5 304.7C125.7 303.9 125.8 303.1 125.4 302.4C125 301.5 124 301 123.1 300.7C122.4 300.5 121.6 300.3 120.9 300.4C118.2 300.7 117.5 302.8 116.7 304.7C116.2 306 115.4 307.3 114.1 307.8C112.5 308.4 110.8 307.5 109.5 306.3C109.5 306.3 108.1 305.4 107.4 306.2C106.7 307 106.6 313.4 107.7 314C108.8 314.6 132.2 314.3 136.5 314.2Z" fill="#F16B5F"/>
<path d="M166.201 313.8C166.101 314 165.801 314.2 165.501 314.2H139.101C138.101 314.2 137.201 313.5 136.901 312.5C136.501 311.2 136.001 308.3 136.501 305.7L136.101 302.7C140.301 302.9 146.501 302.5 149.401 302.2C149.401 305.1 149.501 306.7 149.501 306.7C149.501 306.7 158.601 312.4 165.101 311.6C165.501 311.5 165.901 311.7 166.101 312C166.501 312.3 166.801 313 166.201 313.8Z" fill="#D48F65"/>
<path d="M165.5 314.2C165.9 314.2 166.2 313.9 166.2 313.5C166.2 312.7 166.3 311.8 165.8 311.4C165 310.6 163.9 310.1 163 309.6C161.8 308.9 160.6 308.3 159.4 307.9C157.5 307.2 155.4 306.6 153.4 306.8C153.8 306.1 154.2 305.4 154.5 304.7C154.7 303.9 154.8 303.1 154.4 302.4C154 301.5 153 301 152.1 300.7C151.4 300.5 150.6 300.3 149.9 300.4C147.2 300.7 146.5 302.8 145.7 304.7C145.2 306 144.4 307.3 143.1 307.8C141.5 308.4 139.8 307.5 138.5 306.3C138.5 306.3 137.1 305.4 136.4 306.2C135.7 307 135.6 313.4 136.7 314C137.7 314.6 161.1 314.3 165.5 314.2Z" fill="#F16B5F"/>
<path d="M205.3 132C204.9 131.9 203.9 131.9 201.8 132.7C201.8 132.7 205.7 129.9 205.8 129.1C205.9 128.2 200.5 131.1 200.5 131.1C200.5 131.1 204.5 127.5 204.3 126.7C204.1 125.9 199.1 129.4 199.1 129.4C199.1 129.4 203 125.4 202.7 125.2C201.8 124.5 196.1 129.9 195.6 129.3C195.2 128.7 195.9 126.9 196.5 126.1C196.6 125.9 196.6 125.7 196.4 125.6C196 125.4 195.4 125.3 194.7 126.1C193.8 127.3 192 129.7 191.2 133.2C189.6 134.1 187.1 135.5 184 137.3C185.7 140.1 187.5 142.9 189.1 145.7C191.9 142.7 194.6 139.6 197 136.2L196.9 136.1C199.7 135.3 203.7 133.9 205.2 132.5C205.5 132.3 205.5 132 205.3 132Z" fill="#D48F65"/>
<path d="M143.1 152.4C143.1 152.4 159.7 162.5 163.7 162.8C167.7 163.1 193.7 144.5 197.7 139.4L190.4 132.3L165.1 147.2L145 135.8L143.1 152.4Z" fill="#E2EDF0"/>
<path d="M151.7 139.6C151.2 142.6 146.6 151.6 145.4 153.8C144.9 153.5 144.4 153.2 144 153C145.2 150.7 149.8 141.8 150.3 138.8L151.7 139.6Z" fill="#0E293A"/>
<path d="M190.5 132.3L162.2 148.9" stroke="#0E293A" stroke-width="0.5" stroke-miterlimit="10" stroke-linecap="round" stroke-linejoin="round"/>
<path d="M162.5 147L165.2 147.2" stroke="#0E293A" stroke-width="0.5" stroke-miterlimit="10" stroke-linecap="round" stroke-linejoin="round"/>
<path d="M189.7 134.1L195.9 140.3" stroke="#0E293A" stroke-width="0.5" stroke-miterlimit="10" stroke-linecap="round" stroke-linejoin="round"/>
<path d="M162.8 160.2C163.3 160.3 163.8 160.3 164.3 160.4" stroke="#0E293A" stroke-width="0.5" stroke-miterlimit="10" stroke-linecap="round" stroke-linejoin="round"/>
<path d="M126 137.1C126 137.1 133.5 148.9 143.8 153.6C143.8 153.6 150.6 141 150.4 138.3C150.4 138.3 135.3 127.7 132.5 127.9C129.7 128.1 125.2 130.2 126 137.1Z" fill="#F16B5F"/>
<path d="M113.101 124.5C112.801 124.7 112.401 124.8 112.001 124.9C114.701 126.6 117.301 128.4 120.101 130.2C121.501 131.1 122.901 131.9 124.401 132.7C125.201 129.7 127.001 127.2 129.401 125.4C129.201 125.2 129.001 125 128.901 124.8C128.701 124.2 128.301 122.6 128.001 120.9C127.701 119.3 127.501 117.6 127.701 116.2C127.801 115.5 127.901 115 128.201 114.5L113.001 105.9C113.001 106 113.001 106 113.001 106C113.101 107.6 115.001 118.7 113.101 124.5Z" fill="#D48F65"/>
<path d="M128.001 120.9C119.701 121.9 115.501 112.1 115.401 111.7C116.901 114.1 119.101 115.4 121.301 115.9C124.001 116.6 126.501 116.4 127.601 116.2C127.601 116.2 127.601 116.2 127.701 116.2C127.501 117.6 127.701 119.3 128.001 120.9Z" fill="#0E293A"/>
<path d="M99.2007 184.8C99.2007 184.8 97.8007 189.8 97.4007 191.1C97.0007 192.4 119.701 195.7 124.401 196.3C129.701 197 139.901 195.4 143.601 194.8C144.301 194.7 144.701 194 144.401 193.3L142.001 188L99.2007 184.8Z" fill="#E2EDF0"/>
<path d="M110.201 125.2L113.201 124.1C113.201 124.1 118.901 129.2 122.801 128.9C126.401 128.6 128.801 124.6 128.801 124.6L129.301 124.9L131.201 127.4C131.201 127.4 126.101 134.4 120.901 133.3C115.701 132.2 110.201 125.2 110.201 125.2Z" fill="#E2EDF0"/>
<path d="M143.801 192.3C140.601 192.3 109.001 191.9 98.1006 188.5C98.3006 187.7 98.6006 186.9 98.8006 186.2C108.901 189.5 138.401 189.9 142.701 189.9L143.801 192.3Z" fill="#0E293A"/>
<path d="M102.901 129.3C102.901 129.3 104.701 125.3 112.201 124.4C112.201 124.4 116.601 132 122.901 131.8C129.201 131.6 129.801 125.4 129.801 125.4C129.801 125.4 138.001 131.5 138.701 132.4C139.401 133.3 138.801 144.8 137.801 149.3C136.801 153.8 137.501 172.8 137.501 172.8C137.501 172.8 142.301 189.4 143.201 191.1C143.201 191.1 109.301 190.9 98.501 187.3C98.501 187.3 102.301 172.4 104.101 167.5C105.901 162.6 100.001 140.2 100.501 136C101.001 131.8 102.901 129.3 102.901 129.3Z" fill="#F16B5F"/>
<path d="M112.001 126.7C112.001 126.7 123.901 141.2 130.201 127.5" stroke="#0E293A" stroke-width="0.5" stroke-miterlimit="10" stroke-linecap="round" stroke-linejoin="round"/>
<path d="M127.301 182.9C131.401 182.1 135.501 181.1 139.501 179.7V179.6L138.801 174.2C138.801 174.2 138.801 174.2 138.701 174.2C138.201 174.1 134.501 173.8 129.201 173.2C128.501 176.4 127.901 179.6 127.301 182.9Z" fill="#D48F65"/>
<path d="M96.5004 154.1C96.5004 154.1 93.9004 176.5 98.0004 181.2C102.1 185.9 138.8 182.7 138.8 182.7L131.8 171.8L111.2 170.5L111.7 153.9L96.5004 154.1Z" fill="#E2EDF0"/>
<path d="M111.5 156.3V157.8L96.2002 156.5C96.2002 155.9 96.3002 155.4 96.3002 155L111.5 156.3Z" fill="#0E293A"/>
<path d="M108.701 167.9L111.101 170.6L105.601 170.5" stroke="#0E293A" stroke-width="0.5" stroke-miterlimit="10" stroke-linecap="round" stroke-linejoin="round"/>
<path d="M133.3 175.9L137.3 182.3" stroke="#0E293A" stroke-width="0.5" stroke-miterlimit="10" stroke-linecap="round" stroke-linejoin="round"/>
<path d="M97.7998 178.9C97.9998 179.5 98.3998 180 98.9998 180.2" stroke="#0E293A" stroke-width="0.5" stroke-miterlimit="10" stroke-linecap="round" stroke-linejoin="round"/>
<path d="M95.7002 154.9C95.7002 154.9 95.4002 128.3 105.3 126.5C115.2 124.7 113.1 141.6 112.1 156.3L95.7002 154.9Z" fill="#F16B5F"/>
<path d="M152.4 171.6H113.4L110.5 144.7C110.4 143.9 111 143.2 111.8 143.2H148.1C148.8 143.2 149.4 143.7 149.4 144.4L152.4 171.6Z" fill="#0E293A"/>
<path d="M153.5 171.6H114.5L111.6 144.7C111.5 143.9 112.1 143.2 112.9 143.2H149.2C149.9 143.2 150.5 143.7 150.5 144.4L153.5 171.6Z" fill="#1D5578"/>
<path d="M153.201 169.1L150.601 145.4H111.601L114.201 169.1H153.201Z" fill="white"/>
<path d="M170.5 175.2H113.8L113.3 171.6H170L170.5 175.2Z" fill="#0E293A"/>
<path d="M143.1 151.9L144.1 164.3C144.1 164.5 144.1 164.6 143.9 164.7C143.8 164.8 143.7 164.8 143.6 164.8H122.5C122.4 164.8 122.2 164.8 122.1 164.7C122 164.6 121.9 164.5 121.9 164.3L120.9 151.9C120.9 151.7 120.9 151.6 121 151.5L131 159.1L131.9 159.8C132.3 160.1 132.9 160.1 133.3 159.8L134.1 159.1L142.8 151.5C143 151.6 143.1 151.7 143.1 151.9Z" fill="#FBAC4D"/>
<path d="M144 164.6C143.9 164.7 143.8 164.7 143.7 164.7H122.6C122.5 164.7 122.3 164.7 122.2 164.6L132.1 157.7C132.4 157.5 132.7 157.5 133 157.7L144 164.6Z" fill="#FBBC71"/>
<path d="M121 151.5C121.1 151.4 121.2 151.4 121.3 151.4H142.6C142.7 151.4 142.9 151.4 142.9 151.5L133.1 160.6C132.8 160.8 132.5 160.8 132.2 160.6L121 151.5Z" fill="#D68C34"/>
<path d="M145.544 152.889C146.576 151.813 146.443 150.011 145.248 148.864C144.052 147.717 142.246 147.66 141.214 148.736C140.181 149.812 140.314 151.614 141.51 152.761C142.706 153.908 144.512 153.965 145.544 152.889Z" fill="#F16B5F"/>
<path d="M143.901 149.5L144.101 152.2H143.501L143.301 150H142.801V149.5H143.901Z" fill="white"/>
<path d="M136.101 175.3C136.101 175.3 139.001 169.8 141.201 169C143.401 168.1 140.101 172.8 141.101 172.9C142.101 173.1 146.901 170.7 148.401 171C149.901 171.3 145.801 173.3 145.801 173.3C145.801 173.3 147.001 173.1 147.001 174.4C147.001 174.4 148.101 174.8 147.801 176C147.801 176 148.601 176.8 147.801 177.8C147.001 178.8 139.201 180.2 137.701 180C136.301 179.8 136.101 175.3 136.101 175.3Z" fill="#D48F65"/>
<path d="M133.501 89.2999C131.501 84.1999 122.101 82.1999 115.601 87.8999C112.601 90.4999 111.901 95.2999 112.101 99.6999C111.901 99.5999 111.801 99.5999 111.701 99.4999C110.401 99.1999 109.001 100.2 108.601 101.4C108.301 102.4 108.501 103.5 109.101 104.4C109.601 105.1 110.301 105.8 111.201 106.1C111.401 106.2 112.301 106.3 113.001 106.3C113.601 109.2 115.101 111.8 117.401 113.7C120.301 116.1 123.901 117 127.501 116.3C130.301 115.7 134.501 113.9 135.601 111C135.901 110.2 135.901 109.4 135.901 108.6C135.901 102.4 135.801 95.0999 133.501 89.2999Z" fill="#D48F65"/>
<path d="M131.901 101.2C132.342 101.2 132.701 100.439 132.701 99.4998C132.701 98.5609 132.342 97.7998 131.901 97.7998C131.459 97.7998 131.101 98.5609 131.101 99.4998C131.101 100.439 131.459 101.2 131.901 101.2Z" fill="#0E293A"/>
<path d="M125.5 99.4998C125.5 100.4 125.1 101.2 124.7 101.2C124.2 101.2 123.9 100.4 123.9 99.4998C123.9 98.5998 124.3 97.7998 124.7 97.7998C125.1 97.7998 125.5 98.5998 125.5 99.4998Z" fill="#0E293A"/>
<path d="M131.401 104.7C131.101 105.3 130.701 105.8 130.101 106.1C129.601 106.5 128.901 106.7 128.201 106.7C127.501 106.7 126.901 106.5 126.301 106.1C126.001 105.9 125.801 105.7 125.601 105.5C125.401 105.2 125.201 105 125.001 104.7C125.301 104.9 125.501 105.1 125.701 105.3C126.001 105.5 126.201 105.7 126.501 105.8C127.001 106.1 127.601 106.3 128.201 106.3C128.801 106.3 129.301 106.1 129.901 105.9C130.401 105.5 130.901 105.2 131.401 104.7Z" fill="#0E293A"/>
<path d="M129.101 107.8C128.901 108 128.501 108.1 128.201 108.1C127.901 108.1 127.601 108 127.301 107.8C127.601 107.8 127.901 107.9 128.201 107.9C128.501 107.9 128.801 107.8 129.101 107.8Z" fill="#0E293A"/>
<path d="M126.2 93.5999C125.8 93.2999 125.4 93.0999 124.9 93.0999C124.4 93.0999 124 93.0999 123.5 93.2999C123 93.3999 122.6 93.6999 122.3 93.9999C121.9 94.2999 121.7 94.6999 121.5 95.0999C121.4 95.2999 121.5 95.4999 121.7 95.5999C121.9 95.6999 122 95.6999 122.2 95.4999C122.5 95.1999 122.7 94.9999 123 94.7999C123.3 94.5999 123.6 94.4999 123.9 94.3999C124.2 94.2999 124.6 94.2999 124.9 94.2999C125.2 94.2999 125.6 94.2999 126 94.1999H126.1C126.3 94.0999 126.5 93.8999 126.4 93.6999C126.3 93.6999 126.2 93.5999 126.2 93.5999Z" fill="#0E293A"/>
<path d="M130.3 93.5999C130.7 93.2999 131.1 93.0999 131.6 93.0999C132.1 93.0999 132.5 93.0999 133 93.2999C133.5 93.3999 133.9 93.6999 134.2 93.9999C134.6 94.2999 134.8 94.6999 135 95.0999C135.1 95.2999 135 95.4999 134.8 95.5999C134.6 95.6999 134.5 95.6999 134.3 95.4999C134 95.1999 133.8 94.9999 133.5 94.7999C133.2 94.5999 132.9 94.4999 132.6 94.3999C132.3 94.2999 131.9 94.2999 131.6 94.2999C131.3 94.2999 130.9 94.2999 130.5 94.1999H130.4C130.2 94.0999 130 93.8999 130.1 93.6999C130.2 93.6999 130.3 93.5999 130.3 93.5999Z" fill="#0E293A"/>
<path d="M129.901 96.7998C130.001 97.3998 130.201 98.0998 130.301 98.6998C130.401 99.2998 130.501 99.9998 130.701 100.6C130.701 100.8 130.801 100.9 130.801 101C130.801 101.1 130.901 101.3 130.901 101.6C130.901 102 130.601 102.4 130.301 102.6C129.901 102.8 129.501 102.8 129.201 102.7C128.901 102.6 128.601 102.4 128.301 102.2C128.901 102.4 129.601 102.6 130.001 102.3C130.201 102.1 130.301 101.9 130.301 101.7C130.301 101.6 130.301 101.5 130.201 101.3C130.101 101.1 130.101 101 130.001 100.8C129.801 100.1 129.701 99.4998 129.701 98.7998C129.801 98.0998 129.901 97.3998 129.901 96.7998Z" fill="#0E293A"/>
<path d="M109.601 102.2C109.601 101.8 109.701 101.4 110.001 101.1C110.401 100.8 110.901 100.8 111.301 101C111.701 101.1 112.101 101.4 112.301 101.8C112.601 102.1 112.801 102.5 112.901 102.9C113.001 103 112.901 103.2 112.701 103.3C112.601 103.3 112.501 103.3 112.401 103.2C112.101 102.9 111.801 102.6 111.401 102.5C111.201 102.5 111.101 102.5 111.001 102.5C110.901 102.6 110.801 102.8 110.701 102.9C110.601 103.3 110.501 103.7 110.801 103.9C111.101 104.1 111.601 104 112.101 104C111.701 104.2 111.201 104.3 110.701 104.2C110.401 104.1 110.201 103.8 110.201 103.5C110.201 103.2 110.201 103 110.301 102.7C110.401 102.5 110.501 102.2 110.701 102C110.901 101.8 111.301 101.7 111.601 101.8C112.101 102 112.501 102.3 112.901 102.6L112.401 102.9C112.101 102.2 111.701 101.6 111.101 101.3C110.801 101.2 110.401 101.1 110.101 101.2C109.901 101.4 109.701 101.8 109.601 102.2Z" fill="#0E293A"/>
<path d="M120.201 92.5C120.201 92.5 118.201 98.7 116.901 100.3C116.501 100.8 116.201 101.4 116.001 102.1C115.801 102.8 114.901 102.9 114.501 102.2C113.701 100.8 112.401 99.3 110.601 99.4C110.601 99.4 109.901 89.5 115.801 87.2L120.201 92.5Z" fill="#1E587D"/>
<path d="M135.101 91.2999C132.101 90.2999 128.901 90.1999 125.901 90.9999C124.101 91.4999 122.501 92.2999 120.701 92.7999C118.901 93.1999 116.701 93.5999 115.501 92.0999C114.501 90.7999 114.101 88.9999 114.301 87.2999C114.601 85.5999 115.601 84.0999 116.901 83.1999C118.101 82.3999 119.501 82.1999 120.801 81.7999C122.101 81.3999 123.501 80.6999 124.201 79.3999C124.201 80.5999 123.901 81.7999 123.201 82.7999C124.401 82.0999 125.901 81.9999 127.301 81.9999C128.701 82.0999 130.101 82.2999 131.401 82.1999C132.801 81.9999 134.201 81.3999 135.001 80.1999C135.101 81.8999 134.901 83.6999 134.201 85.1999C135.301 87.0999 135.501 89.0999 135.101 91.2999Z" fill="#0E293A"/>
<path d="M575.6 314.3H1C0.4 314.3 0 313.9 0 313.3C0 312.7 0.5 312.3 1 312.3H575.6C576.2 312.3 576.6 312.7 576.6 313.3C576.7 313.9 576.2 314.3 575.6 314.3Z" fill="#048FA6"/>
</g>
<defs>
<clipPath id="clip0_3752_8742">
<rect width="576.7" height="314.3" fill="white"/>
</clipPath>
</defs>
</svg>
