<svg width="16" height="15" viewBox="0 0 16 15" fill="none" xmlns="http://www.w3.org/2000/svg">
<g clip-path="url(#clip0_3937_194)">
<path fill-rule="evenodd" clip-rule="evenodd" d="M12.4249 9.54046C11.2717 9.54046 10.3334 10.4597 10.3334 11.5896C10.3335 12.7194 11.2717 13.6387 12.4249 13.6387C13.5779 13.6386 14.5161 12.7194 14.5161 11.5896C14.5161 10.4597 13.5778 9.54046 12.4249 9.54046ZM12.4249 14.016C11.0593 14.016 9.94824 12.9275 9.94824 11.5896C9.94828 10.2516 11.0593 9.16309 12.4249 9.16309C13.7905 9.16309 14.9012 10.2516 14.9012 11.5896C14.9013 12.9274 13.7905 14.016 12.4249 14.016Z" fill="white" stroke="white" stroke-width="0.2" stroke-miterlimit="10"/>
<path fill-rule="evenodd" clip-rule="evenodd" d="M12.4245 12.9648C11.9838 12.9648 11.625 12.6135 11.625 12.1817C11.625 12.0775 11.7113 11.993 11.8176 11.993C11.9239 11.993 12.0102 12.0775 12.0102 12.1817C12.0102 12.4054 12.1961 12.5874 12.4244 12.5874C12.6525 12.5874 12.8384 12.4054 12.8384 12.1817C12.8384 11.8895 12.706 11.847 12.3797 11.7709C12.0791 11.7007 11.625 11.5948 11.625 10.9929C11.625 10.484 12.0272 10.2178 12.4245 10.2178C12.8214 10.2178 13.2237 10.484 13.2237 10.9929C13.2237 11.0971 13.1374 11.1816 13.0311 11.1816C12.9247 11.1816 12.8385 11.0971 12.8385 10.9929C12.8385 10.6789 12.5783 10.5952 12.4245 10.5952C12.2708 10.5952 12.0102 10.6789 12.0102 10.9929C12.0102 11.2851 12.1427 11.3276 12.469 11.4037C12.7696 11.4738 13.2237 11.5798 13.2237 12.1817C13.2236 12.6135 12.8652 12.9648 12.4245 12.9648Z" fill="white"/>
<path fill-rule="evenodd" clip-rule="evenodd" d="M12.425 10.5935C12.3187 10.5935 12.2324 10.509 12.2324 10.4048L12.2325 9.93576C12.2325 9.83159 12.3187 9.74707 12.425 9.74707C12.5314 9.74703 12.6176 9.83155 12.6176 9.93576L12.6177 10.4048C12.6177 10.509 12.5314 10.5935 12.425 10.5935Z" fill="white"/>
<path fill-rule="evenodd" clip-rule="evenodd" d="M12.425 13.4321C12.3187 13.4321 12.2324 13.3477 12.2324 13.2436L12.2325 12.7746C12.2325 12.6704 12.3187 12.5859 12.425 12.5859C12.5314 12.5859 12.6176 12.6704 12.6176 12.7746L12.6177 13.2436C12.6177 13.3476 12.5314 13.4322 12.425 13.4321Z" fill="white"/>
<path fill-rule="evenodd" clip-rule="evenodd" d="M6.5338 7.74722C5.94166 7.74722 5.3722 7.4829 4.88671 6.98284C4.42796 6.50994 4.06548 5.84835 3.83844 5.0697C3.8094 4.96947 3.86855 4.86506 3.97085 4.8364C4.07286 4.80779 4.17951 4.86582 4.20892 4.96605C4.63457 6.42626 5.54706 7.36985 6.5338 7.36985C7.52021 7.36981 8.43271 6.42626 8.85868 4.96605C8.88776 4.86582 8.99441 4.80787 9.09675 4.8364C9.19909 4.86498 9.25824 4.96947 9.22883 5.0697C9.0018 5.84835 8.63932 6.50994 8.18057 6.98284C7.6954 7.4829 7.12598 7.74722 6.5338 7.74722Z" fill="white" stroke="white" stroke-width="0.2" stroke-miterlimit="10"/>
<path fill-rule="evenodd" clip-rule="evenodd" d="M12.4247 14.7338H0.642818C0.536129 14.7338 0.450195 14.6493 0.450195 14.5451L0.450236 11.5905C0.450236 9.85728 1.98297 8.44731 3.86715 8.44731H4.58103C4.63924 8.44731 4.6947 8.47331 4.73116 8.51796L6.53376 10.7206L8.33602 8.51792C8.37245 8.47327 8.42798 8.44727 8.48615 8.44727H9.20003C10.1273 8.44727 10.9963 8.78634 11.6473 9.40199C11.7239 9.47437 11.7259 9.59385 11.6519 9.66884C11.5781 9.74379 11.4563 9.74588 11.3798 9.67354C10.801 9.12613 10.0269 8.82468 9.20003 8.82468H8.57881L6.68392 11.1403C6.6475 11.185 6.59196 11.211 6.5338 11.211C6.4753 11.211 6.42013 11.185 6.38334 11.1403L4.4885 8.82464H3.86711C2.19528 8.82464 0.835358 10.0653 0.835358 11.5904L0.835399 14.3563H12.232V13.8282C12.232 13.724 12.3179 13.6395 12.4246 13.6395C12.5309 13.6394 12.6172 13.724 12.6172 13.8282L12.6172 14.5449C12.6172 14.5947 12.5968 14.6429 12.5607 14.6783C12.5247 14.7138 12.4755 14.7338 12.4247 14.7338Z" fill="white" stroke="white" stroke-width="0.2" stroke-miterlimit="10"/>
<path fill-rule="evenodd" clip-rule="evenodd" d="M8.1527 2.04161C8.19819 2.04161 8.24298 2.05753 8.27809 2.08731C8.71683 2.45716 8.99062 3.58522 9.12873 4.32899C9.59519 3.02298 9.38452 1.95079 8.51182 1.26959C7.43951 0.432902 5.62822 0.432902 4.55621 1.26955C3.68321 1.95071 3.4725 3.02298 3.93896 4.32899C4.07707 3.58522 4.35091 2.4572 4.7896 2.08731C4.83509 2.04905 4.89592 2.03357 4.95446 2.04559C5.01332 2.05757 5.06279 2.09559 5.08887 2.14847C5.3333 2.64621 6.06089 2.80307 6.60992 2.78582C7.27938 2.76501 7.82771 2.51327 7.97415 2.1594C7.99757 2.10306 8.04704 2.06122 8.10721 2.04692C8.12231 2.04334 8.13732 2.04161 8.1527 2.04161ZM9.04415 5.20779C9.03382 5.20779 9.0234 5.20703 9.01306 5.20534C8.92881 5.19192 8.86359 5.12569 8.85288 5.04266C8.78303 4.4989 8.53856 3.12482 8.17645 2.55366C7.87821 2.91057 7.3044 3.14182 6.62198 3.16304C6.01679 3.18184 5.28818 3.02398 4.89461 2.54851C4.53049 3.11654 4.28508 4.4973 4.21485 5.04266C4.20415 5.12569 4.13897 5.19196 4.05468 5.20534C3.97042 5.21884 3.88716 5.17616 3.85004 5.10065C3.40101 4.18282 3.23246 3.34352 3.34949 2.60602C3.45351 1.95099 3.78752 1.38674 4.31617 0.974283C4.90101 0.517941 5.6884 0.266602 6.53403 0.266602C7.37934 0.266602 8.16677 0.517941 8.75157 0.974283C9.28025 1.38678 9.61423 1.95103 9.71825 2.60602C9.83527 3.34352 9.66673 4.18286 9.2177 5.10065C9.18526 5.16688 9.11704 5.20783 9.04415 5.20779Z" fill="white" stroke="white" stroke-width="0.2" stroke-miterlimit="10"/>
<path fill-rule="evenodd" clip-rule="evenodd" d="M8.48664 8.82597C8.44452 8.82597 8.40173 8.81243 8.36625 8.7845C7.83429 8.36638 7.62226 7.64977 7.79983 6.86754C7.82292 6.76578 7.92588 6.70172 8.02953 6.72423C8.13356 6.74677 8.19873 6.84765 8.17564 6.94937C8.1215 7.18865 7.99241 8.00689 8.60732 8.49008C8.69026 8.55526 8.70363 8.67406 8.6371 8.75536C8.59899 8.80182 8.54313 8.82601 8.48664 8.82597Z" fill="white" stroke="white" stroke-width="0.2" stroke-miterlimit="10"/>
<path fill-rule="evenodd" clip-rule="evenodd" d="M4.5815 8.826C4.52502 8.826 4.46915 8.80184 4.431 8.75538C4.36447 8.67404 4.37784 8.55533 4.46074 8.4901C5.07602 8.00695 4.9466 7.18867 4.89242 6.94939C4.86936 6.84763 4.93487 6.74688 5.03852 6.72425C5.14255 6.70167 5.24518 6.76585 5.26823 6.86752C5.4458 7.6498 5.23377 8.36644 4.7018 8.78452C4.66645 8.81245 4.62362 8.826 4.5815 8.826Z" fill="white" stroke="white" stroke-width="0.2" stroke-miterlimit="10"/>
<path fill-rule="evenodd" clip-rule="evenodd" d="M6.55058 14.7338C6.49705 14.7338 6.44389 14.7122 6.40578 14.6696L3.78102 11.75C3.73052 11.6941 3.71846 11.6146 3.75025 11.5468L4.2234 10.532L3.45069 10.1046C3.36878 10.0593 3.33199 9.96269 3.36406 9.87605L3.84656 8.57176C3.88266 8.47374 3.993 8.42307 4.09333 8.45863C4.19333 8.49412 4.24481 8.60235 4.20867 8.70033L3.78171 9.85439L4.5668 10.2885C4.65409 10.3366 4.68883 10.4421 4.64736 10.5313L4.15252 11.5924L6.69504 14.4203C6.76523 14.4986 6.75756 14.6175 6.67765 14.6866C6.64123 14.7181 6.5957 14.7338 6.55058 14.7338Z" fill="white" stroke="white" stroke-width="0.2" stroke-miterlimit="10"/>
<path fill-rule="evenodd" clip-rule="evenodd" d="M6.54981 14.7338C6.50502 14.7338 6.46019 14.7184 6.42372 14.6873C6.34349 14.6188 6.33479 14.4999 6.40465 14.4213L8.91477 11.5931L8.41959 10.5313C8.37808 10.4421 8.4132 10.3366 8.50015 10.2885L9.28529 9.85437L8.85829 8.70031C8.82219 8.60233 8.87396 8.4941 8.97396 8.45862C9.07396 8.42309 9.1843 8.47373 9.2204 8.57175L9.7029 9.87599C9.73497 9.96264 9.69855 10.0593 9.61663 10.1046L8.8436 10.532L9.31671 11.5468C9.34817 11.6141 9.33644 11.6932 9.28693 11.7491L6.69522 14.6689C6.65712 14.7118 6.60363 14.7338 6.54981 14.7338Z" fill="white" stroke="white" stroke-width="0.2" stroke-miterlimit="10"/>
</g>
<defs>
<clipPath id="clip0_3937_194">
<rect width="15" height="15" fill="white" transform="translate(0.425781)"/>
</clipPath>
</defs>
</svg>
