<svg width="62" height="61" viewBox="0 0 62 61" fill="none" xmlns="http://www.w3.org/2000/svg">
<g clip-path="url(#clip0_1305_1679)">
<path d="M62 27.0484C60.5756 28.3152 59.2082 29.6534 57.712 30.828C56.2462 31.9784 55.1815 33.3409 54.4644 35.0598C53.6999 36.8939 52.7592 38.6564 51.9205 40.4613C51.8294 40.6589 51.816 40.9705 51.9072 41.162C53.3219 44.11 51.5389 47.2011 48.2548 47.4678C48.2159 47.4715 48.1782 47.4884 48.0956 47.5103C47.8282 50.108 46.3964 51.599 43.7456 51.8657C43.4721 54.6537 41.683 56.0368 39.398 56.2102C39.2096 60.1716 34.6105 61.9802 31.7311 59.1146C30.5108 60.5353 29.0159 61.3365 27.0931 60.871C25.18 60.408 24.142 59.1049 23.7713 57.1532C23.3909 57.1532 23.0105 57.1908 22.6385 57.1472C20.593 56.9035 19.1053 55.398 18.8707 53.3506C18.8379 53.0621 18.8379 52.8366 18.4271 52.7821C15.9051 52.4487 14.4563 50.7335 14.5171 48.2048C14.5195 48.1248 14.5171 48.0448 14.5171 47.9297C14.3846 47.8921 14.257 47.846 14.1257 47.8181C11.047 47.1733 9.66874 43.6555 11.5174 41.1123C11.7654 40.7717 11.7702 40.5741 11.5162 40.2383C9.88874 38.0867 8.30139 35.9035 6.66543 33.7579C6.30445 33.2852 5.81585 32.9045 5.36128 32.5094C3.80797 31.1638 2.24007 29.8328 0.681898 28.4921C-0.168899 27.76 -0.217516 27.2109 0.495938 26.3284C4.18232 21.7717 7.87113 17.2163 11.5599 12.6621C12.2333 11.8305 12.7146 11.7566 13.6395 12.3409C15.5307 13.5349 17.4074 14.7519 19.3131 15.9205C19.8686 16.2611 20.4848 16.5423 21.1107 16.7254C22.9849 17.2757 24.8737 17.7739 26.7649 18.2649C27.0578 18.3412 27.4066 18.3328 27.6996 18.254C29.3513 17.8067 31.0043 17.3569 32.6366 16.843C33.6709 16.5169 34.7041 16.3835 35.7846 16.4005C38.044 16.4345 40.3047 16.4211 42.5642 16.3993C42.8656 16.3969 43.2035 16.2987 43.46 16.1399C45.4606 14.8938 47.4441 13.621 49.435 12.3578C50.4122 11.7384 50.8862 11.8172 51.5936 12.7324C54.9056 17.0187 58.2152 21.3087 61.5248 25.5962C61.6804 25.7987 61.8396 25.9987 61.9964 26.1999C62 26.4848 62 26.766 62 27.0484ZM30.2179 50.9541C30.2507 50.9771 30.2799 51.0159 30.3164 51.022C32.9368 51.4632 34.6007 54.3543 33.4668 56.9654C33.4181 57.0781 33.4485 57.2975 33.53 57.3836C34.0623 57.9424 34.7053 58.2321 35.4904 58.0297C36.8918 57.6672 37.3512 56.0077 36.3291 54.9119C35.4357 53.9555 34.4865 53.05 33.5713 52.1142C33.0839 51.6172 32.9854 51.0911 33.2553 50.5832C33.6491 49.8413 34.5922 49.7261 35.251 50.371C36.1735 51.2717 37.0729 52.1966 37.9796 53.113C38.5023 53.6415 39.1221 53.8646 39.8502 53.6779C41.2771 53.3118 41.7195 51.6244 40.6499 50.5189C39.0966 48.9103 37.5044 47.3393 35.9292 45.7514C35.7311 45.5513 35.522 45.3574 35.3482 45.1368C34.9605 44.6434 34.9994 43.9682 35.4175 43.5415C35.8551 43.0954 36.5527 43.0591 37.0644 43.4676C37.2212 43.5924 37.3585 43.7428 37.5007 43.8846C39.0905 45.4859 40.6803 47.0872 42.2664 48.6933C42.8134 49.2473 43.4417 49.5443 44.2281 49.3249C45.6805 48.92 46.0671 47.2387 44.9562 46.1126C42.4658 43.5888 39.9632 41.0771 37.4667 38.5594C37.3111 38.403 37.0753 38.2491 37.0401 38.0648C36.9635 37.6575 36.842 37.1448 37.0206 36.8357C37.1981 36.5266 37.7122 36.2708 38.0902 36.255C38.4233 36.2405 38.8389 36.5217 39.1051 36.786C41.6332 39.3013 44.1321 41.8457 46.6517 44.3695C47.5207 45.2398 48.6766 45.2689 49.4435 44.4834C50.1983 43.7112 50.146 42.5936 49.294 41.7414C44.6316 37.0866 39.9681 32.433 35.2911 27.7939C35.0881 27.5927 34.7466 27.4581 34.4573 27.4315C33.011 27.3018 31.5597 27.2387 30.1134 27.1054C29.6844 27.0654 29.4704 27.1745 29.2638 27.5515C28.362 29.1904 27.4419 30.8183 26.4939 32.4318C25.4899 34.1398 23.5756 34.9398 21.7318 34.467C18.9351 33.7482 17.6395 30.7129 19.0688 28.143C20.4654 25.6289 21.9069 23.1403 23.3277 20.6396C23.4444 20.4335 23.5538 20.2226 23.6899 19.968C22.6446 19.6783 21.6528 19.4201 20.672 19.1243C20.2685 19.0031 20.0278 19.0892 19.7568 19.4225C17.4426 22.2651 15.1066 25.0883 12.7778 27.9188C11.487 29.4874 10.1975 31.0571 8.88723 32.6536C10.4624 34.7689 12.0157 36.8563 13.5727 38.9473C15.9501 36.9739 19.8516 37.7388 20.7388 41.4687C22.0564 41.2771 23.2973 41.476 24.3644 42.3499C25.4279 43.2203 25.9007 44.3767 25.953 45.7114C28.9235 45.9247 30.6227 48.1721 30.2179 50.9541ZM49.8203 39.1194C50.0342 38.7097 50.1205 38.5558 50.1971 38.397C51.1366 36.4393 52.0615 34.4755 53.0241 32.5287C53.2186 32.1348 53.1433 31.8851 52.8929 31.5687C49.6416 27.4642 46.3964 23.3537 43.1646 19.2346C42.9264 18.9316 42.6857 18.8213 42.3065 18.8249C39.9049 18.8419 37.5044 18.8261 35.1027 18.8407C34.7065 18.8431 34.2969 18.8952 33.9152 19.0031C31.3774 19.7219 28.8494 20.4747 26.3079 21.1838C25.8558 21.3099 25.5908 21.5366 25.3745 21.9354C24.7801 23.0312 24.1481 24.1076 23.5319 25.1926C22.7479 26.5745 21.9494 27.9491 21.1861 29.3431C20.5905 30.4317 21.0123 31.6172 22.1074 32.0427C23.0044 32.3906 23.9257 32.0342 24.4605 31.102C25.541 29.217 26.6191 27.3309 27.6765 25.4338C28.0095 24.8374 28.4616 24.5671 29.152 24.6204C31.183 24.7743 33.2164 24.9125 35.2498 25.0386C35.8295 25.0738 36.2647 25.3077 36.673 25.7174C40.9003 29.9541 45.1433 34.1749 49.3754 38.4079C49.5407 38.5715 49.6331 38.8128 49.8203 39.1194ZM12.9662 14.7834C9.59339 18.951 6.25826 23.0712 2.91099 27.2072C4.3622 28.4509 5.76359 29.651 7.19414 30.8765C10.7711 26.5308 14.3056 22.236 17.8741 17.9C16.2211 16.8502 14.6289 15.8393 12.9662 14.7834ZM59.1195 26.452C56.1016 22.5427 53.1189 18.6794 50.1229 14.7992C48.4614 15.855 46.8559 16.8757 45.2138 17.9194C48.4456 22.0178 51.6288 26.0556 54.8363 30.1262C56.2827 28.8873 57.6707 27.6957 59.1195 26.452ZM18.9692 50.3953C19.1491 50.3274 19.5842 50.2825 19.837 50.0449C20.9673 48.9855 22.088 47.9091 23.1259 46.7611C23.7652 46.0532 23.5975 44.9331 22.912 44.3016C22.2399 43.6821 21.1654 43.6191 20.4824 44.2555C19.4079 45.258 18.3651 46.2981 17.3599 47.3696C16.8325 47.9321 16.7936 48.6521 17.1229 49.3455C17.4438 50.0219 18.0175 50.3565 18.9692 50.3953ZM21.1533 52.8475C21.3004 53.6936 21.6553 54.2682 22.3639 54.587C23.0968 54.9167 23.8041 54.8125 24.3827 54.261C25.3732 53.3154 26.3492 52.3517 27.2936 51.3614C28.0593 50.5589 28.0289 49.4291 27.2839 48.7055C26.5425 47.9842 25.4328 48.0085 24.627 48.7915C23.6887 49.7043 22.7431 50.6135 21.857 51.5759C21.5398 51.9226 21.3842 52.4196 21.1533 52.8475ZM31.3823 54.924C31.3762 54.501 31.0651 53.9482 30.4245 53.6064C29.7609 53.2524 29.0657 53.2621 28.4981 53.7385C27.809 54.3167 27.1599 54.958 26.5789 55.6429C26.0843 56.2271 26.0855 56.9508 26.4538 57.6212C26.8111 58.2733 27.3981 58.5885 28.1481 58.5655C29.3003 58.5303 31.3811 56.3762 31.3823 54.924ZM16.452 40.2128C16.0874 40.3583 15.6547 40.425 15.3715 40.6674C14.703 41.2396 14.0649 41.8614 13.4913 42.5281C12.9079 43.2057 13.0063 44.2458 13.6201 44.8968C14.2278 45.5416 15.2901 45.7198 15.9792 45.1574C16.7048 44.5646 17.3757 43.8846 17.9701 43.1609C18.4332 42.5972 18.4234 41.8857 18.0649 41.2323C17.7294 40.6189 17.1886 40.3159 16.452 40.2128Z" fill="#231F20"/>
<path d="M37.5474 14.3059C37.1487 13.992 36.6929 13.7944 36.5288 13.4562C36.3745 13.1386 36.4924 12.6646 36.5641 12.2731C36.5957 12.1046 36.806 11.9615 36.9469 11.8197C39.554 9.21592 42.1611 6.61213 44.7767 4.01683C44.9858 3.80954 45.2349 3.60589 45.5035 3.50286C46.0043 3.31254 46.4661 3.46528 46.8028 3.88106C47.1383 4.29442 47.1857 4.76354 46.9086 5.22902C46.798 5.4157 46.6387 5.57934 46.4832 5.7345C43.8761 8.3383 41.2714 10.9445 38.651 13.535C38.369 13.8174 37.9886 14.0029 37.5474 14.3059Z" fill="#D7282F"/>
<path d="M25.6604 12.6863C25.6616 13.7822 24.7367 14.3773 23.9479 14.0052C23.7874 13.93 23.6343 13.8185 23.5091 13.6937C20.7975 10.9953 18.0895 8.29334 15.3828 5.58894C15.2697 5.4762 15.1628 5.35014 15.085 5.21195C14.8115 4.7307 14.9027 4.15612 15.2965 3.77428C15.6866 3.39608 16.2773 3.31607 16.7441 3.59973C16.9142 3.70276 17.0637 3.84338 17.2059 3.98521C19.8312 6.59869 22.459 9.21097 25.0709 11.8378C25.3541 12.1214 25.5364 12.5045 25.6604 12.6863Z" fill="#D7282F"/>
<path d="M32.2178 9.52585C32.2178 10.6108 32.2251 11.6969 32.2154 12.7818C32.2081 13.5988 31.7049 14.1358 30.9853 14.1237C30.2889 14.1128 29.7979 13.5867 29.7954 12.8036C29.7869 10.5926 29.7869 8.38154 29.7954 6.1705C29.7991 5.40561 30.3132 4.85891 30.9939 4.85163C31.6769 4.84436 32.2056 5.38864 32.2141 6.14989C32.2275 7.27481 32.2178 8.39973 32.2178 9.52585Z" fill="#D7282F"/>
<path d="M30.992 2.41112C30.3418 2.40506 29.8033 1.8717 29.796 1.22439C29.7863 0.54677 30.3405 -0.00720235 31.0163 7.0809e-05C31.6945 0.00734397 32.2342 0.571014 32.2135 1.24742C32.1916 1.89109 31.641 2.41597 30.992 2.41112Z" fill="#D7282F"/>
</g>
<defs>
<clipPath id="clip0_1305_1679">
<rect width="62" height="61" fill="white"/>
</clipPath>
</defs>
</svg>
