<svg width="65" height="47" viewBox="0 0 65 47" fill="none" xmlns="http://www.w3.org/2000/svg">
<mask id="mask0_2596_7302" style="mask-type:luminance" maskUnits="userSpaceOnUse" x="0" y="0" width="65" height="47">
<path d="M60.3571 0H4.64286C2.07868 0 0 2.10426 0 4.7V42.3C0 44.8957 2.07868 47 4.64286 47H60.3571C62.9213 47 65 44.8957 65 42.3V4.7C65 2.10426 62.9213 0 60.3571 0Z" fill="white"/>
</mask>
<g mask="url(#mask0_2596_7302)">
<path d="M60.3571 0H4.64286C2.07868 0 0 2.10426 0 4.7V42.3C0 44.8957 2.07868 47 4.64286 47H60.3571C62.9213 47 65 44.8957 65 42.3V4.7C65 2.10426 62.9213 0 60.3571 0Z" fill="white"/>
<path fill-rule="evenodd" clip-rule="evenodd" d="M0 31.332H65V46.9987H0V31.332Z" fill="#249F58"/>
<path fill-rule="evenodd" clip-rule="evenodd" d="M32.4998 31.3346C36.7712 31.3346 40.2379 27.8253 40.2379 23.5013C40.2379 19.1773 36.7712 15.668 32.4998 15.668C28.2284 15.668 24.7617 19.1773 24.7617 23.5013C24.7617 27.8253 28.2284 31.3346 32.4998 31.3346ZM32.4998 28.2013C35.0627 28.2013 37.1427 26.0957 37.1427 23.5013C37.1427 20.9069 35.0627 18.8013 32.4998 18.8013C29.937 18.8013 27.857 20.9069 27.857 23.5013C27.857 26.0957 29.937 28.2013 32.4998 28.2013Z" fill="#1A47B8"/>
<path d="M32.4998 25.0669C33.3544 25.0669 34.0474 24.3655 34.0474 23.5003C34.0474 22.635 33.3544 21.9336 32.4998 21.9336C31.6452 21.9336 30.9521 22.635 30.9521 23.5003C30.9521 24.3655 31.6452 25.0669 32.4998 25.0669Z" fill="#1A47B8"/>
<path fill-rule="evenodd" clip-rule="evenodd" d="M0 0H65V15.6667H0V0Z" fill="#FF6C2D"/>
</g>
</svg>
