<svg width="40" height="41" viewBox="0 0 40 41" fill="none" xmlns="http://www.w3.org/2000/svg">
<path d="M4.49991 19.9331C4.49991 18.3734 4.49991 16.869 4.49991 15.3158C4.18961 15.3158 3.89336 15.291 3.60684 15.3288C3.4998 15.3429 3.38628 15.4889 3.32033 15.6003C2.88893 16.3303 2.07479 16.6721 1.27471 16.4439C0.507058 16.2254 -0.0270517 15.4835 0.00105936 14.6745C0.0291704 13.8698 0.600041 13.1959 1.40877 13.0121C2.15264 12.8433 2.93434 13.1938 3.31492 13.9076C3.42953 14.1218 3.54954 14.1953 3.77983 14.1845C4.14312 14.1672 4.50856 14.1791 4.87292 14.1802C5.46542 14.1823 5.65138 14.3619 5.65246 14.9481C5.65571 16.4461 5.65354 17.9441 5.65354 19.4421C5.65354 19.5881 5.65354 19.7352 5.65354 19.9071C6.28172 19.9071 6.8807 19.9071 7.52834 19.9071C7.52834 19.759 7.52834 19.6162 7.52834 19.4723C7.52834 14.4387 7.52617 9.40608 7.53482 4.37241C7.53482 4.08471 7.46887 3.92464 7.19965 3.77754C6.48931 3.38817 6.17792 2.57483 6.38984 1.8015C6.60391 1.01952 7.32183 0.484135 8.13488 0.500359C8.9274 0.516583 9.61072 1.06602 9.80641 1.84368C10.001 2.61593 9.66369 3.41846 8.95551 3.80675C8.7609 3.91382 8.65494 4.00684 8.65602 4.25452C8.66467 9.39526 8.66251 14.5371 8.66359 19.6778C8.66359 19.7438 8.67008 19.8098 8.67656 19.9331C9.21608 19.9331 9.75019 19.932 10.2843 19.9331C10.88 19.9352 11.0595 20.1083 11.0801 20.6934C11.2314 25.036 14.2134 28.5089 18.4689 29.3006C23.3527 30.2092 28.2094 26.6659 28.8311 21.7361C28.8733 21.4019 28.8971 21.0655 28.9111 20.7291C28.9371 20.1061 29.1025 19.9352 29.7144 19.9331C30.2377 19.932 30.761 19.9331 31.3319 19.9331C31.3319 19.759 31.3319 19.6151 31.3319 19.4713C31.3319 14.4376 31.3298 9.405 31.3384 4.37133C31.3384 4.08471 31.2724 3.92464 31.0032 3.77754C30.2853 3.38385 29.9739 2.54022 30.2042 1.7604C30.4226 1.02168 31.1276 0.499277 31.9028 0.500359C32.7137 0.50144 33.4111 1.05088 33.6122 1.84584C33.8068 2.61809 33.4705 3.41521 32.758 3.80675C32.5634 3.91382 32.4585 4.009 32.4596 4.2556C32.4683 9.39635 32.4661 14.5382 32.4672 19.6789C32.4672 19.7449 32.4737 19.8109 32.4791 19.9039C33.0878 19.9039 33.6857 19.9039 34.3409 19.9039C34.3409 19.7622 34.3409 19.6194 34.3409 19.4767C34.3409 17.9787 34.3398 16.4807 34.342 14.9827C34.343 14.3586 34.5182 14.1823 35.1269 14.1791C35.2891 14.178 35.4513 14.1683 35.6124 14.1813C36.1454 14.2234 36.5433 14.1542 36.9066 13.6177C37.485 12.7611 38.7338 12.7579 39.469 13.4847C40.2031 14.2115 40.1631 15.3948 39.3836 16.0762C38.6094 16.7511 37.3671 16.657 36.8298 15.782C36.5519 15.331 36.2459 15.2758 35.82 15.3115C35.7259 15.3191 35.6318 15.3212 35.5086 15.3266C35.5086 16.8495 35.5086 18.3648 35.5086 19.9309C36.0351 19.9309 36.5573 19.9309 37.0785 19.9309C37.8202 19.9309 38.5629 19.9266 39.3046 19.932C39.7901 19.9352 39.9923 20.1375 39.9966 20.621C40.002 21.1737 39.9999 21.7274 39.9977 22.2812C39.9934 23.5001 39.27 24.2475 38.0526 24.294C36.3508 24.3589 35.0166 25.4026 34.5614 27.0391C34.2046 28.3218 34.4436 29.5148 35.3615 30.459C36.1886 31.3091 36.3422 32.5681 35.2566 33.5437C34.4544 34.264 33.7224 35.0622 32.9591 35.8247C32.0012 36.7819 31.0486 36.8057 30.0453 35.9102C28.9695 34.9508 27.7305 34.6588 26.3627 35.1163C24.9702 35.5825 24.1214 36.5624 23.8436 38.0149C23.8057 38.2118 23.8057 38.4173 23.796 38.6184C23.7398 39.7574 22.9786 40.4928 21.839 40.4972C20.6248 40.5015 19.4107 40.5004 18.1965 40.4972C17.0072 40.4939 16.2557 39.7628 16.2071 38.5698C16.1184 36.4088 14.4274 34.8264 12.2834 34.9173C11.4023 34.9541 10.6368 35.2926 9.98265 35.8853C8.95876 36.8111 8.01055 36.7906 7.03964 35.8215C6.23739 35.02 5.43622 34.2186 4.63614 33.416C3.72902 32.5054 3.71172 31.5244 4.57559 30.5596C5.54759 29.4748 5.846 28.2266 5.37568 26.8422C4.9086 25.4675 3.94093 24.6239 2.50511 24.3459C2.29535 24.3048 2.07695 24.3048 1.8618 24.2929C0.749246 24.2334 0.0118713 23.4688 0.00430294 22.3569C-2.18403e-05 21.7902 0.00105935 21.2234 0.00430294 20.6567C0.00754652 20.1256 0.202162 19.9342 0.742759 19.9331C1.97856 19.932 3.21869 19.9331 4.49991 19.9331ZM30.0691 21.0882C29.6507 26.7081 25.0091 30.5466 20.0345 30.565C14.9442 30.5834 10.3092 26.6378 9.91994 21.0904C7.00179 21.0904 4.08365 21.0904 1.13199 21.0904C1.13199 21.5284 1.1255 21.9437 1.13307 22.3591C1.14172 22.8663 1.39256 23.1227 1.9018 23.1605C2.12993 23.1778 2.36239 23.1713 2.58728 23.2103C4.49667 23.5423 5.80059 24.6293 6.432 26.4496C7.06667 28.2775 6.67095 29.928 5.37568 31.3621C4.9659 31.8164 4.97131 32.1495 5.40595 32.5876C6.21468 33.4009 7.02666 34.211 7.83756 35.0211C8.37275 35.5554 8.64521 35.5543 9.21175 35.0557C10.573 33.8563 12.1321 33.4885 13.876 34.0001C15.9108 34.5971 17.2418 36.3396 17.3326 38.4908C17.3575 39.076 17.5975 39.3593 18.1143 39.3626C19.3685 39.3712 20.6238 39.3712 21.878 39.3626C22.3569 39.3593 22.6153 39.0976 22.6553 38.612C22.6737 38.3837 22.6651 38.1512 22.7029 37.9262C23.0327 35.9989 24.1312 34.6847 25.967 34.0553C27.7791 33.4344 29.4204 33.8249 30.8443 35.1098C31.3179 35.537 31.639 35.5316 32.0996 35.0741C32.9126 34.2651 33.7224 33.4539 34.5333 32.6427C35.0447 32.1311 35.0491 31.8359 34.5604 31.2983C32.9126 29.4888 32.8359 26.8271 34.3906 24.9289C35.3139 23.8019 36.5152 23.2168 37.9726 23.1627C38.4786 23.1443 38.7976 22.9691 38.8311 22.5949C38.8765 22.093 38.8419 21.5847 38.8419 21.0871C35.887 21.0882 32.9775 21.0882 30.0691 21.0882ZM32.5364 2.25468C32.5266 1.90749 32.2196 1.62087 31.8736 1.63602C31.5276 1.65116 31.2411 1.96482 31.2616 2.30551C31.2822 2.63107 31.5806 2.9112 31.9039 2.90795C32.2455 2.90579 32.5461 2.5943 32.5364 2.25468ZM2.40888 14.7285C2.39915 14.3846 2.08668 14.0936 1.74394 14.1088C1.39472 14.1239 1.11577 14.4322 1.13523 14.7804C1.15469 15.1092 1.44878 15.3872 1.7753 15.384C2.11588 15.3796 2.41861 15.0671 2.40888 14.7285ZM38.857 14.7274C38.8473 14.3781 38.5424 14.0936 38.1953 14.1088C37.8666 14.1228 37.5855 14.4127 37.5834 14.7404C37.5812 15.0811 37.8883 15.3872 38.2278 15.3829C38.5716 15.3796 38.8668 15.0725 38.857 14.7274ZM8.7317 2.26766C8.72954 1.92372 8.42573 1.62845 8.08083 1.63602C7.73268 1.64359 7.444 1.94859 7.45698 2.29362C7.46995 2.62025 7.76079 2.90471 8.08731 2.90904C8.42573 2.91336 8.73387 2.60727 8.7317 2.26766Z" fill="#231F20"/>
<path d="M19.3206 16.2985C19.1113 16.2985 18.9552 16.2985 18.798 16.2985C17.1828 16.2985 15.5676 16.3018 13.9524 16.2974C13.2032 16.2953 12.9489 15.9139 13.2946 15.3088C16.0243 10.5211 18.7575 5.73664 21.4873 0.948959C21.6653 0.636695 21.8896 0.409791 22.307 0.535128C22.6469 0.637776 22.7637 0.917624 22.6677 1.379C22.0295 4.43032 21.389 7.48057 20.7496 10.5319C20.7219 10.6616 20.7022 10.7923 20.6687 10.9717C20.8548 10.9803 21.0063 10.9933 21.1566 10.9933C22.7868 10.9943 24.4159 10.9922 26.0461 10.9954C26.8161 10.9965 27.0543 11.3725 26.6889 12.0122C23.9719 16.775 21.2526 21.5368 18.5367 26.2996C18.3795 26.5762 18.2049 26.8161 17.8222 26.7826C17.436 26.7491 17.2337 26.4444 17.3239 25.9917C17.5297 24.9598 17.7551 23.9311 17.9713 22.9014C18.413 20.802 18.8535 18.7015 19.2928 16.6021C19.309 16.5243 19.3079 16.4433 19.3206 16.2985ZM25.2518 12.1256C24.9905 12.1256 24.8333 12.1256 24.6749 12.1256C23.1741 12.1256 21.6734 12.1278 20.1739 12.1245C19.4489 12.1235 19.2327 11.875 19.3691 11.2245C19.8073 9.12508 20.2444 7.0246 20.6814 4.92519C20.6583 4.91547 20.634 4.90574 20.6109 4.89602C18.6708 8.29418 16.7307 11.6923 14.7479 15.1651C14.9837 15.1651 15.1352 15.1651 15.2867 15.1651C16.8013 15.1651 18.317 15.1629 19.8316 15.1661C20.5577 15.1672 20.7704 15.4103 20.6329 16.064C20.4606 16.8831 20.2883 17.7021 20.1184 18.5211C19.8501 19.809 19.583 21.097 19.316 22.385C19.3379 22.3925 19.3599 22.4001 19.3819 22.4076C21.3243 19.0062 23.2666 15.6038 25.2518 12.1256Z" fill="#D7282F" stroke="#D7282F" stroke-width="0.5" stroke-miterlimit="10"/>
</svg>
