<svg width="59" height="59" viewBox="0 0 59 59" fill="none" xmlns="http://www.w3.org/2000/svg">
<path d="M28 27.2734V56.3057L26.0625 57.2744L0.875 44.7109V13.2266L26.0625 0.632812L51.25 13.2266V35.75H47.375V17.5859L28 27.2734ZM26.0625 4.99219L18.7666 8.625L37.5664 18.1309L44.9834 14.4375L26.0625 4.99219ZM24.125 51.9766V27.2734L4.75 17.5859V42.2891L24.125 51.9766ZM7.1416 14.4375L26.0625 23.8828L33.2676 20.3105L14.4375 10.8047L7.1416 14.4375ZM39.625 51.25V47.375H59V51.25H39.625ZM39.625 39.625H59V43.5H39.625V39.625ZM31.875 59V55.125H35.75V59H31.875ZM31.875 43.5V39.625H35.75V43.5H31.875ZM31.875 51.25V47.375H35.75V51.25H31.875ZM39.625 59V55.125H59V59H39.625Z" fill="#D7282F"/>
</svg>
