<svg width="52" height="52" viewBox="0 0 52 52" fill="none" xmlns="http://www.w3.org/2000/svg">
<path d="M41.2417 39.9255C40.5701 37.8588 38.6326 36.3346 36.3334 36.3346H33.7501V28.5846C33.7501 27.8995 33.4779 27.2424 32.9934 26.7579C32.509 26.2735 31.8519 26.0013 31.1667 26.0013H15.6667V20.8346H20.8334C21.5186 20.8346 22.1756 20.5625 22.6601 20.078C23.1446 19.5935 23.4167 18.9364 23.4167 18.2513V13.0846H28.5834C29.9537 13.0846 31.2679 12.5403 32.2368 11.5714C33.2057 10.6024 33.7501 9.28825 33.7501 7.91797V6.8588C36.841 8.10491 39.5839 10.0814 41.744 12.6192C43.9041 15.157 45.4172 18.1804 46.1536 21.4306C46.8899 24.6809 46.8278 28.0612 45.9723 31.2822C45.1169 34.5031 43.4937 37.4689 41.2417 39.9255ZM23.4167 46.4871C13.2126 45.2213 5.33341 36.5413 5.33341 26.0013C5.33341 24.3996 5.54008 22.8496 5.87591 21.3771L18.2501 33.7513V36.3346C18.2501 37.7049 18.7944 39.0191 19.7634 39.988C20.7323 40.957 22.0465 41.5013 23.4167 41.5013M26.0001 0.167969C22.6076 0.167969 19.2483 0.836168 16.1141 2.13441C12.9798 3.43266 10.132 5.33553 7.73316 7.73438C2.88847 12.5791 0.166748 19.1499 0.166748 26.0013C0.166748 32.8527 2.88847 39.4235 7.73316 44.2682C10.132 46.6671 12.9798 48.5699 16.1141 49.8682C19.2483 51.1664 22.6076 51.8346 26.0001 51.8346C32.8515 51.8346 39.4223 49.1129 44.267 44.2682C49.1117 39.4235 51.8334 32.8527 51.8334 26.0013C51.8334 22.6088 51.1652 19.2496 49.867 16.1153C48.5687 12.9811 46.6659 10.1332 44.267 7.73438C41.8682 5.33553 39.0203 3.43266 35.8861 2.13441C32.7518 0.836168 29.3926 0.167969 26.0001 0.167969Z" fill="#D7282F"/>
</svg>
