<svg width="24" height="24" viewBox="0 0 24 24" fill="none" xmlns="http://www.w3.org/2000/svg">
<path d="M8 10.9997C8 10.7345 8.10536 10.4801 8.29289 10.2926C8.48043 10.105 8.73478 9.99967 9 9.99967H15C15.2652 9.99967 15.5196 10.105 15.7071 10.2926C15.8946 10.4801 16 10.7345 16 10.9997C16 11.2649 15.8946 11.5192 15.7071 11.7068C15.5196 11.8943 15.2652 11.9997 15 11.9997H9C8.73478 11.9997 8.48043 11.8943 8.29289 11.7068C8.10536 11.5192 8 11.2649 8 10.9997ZM9 13.9997C8.73478 13.9997 8.48043 14.105 8.29289 14.2926C8.10536 14.4801 8 14.7345 8 14.9997C8 15.2649 8.10536 15.5192 8.29289 15.7068C8.48043 15.8943 8.73478 15.9997 9 15.9997H13C13.2652 15.9997 13.5196 15.8943 13.7071 15.7068C13.8946 15.5192 14 15.2649 14 14.9997C14 14.7345 13.8946 14.4801 13.7071 14.2926C13.5196 14.105 13.2652 13.9997 13 13.9997H9ZM2 11.9997C2.0005 9.80727 2.72148 7.67579 4.05199 5.93326C5.38249 4.19074 7.24877 2.93375 9.3636 2.35574C11.4784 1.77774 13.7246 1.91076 15.7565 2.73432C17.7883 3.55789 19.4932 5.02636 20.6087 6.91374C21.7243 8.80111 22.1886 11.0028 21.9304 13.1799C21.6721 15.3571 20.7055 17.389 19.1794 18.963C17.6533 20.537 15.6521 21.5659 13.484 21.8912C11.3159 22.2166 9.10092 21.8204 7.18 20.7637L3.292 21.9477C3.11858 22.0005 2.93407 22.0052 2.75819 21.9612C2.58231 21.9173 2.42168 21.8264 2.2935 21.6982C2.16531 21.57 2.07438 21.4094 2.03043 21.2335C1.98648 21.0576 1.99117 20.8731 2.044 20.6997L3.228 16.8057C2.42153 15.3322 1.9992 13.6794 2 11.9997ZM12 3.99967C10.5799 3.99955 9.18532 4.37746 7.95956 5.09458C6.7338 5.8117 5.72102 6.84219 5.02526 8.08019C4.32949 9.3182 3.97581 10.7191 4.00054 12.139C4.02528 13.5589 4.42754 14.9466 5.166 16.1597C5.23931 16.2802 5.28629 16.4148 5.30387 16.5548C5.32145 16.6947 5.30923 16.8368 5.268 16.9717L4.502 19.4897L7.016 18.7237C7.15132 18.6824 7.29384 18.6704 7.43416 18.6883C7.57448 18.7063 7.70939 18.7537 7.83 18.8277C8.88436 19.4714 10.0735 19.8622 11.3041 19.9695C12.5348 20.0767 13.7736 19.8975 14.9234 19.4459C16.0732 18.9943 17.1029 18.2825 17.9316 17.3664C18.7603 16.4503 19.3656 15.3547 19.7 14.1655C20.0344 12.9762 20.0889 11.7258 19.8592 10.512C19.6295 9.29818 19.1218 8.15408 18.3759 7.16935C17.63 6.18461 16.6662 5.38598 15.56 4.83606C14.4538 4.28614 13.2353 3.99986 12 3.99967Z" fill="black"/>
</svg>
