<svg width="63" height="45" viewBox="0 0 63 45" fill="none" xmlns="http://www.w3.org/2000/svg">
<path d="M62.4805 39.0658C62.1418 39.6388 61.6372 39.8107 60.9829 39.7976C59.3851 39.7649 57.7857 39.7878 56.1583 39.7878C55.1884 43.1488 53.0777 45.1576 49.4564 44.9546C46.2755 44.7761 44.4459 42.8247 43.6273 39.814C35.9029 39.814 28.1769 39.814 20.4081 39.814C20.0186 41.5837 19.1161 43.0228 17.5742 44.0181C16.4942 44.7155 15.304 45.043 14.0169 45.0004C11.0432 44.9022 9.09362 43.247 7.92156 39.7878C7.72266 39.7878 7.50239 39.7878 7.28211 39.7878C5.12869 39.7878 2.97526 39.791 0.821839 39.7861C-0.151312 39.7845 -0.519531 39.4161 -0.519531 38.4502C-0.519531 27.4601 -0.519531 16.47 -0.517887 5.48155C-0.517887 4.51073 -0.167751 4.16529 0.82677 4.16529C13.9314 4.16365 27.0361 4.16365 40.1391 4.16529C41.1369 4.16529 41.4673 4.49599 41.469 5.4881C41.4739 7.44939 41.4706 9.41068 41.4706 11.4391C41.7517 11.4538 41.9884 11.4784 42.2235 11.4784C45.3205 11.4817 48.4175 11.4948 51.5128 11.4702C52.2492 11.4637 52.7243 11.724 53.1238 12.3493C56.2273 17.2133 59.3572 22.0592 62.4805 26.9117C62.4805 30.962 62.4805 35.0139 62.4805 39.0658ZM20.4344 37.6448C26.7501 37.6448 33.0344 37.6448 39.3172 37.6448C39.3172 36.949 39.3172 36.3023 39.3172 35.5721C33.3731 35.5721 27.4635 35.5721 21.5638 35.5721C21.5638 34.842 21.5638 34.1953 21.5638 33.4881C27.5029 33.4881 33.401 33.4881 39.332 33.4881C39.332 25.7837 39.332 18.1432 39.332 10.4323C27.4372 10.4323 15.5786 10.4323 3.70348 10.4323C3.70348 9.71519 3.70348 9.07015 3.70348 8.35145C15.5917 8.35145 27.4503 8.35145 39.3221 8.35145C39.3221 7.61801 39.3221 6.95825 39.3221 6.31158C26.7188 6.31158 14.1649 6.31158 1.62567 6.31158C1.62567 15.3928 1.62567 24.4232 1.62567 33.5323C3.38129 33.5323 5.09088 33.5323 6.79718 33.5323C6.79718 34.2542 6.79718 34.8976 6.79718 35.6114C5.04321 35.6114 3.33362 35.6114 1.63225 35.6114C1.63225 36.3449 1.63225 37.0046 1.63225 37.6595C3.76924 37.6595 5.85362 37.6595 7.92485 37.6595C9.138 34.1527 11.1977 32.4419 14.178 32.4419C17.155 32.4403 19.1851 34.1216 20.4344 37.6448ZM41.5528 37.6529C42.2646 37.6529 42.9484 37.6529 43.6175 37.6529C44.8881 34.156 46.8065 32.4534 49.6947 32.4632C53.1879 32.4747 55.2394 34.3983 56.1451 37.6546C57.5522 37.6546 58.938 37.6546 60.3386 37.6546C60.3386 36.9555 60.3386 36.2941 60.3386 35.559C59.2816 35.559 58.2673 35.559 57.2662 35.559C57.2662 34.8387 57.2662 34.1937 57.2662 33.475C58.3249 33.475 59.3391 33.475 60.3846 33.475C60.3846 31.6185 60.3846 29.8405 60.3846 28.061C60.3846 27.226 60.355 27.1965 59.5183 27.1965C54.6788 27.1965 49.8394 27.1982 45.0016 27.1949C43.9018 27.1949 43.5764 26.8675 43.5747 25.764C43.5714 22.8794 43.5714 19.9948 43.5747 17.1085C43.5764 16.0133 43.9068 15.6858 45.0114 15.6842C47.3292 15.6809 49.6454 15.6826 51.9632 15.6826C52.1802 15.6826 52.3972 15.6826 52.749 15.6826C52.3495 15.0555 52.0027 14.5578 51.7084 14.0307C51.5128 13.6803 51.2695 13.5674 50.8717 13.569C47.9605 13.5854 45.0492 13.5772 42.1364 13.5788C41.9555 13.5788 41.7747 13.5985 41.5561 13.6099C41.5528 21.6368 41.5528 29.6261 41.5528 37.6529ZM58.8049 25.065C57.2498 22.6535 55.7638 20.3337 54.2498 18.0318C54.1495 17.8796 53.8405 17.7945 53.6284 17.7928C51.1709 17.7765 48.7117 17.7814 46.2542 17.7846C46.0783 17.7846 45.904 17.8125 45.715 17.8305C45.715 20.2665 45.715 22.6502 45.715 25.0666C50.0629 25.065 54.378 25.065 58.8049 25.065ZM49.8575 42.9081C52.1654 42.9229 54.0575 41.0713 54.087 38.7678C54.1166 36.4922 52.2279 34.5653 49.9364 34.5358C47.6136 34.5047 45.692 36.3956 45.6854 38.7204C45.6788 41.0254 47.5396 42.8934 49.8575 42.9081ZM14.1879 42.9081C16.5007 42.9016 18.3764 41.0353 18.3813 38.7351C18.3862 36.4464 16.4975 34.5457 14.2027 34.5342C11.8881 34.5211 9.95663 36.448 9.97472 38.7515C9.99444 41.0516 11.8816 42.9147 14.1879 42.9081Z" fill="#231F20"/>
<path d="M3.69824 2.06696C3.69824 1.32533 3.69824 0.696674 3.69824 0.015625C8.58537 0.015625 13.4462 0.015625 18.3876 0.015625C18.3876 0.598446 18.4106 1.16653 18.3695 1.73135C18.3613 1.85086 18.1311 2.03913 17.9914 2.05059C17.5032 2.08988 17.0084 2.06696 16.5169 2.06696C12.501 2.06696 8.48345 2.06696 4.46756 2.06696C4.22591 2.06696 3.98427 2.06696 3.69824 2.06696Z" fill="#D7282F"/>
<path d="M-0.490234 1.99139C-0.490234 1.32999 -0.490234 0.684955 -0.490234 0.00390625C0.183738 0.00390625 0.826478 0.00390625 1.52346 0.00390625C1.52346 0.637478 1.52346 1.27596 1.52346 1.99139C0.897163 1.99139 0.229766 1.99139 -0.490234 1.99139Z" fill="#D7282F"/>
<path d="M50.9 37.7461C50.9 38.419 50.9 39.0624 50.9 39.7483C50.2162 39.7483 49.557 39.7483 48.8633 39.7483C48.8633 39.0853 48.8633 38.4419 48.8633 37.7461C49.5142 37.7461 50.1734 37.7461 50.9 37.7461Z" fill="#D7282F"/>
<path d="M13.1641 39.752C13.1641 39.0709 13.1641 38.4275 13.1641 37.7383C13.8347 37.7383 14.4939 37.7383 15.1926 37.7383C15.1926 38.398 15.1926 39.0578 15.1926 39.752C14.5284 39.752 13.8841 39.752 13.1641 39.752Z" fill="#D7282F"/>
</svg>
