<svg width="40" height="48" viewBox="0 0 40 48" fill="none" xmlns="http://www.w3.org/2000/svg">
<path d="M36.6117 29.4963C37.4397 29.4963 38.2197 29.4955 38.9997 29.4963C39.7669 29.4972 39.9989 29.7271 39.9989 30.4953C39.9998 35.8339 39.9998 41.1716 39.9989 46.5102C39.9989 47.2681 39.7592 47.5023 38.9903 47.5023C26.3208 47.5023 13.6513 47.5023 0.981867 47.5023C0.201851 47.5023 -0.0387463 47.231 0.00492092 46.4568C0.247231 42.1732 0.483548 37.8896 0.722433 33.606C1.02725 28.1477 1.33377 22.6894 1.63944 17.2311C1.69681 16.2141 1.74818 15.1961 1.81326 14.1799C1.85264 13.5607 2.09838 13.3247 2.69944 13.3239C4.39733 13.3196 6.09521 13.3187 7.79309 13.3239C8.38474 13.3256 8.64674 13.5848 8.68013 14.1894C8.94385 18.9027 9.20414 23.6161 9.467 28.3294C9.48755 28.7006 9.51495 29.0718 9.54149 29.4679C10.1871 29.4679 10.8087 29.4679 11.4808 29.4679C11.4877 29.3172 11.5005 29.1656 11.5005 29.0132C11.5022 27.7361 11.5099 26.4589 11.4962 25.1817C11.492 24.8028 11.6255 24.5315 11.9141 24.293C14.4382 22.2063 16.9564 20.1136 19.4728 18.0174C19.7562 17.7814 20.0473 17.6333 20.4086 17.8133C20.7494 17.983 20.8239 18.2913 20.823 18.6444C20.8188 20.0507 20.8213 21.457 20.8213 22.8634C20.8213 23.0158 20.8213 23.1674 20.8213 23.4094C21.026 23.2535 21.1595 23.1571 21.2863 23.0528C23.3318 21.3752 25.3756 19.6959 27.4211 18.0183C27.8646 17.6548 28.2781 17.6238 28.5487 17.9838C28.6814 18.1595 28.7456 18.4282 28.7482 18.6564C28.7662 20.0628 28.7568 21.4691 28.7568 22.8754C28.7568 23.0167 28.7568 23.1579 28.7568 23.3999C28.9391 23.2621 29.059 23.1786 29.1703 23.0864C31.2064 21.3976 33.2434 19.7097 35.276 18.0157C35.5603 17.7789 35.8514 17.6342 36.2119 17.8159C36.5535 17.9881 36.6151 18.2956 36.6151 18.6495C36.61 22.0797 36.6117 25.509 36.6117 28.9392C36.6117 29.1079 36.6117 29.2759 36.6117 29.4963ZM38.504 30.9991C28.8689 30.9991 19.2613 30.9991 9.61769 30.9991C9.89939 36.0268 10.1785 41.0175 10.4576 46.0047C15.8296 46.0047 21.1304 46.0047 26.4801 46.0047C26.4801 45.8109 26.4801 45.6421 26.4801 45.4733C26.4801 42.373 26.4792 39.2736 26.4809 36.1732C26.4809 35.4283 26.7155 35.1889 27.4476 35.1889C30.0728 35.188 32.6988 35.188 35.324 35.1889C36.1168 35.1889 36.3437 35.4162 36.3446 36.2103C36.3454 39.3106 36.3446 42.41 36.3446 45.5104C36.3446 45.6749 36.3446 45.8402 36.3446 46.003C37.1075 46.003 37.7984 46.003 38.5048 46.003C38.504 40.9839 38.504 35.9958 38.504 30.9991ZM8.99265 46.0056C8.41128 35.5988 7.83162 25.2196 7.25282 14.8525C7.16548 14.8258 7.1261 14.8026 7.08585 14.8026C5.9017 14.7991 4.71755 14.8051 3.5334 14.7914C3.23116 14.7879 3.2303 14.9619 3.21831 15.1763C2.96059 19.8612 2.69944 24.5462 2.43915 29.2311C2.14633 34.5034 1.85435 39.7756 1.56153 45.0479C1.5444 45.3588 1.52129 45.6688 1.49902 46.0056C4.01203 46.0056 6.47194 46.0056 8.99265 46.0056ZM27.9708 36.6831C27.9708 39.7825 27.9708 42.8579 27.9708 45.9367C30.2834 45.9367 32.5678 45.9367 34.8513 45.9367C34.8513 42.8312 34.8513 39.767 34.8513 36.6831C32.5472 36.6831 30.2723 36.6831 27.9708 36.6831ZM19.3187 29.48C19.3187 26.3444 19.3187 23.2432 19.3187 20.1041C19.2305 20.1584 19.1791 20.1825 19.1363 20.2169C17.1447 21.8687 15.1514 23.5188 13.1701 25.1826C13.0528 25.2816 12.9758 25.4944 12.9732 25.6563C12.9561 26.7173 12.9647 27.7791 12.9647 28.841C12.9647 29.0494 12.9647 29.2578 12.9647 29.48C15.1121 29.48 17.1918 29.48 19.3187 29.48ZM20.8213 29.4662C23.0192 29.4662 25.1358 29.4662 27.2575 29.4662C27.2575 26.3392 27.2575 23.2423 27.2575 20.0852C27.0974 20.2066 26.9844 20.2867 26.8774 20.3737C25.2642 21.6956 23.6957 23.0778 22.0226 24.3171C21.0885 25.0086 20.6552 25.7484 20.8016 26.9188C20.9044 27.749 20.8213 28.6016 20.8213 29.4662ZM35.1262 20.1015C35.0277 20.1609 34.9772 20.1842 34.9361 20.2186C32.9445 21.8713 30.9513 23.5213 28.9691 25.1852C28.8501 25.2851 28.7688 25.4978 28.7662 25.6597C28.7491 26.8215 28.7559 27.9841 28.7585 29.1458C28.7585 29.2552 28.7833 29.3637 28.797 29.4705C30.9221 29.4705 33.013 29.4705 35.1262 29.4705C35.1262 26.3504 35.1262 23.2578 35.1262 20.1015Z" fill="#231F20"/>
<path d="M30.8235 7.94439C31.743 8.18294 32.6301 8.3879 33.4991 8.65574C33.7363 8.72894 33.9966 8.95027 34.1053 9.17332C34.2774 9.52641 34.048 9.8175 33.7731 10.0647C32.0393 11.6234 30.3114 13.19 28.5819 14.7539C27.2556 15.9535 25.9319 17.1558 24.5979 18.3468C24.4335 18.4932 24.2194 18.6422 24.0139 18.6663C23.7888 18.693 23.4651 18.6491 23.3341 18.501C23.1851 18.3339 23.1218 18.0023 23.1654 17.7698C23.2245 17.4555 23.4137 17.1635 23.5619 16.8699C24.353 15.2947 25.1493 13.723 25.9404 12.1479C26.0158 11.9981 26.0697 11.8361 26.1519 11.6355C25.3248 11.4142 24.532 11.1946 23.7348 10.9922C23.3726 10.9 23.0438 10.7863 22.9437 10.3712C22.8469 9.97079 23.0884 9.72965 23.3504 9.49024C26.3257 6.76626 29.2985 4.03798 32.2756 1.31573C32.464 1.14349 32.6669 0.974693 32.8895 0.854986C33.1695 0.704276 33.4752 0.698247 33.7278 0.931633C33.988 1.17191 34.0369 1.48108 33.9024 1.79972C33.7415 2.1821 33.5634 2.5593 33.3733 2.92789C32.6309 4.36696 31.8783 5.8 31.1343 7.2382C31.023 7.45092 30.939 7.67914 30.8235 7.94439ZM26.3454 14.7005C26.3668 14.7169 26.3882 14.7332 26.4088 14.7505C28.2231 13.1038 30.0375 11.4564 31.9143 9.75291C31.1454 9.55483 30.4972 9.3912 29.8508 9.21896C29.2018 9.04672 28.9757 8.69621 29.2206 8.07357C29.5871 7.14261 30.0229 6.23835 30.4296 5.32289C30.4904 5.18596 30.5563 5.05075 30.6197 4.91554C30.5957 4.89832 30.5717 4.88024 30.5478 4.86301C28.7651 6.49843 26.9816 8.13299 25.1339 9.82869C25.8771 10.0285 26.5338 10.1999 27.1871 10.3807C27.7453 10.5357 27.9628 10.9035 27.7736 11.4555C27.5784 12.0239 27.3429 12.5785 27.0998 13.1288C26.8652 13.6602 26.598 14.1769 26.3454 14.7005Z" fill="#D7282F"/>
<path d="M11.4457 3.10235C11.7197 3.1566 11.9937 3.18072 12.248 3.26511C13.5657 3.69916 14.3509 4.62495 14.5469 5.99254C14.7336 7.29295 14.2524 8.34878 13.2027 9.14453C13.0605 9.25218 12.8953 9.42356 12.8739 9.58374C12.5305 12.1493 9.62881 13.0001 7.88982 11.45C7.859 11.4224 7.81876 11.4052 7.75197 11.3638C7.09953 11.9262 6.3452 12.2569 5.45816 12.207C4.16185 12.1338 3.21059 11.499 2.63264 10.3485C2.05897 9.2074 2.12832 8.07147 2.8544 7.00875C3.01109 6.77967 3.04619 6.63671 2.89122 6.37577C1.99219 4.86264 3.06075 2.73375 4.85281 2.39789C5.03091 2.3643 5.24154 2.23598 5.34172 2.08699C6.12173 0.919206 7.20142 0.362009 8.5885 0.529082C9.99527 0.697877 10.9337 1.49018 11.3601 2.86638C11.3849 2.94733 11.4183 3.02656 11.4457 3.10235ZM13.1376 6.52992C13.1436 5.36472 12.1829 4.47855 11.1563 4.62323C10.3266 4.74035 10.122 4.57672 10.0389 3.73102C9.94817 2.79662 9.41903 2.17139 8.57566 2.0026C7.6321 1.81313 6.75876 2.32468 6.41456 3.2677C6.18852 3.88776 5.97789 3.99713 5.35713 3.90499C5.16105 3.87571 4.92302 3.91015 4.74836 4.00058C4.03855 4.36659 3.68236 5.39917 4.53173 6.0511C5.11139 6.49634 5.08314 6.92608 4.52146 7.38424C4.4658 7.42902 4.40844 7.47208 4.35449 7.51858C3.57448 8.1886 3.52139 9.36155 4.23634 10.1254C4.96926 10.9083 6.09348 10.9384 6.82212 10.1892C7.00107 10.0049 7.15091 9.79215 7.33243 9.60958C7.73827 9.20223 8.26656 9.29954 8.52343 9.81799C8.86335 10.5044 9.54318 10.842 10.289 10.6947C10.8815 10.5776 11.438 9.97731 11.4046 9.29696C11.3712 8.61403 11.688 8.28074 12.2257 7.99913C12.8336 7.68049 13.1162 7.13535 13.1376 6.52992Z" fill="#D7282F"/>
<path d="M24.5032 38.0247C24.5032 38.6706 24.5066 39.3165 24.5023 39.9624C24.498 40.6488 24.2472 40.9114 23.5793 40.914C22.295 40.9192 21.0115 40.9192 19.7272 40.914C19.0551 40.9114 18.8025 40.6496 18.8008 39.9676C18.7982 38.6904 18.7982 37.4132 18.8008 36.1361C18.8025 35.4497 19.0551 35.1879 19.7212 35.1862C21.0055 35.1827 22.289 35.1827 23.5733 35.1862C24.242 35.1879 24.4963 35.4471 24.5015 36.1309C24.5075 36.7622 24.5032 37.3934 24.5032 38.0247ZM23.0005 39.4173C23.0005 38.4725 23.0005 37.5786 23.0005 36.6907C22.0766 36.6907 21.1879 36.6907 20.2974 36.6907C20.2974 37.6165 20.2974 38.5087 20.2974 39.4173C21.211 39.4173 22.0886 39.4173 23.0005 39.4173Z" fill="#D7282F"/>
<path d="M11.7694 38.0326C11.7694 37.3729 11.7643 36.7123 11.7711 36.0527C11.7771 35.4593 12.046 35.1897 12.6428 35.1872C13.9554 35.182 15.2679 35.1828 16.5797 35.1872C17.197 35.1889 17.4564 35.4533 17.4599 36.0871C17.4659 37.3927 17.4659 38.6983 17.4599 40.0038C17.4573 40.6575 17.2013 40.9116 16.5454 40.9141C15.2619 40.9193 13.9776 40.9193 12.6941 40.9141C12.0186 40.9116 11.7729 40.6549 11.7694 39.9694C11.7677 39.3235 11.7694 38.6785 11.7694 38.0326ZM13.255 39.4088C14.1728 39.4088 15.059 39.4088 15.9666 39.4088C15.9666 38.4881 15.9666 37.5959 15.9666 36.6839C15.0513 36.6839 14.1651 36.6839 13.255 36.6839C13.255 37.5925 13.255 38.4735 13.255 39.4088Z" fill="#D7282F"/>
</svg>
