<svg width="54" height="54" viewBox="0 0 54 54" fill="none" xmlns="http://www.w3.org/2000/svg">
<path d="M52.0842 18.5016C55.3134 15.2725 53.8409 11.5008 52.0842 9.66665L44.3342 1.91665C41.0792 -1.31252 37.3334 0.15998 35.4992 1.91665L31.1076 6.33415H24.4167C19.5084 6.33415 16.6667 8.91748 15.2201 11.8883L3.75008 23.3583V33.6916L1.91591 35.5C-1.31325 38.755 0.159248 42.5008 1.91591 44.335L9.66591 52.085C11.0609 53.48 12.5592 53.9966 13.9801 53.9966C15.8142 53.9966 17.4934 53.0925 18.5009 52.085L25.4759 45.0841H34.7501C39.1417 45.0841 41.3634 42.3458 42.1642 39.6591C45.0834 38.8841 46.6851 36.6625 47.3309 34.4925C51.3351 33.4591 52.8334 29.6616 52.8334 27.0008V19.2508H51.3092L52.0842 18.5016ZM47.6667 27.0008C47.6667 28.1633 47.1759 29.5841 45.0834 29.5841H42.5001V32.1675C42.5001 33.33 42.0092 34.7508 39.9167 34.7508H37.3334V37.3341C37.3334 38.4966 36.8426 39.9175 34.7501 39.9175H23.3576L14.8842 48.3908C14.0834 49.14 13.6184 48.7008 13.3342 48.4166L5.61008 40.7183C4.86091 39.9175 5.30008 39.4525 5.58425 39.1683L8.91675 35.81V25.4766L14.0834 20.31V24.4175C14.0834 27.5433 16.1501 32.1675 21.8334 32.1675C27.5167 32.1675 29.5834 27.5433 29.5834 24.4175H47.6667V27.0008ZM48.4159 14.8333L44.0242 19.2508H24.4167V24.4175C24.4167 25.58 23.9259 27.0008 21.8334 27.0008C19.7409 27.0008 19.2501 25.58 19.2501 24.4175V16.6675C19.2501 15.4791 19.6892 11.5008 24.4167 11.5008H33.2259L39.1159 5.61081C39.9167 4.86165 40.3817 5.30081 40.6659 5.58498L48.3901 13.2833C49.1392 14.0841 48.7001 14.5491 48.4159 14.8333Z" fill="#D7282F"/>
</svg>
