<svg width="44" height="40" viewBox="0 0 44 40" fill="none" xmlns="http://www.w3.org/2000/svg">
<path d="M42.5448 36.287H41.7907V28.759C41.7907 27.2298 40.583 25.9783 39.0323 25.7764V17.6766C39.0323 16.1897 37.7988 14.9798 36.2828 14.9798H25.5842V6.05701C25.5842 5.82163 25.3957 5.63672 25.1557 5.63672H20.5042C20.2642 5.63672 20.0757 5.82163 20.0757 6.05701V14.9798H10.9876C9.47163 14.9798 8.23814 16.1897 8.23814 17.6766V19.5586C6.33673 19.9537 4.94884 21.592 4.94884 23.5158V25.7758C3.39817 25.9777 2.19041 27.2293 2.19041 28.7585V36.2865H1.4285C1.18852 36.2865 1 36.4714 1 36.7068V38.9668C1 39.2022 1.18852 39.3871 1.4285 39.3871H42.5448C42.7848 39.3871 42.9733 39.2022 42.9733 38.9668V36.7068C42.9727 36.4802 42.7758 36.287 42.5448 36.287ZM40.9259 28.7673V36.2953H36.2576V28.7673C36.2576 27.5656 37.3026 26.5829 38.5876 26.5829C39.8725 26.5829 40.9259 27.5574 40.9259 28.7673ZM36.2744 15.8198C37.3194 15.8198 38.1674 16.6517 38.1674 17.6766V25.7758C36.6168 25.9777 35.409 27.2293 35.409 28.7585V36.2865H32.4968V23.8521C32.4968 23.6167 32.3082 23.4318 32.0683 23.4318H25.5842V15.8198H36.2744ZM24.7277 12.8876H20.9333V11.325H24.7277V12.8876ZM24.7277 10.4849H20.9333V8.92227H24.7277V10.4849ZM20.9327 13.7282H24.7272V23.4324H20.9327V13.7282ZM31.6403 24.2724V36.287H18.5088V24.2724H31.6403ZM24.7277 6.47731V8.08223H20.9333V6.47731H24.7277ZM10.9876 15.8198H20.0763V23.4318H18.0803C17.8403 23.4318 17.6518 23.6167 17.6518 23.8521V36.2865H15.9988V25.558C15.9988 23.9953 14.7569 22.718 13.1721 22.5418C12.9668 21.71 12.1439 19.6936 9.09459 19.5169V17.6772C9.09459 16.6517 9.94265 15.8198 10.9876 15.8198ZM12.8124 23.3479C14.0974 23.3479 15.1423 24.3393 15.1423 25.5574V36.2865H10.4741V25.558C10.4741 24.3393 11.5274 23.3479 12.8124 23.3479ZM8.69238 20.3405C11.3048 20.3487 12.0673 21.8274 12.2899 22.5583C10.7739 22.7937 9.61764 24.0452 9.61764 25.558V36.287H8.56428V28.759C8.56428 27.2298 7.35652 25.9783 5.80585 25.7764V23.5163C5.80529 21.9032 7.04773 20.5419 8.69238 20.3405ZM3.04742 28.7673C3.04742 27.5744 4.084 26.5994 5.35161 26.5829C5.36 26.5829 5.36896 26.5912 5.37735 26.5912C5.38574 26.5912 5.39469 26.5829 5.40308 26.5829C6.67964 26.5999 7.70727 27.5662 7.70727 28.7673V36.2953H3.04742V28.7673ZM42.1163 38.5471H1.85645V37.1271H42.1163V38.5471Z" fill="#231F20" stroke="#231F20" stroke-width="0.1" stroke-miterlimit="10"/>
<path d="M21.0779 29.5217H23.6562C23.8962 29.5217 24.0847 29.3368 24.0847 29.1014V26.5472C24.0847 26.3119 23.8962 26.127 23.6562 26.127H21.0779C20.8379 26.127 20.6494 26.3119 20.6494 26.5472V29.1014C20.6494 29.3368 20.8463 29.5217 21.0779 29.5217ZM21.5059 26.9758H23.2277V28.6899H21.5059V26.9758Z" fill="#D7282F" stroke="#D7282F" stroke-width="0.1" stroke-miterlimit="10"/>
<path d="M26.4832 29.5217H29.0615C29.3015 29.5217 29.49 29.3368 29.49 29.1014V26.5472C29.49 26.3119 29.3015 26.127 29.0615 26.127H26.4832C26.2432 26.127 26.0547 26.3119 26.0547 26.5472V29.1014C26.0547 29.3368 26.2516 29.5217 26.4832 29.5217ZM26.9111 26.9758H28.633V28.6899H26.9111V26.9758Z" fill="#D7282F" stroke="#D7282F" stroke-width="0.1" stroke-miterlimit="10"/>
<path d="M21.0779 34.4201H23.6562C23.8962 34.4201 24.0847 34.2352 24.0847 33.9998V31.4457C24.0847 31.2103 23.8962 31.0254 23.6562 31.0254H21.0779C20.8379 31.0254 20.6494 31.2103 20.6494 31.4457V33.9998C20.6494 34.2352 20.8463 34.4201 21.0779 34.4201ZM21.5059 31.8748H23.2277V33.5889H21.5059V31.8748Z" fill="#D7282F" stroke="#D7282F" stroke-width="0.1" stroke-miterlimit="10"/>
<path d="M26.4832 34.4201H29.0615C29.3015 34.4201 29.49 34.2352 29.49 33.9998V31.4457C29.49 31.2103 29.3015 31.0254 29.0615 31.0254H26.4832C26.2432 31.0254 26.0547 31.2103 26.0547 31.4457V33.9998C26.0547 34.2352 26.2516 34.4201 26.4832 34.4201ZM26.9111 31.8748H28.633V33.5889H26.9111V31.8748Z" fill="#D7282F" stroke="#D7282F" stroke-width="0.1" stroke-miterlimit="10"/>
<path d="M23.4519 3.93504C23.3747 4.15342 23.4949 4.39704 23.7176 4.47276C23.7606 4.48977 23.8116 4.498 23.863 4.498C24.0431 4.498 24.2059 4.38881 24.2658 4.22091C24.7027 3.00282 24.5483 2.62477 24.2227 2.12053C24.0941 1.91916 24.0941 1.47362 24.2311 1.23823C24.3508 1.03686 24.2742 0.776237 24.0683 0.667048C23.863 0.549629 23.5973 0.624799 23.486 0.826717C23.1945 1.33096 23.1945 2.10352 23.5117 2.59953C23.6918 2.87662 23.7858 3.01105 23.4519 3.93504Z" fill="#D7282F" stroke="#D7282F" stroke-width="0.1" stroke-miterlimit="10"/>
<path d="M21.3122 3.93504C21.235 4.15342 21.3553 4.39704 21.5779 4.47276C21.621 4.48977 21.6719 4.498 21.7234 4.498C21.9035 4.498 22.0663 4.38881 22.1261 4.22091C22.563 3.00282 22.4086 2.62477 22.0831 2.12053C21.9544 1.91916 21.9544 1.47362 22.0915 1.23823C22.2112 1.03686 22.1345 0.776237 21.9287 0.667048C21.7234 0.549629 21.4577 0.624799 21.3463 0.826717C21.0549 1.33096 21.0549 2.10352 21.3721 2.59953C21.5522 2.87662 21.6462 3.01928 21.3122 3.93504Z" fill="#D7282F" stroke="#D7282F" stroke-width="0.1" stroke-miterlimit="10"/>
</svg>
