<svg width="63" height="63" viewBox="0 0 63 63" fill="none" xmlns="http://www.w3.org/2000/svg">
<g clip-path="url(#clip0_1305_1666)">
<path d="M32.2351 9C32.668 9.29469 33.1573 9.53307 33.5252 9.89125C37.0115 13.2754 40.4733 16.6846 43.956 20.0735C44.4919 20.5946 44.7531 21.1732 44.7261 21.9135C44.6942 22.7808 44.7249 23.6505 44.7175 24.519C44.7089 25.5983 43.8996 26.4105 42.8621 26.3949C41.837 26.3794 41.0607 25.5804 41.0485 24.5214C41.0448 24.1632 41.0472 23.8039 41.0472 23.375C40.8707 23.375 40.71 23.375 40.5494 23.375C38.9123 23.375 37.2752 23.3786 35.6393 23.3738C32.4559 23.3642 30.0401 20.9971 30.0327 17.8814C30.029 16.2941 30.0315 14.7069 30.0315 13.1196C30.0315 12.9591 30.0315 12.7986 30.0315 12.5926C29.8255 12.5926 29.6611 12.5926 29.4968 12.5926C24.2495 12.5926 19.0022 12.5926 13.7549 12.5926C12.3889 12.5926 11.6727 13.3005 11.6727 14.6494C11.6727 26.2093 11.6727 37.768 11.6727 49.3279C11.6727 50.7019 12.3852 51.4039 13.7819 51.405C16.3669 51.4062 18.9532 51.4039 21.5382 51.4062C22.6431 51.4074 23.374 51.9597 23.553 52.9216C23.7161 53.8045 23.2158 54.5544 22.2053 54.9425C22.1795 54.9521 22.1599 54.9796 22.1379 55C19.0169 55 15.896 55 12.7751 55C12.677 54.9689 12.5802 54.9269 12.4796 54.9066C9.89949 54.3927 8.00977 52.2292 8.00732 49.698C7.99629 37.8985 7.99506 26.1003 8.011 14.3008C8.01468 12.583 8.78969 11.1922 10.1619 10.1189C10.932 9.5163 11.8419 9.2324 12.7764 9C19.2622 9 25.7493 9 32.2351 9ZM33.7054 15.2016C33.7054 16.1707 33.6944 17.0799 33.7079 17.988C33.7238 19.0038 34.505 19.7621 35.5473 19.7789C36.3873 19.792 37.2274 19.7836 38.0661 19.7801C38.1606 19.7801 38.2538 19.7549 38.3384 19.7417C36.8006 18.2347 35.2812 16.7457 33.7054 15.2016Z" fill="#231F20"/>
<path d="M28.8402 55.0017C28.064 54.7082 27.4839 54.2303 27.4189 53.3678C27.392 53.0192 27.4827 52.6574 27.5526 52.3076C27.8052 51.0318 28.0578 49.7548 28.3362 48.4839C28.7163 46.7409 29.576 45.2495 30.8624 43.9905C36.1047 38.8586 41.3459 33.7267 46.592 28.5972C47.4357 27.7719 48.5062 27.7695 49.3523 28.5912C51.0336 30.2252 52.7124 31.8628 54.374 33.5159C54.6328 33.7722 54.7958 34.1208 55.0031 34.4263C55.0031 34.6958 55.0031 34.9654 55.0031 35.2349C54.7554 35.6039 54.5616 36.0267 54.2501 36.3334C49.1083 41.3886 43.9554 46.4306 38.794 51.4679C38.3415 51.9087 37.8436 52.3112 37.331 52.6849C35.9441 53.696 34.3144 54.0733 32.6515 54.3752C31.6521 54.5561 30.6625 54.7909 29.6679 55.0017C29.3908 55.0017 29.1149 55.0017 28.8402 55.0017ZM47.882 32.3287C47.8097 32.4258 47.741 32.548 47.6441 32.6426C42.9855 37.2067 38.3439 41.7863 33.6522 46.3168C32.3364 47.5878 31.8311 49.1283 31.6141 50.8857C31.8593 50.8449 32.0776 50.8006 32.2983 50.7743C34.0066 50.5622 35.3702 49.7824 36.583 48.5761C41.0798 44.1091 45.6293 39.6935 50.1654 35.2624C50.2929 35.1379 50.4769 35.0708 50.6032 34.9941C49.643 34.0549 48.803 33.2308 47.882 32.3287Z" fill="#D7282F"/>
<path d="M26.3667 29.842C23.3243 29.842 20.2819 29.848 17.2395 29.8396C15.92 29.836 15.0407 28.6645 15.4429 27.4785C15.6858 26.7634 16.3504 26.2746 17.1365 26.2531C17.6257 26.2399 18.115 26.2495 18.6043 26.2495C24.1999 26.2495 29.7954 26.2483 35.391 26.2507C36.3009 26.2507 36.9901 26.6867 37.2648 27.4246C37.7075 28.613 36.8245 29.8348 35.494 29.8396C32.4516 29.8492 29.4092 29.842 26.3667 29.842Z" fill="black"/>
<path d="M24.6187 33.4357C27.081 33.4357 29.5422 33.4309 32.0046 33.4381C32.825 33.4405 33.4982 33.9257 33.7508 34.6564C33.9936 35.3572 33.7999 36.1646 33.1782 36.591C32.8471 36.8186 32.4019 37.0067 32.0083 37.0091C27.0688 37.0367 22.1293 37.0319 17.1898 37.0235C16.1438 37.0223 15.3479 36.2245 15.3467 35.2314C15.3467 34.2204 16.1524 33.4393 17.2327 33.4357C19.6951 33.4309 22.1575 33.4357 24.6187 33.4357Z" fill="black"/>
<path d="M21.138 44.2171C19.87 44.2171 18.602 44.2195 17.334 44.2159C16.1752 44.2123 15.3536 43.4696 15.3487 42.4286C15.3437 41.384 16.1654 40.6258 17.3144 40.6234C19.8504 40.6198 22.3863 40.621 24.9223 40.6234C26.0811 40.6246 26.904 41.3685 26.9089 42.4095C26.9138 43.4516 26.091 44.2111 24.9419 44.2147C23.6739 44.2207 22.406 44.2171 21.138 44.2171Z" fill="black"/>
</g>
<defs>
<clipPath id="clip0_1305_1666">
<rect width="47" height="46" fill="white" transform="translate(8 9)"/>
</clipPath>
</defs>
</svg>
