<svg width="71" height="83" viewBox="0 0 71 83" fill="none" xmlns="http://www.w3.org/2000/svg">
<g clip-path="url(#clip0_4492_8306)">
<path d="M64.9858 51.2068C66.4554 51.2068 67.84 51.2053 69.2245 51.2068C70.5862 51.2083 70.9981 51.6144 70.9981 52.971C70.9996 62.3987 70.9996 71.8249 70.9981 81.2526C70.9981 82.5909 70.5726 83.0046 69.2078 83.0046C46.7195 83.0046 24.2311 83.0046 1.74281 83.0046C0.358286 83.0046 -0.0687746 82.5255 0.00873462 81.1583C0.438835 73.5936 0.858297 66.0289 1.28232 58.4643C1.82336 48.8252 2.36745 39.1861 2.91001 29.547C3.01184 27.7509 3.10303 25.9532 3.21853 24.1586C3.28844 23.0651 3.72462 22.6484 4.79151 22.6469C7.80525 22.6393 10.819 22.6378 13.8327 22.6469C14.8829 22.65 15.348 23.1077 15.4072 24.1754C15.8753 32.4989 16.3374 40.8225 16.8039 49.1461C16.8404 49.8016 16.889 50.457 16.9361 51.1566C18.0821 51.1566 19.1854 51.1566 20.3785 51.1566C20.3906 50.8905 20.4134 50.6228 20.4134 50.3536C20.4165 48.0982 20.4301 45.8428 20.4058 43.5874C20.3982 42.9182 20.6353 42.4392 21.1475 42.0179C25.6278 38.3329 30.0975 34.6372 34.5642 30.9355C35.0672 30.5188 35.584 30.2572 36.2253 30.5751C36.8302 30.8747 36.9624 31.4191 36.9609 32.0427C36.9533 34.5262 36.9579 37.0097 36.9579 39.4933C36.9579 39.7625 36.9579 40.0301 36.9579 40.4575C37.3211 40.1822 37.5582 40.0119 37.7831 39.8279C41.4139 36.8653 45.0416 33.8996 48.6724 30.937C49.4596 30.2952 50.1937 30.2405 50.674 30.8762C50.9095 31.1864 51.0235 31.6609 51.0281 32.064C51.06 34.5475 51.0433 37.031 51.0433 39.5146C51.0433 39.764 51.0433 40.0134 51.0433 40.4408C51.367 40.1974 51.5798 40.0499 51.7773 39.8872C55.3914 36.9048 59.007 33.924 62.6149 30.9325C63.1195 30.5142 63.6362 30.2587 64.2761 30.5796C64.8825 30.8838 64.9919 31.4267 64.9919 32.0518C64.9828 38.1093 64.9858 44.1653 64.9858 50.2228C64.9858 50.5209 64.9858 50.8175 64.9858 51.2068ZM68.3445 53.8607C51.2424 53.8607 34.1888 53.8607 17.0714 53.8607C17.5714 62.7394 18.0669 71.5526 18.5623 80.3598C28.0975 80.3598 37.5065 80.3598 47.0021 80.3598C47.0021 80.0177 47.0021 79.7196 47.0021 79.4215C47.0021 73.9465 47.0006 68.4729 47.0037 62.9979C47.0037 61.6824 47.4201 61.2596 48.7195 61.2596C53.3792 61.2581 58.0404 61.2581 62.7 61.2596C64.1074 61.2596 64.5101 61.6611 64.5116 63.0633C64.5132 68.5383 64.5116 74.0119 64.5116 79.4869C64.5116 79.7774 64.5116 80.0694 64.5116 80.3568C65.8658 80.3568 67.0922 80.3568 68.3461 80.3568C68.3446 71.4933 68.3445 62.6846 68.3445 53.8607ZM15.962 80.3614C14.93 61.9835 13.9011 43.6543 12.8738 25.3464C12.7187 25.2993 12.6488 25.2582 12.5774 25.2582C10.4755 25.2521 8.37366 25.2628 6.27179 25.2384C5.7353 25.2323 5.73378 25.5396 5.7125 25.9182C5.25505 34.1916 4.79151 42.465 4.3295 50.7384C3.80973 60.049 3.29148 69.3596 2.77171 78.6702C2.74132 79.2192 2.70028 79.7667 2.66077 80.3614C7.12135 80.3614 11.4877 80.3614 15.962 80.3614ZM49.6481 63.8982C49.6481 69.3718 49.6481 74.8027 49.6481 80.2397C53.753 80.2397 57.8078 80.2397 61.8611 80.2397C61.8611 74.7555 61.8611 69.3444 61.8611 63.8982C57.7714 63.8982 53.7333 63.8982 49.6481 63.8982ZM34.2906 51.1779C34.2906 45.6405 34.2906 40.164 34.2906 34.6205C34.1341 34.7163 34.0429 34.7589 33.9669 34.8197C30.4319 37.7367 26.8938 40.6506 23.377 43.5889C23.1688 43.7638 23.032 44.1395 23.0275 44.4254C22.9971 46.2991 23.0123 48.1743 23.0123 50.0495C23.0123 50.4175 23.0123 50.7855 23.0123 51.1779C26.8239 51.1779 30.5155 51.1779 34.2906 51.1779ZM36.9579 51.1536C40.8592 51.1536 44.6161 51.1536 48.3821 51.1536C48.3821 45.6314 48.3821 40.1625 48.3821 34.587C48.0979 34.8015 47.8973 34.9429 47.7073 35.0965C44.844 37.431 42.0598 39.872 39.0901 42.0605C37.432 43.2817 36.663 44.5881 36.9229 46.6549C37.1053 48.121 36.9579 49.6267 36.9579 51.1536ZM62.349 34.6159C62.1742 34.7209 62.0845 34.7619 62.0116 34.8228C58.4766 37.7413 54.9385 40.6552 51.4202 43.5935C51.2089 43.7699 51.0645 44.1455 51.06 44.4315C51.0296 46.4831 51.0417 48.5362 51.0463 50.5878C51.0463 50.781 51.0904 50.9726 51.1147 51.1612C54.8868 51.1612 58.5981 51.1612 62.349 51.1612C62.349 45.6512 62.349 40.1898 62.349 34.6159Z" fill="#231F20"/>
<path d="M24.9557 57.2552V62.6719M27.6641 59.9635H22.2474M27.6641 71.3385L25.4974 73.5052M25.4974 73.5052L23.3307 75.6719M25.4974 73.5052L27.6641 75.6719M25.4974 73.5052L23.3307 71.3385M40.6641 60.5052H36.3307M40.6641 74.0469H36.3307M40.6641 70.7969H36.3307M42.8307 67.0052H21.1641M31.9974 77.8385V56.1719" stroke="#D7282F" stroke-width="1.5" stroke-linecap="round" stroke-linejoin="round"/>
</g>
<path d="M52.7206 15.1459C54.3529 15.5672 55.9274 15.9292 57.47 16.4021C57.8909 16.5314 58.353 16.9223 58.546 17.3162C58.8515 17.9397 58.4442 18.4538 57.9563 18.8902C54.8787 21.643 51.8118 24.4094 48.7418 27.1712C46.3877 29.2898 44.0381 31.4129 41.6702 33.5162C41.3784 33.7747 40.9985 34.0378 40.6337 34.0804C40.234 34.1276 39.6596 34.05 39.427 33.7884C39.1626 33.4934 39.0501 32.9079 39.1276 32.4972C39.2325 31.9421 39.5684 31.4266 39.8313 30.9079C41.2356 28.1263 42.649 25.3508 44.0533 22.5692C44.187 22.3045 44.2828 22.0186 44.4287 21.6643C42.9605 21.2734 41.5532 20.8856 40.1383 20.5282C39.4954 20.3655 38.9118 20.1647 38.734 19.4317C38.5623 18.7245 38.9908 18.2986 39.4559 17.8758C44.7372 13.0654 50.0139 8.24739 55.2982 3.44C55.6325 3.13583 55.9927 2.83775 56.3879 2.62635C56.8848 2.3602 57.4274 2.34956 57.8757 2.7617C58.3378 3.18602 58.4244 3.732 58.1858 4.29471C57.9001 4.96997 57.5839 5.6361 57.2466 6.28702C55.9289 8.82835 54.593 11.359 53.2723 13.8988C53.0747 14.2745 52.9258 14.6775 52.7206 15.1459ZM44.7721 27.0769C44.8101 27.1058 44.8481 27.1347 44.8846 27.1651C48.105 24.2573 51.3255 21.3479 54.6568 18.3397C53.2921 17.9899 52.1416 17.7009 50.9941 17.3968C49.8421 17.0926 49.4409 16.4736 49.8756 15.3741C50.526 13.73 51.2996 12.1331 52.0215 10.5165C52.1294 10.2747 52.2464 10.0359 52.3589 9.79712C52.3164 9.76671 52.2738 9.73477 52.2313 9.70435C49.067 12.5924 45.9013 15.479 42.6216 18.4735C43.9408 18.8264 45.1065 19.129 46.2661 19.4484C47.257 19.7221 47.643 20.3715 47.3071 21.3464C46.9606 22.3502 46.5427 23.3296 46.1111 24.3014C45.6946 25.2398 45.2205 26.1523 44.7721 27.0769Z" fill="#D7282F"/>
<path d="M18.3224 5.59564C18.8087 5.69145 19.295 5.73403 19.7464 5.88308C22.0854 6.64958 23.479 8.28449 23.827 10.6996C24.1584 12.9961 23.3042 14.8606 21.441 16.2659C21.1887 16.456 20.8954 16.7586 20.8574 17.0415C20.2479 21.5721 15.0974 23.0747 12.0107 20.3372C11.956 20.2885 11.8845 20.2581 11.766 20.1851C10.6079 21.1782 9.26899 21.7622 7.69449 21.674C5.39353 21.5447 3.70504 20.4239 2.67918 18.392C1.66092 16.3769 1.78403 14.3709 3.07281 12.4942C3.35093 12.0896 3.41324 11.8372 3.13816 11.3764C1.54238 8.70424 3.43908 4.94472 6.61999 4.35159C6.93611 4.29227 7.30998 4.06567 7.48779 3.80256C8.87232 1.7403 10.7888 0.756314 13.2508 1.05136C15.7478 1.34944 17.4135 2.74862 18.1704 5.17893C18.2145 5.32188 18.2737 5.4618 18.3224 5.59564ZM21.3255 11.6486C21.3361 9.59089 19.6309 8.02594 17.8087 8.28144C16.336 8.48828 15.9728 8.19932 15.8254 6.70585C15.6643 5.05574 14.725 3.9516 13.228 3.65352C11.5532 3.31893 10.003 4.22231 9.39209 5.88764C8.99087 6.98264 8.617 7.17579 7.51515 7.01306C7.16712 6.96135 6.74462 7.02219 6.43458 7.18188C5.17468 7.82823 4.54244 9.65172 6.05007 10.803C7.07897 11.5893 7.02882 12.3482 6.03184 13.1573C5.93305 13.2364 5.83122 13.3124 5.73548 13.3945C4.35095 14.5777 4.25672 16.6491 5.52575 17.9981C6.82669 19.3806 8.82217 19.4338 10.1155 18.1107C10.4331 17.7852 10.6991 17.4095 11.0213 17.0871C11.7417 16.3678 12.6794 16.5396 13.1353 17.4552C13.7387 18.6673 14.9454 19.2635 16.2691 19.0034C17.3208 18.7966 18.3087 17.7365 18.2494 16.5351C18.1901 15.329 18.7525 14.7405 19.7069 14.2431C20.7859 13.6804 21.2875 12.7177 21.3255 11.6486Z" fill="#D7282F"/>
<defs>
<clipPath id="clip0_4492_8306">
<rect width="71" height="83" fill="white"/>
</clipPath>
</defs>
</svg>
