<svg width="64" height="64" viewBox="0 0 64 64" fill="none" xmlns="http://www.w3.org/2000/svg">
<g clip-path="url(#clip0_4492_8314)">
<path d="M30.2992 48.2016H19.3992C19.2992 48.2016 19.2992 48.1016 19.1992 48.1016C19.1992 48.1016 19.1992 48.0016 19.1992 47.9016C21.0992 43.7016 20.7992 43.5016 20.5992 42.5016C20.2992 41.9016 19.7992 41.6016 19.0992 41.6016C18.5992 41.6016 18.1992 41.8016 17.8992 42.2016L13.4992 46.3016C12.6992 47.0016 11.7992 47.6016 10.6992 47.9016V61.8016H21.5992C22.6992 61.8016 23.5992 61.1016 23.7992 60.1016C23.8992 59.6016 23.8992 59.1016 23.6992 58.7016C24.4992 58.5016 25.0992 57.8016 25.2992 57.0016C25.3992 56.6016 25.2992 56.1016 25.1992 55.7016C26.0992 55.6016 26.7992 54.9016 26.9992 54.1016C27.0992 53.6016 27.0992 53.2016 26.8992 52.8016H30.2992C31.2992 52.8016 32.1992 52.1016 32.4992 51.2016C32.6992 50.5016 32.4992 49.8016 32.0992 49.3016C31.6992 48.5016 30.9992 48.2016 30.2992 48.2016Z" fill="#231F20"/>
<path d="M7.6 45.1016H1.7C0.8 45.1016 0 45.9016 0 46.8016V62.0016C0 62.9016 0.8 63.7016 1.7 63.7016H7.6C8.5 63.7016 9.3 62.9016 9.3 62.0016V46.8016C9.3 45.9016 8.6 45.1016 7.6 45.1016ZM4.7 61.7016C3.9 61.7016 3.3 61.1016 3.3 60.3016C3.3 59.5016 3.9 58.9016 4.7 58.9016C5.5 58.9016 6.1 59.5016 6.1 60.3016C6.1 61.1016 5.5 61.7016 4.7 61.7016Z" fill="#D7282F"/>
<path d="M32.1992 42C43.7992 42 53.1992 32.6 53.1992 21C53.1992 9.4 43.7992 0 32.1992 0C20.5992 0 11.1992 9.4 11.1992 21C11.1992 32.6 20.5992 42 32.1992 42ZM32.1992 2.6C42.3992 2.6 50.5992 10.8 50.5992 21C50.5992 31.2 42.3992 39.4 32.1992 39.4C21.9992 39.4 13.7992 31.2 13.7992 21C13.7992 10.9 21.9992 2.6 32.1992 2.6Z" fill="#D7282F"/>
<path d="M32.1984 7.89687C33.1926 7.89687 33.9984 7.09099 33.9984 6.09687C33.9984 5.10276 33.1926 4.29688 32.1984 4.29688C31.2043 4.29688 30.3984 5.10276 30.3984 6.09687C30.3984 7.09099 31.2043 7.89687 32.1984 7.89687Z" fill="#231F20"/>
<path d="M32.1984 37.1C33.1926 37.1 33.9984 36.2941 33.9984 35.3C33.9984 34.3059 33.1926 33.5 32.1984 33.5C31.2043 33.5 30.3984 34.3059 30.3984 35.3C30.3984 36.2941 31.2043 37.1 32.1984 37.1Z" fill="#231F20"/>
<path d="M24.9016 9.99844C25.8957 9.99844 26.7016 9.19255 26.7016 8.19844C26.7016 7.20432 25.8957 6.39844 24.9016 6.39844C23.9074 6.39844 23.1016 7.20432 23.1016 8.19844C23.1016 9.19255 23.9074 9.99844 24.9016 9.99844Z" fill="#231F20"/>
<path d="M39.4016 35.2016C40.3957 35.2016 41.2016 34.3957 41.2016 33.4016C41.2016 32.4075 40.3957 31.6016 39.4016 31.6016C38.4075 31.6016 37.6016 32.4075 37.6016 33.4016C37.6016 34.3957 38.4075 35.2016 39.4016 35.2016Z" fill="#231F20"/>
<path d="M19.4992 15.3969C20.4933 15.3969 21.2992 14.591 21.2992 13.5969C21.2992 12.6028 20.4933 11.7969 19.4992 11.7969C18.5051 11.7969 17.6992 12.6028 17.6992 13.5969C17.6992 14.591 18.5051 15.3969 19.4992 15.3969Z" fill="#231F20"/>
<path d="M44.8 29.9984C45.7941 29.9984 46.6 29.1926 46.6 28.1984C46.6 27.2043 45.7941 26.3984 44.8 26.3984C43.8059 26.3984 43 27.2043 43 28.1984C43 29.1926 43.8059 29.9984 44.8 29.9984Z" fill="#231F20"/>
<path d="M17.6008 22.8031C18.5949 22.8031 19.4008 21.9972 19.4008 21.0031C19.4008 20.009 18.5949 19.2031 17.6008 19.2031C16.6067 19.2031 15.8008 20.009 15.8008 21.0031C15.8008 21.9972 16.6067 22.8031 17.6008 22.8031Z" fill="#231F20"/>
<path d="M46.6984 22.8031C47.6925 22.8031 48.4984 21.9972 48.4984 21.0031C48.4984 20.009 47.6925 19.2031 46.6984 19.2031C45.7043 19.2031 44.8984 20.009 44.8984 21.0031C44.8984 21.9972 45.7043 22.8031 46.6984 22.8031Z" fill="#231F20"/>
<path d="M32.1984 22.8031C33.1926 22.8031 33.9984 21.9972 33.9984 21.0031C33.9984 20.009 33.1926 19.2031 32.1984 19.2031C31.2043 19.2031 30.3984 20.009 30.3984 21.0031C30.3984 21.9972 31.2043 22.8031 32.1984 22.8031Z" fill="#231F20"/>
<path d="M19.6008 30.1C20.5949 30.1 21.4008 29.2941 21.4008 28.3C21.4008 27.3059 20.5949 26.5 19.6008 26.5C18.6067 26.5 17.8008 27.3059 17.8008 28.3C17.8008 29.2941 18.6067 30.1 19.6008 30.1Z" fill="#231F20"/>
<path d="M44.9016 15.4984C45.8957 15.4984 46.7016 14.6926 46.7016 13.6984C46.7016 12.7043 45.8957 11.8984 44.9016 11.8984C43.9075 11.8984 43.1016 12.7043 43.1016 13.6984C43.1016 14.6926 43.9075 15.4984 44.9016 15.4984Z" fill="#231F20"/>
<path d="M24.9992 35.4984C25.9933 35.4984 26.7992 34.6926 26.7992 33.6984C26.7992 32.7043 25.9933 31.8984 24.9992 31.8984C24.0051 31.8984 23.1992 32.7043 23.1992 33.6984C23.1992 34.6926 24.0051 35.4984 24.9992 35.4984Z" fill="#231F20"/>
<path d="M39.6008 10.2016C40.5949 10.2016 41.4008 9.39567 41.4008 8.40156C41.4008 7.40745 40.5949 6.60156 39.6008 6.60156C38.6067 6.60156 37.8008 7.40745 37.8008 8.40156C37.8008 9.39567 38.6067 10.2016 39.6008 10.2016Z" fill="#231F20"/>
<path d="M33.1992 18.2984V11.8984C33.1992 11.2984 32.6992 10.8984 32.1992 10.8984C31.5992 10.8984 31.1992 11.3984 31.1992 11.8984V18.2984C31.4992 18.1984 31.8992 18.0984 32.1992 18.0984C32.5992 18.0984 32.8992 18.1984 33.1992 18.2984Z" fill="#231F20"/>
<path d="M36.4984 26.7031C36.8984 27.1031 37.4984 27.1031 37.8984 26.7031C38.2984 26.3031 38.2984 25.7031 37.8984 25.3031L34.7984 22.2031C34.4984 22.8031 33.9984 23.3031 33.3984 23.6031L36.4984 26.7031Z" fill="#231F20"/>
<path d="M23.4993 26.4016C23.5993 26.6016 23.7993 26.6016 23.9993 26.5016L29.9993 22.7016C29.7993 22.5016 29.6993 22.3016 29.5993 22.1016L23.5993 25.9016C23.3993 26.0016 23.3993 26.2016 23.4993 26.4016Z" fill="#231F20"/>
<path d="M37.0984 18.2985C37.2984 18.1985 37.2984 17.9985 37.1984 17.7985C37.0984 17.5985 36.8984 17.5985 36.6984 17.6985L34.3984 19.0985C34.5984 19.2985 34.6984 19.4985 34.7984 19.7985L37.0984 18.2985Z" fill="#231F20"/>
<path d="M52.6992 51.2969C52.6992 51.5969 52.7992 51.7969 52.8992 51.8969C53.0992 52.0969 53.3992 52.1969 53.7992 52.3969V50.2969C53.3992 50.2969 53.0992 50.3969 52.8992 50.5969C52.7992 50.7969 52.6992 51.0969 52.6992 51.2969Z" fill="#D7282F"/>
<path d="M54.6992 54.1016V56.3016C55.0992 56.3016 55.3992 56.2016 55.5992 56.0016C55.7992 55.8016 55.8992 55.6016 55.8992 55.3016C55.8992 55.0016 55.7992 54.8016 55.5992 54.6016C55.4992 54.5016 55.0992 54.3016 54.6992 54.1016Z" fill="#D7282F"/>
<path d="M54.1 46.7969C50.4 46.7969 47.5 49.7969 47.5 53.3969C47.5 56.9969 50.5 59.9969 54.1 59.9969C57.7 59.9969 60.7 56.9969 60.7 53.3969C60.7 49.7969 57.8 46.7969 54.1 46.7969ZM56.6 56.8969C56.1 57.2969 55.4 57.5969 54.6 57.5969V58.4969H53.8V57.5969C52.7 57.4969 51.7 56.9969 50.8 56.2969L51.7 55.1969C52.4 55.7969 53.1 56.0969 53.8 56.2969V53.8969C52.9 53.6969 52.2 53.3969 51.8 52.9969C51.4 52.5969 51.2 52.0969 51.2 51.3969C51.2 50.6969 51.4 50.0969 51.9 49.6969C52.4 49.2969 53 48.9969 53.8 48.9969V48.3969H54.6V48.9969C55.5 49.0969 56.3 49.3969 57.1 49.8969L56.3 50.9969C55.8 50.5969 55.2 50.3969 54.6 50.2969V52.5969C55.5 52.7969 56.2 53.0969 56.7 53.4969C57.1 53.8969 57.4 54.3969 57.4 55.0969C57.4 55.8969 57.1 56.4969 56.6 56.8969Z" fill="#D7282F"/>
<path d="M54.0992 43.6016C48.6992 43.6016 44.1992 48.0016 44.1992 53.5016C44.1992 58.9016 48.5992 63.4016 54.0992 63.4016C59.5992 63.4016 63.9992 59.0016 63.9992 53.5016C63.9992 48.0016 59.5992 43.6016 54.0992 43.6016ZM54.0992 61.2016C49.7992 61.2016 46.3992 57.7016 46.3992 53.4016C46.3992 49.1016 49.8992 45.6016 54.0992 45.6016C58.2992 45.6016 61.8992 49.1016 61.8992 53.4016C61.8992 57.7016 58.3992 61.2016 54.0992 61.2016Z" fill="#231F20"/>
<path d="M47.0016 44H35.1016C34.5016 44 34.1016 44.5 34.1016 45V48.5C34.1016 49.1 34.6016 49.5 35.1016 49.5H42.9016C43.7016 47.3 45.2016 45.3 47.0016 44Z" fill="#231F20"/>
<path d="M35.1016 50.7016C34.5016 50.7016 34.1016 51.2016 34.1016 51.7016V55.2016C34.1016 55.8016 34.6016 56.2016 35.1016 56.2016H42.6016C42.4016 55.3016 42.3016 54.4016 42.3016 53.4016C42.3016 52.4016 42.4016 51.5016 42.6016 50.6016L35.1016 50.7016Z" fill="#231F20"/>
<path d="M42.9016 57.3984H35.1016C34.5016 57.3984 34.1016 57.8984 34.1016 58.3984V61.8984C34.1016 62.4984 34.6016 62.8984 35.1016 62.8984H47.0016C45.2016 61.5984 43.7016 59.6984 42.9016 57.3984Z" fill="#231F20"/>
</g>
<defs>
<clipPath id="clip0_4492_8314">
<rect width="64" height="63.7" fill="white"/>
</clipPath>
</defs>
</svg>
