<svg width="61" height="68" viewBox="0 0 61 68" fill="none" xmlns="http://www.w3.org/2000/svg">
<g clip-path="url(#clip0_4492_8287)">
<path d="M25.8072 67.9792L25.7695 67.7645C25.6941 67.3099 25.6187 66.8552 25.5434 66.4132C25.3298 65.1502 25.1162 63.8368 24.9277 62.5486C24.89 62.3339 24.8398 62.2581 24.6136 62.195C23.3069 61.7782 21.9248 61.3362 20.5804 60.8689C20.4925 60.8436 20.4171 60.8184 20.3543 60.8184C20.2663 60.8184 20.1658 60.8562 20.015 61.0078C19.1104 61.9171 18.2183 62.7885 17.2634 63.7231C16.9368 64.0515 16.5975 64.3672 16.2709 64.6956L16.1201 64.8471L8.65685 59.4544L8.75736 59.2649C8.97096 58.8482 9.18455 58.4188 9.39815 58.002C9.98867 56.8275 10.5541 55.7161 11.1446 54.5921C11.2828 54.3268 11.2702 54.2006 11.0943 53.9732C10.1897 52.7734 9.32276 51.5736 8.68198 50.6643C8.53121 50.4622 8.44325 50.4244 8.30505 50.4244C8.26735 50.4244 8.20453 50.4244 8.15427 50.437C6.92297 50.6517 5.70422 50.8411 4.42266 51.0432C3.95778 51.119 3.50546 51.1821 3.04058 51.2579L2.83955 51.2958L2.76416 51.1063C2.73903 51.0306 2.7139 50.9674 2.68877 50.9043C2.62595 50.7527 2.5757 50.6012 2.52544 50.4496C2.21133 49.4898 1.89722 48.5299 1.59567 47.5701C1.15592 46.2061 0.716169 44.8422 0.263852 43.4782C0.226159 43.3645 0.175901 43.2635 0.125644 43.1498C0.100515 43.0867 0.0753862 43.0362 0.0502575 42.973L0 42.9099V42.4678C0 42.4678 0.829248 42.0511 1.18105 41.8743C2.42492 41.2554 3.70649 40.5987 4.96292 39.9546C5.01318 39.9167 5.08857 39.7399 5.08857 39.6136C5.1137 37.9718 5.1137 36.6204 5.08857 35.3575C5.08857 35.2312 4.95036 35.0039 4.84985 34.9533C3.65623 34.3219 2.42492 33.6904 1.23131 33.0842C0.866941 32.8948 0.502575 32.7179 0.138208 32.5285L0 32.4527V32.0107L0.0125644 31.9602C0.0628218 31.8339 0.113079 31.7076 0.163337 31.5813C0.263852 31.3161 0.376931 31.0509 0.464882 30.7856L0.640783 30.2552C1.269 28.3482 1.90978 26.378 2.51287 24.4204C2.61339 24.0921 2.80185 23.7258 3.31699 23.7258C3.39238 23.7258 3.49289 23.7384 3.59341 23.7511C4.35984 23.89 5.12626 24.0163 5.88012 24.1299C6.63399 24.2562 7.41298 24.3825 8.19197 24.5088C8.25479 24.5215 8.29248 24.5215 8.34274 24.5215C8.43069 24.5215 8.50608 24.5088 8.63172 24.332C9.47353 23.1449 10.3153 21.9956 11.1446 20.8842C11.2702 20.7074 11.2828 20.619 11.1697 20.4169C10.5666 19.255 9.98867 18.1184 9.38558 16.9059C9.18455 16.5018 8.66941 15.4788 8.66941 15.4788L16.1326 10.0987L16.2834 10.2502C16.6227 10.5786 16.9619 10.9196 17.3011 11.248C18.1806 12.1068 19.0978 12.9908 19.9773 13.8749C20.1658 14.0643 20.2789 14.0896 20.3794 14.0896C20.4548 14.0896 20.5553 14.0643 20.6809 14.0138C21.9625 13.5086 23.2315 13.0287 24.5633 12.5235C25.0533 12.3341 25.5308 12.1573 26.0208 11.9678L26.2721 11.8668L27.026 14.4558L25.4805 15.0115C23.6713 15.6683 21.7992 16.3502 19.9648 16.9943C19.9145 17.007 19.8643 17.0196 19.8014 17.0196C19.5627 17.0196 19.2863 16.868 19.1355 16.7291C18.4068 16.0219 17.6781 15.2767 16.9619 14.5695C16.698 14.3043 16.4216 14.0264 16.1578 13.7612C16.0698 13.6728 15.9693 13.5844 15.8688 13.496L11.8105 16.3376C11.9738 16.6533 12.1372 16.9817 12.3005 17.2974C12.8282 18.3204 13.3182 19.2803 13.8459 20.2527C14.0972 20.72 14.0721 21.0989 13.758 21.5283C12.5518 23.1449 11.2828 24.8625 9.90072 26.7695C9.72482 27.0095 9.49866 27.2494 9.07147 27.2494C8.99609 27.2494 8.9207 27.2368 8.83275 27.2242C7.70196 27.0347 6.59629 26.8705 5.42781 26.6811C5.06344 26.6306 4.69907 26.5674 4.33471 26.5169L2.76416 31.1519C3.07827 31.3161 3.40494 31.4929 3.71905 31.6571C4.64882 32.1496 5.60371 32.6548 6.5586 33.1221C7.124 33.3999 7.35015 33.7788 7.35015 34.4355C7.31246 36.7088 7.32503 38.9948 7.35015 40.7123C7.35015 41.2049 7.17425 41.4954 6.74707 41.7101C5.74192 42.2152 4.7619 42.7331 3.73162 43.2761C3.41751 43.4403 3.1034 43.6045 2.78929 43.7813C2.87724 44.0465 2.96519 44.3117 3.05314 44.5769C3.48033 45.8525 3.88239 47.0649 4.32214 48.2774C4.3724 48.3153 4.49804 48.3658 4.58599 48.3658H4.59856C5.93038 48.1763 7.27477 47.9743 8.73223 47.7217C8.84531 47.6964 8.94583 47.6964 9.03378 47.6964C9.41071 47.6964 9.69969 47.8606 9.96354 48.2142C11.1823 49.9318 12.489 51.6873 13.8208 53.4428C14.1852 53.9227 14.2103 54.3268 13.9213 54.8699C13.4062 55.8045 12.9287 56.7391 12.4136 57.7241C12.2503 58.0399 12.0869 58.3682 11.9236 58.684L16.007 61.5761L16.3965 61.172C16.8111 60.7426 17.2383 60.3005 17.6529 59.8711C17.8037 59.7196 17.9545 59.568 18.1053 59.4291C18.3942 59.1513 18.6707 58.8861 18.9219 58.583C19.236 58.2041 19.5627 58.0273 19.9522 58.0273C20.1281 58.0273 20.3291 58.0651 20.5679 58.1409C22.3394 58.7598 24.2492 59.366 26.3977 60.0227C26.9631 60.1995 27.227 60.5153 27.3149 61.1215C27.4531 62.1444 27.6165 63.1927 27.7798 64.203C27.8301 64.5188 27.8803 64.8471 27.9306 65.1629C27.9432 65.226 27.9557 65.2892 27.9808 65.3649C28.3578 65.3649 29.9786 65.3649 30.4058 65.3649C31.3732 65.3649 32.1271 65.3649 32.8307 65.3776C32.9186 65.3776 32.9438 65.3649 32.9438 65.3649C32.9689 65.3397 32.9815 65.2134 32.994 65.1502C33.0945 64.5693 33.1951 63.9883 33.2956 63.4074C33.4338 62.5991 33.5846 61.7656 33.7102 60.9573C33.7981 60.4142 34.0494 60.1111 34.5771 59.9469C36.4995 59.3533 38.4972 58.7219 40.696 57.9894C40.8593 57.9389 40.9975 57.9136 41.1232 57.9136C41.3996 57.9136 41.6383 58.0273 41.877 58.2798C42.656 59.1008 43.435 59.8838 44.2517 60.7047C44.503 60.9573 44.7543 61.2225 45.0181 61.4751L49.089 58.5956C48.9256 58.2798 48.7623 57.9515 48.599 57.6357C48.1215 56.7012 47.6189 55.7287 47.1038 54.8068C46.7897 54.2511 46.8274 53.8217 47.2295 53.2786C48.4733 51.6368 49.7172 49.9444 50.8983 48.2774C51.1872 47.8732 51.5013 47.6838 51.9285 47.6838C52.0165 47.6838 52.117 47.6964 52.2175 47.709C52.9337 47.8227 53.6498 47.9237 54.3535 48.0121C54.9565 48.0879 55.5722 48.1763 56.1879 48.2647C56.2632 48.2774 56.3135 48.2774 56.3638 48.2774C56.4894 48.2774 56.5773 48.2774 56.6779 47.9743C57.0799 46.6734 57.5322 45.3473 58.0474 43.9202C58.1353 43.6803 58.1228 43.6424 57.8715 43.5161C57.2433 43.2003 56.6025 42.8593 55.9868 42.5436C55.3837 42.2279 54.7681 41.8995 54.1524 41.5838C53.7378 41.3691 53.5619 41.0912 53.5619 40.6366C53.5745 38.3759 53.5745 36.1658 53.5619 34.0567C53.5619 33.602 53.7252 33.3242 54.1524 33.1094C55.1576 32.5916 56.1376 32.0738 57.1804 31.5308C57.4945 31.3666 57.8087 31.2024 58.1228 31.0256L56.5145 26.4285C56.1502 26.479 55.7858 26.5422 55.434 26.5927C54.2278 26.7695 53.0845 26.9463 51.916 27.1357C51.8406 27.1484 51.7778 27.1484 51.7149 27.1484C51.3506 27.1484 51.1495 26.9463 50.9988 26.7316C49.7423 25.014 48.3979 23.1701 47.0033 21.301C46.752 20.9726 46.7269 20.6695 46.9279 20.2906C47.4682 19.2676 47.9959 18.2573 48.5487 17.1838C48.7121 16.8807 48.8754 16.5649 49.0262 16.2492L44.9804 13.3697C44.7668 13.5844 44.5532 13.8117 44.3271 14.0264C43.435 14.9231 42.5932 15.7819 41.7137 16.6407C41.5755 16.7796 41.2991 16.9186 41.0478 16.9186C40.985 16.9186 40.9221 16.9059 40.8719 16.8933C39.0501 16.2618 37.2659 15.6177 35.3938 14.9484L33.8233 14.3801L34.6902 11.8921L35.9592 12.372C36.7508 12.6751 37.5298 12.9656 38.3088 13.256C38.4595 13.3066 38.5977 13.3697 38.7485 13.4202C39.2888 13.6223 39.8542 13.837 40.407 14.0769C40.4824 14.1148 40.5578 14.1275 40.608 14.1275C40.6709 14.1275 40.7588 14.1022 40.897 13.9507C41.764 13.0034 42.656 12.031 43.523 11.0964L44.6035 9.92188L52.2929 15.4788L52.1924 15.6683C51.9788 16.0977 51.7652 16.5144 51.5516 16.9438C51.0365 17.9668 50.5088 19.0403 49.9434 20.0633C49.6795 20.5432 49.7046 20.821 50.0439 21.2378C50.7852 22.1598 51.4762 23.1449 52.1547 24.1047L52.3306 24.3573C52.4562 24.5341 52.5316 24.5467 52.6196 24.5467C52.6573 24.5467 52.7075 24.5467 52.7703 24.5341C53.8509 24.3446 54.9565 24.1678 56.0371 23.991C56.502 23.9152 56.9668 23.8395 57.4317 23.7637C57.5448 23.7511 57.6328 23.7258 57.7207 23.7258C58.0474 23.7258 58.261 23.9026 58.3741 24.2689C59.0023 26.2391 59.6556 28.2598 60.2838 30.2047C60.4974 30.8614 60.711 31.5308 60.9372 32.2001L61 32.4022L60.3215 32.7558C59.9572 32.9453 59.6054 33.1347 59.2536 33.3115C58.9394 33.4757 58.6379 33.6273 58.3238 33.7788C57.5951 34.1451 56.8412 34.5366 56.1125 34.9281C55.9994 34.9912 55.8612 35.2059 55.8612 35.3322C55.8235 36.1026 55.8109 36.8856 55.7984 37.656C55.7858 38.3001 55.7732 38.9569 55.7481 39.601C55.7355 39.8283 55.7984 39.9041 56.0371 40.0304C57.1804 40.6113 58.3112 41.1796 59.4923 41.7985C59.8943 42.0005 60.8995 42.531 60.8995 42.531L58.0599 51.3084L57.8463 51.2705C57.3815 51.1948 56.9291 51.119 56.4768 51.0558C55.3837 50.8916 54.2655 50.7148 53.1598 50.5001C53.0091 50.4749 52.8834 50.4622 52.7703 50.4622C52.4688 50.4622 52.2175 50.5507 51.9285 51.0053C51.338 51.9399 50.6595 52.8239 50.0062 53.6827L49.7298 54.0364C49.579 54.2258 49.579 54.3268 49.6921 54.5668C50.2826 55.7161 50.8857 56.9032 51.4636 58.0525C51.6772 58.4693 52.1924 59.4796 52.1924 59.4796L44.5658 64.9861L44.415 64.7966C44.3145 64.6829 44.2266 64.5567 44.1386 64.4304C43.9376 64.1778 43.7366 63.8999 43.523 63.6726C43.0832 63.2179 42.6183 62.7759 42.1786 62.3465C41.7388 61.9171 41.2739 61.4625 40.8342 61.0204C40.6834 60.8689 40.5955 60.8436 40.5075 60.8436C40.4447 60.8436 40.3693 60.8562 40.2688 60.8941C39.0501 61.3235 37.7434 61.7403 36.2859 62.195C36.022 62.2834 35.9467 62.3591 35.909 62.637C35.7205 63.8999 35.5195 65.1755 35.3059 66.4258C35.2305 66.8805 35.1551 67.3351 35.0797 67.7898L35.042 68.0045H25.8072V67.9792Z" fill="#231F20"/>
</g>
<path d="M30.421 55.8253C26.0988 55.8253 21.9023 54.2845 18.5854 51.4807C15.2307 48.6391 13.0193 44.6861 12.366 40.3416C11.298 33.2818 13.6727 27.3839 19.402 22.7994C19.5026 22.7236 19.5905 22.6478 19.691 22.5847H17.1781V20.1219H24.6288V27.5733H22.1788V23.8729C22.0531 23.9613 21.9275 24.0497 21.8144 24.1255C21.3118 24.4791 20.8846 24.7696 20.4951 25.1232C15.6076 29.4172 13.7606 34.671 15.0296 40.7079C16.3238 46.9342 20.1685 50.9882 26.4507 52.7437C27.795 53.1226 29.1771 53.312 30.5592 53.312C38.0727 53.312 44.6815 47.6793 45.9506 40.2027C47.3955 31.7031 42.1687 23.8602 33.8134 21.9658C30.6974 21.2586 29.1771 19.3516 29.1771 16.1311V0H31.69V10.3973C31.69 12.3928 31.69 14.4008 31.69 16.3963C31.69 18.0255 32.4564 18.9727 34.0772 19.4021C41.9174 21.4228 46.717 26.3104 48.3378 33.9132C49.3304 38.5861 48.4006 43.4106 45.7244 47.5151C43.023 51.6323 38.7637 54.5371 34.0395 55.4843C32.8333 55.699 31.6146 55.8253 30.421 55.8253Z" fill="#D7282F"/>
<defs>
<clipPath id="clip0_4492_8287">
<rect width="61" height="61" fill="white" transform="translate(0 6.98438)"/>
</clipPath>
</defs>
</svg>
