<svg width="62" height="64" viewBox="0 0 62 64" fill="none" xmlns="http://www.w3.org/2000/svg">
<g clip-path="url(#clip0_4492_8295)">
<path d="M29.9404 53.6342C29.1797 53.6342 28.5819 53.6342 28.0114 53.6342C19.6433 53.6342 11.248 53.6342 2.87993 53.6342C0.543383 53.6342 0 53.0872 0 50.735C0 34.7897 0 18.8171 0 2.87179C0 0.547009 0.543383 0 2.9071 0C16.0841 0 29.2612 0 42.4382 0C44.7476 0 45.3181 0.574359 45.3181 2.89915C45.3181 10.6393 45.3181 18.4068 45.3181 26.147C45.3181 26.8855 45.291 27.4872 46.2962 27.7607C47.3558 28.0342 47.546 29.0462 47.546 30.0855C47.546 30.7419 47.1928 31.6444 48.3068 31.8359C49.5022 32.0274 50.589 33.6684 51.9746 31.8906C53.2244 30.3316 54.3111 30.441 55.7239 31.8632C56.376 32.4923 57.028 33.1487 57.6529 33.8051C58.7397 34.9538 58.7669 35.9658 57.7073 37.1419C56.3488 38.6735 56.2673 39.1385 57.4084 40.8615C57.5986 41.1624 58.2235 41.2444 58.6582 41.3538C59.4733 41.5453 60.4242 41.4632 61.1306 41.8462C62.4075 42.5846 62.3804 47.9727 61.1306 48.7658C60.6687 49.0667 60.0167 49.1761 59.4733 49.1487C58.2778 49.0667 57.7616 49.4222 57.2454 50.653C56.5662 52.2393 56.6205 53.2513 57.9518 54.3727C58.8212 55.1111 58.7397 56.2325 58.0061 57.0803C57.1367 58.065 56.213 58.9949 55.2349 59.8701C54.2568 60.7453 53.333 60.5812 52.2191 59.5966C51.7301 59.159 51.1323 58.3932 50.6705 58.4752C49.6652 58.6393 48.7143 59.1316 47.8177 59.6786C47.546 59.8427 47.6003 60.5812 47.6003 61.0735C47.5732 63.453 47.057 63.9727 44.7476 63.9727C43.8782 63.9727 43.0359 63.9727 42.1665 63.9727C40.5635 63.9453 39.8843 63.2615 39.8028 61.6479C39.7213 59.5419 39.2866 58.9675 37.2761 58.3932C37.0316 58.3385 36.6784 58.4479 36.461 58.612C36.1078 58.8855 35.8089 59.241 35.4829 59.5419C34.2331 60.718 33.3094 60.7453 32.0596 59.5692C31.5434 59.0769 31.0272 58.5299 30.511 58.0376C28.6635 56.2598 28.6091 55.9043 29.9404 53.6342ZM30.3479 51.2547C29.8861 49.2308 29.8861 49.2308 28.0929 49.1761C25.2401 49.094 22.4145 49.012 19.5618 48.9299C18.2577 48.8752 17.5241 48.2462 17.4698 46.9333C17.4154 45.6205 17.3883 44.2803 17.4698 42.9675C17.5513 41.8462 18.1762 41.0256 19.3716 41.053C21.9255 41.0803 24.5066 41.2718 27.0605 41.3265C28.0386 41.3539 29.1797 41.4906 29.9132 41.0256C30.5381 40.6154 30.837 39.4667 30.9728 38.5915C31.0272 38.2085 30.3479 37.6889 29.9404 37.2786C28.6906 35.9932 28.6635 35.0085 29.8861 33.7504C30.4838 33.1214 31.1087 32.5197 31.7064 31.9179C33.2007 30.441 34.0973 30.441 35.5916 31.9179C35.9448 32.2462 36.4338 32.8479 36.7055 32.7932C37.6564 32.5744 38.6074 32.1915 39.4224 31.6718C39.7213 31.4803 39.6398 30.6872 39.667 30.1402C39.7213 28.4991 40.2375 27.6513 41.5416 27.6513C42.8457 27.6513 42.9544 27.0222 42.9544 25.9829C42.9273 18.653 42.9273 11.2957 42.9273 3.96581C42.9273 3.4735 42.9273 2.9812 42.9273 2.48889C29.3427 2.46154 15.894 2.46154 2.44522 2.46154C2.44522 18.7897 2.44522 34.9812 2.44522 51.2547C11.7914 51.2547 21.0018 51.2547 30.3479 51.2547ZM33.7169 33.1487C32.8203 34.0786 32.1683 34.7897 31.4075 35.6103C33.7713 37.0872 33.6082 38.6462 32.7117 40.9436C31.7607 43.4325 30.3208 44.0889 28.0929 43.7333C27.6854 46.6051 27.6854 46.6051 30.2121 46.8513C31.1358 46.9333 31.6521 47.4256 31.9781 48.3009C32.4128 49.4496 32.8747 50.5709 33.4452 51.6376C33.9614 52.5949 33.9071 53.388 33.1192 54.0991C32.5758 54.6188 31.9781 55.0838 31.4619 55.494C32.3585 56.4513 32.9833 57.1077 33.7441 57.9282C35.2384 56.0137 36.6512 55.412 39.1779 56.6427C41.596 57.7915 42.411 59.1863 42.0307 61.5385C43.1989 61.5385 44.1227 61.5385 45.2366 61.5385C44.5574 58.7214 45.8887 57.7641 48.2796 56.7248C50.7248 55.6581 52.2191 55.7675 53.5504 57.7641C54.447 57.053 55.2077 56.4513 56.1586 55.6855C53.5232 54.0991 53.4145 52.212 54.9904 50.0786C55.0175 50.0513 55.0447 49.9966 55.0447 49.9419C55.2349 47.2889 56.7835 46.4684 59.1744 46.7692C59.2559 46.7692 59.3374 46.6872 59.4733 46.6051C59.4733 45.7026 59.4733 44.7727 59.4733 43.5966C57.0009 44.1983 55.7511 43.2684 54.6915 40.8889C53.6047 38.4274 54.1481 36.9504 56.213 35.3641C55.4522 34.735 54.9089 34.2701 54.3383 33.8051C54.1753 33.6684 53.9851 33.5316 53.4146 33.0667C53.0614 33.6137 52.7625 34.1607 52.3549 34.653C51.567 35.6103 50.6433 35.6923 49.5837 35.0359C48.9316 34.6256 48.2252 34.3248 47.4917 34.0786C45.3453 33.3675 45.2366 33.2855 45.1551 30.906C45.128 30.1675 44.9649 29.7846 44.1499 29.8393C43.4978 29.8667 42.8186 29.8393 41.9763 29.8393C42.3295 32.2462 41.596 33.5043 39.2866 34.4068C37.0044 35.3368 35.2656 35.8017 33.7169 33.1487ZM19.8335 46.5504C21.7082 46.5504 23.5285 46.5504 25.4032 46.5504C25.4032 45.4838 25.4032 44.5265 25.4032 43.5145C23.5013 43.5145 21.681 43.5145 19.8335 43.5145C19.8335 44.5812 19.8335 45.5111 19.8335 46.5504Z" fill="#231F20"/>
<path d="M22.4404 17.7182C17.6043 17.7182 12.7682 17.7182 7.93212 17.7182C5.9216 17.7182 5.2152 17.0071 5.2152 15.0105C5.2152 12.7678 5.18803 10.5524 5.2152 8.30964C5.24237 6.55922 5.97594 5.79341 7.71476 5.79341C17.6315 5.79341 27.5211 5.76606 37.4378 5.79341C39.0951 5.79341 39.8559 6.55922 39.883 8.22759C39.9102 10.5524 39.9102 12.8772 39.883 15.202C39.8559 16.9524 39.1223 17.6908 37.4106 17.7182C32.3843 17.7182 27.4124 17.7182 22.4404 17.7182ZM7.63325 15.2567C17.6315 15.2567 27.5211 15.2567 37.3835 15.2567C37.3835 12.8498 37.3835 10.5524 37.3835 8.25494C27.4124 8.25494 17.55 8.25494 7.63325 8.25494C7.63325 10.6071 7.63325 12.8498 7.63325 15.2567Z" fill="#D7282F"/>
<path d="M22.6597 21.0586C23.665 21.0586 24.6431 21.0312 25.6484 21.0586C27.1155 21.086 27.7947 21.7424 27.8491 23.2193C27.9034 24.3954 27.9034 25.5988 27.8491 26.7748C27.7947 28.2518 27.0883 28.9355 25.6212 28.9355C23.6378 28.9629 21.6545 28.9629 19.6711 28.9355C18.2312 28.9082 17.5248 28.2244 17.4704 26.7475C17.4161 25.5714 17.4161 24.3954 17.4704 23.1919C17.5248 21.7424 18.2312 21.086 19.6983 21.0312C19.7798 21.0312 19.8885 21.0312 19.97 21.0312C20.8394 21.0586 21.7632 21.0586 22.6597 21.0586ZM25.3767 26.5287C25.8114 23.3834 25.8114 23.3834 22.9314 23.3834C22.7413 23.3834 22.5782 23.3834 22.3881 23.3834C19.5896 23.3834 19.5896 23.3834 19.8342 26.2278C19.8342 26.3099 19.9157 26.3919 20.0243 26.5287C21.7632 26.5287 23.5292 26.5287 25.3767 26.5287Z" fill="#D7282F"/>
<path d="M34.1246 28.9599C33.1737 28.9599 32.2228 28.9873 31.2719 28.9599C29.8047 28.9326 29.0983 28.2488 29.0712 26.8266C29.044 25.5958 29.044 24.3651 29.0712 23.1343C29.0983 21.8215 29.7776 21.1104 31.0545 21.083C33.1737 21.0557 35.2929 21.0557 37.4121 21.083C38.6619 21.1104 39.3139 21.8215 39.3411 23.0796C39.3683 24.3924 39.3683 25.7052 39.3411 27.0454C39.3139 28.3035 38.5804 28.9599 37.3577 28.9873C36.271 28.9873 35.2114 28.9599 34.1246 28.9599ZM37.0317 26.5257C37.0317 25.6505 37.1132 24.9121 37.0045 24.201C36.9502 23.9001 36.5155 23.4351 36.2166 23.4351C34.8582 23.3531 33.4997 23.3531 32.1684 23.4351C31.8967 23.4625 31.462 23.8454 31.4349 24.1189C31.3262 24.9121 31.4077 25.7052 31.4077 26.5531C33.3639 26.5257 35.1027 26.5257 37.0317 26.5257Z" fill="#D7282F"/>
<path d="M10.4055 28.9632C9.37307 28.9632 8.34064 28.9905 7.28104 28.9632C6.11277 28.9085 5.43354 28.2521 5.40637 27.076C5.35203 25.7085 5.3792 24.341 5.40637 22.9734C5.43354 21.7974 6.0856 21.1136 7.28104 21.0863C9.45458 21.0589 11.6281 21.0316 13.7745 21.0863C15.0243 21.1136 15.6491 21.8794 15.6763 23.1102C15.7035 24.3957 15.7035 25.6538 15.6763 26.9393C15.6491 28.2521 14.9427 28.9358 13.6386 28.9905C12.579 28.9905 11.4923 28.9632 10.4055 28.9632ZM13.2311 26.529C13.6115 23.3837 13.6115 23.3837 10.6772 23.3837C10.487 23.3837 10.324 23.3837 10.1338 23.3837C7.38972 23.3837 7.22671 23.6025 7.8516 26.529C9.61759 26.529 11.3836 26.529 13.2311 26.529Z" fill="#D7282F"/>
<path d="M22.6054 39.3076C21.6002 39.3076 20.6221 39.335 19.6168 39.3076C18.2583 39.2529 17.5248 38.5418 17.4704 37.1743C17.4161 35.9162 17.4161 34.6307 17.4704 33.3452C17.5248 32.1418 18.204 31.376 19.4538 31.3486C21.573 31.3213 23.6922 31.3213 25.8114 31.3486C27.0612 31.376 27.7404 32.0871 27.8219 33.2905C27.9034 34.6033 27.9034 35.9162 27.8219 37.2563C27.7404 38.5418 27.0068 39.2256 25.7027 39.2803C24.6703 39.335 23.6378 39.3076 22.6054 39.3076ZM20.0243 36.9555C21.3013 36.9555 22.5782 36.8734 23.828 36.9828C25.1865 37.0922 25.6212 36.7093 25.594 35.2597C25.5668 33.9196 25.1593 33.4546 23.8824 33.6187C23.3933 33.6734 22.8771 33.6187 22.3881 33.6187C19.5625 33.6187 19.5625 33.6187 19.8342 36.4905C19.8342 36.5999 19.8885 36.682 20.0243 36.9555Z" fill="#D7282F"/>
<path d="M10.5694 31.3681C11.6018 31.3681 12.6614 31.3134 13.6939 31.3681C15.0252 31.4501 15.65 32.1065 15.7044 33.4467C15.7315 34.7048 15.7315 35.9903 15.7044 37.2758C15.6772 38.5339 14.9708 39.245 13.7754 39.2997C11.6018 39.3817 9.4283 39.3817 7.28194 39.2997C6.16801 39.245 5.46161 38.5612 5.43444 37.3578C5.40727 35.9903 5.40727 34.6228 5.43444 33.2552C5.46161 32.1065 6.11367 31.4775 7.20043 31.4228C8.31437 31.3407 9.45547 31.3954 10.5694 31.3681ZM13.232 36.8928C13.6939 33.6381 13.6939 33.6381 10.6509 33.6381C10.5151 33.6381 10.3792 33.6381 10.2434 33.6381C7.41779 33.6381 7.33628 33.7202 7.77099 36.6193C7.77099 36.7014 7.87966 36.7561 7.96117 36.8655C9.67283 36.8928 11.4117 36.8928 13.232 36.8928Z" fill="#D7282F"/>
<path d="M10.5142 48.9531C9.48175 48.9531 8.44932 48.9804 7.38972 48.9531C6.13994 48.9257 5.43354 48.2967 5.40637 47.0386C5.3792 45.671 5.35203 44.3035 5.40637 42.9634C5.43354 41.7873 6.13994 41.1035 7.30821 41.1035C9.48174 41.0488 11.6553 41.0488 13.8016 41.1035C14.9699 41.1309 15.622 41.842 15.6763 43.0181C15.7306 44.3856 15.7306 45.7531 15.6763 47.0933C15.622 48.2693 14.9427 48.9257 13.7745 48.9531C12.6877 48.9804 11.6009 48.9531 10.5142 48.9531ZM13.2854 43.4557C11.3564 43.4557 9.61759 43.4557 7.68858 43.4557C7.68858 44.3309 7.63424 45.124 7.71575 45.9172C7.74292 46.1634 8.09612 46.5736 8.34064 46.5736C9.97079 46.6283 11.6281 46.601 13.3126 46.601C13.2854 45.4522 13.2854 44.5223 13.2854 43.4557Z" fill="#D7282F"/>
<path d="M51.2971 45.6427C51.2971 49.882 47.9281 53.2734 43.7169 53.2734C39.4785 53.2734 36.0824 49.8273 36.1095 45.5059C36.1367 41.2666 39.5057 37.9572 43.7712 37.9845C48.0096 38.0119 51.3243 41.3486 51.2971 45.6427ZM48.9877 45.588C48.9877 42.6341 46.6783 40.282 43.7441 40.282C40.7826 40.2546 38.4189 42.6888 38.4733 45.6974C38.5004 48.6512 40.837 50.9486 43.7712 50.9213C46.7055 50.8939 48.9877 48.5692 48.9877 45.588Z" fill="#D7282F"/>
</g>
<defs>
<clipPath id="clip0_4492_8295">
<rect width="62" height="64" fill="white"/>
</clipPath>
</defs>
</svg>
