<svg width="39" height="41" viewBox="0 0 39 41" fill="none" xmlns="http://www.w3.org/2000/svg">
<path d="M36.98 31.2567L20.9031 39.8572C20.4735 40.0892 19.9908 40.2109 19.5 40.2109C19.0092 40.2109 18.5265 40.0892 18.0969 39.8572L2.02 31.2531C1.56087 31.0075 1.17761 30.6459 0.910239 30.206C0.642866 29.7661 0.501188 29.2641 0.5 28.7525V11.6694C0.501188 11.1577 0.642866 10.6557 0.910239 10.2159C1.17761 9.77599 1.56087 9.41437 2.02 9.16876L18.0969 0.564716C18.5265 0.332661 19.0092 0.210938 19.5 0.210938C19.9908 0.210938 20.4735 0.332661 20.9031 0.564716L36.98 9.16876C37.4391 9.41437 37.8224 9.77599 38.0898 10.2159C38.3571 10.6557 38.4988 11.1577 38.5 11.6694V28.7507C38.4998 29.2633 38.3586 29.7664 38.0912 30.2073C37.8237 30.6482 37.4399 31.0106 36.98 31.2567ZM19.5 37.3565L34.1793 29.4973L28.7388 26.5876L14.0594 34.4468L19.5 37.3565ZM19.5 21.6381L4.82067 29.4973L11.0158 32.8142L25.6951 24.955L19.5 21.6381ZM35.5769 11.6623L20.9615 3.84058V19.1678L26.8077 22.2954V15.9223C26.8077 15.5433 26.9617 15.1799 27.2358 14.9119C27.5099 14.6439 27.8816 14.4934 28.2692 14.4934C28.6569 14.4934 29.0286 14.6439 29.3027 14.9119C29.5768 15.1799 29.7308 15.5433 29.7308 15.9223V23.8601L35.5769 26.9877V11.6694V11.6623Z" fill="#231F20"/>
</svg>
