<svg width="41" height="36" viewBox="0 0 41 36" fill="none" xmlns="http://www.w3.org/2000/svg">
<path d="M1.30005 0.210938C1.03483 0.210938 0.780478 0.316294 0.592942 0.503831C0.405406 0.691367 0.300049 0.945721 0.300049 1.21094V29.6109C0.300049 29.8762 0.405406 30.1305 0.592942 30.318C0.780478 30.5056 1.03483 30.6109 1.30005 30.6109H28.052C27.7024 30.1509 27.3536 29.6905 27.0024 29.2309C26.5656 28.5865 25.9312 28.0349 25.7452 27.2517C23.1732 28.3133 20.218 28.4117 17.5788 27.5305C17.5208 27.5117 17.464 27.4885 17.4064 27.4689C17.1036 27.7649 16.7772 28.2809 16.7256 28.6109H12.9228C13.2084 27.6433 12.602 26.1325 13.1756 25.1477C13.2212 25.1357 13.2764 25.0585 13.3017 24.9789C13.2368 24.9181 13.1712 24.8589 13.108 24.7969C12.5456 24.9681 12.3208 25.3917 12.008 25.7633C12.1788 26.5729 10.946 26.3813 11.0704 27.2073C11.9292 27.8733 10.2776 27.3657 9.78645 27.4189C9.26525 27.4245 7.74045 26.8789 8.26965 27.9949C8.18685 28.3013 8.26325 28.4893 8.41565 28.6109H8.18205C8.14565 28.2605 7.48565 28.2085 7.23125 28.0365C6.80285 27.9325 6.29125 27.8805 5.84765 27.6829C5.73365 27.9997 4.70485 28.3621 4.47965 28.6109H2.30005V13.9985C2.60685 14.2041 3.29485 14.1225 2.35725 13.6785H2.30005V9.07294C2.48205 8.98094 2.61205 8.95174 2.60405 9.10574C3.05485 8.95374 3.25125 7.85654 4.03125 8.30574C4.51765 8.37734 5.32245 9.13134 4.91805 9.22574C5.23325 9.99534 5.45685 9.49974 5.84365 10.4169C5.57885 11.6713 6.59285 12.6009 7.14925 13.4005C7.81565 13.6773 8.07925 14.5389 9.16245 14.5725C9.30965 14.7013 9.49845 14.8181 9.69525 14.9301C9.74925 14.5165 9.82565 14.1061 9.92205 13.7005C9.89605 13.6945 9.87085 13.6909 9.84285 13.6817C8.80085 14.6429 8.58725 12.9789 9.60485 12.9137C9.67285 12.9093 9.74605 12.9129 9.82485 12.9237C9.94285 12.9097 10.0408 12.9237 10.1236 12.9529C10.4578 11.8574 10.9529 10.8177 11.5928 9.86774C11.9365 9.35497 12.3222 8.8717 12.746 8.42294C12.5356 8.07094 12.3204 7.87454 12.0664 8.33414C12.0472 7.65214 10.2032 6.93734 11.56 7.59174C12.2716 8.20494 12.5048 7.48534 12.6172 6.99414C13.2272 6.35814 11.992 6.14094 12.2172 5.72534C11.8428 5.16414 11.2884 4.58934 10.7188 4.24174C9.61405 4.36974 9.22685 4.13654 10.704 4.13574C10.8372 3.44574 11.0584 2.95694 11.2108 2.37614C11.0508 2.33014 10.8836 2.33734 10.7188 2.33694C10.012 2.24214 9.59245 2.51534 9.60685 3.05494C9.07605 3.01254 9.55285 2.10774 8.73445 2.38414C7.49365 2.36454 8.99365 2.78374 8.87845 2.84414C8.73645 3.16254 7.84245 2.96414 7.94765 3.28694C7.53805 2.52934 7.35165 3.64814 7.03285 2.88174C6.84085 2.69774 7.83685 3.06334 7.61005 2.39254C7.10845 2.20054 6.92885 2.53654 6.53805 2.67374C5.37165 3.31934 6.74165 3.92654 7.33405 4.14174C8.22685 3.90374 8.22605 3.60294 8.84685 3.93374C9.54285 4.31974 8.14405 4.04854 8.18685 4.64254C8.10685 4.27334 8.00685 4.05054 7.57485 4.52374C6.99885 4.62774 6.74165 3.83614 6.31165 3.89174C5.33165 3.75854 5.69765 5.96254 6.50485 5.21214C6.99325 6.05734 5.88085 5.43374 5.55085 5.33934C4.80565 6.17174 4.00285 5.31774 3.11325 5.28334C2.82845 5.09374 2.54925 5.09134 2.30005 5.18774V2.21094H12.7892C12.0412 2.23134 11.3732 2.33014 11.6452 2.86814C11.6012 3.90574 12.9436 3.08174 13.1368 4.02014C13.6944 4.67574 12.8052 6.06974 13.7696 5.82494C13.4148 6.25654 13.4592 6.94414 13.736 7.48614C14.76 6.62672 15.9213 5.94574 17.1712 5.47174C17.1932 5.34854 17.1761 5.20694 17.1024 5.03974C16.9772 4.41214 17.5596 4.21174 17.3556 3.51574C17.63 2.99174 17.4172 2.43734 16.9468 2.21094H38.7001V5.04214C38.638 5.01554 38.5743 4.99309 38.5093 4.97494C37.9457 5.48574 38.4012 5.53414 38.7001 5.41934V5.86574C38.0336 5.49094 37.3016 5.44974 36.5908 5.60574C36.268 5.04454 35.1252 5.05774 34.7492 4.55254C34.0868 3.75894 34.9512 3.99574 35.5292 3.93454C35.3652 3.43854 34.3812 3.20334 33.9656 3.28534C33.2149 3.69654 34.3601 4.06534 34.2444 4.61734C34.2444 5.01854 33.7552 5.02134 33.3284 4.99934C33.5009 4.57454 32.5112 4.05214 32.1188 4.39774C31.376 4.17294 31.0928 4.30494 31.5828 3.53134C31.4116 2.93654 30.7041 2.92534 30.3869 2.51254C29.9817 3.37174 29.306 3.11134 28.5821 3.63454C28.292 4.05854 27.688 4.43934 27.658 4.71934C27.2092 4.93014 26.76 3.85454 26.4452 4.80734C26.1596 5.61374 26.4612 6.00454 25.4976 5.34454C24.5004 4.28174 27.5008 3.37134 26.3856 2.91894C25.46 3.18894 24.9036 3.84134 24.7196 4.76814C24.62 4.97894 24.6652 5.12574 24.7704 5.24454C28.284 6.29254 31.1916 9.11814 32.3736 12.5845C32.392 12.3757 32.4268 12.1749 32.4968 12.0281C32.7924 11.8025 32.558 12.8941 33.1688 12.2733C32.7188 13.2393 34.3001 12.4013 34.514 12.0025C34.2005 11.2153 35.6421 10.8445 35.6085 10.6961C35.0777 10.1393 35.3792 10.6933 34.7937 10.8209C34.5997 10.5625 35.1656 9.14574 34.4124 9.27574C33.2876 8.98614 35.3693 8.15774 35.9313 8.46254C36.1873 7.51534 36.5552 8.26974 35.9228 8.70534C35.682 9.54574 35.7972 10.6921 36.5056 9.56894C36.8241 9.25894 36.7449 8.45094 37.1593 8.31014C37.716 8.04774 38.7096 7.84254 38.6837 7.03134C38.6893 7.02974 38.6945 7.03014 38.7001 7.02894V28.6109H37.1165C37.4596 28.1357 37.9137 27.3229 37.4328 27.0281C36.7085 26.9029 36.1672 26.0293 35.2916 26.0657C34.8964 25.6105 33.9864 25.3801 33.7416 25.2913C33.4968 25.2025 33.0721 25.7157 32.6369 25.4889C32.5059 25.4678 32.3722 25.4702 32.2421 25.4961C33.5517 27.1961 34.8489 28.9053 36.1508 30.6109H39.7001C39.9653 30.6109 40.2196 30.5056 40.4072 30.318C40.5947 30.1305 40.7001 29.8762 40.7001 29.6109V1.21094C40.7001 0.945721 40.5947 0.691367 40.4072 0.503831C40.2196 0.316294 39.9653 0.210938 39.7001 0.210938H1.30005ZM20.776 2.33894C20.132 2.65614 21.274 3.91894 21.3056 2.71334C21.4236 2.88934 22.2152 3.06694 21.9564 2.49934C21.3812 2.16054 21.4684 2.55014 20.7756 2.33934M30.008 2.34014C29.3132 2.67854 30.616 2.68494 30.008 2.34014V2.34014ZM7.93605 2.45494C7.41605 2.84134 8.69925 3.22374 8.00405 2.47534L7.93605 2.45494ZM12.194 2.68414C12.0656 2.76454 12.324 2.80894 12.194 2.68414V2.68414ZM7.17205 3.17814C7.14005 3.18334 7.23325 3.24894 7.17205 3.17814V3.17814ZM8.95325 3.34294C8.90525 3.59894 9.58005 3.45174 8.95325 3.34294V3.34294ZM9.83125 3.41494C10.05 3.56294 10.4272 3.37694 9.83125 3.41494V3.41494ZM8.08125 3.44134C8.03165 3.62094 8.46885 3.48134 8.08125 3.44134V3.44134ZM9.32205 4.00454C9.12925 4.12654 9.71405 4.09494 9.32205 4.00454V4.00454ZM9.59845 4.62814C9.36245 5.38094 10.4372 6.40014 9.60325 5.54214C9.37405 5.19894 9.25485 4.87014 9.59845 4.62814ZM8.19925 4.70414C8.54285 5.27814 9.06605 5.43134 8.62805 5.62894C8.33725 5.48814 8.27005 5.04974 8.19925 4.70414ZM13.5908 5.28254C13.4604 5.29054 13.6392 5.31494 13.5908 5.28254V5.28254ZM5.48045 5.46374C5.41845 5.46654 5.43565 5.64534 5.48045 5.46374V5.46374ZM8.57805 5.75734C8.39525 5.75054 8.55005 6.13574 8.57805 5.75734V5.75734ZM10.8772 5.75974C10.7276 6.49974 11.3212 6.45254 11.2812 6.52694C10.7908 6.74294 10.908 7.63254 10.5328 6.95374C10.296 6.84334 10.6544 5.86654 10.8156 5.78094L10.8772 5.75974ZM8.46645 5.76054C8.46285 5.93374 8.51885 5.77254 8.46645 5.76054V5.76054ZM37.4008 5.82694C37.3312 5.89494 37.4168 5.85414 37.4008 5.82694V5.82694ZM8.49525 5.92374C8.12965 6.18374 8.76805 6.20934 8.49525 5.92374V5.92374ZM21.2064 6.31694C19.0252 6.33209 16.908 7.05562 15.1736 8.37854C10.7376 11.7565 9.87445 18.1245 13.2524 22.5605C16.4144 26.7129 22.1884 27.7145 26.5524 25.0557L27.386 26.1505C27.222 26.5321 27.2372 26.8969 27.428 27.1481L33.4761 35.0901C33.8361 35.5625 34.7052 35.5061 35.4172 34.9637C36.1292 34.4217 36.4145 33.5989 36.0549 33.1261L30.0068 25.1841C29.8156 24.9329 29.468 24.8209 29.0564 24.8777L28.2228 23.7833C31.9464 20.2833 32.5173 14.4513 29.3556 10.2989C27.6664 8.08094 25.2296 6.75694 22.6608 6.40894C22.1789 6.34369 21.6928 6.31294 21.2064 6.31694ZM9.85085 7.32014C10.1008 7.91374 11.0664 7.56534 10.6884 8.37454C11.1092 8.77054 10.6216 10.1665 10.458 8.97694C9.41085 8.97174 8.91085 7.92694 9.79005 7.37854L9.85085 7.32014ZM10.7632 7.41854C10.2592 7.57014 11.0832 7.69054 10.7632 7.41854V7.41854ZM35.8945 8.14974C35.9225 8.12974 35.9921 8.27334 35.8945 8.14974V8.14974ZM21.6092 8.55814C22.77 8.60239 23.9065 8.90378 24.9367 9.44056C25.9669 9.97734 26.8651 10.7361 27.5665 11.6621C28.1948 12.4836 28.6547 13.4211 28.9198 14.4208C29.1848 15.4205 29.2498 16.4627 29.1111 17.4876C28.9723 18.5125 28.6325 19.4999 28.1111 20.3931C27.5897 21.2863 26.897 22.0677 26.0728 22.6925C25.2513 23.3209 24.3138 23.7809 23.3141 24.046C22.3143 24.3111 21.2721 24.3761 20.2472 24.2373C19.2222 24.0986 18.2348 23.7587 17.3416 23.2373C16.4483 22.7159 15.6669 22.0232 15.042 21.1989C14.4137 20.3774 13.9539 19.4399 13.6888 18.4402C13.4238 17.4405 13.3588 16.3983 13.4976 15.3734C13.6364 14.3485 13.9763 13.3611 14.4977 12.4679C15.0191 11.5747 15.7118 10.7933 16.536 10.1685C17.9878 9.05695 19.7822 8.48735 21.6092 8.55814ZM37.0444 8.97014C36.4165 9.48974 37.7985 9.39454 37.0444 8.97014V8.97014ZM37.7924 9.40294C37.0973 9.74254 38.4001 9.74294 37.7924 9.40294V9.40294ZM38.2453 9.56134C37.6252 10.0773 38.8773 9.80614 38.2453 9.56134V9.56134ZM38.2205 9.67334C38.1992 9.70974 38.2549 9.67294 38.2205 9.67334V9.67334ZM38.2796 9.73774C38.2296 9.74414 38.2984 9.76814 38.2796 9.73774V9.73774ZM21.344 10.1549C20.4697 10.1393 19.6064 10.3349 18.8104 10.6861C18.852 10.7369 18.9116 10.7857 18.9988 10.8297C18.1989 10.5697 17.966 11.5805 18.3028 12.0353L18.844 12.0797L19.2964 11.8805C19.5889 11.5765 19.6616 11.6289 19.756 11.1685L19.9324 11.1913L20.0724 11.1329L20.3912 11.2905C20.7736 11.4401 20.7916 11.7625 20.6636 11.8569C20.4824 11.9685 20.696 11.9849 20.7136 12.0541C20.804 12.0281 20.8568 11.9501 20.9136 11.9085L21.0161 11.8717C21.3897 11.6265 21.1288 11.5457 20.8692 11.2149L21.0068 11.2501C21.208 11.4781 21.3264 11.7361 21.4456 12.0101C21.4592 12.0209 21.4716 12.0349 21.4872 12.0397C21.5776 12.0697 21.7052 12.0597 21.8144 12.0297C21.9224 12.0001 21.9296 11.7941 21.9112 11.5969C22.0652 12.2993 23.5756 12.0905 22.6768 12.5189C22.1588 12.5305 21.3356 12.2465 21.184 12.6053C20.8488 12.4533 20.6776 12.3537 20.6096 12.2757C20.4032 12.1981 19.8092 11.9733 19.788 11.9733C19.7628 11.9733 19.0068 12.1109 19.0068 12.1109L18.3828 12.3477C18.18 13.0013 17.86 12.6517 17.7512 13.1585C17.666 13.4825 16.9328 14.1825 17.3168 14.7337C17.6596 16.3281 19.6472 15.2665 20.1104 16.0321C19.8928 16.5037 20.9692 17.4009 20.3668 18.1733C20.6508 19.2953 21.414 21.1709 22.642 19.5741C22.966 18.6181 23.6636 18.1013 23.6388 17.1529C23.268 16.2189 25.4508 15.5265 24.5777 14.7701C24.3685 14.7949 24.3444 14.8401 24.1784 14.8953C23.8296 14.8821 23.7396 14.6009 23.6208 14.4241C23.5301 14.2951 23.4499 14.1591 23.3808 14.0173C23.6028 14.3613 23.832 14.6533 24.1536 14.8329C24.71 14.7081 25.348 14.2965 25.6076 13.9945C25.6012 12.8173 27.1836 14.0385 27.1516 14.9233C27.2496 15.1617 27.3741 15.3273 27.4988 15.4241C27.4101 14.8583 27.2412 14.3079 26.9972 13.7897C26.5536 12.8161 25.8433 11.9801 24.98 11.3545C24.9641 11.3793 24.924 11.3809 24.9321 11.3209C24.8153 11.2383 24.6959 11.1594 24.574 11.0845C24.5872 11.1401 24.6032 11.1965 24.6216 11.2537C24.5693 11.1757 24.514 11.0965 24.4685 11.0201C23.5261 10.4649 22.4452 10.1465 21.3444 10.1545L21.344 10.1549ZM34.3589 10.2077C34.6488 11.0341 33.35 12.9493 33.1613 11.6921C33.2944 11.0705 34.3605 11.1641 34.3589 10.2077ZM10.0088 10.4261C9.99965 10.4561 10.0672 10.4193 10.0088 10.4261V10.4261ZM10.6252 10.7169C10.4844 10.7897 10.7416 10.8137 10.6252 10.7169V10.7169ZM22.6364 10.7433C22.9592 11.0153 23.9496 11.3753 22.9012 11.0881C22.3556 11.3373 22.1868 11.1777 22.6364 10.7433ZM20.1412 11.2273C20.0708 11.2489 20.1304 11.3949 20.0864 11.4409C20.3864 11.5877 20.2185 11.3021 20.2628 11.2553C20.202 11.2265 20.1644 11.2197 20.1412 11.2273ZM24.7144 11.5253C24.8072 11.7665 24.8688 11.9205 24.6304 11.6213C24.6502 11.6118 24.6677 11.5983 24.6822 11.5818C24.6966 11.5654 24.7076 11.5461 24.7144 11.5253ZM20.1692 11.5553C20.0516 11.5425 19.9892 11.6213 19.9888 11.7313C20.2988 11.8997 20.2668 11.6217 20.3048 11.6005C20.2627 11.5773 20.217 11.5619 20.1692 11.5553ZM24.9584 13.2685C25.1353 13.2757 24.7892 13.5245 24.8484 13.2825C24.8976 13.2717 24.9332 13.2673 24.9584 13.2685ZM37.1428 14.8333C36.5668 15.4453 37.8293 15.5529 37.1428 14.8333V14.8333ZM37.1029 14.9285C37.0921 14.9693 37.1621 14.9221 37.1029 14.9285V14.9285ZM37.1524 15.0161C37.0924 15.0061 37.158 15.0573 37.1524 15.0161V15.0161ZM37.5713 15.0961C37.0132 15.5817 38.2449 15.4049 37.5713 15.0961V15.0961ZM37.6313 15.2341C37.6232 15.2929 37.6736 15.2269 37.6313 15.2341V15.2341ZM37.5524 15.2553C37.52 15.2833 37.5892 15.3049 37.5524 15.2553V15.2553ZM32.9936 15.8841C33.0037 16.1337 33.0056 16.3829 33 16.6321C33.4589 16.7053 34.0336 16.6845 34.0444 17.1921C34.8668 17.2277 33.9596 18.4289 33.9296 17.3169C33.5946 17.2687 33.2529 17.3266 32.9524 17.4825C32.869 18.3554 32.6903 19.2165 32.4197 20.0505C33.0917 19.8373 33.7772 19.8581 34.182 20.5113C35.2481 20.5073 34.3412 21.2341 35.0968 21.3825C35.4188 20.7249 34.9272 20.8077 35.5312 20.2717C36.1173 19.5225 35.7337 18.5549 35.1493 18.1457C35.0276 17.6825 34.5433 17.4321 34.7713 17.1161C35.2152 17.7181 35.8444 17.2673 35.3192 16.9417C35.7068 16.5797 37.0917 17.8745 36.3141 16.8785C35.93 16.8073 35.4025 16.0133 35.2828 16.5245C35.2485 16.9485 34.1904 15.8809 33.8 16.3177C33.6872 15.9241 33.1353 16.1617 33.104 16.3373C33.2737 16.0733 33.1669 15.9369 32.9936 15.8841ZM35.0289 16.2261C34.4557 16.5517 35.5464 16.5405 35.0289 16.2261V16.2261ZM20.0548 16.2541C20.0416 16.2713 20.1008 16.3581 20.0548 16.2541V16.2541ZM15.0336 16.3029C15.0218 16.8584 15.0835 17.4129 15.2172 17.9521C15.6772 17.2553 15.6592 16.6009 15.0336 16.3029ZM34.9992 16.3221C34.9568 16.3317 35.0336 16.3469 34.9992 16.3221V16.3221ZM35.3869 16.3701C35.1996 16.5021 35.5737 16.5021 35.3869 16.3701V16.3701ZM35.3869 16.3741C35.2164 16.4965 35.5569 16.4965 35.3869 16.3741V16.3741ZM35.0377 16.4089C34.9785 16.4017 35.044 16.4493 35.0377 16.4089V16.4089ZM32.9968 16.8433C32.9928 16.9393 32.9844 17.0353 32.9781 17.1313C33.1073 16.9857 33.1632 16.8353 32.9968 16.8433ZM23.88 17.2577C23.4177 17.5117 24.3748 17.6277 23.9748 17.3297L23.9576 17.2869L23.88 17.2577ZM24.4208 17.3289C23.964 17.6145 23.2552 18.9761 24.2381 19.0189C24.4748 18.7373 25.0752 17.4817 24.4208 17.3289ZM36.8112 18.1961C36.4452 18.9181 37.8741 18.6293 36.8112 18.1961V18.1961ZM25.1528 18.2921C24.5584 18.6909 25.7292 18.6405 25.1528 18.2921V18.2921ZM37.7653 19.9385C38.1036 20.7045 36.9813 21.1633 37.0661 21.8745C37.642 22.1521 37.9393 21.1073 38.3448 20.7877C38.8244 20.3685 37.9673 20.2445 37.7653 19.9385ZM11.162 22.2945C11.2276 22.7161 11.4252 23.1241 11.778 23.2485C11.5575 22.9407 11.3519 22.6223 11.162 22.2945Z" fill="black"/>
</svg>
