<svg width="41" height="41" viewBox="0 0 41 41" fill="none" xmlns="http://www.w3.org/2000/svg">
<path d="M38.1606 27.0632L30.8235 28.5203L30.5638 27.2077L30.0683 24.7112L26.2593 25.4693L26.7547 27.9659L27.0145 29.2784L24.8875 29.7016C24.6894 29.2677 24.4537 28.8579 24.1883 28.4747C23.023 26.7952 21.2526 25.6112 19.2569 25.1771C18.8014 25.0779 18.3326 25.0189 17.8558 25.0003L15.2201 11.7245C15.1478 11.3629 15.3835 11.0093 15.7451 10.9397L23.0822 9.4824L23.3419 10.7949L23.8401 13.2915L27.6491 12.5333L27.1537 10.0368L26.8939 8.72426L34.2283 7.26693C34.5926 7.19466 34.9435 7.4304 35.0158 7.79466L38.6883 26.2749C38.7606 26.64 38.5249 26.9909 38.1606 27.0632Z" fill="black"/>
<path d="M39.0977 27.8346L25.2327 30.5885C25.3276 30.8834 25.4087 31.1858 25.4703 31.497C25.5321 31.8082 25.5729 32.1186 25.5977 32.4274L39.4628 29.6735C39.9708 29.5727 40.3007 29.0791 40.1999 28.5714C40.0991 28.0637 39.6055 27.7335 39.0977 27.8346Z" fill="black"/>
<path d="M7.78677 0.851156C7.63904 0.410889 7.1873 0.135956 6.71957 0.229023C6.41077 0.290356 6.1697 0.497023 6.0505 0.76369C5.91503 1.06689 5.61904 1.26769 5.29317 1.33249L1.56197 2.07356C1.12303 2.16076 0.783833 2.53729 0.782233 2.98476C0.780099 3.60022 1.33263 4.03089 1.90303 3.91756L5.6585 3.17169C5.9841 3.10689 6.3345 3.17942 6.57557 3.40796C6.78757 3.60876 7.08944 3.70769 7.39824 3.64636C7.85637 3.55542 8.1665 3.14449 8.14944 2.69196C9.42117 2.57676 10.6046 3.43996 10.859 4.71996L14.97 25.4181C15.295 25.3088 15.6294 25.2168 15.9748 25.1482C16.2518 25.0933 16.5286 25.0533 16.8041 25.0277L12.6982 4.35436C12.2428 2.06102 10.0732 0.54129 7.78677 0.851156Z" fill="black"/>
<path d="M16.1574 26.0679C12.2899 26.8359 9.7774 30.594 10.5457 34.4612C11.3137 38.3287 15.0715 40.8412 18.939 40.0729C22.8065 39.3047 25.319 35.5468 24.5507 31.6796C23.7825 27.8124 20.0249 25.2996 16.1574 26.0679ZM18.0771 35.7332C16.6089 36.0249 15.1769 35.0676 14.8854 33.5991C14.5937 32.1308 15.551 30.6988 17.0195 30.4073C18.4878 30.1156 19.9198 31.0729 20.2113 32.5415C20.5027 34.0097 19.5454 35.4417 18.0771 35.7332Z" fill="black"/>
</svg>
