<svg width="41" height="41" viewBox="0 0 41 41" fill="none" xmlns="http://www.w3.org/2000/svg">
<path fill-rule="evenodd" clip-rule="evenodd" d="M28.0202 30.558C25.1261 32.8425 21.4689 34.2056 17.4949 34.2056C8.11196 34.2104 0.5 26.5984 0.5 17.2107C0.5 7.8229 8.11196 0.210938 17.4997 0.210938C26.8875 0.210938 34.4995 7.8229 34.4995 17.2107C34.4995 21.1846 33.1364 24.8418 30.8519 27.7359L39.9133 36.7973C40.6956 37.5796 40.6956 38.8467 39.9133 39.6242C39.131 40.4065 37.8639 40.4065 37.0864 39.6242L28.0202 30.558ZM30.4967 17.2107C30.4967 24.3907 24.6749 30.2076 17.4997 30.2076C10.3245 30.2076 4.50276 24.3907 4.50276 17.2107C4.50276 10.0307 10.3197 4.2137 17.4997 4.2137C24.6797 4.2137 30.4967 10.0307 30.4967 17.2107Z" fill="#141414"/>
</svg>
