<svg width="58" height="56" viewBox="0 0 58 56" fill="none" xmlns="http://www.w3.org/2000/svg">
<path d="M20.2166 55.125L15.3083 46.8583L6.00825 44.7917L6.91242 35.2333L0.583252 28L6.91242 20.7667L6.00825 11.2083L15.3083 9.14167L20.2166 0.875L28.9999 4.62083L37.7832 0.875L42.6916 9.14167L51.9916 11.2083L51.0874 20.7667L57.4166 28L51.0874 35.2333L51.9916 44.7917L42.6916 46.8583L37.7832 55.125L28.9999 51.3792L20.2166 55.125ZM22.4124 48.5375L28.9999 45.6958L35.7166 48.5375L39.3333 42.3375L46.4374 40.6583L45.7916 33.425L50.5708 28L45.7916 22.4458L46.4374 15.2125L39.3333 13.6625L35.5874 7.4625L28.9999 10.3042L22.2833 7.4625L18.6666 13.6625L11.5624 15.2125L12.2083 22.4458L7.42909 28L12.2083 33.425L11.5624 40.7875L18.6666 42.3375L22.4124 48.5375ZM26.2874 37.1708L40.8833 22.575L37.2666 18.8292L26.2874 29.8083L20.7333 24.3833L17.1166 28L26.2874 37.1708Z" fill="#D7282F"/>
</svg>
