<svg width="40" height="41" viewBox="0 0 40 41" fill="none" xmlns="http://www.w3.org/2000/svg">
<g clip-path="url(#clip0_2611_105)">
<mask id="path-1-inside-1_2611_105" fill="white">
<path d="M12.7327 22.247C12.7327 21.4456 12.7293 20.6438 12.7338 19.8424C12.7377 19.1378 13.051 18.8381 13.7899 18.8344C14.755 18.8301 15.7201 18.8418 16.6847 18.8238C16.8341 18.8212 17.0311 18.7292 17.1092 18.6182C17.1552 18.5526 17.0429 18.338 16.9447 18.2429C16.2917 17.6107 15.623 16.9933 14.9605 16.3701C14.3659 15.8103 14.3676 15.3948 14.9672 14.8292C16.1407 13.7229 17.3141 12.6176 18.4898 11.5133C19.0658 10.9726 19.5217 10.971 20.0938 11.507C20.7676 12.1387 21.4329 12.7783 22.1162 13.4009C22.2161 13.4919 22.4267 13.577 22.5277 13.5363C22.6299 13.4956 22.7108 13.2952 22.713 13.1636C22.7287 12.2555 22.7192 11.3468 22.722 10.4382C22.7237 9.73566 23.0639 9.41269 23.8179 9.41163C25.5208 9.40899 27.2237 9.40952 28.9266 9.41639C29.6626 9.41956 29.9804 9.72932 29.9838 10.4313C29.9877 11.3399 29.9754 12.2486 29.995 13.1567C29.9978 13.2958 30.1023 13.4823 30.2219 13.5511C30.2954 13.5934 30.5183 13.4834 30.6205 13.3898C31.3122 12.7566 31.9876 12.1075 32.6731 11.4679C33.1824 10.9927 33.6731 10.9932 34.1868 11.4737C35.404 12.6139 36.6179 13.7577 37.8301 14.9027C38.3157 15.3615 38.3146 15.8298 37.8233 16.2976C37.135 16.9531 36.4337 17.5969 35.7521 18.2587C35.6561 18.3518 35.5663 18.5489 35.609 18.6425C35.6544 18.7413 35.8611 18.8264 35.9992 18.8286C36.9778 18.8439 37.9575 18.8296 38.9361 18.8381C39.666 18.8444 39.9984 19.1632 39.9995 19.8551C40.0023 21.4451 40.0006 23.0351 39.9922 24.6246C39.9883 25.3652 39.6576 25.6718 38.8783 25.6749C37.9132 25.6786 36.948 25.6702 35.9835 25.6834C35.8543 25.685 35.6404 25.7611 35.6191 25.8393C35.5876 25.9551 35.6533 26.1406 35.7482 26.2331C36.4186 26.8865 37.108 27.5229 37.788 28.1667C38.3219 28.6726 38.3298 29.1235 37.8042 29.6204C36.6027 30.7569 35.399 31.8907 34.1924 33.0219C33.6506 33.5299 33.1947 33.5267 32.649 33.0177C31.9539 32.3685 31.2667 31.7115 30.5632 31.0708C30.4756 30.991 30.278 30.9276 30.187 30.9678C30.0877 31.0116 30.0001 31.1845 29.9984 31.3024C29.9832 32.2507 29.9967 33.1995 29.9866 34.1478C29.9804 34.7509 29.652 35.0681 29.017 35.0718C27.2434 35.0824 25.4692 35.085 23.6955 35.0781C23.0718 35.076 22.7304 34.7398 22.7259 34.1473C22.7192 33.2122 22.7315 32.2766 22.7169 31.3415C22.7147 31.2099 22.6282 30.9879 22.5429 30.9709C22.4098 30.944 22.206 31.0174 22.0993 31.1147C21.4048 31.7453 20.7311 32.396 20.0456 33.0351C19.5195 33.5251 19.0557 33.5235 18.5341 33.0335C17.3382 31.9108 16.1423 30.7886 14.9526 29.6605C14.3665 29.105 14.3715 28.7001 14.9521 28.1514C15.6331 27.5076 16.3215 26.8706 16.9929 26.2189C17.0788 26.1353 17.1496 25.9524 17.1092 25.8631C17.0671 25.7701 16.8823 25.6834 16.7588 25.6813C15.7656 25.667 14.7724 25.6744 13.7786 25.6728C13.0673 25.6712 12.7422 25.3657 12.7388 24.6917C12.7349 23.8767 12.7377 23.0616 12.7377 22.247C12.7355 22.247 12.7343 22.247 12.7327 22.247ZM14.5697 23.9459C14.7292 23.9528 14.8679 23.9639 15.006 23.9644C15.8437 23.9676 16.6808 23.966 17.5185 23.9702C18.1653 23.9734 18.3887 24.1341 18.6178 24.7113C18.7514 25.048 18.9002 25.3805 19.063 25.7056C19.3145 26.2083 19.2775 26.4964 18.8586 26.897C18.4011 27.3353 17.9345 27.7655 17.4741 28.2016C17.2293 28.4337 16.9885 28.6694 16.7745 28.8761C17.6448 29.6923 18.4769 30.4735 19.328 31.2717C19.4072 31.203 19.5133 31.1168 19.6121 31.0238C20.2146 30.4571 20.8142 29.8878 21.4166 29.3217C21.8394 28.9242 22.1274 28.8835 22.6799 29.1166C23.0673 29.28 23.4564 29.4428 23.855 29.5802C24.3131 29.7382 24.5388 30.0269 24.536 30.4857C24.531 31.3008 24.5338 32.1159 24.5332 32.931C24.5332 33.071 24.5332 33.2117 24.5332 33.3396C25.7869 33.3396 26.9711 33.3396 28.1484 33.3396C28.1602 33.2809 28.1697 33.255 28.1697 33.2291C28.1709 32.3474 28.1697 31.4652 28.1709 30.5835C28.172 29.9883 28.3578 29.7536 28.9563 29.5416C29.3269 29.41 29.693 29.2646 30.054 29.1113C30.5705 28.892 30.8726 28.9306 31.2841 29.3096C31.74 29.7303 32.192 30.1558 32.6383 30.5856C32.8921 30.8298 33.1318 31.0867 33.3722 31.3314C34.2744 30.4809 35.1048 29.6981 35.9582 28.8936C35.8656 28.8005 35.7729 28.7027 35.6747 28.6102C35.0632 28.033 34.4479 27.4595 33.8398 26.8796C33.4665 26.5233 33.4182 26.2056 33.6315 25.7505C33.8033 25.3847 33.9684 25.0163 34.1234 24.6436C34.3311 24.1431 34.5664 23.9734 35.1458 23.9681C35.8408 23.9612 36.5365 23.9692 37.2321 23.9702C37.5263 23.9707 37.82 23.9702 38.1338 23.9702C38.1338 22.8015 38.1338 21.6877 38.1338 20.5449C37.1153 20.5449 36.1244 20.5486 35.134 20.5433C34.5944 20.5407 34.3294 20.353 34.1374 19.8873C33.9942 19.5395 33.8466 19.1922 33.6821 18.8529C33.3935 18.2566 33.4378 18.0029 33.9392 17.5351C34.6208 16.8987 35.3013 16.2612 35.9576 15.6464C35.0795 14.8207 34.239 14.03 33.3935 13.235C32.708 13.874 32.0039 14.5316 31.2982 15.1881C30.8933 15.5645 30.5379 15.6131 30.0276 15.3869C29.6946 15.2394 29.3572 15.0988 29.013 14.9772C28.3314 14.7367 28.1754 14.539 28.1748 13.8534C28.1742 12.9617 28.1748 12.0699 28.1748 11.1692C26.9458 11.1692 25.7639 11.1692 24.5366 11.1692C24.5366 12.118 24.5383 13.0373 24.536 13.9565C24.5349 14.5195 24.362 14.7404 23.8011 14.9471C23.4058 15.093 23.0145 15.2494 22.6249 15.4096C22.169 15.5973 21.822 15.5523 21.4598 15.223C21.0921 14.8889 20.7367 14.5432 20.3751 14.2039C20.018 13.8687 19.6598 13.5347 19.3275 13.2233C18.4516 14.0458 17.6195 14.8276 16.7717 15.6237C16.8543 15.7061 16.9475 15.8039 17.0457 15.8964C17.6476 16.4636 18.2551 17.0255 18.8508 17.5985C19.2741 18.0055 19.3084 18.2825 19.0625 18.7926C18.9047 19.1203 18.7587 19.4534 18.6228 19.7901C18.3842 20.3816 18.145 20.5444 17.4842 20.5433C16.6471 20.5428 15.8094 20.5439 14.9723 20.5444C14.8375 20.5444 14.7028 20.5444 14.5692 20.5444C14.5697 21.7099 14.5697 22.8147 14.5697 23.9459Z"/>
</mask>
<path d="M12.7327 22.247C12.7327 21.4456 12.7293 20.6438 12.7338 19.8424C12.7377 19.1378 13.051 18.8381 13.7899 18.8344C14.755 18.8301 15.7201 18.8418 16.6847 18.8238C16.8341 18.8212 17.0311 18.7292 17.1092 18.6182C17.1552 18.5526 17.0429 18.338 16.9447 18.2429C16.2917 17.6107 15.623 16.9933 14.9605 16.3701C14.3659 15.8103 14.3676 15.3948 14.9672 14.8292C16.1407 13.7229 17.3141 12.6176 18.4898 11.5133C19.0658 10.9726 19.5217 10.971 20.0938 11.507C20.7676 12.1387 21.4329 12.7783 22.1162 13.4009C22.2161 13.4919 22.4267 13.577 22.5277 13.5363C22.6299 13.4956 22.7108 13.2952 22.713 13.1636C22.7287 12.2555 22.7192 11.3468 22.722 10.4382C22.7237 9.73566 23.0639 9.41269 23.8179 9.41163C25.5208 9.40899 27.2237 9.40952 28.9266 9.41639C29.6626 9.41956 29.9804 9.72932 29.9838 10.4313C29.9877 11.3399 29.9754 12.2486 29.995 13.1567C29.9978 13.2958 30.1023 13.4823 30.2219 13.5511C30.2954 13.5934 30.5183 13.4834 30.6205 13.3898C31.3122 12.7566 31.9876 12.1075 32.6731 11.4679C33.1824 10.9927 33.6731 10.9932 34.1868 11.4737C35.404 12.6139 36.6179 13.7577 37.8301 14.9027C38.3157 15.3615 38.3146 15.8298 37.8233 16.2976C37.135 16.9531 36.4337 17.5969 35.7521 18.2587C35.6561 18.3518 35.5663 18.5489 35.609 18.6425C35.6544 18.7413 35.8611 18.8264 35.9992 18.8286C36.9778 18.8439 37.9575 18.8296 38.9361 18.8381C39.666 18.8444 39.9984 19.1632 39.9995 19.8551C40.0023 21.4451 40.0006 23.0351 39.9922 24.6246C39.9883 25.3652 39.6576 25.6718 38.8783 25.6749C37.9132 25.6786 36.948 25.6702 35.9835 25.6834C35.8543 25.685 35.6404 25.7611 35.6191 25.8393C35.5876 25.9551 35.6533 26.1406 35.7482 26.2331C36.4186 26.8865 37.108 27.5229 37.788 28.1667C38.3219 28.6726 38.3298 29.1235 37.8042 29.6204C36.6027 30.7569 35.399 31.8907 34.1924 33.0219C33.6506 33.5299 33.1947 33.5267 32.649 33.0177C31.9539 32.3685 31.2667 31.7115 30.5632 31.0708C30.4756 30.991 30.278 30.9276 30.187 30.9678C30.0877 31.0116 30.0001 31.1845 29.9984 31.3024C29.9832 32.2507 29.9967 33.1995 29.9866 34.1478C29.9804 34.7509 29.652 35.0681 29.017 35.0718C27.2434 35.0824 25.4692 35.085 23.6955 35.0781C23.0718 35.076 22.7304 34.7398 22.7259 34.1473C22.7192 33.2122 22.7315 32.2766 22.7169 31.3415C22.7147 31.2099 22.6282 30.9879 22.5429 30.9709C22.4098 30.944 22.206 31.0174 22.0993 31.1147C21.4048 31.7453 20.7311 32.396 20.0456 33.0351C19.5195 33.5251 19.0557 33.5235 18.5341 33.0335C17.3382 31.9108 16.1423 30.7886 14.9526 29.6605C14.3665 29.105 14.3715 28.7001 14.9521 28.1514C15.6331 27.5076 16.3215 26.8706 16.9929 26.2189C17.0788 26.1353 17.1496 25.9524 17.1092 25.8631C17.0671 25.7701 16.8823 25.6834 16.7588 25.6813C15.7656 25.667 14.7724 25.6744 13.7786 25.6728C13.0673 25.6712 12.7422 25.3657 12.7388 24.6917C12.7349 23.8767 12.7377 23.0616 12.7377 22.247C12.7355 22.247 12.7343 22.247 12.7327 22.247ZM14.5697 23.9459C14.7292 23.9528 14.8679 23.9639 15.006 23.9644C15.8437 23.9676 16.6808 23.966 17.5185 23.9702C18.1653 23.9734 18.3887 24.1341 18.6178 24.7113C18.7514 25.048 18.9002 25.3805 19.063 25.7056C19.3145 26.2083 19.2775 26.4964 18.8586 26.897C18.4011 27.3353 17.9345 27.7655 17.4741 28.2016C17.2293 28.4337 16.9885 28.6694 16.7745 28.8761C17.6448 29.6923 18.4769 30.4735 19.328 31.2717C19.4072 31.203 19.5133 31.1168 19.6121 31.0238C20.2146 30.4571 20.8142 29.8878 21.4166 29.3217C21.8394 28.9242 22.1274 28.8835 22.6799 29.1166C23.0673 29.28 23.4564 29.4428 23.855 29.5802C24.3131 29.7382 24.5388 30.0269 24.536 30.4857C24.531 31.3008 24.5338 32.1159 24.5332 32.931C24.5332 33.071 24.5332 33.2117 24.5332 33.3396C25.7869 33.3396 26.9711 33.3396 28.1484 33.3396C28.1602 33.2809 28.1697 33.255 28.1697 33.2291C28.1709 32.3474 28.1697 31.4652 28.1709 30.5835C28.172 29.9883 28.3578 29.7536 28.9563 29.5416C29.3269 29.41 29.693 29.2646 30.054 29.1113C30.5705 28.892 30.8726 28.9306 31.2841 29.3096C31.74 29.7303 32.192 30.1558 32.6383 30.5856C32.8921 30.8298 33.1318 31.0867 33.3722 31.3314C34.2744 30.4809 35.1048 29.6981 35.9582 28.8936C35.8656 28.8005 35.7729 28.7027 35.6747 28.6102C35.0632 28.033 34.4479 27.4595 33.8398 26.8796C33.4665 26.5233 33.4182 26.2056 33.6315 25.7505C33.8033 25.3847 33.9684 25.0163 34.1234 24.6436C34.3311 24.1431 34.5664 23.9734 35.1458 23.9681C35.8408 23.9612 36.5365 23.9692 37.2321 23.9702C37.5263 23.9707 37.82 23.9702 38.1338 23.9702C38.1338 22.8015 38.1338 21.6877 38.1338 20.5449C37.1153 20.5449 36.1244 20.5486 35.134 20.5433C34.5944 20.5407 34.3294 20.353 34.1374 19.8873C33.9942 19.5395 33.8466 19.1922 33.6821 18.8529C33.3935 18.2566 33.4378 18.0029 33.9392 17.5351C34.6208 16.8987 35.3013 16.2612 35.9576 15.6464C35.0795 14.8207 34.239 14.03 33.3935 13.235C32.708 13.874 32.0039 14.5316 31.2982 15.1881C30.8933 15.5645 30.5379 15.6131 30.0276 15.3869C29.6946 15.2394 29.3572 15.0988 29.013 14.9772C28.3314 14.7367 28.1754 14.539 28.1748 13.8534C28.1742 12.9617 28.1748 12.0699 28.1748 11.1692C26.9458 11.1692 25.7639 11.1692 24.5366 11.1692C24.5366 12.118 24.5383 13.0373 24.536 13.9565C24.5349 14.5195 24.362 14.7404 23.8011 14.9471C23.4058 15.093 23.0145 15.2494 22.6249 15.4096C22.169 15.5973 21.822 15.5523 21.4598 15.223C21.0921 14.8889 20.7367 14.5432 20.3751 14.2039C20.018 13.8687 19.6598 13.5347 19.3275 13.2233C18.4516 14.0458 17.6195 14.8276 16.7717 15.6237C16.8543 15.7061 16.9475 15.8039 17.0457 15.8964C17.6476 16.4636 18.2551 17.0255 18.8508 17.5985C19.2741 18.0055 19.3084 18.2825 19.0625 18.7926C18.9047 19.1203 18.7587 19.4534 18.6228 19.7901C18.3842 20.3816 18.145 20.5444 17.4842 20.5433C16.6471 20.5428 15.8094 20.5439 14.9723 20.5444C14.8375 20.5444 14.7028 20.5444 14.5692 20.5444C14.5697 21.7099 14.5697 22.8147 14.5697 23.9459Z" fill="#231F20" stroke="#231F20" stroke-width="1.2" mask="url(#path-1-inside-1_2611_105)"/>
<path d="M15.8325 35.3939C11.3873 35.3822 6.29728 31.7775 5.98567 26.1914H5.98648H5.98997H5.99345H5.99693H6.00041H6.00389H6.00738H6.01086H6.01434H6.01782H6.0213H6.02478H6.02826H6.03174H6.03522H6.0387H6.04218H6.04566H6.04914H6.05262H6.0561H6.05958H6.06306H6.06654H6.07002H6.07349H6.07697H6.08045H6.08393H6.08741H6.09089H6.09436H6.09784H6.10132H6.1048H6.10827H6.11175H6.11523H6.11871H6.12218H6.12566H6.12914H6.13262H6.13609H6.13957H6.14305H6.14652H6.15H6.15348H6.15695H6.16043H6.16391H6.16738H6.17086H6.17434H6.17781H6.18129H6.18476H6.18824H6.19172H6.19519H6.19867H6.20215H6.20562H6.2091H6.21257H6.21605H6.21953H6.223H6.22648H6.22996H6.23343H6.23691H6.24039H6.24386H6.24734H6.25082H6.25429H6.25777H6.26125H6.26472H6.2682H6.27168H6.27515H6.27863H6.28211H6.28558H6.28906H6.29254H6.29602H6.29949H6.30297H6.30645H6.30993H6.3134H6.31688H6.32036H6.32384H6.32732H6.33079H6.33427H6.33775H6.34123H6.34471H6.34819H6.35167H6.35515H6.35863H6.36211H6.36559H6.36907H6.37255H6.37603H6.37951H6.38299H6.38647H6.38995H6.39343H6.39691H6.40039H6.40387H6.40735H6.41084H6.41432H6.4178H6.42128H6.42476H6.42825H6.43173H6.43521H6.4387H6.44218H6.44566H6.44915H6.45263H6.45612H6.4596H6.46309H6.46657H6.47006H6.47354H6.47703H6.48052H6.484H6.48749H6.49098H6.49446H6.49795H6.50144H6.50493H6.50842H6.5119H6.51539H6.51888H6.52237H6.52586H6.52935H6.53284H6.53633H6.53982H6.54331H6.54681H6.5503H6.55379H6.55728H6.56078H6.56427H6.56776H6.57126H6.57475H6.57824H6.58174H6.58523H6.58873H6.59223H6.59572H6.59922H6.60272H6.60621H6.60971H6.61321H6.61671H6.62021H6.62371H6.62721H6.63071H6.63421H6.63771H6.64121H6.64471H6.64821H6.65171H6.65522H6.65872H6.66222H6.66573H6.66923H6.67274H6.67624H6.67975H6.68325H6.68676H6.69027H6.69377H6.69728H6.70079H6.7043H6.70781H6.71132H6.71483H6.71834H6.72185H6.72536H6.72887H6.73239H6.7359H6.73941H6.74293H6.74644H6.74996H6.75347H6.75699H6.76051H6.76402H6.76754H6.77106H6.77458H6.7781H6.78162H6.78514H6.78866H6.79218H6.79347C6.95468 28.4445 7.86186 30.4278 9.58472 32.0603L9.92862 31.6973L9.58472 32.0603C11.3192 33.7037 13.4256 34.5533 15.8325 34.7157V34.7163V34.7196V34.7228V34.726V34.7292V34.7325V34.7357V34.7389V34.7421V34.7453V34.7486V34.7518V34.755V34.7582V34.7614V34.7647V34.7679V34.7711V34.7743V34.7775V34.7807V34.784V34.7872V34.7904V34.7936V34.7968V34.8V34.8033V34.8065V34.8097V34.8129V34.8161V34.8193V34.8225V34.8258V34.829V34.8322V34.8354V34.8386V34.8418V34.845V34.8482V34.8515V34.8547V34.8579V34.8611V34.8643V34.8675V34.8707V34.8739V34.8771V34.8803V34.8836V34.8868V34.89V34.8932V34.8964V34.8996V34.9028V34.906V34.9092V34.9124V34.9156V34.9188V34.922V34.9253V34.9285V34.9317V34.9349V34.9381V34.9413V34.9445V34.9477V34.9509V34.9541V34.9573V34.9605V34.9637V34.9669V34.9701V34.9733V34.9765V34.9797V34.9829V34.9861V34.9893V34.9925V34.9957V34.9989V35.0021V35.0053V35.0085V35.0117V35.0149V35.0181V35.0213V35.0245V35.0277V35.0309V35.0341V35.0373V35.0405V35.0437V35.0469V35.0501V35.0533V35.0565V35.0597V35.0629V35.0661V35.0693V35.0725V35.0757V35.0789V35.0821V35.0853V35.0885V35.0917V35.0949V35.0981V35.1013V35.1045V35.1077V35.1109V35.1141V35.1172V35.1204V35.1236V35.1268V35.13V35.1332V35.1364V35.1396V35.1428V35.146V35.1492V35.1524V35.1556V35.1588V35.162V35.1651V35.1683V35.1715V35.1747V35.1779V35.1811V35.1843V35.1875V35.1907V35.1939V35.1971V35.2002V35.2034V35.2066V35.2098V35.213V35.2162V35.2194V35.2226V35.2258V35.2289V35.2321V35.2353V35.2385V35.2417V35.2449V35.2481V35.2513V35.2544V35.2576V35.2608V35.264V35.2672V35.2704V35.2736V35.2768V35.2799V35.2831V35.2863V35.2895V35.2927V35.2959V35.2991V35.3022V35.3054V35.3086V35.3118V35.315V35.3182V35.3214V35.3245V35.3277V35.3309V35.3341V35.3373V35.3405V35.3436V35.3468V35.35V35.3532V35.3564V35.3596V35.3627V35.3659V35.3691V35.3723V35.3755V35.3787V35.3818V35.385V35.3882V35.3914V35.3939Z" fill="#D7282F" stroke="#D7282F"/>
<path d="M22.0026 8.25249L16.4077 2.07479C16.4077 2.07479 6.43353 10.6861 2.47867 21.8522C2.47867 21.8522 -1.278 31.2189 9.00385 37.4859C9.00385 37.4859 15.8805 41.7057 23.0867 37.8443L23.9946 39.2784C23.9946 39.2784 16.7592 43.4152 8.02973 38.8645C8.02973 38.8645 -2.57439 33.1832 0.589386 21.655C0.589386 21.655 3.70937 11.506 15.6604 0.377995C15.6604 0.377995 16.1876 -0.29755 16.7738 0.157571L23.3938 7.17838L22.0026 8.25249Z" fill="#231F20"/>
<path d="M26.7103 17.5934L26.7103 17.5934H26.7079H26.5911C26.2802 17.5934 25.9747 17.6229 25.6796 17.6769C23.4331 18.08 21.7184 19.9641 21.7184 22.2249C21.7184 23.8239 22.5761 25.238 23.8767 26.0694L23.8778 26.0701C24.1463 26.2368 24.4307 26.3842 24.7361 26.507L24.7365 26.5072C25.3069 26.7336 25.9338 26.8565 26.5911 26.8565C29.2714 26.8565 31.4638 24.7822 31.4638 22.2249C31.4638 19.6681 29.3383 17.6572 26.7103 17.5934ZM25.355 25.4859L25.355 25.4859L25.3538 25.4855C25.0615 25.3867 24.7853 25.2554 24.5346 25.0874L24.5346 25.0874L24.5333 25.0865C23.5689 24.462 22.9338 23.4124 22.9338 22.2249C22.9338 20.5705 24.1651 19.1807 25.8091 18.8374C26.0617 18.7857 26.324 18.7575 26.5911 18.7575C26.6633 18.7575 26.7276 18.7577 26.7909 18.7663L26.7908 18.7666L26.7992 18.767C28.7259 18.8658 30.2483 20.3834 30.2483 22.2249C30.2483 24.0655 28.6111 25.6924 26.5911 25.6924C26.1551 25.6924 25.7399 25.6218 25.355 25.4859Z" fill="#D7282F" stroke="#D7282F" stroke-width="0.2"/>
</g>
<defs>
<clipPath id="clip0_2611_105">
<rect width="40" height="41" fill="white"/>
</clipPath>
</defs>
</svg>
