<svg width="26" height="25" viewBox="0 0 26 25" fill="none" xmlns="http://www.w3.org/2000/svg">
<circle cx="13" cy="12.5" r="12.5" fill="#D7282F"/>
<path d="M10.8349 13.6509H13.4388C12.9817 14.9431 11.7438 15.8696 10.2945 15.8589C8.53605 15.8459 7.08202 14.4392 7.01376 12.682C6.94058 10.7984 8.45174 9.24265 10.3194 9.24265C11.1733 9.24265 11.9526 9.56803 12.5401 10.1012C12.6792 10.2275 12.8911 10.2283 13.0279 10.0995L13.9843 9.19934C14.1339 9.05855 14.1344 8.82079 13.9853 8.67953C13.0536 7.79685 11.8038 7.24667 10.4255 7.21975C7.48581 7.16236 5.00791 9.57261 4.98744 12.5128C4.96678 15.4751 7.3619 17.8829 10.3194 17.8829C13.1635 17.8829 15.487 15.656 15.6426 12.8507C15.6467 12.8156 15.6495 11.6269 15.6495 11.6269H10.8349C10.6375 11.6269 10.4776 11.7869 10.4776 11.9842V13.2935C10.4776 13.4909 10.6375 13.6509 10.8349 13.6509Z" fill="white"/>
<path d="M20.0619 11.7447V10.4655C20.0619 10.2925 19.9218 10.1523 19.7488 10.1523H18.6721C18.4992 10.1523 18.359 10.2925 18.359 10.4655V11.7447H17.0797C16.9068 11.7447 16.7666 11.8849 16.7666 12.0578V13.1346C16.7666 13.3075 16.9068 13.4477 17.0797 13.4477H18.359V14.7269C18.359 14.8999 18.4992 15.0401 18.6721 15.0401H19.7488C19.9218 15.0401 20.0619 14.8999 20.0619 14.7269V13.4477H21.3412C21.5141 13.4477 21.6543 13.3075 21.6543 13.1346V12.0578C21.6543 11.8849 21.5141 11.7447 21.3412 11.7447H20.0619Z" fill="white"/>
</svg>
