<svg width="16" height="15" viewBox="0 0 16 15" fill="none" xmlns="http://www.w3.org/2000/svg">
<g clip-path="url(#clip0_273_29011)">
<path d="M11.4069 5.90198H4.44415C4.15811 5.90198 3.9209 5.66477 3.9209 5.37872C3.9209 5.09268 4.15811 4.85547 4.44415 4.85547H11.4069C11.693 4.85547 11.9302 5.09268 11.9302 5.37872C11.9302 5.66477 11.693 5.90198 11.4069 5.90198Z" fill="white"/>
<path d="M7.9256 5.9022C7.63955 5.9022 7.40234 5.66499 7.40234 5.37894V4.20685C7.40234 3.9208 7.63955 3.68359 7.9256 3.68359C8.21165 3.68359 8.44886 3.9208 8.44886 4.20685V5.37894C8.44886 5.66499 8.21165 5.9022 7.9256 5.9022Z" fill="white"/>
<path d="M4.43732 11.3162C4.15127 11.3162 3.91406 11.079 3.91406 10.793C3.91406 10.5069 4.15127 10.2697 4.43732 10.2697C7.03267 10.2697 9.14662 8.07203 9.14662 5.36505C9.14662 5.07901 9.38383 4.8418 9.66988 4.8418C9.95592 4.8418 10.1931 5.07901 10.1931 5.36505C10.1931 8.6511 7.61174 11.3162 4.43732 11.3162Z" fill="white"/>
<path d="M11.4145 11.3159C10.0401 11.3159 8.76336 10.6321 7.82847 9.3833C7.65406 9.15307 7.70289 8.82516 7.93313 8.65074C8.16336 8.47632 8.49127 8.52516 8.66568 8.75539C9.40522 9.73214 10.382 10.2693 11.4215 10.2693C11.7075 10.2693 11.9448 10.5066 11.9448 10.7926C11.9448 11.0786 11.7006 11.3159 11.4145 11.3159Z" fill="white"/>
<path d="M10.0188 15H5.83276C2.04439 15 0.425781 13.3814 0.425781 9.59302V5.40698C0.425781 1.6186 2.04439 0 5.83276 0H10.0188C13.8072 0 15.4258 1.6186 15.4258 5.40698V9.59302C15.4258 13.3814 13.8072 15 10.0188 15ZM5.83276 1.04651C2.61648 1.04651 1.47229 2.1907 1.47229 5.40698V9.59302C1.47229 12.8093 2.61648 13.9535 5.83276 13.9535H10.0188C13.2351 13.9535 14.3793 12.8093 14.3793 9.59302V5.40698C14.3793 2.1907 13.2351 1.04651 10.0188 1.04651H5.83276Z" fill="white"/>
</g>
<defs>
<clipPath id="clip0_273_29011">
<rect width="15" height="15" fill="white" transform="translate(0.425781)"/>
</clipPath>
</defs>
</svg>
