<svg width="26" height="25" viewBox="0 0 26 25" fill="none" xmlns="http://www.w3.org/2000/svg">
<circle cx="13" cy="12.5" r="12.5" fill="#0A66C2"/>
<path d="M9.72823 6.66384C9.72805 7.04691 9.58415 7.41421 9.32821 7.68494C9.07226 7.95568 8.72522 8.10767 8.36343 8.10748C8.00165 8.10729 7.65475 7.95493 7.39906 7.68392C7.14336 7.41292 6.99982 7.04546 7 6.66239C7.00018 6.27932 7.14407 5.91202 7.40002 5.64128C7.65597 5.37055 8.00301 5.21856 8.3648 5.21875C8.72658 5.21894 9.07348 5.3713 9.32917 5.64231C9.58486 5.91331 9.72841 6.28077 9.72823 6.66384ZM9.76915 9.17703H7.04092V18.2187H9.76915V9.17703ZM14.0797 9.17703H11.3652V18.2187H14.0525V13.474C14.0525 10.8308 17.3059 10.5853 17.3059 13.474V18.2187H20V12.4918C20 8.03598 15.1847 8.20208 14.0525 10.3903L14.0797 9.17703Z" fill="white"/>
</svg>
