<svg width="21" height="21" viewBox="0 0 21 21" fill="none" xmlns="http://www.w3.org/2000/svg">
<path d="M3.30988 0.466797C2.0082 0.466797 0.933594 1.51412 0.933594 2.78275V13.0758C0.933594 14.3445 2.0082 15.3918 3.30988 15.3918H5.90795L5.45382 19.6866C5.42213 20.0006 5.60695 20.3248 5.90003 20.4612C6.1931 20.5976 6.56803 20.5358 6.79774 20.3145L11.8645 15.3918H18.6237C19.9254 15.3918 21 14.3445 21 13.0758V2.78275C21 1.51412 19.9254 0.466797 18.6237 0.466797H3.30988ZM3.30988 2.01076H18.6237C19.0752 2.01076 19.4158 2.34272 19.4158 2.78275V13.0758C19.4158 13.5159 19.0752 13.8478 18.6237 13.8478H11.5345C11.3259 13.8478 11.1199 13.9302 10.9721 14.0743L7.25187 17.6846L7.56607 14.6919C7.60831 14.2673 7.22019 13.8504 6.78189 13.8478H3.30988C2.85838 13.8478 2.51778 13.5159 2.51778 13.0758V2.78275C2.51778 2.34272 2.85838 2.01076 3.30988 2.01076Z" fill="#231F20"/>
<path d="M4.36621 4.58351C4.36621 4.15634 4.72001 3.81152 5.15831 3.81152H16.7757C17.214 3.81152 17.5678 4.15634 17.5678 4.58351C17.5678 5.01067 17.214 5.35549 16.7757 5.35549H5.15831C4.72001 5.35549 4.36621 5.01067 4.36621 4.58351Z" fill="#D7282F"/>
<path d="M4.36621 7.92876C4.36621 7.5016 4.72001 7.15678 5.15831 7.15678H16.7757C17.214 7.15678 17.5678 7.5016 17.5678 7.92876C17.5678 8.35593 17.214 8.70075 16.7757 8.70075H5.15831C4.72001 8.70075 4.36621 8.35593 4.36621 7.92876Z" fill="#D7282F"/>
<path d="M4.36621 11.274C4.36621 10.8469 4.72001 10.502 5.15831 10.502H16.7757C17.214 10.502 17.5678 10.8469 17.5678 11.274C17.5678 11.7012 17.214 12.046 16.7757 12.046H5.15831C4.72001 12.046 4.36621 11.7012 4.36621 11.274Z" fill="#D7282F"/>
</svg>
