<svg width="347" height="347" viewBox="0 0 347 347" fill="none" xmlns="http://www.w3.org/2000/svg">
<circle cx="173.5" cy="173.5" r="173.5" fill="#FFF6F7"/>
<path d="M62.5 144C67.5 153 60 156 54.5 153L51 156C56.2 161.2 63 160 66 157C72.5192 150.481 68.8333 144.5 66.5 141L62.5 144Z" fill="#DCFDFF"/>
<g clip-path="url(#clip0_3228_214)">
<path d="M213.085 227.767C213.085 228.317 213.085 228.866 213.085 229.416C213.085 234.361 213.085 239.307 213.085 244.252C213.085 244.527 213.085 245.077 213.085 245.351C212.811 245.901 212.263 246.725 211.715 247C211.167 247.275 210.345 247 209.523 246.725C209.249 246.725 208.975 246.176 208.702 245.901C202.949 240.131 197.47 234.636 191.991 228.866C191.169 228.042 190.347 227.767 189.252 227.767C169.802 227.767 150.078 227.767 130.628 227.767C121.862 227.767 114.739 222.547 112.548 214.304C112.274 212.656 112 210.733 112 209.084C112 190.95 112 172.817 112 154.683C112 144.517 119.67 136.55 129.806 136C130.354 136 130.628 136 131.176 136C159.392 136 187.882 136 216.098 136C224.59 136 231.713 140.946 234.178 148.639C234.726 150.562 235 152.485 235 154.408C235 172.817 235 190.95 235 209.359C235 219.25 227.056 227.493 217.194 227.767C215.824 227.767 214.454 227.767 213.085 227.767ZM208.702 239.856C208.975 239.856 208.976 239.582 209.249 239.582C209.249 239.032 209.249 238.757 209.249 238.208C209.249 234.087 209.249 230.24 209.249 226.119C209.249 223.921 209.797 223.371 211.989 223.371C213.633 223.371 215.276 223.371 217.194 223.371C225.138 223.097 231.165 217.052 231.165 209.084C231.165 190.95 231.165 172.542 231.165 154.408C231.165 152.485 230.617 150.287 229.795 148.364C227.056 142.594 222.399 139.847 216.098 139.847C187.882 139.847 159.666 139.847 131.724 139.847C131.45 139.847 131.176 139.847 130.902 139.847C122.136 140.396 116.109 146.441 116.109 154.958C116.109 172.817 116.109 190.95 116.109 208.809C116.109 211.007 116.657 213.205 117.479 215.129C120.218 220.899 124.875 223.646 131.176 223.646C151.174 223.646 170.898 223.646 190.895 223.646C192.265 223.646 193.087 223.921 194.183 225.02C198.84 229.691 203.497 234.361 208.154 239.032C208.154 239.307 208.428 239.582 208.702 239.856Z" fill="#231F20"/>
<path d="M184.868 163.751C177.198 163.751 169.801 163.751 162.131 163.751C161.583 163.751 161.035 163.751 160.487 163.476C159.666 163.202 159.118 162.103 159.392 161.278C159.666 160.729 160.487 160.179 161.035 159.63C161.309 159.355 161.857 159.63 162.405 159.63C177.472 159.63 192.539 159.63 207.605 159.63C207.879 159.63 208.153 159.63 208.153 159.63C209.523 159.63 210.345 160.454 210.619 161.553C210.619 162.652 209.797 163.751 208.153 163.751C200.209 163.751 192.539 163.751 184.868 163.751Z" fill="#231F20"/>
<path d="M161.31 202.766C154.188 202.766 146.791 202.766 139.669 202.766C139.121 202.766 138.847 202.766 138.299 202.766C137.203 202.216 136.655 201.667 136.655 200.568C136.655 199.469 137.203 198.645 138.573 198.645C138.847 198.645 139.121 198.645 139.669 198.645C154.188 198.645 168.706 198.645 183.225 198.645C183.499 198.645 184.047 198.645 184.321 198.645C185.417 198.919 185.965 199.469 185.965 200.568C185.965 201.667 185.417 202.491 184.321 202.766C183.773 202.766 183.499 202.766 182.951 202.766C175.829 202.766 168.433 202.766 161.31 202.766Z" fill="#231F20"/>
<path d="M161.31 183.257C154.188 183.257 147.065 183.257 139.943 183.257C139.395 183.257 138.847 183.257 138.299 183.257C137.203 182.982 136.655 182.158 136.655 181.333C136.655 180.234 137.203 179.685 138.025 179.41C138.573 179.41 139.121 179.41 139.669 179.41C154.188 179.41 168.433 179.41 182.951 179.41C183.499 179.41 184.047 179.41 184.595 179.41C185.691 179.685 185.965 180.509 185.965 181.333C185.965 182.432 185.417 182.982 184.321 183.257C183.773 183.257 183.225 183.257 182.678 183.257C175.555 183.257 168.433 183.257 161.31 183.257Z" fill="#231F20"/>
<path d="M202.401 183.258C200.483 183.258 198.566 183.258 196.648 183.258C195.278 183.258 194.183 182.434 194.183 181.06C194.183 179.961 195.004 179.137 196.374 179.137C200.209 179.137 204.045 179.137 207.88 179.137C209.249 179.137 210.071 179.961 210.345 181.06C210.345 182.159 209.523 183.258 207.88 183.258C205.962 183.258 204.318 183.258 202.401 183.258Z" fill="#231F20"/>
<path d="M144.052 163.75C142.408 163.75 140.764 163.75 138.847 163.75C137.751 163.75 136.655 162.926 136.655 161.827C136.655 160.728 137.477 159.629 139.121 159.629C142.408 159.629 145.969 159.629 149.257 159.629C150.9 159.629 151.722 160.453 151.722 161.827C151.722 163.201 150.9 163.75 149.257 163.75C147.613 163.75 145.969 163.75 144.052 163.75Z" fill="#231F20"/>
</g>
<path fill-rule="evenodd" clip-rule="evenodd" d="M229.9 108C235.023 108 240.03 109.519 244.289 112.365C248.549 115.211 251.868 119.256 253.828 123.988C255.789 128.721 256.302 133.929 255.302 138.953C254.303 143.977 251.836 148.592 248.214 152.214C244.592 155.836 239.977 158.303 234.953 159.302C229.929 160.302 224.721 159.789 219.989 157.828C215.256 155.868 211.211 152.549 208.365 148.289C205.519 144.03 204 139.023 204 133.9C204.003 127.032 206.732 120.445 211.589 115.589C216.445 110.732 223.032 108.003 229.9 108Z" fill="#D7282F"/>
<path d="M239.133 134.703C239.133 137.008 238.951 139.072 238.586 140.895C238.234 142.704 237.674 144.241 236.906 145.504C236.138 146.767 235.135 147.73 233.898 148.395C232.661 149.059 231.164 149.391 229.406 149.391C227.206 149.391 225.389 148.811 223.957 147.652C222.525 146.48 221.464 144.801 220.773 142.613C220.083 140.413 219.738 137.776 219.738 134.703C219.738 131.63 220.051 129 220.676 126.812C221.314 124.612 222.342 122.926 223.762 121.754C225.181 120.582 227.062 119.996 229.406 119.996C231.62 119.996 233.443 120.582 234.875 121.754C236.32 122.913 237.388 124.592 238.078 126.793C238.781 128.98 239.133 131.617 239.133 134.703ZM224.367 134.703C224.367 137.112 224.523 139.124 224.836 140.738C225.161 142.353 225.695 143.564 226.438 144.371C227.18 145.165 228.169 145.562 229.406 145.562C230.643 145.562 231.633 145.165 232.375 144.371C233.117 143.577 233.651 142.372 233.977 140.758C234.315 139.143 234.484 137.125 234.484 134.703C234.484 132.307 234.322 130.302 233.996 128.688C233.671 127.073 233.137 125.862 232.395 125.055C231.652 124.234 230.656 123.824 229.406 123.824C228.156 123.824 227.16 124.234 226.418 125.055C225.689 125.862 225.161 127.073 224.836 128.688C224.523 130.302 224.367 132.307 224.367 134.703Z" fill="white"/>
<circle cx="134.5" cy="55.5" r="8.5" stroke="#455A64" stroke-width="2"/>
<circle cx="167.5" cy="97.5" r="4.5" fill="#D7282F"/>
<path d="M78.8301 86.7441H85.8613V89.873H78.8301V96.9746H75.7012V89.873H68.6875V86.7441H75.7012V79.5723H78.8301V86.7441Z" fill="#FC8F93"/>
<path d="M218 63H214.555L209.912 57.264L205.243 63H202L208.132 55.7414L202.416 49H205.76L210.05 54.3051L214.315 49H217.558L211.817 55.8085L218 63Z" fill="#FC8F93"/>
<defs>
<clipPath id="clip0_3228_214">
<rect width="123" height="111" fill="white" transform="translate(112 136)"/>
</clipPath>
</defs>
</svg>
