<?xml version="1.0" encoding="utf-8"?>
<!-- Generator: Adobe Illustrator 24.0.1, SVG Export Plug-In . SVG Version: 6.00 Build 0)  -->
<svg version="1.1" id="Layer_1" xmlns="http://www.w3.org/2000/svg" xmlns:xlink="http://www.w3.org/1999/xlink" x="0px" y="0px"
	 viewBox="0 0 347 347" style="enable-background:new 0 0 347 347;" xml:space="preserve">
<style type="text/css">
	.st0{fill:#FFF6F7;}
	.st1{fill:#202020;}
	.st2{fill:#DCFDFF;}
	.st3{fill-rule:evenodd;clip-rule:evenodd;fill:#D7282F;}
	.st4{fill:#FFFFFF;}
	.st5{fill:none;stroke:#455A64;stroke-width:2;}
	.st6{fill:#D7282F;}
	.st7{fill:#FC8F93;}
</style>
<circle class="st0" cx="173.5" cy="173.5" r="173.5"/>
<g>
	<g>
		<g>
			<path class="st1" d="M172,250.7c-1.6,0-3.2-0.7-4.8-2l-5.3-4.6c-10.6-9.2-21.7-18.8-32.4-28.3c-6.8-6.1-12.3-12.3-16.7-19.1
				c-8.5-13.1-10.3-26.8-5.3-40.6c4.8-13.3,14.1-21.3,27.4-23.9c2.5-0.5,5-0.7,7.4-0.7c10.4,0,19.5,4.7,27.2,14
				c0.3,0.4,0.6,0.8,1,1.3l1.4,1.8l1.3-1.7c0.4-0.5,0.7-0.9,1-1.3c5.7-7,12.2-11.3,19.8-13.1c2.6-0.6,5.3-0.9,8-0.9
				c11.9,0,22.9,5.8,29.6,15.6c3.9,5.8,6.3,12.5,7.1,19.8c0,0.4,0.1,0.7,0.2,1.1l0.1,0.3v5.9c-0.1,0.8-0.3,1.6-0.4,2.4
				c-0.3,1.8-0.6,3.6-1,5.4c-1.5,6.1-4.5,12.1-9.1,18.3c-6.6,8.8-14.7,16.3-22.5,23.1c-8.8,7.7-17.9,15.5-26.6,23l-2.4,2.1
				C175.5,249.9,173.7,250.7,172,250.7z M142.3,137.3c-2.1,0-4.4,0.2-6.6,0.7c-11.1,2.4-18.6,9.3-22.5,20.4
				c-4.2,12-2.5,23.8,4.9,35.1c4.1,6.2,9.2,12,15.7,17.8c7.1,6.4,14.4,12.8,21.5,18.9c2.6,2.3,5.2,4.5,7.8,6.8
				c1.9,1.7,3.8,3.3,5.7,4.9l3.3,2.8l1-0.8c0.2-0.2,0.4-0.3,0.6-0.5c3.2-2.7,6.3-5.5,9.5-8.2c7.5-6.5,15.2-13.1,22.8-19.8
				c6.7-5.9,14.3-13.1,20.2-22.1c5.7-8.6,8-17.6,6.8-26.9c-1.4-11.5-6.6-19.9-15.4-25.1c-4.9-2.9-10-4.3-15-4.3c-4.2,0-8.5,1-12.6,3
				c-4.9,2.4-9.1,6.2-13.1,12c-0.2,0.3-0.4,0.6-0.6,0.9c-0.3,0.4-0.5,0.8-0.8,1.2c-0.9,1.2-2.1,1.8-3.3,1.8c-1.3,0-2.5-0.7-3.4-1.8
				c-0.5-0.7-1.1-1.4-1.6-2.1c-1.4-1.9-2.8-3.9-4.4-5.6C156.8,140.5,150,137.3,142.3,137.3z"/>
		</g>
	</g>
</g>
<path class="st2" d="M62.5,144c5,9-2.5,12-8,9l-3.5,3c5.2,5.2,12,4,15,1c6.5-6.5,2.8-12.5,0.5-16L62.5,144z"/>
<path class="st3" d="M229.9,108c5.1,0,10.1,1.5,14.4,4.4c4.3,2.8,7.6,6.9,9.5,11.6c2,4.7,2.5,9.9,1.5,15c-1,5-3.5,9.6-7.1,13.3
	c-3.6,3.6-8.2,6.1-13.3,7.1c-5,1-10.2,0.5-15-1.5c-4.7-2-8.8-5.3-11.6-9.5c-2.8-4.3-4.4-9.3-4.4-14.4c0-6.9,2.7-13.5,7.6-18.3
	C216.4,110.7,223,108,229.9,108z"/>
<path class="st4" d="M239.1,134.7c0,2.3-0.2,4.4-0.5,6.2c-0.4,1.8-0.9,3.3-1.7,4.6c-0.8,1.3-1.8,2.2-3,2.9c-1.2,0.7-2.7,1-4.5,1
	c-2.2,0-4-0.6-5.4-1.7c-1.4-1.2-2.5-2.9-3.2-5c-0.7-2.2-1-4.8-1-7.9s0.3-5.7,0.9-7.9c0.6-2.2,1.7-3.9,3.1-5.1
	c1.4-1.2,3.3-1.8,5.6-1.8c2.2,0,4,0.6,5.5,1.8c1.4,1.2,2.5,2.8,3.2,5C238.8,129,239.1,131.6,239.1,134.7z M224.4,134.7
	c0,2.4,0.2,4.4,0.5,6c0.3,1.6,0.9,2.8,1.6,3.6c0.7,0.8,1.7,1.2,3,1.2s2.2-0.4,3-1.2c0.7-0.8,1.3-2,1.6-3.6c0.3-1.6,0.5-3.6,0.5-6.1
	c0-2.4-0.2-4.4-0.5-6c-0.3-1.6-0.9-2.8-1.6-3.6c-0.7-0.8-1.7-1.2-3-1.2s-2.2,0.4-3,1.2c-0.7,0.8-1.3,2-1.6,3.6
	C224.5,130.3,224.4,132.3,224.4,134.7z"/>
<circle class="st5" cx="134.5" cy="55.5" r="8.5"/>
<circle class="st6" cx="167.5" cy="97.5" r="4.5"/>
<path class="st7" d="M78.8,86.7h7v3.1h-7V97h-3.1v-7.1h-7v-3.1h7v-7.2h3.1V86.7z"/>
<path class="st7" d="M218,63h-3.4l-4.6-5.7l-4.7,5.7H202l6.1-7.3l-5.7-6.7h3.3l4.3,5.3l4.3-5.3h3.2l-5.7,6.8L218,63z"/>
</svg>
