<svg width="20" height="23" viewBox="0 0 20 23" fill="none" xmlns="http://www.w3.org/2000/svg">
<path fill-rule="evenodd" clip-rule="evenodd" d="M5.29772 8.20628L13.4238 3.7218L10 1.83263L1.87391 6.31253L5.29772 8.20628ZM14.9737 3.16239L10.2846 0.576242C10.1095 0.475364 9.8993 0.475364 9.72417 0.571656L0.354641 5.74394C0.140105 5.84024 0 6.06492 0 6.31253V16.6892C0 16.9185 0.122592 17.134 0.319615 17.2394L9.68914 22.4071C9.88179 22.531 10.1226 22.531 10.3152 22.4071L19.6454 17.2624C19.8599 17.1615 20 16.9368 20 16.6892V6.31253C20 6.07867 19.8774 5.86775 19.6804 5.7577L14.9869 3.17156L14.9737 3.16239ZM14.7023 4.42794L18.1261 6.31711L10 10.8016L6.57618 8.91243C6.57618 8.90784 14.7023 4.42794 14.7023 4.42794ZM10.5998 11.8792V20.8435L18.8091 16.3132V7.34882L10.5998 11.8792ZM9.40455 20.8435L1.19527 16.3132V7.34882L9.40455 11.8792V20.8435Z" fill="black"/>
</svg>
