<svg width="15" height="16" viewBox="0 0 15 16" fill="none" xmlns="http://www.w3.org/2000/svg">
<path d="M3.12495 2.39999C2.22765 2.39999 1.5 3.12749 1.5 4.02494C1.5 4.92239 2.22765 5.64989 3.12495 5.64989C4.0224 5.64989 4.75005 4.92239 4.75005 4.02494C4.75005 3.12749 4.0224 2.39999 3.12495 2.39999ZM3.12495 4.64999C2.78025 4.64999 2.50005 4.36964 2.50005 4.02494C2.50005 3.68024 2.78025 3.39989 3.12495 3.39989C3.4698 3.39989 3.75 3.68024 3.75 4.02494C3.75 4.36964 3.4698 4.64999 3.12495 4.64999Z" fill="#8A8A8A"/>
<path d="M11.8751 5.65004C12.772 5.65004 13.5001 4.92254 13.5001 4.02509C13.5001 3.12749 12.772 2.39999 11.8751 2.39999C10.9781 2.39999 10.25 3.12749 10.25 4.02494C10.25 4.92239 10.9781 5.65004 11.8751 5.65004ZM11.8751 3.40004C12.2198 3.40004 12.5 3.68039 12.5 4.02509C12.5 4.36979 12.2198 4.65014 11.8751 4.65014C11.5302 4.64999 11.2501 4.36964 11.2501 4.02494C11.2501 3.68024 11.5302 3.40004 11.8751 3.40004Z" fill="#8A8A8A"/>
<path d="M7.49995 6.77505C6.6025 6.77505 5.875 7.5027 5.875 8.4C5.875 9.29746 6.6025 10.025 7.49995 10.025C8.3968 10.025 9.1249 9.29746 9.1249 8.4C9.1249 7.50256 8.3968 6.77505 7.49995 6.77505ZM7.49995 9.02505C7.15525 9.02505 6.8749 8.74486 6.8749 8.4C6.8749 8.05531 7.15525 7.77496 7.49995 7.77496C7.84465 7.77496 8.125 8.05516 8.125 8.4C8.125 8.74486 7.84465 9.02505 7.49995 9.02505Z" fill="#8A8A8A"/>
<path d="M3.12495 6.77505C2.22765 6.77505 1.5 7.50256 1.5 8.4C1.5 9.29746 2.22765 10.025 3.12495 10.025C4.0224 10.025 4.75005 9.29746 4.75005 8.4C4.75005 7.50256 4.0224 6.77505 3.12495 6.77505ZM3.12495 9.02505C2.78025 9.02505 2.50005 8.74486 2.50005 8.4C2.50005 8.05531 2.78025 7.77496 3.12495 7.77496C3.4698 7.77496 3.75 8.05531 3.75 8.4C3.75 8.74486 3.4698 9.02505 3.12495 9.02505Z" fill="#8A8A8A"/>
<path d="M7.49995 11.1499C6.6025 11.1499 5.875 11.8776 5.875 12.775C5.875 13.6723 6.6025 14.4 7.49995 14.4C8.3968 14.4 9.1249 13.6723 9.1249 12.775C9.1249 11.8776 8.3968 11.1499 7.49995 11.1499ZM7.49995 13.3999C7.15525 13.3999 6.8749 13.1197 6.8749 12.775C6.8749 12.4302 7.15525 12.15 7.49995 12.15C7.84465 12.15 8.125 12.4302 8.125 12.775C8.125 13.1197 7.84465 13.3999 7.49995 13.3999Z" fill="#8A8A8A"/>
<path d="M7.49995 2.39999C6.6025 2.39999 5.875 3.12749 5.875 4.02494C5.875 4.92239 6.6025 5.64989 7.49995 5.64989C8.3968 5.64989 9.1249 4.92239 9.1249 4.02494C9.1249 3.12749 8.3968 2.39999 7.49995 2.39999ZM7.49995 4.64999C7.15525 4.64999 6.8749 4.36964 6.8749 4.02494C6.8749 3.68024 7.15525 3.39989 7.49995 3.39989C7.84465 3.39989 8.125 3.68024 8.125 4.02494C8.125 4.36964 7.84465 4.64999 7.49995 4.64999Z" fill="#8A8A8A"/>
<path d="M11.8751 6.77505C10.9781 6.77505 10.25 7.5027 10.25 8.4C10.25 9.29746 10.9781 10.025 11.8751 10.025C12.772 10.025 13.5001 9.29746 13.5001 8.4C13.5001 7.50256 12.772 6.77505 11.8751 6.77505ZM11.8751 9.02505C11.5302 9.02505 11.2501 8.74486 11.2501 8.4C11.2501 8.05531 11.5302 7.77496 11.8751 7.77496C12.2198 7.77496 12.5 8.05516 12.5 8.4C12.5 8.74486 12.2198 9.02505 11.8751 9.02505Z" fill="#8A8A8A"/>
</svg>
