<svg width="15" height="16" viewBox="0 0 15 16" fill="none" xmlns="http://www.w3.org/2000/svg">
<path fill-rule="evenodd" clip-rule="evenodd" d="M4.47191 5.70314L7.38879 8.89751C7.47504 8.99189 7.59629 9.04689 7.72441 9.05001C7.85254 9.05251 7.97566 9.00314 8.06629 8.91251L13.8475 3.13126C14.0307 2.94876 14.0307 2.65126 13.8475 2.46876C13.665 2.28564 13.3675 2.28564 13.185 2.46876L7.75066 7.90314L5.16441 5.07064C4.99004 4.88001 4.69316 4.86626 4.50254 5.04064C4.31129 5.21501 4.29754 5.51189 4.47191 5.70314Z" fill="#8A8A8A"/>
<path fill-rule="evenodd" clip-rule="evenodd" d="M7.73438 1.55002H3.35938C2.065 1.55002 1.01562 2.59939 1.01562 3.89377V11.7063C1.01562 13.0006 2.065 14.05 3.35938 14.05H11.1719C12.4663 14.05 13.5156 13.0006 13.5156 11.7063C13.5156 9.86502 13.5156 7.33127 13.5156 7.33127C13.5156 7.07252 13.3056 6.86252 13.0469 6.86252C12.7881 6.86252 12.5781 7.07252 12.5781 7.33127C12.5781 7.33127 12.5781 9.86502 12.5781 11.7063C12.5781 12.4831 11.9487 13.1125 11.1719 13.1125H3.35938C2.5825 13.1125 1.95312 12.4831 1.95312 11.7063V3.89377C1.95312 3.11689 2.5825 2.48752 3.35938 2.48752H7.73438C7.99312 2.48752 8.20312 2.27752 8.20312 2.01877C8.20312 1.76002 7.99312 1.55002 7.73438 1.55002Z" fill="#8A8A8A"/>
</svg>
