<svg width="9" height="16" viewBox="0 0 9 16" fill="none" xmlns="http://www.w3.org/2000/svg">
<path d="M7.51799 8.7025C7.18336 8.31455 6.78164 8.02897 6.31185 7.84501C5.90864 7.68758 5.3973 7.5294 4.77684 7.37072V3.89972C5.46388 3.93076 6.1329 4.05991 6.78415 4.28492C6.88101 4.32346 6.9586 4.34298 7.01692 4.34298C7.19112 4.34298 7.33178 4.28016 7.4384 4.15376C7.54452 4.02812 7.59808 3.88771 7.59808 3.73203C7.59808 3.44145 7.46243 3.24822 7.19137 3.15086C6.45952 2.88005 5.65485 2.72337 4.77709 2.68257V0.921548C4.77709 0.585912 4.50478 0.313599 4.16889 0.313599C3.833 0.313599 3.56069 0.585912 3.56069 0.921548V2.71361C3.07438 2.77168 2.63963 2.89131 2.25744 3.07102C1.69079 3.33708 1.26205 3.69599 0.971462 4.14601C0.680878 4.59678 0.53571 5.0981 0.53571 5.64999C0.53571 6.27971 0.709911 6.78379 1.05881 7.16147C1.40746 7.53916 1.82444 7.82223 2.30875 8.01145C2.65114 8.14536 3.06812 8.28251 3.56069 8.42292V11.8308C2.76878 11.7668 2.01742 11.5761 1.3061 11.2592C1.21875 11.2206 1.12614 11.2011 1.02953 11.2011C0.855579 11.2011 0.711913 11.2612 0.601286 11.3831C0.489908 11.5037 0.433594 11.6466 0.433594 11.8113C0.433594 11.938 0.472138 12.0561 0.549978 12.1675C0.627817 12.2789 0.724177 12.359 0.841312 12.4073C1.69855 12.7782 2.60459 13.0007 3.56069 13.0765V14.7054C3.56069 15.0413 3.833 15.3136 4.16889 15.3136C4.50478 15.3136 4.77709 15.0413 4.77709 14.7054V13.0863C5.31971 13.0452 5.80953 12.9296 6.24653 12.7411C6.80792 12.4991 7.24468 12.1627 7.55478 11.7317C7.86414 11.3007 8.01957 10.8134 8.01957 10.2711C8.01932 9.61254 7.85163 9.08944 7.51799 8.7025ZM3.56069 7.06536C3.36997 7.0118 3.20178 6.95849 3.05661 6.90793C2.71246 6.78629 2.42689 6.6166 2.19912 6.3991C1.97136 6.18085 1.85798 5.89777 1.85798 5.54912C1.85798 5.02552 2.09801 4.6188 2.57756 4.32822C2.85663 4.15927 3.18426 4.03913 3.56069 3.9688V7.06536ZM4.77684 11.8281V8.75356C5.10196 8.84541 5.36927 8.92726 5.57801 9.00034C5.89763 9.11172 6.16669 9.26389 6.38419 9.45762C6.60244 9.65159 6.71131 9.89337 6.71131 10.184C6.71131 11.1558 6.06607 11.7044 4.77684 11.8281Z" fill="#8A8A8A"/>
</svg>
