<svg width="15" height="16" viewBox="0 0 15 16" fill="none" xmlns="http://www.w3.org/2000/svg">
<path d="M13.6024 3.71993C13.4588 3.38026 13.2183 3.09047 12.9108 2.88682C12.6034 2.68318 12.2427 2.57472 11.8739 2.57501H10.625C10.6215 2.41158 10.5541 2.25604 10.4372 2.1417C10.3204 2.02737 10.1634 1.96335 9.99995 1.96335C9.83648 1.96335 9.67952 2.02737 9.56268 2.1417C9.44585 2.25604 9.37844 2.41158 9.3749 2.57501H5.6249C5.62137 2.41158 5.55396 2.25604 5.43712 2.1417C5.32029 2.02737 5.16332 1.96335 4.99985 1.96335C4.83639 1.96335 4.67942 2.02737 4.56259 2.1417C4.44575 2.25604 4.37834 2.41158 4.37481 2.57501H3.125C2.87871 2.57478 2.63479 2.62312 2.4072 2.71727C2.17961 2.81141 1.97282 2.94951 1.79866 3.12367C1.6245 3.29783 1.4864 3.50462 1.39226 3.73221C1.29811 3.9598 1.24977 4.20372 1.25 4.45001V12.5749C1.24977 12.8212 1.29811 13.0651 1.39226 13.2927C1.4864 13.5203 1.6245 13.7271 1.79866 13.9013C1.97282 14.0754 2.17961 14.2135 2.4072 14.3077C2.63479 14.4018 2.87871 14.4501 3.125 14.4499H11.8748C12.1211 14.4501 12.365 14.4018 12.5926 14.3077C12.8202 14.2135 13.027 14.0754 13.2011 13.9013C13.3753 13.7271 13.5134 13.5203 13.6076 13.2927C13.7017 13.0651 13.75 12.8212 13.7498 12.5749V4.45001C13.7502 4.19922 13.7001 3.95092 13.6024 3.71993ZM12.5 12.5749C12.4998 12.7407 12.4339 12.8996 12.3167 13.0168C12.1995 13.134 12.0406 13.2 11.8748 13.2001H3.125C2.95924 13.2 2.80031 13.134 2.68309 13.0168C2.56588 12.8996 2.49996 12.7407 2.49981 12.5749V6.94991H12.5V12.5749ZM12.5 5.70011H2.49981V4.45001C2.50004 4.2843 2.56599 4.12544 2.6832 4.00829C2.8004 3.89114 2.95929 3.82526 3.125 3.82511H4.37481C4.37834 3.98854 4.44575 4.14408 4.56259 4.25841C4.67942 4.37275 4.83639 4.43677 4.99985 4.43677C5.16332 4.43677 5.32029 4.37275 5.43712 4.25841C5.55396 4.14408 5.62137 3.98854 5.6249 3.82511H9.3749C9.37844 3.98854 9.44585 4.14408 9.56268 4.25841C9.67952 4.37275 9.83648 4.43677 9.99995 4.43677C10.1634 4.43677 10.3204 4.37275 10.4372 4.25841C10.5541 4.14408 10.6215 3.98854 10.625 3.82511H11.8748C12.0405 3.82526 12.1994 3.89114 12.3166 4.00829C12.4338 4.12544 12.4998 4.2843 12.5 4.45001V5.70011Z" fill="#8A8A8A"/>
<path d="M4.37513 8.85597V8.8712C4.37513 8.87618 4.37513 8.88146 4.3766 8.88644L4.37835 8.90167C4.37835 8.90665 4.37835 8.91193 4.3804 8.91691C4.38245 8.92189 4.38187 8.92716 4.38275 8.93214C4.38363 8.93712 4.3848 8.9421 4.38568 8.94708C4.38656 8.95206 4.38773 8.95704 4.3889 8.96202L4.39242 8.97696C4.39242 8.98195 4.39505 8.98693 4.39652 8.99161C4.39798 8.9963 4.39915 9.00157 4.40062 9.00656C4.40208 9.01154 4.40384 9.01622 4.40531 9.0212C4.40677 9.02618 4.40853 9.03087 4.41029 9.03556L4.41556 9.04991L4.42142 9.06398C4.42318 9.06866 4.42523 9.07335 4.42728 9.07804L4.43372 9.0921L4.44046 9.10587L4.44749 9.11935L4.45482 9.13282L4.46243 9.14601C4.46507 9.1504 4.46771 9.1548 4.47064 9.15919L4.47884 9.17208L4.48734 9.18468L4.49642 9.19698L4.50579 9.20929C4.50872 9.21339 4.51195 9.2172 4.51517 9.2213C4.51839 9.2254 4.52191 9.22921 4.52513 9.23302L4.53538 9.24474L4.54564 9.25587L4.55648 9.267C4.56029 9.27052 4.5638 9.27433 4.56761 9.27755C4.57142 9.28077 4.57493 9.28488 4.57874 9.2881L4.59046 9.29835L4.60218 9.30831L4.61419 9.31769L4.6265 9.32706L4.6388 9.33614L4.6514 9.34464L4.66429 9.35284L4.67747 9.36105L4.69066 9.36866L4.70413 9.37599L4.71761 9.38302L4.73138 9.38976L4.74544 9.3962L4.75951 9.40206L4.77357 9.40792L4.78792 9.4132L4.80228 9.41818L4.81693 9.42286L4.83158 9.42697L4.84652 9.43107L4.86146 9.43458L4.8764 9.43781L4.89134 9.44073L4.90658 9.44308L4.92181 9.44513L4.93704 9.44689L4.95228 9.44835H4.96751H4.98304H5.0138H5.02933H5.04456L5.0598 9.44689L5.07533 9.44513L5.09027 9.44308L5.1055 9.44073L5.12074 9.43781L5.13538 9.43458L5.15033 9.43107L5.16527 9.42697L5.17992 9.42286L5.19456 9.41818L5.20892 9.4132L5.22327 9.40792L5.23763 9.40206L5.25169 9.3962L5.26546 9.38976L5.27923 9.38302L5.29271 9.37599L5.30618 9.36866L5.31937 9.36105L5.33255 9.35284L5.34544 9.34464L5.35804 9.33614L5.37064 9.32706L5.38265 9.31769L5.39466 9.30831L5.40667 9.29835L5.4181 9.2881C5.42191 9.28488 5.42572 9.28107 5.42923 9.27755C5.43275 9.27404 5.43685 9.27052 5.44036 9.267L5.4512 9.25587L5.46175 9.24474L5.47171 9.23302C5.47523 9.22921 5.47845 9.2254 5.48167 9.2213L5.49134 9.20929L5.50042 9.19698L5.50951 9.18468L5.518 9.17208L5.5265 9.15919L5.53441 9.14601C5.53704 9.14161 5.53968 9.13722 5.54202 9.13282C5.54437 9.12843 5.54701 9.12374 5.54935 9.11935C5.55192 9.11498 5.55427 9.11048 5.55638 9.10587L5.56312 9.0921C5.56546 9.08741 5.56751 9.08273 5.56956 9.07804L5.57572 9.06398L5.58128 9.04991L5.58656 9.03556C5.58831 9.03087 5.59007 9.02589 5.59154 9.0212C5.593 9.01652 5.59476 9.01124 5.59622 9.00656L5.60062 8.99161C5.60062 8.98693 5.60326 8.98195 5.60443 8.97696L5.60794 8.96202C5.60794 8.95704 5.61029 8.95206 5.61117 8.94708C5.61204 8.9421 5.61322 8.93712 5.61409 8.93214C5.61497 8.92716 5.61585 8.92189 5.61644 8.91691C5.61702 8.91193 5.6179 8.90665 5.61878 8.90167C5.61966 8.89669 5.61878 8.89171 5.61878 8.88644C5.61878 8.88116 5.61878 8.87618 5.62025 8.8712V8.85597C5.62025 8.8507 5.62025 8.84542 5.62025 8.84044C5.62025 8.83546 5.62025 8.83019 5.62025 8.82491C5.62025 8.81964 5.62025 8.81466 5.62025 8.80968C5.62025 8.8047 5.62025 8.79943 5.62025 8.79415V8.77892C5.62025 8.77365 5.62025 8.76866 5.61878 8.76339C5.61732 8.75812 5.61878 8.75343 5.61878 8.74816C5.61878 8.74288 5.61732 8.7382 5.61644 8.73322C5.61556 8.72824 5.61644 8.72296 5.61409 8.71798C5.61175 8.713 5.61234 8.70802 5.61117 8.70275C5.60999 8.69747 5.60911 8.69279 5.60794 8.6878L5.60443 8.67286C5.60443 8.66818 5.60179 8.6632 5.60062 8.65822L5.59622 8.64357C5.59622 8.63859 5.59329 8.6339 5.59154 8.62892C5.58978 8.62394 5.58831 8.61925 5.58656 8.61456L5.58128 8.60021L5.57572 8.58585L5.56956 8.57179C5.56751 8.56739 5.56546 8.56271 5.56312 8.55802C5.56077 8.55333 5.55872 8.54864 5.55638 8.54425C5.55433 8.53961 5.55198 8.53511 5.54935 8.53077C5.54701 8.52609 5.54466 8.52169 5.54202 8.5173C5.53939 8.5129 5.53704 8.50822 5.53441 8.50411L5.5265 8.49093C5.52386 8.48654 5.52093 8.48243 5.518 8.47804L5.50951 8.46544C5.50658 8.46134 5.50365 8.45695 5.50042 8.45284L5.49134 8.44083L5.48167 8.42882L5.47171 8.41681L5.46175 8.40538L5.4512 8.39396L5.44036 8.38312C5.43685 8.37931 5.43304 8.37579 5.42923 8.37228L5.4181 8.36173L5.40667 8.35177L5.39466 8.34181L5.38265 8.33214L5.37064 8.32306L5.35804 8.31398L5.34544 8.30548L5.33255 8.29698L5.31937 8.28907L5.30618 8.28146L5.29271 8.27413L5.27923 8.26681L5.26546 8.26036L5.25169 8.25392L5.23763 8.24777L5.22327 8.2422L5.20892 8.23693L5.19456 8.23195L5.17992 8.22726L5.16527 8.22286L5.15033 8.21905L5.13538 8.21554L5.12074 8.21232L5.1055 8.20939L5.09027 8.20704L5.07533 8.2047L5.0598 8.20294H5.04456H5.02933H5.0138H4.98304H4.96751H4.95228H4.93704L4.92181 8.2047L4.90658 8.20704L4.89134 8.20939L4.8764 8.21232L4.86146 8.21554L4.84652 8.21905L4.83158 8.22286L4.81693 8.22726L4.80228 8.23195L4.78792 8.23693L4.77357 8.2422L4.75951 8.24777L4.74544 8.25392L4.73138 8.26036L4.71761 8.26681L4.70413 8.27413L4.69066 8.28146L4.67747 8.28907L4.66429 8.29698L4.6514 8.30548L4.6388 8.31398L4.6265 8.32306L4.61419 8.33214L4.60218 8.34181L4.59046 8.35177L4.57874 8.36173L4.56761 8.37228L4.55648 8.38312L4.54564 8.39396L4.53538 8.40538L4.52513 8.41681L4.51517 8.42882C4.51195 8.43263 4.50872 8.43673 4.50579 8.44083C4.50286 8.44493 4.49935 8.44874 4.49642 8.45284L4.48734 8.46544L4.47884 8.47804L4.47064 8.49093C4.46771 8.49532 4.46507 8.49972 4.46243 8.50411C4.4598 8.50851 4.45745 8.5129 4.45482 8.5173C4.45218 8.52169 4.44984 8.52609 4.44749 8.53077L4.44046 8.54425C4.43812 8.54864 4.43577 8.55333 4.43372 8.55802C4.43167 8.56271 4.42933 8.56739 4.42728 8.57179C4.42523 8.57618 4.42318 8.58116 4.42142 8.58585C4.41966 8.59054 4.41761 8.59552 4.41556 8.60021L4.41029 8.61456C4.40853 8.61925 4.40706 8.62423 4.40531 8.62892C4.40355 8.63361 4.40208 8.63859 4.40062 8.64357C4.39915 8.64855 4.39769 8.65324 4.39652 8.65822C4.39534 8.6632 4.39359 8.66818 4.39242 8.67286L4.3889 8.6878C4.3889 8.69279 4.38685 8.69777 4.38568 8.70275C4.38451 8.70773 4.38363 8.713 4.38275 8.71798C4.38187 8.72296 4.38128 8.72794 4.3804 8.73322C4.37952 8.73849 4.3804 8.74318 4.37835 8.74816L4.3766 8.76339C4.3766 8.76866 4.3766 8.77365 4.37513 8.77892V8.79415C4.37513 8.79943 4.37513 8.80441 4.37513 8.80968C4.37513 8.81495 4.37513 8.81993 4.37513 8.82491C4.37513 8.82989 4.37513 8.83546 4.37513 8.84044C4.37513 8.84542 4.37484 8.8507 4.37513 8.85597Z" fill="#8A8A8A"/>
<path d="M6.87515 8.85597C6.87515 8.86095 6.87515 8.86593 6.87515 8.8712C6.87515 8.87647 6.87515 8.88145 6.87515 8.88643L6.87691 8.90167C6.87691 8.90665 6.87691 8.91192 6.87896 8.9169L6.8816 8.93214L6.88424 8.94708C6.88424 8.95206 6.88658 8.95704 6.88746 8.96202C6.88834 8.967 6.8898 8.97198 6.89127 8.97696C6.89273 8.98194 6.89361 8.98692 6.89507 8.99161L6.89947 9.00655L6.90386 9.0212L6.90914 9.03556C6.91064 9.04043 6.9124 9.04523 6.91441 9.04991C6.91617 9.0546 6.91793 9.05929 6.91998 9.06397L6.92613 9.07804L6.93228 9.0921C6.93463 9.09649 6.93668 9.10118 6.93902 9.10587L6.94605 9.11935L6.95338 9.13282C6.95601 9.13722 6.95865 9.14161 6.96099 9.14601L6.9692 9.15919L6.9774 9.17208L6.98619 9.18468L6.99498 9.19698L7.00435 9.20929L7.01402 9.2213L7.02369 9.23302L7.03394 9.24474L7.04449 9.25587L7.05533 9.267C7.05884 9.27052 7.06236 9.27433 7.06617 9.27755L7.07759 9.2881L7.08902 9.29835L7.10074 9.30831L7.11275 9.31768L7.12506 9.32706L7.13736 9.33614L7.15025 9.34464C7.15435 9.34757 7.15875 9.3502 7.16314 9.35284C7.16754 9.35548 7.17164 9.35841 7.17603 9.36104L7.18922 9.36866L7.20269 9.37599L7.21646 9.38302L7.23023 9.38975L7.244 9.3962L7.25806 9.40206L7.27213 9.40792L7.28648 9.41319L7.30113 9.41817L7.31549 9.42286L7.33043 9.42696L7.34507 9.43106L7.36002 9.43458L7.37496 9.4378L7.39019 9.44073L7.40513 9.44308L7.42037 9.44513L7.4356 9.44688L7.45084 9.44835H7.46636H7.4816H7.51265H7.52789H7.54341L7.55865 9.44688L7.57388 9.44513L7.58912 9.44308L7.60406 9.44073L7.61929 9.4378L7.63424 9.43458L7.64918 9.43106L7.66382 9.42696L7.67847 9.42286L7.69312 9.41817L7.70748 9.41319L7.72183 9.40792L7.73619 9.40206L7.75025 9.3962L7.76402 9.38975L7.77779 9.38302L7.79156 9.37599L7.80474 9.36866L7.81822 9.36104C7.82261 9.35841 7.82701 9.35577 7.83111 9.35284C7.83521 9.34991 7.8399 9.34757 7.844 9.34464L7.8566 9.33614L7.8692 9.32706L7.8815 9.31768L7.89351 9.30831L7.90523 9.29835L7.91666 9.2881L7.92808 9.27755C7.93189 9.27433 7.93541 9.27052 7.93892 9.267L7.94976 9.25587L7.96031 9.24474L7.97056 9.23302L7.98023 9.2213L7.9899 9.20929L7.99927 9.19698L8.00806 9.18468L8.01685 9.17208L8.02506 9.15919C8.02769 9.15479 8.03062 9.1504 8.03297 9.14601L8.04088 9.13282L8.0482 9.11935L8.05523 9.10587C8.05757 9.10118 8.05963 9.09649 8.06168 9.0921C8.06373 9.0877 8.06607 9.08272 8.06812 9.07804L8.07427 9.06397C8.07632 9.05929 8.07808 9.0546 8.07984 9.04991C8.08186 9.04523 8.08362 9.04043 8.08511 9.03556L8.09039 9.0212L8.09478 9.00655L8.09918 8.99161C8.10064 8.98692 8.10181 8.98194 8.10299 8.97696C8.10416 8.97198 8.10562 8.967 8.10679 8.96202C8.10797 8.95704 8.10884 8.95206 8.11002 8.94708L8.1147 8.93243L8.11734 8.9172C8.11734 8.91222 8.11734 8.90694 8.11939 8.90196L8.12115 8.88673C8.12115 8.88175 8.12115 8.87647 8.12115 8.87149C8.12115 8.86651 8.12115 8.86124 8.12115 8.85626C8.12115 8.85128 8.12115 8.84571 8.12115 8.84073V8.80997C8.12115 8.8047 8.12115 8.79972 8.12115 8.79444C8.12115 8.78917 8.12115 8.78419 8.12115 8.77921C8.12115 8.77423 8.12115 8.76895 8.12115 8.76368L8.11939 8.74845C8.11939 8.74347 8.11793 8.73849 8.11734 8.73351L8.1147 8.71827L8.11207 8.70304C8.11207 8.69806 8.10972 8.69308 8.10884 8.6881C8.10797 8.68311 8.1065 8.67813 8.10504 8.67315C8.10357 8.66817 8.10269 8.66349 8.10123 8.65851L8.09683 8.64386L8.09244 8.62921L8.08716 8.61485C8.08571 8.60996 8.08395 8.60517 8.08189 8.6005C8.08013 8.59581 8.07838 8.59083 8.07632 8.58614L8.07017 8.57208C8.06812 8.56769 8.06607 8.563 8.06373 8.55831C8.06138 8.55362 8.05963 8.54894 8.05728 8.54454L8.05025 8.53106C8.04791 8.52638 8.04527 8.52198 8.04293 8.51759L8.03502 8.5044C8.03267 8.50001 8.02974 8.49561 8.02711 8.49122L8.0189 8.47833L8.01011 8.46573L8.00133 8.45313C7.9981 8.44903 7.99517 8.44493 7.99195 8.44112L7.98228 8.42911L7.97261 8.4171L7.96236 8.40567L7.95181 8.39425L7.94097 8.38341L7.93013 8.37257L7.91871 8.36202L7.90728 8.35206L7.89556 8.3421L7.88355 8.33243L7.87125 8.32335L7.85865 8.31427C7.85455 8.31134 7.85045 8.30841 7.84605 8.30577L7.83316 8.29728L7.82174 8.2879C7.81734 8.28526 7.81295 8.28263 7.80826 8.28028C7.80357 8.27794 7.79947 8.2753 7.79507 8.27296L7.78131 8.26563L7.76754 8.25919L7.75377 8.25274L7.7397 8.24659L7.72535 8.24102L7.71099 8.23575L7.69664 8.23077L7.68199 8.22608L7.66734 8.22169L7.65269 8.21788L7.63775 8.21436L7.62281 8.21114L7.60757 8.20821L7.59263 8.20587L7.5774 8.20352L7.56217 8.20177H7.54693H7.5314H7.51617H7.48511H7.46988H7.45435H7.43912L7.42388 8.20352L7.40865 8.20587L7.39371 8.20821L7.37847 8.21114L7.36353 8.21436L7.34859 8.21788L7.33394 8.22169L7.319 8.22608L7.30465 8.23077L7.29 8.23575L7.27564 8.24102L7.26158 8.24659L7.24752 8.25274L7.23375 8.25919L7.21998 8.26563L7.20621 8.27296L7.19273 8.28028L7.1772 8.2879L7.16431 8.29581L7.15142 8.30431L7.13853 8.3128L7.12623 8.32188L7.11392 8.33097L7.10191 8.34063L7.09019 8.3506L7.07877 8.36056L7.06734 8.3711L7.0565 8.38194L7.04566 8.39278L7.03511 8.40421L7.02486 8.41563L7.01519 8.42765L7.00552 8.43966C7.0023 8.44347 6.99937 8.44757 6.99615 8.45167L6.98736 8.46427L6.97857 8.47687L6.97037 8.48976L6.96216 8.50294L6.95455 8.51612C6.9522 8.52052 6.94957 8.52491 6.94722 8.5296L6.94019 8.54308C6.93785 8.54747 6.9358 8.55216 6.93345 8.55684L6.9273 8.57061L6.92115 8.58468C6.9191 8.58936 6.91734 8.59435 6.91558 8.59903C6.91352 8.6037 6.91176 8.6085 6.91031 8.61339L6.90504 8.62774L6.90064 8.64239L6.89625 8.65704C6.89625 8.66202 6.89361 8.667 6.89244 8.67169C6.89127 8.67638 6.8898 8.68165 6.88863 8.68663C6.88746 8.69161 6.88658 8.69659 6.88541 8.70157L6.88277 8.71681L6.88013 8.73204C6.88013 8.73702 6.87867 8.742 6.87808 8.74698L6.87632 8.76222C6.87632 8.76749 6.87632 8.77247 6.87632 8.77774C6.87632 8.78302 6.87632 8.788 6.87632 8.79298C6.87632 8.79796 6.87632 8.80323 6.87632 8.8085V8.83927C6.87486 8.84454 6.87486 8.85069 6.87515 8.85597Z" fill="#8A8A8A"/>
<path d="M9.375 8.85597V8.8712C9.375 8.87618 9.375 8.88146 9.375 8.88644L9.37676 8.90167C9.37676 8.90665 9.37676 8.91193 9.3791 8.91691C9.38145 8.92189 9.38057 8.92716 9.38145 8.93214C9.38232 8.93712 9.3832 8.9421 9.38438 8.94708C9.38555 8.95206 9.38643 8.95704 9.3876 8.96202L9.39111 8.97696C9.39111 8.98195 9.39375 8.98693 9.39492 8.99161L9.39932 9.00656C9.40078 9.01124 9.40225 9.01622 9.404 9.0212C9.40576 9.02618 9.40723 9.03087 9.40898 9.03556L9.41426 9.04991L9.41982 9.06398L9.42598 9.07804C9.42803 9.08273 9.43008 9.08741 9.43242 9.0921C9.43477 9.09679 9.43682 9.10118 9.43887 9.10587C9.44092 9.11056 9.44355 9.11495 9.44619 9.11935C9.44883 9.12374 9.45088 9.12843 9.45352 9.13282C9.45615 9.13722 9.4585 9.14161 9.46113 9.14601L9.46904 9.15919L9.47754 9.17208L9.48604 9.18468L9.49512 9.19698L9.5042 9.20929L9.51387 9.2213C9.51709 9.2254 9.52031 9.22921 9.52383 9.23302L9.53379 9.24474L9.54434 9.25587L9.55518 9.267C9.55869 9.27052 9.5625 9.27433 9.56631 9.27755C9.57012 9.28077 9.57363 9.28488 9.57744 9.2881L9.58887 9.29835L9.60088 9.30831L9.61289 9.31769L9.6249 9.32706L9.6375 9.33614L9.6501 9.34464L9.66299 9.35284L9.67617 9.36105L9.68936 9.36866L9.70283 9.37599L9.71631 9.38302L9.73008 9.38976L9.74385 9.3962L9.75791 9.40206L9.77227 9.40792L9.78662 9.4132L9.80098 9.41818L9.81563 9.42286L9.83027 9.42697L9.84521 9.43107L9.85986 9.43458L9.8748 9.43781L9.89004 9.44073L9.90527 9.44308L9.92021 9.44513L9.93574 9.44689L9.95098 9.44835H9.96621H9.98174H10.0125H10.028H10.0433L10.0585 9.44689L10.0737 9.44513L10.089 9.44308L10.1042 9.44073L10.1191 9.43781L10.1341 9.43458L10.149 9.43107L10.164 9.42697L10.1786 9.42286L10.1933 9.41818L10.2076 9.4132L10.222 9.40792L10.236 9.40206L10.2501 9.3962L10.2642 9.38976L10.2779 9.38302L10.2914 9.37599L10.3049 9.36866L10.3181 9.36105L10.3313 9.35284L10.3441 9.34464L10.3567 9.33614L10.369 9.32706L10.3813 9.31769L10.3934 9.30831L10.4051 9.29835L10.4168 9.2881L10.4279 9.27755C10.4317 9.27433 10.4353 9.27052 10.4391 9.267C10.4429 9.26349 10.4464 9.25968 10.4496 9.25587L10.4602 9.24474L10.4704 9.23302C10.4736 9.22921 10.4771 9.2254 10.4804 9.2213C10.4836 9.2172 10.4868 9.21339 10.4897 9.20929L10.4991 9.19698L10.5082 9.18468L10.5167 9.17208L10.5249 9.15919C10.5278 9.1548 10.5305 9.1504 10.5331 9.14601L10.5407 9.13282L10.548 9.11935L10.5551 9.10587L10.5618 9.0921L10.5683 9.07804C10.5703 9.07335 10.5724 9.06866 10.5741 9.06398L10.58 9.04991L10.5853 9.03556C10.587 9.03087 10.5885 9.02589 10.5902 9.0212C10.592 9.01652 10.5935 9.01124 10.5949 9.00656C10.5964 9.00187 10.5979 8.99659 10.599 8.99161C10.6002 8.98663 10.602 8.98195 10.6031 8.97696L10.6066 8.96202C10.6066 8.95704 10.6087 8.95206 10.6099 8.94708C10.611 8.9421 10.6119 8.93712 10.6128 8.93214C10.6137 8.92716 10.6128 8.92189 10.6151 8.91691C10.6175 8.91193 10.6166 8.90665 10.6172 8.90167L10.6189 8.88644C10.6189 8.88146 10.6189 8.87618 10.6204 8.8712V8.85597C10.6204 8.8507 10.6204 8.84542 10.6204 8.84044C10.6204 8.83546 10.6204 8.83019 10.6204 8.82491C10.6204 8.81964 10.6204 8.81466 10.6204 8.80968C10.6204 8.8047 10.6204 8.79943 10.6204 8.79415V8.77892C10.6204 8.77365 10.6204 8.76866 10.6189 8.76339L10.6172 8.74816C10.6172 8.74318 10.6172 8.7382 10.6151 8.73322C10.6131 8.72824 10.6137 8.72296 10.6128 8.71798C10.6119 8.713 10.6107 8.70802 10.6099 8.70275C10.609 8.69747 10.6078 8.69279 10.6066 8.6878L10.6031 8.67286C10.6031 8.66818 10.6005 8.6632 10.599 8.65822C10.5976 8.65324 10.5964 8.64825 10.5949 8.64357C10.5935 8.63888 10.5917 8.6339 10.5902 8.62892C10.5888 8.62394 10.587 8.61925 10.5853 8.61456L10.58 8.60021C10.5779 8.59552 10.5762 8.59054 10.5741 8.58585C10.5721 8.58116 10.5703 8.57648 10.5683 8.57179C10.5662 8.5671 10.5639 8.56271 10.5618 8.55802C10.5598 8.55333 10.5574 8.54864 10.5551 8.54425L10.548 8.53077C10.5457 8.52609 10.5431 8.52169 10.5407 8.5173C10.5384 8.5129 10.5357 8.50822 10.5331 8.50411C10.5305 8.50001 10.5278 8.49532 10.5249 8.49093L10.5167 8.47804L10.5082 8.46544L10.4991 8.45284C10.4962 8.44874 10.493 8.44464 10.4897 8.44083C10.4865 8.43702 10.4836 8.43263 10.4804 8.42882L10.4704 8.41681L10.4602 8.40538C10.4569 8.40157 10.4531 8.39777 10.4496 8.39396L10.4391 8.38312L10.4279 8.37228L10.4168 8.36173L10.4051 8.35177L10.3934 8.34181L10.3813 8.33214L10.369 8.32306L10.3567 8.31398L10.3441 8.30548L10.3313 8.29698L10.3181 8.28907L10.3049 8.28146L10.2914 8.27413L10.2779 8.26681L10.2642 8.26036L10.2501 8.25392L10.236 8.24777L10.222 8.2422L10.2076 8.23693L10.1933 8.23195L10.1786 8.22726L10.164 8.22286L10.149 8.21905L10.1341 8.21554L10.1191 8.21232L10.1042 8.20939L10.089 8.20704L10.0737 8.2047L10.0585 8.20294H10.0433H10.028H10.0125H9.98174H9.96621H9.95098H9.93574L9.92021 8.2047L9.90527 8.20704L9.89004 8.20939L9.8748 8.21232L9.85986 8.21554L9.84521 8.21905L9.83027 8.22286L9.81563 8.22726L9.80098 8.23195L9.78662 8.23693L9.77227 8.2422L9.75791 8.24777L9.74385 8.25392L9.73008 8.26036L9.71631 8.26681L9.70283 8.27413L9.68936 8.28146L9.67617 8.28907L9.66299 8.29698L9.6501 8.30548L9.6375 8.31398L9.6249 8.32306L9.61289 8.33214L9.60088 8.34181L9.58887 8.35177L9.57744 8.36173L9.56631 8.37228C9.5625 8.37579 9.55869 8.37931 9.55518 8.38312L9.54434 8.39396L9.53379 8.40538L9.52383 8.41681L9.51387 8.42882L9.5042 8.44083L9.49512 8.45284C9.49189 8.45695 9.48897 8.46134 9.48604 8.46544L9.47754 8.47804C9.47461 8.48243 9.47168 8.48654 9.46904 8.49093L9.46113 8.50411C9.4585 8.50822 9.45586 8.5129 9.45352 8.5173C9.45117 8.52169 9.44853 8.52609 9.44619 8.53077C9.44385 8.53546 9.44121 8.53956 9.43887 8.54425C9.43652 8.54894 9.43447 8.55333 9.43242 8.55802C9.43037 8.56271 9.42803 8.56739 9.42598 8.57179L9.41982 8.58585L9.41426 8.60021L9.40898 8.61456C9.40723 8.61925 9.40547 8.62423 9.404 8.62892C9.40254 8.63361 9.40078 8.63859 9.39932 8.64357L9.39492 8.65822C9.39492 8.6632 9.39228 8.66818 9.39111 8.67286L9.3876 8.6878C9.3876 8.69279 9.38525 8.69777 9.38438 8.70275C9.3835 8.70773 9.38232 8.713 9.38145 8.71798C9.38057 8.72296 9.37969 8.72794 9.3791 8.73322C9.37852 8.73849 9.37764 8.74318 9.37676 8.74816L9.375 8.76339C9.375 8.76866 9.375 8.77365 9.375 8.77892V8.79415C9.375 8.79943 9.375 8.80441 9.375 8.80968C9.375 8.81495 9.375 8.81993 9.375 8.82491C9.375 8.82989 9.375 8.83546 9.375 8.84044C9.375 8.84542 9.375 8.8507 9.375 8.85597Z" fill="#8A8A8A"/>
<path d="M4.37513 11.3559V11.3711C4.37513 11.3764 4.37513 11.3814 4.3766 11.3863L4.37835 11.4019C4.37835 11.4069 4.37835 11.4118 4.3804 11.4168C4.38245 11.4218 4.38187 11.4271 4.38275 11.432C4.38363 11.437 4.3848 11.442 4.38568 11.4473C4.38656 11.4526 4.38773 11.4572 4.3889 11.4622L4.39242 11.4769C4.39242 11.4819 4.39505 11.4868 4.39652 11.4918C4.39798 11.4968 4.39915 11.5018 4.40062 11.5065C4.40208 11.5111 4.40384 11.5161 4.40531 11.5211C4.40677 11.5261 4.40853 11.5308 4.41029 11.5355L4.41556 11.5498C4.41761 11.5545 4.41937 11.5595 4.42142 11.5642C4.42347 11.5689 4.42523 11.5736 4.42728 11.5782C4.42933 11.5829 4.43167 11.5873 4.43372 11.592C4.43577 11.5967 4.43812 11.6014 4.44046 11.6058L4.44749 11.6193C4.44984 11.6239 4.45247 11.6283 4.45482 11.6327L4.46243 11.6459L4.47035 11.6591L4.47884 11.672L4.48734 11.6846L4.49642 11.6972C4.49935 11.7013 4.50257 11.7054 4.50579 11.7092C4.50902 11.713 4.51195 11.7174 4.51517 11.7212L4.52513 11.7332L4.53538 11.7446C4.53861 11.7485 4.54212 11.7523 4.54564 11.7558L4.55648 11.7669L4.56761 11.7777L4.57874 11.7883L4.59046 11.7983L4.60218 11.8082L4.61419 11.8179L4.6265 11.827L4.6388 11.836L4.6514 11.8445L4.66429 11.853L4.67747 11.861L4.69066 11.8686L4.70413 11.8759C4.7085 11.8785 4.713 11.8808 4.71761 11.8829L4.73138 11.8897L4.74544 11.8961L4.75951 11.9023L4.77357 11.9078L4.78792 11.9131L4.80228 11.9181L4.81693 11.9228L4.83158 11.9272L4.84652 11.931L4.86146 11.9345L4.8764 11.9377L4.89134 11.9406L4.90658 11.943L4.92181 11.9453L4.93704 11.9471H4.95228H4.96751H4.98304H5.0138H5.02933H5.04456H5.0598L5.07533 11.9453L5.09027 11.943L5.1055 11.9406L5.12074 11.9377L5.13568 11.9345L5.15033 11.931L5.16527 11.9272L5.17992 11.9228L5.19456 11.9181L5.20892 11.9131L5.22327 11.9078L5.23763 11.9023L5.25169 11.8961L5.26546 11.8897L5.27923 11.8829C5.28387 11.8809 5.28837 11.8785 5.29271 11.8759L5.30618 11.8686L5.31937 11.861L5.33255 11.853L5.34544 11.8445L5.35804 11.836L5.37064 11.827L5.38265 11.8179L5.39466 11.8082L5.40667 11.7983L5.4181 11.7883L5.42923 11.7777C5.43304 11.7742 5.43685 11.7707 5.44036 11.7669C5.44388 11.7631 5.44769 11.7596 5.4512 11.7558L5.46175 11.7446L5.47171 11.7332L5.48167 11.7212L5.49134 11.7092L5.50042 11.6972C5.50365 11.6931 5.50658 11.6887 5.50951 11.6846L5.518 11.672C5.52093 11.6676 5.52386 11.6635 5.5265 11.6591L5.53441 11.6459C5.53704 11.6415 5.53968 11.6371 5.54202 11.6327C5.54437 11.6283 5.54701 11.6239 5.54935 11.6193C5.55169 11.6146 5.55433 11.6105 5.55667 11.6058C5.55902 11.6011 5.56107 11.5967 5.56312 11.592C5.56517 11.5873 5.56751 11.5826 5.56956 11.5782L5.57572 11.5642L5.58128 11.5498L5.58656 11.5355C5.58831 11.5308 5.59007 11.5258 5.59154 11.5211C5.593 11.5164 5.59476 11.5114 5.59622 11.5065L5.60062 11.4918C5.60062 11.4868 5.60326 11.4819 5.60443 11.4769L5.60794 11.4622C5.60794 11.4572 5.61029 11.4523 5.61117 11.4473C5.61204 11.4423 5.61322 11.437 5.61409 11.432C5.61497 11.4271 5.61585 11.4221 5.61644 11.4168C5.61702 11.4115 5.6179 11.4069 5.61878 11.4019L5.62054 11.3863C5.62054 11.3814 5.62054 11.3764 5.62054 11.3711V11.3559C5.62054 11.3506 5.62054 11.3456 5.62054 11.3403C5.62054 11.3351 5.62054 11.3301 5.62054 11.3251C5.62054 11.3201 5.62054 11.3146 5.62054 11.3096C5.62054 11.3046 5.62054 11.2993 5.62054 11.2941V11.2788C5.62054 11.2738 5.62054 11.2686 5.62054 11.2636L5.61878 11.2484C5.61878 11.2431 5.61732 11.2381 5.61644 11.2331C5.61556 11.2281 5.61644 11.2229 5.61409 11.2179C5.61175 11.2129 5.61234 11.2079 5.61117 11.2029C5.60999 11.198 5.60911 11.193 5.60794 11.188L5.60443 11.1731C5.60443 11.1681 5.60179 11.1631 5.60062 11.1581L5.59622 11.1435C5.59622 11.1388 5.59329 11.1338 5.59154 11.1288C5.58978 11.1238 5.58831 11.1192 5.58656 11.1145L5.58128 11.1001L5.57572 11.0861L5.56956 11.072C5.56751 11.0673 5.56546 11.0626 5.56312 11.0579C5.56077 11.0532 5.55872 11.0488 5.55667 11.0442C5.55462 11.0395 5.55199 11.0351 5.54935 11.0307C5.54671 11.0263 5.54466 11.0216 5.54202 11.0172C5.53939 11.0128 5.53704 11.0084 5.53441 11.004L5.5265 10.9908L5.518 10.9779L5.50951 10.9653L5.50042 10.953L5.49134 10.9407L5.48167 10.9287C5.47845 10.9246 5.47523 10.9208 5.47171 10.917L5.46175 10.9053L5.4512 10.8942L5.44036 10.883L5.42923 10.8722L5.4181 10.8619L5.40667 10.8517L5.39466 10.8417L5.38265 10.8323L5.37064 10.823L5.35804 10.8139L5.34544 10.8054L5.33255 10.7969L5.31937 10.789L5.30618 10.7814L5.29271 10.774L5.27923 10.767L5.26546 10.7603L5.25169 10.7538L5.23763 10.748L5.22327 10.7421L5.20892 10.7368L5.19456 10.7319L5.17992 10.7272L5.16527 10.7231L5.15033 10.719L5.13568 10.7154L5.12074 10.7122L5.1055 10.7093L5.09027 10.7069L5.07533 10.7049L5.0598 10.7031L5.04456 10.7017H5.02933H5.0138H4.98304H4.96751H4.95228L4.93704 10.7031L4.92181 10.7049L4.90658 10.7069L4.89134 10.7093L4.8764 10.7122L4.86146 10.7154L4.84652 10.719L4.83158 10.7231L4.81693 10.7272L4.80228 10.7319L4.78792 10.7368L4.77357 10.7421L4.75951 10.748L4.74544 10.7538L4.73138 10.7603L4.71761 10.767L4.70413 10.774L4.69066 10.7814L4.67747 10.789L4.66429 10.7969L4.6514 10.8054L4.6388 10.8139L4.6265 10.823L4.61419 10.8323L4.60218 10.8417L4.59046 10.8517L4.57874 10.8619L4.56761 10.8722L4.55648 10.883L4.54564 10.8942C4.54212 10.898 4.53861 10.9015 4.53538 10.9053L4.52513 10.917C4.52191 10.9208 4.51839 10.9246 4.51517 10.9287C4.51195 10.9328 4.50872 10.9366 4.50579 10.9407L4.49642 10.953L4.48734 10.9653L4.47884 10.9779C4.47591 10.9823 4.47327 10.9867 4.47035 10.9908L4.46243 11.004L4.45482 11.0172C4.45247 11.0216 4.44984 11.026 4.44749 11.0307L4.44046 11.0442L4.43372 11.0579L4.42728 11.072C4.42523 11.0764 4.42318 11.0814 4.42142 11.0861L4.41556 11.1001L4.41029 11.1145C4.40853 11.1192 4.40706 11.1241 4.40531 11.1288C4.40355 11.1335 4.40208 11.1388 4.40062 11.1435C4.39915 11.1482 4.39769 11.1534 4.39652 11.1581C4.39534 11.1628 4.39359 11.1681 4.39242 11.1731L4.3889 11.188C4.3889 11.193 4.38685 11.198 4.38568 11.2029C4.38451 11.2079 4.38363 11.2129 4.38275 11.2179C4.38187 11.2229 4.38128 11.2281 4.3804 11.2331C4.37952 11.2381 4.3804 11.2431 4.37835 11.2484L4.3766 11.2636C4.3766 11.2686 4.3766 11.2738 4.37513 11.2788V11.2941C4.37513 11.2993 4.37513 11.3046 4.37513 11.3096C4.37513 11.3146 4.37513 11.3198 4.37513 11.3251C4.37513 11.3304 4.37513 11.3354 4.37513 11.3403C4.37513 11.3453 4.37484 11.3506 4.37513 11.3559Z" fill="#8A8A8A"/>
<path d="M6.87512 11.3559C6.87512 11.3609 6.87512 11.3661 6.87512 11.3711C6.87512 11.3761 6.87512 11.3814 6.87512 11.3863L6.87688 11.4019C6.87688 11.4069 6.87688 11.4118 6.87893 11.4168L6.88157 11.432L6.88421 11.4473C6.88421 11.4523 6.88655 11.4572 6.88743 11.4622C6.88831 11.4672 6.88977 11.4722 6.89124 11.4769C6.8927 11.4816 6.89358 11.4868 6.89505 11.4918L6.89944 11.5065L6.90383 11.5211L6.90911 11.5355C6.91056 11.5404 6.91232 11.5452 6.91438 11.5498C6.91614 11.5545 6.9179 11.5595 6.91995 11.5642L6.9261 11.5782L6.93225 11.592C6.9346 11.5967 6.93665 11.6014 6.93899 11.6058L6.94602 11.6193C6.94837 11.6239 6.951 11.6283 6.95335 11.6327C6.95569 11.6371 6.95862 11.6415 6.96096 11.6459L6.96917 11.6591L6.97737 11.672L6.98616 11.6846L6.99495 11.6972C6.99817 11.7013 7.0011 11.7054 7.00432 11.7092L7.01399 11.7212L7.02366 11.7332L7.03391 11.7446L7.04446 11.7558C7.04798 11.7596 7.05149 11.7634 7.0553 11.7669L7.06614 11.7778L7.07757 11.7883L7.08899 11.7983L7.10071 11.8082L7.11272 11.8179L7.12503 11.827L7.13733 11.8361L7.15022 11.8445L7.16311 11.853L7.176 11.861L7.18919 11.8686L7.20266 11.8759C7.20713 11.8785 7.21173 11.8808 7.21643 11.8829L7.2302 11.8897L7.24397 11.8961L7.25803 11.9023L7.2721 11.9078L7.28645 11.9131L7.3011 11.9181L7.31546 11.9228L7.3304 11.9272L7.34505 11.931L7.35999 11.9345L7.37493 11.9377L7.39016 11.9406L7.4051 11.943L7.42034 11.9453L7.43557 11.9471H7.45081H7.46633H7.48157H7.51262H7.52786H7.54309H7.55862L7.57385 11.9453L7.58909 11.943L7.60403 11.9406L7.61926 11.9377L7.63421 11.9345L7.64915 11.931L7.6638 11.9272L7.67844 11.9228L7.69309 11.9181L7.70745 11.9131L7.7218 11.9078L7.73616 11.9023L7.75022 11.8961L7.76399 11.8897L7.77776 11.8829C7.78247 11.8808 7.78706 11.8785 7.79153 11.8759C7.79592 11.8736 7.80061 11.8712 7.80471 11.8686C7.80882 11.8659 7.8138 11.8636 7.81819 11.861L7.83108 11.853L7.84397 11.8445C7.84837 11.8419 7.85247 11.839 7.85657 11.8361L7.86917 11.827L7.88147 11.8179L7.89348 11.8082L7.9052 11.7983L7.91663 11.7883L7.92805 11.7778L7.93889 11.7669C7.9427 11.7634 7.94622 11.7596 7.94973 11.7558L7.96028 11.7446L7.97053 11.7332L7.9802 11.7212L7.98987 11.7092C7.99309 11.7054 7.99602 11.7013 7.99924 11.6972L8.00803 11.6846L8.01682 11.672L8.02503 11.6591C8.02766 11.6547 8.03059 11.6503 8.03294 11.6459L8.04085 11.6327C8.04319 11.6283 8.04583 11.6239 8.04817 11.6193L8.0552 11.6058C8.05755 11.6014 8.0596 11.5967 8.06165 11.592C8.0637 11.5873 8.06604 11.5826 8.06809 11.5782L8.07424 11.5642C8.0763 11.5595 8.07805 11.5545 8.07981 11.5498C8.08187 11.5452 8.08363 11.5404 8.08508 11.5355L8.09036 11.5211L8.09475 11.5065L8.09915 11.4918C8.10061 11.4868 8.10178 11.4819 8.10296 11.4769C8.10413 11.4719 8.10559 11.4672 8.10676 11.4622C8.10794 11.4572 8.10882 11.4523 8.10999 11.4473L8.11262 11.432L8.11526 11.4168C8.11526 11.4118 8.11526 11.4069 8.11731 11.4019L8.11907 11.3863C8.11907 11.3814 8.11907 11.3764 8.11907 11.3711C8.11907 11.3658 8.11907 11.3609 8.11907 11.3559C8.11907 11.3509 8.11907 11.3456 8.11907 11.3404V11.3096C8.11907 11.3046 8.11907 11.2993 8.11907 11.2941C8.11907 11.2888 8.11907 11.2841 8.11907 11.2788C8.11907 11.2736 8.11907 11.2686 8.11907 11.2636L8.11731 11.2484C8.11731 11.2431 8.11585 11.2381 8.11526 11.2331L8.11467 11.2176L8.11204 11.2027C8.11204 11.1977 8.10969 11.1927 8.10881 11.1877C8.10794 11.1827 8.10647 11.1778 8.10501 11.1728C8.10354 11.1678 8.10266 11.1628 8.1012 11.1578L8.0968 11.1432L8.09241 11.1285L8.08714 11.1142C8.08564 11.1093 8.08388 11.1045 8.08186 11.0998C8.0801 11.0951 8.07835 11.0904 8.0763 11.0858L8.07014 11.0717C8.06809 11.067 8.06604 11.0623 8.0637 11.0576C8.06135 11.0529 8.0596 11.0486 8.05725 11.0439L8.05022 11.0304C8.04788 11.0257 8.04524 11.0213 8.0429 11.0169L8.03499 11.0037C8.03264 10.9993 8.02971 10.9949 8.02708 10.9905L8.01887 10.9777L8.01008 10.9651L8.0013 10.9528L7.99192 10.9404L7.98225 10.9284L7.97258 10.9167L7.96233 10.905L7.95178 10.8939L7.94094 10.8827L7.9301 10.8719L7.91868 10.8616L7.90725 10.8514L7.89553 10.8414L7.88352 10.832L7.87122 10.8227L7.85862 10.8136L7.84602 10.8051L7.83313 10.7966L7.82024 10.7887C7.81585 10.7861 7.81145 10.7834 7.80676 10.7811L7.79358 10.7737L7.77981 10.7667L7.76604 10.76L7.75227 10.7535L7.73821 10.7477L7.72385 10.7418L7.7095 10.7365L7.69514 10.7316L7.68049 10.7269L7.66585 10.7228L7.6512 10.7187L7.63626 10.7152L7.62132 10.7119L7.60608 10.709L7.59114 10.7067L7.5759 10.7046L7.56067 10.7028L7.54514 10.7014H7.52991H7.51467H7.48362H7.46839H7.45286L7.43762 10.7028L7.42239 10.7046L7.40716 10.7067L7.39221 10.709L7.37698 10.7119L7.36204 10.7152L7.3471 10.7187L7.33245 10.7228L7.31751 10.7269L7.30315 10.7316L7.2885 10.7365L7.27415 10.7418L7.26008 10.7477L7.24602 10.7535L7.23225 10.76L7.21848 10.7667L7.20471 10.7737L7.19124 10.7811L7.17805 10.7887L7.16516 10.7966L7.15227 10.8051L7.13938 10.8136L7.12708 10.8227L7.11477 10.832L7.10276 10.8414L7.09104 10.8514L7.07962 10.8616L7.06819 10.8719L7.05735 10.8827L7.04651 10.8939L7.03596 10.905L7.02571 10.9167L7.01604 10.9284L7.00637 10.9404L6.997 10.9528L6.98821 10.9651L6.97942 10.9777L6.97122 10.9905L6.96301 11.0037C6.96067 11.0081 6.95803 11.0125 6.9554 11.0169C6.95276 11.0213 6.95042 11.0257 6.94807 11.0304L6.94104 11.0439C6.9387 11.0486 6.93665 11.0532 6.9343 11.0576L6.92815 11.0717L6.922 11.0858C6.91995 11.0904 6.91819 11.0951 6.91643 11.0998C6.91442 11.1045 6.91266 11.1093 6.91116 11.1142L6.90589 11.1285L6.90149 11.1432L6.8971 11.1578C6.8971 11.1628 6.89446 11.1678 6.89329 11.1728C6.89212 11.1778 6.89065 11.1827 6.88948 11.1877C6.88831 11.1927 6.88743 11.1977 6.88626 11.2027L6.88421 11.2176L6.88157 11.2328C6.88157 11.2378 6.8801 11.2428 6.87952 11.2481L6.87776 11.2633C6.87776 11.2683 6.87776 11.2736 6.87776 11.2785C6.87776 11.2835 6.87776 11.2888 6.87776 11.2938C6.87776 11.2987 6.87776 11.3043 6.87776 11.3093V11.3401C6.87483 11.3456 6.87483 11.3506 6.87512 11.3559Z" fill="#8A8A8A"/>
</svg>
