<svg width="16" height="16" viewBox="0 0 16 16" fill="none" xmlns="http://www.w3.org/2000/svg">
<path d="M8.70315 1.20601C8.70315 0.927399 8.97801 0.700012 9.32034 0.700012C9.66267 0.700012 9.93753 0.926149 9.93753 1.20601V3.4199C9.93753 3.69851 9.66267 3.9259 9.32034 3.9259C8.97801 3.9259 8.70315 3.69976 8.70315 3.4199V1.20601ZM11.4155 7.8252C11.9478 7.8252 12.4563 7.9314 12.921 8.1238C13.4045 8.3237 13.8381 8.61605 14.2004 8.97837C14.5627 9.34069 14.8551 9.77547 15.055 10.2565C15.2474 10.7213 15.3536 11.2297 15.3536 11.762C15.3536 12.2942 15.2474 12.8027 15.055 13.2675C14.8551 13.751 14.5627 14.1845 14.2004 14.5468C13.8381 14.9092 13.4033 15.2015 12.9223 15.4014C12.4575 15.5938 11.949 15.7 11.4168 15.7C10.8846 15.7 10.3761 15.5938 9.91129 15.4014C9.42779 15.2015 8.99425 14.9092 8.63193 14.5468C8.26961 14.1845 7.97726 13.7497 7.77736 13.2675C7.58496 12.8027 7.47876 12.2942 7.47876 11.762C7.47876 11.2297 7.58496 10.7213 7.77736 10.2565C7.97726 9.77298 8.26961 9.33944 8.63193 8.97712C8.99425 8.61481 9.42903 8.32245 9.91004 8.12255C10.3748 7.9314 10.8821 7.8252 11.4155 7.8252ZM11.1207 10.1166C11.1207 10.0216 11.1594 9.93539 11.2219 9.87293C11.2844 9.81046 11.3706 9.77173 11.4668 9.77173C11.563 9.77173 11.6492 9.81046 11.7116 9.87293C11.7741 9.93539 11.8128 10.0216 11.8128 10.1178V11.9594L13.1897 12.7765L13.2009 12.784C13.2771 12.8327 13.3271 12.9064 13.3471 12.9876C13.3683 13.0726 13.3583 13.165 13.3121 13.245L13.3096 13.2487C13.3071 13.2537 13.3046 13.2575 13.3008 13.2612C13.2521 13.3362 13.1784 13.3862 13.0984 13.4062C13.0135 13.4274 12.921 13.4174 12.8411 13.3712L11.3018 12.4604C11.2481 12.4316 11.2031 12.3879 11.1707 12.3367C11.1382 12.2842 11.1194 12.223 11.1194 12.158L11.1207 10.1166ZM13.7119 9.46563C13.412 9.16578 13.0547 8.92465 12.6587 8.76098C12.2764 8.60231 11.8566 8.5161 11.4155 8.5161C10.9745 8.5161 10.5547 8.60356 10.1724 8.76098C9.77636 8.92465 9.41904 9.16578 9.11919 9.46563C8.81934 9.76548 8.57821 10.1228 8.41454 10.5189C8.25587 10.9012 8.16966 11.321 8.16966 11.762C8.16966 12.203 8.25712 12.6228 8.41454 13.0051C8.57821 13.4012 8.81934 13.7585 9.11919 14.0583C9.41904 14.3582 9.77636 14.5993 10.1724 14.763C10.5547 14.9217 10.9745 15.0079 11.4155 15.0079C11.8566 15.0079 12.2764 14.9204 12.6587 14.763C13.0547 14.5993 13.412 14.3582 13.7119 14.0583C14.3003 13.4699 14.6627 12.659 14.6627 11.762C14.6627 11.321 14.5752 10.9012 14.4178 10.5189C14.2529 10.1228 14.0117 9.76548 13.7119 9.46563ZM1.68041 7.86643C1.64543 7.86643 1.61419 7.71276 1.61419 7.5241C1.61419 7.33544 1.64168 7.18302 1.68041 7.18302H3.36457C3.39955 7.18302 3.43078 7.33669 3.43078 7.5241C3.43078 7.71276 3.4033 7.86643 3.36457 7.86643H1.68041ZM4.36532 7.86643C4.33033 7.86643 4.2991 7.71276 4.2991 7.5241C4.2991 7.33544 4.32659 7.18302 4.36532 7.18302H6.04947C6.08446 7.18302 6.11569 7.33669 6.11569 7.5241C6.11569 7.71276 6.0882 7.86643 6.04947 7.86643H4.36532ZM7.05022 7.86643C7.01524 7.86643 6.98401 7.71276 6.98401 7.5241C6.98401 7.33544 7.01149 7.18302 7.05022 7.18302H8.73438C8.76937 7.18302 8.8006 7.33544 8.8006 7.52285C8.63193 7.6278 8.46951 7.74274 8.31459 7.86643H7.05022ZM1.68416 9.82545C1.64918 9.82545 1.61794 9.67178 1.61794 9.48312C1.61794 9.29447 1.64543 9.14079 1.68416 9.14079H3.36832C3.4033 9.14079 3.43453 9.29447 3.43453 9.48312C3.43453 9.67178 3.40705 9.82545 3.36832 9.82545H1.68416ZM4.36907 9.82545C4.33408 9.82545 4.30285 9.67178 4.30285 9.48312C4.30285 9.29447 4.33033 9.14079 4.36907 9.14079H6.05322C6.08821 9.14079 6.11944 9.29447 6.11944 9.48312C6.11944 9.67178 6.09195 9.82545 6.05322 9.82545H4.36907ZM1.68791 11.7857C1.65292 11.7857 1.62169 11.632 1.62169 11.4434C1.62169 11.2547 1.64918 11.1011 1.68791 11.1011H3.37206C3.40705 11.1011 3.43828 11.2547 3.43828 11.4434C3.43828 11.632 3.41079 11.7857 3.37206 11.7857H1.68791ZM4.37281 11.7857C4.33783 11.7857 4.3066 11.632 4.3066 11.4434C4.3066 11.2547 4.33408 11.1011 4.37281 11.1011H6.05697C6.09195 11.1011 6.12319 11.2547 6.12319 11.4434C6.12319 11.632 6.0957 11.7857 6.05697 11.7857H4.37281ZM3.15967 1.20601C3.15967 0.927399 3.43453 0.700012 3.77686 0.700012C4.11919 0.700012 4.39405 0.926149 4.39405 1.20601V3.4199C4.39405 3.69851 4.11794 3.9259 3.77686 3.9259C3.43453 3.9259 3.15967 3.69976 3.15967 3.4199V1.20601ZM0.67966 5.54009H12.4338V2.99137C12.4338 2.90391 12.3988 2.8277 12.3426 2.77148C12.2864 2.71525 12.2064 2.68027 12.1227 2.68027H10.9958C10.8071 2.68027 10.6534 2.5266 10.6534 2.33794C10.6534 2.14929 10.8071 1.99561 10.9958 1.99561H12.1227C12.3988 1.99561 12.6462 2.10681 12.8273 2.28797C13.0085 2.46913 13.1197 2.7165 13.1197 2.99262V7.03934C12.8948 6.96188 12.6637 6.89941 12.4263 6.85319V6.221H12.4338H0.67966V12.8215C0.67966 12.9089 0.714643 12.9851 0.770864 13.0413C0.827086 13.0976 0.907046 13.1325 0.990754 13.1325H6.57671C6.64043 13.3699 6.72039 13.6011 6.81659 13.8235H0.997001C0.722139 13.8235 0.473513 13.7123 0.292354 13.5311C0.111194 13.3512 0 13.1038 0 12.8277V2.99387C0 2.719 0.111194 2.47038 0.292354 2.28922C0.473513 2.10806 0.72089 1.99686 0.997001 1.99686H2.20015C2.38881 1.99686 2.54248 2.15054 2.54248 2.33919C2.54248 2.52785 2.38881 2.68152 2.20015 2.68152H0.997001C0.909545 2.68152 0.833333 2.7165 0.777111 2.77273C0.720889 2.82895 0.685907 2.90891 0.685907 2.99262V5.54134H0.67966V5.54009ZM5.38106 2.68027C5.1924 2.68027 5.03873 2.5266 5.03873 2.33794C5.03873 2.14929 5.1924 1.99561 5.38106 1.99561H7.67491C7.86357 1.99561 8.01724 2.14929 8.01724 2.33794C8.01724 2.5266 7.86357 2.68027 7.67491 2.68027H5.38106Z" fill="#8A8A8A"/>
</svg>
