<svg width="15" height="15" viewBox="0 0 15 15" fill="none" xmlns="http://www.w3.org/2000/svg">
<path d="M15 0H0V15H15V0Z" fill="white" fill-opacity="0.01"/>
<path d="M8.4375 2.8125C8.4375 1.94956 7.73794 1.25 6.875 1.25C6.01206 1.25 5.3125 1.94956 5.3125 2.8125V5.9375C5.3125 6.80044 6.01206 7.5 6.875 7.5C7.73794 7.5 8.4375 6.80044 8.4375 5.9375V2.8125Z" stroke="#8A8A8A"/>
<path d="M13.4375 2.8125C13.4375 1.94956 12.7379 1.25 11.875 1.25C11.0121 1.25 10.3125 1.94956 10.3125 2.8125V5.9375C10.3125 6.80044 11.0121 7.5 11.875 7.5C12.7379 7.5 13.4375 6.80044 13.4375 5.9375V2.8125Z" stroke="#8A8A8A"/>
<path d="M2.5 7.5H2.8125" stroke="#8A8A8A" stroke-linecap="round"/>
</svg>
