<svg width="15" height="16" viewBox="0 0 15 16" fill="none" xmlns="http://www.w3.org/2000/svg">
<path d="M13.9146 11.6935C13.9216 11.6718 13.9264 11.6489 13.9264 11.6249V3.68378C13.9264 3.65956 13.9216 3.63654 13.9145 3.61472C13.9134 3.61173 13.9128 3.60874 13.9116 3.60575C13.902 3.58019 13.888 3.55717 13.8704 3.53699C13.8692 3.53565 13.869 3.53401 13.8678 3.53266C13.8671 3.53191 13.8662 3.53161 13.8654 3.53087C13.8466 3.51084 13.8243 3.49469 13.7994 3.48259C13.7974 3.48169 13.7959 3.48049 13.794 3.4796C13.7704 3.46898 13.7447 3.46301 13.7176 3.46121C13.7149 3.46106 13.7124 3.46046 13.7097 3.46046C13.7071 3.46031 13.7049 3.45972 13.7023 3.45972H1.26538C1.26283 3.45972 1.26044 3.46031 1.2579 3.46046C1.25551 3.46061 1.25312 3.46106 1.25073 3.46121C1.22337 3.46301 1.19722 3.46913 1.1733 3.4799C1.17181 3.48049 1.17061 3.48154 1.16911 3.48214C1.1437 3.49425 1.12113 3.51069 1.10215 3.53102C1.1014 3.53176 1.10051 3.53191 1.09976 3.53266C1.09856 3.53386 1.09841 3.5355 1.09722 3.53685C1.07958 3.55702 1.06538 3.58019 1.05581 3.60575C1.05462 3.60874 1.05402 3.61173 1.05297 3.61487C1.0458 3.63669 1.04102 3.65971 1.04102 3.68393V11.6252C1.04102 11.6497 1.04595 11.673 1.05327 11.6951C1.05432 11.6981 1.05492 11.701 1.05596 11.7039C1.06568 11.7297 1.08003 11.7528 1.09782 11.773C1.09886 11.7742 1.09916 11.7757 1.10021 11.7769C1.1011 11.7779 1.1023 11.7785 1.10335 11.7796C1.11067 11.7872 1.11874 11.7939 1.12711 11.8005C1.13085 11.8033 1.13414 11.8068 1.13802 11.8095C1.14789 11.8164 1.1585 11.8219 1.16941 11.827C1.1721 11.8282 1.1745 11.8301 1.17719 11.8311C1.20424 11.8427 1.23399 11.8492 1.26523 11.8492H13.7021C13.7333 11.8492 13.763 11.8428 13.7901 11.8311C13.7943 11.8294 13.7982 11.8267 13.8022 11.8246C13.8115 11.8199 13.8207 11.8152 13.8293 11.8093C13.8337 11.8062 13.8378 11.8022 13.8421 11.7987C13.8497 11.7926 13.8572 11.7865 13.8638 11.7794C13.865 11.7782 13.8663 11.7773 13.8675 11.7761C13.8687 11.7748 13.869 11.773 13.8702 11.7717C13.8877 11.7516 13.9017 11.7286 13.9113 11.7032C13.9128 11.6999 13.9136 11.6968 13.9146 11.6935ZM1.48959 4.19229L5.26335 7.6393L1.48959 11.1138V4.19229ZM9.22426 7.4704C9.20872 7.48056 9.19227 7.48908 9.17927 7.50343C9.17434 7.50881 9.17269 7.51584 9.16836 7.52152L7.48379 9.0602L1.84324 3.90799H13.1243L9.22426 7.4704ZM5.59578 7.94289L7.33252 9.52925C7.37542 9.56841 7.42953 9.588 7.48379 9.588C7.53805 9.588 7.59216 9.56841 7.63491 9.52925L9.35012 7.96262L13.1233 11.4008H1.83995L5.59578 7.94289ZM9.6827 7.65889L13.478 4.19229V11.1174L9.6827 7.65889Z" fill="#8A8A8A"/>
</svg>
