<svg width="15" height="16" viewBox="0 0 15 16" fill="none" xmlns="http://www.w3.org/2000/svg">
<path fill-rule="evenodd" clip-rule="evenodd" d="M14.7881 14.1468H0.209921C0.095686 14.1468 0.0078125 14.0589 0.0078125 13.9446V3.85677C0.0078125 3.75132 0.095686 3.65466 0.209921 3.65466H14.7881C14.8936 3.65466 14.9902 3.75132 14.9902 3.85677V13.9446C14.9902 14.0589 14.8936 14.1468 14.7881 14.1468ZM0.41203 13.7425H14.5772V4.06767H0.41203V13.7425Z" fill="#8A8A8A"/>
<path fill-rule="evenodd" clip-rule="evenodd" d="M13.9262 13.2944H1.07027C0.956036 13.2944 0.859375 13.1977 0.859375 13.0923V4.71795C0.859375 4.60371 0.956036 4.51584 1.07027 4.51584H13.9262C14.0404 4.51584 14.1283 4.60371 14.1283 4.71795V13.0923C14.1283 13.1977 14.0404 13.2944 13.9262 13.2944ZM1.27238 12.8814H13.724V4.92006H1.27238V12.8814Z" fill="#8A8A8A"/>
<path fill-rule="evenodd" clip-rule="evenodd" d="M8.99742 4.06768C8.88319 4.06768 8.79531 3.97102 8.79531 3.85678V2.25749H6.20305V3.85678C6.20305 3.97102 6.11517 4.06768 6.00094 4.06768C5.8867 4.06768 5.79883 3.97102 5.79883 3.85678V2.05538C5.79883 1.94114 5.8867 1.84448 6.00094 1.84448H8.99742C9.11166 1.84448 9.19953 1.94114 9.19953 2.05538V3.85678C9.19953 3.97102 9.11166 4.06768 8.99742 4.06768Z" fill="#8A8A8A"/>
<path fill-rule="evenodd" clip-rule="evenodd" d="M3.8483 10.4824H2.33687C2.22264 10.4824 2.13477 10.3858 2.13477 10.2716V8.32076C2.13477 8.20652 2.22264 8.10986 2.33687 8.10986H3.79557C3.90981 8.10986 4.00647 8.20652 4.00647 8.32076C4.00647 8.42621 3.90981 8.52287 3.79557 8.52287H2.53898V10.0694H3.8483C3.96253 10.0694 4.05041 10.1573 4.05041 10.2716C4.05041 10.3858 3.96253 10.4824 3.8483 10.4824Z" fill="#8A8A8A"/>
<path fill-rule="evenodd" clip-rule="evenodd" d="M3.71649 9.49827H2.33687C2.22264 9.49827 2.13477 9.4104 2.13477 9.29616C2.13477 9.18193 2.22264 9.09406 2.33687 9.09406H3.71649C3.83072 9.09406 3.9186 9.18193 3.9186 9.29616C3.9186 9.4104 3.83072 9.49827 3.71649 9.49827Z" fill="#8A8A8A"/>
<path fill-rule="evenodd" clip-rule="evenodd" d="M8.45273 10.5967C8.3385 10.5967 8.25062 10.5 8.25062 10.3858V9.21709L7.74096 10.4297C7.7146 10.5088 7.63551 10.5528 7.55642 10.5528C7.46855 10.5528 7.39825 10.5088 7.3631 10.4297L6.85344 9.21709V10.3858C6.85344 10.5 6.76556 10.5967 6.65133 10.5967C6.53709 10.5967 6.44922 10.5 6.44922 10.3858V8.18897C6.44922 8.09231 6.51952 8.01322 6.61618 7.98686C6.70405 7.96928 6.80071 8.02201 6.84465 8.10988L7.55642 9.82341L8.2682 8.10988C8.30335 8.02201 8.40001 7.96928 8.49667 7.98686C8.59333 8.01322 8.66363 8.09231 8.66363 8.18897V10.3858C8.66363 10.5 8.56697 10.5967 8.45273 10.5967Z" fill="#8A8A8A"/>
<path fill-rule="evenodd" clip-rule="evenodd" d="M10.6061 10.5879H9.5956C9.31441 10.5879 9.08594 10.3506 9.08594 10.0694V8.48772C9.08594 8.20653 9.31441 7.97806 9.5956 7.97806H10.6061C10.8873 7.97806 11.1158 8.20653 11.1158 8.48772V8.73377C11.1158 8.84801 11.0192 8.94467 10.9137 8.94467C10.7995 8.94467 10.7028 8.84801 10.7028 8.73377V8.48772C10.7028 8.435 10.6589 8.39106 10.6061 8.39106H9.5956C9.54288 8.39106 9.49894 8.435 9.49894 8.48772V10.0694C9.49894 10.131 9.54288 10.1749 9.5956 10.1749H10.6061C10.6589 10.1749 10.7028 10.131 10.7028 10.0694V9.8234C10.7028 9.70917 10.7995 9.62129 10.9137 9.62129C11.0192 9.62129 11.1158 9.70917 11.1158 9.8234V10.0694C11.1158 10.3506 10.8873 10.5879 10.6061 10.5879Z" fill="#8A8A8A"/>
<path fill-rule="evenodd" clip-rule="evenodd" d="M12.6619 9.09405H11.7568C11.6426 9.09405 11.5547 8.99739 11.5547 8.89195V8.15381C11.5547 8.03957 11.6426 7.9517 11.7568 7.9517H12.451V7.62657H11.7568C11.6426 7.62657 11.5547 7.52991 11.5547 7.41567C11.5547 7.30144 11.6426 7.21356 11.7568 7.21356H12.6619C12.7761 7.21356 12.864 7.30144 12.864 7.41567V8.15381C12.864 8.26804 12.7761 8.35592 12.6619 8.35592H11.9677V8.68105H12.6619C12.7761 8.68105 12.864 8.77771 12.864 8.89195C12.864 8.99739 12.7761 9.09405 12.6619 9.09405Z" fill="#8A8A8A"/>
<path fill-rule="evenodd" clip-rule="evenodd" d="M5.73804 8.98863H4.71871C4.60447 8.98863 4.50781 8.90076 4.50781 8.78652C4.50781 8.67229 4.60447 8.58441 4.71871 8.58441H5.73804C5.84349 8.58441 5.94015 8.67229 5.94015 8.78652C5.94015 8.90076 5.84349 8.98863 5.73804 8.98863Z" fill="#8A8A8A"/>
<path fill-rule="evenodd" clip-rule="evenodd" d="M5.73804 10.008H4.71871C4.60447 10.008 4.50781 9.9201 4.50781 9.80587C4.50781 9.69163 4.60447 9.60376 4.71871 9.60376H5.73804C5.84349 9.60376 5.94015 9.69163 5.94015 9.80587C5.94015 9.9201 5.84349 10.008 5.73804 10.008Z" fill="#8A8A8A"/>
</svg>
