<svg width="15" height="16" viewBox="0 0 15 16" fill="none" xmlns="http://www.w3.org/2000/svg">
<path d="M11.7188 1.83752H3.28125C2.65965 1.83752 2.06351 2.08445 1.62397 2.52399C1.18443 2.96353 0.9375 3.55967 0.9375 4.18127V12.6188C0.9375 13.2404 1.18443 13.8365 1.62397 14.2761C2.06351 14.7156 2.65965 14.9625 3.28125 14.9625H11.7188C12.3404 14.9625 12.9365 14.7156 13.376 14.2761C13.8156 13.8365 14.0625 13.2404 14.0625 12.6188V4.18127C14.0625 3.55967 13.8156 2.96353 13.376 2.52399C12.9365 2.08445 12.3404 1.83752 11.7188 1.83752ZM3.28125 2.77502H11.7188C12.0917 2.77502 12.4494 2.92318 12.7131 3.18691C12.9768 3.45063 13.125 3.80831 13.125 4.18127V6.80159L12.2438 5.92034C11.9801 5.65699 11.6227 5.50907 11.25 5.50907C10.8773 5.50907 10.5199 5.65699 10.2562 5.92034L6.52969 9.67034L5.12344 8.53596C4.87217 8.33033 4.55749 8.21798 4.23281 8.21798C3.90813 8.21798 3.59345 8.33033 3.34219 8.53596L1.875 9.74065V4.18127C1.875 3.80831 2.02316 3.45063 2.28688 3.18691C2.5506 2.92318 2.90829 2.77502 3.28125 2.77502ZM11.7188 14.025H3.28125C2.90829 14.025 2.5506 13.8769 2.28688 13.6131C2.02316 13.3494 1.875 12.9917 1.875 12.6188V10.9641L3.92813 9.24846C4.012 9.17952 4.11721 9.14183 4.22578 9.14183C4.33436 9.14183 4.43956 9.17952 4.52344 9.24846L6.27187 10.6547C6.36168 10.7268 6.47487 10.7632 6.58985 10.7572C6.70483 10.7511 6.81356 10.703 6.89531 10.6219L10.9172 6.59534C10.9608 6.5514 11.0126 6.51653 11.0697 6.49273C11.1269 6.46893 11.1881 6.45668 11.25 6.45668C11.3119 6.45668 11.3731 6.46893 11.4303 6.49273C11.4874 6.51653 11.5392 6.5514 11.5828 6.59534L13.125 8.12346V12.6188C13.125 12.9917 12.9768 13.3494 12.7131 13.6131C12.4494 13.8769 12.0917 14.025 11.7188 14.025Z" fill="#8A8A8A"/>
<path d="M4.6875 6.99377C4.96563 6.99377 5.23751 6.9113 5.46877 6.75678C5.70003 6.60226 5.88027 6.38263 5.98671 6.12567C6.09314 5.86871 6.12099 5.58597 6.06673 5.31318C6.01247 5.04039 5.87854 4.78982 5.68187 4.59316C5.4852 4.39649 5.23463 4.26256 4.96185 4.2083C4.68906 4.15404 4.40631 4.18188 4.14935 4.28832C3.89239 4.39476 3.67277 4.575 3.51825 4.80625C3.36373 5.03751 3.28125 5.30939 3.28125 5.58753C3.28125 5.96049 3.42941 6.31817 3.69313 6.58189C3.95685 6.84562 4.31454 6.99377 4.6875 6.99377ZM4.6875 5.11877C4.78021 5.11877 4.87084 5.14627 4.94792 5.19777C5.02501 5.24928 5.08509 5.32249 5.12057 5.40814C5.15605 5.49379 5.16533 5.58805 5.14724 5.67897C5.12916 5.7699 5.08451 5.85343 5.01896 5.91898C4.9534 5.98454 4.86988 6.02918 4.77895 6.04727C4.68802 6.06535 4.59377 6.05607 4.50812 6.02059C4.42246 5.98511 4.34926 5.92503 4.29775 5.84795C4.24624 5.77086 4.21875 5.68023 4.21875 5.58753C4.21875 5.4632 4.26814 5.34398 4.35604 5.25607C4.44395 5.16816 4.56318 5.11877 4.6875 5.11877Z" fill="#8A8A8A"/>
</svg>
