<svg width="15" height="13" viewBox="0 0 15 13" fill="none" xmlns="http://www.w3.org/2000/svg">
<g clip-path="url(#clip0_2171_18053)">
<path d="M0.681818 12.6H6.13636C6.31719 12.6 6.49062 12.5301 6.61848 12.4057C6.74635 12.2813 6.81818 12.1125 6.81818 11.9366C6.81818 11.7606 6.74635 11.5919 6.61848 11.4675C6.49062 11.343 6.31719 11.2731 6.13636 11.2731H1.41205C1.57749 10.1684 2.14577 9.15844 3.01312 8.42764C3.88047 7.69683 4.98903 7.29395 6.13636 7.29256C6.93919 7.29934 7.71915 7.0326 8.34107 6.53856C8.963 6.04453 9.38769 5.35434 9.54154 4.58762C9.6954 3.82089 9.56872 3.02595 9.18346 2.34057C8.7982 1.65519 8.17864 1.12255 7.43216 0.834983C6.68568 0.547412 5.85933 0.523027 5.09631 0.766054C4.33329 1.00908 3.68171 1.5042 3.25447 2.16561C2.82724 2.82702 2.65128 3.61303 2.7571 4.38741C2.86292 5.1618 3.24385 5.87576 3.83386 6.40556C2.70219 6.85226 1.73302 7.61704 1.05014 8.60221C0.367258 9.58739 0.00164751 10.7483 0 11.9366C0 12.1125 0.0718342 12.2813 0.1997 12.4057C0.327566 12.5301 0.500989 12.6 0.681818 12.6ZM6.13636 1.98512C6.54092 1.98512 6.93638 2.10185 7.27276 2.32055C7.60913 2.53924 7.8713 2.85008 8.02612 3.21376C8.18093 3.57744 8.22144 3.97762 8.14252 4.3637C8.06359 4.74978 7.86878 5.10441 7.58272 5.38276C7.29666 5.66111 6.93219 5.85067 6.53541 5.92746C6.13863 6.00426 5.72736 5.96484 5.3536 5.8142C4.97984 5.66356 4.66039 5.40846 4.43563 5.08116C4.21087 4.75386 4.09091 4.36906 4.09091 3.97541C4.09091 3.44756 4.30641 2.94132 4.69001 2.56807C5.07361 2.19481 5.59388 1.98512 6.13636 1.98512ZM15 9.28286C15 9.45881 14.9282 9.62755 14.8003 9.75197C14.6724 9.87639 14.499 9.94628 14.3182 9.94628H12.2727V11.9366C12.2727 12.1125 12.2009 12.2813 12.073 12.4057C11.9452 12.5301 11.7717 12.6 11.5909 12.6C11.4101 12.6 11.2367 12.5301 11.1088 12.4057C10.9809 12.2813 10.9091 12.1125 10.9091 11.9366V9.94628H8.86364C8.68281 9.94628 8.50938 9.87639 8.38152 9.75197C8.25365 9.62755 8.18182 9.45881 8.18182 9.28286C8.18182 9.1069 8.25365 8.93816 8.38152 8.81374C8.50938 8.68932 8.68281 8.61942 8.86364 8.61942H10.9091V6.62913C10.9091 6.45318 10.9809 6.28444 11.1088 6.16002C11.2367 6.0356 11.4101 5.9657 11.5909 5.9657C11.7717 5.9657 11.9452 6.0356 12.073 6.16002C12.2009 6.28444 12.2727 6.45318 12.2727 6.62913V8.61942H14.3182C14.499 8.61942 14.6724 8.68932 14.8003 8.81374C14.9282 8.93816 15 9.1069 15 9.28286Z" fill="#8A8A8A"/>
</g>
<defs>
<clipPath id="clip0_2171_18053">
<rect width="15" height="12" fill="white" transform="translate(0 0.600006)"/>
</clipPath>
</defs>
</svg>
