<svg width="17" height="16" viewBox="0 0 17 16" fill="none" xmlns="http://www.w3.org/2000/svg">
<path d="M15.7777 14.2159L12.6021 11.0403C12.446 10.8848 12.2346 10.7974 12.0142 10.7974C11.7938 10.7974 11.5824 10.8848 11.4263 11.0403C10.5895 11.8494 9.50793 12.3581 8.35107 12.4866C7.1942 12.6151 6.02738 12.3563 5.0334 11.7506C4.03942 11.1449 3.27443 10.2266 2.85827 9.1396C2.44212 8.05256 2.39831 6.85818 2.73372 5.74357C3.06912 4.62896 3.76479 3.6571 4.71174 2.98023C5.65868 2.30337 6.8034 1.95974 7.96657 2.00319C9.12974 2.04664 10.2456 2.4747 11.1395 3.22032C12.0333 3.96594 12.6545 4.98699 12.9058 6.12352C13.0859 6.94804 13.0673 7.80357 12.8517 8.61951C12.8262 8.71508 12.8198 8.81473 12.8329 8.91277C12.8459 9.01081 12.8781 9.10532 12.9277 9.19091C12.9772 9.2765 13.0432 9.35149 13.1217 9.4116C13.2003 9.4717 13.2899 9.51575 13.3855 9.54122C13.5785 9.59266 13.784 9.56533 13.9569 9.46522C14.1297 9.36512 14.2557 9.20045 14.3072 9.00744C14.7215 7.45024 14.5675 5.79636 13.8728 4.34242C13.1781 2.88847 11.9882 1.72956 10.5164 1.07353C9.04463 0.417488 7.38727 0.307236 5.84156 0.762541C4.29584 1.21785 2.96288 2.20893 2.08173 3.55804C1.20058 4.90716 0.828882 6.52606 1.03329 8.12442C1.23769 9.72279 2.00483 11.1961 3.19713 12.28C4.38943 13.364 5.92889 13.9877 7.53944 14.0394C9.14999 14.0911 10.7263 13.5673 11.9856 12.562L14.7131 15.2865C14.783 15.3565 14.8659 15.4121 14.9573 15.45C15.0486 15.4879 15.1465 15.5074 15.2454 15.5074C15.3443 15.5074 15.4422 15.4879 15.5336 15.45C15.6249 15.4121 15.7079 15.3565 15.7777 15.2865C15.8486 15.2166 15.9049 15.1332 15.9434 15.0413C15.9818 14.9494 16.0016 14.8508 16.0016 14.7512C16.0016 14.6516 15.9818 14.553 15.9434 14.4611C15.9049 14.3692 15.8486 14.2859 15.7777 14.2159Z" fill="#8A8A8A"/>
<path d="M10.0222 9.52165C9.90212 9.41006 9.74833 9.34153 9.58504 9.32683C9.42174 9.31213 9.25819 9.3521 9.12007 9.44045C8.7302 9.68102 8.28296 9.81265 7.82493 9.82165C7.3669 9.83064 6.91484 9.71666 6.51582 9.49158C6.38056 9.41265 6.22336 9.37965 6.06777 9.39754C5.91218 9.41543 5.76658 9.48324 5.65275 9.59082L5.60764 9.63292C5.52688 9.70986 5.46497 9.80441 5.42673 9.90919C5.38849 10.014 5.37495 10.1262 5.38718 10.2371C5.3994 10.3479 5.43705 10.4545 5.4972 10.5484C5.55734 10.6424 5.63836 10.7212 5.73395 10.7787C6.37685 11.1493 7.10877 11.3374 7.85072 11.3226C8.59267 11.3077 9.31649 11.0905 9.94405 10.6945C10.0357 10.6362 10.1132 10.5581 10.1706 10.4659C10.228 10.3737 10.264 10.2697 10.2758 10.1617C10.2877 10.0537 10.2751 9.94447 10.239 9.84201C10.2029 9.73955 10.1442 9.6465 10.0673 9.56977L10.0222 9.52165Z" fill="#8A8A8A"/>
</svg>
