<svg width="20" height="17" viewBox="0 0 20 17" fill="none" xmlns="http://www.w3.org/2000/svg">
<path d="M1.23438 10.5094L2.17188 11.4469L4.51562 9.10315" stroke="#8A8A8A" stroke-miterlimit="10"/>
<path d="M1.23438 4.8844L2.17188 5.8219L4.51562 3.47815" stroke="#8A8A8A" stroke-miterlimit="10"/>
<path d="M6.625 4.8844H16" stroke="#8A8A8A" stroke-miterlimit="10"/>
<path d="M6.625 7.6969H16" stroke="#8A8A8A" stroke-miterlimit="10"/>
<path d="M6.625 10.5094H16" stroke="#8A8A8A" stroke-miterlimit="10"/>
<path d="M6.625 13.3219H16" stroke="#8A8A8A" stroke-miterlimit="10"/>
<path d="M19.8899 15.9705L18.6214 14.702C18.5591 14.6399 18.4746 14.605 18.3866 14.605C18.2986 14.605 18.2141 14.6399 18.1518 14.702C17.8175 15.0252 17.3855 15.2284 16.9234 15.2797C16.4613 15.3311 15.9952 15.2277 15.5982 14.9857C15.2012 14.7438 14.8956 14.377 14.7294 13.9428C14.5631 13.5086 14.5456 13.0315 14.6796 12.5863C14.8136 12.1411 15.0915 11.7529 15.4697 11.4825C15.848 11.2121 16.3052 11.0749 16.7698 11.0922C17.2344 11.1096 17.6802 11.2806 18.0372 11.5784C18.3942 11.8762 18.6424 12.2841 18.7427 12.738C18.8147 13.0674 18.8073 13.4091 18.7211 13.735C18.711 13.7732 18.7084 13.813 18.7136 13.8522C18.7188 13.8913 18.7317 13.9291 18.7515 13.9633C18.7713 13.9975 18.7976 14.0274 18.829 14.0514C18.8604 14.0754 18.8962 14.093 18.9343 14.1032C19.0114 14.1238 19.0935 14.1128 19.1626 14.0729C19.2316 14.0329 19.282 13.9671 19.3025 13.89C19.468 13.268 19.4065 12.6074 19.129 12.0266C18.8515 11.4458 18.3762 10.9829 17.7883 10.7209C17.2004 10.4588 16.5384 10.4148 15.921 10.5967C15.3036 10.7785 14.7712 11.1744 14.4192 11.7133C14.0672 12.2522 13.9187 12.8988 14.0004 13.5373C14.082 14.1757 14.3885 14.7642 14.8647 15.1972C15.341 15.6302 15.9559 15.8793 16.5992 15.9C17.2425 15.9206 17.8722 15.7114 18.3752 15.3098L19.4647 16.3981C19.4926 16.4261 19.5257 16.4483 19.5622 16.4634C19.5987 16.4785 19.6378 16.4863 19.6773 16.4863C19.7168 16.4863 19.7559 16.4785 19.7924 16.4634C19.8289 16.4483 19.862 16.4261 19.8899 16.3981C19.9182 16.3702 19.9407 16.3369 19.9561 16.3002C19.9714 16.2635 19.9793 16.2241 19.9793 16.1843C19.9793 16.1445 19.9714 16.1051 19.9561 16.0684C19.9407 16.0317 19.9182 15.9984 19.8899 15.9705Z" fill="#8A8A8A"/>
<path d="M17.5915 14.0954C17.5435 14.0509 17.482 14.0235 17.4168 14.0176C17.3516 14.0117 17.2863 14.0277 17.2311 14.063C17.0754 14.1591 16.8967 14.2117 16.7138 14.2153C16.5308 14.2188 16.3502 14.1733 16.1909 14.0834C16.1368 14.0519 16.074 14.0387 16.0119 14.0459C15.9497 14.053 15.8916 14.0801 15.8461 14.1231L15.8281 14.1399C15.7958 14.1706 15.7711 14.2084 15.7558 14.2502C15.7405 14.2921 15.7351 14.3369 15.74 14.3812C15.7449 14.4255 15.7599 14.468 15.784 14.5056C15.808 14.5431 15.8404 14.5746 15.8785 14.5975C16.1353 14.7456 16.4277 14.8207 16.7241 14.8148C17.0204 14.8089 17.3095 14.7221 17.5602 14.5639C17.5968 14.5406 17.6278 14.5094 17.6507 14.4726C17.6736 14.4358 17.688 14.3942 17.6927 14.3511C17.6975 14.308 17.6924 14.2643 17.678 14.2234C17.6636 14.1825 17.6402 14.1453 17.6095 14.1146L17.5915 14.0954Z" fill="#8A8A8A"/>
</svg>
