<svg width="15" height="16" viewBox="0 0 15 16" fill="none" xmlns="http://www.w3.org/2000/svg">
<path d="M14.0625 0.725037H0.9375C0.764771 0.725037 0.625 0.864807 0.625 1.03754V14.1625C0.625 14.3353 0.764771 14.475 0.9375 14.475H14.0625C14.2352 14.475 14.375 14.3353 14.375 14.1625V1.03754C14.375 0.864807 14.2352 0.725037 14.0625 0.725037ZM9.375 1.35004V7.28754H1.25V1.35004H9.375ZM1.25 7.91254H9.375V13.85H1.25V7.91254ZM13.75 13.85H10V1.35004H13.75V13.85Z" fill="#8A8A8A"/>
<path d="M14.0625 0.725037H0.9375C0.764771 0.725037 0.625 0.864807 0.625 1.03754V14.1625C0.625 14.3353 0.764771 14.475 0.9375 14.475H14.0625C14.2352 14.475 14.375 14.3353 14.375 14.1625V1.03754C14.375 0.864807 14.2352 0.725037 14.0625 0.725037ZM9.375 1.35004V7.28754H1.25V1.35004H9.375ZM1.25 7.91254H9.375V13.85H1.25V7.91254ZM13.75 13.85H10V1.35004H13.75V13.85Z" fill="url(#paint0_linear_2232_18179)"/>
<defs>
<linearGradient id="paint0_linear_2232_18179" x1="-0.687311" y1="3.78223" x2="15.6873" y2="11.4178" gradientUnits="userSpaceOnUse">
<stop stop-color="white" stop-opacity="0.2"/>
<stop offset="1" stop-color="white" stop-opacity="0"/>
</linearGradient>
</defs>
</svg>
