<svg width="21" height="11" viewBox="0 0 21 11" fill="none" xmlns="http://www.w3.org/2000/svg">
<g clip-path="url(#clip0_2212_18136)">
<path d="M5.34787 1.02499V9.56666H4.58398V1.94333L2.86523 2.44583V1.58291L4.77496 1.02499H5.34787Z" fill="#8A8A8A"/>
</g>
<path d="M11.5313 3.52499C11.5313 3.08296 11.3637 2.65904 11.0652 2.34648C10.7667 2.03392 10.362 1.85832 9.93989 1.85832C9.51781 1.85832 9.11302 2.03392 8.81457 2.34648C8.51612 2.65904 8.34845 3.08296 8.34845 3.52499H7.55273C7.55275 3.12494 7.64443 2.73073 7.82009 2.37549C7.99574 2.02024 8.25024 1.71433 8.56219 1.48345C8.87415 1.25257 9.23445 1.10347 9.61285 1.04866C9.99124 0.993851 10.3767 1.03494 10.7367 1.16848C11.0968 1.30203 11.421 1.52411 11.6822 1.81609C11.9433 2.10807 12.1337 2.46142 12.2374 2.84645C12.3411 3.23148 12.355 3.63694 12.2781 4.02879C12.2011 4.42064 12.0355 4.78742 11.7951 5.09832L8.88278 8.73291L12.327 8.73332V9.56666H7.55273V9.09707L11.1589 4.59624C11.4 4.29643 11.5319 3.91693 11.5313 3.52499Z" fill="#8A8A8A"/>
<g clip-path="url(#clip1_2212_18136)">
<path d="M18.2158 1.23334V1.80084L16.0529 4.37917C16.5422 4.44056 17.0055 4.63437 17.3927 4.93968C17.78 5.24499 18.0765 5.65023 18.2504 6.1117C18.4243 6.57316 18.4689 7.07334 18.3795 7.5583C18.29 8.04326 18.0698 8.49459 17.7427 8.86362C17.4156 9.23266 16.994 9.50539 16.5233 9.65241C16.0525 9.79944 15.5506 9.81517 15.0716 9.69792C14.5926 9.58066 14.1547 9.33487 13.8051 8.98705C13.4556 8.63923 13.2076 8.20257 13.0879 7.72417L13.8962 7.52167C14.0081 7.96483 14.278 8.35189 14.6551 8.61015C15.0322 8.8684 15.4906 8.98009 15.9443 8.92422C16.3979 8.86835 16.8155 8.64878 17.1187 8.30674C17.4219 7.9647 17.5898 7.52374 17.5908 7.06667C17.5909 6.74731 17.5094 6.43322 17.3541 6.15418C17.1988 5.87513 16.9748 5.64039 16.7033 5.4722C16.4318 5.30401 16.1218 5.20795 15.8028 5.19313C15.4838 5.1783 15.1663 5.24521 14.8804 5.3875L14.7854 5.43834L14.4979 4.93542L16.9054 2.06667H13.4241V1.23334H18.2158Z" fill="#8A8A8A"/>
</g>
<defs>
<clipPath id="clip0_2212_18136">
<rect width="9.16667" height="10" fill="white" transform="translate(0 0.399994)"/>
</clipPath>
<clipPath id="clip1_2212_18136">
<rect width="10" height="10" fill="white" transform="translate(10.7148 0.399994)"/>
</clipPath>
</defs>
</svg>
