<svg width="15" height="16" viewBox="0 0 15 16" fill="none" xmlns="http://www.w3.org/2000/svg">
<path d="M9.40664 3.425C10.0171 3.5441 10.5781 3.84266 11.0179 4.28246C11.4577 4.72225 11.7563 5.28329 11.8754 5.89375M9.40664 0.924995C10.6749 1.06589 11.8576 1.63385 12.7605 2.53563C13.6634 3.4374 14.2329 4.61938 14.3754 5.8875M13.7504 10.875V12.75C13.7511 12.9241 13.7154 13.0964 13.6457 13.2558C13.576 13.4153 13.4737 13.5585 13.3454 13.6762C13.2172 13.7938 13.0657 13.8834 12.9009 13.9392C12.736 13.995 12.5612 14.0157 12.3879 14C10.4647 13.791 8.61726 13.1338 6.99414 12.0812C5.48403 11.1217 4.20372 9.84135 3.24414 8.33125C2.18787 6.70075 1.53054 4.84437 1.32539 2.9125C1.30977 2.73966 1.33031 2.56547 1.3857 2.40101C1.44109 2.23655 1.53012 2.08543 1.64711 1.95726C1.76411 1.82909 1.90651 1.72669 2.06525 1.65657C2.224 1.58645 2.3956 1.55016 2.56914 1.55H4.44414C4.74745 1.54701 5.04151 1.65442 5.27149 1.8522C5.50147 2.04999 5.65168 2.32465 5.69414 2.625C5.77327 3.22504 5.92004 3.8142 6.13164 4.38125C6.21573 4.60495 6.23392 4.84807 6.18408 5.0818C6.13423 5.31552 6.01842 5.53006 5.85039 5.7L5.05664 6.49375C5.94636 8.05846 7.24192 9.35402 8.80664 10.2437L9.60039 9.45C9.77032 9.28196 9.98486 9.16615 10.2186 9.1163C10.4523 9.06646 10.6954 9.08466 10.9191 9.16875C11.4862 9.38034 12.0753 9.52711 12.6754 9.60625C12.979 9.64908 13.2563 9.802 13.4545 10.0359C13.6527 10.2699 13.758 10.5685 13.7504 10.875Z" stroke="#8A8A8A" stroke-linecap="round" stroke-linejoin="round"/>
</svg>
