<svg width="21" height="10" viewBox="0 0 21 10" fill="none" xmlns="http://www.w3.org/2000/svg">
<path d="M20 1H1V9H20V1Z" stroke="#8A8A8A" stroke-width="0.5"/>
<path d="M17.6178 4.28452L15.9511 5.95119C15.9199 5.98244 15.8775 6 15.8333 6C15.7891 6 15.7467 5.98243 15.7154 5.95118L14.0488 4.28451C13.9837 4.21942 13.9837 4.1139 14.0488 4.04881C14.1139 3.98373 14.2194 3.98372 14.2845 4.04881L15.8333 5.59762L17.3821 4.04881C17.4147 4.01627 17.4573 4 17.5 4C17.5427 4 17.5853 4.01627 17.6179 4.04882C17.6829 4.11391 17.6829 4.21943 17.6178 4.28452Z" fill="#383838"/>
</svg>
