<svg width="11" height="15" viewBox="0 0 11 15" fill="none" xmlns="http://www.w3.org/2000/svg">
<path d="M9.88945 1.67112C9.62816 1.40892 9.31768 1.20088 8.97582 1.05893C8.63395 0.916974 8.26743 0.843903 7.89727 0.843903C7.5271 0.843903 7.16058 0.916974 6.81872 1.05893C6.47685 1.20088 6.16637 1.40892 5.90508 1.67112L2.74102 4.83518C0.216798 7.58206 3.96445 11.3367 6.72539 8.81956L7.35586 8.19143C7.4233 8.12554 7.46181 8.03556 7.46291 7.94128C7.46401 7.847 7.42761 7.75614 7.36172 7.6887C7.29583 7.62125 7.20585 7.58275 7.11157 7.58165C7.01729 7.58055 6.92643 7.61695 6.85899 7.68284L6.22852 8.31331C5.97093 8.57031 5.65124 8.75631 5.30052 8.85323C4.94979 8.95016 4.57996 8.9547 4.22695 8.86643C2.66602 8.51956 2.09414 6.43596 3.24727 5.33206L6.41133 2.17503C6.81312 1.81794 7.33608 1.62771 7.8734 1.6432C8.41072 1.65869 8.92185 1.87874 9.30239 2.25839C9.68294 2.63804 9.90419 3.14865 9.92095 3.68593C9.93771 4.2232 9.74872 4.74661 9.39258 5.14925L8.64961 5.89456C8.58341 5.96045 8.5461 6.04994 8.54588 6.14334C8.54566 6.23674 8.58255 6.3264 8.64844 6.3926C8.71433 6.45881 8.80382 6.49612 8.89722 6.49634C8.99062 6.49656 9.08029 6.45967 9.14649 6.39378L9.88945 5.64846C10.4169 5.12102 10.7132 4.40568 10.7132 3.65979C10.7132 2.9139 10.4169 2.19856 9.88945 1.67112Z" fill="#8A8A8A"/>
<path d="M6.26425 5.96486C5.89449 5.96385 5.5282 6.03625 5.18662 6.17787C4.84505 6.31949 4.53498 6.52751 4.27441 6.78986L3.64629 7.41799C3.61351 7.45061 3.58747 7.48937 3.56967 7.53206C3.55188 7.57475 3.54266 7.62052 3.54255 7.66677C3.54244 7.71302 3.55144 7.75883 3.56904 7.8016C3.58664 7.84437 3.61249 7.88325 3.64511 7.91603C3.67774 7.94881 3.7165 7.97484 3.75919 7.99264C3.80187 8.01044 3.84765 8.01966 3.89389 8.01977C3.94014 8.01988 3.98596 8.01088 4.02873 7.99328C4.0715 7.97568 4.11038 7.94983 4.14316 7.91721L4.77129 7.28674C6.82207 5.38596 9.65566 8.22424 7.75488 10.268L4.59082 13.425C2.53535 15.3235 -0.291215 12.4875 1.60722 10.4438L2.35254 9.69845C2.40704 9.63069 2.4345 9.54513 2.4296 9.4583C2.4247 9.37147 2.3878 9.28954 2.32601 9.22834C2.26422 9.16713 2.18195 9.131 2.09508 9.12693C2.0082 9.12285 1.9229 9.15112 1.85566 9.20627L1.11035 9.95158C0.581987 10.4799 0.285156 11.1966 0.285156 11.9438C0.285156 12.691 0.581987 13.4076 1.11035 13.936C1.63871 14.4643 2.35532 14.7611 3.10254 14.7611C3.84975 14.7611 4.56636 14.4643 5.09472 13.936L8.25879 10.7719C10.0166 9.01877 8.74394 5.9508 6.26425 5.96486Z" fill="#8A8A8A"/>
</svg>
