<svg width="15" height="13" viewBox="0 0 15 13" fill="none" xmlns="http://www.w3.org/2000/svg">
<g clip-path="url(#clip0_2171_18106)">
<path d="M0.681818 12.2H6.13636C6.31719 12.2 6.49062 12.1301 6.61848 12.0057C6.74635 11.8813 6.81818 11.7125 6.81818 11.5366C6.81818 11.3606 6.74635 11.1919 6.61848 11.0675C6.49062 10.943 6.31719 10.8732 6.13636 10.8732H1.41205C1.57749 9.76842 2.14577 8.75845 3.01312 8.02764C3.88047 7.29684 4.98903 6.89396 6.13636 6.89257C6.93919 6.89934 7.71915 6.6326 8.34107 6.13857C8.963 5.64453 9.38769 4.95435 9.54154 4.18762C9.6954 3.4209 9.56872 2.62596 9.18346 1.94058C8.7982 1.25519 8.17864 0.72256 7.43216 0.434989C6.68568 0.147418 5.85933 0.123033 5.09631 0.36606C4.33329 0.609087 3.68171 1.10421 3.25447 1.76562C2.82724 2.42702 2.65128 3.21303 2.7571 3.98742C2.86292 4.76181 3.24385 5.47577 3.83386 6.00556C2.70219 6.45227 1.73302 7.21704 1.05014 8.20222C0.367258 9.1874 0.00164751 10.3483 0 11.5366C0 11.7125 0.0718342 11.8813 0.1997 12.0057C0.327566 12.1301 0.500989 12.2 0.681818 12.2ZM6.13636 1.58513C6.54092 1.58513 6.93638 1.70186 7.27276 1.92055C7.60913 2.13925 7.8713 2.45009 8.02612 2.81377C8.18093 3.17745 8.22144 3.57763 8.14252 3.96371C8.06359 4.34978 7.86878 4.70442 7.58272 4.98277C7.29666 5.26111 6.93219 5.45067 6.53541 5.52747C6.13863 5.60426 5.72736 5.56485 5.3536 5.41421C4.97984 5.26357 4.66039 5.00847 4.43563 4.68117C4.21087 4.35386 4.09091 3.96906 4.09091 3.57542C4.09091 3.04756 4.30641 2.54132 4.69001 2.16807C5.07361 1.79482 5.59388 1.58513 6.13636 1.58513ZM15 8.88286C15 9.05881 14.9282 9.22756 14.8003 9.35198C14.6724 9.47639 14.499 9.54629 14.3182 9.54629H12.2727V11.5366C12.2727 11.7125 12.2009 11.8813 12.073 12.0057C11.9452 12.1301 11.7717 12.2 11.5909 12.2C11.4101 12.2 11.2367 12.1301 11.1088 12.0057C10.9809 11.8813 10.9091 11.7125 10.9091 11.5366V9.54629H8.86364C8.68281 9.54629 8.50938 9.47639 8.38152 9.35198C8.25365 9.22756 8.18182 9.05881 8.18182 8.88286C8.18182 8.70691 8.25365 8.53816 8.38152 8.41374C8.50938 8.28933 8.68281 8.21943 8.86364 8.21943H10.9091V6.22914C10.9091 6.05319 10.9809 5.88444 11.1088 5.76002C11.2367 5.63561 11.4101 5.56571 11.5909 5.56571C11.7717 5.56571 11.9452 5.63561 12.073 5.76002C12.2009 5.88444 12.2727 6.05319 12.2727 6.22914V8.21943H14.3182C14.499 8.21943 14.6724 8.28933 14.8003 8.41374C14.9282 8.53816 15 8.70691 15 8.88286Z" fill="#8A8A8A"/>
</g>
<defs>
<clipPath id="clip0_2171_18106">
<rect width="15" height="12" fill="white" transform="translate(0 0.200012)"/>
</clipPath>
</defs>
</svg>
