<svg width="501" height="501" viewBox="0 0 501 501" fill="none" xmlns="http://www.w3.org/2000/svg">
<g clip-path="url(#clip0_3231_3011)">
<path d="M500.5 382.898H0.5V383.148H500.5V382.898Z" fill="#EBEBEB"/>
<path d="M450.399 398.994H417.277V399.244H450.399V398.994Z" fill="#EBEBEB"/>
<path d="M331.72 401.708H323.027V401.958H331.72V401.708Z" fill="#EBEBEB"/>
<path d="M416.278 389.708H397.086V389.958H416.278V389.708Z" fill="#EBEBEB"/>
<path d="M96.1539 391.388H52.9609V391.638H96.1539V391.388Z" fill="#EBEBEB"/>
<path d="M111.388 391.388H105.055V391.638H111.388V391.388Z" fill="#EBEBEB"/>
<path d="M225.649 395.611H131.973V395.861H225.649V395.611Z" fill="#EBEBEB"/>
<path d="M237.514 338.3H44.415C41.268 338.3 38.707 335.739 38.707 332.592V61.1599C38.707 58.0129 41.268 55.4519 44.415 55.4519H237.514C240.66 55.4519 243.221 58.0129 243.221 61.1599V332.592C243.221 335.739 240.66 338.3 237.514 338.3ZM44.415 55.7029C41.405 55.7029 38.957 58.1509 38.957 61.1609V332.593C38.957 335.603 41.405 338.051 44.415 338.051H237.514C240.523 338.051 242.971 335.603 242.971 332.593V61.1599C242.971 58.1509 240.523 55.7019 237.514 55.7019L44.415 55.7029Z" fill="#EBEBEB"/>
<path d="M453.809 338.3H260.711C257.564 338.3 255.004 335.739 255.004 332.592V61.1599C255.004 58.0129 257.565 55.4519 260.711 55.4519H453.809C456.957 55.4519 459.517 58.0129 459.517 61.1599V332.592C459.518 335.739 456.957 338.3 453.809 338.3ZM260.711 55.7029C257.702 55.7029 255.254 58.1509 255.254 61.1609V332.593C255.254 335.603 257.702 338.051 260.711 338.051H453.809C456.819 338.051 459.267 335.603 459.267 332.593V61.1599C459.267 58.1509 456.819 55.7019 453.809 55.7019L260.711 55.7029Z" fill="#EBEBEB"/>
<path d="M388.656 382.284H429.167L420.981 235.808H396.843L388.656 382.284Z" fill="#F0F0F0"/>
<path d="M422.676 232.261H395.148V239.825H422.676V232.261Z" fill="#EBEBEB"/>
<path d="M339.535 382.284H380.046L371.86 235.808H347.722L339.535 382.284Z" fill="#F0F0F0"/>
<path d="M373.555 232.261H346.027V239.825H373.555V232.261Z" fill="#EBEBEB"/>
<path d="M393.423 359.241H349.379V382.284H393.423V359.241Z" fill="#E6E6E6"/>
<path d="M345.349 359.241H301.305V382.284H345.349V359.241Z" fill="#E0E0E0"/>
<path d="M442.939 359.241H398.895V382.284H442.939V359.241Z" fill="#E6E6E6"/>
<path d="M181.309 315.274V304.965L155.842 315.274V304.965L130.376 315.274V304.965L104.909 315.274V304.965L74.1844 317.402H73.8744V245.412H58.0664V382.284H64.0314H73.8744H206.776V324.911V317.402V304.965L181.309 315.274Z" fill="#F0F0F0"/>
<path d="M227.947 345.098H150.625V382.284H227.947V345.098Z" fill="#E6E6E6"/>
<path d="M139.624 344.337H126.814C124.986 344.337 123.504 345.864 123.504 347.749V373.785C123.504 375.387 124.579 376.721 126.023 377.088V382.284H128.135V377.197H132.162V382.284H134.275V377.197H138.302V382.284H140.415V377.088C141.859 376.721 142.934 375.387 142.934 373.785V347.749C142.934 345.864 141.452 344.337 139.624 344.337Z" fill="#E6E6E6"/>
<path d="M115.979 344.337H103.169C101.341 344.337 99.8594 345.864 99.8594 347.749V373.785C99.8594 375.387 100.934 376.721 102.378 377.088V382.284H104.491V377.197H108.518V382.284H110.631V377.197H114.658V382.284H116.771V377.088C118.215 376.721 119.29 375.387 119.29 373.785V347.749C119.289 345.864 117.807 344.337 115.979 344.337Z" fill="#E6E6E6"/>
<path d="M92.3348 344.337H79.5248C77.6968 344.337 76.2148 345.864 76.2148 347.749V373.785C76.2148 375.387 77.2898 376.721 78.7338 377.088V382.284H80.8468V377.197H84.8738V382.284H86.9868V377.197H91.0138V382.284H93.1268V377.088C94.5708 376.721 95.6458 375.387 95.6458 373.785V347.749C95.6458 345.864 94.1628 344.337 92.3348 344.337Z" fill="#E6E6E6"/>
<path d="M77.6093 210.211C77.4173 206.405 85.4773 204.823 87.0133 207.987C88.5483 211.152 85.4783 213.526 85.4783 213.526C85.4783 213.526 90.0843 215.426 86.2463 218.333C82.4083 221.24 80.8723 218.333 80.8723 218.333C80.8723 218.333 76.4583 222.427 75.3063 220.844C74.1553 219.262 76.4583 218.03 76.4583 218.03C76.4583 218.03 72.7483 218.273 73.2593 214.515C73.7713 210.757 77.6093 210.211 77.6093 210.211Z" fill="#E0E0E0"/>
<path d="M65.9414 227.941C65.8454 226.038 69.8754 225.247 70.6434 226.829C71.4114 228.411 69.8754 229.598 69.8754 229.598C69.8754 229.598 72.1784 230.548 70.2594 232.002C68.3404 233.456 67.5724 232.002 67.5724 232.002C67.5724 232.002 65.3654 234.049 64.7894 233.258C64.2134 232.467 65.3654 231.851 65.3654 231.851C65.3654 231.851 63.5104 231.972 63.7664 230.093C64.0224 228.214 65.9414 227.941 65.9414 227.941Z" fill="#E0E0E0"/>
<path d="M64.38 188.309C64.104 182.846 75.675 180.574 77.879 185.117C80.083 189.66 75.675 193.067 75.675 193.067C75.675 193.067 82.287 195.794 76.777 199.967C71.267 204.14 69.063 199.967 69.063 199.967C69.063 199.967 62.727 205.843 61.074 203.572C59.421 201.301 62.727 199.532 62.727 199.532C62.727 199.532 57.401 199.881 58.136 194.486C58.871 189.091 64.38 188.309 64.38 188.309Z" fill="#E0E0E0"/>
<path d="M364.48 199.39C364.288 195.584 372.348 194.002 373.884 197.166C375.419 200.331 372.349 202.705 372.349 202.705C372.349 202.705 376.955 204.605 373.117 207.512C369.279 210.419 367.743 207.512 367.743 207.512C367.743 207.512 363.329 211.606 362.177 210.023C361.026 208.441 363.329 207.209 363.329 207.209C363.329 207.209 359.619 207.452 360.13 203.694C360.642 199.936 364.48 199.39 364.48 199.39Z" fill="#E0E0E0"/>
<path d="M352.813 217.121C352.717 215.218 356.747 214.427 357.515 216.009C358.283 217.591 356.747 218.778 356.747 218.778C356.747 218.778 359.05 219.728 357.131 221.182C355.212 222.635 354.444 221.182 354.444 221.182C354.444 221.182 352.237 223.229 351.661 222.438C351.085 221.647 352.237 221.031 352.237 221.031C352.237 221.031 350.382 221.153 350.638 219.273C350.894 217.393 352.813 217.121 352.813 217.121Z" fill="#E0E0E0"/>
<path d="M351.251 177.488C350.976 172.025 362.546 169.753 364.75 174.296C366.954 178.839 362.546 182.246 362.546 182.246C362.546 182.246 369.158 184.974 363.648 189.146C358.138 193.319 355.934 189.146 355.934 189.146C355.934 189.146 349.598 195.023 347.945 192.751C346.292 190.479 349.598 188.711 349.598 188.711C349.598 188.711 344.272 189.06 345.007 183.665C345.741 178.271 351.251 177.488 351.251 177.488Z" fill="#E0E0E0"/>
<path d="M417.962 202.368C417.77 198.562 425.83 196.98 427.366 200.144C428.901 203.309 425.831 205.683 425.831 205.683C425.831 205.683 430.437 207.583 426.599 210.49C422.761 213.397 421.225 210.49 421.225 210.49C421.225 210.49 416.811 214.584 415.659 213.001C414.508 211.419 416.81 210.187 416.81 210.187C416.81 210.187 413.1 210.43 413.611 206.672C414.124 202.913 417.962 202.368 417.962 202.368Z" fill="#E0E0E0"/>
<path d="M406.293 220.098C406.197 218.195 410.227 217.404 410.995 218.986C411.763 220.568 410.227 221.755 410.227 221.755C410.227 221.755 412.53 222.705 410.611 224.159C408.692 225.613 407.924 224.159 407.924 224.159C407.924 224.159 405.717 226.206 405.141 225.415C404.565 224.624 405.717 224.008 405.717 224.008C405.717 224.008 403.862 224.129 404.118 222.25C404.374 220.371 406.293 220.098 406.293 220.098Z" fill="#E0E0E0"/>
<path d="M404.732 180.465C404.456 175.002 416.027 172.73 418.231 177.273C420.435 181.816 416.027 185.223 416.027 185.223C416.027 185.223 422.639 187.95 417.129 192.123C411.619 196.296 409.415 192.123 409.415 192.123C409.415 192.123 403.079 197.999 401.426 195.728C399.773 193.457 403.079 191.688 403.079 191.688C403.079 191.688 397.753 192.037 398.488 186.642C399.222 181.249 404.732 180.465 404.732 180.465Z" fill="#E0E0E0"/>
<path d="M340.4 331.744V307.664H334.271V223.936H325.411V213.133L306.494 204.04V193.147H303.874V223.936H300.205V307.664H296.536V263.639H286.578V240.952H283.8V307.664H276.236V282.275H271.258V275.793H259.727V253.646H253.413V237.981H245.652V215.159H242.882V237.981H235.12V253.646H228.806V275.793H217.275V282.275H212.296V307.664H206.391V275.793H194.861V207.191H191.192V199.629H166.56V207.191H161.319V256.887H140.355V261.749H132.493V265.53H140.355V284.976H127.592V285.103H107.359V382.284H344.593V331.744H340.4Z" fill="#E6E6E6"/>
<path d="M114.876 289.896H111.906V292.957H114.876V289.896Z" fill="#F0F0F0"/>
<path d="M114.876 295.027H111.906V298.088H114.876V295.027Z" fill="#F0F0F0"/>
<path d="M167.986 209.86H165.016V212.921H167.986V209.86Z" fill="#F0F0F0"/>
<path d="M167.986 214.992H165.016V218.053H167.986V214.992Z" fill="#F0F0F0"/>
<path d="M167.986 220.123H165.016V223.184H167.986V220.123Z" fill="#F0F0F0"/>
<path d="M167.986 225.255H165.016V228.316H167.986V225.255Z" fill="#F0F0F0"/>
<path d="M167.986 230.387H165.016V233.448H167.986V230.387Z" fill="#F0F0F0"/>
<path d="M167.986 235.518H165.016V238.579H167.986V235.518Z" fill="#F0F0F0"/>
<path d="M167.986 240.65H165.016V243.711H167.986V240.65Z" fill="#F0F0F0"/>
<path d="M167.986 245.782H165.016V248.843H167.986V245.782Z" fill="#F0F0F0"/>
<path d="M167.986 261.177H165.016V264.238H167.986V261.177Z" fill="#F0F0F0"/>
<path d="M167.986 266.308H165.016V269.369H167.986V266.308Z" fill="#F0F0F0"/>
<path d="M172.7 209.86H169.73V212.921H172.7V209.86Z" fill="#F0F0F0"/>
<path d="M172.7 214.992H169.73V218.053H172.7V214.992Z" fill="#F0F0F0"/>
<path d="M172.7 220.123H169.73V223.184H172.7V220.123Z" fill="#F0F0F0"/>
<path d="M172.7 225.255H169.73V228.316H172.7V225.255Z" fill="#F0F0F0"/>
<path d="M172.7 230.387H169.73V233.448H172.7V230.387Z" fill="#F0F0F0"/>
<path d="M172.7 235.518H169.73V238.579H172.7V235.518Z" fill="#F0F0F0"/>
<path d="M172.7 240.65H169.73V243.711H172.7V240.65Z" fill="#F0F0F0"/>
<path d="M172.7 245.782H169.73V248.843H172.7V245.782Z" fill="#F0F0F0"/>
<path d="M172.7 266.308H169.73V269.369H172.7V266.308Z" fill="#F0F0F0"/>
<path d="M177.419 209.86H174.449V212.921H177.419V209.86Z" fill="#F0F0F0"/>
<path d="M177.419 214.992H174.449V218.053H177.419V214.992Z" fill="#F0F0F0"/>
<path d="M177.419 220.123H174.449V223.184H177.419V220.123Z" fill="#F0F0F0"/>
<path d="M177.419 225.255H174.449V228.316H177.419V225.255Z" fill="#F0F0F0"/>
<path d="M177.419 230.387H174.449V233.448H177.419V230.387Z" fill="#F0F0F0"/>
<path d="M177.419 235.518H174.449V238.579H177.419V235.518Z" fill="#F0F0F0"/>
<path d="M177.419 240.65H174.449V243.711H177.419V240.65Z" fill="#F0F0F0"/>
<path d="M177.419 245.782H174.449V248.843H177.419V245.782Z" fill="#F0F0F0"/>
<path d="M182.134 209.86H179.164V212.921H182.134V209.86Z" fill="#F0F0F0"/>
<path d="M182.134 214.992H179.164V218.053H182.134V214.992Z" fill="#F0F0F0"/>
<path d="M182.134 220.123H179.164V223.184H182.134V220.123Z" fill="#F0F0F0"/>
<path d="M182.134 225.255H179.164V228.316H182.134V225.255Z" fill="#F0F0F0"/>
<path d="M182.134 230.387H179.164V233.448H182.134V230.387Z" fill="#F0F0F0"/>
<path d="M182.134 235.518H179.164V238.579H182.134V235.518Z" fill="#F0F0F0"/>
<path d="M182.134 245.782H179.164V248.843H182.134V245.782Z" fill="#F0F0F0"/>
<path d="M182.134 250.913H179.164V253.974H182.134V250.913Z" fill="#F0F0F0"/>
<path d="M182.134 266.308H179.164V269.369H182.134V266.308Z" fill="#F0F0F0"/>
<path d="M182.134 271.44H179.164V274.501H182.134V271.44Z" fill="#F0F0F0"/>
<path d="M182.134 276.572H179.164V279.633H182.134V276.572Z" fill="#F0F0F0"/>
<path d="M182.134 281.703H179.164V284.764H182.134V281.703Z" fill="#F0F0F0"/>
<path d="M182.134 286.835H179.164V289.896H182.134V286.835Z" fill="#F0F0F0"/>
<path d="M182.134 291.966H179.164V295.027H182.134V291.966Z" fill="#F0F0F0"/>
<path d="M182.134 297.098H179.164V300.159H182.134V297.098Z" fill="#F0F0F0"/>
<path d="M186.853 209.86H183.883V212.921H186.853V209.86Z" fill="#F0F0F0"/>
<path d="M186.853 214.992H183.883V218.053H186.853V214.992Z" fill="#F0F0F0"/>
<path d="M186.853 220.123H183.883V223.184H186.853V220.123Z" fill="#F0F0F0"/>
<path d="M186.853 225.255H183.883V228.316H186.853V225.255Z" fill="#F0F0F0"/>
<path d="M186.853 230.387H183.883V233.448H186.853V230.387Z" fill="#F0F0F0"/>
<path d="M186.853 235.518H183.883V238.579H186.853V235.518Z" fill="#F0F0F0"/>
<path d="M186.853 250.913H183.883V253.974H186.853V250.913Z" fill="#F0F0F0"/>
<path d="M186.853 256.045H183.883V259.106H186.853V256.045Z" fill="#F0F0F0"/>
<path d="M186.853 261.177H183.883V264.238H186.853V261.177Z" fill="#F0F0F0"/>
<path d="M186.853 266.308H183.883V269.369H186.853V266.308Z" fill="#F0F0F0"/>
<path d="M186.853 271.44H183.883V274.501H186.853V271.44Z" fill="#F0F0F0"/>
<path d="M186.853 276.572H183.883V279.633H186.853V276.572Z" fill="#F0F0F0"/>
<path d="M186.853 281.703H183.883V284.764H186.853V281.703Z" fill="#F0F0F0"/>
<path d="M186.853 286.835H183.883V289.896H186.853V286.835Z" fill="#F0F0F0"/>
<path d="M186.853 291.966H183.883V295.027H186.853V291.966Z" fill="#F0F0F0"/>
<path d="M186.853 297.098H183.883V300.159H186.853V297.098Z" fill="#F0F0F0"/>
<path d="M186.853 302.23H183.883V305.291H186.853V302.23Z" fill="#F0F0F0"/>
<path d="M186.853 312.493H183.883V315.554H186.853V312.493Z" fill="#F0F0F0"/>
<path d="M191.568 209.86H188.598V212.921H191.568V209.86Z" fill="#F0F0F0"/>
<path d="M191.568 214.992H188.598V218.053H191.568V214.992Z" fill="#F0F0F0"/>
<path d="M191.568 220.123H188.598V223.184H191.568V220.123Z" fill="#F0F0F0"/>
<path d="M191.568 225.255H188.598V228.316H191.568V225.255Z" fill="#F0F0F0"/>
<path d="M191.568 230.387H188.598V233.448H191.568V230.387Z" fill="#F0F0F0"/>
<path d="M191.568 235.518H188.598V238.579H191.568V235.518Z" fill="#F0F0F0"/>
<path d="M191.568 250.913H188.598V253.974H191.568V250.913Z" fill="#F0F0F0"/>
<path d="M191.568 256.045H188.598V259.106H191.568V256.045Z" fill="#F0F0F0"/>
<path d="M191.568 261.177H188.598V264.238H191.568V261.177Z" fill="#F0F0F0"/>
<path d="M191.568 266.308H188.598V269.369H191.568V266.308Z" fill="#F0F0F0"/>
<path d="M191.568 281.703H188.598V284.764H191.568V281.703Z" fill="#F0F0F0"/>
<path d="M191.568 286.835H188.598V289.896H191.568V286.835Z" fill="#F0F0F0"/>
<path d="M191.568 291.966H188.598V295.027H191.568V291.966Z" fill="#F0F0F0"/>
<path d="M191.568 297.098H188.598V300.159H191.568V297.098Z" fill="#F0F0F0"/>
<path d="M191.568 302.23H188.598V305.291H191.568V302.23Z" fill="#F0F0F0"/>
<path d="M191.568 312.493H188.598V315.554H191.568V312.493Z" fill="#F0F0F0"/>
<path d="M191.568 317.625H188.598V320.686H191.568V317.625Z" fill="#F0F0F0"/>
<path d="M234.372 257.576H231.402V260.637H234.372V257.576Z" fill="#F0F0F0"/>
<path d="M234.372 262.707H231.402V265.768H234.372V262.707Z" fill="#F0F0F0"/>
<path d="M234.372 267.839H231.402V270.9H234.372V267.839Z" fill="#F0F0F0"/>
<path d="M234.372 272.97H231.402V276.031H234.372V272.97Z" fill="#F0F0F0"/>
<path d="M234.372 278.102H231.402V281.163H234.372V278.102Z" fill="#F0F0F0"/>
<path d="M234.372 283.234H231.402V286.295H234.372V283.234Z" fill="#F0F0F0"/>
<path d="M234.372 288.365H231.402V291.426H234.372V288.365Z" fill="#F0F0F0"/>
<path d="M234.372 303.76H231.402V306.821H234.372V303.76Z" fill="#F0F0F0"/>
<path d="M234.372 308.892H231.402V311.953H234.372V308.892Z" fill="#F0F0F0"/>
<path d="M234.372 314.024H231.402V317.085H234.372V314.024Z" fill="#F0F0F0"/>
<path d="M239.087 257.576H236.117V260.637H239.087V257.576Z" fill="#F0F0F0"/>
<path d="M239.087 262.707H236.117V265.768H239.087V262.707Z" fill="#F0F0F0"/>
<path d="M239.087 267.839H236.117V270.9H239.087V267.839Z" fill="#F0F0F0"/>
<path d="M239.087 272.97H236.117V276.031H239.087V272.97Z" fill="#F0F0F0"/>
<path d="M239.087 278.102H236.117V281.163H239.087V278.102Z" fill="#F0F0F0"/>
<path d="M239.087 283.234H236.117V286.295H239.087V283.234Z" fill="#F0F0F0"/>
<path d="M239.087 288.365H236.117V291.426H239.087V288.365Z" fill="#F0F0F0"/>
<path d="M243.806 257.576H240.836V260.637H243.806V257.576Z" fill="#F0F0F0"/>
<path d="M243.806 262.707H240.836V265.768H243.806V262.707Z" fill="#F0F0F0"/>
<path d="M243.806 267.839H240.836V270.9H243.806V267.839Z" fill="#F0F0F0"/>
<path d="M243.806 272.97H240.836V276.031H243.806V272.97Z" fill="#F0F0F0"/>
<path d="M243.806 278.102H240.836V281.163H243.806V278.102Z" fill="#F0F0F0"/>
<path d="M243.806 283.234H240.836V286.295H243.806V283.234Z" fill="#F0F0F0"/>
<path d="M243.806 288.365H240.836V291.426H243.806V288.365Z" fill="#F0F0F0"/>
<path d="M248.521 257.576H245.551V260.637H248.521V257.576Z" fill="#F0F0F0"/>
<path d="M248.521 262.707H245.551V265.768H248.521V262.707Z" fill="#F0F0F0"/>
<path d="M248.521 267.839H245.551V270.9H248.521V267.839Z" fill="#F0F0F0"/>
<path d="M248.521 272.97H245.551V276.031H248.521V272.97Z" fill="#F0F0F0"/>
<path d="M248.521 278.102H245.551V281.163H248.521V278.102Z" fill="#F0F0F0"/>
<path d="M248.521 283.234H245.551V286.295H248.521V283.234Z" fill="#F0F0F0"/>
<path d="M248.521 288.365H245.551V291.426H248.521V288.365Z" fill="#F0F0F0"/>
<path d="M248.521 293.497H245.551V296.558H248.521V293.497Z" fill="#F0F0F0"/>
<path d="M248.521 298.629H245.551V301.69H248.521V298.629Z" fill="#F0F0F0"/>
<path d="M248.521 303.76H245.551V306.821H248.521V303.76Z" fill="#F0F0F0"/>
<path d="M248.521 308.892H245.551V311.953H248.521V308.892Z" fill="#F0F0F0"/>
<path d="M253.24 257.576H250.27V260.637H253.24V257.576Z" fill="#F0F0F0"/>
<path d="M253.24 262.707H250.27V265.768H253.24V262.707Z" fill="#F0F0F0"/>
<path d="M253.24 267.839H250.27V270.9H253.24V267.839Z" fill="#F0F0F0"/>
<path d="M253.24 272.97H250.27V276.031H253.24V272.97Z" fill="#F0F0F0"/>
<path d="M253.24 278.102H250.27V281.163H253.24V278.102Z" fill="#F0F0F0"/>
<path d="M253.24 283.234H250.27V286.295H253.24V283.234Z" fill="#F0F0F0"/>
<path d="M253.24 288.365H250.27V291.426H253.24V288.365Z" fill="#F0F0F0"/>
<path d="M253.24 293.497H250.27V296.558H253.24V293.497Z" fill="#F0F0F0"/>
<path d="M253.24 298.629H250.27V301.69H253.24V298.629Z" fill="#F0F0F0"/>
<path d="M253.24 303.76H250.27V306.821H253.24V303.76Z" fill="#F0F0F0"/>
<path d="M253.24 308.892H250.27V311.953H253.24V308.892Z" fill="#F0F0F0"/>
<path d="M253.24 314.024H250.27V317.085H253.24V314.024Z" fill="#F0F0F0"/>
<path d="M253.24 329.419H250.27V332.48H253.24V329.419Z" fill="#F0F0F0"/>
<path d="M253.24 334.55H250.27V337.611H253.24V334.55Z" fill="#F0F0F0"/>
<path d="M257.954 257.576H254.984V260.637H257.954V257.576Z" fill="#F0F0F0"/>
<path d="M257.954 262.707H254.984V265.768H257.954V262.707Z" fill="#F0F0F0"/>
<path d="M257.954 267.839H254.984V270.9H257.954V267.839Z" fill="#F0F0F0"/>
<path d="M257.954 283.234H254.984V286.295H257.954V283.234Z" fill="#F0F0F0"/>
<path d="M257.954 288.365H254.984V291.426H257.954V288.365Z" fill="#F0F0F0"/>
<path d="M257.954 293.497H254.984V296.558H257.954V293.497Z" fill="#F0F0F0"/>
<path d="M257.954 298.629H254.984V301.69H257.954V298.629Z" fill="#F0F0F0"/>
<path d="M257.954 303.76H254.984V306.821H257.954V303.76Z" fill="#F0F0F0"/>
<path d="M257.954 308.892H254.984V311.953H257.954V308.892Z" fill="#F0F0F0"/>
<path d="M257.954 314.024H254.984V317.085H257.954V314.024Z" fill="#F0F0F0"/>
<path d="M257.954 329.419H254.984V332.48H257.954V329.419Z" fill="#F0F0F0"/>
<path d="M257.954 334.55H254.984V337.611H257.954V334.55Z" fill="#F0F0F0"/>
<path d="M257.954 339.682H254.984V342.743H257.954V339.682Z" fill="#F0F0F0"/>
<path d="M307.396 226.786H304.426V229.847H307.396V226.786Z" fill="#F0F0F0"/>
<path d="M307.396 231.917H304.426V234.978H307.396V231.917Z" fill="#F0F0F0"/>
<path d="M307.396 237.049H304.426V240.11H307.396V237.049Z" fill="#F0F0F0"/>
<path d="M307.396 242.18H304.426V245.241H307.396V242.18Z" fill="#F0F0F0"/>
<path d="M307.396 247.312H304.426V250.373H307.396V247.312Z" fill="#F0F0F0"/>
<path d="M307.396 252.444H304.426V255.505H307.396V252.444Z" fill="#F0F0F0"/>
<path d="M307.396 257.576H304.426V260.637H307.396V257.576Z" fill="#F0F0F0"/>
<path d="M307.396 262.707H304.426V265.768H307.396V262.707Z" fill="#F0F0F0"/>
<path d="M307.396 267.839H304.426V270.9H307.396V267.839Z" fill="#F0F0F0"/>
<path d="M307.396 272.97H304.426V276.031H307.396V272.97Z" fill="#F0F0F0"/>
<path d="M307.396 278.102H304.426V281.163H307.396V278.102Z" fill="#F0F0F0"/>
<path d="M307.396 283.234H304.426V286.295H307.396V283.234Z" fill="#F0F0F0"/>
<path d="M307.396 288.365H304.426V291.426H307.396V288.365Z" fill="#F0F0F0"/>
<path d="M307.396 293.497H304.426V296.558H307.396V293.497Z" fill="#F0F0F0"/>
<path d="M307.396 298.629H304.426V301.69H307.396V298.629Z" fill="#F0F0F0"/>
<path d="M307.396 303.76H304.426V306.821H307.396V303.76Z" fill="#F0F0F0"/>
<path d="M307.396 308.892H304.426V311.953H307.396V308.892Z" fill="#F0F0F0"/>
<path d="M307.396 314.024H304.426V317.085H307.396V314.024Z" fill="#F0F0F0"/>
<path d="M307.396 319.155H304.426V322.216H307.396V319.155Z" fill="#F0F0F0"/>
<path d="M307.396 324.287H304.426V327.348H307.396V324.287Z" fill="#F0F0F0"/>
<path d="M307.396 329.419H304.426V332.48H307.396V329.419Z" fill="#F0F0F0"/>
<path d="M307.396 334.55H304.426V337.611H307.396V334.55Z" fill="#F0F0F0"/>
<path d="M307.396 339.682H304.426V342.743H307.396V339.682Z" fill="#F0F0F0"/>
<path d="M312.111 226.786H309.141V229.847H312.111V226.786Z" fill="#F0F0F0"/>
<path d="M312.111 231.917H309.141V234.978H312.111V231.917Z" fill="#F0F0F0"/>
<path d="M312.111 237.049H309.141V240.11H312.111V237.049Z" fill="#F0F0F0"/>
<path d="M312.111 242.18H309.141V245.241H312.111V242.18Z" fill="#F0F0F0"/>
<path d="M312.111 247.312H309.141V250.373H312.111V247.312Z" fill="#F0F0F0"/>
<path d="M312.111 252.444H309.141V255.505H312.111V252.444Z" fill="#F0F0F0"/>
<path d="M312.111 257.576H309.141V260.637H312.111V257.576Z" fill="#F0F0F0"/>
<path d="M312.111 262.707H309.141V265.768H312.111V262.707Z" fill="#F0F0F0"/>
<path d="M312.111 267.839H309.141V270.9H312.111V267.839Z" fill="#F0F0F0"/>
<path d="M312.111 272.97H309.141V276.031H312.111V272.97Z" fill="#F0F0F0"/>
<path d="M312.111 278.102H309.141V281.163H312.111V278.102Z" fill="#F0F0F0"/>
<path d="M312.111 283.234H309.141V286.295H312.111V283.234Z" fill="#F0F0F0"/>
<path d="M312.111 288.365H309.141V291.426H312.111V288.365Z" fill="#F0F0F0"/>
<path d="M312.111 293.497H309.141V296.558H312.111V293.497Z" fill="#F0F0F0"/>
<path d="M312.111 298.629H309.141V301.69H312.111V298.629Z" fill="#F0F0F0"/>
<path d="M312.111 303.76H309.141V306.821H312.111V303.76Z" fill="#F0F0F0"/>
<path d="M312.111 308.892H309.141V311.953H312.111V308.892Z" fill="#F0F0F0"/>
<path d="M312.111 314.024H309.141V317.085H312.111V314.024Z" fill="#F0F0F0"/>
<path d="M312.111 319.155H309.141V322.216H312.111V319.155Z" fill="#F0F0F0"/>
<path d="M316.829 226.786H313.859V229.847H316.829V226.786Z" fill="#F0F0F0"/>
<path d="M316.829 231.917H313.859V234.978H316.829V231.917Z" fill="#F0F0F0"/>
<path d="M316.829 237.049H313.859V240.11H316.829V237.049Z" fill="#F0F0F0"/>
<path d="M316.829 242.18H313.859V245.241H316.829V242.18Z" fill="#F0F0F0"/>
<path d="M316.829 247.312H313.859V250.373H316.829V247.312Z" fill="#F0F0F0"/>
<path d="M316.829 252.444H313.859V255.505H316.829V252.444Z" fill="#F0F0F0"/>
<path d="M316.829 257.576H313.859V260.637H316.829V257.576Z" fill="#F0F0F0"/>
<path d="M316.829 262.707H313.859V265.768H316.829V262.707Z" fill="#F0F0F0"/>
<path d="M316.829 267.839H313.859V270.9H316.829V267.839Z" fill="#F0F0F0"/>
<path d="M316.829 272.97H313.859V276.031H316.829V272.97Z" fill="#F0F0F0"/>
<path d="M316.829 278.102H313.859V281.163H316.829V278.102Z" fill="#F0F0F0"/>
<path d="M316.829 283.234H313.859V286.295H316.829V283.234Z" fill="#F0F0F0"/>
<path d="M316.829 288.365H313.859V291.426H316.829V288.365Z" fill="#F0F0F0"/>
<path d="M316.829 293.497H313.859V296.558H316.829V293.497Z" fill="#F0F0F0"/>
<path d="M316.829 298.629H313.859V301.69H316.829V298.629Z" fill="#F0F0F0"/>
<path d="M316.829 303.76H313.859V306.821H316.829V303.76Z" fill="#F0F0F0"/>
<path d="M316.829 308.892H313.859V311.953H316.829V308.892Z" fill="#F0F0F0"/>
<path d="M316.829 314.024H313.859V317.085H316.829V314.024Z" fill="#F0F0F0"/>
<path d="M316.829 319.155H313.859V322.216H316.829V319.155Z" fill="#F0F0F0"/>
<path d="M321.548 226.786H318.578V229.847H321.548V226.786Z" fill="#F0F0F0"/>
<path d="M321.548 231.917H318.578V234.978H321.548V231.917Z" fill="#F0F0F0"/>
<path d="M321.548 237.049H318.578V240.11H321.548V237.049Z" fill="#F0F0F0"/>
<path d="M321.548 242.18H318.578V245.241H321.548V242.18Z" fill="#F0F0F0"/>
<path d="M321.548 247.312H318.578V250.373H321.548V247.312Z" fill="#F0F0F0"/>
<path d="M321.548 252.444H318.578V255.505H321.548V252.444Z" fill="#F0F0F0"/>
<path d="M321.548 257.576H318.578V260.637H321.548V257.576Z" fill="#F0F0F0"/>
<path d="M321.548 262.707H318.578V265.768H321.548V262.707Z" fill="#F0F0F0"/>
<path d="M321.548 267.839H318.578V270.9H321.548V267.839Z" fill="#F0F0F0"/>
<path d="M321.548 272.97H318.578V276.031H321.548V272.97Z" fill="#F0F0F0"/>
<path d="M321.548 278.102H318.578V281.163H321.548V278.102Z" fill="#F0F0F0"/>
<path d="M321.548 283.234H318.578V286.295H321.548V283.234Z" fill="#F0F0F0"/>
<path d="M321.548 288.365H318.578V291.426H321.548V288.365Z" fill="#F0F0F0"/>
<path d="M321.548 293.497H318.578V296.558H321.548V293.497Z" fill="#F0F0F0"/>
<path d="M321.548 298.629H318.578V301.69H321.548V298.629Z" fill="#F0F0F0"/>
<path d="M326.263 226.786H323.293V229.847H326.263V226.786Z" fill="#F0F0F0"/>
<path d="M326.263 231.917H323.293V234.978H326.263V231.917Z" fill="#F0F0F0"/>
<path d="M326.263 237.049H323.293V240.11H326.263V237.049Z" fill="#F0F0F0"/>
<path d="M326.263 242.18H323.293V245.241H326.263V242.18Z" fill="#F0F0F0"/>
<path d="M326.263 247.312H323.293V250.373H326.263V247.312Z" fill="#F0F0F0"/>
<path d="M326.263 252.444H323.293V255.505H326.263V252.444Z" fill="#F0F0F0"/>
<path d="M326.263 257.576H323.293V260.637H326.263V257.576Z" fill="#F0F0F0"/>
<path d="M326.263 262.707H323.293V265.768H326.263V262.707Z" fill="#F0F0F0"/>
<path d="M326.263 267.839H323.293V270.9H326.263V267.839Z" fill="#F0F0F0"/>
<path d="M326.263 272.97H323.293V276.031H326.263V272.97Z" fill="#F0F0F0"/>
<path d="M326.263 278.102H323.293V281.163H326.263V278.102Z" fill="#F0F0F0"/>
<path d="M326.263 283.234H323.293V286.295H326.263V283.234Z" fill="#F0F0F0"/>
<path d="M326.263 288.365H323.293V291.426H326.263V288.365Z" fill="#F0F0F0"/>
<path d="M330.978 226.786H328.008V229.847H330.978V226.786Z" fill="#F0F0F0"/>
<path d="M330.978 231.917H328.008V234.978H330.978V231.917Z" fill="#F0F0F0"/>
<path d="M330.978 237.049H328.008V240.11H330.978V237.049Z" fill="#F0F0F0"/>
<path d="M330.978 242.18H328.008V245.241H330.978V242.18Z" fill="#F0F0F0"/>
<path d="M330.978 247.312H328.008V250.373H330.978V247.312Z" fill="#F0F0F0"/>
<path d="M330.978 252.444H328.008V255.505H330.978V252.444Z" fill="#F0F0F0"/>
<path d="M330.978 257.576H328.008V260.637H330.978V257.576Z" fill="#F0F0F0"/>
<path d="M330.978 262.707H328.008V265.768H330.978V262.707Z" fill="#F0F0F0"/>
<path d="M330.978 267.839H328.008V270.9H330.978V267.839Z" fill="#F0F0F0"/>
<path d="M330.978 272.97H328.008V276.031H330.978V272.97Z" fill="#F0F0F0"/>
<path d="M330.978 278.102H328.008V281.163H330.978V278.102Z" fill="#F0F0F0"/>
<path d="M330.978 283.234H328.008V286.295H330.978V283.234Z" fill="#F0F0F0"/>
<path d="M147.372 261.177H144.402V264.238H147.372V261.177Z" fill="#F0F0F0"/>
<path d="M147.372 266.308H144.402V269.369H147.372V266.308Z" fill="#F0F0F0"/>
<path d="M147.372 271.44H144.402V274.501H147.372V271.44Z" fill="#F0F0F0"/>
<path d="M147.372 276.572H144.402V279.633H147.372V276.572Z" fill="#F0F0F0"/>
<path d="M147.372 281.703H144.402V284.764H147.372V281.703Z" fill="#F0F0F0"/>
<path d="M147.372 286.835H144.402V289.896H147.372V286.835Z" fill="#F0F0F0"/>
<path d="M147.372 291.966H144.402V295.027H147.372V291.966Z" fill="#F0F0F0"/>
<path d="M147.372 297.098H144.402V300.159H147.372V297.098Z" fill="#F0F0F0"/>
<path d="M147.372 302.23H144.402V305.291H147.372V302.23Z" fill="#F0F0F0"/>
<path d="M147.372 307.362H144.402V310.423H147.372V307.362Z" fill="#F0F0F0"/>
<path d="M147.372 312.493H144.402V315.554H147.372V312.493Z" fill="#F0F0F0"/>
<path d="M147.372 317.625H144.402V320.686H147.372V317.625Z" fill="#F0F0F0"/>
<path d="M147.372 322.757H144.402V325.818H147.372V322.757Z" fill="#F0F0F0"/>
<path d="M147.372 333.02H144.402V336.081H147.372V333.02Z" fill="#F0F0F0"/>
<path d="M147.372 338.151H144.402V341.212H147.372V338.151Z" fill="#F0F0F0"/>
<path d="M147.372 343.283H144.402V346.344H147.372V343.283Z" fill="#F0F0F0"/>
<path d="M147.372 348.415H144.402V351.476H147.372V348.415Z" fill="#F0F0F0"/>
<path d="M147.372 358.678H144.402V361.739H147.372V358.678Z" fill="#F0F0F0"/>
<path d="M147.372 363.81H144.402V366.871H147.372V363.81Z" fill="#F0F0F0"/>
<path d="M147.372 368.941H144.402V372.002H147.372V368.941Z" fill="#F0F0F0"/>
<path d="M152.087 261.177H149.117V264.238H152.087V261.177Z" fill="#F0F0F0"/>
<path d="M152.087 266.308H149.117V269.369H152.087V266.308Z" fill="#F0F0F0"/>
<path d="M152.087 271.44H149.117V274.501H152.087V271.44Z" fill="#F0F0F0"/>
<path d="M152.087 276.572H149.117V279.633H152.087V276.572Z" fill="#F0F0F0"/>
<path d="M152.087 281.703H149.117V284.764H152.087V281.703Z" fill="#F0F0F0"/>
<path d="M152.087 286.835H149.117V289.896H152.087V286.835Z" fill="#F0F0F0"/>
<path d="M152.087 291.966H149.117V295.027H152.087V291.966Z" fill="#F0F0F0"/>
<path d="M152.087 297.098H149.117V300.159H152.087V297.098Z" fill="#F0F0F0"/>
<path d="M152.087 302.23H149.117V305.291H152.087V302.23Z" fill="#F0F0F0"/>
<path d="M152.087 307.362H149.117V310.423H152.087V307.362Z" fill="#F0F0F0"/>
<path d="M152.087 312.493H149.117V315.554H152.087V312.493Z" fill="#F0F0F0"/>
<path d="M152.087 317.625H149.117V320.686H152.087V317.625Z" fill="#F0F0F0"/>
<path d="M152.087 322.757H149.117V325.818H152.087V322.757Z" fill="#F0F0F0"/>
<path d="M152.087 338.151H149.117V341.212H152.087V338.151Z" fill="#F0F0F0"/>
<path d="M152.087 343.283H149.117V346.344H152.087V343.283Z" fill="#F0F0F0"/>
<path d="M152.087 353.546H149.117V356.607H152.087V353.546Z" fill="#F0F0F0"/>
<path d="M152.087 358.678H149.117V361.739H152.087V358.678Z" fill="#F0F0F0"/>
<path d="M152.087 363.81H149.117V366.871H152.087V363.81Z" fill="#F0F0F0"/>
<path d="M152.087 368.941H149.117V372.002H152.087V368.941Z" fill="#F0F0F0"/>
<path d="M156.806 261.177H153.836V264.238H156.806V261.177Z" fill="#F0F0F0"/>
<path d="M156.806 266.308H153.836V269.369H156.806V266.308Z" fill="#F0F0F0"/>
<path d="M156.806 271.44H153.836V274.501H156.806V271.44Z" fill="#F0F0F0"/>
<path d="M156.806 276.572H153.836V279.633H156.806V276.572Z" fill="#F0F0F0"/>
<path d="M156.806 281.703H153.836V284.764H156.806V281.703Z" fill="#F0F0F0"/>
<path d="M156.806 286.835H153.836V289.896H156.806V286.835Z" fill="#F0F0F0"/>
<path d="M156.806 291.966H153.836V295.027H156.806V291.966Z" fill="#F0F0F0"/>
<path d="M156.806 297.098H153.836V300.159H156.806V297.098Z" fill="#F0F0F0"/>
<path d="M156.806 302.23H153.836V305.291H156.806V302.23Z" fill="#F0F0F0"/>
<path d="M156.806 307.362H153.836V310.423H156.806V307.362Z" fill="#F0F0F0"/>
<path d="M156.806 312.493H153.836V315.554H156.806V312.493Z" fill="#F0F0F0"/>
<path d="M156.806 317.625H153.836V320.686H156.806V317.625Z" fill="#F0F0F0"/>
<path d="M156.806 322.757H153.836V325.818H156.806V322.757Z" fill="#F0F0F0"/>
<path d="M156.806 327.888H153.836V330.949H156.806V327.888Z" fill="#F0F0F0"/>
<path d="M156.806 338.151H153.836V341.212H156.806V338.151Z" fill="#F0F0F0"/>
<path d="M156.806 348.415H153.836V351.476H156.806V348.415Z" fill="#F0F0F0"/>
<path d="M156.806 353.546H153.836V356.607H156.806V353.546Z" fill="#F0F0F0"/>
<path d="M156.806 358.678H153.836V361.739H156.806V358.678Z" fill="#F0F0F0"/>
<path d="M156.806 363.81H153.836V366.871H156.806V363.81Z" fill="#F0F0F0"/>
<path d="M156.806 368.941H153.836V372.002H156.806V368.941Z" fill="#F0F0F0"/>
<path d="M128.154 290.436H125.184V293.497H128.154V290.436Z" fill="#F0F0F0"/>
<path d="M128.154 295.568H125.184V298.629H128.154V295.568Z" fill="#F0F0F0"/>
<path d="M128.154 300.699H125.184V303.76H128.154V300.699Z" fill="#F0F0F0"/>
<path d="M128.154 305.831H125.184V308.892H128.154V305.831Z" fill="#F0F0F0"/>
<path d="M128.154 310.963H125.184V314.024H128.154V310.963Z" fill="#F0F0F0"/>
<path d="M128.154 316.094H125.184V319.155H128.154V316.094Z" fill="#F0F0F0"/>
<path d="M128.154 331.489H125.184V334.55H128.154V331.489Z" fill="#F0F0F0"/>
<path d="M128.154 336.621H125.184V339.682H128.154V336.621Z" fill="#F0F0F0"/>
<path d="M128.154 341.753H125.184V344.814H128.154V341.753Z" fill="#F0F0F0"/>
<path d="M128.154 346.884H125.184V349.945H128.154V346.884Z" fill="#F0F0F0"/>
<path d="M128.154 352.016H125.184V355.077H128.154V352.016Z" fill="#F0F0F0"/>
<path d="M128.154 357.147H125.184V360.208H128.154V357.147Z" fill="#F0F0F0"/>
<path d="M128.154 362.279H125.184V365.34H128.154V362.279Z" fill="#F0F0F0"/>
<path d="M132.868 290.436H129.898V293.497H132.868V290.436Z" fill="#F0F0F0"/>
<path d="M132.868 295.568H129.898V298.629H132.868V295.568Z" fill="#F0F0F0"/>
<path d="M132.868 300.699H129.898V303.76H132.868V300.699Z" fill="#F0F0F0"/>
<path d="M132.868 305.831H129.898V308.892H132.868V305.831Z" fill="#F0F0F0"/>
<path d="M132.868 310.963H129.898V314.024H132.868V310.963Z" fill="#F0F0F0"/>
<path d="M132.868 316.094H129.898V319.155H132.868V316.094Z" fill="#F0F0F0"/>
<path d="M132.868 331.489H129.898V334.55H132.868V331.489Z" fill="#F0F0F0"/>
<path d="M132.868 336.621H129.898V339.682H132.868V336.621Z" fill="#F0F0F0"/>
<path d="M132.868 341.753H129.898V344.814H132.868V341.753Z" fill="#F0F0F0"/>
<path d="M132.868 346.884H129.898V349.945H132.868V346.884Z" fill="#F0F0F0"/>
<path d="M132.868 352.016H129.898V355.077H132.868V352.016Z" fill="#F0F0F0"/>
<path d="M132.868 357.147H129.898V360.208H132.868V357.147Z" fill="#F0F0F0"/>
<path d="M132.868 367.411H129.898V370.472H132.868V367.411Z" fill="#F0F0F0"/>
<path d="M289.575 267.839H286.605V270.9H289.575V267.839Z" fill="#F0F0F0"/>
<path d="M289.575 272.97H286.605V276.031H289.575V272.97Z" fill="#F0F0F0"/>
<path d="M289.575 278.102H286.605V281.163H289.575V278.102Z" fill="#F0F0F0"/>
<path d="M289.575 283.234H286.605V286.295H289.575V283.234Z" fill="#F0F0F0"/>
<path d="M289.575 288.365H286.605V291.426H289.575V288.365Z" fill="#F0F0F0"/>
<path d="M289.575 293.497H286.605V296.558H289.575V293.497Z" fill="#F0F0F0"/>
<path d="M289.575 298.629H286.605V301.69H289.575V298.629Z" fill="#F0F0F0"/>
<path d="M289.575 303.76H286.605V306.821H289.575V303.76Z" fill="#F0F0F0"/>
<path d="M289.575 308.892H286.605V311.953H289.575V308.892Z" fill="#F0F0F0"/>
<path d="M289.575 314.024H286.605V317.085H289.575V314.024Z" fill="#F0F0F0"/>
<path d="M289.575 319.155H286.605V322.216H289.575V319.155Z" fill="#F0F0F0"/>
<path d="M289.575 329.419H286.605V332.48H289.575V329.419Z" fill="#F0F0F0"/>
<path d="M289.575 334.55H286.605V337.611H289.575V334.55Z" fill="#F0F0F0"/>
<path d="M289.575 339.682H286.605V342.743H289.575V339.682Z" fill="#F0F0F0"/>
<path d="M289.575 344.814H286.605V347.875H289.575V344.814Z" fill="#F0F0F0"/>
<path d="M289.575 349.945H286.605V353.006H289.575V349.945Z" fill="#F0F0F0"/>
<path d="M289.575 355.077H286.605V358.138H289.575V355.077Z" fill="#F0F0F0"/>
<path d="M289.575 360.208H286.605V363.269H289.575V360.208Z" fill="#F0F0F0"/>
<path d="M289.575 365.34H286.605V368.401H289.575V365.34Z" fill="#F0F0F0"/>
<path d="M294.29 267.839H291.32V270.9H294.29V267.839Z" fill="#F0F0F0"/>
<path d="M294.29 272.97H291.32V276.031H294.29V272.97Z" fill="#F0F0F0"/>
<path d="M294.29 278.102H291.32V281.163H294.29V278.102Z" fill="#F0F0F0"/>
<path d="M294.29 283.234H291.32V286.295H294.29V283.234Z" fill="#F0F0F0"/>
<path d="M294.29 288.365H291.32V291.426H294.29V288.365Z" fill="#F0F0F0"/>
<path d="M294.29 293.497H291.32V296.558H294.29V293.497Z" fill="#F0F0F0"/>
<path d="M294.29 298.629H291.32V301.69H294.29V298.629Z" fill="#F0F0F0"/>
<path d="M294.29 303.76H291.32V306.821H294.29V303.76Z" fill="#F0F0F0"/>
<path d="M294.29 308.892H291.32V311.953H294.29V308.892Z" fill="#F0F0F0"/>
<path d="M294.29 314.024H291.32V317.085H294.29V314.024Z" fill="#F0F0F0"/>
<path d="M294.29 319.155H291.32V322.216H294.29V319.155Z" fill="#F0F0F0"/>
<path d="M294.29 324.287H291.32V327.348H294.29V324.287Z" fill="#F0F0F0"/>
<path d="M294.29 329.419H291.32V332.48H294.29V329.419Z" fill="#F0F0F0"/>
<path d="M294.29 334.55H291.32V337.611H294.29V334.55Z" fill="#F0F0F0"/>
<path d="M294.29 339.682H291.32V342.743H294.29V339.682Z" fill="#F0F0F0"/>
<path d="M294.29 344.814H291.32V347.875H294.29V344.814Z" fill="#F0F0F0"/>
<path d="M294.29 349.945H291.32V353.006H294.29V349.945Z" fill="#F0F0F0"/>
<path d="M294.29 355.077H291.32V358.138H294.29V355.077Z" fill="#F0F0F0"/>
<path d="M294.29 360.208H291.32V363.269H294.29V360.208Z" fill="#F0F0F0"/>
<path d="M294.29 365.34H291.32V368.401H294.29V365.34Z" fill="#F0F0F0"/>
<path d="M266.341 287.825H263.371V290.886H266.341V287.825Z" fill="#F0F0F0"/>
<path d="M266.341 292.957H263.371V296.018H266.341V292.957Z" fill="#F0F0F0"/>
<path d="M266.341 298.088H263.371V301.149H266.341V298.088Z" fill="#F0F0F0"/>
<path d="M266.341 303.22H263.371V306.281H266.341V303.22Z" fill="#F0F0F0"/>
<path d="M266.341 308.352H263.371V311.413H266.341V308.352Z" fill="#F0F0F0"/>
<path d="M266.341 313.483H263.371V316.544H266.341V313.483Z" fill="#F0F0F0"/>
<path d="M266.341 318.615H263.371V321.676H266.341V318.615Z" fill="#F0F0F0"/>
<path d="M266.341 323.747H263.371V326.808H266.341V323.747Z" fill="#F0F0F0"/>
<path d="M266.341 328.878H263.371V331.939H266.341V328.878Z" fill="#F0F0F0"/>
<path d="M266.341 334.01H263.371V337.071H266.341V334.01Z" fill="#F0F0F0"/>
<path d="M271.06 287.825H268.09V290.886H271.06V287.825Z" fill="#F0F0F0"/>
<path d="M271.06 292.957H268.09V296.018H271.06V292.957Z" fill="#F0F0F0"/>
<path d="M271.06 298.088H268.09V301.149H271.06V298.088Z" fill="#F0F0F0"/>
<path d="M271.06 303.22H268.09V306.281H271.06V303.22Z" fill="#F0F0F0"/>
<path d="M271.06 308.352H268.09V311.413H271.06V308.352Z" fill="#F0F0F0"/>
<path d="M271.06 313.483H268.09V316.544H271.06V313.483Z" fill="#F0F0F0"/>
<path d="M271.06 318.615H268.09V321.676H271.06V318.615Z" fill="#F0F0F0"/>
<path d="M271.06 323.747H268.09V326.808H271.06V323.747Z" fill="#F0F0F0"/>
<path d="M271.06 328.878H268.09V331.939H271.06V328.878Z" fill="#F0F0F0"/>
<path d="M124.719 101.672C124.719 98.5649 127.163 96.0469 130.177 96.0469C130.722 96.0469 131.247 96.1319 131.744 96.2849C131.664 95.7209 131.621 95.1449 131.621 94.5579C131.621 87.9789 136.796 82.6459 143.179 82.6459C143.907 82.6459 144.618 82.7189 145.308 82.8509C147.084 79.8549 150.278 77.8479 153.934 77.8479C159.468 77.8479 163.957 82.4309 164.039 88.1149C164.096 88.1139 164.151 88.1059 164.207 88.1059C169.349 88.1059 173.517 92.4019 173.517 97.7019C173.517 103.002 169.349 107.298 164.207 107.298H130.016L130.023 107.29C127.08 107.204 124.719 104.725 124.719 101.672Z" fill="#F5F5F5"/>
<path d="M228.602 156.738C228.602 153.631 231.046 151.113 234.06 151.113C234.605 151.113 235.13 151.198 235.627 151.351C235.547 150.787 235.505 150.211 235.505 149.624C235.505 143.045 240.679 137.712 247.063 137.712C247.79 137.712 248.501 137.785 249.192 137.917C250.968 134.921 254.162 132.914 257.818 132.914C263.352 132.914 267.841 137.497 267.923 143.18C267.98 143.179 268.035 143.171 268.091 143.171C273.233 143.171 277.401 147.467 277.401 152.767C277.401 158.067 273.233 162.363 268.091 162.363H233.9L233.907 162.355C230.964 162.27 228.602 159.791 228.602 156.738Z" fill="#F5F5F5"/>
<path d="M127.973 207.477C127.973 204.37 130.417 201.852 133.431 201.852C133.976 201.852 134.501 201.937 134.998 202.09C134.918 201.526 134.876 200.95 134.876 200.363C134.876 193.784 140.051 188.451 146.434 188.451C147.162 188.451 147.873 188.524 148.563 188.656C150.339 185.66 153.533 183.653 157.189 183.653C162.723 183.653 167.212 188.236 167.294 193.919C167.351 193.918 167.406 193.91 167.462 193.91C172.604 193.91 176.772 198.206 176.772 203.506C176.772 208.806 172.604 213.102 167.462 213.102H133.271L133.278 213.094C130.335 213.01 127.973 210.531 127.973 207.477Z" fill="#F5F5F5"/>
<path d="M383.906 138.944C383.906 137.066 385.383 135.544 387.205 135.544C387.534 135.544 387.852 135.595 388.152 135.688C388.104 135.347 388.078 134.999 388.078 134.644C388.078 130.668 391.206 127.444 395.064 127.444C395.504 127.444 395.933 127.488 396.351 127.568C397.425 125.757 399.355 124.544 401.565 124.544C404.91 124.544 407.623 127.314 407.673 130.749C407.707 130.748 407.741 130.744 407.775 130.744C410.883 130.744 413.402 133.341 413.402 136.544C413.402 139.747 410.883 142.344 407.775 142.344H387.109L387.113 142.339C385.334 142.288 383.906 140.789 383.906 138.944Z" fill="#F5F5F5"/>
<path d="M69.6836 143.118C69.6836 141.24 71.1606 139.718 72.9826 139.718C73.3116 139.718 73.6296 139.769 73.9296 139.862C73.8816 139.521 73.8556 139.173 73.8556 138.818C73.8556 134.842 76.9836 131.618 80.8416 131.618C81.2816 131.618 81.7106 131.662 82.1286 131.742C83.2026 129.931 85.1326 128.718 87.3426 128.718C90.6876 128.718 93.4006 131.488 93.4506 134.923C93.4846 134.922 93.5176 134.918 93.5526 134.918C96.6606 134.918 99.1796 137.515 99.1796 140.718C99.1796 143.921 96.6606 146.518 93.5526 146.518H72.8856L72.8896 146.513C71.1106 146.462 69.6836 144.964 69.6836 143.118Z" fill="#F5F5F5"/>
<path d="M320.695 102.812C320.695 100.934 322.172 99.4119 323.994 99.4119C324.323 99.4119 324.641 99.4629 324.941 99.5559C324.893 99.2149 324.867 98.8669 324.867 98.5119C324.867 94.5359 327.995 91.3119 331.853 91.3119C332.293 91.3119 332.723 91.3559 333.14 91.4359C334.214 89.6249 336.144 88.4119 338.354 88.4119C341.699 88.4119 344.412 91.1819 344.462 94.6169C344.496 94.6159 344.529 94.6119 344.564 94.6119C347.672 94.6119 350.191 97.2089 350.191 100.412C350.191 103.615 347.672 106.212 344.564 106.212H323.899L323.903 106.207C322.123 106.156 320.695 104.657 320.695 102.812Z" fill="#F5F5F5"/>
<path d="M250.498 428.061C357.58 428.061 444.387 422.992 444.387 416.738C444.387 410.485 357.58 405.415 250.498 405.415C143.416 405.415 56.6094 410.485 56.6094 416.738C56.6094 422.992 143.416 428.061 250.498 428.061Z" fill="#F5F5F5"/>
<path d="M91.1882 337.647C91.3982 339.117 87.4112 340.085 84.1602 340.627C84.4252 343.296 86.2012 345.993 88.6542 348.513C91.7402 346.775 96.1442 344.477 96.9562 345.038C97.8422 345.651 93.3322 348.567 90.5112 350.282C92.4952 352.043 94.7292 353.684 96.9002 355.122C98.2832 353.83 99.9022 352.696 100.867 353.309C101.868 353.946 101.597 355.945 101.103 357.729C104.459 359.686 106.973 360.876 106.973 360.876C106.973 360.876 108.382 356.605 109.215 351.346C109.046 351.012 108.877 350.674 108.723 350.317C108.182 349.066 108.709 348.534 109.602 348.358C109.833 346.056 109.899 343.689 109.657 341.493C105.858 340.696 101.239 339.221 102.969 336.943C104.012 335.569 105.923 335.413 107.911 335.758C107.633 335.3 107.325 334.868 106.973 334.48C100.059 326.862 95.2362 334.48 95.2362 334.48C91.2182 331.132 85.5742 332.038 84.3542 337.27C86.6112 336.691 90.9292 335.831 91.1882 337.647Z" fill="#263238"/>
<path opacity="0.3" d="M91.1882 337.647C91.3982 339.117 87.4112 340.085 84.1602 340.627C84.4252 343.296 86.2012 345.993 88.6542 348.513C91.7402 346.775 96.1442 344.477 96.9562 345.038C97.8422 345.651 93.3322 348.567 90.5112 350.282C92.4952 352.043 94.7292 353.684 96.9002 355.122C98.2832 353.83 99.9022 352.696 100.867 353.309C101.868 353.946 101.597 355.945 101.103 357.729C104.459 359.686 106.973 360.876 106.973 360.876C106.973 360.876 108.382 356.605 109.215 351.346C109.046 351.012 108.877 350.674 108.723 350.317C108.182 349.066 108.709 348.534 109.602 348.358C109.833 346.056 109.899 343.689 109.657 341.493C105.858 340.696 101.239 339.221 102.969 336.943C104.012 335.569 105.923 335.413 107.911 335.758C107.633 335.3 107.325 334.868 106.973 334.48C100.059 326.862 95.2362 334.48 95.2362 334.48C91.2182 331.132 85.5742 332.038 84.3542 337.27C86.6112 336.691 90.9292 335.831 91.1882 337.647Z" fill="white"/>
<path d="M99.812 393.633L98.815 393.551C98.857 393.036 102.909 342.026 91.461 337.217C90.232 336.7 89.096 336.729 87.991 337.304C83.855 339.455 81.872 348.386 81.853 348.477L80.875 348.264C80.959 347.878 82.977 338.786 87.528 336.417C88.895 335.706 90.348 335.665 91.848 336.295C103.959 341.382 99.987 391.502 99.812 393.633Z" fill="#263238"/>
<path d="M101.257 392.527C101.054 390.232 96.3807 336.259 105.119 330.53C107.214 329.157 109.081 328.863 110.668 329.667C114.797 331.749 115.339 340.577 115.36 340.951L114.362 341.008C114.357 340.922 113.833 332.382 110.217 330.559C108.973 329.934 107.442 330.203 105.667 331.367C97.4247 336.772 102.204 391.884 102.253 392.44L101.257 392.527Z" fill="#263238"/>
<path d="M102.567 396.891C102.502 395.134 101.063 353.82 109.019 350.203C110.592 349.488 112.185 349.476 113.751 350.165C119.211 352.567 122.583 362.742 122.724 363.174L121.773 363.485C121.74 363.383 118.399 353.302 113.348 351.081C112.035 350.505 110.753 350.514 109.433 351.114C103.332 353.887 103.129 385.072 103.566 396.854L102.567 396.891Z" fill="#263238"/>
<path d="M100.543 395.001L99.5497 394.888C100.952 382.592 103.633 349.827 99.2527 345.918C98.5997 345.334 98.0147 345.154 97.4617 345.364C94.5267 346.49 92.7397 357.147 92.2987 361.159L91.3047 361.05C91.4737 359.512 93.0727 345.977 97.1027 344.431C98.0247 344.077 98.9717 344.326 99.9187 345.172C105.578 350.223 100.751 393.175 100.543 395.001Z" fill="#263238"/>
<path d="M83.8594 371.691H119.786L116.786 411.934H86.8594L83.8594 371.691Z" fill="#407BFF"/>
<path opacity="0.2" d="M94.7734 371.691L95.7734 411.934H116.787L119.787 371.691H94.7734Z" fill="white"/>
<path d="M88.7535 356.923C88.3795 357.902 85.5885 357.132 83.3975 356.351C82.6455 358.088 82.8165 360.36 83.4655 362.755C85.9645 362.741 89.4685 362.834 89.7765 363.458C90.1125 364.14 86.3315 364.392 84.0045 364.483C84.6245 366.249 85.4395 368.027 86.2855 369.658C87.5815 369.335 88.9695 369.191 89.3535 369.9C89.7525 370.636 88.9005 371.776 87.9835 372.707C89.3825 375.064 90.5245 376.66 90.5245 376.66C90.5245 376.66 92.8575 374.509 95.1745 371.552C95.1845 371.288 95.1965 371.022 95.2235 370.749C95.3185 369.792 95.8265 369.644 96.4375 369.842C97.3695 368.502 98.2215 367.065 98.8255 365.627C96.7555 363.833 94.4125 361.34 96.2605 360.528C97.3755 360.038 98.6065 360.597 99.7145 361.491C99.7005 361.113 99.6585 360.742 99.5745 360.381C97.9225 353.312 92.3355 356.357 92.3355 356.357C91.0055 352.914 87.2135 351.538 84.6675 354.347C86.2585 354.764 89.2165 355.714 88.7535 356.923Z" fill="#263238"/>
<path opacity="0.3" d="M88.7535 356.923C88.3795 357.902 85.5885 357.132 83.3975 356.351C82.6455 358.088 82.8165 360.36 83.4655 362.755C85.9645 362.741 89.4685 362.834 89.7765 363.458C90.1125 364.14 86.3315 364.392 84.0045 364.483C84.6245 366.249 85.4395 368.027 86.2855 369.658C87.5815 369.335 88.9695 369.191 89.3535 369.9C89.7525 370.636 88.9005 371.776 87.9835 372.707C89.3825 375.064 90.5245 376.66 90.5245 376.66C90.5245 376.66 92.8575 374.509 95.1745 371.552C95.1845 371.288 95.1965 371.022 95.2235 370.749C95.3185 369.792 95.8265 369.644 96.4375 369.842C97.3695 368.502 98.2215 367.065 98.8255 365.627C96.7555 363.833 94.4125 361.34 96.2605 360.528C97.3755 360.038 98.6065 360.597 99.7145 361.491C99.7005 361.113 99.6585 360.742 99.5745 360.381C97.9225 353.312 92.3355 356.357 92.3355 356.357C91.0055 352.914 87.2135 351.538 84.6675 354.347C86.2585 354.764 89.2165 355.714 88.7535 356.923Z" fill="white"/>
<path d="M115.427 361.701C114.294 361.785 113.206 362.045 112.144 362.392C111.867 361.633 111.686 360.842 111.66 360.015C111.432 352.769 116.619 355.824 119.36 353.695C120.727 352.633 122.401 351.951 123.945 352.257C123.714 352.656 123.502 353.069 123.325 353.497C123.038 354.191 123.491 354.914 124.202 355.047C124.871 355.172 125.622 355.114 126.237 354.806C126.429 354.71 126.59 354.57 126.76 354.444C127.143 355.09 127.482 355.883 127.755 356.867C128.034 357.874 128.178 358.918 128.224 359.966C127.816 360.057 127.411 360.166 127.012 360.308C126.389 360.529 126.056 361.525 126.558 362.03C126.999 362.473 127.504 362.825 128.053 363.079C127.874 364.272 127.541 365.404 127.141 366.475C127.018 366.494 126.894 366.508 126.772 366.532C126.508 366.583 126.248 366.652 125.99 366.725C125.842 366.767 125.695 366.817 125.556 366.884C125.197 367.054 124.935 367.361 124.879 367.763C124.823 368.158 124.988 368.567 125.306 368.809C125.475 368.938 125.661 369.039 125.845 369.141C125.019 370.448 124.042 371.484 122.975 372.037C122.975 372.037 121.653 371.46 119.923 370.424C120.139 370.134 120.356 369.844 120.557 369.544C120.795 369.191 120.9 368.828 120.864 368.406C120.83 367.997 120.582 367.64 120.277 367.384C119.983 367.136 119.513 367.028 119.139 367.076C118.773 367.123 118.328 367.348 118.117 367.663C117.877 368.02 117.612 368.36 117.35 368.701C116.026 367.703 114.709 366.498 113.67 365.128C113.71 365.116 113.753 365.104 113.78 365.096C114.449 364.921 115.133 364.808 115.822 364.757C116.683 364.693 117.219 363.827 117.152 363.032C117.08 362.169 116.229 361.641 115.427 361.701Z" fill="#263238"/>
<path opacity="0.5" d="M115.427 361.701C114.294 361.785 113.206 362.045 112.144 362.392C111.867 361.633 111.686 360.842 111.66 360.015C111.432 352.769 116.619 355.824 119.36 353.695C120.727 352.633 122.401 351.951 123.945 352.257C123.714 352.656 123.502 353.069 123.325 353.497C123.038 354.191 123.491 354.914 124.202 355.047C124.871 355.172 125.622 355.114 126.237 354.806C126.429 354.71 126.59 354.57 126.76 354.444C127.143 355.09 127.482 355.883 127.755 356.867C128.034 357.874 128.178 358.918 128.224 359.966C127.816 360.057 127.411 360.166 127.012 360.308C126.389 360.529 126.056 361.525 126.558 362.03C126.999 362.473 127.504 362.825 128.053 363.079C127.874 364.272 127.541 365.404 127.141 366.475C127.018 366.494 126.894 366.508 126.772 366.532C126.508 366.583 126.248 366.652 125.99 366.725C125.842 366.767 125.695 366.817 125.556 366.884C125.197 367.054 124.935 367.361 124.879 367.763C124.823 368.158 124.988 368.567 125.306 368.809C125.475 368.938 125.661 369.039 125.845 369.141C125.019 370.448 124.042 371.484 122.975 372.037C122.975 372.037 121.653 371.46 119.923 370.424C120.139 370.134 120.356 369.844 120.557 369.544C120.795 369.191 120.9 368.828 120.864 368.406C120.83 367.997 120.582 367.64 120.277 367.384C119.983 367.136 119.513 367.028 119.139 367.076C118.773 367.123 118.328 367.348 118.117 367.663C117.877 368.02 117.612 368.36 117.35 368.701C116.026 367.703 114.709 366.498 113.67 365.128C113.71 365.116 113.753 365.104 113.78 365.096C114.449 364.921 115.133 364.808 115.822 364.757C116.683 364.693 117.219 363.827 117.152 363.032C117.08 362.169 116.229 361.641 115.427 361.701Z" fill="white"/>
<path d="M117.499 336.719C118.131 336.266 118.816 335.925 119.527 335.641C119.339 335.121 119.087 334.626 118.738 334.18C115.678 330.274 114.294 334.155 111.919 334.239C110.735 334.281 109.556 334.657 108.879 335.496C109.176 335.604 109.468 335.728 109.749 335.875C110.204 336.114 110.284 336.692 109.968 337.074C109.672 337.433 109.252 337.733 108.793 337.84C108.65 337.874 108.504 337.871 108.359 337.88C108.442 338.388 108.611 338.952 108.9 339.59C109.195 340.242 109.578 340.853 110.014 341.423C110.268 341.292 110.529 341.172 110.801 341.071C111.226 340.914 111.838 341.291 111.795 341.777C111.758 342.203 111.647 342.61 111.47 342.984C112.088 343.532 112.759 343.981 113.44 344.368C113.513 344.324 113.584 344.277 113.659 344.236C113.82 344.147 113.987 344.069 114.155 343.994C114.251 343.951 114.35 343.913 114.453 343.887C114.716 343.819 114.988 343.865 115.194 344.051C115.397 344.234 115.49 344.521 115.429 344.788C115.397 344.93 115.344 345.064 115.291 345.199C116.299 345.523 117.266 345.639 118.07 345.461C118.07 345.461 118.511 344.578 118.966 343.274C118.725 343.217 118.484 343.159 118.247 343.09C117.967 343.009 117.753 342.865 117.586 342.627C117.424 342.397 117.398 342.101 117.446 341.832C117.492 341.573 117.691 341.31 117.909 341.171C118.122 341.035 118.454 340.958 118.704 341.031C118.987 341.113 119.275 341.175 119.562 341.239C119.819 340.134 119.983 338.923 119.927 337.747C119.901 337.759 119.873 337.771 119.855 337.778C119.427 337.98 119.018 338.22 118.633 338.496C118.153 338.84 117.491 338.62 117.177 338.173C116.837 337.691 117.052 337.04 117.499 336.719Z" fill="#263238"/>
<path opacity="0.3" d="M117.499 336.719C118.131 336.266 118.816 335.925 119.527 335.641C119.339 335.121 119.087 334.626 118.738 334.18C115.678 330.274 114.294 334.155 111.919 334.239C110.735 334.281 109.556 334.657 108.879 335.496C109.176 335.604 109.468 335.728 109.749 335.875C110.204 336.114 110.284 336.692 109.968 337.074C109.672 337.433 109.252 337.733 108.793 337.84C108.65 337.874 108.504 337.871 108.359 337.88C108.442 338.388 108.611 338.952 108.9 339.59C109.195 340.242 109.578 340.853 110.014 341.423C110.268 341.292 110.529 341.172 110.801 341.071C111.226 340.914 111.838 341.291 111.795 341.777C111.758 342.203 111.647 342.61 111.47 342.984C112.088 343.532 112.759 343.981 113.44 344.368C113.513 344.324 113.584 344.277 113.659 344.236C113.82 344.147 113.987 344.069 114.155 343.994C114.251 343.951 114.35 343.913 114.453 343.887C114.716 343.819 114.988 343.865 115.194 344.051C115.397 344.234 115.49 344.521 115.429 344.788C115.397 344.93 115.344 345.064 115.291 345.199C116.299 345.523 117.266 345.639 118.07 345.461C118.07 345.461 118.511 344.578 118.966 343.274C118.725 343.217 118.484 343.159 118.247 343.09C117.967 343.009 117.753 342.865 117.586 342.627C117.424 342.397 117.398 342.101 117.446 341.832C117.492 341.573 117.691 341.31 117.909 341.171C118.122 341.035 118.454 340.958 118.704 341.031C118.987 341.113 119.275 341.175 119.562 341.239C119.819 340.134 119.983 338.923 119.927 337.747C119.901 337.759 119.873 337.771 119.855 337.778C119.427 337.98 119.018 338.22 118.633 338.496C118.153 338.84 117.491 338.62 117.177 338.173C116.837 337.691 117.052 337.04 117.499 336.719Z" fill="white"/>
<path d="M88.2286 343.971C88.0186 345.441 92.0056 346.409 95.2566 346.951C94.9916 349.62 93.2156 352.318 90.7626 354.837C87.6776 353.099 83.2726 350.801 82.4606 351.362C81.5746 351.975 86.0846 354.891 88.9046 356.606C86.9206 358.367 84.6866 360.008 82.5156 361.446C81.1326 360.154 79.5136 359.02 78.5486 359.633C77.5476 360.27 77.8186 362.269 78.3126 364.053C74.9556 366.01 72.4426 367.2 72.4426 367.2C72.4426 367.2 71.0336 362.929 70.2006 357.67C70.3696 357.336 70.5386 356.998 70.6926 356.641C71.2336 355.39 70.7066 354.858 69.8136 354.682C69.5826 352.38 69.5156 350.013 69.7586 347.816C73.5576 347.019 78.1766 345.544 76.4466 343.266C75.4026 341.892 73.4926 341.736 71.5046 342.08C71.7826 341.622 72.0906 341.19 72.4426 340.802C79.3566 333.184 84.1796 340.802 84.1796 340.802C88.1976 337.453 93.8416 338.36 95.0616 343.592C92.8066 343.015 88.4876 342.155 88.2286 343.971Z" fill="#263238"/>
<path opacity="0.5" d="M88.2286 343.971C88.0186 345.441 92.0056 346.409 95.2566 346.951C94.9916 349.62 93.2156 352.318 90.7626 354.837C87.6776 353.099 83.2726 350.801 82.4606 351.362C81.5746 351.975 86.0846 354.891 88.9046 356.606C86.9206 358.367 84.6866 360.008 82.5156 361.446C81.1326 360.154 79.5136 359.02 78.5486 359.633C77.5476 360.27 77.8186 362.269 78.3126 364.053C74.9556 366.01 72.4426 367.2 72.4426 367.2C72.4426 367.2 71.0336 362.929 70.2006 357.67C70.3696 357.336 70.5386 356.998 70.6926 356.641C71.2336 355.39 70.7066 354.858 69.8136 354.682C69.5826 352.38 69.5156 350.013 69.7586 347.816C73.5576 347.019 78.1766 345.544 76.4466 343.266C75.4026 341.892 73.4926 341.736 71.5046 342.08C71.7826 341.622 72.0906 341.19 72.4426 340.802C79.3566 333.184 84.1796 340.802 84.1796 340.802C88.1976 337.453 93.8416 338.36 95.0616 343.592C92.8066 343.015 88.4876 342.155 88.2286 343.971Z" fill="white"/>
<path d="M289.897 407.109V287.48H284.487V407.109L277.551 409.81V411.932H286.557H287.828H296.834V409.81L289.897 407.109Z" fill="#263238"/>
<path d="M389.959 407.109V287.48H384.549V407.109L377.613 409.81V411.932H386.619H387.89H396.896V409.81L389.959 407.109Z" fill="#263238"/>
<path opacity="0.5" d="M296.837 409.814V411.934H277.547V409.814L284.487 407.104V287.478H289.897V407.104L296.837 409.814Z" fill="white"/>
<path opacity="0.5" d="M396.897 409.814V411.934H377.617V409.814L384.547 407.104V287.478H389.957V407.104L396.897 409.814Z" fill="white"/>
<path opacity="0.2" d="M284.488 287.478H289.898V298.958L284.488 298.348V287.478Z" fill="black"/>
<path opacity="0.2" d="M389.957 287.478V310.178L384.547 309.568V287.478H389.957Z" fill="black"/>
<path d="M406.356 178.02H268.086V294.75H406.356V178.02Z" fill="#263238"/>
<path d="M406.504 280.346H267.941V294.751H406.504V280.346Z" fill="#407BFF"/>
<path d="M406.504 178.02H267.941V192.427H406.504V178.02Z" fill="#407BFF"/>
<path d="M337.317 229.5H333.716L324.976 215.254H324.866C324.898 215.735 324.927 216.243 324.951 216.78C324.984 217.317 325.008 217.871 325.024 218.44C325.049 219.01 325.069 219.588 325.085 220.174V229.5H322.424V211.653H326.001L334.729 225.801H334.814C334.798 225.386 334.778 224.91 334.753 224.373C334.729 223.836 334.705 223.283 334.68 222.713C334.664 222.135 334.652 221.578 334.644 221.041V211.653H337.317V229.5ZM353.674 222.713C353.674 223.836 353.528 224.833 353.235 225.704C352.942 226.574 352.515 227.311 351.953 227.913C351.392 228.507 350.716 228.963 349.927 229.28C349.137 229.59 348.246 229.744 347.253 229.744C346.326 229.744 345.475 229.59 344.702 229.28C343.929 228.963 343.258 228.507 342.688 227.913C342.126 227.311 341.691 226.574 341.382 225.704C341.073 224.833 340.918 223.836 340.918 222.713C340.918 221.224 341.174 219.962 341.687 218.929C342.208 217.887 342.948 217.094 343.909 216.548C344.869 216.003 346.012 215.73 347.339 215.73C348.584 215.73 349.683 216.003 350.635 216.548C351.587 217.094 352.332 217.887 352.869 218.929C353.406 219.97 353.674 221.232 353.674 222.713ZM343.872 222.713C343.872 223.698 343.99 224.54 344.226 225.24C344.47 225.94 344.845 226.477 345.349 226.851C345.854 227.217 346.505 227.4 347.302 227.4C348.1 227.4 348.751 227.217 349.255 226.851C349.76 226.477 350.13 225.94 350.366 225.24C350.602 224.54 350.72 223.698 350.72 222.713C350.72 221.728 350.602 220.894 350.366 220.21C350.13 219.519 349.76 218.994 349.255 218.636C348.751 218.27 348.096 218.086 347.29 218.086C346.102 218.086 345.235 218.485 344.69 219.283C344.145 220.08 343.872 221.224 343.872 222.713Z" fill="white"/>
<path d="M311.895 258.553C311.895 259.822 311.587 260.926 310.972 261.863C310.356 262.801 309.458 263.523 308.276 264.031C307.104 264.539 305.679 264.793 303.999 264.793C303.257 264.793 302.529 264.744 301.816 264.646C301.113 264.549 300.435 264.407 299.78 264.222C299.136 264.026 298.521 263.787 297.935 263.504V259.285C298.95 259.734 300.005 260.14 301.099 260.501C302.192 260.862 303.276 261.043 304.351 261.043C305.093 261.043 305.688 260.945 306.138 260.75C306.597 260.555 306.929 260.286 307.134 259.944C307.339 259.603 307.441 259.212 307.441 258.772C307.441 258.235 307.261 257.776 306.899 257.396C306.538 257.015 306.04 256.658 305.405 256.326C304.78 255.994 304.072 255.638 303.281 255.257C302.783 255.022 302.241 254.739 301.655 254.407C301.069 254.065 300.513 253.65 299.985 253.162C299.458 252.674 299.023 252.083 298.682 251.39C298.35 250.687 298.184 249.847 298.184 248.87C298.184 247.591 298.477 246.497 299.062 245.589C299.648 244.681 300.483 243.987 301.567 243.509C302.661 243.021 303.95 242.776 305.435 242.776C306.548 242.776 307.607 242.908 308.613 243.172C309.629 243.426 310.688 243.797 311.792 244.285L310.327 247.815C309.341 247.415 308.457 247.107 307.676 246.893C306.895 246.668 306.099 246.556 305.288 246.556C304.722 246.556 304.238 246.648 303.838 246.834C303.438 247.01 303.135 247.264 302.93 247.596C302.725 247.918 302.622 248.294 302.622 248.724C302.622 249.231 302.769 249.661 303.062 250.013C303.364 250.354 303.813 250.687 304.409 251.009C305.015 251.331 305.767 251.707 306.665 252.137C307.759 252.654 308.691 253.196 309.463 253.763C310.244 254.319 310.845 254.979 311.265 255.74C311.685 256.492 311.895 257.43 311.895 258.553ZM322.075 264.793C320.454 264.793 319.072 264.5 317.93 263.914C316.787 263.318 315.918 262.4 315.322 261.16C314.727 259.92 314.429 258.333 314.429 256.399C314.429 254.397 314.766 252.767 315.439 251.507C316.123 250.237 317.065 249.305 318.267 248.709C319.478 248.113 320.879 247.815 322.471 247.815C323.604 247.815 324.58 247.928 325.4 248.152C326.23 248.367 326.953 248.626 327.568 248.929L326.25 252.386C325.547 252.103 324.893 251.873 324.287 251.697C323.682 251.512 323.076 251.419 322.471 251.419C321.689 251.419 321.04 251.604 320.522 251.976C320.005 252.337 319.619 252.884 319.365 253.616C319.111 254.349 318.984 255.267 318.984 256.37C318.984 257.454 319.121 258.353 319.395 259.065C319.668 259.778 320.063 260.311 320.581 260.662C321.099 261.004 321.729 261.175 322.471 261.175C323.398 261.175 324.224 261.053 324.946 260.809C325.669 260.555 326.372 260.203 327.056 259.754V263.577C326.372 264.007 325.654 264.314 324.902 264.5C324.16 264.695 323.218 264.793 322.075 264.793ZM345.747 256.282C345.747 257.649 345.562 258.86 345.19 259.915C344.829 260.97 344.297 261.863 343.594 262.596C342.9 263.318 342.061 263.865 341.074 264.236C340.098 264.607 338.994 264.793 337.764 264.793C336.611 264.793 335.552 264.607 334.585 264.236C333.628 263.865 332.793 263.318 332.08 262.596C331.377 261.863 330.83 260.97 330.439 259.915C330.059 258.86 329.868 257.649 329.868 256.282C329.868 254.466 330.19 252.928 330.835 251.668C331.479 250.408 332.397 249.451 333.589 248.797C334.78 248.143 336.201 247.815 337.852 247.815C339.385 247.815 340.742 248.143 341.924 248.797C343.115 249.451 344.048 250.408 344.722 251.668C345.405 252.928 345.747 254.466 345.747 256.282ZM334.424 256.282C334.424 257.356 334.541 258.26 334.775 258.992C335.01 259.725 335.376 260.276 335.874 260.647C336.372 261.019 337.021 261.204 337.822 261.204C338.613 261.204 339.253 261.019 339.741 260.647C340.239 260.276 340.601 259.725 340.825 258.992C341.06 258.26 341.177 257.356 341.177 256.282C341.177 255.198 341.06 254.3 340.825 253.587C340.601 252.864 340.239 252.322 339.741 251.961C339.243 251.6 338.594 251.419 337.793 251.419C336.611 251.419 335.752 251.824 335.215 252.635C334.688 253.445 334.424 254.661 334.424 256.282ZM358.579 247.815C358.804 247.815 359.062 247.83 359.355 247.859C359.658 247.879 359.902 247.908 360.088 247.947L359.751 252.137C359.604 252.088 359.395 252.054 359.121 252.034C358.857 252.005 358.628 251.99 358.433 251.99C357.856 251.99 357.295 252.063 356.748 252.21C356.211 252.356 355.728 252.596 355.298 252.928C354.868 253.25 354.526 253.68 354.272 254.217C354.028 254.744 353.906 255.394 353.906 256.165V264.5H349.438V248.123H352.822L353.481 250.877H353.701C354.023 250.32 354.424 249.812 354.902 249.354C355.391 248.885 355.942 248.514 356.558 248.24C357.183 247.957 357.856 247.815 358.579 247.815ZM369.814 247.815C371.328 247.815 372.632 248.108 373.726 248.694C374.819 249.271 375.664 250.11 376.26 251.214C376.855 252.317 377.153 253.665 377.153 255.257V257.425H366.592C366.641 258.685 367.017 259.676 367.72 260.398C368.433 261.111 369.419 261.468 370.679 261.468C371.724 261.468 372.681 261.36 373.55 261.146C374.419 260.931 375.312 260.608 376.23 260.179V263.636C375.42 264.036 374.57 264.329 373.682 264.515C372.803 264.7 371.733 264.793 370.474 264.793C368.833 264.793 367.378 264.49 366.108 263.885C364.849 263.279 363.857 262.356 363.135 261.116C362.422 259.876 362.065 258.313 362.065 256.429C362.065 254.515 362.388 252.923 363.032 251.653C363.687 250.374 364.595 249.417 365.757 248.782C366.919 248.138 368.271 247.815 369.814 247.815ZM369.844 250.994C368.975 250.994 368.252 251.272 367.676 251.829C367.109 252.386 366.782 253.26 366.694 254.451H372.964C372.954 253.787 372.832 253.196 372.598 252.679C372.373 252.161 372.031 251.751 371.572 251.448C371.123 251.146 370.547 250.994 369.844 250.994Z" fill="white"/>
<g opacity="0.7">
<path d="M281.966 280.349L271.686 294.75H268.086V289.449L274.586 280.349H281.966Z" fill="white"/>
<path d="M285.924 294.751H278.539L288.825 280.346H296.21L285.924 294.751Z" fill="white"/>
<path d="M300.166 294.751H292.781L303.067 280.346H310.451L300.166 294.751Z" fill="white"/>
<path d="M314.407 294.751H307.023L317.309 280.346H324.693L314.407 294.751Z" fill="white"/>
<path d="M328.65 294.751H321.266L331.551 280.346H338.936L328.65 294.751Z" fill="white"/>
<path d="M342.893 294.751H335.508L345.794 280.346H353.179L342.893 294.751Z" fill="white"/>
<path d="M357.135 294.751H349.75L360.036 280.346H367.421L357.135 294.751Z" fill="white"/>
<path d="M371.376 294.751H363.992L374.278 280.346H381.662L371.376 294.751Z" fill="white"/>
<path d="M385.618 294.751H378.234L388.519 280.346H395.904L385.618 294.751Z" fill="white"/>
<path d="M406.356 280.349V285.65L399.856 294.75H392.477L402.756 280.349H406.356Z" fill="white"/>
</g>
<g opacity="0.7">
<path d="M281.966 178.02L271.686 192.43H268.086V187.12L274.586 178.02H281.966Z" fill="white"/>
<path d="M285.924 192.426H278.539L288.825 178.021H296.21L285.924 192.426Z" fill="white"/>
<path d="M300.166 192.426H292.781L303.067 178.021H310.451L300.166 192.426Z" fill="white"/>
<path d="M314.407 192.426H307.023L317.309 178.021H324.693L314.407 192.426Z" fill="white"/>
<path d="M328.65 192.426H321.266L331.551 178.021H338.936L328.65 192.426Z" fill="white"/>
<path d="M342.893 192.426H335.508L345.794 178.021H353.179L342.893 192.426Z" fill="white"/>
<path d="M357.135 192.426H349.75L360.036 178.021H367.421L357.135 192.426Z" fill="white"/>
<path d="M371.376 192.426H363.992L374.278 178.021H381.662L371.376 192.426Z" fill="white"/>
<path d="M385.618 192.426H378.234L388.519 178.021H395.904L385.618 192.426Z" fill="white"/>
<path d="M406.356 178.02V183.329L399.856 192.43H392.477L402.756 178.02H406.356Z" fill="white"/>
</g>
<path d="M356.256 422.621C388.606 422.621 414.832 420.406 414.832 417.673C414.832 414.94 388.606 412.725 356.256 412.725C323.905 412.725 297.68 414.94 297.68 417.673C297.68 420.406 323.905 422.621 356.256 422.621Z" fill="#263238"/>
<path d="M281.68 410.913L267.839 341.984H262.535L248.693 410.913L238.52 417.139V418.984H291.52V417.139L281.68 410.913Z" fill="#407BFF"/>
<path opacity="0.2" d="M291.52 417.139H238.52V419.46H291.52V417.139Z" fill="white"/>
<path opacity="0.2" d="M267.84 341.984H262.536L248.527 410.71H281.515L267.84 341.984Z" fill="white"/>
<path opacity="0.6" d="M277.076 388.405L273.928 372.581H256.299L253.074 388.405H277.076Z" fill="white"/>
<path d="M166.942 129.738H124.205C119.319 129.738 115.359 133.698 115.359 138.584V153.58C115.359 158.465 119.32 162.426 124.205 162.426H152.605L165.586 176.324L158.555 162.426H166.942C171.827 162.426 175.788 158.466 175.788 153.58V138.584C175.788 133.698 171.828 129.738 166.942 129.738Z" fill="#407BFF"/>
<path opacity="0.7" d="M166.942 129.738H124.205C119.319 129.738 115.359 133.698 115.359 138.584V153.58C115.359 158.465 119.32 162.426 124.205 162.426H152.605L165.586 176.324L158.555 162.426H166.942C171.827 162.426 175.788 158.466 175.788 153.58V138.584C175.788 133.698 171.828 129.738 166.942 129.738Z" fill="white"/>
<path d="M126.297 145.259C126.297 142.466 128.45 140.381 131.38 140.381C134.282 140.381 136.435 142.452 136.435 145.259C136.435 148.066 134.282 150.137 131.38 150.137C128.45 150.137 126.297 148.053 126.297 145.259ZM135.072 145.259C135.072 143.147 133.491 141.594 131.38 141.594C129.24 141.594 127.66 143.147 127.66 145.259C127.66 147.371 129.241 148.925 131.38 148.925C133.492 148.925 135.072 147.371 135.072 145.259Z" fill="#407BFF"/>
<path d="M137.66 146.417C137.66 144.264 139.254 142.738 141.421 142.738C143.588 142.738 145.168 144.264 145.168 146.417C145.168 148.57 143.587 150.109 141.421 150.109C139.254 150.11 137.66 148.57 137.66 146.417ZM143.846 146.417C143.846 144.877 142.811 143.882 141.421 143.882C140.031 143.882 138.982 144.877 138.982 146.417C138.982 147.957 140.031 148.965 141.421 148.965C142.811 148.965 143.846 147.957 143.846 146.417Z" fill="#407BFF"/>
<path d="M154.461 146.417C154.461 148.638 152.921 150.109 150.809 150.109C149.787 150.109 148.888 149.714 148.288 148.938V152.671H146.98V142.806H148.234V143.951C148.82 143.147 149.746 142.738 150.809 142.738C152.921 142.738 154.461 144.21 154.461 146.417ZM153.139 146.417C153.139 144.891 152.09 143.882 150.7 143.882C149.324 143.882 148.275 144.89 148.275 146.417C148.275 147.957 149.324 148.965 150.7 148.965C152.089 148.965 153.139 147.957 153.139 146.417Z" fill="#407BFF"/>
<path d="M155.355 149.265L155.9 148.229C156.513 148.665 157.494 148.978 158.435 148.978C159.647 148.978 160.152 148.61 160.152 147.997C160.152 146.375 155.587 147.779 155.587 144.904C155.587 143.61 156.745 142.737 158.598 142.737C159.538 142.737 160.601 142.982 161.228 143.391L160.669 144.427C160.015 144.004 159.293 143.854 158.584 143.854C157.439 143.854 156.88 144.277 156.88 144.849C156.88 146.552 161.459 145.162 161.459 147.969C161.459 149.277 160.26 150.108 158.338 150.108C157.14 150.11 155.955 149.742 155.355 149.265Z" fill="#407BFF"/>
<path d="M162.797 149.238C162.797 148.748 163.178 148.366 163.696 148.366C164.2 148.366 164.568 148.748 164.568 149.238C164.568 149.715 164.2 150.11 163.696 150.11C163.179 150.11 162.797 149.715 162.797 149.238ZM162.92 140.49H164.46L164.201 147.017H163.165L162.92 140.49Z" fill="#407BFF"/>
<path d="M107.723 411.98L114.139 415.675L123.23 401.115L116.805 397.415L107.723 411.98Z" fill="#FFB573"/>
<path opacity="0.2" d="M116.8 397.423L123.225 401.123L118.534 408.628L112.109 404.929L116.8 397.423Z" fill="black"/>
<path d="M116.021 411.03H107.025C106.722 411.031 106.46 411.243 106.394 411.539L104.934 418.133C104.809 418.723 105.186 419.303 105.777 419.428C105.856 419.445 105.937 419.453 106.017 419.452C108.928 419.405 111.047 419.226 114.702 419.226C116.953 419.226 123.745 419.462 126.854 419.462C129.963 419.462 130.368 416.391 129.096 416.109C123.387 414.866 119.092 413.142 117.264 411.503C116.926 411.19 116.481 411.021 116.021 411.03Z" fill="#263238"/>
<path d="M116.529 412.056C116.459 412.037 116.406 411.978 116.397 411.905C116.385 411.836 116.42 411.767 116.482 411.735C116.746 411.566 119.138 410.096 119.958 410.52C120.146 410.609 120.265 410.801 120.259 411.01C120.308 411.366 120.169 411.723 119.892 411.952C119.475 412.236 118.973 412.369 118.47 412.329C117.815 412.311 117.164 412.219 116.529 412.056ZM117.038 411.812C117.902 412.104 118.845 412.057 119.676 411.68C119.853 411.521 119.941 411.285 119.911 411.049C119.902 410.908 119.845 410.842 119.798 410.842C119.729 410.805 119.65 410.788 119.572 410.795C118.67 410.968 117.81 411.314 117.038 411.812Z" fill="#407BFF"/>
<path d="M116.483 412.094C116.429 412.059 116.397 411.998 116.398 411.934C116.407 411.831 116.586 409.701 117.444 409.005C117.648 408.826 117.919 408.743 118.188 408.779C118.463 408.778 118.699 408.972 118.753 409.241C118.904 410.023 117.425 411.653 116.662 412.067H116.577C116.55 412.085 116.517 412.095 116.483 412.094ZM117.67 409.212C117.149 409.877 116.843 410.686 116.794 411.529C117.557 410.954 118.499 409.72 118.405 409.24C118.396 409.193 118.377 409.061 118.151 409.061H118.066C117.92 409.062 117.779 409.115 117.67 409.212Z" fill="#407BFF"/>
<path d="M211.293 413.7L218.926 412.816L216.719 396.419L209.086 397.304L211.293 413.7Z" fill="#FFB573"/>
<path opacity="0.2" d="M209.086 397.304L216.719 396.419L217.851 404.878L210.218 405.762L209.086 397.304Z" fill="black"/>
<path d="M219.087 411.03H210.091C209.788 411.031 209.526 411.243 209.46 411.539L208 418.133C207.875 418.723 208.252 419.303 208.843 419.428C208.922 419.445 209.003 419.453 209.084 419.452C211.995 419.405 214.114 419.226 217.769 419.226C220.02 419.226 226.812 419.462 229.921 419.462C233.03 419.462 233.435 416.391 232.163 416.109C226.454 414.866 222.159 413.142 220.331 411.503C219.992 411.19 219.547 411.021 219.087 411.03Z" fill="#263238"/>
<path d="M219.595 412.056C219.525 412.037 219.472 411.978 219.463 411.905C219.451 411.836 219.486 411.767 219.548 411.735C219.812 411.566 222.204 410.096 223.024 410.52C223.212 410.609 223.331 410.801 223.325 411.01C223.374 411.366 223.235 411.723 222.958 411.952C222.541 412.236 222.039 412.369 221.536 412.329C220.881 412.311 220.23 412.219 219.595 412.056ZM220.104 411.812C220.968 412.104 221.911 412.057 222.742 411.68C222.919 411.521 223.007 411.285 222.977 411.049C222.968 410.908 222.911 410.842 222.864 410.842C222.795 410.805 222.716 410.788 222.638 410.795C221.736 410.968 220.876 411.314 220.104 411.812Z" fill="#407BFF"/>
<path d="M219.55 412.094C219.496 412.059 219.464 411.998 219.465 411.934C219.474 411.831 219.653 409.701 220.511 409.005C220.715 408.826 220.986 408.743 221.255 408.779C221.53 408.778 221.766 408.972 221.82 409.241C221.971 410.023 220.492 411.653 219.729 412.067H219.644C219.616 412.085 219.583 412.095 219.55 412.094ZM220.737 409.212C220.216 409.877 219.91 410.686 219.861 411.529C220.624 410.954 221.566 409.72 221.472 409.24C221.463 409.193 221.444 409.061 221.218 409.061H221.133C220.987 409.062 220.846 409.115 220.737 409.212Z" fill="#407BFF"/>
<path d="M218.822 401.479L206.002 398.419C206.002 398.419 196.712 331.139 174.862 300.649C172.012 296.669 168.952 293.319 165.672 290.829C164.312 307.729 162.712 325.709 161.322 335.279C157.902 358.829 124.772 404.199 124.772 404.199L113.172 399.329C113.172 399.329 139.802 350.029 141.082 326.879C142.482 301.749 143.092 257.669 143.142 252.509H182.452C186.182 272.919 214.281 319.579 218.822 401.479Z" fill="#263238"/>
<path opacity="0.3" d="M218.822 401.479L206.002 398.419C206.002 398.419 196.712 331.139 174.862 300.649C172.012 296.669 168.952 293.319 165.672 290.829C164.312 307.729 162.712 325.709 161.322 335.279C157.902 358.829 124.772 404.199 124.772 404.199L113.172 399.329C113.172 399.329 139.802 350.029 141.082 326.879C142.482 301.749 143.092 257.669 143.142 252.509H182.452C186.182 272.919 214.281 319.579 218.822 401.479Z" fill="white"/>
<path d="M206.139 209.141C206.146 212.155 206.062 215.168 206.021 218.181C205.955 221.194 205.879 224.206 205.768 227.218C205.571 233.243 205.295 239.266 204.982 245.288L204.897 244.298C205.325 246.991 205.71 249.693 206.101 252.393C206.498 255.092 206.842 257.802 207.203 260.508C207.542 263.218 207.874 265.93 208.17 268.649C208.441 271.373 208.745 274.09 208.952 276.826L203.789 277.819C202.966 275.202 202.241 272.566 201.482 269.936C200.749 267.301 200.05 264.66 199.36 262.017C198.691 259.37 198.005 256.726 197.372 254.072C196.733 251.419 196.088 248.768 195.487 246.108L195.412 245.778L195.401 245.118C195.302 239.088 195.239 233.059 195.257 227.031C195.252 224.017 195.284 221.004 195.324 217.99C195.39 214.977 195.412 211.964 195.527 208.952L206.139 209.141Z" fill="#FFB573"/>
<path d="M205.372 206C208.597 208.01 204.838 229.097 205.618 244.933C205.709 246.779 206.368 249.645 206.368 249.645L195.497 250.867C195.497 250.867 194.15 245.722 193.966 243.184C193.431 235.799 193.96 214.933 193.96 214.933L205.372 206Z" fill="#407BFF"/>
<path opacity="0.7" d="M205.621 244.93C205.711 246.78 206.371 249.65 206.371 249.65L195.491 250.87C195.491 250.87 194.151 245.72 193.961 243.18C193.821 241.28 193.751 238.48 193.731 235.38C193.701 230.7 193.761 225.32 193.831 221.26C193.821 221.25 193.831 221.25 193.831 221.25C193.891 217.54 193.961 214.93 193.961 214.93L205.371 206C208.591 208.01 204.841 229.1 205.621 244.93Z" fill="white"/>
<path d="M208.788 275.388L210.861 285.548L201.803 285.918C201.803 285.918 199.356 279.02 203.926 275.074L208.788 275.388Z" fill="#FFB573"/>
<path d="M208.771 292.626L201.954 291.286L201.805 285.918L210.863 285.548L208.771 292.626Z" fill="#FFB573"/>
<path d="M194.551 249.054L206.366 247.175L206.699 250.439L195.342 251.626L194.551 249.054Z" fill="#407BFF"/>
<path opacity="0.6" d="M194.551 249.054L206.366 247.175L206.699 250.439L195.342 251.626L194.551 249.054Z" fill="white"/>
<path opacity="0.1" d="M193.731 235.38C193.701 230.7 193.761 225.32 193.831 221.26C193.821 221.25 193.831 221.25 193.831 221.25C195.041 218.84 196.241 216.93 197.221 216.09C197.221 216.09 199.351 226.02 193.731 235.38Z" fill="black"/>
<path d="M220.485 403.733L204.016 401.283L204.52 396.723L221.651 398.972L220.485 403.733Z" fill="#263238"/>
<path d="M125.71 407.061L110.863 401.161L112.627 396.723L128.148 402.557L125.71 407.061Z" fill="#263238"/>
<path opacity="0.3" d="M174.862 300.649C172.012 296.669 168.952 293.319 165.672 290.829L166.762 276.849C166.762 276.849 173.573 288.009 174.862 300.649Z" fill="black"/>
<path d="M205.371 206C190.551 230.59 183.971 260.72 183.971 260.72L176.731 273.15L171.691 259.11C171.291 259.05 170.881 258.99 170.461 258.93C169.871 258.84 169.271 258.75 168.661 258.66C168.061 258.57 167.441 258.48 166.821 258.38C165.581 258.19 164.311 257.99 163.041 257.78C162.411 257.68 161.771 257.57 161.131 257.46C160.491 257.36 159.861 257.25 159.221 257.13C158.591 257.02 157.961 256.91 157.331 256.79C156.701 256.68 156.081 256.56 155.461 256.44C153.751 256.11 152.081 255.77 150.511 255.42C150.221 255.35 149.951 255.29 149.671 255.23C148.511 254.96 147.401 254.69 146.371 254.41C145.351 254.13 144.411 253.85 143.561 253.57C143.351 253.5 143.141 253.43 142.941 253.36C144.601 241.89 147.191 232.11 150.061 223.97C150.561 222.54 151.071 221.17 151.591 219.84C153.851 214.04 156.211 209.2 158.391 205.29C158.441 205.19 158.501 205.1 158.551 205C163.151 196.76 172.471 193.17 178.071 194.59C182.321 195.68 189.041 198.23 193.651 200.11C199.531 202.52 205.371 206 205.371 206Z" fill="#407BFF"/>
<path opacity="0.7" d="M205.371 206C190.551 230.59 183.971 260.72 183.971 260.72L176.731 273.15L171.691 259.11C171.291 259.05 170.881 258.99 170.461 258.93C169.871 258.84 169.271 258.75 168.661 258.66C168.061 258.57 167.441 258.48 166.821 258.38C165.581 258.19 164.311 257.99 163.041 257.78C162.411 257.68 161.771 257.57 161.131 257.46C160.491 257.36 159.861 257.25 159.221 257.13C158.591 257.02 157.961 256.91 157.331 256.79C156.701 256.68 156.081 256.56 155.461 256.44C153.751 256.11 152.081 255.77 150.511 255.42C150.221 255.35 149.951 255.29 149.671 255.23C148.511 254.96 147.401 254.69 146.371 254.41C145.351 254.14 144.411 253.86 143.561 253.57C143.351 253.5 143.141 253.43 142.941 253.36C144.601 241.89 147.191 232.11 150.061 223.97C150.561 222.54 151.071 221.17 151.591 219.84C153.851 214.04 156.211 209.2 158.391 205.29C158.441 205.19 158.501 205.1 158.551 205C163.151 196.76 172.471 193.17 178.071 194.59C182.321 195.68 189.041 198.23 193.651 200.11C199.531 202.52 205.371 206 205.371 206Z" fill="white"/>
<path opacity="0.1" d="M181.591 223.18C181.591 223.18 181.171 225.42 180.661 228.58C180.151 231.75 178.401 237.15 177.611 238.78C176.811 240.41 173.521 246.91 174.151 249.81C174.781 252.71 171.691 259.11 171.691 259.11C171.291 259.05 170.881 258.99 170.461 258.93C171.221 255.38 173.771 243.89 175.151 242.56C176.781 240.98 179.321 233.99 178.791 231.36C178.271 228.73 181.591 223.18 181.591 223.18Z" fill="black"/>
<path d="M170.764 275.388L172.837 285.548L163.779 285.918C163.779 285.918 161.332 279.02 165.902 275.074L170.764 275.388Z" fill="#FFB573"/>
<path d="M170.747 292.626L163.93 291.286L163.781 285.918L172.839 285.548L170.747 292.626Z" fill="#FFB573"/>
<path d="M176.488 195.086C177.528 197.916 185.488 208.046 185.488 208.046L192.538 200.096C192.538 200.096 191.778 199.486 191.258 198.476C190.728 197.456 190.458 196.006 191.538 194.346C191.858 193.856 192.358 193.476 192.818 193.076C192.898 193.026 192.968 192.956 193.038 192.896L189.518 179.766C187.318 184.836 181.668 194.256 176.488 195.086Z" fill="#FFB573"/>
<path opacity="0.2" d="M191.258 198.476C190.728 197.456 190.458 196.006 191.538 194.346C191.858 193.856 192.358 193.476 192.818 193.076L187.588 183.916C184.298 191.206 188.518 196.286 191.258 198.476Z" fill="black"/>
<path d="M204.162 168.71C204.162 168.71 207.006 178.633 202.136 183.218C197.266 187.804 194.836 168.963 194.836 168.963L204.162 168.71Z" fill="#FFB573"/>
<path opacity="0.4" d="M204.162 168.71C204.162 168.71 207.006 178.633 202.136 183.218C197.266 187.804 194.836 168.963 194.836 168.963L204.162 168.71Z" fill="black"/>
<path d="M187.577 193.273C190.666 196.683 195.044 197.116 198.584 195.472C200.861 194.419 202.788 192.498 203.81 189.964C203.948 189.633 204.065 189.285 204.171 188.93C206.017 182.404 205.039 167.022 198.4 168.266C192.962 169.285 187.412 168.125 185.088 173.155C184.417 174.581 184.106 176.15 184.158 177.729C184.286 185.064 184.016 189.382 187.577 193.273Z" fill="#FFB573"/>
<path d="M199.787 180.715C200.423 182.569 201.312 184.326 202.429 185.937C201.575 186.496 200.517 186.649 199.539 186.355L199.787 180.715Z" fill="#ED893E"/>
<path d="M197.369 175.482C197.241 175.454 197.108 175.496 197.02 175.593C196.446 176.275 195.583 176.646 194.693 176.595C194.503 176.567 194.325 176.698 194.297 176.888C194.269 177.079 194.4 177.256 194.591 177.284H194.593C195.717 177.378 196.816 176.922 197.543 176.06C197.675 175.92 197.667 175.699 197.527 175.567C197.525 175.565 197.523 175.563 197.521 175.561C197.473 175.527 197.422 175.501 197.369 175.482Z" fill="#263238"/>
<path d="M201.79 175.068C201.722 175.049 201.649 175.053 201.583 175.078C201.419 175.179 201.369 175.394 201.471 175.558C201.472 175.56 201.474 175.562 201.475 175.564C202.064 176.53 203.087 177.148 204.216 177.222C204.408 177.223 204.565 177.068 204.567 176.876V176.875C204.563 176.684 204.411 176.529 204.22 176.524C203.331 176.44 202.533 175.94 202.07 175.176C201.997 175.101 201.895 175.062 201.79 175.068Z" fill="#263238"/>
<path d="M185.54 182.825C184.838 183.028 184.795 186.157 185.522 189.002L184.275 189.353C183.201 187.839 182.028 185.691 181.276 182.844C179.704 176.898 179.487 173.052 180.055 170.076L189.906 168.805L190.322 172.035C189.266 172.607 188.634 173.808 189.132 175.078C190.194 177.79 188.68 182.019 186.605 183.715C186.605 183.717 186.532 182.539 185.54 182.825Z" fill="#FFB573"/>
<path opacity="0.4" d="M185.54 182.825C184.838 183.028 184.795 186.157 185.522 189.002L184.275 189.353C183.201 187.839 182.028 185.691 181.276 182.844C179.704 176.898 179.487 173.052 180.055 170.076L189.906 168.805L190.322 172.035C189.266 172.607 188.634 173.808 189.132 175.078C190.194 177.79 188.68 182.019 186.605 183.715C186.605 183.717 186.532 182.539 185.54 182.825Z" fill="black"/>
<path d="M180.71 183.607C181.455 185.298 182.841 186.625 184.563 187.296C186.849 188.169 188.217 186.176 187.776 183.898C187.365 181.877 185.694 178.922 183.302 179.048C180.91 179.175 179.822 181.52 180.71 183.607Z" fill="#FFB573"/>
<path d="M182.008 167.129C182.008 167.129 180.818 165.067 183.418 162.623C186.018 160.179 196.919 159.166 200.184 161.193C203.449 163.22 206.109 161.718 205.942 160.395C205.942 160.395 207.033 161.595 206.121 163.221C206.121 163.221 208.214 163.112 209.233 166.249C209.233 166.249 207.93 165.999 207.075 166.856C207.075 166.856 208.374 168.066 207.932 169.902C207.932 169.902 206.777 168.72 205.546 168.724C205.546 168.724 206.12 170.275 206.76 170.848C206.76 170.848 202.438 171.332 200.198 169.691C200.198 169.691 200.927 170.961 201.922 171.593C201.922 171.593 194.877 172.89 192.584 170.111C192.584 170.111 191.359 171.689 191.886 173.527C191.886 173.527 189.722 173.588 188.722 172.226C188.722 172.226 185.985 174.578 182.78 174.72C182.78 174.72 183.095 174.426 183.758 173.349C183.758 173.349 180.165 175.456 177.805 173.86C177.805 173.86 178.287 173.108 178.403 172.185L177.465 172.654C177.465 172.654 177.4 167.33 182.008 167.129Z" fill="#263238"/>
<path d="M194.838 182.971C194.632 183.029 194.408 183.075 194.162 183.107C194.066 183.119 193.978 183.051 193.966 182.955C193.954 182.859 194.024 182.779 194.118 182.759C196.363 182.477 196.668 180.885 196.68 180.817C196.696 180.722 196.785 180.658 196.882 180.673C196.977 180.689 197.041 180.779 197.026 180.874C197.022 180.892 196.746 182.434 194.838 182.971Z" fill="#ED893E"/>
<path d="M203.524 182.911C203.502 182.917 203.479 182.919 203.456 182.916C202.196 182.763 201.627 181.078 201.603 181.006C201.572 180.914 201.622 180.815 201.714 180.785C201.799 180.755 201.904 180.805 201.935 180.896C201.94 180.911 202.458 182.442 203.498 182.568C203.594 182.579 203.662 182.667 203.651 182.763C203.641 182.835 203.59 182.892 203.524 182.911Z" fill="#ED893E"/>
<path d="M195.196 180.234C195.13 180.824 195.463 181.325 195.86 181.341C196.256 181.357 196.584 180.881 196.612 180.287C196.64 179.693 196.335 179.195 195.948 179.18C195.562 179.165 195.226 179.63 195.196 180.234Z" fill="#263238"/>
<path d="M201.942 180.509C201.876 181.099 202.219 181.601 202.606 181.616C202.993 181.631 203.33 181.156 203.358 180.562C203.386 179.968 203.081 179.47 202.694 179.455C202.308 179.441 201.967 179.943 201.942 180.509Z" fill="#263238"/>
<path d="M194.571 180.26C194.571 180.26 196.303 180.302 197.026 179.766C197.749 179.23 196.423 178.703 195.767 178.703C195.111 178.703 194.13 179.74 194.571 180.26Z" fill="#FFB573"/>
<path d="M201.607 180.14C201.607 180.14 203.235 180.731 204.091 180.453C204.947 180.175 203.858 179.253 203.236 179.044C202.614 178.835 201.355 179.507 201.607 180.14Z" fill="#FFB573"/>
<path d="M200.08 191.03C200.08 191.03 199.2 191.39 198.07 191.76C196.04 192.43 193.18 193.13 193.01 191.91C192.96 191.55 193.05 191.24 193.26 190.97C194.12 189.79 196.99 189.36 198.89 189.16C198.89 189.16 198.99 189.86 199.16 190.1C199.67 190.86 200.08 191.03 200.08 191.03Z" fill="#263238"/>
<path d="M198.07 191.76C196.04 192.43 193.18 193.13 193.01 191.91C192.96 191.55 193.05 191.24 193.26 190.97C194.96 190.85 197.27 190.87 198.07 191.76Z" fill="#A02724"/>
<path d="M190.844 178.703C190.844 178.703 191.882 181.341 190.844 181.341C189.806 181.341 190.844 178.703 190.844 178.703Z" fill="white"/>
<path d="M189.141 180.978C189.141 180.978 190.179 183.616 189.141 183.616C188.102 183.616 189.141 180.978 189.141 180.978Z" fill="white"/>
<path d="M202.701 172.451C202.701 172.451 204.295 174.796 203.282 175.024C202.269 175.253 202.701 172.451 202.701 172.451Z" fill="white"/>
<path d="M203.747 185.184C203.747 185.184 204.66 187.868 203.623 187.819C202.585 187.77 203.747 185.184 203.747 185.184Z" fill="white"/>
<path d="M175.152 193.109C175.152 193.109 180.19 208.142 183.223 213.812L183.882 213.107C183.882 213.107 178.344 197.329 177.487 193.109H175.152Z" fill="#407BFF"/>
<path d="M190.88 200.395C190.88 200.395 190.842 207.054 186.855 213.813V214.934C186.855 214.934 190.816 211.571 192.035 201.582L190.88 200.395Z" fill="#407BFF"/>
<path d="M182.707 213.473L183.697 211.719C185.502 214.018 187.035 212.782 187.035 212.782L187.691 214.184L185.947 218.988H184.15L182.707 213.473Z" fill="#407BFF"/>
<path d="M185.851 216.615C185.851 216.615 185.174 232.835 185.851 242.23C186.285 248.247 186.741 259.043 186.444 261.911L183.734 263.988L181.598 260.716C181.598 260.716 183.279 256.274 182.488 244.999C181.697 233.724 184.59 217.01 184.59 217.01L185.851 216.615Z" fill="#407BFF"/>
<path d="M171.785 194.013L177.176 191.149L184.548 197.988L184.896 206.873L190.163 199.661L193.379 198.023L195.713 201.93L192.766 206.631L190.885 204.199L184.564 209.573L179.902 202.16L176.766 203.857L171.785 194.013Z" fill="#407BFF"/>
<path opacity="0.6" d="M171.785 194.013L177.176 191.149L184.548 197.988L184.896 206.873L190.163 199.661L193.379 198.023L195.713 201.93L192.766 206.631L190.885 204.199L184.564 209.573L179.902 202.16L176.766 203.857L171.785 194.013Z" fill="white"/>
<path opacity="0.1" d="M184.562 209.573L190.331 202.176L192.765 206.631L190.883 204.199L184.562 209.573Z" fill="black"/>
<path opacity="0.1" d="M184.564 209.573L181.929 200.016L176.766 203.857L179.902 202.16L184.564 209.573Z" fill="black"/>
<path opacity="0.1" d="M168.341 252.51L159.141 253.5C159.141 253.5 149.301 238.57 150.061 223.97C150.561 222.54 151.071 221.17 151.591 219.84C153.851 214.04 156.211 209.2 158.391 205.29C159.761 204.04 160.731 203.46 160.731 203.46L170.241 217.64C170.241 217.64 170.851 240.75 168.341 252.51Z" fill="black"/>
<path d="M168.116 209.141C168.123 212.155 168.039 215.168 167.998 218.181C167.932 221.194 167.856 224.206 167.745 227.218C167.548 233.243 167.272 239.266 166.959 245.288L166.874 244.298C167.302 246.991 167.687 249.693 168.078 252.393C168.475 255.092 168.819 257.802 169.18 260.508C169.519 263.218 169.851 265.93 170.147 268.649C170.418 271.373 170.722 274.09 170.929 276.826L165.766 277.819C164.943 275.202 164.218 272.566 163.459 269.936C162.726 267.301 162.027 264.66 161.337 262.017C160.668 259.37 159.982 256.726 159.349 254.072C158.71 251.419 158.066 248.768 157.464 246.108L157.389 245.778L157.378 245.118C157.279 239.088 157.216 233.059 157.234 227.031C157.229 224.017 157.261 221.004 157.301 217.99C157.367 214.977 157.389 211.964 157.504 208.952L168.116 209.141Z" fill="#FFB573"/>
<path d="M163.763 201.153C168.906 203.395 170.463 211.719 170.463 211.719C170.463 211.719 167.853 243.615 167.984 244.933C168.115 246.252 168.346 248.757 168.346 248.757L157.302 250.867C157.302 250.867 156.379 244.933 155.851 232.801C155.323 220.669 155.811 210.559 158.356 206.092C160.901 201.625 163.763 201.153 163.763 201.153Z" fill="#407BFF"/>
<path opacity="0.7" d="M163.763 201.153C168.906 203.395 170.463 211.719 170.463 211.719C170.463 211.719 167.853 243.615 167.984 244.933C168.115 246.252 168.346 248.757 168.346 248.757L157.302 250.867C157.302 250.867 156.379 244.933 155.851 232.801C155.323 220.669 155.811 210.559 158.356 206.092C160.901 201.625 163.763 201.153 163.763 201.153Z" fill="white"/>
<path d="M155.66 249.021L169.169 246.779L168.344 250.208L157.169 252.511L155.66 249.021Z" fill="#407BFF"/>
<path opacity="0.6" d="M155.66 249.021L169.169 246.779L168.344 250.208L157.169 252.511L155.66 249.021Z" fill="white"/>
<path d="M228.828 298.73L226.642 330.489C226.57 331.528 225.614 332.328 224.491 332.263L183.407 330.001C182.296 329.936 181.444 329.031 181.516 327.992L183.702 296.233C183.774 295.182 184.743 294.394 185.854 294.459L226.938 296.721C228.061 296.786 228.901 297.679 228.828 298.73Z" fill="#263238"/>
<path d="M188.568 296.515L186.382 328.274C186.31 329.313 185.341 330.113 184.23 330.048L183.407 330C182.296 329.935 181.444 329.03 181.516 327.991L183.702 296.232C183.774 295.181 184.743 294.393 185.854 294.458L186.677 294.506C187.787 294.571 188.64 295.465 188.568 296.515Z" fill="black"/>
<path d="M207.508 326.132L225.981 322.817C225.981 322.817 235.335 340.834 240.821 345.722L220.312 353.298C220.312 353.298 210.594 341.639 207.508 326.132Z" fill="#407BFF"/>
<path opacity="0.7" d="M207.508 326.132L225.981 322.817C225.981 322.817 235.335 340.834 240.821 345.722L220.312 353.298C220.312 353.298 210.594 341.639 207.508 326.132Z" fill="white"/>
<path d="M207.031 308.805C210.493 310.882 220.778 327.398 220.778 327.398L242.338 315.469C242.338 315.469 231.36 305.145 227.899 303.86C224.438 302.574 207.031 308.805 207.031 308.805Z" fill="#407BFF"/>
<path opacity="0.6" d="M206.734 308.805C210.254 310.882 220.712 327.398 220.712 327.398L242.635 315.469C242.635 315.469 231.473 305.145 227.953 303.86C224.433 302.574 206.734 308.805 206.734 308.805Z" fill="white"/>
<path d="M193.727 303.262C193.727 303.262 197.779 312.64 198.679 321.258L227.041 316.257C227.041 316.257 222.839 305.159 221.038 303.262C219.237 301.364 193.727 303.262 193.727 303.262Z" fill="#407BFF"/>
<path opacity="0.7" d="M193.727 303.262C193.727 303.262 197.779 312.64 198.679 321.258L227.041 316.257C227.041 316.257 222.839 305.159 221.038 303.262C219.237 301.364 193.727 303.262 193.727 303.262Z" fill="white"/>
<path d="M196.703 295.966C196.703 295.966 199.693 286.128 204.33 286.827C208.967 287.526 215.297 291.746 216.483 297.021" stroke="#263238" stroke-width="1.2206" stroke-miterlimit="10"/>
<path d="M187.257 294.56C188.297 294.621 189.322 295.566 189.503 296.518L192.251 310.914C192.406 311.724 193.248 312.422 194.133 312.473L231.156 314.504C232.041 314.555 232.633 313.941 232.479 313.131L229.722 298.688C229.529 297.677 228.477 296.805 227.372 296.741L186.301 294.475L187.257 294.56Z" fill="#263238"/>
<path opacity="0.1" d="M187.257 294.56C188.297 294.621 189.322 295.566 189.503 296.518L192.251 310.914C192.406 311.724 193.248 312.422 194.133 312.473L231.156 314.504C232.041 314.555 232.633 313.941 232.479 313.131L229.722 298.688C229.529 297.677 228.477 296.805 227.372 296.741L186.301 294.475L187.257 294.56Z" fill="white"/>
<path d="M217.807 320.304L214.933 320.137C214.647 320.12 214.354 319.87 214.278 319.579L212.004 310.797L215.914 311.024L218.188 319.806C218.264 320.098 218.094 320.321 217.807 320.304Z" fill="black"/>
<path d="M216.966 317.41C216.949 317.41 216.932 317.41 216.914 317.408L214.164 317.248C213.694 317.221 213.23 316.829 213.107 316.354L212.655 314.609C212.588 314.35 212.634 314.101 212.78 313.923C212.92 313.753 213.143 313.654 213.384 313.679L216.134 313.839C216.604 313.866 217.069 314.258 217.191 314.733L217.643 316.478C217.71 316.736 217.664 316.985 217.518 317.163C217.386 317.323 217.192 317.41 216.966 317.41ZM216.94 316.953C217.01 316.953 217.105 316.946 217.165 316.874C217.218 316.81 217.231 316.708 217.201 316.593L216.749 314.848C216.676 314.564 216.382 314.311 216.108 314.295L213.358 314.135C213.286 314.134 213.192 314.141 213.134 314.213C213.081 314.278 213.068 314.38 213.098 314.495L213.55 316.24C213.623 316.524 213.917 316.777 214.191 316.793L216.94 316.953Z" fill="#263238"/>
<g opacity="0.5">
<path d="M216.966 317.41C216.949 317.41 216.932 317.41 216.914 317.408L214.164 317.248C213.694 317.221 213.23 316.829 213.107 316.354L212.655 314.609C212.588 314.35 212.634 314.101 212.78 313.923C212.92 313.753 213.143 313.654 213.384 313.679L216.134 313.839C216.604 313.866 217.069 314.258 217.191 314.733L217.643 316.478C217.71 316.736 217.664 316.985 217.518 317.163C217.386 317.323 217.192 317.41 216.966 317.41ZM216.94 316.953C217.01 316.953 217.105 316.946 217.165 316.874C217.218 316.81 217.231 316.708 217.201 316.593L216.749 314.848C216.676 314.564 216.382 314.311 216.108 314.295L213.358 314.135C213.286 314.134 213.192 314.141 213.134 314.213C213.081 314.278 213.068 314.38 213.098 314.495L213.55 316.24C213.623 316.524 213.917 316.777 214.191 316.793L216.94 316.953Z" fill="white"/>
</g>
</g>
<defs>
<clipPath id="clip0_3231_3011">
<rect width="500" height="500" fill="white" transform="translate(0.5 0.5)"/>
</clipPath>
</defs>
</svg>
